  0
SECTION
  2
HEADER
  9
$ACADVER
  1
AC1015
  9
$ACADMAINTVER
 70
     6
  9
$DWGCODEPAGE
  3
ANSI_1252
  9
$INSBASE
 10
0.0
 20
0.0
 30
0.0
  9
$EXTMIN
 10
14853.6850210336
 20
3121.0297585074
 30
0.0
  9
$EXTMAX
 10
15051.1954210334
 20
3318.5401585075
 30
0.0
  9
$LIMMIN
 10
0.0
 20
0.0
  9
$LIMMAX
 10
420.0
 20
297.0
  9
$ORTHOMODE
 70
     0
  9
$REGENMODE
 70
     1
  9
$FILLMODE
 70
     1
  9
$QTEXTMODE
 70
     0
  9
$MIRRTEXT
 70
     1
  9
$LTSCALE
 40
1.0
  9
$ATTMODE
 70
     1
  9
$TEXTSIZE
 40
3.5
  9
$TRACEWID
 40
1.0
  9
$TEXTSTYLE
  7
Standard
  9
$CLAYER
  8
0
  9
$CELTYPE
  6
ByLayer
  9
$CECOLOR
 62
   256
  9
$CELTSCALE
 40
1.0
  9
$DISPSILH
 70
     0
  9
$DIMSCALE
 40
1.0
  9
$DIMASZ
 40
3.302
  9
$DIMEXO
 40
0.0
  9
$DIMDLI
 40
3.75
  9
$DIMRND
 40
0.0
  9
$DIMDLE
 40
0.0
  9
$DIMEXE
 40
1.0
  9
$DIMTP
 40
0.0
  9
$DIMTM
 40
0.0
  9
$DIMTXT
 40
3.5
  9
$DIMCEN
 40
2.5
  9
$DIMTSZ
 40
0.0
  9
$DIMTOL
 70
     0
  9
$DIMLIM
 70
     0
  9
$DIMTIH
 70
     1
  9
$DIMTOH
 70
     1
  9
$DIMSE1
 70
     0
  9
$DIMSE2
 70
     0
  9
$DIMTAD
 70
     1
  9
$DIMZIN
 70
     1
  9
$DIMBLK
  1

  9
$DIMASO
 70
     1
  9
$DIMSHO
 70
     1
  9
$DIMPOST
  1

  9
$DIMAPOST
  1

  9
$DIMALT
 70
     0
  9
$DIMALTD
 70
     3
  9
$DIMALTF
 40
0.0393700787
  9
$DIMLFAC
 40
1.0
  9
$DIMTOFL
 70
     1
  9
$DIMTVP
 40
0.0
  9
$DIMTIX
 70
     0
  9
$DIMSOXD
 70
     0
  9
$DIMSAH
 70
     0
  9
$DIMBLK1
  1

  9
$DIMBLK2
  1

  9
$DIMSTYLE
  2
ISO-25
  9
$DIMCLRD
 70
     0
  9
$DIMCLRE
 70
     0
  9
$DIMCLRT
 70
     0
  9
$DIMTFAC
 40
1.0
  9
$DIMGAP
 40
1.524
  9
$DIMJUST
 70
     0
  9
$DIMSD1
 70
     0
  9
$DIMSD2
 70
     0
  9
$DIMTOLJ
 70
     0
  9
$DIMTZIN
 70
     1
  9
$DIMALTZ
 70
     0
  9
$DIMALTTZ
 70
     0
  9
$DIMUPT
 70
     0
  9
$DIMDEC
 70
     2
  9
$DIMTDEC
 70
     2
  9
$DIMALTU
 70
     2
  9
$DIMALTTD
 70
     3
  9
$DIMTXSTY
  7
Standard
  9
$DIMAUNIT
 70
     0
  9
$DIMADEC
 70
     2
  9
$DIMALTRND
 40
0.0
  9
$DIMAZIN
 70
     0
  9
$DIMDSEP
 70
    44
  9
$DIMATFIT
 70
     3
  9
$DIMFRAC
 70
     0
  9
$DIMLDRBLK
  1

  9
$DIMLUNIT
 70
     2
  9
$DIMLWD
 70
    -2
  9
$DIMLWE
 70
    -2
  9
$DIMTMOVE
 70
     0
  9
$LUNITS
 70
     2
  9
$LUPREC
 70
     6
  9
$SKETCHINC
 40
1.0
  9
$FILLETRAD
 40
0.0
  9
$AUNITS
 70
     0
  9
$AUPREC
 70
     2
  9
$MENU
  1
.
  9
$ELEVATION
 40
0.0
  9
$PELEVATION
 40
0.0
  9
$THICKNESS
 40
0.0
  9
$LIMCHECK
 70
     0
  9
$CHAMFERA
 40
0.0
  9
$CHAMFERB
 40
0.0
  9
$CHAMFERC
 40
0.0
  9
$CHAMFERD
 40
0.0
  9
$SKPOLY
 70
     0
  9
$TDCREATE
 40
2460804.675822269
  9
$TDUCREATE
 40
2460804.592488935
  9
$TDUPDATE
 40
2460804.675852836
  9
$TDUUPDATE
 40
2460804.592519502
  9
$TDINDWG
 40
0.0000000116
  9
$TDUSRTIMER
 40
0.0000000116
  9
$USRTIMER
 70
     1
  9
$ANGBASE
 50
0.0
  9
$ANGDIR
 70
     0
  9
$PDMODE
 70
     0
  9
$PDSIZE
 40
-1.0
  9
$PLINEWID
 40
0.0
  9
$SPLFRAME
 70
     0
  9
$SPLINETYPE
 70
     6
  9
$SPLINESEGS
 70
     8
  9
$HANDSEED
  5
1E3
  9
$SURFTAB1
 70
     6
  9
$SURFTAB2
 70
     6
  9
$SURFTYPE
 70
     6
  9
$SURFU
 70
     6
  9
$SURFV
 70
     6
  9
$UCSBASE
  2

  9
$UCSNAME
  2

  9
$UCSORG
 10
0.0
 20
0.0
 30
0.0
  9
$UCSXDIR
 10
1.0
 20
0.0
 30
0.0
  9
$UCSYDIR
 10
0.0
 20
1.0
 30
0.0
  9
$UCSORTHOREF
  2

  9
$UCSORTHOVIEW
 70
     0
  9
$UCSORGTOP
 10
0.0
 20
0.0
 30
0.0
  9
$UCSORGBOTTOM
 10
0.0
 20
0.0
 30
0.0
  9
$UCSORGLEFT
 10
0.0
 20
0.0
 30
0.0
  9
$UCSORGRIGHT
 10
0.0
 20
0.0
 30
0.0
  9
$UCSORGFRONT
 10
0.0
 20
0.0
 30
0.0
  9
$UCSORGBACK
 10
0.0
 20
0.0
 30
0.0
  9
$PUCSBASE
  2

  9
$PUCSNAME
  2

  9
$PUCSORG
 10
0.0
 20
0.0
 30
0.0
  9
$PUCSXDIR
 10
1.0
 20
0.0
 30
0.0
  9
$PUCSYDIR
 10
0.0
 20
1.0
 30
0.0
  9
$PUCSORTHOREF
  2

  9
$PUCSORTHOVIEW
 70
     0
  9
$PUCSORGTOP
 10
0.0
 20
0.0
 30
0.0
  9
$PUCSORGBOTTOM
 10
0.0
 20
0.0
 30
0.0
  9
$PUCSORGLEFT
 10
0.0
 20
0.0
 30
0.0
  9
$PUCSORGRIGHT
 10
0.0
 20
0.0
 30
0.0
  9
$PUCSORGFRONT
 10
0.0
 20
0.0
 30
0.0
  9
$PUCSORGBACK
 10
0.0
 20
0.0
 30
0.0
  9
$USERI1
 70
     0
  9
$USERI2
 70
     0
  9
$USERI3
 70
     0
  9
$USERI4
 70
     0
  9
$USERI5
 70
     0
  9
$USERR1
 40
0.0
  9
$USERR2
 40
0.0
  9
$USERR3
 40
0.0
  9
$USERR4
 40
0.0
  9
$USERR5
 40
0.0
  9
$WORLDVIEW
 70
     1
  9
$SHADEDGE
 70
     3
  9
$SHADEDIF
 70
    70
  9
$TILEMODE
 70
     1
  9
$MAXACTVP
 70
    64
  9
$PINSBASE
 10
0.0
 20
0.0
 30
0.0
  9
$PLIMCHECK
 70
     0
  9
$PEXTMIN
 10
1.0000000000E+20
 20
1.0000000000E+20
 30
1.0000000000E+20
  9
$PEXTMAX
 10
-1.0000000000E+20
 20
-1.0000000000E+20
 30
-1.0000000000E+20
  9
$PLIMMIN
 10
0.0
 20
0.0
  9
$PLIMMAX
 10
420.0
 20
297.0
  9
$UNITMODE
 70
     0
  9
$VISRETAIN
 70
     1
  9
$PLINEGEN
 70
     0
  9
$PSLTSCALE
 70
     1
  9
$TREEDEPTH
 70
  3020
  9
$CMLSTYLE
  2
Standard
  9
$CMLJUST
 70
     0
  9
$CMLSCALE
 40
20.0
  9
$PROXYGRAPHICS
 70
     1
  9
$MEASUREMENT
 70
     1
  9
$CELWEIGHT
370
    -1
  9
$ENDCAPS
280
     0
  9
$JOINSTYLE
280
     0
  9
$LWDISPLAY
290
     1
  9
$INSUNITS
 70
     4
  9
$HYPERLINKBASE
  1

  9
$STYLESHEET
  1

  9
$XEDIT
290
     1
  9
$CEPSNTYPE
380
     0
  9
$PSTYLEMODE
290
     1
  9
$FINGERPRINTGUID
  2
{352f1194-11b6-452f-a541-313ca673b54f}
  9
$VERSIONGUID
  2
{FAEB1C32-E019-11D5-929B-00C0DF256EC4}
  9
$EXTNAMES
290
     1
  9
$PSVPSCALE
 40
0.0
  9
$OLESTARTUP
290
     0
  0
ENDSEC
  0
SECTION
  2
CLASSES
  0
CLASS
  1
ACDBDICTIONARYWDFLT
  2
AcDbDictionaryWithDefault
  3
ObjectDBX Classes
 90
        0
280
     0
281
     0
  0
CLASS
  1
VISUALSTYLE
  2
AcDbVisualStyle
  3
ObjectDBX Classes
 90
     4095
280
     0
281
     0
  0
CLASS
  1
MATERIAL
  2
AcDbMaterial
  3
ObjectDBX Classes
 90
     1153
280
     0
281
     0
  0
CLASS
  1
SCALE
  2
AcDbScale
  3
ObjectDBX Classes
 90
     1153
280
     0
281
     0
  0
CLASS
  1
TABLESTYLE
  2
AcDbTableStyle
  3
ObjectDBX Classes
 90
     4095
280
     0
281
     0
  0
CLASS
  1
MLEADERSTYLE
  2
AcDbMLeaderStyle
  3
ACDB_MLEADERSTYLE_CLASS
 90
     4095
280
     0
281
     0
  0
CLASS
  1
SUN
  2
AcDbSun
  3
SCENEOE
 90
     1153
280
     0
281
     0
  0
CLASS
  1
ACDBPLACEHOLDER
  2
AcDbPlaceHolder
  3
ObjectDBX Classes
 90
        0
280
     0
281
     0
  0
CLASS
  1
LAYOUT
  2
AcDbLayout
  3
ObjectDBX Classes
 90
        0
280
     0
281
     0
  0
ENDSEC
  0
SECTION
  2
TABLES
  0
TABLE
  2
VPORT
  5
8
330
0
100
AcDbSymbolTable
 70
     1
  0
VPORT
  5
29
330
8
100
AcDbSymbolTableRecord
100
AcDbViewportTableRecord
  2
*Active
 70
     0
 10
0.0
 20
0.0
 11
1.0
 21
1.0
 12
14952.4402210335
 22
3219.7849585074
 13
0.0
 23
0.0
 14
10.0
 24
10.0
 15
10.0
 25
10.0
 16
0.0
 26
0.0
 36
1.0
 17
0.0
 27
0.0
 37
0.0
 40
201.4606080001
 41
1.0
 42
50.0
 43
0.0
 44
0.0
 50
0.0
 51
0.0
 71
     0
 72
   100
 73
     1
 74
     3
 75
     0
 76
     0
 77
     0
 78
     0
281
     0
 65
     1
110
0.0
120
0.0
130
0.0
111
1.0
121
0.0
131
0.0
112
0.0
122
1.0
132
0.0
 79
     0
146
0.0
  0
ENDTAB
  0
TABLE
  2
LTYPE
  5
5
330
0
100
AcDbSymbolTable
 70
     6
  0
LTYPE
  5
14
330
5
100
AcDbSymbolTableRecord
100
AcDbLinetypeTableRecord
  2
ByBlock
 70
     0
  3

 72
    65
 73
     0
 40
0.0
  0
LTYPE
  5
15
330
5
100
AcDbSymbolTableRecord
100
AcDbLinetypeTableRecord
  2
ByLayer
 70
     0
  3

 72
    65
 73
     0
 40
0.0
  0
LTYPE
  5
16
330
5
100
AcDbSymbolTableRecord
100
AcDbLinetypeTableRecord
  2
Continuous
 70
     0
  3
Solid line
 72
    65
 73
     0
 40
0.0
  0
LTYPE
  5
5E
330
5
100
AcDbSymbolTableRecord
100
AcDbLinetypeTableRecord
  2
HIDDEN
 70
     0
  3
Hidden __ __ __ __ __ __ __ __ __ __ __ __ __ __
 72
    65
 73
     2
 40
1.905
 49
1.27
 74
     0
 49
-0.635
 74
     0
  0
LTYPE
  5
5F
330
5
100
AcDbSymbolTableRecord
100
AcDbLinetypeTableRecord
  2
PHANTOM
 70
     0
  3
Phantom ______  __  __  ______  __  __  ______
 72
    65
 73
     6
 40
12.7
 49
6.35
 74
     0
 49
-1.27
 74
     0
 49
1.27
 74
     0
 49
-1.27
 74
     0
 49
1.27
 74
     0
 49
-1.27
 74
     0
  0
LTYPE
  5
60
330
5
100
AcDbSymbolTableRecord
100
AcDbLinetypeTableRecord
  2
CENTER
 70
     0
  3
Center ____ _ ____ _ ____ _ ____ _ ____ _ ____
 72
    65
 73
     4
 40
10.16
 49
6.35
 74
     0
 49
-1.27
 74
     0
 49
1.27
 74
     0
 49
-1.27
 74
     0
  0
LTYPE
  5
61
330
5
100
AcDbSymbolTableRecord
100
AcDbLinetypeTableRecord
  2
CENTERX2
 70
     0
  3
Center (2x) ________  __  ________  __  _____
 72
    65
 73
     4
 40
20.32
 49
12.7
 74
     0
 49
-2.54
 74
     0
 49
2.54
 74
     0
 49
-2.54
 74
     0
  0
LTYPE
  5
62
330
5
100
AcDbSymbolTableRecord
100
AcDbLinetypeTableRecord
  2
DOT2
 70
     0
  3
Dot (.5x) ........................................
 72
    65
 73
     2
 40
0.635
 49
0.0
 74
     0
 49
-0.635
 74
     0
  0
ENDTAB
  0
TABLE
  2
LAYER
  5
2
330
0
100
AcDbSymbolTable
 70
     1
  0
LAYER
  5
10
330
2
100
AcDbSymbolTableRecord
100
AcDbLayerTableRecord
  2
0
 70
     0
 62
     7
  6
Continuous
370
    -3
390
F
  0
ENDTAB
  0
TABLE
  2
STYLE
  5
3
330
0
100
AcDbSymbolTable
 70
     2
  0
STYLE
  5
11
330
3
100
AcDbSymbolTableRecord
100
AcDbTextStyleTableRecord
  2
Standard
 70
     0
 40
0.0
 41
1.0
 50
0.0
 71
     0
 42
3.5
  3
txt
  4

  0
STYLE
  5
1DF
330
3
100
AcDbSymbolTableRecord
100
AcDbTextStyleTableRecord
  2
SLDTEXTSTYLE0
 70
     0
 40
0.0
 41
0.7
 50
0.0
 71
     0
 42
3.5
  3
TXT
  4

  0
ENDTAB
  0
TABLE
  2
VIEW
  5
6
330
0
100
AcDbSymbolTable
 70
     0
  0
ENDTAB
  0
TABLE
  2
UCS
  5
7
330
0
100
AcDbSymbolTable
 70
     0
  0
ENDTAB
  0
TABLE
  2
APPID
  5
9
330
0
100
AcDbSymbolTable
 70
     1
  0
APPID
  5
12
330
9
100
AcDbSymbolTableRecord
100
AcDbRegAppTableRecord
  2
ACAD
 70
     0
  0
ENDTAB
  0
TABLE
  2
DIMSTYLE
  5
A
330
0
100
AcDbSymbolTable
 70
     1
100
AcDbDimStyleTable
  0
DIMSTYLE
105
27
330
A
100
AcDbSymbolTableRecord
100
AcDbDimStyleTableRecord
  2
ISO-25
 70
     0
 41
2.5
 42
0.625
 43
3.75
 44
1.25
 73
     0
 74
     0
 77
     1
 78
     8
140
2.5
141
2.5
143
0.0393700787
147
0.625
171
     3
172
     1
178
     0
271
     2
272
     2
274
     3
278
    44
283
     0
284
     8
340
11
  0
ENDTAB
  0
TABLE
  2
BLOCK_RECORD
  5
1
330
0
100
AcDbSymbolTable
 70
     1
  0
BLOCK_RECORD
  5
1F
330
1
100
AcDbSymbolTableRecord
100
AcDbBlockTableRecord
  2
*Model_Space
340
22
  0
BLOCK_RECORD
  5
1B
330
1
100
AcDbSymbolTableRecord
100
AcDbBlockTableRecord
  2
*Paper_Space
340
1E
  0
BLOCK_RECORD
  5
23
330
1
100
AcDbSymbolTableRecord
100
AcDbBlockTableRecord
  2
*Paper_Space0
340
26
  0
ENDTAB
  0
ENDSEC
  0
SECTION
  2
BLOCKS
  0
BLOCK
  5
20
330
1F
100
AcDbEntity
  8
0
100
AcDbBlockBegin
  2
*Model_Space
 70
     0
 10
0.0
 20
0.0
 30
0.0
  3
*Model_Space
  1

  0
ENDBLK
  5
21
330
1F
100
AcDbEntity
  8
0
100
AcDbBlockEnd
  0
BLOCK
  5
1C
330
1B
100
AcDbEntity
 67
     1
  8
0
100
AcDbBlockBegin
  2
*Paper_Space
 70
     0
 10
0.0
 20
0.0
 30
0.0
  3
*Paper_Space
  1

  0
ENDBLK
  5
1D
330
1B
100
AcDbEntity
 67
     1
  8
0
100
AcDbBlockEnd
  0
BLOCK
  5
24
330
23
100
AcDbEntity
  8
0
100
AcDbBlockBegin
  2
*Paper_Space0
 70
     0
 10
0.0
 20
0.0
 30
0.0
  3
*Paper_Space0
  1

  0
ENDBLK
  5
25
330
23
100
AcDbEntity
  8
0
100
AcDbBlockEnd
  0
ENDSEC
  0
SECTION
  2
ENTITIES
  0
LINE
  5
121
330
1F
100
AcDbEntity
  8
0
  6
Continuous
 62
     7
370
    25
100
AcDbLine
 10
14963.4130210328
 20
3318.5401585075
 30
0.0
 11
14941.4674210332
 21
3318.5401585075
 31
0.0
  0
LINE
  5
122
330
1F
100
AcDbEntity
  8
0
  6
Continuous
 62
     7
370
    25
100
AcDbLine
 10
14963.4130210328
 20
3302.5825347966
 30
0.0
 11
14963.4130210328
 21
3318.5401585075
 31
0.0
  0
LINE
  5
123
330
1F
100
AcDbEntity
  8
0
  6
Continuous
 62
     7
370
    25
100
AcDbLine
 10
14973.3571210336
 20
3300.256766169
 30
0.0
 11
14963.4130210328
 21
3302.5825347966
 31
0.0
  0
LINE
  5
124
330
1F
100
AcDbEntity
  8
0
  6
Continuous
 62
     7
370
    25
100
AcDbLine
 10
14973.3571210336
 20
3300.256766169
 30
0.0
 11
14977.2197125971
 21
3299.3667404154
 31
0.0
  0
LINE
  5
125
330
1F
100
AcDbEntity
  8
0
  6
Continuous
 62
     7
370
    25
100
AcDbLine
 10
14977.2197125971
 20
3299.3667404154
 30
0.0
 11
14980.5900108596
 21
3298.6193569472
 31
0.0
  0
LINE
  5
126
330
1F
100
AcDbEntity
  8
0
  6
Continuous
 62
     7
370
    25
100
AcDbLine
 10
14980.5900108596
 20
3298.6193569472
 30
0.0
 11
14983.4888833458
 21
3297.9973994407
 31
0.0
  0
LINE
  5
127
330
1F
100
AcDbEntity
  8
0
  6
Continuous
 62
     7
370
    25
100
AcDbLine
 10
15011.3357635421
 20
3300.1729559226
 30
0.0
 11
15002.5227493671
 21
3305.2417572153
 31
0.0
  0
LINE
  5
128
330
1F
100
AcDbEntity
  8
0
  6
Continuous
 62
     7
370
    25
100
AcDbLine
 10
15003.4035017331
 20
3286.4337772541
 30
0.0
 11
15011.3357635421
 21
3300.1729559226
 31
0.0
  0
LINE
  5
129
330
1F
100
AcDbEntity
  8
0
  6
Continuous
 62
     7
370
    25
100
AcDbLine
 10
15018.9600778333
 20
3271.4864000371
 30
0.0
 11
15003.4035017331
 21
3286.4337772541
 31
0.0
  0
LINE
  5
12A
330
1F
100
AcDbEntity
  8
0
  6
Continuous
 62
     7
370
    25
100
AcDbLine
 10
15025.6235026569
 20
3275.2067265053
 30
0.0
 11
15018.9600778333
 21
3271.4864000371
 31
0.0
  0
LINE
  5
12B
330
1F
100
AcDbEntity
  8
0
  6
Continuous
 62
     7
370
    25
100
AcDbLine
 10
15038.4493191694
 20
3268.4465353013
 30
0.0
 11
15034.4985940764
 21
3275.3409128765
 31
0.0
  0
LINE
  5
12C
330
1F
100
AcDbEntity
  8
0
  6
Continuous
 62
     7
370
    25
100
AcDbLine
 10
15042.8241402397
 20
3260.7435899248
 30
0.0
 11
15038.4493191694
 21
3268.4465353013
 31
0.0
  0
LINE
  5
12D
330
1F
100
AcDbEntity
  8
0
  6
Continuous
 62
     7
370
    25
100
AcDbLine
 10
15031.5183212462
 20
3247.8321910591
 30
0.0
 11
15031.116275111
 21
3249.4157910415
 31
0.0
  0
LINE
  5
12E
330
1F
100
AcDbEntity
  8
0
  6
Continuous
 62
     7
370
    25
100
AcDbLine
 10
15032.1901007509
 20
3245.1625280215
 30
0.0
 11
15031.5183212462
 21
3247.8321910591
 31
0.0
  0
LINE
  5
12F
330
1F
100
AcDbEntity
  8
0
  6
Continuous
 62
     7
370
    25
100
AcDbLine
 10
15032.9613637752
 20
3242.0870606645
 30
0.0
 11
15032.1901007509
 21
3245.1625280215
 31
0.0
  0
LINE
  5
130
330
1F
100
AcDbEntity
  8
0
  6
Continuous
 62
     7
370
    25
100
AcDbLine
 10
15033.7360407122
 20
3238.9873585074
 30
0.0
 11
15032.9613637752
 21
3242.0870606645
 31
0.0
  0
LINE
  5
131
330
1F
100
AcDbEntity
  8
0
  6
Continuous
 62
     7
370
    25
100
AcDbLine
 10
15035.6181845221
 20
3231.4435585073
 30
0.0
 11
15033.7360407122
 21
3238.9873585074
 31
0.0
  0
LINE
  5
132
330
1F
100
AcDbEntity
  8
0
  6
Continuous
 62
     7
370
    25
100
AcDbLine
 10
15051.1954210334
 20
3230.6208618548
 30
0.0
 11
15035.6181845221
 21
3231.4435585073
 31
0.0
  0
LINE
  5
133
330
1F
100
AcDbEntity
  8
0
  6
Continuous
 62
     7
370
    25
100
AcDbLine
 10
15051.1954210334
 20
3208.8121585075
 30
0.0
 11
15051.1954210334
 21
3230.6208618548
 31
0.0
  0
LINE
  5
134
330
1F
100
AcDbEntity
  8
0
  6
Continuous
 62
     7
370
    25
100
AcDbLine
 10
15035.3638638221
 20
3208.8121585075
 30
0.0
 11
15051.1954210334
 21
3208.8121585075
 31
0.0
  0
LINE
  5
135
330
1F
100
AcDbEntity
  8
0
  6
Continuous
 62
     7
370
    25
100
AcDbLine
 10
15033.7541074277
 20
3200.9254585076
 30
0.0
 11
15035.3638638221
 21
3208.8121585075
 31
0.0
  0
LINE
  5
136
330
1F
100
AcDbEntity
  8
0
  6
Continuous
 62
     7
370
    25
100
AcDbLine
 10
15032.7063010393
 20
3162.7612796671
 30
0.0
 11
15037.6784552811
 21
3170.5695460927
 31
0.0
  0
LINE
  5
137
330
1F
100
AcDbEntity
  8
0
  6
Continuous
 62
     7
370
    25
100
AcDbLine
 10
15019.7472459312
 20
3168.3499585075
 30
0.0
 11
15025.1131728171
 21
3165.2638585075
 31
0.0
  0
LINE
  5
138
330
1F
100
AcDbEntity
  8
0
  6
Continuous
 62
     7
370
    25
100
AcDbLine
 10
15012.1541341677
 20
3160.8530123635
 30
0.0
 11
15019.7472459312
 21
3168.3499585075
 31
0.0
  0
LINE
  5
139
330
1F
100
AcDbEntity
  8
0
  6
Continuous
 62
     7
370
    25
100
AcDbLine
 10
15011.3005202801
 20
3140.4743899253
 30
0.0
 11
15007.9307706567
 21
3145.8124170953
 31
0.0
  0
LINE
  5
13A
330
1F
100
AcDbEntity
  8
0
  6
Continuous
 62
     7
370
    25
100
AcDbLine
 10
15001.6535897644
 20
3134.7432539659
 30
0.0
 11
15011.3005202801
 21
3140.4743899253
 31
0.0
  0
LINE
  5
13B
330
1F
100
AcDbEntity
  8
0
  6
Continuous
 62
     7
370
    25
100
AcDbLine
 10
14990.4397763269
 20
3131.5204753975
 30
0.0
 11
14991.3397448095
 21
3129.8432678295
 31
0.0
  0
LINE
  5
13C
330
1F
100
AcDbEntity
  8
0
  6
Continuous
 62
     7
370
    25
100
AcDbLine
 10
14988.2425417071
 20
3135.7744585074
 30
0.0
 11
14989.3988279392
 21
3133.5070377439
 31
0.0
  0
LINE
  5
13D
330
1F
100
AcDbEntity
  8
0
  6
Continuous
 62
     7
370
    25
100
AcDbLine
 10
14983.5965004526
 20
3141.4136766931
 30
0.0
 11
14980.7748600204
 21
3140.7358717495
 31
0.0
  0
LINE
  5
13E
330
1F
100
AcDbEntity
  8
0
  6
Continuous
 62
     7
370
    25
100
AcDbLine
 10
14980.7748600204
 20
3140.7358717495
 30
0.0
 11
14977.451337432
 21
3139.912158741
 31
0.0
  0
LINE
  5
13F
330
1F
100
AcDbEntity
  8
0
  6
Continuous
 62
     7
370
    25
100
AcDbLine
 10
14977.451337432
 20
3139.912158741
 30
0.0
 11
14973.7000210335
 21
3138.9503804765
 31
0.0
  0
LINE
  5
140
330
1F
100
AcDbEntity
  8
0
  6
Continuous
 62
     7
370
    25
100
AcDbLine
 10
14964.0988210336
 20
3136.4551369532
 30
0.0
 11
14973.7000210335
 21
3138.9503804765
 31
0.0
  0
LINE
  5
141
330
1F
100
AcDbEntity
  8
0
  6
Continuous
 62
     7
370
    25
100
AcDbLine
 10
14963.276124381
 20
3121.0297585074
 30
0.0
 11
14964.0988210336
 21
3136.4551369532
 31
0.0
  0
LINE
  5
142
330
1F
100
AcDbEntity
  8
0
  6
Continuous
 62
     7
370
    25
100
AcDbLine
 10
14941.4674210332
 20
3121.0297585074
 30
0.0
 11
14963.276124381
 21
3121.0297585074
 31
0.0
  0
LINE
  5
143
330
1F
100
AcDbEntity
  8
0
  6
Continuous
 62
     7
370
    25
100
AcDbLine
 10
14941.4674210337
 20
3129.2593585076
 30
0.0
 11
14941.4674210332
 21
3121.0297585074
 31
0.0
  0
LINE
  5
144
330
1F
100
AcDbEntity
  8
0
  6
Continuous
 62
     7
370
    25
100
AcDbLine
 10
14912.4888638517
 20
3129.1581344274
 30
0.0
 11
14916.1356739325
 21
3135.3809464676
 31
0.0
  0
LINE
  5
145
330
1F
100
AcDbEntity
  8
0
  6
Continuous
 62
     7
370
    25
100
AcDbLine
 10
14904.6896417574
 20
3133.5410877139
 30
0.0
 11
14912.4888638517
 21
3129.1581344274
 31
0.0
  0
LINE
  5
146
330
1F
100
AcDbEntity
  8
0
  6
Continuous
 62
     7
370
    25
100
AcDbLine
 10
14900.8546248403
 20
3153.4725904974
 30
0.0
 11
14897.222371551
 21
3146.9669133893
 31
0.0
  0
LINE
  5
147
330
1F
100
AcDbEntity
  8
0
  6
Continuous
 62
     7
370
    25
100
AcDbLine
 10
14885.5672293541
 20
3168.7599859831
 30
0.0
 11
14900.8546248403
 21
3153.4725904974
 31
0.0
  0
LINE
  5
148
330
1F
100
AcDbEntity
  8
0
  6
Continuous
 62
     7
370
    25
100
AcDbLine
 10
14879.7731204956
 20
3165.4688715594
 30
0.0
 11
14885.5672293541
 21
3168.7599859831
 31
0.0
  0
LINE
  5
149
330
1F
100
AcDbEntity
  8
0
  6
Continuous
 62
     7
370
    25
100
AcDbLine
 10
14869.7076956173
 20
3208.8121585075
 30
0.0
 11
14871.4547532859
 21
3200.9254585076
 31
0.0
  0
LINE
  5
14A
330
1F
100
AcDbEntity
  8
0
  6
Continuous
 62
     7
370
    25
100
AcDbLine
 10
14853.6850210336
 20
3208.8121585075
 30
0.0
 11
14869.7076956173
 21
3208.8121585075
 31
0.0
  0
LINE
  5
14B
330
1F
100
AcDbEntity
  8
0
  6
Continuous
 62
     7
370
    25
100
AcDbLine
 10
14853.6850210336
 20
3230.7577585074
 30
0.0
 11
14853.6850210336
 21
3208.8121585075
 31
0.0
  0
LINE
  5
14C
330
1F
100
AcDbEntity
  8
0
  6
Continuous
 62
     7
370
    25
100
AcDbLine
 10
14869.4584210339
 20
3230.7767249923
 30
0.0
 11
14853.6850210336
 21
3230.7577585074
 31
0.0
  0
LINE
  5
14D
330
1F
100
AcDbEntity
  8
0
  6
Continuous
 62
     7
370
    25
100
AcDbLine
 10
14875.2393186408
 20
3251.5978859408
 30
0.0
 11
14869.4584210339
 21
3230.7767249923
 31
0.0
  0
LINE
  5
14E
330
1F
100
AcDbEntity
  8
0
  6
Continuous
 62
     7
370
    25
100
AcDbLine
 10
14868.5769705225
 20
3255.6972705284
 30
0.0
 11
14875.2393186408
 21
3251.5978859408
 31
0.0
  0
LINE
  5
14F
330
1F
100
AcDbEntity
  8
0
  6
Continuous
 62
     7
370
    25
100
AcDbLine
 10
14867.1048925934
 20
3270.0547033835
 30
0.0
 11
14862.3378391865
 21
3261.986506413
 31
0.0
  0
LINE
  5
150
330
1F
100
AcDbEntity
  8
0
  6
Continuous
 62
     7
370
    25
100
AcDbLine
 10
14872.0610608363
 20
3278.3177155593
 30
0.0
 11
14867.1048925934
 21
3270.0547033835
 31
0.0
  0
LINE
  5
151
330
1F
100
AcDbEntity
  8
0
  6
Continuous
 62
     7
370
    25
100
AcDbLine
 10
14885.9176210339
 20
3270.8137509378
 30
0.0
 11
14879.7454210335
 21
3274.7628534284
 31
0.0
  0
LINE
  5
152
330
1F
100
AcDbEntity
  8
0
  6
Continuous
 62
     7
370
    25
100
AcDbLine
 10
14901.4888197623
 20
3286.0215949952
 30
0.0
 11
14885.9176210339
 21
3270.8137509378
 31
0.0
  0
LINE
  5
153
330
1F
100
AcDbEntity
  8
0
  6
Continuous
 62
     7
370
    25
100
AcDbLine
 10
14893.51267361
 20
3300.1545490507
 30
0.0
 11
14901.4888197623
 21
3286.0215949952
 31
0.0
  0
LINE
  5
154
330
1F
100
AcDbEntity
  8
0
  6
Continuous
 62
     7
370
    25
100
AcDbLine
 10
14902.3416902431
 20
3305.2325537792
 30
0.0
 11
14893.51267361
 21
3300.1545490507
 31
0.0
  0
LINE
  5
155
330
1F
100
AcDbEntity
  8
0
  6
Continuous
 62
     7
370
    25
100
AcDbLine
 10
14920.6677928338
 20
3296.9972465514
 30
0.0
 11
14917.008706934
 21
3303.6341405167
 31
0.0
  0
LINE
  5
156
330
1F
100
AcDbEntity
  8
0
  6
Continuous
 62
     7
370
    25
100
AcDbLine
 10
14941.4484545493
 20
3302.7667585074
 30
0.0
 11
14920.6677928338
 21
3296.9972465514
 31
0.0
  0
LINE
  5
157
330
1F
100
AcDbEntity
  8
0
  6
Continuous
 62
     7
370
    25
100
AcDbLine
 10
14941.4674210332
 20
3318.5401585075
 30
0.0
 11
14941.4484545493
 21
3302.7667585074
 31
0.0
  0
ARC
  5
158
330
1F
100
AcDbEntity
  8
0
  6
Continuous
 62
     7
370
    25
100
AcDbCircle
 10
14953.8476475598
 20
3221.6670770944
 30
0.0
 40
26.81514616652386
100
AcDbArc
 50
62.3701183929
 51
82.0794916912
  0
ARC
  5
159
330
1F
100
AcDbEntity
  8
0
  6
Continuous
 62
     7
370
    25
100
AcDbCircle
 10
14953.2479264402
 20
3217.3561621662
 30
0.0
 40
31.16757685958244
100
AcDbArc
 50
82.0795655901
 51
99.686900355
  0
ARC
  5
15A
330
1F
100
AcDbEntity
  8
0
  6
Continuous
 62
     7
370
    25
100
AcDbCircle
 10
14953.2609049902
 20
3217.280029905
 30
0.0
 40
31.24480744729069
100
AcDbArc
 50
99.6868695139
 51
117.2711929592
  0
ARC
  5
15B
330
1F
100
AcDbEntity
  8
0
  6
Continuous
 62
     7
370
    25
100
AcDbCircle
 10
14951.3571906593
 20
3220.9729568704
 30
0.0
 40
27.09007065357597
100
AcDbArc
 50
117.2711866946
 51
136.8410999012
  0
ARC
  5
15C
330
1F
100
AcDbEntity
  8
0
  6
Continuous
 62
     7
370
    25
100
AcDbCircle
 10
14952.9456375522
 20
3219.483457634
 30
0.0
 40
29.26763156120159
100
AcDbArc
 50
136.8411125925
 51
173.2225550712
  0
ARC
  5
15D
330
1F
100
AcDbEntity
  8
0
  6
Continuous
 62
     7
370
    25
100
AcDbCircle
 10
14952.8234855948
 20
3219.4979299529
 30
0.0
 40
29.14462527383213
100
AcDbArc
 50
173.222467902
 51
209.7187576054
  0
ARC
  5
15E
330
1F
100
AcDbEntity
  8
0
  6
Continuous
 62
     7
370
    25
100
AcDbCircle
 10
14952.8911347849
 20
3219.5365156466
 30
0.0
 40
29.22250510438461
100
AcDbArc
 50
209.7187063837
 51
246.1548935217
  0
ARC
  5
15F
330
1F
100
AcDbEntity
  8
0
  6
Continuous
 62
     7
370
    25
100
AcDbCircle
 10
14952.9666518814
 20
3219.7074376114
 30
0.0
 40
29.40936641446403
100
AcDbArc
 50
246.1549456662
 51
282.4177231167
  0
ARC
  5
160
330
1F
100
AcDbEntity
  8
0
  6
Continuous
 62
     7
370
    25
100
AcDbCircle
 10
14953.5599608964
 20
3217.0128901094
 30
0.0
 40
26.65027202899728
100
AcDbArc
 50
282.417722114
 51
305.4459220949
  0
ARC
  5
161
330
1F
100
AcDbEntity
  8
0
  6
Continuous
 62
     7
370
    25
100
AcDbCircle
 10
14950.7933240709
 20
3220.8993159481
 30
0.0
 40
31.42086791669137
100
AcDbArc
 50
305.445932431
 51
325.7996335572
  0
ARC
  5
162
330
1F
100
AcDbEntity
  8
0
  6
Continuous
 62
     7
370
    25
100
AcDbCircle
 10
14950.7579867913
 20
3220.9232874553
 30
0.0
 40
31.46356867978883
100
AcDbArc
 50
325.7996998471
 51
346.1383937919
  0
ARC
  5
163
330
1F
100
AcDbEntity
  8
0
  6
Continuous
 62
     7
370
    25
100
AcDbCircle
 10
14955.2987943398
 20
3219.8028012725
 30
0.0
 40
26.78655868637585
100
AcDbArc
 50
346.1383491976
 51
9.0850974067
  0
ARC
  5
164
330
1F
100
AcDbEntity
  8
0
  6
Continuous
 62
     7
370
    25
100
AcDbCircle
 10
14959.0569992616
 20
3220.403779799
 30
0.0
 40
22.98060553068166
100
AcDbArc
 50
9.0850625173
 51
24.9450657453
  0
ARC
  5
165
330
1F
100
AcDbEntity
  8
0
  6
Continuous
 62
     7
370
    25
100
AcDbCircle
 10
14945.604604589
 20
3214.1465329149
 30
0.0
 40
37.81704920826514
100
AcDbArc
 50
24.9450488682
 51
35.8662884245
  0
ARC
  5
166
330
1F
100
AcDbEntity
  8
0
  6
Continuous
 62
     7
370
    25
100
AcDbCircle
 10
14945.4859367212
 20
3214.0607369077
 30
0.0
 40
37.96348355429026
100
AcDbArc
 50
35.8662898431
 51
46.7696936156
  0
ARC
  5
167
330
1F
100
AcDbEntity
  8
0
  6
Continuous
 62
     7
370
    25
100
AcDbCircle
 10
14955.3696086343
 20
3224.5746241675
 30
0.0
 40
23.53334856542408
100
AcDbArc
 50
46.7697006468
 51
62.370120236
  0
ARC
  5
168
330
1F
100
AcDbEntity
  8
0
  6
Continuous
 62
     7
370
    25
100
AcDbCircle
 10
14983.959929351
 20
3300.21361012
 30
0.0
 40
2.265717130265434
100
AcDbArc
 50
258.0005965402
 51
271.4096759965
  0
ARC
  5
169
330
1F
100
AcDbEntity
  8
0
  6
Continuous
 62
     7
370
    25
100
AcDbCircle
 10
14984.0033517615
 20
3298.4491401406
 30
0.0
 40
0.5007129336945133
100
AcDbArc
 50
271.4095005574
 51
324.9540636002
  0
ARC
  5
16A
330
1F
100
AcDbEntity
  8
0
  6
Continuous
 62
     7
370
    25
100
AcDbCircle
 10
14927.7690266239
 20
3337.8919710632
 30
0.0
 40
69.1886757427759
100
AcDbArc
 50
324.9541283662
 51
326.5693842424
  0
ARC
  5
16B
330
1F
100
AcDbEntity
  8
0
  6
Continuous
 62
     7
370
    25
100
AcDbCircle
 10
14946.677173668
 20
3325.4098454517
 30
0.0
 40
46.53207660646723
100
AcDbArc
 50
326.5693825923
 51
329.4693109583
  0
ARC
  5
16C
330
1F
100
AcDbEntity
  8
0
  6
Continuous
 62
     7
370
    25
100
AcDbCircle
 10
14915.4605592475
 20
3343.820362912
 30
0.0
 40
82.77327097199962
100
AcDbArc
 50
329.4693125918
 51
331.3533845659
  0
ARC
  5
16D
330
1F
100
AcDbEntity
  8
0
  6
Continuous
 62
     7
370
    25
100
AcDbCircle
 10
15034.1649732145
 20
3278.9752493567
 30
0.0
 40
52.48805626993464
100
AcDbArc
 50
148.367961375
 51
151.3533609407
  0
ARC
  5
16E
330
1F
100
AcDbEntity
  8
0
  6
Continuous
 62
     7
370
    25
100
AcDbCircle
 10
15016.0933960155
 20
3290.1068300093
 30
0.0
 40
31.26321256546834
100
AcDbArc
 50
143.9669431284
 51
148.3678639009
  0
ARC
  5
16F
330
1F
100
AcDbEntity
  8
0
  6
Continuous
 62
     7
370
    25
100
AcDbCircle
 10
15017.1368451739
 20
3289.3478095575
 30
0.0
 40
32.5535219053158
100
AcDbArc
 50
140.5553601301
 51
143.9669572577
  0
ARC
  5
170
330
1F
100
AcDbEntity
  8
0
  6
Continuous
 62
     7
370
    25
100
AcDbCircle
 10
14992.5916323535
 20
3309.5415212491
 30
0.0
 40
0.769037258128219
100
AcDbArc
 50
90.0000591046
 51
140.5553432995
  0
ARC
  5
171
330
1F
100
AcDbEntity
  8
0
  6
Continuous
 62
     7
370
    25
100
AcDbCircle
 10
14992.5916325015
 20
3308.6130878328
 30
0.0
 40
1.697470674417934
100
AcDbArc
 50
63.9089963169
 51
90.0000317741
  0
ARC
  5
172
330
1F
100
AcDbEntity
  8
0
  6
Continuous
 62
     7
370
    25
100
AcDbCircle
 10
14915.1687387581
 20
3150.5105151075
 30
0.0
 40
177.7393065486051
100
AcDbArc
 50
62.9604062428
 51
63.908989789
  0
ARC
  5
173
330
1F
100
AcDbEntity
  8
0
  6
Continuous
 62
     7
370
    25
100
AcDbCircle
 10
14942.1988654205
 20
3203.4695891521
 30
0.0
 40
118.2809911415674
100
AcDbArc
 50
61.264260004
 51
62.9604132951
  0
ARC
  5
174
330
1F
100
AcDbEntity
  8
0
  6
Continuous
 62
     7
370
    25
100
AcDbCircle
 10
14905.6513871274
 20
3136.8135961496
 30
0.0
 40
194.299012509452
100
AcDbArc
 50
60.0946638662
 51
61.2641751574
  0
ARC
  5
175
330
1F
100
AcDbEntity
  8
0
  6
Continuous
 62
     7
370
    25
100
AcDbCircle
 10
15083.1860349112
 20
3172.1071816003
 30
0.0
 40
118.0803170691141
100
AcDbArc
 50
117.7543479913
 51
119.1754942767
  0
ARC
  5
176
330
1F
100
AcDbEntity
  8
0
  6
Continuous
 62
     7
370
    25
100
AcDbCircle
 10
15056.3166613293
 20
3223.1679167276
 30
0.0
 40
60.38142705886526
100
AcDbArc
 50
115.4068455622
 51
117.7542861511
  0
ARC
  5
177
330
1F
100
AcDbEntity
  8
0
  6
Continuous
 62
     7
370
    25
100
AcDbCircle
 10
15083.850550651
 20
3165.1993941249
 30
0.0
 40
124.5566923401085
100
AcDbArc
 50
114.4541048603
 51
115.4068135885
  0
ARC
  5
178
330
1F
100
AcDbEntity
  8
0
  6
Continuous
 62
     7
370
    25
100
AcDbCircle
 10
15032.3789780919
 20
3278.3836246115
 30
0.0
 40
0.2184729039775138
100
AcDbArc
 50
32.9663148289
 51
114.4542167988
  0
ARC
  5
179
330
1F
100
AcDbEntity
  8
0
  6
Continuous
 62
     7
370
    25
100
AcDbCircle
 10
14972.3785171881
 20
3239.469184382
 30
0.0
 40
71.73342915120132
100
AcDbArc
 50
30.004624426
 51
32.9661929647
  0
ARC
  5
17A
330
1F
100
AcDbEntity
  8
0
  6
Continuous
 62
     7
370
    25
100
AcDbCircle
 10
15041.8776234582
 20
3260.2066728505
 30
0.0
 40
1.088197575094464
100
AcDbArc
 50
0.0000073441
 51
29.5643234135
  0
ARC
  5
17B
330
1F
100
AcDbEntity
  8
0
  6
Continuous
 62
     7
370
    25
100
AcDbCircle
 10
15042.5919113367
 20
3260.2066734584
 30
0.0
 40
0.3739096965829704
100
AcDbArc
 50
304.7166249125
 51
359.9999282294
  0
ARC
  5
17C
330
1F
100
AcDbEntity
  8
0
  6
Continuous
 62
     7
370
    25
100
AcDbCircle
 10
14967.6422077304
 20
3368.3804069367
 30
0.0
 40
131.9756372129985
100
AcDbArc
 50
303.8299959488
 51
304.7167010036
  0
ARC
  5
17D
330
1F
100
AcDbEntity
  8
0
  6
Continuous
 62
     7
370
    25
100
AcDbCircle
 10
15004.6601878771
 20
3313.1462595289
 30
0.0
 40
65.48396935903348
100
AcDbArc
 50
301.7148879935
 51
303.8299589345
  0
ARC
  5
17E
330
1F
100
AcDbEntity
  8
0
  6
Continuous
 62
     7
370
    25
100
AcDbCircle
 10
14975.9349754355
 20
3359.6291013537
 30
0.0
 40
120.1263742650946
100
AcDbArc
 50
300.3719454735
 51
301.7149431767
  0
ARC
  5
17F
330
1F
100
AcDbEntity
  8
0
  6
Continuous
 62
     7
370
    25
100
AcDbCircle
 10
15066.9799893059
 20
3204.2725090219
 30
0.0
 40
59.94268285365403
100
AcDbArc
 50
120.3720004172
 51
124.0081438352
  0
ARC
  5
180
330
1F
100
AcDbEntity
  8
0
  6
Continuous
 62
     7
370
    25
100
AcDbCircle
 10
15038.0337116641
 20
3247.1739644934
 30
0.0
 40
8.189210787634906
100
AcDbArc
 50
124.0081002275
 51
139.7928329197
  0
ARC
  5
181
330
1F
100
AcDbEntity
  8
0
  6
Continuous
 62
     7
370
    25
100
AcDbCircle
 10
15034.2598811727
 20
3250.3639053909
 30
0.0
 40
3.247802131430084
100
AcDbArc
 50
139.7928006301
 51
168.0143628466
  0
ARC
  5
182
330
1F
100
AcDbEntity
  8
0
  6
Continuous
 62
     7
370
    25
100
AcDbCircle
 10
15034.5681534864
 20
3250.2984621667
 30
0.0
 40
3.562944377052452
100
AcDbArc
 50
168.0143835223
 51
194.3436061855
  0
ARC
  5
183
330
1F
100
AcDbEntity
  8
0
  6
Continuous
 62
     7
370
    25
100
AcDbCircle
 10
14758.9048123871
 20
3257.0248647923
 30
0.0
 40
280.5160928891588
100
AcDbArc
 50
347.79164351
 51
348.4638356886
  0
ARC
  5
184
330
1F
100
AcDbEntity
  8
0
  6
Continuous
 62
     7
370
    25
100
AcDbCircle
 10
14777.8644718182
 20
3252.9223758025
 30
0.0
 40
261.1176625013381
100
AcDbArc
 50
347.0824036092
 51
347.791723062
  0
ARC
  5
185
330
1F
100
AcDbEntity
  8
0
  6
Continuous
 62
     7
370
    25
100
AcDbCircle
 10
14802.724601759
 20
3247.2207188339
 30
0.0
 40
235.6120758025406
100
AcDbArc
 50
346.4046853245
 51
347.0823778117
  0
ARC
  5
186
330
1F
100
AcDbEntity
  8
0
  6
Continuous
 62
     7
370
    25
100
AcDbCircle
 10
15003.9753651627
 20
3198.5504729047
 30
0.0
 40
28.55975727078405
100
AcDbArc
 50
343.1995045271
 51
346.4046506741
  0
ARC
  5
187
330
1F
100
AcDbEntity
  8
0
  6
Continuous
 62
     7
370
    25
100
AcDbCircle
 10
15034.3938693899
 20
3189.3662999353
 30
0.0
 40
3.214987929632738
100
AcDbArc
 50
163.1995376961
 51
190.9069812958
  0
ARC
  5
188
330
1F
100
AcDbEntity
  8
0
  6
Continuous
 62
     7
370
    25
100
AcDbCircle
 10
15034.0185147286
 20
3189.2939652963
 30
0.0
 40
2.832726995527543
100
AcDbArc
 50
190.9068762029
 51
221.3709387519
  0
ARC
  5
189
330
1F
100
AcDbEntity
  8
0
  6
Continuous
 62
     7
370
    25
100
AcDbCircle
 10
15037.5426562446
 20
3192.3977428262
 30
0.0
 40
7.52879006790691
100
AcDbArc
 50
221.3709630608
 51
237.7962969247
  0
ARC
  5
18A
330
1F
100
AcDbEntity
  8
0
  6
Continuous
 62
     7
370
    25
100
AcDbCircle
 10
15064.8596135243
 20
3235.77018939
 30
0.0
 40
58.786816521844
100
AcDbArc
 50
237.7963340482
 51
241.4088775053
  0
ARC
  5
18B
330
1F
100
AcDbEntity
  8
0
  6
Continuous
 62
     7
370
    25
100
AcDbCircle
 10
14988.8435781856
 20
3096.2956913353
 30
0.0
 40
100.0576773588883
100
AcDbArc
 50
59.8373420117
 51
61.4088260185
  0
ARC
  5
18C
330
1F
100
AcDbEntity
  8
0
  6
Continuous
 62
     7
370
    25
100
AcDbCircle
 10
15011.5049766136
 20
3135.2901413683
 30
0.0
 40
54.95661182743969
100
AcDbArc
 50
57.3763263628
 51
59.8374292511
  0
ARC
  5
18D
330
1F
100
AcDbEntity
  8
0
  6
Continuous
 62
     7
370
    25
100
AcDbCircle
 10
14988.8831329526
 20
3099.949577652
 30
0.0
 40
96.91734650166939
100
AcDbArc
 50
56.2079457704
 51
57.3763111678
  0
ARC
  5
18E
330
1F
100
AcDbEntity
  8
0
  6
Continuous
 62
     7
370
    25
100
AcDbCircle
 10
15042.5621396362
 20
3180.1583788735
 30
0.0
 40
0.4036813970938424
100
AcDbArc
 50
0.00012399
 51
56.2080787884
  0
ARC
  5
18F
330
1F
100
AcDbEntity
  8
0
  6
Continuous
 62
     7
370
    25
100
AcDbCircle
 10
15039.2445093438
 20
3180.1583808832
 30
0.0
 40
3.721311689520181
100
AcDbArc
 50
328.6224975945
 51
359.9999825073
  0
ARC
  5
190
330
1F
100
AcDbEntity
  8
0
  6
Continuous
 62
     7
370
    25
100
AcDbCircle
 10
14515.711955545
 20
3499.4418084946
 30
0.0
 40
616.9327287671216
100
AcDbArc
 50
327.7864503124
 51
328.6225066131
  0
ARC
  5
191
330
1F
100
AcDbEntity
  8
0
  6
Continuous
 62
     7
370
    25
100
AcDbCircle
 10
15031.6368716214
 20
3163.4495000712
 30
0.0
 40
1.271741563580761
100
AcDbArc
 50
270.0000508136
 51
327.2371060388
  0
ARC
  5
192
330
1F
100
AcDbEntity
  8
0
  6
Continuous
 62
     7
370
    25
100
AcDbCircle
 10
15031.6368732049
 20
3163.9732453489
 30
0.0
 40
1.795486841189255
100
AcDbArc
 50
246.724289653
 51
269.9999854588
  0
ARC
  5
193
330
1F
100
AcDbEntity
  8
0
  6
Continuous
 62
     7
370
    25
100
AcDbCircle
 10
15051.4266571592
 20
3209.9783868572
 30
0.0
 40
51.87650713988934
100
AcDbArc
 50
244.6830540648
 51
246.7243341524
  0
ARC
  5
194
330
1F
100
AcDbEntity
  8
0
  6
Continuous
 62
     7
370
    25
100
AcDbCircle
 10
15050.1241796521
 20
3207.2251502437
 30
0.0
 40
48.83072981618758
100
AcDbArc
 50
242.070742931
 51
244.6830881421
  0
ARC
  5
195
330
1F
100
AcDbEntity
  8
0
  6
Continuous
 62
     7
370
    25
100
AcDbCircle
 10
15060.463871485
 20
3226.7293913086
 30
0.0
 40
70.90616065494403
100
AcDbArc
 50
240.0954820029
 51
242.0707623696
  0
ARC
  5
196
330
1F
100
AcDbEntity
  8
0
  6
Continuous
 62
     7
370
    25
100
AcDbCircle
 10
15118.2864153154
 20
3053.3591504102
 30
0.0
 40
151.0595626210574
100
AcDbArc
 50
134.6348210189
 51
136.2072216917
  0
ARC
  5
197
330
1F
100
AcDbEntity
  8
0
  6
Continuous
 62
     7
370
    25
100
AcDbCircle
 10
15073.001608435
 20
3096.7745683736
 30
0.0
 40
88.3251043775617
100
AcDbArc
 50
136.2071303593
 51
138.5573208416
  0
ARC
  5
198
330
1F
100
AcDbEntity
  8
0
  6
Continuous
 62
     7
370
    25
100
AcDbCircle
 10
15107.9386119427
 20
3065.9268036555
 30
0.0
 40
134.9317434126894
100
AcDbArc
 50
138.5572028255
 51
139.8431358427
  0
ARC
  5
199
330
1F
100
AcDbEntity
  8
0
  6
Continuous
 62
     7
370
    25
100
AcDbCircle
 10
15005.6289105476
 20
3152.2532560386
 30
0.0
 40
1.067889514044515
100
AcDbArc
 50
139.843096445
 51
180.0000059202
  0
ARC
  5
19A
330
1F
100
AcDbEntity
  8
0
  6
Continuous
 62
     7
370
    25
100
AcDbCircle
 10
15006.1320296245
 20
3152.2532573722
 30
0.0
 40
1.571008590901992
100
AcDbArc
 50
180.0000526611
 51
205.5998326016
  0
ARC
  5
19B
330
1F
100
AcDbEntity
  8
0
  6
Continuous
 62
     7
370
    25
100
AcDbCircle
 10
15052.4863102277
 20
3174.4622879837
 30
0.0
 40
52.9710121993276
100
AcDbArc
 50
205.599781022
 51
207.6179154177
  0
ARC
  5
19C
330
1F
100
AcDbEntity
  8
0
  6
Continuous
 62
     7
370
    25
100
AcDbCircle
 10
15048.3961940034
 20
3172.3223515377
 30
0.0
 40
48.35491225246156
100
AcDbArc
 50
207.6178664437
 51
210.2842917239
  0
ARC
  5
19D
330
1F
100
AcDbEntity
  8
0
  6
Continuous
 62
     7
370
    25
100
AcDbCircle
 10
15068.8106228181
 20
3184.244136612
 30
0.0
 40
71.99551002809977
100
AcDbArc
 50
210.2843349055
 51
212.2630527856
  0
ARC
  5
19E
330
1F
100
AcDbEntity
  8
0
  6
Continuous
 62
     7
370
    25
100
AcDbCircle
 10
14893.8505256368
 20
3316.2030542193
 30
0.0
 40
211.0667187012531
100
AcDbArc
 50
299.5438338427
 51
300.7140326679
  0
ARC
  5
19F
330
1F
100
AcDbEntity
  8
0
  6
Continuous
 62
     7
370
    25
100
AcDbCircle
 10
14944.1384110056
 20
3227.4780982833
 30
0.0
 40
109.0814784911504
100
AcDbArc
 50
297.6260398503
 51
299.5437994293
  0
ARC
  5
1A0
330
1F
100
AcDbEntity
  8
0
  6
Continuous
 62
     7
370
    25
100
AcDbCircle
 10
14867.6954715106
 20
3373.5386006937
 30
0.0
 40
273.9365462416146
100
AcDbArc
 50
296.9767305521
 51
297.6260045904
  0
ARC
  5
1A1
330
1F
100
AcDbEntity
  8
0
  6
Continuous
 62
     7
370
    25
100
AcDbCircle
 10
14991.8227285832
 20
3129.6803592705
 30
0.0
 40
0.3046441205303145
100
AcDbArc
 50
221.4641068944
 51
296.9765993136
  0
ARC
  5
1A2
330
1F
100
AcDbEntity
  8
0
  6
Continuous
 62
     7
370
    25
100
AcDbCircle
 10
14993.0598226705
 20
3130.7734726338
 30
0.0
 40
1.955491965153062
100
AcDbArc
 50
208.4041798225
 51
221.4642340993
  0
ARC
  5
1A3
330
1F
100
AcDbEntity
  8
0
  6
Continuous
 62
     7
370
    25
100
AcDbCircle
 10
15141.0560164391
 20
3211.7086126345
 30
0.0
 40
170.6323214958161
100
AcDbArc
 50
207.2777593211
 51
208.0308523073
  0
ARC
  5
1A4
330
1F
100
AcDbEntity
  8
0
  6
Continuous
 62
     7
370
    25
100
AcDbCircle
 10
14945.8109031271
 20
3114.3765105062
 30
0.0
 40
47.52174377322284
100
AcDbArc
 50
26.7614570738
 51
29.8123916595
  0
ARC
  5
1A5
330
1F
100
AcDbEntity
  8
0
  6
Continuous
 62
     7
370
    25
100
AcDbCircle
 10
14963.2808563137
 20
3124.3866930656
 30
0.0
 40
27.38712137268402
100
AcDbArc
 50
29.8123411314
 51
34.4219670653
  0
ARC
  5
1A6
330
1F
100
AcDbEntity
  8
0
  6
Continuous
 62
     7
370
    25
100
AcDbCircle
 10
14962.5565559101
 20
3123.8903744563
 30
0.0
 40
28.26515510553513
100
AcDbArc
 50
34.4219198735
 51
38.001698194
  0
ARC
  5
1A7
330
1F
100
AcDbEntity
  8
0
  6
Continuous
 62
     7
370
    25
100
AcDbCircle
 10
14984.3499512776
 20
3140.9182823385
 30
0.0
 40
0.6082982976575271
100
AcDbArc
 50
38.001617694
 51
94.5170170992
  0
ARC
  5
1A8
330
1F
100
AcDbEntity
  8
0
  6
Continuous
 62
     7
370
    25
100
AcDbCircle
 10
14984.6665737651
 20
3136.9104332967
 30
0.0
 40
4.62863456991829
100
AcDbArc
 50
94.5170192877
 51
103.3668785945
  0
ARC
  5
1A9
330
1F
100
AcDbEntity
  8
0
  6
Continuous
 62
     7
370
    25
100
AcDbCircle
 10
14773.7245437631
 20
3129.2593135007
 30
0.0
 40
167.7428772705831
100
AcDbArc
 50
0.000015373
 51
1.733065091
  0
ARC
  5
1AA
330
1F
100
AcDbEntity
  8
0
  6
Continuous
 62
     7
370
    25
100
AcDbCircle
 10
14935.6275849228
 20
3134.1580033043
 30
0.0
 40
5.765743394972707
100
AcDbArc
 50
1.733041077
 51
21.589366231
  0
ARC
  5
1AB
330
1F
100
AcDbEntity
  8
0
  6
Continuous
 62
     7
370
    25
100
AcDbCircle
 10
14939.5368761766
 20
3135.7049643258
 30
0.0
 40
1.561501904639089
100
AcDbArc
 50
21.5892865561
 51
70.9500100411
  0
ARC
  5
1AC
330
1F
100
AcDbEntity
  8
0
  6
Continuous
 62
     7
370
    25
100
AcDbCircle
 10
14938.2108658757
 20
3131.8648298986
 30
0.0
 40
5.624128608797056
100
AcDbArc
 50
70.9500376045
 51
89.9999764597
  0
ARC
  5
1AD
330
1F
100
AcDbEntity
  8
0
  6
Continuous
 62
     7
370
    25
100
AcDbCircle
 10
14938.2108574387
 20
3147.4007052053
 30
0.0
 40
9.91174669791181
100
AcDbArc
 50
260.4470583474
 51
270.0000621285
  0
ARC
  5
1AE
330
1F
100
AcDbEntity
  8
0
  6
Continuous
 62
     7
370
    25
100
AcDbCircle
 10
14943.73115263
 20
3180.2026092673
 30
0.0
 40
43.17491806049714
100
AcDbArc
 50
257.2437764439
 51
260.447089454
  0
ARC
  5
1AF
330
1F
100
AcDbEntity
  8
0
  6
Continuous
 62
     7
370
    25
100
AcDbCircle
 10
14944.9497732251
 20
3185.5857721368
 30
0.0
 40
48.69429108911979
100
AcDbArc
 50
254.0815705137
 51
257.2438676589
  0
ARC
  5
1B0
330
1F
100
AcDbEntity
  8
0
  6
Continuous
 62
     7
370
    25
100
AcDbCircle
 10
14943.1915134912
 20
3179.4207743078
 30
0.0
 40
42.28346621843415
100
AcDbArc
 50
250.5661378734
 51
254.0815311569
  0
ARC
  5
1B1
330
1F
100
AcDbEntity
  8
0
  6
Continuous
 62
     7
370
    25
100
AcDbCircle
 10
14905.0417165207
 20
3071.2927472151
 30
0.0
 40
72.37723869762212
100
AcDbArc
 50
70.5660904419
 51
75.0556717173
  0
ARC
  5
1B2
330
1F
100
AcDbEntity
  8
0
  6
Continuous
 62
     7
370
    25
100
AcDbCircle
 10
14922.4786098911
 20
3136.6219867367
 30
0.0
 40
4.761007015596186
100
AcDbArc
 50
75.0555979461
 51
107.7825801335
  0
ARC
  5
1B3
330
1F
100
AcDbEntity
  8
0
  6
Continuous
 62
     7
370
    25
100
AcDbCircle
 10
14922.2954210723
 20
3137.1931394068
 30
0.0
 40
4.161195782103421
100
AcDbArc
 50
107.7825370072
 51
143.8291641377
  0
ARC
  5
1B4
330
1F
100
AcDbEntity
  8
0
  6
Continuous
 62
     7
370
    25
100
AcDbCircle
 10
14959.6706185566
 20
3109.8677845972
 30
0.0
 40
50.46001220824821
100
AcDbArc
 50
143.8291187712
 51
149.6280472674
  0
ARC
  5
1B5
330
1F
100
AcDbEntity
  8
0
  6
Continuous
 62
     7
370
    25
100
AcDbCircle
 10
15085.9248424794
 20
3456.0383518129
 30
0.0
 40
369.9333498510915
100
AcDbArc
 50
239.2547536835
 51
240.6651287938
  0
ARC
  5
1B6
330
1F
100
AcDbEntity
  8
0
  6
Continuous
 62
     7
370
    25
100
AcDbCircle
 10
14899.4213221719
 20
3142.4949053958
 30
0.0
 40
5.114139997548299
100
AcDbArc
 50
209.0822399594
 51
239.2546740726
  0
ARC
  5
1B7
330
1F
100
AcDbEntity
  8
0
  6
Continuous
 62
     7
370
    25
100
AcDbCircle
 10
14897.1013754014
 20
3141.2045817007
 30
0.0
 40
2.459504757781728
100
AcDbArc
 50
156.3111149973
 51
209.0822476774
  0
ARC
  5
1B8
330
1F
100
AcDbEntity
  8
0
  6
Continuous
 62
     7
370
    25
100
AcDbCircle
 10
14945.8523898883
 20
3119.8157446267
 30
0.0
 40
55.69618163456287
100
AcDbArc
 50
150.8244521966
 51
156.3111934891
  0
ARC
  5
1B9
330
1F
100
AcDbEntity
  8
0
  6
Continuous
 62
     7
370
    25
100
AcDbCircle
 10
14839.1625334905
 20
3236.9652441054
 30
0.0
 40
82.22500267031444
100
AcDbArc
 50
297.7667498431
 51
299.5969672962
  0
ARC
  5
1BA
330
1F
100
AcDbEntity
  8
0
  6
Continuous
 62
     7
370
    25
100
AcDbCircle
 10
14851.5747380196
 20
3213.3903898695
 30
0.0
 40
55.58224430130424
100
AcDbArc
 50
295.3122261212
 51
297.7666834849
  0
ARC
  5
1BB
330
1F
100
AcDbEntity
  8
0
  6
Continuous
 62
     7
370
    25
100
AcDbCircle
 10
14849.1376197498
 20
3218.5434524346
 30
0.0
 40
61.28256001691702
100
AcDbArc
 50
293.4631588129
 51
295.3121680831
  0
ARC
  5
1BC
330
1F
100
AcDbEntity
  8
0
  6
Continuous
 62
     7
370
    25
100
AcDbCircle
 10
14872.8145455636
 20
3163.994352046
 30
0.0
 40
1.816593538632373
100
AcDbArc
 50
269.9999879653
 51
293.4632543148
  0
ARC
  5
1BD
330
1F
100
AcDbEntity
  8
0
  6
Continuous
 62
     7
370
    25
100
AcDbCircle
 10
14872.8145451401
 20
3162.9803787941
 30
0.0
 40
0.8026202867677068
100
AcDbArc
 50
216.4576091157
 51
270.0000029908
  0
ARC
  5
1BE
330
1F
100
AcDbEntity
  8
0
  6
Continuous
 62
     7
370
    25
100
AcDbCircle
 10
14940.3991399395
 20
3212.9128763583
 30
0.0
 40
84.83197091612536
100
AcDbArc
 50
214.520986069
 51
216.4575373248
  0
ARC
  5
1BF
330
1F
100
AcDbEntity
  8
0
  6
Continuous
 62
     7
370
    25
100
AcDbCircle
 10
14921.7971738769
 20
3200.1179741663
 30
0.0
 40
62.2544895797995
100
AcDbArc
 50
211.3134797454
 51
214.5209172354
  0
ARC
  5
1C0
330
1F
100
AcDbEntity
  8
0
  6
Continuous
 62
     7
370
    25
100
AcDbCircle
 10
14962.3622810976
 20
3224.7949128008
 30
0.0
 40
109.7358461758345
100
AcDbArc
 50
209.2153193276
 51
211.3134321769
  0
ARC
  5
1C1
330
1F
100
AcDbEntity
  8
0
  6
Continuous
 62
     7
370
    25
100
AcDbCircle
 10
15019.367309413
 20
3256.6737423501
 30
0.0
 40
175.049191111239
100
AcDbArc
 50
206.7665311385
 51
209.2152595677
  0
ARC
  5
1C2
330
1F
100
AcDbEntity
  8
0
  6
Continuous
 62
     7
370
    25
100
AcDbCircle
 10
14866.0530530296
 20
3179.3415109286
 30
0.0
 40
3.335664483201561
100
AcDbArc
 50
164.6989095002
 51
206.7664752599
  0
ARC
  5
1C3
330
1F
100
AcDbEntity
  8
0
  6
Continuous
 62
     7
370
    25
100
AcDbCircle
 10
14865.8614419583
 20
3179.3939341853
 30
0.0
 40
3.137011518309648
100
AcDbArc
 50
120.5901226259
 51
164.6989179459
  0
ARC
  5
1C4
330
1F
100
AcDbEntity
  8
0
  6
Continuous
 62
     7
370
    25
100
AcDbCircle
 10
14940.4383890459
 20
3053.2418822661
 30
0.0
 40
149.6841412764146
100
AcDbArc
 50
117.8495125152
 51
120.5901827796
  0
ARC
  5
1C5
330
1F
100
AcDbEntity
  8
0
  6
Continuous
 62
     7
370
    25
100
AcDbCircle
 10
14850.6805037238
 20
3223.1268300688
 30
0.0
 40
42.45480185442651
100
AcDbArc
 50
297.8495254745
 51
301.9546727785
  0
ARC
  5
1C6
330
1F
100
AcDbEntity
  8
0
  6
Continuous
 62
     7
370
    25
100
AcDbCircle
 10
14870.6055713975
 20
3191.1838512844
 30
0.0
 40
4.806930527800009
100
AcDbArc
 50
301.9546791204
 51
322.3370298251
  0
ARC
  5
1C7
330
1F
100
AcDbEntity
  8
0
  6
Continuous
 62
     7
370
    25
100
AcDbCircle
 10
14873.0051487369
 20
3189.3317248235
 30
0.0
 40
1.77570242111405
100
AcDbArc
 50
322.336987016
 51
1.1605612953
  0
ARC
  5
1C8
330
1F
100
AcDbEntity
  8
0
  6
Continuous
 62
     7
370
    25
100
AcDbCircle
 10
14871.8340491634
 20
3189.3080048096
 30
0.0
 40
2.947042188234562
100
AcDbArc
 50
1.1604723901
 51
27.739130938
  0
ARC
  5
1C9
330
1F
100
AcDbEntity
  8
0
  6
Continuous
 62
     7
370
    25
100
AcDbCircle
 10
14882.3757677
 20
3194.8517291334
 30
0.0
 40
8.96348714852149
100
AcDbArc
 50
198.1191560609
 51
207.7391930097
  0
ARC
  5
1CA
330
1F
100
AcDbEntity
  8
0
  6
Continuous
 62
     7
370
    25
100
AcDbCircle
 10
14953.3796650643
 20
3218.0856327078
 30
0.0
 40
83.67203897643017
100
AcDbArc
 50
196.2566092309
 51
198.1191394544
  0
ARC
  5
1CB
330
1F
100
AcDbEntity
  8
0
  6
Continuous
 62
     7
370
    25
100
AcDbCircle
 10
14961.9707682889
 20
3220.59072881
 30
0.0
 40
92.62092500180613
100
AcDbArc
 50
194.2874821914
 51
196.2565751606
  0
ARC
  5
1CC
330
1F
100
AcDbEntity
  8
0
  6
Continuous
 62
     7
370
    25
100
AcDbCircle
 10
14973.6138484972
 20
3223.5557256778
 30
0.0
 40
104.635604488072
100
AcDbArc
 50
192.4904526845
 51
194.2874406977
  0
ARC
  5
1CD
330
1F
100
AcDbEntity
  8
0
  6
Continuous
 62
     7
370
    25
100
AcDbCircle
 10
14930.4202537405
 20
3356.2055327206
 30
0.0
 40
118.0106031171994
100
AcDbArc
 50
236.9283476828
 51
238.3957871041
  0
ARC
  5
1CE
330
1F
100
AcDbEntity
  8
0
  6
Continuous
 62
     7
370
    25
100
AcDbCircle
 10
14901.5247066033
 20
3311.8318546642
 30
0.0
 40
65.05802104021699
100
AcDbArc
 50
234.6365813325
 51
236.9283361452
  0
ARC
  5
1CF
330
1F
100
AcDbEntity
  8
0
  6
Continuous
 62
     7
370
    25
100
AcDbCircle
 10
14933.1425763774
 20
3356.3824571973
 30
0.0
 40
119.6881031846134
100
AcDbArc
 50
233.5893749726
 51
234.6365054059
  0
ARC
  5
1D0
330
1F
100
AcDbEntity
  8
0
  6
Continuous
 62
     7
370
    25
100
AcDbCircle
 10
14862.3695838547
 20
3260.4255643219
 30
0.0
 40
0.4549628212268204
100
AcDbArc
 50
180.0000542705
 51
233.5892959291
  0
ARC
  5
1D1
330
1F
100
AcDbEntity
  8
0
  6
Continuous
 62
     7
370
    25
100
AcDbCircle
 10
14865.0048209193
 20
3260.4255631816
 30
0.0
 40
3.090199885789925
100
AcDbArc
 50
149.6602203059
 51
179.9999868484
  0
ARC
  5
1D2
330
1F
100
AcDbEntity
  8
0
  6
Continuous
 62
     7
370
    25
100
AcDbCircle
 10
14872.8060872442
 20
3277.8683310025
 30
0.0
 40
0.8700636921051099
100
AcDbArc
 50
87.9859683725
 51
148.9024869973
  0
ARC
  5
1D3
330
1F
100
AcDbEntity
  8
0
  6
Continuous
 62
     7
370
    25
100
AcDbCircle
 10
14872.7983079172
 20
3277.6471064161
 30
0.0
 40
1.091425015713954
100
AcDbArc
 50
60.9260435066
 51
87.9859814788
  0
ARC
  5
1D4
330
1F
100
AcDbEntity
  8
0
  6
Continuous
 62
     7
370
    25
100
AcDbCircle
 10
14803.2461183665
 20
3152.5523101976
 30
0.0
 40
144.2214886370253
100
AcDbArc
 50
60.0857102277
 51
60.9261209689
  0
ARC
  5
1D5
330
1F
100
AcDbEntity
  8
0
  6
Continuous
 62
     7
370
    25
100
AcDbCircle
 10
14830.4922112318
 20
3199.907502111
 30
0.0
 40
89.58758178813524
100
AcDbArc
 50
58.4809584343
 51
60.0856723996
  0
ARC
  5
1D6
330
1F
100
AcDbEntity
  8
0
  6
Continuous
 62
     7
370
    25
100
AcDbCircle
 10
14799.115780302
 20
3148.7438836877
 30
0.0
 40
149.6058812313585
100
AcDbArc
 50
57.3880147566
 51
58.4809807731
  0
ARC
  5
1D7
330
1F
100
AcDbEntity
  8
0
  6
Continuous
 62
     7
370
    25
100
AcDbCircle
 10
14998.9664572301
 20
3137.2334463266
 30
0.0
 40
193.8041426290381
100
AcDbArc
 50
118.7315152425
 51
119.9053809027
  0
ARC
  5
1D8
330
1F
100
AcDbEntity
  8
0
  6
Continuous
 62
     7
370
    25
100
AcDbCircle
 10
14962.1464788155
 20
3204.398977216
 30
0.0
 40
117.2083245311325
100
AcDbArc
 50
117.0207412346
 51
118.7315614193
  0
ARC
  5
1D9
330
1F
100
AcDbEntity
  8
0
  6
Continuous
 62
     7
370
    25
100
AcDbCircle
 10
14990.5038233928
 20
3148.7944121842
 30
0.0
 40
179.6263238890379
100
AcDbArc
 50
116.0820249579
 51
117.0207537601
  0
ARC
  5
1DA
330
1F
100
AcDbEntity
  8
0
  6
Continuous
 62
     7
370
    25
100
AcDbCircle
 10
14912.2312272056
 20
3308.6956084107
 30
0.0
 40
1.595450531222334
100
AcDbArc
 50
88.9607426055
 51
116.081925357
  0
ARC
  5
1DB
330
1F
100
AcDbEntity
  8
0
  6
Continuous
 62
     7
370
    25
100
AcDbCircle
 10
14912.2462799741
 20
3309.525329234
 30
0.0
 40
0.7655931757362521
100
AcDbArc
 50
38.366494064
 51
88.9608366708
  0
ARC
  5
1DC
330
1F
100
AcDbEntity
  8
0
  6
Continuous
 62
     7
370
    25
100
AcDbCircle
 10
14880.0126015962
 20
3284.0077823908
 30
0.0
 40
41.87709057804238
100
AcDbArc
 50
35.5022178522
 51
38.3666285289
  0
ARC
  5
1DD
330
1F
100
AcDbEntity
  8
0
  6
Continuous
 62
     7
370
    25
100
AcDbCircle
 10
14883.7888632987
 20
3286.7015586375
 30
0.0
 40
37.23849349356693
100
AcDbArc
 50
31.5361736268
 51
35.5022499191
  0
ARC
  5
1DE
330
1F
100
AcDbEntity
  8
0
  6
Continuous
 62
     7
370
    25
100
AcDbCircle
 10
14861.6158334893
 20
3273.0946986405
 30
0.0
 40
63.25367924932144
100
AcDbArc
 50
28.8690196339
 51
31.5361323542
  0
MTEXT
  5
1E0
330
1F
100
AcDbEntity
  8
0
  6
Continuous
 62
     7
100
AcDbMText
 10
14853.6850210336
 20
3120.0101921157
 30
0.0
 40
4.83362
 41
0.0
 71
     1
 72
     1
  1
SOLIDWORKS Educational Product.
  7
SLDTEXTSTYLE0
 73
     1
 44
1.0
  0
MTEXT
  5
1E1
330
1F
100
AcDbEntity
  8
0
  6
Continuous
 62
     7
100
AcDbMText
 10
14853.6850210336
 20
3112.7597621157
 30
0.0
 40
4.83362
 41
0.0
 71
     1
 72
     1
  1
For Instructional Use Only.
  7
SLDTEXTSTYLE0
 73
     1
 44
1.0
  0
ENDSEC
  0
SECTION
  2
OBJECTS
  0
DICTIONARY
  5
C
330
0
100
AcDbDictionary
281
     1
  3
ACAD_GROUP
350
D
  3
ACAD_LAYOUT
350
1A
  3
ACAD_MLINESTYLE
350
17
  3
ACAD_PLOTSETTINGS
350
19
  3
ACAD_PLOTSTYLENAME
350
E
  3
ACAD_SCALELIST
350
47
  3
DWGPROPS
350
1E2
  0
DICTIONARY
  5
D
102
{ACAD_REACTORS
330
C
102
}
330
C
100
AcDbDictionary
281
     1
  0
DICTIONARY
  5
1A
102
{ACAD_REACTORS
330
C
102
}
330
C
100
AcDbDictionary
281
     1
  3
Layout1
350
1E
  3
Layout2
350
26
  3
Model
350
22
  0
DICTIONARY
  5
17
102
{ACAD_REACTORS
330
C
102
}
330
C
100
AcDbDictionary
281
     1
  3
Standard
350
18
  0
DICTIONARY
  5
19
102
{ACAD_REACTORS
330
C
102
}
330
C
100
AcDbDictionary
281
     1
  0
ACDBDICTIONARYWDFLT
  5
E
102
{ACAD_REACTORS
330
C
102
}
330
C
100
AcDbDictionary
281
     1
  3
Normal
350
F
100
AcDbDictionaryWithDefault
340
F
  0
DICTIONARY
  5
47
102
{ACAD_REACTORS
330
C
102
}
330
C
100
AcDbDictionary
281
     1
  3
A0
350
48
  3
A1
350
49
  3
A2
350
4A
  3
A3
350
4B
  3
A4
350
4C
  3
A5
350
4D
  3
A6
350
4E
  3
A7
350
4F
  3
A8
350
50
  3
A9
350
51
  3
B0
350
52
  3
B1
350
53
  3
B2
350
54
  3
B3
350
55
  3
B4
350
56
  3
B5
350
57
  3
B6
350
58
  0
XRECORD
  5
1E2
102
{ACAD_REACTORS
330
C
102
}
330
C
100
AcDbXrecord
280
     1
  1
DWGPROPS COOKIE
  2

  3

  4

  6

  7

  8
anast
  9

300
=
301
=
302
=
303
=
304
=
305
=
306
=
307
=
308
=
309
=
 40
0.0
 41
2460804.592488935
 42
2460804.592519502
  1

 90
        0
  0
LAYOUT
  5
1E
102
{ACAD_REACTORS
330
1A
102
}
330
1A
100
AcDbPlotSettings
  1

  2
none_device
  4

  6

 40
0.0
 41
0.0
 42
0.0
 43
0.0
 44
0.0
 45
0.0
 46
0.0
 47
0.0
 48
0.0
 49
0.0
140
0.0
141
0.0
142
1.0
143
1.0
 70
   688
 72
     1
 73
     0
 74
     5
  7

 75
    16
147
1.0
148
0.0
149
0.0
100
AcDbLayout
  1
Layout1
 70
     1
 71
     1
 10
0.0
 20
0.0
 11
420.0
 21
297.0
 12
0.0
 22
0.0
 32
0.0
 14
1.0000000000E+20
 24
1.0000000000E+20
 34
1.0000000000E+20
 15
-1.0000000000E+20
 25
-1.0000000000E+20
 35
-1.0000000000E+20
146
0.0
 13
0.0
 23
0.0
 33
0.0
 16
1.0
 26
0.0
 36
0.0
 17
0.0
 27
1.0
 37
0.0
 76
     0
330
1B
  0
LAYOUT
  5
26
102
{ACAD_REACTORS
330
1A
102
}
330
1A
100
AcDbPlotSettings
  1

  2
none_device
  4

  6

 40
0.0
 41
0.0
 42
0.0
 43
0.0
 44
0.0
 45
0.0
 46
0.0
 47
0.0
 48
0.0
 49
0.0
140
0.0
141
0.0
142
1.0
143
1.0
 70
   688
 72
     1
 73
     0
 74
     5
  7

 75
    16
147
1.0
148
0.0
149
0.0
100
AcDbLayout
  1
Layout2
 70
     1
 71
     2
 10
0.0
 20
0.0
 11
0.0
 21
0.0
 12
0.0
 22
0.0
 32
0.0
 14
0.0
 24
0.0
 34
0.0
 15
0.0
 25
0.0
 35
0.0
146
0.0
 13
0.0
 23
0.0
 33
0.0
 16
1.0
 26
0.0
 36
0.0
 17
0.0
 27
1.0
 37
0.0
 76
     0
330
23
  0
LAYOUT
  5
22
102
{ACAD_REACTORS
330
1A
102
}
330
1A
100
AcDbPlotSettings
  1

  2
none_device
  4
ANSI_A_(11.00_x_8.50_Inches)
  6

 40
6.35
 41
19.05
 42
6.35000508
 43
19.05000254
 44
279.4
 45
215.9
 46
-16047.8208435822
 47
-3395.4737700236
 48
0.0
 49
0.0
140
0.0
141
0.0
142
0.0426053514
143
1.0
 70
  1696
 72
     0
 73
     0
 74
     0
  7

 75
     0
147
0.0179189148
148
-1300.4909072572
149
0.0
100
AcDbLayout
  1
Model
 70
     1
 71
     0
 10
0.0
 20
0.0
 11
420.0
 21
297.0
 12
0.0
 22
0.0
 32
0.0
 14
14853.6850210336
 24
3121.0297585074
 34
0.0
 15
15051.1954210334
 25
3318.5401585075
 35
0.0
146
0.0
 13
0.0
 23
0.0
 33
0.0
 16
1.0
 26
0.0
 36
0.0
 17
0.0
 27
1.0
 37
0.0
 76
     0
330
1F
331
29
  0
MLINESTYLE
  5
18
102
{ACAD_REACTORS
330
17
102
}
330
17
100
AcDbMlineStyle
  2
Standard
 70
     0
  3

 62
   256
 51
90.0
 52
90.0
 71
     2
 49
0.5
 62
   256
  6
BYLAYER
 49
-0.5
 62
   256
  6
BYLAYER
  0
ACDBPLACEHOLDER
  5
F
102
{ACAD_REACTORS
330
E
102
}
330
E
  0
SCALE
  5
48
102
{ACAD_REACTORS
330
47
102
}
330
47
100
AcDbScale
 70
     0
300
1:1
140
1.0
141
1.0
290
     1
  0
SCALE
  5
49
102
{ACAD_REACTORS
330
47
102
}
330
47
100
AcDbScale
 70
     0
300
1:2
140
1.0
141
2.0
290
     0
  0
SCALE
  5
4A
102
{ACAD_REACTORS
330
47
102
}
330
47
100
AcDbScale
 70
     0
300
1:4
140
1.0
141
4.0
290
     0
  0
SCALE
  5
4B
102
{ACAD_REACTORS
330
47
102
}
330
47
100
AcDbScale
 70
     0
300
1:5
140
1.0
141
5.0
290
     0
  0
SCALE
  5
4C
102
{ACAD_REACTORS
330
47
102
}
330
47
100
AcDbScale
 70
     0
300
1:8
140
1.0
141
8.0
290
     0
  0
SCALE
  5
4D
102
{ACAD_REACTORS
330
47
102
}
330
47
100
AcDbScale
 70
     0
300
1:10
140
1.0
141
10.0
290
     0
  0
SCALE
  5
4E
102
{ACAD_REACTORS
330
47
102
}
330
47
100
AcDbScale
 70
     0
300
1:16
140
1.0
141
16.0
290
     0
  0
SCALE
  5
4F
102
{ACAD_REACTORS
330
47
102
}
330
47
100
AcDbScale
 70
     0
300
1:20
140
1.0
141
20.0
290
     0
  0
SCALE
  5
50
102
{ACAD_REACTORS
330
47
102
}
330
47
100
AcDbScale
 70
     0
300
1:30
140
1.0
141
30.0
290
     0
  0
SCALE
  5
51
102
{ACAD_REACTORS
330
47
102
}
330
47
100
AcDbScale
 70
     0
300
1:40
140
1.0
141
40.0
290
     0
  0
SCALE
  5
52
102
{ACAD_REACTORS
330
47
102
}
330
47
100
AcDbScale
 70
     0
300
1:50
140
1.0
141
50.0
290
     0
  0
SCALE
  5
53
102
{ACAD_REACTORS
330
47
102
}
330
47
100
AcDbScale
 70
     0
300
1:100
140
1.0
141
100.0
290
     0
  0
SCALE
  5
54
102
{ACAD_REACTORS
330
47
102
}
330
47
100
AcDbScale
 70
     0
300
2:1
140
2.0
141
1.0
290
     0
  0
SCALE
  5
55
102
{ACAD_REACTORS
330
47
102
}
330
47
100
AcDbScale
 70
     0
300
4:1
140
4.0
141
1.0
290
     0
  0
SCALE
  5
56
102
{ACAD_REACTORS
330
47
102
}
330
47
100
AcDbScale
 70
     0
300
8:1
140
8.0
141
1.0
290
     0
  0
SCALE
  5
57
102
{ACAD_REACTORS
330
47
102
}
330
47
100
AcDbScale
 70
     0
300
10:1
140
10.0
141
1.0
290
     0
  0
SCALE
  5
58
102
{ACAD_REACTORS
330
47
102
}
330
47
100
AcDbScale
 70
     0
300
100:1
140
100.0
141
1.0
290
     0
  0
ENDSEC
  0
EOF
