  0
SECTION
  2
HEADER
  9
$ACADVER
  1
AC1015
  9
$ACADMAINTVER
 70
     6
  9
$DWGCODEPAGE
  3
ANSI_1252
  9
$INSBASE
 10
0.0
 20
0.0
 30
0.0
  9
$EXTMIN
 10
6784.5246369315
 20
9042.0579910216
 30
0.0
  9
$EXTMAX
 10
7059.0049026768
 20
9316.3779910213
 30
0.0
  9
$LIMMIN
 10
0.0
 20
0.0
  9
$LIMMAX
 10
420.0
 20
297.0
  9
$ORTHOMODE
 70
     0
  9
$REGENMODE
 70
     1
  9
$FILLMODE
 70
     1
  9
$QTEXTMODE
 70
     0
  9
$MIRRTEXT
 70
     1
  9
$LTSCALE
 40
1.0
  9
$ATTMODE
 70
     1
  9
$TEXTSIZE
 40
3.5
  9
$TRACEWID
 40
1.0
  9
$TEXTSTYLE
  7
Standard
  9
$CLAYER
  8
0
  9
$CELTYPE
  6
ByLayer
  9
$CECOLOR
 62
   256
  9
$CELTSCALE
 40
1.0
  9
$DISPSILH
 70
     0
  9
$DIMSCALE
 40
1.0
  9
$DIMASZ
 40
3.302
  9
$DIMEXO
 40
0.0
  9
$DIMDLI
 40
3.75
  9
$DIMRND
 40
0.0
  9
$DIMDLE
 40
0.0
  9
$DIMEXE
 40
1.0
  9
$DIMTP
 40
0.0
  9
$DIMTM
 40
0.0
  9
$DIMTXT
 40
3.5
  9
$DIMCEN
 40
2.5
  9
$DIMTSZ
 40
0.0
  9
$DIMTOL
 70
     0
  9
$DIMLIM
 70
     0
  9
$DIMTIH
 70
     1
  9
$DIMTOH
 70
     1
  9
$DIMSE1
 70
     0
  9
$DIMSE2
 70
     0
  9
$DIMTAD
 70
     1
  9
$DIMZIN
 70
     1
  9
$DIMBLK
  1

  9
$DIMASO
 70
     1
  9
$DIMSHO
 70
     1
  9
$DIMPOST
  1

  9
$DIMAPOST
  1

  9
$DIMALT
 70
     0
  9
$DIMALTD
 70
     3
  9
$DIMALTF
 40
0.0393700787
  9
$DIMLFAC
 40
1.0
  9
$DIMTOFL
 70
     1
  9
$DIMTVP
 40
0.0
  9
$DIMTIX
 70
     0
  9
$DIMSOXD
 70
     0
  9
$DIMSAH
 70
     0
  9
$DIMBLK1
  1

  9
$DIMBLK2
  1

  9
$DIMSTYLE
  2
ISO-25
  9
$DIMCLRD
 70
     0
  9
$DIMCLRE
 70
     0
  9
$DIMCLRT
 70
     0
  9
$DIMTFAC
 40
1.0
  9
$DIMGAP
 40
1.524
  9
$DIMJUST
 70
     0
  9
$DIMSD1
 70
     0
  9
$DIMSD2
 70
     0
  9
$DIMTOLJ
 70
     0
  9
$DIMTZIN
 70
     1
  9
$DIMALTZ
 70
     0
  9
$DIMALTTZ
 70
     0
  9
$DIMUPT
 70
     0
  9
$DIMDEC
 70
     2
  9
$DIMTDEC
 70
     2
  9
$DIMALTU
 70
     2
  9
$DIMALTTD
 70
     3
  9
$DIMTXSTY
  7
Standard
  9
$DIMAUNIT
 70
     0
  9
$DIMADEC
 70
     2
  9
$DIMALTRND
 40
0.0
  9
$DIMAZIN
 70
     0
  9
$DIMDSEP
 70
    44
  9
$DIMATFIT
 70
     3
  9
$DIMFRAC
 70
     0
  9
$DIMLDRBLK
  1

  9
$DIMLUNIT
 70
     2
  9
$DIMLWD
 70
    -2
  9
$DIMLWE
 70
    -2
  9
$DIMTMOVE
 70
     0
  9
$LUNITS
 70
     2
  9
$LUPREC
 70
     6
  9
$SKETCHINC
 40
1.0
  9
$FILLETRAD
 40
0.0
  9
$AUNITS
 70
     0
  9
$AUPREC
 70
     2
  9
$MENU
  1
.
  9
$ELEVATION
 40
0.0
  9
$PELEVATION
 40
0.0
  9
$THICKNESS
 40
0.0
  9
$LIMCHECK
 70
     0
  9
$CHAMFERA
 40
0.0
  9
$CHAMFERB
 40
0.0
  9
$CHAMFERC
 40
0.0
  9
$CHAMFERD
 40
0.0
  9
$SKPOLY
 70
     0
  9
$TDCREATE
 40
2460804.676295649
  9
$TDUCREATE
 40
2460804.592962315
  9
$TDUPDATE
 40
2460804.676325209
  9
$TDUUPDATE
 40
2460804.592991875
  9
$TDINDWG
 40
0.0000000116
  9
$TDUSRTIMER
 40
0.0000000116
  9
$USRTIMER
 70
     1
  9
$ANGBASE
 50
0.0
  9
$ANGDIR
 70
     0
  9
$PDMODE
 70
     0
  9
$PDSIZE
 40
-1.0
  9
$PLINEWID
 40
0.0
  9
$SPLFRAME
 70
     0
  9
$SPLINETYPE
 70
     6
  9
$SPLINESEGS
 70
     8
  9
$HANDSEED
  5
2BD
  9
$SURFTAB1
 70
     6
  9
$SURFTAB2
 70
     6
  9
$SURFTYPE
 70
     6
  9
$SURFU
 70
     6
  9
$SURFV
 70
     6
  9
$UCSBASE
  2

  9
$UCSNAME
  2

  9
$UCSORG
 10
0.0
 20
0.0
 30
0.0
  9
$UCSXDIR
 10
1.0
 20
0.0
 30
0.0
  9
$UCSYDIR
 10
0.0
 20
1.0
 30
0.0
  9
$UCSORTHOREF
  2

  9
$UCSORTHOVIEW
 70
     0
  9
$UCSORGTOP
 10
0.0
 20
0.0
 30
0.0
  9
$UCSORGBOTTOM
 10
0.0
 20
0.0
 30
0.0
  9
$UCSORGLEFT
 10
0.0
 20
0.0
 30
0.0
  9
$UCSORGRIGHT
 10
0.0
 20
0.0
 30
0.0
  9
$UCSORGFRONT
 10
0.0
 20
0.0
 30
0.0
  9
$UCSORGBACK
 10
0.0
 20
0.0
 30
0.0
  9
$PUCSBASE
  2

  9
$PUCSNAME
  2

  9
$PUCSORG
 10
0.0
 20
0.0
 30
0.0
  9
$PUCSXDIR
 10
1.0
 20
0.0
 30
0.0
  9
$PUCSYDIR
 10
0.0
 20
1.0
 30
0.0
  9
$PUCSORTHOREF
  2

  9
$PUCSORTHOVIEW
 70
     0
  9
$PUCSORGTOP
 10
0.0
 20
0.0
 30
0.0
  9
$PUCSORGBOTTOM
 10
0.0
 20
0.0
 30
0.0
  9
$PUCSORGLEFT
 10
0.0
 20
0.0
 30
0.0
  9
$PUCSORGRIGHT
 10
0.0
 20
0.0
 30
0.0
  9
$PUCSORGFRONT
 10
0.0
 20
0.0
 30
0.0
  9
$PUCSORGBACK
 10
0.0
 20
0.0
 30
0.0
  9
$USERI1
 70
     0
  9
$USERI2
 70
     0
  9
$USERI3
 70
     0
  9
$USERI4
 70
     0
  9
$USERI5
 70
     0
  9
$USERR1
 40
0.0
  9
$USERR2
 40
0.0
  9
$USERR3
 40
0.0
  9
$USERR4
 40
0.0
  9
$USERR5
 40
0.0
  9
$WORLDVIEW
 70
     1
  9
$SHADEDGE
 70
     3
  9
$SHADEDIF
 70
    70
  9
$TILEMODE
 70
     1
  9
$MAXACTVP
 70
    64
  9
$PINSBASE
 10
0.0
 20
0.0
 30
0.0
  9
$PLIMCHECK
 70
     0
  9
$PEXTMIN
 10
1.0000000000E+20
 20
1.0000000000E+20
 30
1.0000000000E+20
  9
$PEXTMAX
 10
-1.0000000000E+20
 20
-1.0000000000E+20
 30
-1.0000000000E+20
  9
$PLIMMIN
 10
0.0
 20
0.0
  9
$PLIMMAX
 10
420.0
 20
297.0
  9
$UNITMODE
 70
     0
  9
$VISRETAIN
 70
     1
  9
$PLINEGEN
 70
     0
  9
$PSLTSCALE
 70
     1
  9
$TREEDEPTH
 70
  3020
  9
$CMLSTYLE
  2
Standard
  9
$CMLJUST
 70
     0
  9
$CMLSCALE
 40
20.0
  9
$PROXYGRAPHICS
 70
     1
  9
$MEASUREMENT
 70
     1
  9
$CELWEIGHT
370
    -1
  9
$ENDCAPS
280
     0
  9
$JOINSTYLE
280
     0
  9
$LWDISPLAY
290
     1
  9
$INSUNITS
 70
     4
  9
$HYPERLINKBASE
  1

  9
$STYLESHEET
  1

  9
$XEDIT
290
     1
  9
$CEPSNTYPE
380
     0
  9
$PSTYLEMODE
290
     1
  9
$FINGERPRINTGUID
  2
{c656c9f2-59ba-4bd1-9d4f-76ed17f1b45e}
  9
$VERSIONGUID
  2
{FAEB1C32-E019-11D5-929B-00C0DF256EC4}
  9
$EXTNAMES
290
     1
  9
$PSVPSCALE
 40
0.0
  9
$OLESTARTUP
290
     0
  0
ENDSEC
  0
SECTION
  2
CLASSES
  0
CLASS
  1
ACDBDICTIONARYWDFLT
  2
AcDbDictionaryWithDefault
  3
ObjectDBX Classes
 90
        0
280
     0
281
     0
  0
CLASS
  1
VISUALSTYLE
  2
AcDbVisualStyle
  3
ObjectDBX Classes
 90
     4095
280
     0
281
     0
  0
CLASS
  1
MATERIAL
  2
AcDbMaterial
  3
ObjectDBX Classes
 90
     1153
280
     0
281
     0
  0
CLASS
  1
SCALE
  2
AcDbScale
  3
ObjectDBX Classes
 90
     1153
280
     0
281
     0
  0
CLASS
  1
TABLESTYLE
  2
AcDbTableStyle
  3
ObjectDBX Classes
 90
     4095
280
     0
281
     0
  0
CLASS
  1
MLEADERSTYLE
  2
AcDbMLeaderStyle
  3
ACDB_MLEADERSTYLE_CLASS
 90
     4095
280
     0
281
     0
  0
CLASS
  1
SUN
  2
AcDbSun
  3
SCENEOE
 90
     1153
280
     0
281
     0
  0
CLASS
  1
ACDBPLACEHOLDER
  2
AcDbPlaceHolder
  3
ObjectDBX Classes
 90
        0
280
     0
281
     0
  0
CLASS
  1
LAYOUT
  2
AcDbLayout
  3
ObjectDBX Classes
 90
        0
280
     0
281
     0
  0
ENDSEC
  0
SECTION
  2
TABLES
  0
TABLE
  2
VPORT
  5
8
330
0
100
AcDbSymbolTable
 70
     1
  0
VPORT
  5
29
330
8
100
AcDbSymbolTableRecord
100
AcDbViewportTableRecord
  2
*Active
 70
     0
 10
0.0
 20
0.0
 11
1.0
 21
1.0
 12
6921.7647698041
 22
9179.2179910215
 13
0.0
 23
0.0
 14
10.0
 24
10.0
 15
10.0
 25
10.0
 16
0.0
 26
0.0
 36
1.0
 17
0.0
 27
0.0
 37
0.0
 40
279.8063999998
 41
1.0005842292
 42
50.0
 43
0.0
 44
0.0
 50
0.0
 51
0.0
 71
     0
 72
   100
 73
     1
 74
     3
 75
     0
 76
     0
 77
     0
 78
     0
281
     0
 65
     1
110
0.0
120
0.0
130
0.0
111
1.0
121
0.0
131
0.0
112
0.0
122
1.0
132
0.0
 79
     0
146
0.0
  0
ENDTAB
  0
TABLE
  2
LTYPE
  5
5
330
0
100
AcDbSymbolTable
 70
     6
  0
LTYPE
  5
14
330
5
100
AcDbSymbolTableRecord
100
AcDbLinetypeTableRecord
  2
ByBlock
 70
     0
  3

 72
    65
 73
     0
 40
0.0
  0
LTYPE
  5
15
330
5
100
AcDbSymbolTableRecord
100
AcDbLinetypeTableRecord
  2
ByLayer
 70
     0
  3

 72
    65
 73
     0
 40
0.0
  0
LTYPE
  5
16
330
5
100
AcDbSymbolTableRecord
100
AcDbLinetypeTableRecord
  2
Continuous
 70
     0
  3
Solid line
 72
    65
 73
     0
 40
0.0
  0
LTYPE
  5
5E
330
5
100
AcDbSymbolTableRecord
100
AcDbLinetypeTableRecord
  2
HIDDEN
 70
     0
  3
Hidden __ __ __ __ __ __ __ __ __ __ __ __ __ __
 72
    65
 73
     2
 40
1.905
 49
1.27
 74
     0
 49
-0.635
 74
     0
  0
LTYPE
  5
5F
330
5
100
AcDbSymbolTableRecord
100
AcDbLinetypeTableRecord
  2
PHANTOM
 70
     0
  3
Phantom ______  __  __  ______  __  __  ______
 72
    65
 73
     6
 40
12.7
 49
6.35
 74
     0
 49
-1.27
 74
     0
 49
1.27
 74
     0
 49
-1.27
 74
     0
 49
1.27
 74
     0
 49
-1.27
 74
     0
  0
LTYPE
  5
60
330
5
100
AcDbSymbolTableRecord
100
AcDbLinetypeTableRecord
  2
CENTER
 70
     0
  3
Center ____ _ ____ _ ____ _ ____ _ ____ _ ____
 72
    65
 73
     4
 40
10.16
 49
6.35
 74
     0
 49
-1.27
 74
     0
 49
1.27
 74
     0
 49
-1.27
 74
     0
  0
LTYPE
  5
61
330
5
100
AcDbSymbolTableRecord
100
AcDbLinetypeTableRecord
  2
CENTERX2
 70
     0
  3
Center (2x) ________  __  ________  __  _____
 72
    65
 73
     4
 40
20.32
 49
12.7
 74
     0
 49
-2.54
 74
     0
 49
2.54
 74
     0
 49
-2.54
 74
     0
  0
LTYPE
  5
62
330
5
100
AcDbSymbolTableRecord
100
AcDbLinetypeTableRecord
  2
DOT2
 70
     0
  3
Dot (.5x) ........................................
 72
    65
 73
     2
 40
0.635
 49
0.0
 74
     0
 49
-0.635
 74
     0
  0
ENDTAB
  0
TABLE
  2
LAYER
  5
2
330
0
100
AcDbSymbolTable
 70
     1
  0
LAYER
  5
10
330
2
100
AcDbSymbolTableRecord
100
AcDbLayerTableRecord
  2
0
 70
     0
 62
     7
  6
Continuous
370
    -3
390
F
  0
ENDTAB
  0
TABLE
  2
STYLE
  5
3
330
0
100
AcDbSymbolTable
 70
     2
  0
STYLE
  5
11
330
3
100
AcDbSymbolTableRecord
100
AcDbTextStyleTableRecord
  2
Standard
 70
     0
 40
0.0
 41
1.0
 50
0.0
 71
     0
 42
3.5
  3
txt
  4

  0
STYLE
  5
2B9
330
3
100
AcDbSymbolTableRecord
100
AcDbTextStyleTableRecord
  2
SLDTEXTSTYLE0
 70
     0
 40
0.0
 41
0.7
 50
0.0
 71
     0
 42
3.5
  3
TXT
  4

  0
ENDTAB
  0
TABLE
  2
VIEW
  5
6
330
0
100
AcDbSymbolTable
 70
     0
  0
ENDTAB
  0
TABLE
  2
UCS
  5
7
330
0
100
AcDbSymbolTable
 70
     0
  0
ENDTAB
  0
TABLE
  2
APPID
  5
9
330
0
100
AcDbSymbolTable
 70
     1
  0
APPID
  5
12
330
9
100
AcDbSymbolTableRecord
100
AcDbRegAppTableRecord
  2
ACAD
 70
     0
  0
ENDTAB
  0
TABLE
  2
DIMSTYLE
  5
A
330
0
100
AcDbSymbolTable
 70
     1
100
AcDbDimStyleTable
  0
DIMSTYLE
105
27
330
A
100
AcDbSymbolTableRecord
100
AcDbDimStyleTableRecord
  2
ISO-25
 70
     0
 41
2.5
 42
0.625
 43
3.75
 44
1.25
 73
     0
 74
     0
 77
     1
 78
     8
140
2.5
141
2.5
143
0.0393700787
147
0.625
171
     3
172
     1
178
     0
271
     2
272
     2
274
     3
278
    44
283
     0
284
     8
340
11
  0
ENDTAB
  0
TABLE
  2
BLOCK_RECORD
  5
1
330
0
100
AcDbSymbolTable
 70
     1
  0
BLOCK_RECORD
  5
1F
330
1
100
AcDbSymbolTableRecord
100
AcDbBlockTableRecord
  2
*Model_Space
340
22
  0
BLOCK_RECORD
  5
1B
330
1
100
AcDbSymbolTableRecord
100
AcDbBlockTableRecord
  2
*Paper_Space
340
1E
  0
BLOCK_RECORD
  5
23
330
1
100
AcDbSymbolTableRecord
100
AcDbBlockTableRecord
  2
*Paper_Space0
340
26
  0
ENDTAB
  0
ENDSEC
  0
SECTION
  2
BLOCKS
  0
BLOCK
  5
20
330
1F
100
AcDbEntity
  8
0
100
AcDbBlockBegin
  2
*Model_Space
 70
     0
 10
0.0
 20
0.0
 30
0.0
  3
*Model_Space
  1

  0
ENDBLK
  5
21
330
1F
100
AcDbEntity
  8
0
100
AcDbBlockEnd
  0
BLOCK
  5
1C
330
1B
100
AcDbEntity
 67
     1
  8
0
100
AcDbBlockBegin
  2
*Paper_Space
 70
     0
 10
0.0
 20
0.0
 30
0.0
  3
*Paper_Space
  1

  0
ENDBLK
  5
1D
330
1B
100
AcDbEntity
 67
     1
  8
0
100
AcDbBlockEnd
  0
BLOCK
  5
24
330
23
100
AcDbEntity
  8
0
100
AcDbBlockBegin
  2
*Paper_Space0
 70
     0
 10
0.0
 20
0.0
 30
0.0
  3
*Paper_Space0
  1

  0
ENDBLK
  5
25
330
23
100
AcDbEntity
  8
0
100
AcDbBlockEnd
  0
ENDSEC
  0
SECTION
  2
ENTITIES
  0
LINE
  5
18E
330
1F
100
AcDbEntity
  8
0
  6
Continuous
 62
     7
370
    25
100
AcDbLine
 10
6936.613799987
 20
9153.6428573875
 30
0.0
 11
6929.4751972967
 21
9149.690491023
 31
0.0
  0
LINE
  5
18F
330
1F
100
AcDbEntity
  8
0
  6
Continuous
 62
     7
370
    25
100
AcDbLine
 10
6929.4751972967
 20
9149.690491023
 30
0.0
 11
6929.4700499866
 21
9118.7342410223
 31
0.0
  0
LINE
  5
190
330
1F
100
AcDbEntity
  8
0
  6
Continuous
 62
     7
370
    25
100
AcDbLine
 10
6988.7346761865
 20
9115.9981561972
 30
0.0
 11
6998.2739255869
 21
9126.435615002
 31
0.0
  0
LINE
  5
191
330
1F
100
AcDbEntity
  8
0
  6
Continuous
 62
     7
370
    25
100
AcDbLine
 10
6998.2739255869
 20
9126.435615002
 30
0.0
 11
6975.7756641314
 21
9139.677209042
 31
0.0
  0
LINE
  5
192
330
1F
100
AcDbEntity
  8
0
  6
Continuous
 62
     7
370
    25
100
AcDbLine
 10
6975.7756641314
 20
9139.677209042
 30
0.0
 11
6953.6614621067
 21
9152.5749753467
 31
0.0
  0
LINE
  5
193
330
1F
100
AcDbEntity
  8
0
  6
Continuous
 62
     7
370
    25
100
AcDbLine
 10
6899.2345262562
 20
9157.6656535071
 30
0.0
 11
6878.1761038069
 21
9145.5763215772
 31
0.0
  0
LINE
  5
194
330
1F
100
AcDbEntity
  8
0
  6
Continuous
 62
     7
370
    25
100
AcDbLine
 10
6878.1761038069
 20
9145.5763215772
 30
0.0
 11
6859.0761413719
 21
9134.4818473223
 31
0.0
  0
LINE
  5
195
330
1F
100
AcDbEntity
  8
0
  6
Continuous
 62
     7
370
    25
100
AcDbLine
 10
6851.1240979666
 20
9129.3882221279
 30
0.0
 11
6846.597402677
 21
9126.2309532311
 31
0.0
  0
LINE
  5
196
330
1F
100
AcDbEntity
  8
0
  6
Continuous
 62
     7
370
    25
100
AcDbLine
 10
6846.597402677
 20
9126.2309532311
 30
0.0
 11
6855.1699026765
 21
9117.2547018172
 31
0.0
  0
LINE
  5
197
330
1F
100
AcDbEntity
  8
0
  6
Continuous
 62
     7
370
    25
100
AcDbLine
 10
6914.2249026767
 20
9119.2576416773
 30
0.0
 11
6914.2249026767
 21
9150.7372923317
 31
0.0
  0
LINE
  5
198
330
1F
100
AcDbEntity
  8
0
  6
Continuous
 62
     7
370
    25
100
AcDbLine
 10
6914.2249026767
 20
9150.7372923317
 30
0.0
 11
6909.647452472
 21
9152.4776355617
 31
0.0
  0
LINE
  5
199
330
1F
100
AcDbEntity
  8
0
  6
Continuous
 62
     7
370
    25
100
AcDbLine
 10
6849.6497575067
 20
9212.3444417878
 30
0.0
 11
6842.2559610166
 21
9216.3226494772
 31
0.0
  0
LINE
  5
19A
330
1F
100
AcDbEntity
  8
0
  6
Continuous
 62
     7
370
    25
100
AcDbLine
 10
6841.399027247
 20
9141.4336285673
 30
0.0
 11
6848.9321668667
 21
9145.434307637
 31
0.0
  0
LINE
  5
19B
330
1F
100
AcDbEntity
  8
0
  6
Continuous
 62
     7
370
    25
100
AcDbLine
 10
6867.5930172765
 20
9155.8118351429
 30
0.0
 11
6893.2699026766
 21
9170.5056773577
 31
0.0
  0
LINE
  5
19C
330
1F
100
AcDbEntity
  8
0
  6
Continuous
 62
     7
370
    25
100
AcDbLine
 10
6893.2699026766
 20
9170.5056773577
 30
0.0
 11
6893.1579991661
 21
9187.790491022
 31
0.0
  0
LINE
  5
19D
330
1F
100
AcDbEntity
  8
0
  6
Continuous
 62
     7
370
    25
100
AcDbLine
 10
6893.1579991661
 20
9187.790491022
 30
0.0
 11
6868.0700921418
 21
9202.0779910214
 31
0.0
  0
LINE
  5
19E
330
1F
100
AcDbEntity
  8
0
  6
Continuous
 62
     7
370
    25
100
AcDbLine
 10
6868.0700921418
 20
9202.0779910214
 30
0.0
 11
6858.2834327721
 21
9207.5962064274
 31
0.0
  0
LINE
  5
19F
330
1F
100
AcDbEntity
  8
0
  6
Continuous
 62
     7
370
    25
100
AcDbLine
 10
7007.946785972
 20
9211.8824697622
 30
0.0
 11
7004.7124026763
 21
9218.9956064118
 31
0.0
  0
LINE
  5
1A0
330
1F
100
AcDbEntity
  8
0
  6
Continuous
 62
     7
370
    25
100
AcDbLine
 10
7004.7124026763
 20
9218.9956064118
 30
0.0
 11
6951.7872773871
 21
9187.790491022
 31
0.0
  0
LINE
  5
1A1
330
1F
100
AcDbEntity
  8
0
  6
Continuous
 62
     7
370
    25
100
AcDbLine
 10
6951.7872773871
 20
9187.790491022
 30
0.0
 11
6951.4649685315
 21
9169.7108332525
 31
0.0
  0
LINE
  5
1A2
330
1F
100
AcDbEntity
  8
0
  6
Continuous
 62
     7
370
    25
100
AcDbLine
 10
6951.4649685315
 20
9169.7108332525
 30
0.0
 11
7004.7124026763
 21
9139.4246441425
 31
0.0
  0
LINE
  5
1A3
330
1F
100
AcDbEntity
  8
0
  6
Continuous
 62
     7
370
    25
100
AcDbLine
 10
7004.7124026763
 20
9139.4246441425
 30
0.0
 11
7007.9467859719
 21
9146.5456446329
 31
0.0
  0
LINE
  5
1A4
330
1F
100
AcDbEntity
  8
0
  6
Continuous
 62
     7
370
    25
100
AcDbLine
 10
6937.5359876268
 20
9269.6292814972
 30
0.0
 11
6929.4649026764
 21
9270.9928824021
 31
0.0
  0
LINE
  5
1A5
330
1F
100
AcDbEntity
  8
0
  6
Continuous
 62
     7
370
    25
100
AcDbLine
 10
6929.4649026764
 20
9270.9928824021
 30
0.0
 11
6929.494247297
 21
9208.7454910228
 31
0.0
  0
LINE
  5
1A6
330
1F
100
AcDbEntity
  8
0
  6
Continuous
 62
     7
370
    25
100
AcDbLine
 10
6929.494247297
 20
9208.7454910228
 30
0.0
 11
6944.7113225264
 21
9200.0555325328
 31
0.0
  0
LINE
  5
1A7
330
1F
100
AcDbEntity
  8
0
  6
Continuous
 62
     7
370
    25
100
AcDbLine
 10
6944.7113225264
 20
9200.0555325328
 30
0.0
 11
6998.0325354164
 21
9231.0347092067
 31
0.0
  0
LINE
  5
1A8
330
1F
100
AcDbEntity
  8
0
  6
Continuous
 62
     7
370
    25
100
AcDbLine
 10
6998.0325354164
 20
9231.0347092067
 30
0.0
 11
6994.2575378866
 21
9236.3362041922
 31
0.0
  0
LINE
  5
1A9
330
1F
100
AcDbEntity
  8
0
  6
Continuous
 62
     7
370
    25
100
AcDbLine
 10
6848.0940221119
 20
9230.3335949125
 30
0.0
 11
6855.2364195617
 21
9225.7535977226
 31
0.0
  0
LINE
  5
1AA
330
1F
100
AcDbEntity
  8
0
  6
Continuous
 62
     7
370
    25
100
AcDbLine
 10
6873.5814514517
 20
9214.7214741175
 30
0.0
 11
6899.5419380121
 21
9199.7424553071
 31
0.0
  0
LINE
  5
1AB
330
1F
100
AcDbEntity
  8
0
  6
Continuous
 62
     7
370
    25
100
AcDbLine
 10
6899.5419380121
 20
9199.7424553071
 30
0.0
 11
6913.2724026764
 21
9207.5848088115
 31
0.0
  0
LINE
  5
1AC
330
1F
100
AcDbEntity
  8
0
  6
Continuous
 62
     7
370
    25
100
AcDbLine
 10
6913.2724026764
 20
9207.5848088115
 30
0.0
 11
6913.7947136716
 21
9239.1213999164
 31
0.0
  0
LINE
  5
1AD
330
1F
100
AcDbEntity
  8
0
  6
Continuous
 62
     7
370
    25
100
AcDbLine
 10
6937.0849026767
 20
9316.3779910213
 30
0.0
 11
6908.509902677
 21
9316.3779910213
 31
0.0
  0
LINE
  5
1AE
330
1F
100
AcDbEntity
  8
0
  6
Continuous
 62
     7
370
    25
100
AcDbLine
 10
6937.0849026767
 20
9298.0246247578
 30
0.0
 11
6937.0849026767
 21
9316.3779910213
 31
0.0
  0
LINE
  5
1AF
330
1F
100
AcDbEntity
  8
0
  6
Continuous
 62
     7
370
    25
100
AcDbLine
 10
6950.896152677
 20
9294.6383881965
 30
0.0
 11
6937.0849026767
 21
9298.0246247578
 31
0.0
  0
LINE
  5
1B0
330
1F
100
AcDbEntity
  8
0
  6
Continuous
 62
     7
370
    25
100
AcDbLine
 10
6956.3514478368
 20
9293.2762560471
 30
0.0
 11
6950.896152677
 21
9294.6383881965
 31
0.0
  0
LINE
  5
1B1
330
1F
100
AcDbEntity
  8
0
  6
Continuous
 62
     7
370
    25
100
AcDbLine
 10
6965.466670907
 20
9290.8618533321
 30
0.0
 11
6961.3170132162
 21
9291.9843688672
 31
0.0
  0
LINE
  5
1B2
330
1F
100
AcDbEntity
  8
0
  6
Continuous
 62
     7
370
    25
100
AcDbLine
 10
6995.3732982923
 20
9295.5476408877
 30
0.0
 11
6990.6754749467
 21
9298.3090412575
 31
0.0
  0
LINE
  5
1B3
330
1F
100
AcDbEntity
  8
0
  6
Continuous
 62
     7
370
    25
100
AcDbLine
 10
6999.4400275216
 20
9293.1188192277
 30
0.0
 11
6995.3732982923
 21
9295.5476408877
 31
0.0
  0
LINE
  5
1B4
330
1F
100
AcDbEntity
  8
0
  6
Continuous
 62
     7
370
    25
100
AcDbLine
 10
7002.9301018213
 20
9291.0070791017
 30
0.0
 11
6999.4400275216
 21
9293.1188192277
 31
0.0
  0
LINE
  5
1B5
330
1F
100
AcDbEntity
  8
0
  6
Continuous
 62
     7
370
    25
100
AcDbLine
 10
6995.390635697
 20
9274.3831385107
 30
0.0
 11
6999.7675427415
 21
9282.1707918475
 31
0.0
  0
LINE
  5
1B6
330
1F
100
AcDbEntity
  8
0
  6
Continuous
 62
     7
370
    25
100
AcDbLine
 10
7017.8490464562
 20
9251.6879152967
 30
0.0
 11
6995.390635697
 21
9274.3831385107
 31
0.0
  0
LINE
  5
1B7
330
1F
100
AcDbEntity
  8
0
  6
Continuous
 62
     7
370
    25
100
AcDbLine
 10
7033.9245127818
 20
9261.108767042
 30
0.0
 11
7017.8490464562
 21
9251.6879152967
 31
0.0
  0
LINE
  5
1B8
330
1F
100
AcDbEntity
  8
0
  6
Continuous
 62
     7
370
    25
100
AcDbLine
 10
7049.2878043814
 20
9234.4614955977
 30
0.0
 11
7033.9245127818
 21
9261.108767042
 31
0.0
  0
LINE
  5
1B9
330
1F
100
AcDbEntity
  8
0
  6
Continuous
 62
     7
370
    25
100
AcDbLine
 10
7043.1926044818
 20
9231.3666516473
 30
0.0
 11
7049.2878043814
 21
9234.4614955977
 31
0.0
  0
LINE
  5
1BA
330
1F
100
AcDbEntity
  8
0
  6
Continuous
 62
     7
370
    25
100
AcDbLine
 10
7059.0049026768
 20
9194.4579910219
 30
0.0
 11
7049.4799026767
 21
9194.4579910219
 31
0.0
  0
LINE
  5
1BB
330
1F
100
AcDbEntity
  8
0
  6
Continuous
 62
     7
370
    25
100
AcDbLine
 10
7059.0049026768
 20
9163.9779910224
 30
0.0
 11
7059.0049026768
 21
9194.4579910219
 31
0.0
  0
LINE
  5
1BC
330
1F
100
AcDbEntity
  8
0
  6
Continuous
 62
     7
370
    25
100
AcDbLine
 10
7040.8266287713
 20
9163.9779910224
 30
0.0
 11
7059.0049026768
 21
9163.9779910224
 31
0.0
  0
LINE
  5
1BD
330
1F
100
AcDbEntity
  8
0
  6
Continuous
 62
     7
370
    25
100
AcDbLine
 10
7038.5288387264
 20
9153.0242410215
 30
0.0
 11
7040.8266287713
 21
9163.9779910224
 31
0.0
  0
LINE
  5
1BE
330
1F
100
AcDbEntity
  8
0
  6
Continuous
 62
     7
370
    25
100
AcDbLine
 10
7037.5651373265
 20
9148.4742304374
 30
0.0
 11
7038.5288387264
 21
9153.0242410215
 31
0.0
  0
LINE
  5
1BF
330
1F
100
AcDbEntity
  8
0
  6
Continuous
 62
     7
370
    25
100
AcDbLine
 10
7036.5697005313
 20
9143.8610195723
 30
0.0
 11
7037.5651373265
 21
9148.4742304374
 31
0.0
  0
LINE
  5
1C0
330
1F
100
AcDbEntity
  8
0
  6
Continuous
 62
     7
370
    25
100
AcDbLine
 10
7035.6760955116
 20
9139.7928215868
 30
0.0
 11
7036.5697005313
 21
9143.8610195723
 31
0.0
  0
LINE
  5
1C1
330
1F
100
AcDbEntity
  8
0
  6
Continuous
 62
     7
370
    25
100
AcDbLine
 10
7033.9777956312
 20
9097.4206571573
 30
0.0
 11
7040.7763482015
 21
9109.5776089674
 31
0.0
  0
LINE
  5
1C2
330
1F
100
AcDbEntity
  8
0
  6
Continuous
 62
     7
370
    25
100
AcDbLine
 10
7018.6839184215
 20
9107.0752581174
 30
0.0
 11
7033.9777956312
 21
9097.4206571573
 31
0.0
  0
LINE
  5
1C3
330
1F
100
AcDbEntity
  8
0
  6
Continuous
 62
     7
370
    25
100
AcDbLine
 10
6995.5658671218
 20
9083.7410598027
 30
0.0
 11
7018.6839184215
 21
9107.0752581174
 31
0.0
  0
LINE
  5
1C4
330
1F
100
AcDbEntity
  8
0
  6
Continuous
 62
     7
370
    25
100
AcDbLine
 10
6999.8551575016
 20
9076.1092983314
 30
0.0
 11
6995.5658671218
 21
9083.7410598027
 31
0.0
  0
LINE
  5
1C5
330
1F
100
AcDbEntity
  8
0
  6
Continuous
 62
     7
370
    25
100
AcDbLine
 10
6999.4198935764
 20
9065.4773866521
 30
0.0
 11
7002.9440940472
 21
9067.5651104434
 31
0.0
  0
LINE
  5
1C6
330
1F
100
AcDbEntity
  8
0
  6
Continuous
 62
     7
370
    25
100
AcDbLine
 10
6995.3311349267
 20
9063.0752635672
 30
0.0
 11
6999.4198935764
 21
9065.4773866521
 31
0.0
  0
LINE
  5
1C7
330
1F
100
AcDbEntity
  8
0
  6
Continuous
 62
     7
370
    25
100
AcDbLine
 10
6990.6069330467
 20
9060.3282135624
 30
0.0
 11
6995.3311349267
 21
9063.0752635672
 31
0.0
  0
LINE
  5
1C8
330
1F
100
AcDbEntity
  8
0
  6
Continuous
 62
     7
370
    25
100
AcDbLine
 10
6937.1117860369
 20
9060.1554910222
 30
0.0
 11
6949.9570943569
 21
9063.3062905368
 31
0.0
  0
LINE
  5
1C9
330
1F
100
AcDbEntity
  8
0
  6
Continuous
 62
     7
370
    25
100
AcDbLine
 10
6937.0849026767
 20
9042.0579910216
 30
0.0
 11
6937.1117860369
 21
9060.1554910222
 31
0.0
  0
LINE
  5
1CA
330
1F
100
AcDbEntity
  8
0
  6
Continuous
 62
     7
370
    25
100
AcDbLine
 10
6908.7186563868
 20
9042.0579910216
 30
0.0
 11
6937.0849026767
 21
9042.0579910216
 31
0.0
  0
LINE
  5
1CB
330
1F
100
AcDbEntity
  8
0
  6
Continuous
 62
     7
370
    25
100
AcDbLine
 10
6907.5574026767
 20
9059.9123406321
 30
0.0
 11
6908.7186563868
 21
9042.0579910216
 31
0.0
  0
LINE
  5
1CC
330
1F
100
AcDbEntity
  8
0
  6
Continuous
 62
     7
370
    25
100
AcDbLine
 10
6895.1749026764
 20
9063.0767970919
 30
0.0
 11
6907.5574026767
 21
9059.9123406321
 31
0.0
  0
LINE
  5
1CD
330
1F
100
AcDbEntity
  8
0
  6
Continuous
 62
     7
370
    25
100
AcDbLine
 10
6850.2256237663
 20
9062.8841406329
 30
0.0
 11
6854.9193304065
 21
9060.1269407873
 31
0.0
  0
LINE
  5
1CE
330
1F
100
AcDbEntity
  8
0
  6
Continuous
 62
     7
370
    25
100
AcDbLine
 10
6846.1722200116
 20
9065.2997206374
 30
0.0
 11
6850.2256237663
 21
9062.8841406329
 31
0.0
  0
LINE
  5
1CF
330
1F
100
AcDbEntity
  8
0
  6
Continuous
 62
     7
370
    25
100
AcDbLine
 10
6842.679518717
 20
9067.4053609519
 30
0.0
 11
6846.1722200116
 21
9065.2997206374
 31
0.0
  0
LINE
  5
1D0
330
1F
100
AcDbEntity
  8
0
  6
Continuous
 62
     7
370
    25
100
AcDbLine
 10
6849.4032105013
 20
9083.7148831966
 30
0.0
 11
6845.4861609317
 21
9076.0368321327
 31
0.0
  0
LINE
  5
1D1
330
1F
100
AcDbEntity
  8
0
  6
Continuous
 62
     7
370
    25
100
AcDbLine
 10
6826.813537622
 20
9106.3045560773
 30
0.0
 11
6849.4032105013
 21
9083.7148831966
 31
0.0
  0
LINE
  5
1D2
330
1F
100
AcDbEntity
  8
0
  6
Continuous
 62
     7
370
    25
100
AcDbLine
 10
6811.5070683616
 20
9097.6103227675
 30
0.0
 11
6826.813537622
 21
9106.3045560773
 31
0.0
  0
LINE
  5
1D3
330
1F
100
AcDbEntity
  8
0
  6
Continuous
 62
     7
370
    25
100
AcDbLine
 10
6796.3070009716
 20
9123.9744864481
 30
0.0
 11
6811.5070683616
 21
9097.6103227675
 31
0.0
  0
LINE
  5
1D4
330
1F
100
AcDbEntity
  8
0
  6
Continuous
 62
     7
370
    25
100
AcDbLine
 10
6801.4497008715
 20
9126.7615338328
 30
0.0
 11
6796.3070009716
 21
9123.9744864481
 31
0.0
  0
LINE
  5
1D5
330
1F
100
AcDbEntity
  8
0
  6
Continuous
 62
     7
370
    25
100
AcDbLine
 10
6807.633715682
 20
9147.531741212
 30
0.0
 11
6808.7984498264
 21
9143.2187107217
 31
0.0
  0
LINE
  5
1D6
330
1F
100
AcDbEntity
  8
0
  6
Continuous
 62
     7
370
    25
100
AcDbLine
 10
6806.4709551169
 20
9151.9885630077
 30
0.0
 11
6807.633715682
 21
9147.531741212
 31
0.0
  0
LINE
  5
1D7
330
1F
100
AcDbEntity
  8
0
  6
Continuous
 62
     7
370
    25
100
AcDbLine
 10
6805.4645169467
 20
9155.9792522574
 30
0.0
 11
6806.4709551169
 21
9151.9885630077
 31
0.0
  0
LINE
  5
1D8
330
1F
100
AcDbEntity
  8
0
  6
Continuous
 62
     7
370
    25
100
AcDbLine
 10
6785.6374026766
 20
9164.930491022
 30
0.0
 11
6794.6759514021
 21
9164.3502813611
 31
0.0
  0
LINE
  5
1D9
330
1F
100
AcDbEntity
  8
0
  6
Continuous
 62
     7
370
    25
100
AcDbLine
 10
6784.5246369315
 20
9194.4579910219
 30
0.0
 11
6785.6374026766
 21
9164.930491022
 31
0.0
  0
LINE
  5
1DA
330
1F
100
AcDbEntity
  8
0
  6
Continuous
 62
     7
370
    25
100
AcDbLine
 10
6794.0934766965
 20
9194.4579910222
 30
0.0
 11
6784.5246369315
 21
9194.4579910219
 31
0.0
  0
LINE
  5
1DB
330
1F
100
AcDbEntity
  8
0
  6
Continuous
 62
     7
370
    25
100
AcDbLine
 10
6799.9176446262
 20
9241.1012988023
 30
0.0
 11
6801.9675865512
 21
9244.4870876875
 31
0.0
  0
LINE
  5
1DC
330
1F
100
AcDbEntity
  8
0
  6
Continuous
 62
     7
370
    25
100
AcDbLine
 10
6801.9675865512
 20
9244.4870876875
 30
0.0
 11
6804.2509862271
 21
9248.3186713377
 31
0.0
  0
LINE
  5
1DD
330
1F
100
AcDbEntity
  8
0
  6
Continuous
 62
     7
370
    25
100
AcDbLine
 10
6804.2509862271
 20
9248.3186713377
 30
0.0
 11
6806.458248767
 21
9252.0842619763
 31
0.0
  0
LINE
  5
1DE
330
1F
100
AcDbEntity
  8
0
  6
Continuous
 62
     7
370
    25
100
AcDbLine
 10
6811.7169612618
 20
9261.1330348376
 30
0.0
 11
6806.458248767
 21
9252.0842619763
 31
0.0
  0
LINE
  5
1DF
330
1F
100
AcDbEntity
  8
0
  6
Continuous
 62
     7
370
    25
100
AcDbLine
 10
6827.0039099863
 20
9252.0169983317
 30
0.0
 11
6811.7169612618
 21
9261.1330348376
 31
0.0
  0
LINE
  5
1E0
330
1F
100
AcDbEntity
  8
0
  6
Continuous
 62
     7
370
    25
100
AcDbLine
 10
6849.5061776572
 20
9274.5192660018
 30
0.0
 11
6827.0039099863
 21
9252.0169983317
 31
0.0
  0
LINE
  5
1E1
330
1F
100
AcDbEntity
  8
0
  6
Continuous
 62
     7
370
    25
100
AcDbLine
 10
6845.6705401666
 20
9282.0377371227
 30
0.0
 11
6849.5061776572
 21
9274.5192660018
 31
0.0
  0
LINE
  5
1E2
330
1F
100
AcDbEntity
  8
0
  6
Continuous
 62
     7
370
    25
100
AcDbLine
 10
6884.2777921368
 20
9291.9843688671
 30
0.0
 11
6880.1281344467
 21
9290.8618533321
 31
0.0
  0
LINE
  5
1E3
330
1F
100
AcDbEntity
  8
0
  6
Continuous
 62
     7
370
    25
100
AcDbLine
 10
6894.6986526767
 20
9294.6383881966
 30
0.0
 11
6889.243357517
 21
9293.2762560466
 31
0.0
  0
LINE
  5
1E4
330
1F
100
AcDbEntity
  8
0
  6
Continuous
 62
     7
370
    25
100
AcDbLine
 10
6908.509902677
 20
9298.0246247578
 30
0.0
 11
6894.6986526767
 21
9294.6383881966
 31
0.0
  0
LINE
  5
1E5
330
1F
100
AcDbEntity
  8
0
  6
Continuous
 62
     7
370
    25
100
AcDbLine
 10
6908.509902677
 20
9316.3779910213
 30
0.0
 11
6908.509902677
 21
9298.0246247578
 31
0.0
  0
ARC
  5
1E6
330
1F
100
AcDbEntity
  8
0
  6
Continuous
 62
     7
370
    25
100
AcDbCircle
 10
6944.2865797347
 20
9148.0084632113
 30
0.0
 40
8.11406184817017
100
AcDbArc
 50
70.3730610881
 51
103.7646313617
  0
ARC
  5
1E7
330
1F
100
AcDbEntity
  8
0
  6
Continuous
 62
     7
370
    25
100
AcDbCircle
 10
6947.8998147911
 20
9133.2585520278
 30
0.0
 40
23.30008659111851
100
AcDbArc
 50
103.7645414375
 51
118.971631617
  0
ARC
  5
1E8
330
1F
100
AcDbEntity
  8
0
  6
Continuous
 62
     7
370
    25
100
AcDbCircle
 10
8636.8610402144
 20
9118.4508847954
 30
0.0
 40
1707.391013740449
100
AcDbArc
 50
179.9904912724
 51
180.7910246508
  0
ARC
  5
1E9
330
1F
100
AcDbEntity
  8
0
  6
Continuous
 62
     7
370
    25
100
AcDbCircle
 10
6940.2930348877
 20
9095.0266138699
 30
0.0
 40
10.66130834639615
100
AcDbArc
 50
180.7910737969
 51
210.1430465954
  0
ARC
  5
1EA
330
1F
100
AcDbEntity
  8
0
  6
Continuous
 62
     7
370
    25
100
AcDbCircle
 10
6934.0922613534
 20
9091.4259258433
 30
0.0
 40
3.490914585314263
100
AcDbArc
 50
210.1430678626
 51
279.6217990274
  0
ARC
  5
1EB
330
1F
100
AcDbEntity
  8
0
  6
Continuous
 62
     7
370
    25
100
AcDbCircle
 10
6913.852757305
 20
9210.8133949388
 30
0.0
 40
124.5818114404033
100
AcDbArc
 50
279.6217536653
 51
284.910132035
  0
ARC
  5
1EC
330
1F
100
AcDbEntity
  8
0
  6
Continuous
 62
     7
370
    25
100
AcDbCircle
 10
6924.8126864493
 20
9169.6522915421
 30
0.0
 40
81.98654785764819
100
AcDbArc
 50
284.910124043
 51
293.5716407706
  0
ARC
  5
1ED
330
1F
100
AcDbEntity
  8
0
  6
Continuous
 62
     7
370
    25
100
AcDbCircle
 10
6916.1863871616
 20
9189.4237691728
 30
0.0
 40
103.5579262814172
100
AcDbArc
 50
293.5716431111
 51
300.8416423743
  0
ARC
  5
1EE
330
1F
100
AcDbEntity
  8
0
  6
Continuous
 62
     7
370
    25
100
AcDbCircle
 10
6917.2537421213
 20
9187.636205834
 30
0.0
 40
101.4759490240076
100
AcDbArc
 50
300.8416463949
 51
308.1784991886
  0
ARC
  5
1EF
330
1F
100
AcDbEntity
  8
0
  6
Continuous
 62
     7
370
    25
100
AcDbCircle
 10
6934.8851202771
 20
9165.2135572486
 30
0.0
 40
72.95156182214072
100
AcDbArc
 50
308.1784285121
 51
317.574481243
  0
ARC
  5
1F0
330
1F
100
AcDbEntity
  8
0
  6
Continuous
 62
     7
370
    25
100
AcDbCircle
 10
6933.4330578091
 20
9117.5735987374
 30
0.0
 40
40.42628730128853
100
AcDbArc
 50
59.9750221095
 51
70.3730244794
  0
ARC
  5
1F1
330
1F
100
AcDbEntity
  8
0
  6
Continuous
 62
     7
370
    25
100
AcDbCircle
 10
6900.0122686151
 20
9154.3852357387
 30
0.0
 40
4.142691996157074
100
AcDbArc
 50
52.213896633
 51
63.70169547
  0
ARC
  5
1F2
330
1F
100
AcDbEntity
  8
0
  6
Continuous
 62
     7
370
    25
100
AcDbCircle
 10
6901.2854190531
 20
9156.9614505448
 30
0.0
 40
1.269054098847302
100
AcDbArc
 50
63.7017209749
 51
91.4310718202
  0
ARC
  5
1F3
330
1F
100
AcDbEntity
  8
0
  6
Continuous
 62
     7
370
    25
100
AcDbCircle
 10
6901.3605287099
 20
9153.9542262306
 30
0.0
 40
4.277216251446495
100
AcDbArc
 50
91.4308421209
 51
119.8052077782
  0
ARC
  5
1F4
330
1F
100
AcDbEntity
  8
0
  6
Continuous
 62
     7
370
    25
100
AcDbCircle
 10
6919.8168648967
 20
9030.9008307028
 30
0.0
 40
120.0769024344541
100
AcDbArc
 50
120.3876953023
 51
124.8949168564
  0
ARC
  5
1F5
330
1F
100
AcDbEntity
  8
0
  6
Continuous
 62
     7
370
    25
100
AcDbCircle
 10
6928.2351347266
 20
9187.0335242648
 30
0.0
 40
101.0327283443096
100
AcDbArc
 50
223.6820299386
 51
230.497759299
  0
ARC
  5
1F6
330
1F
100
AcDbEntity
  8
0
  6
Continuous
 62
     7
370
    25
100
AcDbCircle
 10
6929.4738144841
 20
9188.5360088623
 30
0.0
 40
102.9799796139494
100
AcDbArc
 50
230.4977471306
 51
237.2166165399
  0
ARC
  5
1F7
330
1F
100
AcDbEntity
  8
0
  6
Continuous
 62
     7
370
    25
100
AcDbCircle
 10
6928.2376939149
 20
9186.6165314253
 30
0.0
 40
100.6969142001207
100
AcDbArc
 50
237.2165636809
 51
244.010539819
  0
ARC
  5
1F8
330
1F
100
AcDbEntity
  8
0
  6
Continuous
 62
     7
370
    25
100
AcDbCircle
 10
6923.6849985448
 20
9177.2776340479
 30
0.0
 40
90.3073983617648
100
AcDbArc
 50
244.0105039971
 51
251.3826146491
  0
ARC
  5
1F9
330
1F
100
AcDbEntity
  8
0
  6
Continuous
 62
     7
370
    25
100
AcDbCircle
 10
6954.2123945851
 20
9267.8969485707
 30
0.0
 40
185.9305235646978
100
AcDbArc
 50
251.382610779
 51
255.6616498568
  0
ARC
  5
1FA
330
1F
100
AcDbEntity
  8
0
  6
Continuous
 62
     7
370
    25
100
AcDbCircle
 10
6909.1200061624
 20
9091.4858885276
 30
0.0
 40
3.847614978592512
100
AcDbArc
 50
255.6616706885
 51
324.9006698974
  0
ARC
  5
1FB
330
1F
100
AcDbEntity
  8
0
  6
Continuous
 62
     7
370
    25
100
AcDbCircle
 10
6904.3907928877
 20
9094.8095634572
 30
0.0
 40
9.627950023828989
100
AcDbArc
 50
324.9006174298
 51
359.0337660744
  0
ARC
  5
1FC
330
1F
100
AcDbEntity
  8
0
  6
Continuous
 62
     7
370
    25
100
AcDbCircle
 10
5454.7996010304
 20
9119.258229301
 30
0.0
 40
1459.425301646396
100
AcDbArc
 50
359.0337466265
 51
359.9999769304
  0
ARC
  5
1FD
330
1F
100
AcDbEntity
  8
0
  6
Continuous
 62
     7
370
    25
100
AcDbCircle
 10
6916.4287074317
 20
9170.3137417386
 30
0.0
 40
19.08172168284148
100
AcDbArc
 50
243.1269298387
 51
249.1832879301
  0
ARC
  5
1FE
330
1F
100
AcDbEntity
  8
0
  6
Continuous
 62
     7
370
    25
100
AcDbCircle
 10
6916.5801389776
 20
9170.6125618224
 30
0.0
 40
19.41672161642092
100
AcDbArc
 50
237.1491063215
 51
243.1269087236
  0
ARC
  5
1FF
330
1F
100
AcDbEntity
  8
0
  6
Continuous
 62
     7
370
    25
100
AcDbCircle
 10
6914.9762312943
 20
9168.1286379371
 30
0.0
 40
16.45996702321968
100
AcDbArc
 50
230.9580949843
 51
237.1491164098
  0
ARC
  5
200
330
1F
100
AcDbEntity
  8
0
  6
Continuous
 62
     7
370
    25
100
AcDbCircle
 10
6906.8573769869
 20
9158.1176729919
 30
0.0
 40
3.570622028288772
100
AcDbArc
 50
211.7174931733
 51
230.9581503106
  0
ARC
  5
201
330
1F
100
AcDbEntity
  8
0
  6
Continuous
 62
     7
370
    25
100
AcDbCircle
 10
6899.1385697086
 20
9153.3471945727
 30
0.0
 40
5.503376547142392
100
AcDbArc
 50
31.7174017389
 51
41.7503542572
  0
ARC
  5
202
330
1F
100
AcDbEntity
  8
0
  6
Continuous
 62
     7
370
    25
100
AcDbCircle
 10
6899.3623442286
 20
9153.5469219124
 30
0.0
 40
5.203433142466822
100
AcDbArc
 50
41.7503669193
 51
52.2140086314
  0
ARC
  5
203
330
1F
100
AcDbEntity
  8
0
  6
Continuous
 62
     7
370
    25
100
AcDbCircle
 10
6918.2512637352
 20
9175.113305171
 30
0.0
 40
21.91559731834697
100
AcDbArc
 50
41.3475642988
 51
58.943963039
  0
ARC
  5
204
330
1F
100
AcDbEntity
  8
0
  6
Continuous
 62
     7
370
    25
100
AcDbCircle
 10
6922.7920228062
 20
9182.6536924562
 30
0.0
 40
13.11355588746785
100
AcDbArc
 50
58.9439411493
 51
84.7919808962
  0
ARC
  5
205
330
1F
100
AcDbEntity
  8
0
  6
Continuous
 62
     7
370
    25
100
AcDbCircle
 10
6922.8327170792
 20
9183.0999970003
 30
0.0
 40
12.66539992156231
100
AcDbArc
 50
84.7920457466
 51
111.1836898124
  0
ARC
  5
206
330
1F
100
AcDbEntity
  8
0
  6
Continuous
 62
     7
370
    25
100
AcDbCircle
 10
6925.4060881029
 20
9176.45993983
 30
0.0
 40
19.78667773176173
100
AcDbArc
 50
111.1837894938
 51
130.0787217704
  0
ARC
  5
207
330
1F
100
AcDbEntity
  8
0
  6
Continuous
 62
     7
370
    25
100
AcDbCircle
 10
6933.2989697512
 20
9167.0797815143
 30
0.0
 40
32.04575399152014
100
AcDbArc
 50
130.0787310357
 51
137.3050000823
  0
ARC
  5
208
330
1F
100
AcDbEntity
  8
0
  6
Continuous
 62
     7
370
    25
100
AcDbCircle
 10
6918.7758418821
 20
9180.4789787008
 30
0.0
 40
12.28570013667792
100
AcDbArc
 50
137.3049552782
 51
152.0882718897
  0
ARC
  5
209
330
1F
100
AcDbEntity
  8
0
  6
Continuous
 62
     7
370
    25
100
AcDbCircle
 10
6916.9161430214
 20
9181.4641245415
 30
0.0
 40
10.18118304717292
100
AcDbArc
 50
152.0882646291
 51
168.6360340135
  0
ARC
  5
20A
330
1F
100
AcDbEntity
  8
0
  6
Continuous
 62
     7
370
    25
100
AcDbCircle
 10
6923.4202067624
 20
9180.1569455907
 30
0.0
 40
16.81530408588184
100
AcDbArc
 50
168.6360810892
 51
179.9999710331
  0
ARC
  5
20B
330
1F
100
AcDbEntity
  8
0
  6
Continuous
 62
     7
370
    25
100
AcDbCircle
 10
6954.1557465322
 20
9180.1569577084
 30
0.0
 40
47.55084385572201
100
AcDbArc
 50
180.0000043576
 51
187.1012616546
  0
ARC
  5
20C
330
1F
100
AcDbEntity
  8
0
  6
Continuous
 62
     7
370
    25
100
AcDbCircle
 10
6918.858300649
 20
9175.7596455226
 30
0.0
 40
11.9805466917201
100
AcDbArc
 50
187.1012921298
 51
206.887100661
  0
ARC
  5
20D
330
1F
100
AcDbEntity
  8
0
  6
Continuous
 62
     7
370
    25
100
AcDbCircle
 10
6916.4049609646
 20
9174.5156888839
 30
0.0
 40
9.229855192075801
100
AcDbArc
 50
206.8870962543
 51
230.2083834447
  0
ARC
  5
20E
330
1F
100
AcDbEntity
  8
0
  6
Continuous
 62
     7
370
    25
100
AcDbCircle
 10
6924.1837094247
 20
9183.8547846532
 30
0.0
 40
21.38418106368654
100
AcDbArc
 50
230.2083381769
 51
242.6556251815
  0
ARC
  5
20F
330
1F
100
AcDbEntity
  8
0
  6
Continuous
 62
     7
370
    25
100
AcDbCircle
 10
6927.8247017712
 20
9190.8957221757
 30
0.0
 40
29.31082136476282
100
AcDbArc
 50
242.6556513589
 51
254.3480448243
  0
ARC
  5
210
330
1F
100
AcDbEntity
  8
0
  6
Continuous
 62
     7
370
    25
100
AcDbCircle
 10
6922.9424101091
 20
9173.4703473341
 30
0.0
 40
11.21440016491223
100
AcDbArc
 50
254.3480563776
 51
278.3024396128
  0
ARC
  5
211
330
1F
100
AcDbEntity
  8
0
  6
Continuous
 62
     7
370
    25
100
AcDbCircle
 10
6922.9842710457
 20
9173.1834594899
 30
0.0
 40
10.92447435858674
100
AcDbArc
 50
278.302460108
 51
302.6496234861
  0
ARC
  5
212
330
1F
100
AcDbEntity
  8
0
  6
Continuous
 62
     7
370
    25
100
AcDbCircle
 10
6914.2534798657
 20
9186.8093919538
 30
0.0
 40
27.10757511646853
100
AcDbArc
 50
302.649635228
 51
315.0000327008
  0
ARC
  5
213
330
1F
100
AcDbEntity
  8
0
  6
Continuous
 62
     7
370
    25
100
AcDbCircle
 10
6917.917297169
 20
9183.1455940222
 30
0.0
 40
21.9261686939575
100
AcDbArc
 50
315.000004634
 51
332.3102155982
  0
ARC
  5
214
330
1F
100
AcDbEntity
  8
0
  6
Continuous
 62
     7
370
    25
100
AcDbCircle
 10
6925.0192799905
 20
9179.418596716
 30
0.0
 40
13.90565319200959
100
AcDbArc
 50
332.3101721663
 51
356.65688233
  0
ARC
  5
215
330
1F
100
AcDbEntity
  8
0
  6
Continuous
 62
     7
370
    25
100
AcDbCircle
 10
6925.7805671923
 20
9179.3741362429
 30
0.0
 40
13.14306881155545
100
AcDbArc
 50
356.6568392298
 51
21.8296617862
  0
ARC
  5
216
330
1F
100
AcDbEntity
  8
0
  6
Continuous
 62
     7
370
    25
100
AcDbCircle
 10
6920.8478454816
 20
9177.3982420548
 30
0.0
 40
18.45681525990951
100
AcDbArc
 50
21.829614165
 51
41.3476526961
  0
ARC
  5
217
330
1F
100
AcDbEntity
  8
0
  6
Continuous
 62
     7
370
    25
100
AcDbCircle
 10
6838.8206657256
 20
9209.8936488285
 30
0.0
 40
7.289259432653498
100
AcDbArc
 50
61.8824669759
 51
75.9327855219
  0
ARC
  5
218
330
1F
100
AcDbEntity
  8
0
  6
Continuous
 62
     7
370
    25
100
AcDbCircle
 10
6839.9460537648
 20
9214.3848866051
 30
0.0
 40
2.659171420032493
100
AcDbArc
 50
75.9327602853
 51
160.2412069146
  0
ARC
  5
219
330
1F
100
AcDbEntity
  8
0
  6
Continuous
 62
     7
370
    25
100
AcDbCircle
 10
6926.6628473388
 20
9183.2354772432
 30
0.0
 40
94.80084489819643
100
AcDbArc
 50
160.2412783068
 51
166.6979498195
  0
ARC
  5
21A
330
1F
100
AcDbEntity
  8
0
  6
Continuous
 62
     7
370
    25
100
AcDbCircle
 10
6938.2682312267
 20
9180.4916291947
 30
0.0
 40
106.7261808388891
100
AcDbArc
 50
166.6979429906
 51
173.8127090826
  0
ARC
  5
21B
330
1F
100
AcDbEntity
  8
0
  6
Continuous
 62
     7
370
    25
100
AcDbCircle
 10
6955.2810266266
 20
9178.6471915432
 30
0.0
 40
123.8386662680724
100
AcDbArc
 50
173.8126746886
 51
180.1765996372
  0
ARC
  5
21C
330
1F
100
AcDbEntity
  8
0
  6
Continuous
 62
     7
370
    25
100
AcDbCircle
 10
6945.6952330488
 20
9178.6175998999
 30
0.0
 40
114.2528270152833
100
AcDbArc
 50
180.1765766774
 51
186.5375245535
  0
ARC
  5
21D
330
1F
100
AcDbEntity
  8
0
  6
Continuous
 62
     7
370
    25
100
AcDbCircle
 10
6939.9111506216
 20
9177.9547189801
 30
0.0
 40
108.430883985901
100
AcDbArc
 50
186.5375086175
 51
193.1528749057
  0
ARC
  5
21E
330
1F
100
AcDbEntity
  8
0
  6
Continuous
 62
     7
370
    25
100
AcDbCircle
 10
6940.8995769512
 20
9178.1856692929
 30
0.0
 40
109.4459330760225
100
AcDbArc
 50
193.1528619255
 51
198.62746347
  0
ARC
  5
21F
330
1F
100
AcDbEntity
  8
0
  6
Continuous
 62
     7
370
    25
100
AcDbCircle
 10
6840.1236149948
 20
9144.2170225449
 30
0.0
 40
3.099031522141211
100
AcDbArc
 50
198.6273884823
 51
270.0000261995
  0
ARC
  5
220
330
1F
100
AcDbEntity
  8
0
  6
Continuous
 62
     7
370
    25
100
AcDbCircle
 10
6840.1236174259
 20
9143.8526106854
 30
0.0
 40
2.734619662642567
100
AcDbArc
 50
269.9999787555
 51
297.8004676552
  0
ARC
  5
221
330
1F
100
AcDbEntity
  8
0
  6
Continuous
 62
     7
370
    25
100
AcDbCircle
 10
6579.5909681588
 20
9648.9539550912
 30
0.0
 40
571.031274707271
100
AcDbArc
 50
298.1430819762
 51
299.1365845915
  0
ARC
  5
222
330
1F
100
AcDbEntity
  8
0
  6
Continuous
 62
     7
370
    25
100
AcDbCircle
 10
6361.747194814
 20
10039.7554500527
 30
0.0
 40
1018.447991034601
100
AcDbArc
 50
299.1365597918
 51
299.7807918442
  0
ARC
  5
223
330
1F
100
AcDbEntity
  8
0
  6
Continuous
 62
     7
370
    25
100
AcDbCircle
 10
6478.4376524335
 20
8527.1492973543
 30
0.0
 40
779.2886582699763
100
AcDbArc
 50
60.8284409363
 51
61.5528863542
  0
ARC
  5
224
330
1F
100
AcDbEntity
  8
0
  6
Continuous
 62
     7
370
    25
100
AcDbCircle
 10
6914.5538593496
 20
9176.2312724872
 30
0.0
 40
99.91933397273232
100
AcDbArc
 50
9.0763899089
 51
12.2350208196
  0
ARC
  5
225
330
1F
100
AcDbEntity
  8
0
  6
Continuous
 62
     7
370
    25
100
AcDbCircle
 10
6886.8927339293
 20
9170.2327755725
 30
0.0
 40
128.223394188672
100
AcDbArc
 50
12.2351299731
 51
14.8550372525
  0
ARC
  5
226
330
1F
100
AcDbEntity
  8
0
  6
Continuous
 62
     7
370
    25
100
AcDbCircle
 10
6898.6869059708
 20
9173.360923939
 30
0.0
 40
116.0214350702255
100
AcDbArc
 50
14.8550990732
 51
17.5123582335
  0
ARC
  5
227
330
1F
100
AcDbEntity
  8
0
  6
Continuous
 62
     7
370
    25
100
AcDbCircle
 10
6978.8732222772
 20
9198.6625625828
 30
0.0
 40
31.93803456303559
100
AcDbArc
 50
17.5124027298
 51
24.4515505677
  0
ARC
  5
228
330
1F
100
AcDbEntity
  8
0
  6
Continuous
 62
     7
370
    25
100
AcDbCircle
 10
6957.3914275033
 20
9169.5080466289
 30
0.0
 40
55.52581539527026
100
AcDbArc
 50
335.5723026034
 51
346.3508521726
  0
ARC
  5
229
330
1F
100
AcDbEntity
  8
0
  6
Continuous
 62
     7
370
    25
100
AcDbCircle
 10
6915.8303784254
 20
9179.6004038719
 30
0.0
 40
98.29468813204278
100
AcDbArc
 50
346.3508883274
 51
353.3791056519
  0
ARC
  5
22A
330
1F
100
AcDbEntity
  8
0
  6
Continuous
 62
     7
370
    25
100
AcDbCircle
 10
6911.4417983109
 20
9180.1097431865
 30
0.0
 40
102.7127263794789
100
AcDbArc
 50
353.3791381387
 51
0.2853137241
  0
ARC
  5
22B
330
1F
100
AcDbEntity
  8
0
  6
Continuous
 62
     7
370
    25
100
AcDbCircle
 10
6939.7130338048
 20
9180.2505120996
 30
0.0
 40
74.44114042754676
100
AcDbArc
 50
0.2853241154
 51
9.0763705309
  0
ARC
  5
22C
330
1F
100
AcDbEntity
  8
0
  6
Continuous
 62
     7
370
    25
100
AcDbCircle
 10
6930.9412927639
 20
9202.5313844742
 30
0.0
 40
66.86873366615697
100
AcDbArc
 50
70.566085738
 51
73.7054688696
  0
ARC
  5
22D
330
1F
100
AcDbEntity
  8
0
  6
Continuous
 62
     7
370
    25
100
AcDbCircle
 10
6911.008843301
 20
9134.3433386179
 30
0.0
 40
137.9103562495686
100
AcDbArc
 50
73.7054950577
 51
75.5322749962
  0
ARC
  5
22E
330
1F
100
AcDbEntity
  8
0
  6
Continuous
 62
     7
370
    25
100
AcDbCircle
 10
6910.8744690903
 20
9133.8227876446
 30
0.0
 40
138.4479711122378
100
AcDbArc
 50
75.5322496022
 51
77.3576545073
  0
ARC
  5
22F
330
1F
100
AcDbEntity
  8
0
  6
Continuous
 62
     7
370
    25
100
AcDbCircle
 10
6925.9366889416
 20
9200.974002732
 30
0.0
 40
69.62823444777413
100
AcDbArc
 50
77.3576764149
 51
80.4104442238
  0
ARC
  5
230
330
1F
100
AcDbEntity
  8
0
  6
Continuous
 62
     7
370
    25
100
AcDbCircle
 10
6950.1841760685
 20
9204.9532306267
 30
0.0
 40
54.10501133681401
100
AcDbArc
 50
35.4532297007
 51
47.3554562727
  0
ARC
  5
231
330
1F
100
AcDbEntity
  8
0
  6
Continuous
 62
     7
370
    25
100
AcDbCircle
 10
6914.8276913512
 20
9166.5635377263
 30
0.0
 40
106.29552323831
100
AcDbArc
 50
47.3553645889
 51
54.5363001954
  0
ARC
  5
232
330
1F
100
AcDbEntity
  8
0
  6
Continuous
 62
     7
370
    25
100
AcDbCircle
 10
6911.1975634917
 20
9161.4676242242
 30
0.0
 40
112.5522126735695
100
AcDbArc
 50
54.5362516482
 51
61.5635531004
  0
ARC
  5
233
330
1F
100
AcDbEntity
  8
0
  6
Continuous
 62
     7
370
    25
100
AcDbCircle
 10
6926.2796171414
 20
9189.3188511193
 30
0.0
 40
80.87952440983207
100
AcDbArc
 50
61.5635825892
 51
70.5660752304
  0
ARC
  5
234
330
1F
100
AcDbEntity
  8
0
  6
Continuous
 62
     7
370
    25
100
AcDbCircle
 10
6851.044093921
 20
9260.2893516734
 30
0.0
 40
62.77615141306797
100
AcDbArc
 50
3.4705926104
 51
8.446063882
  0
ARC
  5
235
330
1F
100
AcDbEntity
  8
0
  6
Continuous
 62
     7
370
    25
100
AcDbCircle
 10
6911.9516510855
 20
9269.3334364784
 30
0.0
 40
1.200783044664303
100
AcDbArc
 50
8.4461622108
 51
92.9566772587
  0
ARC
  5
236
330
1F
100
AcDbEntity
  8
0
  6
Continuous
 62
     7
370
    25
100
AcDbCircle
 10
6913.4096056775
 20
9241.1061702193
 30
0.0
 40
29.46567632338715
100
AcDbArc
 50
92.9567303817
 51
105.3295225063
  0
ARC
  5
237
330
1F
100
AcDbEntity
  8
0
  6
Continuous
 62
     7
370
    25
100
AcDbCircle
 10
6949.7396309549
 20
9108.5746214255
 30
0.0
 40
166.8864977528164
100
AcDbArc
 50
105.3295510945
 51
108.7581039435
  0
ARC
  5
238
330
1F
100
AcDbEntity
  8
0
  6
Continuous
 62
     7
370
    25
100
AcDbCircle
 10
6950.8349905465
 20
9105.3489010512
 30
0.0
 40
170.2931213822285
100
AcDbArc
 50
108.7580613258
 51
112.3492960158
  0
ARC
  5
239
330
1F
100
AcDbEntity
  8
0
  6
Continuous
 62
     7
370
    25
100
AcDbCircle
 10
6920.9482758767
 20
9178.0421758087
 30
0.0
 40
91.695870102541
100
AcDbArc
 50
112.3493305827
 51
118.057330713
  0
ARC
  5
23A
330
1F
100
AcDbEntity
  8
0
  6
Continuous
 62
     7
370
    25
100
AcDbCircle
 10
6904.3426029825
 20
9209.1977949994
 30
0.0
 40
56.39118232003659
100
AcDbArc
 50
118.0573962767
 51
128.3334923763
  0
ARC
  5
23B
330
1F
100
AcDbEntity
  8
0
  6
Continuous
 62
     7
370
    25
100
AcDbCircle
 10
6986.3329200641
 20
9105.5049808903
 30
0.0
 40
188.5827546422179
100
AcDbArc
 50
128.3335405779
 51
132.515210009
  0
ARC
  5
23C
330
1F
100
AcDbEntity
  8
0
  6
Continuous
 62
     7
370
    25
100
AcDbCircle
 10
7060.383937987
 20
9024.7355379683
 30
0.0
 40
298.1603808500854
100
AcDbArc
 50
132.5152106959
 51
135.1085361794
  0
ARC
  5
23D
330
1F
100
AcDbEntity
  8
0
  6
Continuous
 62
     7
370
    25
100
AcDbCircle
 10
6852.9679068004
 20
9231.3672322887
 30
0.0
 40
5.383901106680237
100
AcDbArc
 50
135.1085387832
 51
181.3192639764
  0
ARC
  5
23E
330
1F
100
AcDbEntity
  8
0
  6
Continuous
 62
     7
370
    25
100
AcDbCircle
 10
6848.6991450075
 20
9231.2689231192
 30
0.0
 40
1.114007438493042
100
AcDbArc
 50
181.3191909374
 51
237.0986206205
  0
ARC
  5
23F
330
1F
100
AcDbEntity
  8
0
  6
Continuous
 62
     7
370
    25
100
AcDbCircle
 10
7055.9424255156
 20
9541.5524096222
 30
0.0
 40
374.181493961371
100
AcDbArc
 50
237.5619917531
 51
239.0718282914
  0
ARC
  5
240
330
1F
100
AcDbEntity
  8
0
  6
Continuous
 62
     7
370
    25
100
AcDbCircle
 10
7224.0419322418
 20
9822.1134942247
 30
0.0
 40
701.2471851534101
100
AcDbArc
 50
239.0718460946
 51
240.0153876589
  0
ARC
  5
241
330
1F
100
AcDbEntity
  8
0
  6
Continuous
 62
     7
370
    25
100
AcDbCircle
 10
5651.2191695469
 20
9260.0327753515
 30
0.0
 40
1262.748704312991
100
AcDbArc
 50
359.0511268618
 51
359.7787808185
  0
ARC
  5
242
330
1F
100
AcDbEntity
  8
0
  6
Continuous
 62
     7
370
    25
100
AcDbCircle
 10
6775.2539730653
 20
9255.6929365122
 30
0.0
 40
138.7055228819108
100
AcDbArc
 50
359.7787458845
 51
3.4705665526
  0
ARC
  5
243
330
1F
100
AcDbEntity
  8
0
  6
Continuous
 62
     7
370
    25
100
AcDbCircle
 10
6843.2817177916
 20
8848.4866088347
 30
0.0
 40
458.9363726266964
100
AcDbArc
 50
75.0964209244
 51
75.736986069
  0
ARC
  5
244
330
1F
100
AcDbEntity
  8
0
  6
Continuous
 62
     7
370
    25
100
AcDbCircle
 10
6961.5155920992
 20
9276.4880315736
 30
0.0
 40
14.90697070798931
100
AcDbArc
 50
68.5087309555
 51
74.6301310959
  0
ARC
  5
245
330
1F
100
AcDbEntity
  8
0
  6
Continuous
 62
     7
370
    25
100
AcDbCircle
 10
6967.4701804521
 20
9291.611391804
 30
0.0
 40
1.346433461911927
100
AcDbArc
 50
248.5087184258
 51
295.7227979898
  0
ARC
  5
246
330
1F
100
AcDbEntity
  8
0
  6
Continuous
 62
     7
370
    25
100
AcDbCircle
 10
6965.3358753547
 20
9296.041679663
 30
0.0
 40
6.264025226370167
100
AcDbArc
 50
295.722633281
 51
310.8309206898
  0
ARC
  5
247
330
1F
100
AcDbEntity
  8
0
  6
Continuous
 62
     7
370
    25
100
AcDbCircle
 10
6962.9225577887
 20
9298.8344953345
 30
0.0
 40
9.955084837055745
100
AcDbArc
 50
310.8308874012
 51
322.9653243395
  0
ARC
  5
248
330
1F
100
AcDbEntity
  8
0
  6
Continuous
 62
     7
370
    25
100
AcDbCircle
 10
6958.3339324385
 20
9302.2966405118
 30
0.0
 40
15.70329602250699
100
AcDbArc
 50
322.9652894387
 51
331.5895023854
  0
ARC
  5
249
330
1F
100
AcDbEntity
  8
0
  6
Continuous
 62
     7
370
    25
100
AcDbCircle
 10
7083.4027439691
 20
9234.6425265088
 30
0.0
 40
126.4912424070711
100
AcDbArc
 50
147.8571098881
 51
151.5894853188
  0
ARC
  5
24A
330
1F
100
AcDbEntity
  8
0
  6
Continuous
 62
     7
370
    25
100
AcDbCircle
 10
6979.4859009322
 20
9299.9378895632
 30
0.0
 40
3.763109107581457
100
AcDbArc
 50
100.6480748121
 51
147.8571036411
  0
ARC
  5
24B
330
1F
100
AcDbEntity
  8
0
  6
Continuous
 62
     7
370
    25
100
AcDbCircle
 10
6979.6951735327
 20
9298.8248398755
 30
0.0
 40
4.895661370745297
100
AcDbArc
 50
62.0272086049
 51
100.6481234969
  0
ARC
  5
24C
330
1F
100
AcDbEntity
  8
0
  6
Continuous
 62
     7
370
    25
100
AcDbCircle
 10
6866.603478775
 20
9085.8858089866
 30
0.0
 40
246.0030281165229
100
AcDbArc
 50
59.7116870706
 51
62.0272745062
  0
ARC
  5
24D
330
1F
100
AcDbEntity
  8
0
  6
Continuous
 62
     7
370
    25
100
AcDbCircle
 10
7001.2454339374
 20
9288.2324747295
 30
0.0
 40
3.246002973090636
100
AcDbArc
 50
46.5950392343
 51
58.7349608113
  0
ARC
  5
24E
330
1F
100
AcDbEntity
  8
0
  6
Continuous
 62
     7
370
    25
100
AcDbCircle
 10
7003.1492515967
 20
9290.2453569323
 30
0.0
 40
0.4754044019731953
100
AcDbArc
 50
338.2423450654
 51
46.5949890974
  0
ARC
  5
24F
330
1F
100
AcDbEntity
  8
0
  6
Continuous
 62
     7
370
    25
100
AcDbCircle
 10
6940.1382684825
 20
9315.3938499862
 30
0.0
 40
68.31956919081968
100
AcDbArc
 50
336.2300170295
 51
338.2424222945
  0
ARC
  5
250
330
1F
100
AcDbEntity
  8
0
  6
Continuous
 62
     7
370
    25
100
AcDbCircle
 10
6957.5955681474
 20
9307.7052295195
 30
0.0
 40
49.24413482439859
100
AcDbArc
 50
332.807604224
 51
336.2299704949
  0
ARC
  5
251
330
1F
100
AcDbEntity
  8
0
  6
Continuous
 62
     7
370
    25
100
AcDbCircle
 10
6919.6283347473
 20
9327.2114246453
 30
0.0
 40
91.92905558501418
100
AcDbArc
 50
330.6627104362
 51
332.8075726052
  0
ARC
  5
252
330
1F
100
AcDbEntity
  8
0
  6
Continuous
 62
     7
370
    25
100
AcDbCircle
 10
7091.6086280083
 20
9136.0125724358
 30
0.0
 40
106.9416277994293
100
AcDbArc
 50
116.9191778094
 51
120.9736916603
  0
ARC
  5
253
330
1F
100
AcDbEntity
  8
0
  6
Continuous
 62
     7
370
    25
100
AcDbCircle
 10
7039.2512135529
 20
9223.2406427601
 30
0.0
 40
5.206505540975582
100
AcDbArc
 50
120.973695767
 51
157.4483133549
  0
ARC
  5
254
330
1F
100
AcDbEntity
  8
0
  6
Continuous
 62
     7
370
    25
100
AcDbCircle
 10
7039.105256048
 20
9223.3012542108
 30
0.0
 40
5.048463327608315
100
AcDbArc
 50
157.4483086969
 51
194.7605056921
  0
ARC
  5
255
330
1F
100
AcDbEntity
  8
0
  6
Continuous
 62
     7
370
    25
100
AcDbCircle
 10
7129.525971776
 20
9247.1248572359
 30
0.0
 40
98.55498659666847
100
AcDbArc
 50
194.7605538974
 51
199.0579212127
  0
ARC
  5
256
330
1F
100
AcDbEntity
  8
0
  6
Continuous
 62
     7
370
    25
100
AcDbCircle
 10
6960.2585394133
 20
9188.6499094665
 30
0.0
 40
80.52818730669962
100
AcDbArc
 50
15.9123695953
 51
19.0579395464
  0
ARC
  5
257
330
1F
100
AcDbEntity
  8
0
  6
Continuous
 62
     7
370
    25
100
AcDbCircle
 10
6951.9319427864
 20
9186.2760701963
 30
0.0
 40
89.18655460472937
100
AcDbArc
 50
12.9986937791
 51
15.9123709609
  0
ARC
  5
258
330
1F
100
AcDbEntity
  8
0
  6
Continuous
 62
     7
370
    25
100
AcDbCircle
 10
6962.0457358981
 20
9188.6106601601
 30
0.0
 40
78.80680887617903
100
AcDbArc
 50
10.0612706436
 51
12.9987789982
  0
ARC
  5
259
330
1F
100
AcDbEntity
  8
0
  6
Continuous
 62
     7
370
    25
100
AcDbCircle
 10
7023.4255549354
 20
9199.5012686928
 30
0.0
 40
16.46831724163503
100
AcDbArc
 50
0.6800939246
 51
10.0612747555
  0
ARC
  5
25A
330
1F
100
AcDbEntity
  8
0
  6
Continuous
 62
     7
370
    25
100
AcDbCircle
 10
7055.5801152094
 20
9199.882978829
 30
0.0
 40
15.68850861291167
100
AcDbArc
 50
180.6801724239
 51
191.9944512914
  0
ARC
  5
25B
330
1F
100
AcDbEntity
  8
0
  6
Continuous
 62
     7
370
    25
100
AcDbCircle
 10
7042.3130245697
 20
9197.0643151119
 30
0.0
 40
2.125302532082693
100
AcDbArc
 50
191.9944672048
 51
241.3464419655
  0
ARC
  5
25C
330
1F
100
AcDbEntity
  8
0
  6
Continuous
 62
     7
370
    25
100
AcDbCircle
 10
7043.7428082285
 20
9199.6808875353
 30
0.0
 40
5.107035678711271
100
AcDbArc
 50
241.3463681488
 51
267.686220832
  0
ARC
  5
25D
330
1F
100
AcDbEntity
  8
0
  6
Continuous
 62
     7
370
    25
100
AcDbCircle
 10
7049.4800428056
 20
9341.6720829675
 30
0.0
 40
147.2140919456136
100
AcDbArc
 50
267.686191312
 51
269.9999454618
  0
ARC
  5
25E
330
1F
100
AcDbEntity
  8
0
  6
Continuous
 62
     7
370
    25
100
AcDbCircle
 10
6842.4507419229
 20
9182.6092401778
 30
0.0
 40
197.9123113159894
100
AcDbArc
 50
346.7394399717
 51
347.5058254587
  0
ARC
  5
25F
330
1F
100
AcDbEntity
  8
0
  6
Continuous
 62
     7
370
    25
100
AcDbCircle
 10
7045.9971953264
 20
9134.6408206607
 30
0.0
 40
11.20996861640522
100
AcDbArc
 50
166.7394646423
 51
180.7400080309
  0
ARC
  5
260
330
1F
100
AcDbEntity
  8
0
  6
Continuous
 62
     7
370
    25
100
AcDbCircle
 10
7038.3511683649
 20
9134.5420688355
 30
0.0
 40
3.563303969637792
100
AcDbArc
 50
180.7401127525
 51
213.623135864
  0
ARC
  5
261
330
1F
100
AcDbEntity
  8
0
  6
Continuous
 62
     7
370
    25
100
AcDbCircle
 10
7040.4297137394
 20
9135.924267825
 30
0.0
 40
6.059466007784234
100
AcDbArc
 50
213.6231879602
 51
236.7539317242
  0
ARC
  5
262
330
1F
100
AcDbEntity
  8
0
  6
Continuous
 62
     7
370
    25
100
AcDbCircle
 10
7064.1203994662
 20
9172.0640069046
 30
0.0
 40
49.27207216557771
100
AcDbArc
 50
236.7539508446
 51
241.6959770037
  0
ARC
  5
263
330
1F
100
AcDbEntity
  8
0
  6
Continuous
 62
     7
370
    25
100
AcDbCircle
 10
7020.1231868822
 20
9090.3660973318
 30
0.0
 40
43.51964698938797
100
AcDbArc
 50
57.7136094652
 51
61.6959528602
  0
ARC
  5
264
330
1F
100
AcDbEntity
  8
0
  6
Continuous
 62
     7
370
    25
100
AcDbCircle
 10
7028.720963366
 20
9103.9736009456
 30
0.0
 40
27.42350102013209
100
AcDbArc
 50
52.0850749398
 51
57.713597147
  0
ARC
  5
265
330
1F
100
AcDbEntity
  8
0
  6
Continuous
 62
     7
370
    25
100
AcDbCircle
 10
7030.8075256753
 20
9106.6524617145
 30
0.0
 40
24.02791015994078
100
AcDbArc
 50
46.9435366473
 51
52.0850846316
  0
ARC
  5
266
330
1F
100
AcDbEntity
  8
0
  6
Continuous
 62
     7
370
    25
100
AcDbCircle
 10
7046.4305787699
 20
9123.3730697126
 30
0.0
 40
1.14432390635846
100
AcDbArc
 50
0.0000307399
 51
46.9435046531
  0
ARC
  5
267
330
1F
100
AcDbEntity
  8
0
  6
Continuous
 62
     7
370
    25
100
AcDbCircle
 10
7045.0232418115
 20
9123.3730676481
 30
0.0
 40
2.551660864805441
100
AcDbArc
 50
334.7957642792
 51
0.0000601444
  0
ARC
  5
268
330
1F
100
AcDbEntity
  8
0
  6
Continuous
 62
     7
370
    25
100
AcDbCircle
 10
6843.9631332701
 20
9218.0028352591
 30
0.0
 40
224.7676822601604
100
AcDbArc
 50
333.765385494
 51
334.7957858698
  0
ARC
  5
269
330
1F
100
AcDbEntity
  8
0
  6
Continuous
 62
     7
370
    25
100
AcDbCircle
 10
6904.5699428478
 20
9188.1349937753
 30
0.0
 40
157.2008758972571
100
AcDbArc
 50
332.008534948
 51
333.7654182953
  0
ARC
  5
26A
330
1F
100
AcDbEntity
  8
0
  6
Continuous
 62
     7
370
    25
100
AcDbCircle
 10
6818.4558312075
 20
9233.9063952382
 30
0.0
 40
254.723495916771
100
AcDbArc
 50
330.7846751332
 51
332.0085013361
  0
ARC
  5
26B
330
1F
100
AcDbEntity
  8
0
  6
Continuous
 62
     7
370
    25
100
AcDbCircle
 10
6919.0398071316
 20
9030.6885686659
 30
0.0
 40
92.7047115240834
100
AcDbArc
 50
27.2561804434
 51
29.3373351561
  0
ARC
  5
26C
330
1F
100
AcDbEntity
  8
0
  6
Continuous
 62
     7
370
    25
100
AcDbCircle
 10
6958.0647150581
 20
9050.7930393767
 30
0.0
 40
48.80558646179758
100
AcDbArc
 50
23.8922472964
 51
27.2561847348
  0
ARC
  5
26D
330
1F
100
AcDbEntity
  8
0
  6
Continuous
 62
     7
370
    25
100
AcDbCircle
 10
6939.1276106224
 20
9042.4042639586
 30
0.0
 40
69.51755105767411
100
AcDbArc
 50
21.9667497377
 51
23.8923009559
  0
ARC
  5
26E
330
1F
100
AcDbEntity
  8
0
  6
Continuous
 62
     7
370
    25
100
AcDbCircle
 10
7003.2171299536
 20
9068.2548561402
 30
0.0
 40
0.4109695749313871
100
AcDbArc
 50
309.0295605097
 51
21.9668092038
  0
ARC
  5
26F
330
1F
100
AcDbEntity
  8
0
  6
Continuous
 62
     7
370
    25
100
AcDbCircle
 10
7000.667366628
 20
9071.4002230703
 30
0.0
 40
4.459997376941366
100
AcDbArc
 50
300.6956276891
 51
309.0296339548
  0
ARC
  5
270
330
1F
100
AcDbEntity
  8
0
  6
Continuous
 62
     7
370
    25
100
AcDbCircle
 10
6867.0359464876
 20
9273.7077678721
 30
0.0
 40
246.5778232457144
100
AcDbArc
 50
297.7674583202
 51
300.0757126263
  0
ARC
  5
271
330
1F
100
AcDbEntity
  8
0
  6
Continuous
 62
     7
370
    25
100
AcDbCircle
 10
6979.5770009832
 20
9059.9605033124
 30
0.0
 40
5.013376247157307
100
AcDbArc
 50
259.8279455646
 51
297.7673904075
  0
ARC
  5
272
330
1F
100
AcDbEntity
  8
0
  6
Continuous
 62
     7
370
    25
100
AcDbCircle
 10
6979.3510131256
 20
9058.7009809498
 30
0.0
 40
3.733740715569466
100
AcDbArc
 50
212.3446830888
 51
259.8279179206
  0
ARC
  5
273
330
1F
100
AcDbEntity
  8
0
  6
Continuous
 62
     7
370
    25
100
AcDbCircle
 10
7075.0321992592
 20
9119.2925911553
 30
0.0
 40
116.9866992077173
100
AcDbArc
 50
208.4040320464
 51
212.3446765647
  0
ARC
  5
274
330
1F
100
AcDbEntity
  8
0
  6
Continuous
 62
     7
370
    25
100
AcDbCircle
 10
6952.3643399333
 20
9052.9551577542
 30
0.0
 40
22.46959782413646
100
AcDbArc
 50
28.4040605099
 51
35.7631212731
  0
ARC
  5
275
330
1F
100
AcDbEntity
  8
0
  6
Continuous
 62
     7
370
    25
100
AcDbCircle
 10
6965.9721004449
 20
9062.7560751011
 30
0.0
 40
5.699710317656016
100
AcDbArc
 50
35.763126028
 51
56.1659403732
  0
ARC
  5
276
330
1F
100
AcDbEntity
  8
0
  6
Continuous
 62
     7
370
    25
100
AcDbCircle
 10
6967.4296799536
 20
9064.9305887022
 30
0.0
 40
3.081877736022359
100
AcDbArc
 50
56.1658915699
 51
85.9316835938
  0
ARC
  5
277
330
1F
100
AcDbEntity
  8
0
  6
Continuous
 62
     7
370
    25
100
AcDbCircle
 10
6967.3863026527
 20
9064.3206466076
 30
0.0
 40
3.693360318708409
100
AcDbArc
 50
85.931759182
 51
111.9223454327
  0
ARC
  5
278
330
1F
100
AcDbEntity
  8
0
  6
Continuous
 62
     7
370
    25
100
AcDbCircle
 10
6958.2012099324
 20
9087.1434702836
 30
0.0
 40
20.90841215455898
100
AcDbArc
 50
286.265282793
 51
291.9224355932
  0
ARC
  5
279
330
1F
100
AcDbEntity
  8
0
  6
Continuous
 62
     7
370
    25
100
AcDbCircle
 10
6878.838466742
 20
9359.1535383371
 30
0.0
 40
304.2596467189589
100
AcDbArc
 50
285.4652645087
 51
286.2653395102
  0
ARC
  5
27A
330
1F
100
AcDbEntity
  8
0
  6
Continuous
 62
     7
370
    25
100
AcDbCircle
 10
6875.5343324625
 20
9371.0955480386
 30
0.0
 40
316.6503246275626
100
AcDbArc
 50
284.554745224
 51
285.465284949
  0
ARC
  5
27B
330
1F
100
AcDbEntity
  8
0
  6
Continuous
 62
     7
370
    25
100
AcDbCircle
 10
6856.1156137738
 20
9445.8845530487
 30
0.0
 40
393.9192181458417
100
AcDbArc
 50
283.7818132837
 51
284.554845016
  0
ARC
  5
27C
330
1F
100
AcDbEntity
  8
0
  6
Continuous
 62
     7
370
    25
100
AcDbCircle
 10
6974.9563689692
 20
9375.2602775117
 30
0.0
 40
322.2167093911574
100
AcDbArc
 50
254.7492270327
 51
255.6643503461
  0
ARC
  5
27D
330
1F
100
AcDbEntity
  8
0
  6
Continuous
 62
     7
370
    25
100
AcDbCircle
 10
6959.596069745
 20
9318.9218033103
 30
0.0
 40
263.8218254750773
100
AcDbArc
 50
253.6860230781
 51
254.7491959541
  0
ARC
  5
27E
330
1F
100
AcDbEntity
  8
0
  6
Continuous
 62
     7
370
    25
100
AcDbCircle
 10
6955.6854673177
 20
9305.5599831735
 30
0.0
 40
249.8995035181833
100
AcDbArc
 50
252.7364775381
 51
253.685977811
  0
ARC
  5
27F
330
1F
100
AcDbEntity
  8
0
  6
Continuous
 62
     7
370
    25
100
AcDbCircle
 10
6887.10245926
 20
9084.8704931582
 30
0.0
 40
18.79891936172487
100
AcDbArc
 50
246.436871058
 51
252.7364446373
  0
ARC
  5
280
330
1F
100
AcDbEntity
  8
0
  6
Continuous
 62
     7
370
    25
100
AcDbCircle
 10
6878.0208502792
 20
9064.0469949443
 30
0.0
 40
3.918776374098137
100
AcDbArc
 50
66.436871767
 51
91.35198595
  0
ARC
  5
281
330
1F
100
AcDbEntity
  8
0
  6
Continuous
 62
     7
370
    25
100
AcDbCircle
 10
6877.9952019417
 20
9065.1337458689
 30
0.0
 40
2.831722829228802
100
AcDbArc
 50
91.3519870975
 51
123.1315205519
  0
ARC
  5
282
330
1F
100
AcDbEntity
  8
0
  6
Continuous
 62
     7
370
    25
100
AcDbCircle
 10
6879.3675992523
 20
9063.0310143371
 30
0.0
 40
5.342689629683699
100
AcDbArc
 50
123.1314746943
 51
144.534100713
  0
ARC
  5
283
330
1F
100
AcDbEntity
  8
0
  6
Continuous
 62
     7
370
    25
100
AcDbCircle
 10
6894.395901954
 20
9052.3249125785
 30
0.0
 40
23.79453227365471
100
AcDbArc
 50
144.5340868388
 51
151.5959622628
  0
ARC
  5
284
330
1F
100
AcDbEntity
  8
0
  6
Continuous
 62
     7
370
    25
100
AcDbCircle
 10
6761.0414072415
 20
9124.4417436107
 30
0.0
 40
127.8110697935326
100
AcDbArc
 50
327.8887197202
 51
331.5958916568
  0
ARC
  5
285
330
1F
100
AcDbEntity
  8
0
  6
Continuous
 62
     7
370
    25
100
AcDbCircle
 10
6866.1047728674
 20
9058.5067965863
 30
0.0
 40
3.771850045273635
100
AcDbArc
 50
280.736715134
 51
327.8886462029
  0
ARC
  5
286
330
1F
100
AcDbEntity
  8
0
  6
Continuous
 62
     7
370
    25
100
AcDbCircle
 10
6865.8974333514
 20
9059.6002710942
 30
0.0
 40
4.884808343782812
100
AcDbArc
 50
242.0304925867
 51
280.7367100567
  0
ARC
  5
287
330
1F
100
AcDbEntity
  8
0
  6
Continuous
 62
     7
370
    25
100
AcDbCircle
 10
6978.862211835
 20
9272.3296946202
 30
0.0
 40
245.7475261138499
100
AcDbArc
 50
239.7117550916
 51
242.0305507564
  0
ARC
  5
288
330
1F
100
AcDbEntity
  8
0
  6
Continuous
 62
     7
370
    25
100
AcDbCircle
 10
6844.225872446
 20
9069.9629275053
 30
0.0
 40
2.98870482493113
100
AcDbArc
 50
226.7551383654
 51
238.8420384324
  0
ARC
  5
289
330
1F
100
AcDbEntity
  8
0
  6
Continuous
 62
     7
370
    25
100
AcDbCircle
 10
6842.4860901125
 20
9068.1131535917
 30
0.0
 40
0.4493139334937755
100
AcDbArc
 50
159.9223435167
 51
226.7552735536
  0
ARC
  5
28A
330
1F
100
AcDbEntity
  8
0
  6
Continuous
 62
     7
370
    25
100
AcDbCircle
 10
6913.0522816753
 20
9042.3205720454
 30
0.0
 40
75.58149515091824
100
AcDbArc
 50
158.1536145376
 51
159.9221855532
  0
ARC
  5
28B
330
1F
100
AcDbEntity
  8
0
  6
Continuous
 62
     7
370
    25
100
AcDbCircle
 10
6890.3655983697
 20
9051.4158802573
 30
0.0
 40
51.13951833075445
100
AcDbArc
 50
154.9704349844
 51
158.1535838175
  0
ARC
  5
28C
330
1F
100
AcDbEntity
  8
0
  6
Continuous
 62
     7
370
    25
100
AcDbCircle
 10
6930.2777130485
 20
9032.7794019545
 30
0.0
 40
95.18830062561945
100
AcDbArc
 50
152.971051607
 51
154.9703944103
  0
ARC
  5
28D
330
1F
100
AcDbEntity
  8
0
  6
Continuous
 62
     7
370
    25
100
AcDbCircle
 10
6729.7511096042
 20
9259.0611243268
 30
0.0
 40
150.4788012798164
100
AcDbArc
 50
298.4550861037
 51
301.4455269128
  0
ARC
  5
28E
330
1F
100
AcDbEntity
  8
0
  6
Continuous
 62
     7
370
    25
100
AcDbCircle
 10
6805.5824536226
 20
9135.0511292367
 30
0.0
 40
5.121064582106398
100
AcDbArc
 50
301.4455066722
 51
335.9374142074
  0
ARC
  5
28F
330
1F
100
AcDbEntity
  8
0
  6
Continuous
 62
     7
370
    25
100
AcDbCircle
 10
6805.8511374188
 20
9134.9311476831
 30
0.0
 40
4.826808646636708
100
AcDbArc
 50
335.9374573435
 51
12.0075578903
  0
ARC
  5
290
330
1F
100
AcDbEntity
  8
0
  6
Continuous
 62
     7
370
    25
100
AcDbCircle
 10
6685.5577555722
 20
9109.3454438206
 30
0.0
 40
127.8110595011637
100
AcDbArc
 50
12.0075451461
 51
15.3685037923
  0
ARC
  5
291
330
1F
100
AcDbEntity
  8
0
  6
Continuous
 62
     7
370
    25
100
AcDbCircle
 10
6905.2260470669
 20
9180.7062977074
 30
0.0
 40
102.7802980567245
100
AcDbArc
 50
192.4002599394
 51
193.9208676135
  0
ARC
  5
292
330
1F
100
AcDbEntity
  8
0
  6
Continuous
 62
     7
370
    25
100
AcDbCircle
 10
6792.2818070821
 20
9155.8733632088
 30
0.0
 40
12.8617184492913
100
AcDbArc
 50
12.400240985
 51
25.7816839587
  0
ARC
  5
293
330
1F
100
AcDbEntity
  8
0
  6
Continuous
 62
     7
370
    25
100
AcDbCircle
 10
6800.6685497419
 20
9159.9243673557
 30
0.0
 40
3.547853137803723
100
AcDbArc
 50
25.7816636043
 51
60.6603734845
  0
ARC
  5
294
330
1F
100
AcDbEntity
  8
0
  6
Continuous
 62
     7
370
    25
100
AcDbCircle
 10
6798.9998341425
 20
9156.95555417
 30
0.0
 40
6.953504835116692
100
AcDbArc
 50
60.6604136146
 51
82.7616749717
  0
ARC
  5
295
330
1F
100
AcDbEntity
  8
0
  6
Continuous
 62
     7
370
    25
100
AcDbCircle
 10
6789.297467221
 20
9080.5638530123
 30
0.0
 40
83.95888081393782
100
AcDbArc
 50
82.7617205551
 51
86.3270638517
  0
ARC
  5
296
330
1F
100
AcDbEntity
  8
0
  6
Continuous
 62
     7
370
    25
100
AcDbCircle
 10
6794.0935471417
 20
9311.0019227056
 30
0.0
 40
116.5439316833686
100
AcDbArc
 50
269.9999653674
 51
272.8341284894
  0
ARC
  5
297
330
1F
100
AcDbEntity
  8
0
  6
Continuous
 62
     7
370
    25
100
AcDbCircle
 10
6799.5350855888
 20
9201.0835523015
 30
0.0
 40
6.490951292281654
100
AcDbArc
 50
272.8341165115
 51
296.0517430439
  0
ARC
  5
298
330
1F
100
AcDbEntity
  8
0
  6
Continuous
 62
     7
370
    25
100
AcDbCircle
 10
6801.0502604589
 20
9197.9840836003
 30
0.0
 40
3.040956927536281
100
AcDbArc
 50
296.051802195
 51
335.4275898077
  0
ARC
  5
299
330
1F
100
AcDbEntity
  8
0
  6
Continuous
 62
     7
370
    25
100
AcDbCircle
 10
6790.4025354742
 20
9202.8527944094
 30
0.0
 40
14.74900511211275
100
AcDbArc
 50
335.427581685
 51
347.6440632921
  0
ARC
  5
29A
330
1F
100
AcDbEntity
  8
0
  6
Continuous
 62
     7
370
    25
100
AcDbCircle
 10
6866.181700173
 20
9186.2527470523
 30
0.0
 40
62.82704386374664
100
AcDbArc
 50
165.2134362707
 51
167.6440613163
  0
ARC
  5
29B
330
1F
100
AcDbEntity
  8
0
  6
Continuous
 62
     7
370
    25
100
AcDbCircle
 10
7028.4493035402
 20
9143.4206001001
 30
0.0
 40
230.6524528906369
100
AcDbArc
 50
164.2898564819
 51
165.2134594254
  0
ARC
  5
29C
330
1F
100
AcDbEntity
  8
0
  6
Continuous
 62
     7
370
    25
100
AcDbCircle
 10
7050.3281111099
 20
9137.2667574644
 30
0.0
 40
253.3802332447758
100
AcDbArc
 50
163.3756917565
 51
164.2898983711
  0
ARC
  5
29D
330
1F
100
AcDbEntity
  8
0
  6
Continuous
 62
     7
370
    25
100
AcDbCircle
 10
6993.5931832149
 20
9154.206410344
 30
0.0
 40
194.1704039684734
100
AcDbArc
 50
162.2595854277
 51
163.3756984069
  0
ARC
  5
29E
330
1F
100
AcDbEntity
  8
0
  6
Continuous
 62
     7
370
    25
100
AcDbCircle
 10
6680.8794683778
 20
9254.2490513995
 30
0.0
 40
134.1562587876712
100
AcDbArc
 50
342.2596401748
 51
345.6751325095
  0
ARC
  5
29F
330
1F
100
AcDbEntity
  8
0
  6
Continuous
 62
     7
370
    25
100
AcDbCircle
 10
6804.5227931895
 20
9222.6756063303
 30
0.0
 40
6.545310182043243
100
AcDbArc
 50
345.6751339033
 51
16.3607226867
  0
ARC
  5
2A0
330
1F
100
AcDbEntity
  8
0
  6
Continuous
 62
     7
370
    25
100
AcDbCircle
 10
6806.1594888977
 20
9223.1560898383
 30
0.0
 40
4.839544300481339
100
AcDbArc
 50
16.3607602519
 51
54.5659213618
  0
ARC
  5
2A1
330
1F
100
AcDbEntity
  8
0
  6
Continuous
 62
     7
370
    25
100
AcDbCircle
 10
6774.5454174625
 20
9178.7266730761
 30
0.0
 40
59.36864283083609
100
AcDbArc
 50
54.5659689627
 51
60.6626348884
  0
ARC
  5
2A2
330
1F
100
AcDbEntity
  8
0
  6
Continuous
 62
     7
370
    25
100
AcDbCircle
 10
6862.591169056
 20
9335.3831398934
 30
0.0
 40
120.3347321216873
100
AcDbArc
 50
238.0934295769
 51
240.6626938293
  0
ARC
  5
2A3
330
1F
100
AcDbEntity
  8
0
  6
Continuous
 62
     7
370
    25
100
AcDbCircle
 10
6801.455649077
 20
9237.1899228301
 30
0.0
 40
4.665117787003765
100
AcDbArc
 50
211.0109037821
 51
238.0934417599
  0
ARC
  5
2A4
330
1F
100
AcDbEntity
  8
0
  6
Continuous
 62
     7
370
    25
100
AcDbCircle
 10
6799.0828670426
 20
9235.7635988068
 30
0.0
 40
1.896635386422656
100
AcDbArc
 50
159.7147284346
 51
211.010953309
  0
ARC
  5
2A5
330
1F
100
AcDbEntity
  8
0
  6
Continuous
 62
     7
370
    25
100
AcDbCircle
 10
6809.3880381576
 20
9231.9546224637
 30
0.0
 40
12.88321139950809
100
AcDbArc
 50
147.2277272054
 51
159.7147741768
  0
ARC
  5
2A6
330
1F
100
AcDbEntity
  8
0
  6
Continuous
 62
     7
370
    25
100
AcDbCircle
 10
6708.9849491146
 20
9296.5910875956
 30
0.0
 40
106.5263900323837
100
AcDbArc
 50
327.2278012712
 51
328.6072377815
  0
ARC
  5
2A7
330
1F
100
AcDbEntity
  8
0
  6
Continuous
 62
     7
370
    25
100
AcDbCircle
 10
7014.7637362155
 20
9368.3026065909
 30
0.0
 40
189.8265962776769
100
AcDbArc
 50
206.0358884954
 51
207.0289327088
  0
ARC
  5
2A8
330
1F
100
AcDbEntity
  8
0
  6
Continuous
 62
     7
370
    25
100
AcDbCircle
 10
6947.1803484884
 20
9335.2874715666
 30
0.0
 40
114.6101523486637
100
AcDbArc
 50
204.5867398792
 51
206.0358454455
  0
ARC
  5
2A9
330
1F
100
AcDbEntity
  8
0
  6
Continuous
 62
     7
370
    25
100
AcDbCircle
 10
7009.2567969382
 20
9363.6907827604
 30
0.0
 40
182.8760555427803
100
AcDbArc
 50
203.8205465324
 51
204.5867029028
  0
ARC
  5
2AA
330
1F
100
AcDbEntity
  8
0
  6
Continuous
 62
     7
370
    25
100
AcDbCircle
 10
6843.2923636692
 20
9290.4206432887
 30
0.0
 40
1.457460992689866
100
AcDbArc
 50
179.9999759051
 51
203.8206047767
  0
ARC
  5
2AB
330
1F
100
AcDbEntity
  8
0
  6
Continuous
 62
     7
370
    25
100
AcDbCircle
 10
6842.4321303287
 20
9290.4206434348
 30
0.0
 40
0.5972276522120399
100
AcDbArc
 50
122.7499890296
 51
179.9999552178
  0
ARC
  5
2AC
330
1F
100
AcDbEntity
  8
0
  6
Continuous
 62
     7
370
    25
100
AcDbCircle
 10
7041.9794610438
 20
8980.1914279044
 30
0.0
 40
369.4621126225148
100
AcDbArc
 50
122.1199037116
 51
122.7501557109
  0
ARC
  5
2AD
330
1F
100
AcDbEntity
  8
0
  6
Continuous
 62
     7
370
    25
100
AcDbCircle
 10
6926.8179454584
 20
9163.6333450459
 30
0.0
 40
152.8677645051056
100
AcDbArc
 50
120.3351259523
 51
122.1199680031
  0
ARC
  5
2AE
330
1F
100
AcDbEntity
  8
0
  6
Continuous
 62
     7
370
    25
100
AcDbCircle
 10
6993.5329557572
 20
9049.624752603
 30
0.0
 40
284.9618663793755
100
AcDbArc
 50
119.2153414587
 51
120.3351212757
  0
ARC
  5
2AF
330
1F
100
AcDbEntity
  8
0
  6
Continuous
 62
     7
370
    25
100
AcDbCircle
 10
6983.3895417334
 20
9067.7626064951
 30
0.0
 40
264.180369997913
100
AcDbArc
 50
116.9948300438
 51
119.2153157819
  0
ARC
  5
2B0
330
1F
100
AcDbEntity
  8
0
  6
Continuous
 62
     7
370
    25
100
AcDbCircle
 10
6865.8220663656
 20
9298.5532511831
 30
0.0
 40
5.169881909366851
100
AcDbArc
 50
79.5302445706
 51
116.9948444682
  0
ARC
  5
2B1
330
1F
100
AcDbEntity
  8
0
  6
Continuous
 62
     7
370
    25
100
AcDbCircle
 10
6866.0683112722
 20
9299.885795711
 30
0.0
 40
3.814776203921349
100
AcDbArc
 50
32.2821273067
 51
79.5302427168
  0
ARC
  5
2B2
330
1F
100
AcDbEntity
  8
0
  6
Continuous
 62
     7
370
    25
100
AcDbCircle
 10
6766.3703125204
 20
9236.9027653718
 30
0.0
 40
121.7408253441669
100
AcDbArc
 50
28.4104832796
 51
32.2821637161
  0
ARC
  5
2B3
330
1F
100
AcDbEntity
  8
0
  6
Continuous
 62
     7
370
    25
100
AcDbCircle
 10
6887.2608729467
 20
9302.2966405406
 30
0.0
 40
15.70329606444371
100
AcDbArc
 50
208.4104976512
 51
217.0347105774
  0
ARC
  5
2B4
330
1F
100
AcDbEntity
  8
0
  6
Continuous
 62
     7
370
    25
100
AcDbCircle
 10
6882.6722476214
 20
9298.8344953844
 30
0.0
 40
9.955084911479698
100
AcDbArc
 50
217.0346756969
 51
229.1691125382
  0
ARC
  5
2B5
330
1F
100
AcDbEntity
  8
0
  6
Continuous
 62
     7
370
    25
100
AcDbCircle
 10
6880.2589300135
 20
9296.0416796814
 30
0.0
 40
6.264025249627013
100
AcDbArc
 50
229.1690793155
 51
244.2773666731
  0
ARC
  5
2B6
330
1F
100
AcDbEntity
  8
0
  6
Continuous
 62
     7
370
    25
100
AcDbCircle
 10
6878.1246249015
 20
9291.6113917991
 30
0.0
 40
1.346433457780208
100
AcDbArc
 50
244.2772019277
 51
291.4912816578
  0
ARC
  5
2B7
330
1F
100
AcDbEntity
  8
0
  6
Continuous
 62
     7
370
    25
100
AcDbCircle
 10
6884.0792132973
 20
9276.4880314553
 30
0.0
 40
14.90697083342672
100
AcDbArc
 50
105.369868942
 51
111.4912690308
  0
ARC
  5
2B8
330
1F
100
AcDbEntity
  8
0
  6
Continuous
 62
     7
370
    25
100
AcDbCircle
 10
7002.313092396
 20
8848.4865900469
 30
0.0
 40
458.9363920259141
100
AcDbArc
 50
104.263013938
 51
104.9035790556
  0
MTEXT
  5
2BA
330
1F
100
AcDbEntity
  8
0
  6
Continuous
 62
     7
100
AcDbMText
 10
6784.5246369315
 20
9041.0384246299
 30
0.0
 40
4.83362
 41
0.0
 71
     1
 72
     1
  1
SOLIDWORKS Educational Product.
  7
SLDTEXTSTYLE0
 73
     1
 44
1.0
  0
MTEXT
  5
2BB
330
1F
100
AcDbEntity
  8
0
  6
Continuous
 62
     7
100
AcDbMText
 10
6784.5246369315
 20
9033.7879946299
 30
0.0
 40
4.83362
 41
0.0
 71
     1
 72
     1
  1
For Instructional Use Only.
  7
SLDTEXTSTYLE0
 73
     1
 44
1.0
  0
ENDSEC
  0
SECTION
  2
OBJECTS
  0
DICTIONARY
  5
C
330
0
100
AcDbDictionary
281
     1
  3
ACAD_GROUP
350
D
  3
ACAD_LAYOUT
350
1A
  3
ACAD_MLINESTYLE
350
17
  3
ACAD_PLOTSETTINGS
350
19
  3
ACAD_PLOTSTYLENAME
350
E
  3
ACAD_SCALELIST
350
47
  3
DWGPROPS
350
2BC
  0
DICTIONARY
  5
D
102
{ACAD_REACTORS
330
C
102
}
330
C
100
AcDbDictionary
281
     1
  0
DICTIONARY
  5
1A
102
{ACAD_REACTORS
330
C
102
}
330
C
100
AcDbDictionary
281
     1
  3
Layout1
350
1E
  3
Layout2
350
26
  3
Model
350
22
  0
DICTIONARY
  5
17
102
{ACAD_REACTORS
330
C
102
}
330
C
100
AcDbDictionary
281
     1
  3
Standard
350
18
  0
DICTIONARY
  5
19
102
{ACAD_REACTORS
330
C
102
}
330
C
100
AcDbDictionary
281
     1
  0
ACDBDICTIONARYWDFLT
  5
E
102
{ACAD_REACTORS
330
C
102
}
330
C
100
AcDbDictionary
281
     1
  3
Normal
350
F
100
AcDbDictionaryWithDefault
340
F
  0
DICTIONARY
  5
47
102
{ACAD_REACTORS
330
C
102
}
330
C
100
AcDbDictionary
281
     1
  3
A0
350
48
  3
A1
350
49
  3
A2
350
4A
  3
A3
350
4B
  3
A4
350
4C
  3
A5
350
4D
  3
A6
350
4E
  3
A7
350
4F
  3
A8
350
50
  3
A9
350
51
  3
B0
350
52
  3
B1
350
53
  3
B2
350
54
  3
B3
350
55
  3
B4
350
56
  3
B5
350
57
  3
B6
350
58
  0
XRECORD
  5
2BC
102
{ACAD_REACTORS
330
C
102
}
330
C
100
AcDbXrecord
280
     1
  1
DWGPROPS COOKIE
  2

  3

  4

  6

  7

  8
anast
  9

300
=
301
=
302
=
303
=
304
=
305
=
306
=
307
=
308
=
309
=
 40
0.0
 41
2460804.592962315
 42
2460804.592991875
  1

 90
        0
  0
LAYOUT
  5
1E
102
{ACAD_REACTORS
330
1A
102
}
330
1A
100
AcDbPlotSettings
  1

  2
none_device
  4

  6

 40
0.0
 41
0.0
 42
0.0
 43
0.0
 44
0.0
 45
0.0
 46
0.0
 47
0.0
 48
0.0
 49
0.0
140
0.0
141
0.0
142
1.0
143
1.0
 70
   688
 72
     1
 73
     0
 74
     5
  7

 75
    16
147
1.0
148
0.0
149
0.0
100
AcDbLayout
  1
Layout1
 70
     1
 71
     1
 10
0.0
 20
0.0
 11
420.0
 21
297.0
 12
0.0
 22
0.0
 32
0.0
 14
1.0000000000E+20
 24
1.0000000000E+20
 34
1.0000000000E+20
 15
-1.0000000000E+20
 25
-1.0000000000E+20
 35
-1.0000000000E+20
146
0.0
 13
0.0
 23
0.0
 33
0.0
 16
1.0
 26
0.0
 36
0.0
 17
0.0
 27
1.0
 37
0.0
 76
     0
330
1B
  0
LAYOUT
  5
26
102
{ACAD_REACTORS
330
1A
102
}
330
1A
100
AcDbPlotSettings
  1

  2
none_device
  4

  6

 40
0.0
 41
0.0
 42
0.0
 43
0.0
 44
0.0
 45
0.0
 46
0.0
 47
0.0
 48
0.0
 49
0.0
140
0.0
141
0.0
142
1.0
143
1.0
 70
   688
 72
     1
 73
     0
 74
     5
  7

 75
    16
147
1.0
148
0.0
149
0.0
100
AcDbLayout
  1
Layout2
 70
     1
 71
     2
 10
0.0
 20
0.0
 11
0.0
 21
0.0
 12
0.0
 22
0.0
 32
0.0
 14
0.0
 24
0.0
 34
0.0
 15
0.0
 25
0.0
 35
0.0
146
0.0
 13
0.0
 23
0.0
 33
0.0
 16
1.0
 26
0.0
 36
0.0
 17
0.0
 27
1.0
 37
0.0
 76
     0
330
23
  0
LAYOUT
  5
22
102
{ACAD_REACTORS
330
1A
102
}
330
1A
100
AcDbPlotSettings
  1

  2
none_device
  4
ANSI_A_(11.00_x_8.50_Inches)
  6

 40
6.35
 41
19.05
 42
6.35000508
 43
19.05000254
 44
279.4
 45
215.9
 46
-5259.8583856837
 47
-7063.2406859471
 48
0.0
 49
0.0
140
0.0
141
0.0
142
0.030675853
143
1.0
 70
  1696
 72
     0
 73
     0
 74
     0
  7

 75
     0
147
0.0179189148
148
-1300.4909072572
149
0.0
100
AcDbLayout
  1
Model
 70
     1
 71
     0
 10
0.0
 20
0.0
 11
420.0
 21
297.0
 12
0.0
 22
0.0
 32
0.0
 14
6784.5246369315
 24
9042.0579910216
 34
0.0
 15
7059.0049026768
 25
9316.3779910213
 35
0.0
146
0.0
 13
0.0
 23
0.0
 33
0.0
 16
1.0
 26
0.0
 36
0.0
 17
0.0
 27
1.0
 37
0.0
 76
     0
330
1F
331
29
  0
MLINESTYLE
  5
18
102
{ACAD_REACTORS
330
17
102
}
330
17
100
AcDbMlineStyle
  2
Standard
 70
     0
  3

 62
   256
 51
90.0
 52
90.0
 71
     2
 49
0.5
 62
   256
  6
BYLAYER
 49
-0.5
 62
   256
  6
BYLAYER
  0
ACDBPLACEHOLDER
  5
F
102
{ACAD_REACTORS
330
E
102
}
330
E
  0
SCALE
  5
48
102
{ACAD_REACTORS
330
47
102
}
330
47
100
AcDbScale
 70
     0
300
1:1
140
1.0
141
1.0
290
     1
  0
SCALE
  5
49
102
{ACAD_REACTORS
330
47
102
}
330
47
100
AcDbScale
 70
     0
300
1:2
140
1.0
141
2.0
290
     0
  0
SCALE
  5
4A
102
{ACAD_REACTORS
330
47
102
}
330
47
100
AcDbScale
 70
     0
300
1:4
140
1.0
141
4.0
290
     0
  0
SCALE
  5
4B
102
{ACAD_REACTORS
330
47
102
}
330
47
100
AcDbScale
 70
     0
300
1:5
140
1.0
141
5.0
290
     0
  0
SCALE
  5
4C
102
{ACAD_REACTORS
330
47
102
}
330
47
100
AcDbScale
 70
     0
300
1:8
140
1.0
141
8.0
290
     0
  0
SCALE
  5
4D
102
{ACAD_REACTORS
330
47
102
}
330
47
100
AcDbScale
 70
     0
300
1:10
140
1.0
141
10.0
290
     0
  0
SCALE
  5
4E
102
{ACAD_REACTORS
330
47
102
}
330
47
100
AcDbScale
 70
     0
300
1:16
140
1.0
141
16.0
290
     0
  0
SCALE
  5
4F
102
{ACAD_REACTORS
330
47
102
}
330
47
100
AcDbScale
 70
     0
300
1:20
140
1.0
141
20.0
290
     0
  0
SCALE
  5
50
102
{ACAD_REACTORS
330
47
102
}
330
47
100
AcDbScale
 70
     0
300
1:30
140
1.0
141
30.0
290
     0
  0
SCALE
  5
51
102
{ACAD_REACTORS
330
47
102
}
330
47
100
AcDbScale
 70
     0
300
1:40
140
1.0
141
40.0
290
     0
  0
SCALE
  5
52
102
{ACAD_REACTORS
330
47
102
}
330
47
100
AcDbScale
 70
     0
300
1:50
140
1.0
141
50.0
290
     0
  0
SCALE
  5
53
102
{ACAD_REACTORS
330
47
102
}
330
47
100
AcDbScale
 70
     0
300
1:100
140
1.0
141
100.0
290
     0
  0
SCALE
  5
54
102
{ACAD_REACTORS
330
47
102
}
330
47
100
AcDbScale
 70
     0
300
2:1
140
2.0
141
1.0
290
     0
  0
SCALE
  5
55
102
{ACAD_REACTORS
330
47
102
}
330
47
100
AcDbScale
 70
     0
300
4:1
140
4.0
141
1.0
290
     0
  0
SCALE
  5
56
102
{ACAD_REACTORS
330
47
102
}
330
47
100
AcDbScale
 70
     0
300
8:1
140
8.0
141
1.0
290
     0
  0
SCALE
  5
57
102
{ACAD_REACTORS
330
47
102
}
330
47
100
AcDbScale
 70
     0
300
10:1
140
10.0
141
1.0
290
     0
  0
SCALE
  5
58
102
{ACAD_REACTORS
330
47
102
}
330
47
100
AcDbScale
 70
     0
300
100:1
140
100.0
141
1.0
290
     0
  0
ENDSEC
  0
EOF
