  0
SECTION
  2
HEADER
  9
$ACADVER
  1
AC1015
  9
$ACADMAINTVER
 70
     6
  9
$DWGCODEPAGE
  3
ANSI_1252
  9
$INSBASE
 10
0.0
 20
0.0
 30
0.0
  9
$EXTMIN
 10
2434.3175162663
 20
3056.1335884485
 30
0.0
  9
$EXTMAX
 10
2814.0501870013
 20
3436.0231300308
 30
0.0
  9
$LIMMIN
 10
0.0
 20
0.0
  9
$LIMMAX
 10
420.0
 20
297.0
  9
$ORTHOMODE
 70
     0
  9
$REGENMODE
 70
     1
  9
$FILLMODE
 70
     1
  9
$QTEXTMODE
 70
     0
  9
$MIRRTEXT
 70
     1
  9
$LTSCALE
 40
1.0
  9
$ATTMODE
 70
     1
  9
$TEXTSIZE
 40
3.5
  9
$TRACEWID
 40
1.0
  9
$TEXTSTYLE
  7
Standard
  9
$CLAYER
  8
0
  9
$CELTYPE
  6
ByLayer
  9
$CECOLOR
 62
   256
  9
$CELTSCALE
 40
1.0
  9
$DISPSILH
 70
     0
  9
$DIMSCALE
 40
1.0
  9
$DIMASZ
 40
3.302
  9
$DIMEXO
 40
0.0
  9
$DIMDLI
 40
3.75
  9
$DIMRND
 40
0.0
  9
$DIMDLE
 40
0.0
  9
$DIMEXE
 40
1.0
  9
$DIMTP
 40
0.0
  9
$DIMTM
 40
0.0
  9
$DIMTXT
 40
3.5
  9
$DIMCEN
 40
2.5
  9
$DIMTSZ
 40
0.0
  9
$DIMTOL
 70
     0
  9
$DIMLIM
 70
     0
  9
$DIMTIH
 70
     1
  9
$DIMTOH
 70
     1
  9
$DIMSE1
 70
     0
  9
$DIMSE2
 70
     0
  9
$DIMTAD
 70
     1
  9
$DIMZIN
 70
     1
  9
$DIMBLK
  1

  9
$DIMASO
 70
     1
  9
$DIMSHO
 70
     1
  9
$DIMPOST
  1

  9
$DIMAPOST
  1

  9
$DIMALT
 70
     0
  9
$DIMALTD
 70
     3
  9
$DIMALTF
 40
0.0393700787
  9
$DIMLFAC
 40
1.0
  9
$DIMTOFL
 70
     1
  9
$DIMTVP
 40
0.0
  9
$DIMTIX
 70
     0
  9
$DIMSOXD
 70
     0
  9
$DIMSAH
 70
     0
  9
$DIMBLK1
  1

  9
$DIMBLK2
  1

  9
$DIMSTYLE
  2
ISO-25
  9
$DIMCLRD
 70
     0
  9
$DIMCLRE
 70
     0
  9
$DIMCLRT
 70
     0
  9
$DIMTFAC
 40
1.0
  9
$DIMGAP
 40
1.524
  9
$DIMJUST
 70
     0
  9
$DIMSD1
 70
     0
  9
$DIMSD2
 70
     0
  9
$DIMTOLJ
 70
     0
  9
$DIMTZIN
 70
     1
  9
$DIMALTZ
 70
     0
  9
$DIMALTTZ
 70
     0
  9
$DIMUPT
 70
     0
  9
$DIMDEC
 70
     2
  9
$DIMTDEC
 70
     2
  9
$DIMALTU
 70
     2
  9
$DIMALTTD
 70
     3
  9
$DIMTXSTY
  7
Standard
  9
$DIMAUNIT
 70
     0
  9
$DIMADEC
 70
     2
  9
$DIMALTRND
 40
0.0
  9
$DIMAZIN
 70
     0
  9
$DIMDSEP
 70
    44
  9
$DIMATFIT
 70
     3
  9
$DIMFRAC
 70
     0
  9
$DIMLDRBLK
  1

  9
$DIMLUNIT
 70
     2
  9
$DIMLWD
 70
    -2
  9
$DIMLWE
 70
    -2
  9
$DIMTMOVE
 70
     0
  9
$LUNITS
 70
     2
  9
$LUPREC
 70
     6
  9
$SKETCHINC
 40
1.0
  9
$FILLETRAD
 40
0.0
  9
$AUNITS
 70
     0
  9
$AUPREC
 70
     2
  9
$MENU
  1
.
  9
$ELEVATION
 40
0.0
  9
$PELEVATION
 40
0.0
  9
$THICKNESS
 40
0.0
  9
$LIMCHECK
 70
     0
  9
$CHAMFERA
 40
0.0
  9
$CHAMFERB
 40
0.0
  9
$CHAMFERC
 40
0.0
  9
$CHAMFERD
 40
0.0
  9
$SKPOLY
 70
     0
  9
$TDCREATE
 40
2460804.677988611
  9
$TDUCREATE
 40
2460804.594655278
  9
$TDUPDATE
 40
2460804.678021725
  9
$TDUUPDATE
 40
2460804.594688392
  9
$TDINDWG
 40
0.0000000116
  9
$TDUSRTIMER
 40
0.0000000116
  9
$USRTIMER
 70
     1
  9
$ANGBASE
 50
0.0
  9
$ANGDIR
 70
     0
  9
$PDMODE
 70
     0
  9
$PDSIZE
 40
-1.0
  9
$PLINEWID
 40
0.0
  9
$SPLFRAME
 70
     0
  9
$SPLINETYPE
 70
     6
  9
$SPLINESEGS
 70
     8
  9
$HANDSEED
  5
4C8
  9
$SURFTAB1
 70
     6
  9
$SURFTAB2
 70
     6
  9
$SURFTYPE
 70
     6
  9
$SURFU
 70
     6
  9
$SURFV
 70
     6
  9
$UCSBASE
  2

  9
$UCSNAME
  2

  9
$UCSORG
 10
0.0
 20
0.0
 30
0.0
  9
$UCSXDIR
 10
1.0
 20
0.0
 30
0.0
  9
$UCSYDIR
 10
0.0
 20
1.0
 30
0.0
  9
$UCSORTHOREF
  2

  9
$UCSORTHOVIEW
 70
     0
  9
$UCSORGTOP
 10
0.0
 20
0.0
 30
0.0
  9
$UCSORGBOTTOM
 10
0.0
 20
0.0
 30
0.0
  9
$UCSORGLEFT
 10
0.0
 20
0.0
 30
0.0
  9
$UCSORGRIGHT
 10
0.0
 20
0.0
 30
0.0
  9
$UCSORGFRONT
 10
0.0
 20
0.0
 30
0.0
  9
$UCSORGBACK
 10
0.0
 20
0.0
 30
0.0
  9
$PUCSBASE
  2

  9
$PUCSNAME
  2

  9
$PUCSORG
 10
0.0
 20
0.0
 30
0.0
  9
$PUCSXDIR
 10
1.0
 20
0.0
 30
0.0
  9
$PUCSYDIR
 10
0.0
 20
1.0
 30
0.0
  9
$PUCSORTHOREF
  2

  9
$PUCSORTHOVIEW
 70
     0
  9
$PUCSORGTOP
 10
0.0
 20
0.0
 30
0.0
  9
$PUCSORGBOTTOM
 10
0.0
 20
0.0
 30
0.0
  9
$PUCSORGLEFT
 10
0.0
 20
0.0
 30
0.0
  9
$PUCSORGRIGHT
 10
0.0
 20
0.0
 30
0.0
  9
$PUCSORGFRONT
 10
0.0
 20
0.0
 30
0.0
  9
$PUCSORGBACK
 10
0.0
 20
0.0
 30
0.0
  9
$USERI1
 70
     0
  9
$USERI2
 70
     0
  9
$USERI3
 70
     0
  9
$USERI4
 70
     0
  9
$USERI5
 70
     0
  9
$USERR1
 40
0.0
  9
$USERR2
 40
0.0
  9
$USERR3
 40
0.0
  9
$USERR4
 40
0.0
  9
$USERR5
 40
0.0
  9
$WORLDVIEW
 70
     1
  9
$SHADEDGE
 70
     3
  9
$SHADEDIF
 70
    70
  9
$TILEMODE
 70
     1
  9
$MAXACTVP
 70
    64
  9
$PINSBASE
 10
0.0
 20
0.0
 30
0.0
  9
$PLIMCHECK
 70
     0
  9
$PEXTMIN
 10
1.0000000000E+20
 20
1.0000000000E+20
 30
1.0000000000E+20
  9
$PEXTMAX
 10
-1.0000000000E+20
 20
-1.0000000000E+20
 30
-1.0000000000E+20
  9
$PLIMMIN
 10
0.0
 20
0.0
  9
$PLIMMAX
 10
420.0
 20
297.0
  9
$UNITMODE
 70
     0
  9
$VISRETAIN
 70
     1
  9
$PLINEGEN
 70
     0
  9
$PSLTSCALE
 70
     1
  9
$TREEDEPTH
 70
  3020
  9
$CMLSTYLE
  2
Standard
  9
$CMLJUST
 70
     0
  9
$CMLSCALE
 40
20.0
  9
$PROXYGRAPHICS
 70
     1
  9
$MEASUREMENT
 70
     1
  9
$CELWEIGHT
370
    -1
  9
$ENDCAPS
280
     0
  9
$JOINSTYLE
280
     0
  9
$LWDISPLAY
290
     1
  9
$INSUNITS
 70
     4
  9
$HYPERLINKBASE
  1

  9
$STYLESHEET
  1

  9
$XEDIT
290
     1
  9
$CEPSNTYPE
380
     0
  9
$PSTYLEMODE
290
     1
  9
$FINGERPRINTGUID
  2
{54024ca2-ecde-48d1-97c5-0ee581007e25}
  9
$VERSIONGUID
  2
{FAEB1C32-E019-11D5-929B-00C0DF256EC4}
  9
$EXTNAMES
290
     1
  9
$PSVPSCALE
 40
0.0
  9
$OLESTARTUP
290
     0
  0
ENDSEC
  0
SECTION
  2
CLASSES
  0
CLASS
  1
ACDBDICTIONARYWDFLT
  2
AcDbDictionaryWithDefault
  3
ObjectDBX Classes
 90
        0
280
     0
281
     0
  0
CLASS
  1
VISUALSTYLE
  2
AcDbVisualStyle
  3
ObjectDBX Classes
 90
     4095
280
     0
281
     0
  0
CLASS
  1
MATERIAL
  2
AcDbMaterial
  3
ObjectDBX Classes
 90
     1153
280
     0
281
     0
  0
CLASS
  1
SCALE
  2
AcDbScale
  3
ObjectDBX Classes
 90
     1153
280
     0
281
     0
  0
CLASS
  1
TABLESTYLE
  2
AcDbTableStyle
  3
ObjectDBX Classes
 90
     4095
280
     0
281
     0
  0
CLASS
  1
MLEADERSTYLE
  2
AcDbMLeaderStyle
  3
ACDB_MLEADERSTYLE_CLASS
 90
     4095
280
     0
281
     0
  0
CLASS
  1
SUN
  2
AcDbSun
  3
SCENEOE
 90
     1153
280
     0
281
     0
  0
CLASS
  1
ACDBPLACEHOLDER
  2
AcDbPlaceHolder
  3
ObjectDBX Classes
 90
        0
280
     0
281
     0
  0
CLASS
  1
LAYOUT
  2
AcDbLayout
  3
ObjectDBX Classes
 90
        0
280
     0
281
     0
  0
ENDSEC
  0
SECTION
  2
TABLES
  0
TABLE
  2
VPORT
  5
8
330
0
100
AcDbSymbolTable
 70
     1
  0
VPORT
  5
29
330
8
100
AcDbSymbolTableRecord
100
AcDbViewportTableRecord
  2
*Active
 70
     0
 10
0.0
 20
0.0
 11
1.0
 21
1.0
 12
2624.1838516338
 22
3246.0783592396
 13
0.0
 23
0.0
 14
10.0
 24
10.0
 15
10.0
 25
10.0
 16
0.0
 26
0.0
 36
1.0
 17
0.0
 27
0.0
 37
0.0
 40
387.4873324139
 41
0.9995870619
 42
50.0
 43
0.0
 44
0.0
 50
0.0
 51
0.0
 71
     0
 72
   100
 73
     1
 74
     3
 75
     0
 76
     0
 77
     0
 78
     0
281
     0
 65
     1
110
0.0
120
0.0
130
0.0
111
1.0
121
0.0
131
0.0
112
0.0
122
1.0
132
0.0
 79
     0
146
0.0
  0
ENDTAB
  0
TABLE
  2
LTYPE
  5
5
330
0
100
AcDbSymbolTable
 70
     6
  0
LTYPE
  5
14
330
5
100
AcDbSymbolTableRecord
100
AcDbLinetypeTableRecord
  2
ByBlock
 70
     0
  3

 72
    65
 73
     0
 40
0.0
  0
LTYPE
  5
15
330
5
100
AcDbSymbolTableRecord
100
AcDbLinetypeTableRecord
  2
ByLayer
 70
     0
  3

 72
    65
 73
     0
 40
0.0
  0
LTYPE
  5
16
330
5
100
AcDbSymbolTableRecord
100
AcDbLinetypeTableRecord
  2
Continuous
 70
     0
  3
Solid line
 72
    65
 73
     0
 40
0.0
  0
LTYPE
  5
5E
330
5
100
AcDbSymbolTableRecord
100
AcDbLinetypeTableRecord
  2
HIDDEN
 70
     0
  3
Hidden __ __ __ __ __ __ __ __ __ __ __ __ __ __
 72
    65
 73
     2
 40
1.905
 49
1.27
 74
     0
 49
-0.635
 74
     0
  0
LTYPE
  5
5F
330
5
100
AcDbSymbolTableRecord
100
AcDbLinetypeTableRecord
  2
PHANTOM
 70
     0
  3
Phantom ______  __  __  ______  __  __  ______
 72
    65
 73
     6
 40
12.7
 49
6.35
 74
     0
 49
-1.27
 74
     0
 49
1.27
 74
     0
 49
-1.27
 74
     0
 49
1.27
 74
     0
 49
-1.27
 74
     0
  0
LTYPE
  5
60
330
5
100
AcDbSymbolTableRecord
100
AcDbLinetypeTableRecord
  2
CENTER
 70
     0
  3
Center ____ _ ____ _ ____ _ ____ _ ____ _ ____
 72
    65
 73
     4
 40
10.16
 49
6.35
 74
     0
 49
-1.27
 74
     0
 49
1.27
 74
     0
 49
-1.27
 74
     0
  0
LTYPE
  5
61
330
5
100
AcDbSymbolTableRecord
100
AcDbLinetypeTableRecord
  2
CENTERX2
 70
     0
  3
Center (2x) ________  __  ________  __  _____
 72
    65
 73
     4
 40
20.32
 49
12.7
 74
     0
 49
-2.54
 74
     0
 49
2.54
 74
     0
 49
-2.54
 74
     0
  0
LTYPE
  5
62
330
5
100
AcDbSymbolTableRecord
100
AcDbLinetypeTableRecord
  2
DOT2
 70
     0
  3
Dot (.5x) ........................................
 72
    65
 73
     2
 40
0.635
 49
0.0
 74
     0
 49
-0.635
 74
     0
  0
ENDTAB
  0
TABLE
  2
LAYER
  5
2
330
0
100
AcDbSymbolTable
 70
     1
  0
LAYER
  5
10
330
2
100
AcDbSymbolTableRecord
100
AcDbLayerTableRecord
  2
0
 70
     0
 62
     7
  6
Continuous
370
    -3
390
F
  0
ENDTAB
  0
TABLE
  2
STYLE
  5
3
330
0
100
AcDbSymbolTable
 70
     2
  0
STYLE
  5
11
330
3
100
AcDbSymbolTableRecord
100
AcDbTextStyleTableRecord
  2
Standard
 70
     0
 40
0.0
 41
1.0
 50
0.0
 71
     0
 42
3.5
  3
txt
  4

  0
STYLE
  5
4C4
330
3
100
AcDbSymbolTableRecord
100
AcDbTextStyleTableRecord
  2
SLDTEXTSTYLE0
 70
     0
 40
0.0
 41
0.7
 50
0.0
 71
     0
 42
3.5
  3
TXT
  4

  0
ENDTAB
  0
TABLE
  2
VIEW
  5
6
330
0
100
AcDbSymbolTable
 70
     0
  0
ENDTAB
  0
TABLE
  2
UCS
  5
7
330
0
100
AcDbSymbolTable
 70
     0
  0
ENDTAB
  0
TABLE
  2
APPID
  5
9
330
0
100
AcDbSymbolTable
 70
     1
  0
APPID
  5
12
330
9
100
AcDbSymbolTableRecord
100
AcDbRegAppTableRecord
  2
ACAD
 70
     0
  0
ENDTAB
  0
TABLE
  2
DIMSTYLE
  5
A
330
0
100
AcDbSymbolTable
 70
     1
100
AcDbDimStyleTable
  0
DIMSTYLE
105
27
330
A
100
AcDbSymbolTableRecord
100
AcDbDimStyleTableRecord
  2
ISO-25
 70
     0
 41
2.5
 42
0.625
 43
3.75
 44
1.25
 73
     0
 74
     0
 77
     1
 78
     8
140
2.5
141
2.5
143
0.0393700787
147
0.625
171
     3
172
     1
178
     0
271
     2
272
     2
274
     3
278
    44
283
     0
284
     8
340
11
  0
ENDTAB
  0
TABLE
  2
BLOCK_RECORD
  5
1
330
0
100
AcDbSymbolTable
 70
     1
  0
BLOCK_RECORD
  5
1F
330
1
100
AcDbSymbolTableRecord
100
AcDbBlockTableRecord
  2
*Model_Space
340
22
  0
BLOCK_RECORD
  5
1B
330
1
100
AcDbSymbolTableRecord
100
AcDbBlockTableRecord
  2
*Paper_Space
340
1E
  0
BLOCK_RECORD
  5
23
330
1
100
AcDbSymbolTableRecord
100
AcDbBlockTableRecord
  2
*Paper_Space0
340
26
  0
ENDTAB
  0
ENDSEC
  0
SECTION
  2
BLOCKS
  0
BLOCK
  5
20
330
1F
100
AcDbEntity
  8
0
100
AcDbBlockBegin
  2
*Model_Space
 70
     0
 10
0.0
 20
0.0
 30
0.0
  3
*Model_Space
  1

  0
ENDBLK
  5
21
330
1F
100
AcDbEntity
  8
0
100
AcDbBlockEnd
  0
BLOCK
  5
1C
330
1B
100
AcDbEntity
 67
     1
  8
0
100
AcDbBlockBegin
  2
*Paper_Space
 70
     0
 10
0.0
 20
0.0
 30
0.0
  3
*Paper_Space
  1

  0
ENDBLK
  5
1D
330
1B
100
AcDbEntity
 67
     1
  8
0
100
AcDbBlockEnd
  0
BLOCK
  5
24
330
23
100
AcDbEntity
  8
0
100
AcDbBlockBegin
  2
*Paper_Space0
 70
     0
 10
0.0
 20
0.0
 30
0.0
  3
*Paper_Space0
  1

  0
ENDBLK
  5
25
330
23
100
AcDbEntity
  8
0
100
AcDbBlockEnd
  0
ENDSEC
  0
SECTION
  2
ENTITIES
  0
SPLINE
  5
D5
330
1F
100
AcDbEntity
  8
0
  6
Continuous
 62
     7
370
    25
100
AcDbSpline
210
0.0
220
0.0
230
1.0
 70
     8
 71
     3
 72
    10
 73
     6
 74
     0
 42
0.00000001
 43
0.00000001
 40
0.0
 40
0.0
 40
0.0
 40
0.0
 40
0.5
 40
0.5
 40
1.0
 40
1.0
 40
1.0
 40
1.0
 10
2719.9408341333
 20
3315.220161496756
 30
0.0
 10
2719.170315988257
 20
3315.467991151323
 30
0.0
 10
2718.361048398233
 20
3315.594935057671
 30
0.0
 10
2716.74226150735
 20
3315.594934172161
 30
0.0
 10
2715.932994056208
 20
3315.467989380442
 30
0.0
 10
2715.162476182302
 20
3315.220158882896
 30
0.0
  0
SPLINE
  5
D8
330
1F
100
AcDbEntity
  8
0
  6
Continuous
 62
     7
370
    25
100
AcDbSpline
210
0.0
220
0.0
230
1.0
 70
     8
 71
     3
 72
     8
 73
     4
 74
     0
 42
0.00000001
 43
0.00000001
 40
0.0
 40
0.0
 40
0.0
 40
0.0
 40
1.0
 40
1.0
 40
1.0
 40
1.0
 10
2709.446778015498
 20
3312.35368536428
 30
0.0
 10
2707.735817284398
 20
3311.157487034026
 30
0.0
 10
2706.237040258117
 20
3309.658706711711
 30
0.0
 10
2705.040845690516
 20
3307.947743350001
 30
0.0
  0
SPLINE
  5
DB
330
1F
100
AcDbEntity
  8
0
  6
Continuous
 62
     7
370
    25
100
AcDbSpline
210
0.0
220
0.0
230
1.0
 70
     8
 71
     3
 72
    10
 73
     6
 74
     0
 42
0.00000001
 43
0.00000001
 40
0.0
 40
0.0
 40
0.0
 40
0.0
 40
0.5
 40
0.5
 40
1.0
 40
1.0
 40
1.0
 40
1.0
 10
2702.174363855547
 20
3302.232050010736
 30
0.0
 10
2701.926534200989
 20
3301.461531865699
 30
0.0
 10
2701.799590294648
 20
3300.65226427568
 30
0.0
 10
2701.799591180166
 20
3299.033477384813
 30
0.0
 10
2701.926535971889
 20
3298.224209933679
 30
0.0
 10
2702.174366469434
 20
3297.45369205978
 30
0.0
  0
SPLINE
  5
DE
330
1F
100
AcDbEntity
  8
0
  6
Continuous
 62
     7
370
    25
100
AcDbSpline
210
0.0
220
0.0
230
1.0
 70
     8
 71
     3
 72
     8
 73
     4
 74
     0
 42
0.00000001
 43
0.00000001
 40
0.0
 40
0.0
 40
0.0
 40
0.0
 40
1.0
 40
1.0
 40
1.0
 40
1.0
 10
2705.040839988028
 20
3291.737993892971
 30
0.0
 10
2706.237038318282
 20
3290.027033161873
 30
0.0
 10
2707.735818640595
 20
3288.528256135593
 30
0.0
 10
2709.446782002303
 20
3287.332061567995
 30
0.0
  0
SPLINE
  5
E1
330
1F
100
AcDbEntity
  8
0
  6
Continuous
 62
     7
370
    25
100
AcDbSpline
210
0.0
220
0.0
230
1.0
 70
     8
 71
     3
 72
    10
 73
     6
 74
     0
 42
0.00000001
 43
0.00000001
 40
0.0
 40
0.0
 40
0.0
 40
0.0
 40
0.5
 40
0.5
 40
1.0
 40
1.0
 40
1.0
 40
1.0
 10
2715.162475341566
 20
3284.465579733041
 30
0.0
 10
2715.932993486612
 20
3284.21775007848
 30
0.0
 10
2716.742261076639
 20
3284.09080617214
 30
0.0
 10
2718.361047967522
 20
3284.090807057663
 30
0.0
 10
2719.170315418666
 20
3284.217751849391
 30
0.0
 10
2719.940833292571
 20
3284.465582346943
 30
0.0
  0
SPLINE
  5
E4
330
1F
100
AcDbEntity
  8
0
  6
Continuous
 62
     7
370
    25
100
AcDbSpline
210
0.0
220
0.0
230
1.0
 70
     8
 71
     3
 72
     8
 73
     4
 74
     0
 42
0.00000001
 43
0.00000001
 40
0.0
 40
0.0
 40
0.0
 40
0.0
 40
1.0
 40
1.0
 40
1.0
 40
1.0
 10
2725.656531459332
 20
3287.332055865504
 30
0.0
 10
2727.367492190431
 20
3288.528254195758
 30
0.0
 10
2728.866269216712
 20
3290.027034518071
 30
0.0
 10
2730.06246378431
 20
3291.737997879781
 30
0.0
  0
SPLINE
  5
E7
330
1F
100
AcDbEntity
  8
0
  6
Continuous
 62
     7
370
    25
100
AcDbSpline
210
0.0
220
0.0
230
1.0
 70
     8
 71
     3
 72
    10
 73
     6
 74
     0
 42
0.00000001
 43
0.00000001
 40
0.0
 40
0.0
 40
0.0
 40
0.0
 40
0.5
 40
0.5
 40
1.0
 40
1.0
 40
1.0
 40
1.0
 10
2732.92894561928
 20
3297.453691219046
 30
0.0
 10
2733.176775273838
 20
3298.224209364084
 30
0.0
 10
2733.303719180178
 20
3299.033476954103
 30
0.0
 10
2733.303718294659
 20
3300.652263844969
 30
0.0
 10
2733.176773502937
 20
3301.461531296103
 30
0.0
 10
2732.928943005393
 20
3302.232049170002
 30
0.0
  0
SPLINE
  5
EA
330
1F
100
AcDbEntity
  8
0
  6
Continuous
 62
     7
370
    25
100
AcDbSpline
210
0.0
220
0.0
230
1.0
 70
     8
 71
     3
 72
     8
 73
     4
 74
     0
 42
0.00000001
 43
0.00000001
 40
0.0
 40
0.0
 40
0.0
 40
0.0
 40
1.0
 40
1.0
 40
1.0
 40
1.0
 10
2730.062469486799
 20
3307.947747336811
 30
0.0
 10
2728.866271156545
 20
3309.658708067909
 30
0.0
 10
2727.367490834232
 20
3311.157485094189
 30
0.0
 10
2725.656527472524
 20
3312.353679661788
 30
0.0
  0
SPLINE
  5
F2
330
1F
100
AcDbEntity
  8
0
  6
Continuous
 62
     7
370
    25
100
AcDbSpline
210
0.0
220
0.0
230
1.0
 70
     8
 71
     3
 72
    14
 73
    10
 74
     0
 42
0.00000001
 43
0.00000001
 40
0.0
 40
0.0
 40
0.0
 40
0.0
 40
0.25
 40
0.25
 40
0.5
 40
0.5
 40
0.75
 40
0.75
 40
1.0
 40
1.0
 40
1.0
 40
1.0
 10
2514.087049821053
 20
3304.879654151177
 30
0.0
 10
2513.659152640499
 20
3304.114185134001
 30
0.0
 10
2513.329355068055
 20
3303.293948865605
 30
0.0
 10
2512.887174563784
 20
3301.596706497769
 30
0.0
 10
2512.774822630038
 20
3300.719819379741
 30
0.0
 10
2512.774822844753
 20
3298.965922218122
 30
0.0
 10
2512.887174993198
 20
3298.089035127601
 30
0.0
 10
2513.329355913026
 20
3296.391792868032
 30
0.0
 10
2513.659153686299
 20
3295.571556680384
 30
0.0
 10
2514.087051054272
 20
3294.806087767975
 30
0.0
  0
LINE
  5
298
330
1F
100
AcDbEntity
  8
0
  6
Continuous
 62
     7
370
    25
100
AcDbLine
 10
2731.6577750687
 20
3371.0616458179
 30
0.0
 11
2724.462862316
 21
3376.8014249037
 31
0.0
  0
LINE
  5
299
330
1F
100
AcDbEntity
  8
0
  6
Continuous
 62
     7
370
    25
100
AcDbLine
 10
2750.9186717076
 20
3386.316558926
 30
0.0
 11
2731.6577740566
 21
3371.0616470957
 31
0.0
  0
LINE
  5
29A
330
1F
100
AcDbEntity
  8
0
  6
Continuous
 62
     7
370
    25
100
AcDbLine
 10
2762.9365750438
 20
3373.5240872227
 30
0.0
 11
2750.9186731022
 21
3386.3165602361
 31
0.0
  0
LINE
  5
29B
330
1F
100
AcDbEntity
  8
0
  6
Continuous
 62
     7
370
    25
100
AcDbLine
 10
2748.7418519779
 20
3354.9138479647
 30
0.0
 11
2762.9365767036
 21
3373.5240859568
 31
0.0
  0
LINE
  5
29C
330
1F
100
AcDbEntity
  8
0
  6
Continuous
 62
     7
370
    25
100
AcDbLine
 10
2754.3282768447
 20
3347.0684379771
 30
0.0
 11
2748.7418519779
 21
3354.9138479647
 31
0.0
  0
LINE
  5
29D
330
1F
100
AcDbEntity
  8
0
  6
Continuous
 62
     7
370
    25
100
AcDbLine
 10
2772.2973047094
 20
3172.8375674281
 30
0.0
 11
2776.8330275272
 21
3182.3490758504
 31
0.0
  0
LINE
  5
29E
330
1F
100
AcDbEntity
  8
0
  6
Continuous
 62
     7
370
    25
100
AcDbLine
 10
2782.2197057211
 20
3164.5072091476
 30
0.0
 11
2772.2973047094
 21
3172.8375674281
 31
0.0
  0
LINE
  5
29F
330
1F
100
AcDbEntity
  8
0
  6
Continuous
 62
     7
370
    25
100
AcDbLine
 10
2783.2009254157
 20
3142.5308824546
 30
0.0
 11
2787.6715160742
 21
3149.3538679735
 31
0.0
  0
LINE
  5
2A0
330
1F
100
AcDbEntity
  8
0
  6
Continuous
 62
     7
370
    25
100
AcDbLine
 10
2760.8698307374
 20
3152.0294820604
 30
0.0
 11
2783.2009250135
 21
3142.530881509
 31
0.0
  0
LINE
  5
2A1
330
1F
100
AcDbEntity
  8
0
  6
Continuous
 62
     7
370
    25
100
AcDbLine
 10
2749.2163855313
 20
3136.2691245987
 30
0.0
 11
2760.8698319925
 21
3152.0294811324
 31
0.0
  0
LINE
  5
2A2
330
1F
100
AcDbEntity
  8
0
  6
Continuous
 62
     7
370
    25
100
AcDbLine
 10
2765.1670909343
 20
3118.1022744382
 30
0.0
 11
2749.2163840488
 21
3136.2691232971
 31
0.0
  0
LINE
  5
2A3
330
1F
100
AcDbEntity
  8
0
  6
Continuous
 62
     7
370
    25
100
AcDbLine
 10
2753.6392841907
 20
3105.8314874665
 30
0.0
 11
2765.1670922445
 21
3118.1022732074
 31
0.0
  0
LINE
  5
2A4
330
1F
100
AcDbEntity
  8
0
  6
Continuous
 62
     7
370
    25
100
AcDbLine
 10
2744.1747405473
 20
3112.2628110407
 30
0.0
 11
2753.6392841907
 21
3105.8314874665
 31
0.0
  0
LINE
  5
2A5
330
1F
100
AcDbEntity
  8
0
  6
Continuous
 62
     7
370
    25
100
AcDbLine
 10
2497.2346975079
 20
3136.5323520895
 30
0.0
 11
2490.3067717386
 21
3127.4493733177
 31
0.0
  0
LINE
  5
2A6
330
1F
100
AcDbEntity
  8
0
  6
Continuous
 62
     7
370
    25
100
AcDbLine
 10
2484.4259224183
 20
3151.4234397754
 30
0.0
 11
2497.2346975079
 21
3136.5323520895
 31
0.0
  0
LINE
  5
2A7
330
1F
100
AcDbEntity
  8
0
  6
Continuous
 62
     7
370
    25
100
AcDbLine
 10
2474.6771984136
 20
3146.7745961353
 30
0.0
 11
2484.4259224183
 21
3151.4234397754
 31
0.0
  0
LINE
  5
2A8
330
1F
100
AcDbEntity
  8
0
  6
Continuous
 62
     7
370
    25
100
AcDbLine
 10
2473.6773834074
 20
3173.0553502143
 30
0.0
 11
2465.6599897597
 21
3164.7835003501
 31
0.0
  0
LINE
  5
2A9
330
1F
100
AcDbEntity
  8
0
  6
Continuous
 62
     7
370
    25
100
AcDbLine
 10
2469.1640731514
 20
3182.5198571029
 30
0.0
 11
2473.6773834074
 21
3173.0553502143
 31
0.0
  0
LINE
  5
2AA
330
1F
100
AcDbEntity
  8
0
  6
Continuous
 62
     7
370
    25
100
AcDbLine
 10
2497.5566276905
 20
3355.222724937
 30
0.0
 11
2491.7044917575
 21
3347.0041564293
 31
0.0
  0
LINE
  5
2AB
330
1F
100
AcDbEntity
  8
0
  6
Continuous
 62
     7
370
    25
100
AcDbLine
 10
2484.2235950322
 20
3375.3703000078
 30
0.0
 11
2497.5566307245
 21
3355.2227269448
 31
0.0
  0
LINE
  5
2AC
330
1F
100
AcDbEntity
  8
0
  6
Continuous
 62
     7
370
    25
100
AcDbLine
 10
2496.3184760799
 20
3386.732851848
 30
0.0
 11
2484.2235950322
 21
3375.3703000078
 31
0.0
  0
LINE
  5
2AD
330
1F
100
AcDbEntity
  8
0
  6
Continuous
 62
     7
370
    25
100
AcDbLine
 10
2504.2692962545
 20
3380.0426772315
 30
0.0
 11
2496.3184760799
 21
3386.732851848
 31
0.0
  0
LINE
  5
2AE
330
1F
100
AcDbEntity
  8
0
  6
Continuous
 62
     7
370
    25
100
AcDbLine
 10
2520.7229099288
 20
3404.7828006909
 30
0.0
 11
2525.042128503
 21
3393.9880136202
 31
0.0
  0
LINE
  5
2AF
330
1F
100
AcDbEntity
  8
0
  6
Continuous
 62
     7
370
    25
100
AcDbLine
 10
2527.6274990152
 20
3409.3068591053
 30
0.0
 11
2520.7229099288
 21
3404.7828006909
 31
0.0
  0
LINE
  5
2B0
330
1F
100
AcDbEntity
  8
0
  6
Continuous
 62
     7
370
    25
100
AcDbLine
 10
2570.6794362549
 20
3402.4861130049
 30
0.0
 11
2560.0099726053
 21
3399.2894626464
 31
0.0
  0
LINE
  5
2B1
330
1F
100
AcDbEntity
  8
0
  6
Continuous
 62
     7
370
    25
100
AcDbLine
 10
2568.9550158033
 20
3415.4854198099
 30
0.0
 11
2570.6794362549
 21
3402.4861130049
 31
0.0
  0
ARC
  5
2B2
330
1F
100
AcDbEntity
  8
0
  6
Continuous
 62
     7
370
    25
100
AcDbCircle
 10
2623.1326331071
 20
3135.3646438843
 30
0.0
 40
14.53816709499101
100
AcDbArc
 50
33.2337861459
 51
70.866146879
  0
ARC
  5
2B3
330
1F
100
AcDbEntity
  8
0
  6
Continuous
 62
     7
370
    25
100
AcDbCircle
 10
2622.6741099524
 20
3134.0431013606
 30
0.0
 40
15.93699450571402
100
AcDbArc
 50
70.8660674502
 51
105.9984308842
  0
ARC
  5
2B4
330
1F
100
AcDbEntity
  8
0
  6
Continuous
 62
     7
370
    25
100
AcDbCircle
 10
2622.5957751696
 20
3134.3162397358
 30
0.0
 40
15.65284505594003
100
AcDbArc
 50
105.9983544974
 51
141.5218859838
  0
ARC
  5
2B5
330
1F
100
AcDbEntity
  8
0
  6
Continuous
 62
     7
370
    25
100
AcDbCircle
 10
2621.354634804
 20
3135.3027069796
 30
0.0
 40
14.06742806662459
100
AcDbArc
 50
141.5218650866
 51
179.9999908798
  0
ARC
  5
2B6
330
1F
100
AcDbEntity
  8
0
  6
Continuous
 62
     7
370
    25
100
AcDbCircle
 10
2619.5410530856
 20
3135.3027079581
 30
0.0
 40
12.25384634814561
100
AcDbArc
 50
179.9999941051
 51
222.863949931
  0
ARC
  5
2B7
330
1F
100
AcDbEntity
  8
0
  6
Continuous
 62
     7
370
    25
100
AcDbCircle
 10
2621.9977126468
 20
3137.5827075881
 30
0.0
 40
15.60549885287794
100
AcDbArc
 50
222.8639754151
 51
258.6411624261
  0
ARC
  5
2B8
330
1F
100
AcDbEntity
  8
0
  6
Continuous
 62
     7
370
    25
100
AcDbCircle
 10
2622.2960507125
 20
3139.0678672827
 30
0.0
 40
17.12032719958659
100
AcDbArc
 50
258.641203344
 51
292.4331395333
  0
ARC
  5
2B9
330
1F
100
AcDbEntity
  8
0
  6
Continuous
 62
     7
370
    25
100
AcDbCircle
 10
2623.3171559741
 20
3136.5945018827
 30
0.0
 40
14.4444736241556
100
AcDbArc
 50
292.4331996745
 51
330.8077232563
  0
ARC
  5
2BA
330
1F
100
AcDbEntity
  8
0
  6
Continuous
 62
     7
370
    25
100
AcDbCircle
 10
2601.108148547
 20
3149.002704121
 30
0.0
 40
39.88466807470244
100
AcDbArc
 50
330.8078035261
 51
337.3927137206
  0
ARC
  5
2BB
330
1F
100
AcDbEntity
  8
0
  6
Continuous
 62
     7
370
    25
100
AcDbCircle
 10
2631.9486798011
 20
3136.1604286041
 30
0.0
 40
6.477147836234965
100
AcDbArc
 50
337.3927105275
 51
2.6339124667
  0
ARC
  5
2BC
330
1F
100
AcDbEntity
  8
0
  6
Continuous
 62
     7
370
    25
100
AcDbCircle
 10
2631.6771074852
 20
3136.1479510375
 30
0.0
 40
6.749006645545874
100
AcDbArc
 50
2.6337807195
 51
27.1816984954
  0
ARC
  5
2BD
330
1F
100
AcDbEntity
  8
0
  6
Continuous
 62
     7
370
    25
100
AcDbCircle
 10
2597.6941298265
 20
3118.6967134109
 30
0.0
 40
44.95094985858006
100
AcDbArc
 50
27.1817881763
 51
33.2337947484
  0
ARC
  5
2BE
330
1F
100
AcDbEntity
  8
0
  6
Continuous
 62
     7
370
    25
100
AcDbCircle
 10
2678.6812438833
 20
3154.4806633376
 30
0.0
 40
11.37557410832399
100
AcDbArc
 50
56.2682194363
 51
92.1086947363
  0
ARC
  5
2BF
330
1F
100
AcDbEntity
  8
0
  6
Continuous
 62
     7
370
    25
100
AcDbCircle
 10
2678.9252212441
 20
3147.8538815446
 30
0.0
 40
18.0068456217172
100
AcDbArc
 50
92.1086226195
 51
117.5241489392
  0
ARC
  5
2C0
330
1F
100
AcDbEntity
  8
0
  6
Continuous
 62
     7
370
    25
100
AcDbCircle
 10
2678.8083419843
 20
3148.0781583696
 30
0.0
 40
17.7539407867308
100
AcDbArc
 50
117.5241261463
 51
143.1469920905
  0
ARC
  5
2C1
330
1F
100
AcDbEntity
  8
0
  6
Continuous
 62
     7
370
    25
100
AcDbCircle
 10
2673.342170131
 20
3152.1752643902
 30
0.0
 40
10.92273939358175
100
AcDbArc
 50
143.1469680466
 51
179.999970374
  0
ARC
  5
2C2
330
1F
100
AcDbEntity
  8
0
  6
Continuous
 62
     7
370
    25
100
AcDbCircle
 10
2680.0960759346
 20
3152.1752512837
 30
0.0
 40
17.67664519714041
100
AcDbArc
 50
179.9999392111
 51
215.9792716063
  0
ARC
  5
2C3
330
1F
100
AcDbEntity
  8
0
  6
Continuous
 62
     7
370
    25
100
AcDbCircle
 10
2677.6261836439
 20
3150.3821102389
 30
0.0
 40
14.62447830564547
100
AcDbArc
 50
215.9791951139
 51
257.4365398905
  0
ARC
  5
2C4
330
1F
100
AcDbEntity
  8
0
  6
Continuous
 62
     7
370
    25
100
AcDbCircle
 10
2677.4052431486
 20
3149.3906896899
 30
0.0
 40
13.60873748856316
100
AcDbArc
 50
257.4365214518
 51
300.815570248
  0
ARC
  5
2C5
330
1F
100
AcDbEntity
  8
0
  6
Continuous
 62
     7
370
    25
100
AcDbCircle
 10
2676.1941116224
 20
3151.4211138184
 30
0.0
 40
15.97294173422878
100
AcDbArc
 50
300.8155944455
 51
339.3017403941
  0
ARC
  5
2C6
330
1F
100
AcDbEntity
  8
0
  6
Continuous
 62
     7
370
    25
100
AcDbCircle
 10
2680.0211396306
 20
3149.9751380578
 30
0.0
 40
11.88185517002591
100
AcDbArc
 50
339.3017188679
 51
2.3135835935
  0
ARC
  5
2C7
330
1F
100
AcDbEntity
  8
0
  6
Continuous
 62
     7
370
    25
100
AcDbCircle
 10
2673.1656867579
 20
3149.6981688984
 30
0.0
 40
18.74290071753139
100
AcDbArc
 50
2.3135769091
 51
18.6693668422
  0
ARC
  5
2C8
330
1F
100
AcDbEntity
  8
0
  6
Continuous
 62
     7
370
    25
100
AcDbCircle
 10
2672.7751683853
 20
3149.5662018582
 30
0.0
 40
19.15511413170266
100
AcDbArc
 50
18.6694136929
 51
34.8512165921
  0
ARC
  5
2C9
330
1F
100
AcDbEntity
  8
0
  6
Continuous
 62
     7
370
    25
100
AcDbCircle
 10
2677.6806851534
 20
3152.9821522763
 30
0.0
 40
13.17742126397142
100
AcDbArc
 50
34.8511445877
 51
56.2683107122
  0
ARC
  5
2CA
330
1F
100
AcDbEntity
  8
0
  6
Continuous
 62
     7
370
    25
100
AcDbCircle
 10
2567.5326266019
 20
3149.0910040389
 30
0.0
 40
16.87825114106092
100
AcDbArc
 50
47.85523429
 51
68.4247011295
  0
ARC
  5
2CB
330
1F
100
AcDbEntity
  8
0
  6
Continuous
 62
     7
370
    25
100
AcDbCircle
 10
2568.6849626329
 20
3152.005195851
 30
0.0
 40
13.74450063321203
100
AcDbArc
 50
68.4246194168
 51
92.4177656945
  0
ARC
  5
2CC
330
1F
100
AcDbEntity
  8
0
  6
Continuous
 62
     7
370
    25
100
AcDbCircle
 10
2568.7052592424
 20
3151.5247864707
 30
0.0
 40
14.22533857362463
100
AcDbArc
 50
92.4178150574
 51
115.936189847
  0
ARC
  5
2CD
330
1F
100
AcDbEntity
  8
0
  6
Continuous
 62
     7
370
    25
100
AcDbCircle
 10
2570.7171011722
 20
3147.3882152919
 30
0.0
 40
18.82520042669066
100
AcDbArc
 50
115.9361927375
 51
135.0000153056
  0
ARC
  5
2CE
330
1F
100
AcDbEntity
  8
0
  6
Continuous
 62
     7
370
    25
100
AcDbCircle
 10
2582.7016667041
 20
3135.40360936
 30
0.0
 40
35.773964108163
100
AcDbArc
 50
134.9999623008
 51
143.7186924829
  0
ARC
  5
2CF
330
1F
100
AcDbEntity
  8
0
  6
Continuous
 62
     7
370
    25
100
AcDbCircle
 10
2560.11844621
 20
3151.9812856141
 30
0.0
 40
7.759303698436229
100
AcDbArc
 50
143.7186455793
 51
170.8151952797
  0
ARC
  5
2D0
330
1F
100
AcDbEntity
  8
0
  6
Continuous
 62
     7
370
    25
100
AcDbCircle
 10
2559.8003759964
 20
3152.0327155791
 30
0.0
 40
7.437102360662138
100
AcDbArc
 50
170.8151982869
 51
198.6750780066
  0
ARC
  5
2D1
330
1F
100
AcDbEntity
  8
0
  6
Continuous
 62
     7
370
    25
100
AcDbCircle
 10
2582.8402965473
 20
3159.8201581835
 30
0.0
 40
31.75750945647966
100
AcDbArc
 50
198.6751258334
 51
208.1549174176
  0
ARC
  5
2D2
330
1F
100
AcDbEntity
  8
0
  6
Continuous
 62
     7
370
    25
100
AcDbCircle
 10
2573.0348489283
 20
3154.5724511959
 30
0.0
 40
20.63612322831635
100
AcDbArc
 50
208.1549139292
 51
225.5731352795
  0
ARC
  5
2D3
330
1F
100
AcDbEntity
  8
0
  6
Continuous
 62
     7
370
    25
100
AcDbCircle
 10
2568.5835104472
 20
3150.0311263802
 30
0.0
 40
14.27703167728514
100
AcDbArc
 50
225.5730534304
 51
248.5286504516
  0
ARC
  5
2D4
330
1F
100
AcDbEntity
  8
0
  6
Continuous
 62
     7
370
    25
100
AcDbCircle
 10
2567.8569420512
 20
3148.1839210485
 30
0.0
 40
12.29207092918333
100
AcDbArc
 50
248.5286576719
 51
273.5676518891
  0
ARC
  5
2D5
330
1F
100
AcDbEntity
  8
0
  6
Continuous
 62
     7
370
    25
100
AcDbCircle
 10
2567.8215498334
 20
3148.7514636812
 30
0.0
 40
12.86071602844805
100
AcDbArc
 50
273.5676836482
 51
297.7720755765
  0
ARC
  5
2D6
330
1F
100
AcDbEntity
  8
0
  6
Continuous
 62
     7
370
    25
100
AcDbCircle
 10
2562.9203034825
 20
3158.0584983099
 30
0.0
 40
23.37941886542025
100
AcDbArc
 50
297.7720736106
 51
318.1091758732
  0
ARC
  5
2D7
330
1F
100
AcDbEntity
  8
0
  6
Continuous
 62
     7
370
    25
100
AcDbCircle
 10
2570.0312509266
 20
3151.6802668271
 30
0.0
 40
13.82706782495915
100
AcDbArc
 50
318.1091714606
 51
348.2421887818
  0
ARC
  5
2D8
330
1F
100
AcDbEntity
  8
0
  6
Continuous
 62
     7
370
    25
100
AcDbCircle
 10
2571.9584562579
 20
3151.2791390068
 30
0.0
 40
11.858559781459
100
AcDbArc
 50
348.2421623933
 51
21.3211475124
  0
ARC
  5
2D9
330
1F
100
AcDbEntity
  8
0
  6
Continuous
 62
     7
370
    25
100
AcDbCircle
 10
2568.1772661181
 20
3149.8032970154
 30
0.0
 40
15.91756316364646
100
AcDbArc
 50
21.3211795952
 51
47.8552925342
  0
ARC
  5
2DA
330
1F
100
AcDbEntity
  8
0
  6
Continuous
 62
     7
370
    25
100
AcDbCircle
 10
2717.6647249217
 20
3190.5097820405
 30
0.0
 40
14.51460497733416
100
AcDbArc
 50
33.2337824489
 51
71.2858126441
  0
ARC
  5
2DB
330
1F
100
AcDbEntity
  8
0
  6
Continuous
 62
     7
370
    25
100
AcDbCircle
 10
2717.4245737486
 20
3189.8009286227
 30
0.0
 40
15.2630338340063
100
AcDbArc
 50
71.285734855
 51
107.9330406296
  0
ARC
  5
2DC
330
1F
100
AcDbEntity
  8
0
  6
Continuous
 62
     7
370
    25
100
AcDbCircle
 10
2717.6115303631
 20
3189.2231995213
 30
0.0
 40
15.87026006051695
100
AcDbArc
 50
107.9329967207
 51
143.7086182278
  0
ARC
  5
2DD
330
1F
100
AcDbEntity
  8
0
  6
Continuous
 62
     7
370
    25
100
AcDbCircle
 10
2717.3691845758
 20
3189.401156529
 30
0.0
 40
15.56959383840092
100
AcDbArc
 50
143.7085958194
 51
179.9999798175
  0
ARC
  5
2DE
330
1F
100
AcDbEntity
  8
0
  6
Continuous
 62
     7
370
    25
100
AcDbCircle
 10
2712.498343205
 20
3189.4011717723
 30
0.0
 40
10.69875246758865
100
AcDbArc
 50
180.0000522626
 51
226.3368181669
  0
ARC
  5
2DF
330
1F
100
AcDbEntity
  8
0
  6
Continuous
 62
     7
370
    25
100
AcDbCircle
 10
2716.159548408
 20
3193.2373768704
 30
0.0
 40
16.00166610945182
100
AcDbArc
 50
226.336918097
 51
260.6421845619
  0
ARC
  5
2E0
330
1F
100
AcDbEntity
  8
0
  6
Continuous
 62
     7
370
    25
100
AcDbCircle
 10
2716.5611667434
 20
3195.6745855209
 30
0.0
 40
18.47174369797591
100
AcDbArc
 50
260.6422322083
 51
292.0570519891
  0
ARC
  5
2E1
330
1F
100
AcDbEntity
  8
0
  6
Continuous
 62
     7
370
    25
100
AcDbCircle
 10
2718.2577256925
 20
3191.4874795283
 30
0.0
 40
13.95398221013768
100
AcDbArc
 50
292.0570272877
 51
330.8077848571
  0
ARC
  5
2E2
330
1F
100
AcDbEntity
  8
0
  6
Continuous
 62
     7
370
    25
100
AcDbCircle
 10
2695.6205325512
 20
3204.1349281189
 30
0.0
 40
39.88466807005174
100
AcDbArc
 50
330.8078035258
 51
337.3927137211
  0
ARC
  5
2E3
330
1F
100
AcDbEntity
  8
0
  6
Continuous
 62
     7
370
    25
100
AcDbCircle
 10
2726.4610638009
 20
3191.2926526042
 30
0.0
 40
6.477147836462125
100
AcDbArc
 50
337.3927105277
 51
2.633912466
  0
ARC
  5
2E4
330
1F
100
AcDbEntity
  8
0
  6
Continuous
 62
     7
370
    25
100
AcDbCircle
 10
2726.1894914858
 20
3191.2801750376
 30
0.0
 40
6.7490066449129
100
AcDbArc
 50
2.6337807189
 51
27.1816984967
  0
ARC
  5
2E5
330
1F
100
AcDbEntity
  8
0
  6
Continuous
 62
     7
370
    25
100
AcDbCircle
 10
2692.2065138234
 20
3173.8289374092
 30
0.0
 40
44.95094986209496
100
AcDbArc
 50
27.1817881764
 51
33.233794748
  0
ARC
  5
2E6
330
1F
100
AcDbEntity
  8
0
  6
Continuous
 62
     7
370
    25
100
AcDbCircle
 10
2528.6399569216
 20
3190.5097820404
 30
0.0
 40
14.51460497749445
100
AcDbArc
 50
33.2337824491
 51
71.285812644
  0
ARC
  5
2E7
330
1F
100
AcDbEntity
  8
0
  6
Continuous
 62
     7
370
    25
100
AcDbCircle
 10
2528.3998057486
 20
3189.8009286227
 30
0.0
 40
15.26303383403669
100
AcDbArc
 50
71.2857348552
 51
107.9330406294
  0
ARC
  5
2E8
330
1F
100
AcDbEntity
  8
0
  6
Continuous
 62
     7
370
    25
100
AcDbCircle
 10
2528.5867623631
 20
3189.2231995213
 30
0.0
 40
15.87026006055308
100
AcDbArc
 50
107.9329967207
 51
143.7086182278
  0
ARC
  5
2E9
330
1F
100
AcDbEntity
  8
0
  6
Continuous
 62
     7
370
    25
100
AcDbCircle
 10
2528.344416576
 20
3189.4011565289
 30
0.0
 40
15.56959383858299
100
AcDbArc
 50
143.7085958196
 51
179.9999798172
  0
ARC
  5
2EA
330
1F
100
AcDbEntity
  8
0
  6
Continuous
 62
     7
370
    25
100
AcDbCircle
 10
2523.473575205
 20
3189.4011717723
 30
0.0
 40
10.69875246759274
100
AcDbArc
 50
180.0000522626
 51
226.3368181669
  0
ARC
  5
2EB
330
1F
100
AcDbEntity
  8
0
  6
Continuous
 62
     7
370
    25
100
AcDbCircle
 10
2527.1347804081
 20
3193.2373768706
 30
0.0
 40
16.00166610960667
100
AcDbArc
 50
226.3369180972
 51
260.6421845617
  0
ARC
  5
2EC
330
1F
100
AcDbEntity
  8
0
  6
Continuous
 62
     7
370
    25
100
AcDbCircle
 10
2527.5363987434
 20
3195.6745855208
 30
0.0
 40
18.47174369783907
100
AcDbArc
 50
260.6422322083
 51
292.0570519892
  0
ARC
  5
2ED
330
1F
100
AcDbEntity
  8
0
  6
Continuous
 62
     7
370
    25
100
AcDbCircle
 10
2529.2329576925
 20
3191.4874795283
 30
0.0
 40
13.95398221011764
100
AcDbArc
 50
292.0570272876
 51
330.8077848571
  0
ARC
  5
2EE
330
1F
100
AcDbEntity
  8
0
  6
Continuous
 62
     7
370
    25
100
AcDbCircle
 10
2506.5957645442
 20
3204.1349281225
 30
0.0
 40
39.88466807790324
100
AcDbArc
 50
330.8078035262
 51
337.3927137202
  0
ARC
  5
2EF
330
1F
100
AcDbEntity
  8
0
  6
Continuous
 62
     7
370
    25
100
AcDbCircle
 10
2537.4362958013
 20
3191.2926526041
 30
0.0
 40
6.477147836042175
100
AcDbArc
 50
337.3927105274
 51
2.6339124673
  0
ARC
  5
2F0
330
1F
100
AcDbEntity
  8
0
  6
Continuous
 62
     7
370
    25
100
AcDbCircle
 10
2537.1647234857
 20
3191.2801750376
 30
0.0
 40
6.749006645050659
100
AcDbArc
 50
2.6337807191
 51
27.1816984964
  0
ARC
  5
2F1
330
1F
100
AcDbEntity
  8
0
  6
Continuous
 62
     7
370
    25
100
AcDbCircle
 10
2503.181745828
 20
3173.8289374118
 30
0.0
 40
44.95094985673647
100
AcDbArc
 50
27.1817881762
 51
33.2337947485
  0
ARC
  5
2F2
330
1F
100
AcDbEntity
  8
0
  6
Continuous
 62
     7
370
    25
100
AcDbCircle
 10
2731.6065775228
 20
3245.7827987925
 30
0.0
 40
14.39839622749252
100
AcDbArc
 50
42.1446659413
 51
77.1250267371
  0
ARC
  5
2F3
330
1F
100
AcDbEntity
  8
0
  6
Continuous
 62
     7
370
    25
100
AcDbCircle
 10
2731.9307455686
 20
3247.2010887669
 30
0.0
 40
12.94353150068981
100
AcDbArc
 50
77.1249758914
 51
115.0075636045
  0
ARC
  5
2F4
330
1F
100
AcDbEntity
  8
0
  6
Continuous
 62
     7
370
    25
100
AcDbCircle
 10
2732.6336860518
 20
3245.6941778498
 30
0.0
 40
14.60633210052081
100
AcDbArc
 50
115.0076140319
 51
150.171985838
  0
ARC
  5
2F5
330
1F
100
AcDbEntity
  8
0
  6
Continuous
 62
     7
370
    25
100
AcDbCircle
 10
2735.7488231487
 20
3243.9081133833
 30
0.0
 40
18.19716841128883
100
AcDbArc
 50
150.172025768
 51
180.0000092099
  0
ARC
  5
2F6
330
1F
100
AcDbEntity
  8
0
  6
Continuous
 62
     7
370
    25
100
AcDbCircle
 10
2730.1875615383
 20
3243.9081223503
 30
0.0
 40
12.63590680093887
100
AcDbArc
 50
180.0000539232
 51
195.1683538219
  0
ARC
  5
2F7
330
1F
100
AcDbEntity
  8
0
  6
Continuous
 62
     7
370
    25
100
AcDbCircle
 10
2729.5635967269
 20
3243.7389756566
 30
0.0
 40
11.98942192888925
100
AcDbArc
 50
195.1684035171
 51
210.9460651708
  0
ARC
  5
2F8
330
1F
100
AcDbEntity
  8
0
  6
Continuous
 62
     7
370
    25
100
AcDbCircle
 10
2730.8423934857
 20
3244.5057290345
 30
0.0
 40
13.48047252916764
100
AcDbArc
 50
210.9461097491
 51
225.7271440312
  0
ARC
  5
2F9
330
1F
100
AcDbEntity
  8
0
  6
Continuous
 62
     7
370
    25
100
AcDbCircle
 10
2735.324484172
 20
3249.1030721972
 30
0.0
 40
19.90111899787354
100
AcDbArc
 50
225.7271820418
 51
236.7661801888
  0
ARC
  5
2FA
330
1F
100
AcDbEntity
  8
0
  6
Continuous
 62
     7
370
    25
100
AcDbCircle
 10
2749.0532039397
 20
3270.0557875234
 30
0.0
 40
44.95094985557882
100
AcDbArc
 50
236.7662052518
 51
242.8182118241
  0
ARC
  5
2FB
330
1F
100
AcDbEntity
  8
0
  6
Continuous
 62
     7
370
    25
100
AcDbCircle
 10
2731.6019663148
 20
3236.0728098668
 30
0.0
 40
6.74900664523858
100
AcDbArc
 50
242.8183015038
 51
267.3662192807
  0
ARC
  5
2FC
330
1F
100
AcDbEntity
  8
0
  6
Continuous
 62
     7
370
    25
100
AcDbCircle
 10
2731.5894887482
 20
3235.8012375515
 30
0.0
 40
6.477147836568997
100
AcDbArc
 50
267.3660875338
 51
292.6072894716
  0
ARC
  5
2FD
330
1F
100
AcDbEntity
  8
0
  6
Continuous
 62
     7
370
    25
100
AcDbCircle
 10
2718.7472132285
 20
3266.6417688111
 30
0.0
 40
39.88466808117802
100
AcDbArc
 50
292.60728628
 51
299.1921964734
  0
ARC
  5
2FE
330
1F
100
AcDbEntity
  8
0
  6
Continuous
 62
     7
370
    25
100
AcDbCircle
 10
2730.7663939061
 20
3245.129054825
 30
0.0
 40
15.24207148081874
100
AcDbArc
 50
299.192275018
 51
325.007956184
  0
ARC
  5
2FF
330
1F
100
AcDbEntity
  8
0
  6
Continuous
 62
     7
370
    25
100
AcDbCircle
 10
2730.3497187121
 20
3245.4207212295
 30
0.0
 40
15.75068480033361
100
AcDbArc
 50
325.0079755162
 51
350.1961951355
  0
ARC
  5
300
330
1F
100
AcDbEntity
  8
0
  6
Continuous
 62
     7
370
    25
100
AcDbCircle
 10
2730.5576527782
 20
3245.3847994574
 30
0.0
 40
15.53967070252247
100
AcDbArc
 50
350.1961628068
 51
15.5804487405
  0
ARC
  5
301
330
1F
100
AcDbEntity
  8
0
  6
Continuous
 62
     7
370
    25
100
AcDbCircle
 10
2731.4380409473
 20
3245.6302797118
 30
0.0
 40
14.6256992130534
100
AcDbArc
 50
15.5804665986
 51
42.1446536743
  0
ARC
  5
302
330
1F
100
AcDbEntity
  8
0
  6
Continuous
 62
     7
370
    25
100
AcDbCircle
 10
2511.1307785209
 20
3242.2004533582
 30
0.0
 40
18.77038512824996
100
AcDbArc
 50
47.8552730579
 51
70.6148190159
  0
ARC
  5
303
330
1F
100
AcDbEntity
  8
0
  6
Continuous
 62
     7
370
    25
100
AcDbCircle
 10
2513.4755500433
 20
3248.8643165715
 30
0.0
 40
11.70603615486103
100
AcDbArc
 50
70.6147818545
 51
103.0246486457
  0
ARC
  5
304
330
1F
100
AcDbEntity
  8
0
  6
Continuous
 62
     7
370
    25
100
AcDbCircle
 10
2513.7725155317
 20
3247.580479748
 30
0.0
 40
13.02377113979348
100
AcDbArc
 50
103.024591215
 51
133.3880024411
  0
ARC
  5
305
330
1F
100
AcDbEntity
  8
0
  6
Continuous
 62
     7
370
    25
100
AcDbCircle
 10
2521.7580523666
 20
3239.1325054339
 30
0.0
 40
24.64861817326545
100
AcDbArc
 50
133.3880613963
 51
152.2279063911
  0
ARC
  5
306
330
1F
100
AcDbEntity
  8
0
  6
Continuous
 62
     7
370
    25
100
AcDbCircle
 10
2511.3280238027
 20
3244.6251497112
 30
0.0
 40
12.86071602737702
100
AcDbArc
 50
152.2279244224
 51
176.4323163527
  0
ARC
  5
307
330
1F
100
AcDbEntity
  8
0
  6
Continuous
 62
     7
370
    25
100
AcDbCircle
 10
2510.7604811706
 20
3244.6605419286
 30
0.0
 40
12.29207092870921
100
AcDbArc
 50
176.4323481107
 51
201.4713423289
  0
ARC
  5
308
330
1F
100
AcDbEntity
  8
0
  6
Continuous
 62
     7
370
    25
100
AcDbCircle
 10
2512.6076865024
 20
3245.3871103244
 30
0.0
 40
14.27703167687381
100
AcDbArc
 50
201.471349548
 51
224.42694657
  0
ARC
  5
309
330
1F
100
AcDbEntity
  8
0
  6
Continuous
 62
     7
370
    25
100
AcDbCircle
 10
2517.1490113188
 20
3249.838448806
 30
0.0
 40
20.6361232287404
100
AcDbArc
 50
224.4268647205
 51
241.8450860703
  0
ARC
  5
30A
330
1F
100
AcDbEntity
  8
0
  6
Continuous
 62
     7
370
    25
100
AcDbCircle
 10
2522.396718307
 20
3259.6438964275
 30
0.0
 40
31.7575094594559
100
AcDbArc
 50
241.8450825831
 51
251.3248741664
  0
ARC
  5
30B
330
1F
100
AcDbEntity
  8
0
  6
Continuous
 62
     7
370
    25
100
AcDbCircle
 10
2514.6092757017
 20
3236.603975874
 30
0.0
 40
7.43710236082492
100
AcDbArc
 50
251.3249219938
 51
279.1848017127
  0
ARC
  5
30C
330
1F
100
AcDbEntity
  8
0
  6
Continuous
 62
     7
370
    25
100
AcDbCircle
 10
2514.5578457365
 20
3236.9220460877
 30
0.0
 40
7.759303698731851
100
AcDbArc
 50
279.1848047208
 51
306.28135442
  0
ARC
  5
30D
330
1F
100
AcDbEntity
  8
0
  6
Continuous
 62
     7
370
    25
100
AcDbCircle
 10
2497.9801694812
 20
3259.505266583
 30
0.0
 40
35.77396411011741
100
AcDbArc
 50
306.2813075174
 51
315.0000376989
  0
ARC
  5
30E
330
1F
100
AcDbEntity
  8
0
  6
Continuous
 62
     7
370
    25
100
AcDbCircle
 10
2510.4187920532
 20
3247.0666899544
 30
0.0
 40
18.1831278584397
100
AcDbArc
 50
314.9999718025
 51
335.400739782
  0
ARC
  5
30F
330
1F
100
AcDbEntity
  8
0
  6
Continuous
 62
     7
370
    25
100
AcDbCircle
 10
2513.2016837413
 20
3245.7926342839
 30
0.0
 40
15.12245734373062
100
AcDbArc
 50
335.4007116771
 51
358.8242891628
  0
ARC
  5
310
330
1F
100
AcDbEntity
  8
0
  6
Continuous
 62
     7
370
    25
100
AcDbCircle
 10
2514.3937995885
 20
3245.7681566662
 30
0.0
 40
13.93009022462729
100
AcDbArc
 50
358.8243382482
 51
23.3801857287
  0
ARC
  5
311
330
1F
100
AcDbEntity
  8
0
  6
Continuous
 62
     7
370
    25
100
AcDbCircle
 10
2514.3374193683
 20
3245.743747979
 30
0.0
 40
13.99152728408141
100
AcDbArc
 50
23.3803132745
 51
47.8552750069
  0
ARC
  5
312
330
1F
100
AcDbEntity
  8
0
  6
Continuous
 62
     7
370
    25
100
AcDbCircle
 10
2623.7400765706
 20
3248.5336746402
 30
0.0
 40
51.18714360404442
100
AcDbArc
 50
67.3285034156
 51
90.9713724404
  0
ARC
  5
313
330
1F
100
AcDbEntity
  8
0
  6
Continuous
 62
     7
370
    25
100
AcDbCircle
 10
2623.8149589875
 20
3244.1124254784
 30
0.0
 40
55.60902685911605
100
AcDbArc
 50
90.9712889291
 51
113.190160739
  0
ARC
  5
314
330
1F
100
AcDbEntity
  8
0
  6
Continuous
 62
     7
370
    25
100
AcDbCircle
 10
2624.3818326679
 20
3242.7892084557
 30
0.0
 40
57.04855770580026
100
AcDbArc
 50
113.1901709821
 51
135.0934209897
  0
ARC
  5
315
330
1F
100
AcDbEntity
  8
0
  6
Continuous
 62
     7
370
    25
100
AcDbCircle
 10
2623.5799171713
 20
3243.5886355354
 30
0.0
 40
55.91623614729674
100
AcDbArc
 50
135.0935098057
 51
157.3285010455
  0
ARC
  5
316
330
1F
100
AcDbEntity
  8
0
  6
Continuous
 62
     7
370
    25
100
AcDbCircle
 10
2620.3317102428
 20
3244.9454916914
 30
0.0
 40
52.39602210855293
100
AcDbArc
 50
157.3285009256
 51
174.4732633339
  0
ARC
  5
317
330
1F
100
AcDbEntity
  8
0
  6
Continuous
 62
     7
370
    25
100
AcDbCircle
 10
2617.9995875722
 20
3245.1711395422
 30
0.0
 40
50.05300842887422
100
AcDbArc
 50
174.4732537298
 51
192.2163707949
  0
ARC
  5
318
330
1F
100
AcDbEntity
  8
0
  6
Continuous
 62
     7
370
    25
100
AcDbCircle
 10
2619.9757098889
 20
3245.5989682658
 30
0.0
 40
52.07491268649577
100
AcDbArc
 50
192.2163545561
 51
209.575786401
  0
ARC
  5
319
330
1F
100
AcDbEntity
  8
0
  6
Continuous
 62
     7
370
    25
100
AcDbCircle
 10
2627.7077557407
 20
3249.9869733318
 30
0.0
 40
60.96530758825633
100
AcDbArc
 50
209.5757151054
 51
225.000014667
  0
ARC
  5
31A
330
1F
100
AcDbEntity
  8
0
  6
Continuous
 62
     7
370
    25
100
AcDbCircle
 10
2626.877520442
 20
3249.1566758507
 30
0.0
 40
59.7911335993029
100
AcDbArc
 50
224.9999728205
 51
245.9349527124
  0
ARC
  5
31B
330
1F
100
AcDbEntity
  8
0
  6
Continuous
 62
     7
370
    25
100
AcDbCircle
 10
2623.2847580732
 20
3241.1118021631
 30
0.0
 40
50.98046199674192
100
AcDbArc
 50
245.9349573938
 51
269.5274861694
  0
ARC
  5
31C
330
1F
100
AcDbEntity
  8
0
  6
Continuous
 62
     7
370
    25
100
AcDbCircle
 10
2623.2779832557
 20
3240.2961909406
 30
0.0
 40
50.16482263890737
100
AcDbArc
 50
269.527541428
 51
293.3402351835
  0
ARC
  5
31D
330
1F
100
AcDbEntity
  8
0
  6
Continuous
 62
     7
370
    25
100
AcDbCircle
 10
2620.6589721359
 20
3246.3657035856
 30
0.0
 40
56.77528427131239
100
AcDbArc
 50
293.3402460316
 51
315.0424990842
  0
ARC
  5
31E
330
1F
100
AcDbEntity
  8
0
  6
Continuous
 62
     7
370
    25
100
AcDbCircle
 10
2619.1664643652
 20
3247.8560159206
 30
0.0
 40
58.88445716641745
100
AcDbArc
 50
315.0424873407
 51
341.8302795217
  0
ARC
  5
31F
330
1F
100
AcDbEntity
  8
0
  6
Continuous
 62
     7
370
    25
100
AcDbCircle
 10
2625.1283330658
 20
3245.8993397886
 30
0.0
 40
52.60970937163563
100
AcDbArc
 50
341.8302837979
 51
10.978206012
  0
ARC
  5
320
330
1F
100
AcDbEntity
  8
0
  6
Continuous
 62
     7
370
    25
100
AcDbCircle
 10
2625.4491063049
 20
3245.9615179018
 30
0.0
 40
52.28296545576401
100
AcDbArc
 50
10.9782568691
 51
40.2341851394
  0
ARC
  5
321
330
1F
100
AcDbEntity
  8
0
  6
Continuous
 62
     7
370
    25
100
AcDbCircle
 10
2621.1440769617
 20
3242.3190305544
 30
0.0
 40
57.92220225873513
100
AcDbArc
 50
40.2342231958
 51
67.3285129492
  0
ARC
  5
322
330
1F
100
AcDbEntity
  8
0
  6
Continuous
 62
     7
370
    25
100
AcDbCircle
 10
2712.6537103737
 20
3293.7552751299
 30
0.0
 40
22.69303645698628
100
AcDbArc
 50
55.0412110501
 51
63.4349546464
  0
ARC
  5
323
330
1F
100
AcDbEntity
  8
0
  6
Continuous
 62
     7
370
    25
100
AcDbCircle
 10
2713.7278410592
 20
3295.903571611
 30
0.0
 40
20.29117582411389
100
AcDbArc
 50
63.4349109992
 51
72.1701184505
  0
ARC
  5
324
330
1F
100
AcDbEntity
  8
0
  6
Continuous
 62
     7
370
    25
100
AcDbCircle
 10
2721.3754684156
 20
3295.9035716112
 30
0.0
 40
20.29117582391379
100
AcDbArc
 50
107.8298815493
 51
116.5650890008
  0
ARC
  5
325
330
1F
100
AcDbEntity
  8
0
  6
Continuous
 62
     7
370
    25
100
AcDbCircle
 10
2722.4495991012
 20
3293.7552751299
 30
0.0
 40
22.69303645706498
100
AcDbArc
 50
116.5650453537
 51
124.9587889499
  0
ARC
  5
326
330
1F
100
AcDbEntity
  8
0
  6
Continuous
 62
     7
370
    25
100
AcDbCircle
 10
2723.6392502225
 20
3294.944926251
 30
0.0
 40
22.69303645711176
100
AcDbArc
 50
145.04121105
 51
153.4349546463
  0
ARC
  5
327
330
1F
100
AcDbEntity
  8
0
  6
Continuous
 62
     7
370
    25
100
AcDbCircle
 10
2721.4909537411
 20
3296.0190569368
 30
0.0
 40
20.29117582381891
100
AcDbArc
 50
153.4349109992
 51
162.1701184507
  0
ARC
  5
328
330
1F
100
AcDbEntity
  8
0
  6
Continuous
 62
     7
370
    25
100
AcDbCircle
 10
2721.4909537411
 20
3303.666684293
 30
0.0
 40
20.29117582379837
100
AcDbArc
 50
197.8298815494
 51
206.5650890009
  0
ARC
  5
329
330
1F
100
AcDbEntity
  8
0
  6
Continuous
 62
     7
370
    25
100
AcDbCircle
 10
2723.6392502225
 20
3304.7408149788
 30
0.0
 40
22.69303645715473
100
AcDbArc
 50
206.5650453538
 51
214.9587889499
  0
ARC
  5
32A
330
1F
100
AcDbEntity
  8
0
  6
Continuous
 62
     7
370
    25
100
AcDbCircle
 10
2722.4495991012
 20
3305.9304661
 30
0.0
 40
22.69303645709468
100
AcDbArc
 50
235.0412110501
 51
243.4349546463
  0
ARC
  5
32B
330
1F
100
AcDbEntity
  8
0
  6
Continuous
 62
     7
370
    25
100
AcDbCircle
 10
2721.3754684156
 20
3303.7821696187
 30
0.0
 40
20.29117582394062
100
AcDbArc
 50
243.4349109992
 51
252.1701184506
  0
ARC
  5
32C
330
1F
100
AcDbEntity
  8
0
  6
Continuous
 62
     7
370
    25
100
AcDbCircle
 10
2713.7278410593
 20
3303.7821696186
 30
0.0
 40
20.2911758238611
100
AcDbArc
 50
287.8298815495
 51
296.5650890009
  0
ARC
  5
32D
330
1F
100
AcDbEntity
  8
0
  6
Continuous
 62
     7
370
    25
100
AcDbCircle
 10
2712.6537103736
 20
3305.9304660999
 30
0.0
 40
22.69303645701396
100
AcDbArc
 50
296.5650453537
 51
304.9587889499
  0
ARC
  5
32E
330
1F
100
AcDbEntity
  8
0
  6
Continuous
 62
     7
370
    25
100
AcDbCircle
 10
2711.4640592523
 20
3304.7408149788
 30
0.0
 40
22.69303645716856
100
AcDbArc
 50
325.0412110501
 51
333.4349546463
  0
ARC
  5
32F
330
1F
100
AcDbEntity
  8
0
  6
Continuous
 62
     7
370
    25
100
AcDbCircle
 10
2713.6123557338
 20
3303.666684293
 30
0.0
 40
20.29117582379042
100
AcDbArc
 50
333.4349109991
 51
342.1701184506
  0
ARC
  5
330
330
1F
100
AcDbEntity
  8
0
  6
Continuous
 62
     7
370
    25
100
AcDbCircle
 10
2713.6123557338
 20
3296.0190569368
 30
0.0
 40
20.29117582377803
100
AcDbArc
 50
17.8298815493
 51
26.5650890008
  0
ARC
  5
331
330
1F
100
AcDbEntity
  8
0
  6
Continuous
 62
     7
370
    25
100
AcDbCircle
 10
2711.4640592523
 20
3294.944926251
 30
0.0
 40
22.69303645713129
100
AcDbArc
 50
26.5650453537
 51
34.9587889499
  0
ARC
  5
332
330
1F
100
AcDbEntity
  8
0
  6
Continuous
 62
     7
370
    25
100
AcDbCircle
 10
2527.9209491516
 20
3298.7213642233
 30
0.0
 40
16.48519254444357
100
AcDbArc
 50
53.8251073954
 51
62.8795439075
  0
ARC
  5
333
330
1F
100
AcDbEntity
  8
0
  6
Continuous
 62
     7
370
    25
100
AcDbCircle
 10
2524.4055623402
 20
3291.8577500009
 30
0.0
 40
24.19668686322833
100
AcDbArc
 50
62.8795329126
 51
69.6709902647
  0
ARC
  5
334
330
1F
100
AcDbEntity
  8
0
  6
Continuous
 62
     7
370
    25
100
AcDbCircle
 10
2524.9652208075
 20
3293.3683801569
 30
0.0
 40
22.58571787903148
100
AcDbArc
 50
69.6709658298
 51
76.6108005977
  0
ARC
  5
335
330
1F
100
AcDbEntity
  8
0
  6
Continuous
 62
     7
370
    25
100
AcDbCircle
 10
2528.0251142328
 20
3306.2231822778
 30
0.0
 40
9.371752337137684
100
AcDbArc
 50
76.6108494111
 51
90.0000580437
  0
ARC
  5
336
330
1F
100
AcDbEntity
  8
0
  6
Continuous
 62
     7
370
    25
100
AcDbCircle
 10
2528.0251134474
 20
3306.1233163879
 30
0.0
 40
9.471618227001638
100
AcDbArc
 50
90.0000526805
 51
120.9840703374
  0
ARC
  5
337
330
1F
100
AcDbEntity
  8
0
  6
Continuous
 62
     7
370
    25
100
AcDbCircle
 10
2536.1046188356
 20
3292.668365658
 30
0.0
 40
25.16601552224134
100
AcDbArc
 50
120.9841598996
 51
135.9272308692
  0
ARC
  5
338
330
1F
100
AcDbEntity
  8
0
  6
Continuous
 62
     7
370
    25
100
AcDbCircle
 10
2536.3406237305
 20
3292.4399009017
 30
0.0
 40
25.49448843593041
100
AcDbArc
 50
135.9272671959
 51
150.7947989692
  0
ARC
  5
339
330
1F
100
AcDbEntity
  8
0
  6
Continuous
 62
     7
370
    25
100
AcDbCircle
 10
2536.3406237305
 20
3307.245840328
 30
0.0
 40
25.49448843594424
100
AcDbArc
 50
209.2052010308
 51
224.0727328041
  0
ARC
  5
33A
330
1F
100
AcDbEntity
  8
0
  6
Continuous
 62
     7
370
    25
100
AcDbCircle
 10
2536.1046188363
 20
3307.0173755728
 30
0.0
 40
25.16601552347677
100
AcDbArc
 50
224.0727691315
 51
239.0158401003
  0
ARC
  5
33B
330
1F
100
AcDbEntity
  8
0
  6
Continuous
 62
     7
370
    25
100
AcDbCircle
 10
2528.0251134474
 20
3293.5624248421
 30
0.0
 40
9.4716182272285
100
AcDbArc
 50
239.0159296632
 51
269.9999473193
  0
ARC
  5
33C
330
1F
100
AcDbEntity
  8
0
  6
Continuous
 62
     7
370
    25
100
AcDbCircle
 10
2528.0251059905
 20
3297.0017890728
 30
0.0
 40
12.91098245788111
100
AcDbArc
 50
269.9999944447
 51
310.0524529013
  0
ARC
  5
33D
330
1F
100
AcDbEntity
  8
0
  6
Continuous
 62
     7
370
    25
100
AcDbCircle
 10
2524.5989742729
 20
3301.0773281241
 30
0.0
 40
18.235303739086
100
AcDbArc
 50
310.0524179365
 51
340.9880549586
  0
ARC
  5
33E
330
1F
100
AcDbEntity
  8
0
  6
Continuous
 62
     7
370
    25
100
AcDbCircle
 10
2525.0136245166
 20
3300.9344491796
 30
0.0
 40
17.79672738617227
100
AcDbArc
 50
340.9880753925
 51
12.3833283046
  0
ARC
  5
33F
330
1F
100
AcDbEntity
  8
0
  6
Continuous
 62
     7
370
    25
100
AcDbCircle
 10
2530.4046626111
 20
3302.1180795392
 30
0.0
 40
12.27728243548663
100
AcDbArc
 50
12.3834279093
 51
53.8250271549
  0
ARC
  5
340
330
1F
100
AcDbEntity
  8
0
  6
Continuous
 62
     7
370
    25
100
AcDbCircle
 10
2678.6812438833
 20
3343.5054313378
 30
0.0
 40
11.37557410814498
100
AcDbArc
 50
56.268219436
 51
92.1086947367
  0
ARC
  5
341
330
1F
100
AcDbEntity
  8
0
  6
Continuous
 62
     7
370
    25
100
AcDbCircle
 10
2678.9252212442
 20
3336.8786495441
 30
0.0
 40
18.00684562215605
100
AcDbArc
 50
92.1086226197
 51
117.5241489387
  0
ARC
  5
342
330
1F
100
AcDbEntity
  8
0
  6
Continuous
 62
     7
370
    25
100
AcDbCircle
 10
2678.8083419844
 20
3337.1029263695
 30
0.0
 40
17.75394078682007
100
AcDbArc
 50
117.5241261463
 51
143.1469920905
  0
ARC
  5
343
330
1F
100
AcDbEntity
  8
0
  6
Continuous
 62
     7
370
    25
100
AcDbCircle
 10
2673.3421701308
 20
3341.2000323903
 30
0.0
 40
10.9227393934003
100
AcDbArc
 50
143.1469680464
 51
179.9999703742
  0
ARC
  5
344
330
1F
100
AcDbEntity
  8
0
  6
Continuous
 62
     7
370
    25
100
AcDbCircle
 10
2680.0960759347
 20
3341.2000192838
 30
0.0
 40
17.67664519727439
100
AcDbArc
 50
179.9999392112
 51
215.9792716063
  0
ARC
  5
345
330
1F
100
AcDbEntity
  8
0
  6
Continuous
 62
     7
370
    25
100
AcDbCircle
 10
2677.6261836438
 20
3339.4068782389
 30
0.0
 40
14.62447830556873
100
AcDbArc
 50
215.9791951138
 51
257.4365398906
  0
ARC
  5
346
330
1F
100
AcDbEntity
  8
0
  6
Continuous
 62
     7
370
    25
100
AcDbCircle
 10
2677.4052431486
 20
3338.4154576899
 30
0.0
 40
13.60873748860563
100
AcDbArc
 50
257.4365214519
 51
300.8155702479
  0
ARC
  5
347
330
1F
100
AcDbEntity
  8
0
  6
Continuous
 62
     7
370
    25
100
AcDbCircle
 10
2676.1941116225
 20
3340.4458818184
 30
0.0
 40
15.97294173420376
100
AcDbArc
 50
300.8155944455
 51
339.3017403943
  0
ARC
  5
348
330
1F
100
AcDbEntity
  8
0
  6
Continuous
 62
     7
370
    25
100
AcDbCircle
 10
2680.0211396301
 20
3338.9999060579
 30
0.0
 40
11.88185517054457
100
AcDbArc
 50
339.3017188684
 51
2.313583593
  0
ARC
  5
349
330
1F
100
AcDbEntity
  8
0
  6
Continuous
 62
     7
370
    25
100
AcDbCircle
 10
2673.1656867579
 20
3338.7229368984
 30
0.0
 40
18.74290071753702
100
AcDbArc
 50
2.3135769091
 51
18.6693668422
  0
ARC
  5
34A
330
1F
100
AcDbEntity
  8
0
  6
Continuous
 62
     7
370
    25
100
AcDbCircle
 10
2672.7751683862
 20
3338.5909698586
 30
0.0
 40
19.15511413076896
100
AcDbArc
 50
18.6694136927
 51
34.8512165926
  0
ARC
  5
34B
330
1F
100
AcDbEntity
  8
0
  6
Continuous
 62
     7
370
    25
100
AcDbCircle
 10
2677.6806851533
 20
3342.0069202761
 30
0.0
 40
13.17742126419007
100
AcDbArc
 50
34.851144588
 51
56.2683107119
  0
ARC
  5
34C
330
1F
100
AcDbEntity
  8
0
  6
Continuous
 62
     7
370
    25
100
AcDbCircle
 10
2567.4828764608
 20
3338.0607964254
 30
0.0
 40
16.95239555834298
100
AcDbArc
 50
47.8552398383
 51
70.7110002345
  0
ARC
  5
34D
330
1F
100
AcDbEntity
  8
0
  6
Continuous
 62
     7
370
    25
100
AcDbCircle
 10
2567.978060867
 20
3339.4757386196
 30
0.0
 40
15.45330616520725
100
AcDbArc
 50
70.7109430041
 51
95.2094687244
  0
ARC
  5
34E
330
1F
100
AcDbEntity
  8
0
  6
Continuous
 62
     7
370
    25
100
AcDbCircle
 10
2567.8926632408
 20
3340.4123675934
 30
0.0
 40
14.51279216260031
100
AcDbArc
 50
95.2094622763
 51
120.6098212807
  0
ARC
  5
34F
330
1F
100
AcDbEntity
  8
0
  6
Continuous
 62
     7
370
    25
100
AcDbCircle
 10
2567.6090966398
 20
3340.8916600129
 30
0.0
 40
13.95589788120919
100
AcDbArc
 50
120.6098108534
 51
146.7662233705
  0
ARC
  5
350
330
1F
100
AcDbEntity
  8
0
  6
Continuous
 62
     7
370
    25
100
AcDbCircle
 10
2568.3955960085
 20
3340.3763145002
 30
0.0
 40
14.89619690514937
100
AcDbArc
 50
146.7661838082
 51
183.8516114425
  0
ARC
  5
351
330
1F
100
AcDbEntity
  8
0
  6
Continuous
 62
     7
370
    25
100
AcDbCircle
 10
2569.795162098
 20
3340.470536872
 30
0.0
 40
16.29893105460501
100
AcDbArc
 50
183.8516007179
 51
218.5215919312
  0
ARC
  5
352
330
1F
100
AcDbEntity
  8
0
  6
Continuous
 62
     7
370
    25
100
AcDbCircle
 10
2568.4673823149
 20
3339.4135635264
 30
0.0
 40
14.60181826945073
100
AcDbArc
 50
218.5216152579
 51
255.6293659685
  0
ARC
  5
353
330
1F
100
AcDbEntity
  8
0
  6
Continuous
 62
     7
370
    25
100
AcDbCircle
 10
2567.8990620842
 20
3337.1954154954
 30
0.0
 40
12.31202164707165
100
AcDbArc
 50
255.629403281
 51
297.7831451505
  0
ARC
  5
354
330
1F
100
AcDbEntity
  8
0
  6
Continuous
 62
     7
370
    25
100
AcDbCircle
 10
2562.3353709697
 20
3347.7553672493
 30
0.0
 40
24.24798578336741
100
AcDbArc
 50
297.7832068816
 51
317.6725143827
  0
ARC
  5
355
330
1F
100
AcDbEntity
  8
0
  6
Continuous
 62
     7
370
    25
100
AcDbCircle
 10
2570.0097180954
 20
3340.7655195878
 30
0.0
 40
13.86754387862586
100
AcDbArc
 50
317.6725035682
 51
347.8895328262
  0
ARC
  5
356
330
1F
100
AcDbEntity
  8
0
  6
Continuous
 62
     7
370
    25
100
AcDbCircle
 10
2572.0940506515
 20
3340.3182788295
 30
0.0
 40
11.73576844477055
100
AcDbArc
 50
347.8895341655
 51
21.3369662036
  0
ARC
  5
357
330
1F
100
AcDbEntity
  8
0
  6
Continuous
 62
     7
370
    25
100
AcDbCircle
 10
2568.1215529411
 20
3338.766495658
 30
0.0
 40
16.00059775792922
100
AcDbArc
 50
21.3370252729
 51
47.8553093502
  0
ARC
  5
358
330
1F
100
AcDbEntity
  8
0
  6
Continuous
 62
     7
370
    25
100
AcDbCircle
 10
2593.9316491455
 20
3325.8674411771
 30
0.0
 40
54.32797075136721
100
AcDbArc
 50
45.0000237485
 51
48.7860136128
  0
ARC
  5
359
330
1F
100
AcDbEntity
  8
0
  6
Continuous
 62
     7
370
    25
100
AcDbCircle
 10
2605.3488080028
 20
3338.9027385057
 30
0.0
 40
36.99965597987733
100
AcDbArc
 50
48.7860098848
 51
53.8350137218
  0
ARC
  5
35A
330
1F
100
AcDbEntity
  8
0
  6
Continuous
 62
     7
370
    25
100
AcDbCircle
 10
2607.6520327812
 20
3342.0537840034
 30
0.0
 40
33.0965889669835
100
AcDbArc
 50
53.8349632388
 51
58.429927337
  0
ARC
  5
35B
330
1F
100
AcDbEntity
  8
0
  6
Continuous
 62
     7
370
    25
100
AcDbCircle
 10
2623.999754711
 20
3368.6577484382
 30
0.0
 40
1.871295758766214
100
AcDbArc
 50
58.4300068566
 51
95.667886946
  0
ARC
  5
35C
330
1F
100
AcDbEntity
  8
0
  6
Continuous
 62
     7
370
    25
100
AcDbCircle
 10
2625.6762264346
 20
3351.7660692482
 30
0.0
 40
18.84596463028728
100
AcDbArc
 50
95.667945055
 51
115.3557064032
  0
ARC
  5
35D
330
1F
100
AcDbEntity
  8
0
  6
Continuous
 62
     7
370
    25
100
AcDbCircle
 10
2626.1896481374
 20
3350.6826744784
 30
0.0
 40
20.04485831692008
100
AcDbArc
 50
115.3557426812
 51
134.1537016753
  0
ARC
  5
35E
330
1F
100
AcDbEntity
  8
0
  6
Continuous
 62
     7
370
    25
100
AcDbCircle
 10
2624.8377416904
 20
3352.0751385055
 30
0.0
 40
18.1040834438033
100
AcDbArc
 50
134.1537428029
 51
154.0050637062
  0
ARC
  5
35F
330
1F
100
AcDbEntity
  8
0
  6
Continuous
 62
     7
370
    25
100
AcDbCircle
 10
2619.9196765021
 20
3354.473302607
 30
0.0
 40
12.63246976467541
100
AcDbArc
 50
154.0050696568
 51
179.9999546023
  0
ARC
  5
360
330
1F
100
AcDbEntity
  8
0
  6
Continuous
 62
     7
370
    25
100
AcDbCircle
 10
2616.7588249647
 20
3354.4733213249
 30
0.0
 40
9.471618227291312
100
AcDbArc
 50
180.0000526811
 51
210.9840703367
  0
ARC
  5
361
330
1F
100
AcDbEntity
  8
0
  6
Continuous
 62
     7
370
    25
100
AcDbCircle
 10
2630.2137756958
 20
3362.5528267142
 30
0.0
 40
25.16601552413906
100
AcDbArc
 50
210.9841599
 51
225.9272308684
  0
ARC
  5
362
330
1F
100
AcDbEntity
  8
0
  6
Continuous
 62
     7
370
    25
100
AcDbCircle
 10
2630.4422404505
 20
3362.7888316079
 30
0.0
 40
25.49448843583937
100
AcDbArc
 50
225.9272671959
 51
240.7947989693
  0
ARC
  5
363
330
1F
100
AcDbEntity
  8
0
  6
Continuous
 62
     7
370
    25
100
AcDbCircle
 10
2623.0392721851
 20
3349.5456013284
 30
0.0
 40
10.32257071348416
100
AcDbArc
 50
240.7947956035
 51
269.9999919643
  0
ARC
  5
364
330
1F
100
AcDbEntity
  8
0
  6
Continuous
 62
     7
370
    25
100
AcDbCircle
 10
2623.0392732354
 20
3349.2770836864
 30
0.0
 40
10.05405307146213
100
AcDbArc
 50
269.9999857647
 51
299.0642450694
  0
ARC
  5
365
330
1F
100
AcDbEntity
  8
0
  6
Continuous
 62
     7
370
    25
100
AcDbCircle
 10
2614.514563466
 20
3364.6155650112
 30
0.0
 40
27.60226340762951
100
AcDbArc
 50
299.0641605075
 51
312.7454730995
  0
ARC
  5
366
330
1F
100
AcDbEntity
  8
0
  6
Continuous
 62
     7
370
    25
100
AcDbCircle
 10
2614.975163593
 20
3364.1172302924
 30
0.0
 40
26.92366929571961
100
AcDbArc
 50
312.7454461203
 51
326.5318048164
  0
ARC
  5
367
330
1F
100
AcDbEntity
  8
0
  6
Continuous
 62
     7
370
    25
100
AcDbCircle
 10
2630.6091777138
 20
3353.7817629727
 30
0.0
 40
8.1821570235965
100
AcDbArc
 50
326.5318918576
 51
359.9999625624
  0
ARC
  5
368
330
1F
100
AcDbEntity
  8
0
  6
Continuous
 62
     7
370
    25
100
AcDbCircle
 10
2633.9425007607
 20
3353.7817512652
 30
0.0
 40
4.848833976727527
100
AcDbArc
 50
0.0000751663
 51
24.2715493725
  0
ARC
  5
369
330
1F
100
AcDbEntity
  8
0
  6
Continuous
 62
     7
370
    25
100
AcDbCircle
 10
2615.8457192945
 20
3345.6215251484
 30
0.0
 40
24.70035255123518
100
AcDbArc
 50
24.2716162143
 51
31.5347468845
  0
ARC
  5
36A
330
1F
100
AcDbEntity
  8
0
  6
Continuous
 62
     7
370
    25
100
AcDbCircle
 10
2611.2475273327
 20
3342.7998618957
 30
0.0
 40
30.09527171911235
100
AcDbArc
 50
31.5348287179
 51
38.459551235
  0
ARC
  5
36B
330
1F
100
AcDbEntity
  8
0
  6
Continuous
 62
     7
370
    25
100
AcDbCircle
 10
2609.3834908249
 20
3341.319307248
 30
0.0
 40
32.47574943726948
100
AcDbArc
 50
38.4595241824
 51
45.0000092995
  0
ARC
  5
36C
330
1F
100
AcDbEntity
  8
0
  6
Continuous
 62
     7
370
    25
100
AcDbCircle
 10
2618.5988504064
 20
3431.9514298069
 30
0.0
 40
3.935283599893665
100
AcDbArc
 50
121.8447473454
 51
154.9926330667
  0
ARC
  5
36D
330
1F
100
AcDbEntity
  8
0
  6
Continuous
 62
     7
370
    25
100
AcDbCircle
 10
2619.0178381773
 20
3431.2768640531
 30
0.0
 40
4.729380387663992
100
AcDbArc
 50
92.4455309881
 51
121.8448458526
  0
ARC
  5
36E
330
1F
100
AcDbEntity
  8
0
  6
Continuous
 62
     7
370
    25
100
AcDbCircle
 10
2619.8089736376
 20
3412.7518912356
 30
0.0
 40
23.27123879512326
100
AcDbArc
 50
83.4228068039
 51
92.4454363863
  0
ARC
  5
36F
330
1F
100
AcDbEntity
  8
0
  6
Continuous
 62
     7
370
    25
100
AcDbCircle
 10
2620.7164632896
 20
3420.6226596608
 30
0.0
 40
15.34832688912502
100
AcDbArc
 50
68.5255527611
 51
83.4227528828
  0
ARC
  5
370
330
1F
100
AcDbEntity
  8
0
  6
Continuous
 62
     7
370
    25
100
AcDbCircle
 10
2624.1572526082
 20
3429.3690566806
 30
0.0
 40
5.949471003234734
100
AcDbArc
 50
38.302866893
 51
68.525526686
  0
ARC
  5
371
330
1F
100
AcDbEntity
  8
0
  6
Continuous
 62
     7
370
    25
100
AcDbCircle
 10
2620.3049753151
 20
3426.3264108977
 30
0.0
 40
10.85841525877216
100
AcDbArc
 50
17.9400188547
 51
38.3028151606
  0
ARC
  5
372
330
1F
100
AcDbEntity
  8
0
  6
Continuous
 62
     7
370
    25
100
AcDbCircle
 10
2547.6797496617
 20
3402.8129542156
 30
0.0
 40
87.19520878814477
100
AcDbArc
 50
13.5503974053
 51
17.9400923307
  0
ARC
  5
373
330
1F
100
AcDbEntity
  8
0
  6
Continuous
 62
     7
370
    25
100
AcDbCircle
 10
2722.1764852704
 20
3444.8683437674
 30
0.0
 40
92.29787333060135
100
AcDbArc
 50
193.5504344295
 51
198.0255826861
  0
ARC
  5
374
330
1F
100
AcDbEntity
  8
0
  6
Continuous
 62
     7
370
    25
100
AcDbCircle
 10
2642.7535198756
 20
3419.023038662
 30
0.0
 40
8.775497717244905
100
AcDbArc
 50
198.0255378295
 51
223.1834159262
  0
ARC
  5
375
330
1F
100
AcDbEntity
  8
0
  6
Continuous
 62
     7
370
    25
100
AcDbCircle
 10
2641.2995316362
 20
3417.6584305179
 30
0.0
 40
6.781447269741477
100
AcDbArc
 50
223.1833292762
 51
253.2571054
  0
ARC
  5
376
330
1F
100
AcDbEntity
  8
0
  6
Continuous
 62
     7
370
    25
100
AcDbCircle
 10
2652.1286435448
 20
3453.6559501321
 30
0.0
 40
44.37255104587192
100
AcDbArc
 50
253.2571591375
 51
260.7675505135
  0
ARC
  5
377
330
1F
100
AcDbEntity
  8
0
  6
Continuous
 62
     7
370
    25
100
AcDbCircle
 10
2660.1529873363
 20
3503.0228392526
 30
0.0
 40
94.38734720372072
100
AcDbArc
 50
260.7675760103
 51
265.0399710835
  0
ARC
  5
378
330
1F
100
AcDbEntity
  8
0
  6
Continuous
 62
     7
370
    25
100
AcDbCircle
 10
2652.3315413943
 20
3412.8991474248
 30
0.0
 40
3.92489728506254
100
AcDbArc
 50
265.0398940338
 51
307.9175677819
  0
ARC
  5
379
330
1F
100
AcDbEntity
  8
0
  6
Continuous
 62
     7
370
    25
100
AcDbCircle
 10
2651.2246444716
 20
3414.3201156155
 30
0.0
 40
5.726111152534934
100
AcDbArc
 50
307.9175951549
 51
340.0783084226
  0
ARC
  5
37A
330
1F
100
AcDbEntity
  8
0
  6
Continuous
 62
     7
370
    25
100
AcDbCircle
 10
2410.0191267309
 20
3501.7383119942
 30
0.0
 40
262.284180303842
100
AcDbArc
 50
340.0783660217
 51
342.1324793038
  0
ARC
  5
37B
330
1F
100
AcDbEntity
  8
0
  6
Continuous
 62
     7
370
    25
100
AcDbCircle
 10
2708.4156047245
 20
3405.545679271
 30
0.0
 40
51.23373093758157
100
AcDbArc
 50
154.6766168789
 51
162.1325208038
  0
ARC
  5
37C
330
1F
100
AcDbEntity
  8
0
  6
Continuous
 62
     7
370
    25
100
AcDbCircle
 10
2667.2694699463
 20
3425.0159153892
 30
0.0
 40
5.713466201078907
100
AcDbArc
 50
117.2675651021
 51
154.6766076573
  0
ARC
  5
37D
330
1F
100
AcDbEntity
  8
0
  6
Continuous
 62
     7
370
    25
100
AcDbCircle
 10
2667.0371391982
 20
3425.4666710229
 30
0.0
 40
5.206358502607948
100
AcDbArc
 50
77.3871399711
 51
117.2675507146
  0
ARC
  5
37E
330
1F
100
AcDbEntity
  8
0
  6
Continuous
 62
     7
370
    25
100
AcDbCircle
 10
2659.2523454935
 20
3390.6760257479
 30
0.0
 40
40.85733340760314
100
AcDbArc
 50
68.6430569027
 51
77.3871895041
  0
ARC
  5
37F
330
1F
100
AcDbEntity
  8
0
  6
Continuous
 62
     7
370
    25
100
AcDbCircle
 10
2671.1951607197
 20
3421.2180449373
 30
0.0
 40
8.063343536055816
100
AcDbArc
 50
46.8676546878
 51
68.643042727
  0
ARC
  5
380
330
1F
100
AcDbEntity
  8
0
  6
Continuous
 62
     7
370
    25
100
AcDbCircle
 10
2673.0507830085
 20
3423.1987507627
 30
0.0
 40
5.349208379971935
100
AcDbArc
 50
17.2570040329
 51
46.8677493142
  0
ARC
  5
381
330
1F
100
AcDbEntity
  8
0
  6
Continuous
 62
     7
370
    25
100
AcDbCircle
 10
2666.1446039484
 20
3421.0533894671
 30
0.0
 40
12.58093599508988
100
AcDbArc
 50
0.1394059381
 51
17.2570476557
  0
ARC
  5
382
330
1F
100
AcDbEntity
  8
0
  6
Continuous
 62
     7
370
    25
100
AcDbCircle
 10
2576.4735203365
 20
3420.8351730464
 30
0.0
 40
102.252285123628
100
AcDbArc
 50
356.4810586564
 51
0.1394271965
  0
ARC
  5
383
330
1F
100
AcDbEntity
  8
0
  6
Continuous
 62
     7
370
    25
100
AcDbCircle
 10
2792.7764180739
 20
3407.5336982493
 30
0.0
 40
114.4592115749947
100
AcDbArc
 50
176.4810353962
 51
180.2143273284
  0
ARC
  5
384
330
1F
100
AcDbEntity
  8
0
  6
Continuous
 62
     7
370
    25
100
AcDbCircle
 10
2686.1878088044
 20
3407.1349761786
 30
0.0
 40
7.869856546950098
100
AcDbArc
 50
180.2143103736
 51
206.5984911971
  0
ARC
  5
385
330
1F
100
AcDbEntity
  8
0
  6
Continuous
 62
     7
370
    25
100
AcDbCircle
 10
2684.2815893256
 20
3406.1804803522
 30
0.0
 40
5.738018142203996
100
AcDbArc
 50
206.5985358204
 51
239.5955954491
  0
ARC
  5
386
330
1F
100
AcDbEntity
  8
0
  6
Continuous
 62
     7
370
    25
100
AcDbCircle
 10
2705.2499522071
 20
3441.9137913013
 30
0.0
 40
47.16918700472521
100
AcDbArc
 50
239.5955313307
 51
246.5921509864
  0
ARC
  5
387
330
1F
100
AcDbEntity
  8
0
  6
Continuous
 62
     7
370
    25
100
AcDbCircle
 10
2708.6284997026
 20
3449.7182174682
 30
0.0
 40
55.67351831149502
100
AcDbArc
 50
246.5921497675
 51
252.6947702011
  0
ARC
  5
388
330
1F
100
AcDbEntity
  8
0
  6
Continuous
 62
     7
370
    25
100
AcDbCircle
 10
2693.6739671192
 20
3401.7201750178
 30
0.0
 40
5.399766473559784
100
AcDbArc
 50
252.6947787755
 51
286.514519808
  0
ARC
  5
389
330
1F
100
AcDbEntity
  8
0
  6
Continuous
 62
     7
370
    25
100
AcDbCircle
 10
2693.0657576053
 20
3403.7714919542
 30
0.0
 40
7.539350542008695
100
AcDbArc
 50
286.51463827
 51
313.0912617514
  0
ARC
  5
38A
330
1F
100
AcDbEntity
  8
0
  6
Continuous
 62
     7
370
    25
100
AcDbCircle
 10
2600.6421718159
 20
3502.5676137834
 30
0.0
 40
142.8271655833835
100
AcDbArc
 50
313.0912817025
 51
316.2162290255
  0
ARC
  5
38B
330
1F
100
AcDbEntity
  8
0
  6
Continuous
 62
     7
370
    25
100
AcDbCircle
 10
2787.7388547591
 20
3323.2500705546
 30
0.0
 40
116.3252028756864
100
AcDbArc
 50
132.7029058421
 51
136.2162369855
  0
ARC
  5
38C
330
1F
100
AcDbEntity
  8
0
  6
Continuous
 62
     7
370
    25
100
AcDbCircle
 10
2715.5579573355
 20
3401.463787301
 30
0.0
 40
9.894627192944908
100
AcDbArc
 50
111.3306721788
 51
132.7028543512
  0
ARC
  5
38D
330
1F
100
AcDbEntity
  8
0
  6
Continuous
 62
     7
370
    25
100
AcDbCircle
 10
2713.8469492647
 20
3405.8453573908
 30
0.0
 40
5.190830314906459
100
AcDbArc
 50
78.2447029335
 51
111.3306457151
  0
ARC
  5
38E
330
1F
100
AcDbEntity
  8
0
  6
Continuous
 62
     7
370
    25
100
AcDbCircle
 10
2711.0900069805
 20
3392.5972012619
 30
0.0
 40
18.72280620806914
100
AcDbArc
 50
65.5045861036
 51
78.2445710394
  0
ARC
  5
38F
330
1F
100
AcDbEntity
  8
0
  6
Continuous
 62
     7
370
    25
100
AcDbCircle
 10
2706.8389871282
 20
3383.2672980868
 30
0.0
 40
28.97552599553228
100
AcDbArc
 50
55.059855243
 51
65.5045143633
  0
ARC
  5
390
330
1F
100
AcDbEntity
  8
0
  6
Continuous
 62
     7
370
    25
100
AcDbCircle
 10
2721.2721930976
 20
3403.9259553143
 30
0.0
 40
3.774384096820076
100
AcDbArc
 50
8.1910557595
 51
55.0598261278
  0
ARC
  5
391
330
1F
100
AcDbEntity
  8
0
  6
Continuous
 62
     7
370
    25
100
AcDbCircle
 10
2717.330078607
 20
3403.3585219031
 30
0.0
 40
7.757127790946435
100
AcDbArc
 50
340.1473397672
 51
8.1910132794
  0
ARC
  5
392
330
1F
100
AcDbEntity
  8
0
  6
Continuous
 62
     7
370
    25
100
AcDbCircle
 10
2552.6047496388
 20
3462.8345597687
 30
0.0
 40
182.8908854844844
100
AcDbArc
 50
337.315640725
 51
340.147283235
  0
ARC
  5
393
330
1F
100
AcDbEntity
  8
0
  6
Continuous
 62
     7
370
    25
100
AcDbCircle
 10
2823.358392795
 20
3349.6626996115
 30
0.0
 40
110.5633787778355
100
AcDbArc
 50
157.3156445863
 51
160.8069792876
  0
ARC
  5
394
330
1F
100
AcDbEntity
  8
0
  6
Continuous
 62
     7
370
    25
100
AcDbCircle
 10
2724.2299791589
 20
3384.169319263
 30
0.0
 40
5.600770246172324
100
AcDbArc
 50
160.8069064954
 51
191.3630534827
  0
ARC
  5
395
330
1F
100
AcDbEntity
  8
0
  6
Continuous
 62
     7
370
    25
100
AcDbCircle
 10
2723.295791751
 20
3383.9815764412
 30
0.0
 40
4.64790431631589
100
AcDbArc
 50
191.3630001982
 51
226.3796295414
  0
ARC
  5
396
330
1F
100
AcDbEntity
  8
0
  6
Continuous
 62
     7
370
    25
100
AcDbCircle
 10
2765.6297836431
 20
3428.4048874565
 30
0.0
 40
66.01236822730222
100
AcDbArc
 50
226.3795555629
 51
231.4187092982
  0
ARC
  5
397
330
1F
100
AcDbEntity
  8
0
  6
Continuous
 62
     7
370
    25
100
AcDbCircle
 10
2788.3348836911
 20
3371.2833053273
 30
0.0
 40
41.74696527884194
100
AcDbArc
 50
215.4532846543
 51
224.9982809678
  0
ARC
  5
398
330
1F
100
AcDbEntity
  8
0
  6
Continuous
 62
     7
370
    25
100
AcDbCircle
 10
2764.0959312164
 20
3347.0458099321
 30
0.0
 40
7.468940246758368
100
AcDbArc
 50
224.9982953516
 51
259.1063402668
  0
ARC
  5
399
330
1F
100
AcDbEntity
  8
0
  6
Continuous
 62
     7
370
    25
100
AcDbCircle
 10
2764.5646044241
 20
3349.4810210998
 30
0.0
 40
9.948841052575768
100
AcDbArc
 50
259.1063124662
 51
287.1542755747
  0
ARC
  5
39A
330
1F
100
AcDbEntity
  8
0
  6
Continuous
 62
     7
370
    25
100
AcDbCircle
 10
2740.7406001227
 20
3426.661972207
 30
0.0
 40
90.72310920005285
100
AcDbArc
 50
287.1542683049
 51
292.6765124904
  0
ARC
  5
39B
330
1F
100
AcDbEntity
  8
0
  6
Continuous
 62
     7
370
    25
100
AcDbCircle
 10
2810.581495499
 20
3259.5091500252
 30
0.0
 40
90.43377482674333
100
AcDbArc
 50
108.8267415801
 51
112.6764266719
  0
ARC
  5
39C
330
1F
100
AcDbEntity
  8
0
  6
Continuous
 62
     7
370
    25
100
AcDbCircle
 10
2782.8181375397
 20
3340.938855039
 30
0.0
 40
4.401217595135427
100
AcDbArc
 50
74.1835251786
 51
108.8266385213
  0
ARC
  5
39D
330
1F
100
AcDbEntity
  8
0
  6
Continuous
 62
     7
370
    25
100
AcDbCircle
 10
2783.0007387876
 20
3341.5834483036
 30
0.0
 40
3.731259616993257
100
AcDbArc
 50
35.0981364454
 51
74.1835183218
  0
ARC
  5
39E
330
1F
100
AcDbEntity
  8
0
  6
Continuous
 62
     7
370
    25
100
AcDbCircle
 10
2738.1572066987
 20
3310.0692172095
 30
0.0
 40
58.54083115023525
100
AcDbArc
 50
29.8524708082
 51
35.0980145772
  0
ARC
  5
39F
330
1F
100
AcDbEntity
  8
0
  6
Continuous
 62
     7
370
    25
100
AcDbCircle
 10
2746.8313993822
 20
3315.0476083081
 30
0.0
 40
48.53953140299232
100
AcDbArc
 50
23.4399155144
 51
29.8523895504
  0
ARC
  5
3A0
330
1F
100
AcDbEntity
  8
0
  6
Continuous
 62
     7
370
    25
100
AcDbCircle
 10
2788.3204530342
 20
3333.035851618
 30
0.0
 40
3.318756638288991
100
AcDbArc
 50
337.973912227
 51
23.4399156908
  0
ARC
  5
3A1
330
1F
100
AcDbEntity
  8
0
  6
Continuous
 62
     7
370
    25
100
AcDbCircle
 10
2786.199592358
 20
3333.8938646855
 30
0.0
 40
5.606602007247812
100
AcDbArc
 50
307.1302595689
 51
337.9738532194
  0
ARC
  5
3A2
330
1F
100
AcDbEntity
  8
0
  6
Continuous
 62
     7
370
    25
100
AcDbCircle
 10
2673.8534407235
 20
3482.2795918214
 30
0.0
 40
191.7247951124027
100
AcDbArc
 50
304.7220127139
 51
307.1301802864
  0
ARC
  5
3A3
330
1F
100
AcDbEntity
  8
0
  6
Continuous
 62
     7
370
    25
100
AcDbCircle
 10
2869.8455075699
 20
3199.4633102295
 30
0.0
 40
152.3652213080769
100
AcDbArc
 50
124.7220106127
 51
127.6634144201
  0
ARC
  5
3A4
330
1F
100
AcDbEntity
  8
0
  6
Continuous
 62
     7
370
    25
100
AcDbCircle
 10
2780.8262606616
 20
3314.7929009414
 30
0.0
 40
6.676028799184887
100
AcDbArc
 50
127.6635175193
 51
156.1434992039
  0
ARC
  5
3A5
330
1F
100
AcDbEntity
  8
0
  6
Continuous
 62
     7
370
    25
100
AcDbCircle
 10
2778.635928971
 20
3315.761537929
 30
0.0
 40
4.281073574363479
100
AcDbArc
 50
156.1435527463
 51
195.4503665796
  0
ARC
  5
3A6
330
1F
100
AcDbEntity
  8
0
  6
Continuous
 62
     7
370
    25
100
AcDbCircle
 10
2818.4489666408
 20
3326.7656078336
 30
0.0
 40
45.58685431950814
100
AcDbArc
 50
195.4504509765
 51
202.3841034689
  0
ARC
  5
3A7
330
1F
100
AcDbEntity
  8
0
  6
Continuous
 62
     7
370
    25
100
AcDbCircle
 10
2811.5943012461
 20
3323.9425476417
 30
0.0
 40
38.17361572084049
100
AcDbArc
 50
202.3841095315
 51
210.5787248604
  0
ARC
  5
3A8
330
1F
100
AcDbEntity
  8
0
  6
Continuous
 62
     7
370
    25
100
AcDbCircle
 10
2783.1466655787
 20
3307.1329180718
 30
0.0
 40
5.130740220342573
100
AcDbArc
 50
210.5787313892
 51
246.5587345291
  0
ARC
  5
3A9
330
1F
100
AcDbEntity
  8
0
  6
Continuous
 62
     7
370
    25
100
AcDbCircle
 10
2784.6162280242
 20
3310.522159313
 30
0.0
 40
8.824866635694612
100
AcDbArc
 50
246.5586881403
 51
270.9971699829
  0
ARC
  5
3AA
330
1F
100
AcDbEntity
  8
0
  6
Continuous
 62
     7
370
    25
100
AcDbCircle
 10
2781.734371782
 20
3476.0927462289
 30
0.0
 40
174.4205318780846
100
AcDbArc
 50
270.9971671679
 51
273.7868754739
  0
ARC
  5
3AB
330
1F
100
AcDbEntity
  8
0
  6
Continuous
 62
     7
370
    25
100
AcDbCircle
 10
2803.1952872856
 20
3151.8600203104
 30
0.0
 40
150.5216652136535
100
AcDbArc
 50
91.1261785922
 51
93.7868750505
  0
ARC
  5
3AC
330
1F
100
AcDbEntity
  8
0
  6
Continuous
 62
     7
370
    25
100
AcDbCircle
 10
2800.5496848802
 20
3286.4406296632
 30
0.0
 40
15.91505458157726
100
AcDbArc
 50
77.2548405249
 51
91.1261453101
  0
ARC
  5
3AD
330
1F
100
AcDbEntity
  8
0
  6
Continuous
 62
     7
370
    25
100
AcDbCircle
 10
2803.17050121
 20
3298.0275244033
 30
0.0
 40
4.035458294097909
100
AcDbArc
 50
44.5464778613
 51
77.2548228746
  0
ARC
  5
3AE
330
1F
100
AcDbEntity
  8
0
  6
Continuous
 62
     7
370
    25
100
AcDbCircle
 10
2804.1443520349
 20
3298.9860787243
 30
0.0
 40
2.668998702528119
100
AcDbArc
 50
0.0000080456
 51
44.5464827072
  0
ARC
  5
3AF
330
1F
100
AcDbEntity
  8
0
  6
Continuous
 62
     7
370
    25
100
AcDbCircle
 10
2822.7570664862
 20
3298.9860878322
 30
0.0
 40
15.94371574876343
100
AcDbArc
 50
180.0000313836
 51
186.4072383295
  0
ARC
  5
3B0
330
1F
100
AcDbEntity
  8
0
  6
Continuous
 62
     7
370
    25
100
AcDbCircle
 10
2837.2808653398
 20
3300.6170790773
 30
0.0
 40
30.5588060865277
100
AcDbArc
 50
186.4072909448
 51
190.3447278374
  0
ARC
  5
3B1
330
1F
100
AcDbEntity
  8
0
  6
Continuous
 62
     7
370
    25
100
AcDbCircle
 10
2837.0739957638
 20
3300.5793515873
 30
0.0
 40
30.34852440914789
100
AcDbArc
 50
190.3447908592
 51
194.2888720993
  0
ARC
  5
3B2
330
1F
100
AcDbEntity
  8
0
  6
Continuous
 62
     7
370
    25
100
AcDbCircle
 10
2822.1341030579
 20
3296.7743093463
 30
0.0
 40
14.93169138414387
100
AcDbArc
 50
194.2888672032
 51
200.9935394348
  0
ARC
  5
3B3
330
1F
100
AcDbEntity
  8
0
  6
Continuous
 62
     7
370
    25
100
AcDbCircle
 10
2806.1551948151
 20
3290.6426438878
 30
0.0
 40
2.183297074149619
100
AcDbArc
 50
328.7918107795
 51
20.993647689
  0
ARC
  5
3B4
330
1F
100
AcDbEntity
  8
0
  6
Continuous
 62
     7
370
    25
100
AcDbCircle
 10
2799.6138610751
 20
3294.6055022503
 30
0.0
 40
9.83138791429721
100
AcDbArc
 50
311.6750415043
 51
328.7917715942
  0
ARC
  5
3B5
330
1F
100
AcDbEntity
  8
0
  6
Continuous
 62
     7
370
    25
100
AcDbCircle
 10
2791.5474731008
 20
3303.6669354511
 30
0.0
 40
21.96300720456438
100
AcDbArc
 50
300.5473736657
 51
311.6750870588
  0
ARC
  5
3B6
330
1F
100
AcDbEntity
  8
0
  6
Continuous
 62
     7
370
    25
100
AcDbCircle
 10
2766.5471143065
 20
3346.0288217598
 30
0.0
 40
71.15190179949458
100
AcDbArc
 50
295.9121581858
 51
300.5474421575
  0
ARC
  5
3B7
330
1F
100
AcDbEntity
  8
0
  6
Continuous
 62
     7
370
    25
100
AcDbCircle
 10
2830.4082067036
 20
3214.5832200183
 30
0.0
 40
74.98565442524126
100
AcDbArc
 50
115.9122025648
 51
122.5726800506
  0
ARC
  5
3B8
330
1F
100
AcDbEntity
  8
0
  6
Continuous
 62
     7
370
    25
100
AcDbCircle
 10
2793.7040087525
 20
3272.0363113053
 30
0.0
 40
6.809002661804561
100
AcDbArc
 50
122.5726745861
 51
161.2430350778
  0
ARC
  5
3B9
330
1F
100
AcDbEntity
  8
0
  6
Continuous
 62
     7
370
    25
100
AcDbCircle
 10
2795.8210864975
 20
3271.3173783333
 30
0.0
 40
9.044820811103671
100
AcDbArc
 50
161.2430656992
 51
192.7797744397
  0
ARC
  5
3BA
330
1F
100
AcDbEntity
  8
0
  6
Continuous
 62
     7
370
    25
100
AcDbCircle
 10
2942.4792679251
 20
3304.5828547832
 30
0.0
 40
159.4283774357536
100
AcDbArc
 50
192.7797722512
 51
196.6798632172
  0
ARC
  5
3BB
330
1F
100
AcDbEntity
  8
0
  6
Continuous
 62
     7
370
    25
100
AcDbCircle
 10
2791.7491180609
 20
3259.4193808353
 30
0.0
 40
2.077440174100432
100
AcDbArc
 50
196.6799031037
 51
242.8956880435
  0
ARC
  5
3BC
330
1F
100
AcDbEntity
  8
0
  6
Continuous
 62
     7
370
    25
100
AcDbCircle
 10
2803.7247341041
 20
3282.8172735085
 30
0.0
 40
28.36197481257348
100
AcDbArc
 50
242.8955309149
 51
249.7378219183
  0
ARC
  5
3BD
330
1F
100
AcDbEntity
  8
0
  6
Continuous
 62
     7
370
    25
100
AcDbCircle
 10
2806.2911045035
 20
3289.7690569731
 30
0.0
 40
35.77234257432143
100
AcDbArc
 50
249.737756917
 51
256.5489066628
  0
ARC
  5
3BE
330
1F
100
AcDbEntity
  8
0
  6
Continuous
 62
     7
370
    25
100
AcDbCircle
 10
2810.8051803206
 20
3308.6425873014
 30
0.0
 40
55.1781929172513
100
AcDbArc
 50
256.5489296354
 51
261.4714842561
  0
ARC
  5
3BF
330
1F
100
AcDbEntity
  8
0
  6
Continuous
 62
     7
370
    25
100
AcDbCircle
 10
2780.9867786463
 20
3109.7991449262
 30
0.0
 40
145.8885911472123
100
AcDbArc
 50
78.4973635809
 51
81.4715351155
  0
ARC
  5
3C0
330
1F
100
AcDbEntity
  8
0
  6
Continuous
 62
     7
370
    25
100
AcDbCircle
 10
2808.903765381
 20
3246.9831527247
 30
0.0
 40
5.892840697362158
100
AcDbArc
 50
48.0282286069
 51
78.4974697407
  0
ARC
  5
3C1
330
1F
100
AcDbEntity
  8
0
  6
Continuous
 62
     7
370
    25
100
AcDbCircle
 10
2810.5245606985
 20
3248.7850105652
 30
0.0
 40
3.469275319928767
100
AcDbArc
 50
3.3205178292
 51
48.0282529057
  0
ARC
  5
3C2
330
1F
100
AcDbEntity
  8
0
  6
Continuous
 62
     7
370
    25
100
AcDbCircle
 10
2777.0163102515
 20
3246.8408857942
 30
0.0
 40
37.03387674977255
100
AcDbArc
 50
355.4454669758
 51
3.3205358016
  0
ARC
  5
3C3
330
1F
100
AcDbEntity
  8
0
  6
Continuous
 62
     7
370
    25
100
AcDbCircle
 10
2779.3734570179
 20
3246.6531208054
 30
0.0
 40
34.66926334178845
100
AcDbArc
 50
347.0984077457
 51
355.4454603237
  0
ARC
  5
3C4
330
1F
100
AcDbEntity
  8
0
  6
Continuous
 62
     7
370
    25
100
AcDbCircle
 10
2809.3529021582
 20
3239.7860302151
 30
0.0
 40
3.913384812673272
100
AcDbArc
 50
305.5874582562
 51
347.0984679283
  0
ARC
  5
3C5
330
1F
100
AcDbEntity
  8
0
  6
Continuous
 62
     7
370
    25
100
AcDbCircle
 10
2807.8174082497
 20
3241.9317772232
 30
0.0
 40
6.55193967587193
100
AcDbArc
 50
276.8868074214
 51
305.5874600908
  0
ARC
  5
3C6
330
1F
100
AcDbEntity
  8
0
  6
Continuous
 62
     7
370
    25
100
AcDbCircle
 10
2792.3136825227
 20
3370.2945590475
 30
0.0
 40
135.8476057636489
100
AcDbArc
 50
273.7179114396
 51
276.886853624
  0
ARC
  5
3C7
330
1F
100
AcDbEntity
  8
0
  6
Continuous
 62
     7
370
    25
100
AcDbCircle
 10
2809.7229966525
 20
3102.3813463789
 30
0.0
 40
132.6306498565067
100
AcDbArc
 50
93.7179280702
 51
97.0241235457
  0
ARC
  5
3C8
330
1F
100
AcDbEntity
  8
0
  6
Continuous
 62
     7
370
    25
100
AcDbCircle
 10
2794.2621823801
 20
3227.8627474525
 30
0.0
 40
6.200357626562459
100
AcDbArc
 50
97.0240853389
 51
127.6241321858
  0
ARC
  5
3C9
330
1F
100
AcDbEntity
  8
0
  6
Continuous
 62
     7
370
    25
100
AcDbCircle
 10
2793.1559787174
 20
3229.2979250626
 30
0.0
 40
4.388336292356006
100
AcDbArc
 50
127.6240821925
 51
166.9504763975
  0
ARC
  5
3CA
330
1F
100
AcDbEntity
  8
0
  6
Continuous
 62
     7
370
    25
100
AcDbCircle
 10
2839.9955523399
 20
3218.4414654459
 30
0.0
 40
52.46960470891123
100
AcDbArc
 50
166.9504340797
 51
173.3411527029
  0
ARC
  5
3CB
330
1F
100
AcDbEntity
  8
0
  6
Continuous
 62
     7
370
    25
100
AcDbCircle
 10
2832.2539351466
 20
3219.3452697291
 30
0.0
 40
44.67540821724479
100
AcDbArc
 50
173.3411653806
 51
180.7029734479
  0
ARC
  5
3CC
330
1F
100
AcDbEntity
  8
0
  6
Continuous
 62
     7
370
    25
100
AcDbCircle
 10
2792.95693813
 20
3218.8631050726
 30
0.0
 40
5.375453290082933
100
AcDbArc
 50
180.7029979767
 51
215.6929857829
  0
ARC
  5
3CD
330
1F
100
AcDbEntity
  8
0
  6
Continuous
 62
     7
370
    25
100
AcDbCircle
 10
2794.9158163029
 20
3220.2703369029
 30
0.0
 40
7.7874037705831
100
AcDbArc
 50
215.6929778356
 51
242.5838507946
  0
ARC
  5
3CE
330
1F
100
AcDbEntity
  8
0
  6
Continuous
 62
     7
370
    25
100
AcDbCircle
 10
2848.8071854611
 20
3324.1662174239
 30
0.0
 40
124.8285660127076
100
AcDbArc
 50
242.5839719872
 51
246.137858899
  0
ARC
  5
3CF
330
1F
100
AcDbEntity
  8
0
  6
Continuous
 62
     7
370
    25
100
AcDbCircle
 10
2767.4311150581
 20
3140.2023338154
 30
0.0
 40
76.33001647035228
100
AcDbArc
 50
61.7448081538
 51
66.1379395636
  0
ARC
  5
3D0
330
1F
100
AcDbEntity
  8
0
  6
Continuous
 62
     7
370
    25
100
AcDbCircle
 10
2795.8532395674
 20
3193.0869875569
 30
0.0
 40
16.29166403639072
100
AcDbArc
 50
47.9292173411
 51
61.7448052289
  0
ARC
  5
3D1
330
1F
100
AcDbEntity
  8
0
  6
Continuous
 62
     7
370
    25
100
AcDbCircle
 10
2802.6877330124
 20
3200.6586227776
 30
0.0
 40
6.091665969460612
100
AcDbArc
 50
23.2569665197
 51
47.9292605601
  0
ARC
  5
3D2
330
1F
100
AcDbEntity
  8
0
  6
Continuous
 62
     7
370
    25
100
AcDbCircle
 10
2805.7257009961
 20
3201.9642754398
 30
0.0
 40
2.785009297769076
100
AcDbArc
 50
339.0064165302
 51
23.2569471818
  0
ARC
  5
3D3
330
1F
100
AcDbEntity
  8
0
  6
Continuous
 62
     7
370
    25
100
AcDbCircle
 10
2824.2111012539
 20
3194.870767427
 30
0.0
 40
17.01468460440253
100
AcDbArc
 50
159.0064077465
 51
165.3968973635
  0
ARC
  5
3D4
330
1F
100
AcDbEntity
  8
0
  6
Continuous
 62
     7
370
    25
100
AcDbCircle
 10
2839.2005306868
 20
3190.9653830895
 30
0.0
 40
32.50452067664363
100
AcDbArc
 50
165.3967888048
 51
169.3335383515
  0
ARC
  5
3D5
330
1F
100
AcDbEntity
  8
0
  6
Continuous
 62
     7
370
    25
100
AcDbCircle
 10
2838.956128681
 20
3191.0114955665
 30
0.0
 40
32.25580659446542
100
AcDbArc
 50
169.3336786835
 51
173.2777599235
  0
ARC
  5
3D6
330
1F
100
AcDbEntity
  8
0
  6
Continuous
 62
     7
370
    25
100
AcDbCircle
 10
2822.6278730477
 20
3192.9360466532
 30
0.0
 40
15.81452231030675
100
AcDbArc
 50
173.2777459449
 51
180.0000501388
  0
ARC
  5
3D7
330
1F
100
AcDbEntity
  8
0
  6
Continuous
 62
     7
370
    25
100
AcDbCircle
 10
2803.7403233635
 20
3192.9360312743
 30
0.0
 40
3.073027373924946
100
AcDbArc
 50
320.7797759578
 51
0.0000287082
  0
ARC
  5
3D8
330
1F
100
AcDbEntity
  8
0
  6
Continuous
 62
     7
370
    25
100
AcDbCircle
 10
2803.7473030375
 20
3192.9303420183
 30
0.0
 40
3.064022738879694
100
AcDbArc
 50
281.4733009384
 51
320.7796697572
  0
ARC
  5
3D9
330
1F
100
AcDbEntity
  8
0
  6
Continuous
 62
     7
370
    25
100
AcDbCircle
 10
2801.8007679217
 20
3202.5206270896
 30
0.0
 40
12.84985774189939
100
AcDbArc
 50
265.808880784
 51
281.4734016662
  0
ARC
  5
3DA
330
1F
100
AcDbEntity
  8
0
  6
Continuous
 62
     7
370
    25
100
AcDbCircle
 10
2811.9735498784
 20
3341.3427294189
 30
0.0
 40
152.0441880426706
100
AcDbArc
 50
263.2455906292
 51
265.8088969149
  0
ARC
  5
3DB
330
1F
100
AcDbEntity
  8
0
  6
Continuous
 62
     7
370
    25
100
AcDbCircle
 10
2776.7666699358
 20
3044.076380823
 30
0.0
 40
147.2997719813183
100
AcDbArc
 50
83.2456326193
 51
86.432218512
  0
ARC
  5
3DC
330
1F
100
AcDbEntity
  8
0
  6
Continuous
 62
     7
370
    25
100
AcDbCircle
 10
2785.4817749312
 20
3183.8531230327
 30
0.0
 40
7.251599134122614
100
AcDbArc
 50
86.4322597986
 51
114.883130601
  0
ARC
  5
3DD
330
1F
100
AcDbEntity
  8
0
  6
Continuous
 62
     7
370
    25
100
AcDbCircle
 10
2784.7914962945
 20
3185.3413492392
 30
0.0
 40
5.611080363190555
100
AcDbArc
 50
114.883134822
 51
149.1884012877
  0
ARC
  5
3DE
330
1F
100
AcDbEntity
  8
0
  6
Continuous
 62
     7
370
    25
100
AcDbCircle
 10
2841.5756186546
 20
3151.4755585727
 30
0.0
 40
71.72710209522712
100
AcDbArc
 50
149.1883476692
 51
154.5051295458
  0
ARC
  5
3DF
330
1F
100
AcDbEntity
  8
0
  6
Continuous
 62
     7
370
    25
100
AcDbCircle
 10
2644.4401250554
 20
3000.395957462
 30
0.0
 40
214.2795272027315
100
AcDbArc
 50
47.7419214843
 51
49.9848650487
  0
ARC
  5
3E0
330
1F
100
AcDbEntity
  8
0
  6
Continuous
 62
     7
370
    25
100
AcDbCircle
 10
2784.1528394578
 20
3154.1640887032
 30
0.0
 40
6.519375221882295
100
AcDbArc
 50
19.7874559801
 51
47.7419465997
  0
ARC
  5
3E1
330
1F
100
AcDbEntity
  8
0
  6
Continuous
 62
     7
370
    25
100
AcDbCircle
 10
2787.1092074147
 20
3155.2277123308
 30
0.0
 40
3.377495733757578
100
AcDbArc
 50
334.5193510251
 51
19.7875077367
  0
ARC
  5
3E2
330
1F
100
AcDbEntity
  8
0
  6
Continuous
 62
     7
370
    25
100
AcDbCircle
 10
2756.2953882988
 20
3169.9123294463
 30
0.0
 40
37.51148800453561
100
AcDbArc
 50
326.7661321663
 51
334.5194172632
  0
ARC
  5
3E3
330
1F
100
AcDbEntity
  8
0
  6
Continuous
 62
     7
370
    25
100
AcDbCircle
 10
2678.152279899
 20
3015.1021335736
 30
0.0
 40
117.4698367919011
100
AcDbArc
 50
55.803173839
 51
60.1078724172
  0
ARC
  5
3E4
330
1F
100
AcDbEntity
  8
0
  6
Continuous
 62
     7
370
    25
100
AcDbCircle
 10
2731.9639467003
 20
3108.7132747024
 30
0.0
 40
9.494185706238499
100
AcDbArc
 50
60.1078039753
 51
87.2549750839
  0
ARC
  5
3E5
330
1F
100
AcDbEntity
  8
0
  6
Continuous
 62
     7
370
    25
100
AcDbCircle
 10
2732.0932160523
 20
3111.4093884984
 30
0.0
 40
6.794974679654254
100
AcDbArc
 50
87.2549781721
 51
121.5342501746
  0
ARC
  5
3E6
330
1F
100
AcDbEntity
  8
0
  6
Continuous
 62
     7
370
    25
100
AcDbCircle
 10
2753.0220614905
 20
3077.3024740984
 30
0.0
 40
46.81119865522436
100
AcDbArc
 50
121.5342985997
 51
129.7845337719
  0
ARC
  5
3E7
330
1F
100
AcDbEntity
  8
0
  6
Continuous
 62
     7
370
    25
100
AcDbCircle
 10
2745.8192703904
 20
3085.9523517442
 30
0.0
 40
35.55506330974914
100
AcDbArc
 50
129.7846085624
 51
137.5992439084
  0
ARC
  5
3E8
330
1F
100
AcDbEntity
  8
0
  6
Continuous
 62
     7
370
    25
100
AcDbCircle
 10
2723.7589106396
 20
3106.0967595012
 30
0.0
 40
5.681050586038407
100
AcDbArc
 50
137.5992238883
 51
167.9040853094
  0
ARC
  5
3E9
330
1F
100
AcDbEntity
  8
0
  6
Continuous
 62
     7
370
    25
100
AcDbCircle
 10
2725.7371687767
 20
3105.6728077063
 30
0.0
 40
7.704226401754577
100
AcDbArc
 50
167.9041032531
 51
192.4459037876
  0
ARC
  5
3EA
330
1F
100
AcDbEntity
  8
0
  6
Continuous
 62
     7
370
    25
100
AcDbCircle
 10
2800.8645682765
 20
3122.2537107016
 30
0.0
 40
84.63960512794736
100
AcDbArc
 50
192.4458788166
 51
196.6786388594
  0
ARC
  5
3EB
330
1F
100
AcDbEntity
  8
0
  6
Continuous
 62
     7
370
    25
100
AcDbCircle
 10
2507.6810905413
 20
3034.4136343813
 30
0.0
 40
221.4199162479841
100
AcDbArc
 50
14.3123943788
 51
16.6786259903
  0
ARC
  5
3EC
330
1F
100
AcDbEntity
  8
0
  6
Continuous
 62
     7
370
    25
100
AcDbCircle
 10
2712.7933198109
 20
3086.74334665
 30
0.0
 40
9.737547161424862
100
AcDbArc
 50
351.4588761703
 51
14.3123674518
  0
ARC
  5
3ED
330
1F
100
AcDbEntity
  8
0
  6
Continuous
 62
     7
370
    25
100
AcDbCircle
 10
2717.8977005447
 20
3085.9767448106
 30
0.0
 40
4.575921346331993
100
AcDbArc
 50
312.3988832806
 51
351.4588903499
  0
ARC
  5
3EE
330
1F
100
AcDbEntity
  8
0
  6
Continuous
 62
     7
370
    25
100
AcDbCircle
 10
2702.5355500698
 20
3102.8011504569
 30
0.0
 40
27.35872829728709
100
AcDbArc
 50
301.9852640871
 51
312.3988188019
  0
ARC
  5
3EF
330
1F
100
AcDbEntity
  8
0
  6
Continuous
 62
     7
370
    25
100
AcDbCircle
 10
2708.0190533033
 20
3094.0207496589
 30
0.0
 40
17.00671178428329
100
AcDbArc
 50
288.7222532284
 51
301.985151616
  0
ARC
  5
3F0
330
1F
100
AcDbEntity
  8
0
  6
Continuous
 62
     7
370
    25
100
AcDbCircle
 10
2712.3265577403
 20
3081.3110349112
 30
0.0
 40
3.586896456180183
100
AcDbArc
 50
246.6801552488
 51
288.7222425387
  0
ARC
  5
3F1
330
1F
100
AcDbEntity
  8
0
  6
Continuous
 62
     7
370
    25
100
AcDbCircle
 10
2714.1202560128
 20
3085.4719879368
 30
0.0
 40
8.11799826191829
100
AcDbArc
 50
222.8633801806
 51
246.6801548497
  0
ARC
  5
3F2
330
1F
100
AcDbEntity
  8
0
  6
Continuous
 62
     7
370
    25
100
AcDbCircle
 10
2818.1845869769
 20
3182.0510323613
 30
0.0
 40
150.0929847946166
100
AcDbArc
 50
220.0151139874
 51
222.8634842957
  0
ARC
  5
3F3
330
1F
100
AcDbEntity
  8
0
  6
Continuous
 62
     7
370
    25
100
AcDbCircle
 10
2599.8909291644
 20
2998.7824325278
 30
0.0
 40
134.9324539405679
100
AcDbArc
 50
40.0152190634
 51
43.282003148
  0
ARC
  5
3F4
330
1F
100
AcDbEntity
  8
0
  6
Continuous
 62
     7
370
    25
100
AcDbCircle
 10
2692.2015598879
 20
3085.7168278185
 30
0.0
 40
8.130081608146513
100
AcDbArc
 50
43.2820803311
 51
68.6106745346
  0
ARC
  5
3F5
330
1F
100
AcDbEntity
  8
0
  6
Continuous
 62
     7
370
    25
100
AcDbCircle
 10
2693.2392479399
 20
3088.366150206
 30
0.0
 40
5.284786262110225
100
AcDbArc
 50
68.6106675681
 51
102.9905511297
  0
ARC
  5
3F6
330
1F
100
AcDbEntity
  8
0
  6
Continuous
 62
     7
370
    25
100
AcDbCircle
 10
2701.1165254674
 20
3054.2200216532
 30
0.0
 40
40.32775412140779
100
AcDbArc
 50
102.9904870075
 51
110.6794447135
  0
ARC
  5
3F7
330
1F
100
AcDbEntity
  8
0
  6
Continuous
 62
     7
370
    25
100
AcDbCircle
 10
2702.2144840074
 20
3051.3110812681
 30
0.0
 40
43.43700597966139
100
AcDbArc
 50
110.6793879696
 51
117.9326736465
  0
ARC
  5
3F8
330
1F
100
AcDbEntity
  8
0
  6
Continuous
 62
     7
370
    25
100
AcDbCircle
 10
2683.9551432447
 20
3085.7494684845
 30
0.0
 40
4.457446731843644
100
AcDbArc
 50
117.9326598594
 51
156.5428832892
  0
ARC
  5
3F9
330
1F
100
AcDbEntity
  8
0
  6
Continuous
 62
     7
370
    25
100
AcDbCircle
 10
2686.4566133333
 20
3084.6640222032
 30
0.0
 40
7.184266534094017
100
AcDbArc
 50
156.5428714912
 51
183.8882088051
  0
ARC
  5
3FA
330
1F
100
AcDbEntity
  8
0
  6
Continuous
 62
     7
370
    25
100
AcDbCircle
 10
2839.4363017775
 20
3095.061375505
 30
0.0
 40
160.5168789560631
100
AcDbArc
 50
183.8881634969
 51
186.75440731
  0
ARC
  5
3FB
330
1F
100
AcDbEntity
  8
0
  6
Continuous
 62
     7
370
    25
100
AcDbCircle
 10
2609.9470263049
 20
3067.881634843
 30
0.0
 40
70.57631838944788
100
AcDbArc
 50
2.8096344791
 51
6.7544030633
  0
ARC
  5
3FC
330
1F
100
AcDbEntity
  8
0
  6
Continuous
 62
     7
370
    25
100
AcDbCircle
 10
2645.055136134
 20
3069.6046377491
 30
0.0
 40
35.42595402736621
100
AcDbArc
 50
356.2029502792
 51
2.8096148421
  0
ARC
  5
3FD
330
1F
100
AcDbEntity
  8
0
  6
Continuous
 62
     7
370
    25
100
AcDbCircle
 10
2654.2568008601
 20
3068.9939479736
 30
0.0
 40
26.20404664697938
100
AcDbArc
 50
349.5200139434
 51
356.2029323461
  0
ARC
  5
3FE
330
1F
100
AcDbEntity
  8
0
  6
Continuous
 62
     7
370
    25
100
AcDbCircle
 10
2679.180347998
 20
3064.3836443984
 30
0.0
 40
0.8576839692563151
100
AcDbArc
 50
270.8797974544
 51
349.5201224047
  0
ARC
  5
3FF
330
1F
100
AcDbEntity
  8
0
  6
Continuous
 62
     7
370
    25
100
AcDbCircle
 10
2679.3317334708
 20
3054.5245233776
 30
0.0
 40
9.002599234830631
100
AcDbArc
 50
90.8796905302
 51
98.8499856474
  0
ARC
  5
400
330
1F
100
AcDbEntity
  8
0
  6
Continuous
 62
     7
370
    25
100
AcDbCircle
 10
2686.7008663594
 20
3007.1966207866
 30
0.0
 40
56.90076708271348
100
AcDbArc
 50
98.8500868217
 51
100.8904502145
  0
ARC
  5
401
330
1F
100
AcDbEntity
  8
0
  6
Continuous
 62
     7
370
    25
100
AcDbCircle
 10
2688.0903338271
 20
2999.9750435977
 30
0.0
 40
64.2547997816567
100
AcDbArc
 50
100.8905020071
 51
102.9590526547
  0
ARC
  5
402
330
1F
100
AcDbEntity
  8
0
  6
Continuous
 62
     7
370
    25
100
AcDbCircle
 10
2688.041693937
 20
3000.1863360139
 30
0.0
 40
64.03798113906194
100
AcDbArc
 50
102.95903677
 51
105.0328582026
  0
ARC
  5
403
330
1F
100
AcDbEntity
  8
0
  6
Continuous
 62
     7
370
    25
100
AcDbCircle
 10
2669.5561534343
 20
3069.0174347538
 30
0.0
 40
7.232176440529003
100
AcDbArc
 50
261.3350328409
 51
285.0327746632
  0
ARC
  5
404
330
1F
100
AcDbEntity
  8
0
  6
Continuous
 62
     7
370
    25
100
AcDbCircle
 10
2669.1459514266
 20
3066.3257426425
 30
0.0
 40
4.509407241848349
100
AcDbArc
 50
227.5856954977
 51
261.335025546
  0
ARC
  5
405
330
1F
100
AcDbEntity
  8
0
  6
Continuous
 62
     7
370
    25
100
AcDbCircle
 10
2673.4323767719
 20
3071.017601257
 30
0.0
 40
10.86448233966138
100
AcDbArc
 50
208.4107258083
 51
227.5856131748
  0
ARC
  5
406
330
1F
100
AcDbEntity
  8
0
  6
Continuous
 62
     7
370
    25
100
AcDbCircle
 10
2740.4883824979
 20
3107.2909368921
 30
0.0
 40
87.10267999686192
100
AcDbArc
 50
204.2723948168
 51
208.4107629054
  0
ARC
  5
407
330
1F
100
AcDbEntity
  8
0
  6
Continuous
 62
     7
370
    25
100
AcDbCircle
 10
2562.2625733115
 20
3026.922300517
 30
0.0
 40
108.4057770399507
100
AcDbArc
 50
24.2723711435
 51
28.000622383
  0
ARC
  5
408
330
1F
100
AcDbEntity
  8
0
  6
Continuous
 62
     7
370
    25
100
AcDbCircle
 10
2651.0505586855
 20
3074.1329542133
 30
0.0
 40
7.846579702321222
100
AcDbArc
 50
28.0005752804
 51
53.4142905899
  0
ARC
  5
409
330
1F
100
AcDbEntity
  8
0
  6
Continuous
 62
     7
370
    25
100
AcDbCircle
 10
2653.0277145638
 20
3076.7965869826
 30
0.0
 40
4.529339147766201
100
AcDbArc
 50
53.4142723034
 51
90.599032167
  0
ARC
  5
40A
330
1F
100
AcDbEntity
  8
0
  6
Continuous
 62
     7
370
    25
100
AcDbCircle
 10
2653.2347526604
 20
3056.9960690525
 30
0.0
 40
24.33093946372089
100
AcDbArc
 50
90.5990662691
 51
101.3099266383
  0
ARC
  5
40B
330
1F
100
AcDbEntity
  8
0
  6
Continuous
 62
     7
370
    25
100
AcDbCircle
 10
2628.32607617
 20
3181.5399056115
 30
0.0
 40
102.6793333072337
100
AcDbArc
 50
279.4865417472
 51
281.3098841621
  0
ARC
  5
40C
330
1F
100
AcDbEntity
  8
0
  6
Continuous
 62
     7
370
    25
100
AcDbCircle
 10
2627.1210047638
 20
3188.7522204166
 30
0.0
 40
109.9916299320682
100
AcDbArc
 50
277.7548081343
 51
279.4864828201
  0
ARC
  5
40D
330
1F
100
AcDbEntity
  8
0
  6
Continuous
 62
     7
370
    25
100
AcDbCircle
 10
2628.786431263
 20
3176.5225851032
 30
0.0
 40
97.64911700625021
100
AcDbArc
 50
276.0295497002
 51
277.7548076253
  0
ARC
  5
40E
330
1F
100
AcDbEntity
  8
0
  6
Continuous
 62
     7
370
    25
100
AcDbCircle
 10
2637.1505131603
 20
3097.3366739438
 30
0.0
 40
18.02269932895518
100
AcDbArc
 50
269.9999414321
 51
276.0295036552
  0
ARC
  5
40F
330
1F
100
AcDbEntity
  8
0
  6
Continuous
 62
     7
370
    25
100
AcDbCircle
 10
2637.1504906517
 20
3076.9887335921
 30
0.0
 40
2.32524102281736
100
AcDbArc
 50
89.9998993249
 51
126.3972070181
  0
ARC
  5
410
330
1F
100
AcDbEntity
  8
0
  6
Continuous
 62
     7
370
    25
100
AcDbCircle
 10
2638.489441208
 20
3075.1724457265
 30
0.0
 40
4.581718410872675
100
AcDbArc
 50
126.3972504197
 51
148.3179867037
  0
ARC
  5
411
330
1F
100
AcDbEntity
  8
0
  6
Continuous
 62
     7
370
    25
100
AcDbCircle
 10
2640.2994965307
 20
3074.0553167006
 30
0.0
 40
6.708753326404714
100
AcDbArc
 50
148.3179802041
 51
166.1082536428
  0
ARC
  5
412
330
1F
100
AcDbEntity
  8
0
  6
Continuous
 62
     7
370
    25
100
AcDbCircle
 10
2643.1578931832
 20
3073.3483753542
 30
0.0
 40
9.653273234703528
100
AcDbArc
 50
166.1082729234
 51
179.6523318325
  0
ARC
  5
413
330
1F
100
AcDbEntity
  8
0
  6
Continuous
 62
     7
370
    25
100
AcDbCircle
 10
2559.4099916437
 20
3073.8566658285
 30
0.0
 40
74.09617077231161
100
AcDbArc
 50
352.7234059722
 51
359.6522500198
  0
ARC
  5
414
330
1F
100
AcDbEntity
  8
0
  6
Continuous
 62
     7
370
    25
100
AcDbCircle
 10
2620.8741303269
 20
3066.0084436169
 30
0.0
 40
12.13299674170099
100
AcDbArc
 50
326.3225080558
 51
352.7234245113
  0
ARC
  5
415
330
1F
100
AcDbEntity
  8
0
  6
Continuous
 62
     7
370
    25
100
AcDbCircle
 10
2625.6904536605
 20
3062.7990884041
 30
0.0
 40
6.345343388556453
100
AcDbArc
 50
286.1782628055
 51
326.3225058531
  0
ARC
  5
416
330
1F
100
AcDbEntity
  8
0
  6
Continuous
 62
     7
370
    25
100
AcDbCircle
 10
2623.4378412535
 20
3070.5636682062
 30
0.0
 40
14.43007975777418
100
AcDbArc
 50
264.4407568083
 51
286.1782151445
  0
ARC
  5
417
330
1F
100
AcDbEntity
  8
0
  6
Continuous
 62
     7
370
    25
100
AcDbCircle
 10
2625.1379547605
 20
3088.0309010988
 30
0.0
 40
31.97985499451459
100
AcDbArc
 50
255.7779024542
 51
264.4407923296
  0
ARC
  5
418
330
1F
100
AcDbEntity
  8
0
  6
Continuous
 62
     7
370
    25
100
AcDbCircle
 10
2618.3074943217
 20
3061.0809143718
 30
0.0
 40
4.177751218135648
100
AcDbArc
 50
216.9635226766
 51
255.7779674939
  0
ARC
  5
419
330
1F
100
AcDbEntity
  8
0
  6
Continuous
 62
     7
370
    25
100
AcDbCircle
 10
2620.0448414295
 20
3062.3883578058
 30
0.0
 40
6.352097857030293
100
AcDbArc
 50
188.0730947783
 51
216.9634636885
  0
ARC
  5
41A
330
1F
100
AcDbEntity
  8
0
  6
Continuous
 62
     7
370
    25
100
AcDbCircle
 10
2710.3362752627
 20
3075.1955910055
 30
0.0
 40
97.54731837815962
100
AcDbArc
 50
184.1382448071
 51
188.0731614301
  0
ARC
  5
41B
330
1F
100
AcDbEntity
  8
0
  6
Continuous
 62
     7
370
    25
100
AcDbCircle
 10
2541.8800277932
 20
3063.0074339901
 30
0.0
 40
71.34927271515679
100
AcDbArc
 50
4.1382733986
 51
8.5453798263
  0
ARC
  5
41C
330
1F
100
AcDbEntity
  8
0
  6
Continuous
 62
     7
370
    25
100
AcDbCircle
 10
2600.6816950473
 20
3071.8430146495
 30
0.0
 40
11.88749038861848
100
AcDbArc
 50
8.5454074487
 51
25.1303388728
  0
ARC
  5
41D
330
1F
100
AcDbEntity
  8
0
  6
Continuous
 62
     7
370
    25
100
AcDbCircle
 10
2607.3963020256
 20
3074.9926984496
 30
0.0
 40
4.470856724133641
100
AcDbArc
 50
25.1303931259
 51
55.4591253347
  0
ARC
  5
41E
330
1F
100
AcDbEntity
  8
0
  6
Continuous
 62
     7
370
    25
100
AcDbCircle
 10
2607.7617202243
 20
3075.5235810834
 30
0.0
 40
3.826367134790168
100
AcDbArc
 50
55.4590608768
 51
89.5377423131
  0
ARC
  5
41F
330
1F
100
AcDbEntity
  8
0
  6
Continuous
 62
     7
370
    25
100
AcDbCircle
 10
2607.9649258376
 20
3100.7112559818
 30
0.0
 40
21.3621274472833
100
AcDbArc
 50
263.871686123
 51
269.5377715674
  0
ARC
  5
420
330
1F
100
AcDbEntity
  8
0
  6
Continuous
 62
     7
370
    25
100
AcDbCircle
 10
2611.98585212
 20
3138.1598201587
 30
0.0
 40
59.02594041248491
100
AcDbArc
 50
261.2175279789
 51
263.871579019
  0
ARC
  5
421
330
1F
100
AcDbEntity
  8
0
  6
Continuous
 62
     7
370
    25
100
AcDbCircle
 10
2612.5663513516
 20
3141.917457123
 30
0.0
 40
62.82815225712977
100
AcDbArc
 50
258.5951330674
 51
261.2175610289
  0
ARC
  5
422
330
1F
100
AcDbEntity
  8
0
  6
Continuous
 62
     7
370
    25
100
AcDbCircle
 10
2608.257196978
 20
3120.5556267603
 30
0.0
 40
41.03602964689972
100
AcDbArc
 50
254.9866666062
 51
258.595085783
  0
ARC
  5
423
330
1F
100
AcDbEntity
  8
0
  6
Continuous
 62
     7
370
    25
100
AcDbCircle
 10
2595.4098077406
 20
3072.6531775175
 30
0.0
 40
8.559333580662885
100
AcDbArc
 50
74.9865496205
 51
96.3853134194
  0
ARC
  5
424
330
1F
100
AcDbEntity
  8
0
  6
Continuous
 62
     7
370
    25
100
AcDbCircle
 10
2594.9900735415
 20
3076.4038285216
 30
0.0
 40
4.785269491052117
100
AcDbArc
 50
96.3852568825
 51
129.4478575824
  0
ARC
  5
425
330
1F
100
AcDbEntity
  8
0
  6
Continuous
 62
     7
370
    25
100
AcDbCircle
 10
2598.8862913245
 20
3071.6685512103
 30
0.0
 40
10.917427694137
100
AcDbArc
 50
129.4478117706
 51
148.8461668713
  0
ARC
  5
426
330
1F
100
AcDbEntity
  8
0
  6
Continuous
 62
     7
370
    25
100
AcDbCircle
 10
2666.0204841481
 20
3031.0846536217
 30
0.0
 40
89.3651975130035
100
AcDbArc
 50
148.8462304886
 51
152.9710811682
  0
ARC
  5
427
330
1F
100
AcDbEntity
  8
0
  6
Continuous
 62
     7
370
    25
100
AcDbCircle
 10
2437.6027336486
 20
3147.6145535994
 30
0.0
 40
167.060008603785
100
AcDbArc
 50
330.1222569358
 51
332.9710855391
  0
ARC
  5
428
330
1F
100
AcDbEntity
  8
0
  6
Continuous
 62
     7
370
    25
100
AcDbCircle
 10
2576.5166563305
 20
3067.807290866
 30
0.0
 40
6.853026546668194
100
AcDbArc
 50
301.2474748985
 51
330.1222800008
  0
ARC
  5
429
330
1F
100
AcDbEntity
  8
0
  6
Continuous
 62
     7
370
    25
100
AcDbCircle
 10
2577.7712943248
 20
3065.7395002673
 30
0.0
 40
4.434375175188024
100
AcDbArc
 50
261.5894534656
 51
301.2475131205
  0
ARC
  5
42A
330
1F
100
AcDbEntity
  8
0
  6
Continuous
 62
     7
370
    25
100
AcDbCircle
 10
2584.6194657338
 20
3112.0561028241
 30
0.0
 40
51.25451105769628
100
AcDbArc
 50
254.9884928577
 51
261.5894325974
  0
ARC
  5
42B
330
1F
100
AcDbEntity
  8
0
  6
Continuous
 62
     7
370
    25
100
AcDbCircle
 10
2574.25933817
 20
3073.4226443283
 30
0.0
 40
11.25605660642805
100
AcDbArc
 50
237.8485507791
 51
254.9885272186
  0
ARC
  5
42C
330
1F
100
AcDbEntity
  8
0
  6
Continuous
 62
     7
370
    25
100
AcDbCircle
 10
2570.1617029155
 20
3066.9034642264
 30
0.0
 40
3.556035575359174
100
AcDbArc
 50
197.4250226591
 51
237.8485396168
  0
ARC
  5
42D
330
1F
100
AcDbEntity
  8
0
  6
Continuous
 62
     7
370
    25
100
AcDbCircle
 10
2575.4771107517
 20
3068.5717502965
 30
0.0
 40
9.12709820972424
100
AcDbArc
 50
176.1361553909
 51
197.4249538526
  0
ARC
  5
42E
330
1F
100
AcDbEntity
  8
0
  6
Continuous
 62
     7
370
    25
100
AcDbCircle
 10
2709.529042351
 20
3059.517899093
 30
0.0
 40
143.4844299305389
100
AcDbArc
 50
173.2840837796
 51
176.1361204504
  0
ARC
  5
42F
330
1F
100
AcDbEntity
  8
0
  6
Continuous
 62
     7
370
    25
100
AcDbCircle
 10
2426.0631749686
 20
3092.8974377297
 30
0.0
 40
141.9399761220955
100
AcDbArc
 50
353.2840360644
 51
356.4229609466
  0
ARC
  5
430
330
1F
100
AcDbEntity
  8
0
  6
Continuous
 62
     7
370
    25
100
AcDbCircle
 10
2561.0872412441
 20
3084.4567667942
 30
0.0
 40
6.652344021432929
100
AcDbArc
 50
356.4229579365
 51
25.4245213295
  0
ARC
  5
431
330
1F
100
AcDbEntity
  8
0
  6
Continuous
 62
     7
370
    25
100
AcDbCircle
 10
2562.9043974352
 20
3085.3205702665
 30
0.0
 40
4.640326858984716
100
AcDbArc
 50
25.4245098411
 51
63.0925591168
  0
ARC
  5
432
330
1F
100
AcDbEntity
  8
0
  6
Continuous
 62
     7
370
    25
100
AcDbCircle
 10
2541.0241719851
 20
3042.2063474295
 30
0.0
 40
52.98885813536276
100
AcDbArc
 50
63.0924713121
 51
69.415632919
  0
ARC
  5
433
330
1F
100
AcDbEntity
  8
0
  6
Continuous
 62
     7
370
    25
100
AcDbCircle
 10
2543.2867947175
 20
3048.2310128864
 30
0.0
 40
46.55332742722535
100
AcDbArc
 50
69.4156049405
 51
77.1965893553
  0
ARC
  5
434
330
1F
100
AcDbEntity
  8
0
  6
Continuous
 62
     7
370
    25
100
AcDbCircle
 10
2552.5849966651
 20
3089.1459387724
 30
0.0
 40
4.59516112178733
100
AcDbArc
 50
77.1965597084
 51
119.7666119784
  0
ARC
  5
435
330
1F
100
AcDbEntity
  8
0
  6
Continuous
 62
     7
370
    25
100
AcDbCircle
 10
2555.0572452028
 20
3084.8233090532
 30
0.0
 40
9.574833854087565
100
AcDbArc
 50
119.7666076014
 51
144.5630368111
  0
ARC
  5
436
330
1F
100
AcDbEntity
  8
0
  6
Continuous
 62
     7
370
    25
100
AcDbCircle
 10
2833.649367803
 20
2886.5677191837
 30
0.0
 40
351.5088182566354
100
AcDbArc
 50
144.5630565434
 51
146.4065657834
  0
ARC
  5
437
330
1F
100
AcDbEntity
  8
0
  6
Continuous
 62
     7
370
    25
100
AcDbCircle
 10
2527.4300069974
 20
3089.968771508
 30
0.0
 40
16.10821755484776
100
AcDbArc
 50
315.0224095235
 51
326.4066465834
  0
ARC
  5
438
330
1F
100
AcDbEntity
  8
0
  6
Continuous
 62
     7
370
    25
100
AcDbCircle
 10
2536.4620113147
 20
3080.9438279735
 30
0.0
 40
3.34002630515135
100
AcDbArc
 50
278.4743082283
 51
315.0224295453
  0
ARC
  5
439
330
1F
100
AcDbEntity
  8
0
  6
Continuous
 62
     7
370
    25
100
AcDbCircle
 10
2536.2130946587
 20
3082.6144747566
 30
0.0
 40
5.029114868698585
100
AcDbArc
 50
250.7917381273
 51
278.4743378675
  0
ARC
  5
43A
330
1F
100
AcDbEntity
  8
0
  6
Continuous
 62
     7
370
    25
100
AcDbCircle
 10
2550.3042252668
 20
3123.0599234926
 30
0.0
 40
47.85894425518639
100
AcDbArc
 50
245.5045101452
 51
250.7917432192
  0
ARC
  5
43B
330
1F
100
AcDbEntity
  8
0
  6
Continuous
 62
     7
370
    25
100
AcDbCircle
 10
2545.6324801577
 20
3112.8066748592
 30
0.0
 40
36.5915439383152
100
AcDbArc
 50
236.5142099007
 51
245.5045745441
  0
ARC
  5
43C
330
1F
100
AcDbEntity
  8
0
  6
Continuous
 62
     7
370
    25
100
AcDbCircle
 10
2527.6184313279
 20
3085.5757510601
 30
0.0
 40
3.941441852779009
100
AcDbArc
 50
190.3019951684
 51
236.5142602762
  0
ARC
  5
43D
330
1F
100
AcDbEntity
  8
0
  6
Continuous
 62
     7
370
    25
100
AcDbCircle
 10
2530.8307063526
 20
3086.1596382214
 30
0.0
 40
7.206351507253702
100
AcDbArc
 50
160.3392969877
 51
190.3020131398
  0
ARC
  5
43E
330
1F
100
AcDbEntity
  8
0
  6
Continuous
 62
     7
370
    25
100
AcDbCircle
 10
2684.7819152737
 20
3031.1564197676
 30
0.0
 40
170.6882427629458
100
AcDbArc
 50
157.3234838627
 51
160.3393596021
  0
ARC
  5
43F
330
1F
100
AcDbEntity
  8
0
  6
Continuous
 62
     7
370
    25
100
AcDbCircle
 10
2434.2007380818
 20
3135.8560370576
 30
0.0
 40
100.8866754890328
100
AcDbArc
 50
337.3235377381
 51
341.0689731416
  0
ARC
  5
440
330
1F
100
AcDbEntity
  8
0
  6
Continuous
 62
     7
370
    25
100
AcDbCircle
 10
2524.3525499298
 20
3104.9356193676
 30
0.0
 40
5.579690385072815
100
AcDbArc
 50
341.068989672
 51
11.8995299054
  0
ARC
  5
441
330
1F
100
AcDbEntity
  8
0
  6
Continuous
 62
     7
370
    25
100
AcDbCircle
 10
2525.0270987563
 20
3105.0777608515
 30
0.0
 40
4.890328128593416
100
AcDbArc
 50
11.8995582134
 51
45.8401489665
  0
ARC
  5
442
330
1F
100
AcDbEntity
  8
0
  6
Continuous
 62
     7
370
    25
100
AcDbCircle
 10
2479.6759562032
 20
3058.3768123765
 30
0.0
 40
69.98798338078211
100
AcDbArc
 50
45.8401001729
 51
50.6980545767
  0
ARC
  5
443
330
1F
100
AcDbEntity
  8
0
  6
Continuous
 62
     7
370
    25
100
AcDbCircle
 10
2478.5893760006
 20
3057.0491823194
 30
0.0
 40
71.70357601667963
100
AcDbArc
 50
50.6981458965
 51
56.6083847236
  0
ARC
  5
444
330
1F
100
AcDbEntity
  8
0
  6
Continuous
 62
     7
370
    25
100
AcDbCircle
 10
2513.8531131002
 20
3110.5464728291
 30
0.0
 40
7.629468562064233
100
AcDbArc
 50
56.6084160179
 51
87.2775724187
  0
ARC
  5
445
330
1F
100
AcDbEntity
  8
0
  6
Continuous
 62
     7
370
    25
100
AcDbCircle
 10
2513.8941073242
 20
3111.4087881621
 30
0.0
 40
6.766179352183983
100
AcDbArc
 50
87.2774892531
 51
120.6044434041
  0
ARC
  5
446
330
1F
100
AcDbEntity
  8
0
  6
Continuous
 62
     7
370
    25
100
AcDbCircle
 10
2536.8579195948
 20
3072.5859466848
 30
0.0
 40
51.87216226323523
100
AcDbArc
 50
120.6044280197
 51
128.0328589606
  0
ARC
  5
447
330
1F
100
AcDbEntity
  8
0
  6
Continuous
 62
     7
370
    25
100
AcDbCircle
 10
2471.9875483764
 20
3155.5179657921
 30
0.0
 40
53.41736644331629
100
AcDbArc
 50
300.8058002775
 51
308.0329851467
  0
ARC
  5
448
330
1F
100
AcDbEntity
  8
0
  6
Continuous
 62
     7
370
    25
100
AcDbCircle
 10
2495.4131004301
 20
3116.230277827
 30
0.0
 40
7.675931019093173
100
AcDbArc
 50
270.5549966307
 51
300.805808547
  0
ARC
  5
449
330
1F
100
AcDbEntity
  8
0
  6
Continuous
 62
     7
370
    25
100
AcDbCircle
 10
2495.4311470928
 20
3114.3669564405
 30
0.0
 40
5.812522241813716
100
AcDbArc
 50
234.1297876506
 51
270.5550261913
  0
ARC
  5
44A
330
1F
100
AcDbEntity
  8
0
  6
Continuous
 62
     7
370
    25
100
AcDbCircle
 10
2507.2594846991
 20
3130.7251148061
 30
0.0
 40
25.99912462165468
100
AcDbArc
 50
222.1446616917
 51
234.1298559893
  0
ARC
  5
44B
330
1F
100
AcDbEntity
  8
0
  6
Continuous
 62
     7
370
    25
100
AcDbCircle
 10
2506.0041725254
 20
3129.5890987674
 30
0.0
 40
24.30609742360339
100
AcDbArc
 50
212.3967821974
 51
222.1447039911
  0
ARC
  5
44C
330
1F
100
AcDbEntity
  8
0
  6
Continuous
 62
     7
370
    25
100
AcDbCircle
 10
2488.3391337214
 20
3118.379909641
 30
0.0
 40
3.384827939739632
100
AcDbArc
 50
170.6841489748
 51
212.3966934861
  0
ARC
  5
44D
330
1F
100
AcDbEntity
  8
0
  6
Continuous
 62
     7
370
    25
100
AcDbCircle
 10
2491.6801920691
 20
3117.8318419028
 30
0.0
 40
6.770540439114584
100
AcDbArc
 50
145.2577624204
 51
170.684154739
  0
ARC
  5
44E
330
1F
100
AcDbEntity
  8
0
  6
Continuous
 62
     7
370
    25
100
AcDbCircle
 10
2615.4964784994
 20
3031.962390133
 30
0.0
 40
157.4491239625742
100
AcDbArc
 50
142.6658469526
 51
145.2577975037
  0
ARC
  5
44F
330
1F
100
AcDbEntity
  8
0
  6
Continuous
 62
     7
370
    25
100
AcDbCircle
 10
2402.8960669705
 20
3297.300800398
 30
0.0
 40
166.7653111440569
100
AcDbArc
 50
293.1782477611
 51
295.494980986
  0
ARC
  5
450
330
1F
100
AcDbEntity
  8
0
  6
Continuous
 62
     7
370
    25
100
AcDbCircle
 10
2465.8218155699
 20
3150.3299415521
 30
0.0
 40
6.890099848876175
100
AcDbArc
 50
269.8116408601
 51
293.178290739
  0
ARC
  5
451
330
1F
100
AcDbEntity
  8
0
  6
Continuous
 62
     7
370
    25
100
AcDbCircle
 10
2465.8092286801
 20
3146.5022214884
 30
0.0
 40
3.06235909008729
100
AcDbArc
 50
228.2428191571
 51
269.8117019265
  0
ARC
  5
452
330
1F
100
AcDbEntity
  8
0
  6
Continuous
 62
     7
370
    25
100
AcDbCircle
 10
2475.9976365153
 20
3157.9144940985
 30
0.0
 40
18.36084333997151
100
AcDbArc
 50
217.181195953
 51
228.2428305221
  0
ARC
  5
453
330
1F
100
AcDbEntity
  8
0
  6
Continuous
 62
     7
370
    25
100
AcDbCircle
 10
2481.7833399328
 20
3162.3030939395
 30
0.0
 40
25.62267317828207
100
AcDbArc
 50
205.1923518709
 51
217.1812030748
  0
ARC
  5
454
330
1F
100
AcDbEntity
  8
0
  6
Continuous
 62
     7
370
    25
100
AcDbCircle
 10
2463.3813099685
 20
3153.6467450086
 30
0.0
 40
5.286324351074085
100
AcDbArc
 50
166.5666511314
 51
205.1922434318
  0
ARC
  5
455
330
1F
100
AcDbEntity
  8
0
  6
Continuous
 62
     7
370
    25
100
AcDbCircle
 10
2467.1848781285
 20
3152.7382686902
 30
0.0
 40
9.196881852092128
100
AcDbArc
 50
140.1408655628
 51
166.5666587864
  0
ARC
  5
456
330
1F
100
AcDbEntity
  8
0
  6
Continuous
 62
     7
370
    25
100
AcDbCircle
 10
2545.8591237813
 20
3087.0515066342
 30
0.0
 40
111.6877967588699
100
AcDbArc
 50
135.8949801855
 51
140.1407991962
  0
ARC
  5
457
330
1F
100
AcDbEntity
  8
0
  6
Continuous
 62
     7
370
    25
100
AcDbCircle
 10
2403.836039887
 20
3151.3670428454
 30
0.0
 40
72.37575399503497
100
AcDbArc
 50
25.4949560147
 51
30.6188658211
  0
ARC
  5
458
330
1F
100
AcDbEntity
  8
0
  6
Continuous
 62
     7
370
    25
100
AcDbCircle
 10
2461.0761989826
 20
3185.2442159511
 30
0.0
 40
5.861855666006432
100
AcDbArc
 50
30.6189249818
 51
62.8816454612
  0
ARC
  5
459
330
1F
100
AcDbEntity
  8
0
  6
Continuous
 62
     7
370
    25
100
AcDbCircle
 10
2460.8617343758
 20
3184.825465342
 30
0.0
 40
6.332331106531769
100
AcDbArc
 50
62.8815665954
 51
93.403942928
  0
ARC
  5
45A
330
1F
100
AcDbEntity
  8
0
  6
Continuous
 62
     7
370
    25
100
AcDbCircle
 10
2465.810491688
 20
3101.6252269268
 30
0.0
 40
89.67961583298691
100
AcDbArc
 50
93.4039470874
 51
97.8046387574
  0
ARC
  5
45B
330
1F
100
AcDbEntity
  8
0
  6
Continuous
 62
     7
370
    25
100
AcDbCircle
 10
2437.6523479434
 20
3307.0606720486
 30
0.0
 40
117.6766070577963
100
AcDbArc
 50
274.495256414
 51
277.8046597834
  0
ARC
  5
45C
330
1F
100
AcDbEntity
  8
0
  6
Continuous
 62
     7
370
    25
100
AcDbCircle
 10
2446.4125836847
 20
3195.6333235861
 30
0.0
 40
5.90543136548021
100
AcDbArc
 50
245.3408382335
 51
274.4952998075
  0
ARC
  5
45D
330
1F
100
AcDbEntity
  8
0
  6
Continuous
 62
     7
370
    25
100
AcDbCircle
 10
2445.4033434979
 20
3193.4349549259
 30
0.0
 40
3.486466603281373
100
AcDbArc
 50
202.8850418999
 51
245.3408584271
  0
ARC
  5
45E
330
1F
100
AcDbEntity
  8
0
  6
Continuous
 62
     7
370
    25
100
AcDbCircle
 10
2469.4832144536
 20
3203.5993150702
 30
0.0
 40
29.62368914862795
100
AcDbArc
 50
194.0892464138
 51
202.885098592
  0
ARC
  5
45F
330
1F
100
AcDbEntity
  8
0
  6
Continuous
 62
     7
370
    25
100
AcDbCircle
 10
2453.2206074039
 20
3199.5176851514
 30
0.0
 40
12.85669505765518
100
AcDbArc
 50
170.5450622259
 51
194.0892894262
  0
ARC
  5
460
330
1F
100
AcDbEntity
  8
0
  6
Continuous
 62
     7
370
    25
100
AcDbCircle
 10
2451.3546156352
 20
3199.8284356466
 30
0.0
 40
10.96500503255669
100
AcDbArc
 50
144.0177280865
 51
170.5450572585
  0
ARC
  5
461
330
1F
100
AcDbEntity
  8
0
  6
Continuous
 62
     7
370
    25
100
AcDbCircle
 10
2450.836772619
 20
3200.2044304113
 30
0.0
 40
10.32505702490622
100
AcDbArc
 50
116.5391183403
 51
144.0177484796
  0
ARC
  5
462
330
1F
100
AcDbEntity
  8
0
  6
Continuous
 62
     7
370
    25
100
AcDbCircle
 10
2451.0559512769
 20
3199.7655621977
 30
0.0
 40
10.81561241724468
100
AcDbArc
 50
89.9999965076
 51
116.5390841793
  0
ARC
  5
463
330
1F
100
AcDbEntity
  8
0
  6
Continuous
 62
     7
370
    25
100
AcDbCircle
 10
2451.0559568152
 20
3217.4640800158
 30
0.0
 40
6.882905400901079
100
AcDbArc
 50
269.9999593847
 51
301.9563950283
  0
ARC
  5
464
330
1F
100
AcDbEntity
  8
0
  6
Continuous
 62
     7
370
    25
100
AcDbCircle
 10
2451.0784525054
 20
3217.4280420688
 30
0.0
 40
6.840422586243515
100
AcDbArc
 50
301.9562898551
 51
334.0612757039
  0
ARC
  5
465
330
1F
100
AcDbEntity
  8
0
  6
Continuous
 62
     7
370
    25
100
AcDbCircle
 10
2447.4334808293
 20
3219.2009950138
 30
0.0
 40
10.89371515705279
100
AcDbArc
 50
334.0612547581
 51
358.3284231304
  0
ARC
  5
466
330
1F
100
AcDbEntity
  8
0
  6
Continuous
 62
     7
370
    25
100
AcDbCircle
 10
2433.6172125313
 20
3219.6041905942
 30
0.0
 40
24.71586536452092
100
AcDbArc
 50
358.328427341
 51
11.4837386642
  0
ARC
  5
467
330
1F
100
AcDbEntity
  8
0
  6
Continuous
 62
     7
370
    25
100
AcDbCircle
 10
2427.7663154689
 20
3218.4154851135
 30
0.0
 40
30.68629392135425
100
AcDbArc
 50
11.4838415356
 51
20.5369050954
  0
ARC
  5
468
330
1F
100
AcDbEntity
  8
0
  6
Continuous
 62
     7
370
    25
100
AcDbCircle
 10
2451.0009174849
 20
3227.1196001878
 30
0.0
 40
5.87483789665424
100
AcDbArc
 50
20.5369835556
 51
51.3411912848
  0
ARC
  5
469
330
1F
100
AcDbEntity
  8
0
  6
Continuous
 62
     7
370
    25
100
AcDbCircle
 10
2449.9479569517
 20
3225.8033453209
 30
0.0
 40
7.560439498184582
100
AcDbArc
 50
51.3412250313
 51
77.3030773284
  0
ARC
  5
46A
330
1F
100
AcDbEntity
  8
0
  6
Continuous
 62
     7
370
    25
100
AcDbCircle
 10
2437.9585213344
 20
3172.5885267388
 30
0.0
 40
62.1091652682808
100
AcDbArc
 50
77.3031119111
 51
82.8097806659
  0
ARC
  5
46B
330
1F
100
AcDbEntity
  8
0
  6
Continuous
 62
     7
370
    25
100
AcDbCircle
 10
2454.7460404286
 20
3305.6582668538
 30
0.0
 40
72.01531620917115
100
AcDbArc
 50
257.9259566804
 51
262.8097970796
  0
ARC
  5
46C
330
1F
100
AcDbEntity
  8
0
  6
Continuous
 62
     7
370
    25
100
AcDbCircle
 10
2441.0067309886
 20
3241.4281434519
 30
0.0
 40
6.332157210043099
100
AcDbArc
 50
228.9083507697
 51
257.9259268429
  0
ARC
  5
46D
330
1F
100
AcDbEntity
  8
0
  6
Continuous
 62
     7
370
    25
100
AcDbCircle
 10
2440.005504373
 20
3240.2800776337
 30
0.0
 40
4.808835228720756
100
AcDbArc
 50
193.7717307881
 51
228.9083471624
  0
ARC
  5
46E
330
1F
100
AcDbEntity
  8
0
  6
Continuous
 62
     7
370
    25
100
AcDbCircle
 10
2468.6057440482
 20
3247.2899581447
 30
0.0
 40
34.25560303530533
100
AcDbArc
 50
185.5156897843
 51
193.7716471072
  0
ARC
  5
46F
330
1F
100
AcDbEntity
  8
0
  6
Continuous
 62
     7
370
    25
100
AcDbCircle
 10
2475.6195520941
 20
3247.967240799
 30
0.0
 40
41.30203582776859
100
AcDbArc
 50
178.3949585871
 51
185.5156776949
  0
ARC
  5
470
330
1F
100
AcDbEntity
  8
0
  6
Continuous
 62
     7
370
    25
100
AcDbCircle
 10
2437.8812165394
 20
3249.024690189
 30
0.0
 40
3.548888016591288
100
AcDbArc
 50
135.4139527737
 51
178.3949434703
  0
ARC
  5
471
330
1F
100
AcDbEntity
  8
0
  6
Continuous
 62
     7
370
    25
100
AcDbCircle
 10
2439.0372251406
 20
3247.8852594757
 30
0.0
 40
5.172051051107463
100
AcDbArc
 50
102.6644652345
 51
135.4139012341
  0
ARC
  5
472
330
1F
100
AcDbEntity
  8
0
  6
Continuous
 62
     7
370
    25
100
AcDbCircle
 10
2461.7629566702
 20
3146.7505500229
 30
0.0
 40
108.8286395037849
100
AcDbArc
 50
99.085114523
 51
102.6644346013
  0
ARC
  5
473
330
1F
100
AcDbEntity
  8
0
  6
Continuous
 62
     7
370
    25
100
AcDbCircle
 10
2437.1996641243
 20
3300.3602851719
 30
0.0
 40
46.73262197617736
100
AcDbArc
 50
279.085029047
 51
284.3878382556
  0
ARC
  5
474
330
1F
100
AcDbEntity
  8
0
  6
Continuous
 62
     7
370
    25
100
AcDbCircle
 10
2441.0871713437
 20
3285.2062567008
 30
0.0
 40
31.08790110045281
100
AcDbArc
 50
284.3877623447
 51
291.584953947
  0
ARC
  5
475
330
1F
100
AcDbEntity
  8
0
  6
Continuous
 62
     7
370
    25
100
AcDbCircle
 10
2443.6613605216
 20
3278.6995896679
 30
0.0
 40
24.09053260931462
100
AcDbArc
 50
291.5849677226
 51
299.0060724994
  0
ARC
  5
476
330
1F
100
AcDbEntity
  8
0
  6
Continuous
 62
     7
370
    25
100
AcDbCircle
 10
2454.325982813
 20
3259.4649210908
 30
0.0
 40
2.097200804268712
100
AcDbArc
 50
299.0059224806
 51
343.3840297831
  0
ARC
  5
477
330
1F
100
AcDbEntity
  8
0
  6
Continuous
 62
     7
370
    25
100
AcDbCircle
 10
2308.7853603663
 20
3302.8964429408
 30
0.0
 40
153.9799512151316
100
AcDbArc
 50
343.3841003701
 51
347.1808588936
  0
ARC
  5
478
330
1F
100
AcDbEntity
  8
0
  6
Continuous
 62
     7
370
    25
100
AcDbCircle
 10
2446.9730424981
 20
3271.4524225019
 30
0.0
 40
12.25993881631507
100
AcDbArc
 50
347.1808481597
 51
11.3802540777
  0
ARC
  5
479
330
1F
100
AcDbEntity
  8
0
  6
Continuous
 62
     7
370
    25
100
AcDbCircle
 10
2452.1938231153
 20
3272.5032381631
 30
0.0
 40
6.934456321067662
100
AcDbArc
 50
11.3803034933
 51
47.1561486441
  0
ARC
  5
47A
330
1F
100
AcDbEntity
  8
0
  6
Continuous
 62
     7
370
    25
100
AcDbCircle
 10
2435.069266197
 20
3254.0388454988
 30
0.0
 40
32.11747135327914
100
AcDbArc
 50
47.156052381
 51
58.6321920757
  0
ARC
  5
47B
330
1F
100
AcDbEntity
  8
0
  6
Continuous
 62
     7
370
    25
100
AcDbCircle
 10
2337.782748446
 20
3094.4566434947
 30
0.0
 40
219.0162293282185
100
AcDbArc
 50
58.6321578108
 51
59.6820383307
  0
ARC
  5
47C
330
1F
100
AcDbEntity
  8
0
  6
Continuous
 62
     7
370
    25
100
AcDbCircle
 10
2364.5061800367
 20
3140.156000316
 30
0.0
 40
166.0768960328916
100
AcDbArc
 50
59.6819376127
 51
60.9738291671
  0
ARC
  5
47D
330
1F
100
AcDbEntity
  8
0
  6
Continuous
 62
     7
370
    25
100
AcDbCircle
 10
2364.2352742138
 20
3139.6680235927
 30
0.0
 40
166.6350279488162
100
AcDbArc
 50
60.9737917486
 51
62.054382143
  0
ARC
  5
47E
330
1F
100
AcDbEntity
  8
0
  6
Continuous
 62
     7
370
    25
100
AcDbCircle
 10
2438.2499265471
 20
3279.1886290322
 30
0.0
 40
8.697799588267285
100
AcDbArc
 50
62.0544357148
 51
71.317553595
  0
ARC
  5
47F
330
1F
100
AcDbEntity
  8
0
  6
Continuous
 62
     7
370
    25
100
AcDbCircle
 10
2441.3880060242
 20
3288.4690498779
 30
0.0
 40
1.098819924477384
100
AcDbArc
 50
194.2307722707
 51
251.3176045438
  0
ARC
  5
480
330
1F
100
AcDbEntity
  8
0
  6
Continuous
 62
     7
370
    25
100
AcDbCircle
 10
2449.294307438
 20
3290.4741695331
 30
0.0
 40
9.255418901828966
100
AcDbArc
 50
182.3107118986
 51
194.2307665064
  0
ARC
  5
481
330
1F
100
AcDbEntity
  8
0
  6
Continuous
 62
     7
370
    25
100
AcDbCircle
 10
2454.7650017776
 20
3290.6948952758
 30
0.0
 40
14.7305642342045
100
AcDbArc
 50
172.4352737692
 51
182.3106167324
  0
ARC
  5
482
330
1F
100
AcDbEntity
  8
0
  6
Continuous
 62
     7
370
    25
100
AcDbCircle
 10
2465.5602490226
 20
3289.2613079491
 30
0.0
 40
25.62058423884864
100
AcDbArc
 50
165.9106834298
 51
172.4353677557
  0
ARC
  5
483
330
1F
100
AcDbEntity
  8
0
  6
Continuous
 62
     7
370
    25
100
AcDbCircle
 10
2465.0758327273
 20
3289.3829201409
 30
0.0
 40
25.12113587173332
100
AcDbArc
 50
155.7794419811
 51
165.910752555
  0
ARC
  5
484
330
1F
100
AcDbEntity
  8
0
  6
Continuous
 62
     7
370
    25
100
AcDbCircle
 10
2445.7227136511
 20
3298.0889029606
 30
0.0
 40
3.899982396197704
100
AcDbArc
 50
115.6822901284
 51
155.7794201896
  0
ARC
  5
485
330
1F
100
AcDbEntity
  8
0
  6
Continuous
 62
     7
370
    25
100
AcDbCircle
 10
2447.0814327515
 20
3295.263493371
 30
0.0
 40
7.035115079606593
100
AcDbArc
 50
89.1994055234
 51
115.6824129372
  0
ARC
  5
486
330
1F
100
AcDbEntity
  8
0
  6
Continuous
 62
     7
370
    25
100
AcDbCircle
 10
2445.4780718708
 20
3180.5283651661
 30
0.0
 40
121.7814457848206
100
AcDbArc
 50
85.8828700353
 51
89.1993765977
  0
ARC
  5
487
330
1F
100
AcDbEntity
  8
0
  6
Continuous
 62
     7
370
    25
100
AcDbCircle
 10
2461.5543883499
 20
3403.8674234078
 30
0.0
 40
102.1354648937013
100
AcDbArc
 50
265.8828383881
 51
269.8626615101
  0
ARC
  5
488
330
1F
100
AcDbEntity
  8
0
  6
Continuous
 62
     7
370
    25
100
AcDbCircle
 10
2461.3276287748
 20
3309.265321919
 30
0.0
 40
7.533091635908958
100
AcDbArc
 50
269.8626392044
 51
296.6339284071
  0
ARC
  5
489
330
1F
100
AcDbEntity
  8
0
  6
Continuous
 62
     7
370
    25
100
AcDbCircle
 10
2462.2078122405
 20
3307.5102202435
 30
0.0
 40
5.569649550018887
100
AcDbArc
 50
296.6339862905
 51
329.7520233051
  0
ARC
  5
48A
330
1F
100
AcDbEntity
  8
0
  6
Continuous
 62
     7
370
    25
100
AcDbCircle
 10
2429.0346271579
 20
3326.8547184722
 30
0.0
 40
43.97107947446635
100
AcDbArc
 50
329.7519801713
 51
336.9803098157
  0
ARC
  5
48B
330
1F
100
AcDbEntity
  8
0
  6
Continuous
 62
     7
370
    25
100
AcDbCircle
 10
2417.3493267497
 20
3331.819574688
 30
0.0
 40
56.66737983616225
100
AcDbArc
 50
336.9803093748
 51
342.7840476385
  0
ARC
  5
48C
330
1F
100
AcDbEntity
  8
0
  6
Continuous
 62
     7
370
    25
100
AcDbCircle
 10
2467.0518251395
 20
3316.4189132776
 30
0.0
 40
4.633557008427251
100
AcDbArc
 50
342.7840773852
 51
19.0776962223
  0
ARC
  5
48D
330
1F
100
AcDbEntity
  8
0
  6
Continuous
 62
     7
370
    25
100
AcDbCircle
 10
2465.7578425848
 20
3315.9714022722
 30
0.0
 40
6.002738132959712
100
AcDbArc
 50
19.0776367753
 51
49.1590716849
  0
ARC
  5
48E
330
1F
100
AcDbEntity
  8
0
  6
Continuous
 62
     7
370
    25
100
AcDbCircle
 10
2394.3919049165
 20
3233.4126535785
 30
0.0
 40
115.1313047191593
100
AcDbArc
 50
49.1590118181
 51
52.6659273389
  0
ARC
  5
48F
330
1F
100
AcDbEntity
  8
0
  6
Continuous
 62
     7
370
    25
100
AcDbCircle
 10
2524.1792544377
 20
3403.5727935758
 30
0.0
 40
98.87624033401688
100
AcDbArc
 50
228.8707392538
 51
232.6658939363
  0
ARC
  5
490
330
1F
100
AcDbEntity
  8
0
  6
Continuous
 62
     7
370
    25
100
AcDbCircle
 10
2464.0654869677
 20
3334.734080183
 30
0.0
 40
7.484591366395669
100
AcDbArc
 50
203.8040793658
 51
228.870701141
  0
ARC
  5
491
330
1F
100
AcDbEntity
  8
0
  6
Continuous
 62
     7
370
    25
100
AcDbCircle
 10
2461.1040865944
 20
3333.427694015
 30
0.0
 40
4.247843462883017
100
AcDbArc
 50
166.7652956043
 51
203.8040657164
  0
ARC
  5
492
330
1F
100
AcDbEntity
  8
0
  6
Continuous
 62
     7
370
    25
100
AcDbCircle
 10
2477.5882929969
 20
3329.5508220691
 30
0.0
 40
21.1818092359827
100
AcDbArc
 50
155.5045132912
 51
166.765293286
  0
ARC
  5
493
330
1F
100
AcDbEntity
  8
0
  6
Continuous
 62
     7
370
    25
100
AcDbCircle
 10
2470.9986168899
 20
3332.5532995726
 30
0.0
 40
13.94035203777133
100
AcDbArc
 50
136.3594992218
 51
155.5045729471
  0
ARC
  5
494
330
1F
100
AcDbEntity
  8
0
  6
Continuous
 62
     7
370
    25
100
AcDbCircle
 10
2464.5380529717
 20
3338.7143407729
 30
0.0
 40
5.013016779568985
100
AcDbArc
 50
95.3235540887
 51
136.3596255247
  0
ARC
  5
495
330
1F
100
AcDbEntity
  8
0
  6
Continuous
 62
     7
370
    25
100
AcDbCircle
 10
2465.5017746211
 20
3328.3719911373
 30
0.0
 40
15.40017016266901
100
AcDbArc
 50
76.2408497536
 51
95.3235630766
  0
ARC
  5
496
330
1F
100
AcDbEntity
  8
0
  6
Continuous
 62
     7
370
    25
100
AcDbCircle
 10
2398.231623015
 20
3053.6526021017
 30
0.0
 40
298.2358397822487
100
AcDbArc
 50
74.0313184708
 51
76.2408044577
  0
ARC
  5
497
330
1F
100
AcDbEntity
  8
0
  6
Continuous
 62
     7
370
    25
100
AcDbCircle
 10
2482.6263130086
 20
3348.5802022132
 30
0.0
 40
8.529140302873394
100
AcDbArc
 50
254.0313190811
 51
274.3297656236
  0
ARC
  5
498
330
1F
100
AcDbEntity
  8
0
  6
Continuous
 62
     7
370
    25
100
AcDbCircle
 10
2482.8020675358
 20
3346.2587752157
 30
0.0
 40
6.201069651293446
100
AcDbArc
 50
274.3298329859
 51
300.1050078887
  0
ARC
  5
499
330
1F
100
AcDbEntity
  8
0
  6
Continuous
 62
     7
370
    25
100
AcDbCircle
 10
2480.5025270624
 20
3350.2248857294
 30
0.0
 40
10.78560005209934
100
AcDbArc
 50
300.1050237873
 51
318.4134614076
  0
ARC
  5
49A
330
1F
100
AcDbEntity
  8
0
  6
Continuous
 62
     7
370
    25
100
AcDbCircle
 10
2453.3824033529
 20
3374.2918576859
 30
0.0
 40
47.04467131951254
100
AcDbArc
 50
318.4134692369
 51
324.5467783289
  0
ARC
  5
49B
330
1F
100
AcDbEntity
  8
0
  6
Continuous
 62
     7
370
    25
100
AcDbCircle
 10
2571.0932144301
 20
3459.4584126372
 30
0.0
 40
103.7896674547454
100
AcDbArc
 50
229.9212571086
 51
234.2946859794
  0
ARC
  5
49C
330
1F
100
AcDbEntity
  8
0
  6
Continuous
 62
     7
370
    25
100
AcDbCircle
 10
2514.7647813461
 20
3381.0844474824
 30
0.0
 40
7.273498924392845
100
AcDbArc
 50
234.2947051824
 51
264.7896137301
  0
ARC
  5
49D
330
1F
100
AcDbEntity
  8
0
  6
Continuous
 62
     7
370
    25
100
AcDbCircle
 10
2514.628083812
 20
3379.5853771059
 30
0.0
 40
5.768208849520633
100
AcDbArc
 50
264.7895884466
 51
300.7409726793
  0
ARC
  5
49E
330
1F
100
AcDbEntity
  8
0
  6
Continuous
 62
     7
370
    25
100
AcDbCircle
 10
2489.1910163697
 20
3422.3566745872
 30
0.0
 40
55.53193347198537
100
AcDbArc
 50
300.740921877
 51
307.552529585
  0
ARC
  5
49F
330
1F
100
AcDbEntity
  8
0
  6
Continuous
 62
     7
370
    25
100
AcDbCircle
 10
2497.6357269544
 20
3411.372195219
 30
0.0
 40
41.67654015920353
100
AcDbArc
 50
307.5525169738
 51
314.4243461405
  0
ARC
  5
4A0
330
1F
100
AcDbEntity
  8
0
  6
Continuous
 62
     7
370
    25
100
AcDbCircle
 10
2523.9994893489
 20
3384.4732824927
 30
0.0
 40
4.012240438544406
100
AcDbArc
 50
314.4243389506
 51
352.7023756965
  0
ARC
  5
4A1
330
1F
100
AcDbEntity
  8
0
  6
Continuous
 62
     7
370
    25
100
AcDbCircle
 10
2521.403545745
 20
3384.8057340423
 30
0.0
 40
6.629385300339436
100
AcDbArc
 50
352.7022650434
 51
19.2533371944
  0
ARC
  5
4A2
330
1F
100
AcDbEntity
  8
0
  6
Continuous
 62
     7
370
    25
100
AcDbCircle
 10
2369.4342445175
 20
3331.7259858839
 30
0.0
 40
167.6018307067622
100
AcDbArc
 50
19.253260145
 51
21.8074002488
  0
ARC
  5
4A3
330
1F
100
AcDbEntity
  8
0
  6
Continuous
 62
     7
370
    25
100
AcDbCircle
 10
2552.4751845722
 20
3371.3845887286
 30
0.0
 40
45.337689266925
100
AcDbArc
 50
116.7066855076
 51
123.2338888042
  0
ARC
  5
4A4
330
1F
100
AcDbEntity
  8
0
  6
Continuous
 62
     7
370
    25
100
AcDbCircle
 10
2533.6160812226
 20
3408.8708430418
 30
0.0
 40
3.374788490345811
100
AcDbArc
 50
73.1085847889
 51
116.7066738276
  0
ARC
  5
4A5
330
1F
100
AcDbEntity
  8
0
  6
Continuous
 62
     7
370
    25
100
AcDbCircle
 10
2533.0104074607
 20
3406.8762306307
 30
0.0
 40
5.459331456231758
100
AcDbArc
 50
42.4985018504
 51
73.108679112
  0
ARC
  5
4A6
330
1F
100
AcDbEntity
  8
0
  6
Continuous
 62
     7
370
    25
100
AcDbCircle
 10
2418.0143260602
 20
3301.5071848873
 30
0.0
 40
161.4296316365632
100
AcDbArc
 50
39.8563884543
 51
42.4985235632
  0
ARC
  5
4A7
330
1F
100
AcDbEntity
  8
0
  6
Continuous
 62
     7
370
    25
100
AcDbCircle
 10
2622.8646171824
 20
3472.5239187889
 30
0.0
 40
105.4230712676149
100
AcDbArc
 50
219.8564176909
 51
223.8298256174
  0
ARC
  5
4A8
330
1F
100
AcDbEntity
  8
0
  6
Continuous
 62
     7
370
    25
100
AcDbCircle
 10
2551.8700892103
 20
3404.3716438569
 30
0.0
 40
7.010899355822688
100
AcDbArc
 50
223.8298696309
 51
252.5756427161
  0
ARC
  5
4A9
330
1F
100
AcDbEntity
  8
0
  6
Continuous
 62
     7
370
    25
100
AcDbCircle
 10
2551.7743898869
 20
3404.0667201684
 30
0.0
 40
6.691310844882931
100
AcDbArc
 50
252.5756398958
 51
282.3101093438
  0
ARC
  5
4AA
330
1F
100
AcDbEntity
  8
0
  6
Continuous
 62
     7
370
    25
100
AcDbCircle
 10
2533.5298028381
 20
3487.6726221821
 30
0.0
 40
92.26474017961758
100
AcDbArc
 50
282.3101694203
 51
286.6785580967
  0
ARC
  5
4AB
330
1F
100
AcDbEntity
  8
0
  6
Continuous
 62
     7
370
    25
100
AcDbCircle
 10
2735.0743997847
 20
3437.5219473546
 30
0.0
 40
167.5746349558611
100
AcDbArc
 50
185.1560636824
 51
187.556439886
  0
ARC
  5
4AC
330
1F
100
AcDbEntity
  8
0
  6
Continuous
 62
     7
370
    25
100
AcDbCircle
 10
2581.4072890307
 20
3423.6559423199
 30
0.0
 40
13.28319960347012
100
AcDbArc
 50
169.807935907
 51
185.1560327951
  0
ARC
  5
4AD
330
1F
100
AcDbEntity
  8
0
  6
Continuous
 62
     7
370
    25
100
AcDbCircle
 10
2571.3013661222
 20
3425.4728386289
 30
0.0
 40
3.015249952698094
100
AcDbArc
 50
129.9753019113
 51
169.8079135553
  0
ARC
  5
4AE
330
1F
100
AcDbEntity
  8
0
  6
Continuous
 62
     7
370
    25
100
AcDbCircle
 10
2571.2921197385
 20
3425.4838727624
 30
0.0
 40
3.000853852496853
100
AcDbArc
 50
90.0000325296
 51
129.9753641144
  0
ARC
  5
4AF
330
1F
100
AcDbEntity
  8
0
  6
Continuous
 62
     7
370
    25
100
AcDbCircle
 10
2571.2921293285
 20
3443.8065042215
 30
0.0
 40
15.32177760663501
100
AcDbArc
 50
269.9999577673
 51
276.9338392293
  0
ARC
  5
4B0
330
1F
100
AcDbEntity
  8
0
  6
Continuous
 62
     7
370
    25
100
AcDbCircle
 10
2569.2077045472
 20
3460.9465022087
 30
0.0
 40
32.58805565573214
100
AcDbArc
 50
276.9338133194
 51
280.8772072149
  0
ARC
  5
4B1
330
1F
100
AcDbEntity
  8
0
  6
Continuous
 62
     7
370
    25
100
AcDbCircle
 10
2569.1011624294
 20
3461.5012433477
 30
0.0
 40
33.15293524574299
100
AcDbArc
 50
280.8771132921
 51
284.8042399842
  0
ARC
  5
4B2
330
1F
100
AcDbEntity
  8
0
  6
Continuous
 62
     7
370
    25
100
AcDbCircle
 10
2572.9590605434
 20
3446.9041155259
 30
0.0
 40
18.05460691106873
100
AcDbArc
 50
284.8041941414
 51
290.9936125213
  0
ARC
  5
4B3
330
1F
100
AcDbEntity
  8
0
  6
Continuous
 62
     7
370
    25
100
AcDbCircle
 10
2580.5542110733
 20
3427.1114843209
 30
0.0
 40
3.145264824103518
100
AcDbArc
 50
71.2639953849
 51
110.9936603457
  0
ARC
  5
4B4
330
1F
100
AcDbEntity
  8
0
  6
Continuous
 62
     7
370
    25
100
AcDbCircle
 10
2580.0362783224
 20
3425.5844761891
 30
0.0
 40
4.757718906864916
100
AcDbArc
 50
42.112247982
 51
71.2640036169
  0
ARC
  5
4B5
330
1F
100
AcDbEntity
  8
0
  6
Continuous
 62
     7
370
    25
100
AcDbCircle
 10
2573.8475030528
 20
3419.9900974647
 30
0.0
 40
13.10026124419571
100
AcDbArc
 50
26.3521098407
 51
42.1122078057
  0
ARC
  5
4B6
330
1F
100
AcDbEntity
  8
0
  6
Continuous
 62
     7
370
    25
100
AcDbCircle
 10
2522.6618911522
 20
3394.6345785176
 30
0.0
 40
70.22179139447124
100
AcDbArc
 50
21.807363643
 51
26.3521565914
  0
ARC
  5
4B7
330
1F
100
AcDbEntity
  8
0
  6
Continuous
 62
     7
370
    25
100
AcDbCircle
 10
2679.3503709211
 20
3457.3289081036
 30
0.0
 40
98.54390018565854
100
AcDbArc
 50
201.8073898789
 51
205.9420922329
  0
ARC
  5
4B8
330
1F
100
AcDbEntity
  8
0
  6
Continuous
 62
     7
370
    25
100
AcDbCircle
 10
2597.2123619584
 20
3417.3702362863
 30
0.0
 40
7.201971315267135
100
AcDbArc
 50
205.9420866818
 51
233.934509296
  0
ARC
  5
4B9
330
1F
100
AcDbEntity
  8
0
  6
Continuous
 62
     7
370
    25
100
AcDbCircle
 10
2596.2131327933
 20
3415.9982242432
 30
0.0
 40
5.504656974660604
100
AcDbArc
 50
233.9345598069
 51
267.7805351403
  0
ARC
  5
4BA
330
1F
100
AcDbEntity
  8
0
  6
Continuous
 62
     7
370
    25
100
AcDbCircle
 10
2597.8154181387
 20
3457.3419065331
 30
0.0
 40
46.87937611112024
100
AcDbArc
 50
267.780590284
 51
274.7783547868
  0
ARC
  5
4BB
330
1F
100
AcDbEntity
  8
0
  6
Continuous
 62
     7
370
    25
100
AcDbCircle
 10
2597.4890729197
 20
3461.2452484389
 30
0.0
 40
50.79633656943327
100
AcDbArc
 50
274.7784193035
 51
280.5707057436
  0
ARC
  5
4BC
330
1F
100
AcDbEntity
  8
0
  6
Continuous
 62
     7
370
    25
100
AcDbCircle
 10
2605.5335576485
 20
3418.1380485827
 30
0.0
 40
6.944946466095592
100
AcDbArc
 50
280.5706961534
 51
305.6998169205
  0
ARC
  5
4BD
330
1F
100
AcDbEntity
  8
0
  6
Continuous
 62
     7
370
    25
100
AcDbCircle
 10
2607.0207020453
 20
3416.0684602
 30
0.0
 40
4.39645779030199
100
AcDbArc
 50
305.699771331
 51
339.6977534413
  0
ARC
  5
4BE
330
1F
100
AcDbEntity
  8
0
  6
Continuous
 62
     7
370
    25
100
AcDbCircle
 10
2597.4538358817
 20
3419.6077881549
 30
0.0
 40
14.5970347624651
100
AcDbArc
 50
339.6977156976
 51
353.6105787405
  0
ARC
  5
4BF
330
1F
100
AcDbEntity
  8
0
  6
Continuous
 62
     7
370
    25
100
AcDbCircle
 10
2707.2995525713
 20
3407.307191878
 30
0.0
 40
95.93525076448324
100
AcDbArc
 50
171.8321766021
 51
173.6106019005
  0
ARC
  5
4C0
330
1F
100
AcDbEntity
  8
0
  6
Continuous
 62
     7
370
    25
100
AcDbCircle
 10
2794.0784422477
 20
3394.8520171687
 30
0.0
 40
183.6034152856246
100
AcDbArc
 50
170.7380994303
 51
171.8322113246
  0
ARC
  5
4C1
330
1F
100
AcDbEntity
  8
0
  6
Continuous
 62
     7
370
    25
100
AcDbCircle
 10
2791.7166963154
 20
3395.2374455963
 30
0.0
 40
181.2104257665139
100
AcDbArc
 50
169.6413279324
 51
170.738189961
  0
ARC
  5
4C2
330
1F
100
AcDbEntity
  8
0
  6
Continuous
 62
     7
370
    25
100
AcDbCircle
 10
2695.7330572716
 20
3412.7821570103
 30
0.0
 40
83.63647502823076
100
AcDbArc
 50
167.6859672352
 51
169.641310152
  0
ARC
  5
4C3
330
1F
100
AcDbEntity
  8
0
  6
Continuous
 62
     7
370
    25
100
AcDbCircle
 10
2627.9935054375
 20
3427.5691470701
 30
0.0
 40
14.30176541087127
100
AcDbArc
 50
154.9925878091
 51
167.6859631851
  0
MTEXT
  5
4C5
330
1F
100
AcDbEntity
  8
0
  6
Continuous
 62
     7
100
AcDbMText
 10
2434.3175162663
 20
3055.1140220568
 30
0.0
 40
4.83362
 41
0.0
 71
     1
 72
     1
  1
SOLIDWORKS Educational Product.
  7
SLDTEXTSTYLE0
 73
     1
 44
1.0
  0
MTEXT
  5
4C6
330
1F
100
AcDbEntity
  8
0
  6
Continuous
 62
     7
100
AcDbMText
 10
2434.3175162663
 20
3047.8635920568
 30
0.0
 40
4.83362
 41
0.0
 71
     1
 72
     1
  1
For Instructional Use Only.
  7
SLDTEXTSTYLE0
 73
     1
 44
1.0
  0
ENDSEC
  0
SECTION
  2
OBJECTS
  0
DICTIONARY
  5
C
330
0
100
AcDbDictionary
281
     1
  3
ACAD_GROUP
350
D
  3
ACAD_LAYOUT
350
1A
  3
ACAD_MLINESTYLE
350
17
  3
ACAD_PLOTSETTINGS
350
19
  3
ACAD_PLOTSTYLENAME
350
E
  3
ACAD_SCALELIST
350
47
  3
DWGPROPS
350
4C7
  0
DICTIONARY
  5
D
102
{ACAD_REACTORS
330
C
102
}
330
C
100
AcDbDictionary
281
     1
  0
DICTIONARY
  5
1A
102
{ACAD_REACTORS
330
C
102
}
330
C
100
AcDbDictionary
281
     1
  3
Layout1
350
1E
  3
Layout2
350
26
  3
Model
350
22
  0
DICTIONARY
  5
17
102
{ACAD_REACTORS
330
C
102
}
330
C
100
AcDbDictionary
281
     1
  3
Standard
350
18
  0
DICTIONARY
  5
19
102
{ACAD_REACTORS
330
C
102
}
330
C
100
AcDbDictionary
281
     1
  0
ACDBDICTIONARYWDFLT
  5
E
102
{ACAD_REACTORS
330
C
102
}
330
C
100
AcDbDictionary
281
     1
  3
Normal
350
F
100
AcDbDictionaryWithDefault
340
F
  0
DICTIONARY
  5
47
102
{ACAD_REACTORS
330
C
102
}
330
C
100
AcDbDictionary
281
     1
  3
A0
350
48
  3
A1
350
49
  3
A2
350
4A
  3
A3
350
4B
  3
A4
350
4C
  3
A5
350
4D
  3
A6
350
4E
  3
A7
350
4F
  3
A8
350
50
  3
A9
350
51
  3
B0
350
52
  3
B1
350
53
  3
B2
350
54
  3
B3
350
55
  3
B4
350
56
  3
B5
350
57
  3
B6
350
58
  0
XRECORD
  5
4C7
102
{ACAD_REACTORS
330
C
102
}
330
C
100
AcDbXrecord
280
     1
  1
DWGPROPS COOKIE
  2

  3

  4

  6

  7

  8
anast
  9

300
=
301
=
302
=
303
=
304
=
305
=
306
=
307
=
308
=
309
=
 40
0.0
 41
2460804.594655278
 42
2460804.594688392
  1

 90
        0
  0
LAYOUT
  5
1E
102
{ACAD_REACTORS
330
1A
102
}
330
1A
100
AcDbPlotSettings
  1

  2
none_device
  4

  6

 40
0.0
 41
0.0
 42
0.0
 43
0.0
 44
0.0
 45
0.0
 46
0.0
 47
0.0
 48
0.0
 49
0.0
140
0.0
141
0.0
142
1.0
143
1.0
 70
   688
 72
     1
 73
     0
 74
     5
  7

 75
    16
147
1.0
148
0.0
149
0.0
100
AcDbLayout
  1
Layout1
 70
     1
 71
     1
 10
0.0
 20
0.0
 11
420.0
 21
297.0
 12
0.0
 22
0.0
 32
0.0
 14
1.0000000000E+20
 24
1.0000000000E+20
 34
1.0000000000E+20
 15
-1.0000000000E+20
 25
-1.0000000000E+20
 35
-1.0000000000E+20
146
0.0
 13
0.0
 23
0.0
 33
0.0
 16
1.0
 26
0.0
 36
0.0
 17
0.0
 27
1.0
 37
0.0
 76
     0
330
1B
  0
LAYOUT
  5
26
102
{ACAD_REACTORS
330
1A
102
}
330
1A
100
AcDbPlotSettings
  1

  2
none_device
  4

  6

 40
0.0
 41
0.0
 42
0.0
 43
0.0
 44
0.0
 45
0.0
 46
0.0
 47
0.0
 48
0.0
 49
0.0
140
0.0
141
0.0
142
1.0
143
1.0
 70
   688
 72
     1
 73
     0
 74
     5
  7

 75
    16
147
1.0
148
0.0
149
0.0
100
AcDbLayout
  1
Layout2
 70
     1
 71
     2
 10
0.0
 20
0.0
 11
0.0
 21
0.0
 12
0.0
 22
0.0
 32
0.0
 14
0.0
 24
0.0
 34
0.0
 15
0.0
 25
0.0
 35
0.0
146
0.0
 13
0.0
 23
0.0
 33
0.0
 16
1.0
 26
0.0
 36
0.0
 17
0.0
 27
1.0
 37
0.0
 76
     0
330
23
  0
LAYOUT
  5
22
102
{ACAD_REACTORS
330
1A
102
}
330
1A
100
AcDbPlotSettings
  1

  2
none_device
  4
ANSI_A_(11.00_x_8.50_Inches)
  6

 40
6.35
 41
19.05
 42
6.35000508
 43
19.05000254
 44
279.4
 45
215.9
 46
-1343.120447859
 47
-1737.4730877529
 48
0.0
 49
0.0
140
0.0
141
0.0
142
0.0221511757
143
1.0
 70
  1696
 72
     0
 73
     0
 74
     0
  7

 75
     0
147
0.0179189148
148
-1300.4909072572
149
0.0
100
AcDbLayout
  1
Model
 70
     1
 71
     0
 10
0.0
 20
0.0
 11
420.0
 21
297.0
 12
0.0
 22
0.0
 32
0.0
 14
2434.3175162663
 24
3056.1335884485
 34
0.0
 15
2814.0501870013
 25
3436.0231300308
 35
0.0
146
0.0
 13
0.0
 23
0.0
 33
0.0
 16
1.0
 26
0.0
 36
0.0
 17
0.0
 27
1.0
 37
0.0
 76
     0
330
1F
331
29
  0
MLINESTYLE
  5
18
102
{ACAD_REACTORS
330
17
102
}
330
17
100
AcDbMlineStyle
  2
Standard
 70
     0
  3

 62
   256
 51
90.0
 52
90.0
 71
     2
 49
0.5
 62
   256
  6
BYLAYER
 49
-0.5
 62
   256
  6
BYLAYER
  0
ACDBPLACEHOLDER
  5
F
102
{ACAD_REACTORS
330
E
102
}
330
E
  0
SCALE
  5
48
102
{ACAD_REACTORS
330
47
102
}
330
47
100
AcDbScale
 70
     0
300
1:1
140
1.0
141
1.0
290
     1
  0
SCALE
  5
49
102
{ACAD_REACTORS
330
47
102
}
330
47
100
AcDbScale
 70
     0
300
1:2
140
1.0
141
2.0
290
     0
  0
SCALE
  5
4A
102
{ACAD_REACTORS
330
47
102
}
330
47
100
AcDbScale
 70
     0
300
1:4
140
1.0
141
4.0
290
     0
  0
SCALE
  5
4B
102
{ACAD_REACTORS
330
47
102
}
330
47
100
AcDbScale
 70
     0
300
1:5
140
1.0
141
5.0
290
     0
  0
SCALE
  5
4C
102
{ACAD_REACTORS
330
47
102
}
330
47
100
AcDbScale
 70
     0
300
1:8
140
1.0
141
8.0
290
     0
  0
SCALE
  5
4D
102
{ACAD_REACTORS
330
47
102
}
330
47
100
AcDbScale
 70
     0
300
1:10
140
1.0
141
10.0
290
     0
  0
SCALE
  5
4E
102
{ACAD_REACTORS
330
47
102
}
330
47
100
AcDbScale
 70
     0
300
1:16
140
1.0
141
16.0
290
     0
  0
SCALE
  5
4F
102
{ACAD_REACTORS
330
47
102
}
330
47
100
AcDbScale
 70
     0
300
1:20
140
1.0
141
20.0
290
     0
  0
SCALE
  5
50
102
{ACAD_REACTORS
330
47
102
}
330
47
100
AcDbScale
 70
     0
300
1:30
140
1.0
141
30.0
290
     0
  0
SCALE
  5
51
102
{ACAD_REACTORS
330
47
102
}
330
47
100
AcDbScale
 70
     0
300
1:40
140
1.0
141
40.0
290
     0
  0
SCALE
  5
52
102
{ACAD_REACTORS
330
47
102
}
330
47
100
AcDbScale
 70
     0
300
1:50
140
1.0
141
50.0
290
     0
  0
SCALE
  5
53
102
{ACAD_REACTORS
330
47
102
}
330
47
100
AcDbScale
 70
     0
300
1:100
140
1.0
141
100.0
290
     0
  0
SCALE
  5
54
102
{ACAD_REACTORS
330
47
102
}
330
47
100
AcDbScale
 70
     0
300
2:1
140
2.0
141
1.0
290
     0
  0
SCALE
  5
55
102
{ACAD_REACTORS
330
47
102
}
330
47
100
AcDbScale
 70
     0
300
4:1
140
4.0
141
1.0
290
     0
  0
SCALE
  5
56
102
{ACAD_REACTORS
330
47
102
}
330
47
100
AcDbScale
 70
     0
300
8:1
140
8.0
141
1.0
290
     0
  0
SCALE
  5
57
102
{ACAD_REACTORS
330
47
102
}
330
47
100
AcDbScale
 70
     0
300
10:1
140
10.0
141
1.0
290
     0
  0
SCALE
  5
58
102
{ACAD_REACTORS
330
47
102
}
330
47
100
AcDbScale
 70
     0
300
100:1
140
100.0
141
1.0
290
     0
  0
ENDSEC
  0
EOF
