  0
SECTION
  2
HEADER
  9
$ACADVER
  1
AC1015
  9
$ACADMAINTVER
 70
     6
  9
$DWGCODEPAGE
  3
ANSI_1252
  9
$INSBASE
 10
0.0
 20
0.0
 30
0.0
  9
$EXTMIN
 10
10513.5823099561
 20
3016.8618364082
 30
0.0
  9
$EXTMAX
 10
10974.0278166013
 20
3477.7194363148
 30
0.0
  9
$LIMMIN
 10
0.0
 20
0.0
  9
$LIMMAX
 10
420.0
 20
297.0
  9
$ORTHOMODE
 70
     0
  9
$REGENMODE
 70
     1
  9
$FILLMODE
 70
     1
  9
$QTEXTMODE
 70
     0
  9
$MIRRTEXT
 70
     1
  9
$LTSCALE
 40
1.0
  9
$ATTMODE
 70
     1
  9
$TEXTSIZE
 40
3.5
  9
$TRACEWID
 40
1.0
  9
$TEXTSTYLE
  7
Standard
  9
$CLAYER
  8
0
  9
$CELTYPE
  6
ByLayer
  9
$CECOLOR
 62
   256
  9
$CELTSCALE
 40
1.0
  9
$DISPSILH
 70
     0
  9
$DIMSCALE
 40
1.0
  9
$DIMASZ
 40
3.302
  9
$DIMEXO
 40
0.0
  9
$DIMDLI
 40
3.75
  9
$DIMRND
 40
0.0
  9
$DIMDLE
 40
0.0
  9
$DIMEXE
 40
1.0
  9
$DIMTP
 40
0.0
  9
$DIMTM
 40
0.0
  9
$DIMTXT
 40
3.5
  9
$DIMCEN
 40
2.5
  9
$DIMTSZ
 40
0.0
  9
$DIMTOL
 70
     0
  9
$DIMLIM
 70
     0
  9
$DIMTIH
 70
     1
  9
$DIMTOH
 70
     1
  9
$DIMSE1
 70
     0
  9
$DIMSE2
 70
     0
  9
$DIMTAD
 70
     1
  9
$DIMZIN
 70
     1
  9
$DIMBLK
  1

  9
$DIMASO
 70
     1
  9
$DIMSHO
 70
     1
  9
$DIMPOST
  1

  9
$DIMAPOST
  1

  9
$DIMALT
 70
     0
  9
$DIMALTD
 70
     3
  9
$DIMALTF
 40
0.0393700787
  9
$DIMLFAC
 40
1.0
  9
$DIMTOFL
 70
     1
  9
$DIMTVP
 40
0.0
  9
$DIMTIX
 70
     0
  9
$DIMSOXD
 70
     0
  9
$DIMSAH
 70
     0
  9
$DIMBLK1
  1

  9
$DIMBLK2
  1

  9
$DIMSTYLE
  2
ISO-25
  9
$DIMCLRD
 70
     0
  9
$DIMCLRE
 70
     0
  9
$DIMCLRT
 70
     0
  9
$DIMTFAC
 40
1.0
  9
$DIMGAP
 40
1.524
  9
$DIMJUST
 70
     0
  9
$DIMSD1
 70
     0
  9
$DIMSD2
 70
     0
  9
$DIMTOLJ
 70
     0
  9
$DIMTZIN
 70
     1
  9
$DIMALTZ
 70
     0
  9
$DIMALTTZ
 70
     0
  9
$DIMUPT
 70
     0
  9
$DIMDEC
 70
     2
  9
$DIMTDEC
 70
     2
  9
$DIMALTU
 70
     2
  9
$DIMALTTD
 70
     3
  9
$DIMTXSTY
  7
Standard
  9
$DIMAUNIT
 70
     0
  9
$DIMADEC
 70
     2
  9
$DIMALTRND
 40
0.0
  9
$DIMAZIN
 70
     0
  9
$DIMDSEP
 70
    44
  9
$DIMATFIT
 70
     3
  9
$DIMFRAC
 70
     0
  9
$DIMLDRBLK
  1

  9
$DIMLUNIT
 70
     2
  9
$DIMLWD
 70
    -2
  9
$DIMLWE
 70
    -2
  9
$DIMTMOVE
 70
     0
  9
$LUNITS
 70
     2
  9
$LUPREC
 70
     6
  9
$SKETCHINC
 40
1.0
  9
$FILLETRAD
 40
0.0
  9
$AUNITS
 70
     0
  9
$AUPREC
 70
     2
  9
$MENU
  1
.
  9
$ELEVATION
 40
0.0
  9
$PELEVATION
 40
0.0
  9
$THICKNESS
 40
0.0
  9
$LIMCHECK
 70
     0
  9
$CHAMFERA
 40
0.0
  9
$CHAMFERB
 40
0.0
  9
$CHAMFERC
 40
0.0
  9
$CHAMFERD
 40
0.0
  9
$SKPOLY
 70
     0
  9
$TDCREATE
 40
2460804.678604502
  9
$TDUCREATE
 40
2460804.595271169
  9
$TDUPDATE
 40
2460804.678634804
  9
$TDUUPDATE
 40
2460804.59530147
  9
$TDINDWG
 40
0.0000000116
  9
$TDUSRTIMER
 40
0.0000000116
  9
$USRTIMER
 70
     1
  9
$ANGBASE
 50
0.0
  9
$ANGDIR
 70
     0
  9
$PDMODE
 70
     0
  9
$PDSIZE
 40
-1.0
  9
$PLINEWID
 40
0.0
  9
$SPLFRAME
 70
     0
  9
$SPLINETYPE
 70
     6
  9
$SPLINESEGS
 70
     8
  9
$HANDSEED
  5
441
  9
$SURFTAB1
 70
     6
  9
$SURFTAB2
 70
     6
  9
$SURFTYPE
 70
     6
  9
$SURFU
 70
     6
  9
$SURFV
 70
     6
  9
$UCSBASE
  2

  9
$UCSNAME
  2

  9
$UCSORG
 10
0.0
 20
0.0
 30
0.0
  9
$UCSXDIR
 10
1.0
 20
0.0
 30
0.0
  9
$UCSYDIR
 10
0.0
 20
1.0
 30
0.0
  9
$UCSORTHOREF
  2

  9
$UCSORTHOVIEW
 70
     0
  9
$UCSORGTOP
 10
0.0
 20
0.0
 30
0.0
  9
$UCSORGBOTTOM
 10
0.0
 20
0.0
 30
0.0
  9
$UCSORGLEFT
 10
0.0
 20
0.0
 30
0.0
  9
$UCSORGRIGHT
 10
0.0
 20
0.0
 30
0.0
  9
$UCSORGFRONT
 10
0.0
 20
0.0
 30
0.0
  9
$UCSORGBACK
 10
0.0
 20
0.0
 30
0.0
  9
$PUCSBASE
  2

  9
$PUCSNAME
  2

  9
$PUCSORG
 10
0.0
 20
0.0
 30
0.0
  9
$PUCSXDIR
 10
1.0
 20
0.0
 30
0.0
  9
$PUCSYDIR
 10
0.0
 20
1.0
 30
0.0
  9
$PUCSORTHOREF
  2

  9
$PUCSORTHOVIEW
 70
     0
  9
$PUCSORGTOP
 10
0.0
 20
0.0
 30
0.0
  9
$PUCSORGBOTTOM
 10
0.0
 20
0.0
 30
0.0
  9
$PUCSORGLEFT
 10
0.0
 20
0.0
 30
0.0
  9
$PUCSORGRIGHT
 10
0.0
 20
0.0
 30
0.0
  9
$PUCSORGFRONT
 10
0.0
 20
0.0
 30
0.0
  9
$PUCSORGBACK
 10
0.0
 20
0.0
 30
0.0
  9
$USERI1
 70
     0
  9
$USERI2
 70
     0
  9
$USERI3
 70
     0
  9
$USERI4
 70
     0
  9
$USERI5
 70
     0
  9
$USERR1
 40
0.0
  9
$USERR2
 40
0.0
  9
$USERR3
 40
0.0
  9
$USERR4
 40
0.0
  9
$USERR5
 40
0.0
  9
$WORLDVIEW
 70
     1
  9
$SHADEDGE
 70
     3
  9
$SHADEDIF
 70
    70
  9
$TILEMODE
 70
     1
  9
$MAXACTVP
 70
    64
  9
$PINSBASE
 10
0.0
 20
0.0
 30
0.0
  9
$PLIMCHECK
 70
     0
  9
$PEXTMIN
 10
1.0000000000E+20
 20
1.0000000000E+20
 30
1.0000000000E+20
  9
$PEXTMAX
 10
-1.0000000000E+20
 20
-1.0000000000E+20
 30
-1.0000000000E+20
  9
$PLIMMIN
 10
0.0
 20
0.0
  9
$PLIMMAX
 10
420.0
 20
297.0
  9
$UNITMODE
 70
     0
  9
$VISRETAIN
 70
     1
  9
$PLINEGEN
 70
     0
  9
$PSLTSCALE
 70
     1
  9
$TREEDEPTH
 70
  3020
  9
$CMLSTYLE
  2
Standard
  9
$CMLJUST
 70
     0
  9
$CMLSCALE
 40
20.0
  9
$PROXYGRAPHICS
 70
     1
  9
$MEASUREMENT
 70
     1
  9
$CELWEIGHT
370
    -1
  9
$ENDCAPS
280
     0
  9
$JOINSTYLE
280
     0
  9
$LWDISPLAY
290
     1
  9
$INSUNITS
 70
     4
  9
$HYPERLINKBASE
  1

  9
$STYLESHEET
  1

  9
$XEDIT
290
     1
  9
$CEPSNTYPE
380
     0
  9
$PSTYLEMODE
290
     1
  9
$FINGERPRINTGUID
  2
{249f5dfe-764a-4420-b701-3d89b1ba2e2f}
  9
$VERSIONGUID
  2
{FAEB1C32-E019-11D5-929B-00C0DF256EC4}
  9
$EXTNAMES
290
     1
  9
$PSVPSCALE
 40
0.0
  9
$OLESTARTUP
290
     0
  0
ENDSEC
  0
SECTION
  2
CLASSES
  0
CLASS
  1
ACDBDICTIONARYWDFLT
  2
AcDbDictionaryWithDefault
  3
ObjectDBX Classes
 90
        0
280
     0
281
     0
  0
CLASS
  1
VISUALSTYLE
  2
AcDbVisualStyle
  3
ObjectDBX Classes
 90
     4095
280
     0
281
     0
  0
CLASS
  1
MATERIAL
  2
AcDbMaterial
  3
ObjectDBX Classes
 90
     1153
280
     0
281
     0
  0
CLASS
  1
SCALE
  2
AcDbScale
  3
ObjectDBX Classes
 90
     1153
280
     0
281
     0
  0
CLASS
  1
TABLESTYLE
  2
AcDbTableStyle
  3
ObjectDBX Classes
 90
     4095
280
     0
281
     0
  0
CLASS
  1
MLEADERSTYLE
  2
AcDbMLeaderStyle
  3
ACDB_MLEADERSTYLE_CLASS
 90
     4095
280
     0
281
     0
  0
CLASS
  1
SUN
  2
AcDbSun
  3
SCENEOE
 90
     1153
280
     0
281
     0
  0
CLASS
  1
ACDBPLACEHOLDER
  2
AcDbPlaceHolder
  3
ObjectDBX Classes
 90
        0
280
     0
281
     0
  0
CLASS
  1
LAYOUT
  2
AcDbLayout
  3
ObjectDBX Classes
 90
        0
280
     0
281
     0
  0
ENDSEC
  0
SECTION
  2
TABLES
  0
TABLE
  2
VPORT
  5
8
330
0
100
AcDbSymbolTable
 70
     1
  0
VPORT
  5
29
330
8
100
AcDbSymbolTableRecord
100
AcDbViewportTableRecord
  2
*Active
 70
     0
 10
0.0
 20
0.0
 11
1.0
 21
1.0
 12
10743.8050632787
 22
3247.2906363615
 13
0.0
 23
0.0
 14
10.0
 24
10.0
 15
10.0
 25
10.0
 16
0.0
 26
0.0
 36
1.0
 17
0.0
 27
0.0
 37
0.0
 40
470.0747519047
 41
0.9991058122
 42
50.0
 43
0.0
 44
0.0
 50
0.0
 51
0.0
 71
     0
 72
   100
 73
     1
 74
     3
 75
     0
 76
     0
 77
     0
 78
     0
281
     0
 65
     1
110
0.0
120
0.0
130
0.0
111
1.0
121
0.0
131
0.0
112
0.0
122
1.0
132
0.0
 79
     0
146
0.0
  0
ENDTAB
  0
TABLE
  2
LTYPE
  5
5
330
0
100
AcDbSymbolTable
 70
     6
  0
LTYPE
  5
14
330
5
100
AcDbSymbolTableRecord
100
AcDbLinetypeTableRecord
  2
ByBlock
 70
     0
  3

 72
    65
 73
     0
 40
0.0
  0
LTYPE
  5
15
330
5
100
AcDbSymbolTableRecord
100
AcDbLinetypeTableRecord
  2
ByLayer
 70
     0
  3

 72
    65
 73
     0
 40
0.0
  0
LTYPE
  5
16
330
5
100
AcDbSymbolTableRecord
100
AcDbLinetypeTableRecord
  2
Continuous
 70
     0
  3
Solid line
 72
    65
 73
     0
 40
0.0
  0
LTYPE
  5
5E
330
5
100
AcDbSymbolTableRecord
100
AcDbLinetypeTableRecord
  2
HIDDEN
 70
     0
  3
Hidden __ __ __ __ __ __ __ __ __ __ __ __ __ __
 72
    65
 73
     2
 40
1.905
 49
1.27
 74
     0
 49
-0.635
 74
     0
  0
LTYPE
  5
5F
330
5
100
AcDbSymbolTableRecord
100
AcDbLinetypeTableRecord
  2
PHANTOM
 70
     0
  3
Phantom ______  __  __  ______  __  __  ______
 72
    65
 73
     6
 40
12.7
 49
6.35
 74
     0
 49
-1.27
 74
     0
 49
1.27
 74
     0
 49
-1.27
 74
     0
 49
1.27
 74
     0
 49
-1.27
 74
     0
  0
LTYPE
  5
60
330
5
100
AcDbSymbolTableRecord
100
AcDbLinetypeTableRecord
  2
CENTER
 70
     0
  3
Center ____ _ ____ _ ____ _ ____ _ ____ _ ____
 72
    65
 73
     4
 40
10.16
 49
6.35
 74
     0
 49
-1.27
 74
     0
 49
1.27
 74
     0
 49
-1.27
 74
     0
  0
LTYPE
  5
61
330
5
100
AcDbSymbolTableRecord
100
AcDbLinetypeTableRecord
  2
CENTERX2
 70
     0
  3
Center (2x) ________  __  ________  __  _____
 72
    65
 73
     4
 40
20.32
 49
12.7
 74
     0
 49
-2.54
 74
     0
 49
2.54
 74
     0
 49
-2.54
 74
     0
  0
LTYPE
  5
62
330
5
100
AcDbSymbolTableRecord
100
AcDbLinetypeTableRecord
  2
DOT2
 70
     0
  3
Dot (.5x) ........................................
 72
    65
 73
     2
 40
0.635
 49
0.0
 74
     0
 49
-0.635
 74
     0
  0
ENDTAB
  0
TABLE
  2
LAYER
  5
2
330
0
100
AcDbSymbolTable
 70
     1
  0
LAYER
  5
10
330
2
100
AcDbSymbolTableRecord
100
AcDbLayerTableRecord
  2
0
 70
     0
 62
     7
  6
Continuous
370
    -3
390
F
  0
ENDTAB
  0
TABLE
  2
STYLE
  5
3
330
0
100
AcDbSymbolTable
 70
     2
  0
STYLE
  5
11
330
3
100
AcDbSymbolTableRecord
100
AcDbTextStyleTableRecord
  2
Standard
 70
     0
 40
0.0
 41
1.0
 50
0.0
 71
     0
 42
3.5
  3
txt
  4

  0
STYLE
  5
43D
330
3
100
AcDbSymbolTableRecord
100
AcDbTextStyleTableRecord
  2
SLDTEXTSTYLE0
 70
     0
 40
0.0
 41
0.7
 50
0.0
 71
     0
 42
3.5
  3
TXT
  4

  0
ENDTAB
  0
TABLE
  2
VIEW
  5
6
330
0
100
AcDbSymbolTable
 70
     0
  0
ENDTAB
  0
TABLE
  2
UCS
  5
7
330
0
100
AcDbSymbolTable
 70
     0
  0
ENDTAB
  0
TABLE
  2
APPID
  5
9
330
0
100
AcDbSymbolTable
 70
     1
  0
APPID
  5
12
330
9
100
AcDbSymbolTableRecord
100
AcDbRegAppTableRecord
  2
ACAD
 70
     0
  0
ENDTAB
  0
TABLE
  2
DIMSTYLE
  5
A
330
0
100
AcDbSymbolTable
 70
     1
100
AcDbDimStyleTable
  0
DIMSTYLE
105
27
330
A
100
AcDbSymbolTableRecord
100
AcDbDimStyleTableRecord
  2
ISO-25
 70
     0
 41
2.5
 42
0.625
 43
3.75
 44
1.25
 73
     0
 74
     0
 77
     1
 78
     8
140
2.5
141
2.5
143
0.0393700787
147
0.625
171
     3
172
     1
178
     0
271
     2
272
     2
274
     3
278
    44
283
     0
284
     8
340
11
  0
ENDTAB
  0
TABLE
  2
BLOCK_RECORD
  5
1
330
0
100
AcDbSymbolTable
 70
     1
  0
BLOCK_RECORD
  5
1F
330
1
100
AcDbSymbolTableRecord
100
AcDbBlockTableRecord
  2
*Model_Space
340
22
  0
BLOCK_RECORD
  5
1B
330
1
100
AcDbSymbolTableRecord
100
AcDbBlockTableRecord
  2
*Paper_Space
340
1E
  0
BLOCK_RECORD
  5
23
330
1
100
AcDbSymbolTableRecord
100
AcDbBlockTableRecord
  2
*Paper_Space0
340
26
  0
ENDTAB
  0
ENDSEC
  0
SECTION
  2
BLOCKS
  0
BLOCK
  5
20
330
1F
100
AcDbEntity
  8
0
100
AcDbBlockBegin
  2
*Model_Space
 70
     0
 10
0.0
 20
0.0
 30
0.0
  3
*Model_Space
  1

  0
ENDBLK
  5
21
330
1F
100
AcDbEntity
  8
0
100
AcDbBlockEnd
  0
BLOCK
  5
1C
330
1B
100
AcDbEntity
 67
     1
  8
0
100
AcDbBlockBegin
  2
*Paper_Space
 70
     0
 10
0.0
 20
0.0
 30
0.0
  3
*Paper_Space
  1

  0
ENDBLK
  5
1D
330
1B
100
AcDbEntity
 67
     1
  8
0
100
AcDbBlockEnd
  0
BLOCK
  5
24
330
23
100
AcDbEntity
  8
0
100
AcDbBlockBegin
  2
*Paper_Space0
 70
     0
 10
0.0
 20
0.0
 30
0.0
  3
*Paper_Space0
  1

  0
ENDBLK
  5
25
330
23
100
AcDbEntity
  8
0
100
AcDbBlockEnd
  0
ENDSEC
  0
SECTION
  2
ENTITIES
  0
LINE
  5
250
330
1F
100
AcDbEntity
  8
0
  6
Continuous
 62
     7
370
    25
100
AcDbLine
 10
10767.7180825575
 20
3211.9347997877
 30
0.0
 11
10761.2195583436
 21
3217.8943670401
 31
0.0
  0
LINE
  5
251
330
1F
100
AcDbEntity
  8
0
  6
Continuous
 62
     7
370
    25
100
AcDbLine
 10
10750.4119099574
 20
3183.3561302998
 30
0.0
 11
10750.4119099574
 21
3151.9590253525
 31
0.0
  0
LINE
  5
252
330
1F
100
AcDbEntity
  8
0
  6
Continuous
 62
     7
370
    25
100
AcDbLine
 10
10750.4119099574
 20
3151.9590253525
 30
0.0
 11
10764.0136099562
 21
3155.0014728107
 31
0.0
  0
LINE
  5
253
330
1F
100
AcDbEntity
  8
0
  6
Continuous
 62
     7
370
    25
100
AcDbLine
 10
10791.5839870249
 20
3166.2126500329
 30
0.0
 11
10805.5526640899
 21
3174.3813797965
 31
0.0
  0
LINE
  5
254
330
1F
100
AcDbEntity
  8
0
  6
Continuous
 62
     7
370
    25
100
AcDbLine
 10
10805.5526640899
 20
3174.3813797965
 30
0.0
 11
10783.6688185521
 21
3196.4342096561
 31
0.0
  0
LINE
  5
255
330
1F
100
AcDbEntity
  8
0
  6
Continuous
 62
     7
370
    25
100
AcDbLine
 10
10723.2217692138
 20
3218.3108638955
 30
0.0
 11
10717.2029369536
 21
3212.4272101311
 31
0.0
  0
LINE
  5
256
330
1F
100
AcDbEntity
  8
0
  6
Continuous
 62
     7
370
    25
100
AcDbLine
 10
10717.2029369536
 20
3212.4272101311
 30
0.0
 11
10710.462008044
 21
3205.7669601044
 31
0.0
  0
LINE
  5
257
330
1F
100
AcDbEntity
  8
0
  6
Continuous
 62
     7
370
    25
100
AcDbLine
 10
10710.462008044
 20
3205.7669601044
 30
0.0
 11
10702.5777714358
 21
3197.8578403872
 31
0.0
  0
LINE
  5
258
330
1F
100
AcDbEntity
  8
0
  6
Continuous
 62
     7
370
    25
100
AcDbLine
 10
10724.008609957
 20
3154.3648044374
 30
0.0
 11
10734.4099099548
 21
3151.9527109633
 31
0.0
  0
LINE
  5
259
330
1F
100
AcDbEntity
  8
0
  6
Continuous
 62
     7
370
    25
100
AcDbLine
 10
10734.4099099548
 20
3151.9527109633
 30
0.0
 11
10734.4099099548
 21
3183.2772660439
 31
0.0
  0
LINE
  5
25A
330
1F
100
AcDbEntity
  8
0
  6
Continuous
 62
     7
370
    25
100
AcDbLine
 10
10835.9485719029
 20
3228.0891900341
 30
0.0
 11
10837.6654968909
 21
3240.8898363145
 31
0.0
  0
LINE
  5
25B
330
1F
100
AcDbEntity
  8
0
  6
Continuous
 62
     7
370
    25
100
AcDbLine
 10
10837.6654968909
 20
3240.8898363145
 30
0.0
 11
10807.1827110191
 21
3240.8898363145
 31
0.0
  0
LINE
  5
25C
330
1F
100
AcDbEntity
  8
0
  6
Continuous
 62
     7
370
    25
100
AcDbLine
 10
10794.7053659454
 20
3207.8529616212
 30
0.0
 11
10816.8793053424
 21
3185.6790190247
 31
0.0
  0
LINE
  5
25D
330
1F
100
AcDbEntity
  8
0
  6
Continuous
 62
     7
370
    25
100
AcDbLine
 10
10816.8793053424
 20
3185.6790190247
 30
0.0
 11
10825.5554745274
 21
3200.4837813891
 31
0.0
  0
LINE
  5
25E
330
1F
100
AcDbEntity
  8
0
  6
Continuous
 62
     7
370
    25
100
AcDbLine
 10
10658.0242701446
 20
3205.8480646404
 30
0.0
 11
10668.0494335353
 21
3185.7859379884
 31
0.0
  0
LINE
  5
25F
330
1F
100
AcDbEntity
  8
0
  6
Continuous
 62
     7
370
    25
100
AcDbLine
 10
10668.0494335353
 20
3185.7859379884
 30
0.0
 11
10690.4899534479
 21
3208.2264611031
 31
0.0
  0
LINE
  5
260
330
1F
100
AcDbEntity
  8
0
  6
Continuous
 62
     7
370
    25
100
AcDbLine
 10
10762.2645497532
 20
3341.7914170361
 30
0.0
 11
10750.4119099574
 21
3344.0149877473
 31
0.0
  0
LINE
  5
261
330
1F
100
AcDbEntity
  8
0
  6
Continuous
 62
     7
370
    25
100
AcDbLine
 10
10750.4119099574
 20
3344.0149877473
 30
0.0
 11
10750.4119099574
 21
3313.154567477
 31
0.0
  0
LINE
  5
262
330
1F
100
AcDbEntity
  8
0
  6
Continuous
 62
     7
370
    25
100
AcDbLine
 10
10689.6043099573
 20
3327.4502198113
 30
0.0
 11
10681.6033099564
 21
3321.1871458239
 31
0.0
  0
LINE
  5
263
330
1F
100
AcDbEntity
  8
0
  6
Continuous
 62
     7
370
    25
100
AcDbLine
 10
10681.6033099564
 20
3321.1871458239
 30
0.0
 11
10702.3134568016
 21
3300.240889469
 31
0.0
  0
LINE
  5
264
330
1F
100
AcDbEntity
  8
0
  6
Continuous
 62
     7
370
    25
100
AcDbLine
 10
10914.5406474851
 20
3404.6243005647
 30
0.0
 11
10907.9972024563
 21
3411.1677423921
 31
0.0
  0
LINE
  5
265
330
1F
100
AcDbEntity
  8
0
  6
Continuous
 62
     7
370
    25
100
AcDbLine
 10
10901.5949142687
 20
3386.8526649881
 30
0.0
 11
10914.5406474851
 21
3404.6243005647
 31
0.0
  0
LINE
  5
266
330
1F
100
AcDbEntity
  8
0
  6
Continuous
 62
     7
370
    25
100
AcDbLine
 10
10908.4137121141
 20
3376.3186668027
 30
0.0
 11
10901.5949142687
 21
3386.8526649881
 31
0.0
  0
LINE
  5
267
330
1F
100
AcDbEntity
  8
0
  6
Continuous
 62
     7
370
    25
100
AcDbLine
 10
10900.4717082863
 20
3109.5655028246
 30
0.0
 11
10909.4523091221
 21
3120.8452262139
 31
0.0
  0
LINE
  5
268
330
1F
100
AcDbEntity
  8
0
  6
Continuous
 62
     7
370
    25
100
AcDbLine
 10
10913.295301437
 20
3091.5564263713
 30
0.0
 11
10900.4717082863
 21
3109.5655028246
 31
0.0
  0
LINE
  5
269
330
1F
100
AcDbEntity
  8
0
  6
Continuous
 62
     7
370
    25
100
AcDbLine
 10
10899.7453198994
 20
3078.0064448355
 30
0.0
 11
10913.295301437
 21
3091.5564263713
 31
0.0
  0
LINE
  5
26A
330
1F
100
AcDbEntity
  8
0
  6
Continuous
 62
     7
370
    25
100
AcDbLine
 10
10881.5952114187
 20
3090.9304601352
 30
0.0
 11
10899.7453198994
 21
3078.0064448355
 31
0.0
  0
LINE
  5
26B
330
1F
100
AcDbEntity
  8
0
  6
Continuous
 62
     7
370
    25
100
AcDbLine
 10
10872.2118370436
 20
3083.499848225
 30
0.0
 11
10881.5952114187
 21
3090.9304601352
 31
0.0
  0
LINE
  5
26C
330
1F
100
AcDbEntity
  8
0
  6
Continuous
 62
     7
370
    25
100
AcDbLine
 10
10605.140374085
 20
3090.0142976296
 30
0.0
 11
10615.3689901014
 21
3082.0092011174
 31
0.0
  0
LINE
  5
26D
330
1F
100
AcDbEntity
  8
0
  6
Continuous
 62
     7
370
    25
100
AcDbLine
 10
10596.3629506437
 20
3083.7642204675
 30
0.0
 11
10605.140374085
 21
3090.0142976296
 31
0.0
  0
ARC
  5
26E
330
1F
100
AcDbEntity
  8
0
  6
Continuous
 62
     7
370
    25
100
AcDbCircle
 10
10760.3012427188
 20
3216.8844267557
 30
0.0
 40
1.365021232321503
100
AcDbArc
 50
47.7204691002
 51
98.5227084779
  0
ARC
  5
26F
330
1F
100
AcDbEntity
  8
0
  6
Continuous
 62
     7
370
    25
100
AcDbCircle
 10
10761.6693106697
 20
3207.7552243382
 30
0.0
 40
10.5961612863623
100
AcDbArc
 50
98.5227096861
 51
129.3246667508
  0
ARC
  5
270
330
1F
100
AcDbEntity
  8
0
  6
Continuous
 62
     7
370
    25
100
AcDbCircle
 10
10760.5829298329
 20
3209.0813451098
 30
0.0
 40
8.881862705852157
100
AcDbArc
 50
129.3246176588
 51
164.4780216675
  0
ARC
  5
271
330
1F
100
AcDbEntity
  8
0
  6
Continuous
 62
     7
370
    25
100
AcDbCircle
 10
10787.4661686862
 20
3201.6148417723
 30
0.0
 40
36.78270863081026
100
AcDbArc
 50
164.4779993992
 51
178.2958708124
  0
ARC
  5
272
330
1F
100
AcDbEntity
  8
0
  6
Continuous
 62
     7
370
    25
100
AcDbCircle
 10
11401.157474709
 20
3183.3564297905
 30
0.0
 40
650.745564751667
100
AcDbArc
 50
178.2958520916
 51
180.0000263691
  0
ARC
  5
273
330
1F
100
AcDbEntity
  8
0
  6
Continuous
 62
     7
370
    25
100
AcDbCircle
 10
10751.0308936013
 20
3213.0428727616
 30
0.0
 40
59.47566756423954
100
AcDbArc
 50
282.6083920982
 51
288.8296435912
  0
ARC
  5
274
330
1F
100
AcDbEntity
  8
0
  6
Continuous
 62
     7
370
    25
100
AcDbCircle
 10
10725.3647221037
 20
3288.3091967535
 30
0.0
 40
138.9978147096057
100
AcDbArc
 50
288.8296291642
 51
292.1284922885
  0
ARC
  5
275
330
1F
100
AcDbEntity
  8
0
  6
Continuous
 62
     7
370
    25
100
AcDbCircle
 10
10723.5347628474
 20
3292.8087433884
 30
0.0
 40
143.8552492934043
100
AcDbArc
 50
292.1285940517
 51
295.4024813459
  0
ARC
  5
276
330
1F
100
AcDbEntity
  8
0
  6
Continuous
 62
     7
370
    25
100
AcDbCircle
 10
10749.3866036319
 20
3238.3709174445
 30
0.0
 40
83.59087702048538
100
AcDbArc
 50
295.4024990822
 51
300.3186395242
  0
ARC
  5
277
330
1F
100
AcDbEntity
  8
0
  6
Continuous
 62
     7
370
    25
100
AcDbCircle
 10
10269.9218160479
 20
2686.623395909
 30
0.0
 40
723.7700245212641
100
AcDbArc
 50
44.7796647265
 51
45.728248269
  0
ARC
  5
278
330
1F
100
AcDbEntity
  8
0
  6
Continuous
 62
     7
370
    25
100
AcDbCircle
 10
10502.5619293991
 20
2925.2535093241
 30
0.0
 40
390.5047347467726
100
AcDbArc
 50
45.7282817413
 51
47.2337639838
  0
ARC
  5
279
330
1F
100
AcDbEntity
  8
0
  6
Continuous
 62
     7
370
    25
100
AcDbCircle
 10
10680.3271015424
 20
3088.7996204519
 30
0.0
 40
136.8274141865208
100
AcDbArc
 50
69.0063253809
 51
69.8941763135
  0
ARC
  5
27A
330
1F
100
AcDbEntity
  8
0
  6
Continuous
 62
     7
370
    25
100
AcDbCircle
 10
10698.0514116557
 20
3137.2184865998
 30
0.0
 40
85.26640403317238
100
AcDbArc
 50
69.8941388227
 51
71.1594459593
  0
ARC
  5
27B
330
1F
100
AcDbEntity
  8
0
  6
Continuous
 62
     7
370
    25
100
AcDbCircle
 10
10685.3828504113
 20
3100.0910591379
 30
0.0
 40
124.4957083087024
100
AcDbArc
 50
71.1594361354
 51
71.8886943577
  0
ARC
  5
27C
330
1F
100
AcDbEntity
  8
0
  6
Continuous
 62
     7
370
    25
100
AcDbCircle
 10
10723.6544021825
 20
3217.1048196022
 30
0.0
 40
1.382216712624714
100
AcDbArc
 50
71.8887721057
 51
89.999987492
  0
ARC
  5
27D
330
1F
100
AcDbEntity
  8
0
  6
Continuous
 62
     7
370
    25
100
AcDbCircle
 10
10723.6544026515
 20
3217.8677327556
 30
0.0
 40
0.6193035592638304
100
AcDbArc
 50
90.0000154682
 51
134.313234122
  0
ARC
  5
27E
330
1F
100
AcDbEntity
  8
0
  6
Continuous
 62
     7
370
    25
100
AcDbCircle
 10
11215.2317825189
 20
2689.7605174266
 30
0.0
 40
721.7873819063697
100
AcDbArc
 50
135.2557697012
 51
136.6054134795
  0
ARC
  5
27F
330
1F
100
AcDbEntity
  8
0
  6
Continuous
 62
     7
370
    25
100
AcDbCircle
 10
10716.6425093244
 20
3161.1637507421
 30
0.0
 40
35.62976756047776
100
AcDbArc
 50
136.6054404405
 51
148.6340601489
  0
ARC
  5
280
330
1F
100
AcDbEntity
  8
0
  6
Continuous
 62
     7
370
    25
100
AcDbCircle
 10
10692.3771325812
 20
3175.9556119436
 30
0.0
 40
7.211328717085252
100
AcDbArc
 50
148.6340886879
 51
182.8154252699
  0
ARC
  5
281
330
1F
100
AcDbEntity
  8
0
  6
Continuous
 62
     7
370
    25
100
AcDbCircle
 10
10691.6876738089
 20
3175.9217029117
 30
0.0
 40
6.521036589637376
100
AcDbArc
 50
182.8154006225
 51
219.6701893558
  0
ARC
  5
282
330
1F
100
AcDbEntity
  8
0
  6
Continuous
 62
     7
370
    25
100
AcDbCircle
 10
10703.3310462392
 20
3185.5780408889
 30
0.0
 40
21.64760211793345
100
AcDbArc
 50
219.6702973604
 51
238.6255499637
  0
ARC
  5
283
330
1F
100
AcDbEntity
  8
0
  6
Continuous
 62
     7
370
    25
100
AcDbCircle
 10
10740.7239715785
 20
3246.8991181574
 30
0.0
 40
93.4703379527557
100
AcDbArc
 50
238.625600641
 51
245.0227314042
  0
ARC
  5
284
330
1F
100
AcDbEntity
  8
0
  6
Continuous
 62
     7
370
    25
100
AcDbCircle
 10
10748.8504007133
 20
3264.3444025235
 30
0.0
 40
112.7155138962142
100
AcDbArc
 50
245.0227387542
 51
251.1056633709
  0
ARC
  5
285
330
1F
100
AcDbEntity
  8
0
  6
Continuous
 62
     7
370
    25
100
AcDbCircle
 10
10750.9057391762
 20
3270.3494423471
 30
0.0
 40
119.0625541103858
100
AcDbArc
 50
251.1056556708
 51
256.9437492377
  0
ARC
  5
286
330
1F
100
AcDbEntity
  8
0
  6
Continuous
 62
     7
370
    25
100
AcDbCircle
 10
10020.6624894918
 20
3183.277316267
 30
0.0
 40
713.7474204630089
100
AcDbArc
 50
359.9999959684
 51
1.3381809478
  0
ARC
  5
287
330
1F
100
AcDbEntity
  8
0
  6
Continuous
 62
     7
370
    25
100
AcDbCircle
 10
10663.6228030653
 20
3198.2967538293
 30
0.0
 40
70.61170513135556
100
AcDbArc
 50
1.3382282102
 51
8.6524150412
  0
ARC
  5
288
330
1F
100
AcDbEntity
  8
0
  6
Continuous
 62
     7
370
    25
100
AcDbCircle
 10
10713.1648881489
 20
3205.8356170201
 30
0.0
 40
20.49930494301841
100
AcDbArc
 50
8.6525189973
 51
23.7055838858
  0
ARC
  5
289
330
1F
100
AcDbEntity
  8
0
  6
Continuous
 62
     7
370
    25
100
AcDbCircle
 10
10727.6846829776
 20
3212.2110466634
 30
0.0
 40
4.641482109929259
100
AcDbArc
 50
23.7056118702
 51
69.0063805649
  0
ARC
  5
28A
330
1F
100
AcDbEntity
  8
0
  6
Continuous
 62
     7
370
    25
100
AcDbCircle
 10
10807.1827242872
 20
2791.8830574012
 30
0.0
 40
449.0067789133381
100
AcDbArc
 50
90.0000016931
 51
93.3877689569
  0
ARC
  5
28B
330
1F
100
AcDbEntity
  8
0
  6
Continuous
 62
     7
370
    25
100
AcDbCircle
 10
10781.0691347269
 20
3233.0153737373
 30
0.0
 40
7.102218995922699
100
AcDbArc
 50
93.3877573584
 51
159.3094768948
  0
ARC
  5
28C
330
1F
100
AcDbEntity
  8
0
  6
Continuous
 62
     7
370
    25
100
AcDbCircle
 10
10781.564261622
 20
3232.8283733777
 30
0.0
 40
7.631482424353874
100
AcDbArc
 50
159.3094693116
 51
221.8688915605
  0
ARC
  5
28D
330
1F
100
AcDbEntity
  8
0
  6
Continuous
 62
     7
370
    25
100
AcDbCircle
 10
11149.0171209759
 20
3562.1648088237
 30
0.0
 40
501.072554447785
100
AcDbArc
 50
221.8688733358
 51
225.0000074526
  0
ARC
  5
28E
330
1F
100
AcDbEntity
  8
0
  6
Continuous
 62
     7
370
    25
100
AcDbCircle
 10
10759.8356758699
 20
3238.9982090861
 30
0.0
 40
76.17383459172565
100
AcDbArc
 50
329.6279933696
 51
335.234298138
  0
ARC
  5
28F
330
1F
100
AcDbEntity
  8
0
  6
Continuous
 62
     7
370
    25
100
AcDbCircle
 10
10725.1723425408
 20
3254.9897372824
 30
0.0
 40
114.3481145657669
100
AcDbArc
 50
335.2343013918
 51
339.369232855
  0
ARC
  5
290
330
1F
100
AcDbEntity
  8
0
  6
Continuous
 62
     7
370
    25
100
AcDbCircle
 10
10732.0847605261
 20
3252.3871670562
 30
0.0
 40
106.961986069016
100
AcDbArc
 50
339.3692959977
 51
343.5683775465
  0
ARC
  5
291
330
1F
100
AcDbEntity
  8
0
  6
Continuous
 62
     7
370
    25
100
AcDbCircle
 10
10796.5603555005
 20
3233.3722691758
 30
0.0
 40
39.74094257293326
100
AcDbArc
 50
343.5684114016
 51
352.3606020443
  0
ARC
  5
292
330
1F
100
AcDbEntity
  8
0
  6
Continuous
 62
     7
370
    25
100
AcDbCircle
 10
10706.5418522926
 20
3234.0795364966
 30
0.0
 40
4.741955685429867
100
AcDbArc
 50
20.9936432912
 51
65.3326860217
  0
ARC
  5
293
330
1F
100
AcDbEntity
  8
0
  6
Continuous
 62
     7
370
    25
100
AcDbCircle
 10
10700.5236434111
 20
3220.975408284
 30
0.0
 40
19.16197698755672
100
AcDbArc
 50
65.3325826052
 51
81.0527623969
  0
ARC
  5
294
330
1F
100
AcDbEntity
  8
0
  6
Continuous
 62
     7
370
    25
100
AcDbCircle
 10
10693.1627950609
 20
3174.2227515784
 30
0.0
 40
66.4905412744674
100
AcDbArc
 50
81.0526925486
 51
88.6200888058
  0
ARC
  5
295
330
1F
100
AcDbEntity
  8
0
  6
Continuous
 62
     7
370
    25
100
AcDbCircle
 10
10678.5030096465
 20
2565.6526614987
 30
0.0
 40
675.2371748158723
100
AcDbArc
 50
88.6200758534
 51
89.9999707374
  0
ARC
  5
296
330
1F
100
AcDbEntity
  8
0
  6
Continuous
 62
     7
370
    25
100
AcDbCircle
 10
10678.5024286598
 20
1860.6996899017
 30
0.0
 40
1380.19014641311
100
AcDbArc
 50
89.9999615652
 51
90.8211211612
  0
ARC
  5
297
330
1F
100
AcDbEntity
  8
0
  6
Continuous
 62
     7
370
    25
100
AcDbCircle
 10
10659.1493814907
 20
3211.0111747073
 30
0.0
 40
29.73998204849897
100
AcDbArc
 50
90.8210312378
 51
103.7951903004
  0
ARC
  5
298
330
1F
100
AcDbEntity
  8
0
  6
Continuous
 62
     7
370
    25
100
AcDbCircle
 10
10653.1662638381
 20
3235.3788924329
 30
0.0
 40
4.648482212859212
100
AcDbArc
 50
103.7951779865
 51
150.625933546
  0
ARC
  5
299
330
1F
100
AcDbEntity
  8
0
  6
Continuous
 62
     7
370
    25
100
AcDbCircle
 10
10656.6819329944
 20
3233.4000098503
 30
0.0
 40
8.682823037861485
100
AcDbArc
 50
150.6259289411
 51
179.9999950306
  0
ARC
  5
29A
330
1F
100
AcDbEntity
  8
0
  6
Continuous
 62
     7
370
    25
100
AcDbCircle
 10
10662.3402244616
 20
3233.400002449
 30
0.0
 40
14.34111450502375
100
AcDbArc
 50
179.9999674216
 51
196.6681111341
  0
ARC
  5
29B
330
1F
100
AcDbEntity
  8
0
  6
Continuous
 62
     7
370
    25
100
AcDbCircle
 10
10771.5008492145
 20
3266.0834465748
 30
0.0
 40
128.2895656413322
100
AcDbArc
 50
196.6680682205
 51
199.9946566797
  0
ARC
  5
29C
330
1F
100
AcDbEntity
  8
0
  6
Continuous
 62
     7
370
    25
100
AcDbCircle
 10
10787.5176014346
 20
3271.911298772
 30
0.0
 40
145.3336324362461
100
AcDbArc
 50
199.9946280264
 51
203.4490727307
  0
ARC
  5
29D
330
1F
100
AcDbEntity
  8
0
  6
Continuous
 62
     7
370
    25
100
AcDbCircle
 10
10808.0584541074
 20
3280.8209569717
 30
0.0
 40
167.7235551193767
100
AcDbArc
 50
203.4490546871
 51
206.5515462451
  0
ARC
  5
29E
330
1F
100
AcDbEntity
  8
0
  6
Continuous
 62
     7
370
    25
100
AcDbCircle
 10
10422.5272989009
 20
3476.1886234635
 30
0.0
 40
378.9560722415916
100
AcDbArc
 50
315.0000526197
 51
317.1930389435
  0
ARC
  5
29F
330
1F
100
AcDbEntity
  8
0
  6
Continuous
 62
     7
370
    25
100
AcDbCircle
 10
10631.6342941657
 20
3282.5061735933
 30
0.0
 40
93.93216647854238
100
AcDbArc
 50
317.1930630962
 51
323.3769850929
  0
ARC
  5
2A0
330
1F
100
AcDbEntity
  8
0
  6
Continuous
 62
     7
370
    25
100
AcDbCircle
 10
10668.1358764642
 20
3255.3749488052
 30
0.0
 40
48.45174356058245
100
AcDbArc
 50
323.3769865083
 51
331.5674818106
  0
ARC
  5
2A1
330
1F
100
AcDbEntity
  8
0
  6
Continuous
 62
     7
370
    25
100
AcDbCircle
 10
10707.0835878933
 20
3234.287425636
 30
0.0
 40
4.161701124700788
100
AcDbArc
 50
331.5674601773
 51
20.9935753956
  0
ARC
  5
2A2
330
1F
100
AcDbEntity
  8
0
  6
Continuous
 62
     7
370
    25
100
AcDbCircle
 10
10685.785984965
 20
3216.3445472867
 30
0.0
 40
159.7089218598143
100
AcDbArc
 50
27.0521602064
 51
29.7738109699
  0
ARC
  5
2A3
330
1F
100
AcDbEntity
  8
0
  6
Continuous
 62
     7
370
    25
100
AcDbCircle
 10
10735.0280957431
 20
3244.5157643153
 30
0.0
 40
102.9779519867923
100
AcDbArc
 50
29.7738705385
 51
33.5550488958
  0
ARC
  5
2A4
330
1F
100
AcDbEntity
  8
0
  6
Continuous
 62
     7
370
    25
100
AcDbCircle
 10
10731.4810329072
 20
3242.1631049412
 30
0.0
 40
107.2343190870057
100
AcDbArc
 50
33.5550513947
 51
36.5285355152
  0
ARC
  5
2A5
330
1F
100
AcDbEntity
  8
0
  6
Continuous
 62
     7
370
    25
100
AcDbCircle
 10
10815.0264543853
 20
3304.0478829537
 30
0.0
 40
3.265269848260753
100
AcDbArc
 50
36.5284944239
 51
73.5590043595
  0
ARC
  5
2A6
330
1F
100
AcDbEntity
  8
0
  6
Continuous
 62
     7
370
    25
100
AcDbCircle
 10
10815.2972314675
 20
3304.9654805185
 30
0.0
 40
2.308553840650703
100
AcDbArc
 50
73.5590010571
 51
127.5185298509
  0
ARC
  5
2A7
330
1F
100
AcDbEntity
  8
0
  6
Continuous
 62
     7
370
    25
100
AcDbCircle
 10
10944.6982410266
 20
3136.4397021633
 30
0.0
 40
214.7833976343049
100
AcDbArc
 50
127.5185335011
 51
129.6466667498
  0
ARC
  5
2A8
330
1F
100
AcDbEntity
  8
0
  6
Continuous
 62
     7
370
    25
100
AcDbCircle
 10
10912.6723479776
 20
3175.0881804406
 30
0.0
 40
164.5901441161639
100
AcDbArc
 50
129.6466578156
 51
133.0346542138
  0
ARC
  5
2A9
330
1F
100
AcDbEntity
  8
0
  6
Continuous
 62
     7
370
    25
100
AcDbCircle
 10
10997.7472238914
 20
3083.9666711925
 30
0.0
 40
289.2531456818226
100
AcDbArc
 50
133.0345958997
 51
135.2557691468
  0
ARC
  5
2AA
330
1F
100
AcDbEntity
  8
0
  6
Continuous
 62
     7
370
    25
100
AcDbCircle
 10
11091.9964874808
 20
2990.5556526273
 30
0.0
 40
421.9503275525651
100
AcDbArc
 50
135.2558192076
 51
138.6774980798
  0
ARC
  5
2AB
330
1F
100
AcDbEntity
  8
0
  6
Continuous
 62
     7
370
    25
100
AcDbCircle
 10
10780.2023655076
 20
3264.6905231583
 30
0.0
 40
6.78108286060634
100
AcDbArc
 50
138.6775396417
 51
204.5427770465
  0
ARC
  5
2AC
330
1F
100
AcDbEntity
  8
0
  6
Continuous
 62
     7
370
    25
100
AcDbCircle
 10
10780.6904845905
 20
3264.913411721
 30
0.0
 40
7.317682851716782
100
AcDbArc
 50
204.5427742967
 51
266.8534652108
  0
ARC
  5
2AD
330
1F
100
AcDbEntity
  8
0
  6
Continuous
 62
     7
370
    25
100
AcDbCircle
 10
10806.3187508792
 20
3731.1156493926
 30
0.0
 40
474.2238130780775
100
AcDbArc
 50
266.8534790068
 51
269.9999655087
  0
ARC
  5
2AE
330
1F
100
AcDbEntity
  8
0
  6
Continuous
 62
     7
370
    25
100
AcDbCircle
 10
10806.3194001149
 20
4623.0750580311
 30
0.0
 40
1366.183221716866
100
AcDbArc
 50
269.9999607995
 51
270.8270790819
  0
ARC
  5
2AF
330
1F
100
AcDbEntity
  8
0
  6
Continuous
 62
     7
370
    25
100
AcDbCircle
 10
10825.6047595366
 20
3287.1777261247
 30
0.0
 40
30.14669284393129
100
AcDbArc
 50
270.8270720671
 51
283.6840331985
  0
ARC
  5
2B0
330
1F
100
AcDbEntity
  8
0
  6
Continuous
 62
     7
370
    25
100
AcDbCircle
 10
10831.6250234739
 20
3262.4516946997
 30
0.0
 40
4.698309635891486
100
AcDbArc
 50
283.6839542735
 51
330.0548100659
  0
ARC
  5
2B1
330
1F
100
AcDbEntity
  8
0
  6
Continuous
 62
     7
370
    25
100
AcDbCircle
 10
10828.3836626915
 20
3264.3189649758
 30
0.0
 40
8.439047264446874
100
AcDbArc
 50
330.054799522
 51
359.9999430564
  0
ARC
  5
2B2
330
1F
100
AcDbEntity
  8
0
  6
Continuous
 62
     7
370
    25
100
AcDbCircle
 10
10822.3580481702
 20
3264.3189605669
 30
0.0
 40
14.46466178576757
100
AcDbArc
 50
359.9999842418
 51
15.8681986002
  0
ARC
  5
2B3
330
1F
100
AcDbEntity
  8
0
  6
Continuous
 62
     7
370
    25
100
AcDbCircle
 10
10738.795316188
 20
3240.565759297
 30
0.0
 40
101.3378149856438
100
AcDbArc
 50
15.8681263015
 51
19.6403689175
  0
ARC
  5
2B4
330
1F
100
AcDbEntity
  8
0
  6
Continuous
 62
     7
370
    25
100
AcDbCircle
 10
10724.3960238218
 20
3235.4271122331
 30
0.0
 40
116.626546596841
100
AcDbArc
 50
19.6403018817
 51
23.449432848
  0
ARC
  5
2B5
330
1F
100
AcDbEntity
  8
0
  6
Continuous
 62
     7
370
    25
100
AcDbCircle
 10
10716.1445477633
 20
3231.8478726515
 30
0.0
 40
125.6208677565402
100
AcDbArc
 50
23.4494544571
 51
27.0521454727
  0
ARC
  5
2B6
330
1F
100
AcDbEntity
  8
0
  6
Continuous
 62
     7
370
    25
100
AcDbCircle
 10
10285.0078109826
 20
2883.6506614114
 30
0.0
 40
573.7834407103283
100
AcDbArc
 50
44.7441852345
 51
45.8616732441
  0
ARC
  5
2B7
330
1F
100
AcDbEntity
  8
0
  6
Continuous
 62
     7
370
    25
100
AcDbCircle
 10
10460.5625018581
 20
3064.5669914749
 30
0.0
 40
321.6918542343902
100
AcDbArc
 50
45.8616411636
 51
47.5850657193
  0
ARC
  5
2B8
330
1F
100
AcDbEntity
  8
0
  6
Continuous
 62
     7
370
    25
100
AcDbCircle
 10
10232.287984491
 20
2814.7055272633
 30
0.0
 40
660.1294505163385
100
AcDbArc
 50
47.585053565
 51
48.2989566809
  0
ARC
  5
2B9
330
1F
100
AcDbEntity
  8
0
  6
Continuous
 62
     7
370
    25
100
AcDbCircle
 10
10670.0623383204
 20
3306.0346802656
 30
0.0
 40
2.063556049317658
100
AcDbArc
 50
48.2989049322
 51
89.9999224121
  0
ARC
  5
2BA
330
1F
100
AcDbEntity
  8
0
  6
Continuous
 62
     7
370
    25
100
AcDbCircle
 10
10670.0623427228
 20
3302.6186076642
 30
0.0
 40
5.479628650730151
100
AcDbArc
 50
90.0000168137
 51
151.3044750273
  0
ARC
  5
2BB
330
1F
100
AcDbEntity
  8
0
  6
Continuous
 62
     7
370
    25
100
AcDbCircle
 10
10930.0388243135
 20
3160.3125705589
 30
0.0
 40
301.8557059189416
100
AcDbArc
 50
151.3045647282
 51
154.7629046548
  0
ARC
  5
2BC
330
1F
100
AcDbEntity
  8
0
  6
Continuous
 62
     7
370
    25
100
AcDbCircle
 10
10846.1082225169
 20
3199.8739370198
 30
0.0
 40
209.06859671659
100
AcDbArc
 50
154.7629618579
 51
159.7645475927
  0
ARC
  5
2BD
330
1F
100
AcDbEntity
  8
0
  6
Continuous
 62
     7
370
    25
100
AcDbCircle
 10
10679.5022720544
 20
3261.2900655361
 30
0.0
 40
31.50316209759954
100
AcDbArc
 50
159.764552794
 51
180.0000107524
  0
ARC
  5
2BE
330
1F
100
AcDbEntity
  8
0
  6
Continuous
 62
     7
370
    25
100
AcDbCircle
 10
10650.3478543643
 20
3261.2900621576
 30
0.0
 40
2.348744407432792
100
AcDbArc
 50
180.0000618049
 51
248.2955369669
  0
ARC
  5
2BF
330
1F
100
AcDbEntity
  8
0
  6
Continuous
 62
     7
370
    25
100
AcDbCircle
 10
10657.4079981061
 20
3279.0274573344
 30
0.0
 40
21.43960131105261
100
AcDbArc
 50
248.2955955303
 51
261.7953474955
  0
ARC
  5
2C0
330
1F
100
AcDbEntity
  8
0
  6
Continuous
 62
     7
370
    25
100
AcDbCircle
 10
10664.805664655
 20
3330.3346068441
 30
0.0
 40
73.27731982929019
100
AcDbArc
 50
261.7953934818
 51
268.615931426
  0
ARC
  5
2C1
330
1F
100
AcDbEntity
  8
0
  6
Continuous
 62
     7
370
    25
100
AcDbCircle
 10
10678.5035498344
 20
3897.2850157581
 30
0.0
 40
640.3931794433888
100
AcDbArc
 50
268.6159624988
 51
269.9999825244
  0
ARC
  5
2C2
330
1F
100
AcDbEntity
  8
0
  6
Continuous
 62
     7
370
    25
100
AcDbCircle
 10
10678.5037122655
 20
3731.157277639
 30
0.0
 40
474.2654413246017
100
AcDbArc
 50
269.9999567797
 51
273.1457558631
  0
ARC
  5
2C3
330
1F
100
AcDbEntity
  8
0
  6
Continuous
 62
     7
370
    25
100
AcDbCircle
 10
10704.1276555248
 20
3264.920143171
 30
0.0
 40
7.324704158050724
100
AcDbArc
 50
273.145741773
 51
335.4053922372
  0
ARC
  5
2C4
330
1F
100
AcDbEntity
  8
0
  6
Continuous
 62
     7
370
    25
100
AcDbCircle
 10
10704.6287591098
 20
3264.690769568
 30
0.0
 40
6.773598857233534
100
AcDbArc
 50
335.405450016
 51
41.3155787816
  0
ARC
  5
2C5
330
1F
100
AcDbEntity
  8
0
  6
Continuous
 62
     7
370
    25
100
AcDbCircle
 10
10393.7557330724
 20
2991.43186709
 30
0.0
 40
420.6727002105536
100
AcDbArc
 50
41.3156274449
 51
44.744180283
  0
ARC
  5
2C6
330
1F
100
AcDbEntity
  8
0
  6
Continuous
 62
     7
370
    25
100
AcDbCircle
 10
10753.1137257117
 20
3268.9189586603
 30
0.0
 40
72.47723595334132
100
AcDbArc
 50
62.9709804414
 51
67.6967540298
  0
ARC
  5
2C7
330
1F
100
AcDbEntity
  8
0
  6
Continuous
 62
     7
370
    25
100
AcDbCircle
 10
10731.0892515681
 20
3215.2265639471
 30
0.0
 40
130.5112838160736
100
AcDbArc
 50
67.6967277634
 51
70.7391841042
  0
ARC
  5
2C8
330
1F
100
AcDbEntity
  8
0
  6
Continuous
 62
     7
370
    25
100
AcDbCircle
 10
10732.1123945684
 20
3218.1547103951
 30
0.0
 40
127.4095321788309
100
AcDbArc
 50
70.7391706376
 51
73.7976669255
  0
ARC
  5
2C9
330
1F
100
AcDbEntity
  8
0
  6
Continuous
 62
     7
370
    25
100
AcDbCircle
 10
10751.7463285289
 20
3285.7246927519
 30
0.0
 40
57.0448117683165
100
AcDbArc
 50
73.7977206154
 51
79.3747074172
  0
ARC
  5
2CA
330
1F
100
AcDbEntity
  8
0
  6
Continuous
 62
     7
370
    25
100
AcDbCircle
 10
11238.1536005506
 20
3313.1540636161
 30
0.0
 40
487.7416905935029
100
AcDbArc
 50
179.9999408107
 51
183.1070151456
  0
ARC
  5
2CB
330
1F
100
AcDbEntity
  8
0
  6
Continuous
 62
     7
370
    25
100
AcDbCircle
 10
10758.4106696823
 20
3287.1132011996
 30
0.0
 40
7.292519261583707
100
AcDbArc
 50
183.1069926028
 51
245.9685156946
  0
ARC
  5
2CC
330
1F
100
AcDbEntity
  8
0
  6
Continuous
 62
     7
370
    25
100
AcDbCircle
 10
10758.235437856
 20
3286.7202062653
 30
0.0
 40
6.862227254486246
100
AcDbArc
 50
245.9685186263
 51
311.6788095773
  0
ARC
  5
2CD
330
1F
100
AcDbEntity
  8
0
  6
Continuous
 62
     7
370
    25
100
AcDbCircle
 10
10467.2051002361
 20
3613.6079814482
 30
0.0
 40
444.5313659645308
100
AcDbArc
 50
311.6788818025
 51
314.9999710603
  0
ARC
  5
2CE
330
1F
100
AcDbEntity
  8
0
  6
Continuous
 62
     7
370
    25
100
AcDbCircle
 10
10608.4427881904
 20
3472.3703124749
 30
0.0
 40
244.7911255629931
100
AcDbArc
 50
314.9999443051
 51
317.7626129813
  0
ARC
  5
2CF
330
1F
100
AcDbEntity
  8
0
  6
Continuous
 62
     7
370
    25
100
AcDbCircle
 10
10706.1662851715
 20
3383.6440728793
 30
0.0
 40
112.7978399197819
100
AcDbArc
 50
317.7625073277
 51
322.6935378215
  0
ARC
  5
2D0
330
1F
100
AcDbEntity
  8
0
  6
Continuous
 62
     7
370
    25
100
AcDbCircle
 10
10714.9191052757
 20
3376.9746696385
 30
0.0
 40
101.7936225753095
100
AcDbArc
 50
322.6935292849
 51
326.8887160251
  0
ARC
  5
2D1
330
1F
100
AcDbEntity
  8
0
  6
Continuous
 62
     7
370
    25
100
AcDbCircle
 10
10798.2929903788
 20
3322.6005155359
 30
0.0
 40
2.255924432499255
100
AcDbArc
 50
326.8887474019
 51
31.717519465
  0
ARC
  5
2D2
330
1F
100
AcDbEntity
  8
0
  6
Continuous
 62
     7
370
    25
100
AcDbCircle
 10
10794.4575264155
 20
3320.2300758904
 30
0.0
 40
6.764778824350189
100
AcDbArc
 50
31.7174357859
 51
51.8350945951
  0
ARC
  5
2D3
330
1F
100
AcDbEntity
  8
0
  6
Continuous
 62
     7
370
    25
100
AcDbCircle
 10
10757.8405378161
 20
3273.6393856014
 30
0.0
 40
66.02265826411254
100
AcDbArc
 50
51.8351507527
 51
55.6087680932
  0
ARC
  5
2D4
330
1F
100
AcDbEntity
  8
0
  6
Continuous
 62
     7
370
    25
100
AcDbCircle
 10
10752.7328955266
 20
3266.1774290171
 30
0.0
 40
75.06526882870507
100
AcDbArc
 50
55.6087611047
 51
59.5434485891
  0
ARC
  5
2D5
330
1F
100
AcDbEntity
  8
0
  6
Continuous
 62
     7
370
    25
100
AcDbCircle
 10
10745.0475733292
 20
3253.1077227146
 30
0.0
 40
90.22710909004408
100
AcDbArc
 50
59.5434372151
 51
62.971073527
  0
ARC
  5
2D6
330
1F
100
AcDbEntity
  8
0
  6
Continuous
 62
     7
370
    25
100
AcDbCircle
 10
10110.7755162963
 20
3311.2993058667
 30
0.0
 40
623.6343936587393
100
AcDbArc
 50
359.9999384856
 51
1.4178763463
  0
ARC
  5
2D7
330
1F
100
AcDbEntity
  8
0
  6
Continuous
 62
     7
370
    25
100
AcDbCircle
 10
10640.7254719748
 20
3324.4164366545
 30
0.0
 40
93.52212758320685
100
AcDbArc
 50
1.4178837879
 51
7.1744403232
  0
ARC
  5
2D8
330
1F
100
AcDbEntity
  8
0
  6
Continuous
 62
     7
370
    25
100
AcDbCircle
 10
10697.8051586071
 20
3331.6013871028
 30
0.0
 40
35.99201252173498
100
AcDbArc
 50
7.1744761654
 51
16.3099157467
  0
ARC
  5
2D9
330
1F
100
AcDbEntity
  8
0
  6
Continuous
 62
     7
370
    25
100
AcDbCircle
 10
10730.5156690156
 20
3341.1727529451
 30
0.0
 40
1.909927267554199
100
AcDbArc
 50
16.3099770939
 51
93.189305096
  0
ARC
  5
2DA
330
1F
100
AcDbEntity
  8
0
  6
Continuous
 62
     7
370
    25
100
AcDbCircle
 10
10732.404097701
 20
3307.2816542529
 30
0.0
 40
35.85359727338097
100
AcDbArc
 50
93.1892539808
 51
106.958257611
  0
ARC
  5
2DB
330
1F
100
AcDbEntity
  8
0
  6
Continuous
 62
     7
370
    25
100
AcDbCircle
 10
10777.4347054817
 20
3159.6081763972
 30
0.0
 40
190.2401630719728
100
AcDbArc
 50
106.9582320196
 51
110.9582171407
  0
ARC
  5
2DC
330
1F
100
AcDbEntity
  8
0
  6
Continuous
 62
     7
370
    25
100
AcDbCircle
 10
10777.076626942
 20
3160.5436875309
 30
0.0
 40
189.2384638817107
100
AcDbArc
 50
110.9582872633
 51
114.9914937277
  0
ARC
  5
2DD
330
1F
100
AcDbEntity
  8
0
  6
Continuous
 62
     7
370
    25
100
AcDbCircle
 10
10713.5153015534
 20
3296.9042489356
 30
0.0
 40
38.79164672771061
100
AcDbArc
 50
114.9914990046
 51
128.0533807653
  0
ARC
  5
2DE
330
1F
100
AcDbEntity
  8
0
  6
Continuous
 62
     7
370
    25
100
AcDbCircle
 10
11113.1583371318
 20
3706.4541074941
 30
0.0
 40
577.7566046285332
100
AcDbArc
 50
224.6752105386
 51
227.3945698009
  0
ARC
  5
2DF
330
1F
100
AcDbEntity
  8
0
  6
Continuous
 62
     7
370
    25
100
AcDbCircle
 10
10727.0017419756
 20
3286.5918285267
 30
0.0
 40
7.317081732097048
100
AcDbArc
 50
227.3945254399
 51
289.0096729162
  0
ARC
  5
2E0
330
1F
100
AcDbEntity
  8
0
  6
Continuous
 62
     7
370
    25
100
AcDbCircle
 10
10727.2962110307
 20
3285.7371035924
 30
0.0
 40
6.41305366961351
100
AcDbArc
 50
289.0096539736
 51
356.8598324344
  0
ARC
  5
2E1
330
1F
100
AcDbEntity
  8
0
  6
Continuous
 62
     7
370
    25
100
AcDbCircle
 10
10261.3506546932
 20
3311.2991064413
 30
0.0
 40
473.0592552616877
100
AcDbArc
 50
356.8598724771
 51
359.9999430594
  0
ARC
  5
2E2
330
1F
100
AcDbEntity
  8
0
  6
Continuous
 62
     7
370
    25
100
AcDbCircle
 10
10697.5809995248
 20
3477.4344391824
 30
0.0
 40
35.82386250955196
100
AcDbArc
 50
334.5964227495
 51
346.2478987467
  0
ARC
  5
2E3
330
1F
100
AcDbEntity
  8
0
  6
Continuous
 62
     7
370
    25
100
AcDbCircle
 10
10757.8928952924
 20
3462.6738767375
 30
0.0
 40
26.26799665708568
100
AcDbArc
 50
156.000183179
 51
166.2479175711
  0
ARC
  5
2E4
330
1F
100
AcDbEntity
  8
0
  6
Continuous
 62
     7
370
    25
100
AcDbCircle
 10
10740.1300193497
 20
3470.5823452372
 30
0.0
 40
6.824138095447845
100
AcDbArc
 50
128.0833591632
 51
156.0001420897
  0
ARC
  5
2E5
330
1F
100
AcDbEntity
  8
0
  6
Continuous
 62
     7
370
    25
100
AcDbCircle
 10
10740.1390244601
 20
3470.5708303536
 30
0.0
 40
6.838756041571338
100
AcDbArc
 50
100.2050680589
 51
128.0832384012
  0
ARC
  5
2E6
330
1F
100
AcDbEntity
  8
0
  6
Continuous
 62
     7
370
    25
100
AcDbCircle
 10
10743.6091271286
 20
3451.2943923051
 30
0.0
 40
26.42504400962346
100
AcDbArc
 50
90.0000282225
 51
100.2049906263
  0
ARC
  5
2E7
330
1F
100
AcDbEntity
  8
0
  6
Continuous
 62
     7
370
    25
100
AcDbCircle
 10
10743.6091086247
 20
3452.8278087686
 30
0.0
 40
24.89162754618867
100
AcDbArc
 50
78.8164856544
 51
89.9999873687
  0
ARC
  5
2E8
330
1F
100
AcDbEntity
  8
0
  6
Continuous
 62
     7
370
    25
100
AcDbCircle
 10
10747.1343613337
 20
3470.6585584646
 30
0.0
 40
6.715735783091368
100
AcDbArc
 50
49.1838828118
 51
78.8164894938
  0
ARC
  5
2E9
330
1F
100
AcDbEntity
  8
0
  6
Continuous
 62
     7
370
    25
100
AcDbCircle
 10
10746.1164529247
 20
3469.47996738
 30
0.0
 40
8.273045795210578
100
AcDbArc
 50
23.3376680866
 51
49.1838975897
  0
ARC
  5
2EA
330
1F
100
AcDbEntity
  8
0
  6
Continuous
 62
     7
370
    25
100
AcDbCircle
 10
10712.7522729323
 20
3455.085130322
 30
0.0
 40
44.61007705111456
100
AcDbArc
 50
15.9155776118
 51
23.3375981308
  0
ARC
  5
2EB
330
1F
100
AcDbEntity
  8
0
  6
Continuous
 62
     7
370
    25
100
AcDbCircle
 10
10796.0866536141
 20
3478.847962644
 30
0.0
 40
42.04608951300541
100
AcDbArc
 50
195.9154624953
 51
204.3957199445
  0
ARC
  5
2EC
330
1F
100
AcDbEntity
  8
0
  6
Continuous
 62
     7
370
    25
100
AcDbCircle
 10
10764.5824748694
 20
3464.5598554315
 30
0.0
 40
7.453268204437525
100
AcDbArc
 50
204.3956115123
 51
234.9053797604
  0
ARC
  5
2ED
330
1F
100
AcDbEntity
  8
0
  6
Continuous
 62
     7
370
    25
100
AcDbCircle
 10
10765.7980289233
 20
3466.2897721334
 30
0.0
 40
9.567549040417234
100
AcDbArc
 50
234.9054244595
 51
260.6333023533
  0
ARC
  5
2EE
330
1F
100
AcDbEntity
  8
0
  6
Continuous
 62
     7
370
    25
100
AcDbCircle
 10
10778.0464528074
 20
3540.5444693492
 30
0.0
 40
84.82566452471868
100
AcDbArc
 50
260.6333179861
 51
265.8012087505
  0
ARC
  5
2EF
330
1F
100
AcDbEntity
  8
0
  6
Continuous
 62
     7
370
    25
100
AcDbCircle
 10
10777.8462532876
 20
3537.8170627203
 30
0.0
 40
82.09092015530389
100
AcDbArc
 50
265.8011872738
 51
271.0918562565
  0
ARC
  5
2F0
330
1F
100
AcDbEntity
  8
0
  6
Continuous
 62
     7
370
    25
100
AcDbCircle
 10
10779.1978050684
 20
3466.9022195283
 30
0.0
 40
11.16319865544093
100
AcDbArc
 50
271.0918541519
 51
294.1343472997
  0
ARC
  5
2F1
330
1F
100
AcDbEntity
  8
0
  6
Continuous
 62
     7
370
    25
100
AcDbCircle
 10
10780.1278912909
 20
3464.8263047869
 30
0.0
 40
8.888449791291517
100
AcDbArc
 50
294.1344013305
 51
320.9924975775
  0
ARC
  5
2F2
330
1F
100
AcDbEntity
  8
0
  6
Continuous
 62
     7
370
    25
100
AcDbCircle
 10
10754.1205536995
 20
3485.8922882363
 30
0.0
 40
42.35720039959368
100
AcDbArc
 50
320.9924791344
 51
329.4290222099
  0
ARC
  5
2F3
330
1F
100
AcDbEntity
  8
0
  6
Continuous
 62
     7
370
    25
100
AcDbCircle
 10
10834.3553686779
 20
3438.496386773
 30
0.0
 40
50.83076561597316
100
AcDbArc
 50
142.7985387984
 51
149.4290185159
  0
ARC
  5
2F4
330
1F
100
AcDbEntity
  8
0
  6
Continuous
 62
     7
370
    25
100
AcDbCircle
 10
10800.4122948647
 20
3464.2619516969
 30
0.0
 40
8.216254053227335
100
AcDbArc
 50
117.2970220527
 51
142.7985677034
  0
ARC
  5
2F5
330
1F
100
AcDbEntity
  8
0
  6
Continuous
 62
     7
370
    25
100
AcDbCircle
 10
10799.4839874101
 20
3466.0607507216
 30
0.0
 40
6.192042438447064
100
AcDbArc
 50
86.5637428599
 51
117.2970513067
  0
ARC
  5
2F6
330
1F
100
AcDbEntity
  8
0
  6
Continuous
 62
     7
370
    25
100
AcDbCircle
 10
10798.4692689608
 20
3449.1621224592
 30
0.0
 40
23.12110888288446
100
AcDbArc
 50
75.0271937478
 51
86.5636853997
  0
ARC
  5
2F7
330
1F
100
AcDbEntity
  8
0
  6
Continuous
 62
     7
370
    25
100
AcDbCircle
 10
10797.9561154052
 20
3447.2434131476
 30
0.0
 40
25.10725389115243
100
AcDbArc
 50
64.1358809044
 51
75.0271653927
  0
ARC
  5
2F8
330
1F
100
AcDbEntity
  8
0
  6
Continuous
 62
     7
370
    25
100
AcDbCircle
 10
10806.7058531865
 20
3465.2915332659
 30
0.0
 40
5.050022002174792
100
AcDbArc
 50
28.3875918279
 51
64.13592832
  0
ARC
  5
2F9
330
1F
100
AcDbEntity
  8
0
  6
Continuous
 62
     7
370
    25
100
AcDbCircle
 10
10804.7336878579
 20
3464.2257412193
 30
0.0
 40
7.291750971109899
100
AcDbArc
 50
0.5295056982
 51
28.3875789003
  0
ARC
  5
2FA
330
1F
100
AcDbEntity
  8
0
  6
Continuous
 62
     7
370
    25
100
AcDbCircle
 10
10745.0021218771
 20
3463.6736734255
 30
0.0
 40
67.02586813511247
100
AcDbArc
 50
355.0757785948
 51
0.5295362758
  0
ARC
  5
2FB
330
1F
100
AcDbEntity
  8
0
  6
Continuous
 62
     7
370
    25
100
AcDbCircle
 10
10866.243733454
 20
3453.2280201532
 30
0.0
 40
54.66488767670756
100
AcDbArc
 50
175.0758329508
 51
182.1260311
  0
ARC
  5
2FC
330
1F
100
AcDbEntity
  8
0
  6
Continuous
 62
     7
370
    25
100
AcDbCircle
 10
10818.4914082486
 20
3451.4552945508
 30
0.0
 40
6.879669056482368
100
AcDbArc
 50
182.1260098412
 51
214.5781059995
  0
ARC
  5
2FD
330
1F
100
AcDbEntity
  8
0
  6
Continuous
 62
     7
370
    25
100
AcDbCircle
 10
10819.6517680196
 20
3452.2551060011
 30
0.0
 40
8.28897142078745
100
AcDbArc
 50
214.5780325957
 51
243.0692973439
  0
ARC
  5
2FE
330
1F
100
AcDbEntity
  8
0
  6
Continuous
 62
     7
370
    25
100
AcDbCircle
 10
10857.31696625
 20
3526.3987115309
 30
0.0
 40
91.45111063508693
100
AcDbArc
 50
243.0692806446
 51
247.968698378
  0
ARC
  5
2FF
330
1F
100
AcDbEntity
  8
0
  6
Continuous
 62
     7
370
    25
100
AcDbCircle
 10
10869.8407151314
 20
3557.3471106318
 30
0.0
 40
124.8374505504571
100
AcDbArc
 50
247.9686506919
 51
251.7532658254
  0
ARC
  5
300
330
1F
100
AcDbEntity
  8
0
  6
Continuous
 62
     7
370
    25
100
AcDbCircle
 10
10833.4520014477
 20
3446.9737439018
 30
0.0
 40
8.62033233257959
100
AcDbArc
 50
251.753333861
 51
278.4194948328
  0
ARC
  5
301
330
1F
100
AcDbEntity
  8
0
  6
Continuous
 62
     7
370
    25
100
AcDbCircle
 10
10833.6313964768
 20
3445.7618051875
 30
0.0
 40
7.395188249792493
100
AcDbArc
 50
278.4194173014
 51
308.1847587882
  0
ARC
  5
302
330
1F
100
AcDbEntity
  8
0
  6
Continuous
 62
     7
370
    25
100
AcDbCircle
 10
10788.4940723529
 20
3503.1526065352
 30
0.0
 40
80.40944787348408
100
AcDbArc
 50
308.1847206
 51
313.3565054948
  0
ARC
  5
303
330
1F
100
AcDbEntity
  8
0
  6
Continuous
 62
     7
370
    25
100
AcDbCircle
 10
10891.0226043075
 20
3394.5667303473
 30
0.0
 40
68.93241622450041
100
AcDbArc
 50
128.1047801059
 51
133.3565085896
  0
ARC
  5
304
330
1F
100
AcDbEntity
  8
0
  6
Continuous
 62
     7
370
    25
100
AcDbCircle
 10
10854.6095081326
 20
3440.9981154236
 30
0.0
 40
9.92574632058496
100
AcDbArc
 50
106.1523236028
 51
128.1048524321
  0
ARC
  5
305
330
1F
100
AcDbEntity
  8
0
  6
Continuous
 62
     7
370
    25
100
AcDbCircle
 10
10853.5398686907
 20
3444.6913323497
 30
0.0
 40
6.080752198539075
100
AcDbArc
 50
75.9000031138
 51
106.1523915859
  0
ARC
  5
306
330
1F
100
AcDbEntity
  8
0
  6
Continuous
 62
     7
370
    25
100
AcDbCircle
 10
10850.8812620736
 20
3434.1070317827
 30
0.0
 40
16.99384560223166
100
AcDbArc
 50
61.8450702532
 51
75.8999550917
  0
ARC
  5
307
330
1F
100
AcDbEntity
  8
0
  6
Continuous
 62
     7
370
    25
100
AcDbCircle
 10
10845.7229770311
 20
3424.4686607797
 30
0.0
 40
27.92573016849205
100
AcDbArc
 50
50.6949620153
 51
61.845082337
  0
ARC
  5
308
330
1F
100
AcDbEntity
  8
0
  6
Continuous
 62
     7
370
    25
100
AcDbCircle
 10
10860.1296708858
 20
3442.0670370424
 30
0.0
 40
5.182474576919906
100
AcDbArc
 50
11.9017186699
 51
50.6950093177
  0
ARC
  5
309
330
1F
100
AcDbEntity
  8
0
  6
Continuous
 62
     7
370
    25
100
AcDbCircle
 10
10857.0773662829
 20
3441.4237289182
 30
0.0
 40
8.301834884928747
100
AcDbArc
 50
343.8365368598
 51
11.9016581133
  0
ARC
  5
30A
330
1F
100
AcDbEntity
  8
0
  6
Continuous
 62
     7
370
    25
100
AcDbCircle
 10
10772.4252659772
 20
3465.9591330802
 30
0.0
 40
96.43788961594628
100
AcDbArc
 50
339.1832568238
 51
343.8364097509
  0
ARC
  5
30B
330
1F
100
AcDbEntity
  8
0
  6
Continuous
 62
     7
370
    25
100
AcDbCircle
 10
10883.3696012467
 20
3423.7782468922
 30
0.0
 40
22.25445507397447
100
AcDbArc
 50
159.183295778
 51
171.5259235705
  0
ARC
  5
30C
330
1F
100
AcDbEntity
  8
0
  6
Continuous
 62
     7
370
    25
100
AcDbCircle
 10
10867.8113920482
 20
3426.0962437089
 30
0.0
 40
6.524516017973559
100
AcDbArc
 50
171.525949212
 51
202.2939203413
  0
ARC
  5
30D
330
1F
100
AcDbEntity
  8
0
  6
Continuous
 62
     7
370
    25
100
AcDbCircle
 10
10871.3230218618
 20
3427.5360358549
 30
0.0
 40
10.3198480681416
100
AcDbArc
 50
202.2939361426
 51
224.9831315411
  0
ARC
  5
30E
330
1F
100
AcDbEntity
  8
0
  6
Continuous
 62
     7
370
    25
100
AcDbCircle
 10
10921.8632439261
 20
3478.0464498679
 30
0.0
 40
81.77344119037664
100
AcDbArc
 50
224.9831029452
 51
229.9212348043
  0
ARC
  5
30F
330
1F
100
AcDbEntity
  8
0
  6
Continuous
 62
     7
370
    25
100
AcDbCircle
 10
10925.4502720973
 20
3482.3095433614
 30
0.0
 40
87.34486266299717
100
AcDbArc
 50
229.9213002548
 51
236.1904154653
  0
ARC
  5
310
330
1F
100
AcDbEntity
  8
0
  6
Continuous
 62
     7
370
    25
100
AcDbCircle
 10
10883.5631826893
 20
3419.7620086368
 30
0.0
 40
12.06722747698665
100
AcDbArc
 50
236.1904575506
 51
263.1846263317
  0
ARC
  5
311
330
1F
100
AcDbEntity
  8
0
  6
Continuous
 62
     7
370
    25
100
AcDbCircle
 10
10883.2539159928
 20
3417.17440742
 30
0.0
 40
9.461210219421439
100
AcDbArc
 50
263.1846848343
 51
294.9669159999
  0
ARC
  5
312
330
1F
100
AcDbEntity
  8
0
  6
Continuous
 62
     7
370
    25
100
AcDbCircle
 10
10868.3648917099
 20
3449.1520735125
 30
0.0
 40
44.735197417135
100
AcDbArc
 50
294.9669942066
 51
305.008410189
  0
ARC
  5
313
330
1F
100
AcDbEntity
  8
0
  6
Continuous
 62
     7
370
    25
100
AcDbCircle
 10
10925.4025922504
 20
3367.7192212702
 30
0.0
 40
54.68617205276367
100
AcDbArc
 50
119.319639268
 51
125.0083999151
  0
ARC
  5
314
330
1F
100
AcDbEntity
  8
0
  6
Continuous
 62
     7
370
    25
100
AcDbCircle
 10
10900.881744561
 20
3411.3797909198
 30
0.0
 40
4.611055342643528
100
AcDbArc
 50
84.5072493687
 51
119.319677263
  0
ARC
  5
315
330
1F
100
AcDbEntity
  8
0
  6
Continuous
 62
     7
370
    25
100
AcDbCircle
 10
10900.8690083566
 20
3411.2473558425
 30
0.0
 40
4.744101427108065
100
AcDbArc
 50
50.3920190748
 51
84.5072365252
  0
ARC
  5
316
330
1F
100
AcDbEntity
  8
0
  6
Continuous
 62
     7
370
    25
100
AcDbCircle
 10
10866.2900425663
 20
3369.4605093856
 30
0.0
 40
58.98288286570871
100
AcDbArc
 50
45.0000502223
 51
50.3919631516
  0
ARC
  5
317
330
1F
100
AcDbEntity
  8
0
  6
Continuous
 62
     7
370
    25
100
AcDbCircle
 10
10966.0771862411
 20
3413.6449631393
 30
0.0
 40
68.69009132769999
100
AcDbArc
 50
212.9154929723
 51
220.1378697847
  0
ARC
  5
318
330
1F
100
AcDbEntity
  8
0
  6
Continuous
 62
     7
370
    25
100
AcDbCircle
 10
10920.7311376875
 20
3375.4087857565
 30
0.0
 40
9.375090018800012
100
AcDbArc
 50
220.137841743
 51
251.5065549681
  0
ARC
  5
319
330
1F
100
AcDbEntity
  8
0
  6
Continuous
 62
     7
370
    25
100
AcDbCircle
 10
10920.6715640739
 20
3375.230665314
 30
0.0
 40
9.187271203239277
100
AcDbArc
 50
251.5065431739
 51
283.3117040372
  0
ARC
  5
31A
330
1F
100
AcDbEntity
  8
0
  6
Continuous
 62
     7
370
    25
100
AcDbCircle
 10
10907.8095547617
 20
3429.5912806983
 30
0.0
 40
65.04877662964412
100
AcDbArc
 50
283.311685883
 51
290.8168117112
  0
ARC
  5
31B
330
1F
100
AcDbEntity
  8
0
  6
Continuous
 62
     7
370
    25
100
AcDbCircle
 10
10941.6593074011
 20
3340.5597908883
 30
0.0
 40
30.20043298147646
100
AcDbArc
 50
102.0057950611
 51
110.8167510136
  0
ARC
  5
31C
330
1F
100
AcDbEntity
  8
0
  6
Continuous
 62
     7
370
    25
100
AcDbCircle
 10
10936.6618262703
 20
3364.0593503274
 30
0.0
 40
6.175360422106593
100
AcDbArc
 50
73.4232656832
 51
102.0056922967
  0
ARC
  5
31D
330
1F
100
AcDbEntity
  8
0
  6
Continuous
 62
     7
370
    25
100
AcDbCircle
 10
10936.7103524552
 20
3364.2223561348
 30
0.0
 40
6.005284898062563
100
AcDbArc
 50
44.3096570996
 51
73.4233032435
  0
ARC
  5
31E
330
1F
100
AcDbEntity
  8
0
  6
Continuous
 62
     7
370
    25
100
AcDbCircle
 10
10920.9989668339
 20
3348.8851515862
 30
0.0
 40
27.96154782023757
100
AcDbArc
 50
35.0084615296
 51
44.3095613852
  0
ARC
  5
31F
330
1F
100
AcDbEntity
  8
0
  6
Continuous
 62
     7
370
    25
100
AcDbCircle
 10
10918.8901821027
 20
3347.4081198124
 30
0.0
 40
30.53615379070802
100
AcDbArc
 50
25.681476939
 51
35.0084317786
  0
ARC
  5
320
330
1F
100
AcDbEntity
  8
0
  6
Continuous
 62
     7
370
    25
100
AcDbCircle
 10
10942.3527373531
 20
3358.6905456224
 30
0.0
 40
4.50185658422007
100
AcDbArc
 50
347.3648756365
 51
25.6814642583
  0
ARC
  5
321
330
1F
100
AcDbEntity
  8
0
  6
Continuous
 62
     7
370
    25
100
AcDbCircle
 10
10939.6545059552
 20
3359.295422209
 30
0.0
 40
7.267056099927083
100
AcDbArc
 50
319.9805748905
 51
347.3647724274
  0
ARC
  5
322
330
1F
100
AcDbEntity
  8
0
  6
Continuous
 62
     7
370
    25
100
AcDbCircle
 10
10860.5325967914
 20
3425.7320526511
 30
0.0
 40
110.5826036918311
100
AcDbArc
 50
316.2269940096
 51
319.980677782
  0
ARC
  5
323
330
1F
100
AcDbEntity
  8
0
  6
Continuous
 62
     7
370
    25
100
AcDbCircle
 10
11004.9295959151
 20
3287.3909797074
 30
0.0
 40
89.38925887679669
100
AcDbArc
 50
136.2270576569
 51
141.0765361268
  0
ARC
  5
324
330
1F
100
AcDbEntity
  8
0
  6
Continuous
 62
     7
370
    25
100
AcDbCircle
 10
10941.3501998888
 20
3338.736098663
 30
0.0
 40
7.66618478112219
100
AcDbArc
 50
141.0765938419
 51
170.4030909771
  0
ARC
  5
325
330
1F
100
AcDbEntity
  8
0
  6
Continuous
 62
     7
370
    25
100
AcDbCircle
 10
10942.1412358441
 20
3338.6023377356
 30
0.0
 40
8.468450241052151
100
AcDbArc
 50
170.4030168925
 51
197.7058772485
  0
ARC
  5
326
330
1F
100
AcDbEntity
  8
0
  6
Continuous
 62
     7
370
    25
100
AcDbCircle
 10
11047.3678966316
 20
3372.1962877906
 30
0.0
 40
118.927508813874
100
AcDbArc
 50
197.7058521262
 51
201.6655131941
  0
ARC
  5
327
330
1F
100
AcDbEntity
  8
0
  6
Continuous
 62
     7
370
    25
100
AcDbCircle
 10
10997.1970276683
 20
3352.2658523426
 30
0.0
 40
64.94289665738982
100
AcDbArc
 50
201.665518121
 51
208.2060032494
  0
ARC
  5
328
330
1F
100
AcDbEntity
  8
0
  6
Continuous
 62
     7
370
    25
100
AcDbCircle
 10
10950.3728133091
 20
3327.1526286309
 30
0.0
 40
11.80928153905986
100
AcDbArc
 50
208.2060746321
 51
231.3100490375
  0
ARC
  5
329
330
1F
100
AcDbEntity
  8
0
  6
Continuous
 62
     7
370
    25
100
AcDbCircle
 10
10949.9716967933
 20
3326.651761542
 30
0.0
 40
11.16759446580363
100
AcDbArc
 50
231.3100110786
 51
255.2879696588
  0
ARC
  5
32A
330
1F
100
AcDbEntity
  8
0
  6
Continuous
 62
     7
370
    25
100
AcDbCircle
 10
10961.1245401399
 20
3369.1275137225
 30
0.0
 40
55.08314339792105
100
AcDbArc
 50
255.2879642018
 51
262.633288048
  0
ARC
  5
32B
330
1F
100
AcDbEntity
  8
0
  6
Continuous
 62
     7
370
    25
100
AcDbCircle
 10
10945.805375363
 20
3250.6377496436
 30
0.0
 40
64.39279979113897
100
AcDbArc
 50
76.9692391364
 51
82.633263188
  0
ARC
  5
32C
330
1F
100
AcDbEntity
  8
0
  6
Continuous
 62
     7
370
    25
100
AcDbCircle
 10
10957.6379063062
 20
3301.7647777275
 30
0.0
 40
11.91440624472544
100
AcDbArc
 50
57.2110066503
 51
76.9692899031
  0
ARC
  5
32D
330
1F
100
AcDbEntity
  8
0
  6
Continuous
 62
     7
370
    25
100
AcDbCircle
 10
10960.5929509068
 20
3306.3520364792
 30
0.0
 40
6.457737714742736
100
AcDbArc
 50
28.1255873417
 51
57.2110449183
  0
ARC
  5
32E
330
1F
100
AcDbEntity
  8
0
  6
Continuous
 62
     7
370
    25
100
AcDbCircle
 10
10956.9128189576
 20
3304.3849360972
 30
0.0
 40
10.63060903745603
100
AcDbArc
 50
8.0994893586
 51
28.1254940337
  0
ARC
  5
32F
330
1F
100
AcDbEntity
  8
0
  6
Continuous
 62
     7
370
    25
100
AcDbCircle
 10
10957.2105532696
 20
3304.4273172448
 30
0.0
 40
10.32987346905017
100
AcDbArc
 50
348.2262768182
 51
8.0994345155
  0
ARC
  5
330
330
1F
100
AcDbEntity
  8
0
  6
Continuous
 62
     7
370
    25
100
AcDbCircle
 10
10959.6829307468
 20
3303.9120042617
 30
0.0
 40
7.804364043189015
100
AcDbArc
 50
323.7061524649
 51
348.2262025436
  0
ARC
  5
331
330
1F
100
AcDbEntity
  8
0
  6
Continuous
 62
     7
370
    25
100
AcDbCircle
 10
10956.2259755622
 20
3306.4508404524
 30
0.0
 40
12.09344650349648
100
AcDbArc
 50
304.9204037942
 51
323.7060698989
  0
ARC
  5
332
330
1F
100
AcDbEntity
  8
0
  6
Continuous
 62
     7
370
    25
100
AcDbCircle
 10
10939.7120358661
 20
3330.1050253291
 30
0.0
 40
40.94185489054294
100
AcDbArc
 50
297.3443375635
 51
304.9204332506
  0
ARC
  5
333
330
1F
100
AcDbEntity
  8
0
  6
Continuous
 62
     7
370
    25
100
AcDbCircle
 10
10984.9924884811
 20
3242.5421926601
 30
0.0
 40
57.63587613447385
100
AcDbArc
 50
117.344390517
 51
123.8864785936
  0
ARC
  5
334
330
1F
100
AcDbEntity
  8
0
  6
Continuous
 62
     7
370
    25
100
AcDbCircle
 10
10956.6688964032
 20
3284.7136204421
 30
0.0
 40
6.83572663303714
100
AcDbArc
 50
123.886392418
 51
155.30526038
  0
ARC
  5
335
330
1F
100
AcDbEntity
  8
0
  6
Continuous
 62
     7
370
    25
100
AcDbCircle
 10
10957.3034205656
 20
3284.4218429755
 30
0.0
 40
7.534121222566452
100
AcDbArc
 50
155.3052635762
 51
184.663097875
  0
ARC
  5
336
330
1F
100
AcDbEntity
  8
0
  6
Continuous
 62
     7
370
    25
100
AcDbCircle
 10
11024.9472522333
 20
3289.9392829777
 30
0.0
 40
75.40259775523721
100
AcDbArc
 50
184.6630704529
 51
190.0730788155
  0
ARC
  5
337
330
1F
100
AcDbEntity
  8
0
  6
Continuous
 62
     7
370
    25
100
AcDbCircle
 10
11075.9921636887
 20
3299.0070014492
 30
0.0
 40
127.2466572391116
100
AcDbArc
 50
190.0730690378
 51
194.2744416031
  0
ARC
  5
338
330
1F
100
AcDbEntity
  8
0
  6
Continuous
 62
     7
370
    25
100
AcDbCircle
 10
10963.4028176412
 20
3270.3618255158
 30
0.0
 40
11.07046799335928
100
AcDbArc
 50
194.2744806655
 51
219.4266979626
  0
ARC
  5
339
330
1F
100
AcDbEntity
  8
0
  6
Continuous
 62
     7
370
    25
100
AcDbCircle
 10
10960.5010485928
 20
3267.9760363792
 30
0.0
 40
7.313840062072022
100
AcDbArc
 50
219.4267955571
 51
252.893520353
  0
ARC
  5
33A
330
1F
100
AcDbEntity
  8
0
  6
Continuous
 62
     7
370
    25
100
AcDbCircle
 10
10970.1712721575
 20
3299.396906017
 30
0.0
 40
40.18912367429621
100
AcDbArc
 50
252.8935039539
 51
262.3751258409
  0
ARC
  5
33B
330
1F
100
AcDbEntity
  8
0
  6
Continuous
 62
     7
370
    25
100
AcDbCircle
 10
10962.4913177362
 20
3242.0282551743
 30
0.0
 40
17.69130306416335
100
AcDbArc
 50
68.8658090637
 51
82.375153299
  0
ARC
  5
33C
330
1F
100
AcDbEntity
  8
0
  6
Continuous
 62
     7
370
    25
100
AcDbCircle
 10
10966.6687938847
 20
3252.8352509699
 30
0.0
 40
6.104997997460465
100
AcDbArc
 50
38.9985554824
 51
68.8657441686
  0
ARC
  5
33D
330
1F
100
AcDbEntity
  8
0
  6
Continuous
 62
     7
370
    25
100
AcDbCircle
 10
10965.2739751138
 20
3251.7058122955
 30
0.0
 40
7.899754561234201
100
AcDbArc
 50
13.6982324889
 51
38.9985268975
  0
ARC
  5
33E
330
1F
100
AcDbEntity
  8
0
  6
Continuous
 62
     7
370
    25
100
AcDbCircle
 10
10937.5774852122
 20
3244.9550151717
 30
0.0
 40
36.40710124016368
100
AcDbArc
 50
5.5553863113
 51
13.6982719964
  0
ARC
  5
33F
330
1F
100
AcDbEntity
  8
0
  6
Continuous
 62
     7
370
    25
100
AcDbCircle
 10
10928.4174908893
 20
3244.064035551
 30
0.0
 40
45.61032571198589
100
AcDbArc
 50
358.1988875505
 51
5.5554298595
  0
ARC
  5
340
330
1F
100
AcDbEntity
  8
0
  6
Continuous
 62
     7
370
    25
100
AcDbCircle
 10
10969.2613508833
 20
3242.7796819213
 30
0.0
 40
4.746277167449189
100
AcDbArc
 50
319.4259607523
 51
358.1987646605
  0
ARC
  5
341
330
1F
100
AcDbEntity
  8
0
  6
Continuous
 62
     7
370
    25
100
AcDbCircle
 10
10968.466447187
 20
3243.4603745093
 30
0.0
 40
5.792802028931129
100
AcDbArc
 50
285.7380605876
 51
319.4259439235
  0
ARC
  5
342
330
1F
100
AcDbEntity
  8
0
  6
Continuous
 62
     7
370
    25
100
AcDbCircle
 10
10949.3475580156
 20
3311.304424736
 30
0.0
 40
76.27930481006271
100
AcDbArc
 50
280.6252539496
 51
285.7381684549
  0
ARC
  5
343
330
1F
100
AcDbEntity
  8
0
  6
Continuous
 62
     7
370
    25
100
AcDbCircle
 10
10969.5118171334
 20
3203.8197535298
 30
0.0
 40
33.08043133667988
100
AcDbArc
 50
100.6252725555
 51
108.427317451
  0
ARC
  5
344
330
1F
100
AcDbEntity
  8
0
  6
Continuous
 62
     7
370
    25
100
AcDbCircle
 10
10965.750753957
 20
3215.1080460222
 30
0.0
 40
21.18206407009065
100
AcDbArc
 50
108.4273956897
 51
119.3232535004
  0
ARC
  5
345
330
1F
100
AcDbEntity
  8
0
  6
Continuous
 62
     7
370
    25
100
AcDbCircle
 10
10962.1281568135
 20
3221.5572777881
 30
0.0
 40
13.78505113012961
100
AcDbArc
 50
119.3232006188
 51
132.4542983153
  0
ARC
  5
346
330
1F
100
AcDbEntity
  8
0
  6
Continuous
 62
     7
370
    25
100
AcDbCircle
 10
10954.4559235174
 20
3229.9434683842
 30
0.0
 40
2.418813561564759
100
AcDbArc
 50
132.4542579003
 51
180.0000425117
  0
ARC
  5
347
330
1F
100
AcDbEntity
  8
0
  6
Continuous
 62
     7
370
    25
100
AcDbCircle
 10
10931.1026452521
 20
3229.9434424836
 30
0.0
 40
20.93446470366622
100
AcDbArc
 50
353.8211823286
 51
0.0000659759
  0
ARC
  5
348
330
1F
100
AcDbEntity
  8
0
  6
Continuous
 62
     7
370
    25
100
AcDbCircle
 10
10831.1873962952
 20
3240.7603228137
 30
0.0
 40
121.4335287500369
100
AcDbArc
 50
352.1383283093
 51
353.8211898135
  0
ARC
  5
349
330
1F
100
AcDbEntity
  8
0
  6
Continuous
 62
     7
370
    25
100
AcDbCircle
 10
10815.9230990034
 20
3242.8679641356
 30
0.0
 40
136.8426469517481
100
AcDbArc
 50
350.4410491138
 51
352.1383482932
  0
ARC
  5
34A
330
1F
100
AcDbEntity
  8
0
  6
Continuous
 62
     7
370
    25
100
AcDbCircle
 10
10821.4275005915
 20
3241.9407028153
 30
0.0
 40
131.2606893831511
100
AcDbArc
 50
348.6900316198
 51
350.4411857318
  0
ARC
  5
34B
330
1F
100
AcDbEntity
  8
0
  6
Continuous
 62
     7
370
    25
100
AcDbCircle
 10
10986.4765608556
 20
3208.930784885
 30
0.0
 40
37.05700717850868
100
AcDbArc
 50
168.6900341868
 51
177.1165068768
  0
ARC
  5
34C
330
1F
100
AcDbEntity
  8
0
  6
Continuous
 62
     7
370
    25
100
AcDbCircle
 10
10955.1163599783
 20
3210.5103678862
 30
0.0
 40
5.657050466432038
100
AcDbArc
 50
177.1165237181
 51
210.8822238431
  0
ARC
  5
34D
330
1F
100
AcDbEntity
  8
0
  6
Continuous
 62
     7
370
    25
100
AcDbCircle
 10
10955.9366759232
 20
3211.0009709367
 30
0.0
 40
6.61287974119099
100
AcDbArc
 50
210.8822215142
 51
241.2249156036
  0
ARC
  5
34E
330
1F
100
AcDbEntity
  8
0
  6
Continuous
 62
     7
370
    25
100
AcDbCircle
 10
10979.8496571198
 20
3254.5432743815
 30
0.0
 40
56.2894623429785
100
AcDbArc
 50
241.2248720149
 51
247.4999415258
  0
ARC
  5
34F
330
1F
100
AcDbEntity
  8
0
  6
Continuous
 62
     7
370
    25
100
AcDbCircle
 10
10940.8596076853
 20
3160.4129894863
 30
0.0
 40
45.59642720687084
100
AcDbArc
 50
60.3101970283
 51
67.5000619702
  0
ARC
  5
350
330
1F
100
AcDbEntity
  8
0
  6
Continuous
 62
     7
370
    25
100
AcDbCircle
 10
10959.0758498407
 20
3192.3626813936
 30
0.0
 40
8.818522274291858
100
AcDbArc
 50
36.0226043787
 51
60.3101686255
  0
ARC
  5
351
330
1F
100
AcDbEntity
  8
0
  6
Continuous
 62
     7
370
    25
100
AcDbCircle
 10
10960.9365406311
 20
3193.715676545
 30
0.0
 40
6.51792102732128
100
AcDbArc
 50
6.4812623668
 51
36.0225882921
  0
ARC
  5
352
330
1F
100
AcDbEntity
  8
0
  6
Continuous
 62
     7
370
    25
100
AcDbCircle
 10
10948.1406507085
 20
3192.2620250831
 30
0.0
 40
19.39611583422677
100
AcDbArc
 50
353.3786682883
 51
6.4812119066
  0
ARC
  5
353
330
1F
100
AcDbEntity
  8
0
  6
Continuous
 62
     7
370
    25
100
AcDbCircle
 10
10947.3529984212
 20
3192.353470629
 30
0.0
 40
20.18905871580852
100
AcDbArc
 50
340.1303494344
 51
353.3786291644
  0
ARC
  5
354
330
1F
100
AcDbEntity
  8
0
  6
Continuous
 62
     7
370
    25
100
AcDbCircle
 10
10961.5173878266
 20
3187.2345140417
 30
0.0
 40
5.128061279629794
100
AcDbArc
 50
303.4502464298
 51
340.1303872002
  0
ARC
  5
355
330
1F
100
AcDbEntity
  8
0
  6
Continuous
 62
     7
370
    25
100
AcDbCircle
 10
10959.3129678998
 20
3190.5713018065
 30
0.0
 40
9.12726367525395
100
AcDbArc
 50
278.609036243
 51
303.4503136278
  0
ARC
  5
356
330
1F
100
AcDbEntity
  8
0
  6
Continuous
 62
     7
370
    25
100
AcDbCircle
 10
10946.3187645948
 20
3276.4005295023
 30
0.0
 40
95.93455395886139
100
AcDbArc
 50
274.1881288923
 51
278.6089811928
  0
ARC
  5
357
330
1F
100
AcDbEntity
  8
0
  6
Continuous
 62
     7
370
    25
100
AcDbCircle
 10
10959.2122255218
 20
3100.3252466689
 30
0.0
 40
80.61217231922983
100
AcDbArc
 50
94.1881130221
 51
99.6929493654
  0
ARC
  5
358
330
1F
100
AcDbEntity
  8
0
  6
Continuous
 62
     7
370
    25
100
AcDbCircle
 10
10947.1592190592
 20
3170.8905916896
 30
0.0
 40
9.02486281074355
100
AcDbArc
 50
99.6930230981
 51
127.2437139441
  0
ARC
  5
359
330
1F
100
AcDbEntity
  8
0
  6
Continuous
 62
     7
370
    25
100
AcDbCircle
 10
10946.7210358935
 20
3171.4669559652
 30
0.0
 40
8.300846053361354
100
AcDbArc
 50
127.2436844015
 51
156.4360281926
  0
ARC
  5
35A
330
1F
100
AcDbEntity
  8
0
  6
Continuous
 62
     7
370
    25
100
AcDbCircle
 10
10997.4927775531
 20
3149.323355794
 30
0.0
 40
63.69135769296414
100
AcDbArc
 50
156.4360440448
 51
162.9382865747
  0
ARC
  5
35B
330
1F
100
AcDbEntity
  8
0
  6
Continuous
 62
     7
370
    25
100
AcDbCircle
 10
11011.0635616563
 20
3145.1583482545
 30
0.0
 40
77.88690167617798
100
AcDbArc
 50
162.9382768765
 51
168.2158893834
  0
ARC
  5
35C
330
1F
100
AcDbEntity
  8
0
  6
Continuous
 62
     7
370
    25
100
AcDbCircle
 10
10945.1416947099
 20
3158.9110715533
 30
0.0
 40
10.54575571155172
100
AcDbArc
 50
168.215922026
 51
191.2729349272
  0
ARC
  5
35D
330
1F
100
AcDbEntity
  8
0
  6
Continuous
 62
     7
370
    25
100
AcDbCircle
 10
10943.9697515708
 20
3158.6774865361
 30
0.0
 40
9.350760865782588
100
AcDbArc
 50
191.2730351854
 51
216.2923273381
  0
ARC
  5
35E
330
1F
100
AcDbEntity
  8
0
  6
Continuous
 62
     7
370
    25
100
AcDbCircle
 10
10980.5396756002
 20
3185.5332150213
 30
0.0
 40
54.72244251840475
100
AcDbArc
 50
216.29231689
 51
223.063623807
  0
ARC
  5
35F
330
1F
100
AcDbEntity
  8
0
  6
Continuous
 62
     7
370
    25
100
AcDbCircle
 10
10898.9379656885
 20
3109.2686778087
 30
0.0
 40
56.96962835851329
100
AcDbArc
 50
37.0456047031
 51
43.0637157182
  0
ARC
  5
360
330
1F
100
AcDbEntity
  8
0
  6
Continuous
 62
     7
370
    25
100
AcDbCircle
 10
10936.564901161
 20
3137.6695794683
 30
0.0
 40
9.827317340319956
100
AcDbArc
 50
14.9602927983
 51
37.0456599922
  0
ARC
  5
361
330
1F
100
AcDbEntity
  8
0
  6
Continuous
 62
     7
370
    25
100
AcDbCircle
 10
10939.325927655
 20
3138.4073450292
 30
0.0
 40
6.96942207928643
100
AcDbArc
 50
347.3368596783
 51
14.9602833383
  0
ARC
  5
362
330
1F
100
AcDbEntity
  8
0
  6
Continuous
 62
     7
370
    25
100
AcDbCircle
 10
10925.6513408506
 20
3141.4797522892
 30
0.0
 40
20.98491388806817
100
AcDbArc
 50
335.1913611237
 51
347.3369964835
  0
ARC
  5
363
330
1F
100
AcDbEntity
  8
0
  6
Continuous
 62
     7
370
    25
100
AcDbCircle
 10
10932.7304986094
 20
3138.2074388638
 30
0.0
 40
13.18603513990281
100
AcDbArc
 50
312.9179545183
 51
335.1913136576
  0
ARC
  5
364
330
1F
100
AcDbEntity
  8
0
  6
Continuous
 62
     7
370
    25
100
AcDbCircle
 10
10937.1935509012
 20
3133.4076257579
 30
0.0
 40
6.631872980571622
100
AcDbArc
 50
275.6875220015
 51
312.9180368786
  0
ARC
  5
365
330
1F
100
AcDbEntity
  8
0
  6
Continuous
 62
     7
370
    25
100
AcDbCircle
 10
10936.3564747476
 20
3141.8123170878
 30
0.0
 40
15.07814629119324
100
AcDbArc
 50
253.8459112557
 51
275.6876166087
  0
ARC
  5
366
330
1F
100
AcDbEntity
  8
0
  6
Continuous
 62
     7
370
    25
100
AcDbCircle
 10
10965.8204375891
 20
3243.5323086165
 30
0.0
 40
120.9794294889425
100
AcDbArc
 50
249.1345968689
 51
253.8459380185
  0
ARC
  5
367
330
1F
100
AcDbEntity
  8
0
  6
Continuous
 62
     7
370
    25
100
AcDbCircle
 10
10921.7067871622
 20
3127.8004423628
 30
0.0
 40
2.874835760845938
100
AcDbArc
 50
69.1345568294
 51
115.4961753719
  0
ARC
  5
368
330
1F
100
AcDbEntity
  8
0
  6
Continuous
 62
     7
370
    25
100
AcDbCircle
 10
10929.7724052929
 20
3110.8876240332
 30
0.0
 40
21.61243485144118
100
AcDbArc
 50
115.4961834406
 51
125.983610438
  0
ARC
  5
369
330
1F
100
AcDbEntity
  8
0
  6
Continuous
 62
     7
370
    25
100
AcDbCircle
 10
10935.6900309076
 20
3102.7378136843
 30
0.0
 40
31.68406340090655
100
AcDbArc
 50
125.9836147134
 51
135.1135627069
  0
ARC
  5
36A
330
1F
100
AcDbEntity
  8
0
  6
Continuous
 62
     7
370
    25
100
AcDbCircle
 10
10949.611363823
 20
3088.871664614
 30
0.0
 40
51.33281909124062
100
AcDbArc
 50
135.1136477755
 51
141.4741376527
  0
ARC
  5
36B
330
1F
100
AcDbEntity
  8
0
  6
Continuous
 62
     7
370
    25
100
AcDbCircle
 10
10901.5740199514
 20
3046.4212047634
 30
0.0
 40
47.29654940971136
100
AcDbArc
 50
128.3753277703
 51
136.307853156
  0
ARC
  5
36C
330
1F
100
AcDbEntity
  8
0
  6
Continuous
 62
     7
370
    25
100
AcDbCircle
 10
10877.4190350531
 20
3069.497849497
 30
0.0
 40
13.89004064868202
100
AcDbArc
 50
136.3077730693
 51
156.0608241326
  0
ARC
  5
36D
330
1F
100
AcDbEntity
  8
0
  6
Continuous
 62
     7
370
    25
100
AcDbCircle
 10
10877.8483532039
 20
3069.3072240954
 30
0.0
 40
14.35977687015962
100
AcDbArc
 50
156.0607275364
 51
175.3983267641
  0
ARC
  5
36E
330
1F
100
AcDbEntity
  8
0
  6
Continuous
 62
     7
370
    25
100
AcDbCircle
 10
10915.8114805391
 20
3066.2516520695
 30
0.0
 40
52.4456739644635
100
AcDbArc
 50
175.3983098962
 51
182.7745415616
  0
ARC
  5
36F
330
1F
100
AcDbEntity
  8
0
  6
Continuous
 62
     7
370
    25
100
AcDbCircle
 10
10820.2152596101
 20
3061.6187431032
 30
0.0
 40
43.26274416791903
100
AcDbArc
 50
348.6327354501
 51
2.7746090852
  0
ARC
  5
370
330
1F
100
AcDbEntity
  8
0
  6
Continuous
 62
     7
370
    25
100
AcDbCircle
 10
10853.9365780333
 20
3054.8393671406
 30
0.0
 40
8.866708718462426
100
AcDbArc
 50
302.8741351121
 51
348.6328168827
  0
ARC
  5
371
330
1F
100
AcDbEntity
  8
0
  6
Continuous
 62
     7
370
    25
100
AcDbCircle
 10
10855.2157813513
 20
3052.8600609314
 30
0.0
 40
6.510013108399986
100
AcDbArc
 50
246.817393165
 51
302.8741365889
  0
ARC
  5
372
330
1F
100
AcDbEntity
  8
0
  6
Continuous
 62
     7
370
    25
100
AcDbCircle
 10
10862.9220638242
 20
3070.8551886932
 30
0.0
 40
26.08579949654409
100
AcDbArc
 50
226.7881513369
 51
246.8173401353
  0
ARC
  5
373
330
1F
100
AcDbEntity
  8
0
  6
Continuous
 62
     7
370
    25
100
AcDbCircle
 10
10801.0987164899
 20
3005.0472433814
 30
0.0
 40
64.20712349183115
100
AcDbArc
 50
46.7881783518
 51
52.7923187894
  0
ARC
  5
374
330
1F
100
AcDbEntity
  8
0
  6
Continuous
 62
     7
370
    25
100
AcDbCircle
 10
10835.3103669687
 20
3050.1068875514
 30
0.0
 40
7.631434709358576
100
AcDbArc
 50
52.7922999953
 51
81.585221476
  0
ARC
  5
375
330
1F
100
AcDbEntity
  8
0
  6
Continuous
 62
     7
370
    25
100
AcDbCircle
 10
10835.0720067012
 20
3048.495671864
 30
0.0
 40
9.260186258321557
100
AcDbArc
 50
81.5851482155
 51
106.7088344248
  0
ARC
  5
376
330
1F
100
AcDbEntity
  8
0
  6
Continuous
 62
     7
370
    25
100
AcDbCircle
 10
10864.6426896494
 20
2949.9867798046
 30
0.0
 40
112.1116670682297
100
AcDbArc
 50
106.708854987
 51
110.7542044051
  0
ARC
  5
377
330
1F
100
AcDbEntity
  8
0
  6
Continuous
 62
     7
370
    25
100
AcDbCircle
 10
10848.0044017224
 20
2993.8928076143
 30
0.0
 40
65.15879811277132
100
AcDbArc
 50
110.7541241514
 51
117.0738506225
  0
ARC
  5
378
330
1F
100
AcDbEntity
  8
0
  6
Continuous
 62
     7
370
    25
100
AcDbCircle
 10
10823.5655953497
 20
3041.7042316756
 30
0.0
 40
11.46347682968338
100
AcDbArc
 50
117.0738817239
 51
139.9380378288
  0
ARC
  5
379
330
1F
100
AcDbEntity
  8
0
  6
Continuous
 62
     7
370
    25
100
AcDbCircle
 10
10822.1860965748
 20
3042.8643154973
 30
0.0
 40
9.661030896083888
100
AcDbArc
 50
139.938048512
 51
165.5342071133
  0
ARC
  5
37A
330
1F
100
AcDbEntity
  8
0
  6
Continuous
 62
     7
370
    25
100
AcDbCircle
 10
10851.0846508439
 20
3035.4090921
 30
0.0
 40
39.50574223245126
100
AcDbArc
 50
165.5342725289
 51
174.5232641371
  0
ARC
  5
37B
330
1F
100
AcDbEntity
  8
0
  6
Continuous
 62
     7
370
    25
100
AcDbCircle
 10
10782.3646017953
 20
3041.9979353818
 30
0.0
 40
29.5294516692162
100
AcDbArc
 50
332.6753967982
 51
354.5232340651
  0
ARC
  5
37C
330
1F
100
AcDbEntity
  8
0
  6
Continuous
 62
     7
370
    25
100
AcDbCircle
 10
10799.4620156699
 20
3033.1640200014
 30
0.0
 40
10.28472194525973
100
AcDbArc
 50
284.7583256232
 51
332.6753096868
  0
ARC
  5
37D
330
1F
100
AcDbEntity
  8
0
  6
Continuous
 62
     7
370
    25
100
AcDbCircle
 10
10799.990323882
 20
3031.1585333534
 30
0.0
 40
8.21081590535762
100
AcDbArc
 50
229.3430284093
 51
284.7583525238
  0
ARC
  5
37E
330
1F
100
AcDbEntity
  8
0
  6
Continuous
 62
     7
370
    25
100
AcDbCircle
 10
10808.8160578816
 20
3041.4350600094
 30
0.0
 40
21.75705452509693
100
AcDbArc
 50
202.4999610878
 51
229.3431379294
  0
ARC
  5
37F
330
1F
100
AcDbEntity
  8
0
  6
Continuous
 62
     7
370
    25
100
AcDbCircle
 10
10745.5674425909
 20
3015.2366754506
 30
0.0
 40
46.7027343271254
100
AcDbArc
 50
22.4999618007
 51
29.1554015431
  0
ARC
  5
380
330
1F
100
AcDbEntity
  8
0
  6
Continuous
 62
     7
370
    25
100
AcDbCircle
 10
10779.2013714777
 20
3033.9996978231
 30
0.0
 40
8.1892018882983
100
AcDbArc
 50
29.155416059
 51
53.2918149507
  0
ARC
  5
381
330
1F
100
AcDbEntity
  8
0
  6
Continuous
 62
     7
370
    25
100
AcDbCircle
 10
10781.1846716991
 20
3036.659711505
 30
0.0
 40
4.871197585118569
100
AcDbArc
 50
53.2917767024
 51
87.0189057708
  0
ARC
  5
382
330
1F
100
AcDbEntity
  8
0
  6
Continuous
 62
     7
370
    25
100
AcDbCircle
 10
10780.851190908
 20
3030.256048175
 30
0.0
 40
11.28353830299517
100
AcDbArc
 50
87.0189169913
 51
105.0274112874
  0
ARC
  5
383
330
1F
100
AcDbEntity
  8
0
  6
Continuous
 62
     7
370
    25
100
AcDbCircle
 10
10767.8544536426
 20
3078.6678838439
 30
0.0
 40
38.84251293166857
100
AcDbArc
 50
280.3687571875
 51
285.0274082452
  0
ARC
  5
384
330
1F
100
AcDbEntity
  8
0
  6
Continuous
 62
     7
370
    25
100
AcDbCircle
 10
10760.5914145974
 20
3118.3636098976
 30
0.0
 40
79.1972202543208
100
AcDbArc
 50
277.6346487163
 51
280.3686736094
  0
ARC
  5
385
330
1F
100
AcDbEntity
  8
0
  6
Continuous
 62
     7
370
    25
100
AcDbCircle
 10
10760.5547094258
 20
3118.6376927383
 30
0.0
 40
79.47374994906505
100
AcDbArc
 50
274.9026618785
 51
277.6346244224
  0
ARC
  5
386
330
1F
100
AcDbEntity
  8
0
  6
Continuous
 62
     7
370
    25
100
AcDbCircle
 10
10763.9095702867
 20
3079.5269693512
 30
0.0
 40
40.21940273437705
100
AcDbArc
 50
270.3548074408
 51
274.9025785622
  0
ARC
  5
387
330
1F
100
AcDbEntity
  8
0
  6
Continuous
 62
     7
370
    25
100
AcDbCircle
 10
10764.2266596373
 20
3028.3256250059
 30
0.0
 40
10.98292346695907
100
AcDbArc
 50
90.3549013436
 51
109.2946757571
  0
ARC
  5
388
330
1F
100
AcDbEntity
  8
0
  6
Continuous
 62
     7
370
    25
100
AcDbCircle
 10
10762.4319805948
 20
3033.4519485122
 30
0.0
 40
5.551527186331519
100
AcDbArc
 50
109.2946674685
 51
140.842844517
  0
ARC
  5
389
330
1F
100
AcDbEntity
  8
0
  6
Continuous
 62
     7
370
    25
100
AcDbCircle
 10
10765.604383011
 20
3030.8685507776
 30
0.0
 40
9.642747168876564
100
AcDbArc
 50
140.8428571537
 51
163.028808363
  0
ARC
  5
38A
330
1F
100
AcDbEntity
  8
0
  6
Continuous
 62
     7
370
    25
100
AcDbCircle
 10
10806.3795541225
 20
3018.4246677311
 30
0.0
 40
52.27448187957754
100
AcDbArc
 50
163.0287277803
 51
169.3747901926
  0
ARC
  5
38B
330
1F
100
AcDbEntity
  8
0
  6
Continuous
 62
     7
370
    25
100
AcDbCircle
 10
10695.8006973806
 20
3039.1693872714
 30
0.0
 40
60.23341538617172
100
AcDbArc
 50
343.3570561084
 51
349.3747090687
  0
ARC
  5
38C
330
1F
100
AcDbEntity
  8
0
  6
Continuous
 62
     7
370
    25
100
AcDbCircle
 10
10746.4813808399
 20
3024.0194599817
 30
0.0
 40
7.336799494536698
100
AcDbArc
 50
314.9999822417
 51
343.3569697842
  0
ARC
  5
38D
330
1F
100
AcDbEntity
  8
0
  6
Continuous
 62
     7
370
    25
100
AcDbCircle
 10
10747.7960341603
 20
3022.7048045305
 30
0.0
 40
5.477597432260782
100
AcDbArc
 50
280.4482705303
 51
314.9999919745
  0
ARC
  5
38E
330
1F
100
AcDbEntity
  8
0
  6
Continuous
 62
     7
370
    25
100
AcDbCircle
 10
10743.7999539621
 20
3044.3747983773
 30
0.0
 40
27.51296196905689
100
AcDbArc
 50
259.5516933176
 51
280.4483066959
  0
ARC
  5
38F
330
1F
100
AcDbEntity
  8
0
  6
Continuous
 62
     7
370
    25
100
AcDbCircle
 10
10739.8038737761
 20
3022.7048045421
 30
0.0
 40
5.477597445872354
100
AcDbArc
 50
225.0000080519
 51
259.5517294339
  0
ARC
  5
390
330
1F
100
AcDbEntity
  8
0
  6
Continuous
 62
     7
370
    25
100
AcDbCircle
 10
10741.1185270922
 20
3024.0194599798
 30
0.0
 40
7.336799495519995
100
AcDbArc
 50
196.6430301984
 51
225.0000177271
  0
ARC
  5
391
330
1F
100
AcDbEntity
  8
0
  6
Continuous
 62
     7
370
    25
100
AcDbCircle
 10
10791.7992109523
 20
3039.1693873711
 30
0.0
 40
60.23341580022957
100
AcDbArc
 50
190.625290954
 51
196.642943873
  0
ARC
  5
392
330
1F
100
AcDbEntity
  8
0
  6
Continuous
 62
     7
370
    25
100
AcDbCircle
 10
10682.3147749419
 20
3018.6299859138
 30
0.0
 40
51.16096799339169
100
AcDbArc
 50
10.6252049757
 51
17.0305798719
  0
ARC
  5
393
330
1F
100
AcDbEntity
  8
0
  6
Continuous
 62
     7
370
    25
100
AcDbCircle
 10
10721.6714112041
 20
3030.6855024308
 30
0.0
 40
9.999331772629628
100
AcDbArc
 50
17.0305100818
 51
38.5042445274
  0
ARC
  5
394
330
1F
100
AcDbEntity
  8
0
  6
Continuous
 62
     7
370
    25
100
AcDbCircle
 10
10725.091395796
 20
3033.4062971943
 30
0.0
 40
5.629089359001832
100
AcDbArc
 50
38.504224601
 51
69.3876523954
  0
ARC
  5
395
330
1F
100
AcDbEntity
  8
0
  6
Continuous
 62
     7
370
    25
100
AcDbCircle
 10
10723.5892582039
 20
3029.4125541723
 30
0.0
 40
9.895985264824379
100
AcDbArc
 50
69.3876202865
 51
89.6342208774
  0
ARC
  5
396
330
1F
100
AcDbEntity
  8
0
  6
Continuous
 62
     7
370
    25
100
AcDbCircle
 10
10723.8969127052
 20
3077.6040296438
 30
0.0
 40
38.29647223025447
100
AcDbArc
 50
264.9799321929
 51
269.6342305549
  0
ARC
  5
397
330
1F
100
AcDbEntity
  8
0
  6
Continuous
 62
     7
370
    25
100
AcDbCircle
 10
10727.3769807194
 20
3117.219923732
 30
0.0
 40
78.06492628336551
100
AcDbArc
 50
262.2478641203
 51
264.9798266819
  0
ARC
  5
398
330
1F
100
AcDbEntity
  8
0
  6
Continuous
 62
     7
370
    25
100
AcDbCircle
 10
10727.4132421389
 20
3117.486172394
 30
0.0
 40
78.33363288974132
100
AcDbArc
 50
259.5179520097
 51
262.2478521926
  0
ARC
  5
399
330
1F
100
AcDbEntity
  8
0
  6
Continuous
 62
     7
370
    25
100
AcDbCircle
 10
10720.3723417392
 20
3079.4298971492
 30
0.0
 40
39.6315093829792
100
AcDbArc
 50
254.9725863407
 51
259.5178374632
  0
ARC
  5
39A
330
1F
100
AcDbEntity
  8
0
  6
Continuous
 62
     7
370
    25
100
AcDbCircle
 10
10707.1710290058
 20
3030.2560481907
 30
0.0
 40
11.28353828737743
100
AcDbArc
 50
74.9725886953
 51
92.9810830285
  0
ARC
  5
39B
330
1F
100
AcDbEntity
  8
0
  6
Continuous
 62
     7
370
    25
100
AcDbCircle
 10
10706.8375482138
 20
3036.6597115062
 30
0.0
 40
4.871197583981258
100
AcDbArc
 50
92.9810942548
 51
126.7082233035
  0
ARC
  5
39C
330
1F
100
AcDbEntity
  8
0
  6
Continuous
 62
     7
370
    25
100
AcDbCircle
 10
10708.8208484343
 20
3033.9996978244
 30
0.0
 40
8.189201886544598
100
AcDbArc
 50
126.7081850481
 51
150.8445839449
  0
ARC
  5
39D
330
1F
100
AcDbEntity
  8
0
  6
Continuous
 62
     7
370
    25
100
AcDbCircle
 10
10742.454777472
 20
3015.2366753712
 30
0.0
 40
46.70273449644397
100
AcDbArc
 50
150.8445984613
 51
157.5000381796
  0
ARC
  5
39E
330
1F
100
AcDbEntity
  8
0
  6
Continuous
 62
     7
370
    25
100
AcDbCircle
 10
10679.3693662131
 20
3041.3674979932
 30
0.0
 40
21.58041865729775
100
AcDbArc
 50
310.5970895328
 51
337.4999426623
  0
ARC
  5
39F
330
1F
100
AcDbEntity
  8
0
  6
Continuous
 62
     7
370
    25
100
AcDbCircle
 10
10687.9929708439
 20
3031.3051506615
 30
0.0
 40
8.328347473785586
100
AcDbArc
 50
255.9620304352
 51
310.5970033866
  0
ARC
  5
3A0
330
1F
100
AcDbEntity
  8
0
  6
Continuous
 62
     7
370
    25
100
AcDbCircle
 10
10688.4439419781
 20
3033.1087369157
 30
0.0
 40
10.18745971885305
100
AcDbArc
 50
207.9846476015
 51
255.9619385571
  0
ARC
  5
3A1
330
1F
100
AcDbEntity
  8
0
  6
Continuous
 62
     7
370
    25
100
AcDbCircle
 10
10704.5357738081
 20
3041.6593943441
 30
0.0
 40
28.40999505579922
100
AcDbArc
 50
185.6329828291
 51
207.9846630962
  0
ARC
  5
3A2
330
1F
100
AcDbEntity
  8
0
  6
Continuous
 62
     7
370
    25
100
AcDbCircle
 10
10641.3807950621
 20
3035.4302689094
 30
0.0
 40
35.05143688591058
100
AcDbArc
 50
5.6330125959
 51
15.3990070764
  0
ARC
  5
3A3
330
1F
100
AcDbEntity
  8
0
  6
Continuous
 62
     7
370
    25
100
AcDbCircle
 10
10665.5758837895
 20
3042.0942393908
 30
0.0
 40
9.955404906727274
100
AcDbArc
 50
15.3990968623
 51
40.3210055671
  0
ARC
  5
3A4
330
1F
100
AcDbEntity
  8
0
  6
Continuous
 62
     7
370
    25
100
AcDbCircle
 10
10663.7987382336
 20
3040.5859616319
 30
0.0
 40
12.28631634316699
100
AcDbArc
 50
40.3211060478
 51
62.0440281319
  0
ARC
  5
3A5
330
1F
100
AcDbEntity
  8
0
  6
Continuous
 62
     7
370
    25
100
AcDbCircle
 10
10638.93469544
 20
2993.7366620587
 30
0.0
 40
65.32476932342769
100
AcDbArc
 50
62.0440373477
 51
68.345672067
  0
ARC
  5
3A6
330
1F
100
AcDbEntity
  8
0
  6
Continuous
 62
     7
370
    25
100
AcDbCircle
 10
10616.6100656457
 20
2937.5071837406
 30
0.0
 40
125.8238877250206
100
AcDbArc
 50
68.3456270082
 51
72.0069741671
  0
ARC
  5
3A7
330
1F
100
AcDbEntity
  8
0
  6
Continuous
 62
     7
370
    25
100
AcDbCircle
 10
10652.6034101067
 20
3048.3291939405
 30
0.0
 40
9.303336789825035
100
AcDbArc
 50
72.0069952642
 51
96.5934281995
  0
ARC
  5
3A8
330
1F
100
AcDbEntity
  8
0
  6
Continuous
 62
     7
370
    25
100
AcDbCircle
 10
10652.3382191528
 20
3050.6234562101
 30
0.0
 40
6.993798826637766
100
AcDbArc
 50
96.5934084847
 51
126.666734122
  0
ARC
  5
3A9
330
1F
100
AcDbEntity
  8
0
  6
Continuous
 62
     7
370
    25
100
AcDbCircle
 10
10681.2616146508
 20
3011.7726910998
 30
0.0
 40
55.42875270072102
100
AcDbArc
 50
126.6667352993
 51
133.2118003146
  0
ARC
  5
3AA
330
1F
100
AcDbEntity
  8
0
  6
Continuous
 62
     7
370
    25
100
AcDbCircle
 10
10619.9266292363
 20
3077.0608091327
 30
0.0
 40
34.15092575412549
100
AcDbArc
 50
304.8165192697
 51
313.2118650006
  0
ARC
  5
3AB
330
1F
100
AcDbEntity
  8
0
  6
Continuous
 62
     7
370
    25
100
AcDbCircle
 10
10631.4276767672
 20
3060.5231284848
 30
0.0
 40
14.00721766646295
100
AcDbArc
 50
288.4794694309
 51
304.816561752
  0
ARC
  5
3AC
330
1F
100
AcDbEntity
  8
0
  6
Continuous
 62
     7
370
    25
100
AcDbCircle
 10
10632.5330148401
 20
3057.2156761827
 30
0.0
 40
10.51995326785153
100
AcDbArc
 50
269.1430199718
 51
288.4794813975
  0
ARC
  5
3AD
330
1F
100
AcDbEntity
  8
0
  6
Continuous
 62
     7
370
    25
100
AcDbCircle
 10
10632.5661965793
 20
3059.4342139498
 30
0.0
 40
12.73873916374177
100
AcDbArc
 50
252.3912289052
 51
269.1430365131
  0
ARC
  5
3AE
330
1F
100
AcDbEntity
  8
0
  6
Continuous
 62
     7
370
    25
100
AcDbCircle
 10
10633.5279116576
 20
3062.464323363
 30
0.0
 40
15.91780489879754
100
AcDbArc
 50
237.7156502443
 51
252.3912385525
  0
ARC
  5
3AF
330
1F
100
AcDbEntity
  8
0
  6
Continuous
 62
     7
370
    25
100
AcDbCircle
 10
10627.3582430513
 20
3052.6989630966
 30
0.0
 40
4.366741231542117
100
AcDbArc
 50
199.3154683606
 51
237.7156154576
  0
ARC
  5
3B0
330
1F
100
AcDbEntity
  8
0
  6
Continuous
 62
     7
370
    25
100
AcDbCircle
 10
10631.3470008108
 20
3054.097023062
 30
0.0
 40
8.593413697112734
100
AcDbArc
 50
175.0107304327
 51
199.3155176079
  0
ARC
  5
3B1
330
1F
100
AcDbEntity
  8
0
  6
Continuous
 62
     7
370
    25
100
AcDbCircle
 10
10719.9678140859
 20
3046.3603842263
 30
0.0
 40
97.55129207787674
100
AcDbArc
 50
170.9149496346
 51
175.0107034506
  0
ARC
  5
3B2
330
1F
100
AcDbEntity
  8
0
  6
Continuous
 62
     7
370
    25
100
AcDbCircle
 10
10560.0819808003
 20
3071.9271734698
 30
0.0
 40
64.36578669282794
100
AcDbArc
 50
350.9149373689
 51
357.3411515716
  0
ARC
  5
3B3
330
1F
100
AcDbEntity
  8
0
  6
Continuous
 62
     7
370
    25
100
AcDbCircle
 10
10614.0812885527
 20
3069.4195007694
 30
0.0
 40
10.30828341981452
100
AcDbArc
 50
357.3411453517
 51
22.2225126692
  0
ARC
  5
3B4
330
1F
100
AcDbEntity
  8
0
  6
Continuous
 62
     7
370
    25
100
AcDbCircle
 10
10613.5505206866
 20
3069.2026532338
 30
0.0
 40
10.88163966281467
100
AcDbArc
 50
22.2225217428
 51
46.2059207706
  0
ARC
  5
3B5
330
1F
100
AcDbEntity
  8
0
  6
Continuous
 62
     7
370
    25
100
AcDbCircle
 10
10568.895828331
 20
3022.6275977155
 30
0.0
 40
75.40510319280204
100
AcDbArc
 50
46.2058889729
 51
51.9525968942
  0
ARC
  5
3B6
330
1F
100
AcDbEntity
  8
0
  6
Continuous
 62
     7
370
    25
100
AcDbCircle
 10
10523.630529641
 20
3185.9074573875
 30
0.0
 40
125.3923678434847
100
AcDbArc
 50
302.2717169817
 51
305.4532618147
  0
ARC
  5
3B7
330
1F
100
AcDbEntity
  8
0
  6
Continuous
 62
     7
370
    25
100
AcDbCircle
 10
10588.0573934061
 20
3083.8827611525
 30
0.0
 40
4.728125350268228
100
AcDbArc
 50
268.0884050643
 51
302.2717587937
  0
ARC
  5
3B8
330
1F
100
AcDbEntity
  8
0
  6
Continuous
 62
     7
370
    25
100
AcDbCircle
 10
10588.0260707023
 20
3082.9443459282
 30
0.0
 40
3.789187522227007
100
AcDbArc
 50
227.8097636011
 51
268.0884375176
  0
ARC
  5
3B9
330
1F
100
AcDbEntity
  8
0
  6
Continuous
 62
     7
370
    25
100
AcDbCircle
 10
10632.2867231784
 20
3131.7739452775
 30
0.0
 40
69.69317169786284
100
AcDbArc
 50
222.9732139782
 51
227.8098638687
  0
ARC
  5
3BA
330
1F
100
AcDbEntity
  8
0
  6
Continuous
 62
     7
370
    25
100
AcDbCircle
 10
10618.1945033438
 20
3118.6450208992
 30
0.0
 40
50.43286756740346
100
AcDbArc
 50
216.6827769793
 51
222.9731902346
  0
ARC
  5
3BB
330
1F
100
AcDbEntity
  8
0
  6
Continuous
 62
     7
370
    25
100
AcDbCircle
 10
10582.0754204541
 20
3091.739560089
 30
0.0
 40
5.394084610888829
100
AcDbArc
 50
184.1625229577
 51
216.6826756358
  0
ARC
  5
3BC
330
1F
100
AcDbEntity
  8
0
  6
Continuous
 62
     7
370
    25
100
AcDbCircle
 10
10582.9310831458
 20
3091.8018414492
 30
0.0
 40
6.25201095371723
100
AcDbArc
 50
154.859997885
 51
184.1625969783
  0
ARC
  5
3BD
330
1F
100
AcDbEntity
  8
0
  6
Continuous
 62
     7
370
    25
100
AcDbCircle
 10
10645.9171763429
 20
3062.2434481062
 30
0.0
 40
75.82892201810722
100
AcDbArc
 50
150.1475732849
 51
154.8600598637
  0
ARC
  5
3BE
330
1F
100
AcDbEntity
  8
0
  6
Continuous
 62
     7
370
    25
100
AcDbCircle
 10
10536.5348588582
 20
3125.0203320678
 30
0.0
 40
50.28780382852117
100
AcDbArc
 50
330.1475181093
 51
337.3728713074
  0
ARC
  5
3BF
330
1F
100
AcDbEntity
  8
0
  6
Continuous
 62
     7
370
    25
100
AcDbCircle
 10
10576.9420006082
 20
3108.1780192216
 30
0.0
 40
6.511090767599941
100
AcDbArc
 50
337.3728018451
 51
9.9616790873
  0
ARC
  5
3C0
330
1F
100
AcDbEntity
  8
0
  6
Continuous
 62
     7
370
    25
100
AcDbCircle
 10
10573.6367892079
 20
3107.5975144632
 30
0.0
 40
9.866892933333821
100
AcDbArc
 50
9.9615983615
 51
34.2149426703
  0
ARC
  5
3C1
330
1F
100
AcDbEntity
  8
0
  6
Continuous
 62
     7
370
    25
100
AcDbCircle
 10
10445.8269692733
 20
3020.6892741119
 30
0.0
 40
164.4255947675252
100
AcDbArc
 50
34.2149542756
 51
37.3341730872
  0
ARC
  5
3C2
330
1F
100
AcDbEntity
  8
0
  6
Continuous
 62
     7
370
    25
100
AcDbCircle
 10
10479.5968241314
 20
3046.4471672437
 30
0.0
 40
121.9535786198146
100
AcDbArc
 50
37.3340561589
 51
41.202299817
  0
ARC
  5
3C3
330
1F
100
AcDbEntity
  8
0
  6
Continuous
 62
     7
370
    25
100
AcDbCircle
 10
10563.0020213233
 20
3119.4688314727
 30
0.0
 40
11.09966409543216
100
AcDbArc
 50
41.2022227928
 51
63.6324458791
  0
ARC
  5
3C4
330
1F
100
AcDbEntity
  8
0
  6
Continuous
 62
     7
370
    25
100
AcDbCircle
 10
10565.278898849
 20
3124.0620937069
 30
0.0
 40
5.973044427507083
100
AcDbArc
 50
63.6324759975
 51
97.7183303177
  0
ARC
  5
3C5
330
1F
100
AcDbEntity
  8
0
  6
Continuous
 62
     7
370
    25
100
AcDbCircle
 10
10567.3783078452
 20
3108.5718324711
 30
0.0
 40
21.60492567346772
100
AcDbArc
 50
97.7183223893
 51
110.8167541325
  0
ARC
  5
3C6
330
1F
100
AcDbEntity
  8
0
  6
Continuous
 62
     7
370
    25
100
AcDbCircle
 10
10520.4118701241
 20
3232.1027612976
 30
0.0
 40
110.5530731345204
100
AcDbArc
 50
286.7451056831
 51
290.8168028808
  0
ARC
  5
3C7
330
1F
100
AcDbEntity
  8
0
  6
Continuous
 62
     7
370
    25
100
AcDbCircle
 10
10550.2722959018
 20
3132.8567014025
 30
0.0
 40
6.912224853939119
100
AcDbArc
 50
255.986832397
 51
286.7451250781
  0
ARC
  5
3C8
330
1F
100
AcDbEntity
  8
0
  6
Continuous
 62
     7
370
    25
100
AcDbCircle
 10
10549.6732311152
 20
3130.4562959324
 30
0.0
 40
4.438194733055553
100
AcDbArc
 50
213.9483925729
 51
255.9867134199
  0
ARC
  5
3C9
330
1F
100
AcDbEntity
  8
0
  6
Continuous
 62
     7
370
    25
100
AcDbCircle
 10
10575.3268299622
 20
3147.7262560651
 30
0.0
 40
35.36324375136493
100
AcDbArc
 50
204.8298696885
 51
213.9483766858
  0
ARC
  5
3CA
330
1F
100
AcDbEntity
  8
0
  6
Continuous
 62
     7
370
    25
100
AcDbCircle
 10
10560.563067962
 20
3140.8950995314
 30
0.0
 40
19.09568806569591
100
AcDbArc
 50
191.9845641966
 51
204.8298736958
  0
ARC
  5
3CB
330
1F
100
AcDbEntity
  8
0
  6
Continuous
 62
     7
370
    25
100
AcDbCircle
 10
10548.8493689536
 20
3138.40857853
 30
0.0
 40
7.120984263512059
100
AcDbArc
 50
165.165158364
 51
191.9845992994
  0
ARC
  5
3CC
330
1F
100
AcDbEntity
  8
0
  6
Continuous
 62
     7
370
    25
100
AcDbCircle
 10
10551.6874185648
 20
3137.6568847634
 30
0.0
 40
10.05689453368221
100
AcDbArc
 50
143.6948198339
 51
165.1651466852
  0
ARC
  5
3CD
330
1F
100
AcDbEntity
  8
0
  6
Continuous
 62
     7
370
    25
100
AcDbCircle
 10
10586.0137841608
 20
3112.4368092374
 30
0.0
 40
52.6521006555493
100
AcDbArc
 50
137.3963256617
 51
143.6947542587
  0
ARC
  5
3CE
330
1F
100
AcDbEntity
  8
0
  6
Continuous
 62
     7
370
    25
100
AcDbCircle
 10
10500.0514319649
 20
3191.4932863053
 30
0.0
 40
64.13596620680521
100
AcDbArc
 50
317.3964128063
 51
323.3485640444
  0
ARC
  5
3CF
330
1F
100
AcDbEntity
  8
0
  6
Continuous
 62
     7
370
    25
100
AcDbCircle
 10
10545.6740199925
 20
3157.5473656808
 30
0.0
 40
7.2699300746844
100
AcDbArc
 50
323.3486136155
 51
352.874612473
  0
ARC
  5
3D0
330
1F
100
AcDbEntity
  8
0
  6
Continuous
 62
     7
370
    25
100
AcDbCircle
 10
10543.9324238455
 20
3157.7650926035
 30
0.0
 40
9.025083102738371
100
AcDbArc
 50
352.8745120254
 51
18.2055965516
  0
ARC
  5
3D1
330
1F
100
AcDbEntity
  8
0
  6
Continuous
 62
     7
370
    25
100
AcDbCircle
 10
10439.0564013386
 20
3123.2721466378
 30
0.0
 40
119.427725363948
100
AcDbArc
 50
18.2056477707
 51
22.0363159856
  0
ARC
  5
3D2
330
1F
100
AcDbEntity
  8
0
  6
Continuous
 62
     7
370
    25
100
AcDbCircle
 10
10482.3893159414
 20
3140.8118753112
 30
0.0
 40
72.67963909425166
100
AcDbArc
 50
22.0362156976
 51
27.7733039522
  0
ARC
  5
3D3
330
1F
100
AcDbEntity
  8
0
  6
Continuous
 62
     7
370
    25
100
AcDbCircle
 10
10537.5795541864
 20
3169.8775309337
 30
0.0
 40
10.30356407897191
100
AcDbArc
 50
27.7733076782
 51
52.0239324645
  0
ARC
  5
3D4
330
1F
100
AcDbEntity
  8
0
  6
Continuous
 62
     7
370
    25
100
AcDbCircle
 10
10538.9594814924
 20
3171.6452696137
 30
0.0
 40
8.060998715258043
100
AcDbArc
 50
52.0239727854
 51
80.6030147805
  0
ARC
  5
3D5
330
1F
100
AcDbEntity
  8
0
  6
Continuous
 62
     7
370
    25
100
AcDbCircle
 10
10534.3850158162
 20
3144.0041072213
 30
0.0
 40
36.07812909335492
100
AcDbArc
 50
80.6030223301
 51
89.9999902284
  0
ARC
  5
3D6
330
1F
100
AcDbEntity
  8
0
  6
Continuous
 62
     7
370
    25
100
AcDbCircle
 10
10534.3850150792
 20
3199.8802943007
 30
0.0
 40
19.79805798599483
100
AcDbArc
 50
241.9590556672
 51
270.0000199397
  0
ARC
  5
3D7
330
1F
100
AcDbEntity
  8
0
  6
Continuous
 62
     7
370
    25
100
AcDbCircle
 10
10529.9292403297
 20
3191.5146299271
 30
0.0
 40
10.31975280894225
100
AcDbArc
 50
196.3487904058
 51
241.9590597686
  0
ARC
  5
3D8
330
1F
100
AcDbEntity
  8
0
  6
Continuous
 62
     7
370
    25
100
AcDbCircle
 10
10528.6182512656
 20
3191.1300542153
 30
0.0
 40
8.9535204698824
100
AcDbArc
 50
146.4181656914
 51
196.3487686619
  0
ARC
  5
3D9
330
1F
100
AcDbEntity
  8
0
  6
Continuous
 62
     7
370
    25
100
AcDbCircle
 10
10534.7462556864
 20
3187.0614264203
 30
0.0
 40
16.30921012590096
100
AcDbArc
 50
114.4954695338
 51
146.4181910545
  0
ARC
  5
3DA
330
1F
100
AcDbEntity
  8
0
  6
Continuous
 62
     7
370
    25
100
AcDbCircle
 10
10519.4091459695
 20
3220.7226844362
 30
0.0
 40
20.68142687430397
100
AcDbArc
 50
294.4954820508
 51
307.2770491131
  0
ARC
  5
3DB
330
1F
100
AcDbEntity
  8
0
  6
Continuous
 62
     7
370
    25
100
AcDbCircle
 10
10526.5876184582
 20
3211.2917791592
 30
0.0
 40
8.82931982048855
100
AcDbArc
 50
307.2769655508
 51
331.4197106236
  0
ARC
  5
3DC
330
1F
100
AcDbEntity
  8
0
  6
Continuous
 62
     7
370
    25
100
AcDbCircle
 10
10524.5346439882
 20
3212.4101626302
 30
0.0
 40
11.16715765975061
100
AcDbArc
 50
331.4197940693
 51
352.2440856701
  0
ARC
  5
3DD
330
1F
100
AcDbEntity
  8
0
  6
Continuous
 62
     7
370
    25
100
AcDbCircle
 10
10493.8476392366
 20
3216.5896399262
 30
0.0
 40
42.13747072068236
100
AcDbArc
 50
352.2441761096
 51
359.9999793893
  0
ARC
  5
3DE
330
1F
100
AcDbEntity
  8
0
  6
Continuous
 62
     7
370
    25
100
AcDbCircle
 10
10505.4223859426
 20
3216.5896109662
 30
0.0
 40
30.56272401461631
100
AcDbArc
 50
0.0000258746
 51
15.8855746811
  0
ARC
  5
3DF
330
1F
100
AcDbEntity
  8
0
  6
Continuous
 62
     7
370
    25
100
AcDbCircle
 10
10515.4117288328
 20
3219.4324191636
 30
0.0
 40
20.17674645712738
100
AcDbArc
 50
15.8856076911
 51
37.568554157
  0
ARC
  5
3E0
330
1F
100
AcDbEntity
  8
0
  6
Continuous
 62
     7
370
    25
100
AcDbCircle
 10
10518.8723801256
 20
3222.0944519644
 30
0.0
 40
15.81068118018175
100
AcDbArc
 50
37.568562815
 51
62.5192345377
  0
ARC
  5
3E1
330
1F
100
AcDbEntity
  8
0
  6
Continuous
 62
     7
370
    25
100
AcDbCircle
 10
10519.7545201084
 20
3223.7904570175
 30
0.0
 40
13.89897929728864
100
AcDbArc
 50
62.5191583147
 51
90.0000475088
  0
ARC
  5
3E2
330
1F
100
AcDbEntity
  8
0
  6
Continuous
 62
     7
370
    25
100
AcDbCircle
 10
10519.7545096831
 20
3246.26690627
 30
0.0
 40
8.577469955214081
100
AcDbArc
 50
249.7261044885
 51
269.9999926553
  0
ARC
  5
3E3
330
1F
100
AcDbEntity
  8
0
  6
Continuous
 62
     7
370
    25
100
AcDbCircle
 10
10518.1007435281
 20
3241.7899029115
 30
0.0
 40
3.804787107252624
100
AcDbArc
 50
212.5193413832
 51
249.7259746575
  0
ARC
  5
3E4
330
1F
100
AcDbEntity
  8
0
  6
Continuous
 62
     7
370
    25
100
AcDbCircle
 10
10520.641316962
 20
3243.4096252507
 30
0.0
 40
6.817761356946408
100
AcDbArc
 50
186.9706620079
 51
212.5192889621
  0
ARC
  5
3E5
330
1F
100
AcDbEntity
  8
0
  6
Continuous
 62
     7
370
    25
100
AcDbCircle
 10
10553.0391986364
 20
3247.3706725167
 30
0.0
 40
39.45688868032595
100
AcDbArc
 50
180.0000380479
 51
186.9705550449
  0
ARC
  5
3E6
330
1F
100
AcDbEntity
  8
0
  6
Continuous
 62
     7
370
    25
100
AcDbCircle
 10
10548.4545095372
 20
3247.3706223913
 30
0.0
 40
34.87219958103847
100
AcDbArc
 50
171.4212909564
 51
179.9999606931
  0
ARC
  5
3E7
330
1F
100
AcDbEntity
  8
0
  6
Continuous
 62
     7
370
    25
100
AcDbCircle
 10
10520.2346768884
 20
3251.6277438753
 30
0.0
 40
6.333067883474347
100
AcDbArc
 50
141.0932227024
 51
171.421279456
  0
ARC
  5
3E8
330
1F
100
AcDbEntity
  8
0
  6
Continuous
 62
     7
370
    25
100
AcDbCircle
 10
10520.1193924915
 20
3251.720774805
 30
0.0
 40
6.184928604686347
100
AcDbArc
 50
110.2828346562
 51
141.0931191188
  0
ARC
  5
3E9
330
1F
100
AcDbEntity
  8
0
  6
Continuous
 62
     7
370
    25
100
AcDbCircle
 10
10529.3156556484
 20
3226.8372206709
 30
0.0
 40
32.7134514130456
100
AcDbArc
 50
101.3099122277
 51
110.2828856487
  0
ARC
  5
3EA
330
1F
100
AcDbEntity
  8
0
  6
Continuous
 62
     7
370
    25
100
AcDbCircle
 10
10520.0173550275
 20
3273.3287368962
 30
0.0
 40
14.69877776224107
100
AcDbArc
 50
281.3099675038
 51
323.1501835408
  0
ARC
  5
3EB
330
1F
100
AcDbEntity
  8
0
  6
Continuous
 62
     7
370
    25
100
AcDbCircle
 10
10512.6895301616
 20
3278.8205907109
 30
0.0
 40
23.8561505070035
100
AcDbArc
 50
323.1501892233
 51
352.2814246155
  0
ARC
  5
3EC
330
1F
100
AcDbEntity
  8
0
  6
Continuous
 62
     7
370
    25
100
AcDbCircle
 10
10513.343747663
 20
3278.7319224634
 30
0.0
 40
23.19595159969802
100
AcDbArc
 50
352.2814211539
 51
21.909069666
  0
ARC
  5
3ED
330
1F
100
AcDbEntity
  8
0
  6
Continuous
 62
     7
370
    25
100
AcDbCircle
 10
10522.0298330288
 20
3282.2252936362
 30
0.0
 40
13.83370180954505
100
AcDbArc
 50
21.9091081833
 51
65.5045453331
  0
ARC
  5
3EE
330
1F
100
AcDbEntity
  8
0
  6
Continuous
 62
     7
370
    25
100
AcDbCircle
 10
10537.6324955024
 20
3316.4693888654
 30
0.0
 40
23.79741741819554
100
AcDbArc
 50
235.0982876856
 51
245.5045236727
  0
ARC
  5
3EF
330
1F
100
AcDbEntity
  8
0
  6
Continuous
 62
     7
370
    25
100
AcDbCircle
 10
10529.1078665537
 20
3304.2504252965
 30
0.0
 40
8.898680243188126
100
AcDbArc
 50
213.413851651
 51
235.0983880209
  0
ARC
  5
3F0
330
1F
100
AcDbEntity
  8
0
  6
Continuous
 62
     7
370
    25
100
AcDbCircle
 10
10527.6377419462
 20
3303.2805314376
 30
0.0
 40
7.137441912133317
100
AcDbArc
 50
188.6082597796
 51
213.4137493626
  0
ARC
  5
3F1
330
1F
100
AcDbEntity
  8
0
  6
Continuous
 62
     7
370
    25
100
AcDbCircle
 10
10532.5567462286
 20
3304.0251724992
 30
0.0
 40
12.11248899132742
100
AcDbArc
 50
171.9140629323
 51
188.6081954565
  0
ARC
  5
3F2
330
1F
100
AcDbEntity
  8
0
  6
Continuous
 62
     7
370
    25
100
AcDbCircle
 10
10532.6164052778
 20
3304.0167153288
 30
0.0
 40
12.1727444934987
100
AcDbArc
 50
154.2587429961
 51
171.9141497528
  0
ARC
  5
3F3
330
1F
100
AcDbEntity
  8
0
  6
Continuous
 62
     7
370
    25
100
AcDbCircle
 10
10526.9000298874
 20
3306.7728887367
 30
0.0
 40
5.826608704011486
100
AcDbArc
 50
123.631649904
 51
154.2587109442
  0
ARC
  5
3F4
330
1F
100
AcDbEntity
  8
0
  6
Continuous
 62
     7
370
    25
100
AcDbCircle
 10
10528.9992458855
 20
3303.6170766599
 30
0.0
 40
9.616840579635635
100
AcDbArc
 50
101.3863716439
 51
123.6315793289
  0
ARC
  5
3F5
330
1F
100
AcDbEntity
  8
0
  6
Continuous
 62
     7
370
    25
100
AcDbCircle
 10
10537.1069383062
 20
3263.3585524135
 30
0.0
 40
50.68365748672566
100
AcDbArc
 50
94.8920422361
 51
101.3864988009
  0
ARC
  5
3F6
330
1F
100
AcDbEntity
  8
0
  6
Continuous
 62
     7
370
    25
100
AcDbCircle
 10
10529.456916701
 20
3352.7379463606
 30
0.0
 40
39.02252342022611
100
AcDbArc
 50
274.8920560926
 51
284.2517296621
  0
ARC
  5
3F7
330
1F
100
AcDbEntity
  8
0
  6
Continuous
 62
     7
370
    25
100
AcDbCircle
 10
10536.6241747415
 20
3324.5204233418
 30
0.0
 40
9.908983732691736
100
AcDbArc
 50
284.251654897
 51
310.1793421159
  0
ARC
  5
3F8
330
1F
100
AcDbEntity
  8
0
  6
Continuous
 62
     7
370
    25
100
AcDbCircle
 10
10534.578400332
 20
3326.9430472312
 30
0.0
 40
13.07983526566642
100
AcDbArc
 50
310.179326346
 51
331.742338187
  0
ARC
  5
3F9
330
1F
100
AcDbEntity
  8
0
  6
Continuous
 62
     7
370
    25
100
AcDbCircle
 10
10468.3345123178
 20
3362.5487758355
 30
0.0
 40
88.28635498752074
100
AcDbArc
 50
331.7422313523
 51
337.007474509
  0
ARC
  5
3FA
330
1F
100
AcDbEntity
  8
0
  6
Continuous
 62
     7
370
    25
100
AcDbCircle
 10
10375.7236636772
 20
3401.8455470996
 30
0.0
 40
188.8895632749291
100
AcDbArc
 50
337.0074589044
 51
339.837039053
  0
ARC
  5
3FB
330
1F
100
AcDbEntity
  8
0
  6
Continuous
 62
     7
370
    25
100
AcDbCircle
 10
10544.849663899
 20
3339.7433913233
 30
0.0
 40
8.722191914052765
100
AcDbArc
 50
339.8370812283
 51
6.2536022597
  0
ARC
  5
3FC
330
1F
100
AcDbEntity
  8
0
  6
Continuous
 62
     7
370
    25
100
AcDbCircle
 10
10546.9807013018
 20
3339.9769132003
 30
0.0
 40
6.578397875615123
100
AcDbArc
 50
6.2536045539
 51
38.7373713375
  0
ARC
  5
3FD
330
1F
100
AcDbEntity
  8
0
  6
Continuous
 62
     7
370
    25
100
AcDbCircle
 10
10486.5456888409
 20
3291.4946996693
 30
0.0
 40
84.0568836637322
100
AcDbArc
 50
38.7373102399
 51
43.7730279179
  0
ARC
  5
3FE
330
1F
100
AcDbEntity
  8
0
  6
Continuous
 62
     7
370
    25
100
AcDbCircle
 10
10617.0214148311
 20
3416.4983785361
 30
0.0
 40
96.63576921107935
100
AcDbArc
 50
219.712475355
 51
223.7729461157
  0
ARC
  5
3FF
330
1F
100
AcDbEntity
  8
0
  6
Continuous
 62
     7
370
    25
100
AcDbCircle
 10
10547.9902890181
 20
3359.1622280032
 30
0.0
 40
6.898761856630299
100
AcDbArc
 50
191.7646907661
 51
219.7124076399
  0
ARC
  5
400
330
1F
100
AcDbEntity
  8
0
  6
Continuous
 62
     7
370
    25
100
AcDbCircle
 10
10545.6464665884
 20
3358.6740910129
 30
0.0
 40
4.504647969766306
100
AcDbArc
 50
154.1094271844
 51
191.7647626268
  0
ARC
  5
401
330
1F
100
AcDbEntity
  8
0
  6
Continuous
 62
     7
370
    25
100
AcDbCircle
 10
10569.2823653627
 20
3347.2020040726
 30
0.0
 40
30.77753303467656
100
AcDbArc
 50
144.9915174344
 51
154.10956678
  0
ARC
  5
402
330
1F
100
AcDbEntity
  8
0
  6
Continuous
 62
     7
370
    25
100
AcDbCircle
 10
10566.5560762987
 20
3349.1116186181
 30
0.0
 40
27.44897782683341
100
AcDbArc
 50
135.2791316313
 51
144.9915940501
  0
ARC
  5
403
330
1F
100
AcDbEntity
  8
0
  6
Continuous
 62
     7
370
    25
100
AcDbCircle
 10
10551.0937717289
 20
3364.4240020483
 30
0.0
 40
5.687729036324077
100
AcDbArc
 50
104.0769239382
 51
135.2791823881
  0
ARC
  5
404
330
1F
100
AcDbEntity
  8
0
  6
Continuous
 62
     7
370
    25
100
AcDbCircle
 10
10551.4316336311
 20
3363.0766176853
 30
0.0
 40
7.076827768138132
100
AcDbArc
 50
77.1313438353
 51
104.0769175457
  0
ARC
  5
405
330
1F
100
AcDbEntity
  8
0
  6
Continuous
 62
     7
370
    25
100
AcDbCircle
 10
10541.8292615772
 20
3321.0449301586
 30
0.0
 40
50.19142280740505
100
AcDbArc
 50
70.7813580158
 51
77.1313135768
  0
ARC
  5
406
330
1F
100
AcDbEntity
  8
0
  6
Continuous
 62
     7
370
    25
100
AcDbCircle
 10
10571.267982498
 20
3405.4928245571
 30
0.0
 40
39.24059135859412
100
AcDbArc
 50
250.7813016627
 51
259.1764185316
  0
ARC
  5
407
330
1F
100
AcDbEntity
  8
0
  6
Continuous
 62
     7
370
    25
100
AcDbCircle
 10
10565.2699984416
 20
3374.1204004988
 30
0.0
 40
7.299946342645468
100
AcDbArc
 50
259.1763499307
 51
288.3434390665
  0
ARC
  5
408
330
1F
100
AcDbEntity
  8
0
  6
Continuous
 62
     7
370
    25
100
AcDbCircle
 10
10564.6840799062
 20
3375.8875273981
 30
0.0
 40
9.161676185667396
100
AcDbArc
 50
288.3435015487
 51
313.3417324275
  0
ARC
  5
409
330
1F
100
AcDbEntity
  8
0
  6
Continuous
 62
     7
370
    25
100
AcDbCircle
 10
10519.6305771519
 20
3423.6274521011
 30
0.0
 40
74.80402929002288
100
AcDbArc
 50
313.3417198739
 51
318.6672060111
  0
ARC
  5
40A
330
1F
100
AcDbEntity
  8
0
  6
Continuous
 62
     7
370
    25
100
AcDbCircle
 10
10504.2275267571
 20
3437.1749567125
 30
0.0
 40
95.31716758388106
100
AcDbArc
 50
318.6672214005
 51
324.2158062766
  0
ARC
  5
40B
330
1F
100
AcDbEntity
  8
0
  6
Continuous
 62
     7
370
    25
100
AcDbCircle
 10
10573.1638061791
 20
3387.4854346399
 30
0.0
 40
10.3391749954862
100
AcDbArc
 50
324.2158662088
 51
352.6175398003
  0
ARC
  5
40C
330
1F
100
AcDbEntity
  8
0
  6
Continuous
 62
     7
370
    25
100
AcDbCircle
 10
10575.3767238432
 20
3387.198712021
 30
0.0
 40
8.107759648999018
100
AcDbArc
 50
352.6175652341
 51
26.1666149616
  0
ARC
  5
40D
330
1F
100
AcDbEntity
  8
0
  6
Continuous
 62
     7
370
    25
100
AcDbCircle
 10
10538.4606124991
 20
3369.0604241176
 30
0.0
 40
49.23921676928381
100
AcDbArc
 50
26.1666357212
 51
35.0084855487
  0
ARC
  5
40E
330
1F
100
AcDbEntity
  8
0
  6
Continuous
 62
     7
370
    25
100
AcDbCircle
 10
10625.5386543718
 20
3430.0522516818
 30
0.0
 40
57.07441549866705
100
AcDbArc
 50
209.5661023594
 51
215.0084074091
  0
ARC
  5
40F
330
1F
100
AcDbEntity
  8
0
  6
Continuous
 62
     7
370
    25
100
AcDbCircle
 10
10579.9661800085
 20
3404.1991271122
 30
0.0
 40
4.679430341593181
100
AcDbArc
 50
175.5947257169
 51
209.5660303941
  0
ARC
  5
410
330
1F
100
AcDbEntity
  8
0
  6
Continuous
 62
     7
370
    25
100
AcDbCircle
 10
10579.811313782
 20
3404.2110565321
 30
0.0
 40
4.524105330227941
100
AcDbArc
 50
140.7995256346
 51
175.5947102198
  0
ARC
  5
411
330
1F
100
AcDbEntity
  8
0
  6
Continuous
 62
     7
370
    25
100
AcDbCircle
 10
10616.7376478026
 20
3374.0942687726
 30
0.0
 40
52.1746567346507
100
AcDbArc
 50
134.999998933
 51
140.7996145406
  0
ARC
  5
412
330
1F
100
AcDbEntity
  8
0
  6
Continuous
 62
     7
370
    25
100
AcDbCircle
 10
10613.2443723693
 20
3377.5875291924
 30
0.0
 40
47.23442985599923
100
AcDbArc
 50
128.4311053787
 51
134.9999859439
  0
ARC
  5
413
330
1F
100
AcDbEntity
  8
0
  6
Continuous
 62
     7
370
    25
100
AcDbCircle
 10
10586.778779201
 20
3410.9415890185
 30
0.0
 40
4.656020672082322
100
AcDbArc
 50
92.4460025192
 51
128.4311479521
  0
ARC
  5
414
330
1F
100
AcDbEntity
  8
0
  6
Continuous
 62
     7
370
    25
100
AcDbCircle
 10
10586.851963842
 20
3409.228385607
 30
0.0
 40
6.370786522188045
100
AcDbArc
 50
63.7135590988
 51
92.4460219033
  0
ARC
  5
415
330
1F
100
AcDbEntity
  8
0
  6
Continuous
 62
     7
370
    25
100
AcDbCircle
 10
10540.1993657831
 20
3314.7778445681
 30
0.0
 40
111.7148400240293
100
AcDbArc
 50
60.147509341
 51
63.7135400319
  0
ARC
  5
416
330
1F
100
AcDbEntity
  8
0
  6
Continuous
 62
     7
370
    25
100
AcDbCircle
 10
10635.1623678633
 20
3480.2411311764
 30
0.0
 40
79.06270314946202
100
AcDbArc
 50
240.1475892914
 51
245.2311828628
  0
ARC
  5
417
330
1F
100
AcDbEntity
  8
0
  6
Continuous
 62
     7
370
    25
100
AcDbCircle
 10
10604.8175672706
 20
3414.4750069487
 30
0.0
 40
6.63349620267519
100
AcDbArc
 50
245.2312514358
 51
276.4524064023
  0
ARC
  5
418
330
1F
100
AcDbEntity
  8
0
  6
Continuous
 62
     7
370
    25
100
AcDbCircle
 10
10604.6842593905
 20
3415.6536924301
 30
0.0
 40
7.819696209021101
100
AcDbArc
 50
276.4524452945
 51
304.1752464824
  0
ARC
  5
419
330
1F
100
AcDbEntity
  8
0
  6
Continuous
 62
     7
370
    25
100
AcDbCircle
 10
10538.160253824
 20
3513.6315148197
 30
0.0
 40
126.2472985524867
100
AcDbArc
 50
304.1753243993
 51
307.8208619238
  0
ARC
  5
41A
330
1F
100
AcDbEntity
  8
0
  6
Continuous
 62
     7
370
    25
100
AcDbCircle
 10
10574.2169458578
 20
3467.1823844828
 30
0.0
 40
67.44588063188202
100
AcDbArc
 50
307.8208906537
 51
313.9903845957
  0
ARC
  5
41B
330
1F
100
AcDbEntity
  8
0
  6
Continuous
 62
     7
370
    25
100
AcDbCircle
 10
10613.0821103106
 20
3426.9228059953
 30
0.0
 40
11.4875508861083
100
AcDbArc
 50
313.9903975492
 51
336.8400313341
  0
ARC
  5
41C
330
1F
100
AcDbEntity
  8
0
  6
Continuous
 62
     7
370
    25
100
AcDbCircle
 10
10613.7716850486
 20
3426.6278373718
 30
0.0
 40
10.73753768086191
100
AcDbArc
 50
336.8399657801
 51
0.7437962698
  0
ARC
  5
41D
330
1F
100
AcDbEntity
  8
0
  6
Continuous
 62
     7
370
    25
100
AcDbCircle
 10
10569.252227665
 20
3426.0498507149
 30
0.0
 40
55.26074684540421
100
AcDbArc
 50
0.7438130879
 51
7.8439255423
  0
ARC
  5
41E
330
1F
100
AcDbEntity
  8
0
  6
Continuous
 62
     7
370
    25
100
AcDbCircle
 10
10691.6414853685
 20
3442.9107433168
 30
0.0
 40
68.2844679568907
100
AcDbArc
 50
182.4557190174
 51
187.8439670017
  0
ARC
  5
41F
330
1F
100
AcDbEntity
  8
0
  6
Continuous
 62
     7
370
    25
100
AcDbCircle
 10
10634.3096729118
 20
3440.4519738236
 30
0.0
 40
10.89995552548964
100
AcDbArc
 50
161.5427834742
 51
182.4557173938
  0
ARC
  5
420
330
1F
100
AcDbEntity
  8
0
  6
Continuous
 62
     7
370
    25
100
AcDbCircle
 10
10630.3049804759
 20
3441.788600324
 30
0.0
 40
6.678091966826776
100
AcDbArc
 50
132.8238523222
 51
161.5427790911
  0
ARC
  5
421
330
1F
100
AcDbEntity
  8
0
  6
Continuous
 62
     7
370
    25
100
AcDbCircle
 10
10636.9264454161
 20
3434.6439929574
 30
0.0
 40
16.41920136861916
100
AcDbArc
 50
118.1550065936
 51
132.8237475897
  0
ARC
  5
422
330
1F
100
AcDbEntity
  8
0
  6
Continuous
 62
     7
370
    25
100
AcDbCircle
 10
10637.9214240053
 20
3432.7848404897
 30
0.0
 40
18.52785740767185
100
AcDbArc
 50
105.0695649082
 51
118.1549757824
  0
ARC
  5
423
330
1F
100
AcDbEntity
  8
0
  6
Continuous
 62
     7
370
    25
100
AcDbCircle
 10
10634.5989757121
 20
3445.1244449598
 30
0.0
 40
5.748792452024673
100
AcDbArc
 50
73.7825159166
 51
105.0695804643
  0
ARC
  5
424
330
1F
100
AcDbEntity
  8
0
  6
Continuous
 62
     7
370
    25
100
AcDbCircle
 10
10633.7021410643
 20
3442.0410922317
 30
0.0
 40
8.95992565256077
100
AcDbArc
 50
50.4373058516
 51
73.7824086863
  0
ARC
  5
425
330
1F
100
AcDbEntity
  8
0
  6
Continuous
 62
     7
370
    25
100
AcDbCircle
 10
10598.2701370165
 20
3399.1543247009
 30
0.0
 40
64.58996915495293
100
AcDbArc
 50
45.0000442939
 51
50.4373101612
  0
ARC
  5
426
330
1F
100
AcDbEntity
  8
0
  6
Continuous
 62
     7
370
    25
100
AcDbCircle
 10
10697.7748541232
 20
3498.6590538787
 30
0.0
 40
76.13095983297588
100
AcDbArc
 50
224.9999688446
 51
230.3160635514
  0
ARC
  5
427
330
1F
100
AcDbEntity
  8
0
  6
Continuous
 62
     7
370
    25
100
AcDbCircle
 10
10653.346618815
 20
3445.1144438528
 30
0.0
 40
6.554431064798042
100
AcDbArc
 50
230.3160407937
 51
262.374284607
  0
ARC
  5
428
330
1F
100
AcDbEntity
  8
0
  6
Continuous
 62
     7
370
    25
100
AcDbCircle
 10
10653.5747614313
 20
3446.8183312066
 30
0.0
 40
8.273524188463908
100
AcDbArc
 50
262.3741671867
 51
289.4546711255
  0
ARC
  5
429
330
1F
100
AcDbEntity
  8
0
  6
Continuous
 62
     7
370
    25
100
AcDbCircle
 10
10607.1213915536
 20
3578.3289831521
 30
0.0
 40
147.7474183339887
100
AcDbArc
 50
289.454694109
 51
292.7730337391
  0
ARC
  5
42A
330
1F
100
AcDbEntity
  8
0
  6
Continuous
 62
     7
370
    25
100
AcDbCircle
 10
10631.9362957122
 20
3519.2186149331
 30
0.0
 40
83.63957872461738
100
AcDbArc
 50
292.7730823049
 51
298.1265135986
  0
ARC
  5
42B
330
1F
100
AcDbEntity
  8
0
  6
Continuous
 62
     7
370
    25
100
AcDbCircle
 10
10666.6048484516
 20
3454.3623996353
 30
0.0
 40
10.09886067132223
100
AcDbArc
 50
298.1266108133
 51
323.5133869518
  0
ARC
  5
42C
330
1F
100
AcDbEntity
  8
0
  6
Continuous
 62
     7
370
    25
100
AcDbCircle
 10
10667.929695217
 20
3453.3825314013
 30
0.0
 40
8.451025513437942
100
AcDbArc
 50
323.5134531771
 51
352.1825202647
  0
ARC
  5
42D
330
1F
100
AcDbEntity
  8
0
  6
Continuous
 62
     7
370
    25
100
AcDbCircle
 10
10626.3947611422
 20
3459.0850545347
 30
0.0
 40
50.37559490515633
100
AcDbArc
 50
352.182480658
 51
359.8396175749
  0
ARC
  5
42E
330
1F
100
AcDbEntity
  8
0
  6
Continuous
 62
     7
370
    25
100
AcDbCircle
 10
10741.0028755808
 20
3458.7642097203
 30
0.0
 40
64.23296863418737
100
AcDbArc
 50
174.2614562181
 51
179.8395883313
  0
ARC
  5
42F
330
1F
100
AcDbEntity
  8
0
  6
Continuous
 62
     7
370
    25
100
AcDbCircle
 10
10685.6460934938
 20
3464.3271616262
 30
0.0
 40
8.597370705090553
100
AcDbArc
 50
149.6895069195
 51
174.2614401395
  0
ARC
  5
430
330
1F
100
AcDbEntity
  8
0
  6
Continuous
 62
     7
370
    25
100
AcDbCircle
 10
10682.7144952595
 20
3466.0409782492
 30
0.0
 40
5.201573946621494
100
AcDbArc
 50
115.4542406957
 51
149.6895890219
  0
ARC
  5
431
330
1F
100
AcDbEntity
  8
0
  6
Continuous
 62
     7
370
    25
100
AcDbCircle
 10
10687.4761368422
 20
3456.037427776
 30
0.0
 40
16.28057447158508
100
AcDbArc
 50
100.8222348665
 51
115.4542279712
  0
ARC
  5
432
330
1F
100
AcDbEntity
  8
0
  6
Continuous
 62
     7
370
    25
100
AcDbCircle
 10
10687.1560413234
 20
3457.7118836706
 30
0.0
 40
14.5757977460061
100
AcDbArc
 50
85.2024154242
 51
100.8222253343
  0
ARC
  5
433
330
1F
100
AcDbEntity
  8
0
  6
Continuous
 62
     7
370
    25
100
AcDbCircle
 10
10687.7465339739
 20
3464.7473033663
 30
0.0
 40
7.515641100158701
100
AcDbArc
 50
59.5635608994
 51
85.2024962215
  0
ARC
  5
434
330
1F
100
AcDbEntity
  8
0
  6
Continuous
 62
     7
370
    25
100
AcDbCircle
 10
10686.3180487976
 20
3462.3160487202
 30
0.0
 40
10.33549376530378
100
AcDbArc
 50
38.5440500343
 51
59.5635737909
  0
ARC
  5
435
330
1F
100
AcDbEntity
  8
0
  6
Continuous
 62
     7
370
    25
100
AcDbCircle
 10
10664.6512335284
 20
3445.0542635809
 30
0.0
 40
38.03784222360335
100
AcDbArc
 50
30.5710173085
 51
38.5440593005
  0
ARC
  5
436
330
1F
100
AcDbEntity
  8
0
  6
Continuous
 62
     7
370
    25
100
AcDbCircle
 10
10725.3372585972
 20
3480.9024387859
 30
0.0
 40
32.44538488883622
100
AcDbArc
 50
210.5709896654
 51
220.1747833112
  0
ARC
  5
437
330
1F
100
AcDbEntity
  8
0
  6
Continuous
 62
     7
370
    25
100
AcDbCircle
 10
10709.9993131892
 20
3467.9524403412
 30
0.0
 40
12.37164510126744
100
AcDbArc
 50
220.1747956117
 51
239.9005482803
  0
ARC
  5
438
330
1F
100
AcDbEntity
  8
0
  6
Continuous
 62
     7
370
    25
100
AcDbCircle
 10
10709.8138173842
 20
3467.632443402
 30
0.0
 40
12.00177115689407
100
AcDbArc
 50
239.9005654556
 51
259.9995755796
  0
ARC
  5
439
330
1F
100
AcDbEntity
  8
0
  6
Continuous
 62
     7
370
    25
100
AcDbCircle
 10
10712.8468431035
 20
3484.8328210505
 30
0.0
 40
29.46751580931471
100
AcDbArc
 50
259.9995685186
 51
270.2747497319
  0
ARC
  5
43A
330
1F
100
AcDbEntity
  8
0
  6
Continuous
 62
     7
370
    25
100
AcDbCircle
 10
10712.7073006805
 20
3513.9340627007
 30
0.0
 40
58.56909201524858
100
AcDbArc
 50
270.274742429
 51
278.5254353846
  0
ARC
  5
43B
330
1F
100
AcDbEntity
  8
0
  6
Continuous
 62
     7
370
    25
100
AcDbCircle
 10
10719.5832078129
 20
3468.065676467
 30
0.0
 40
12.18820204352984
100
AcDbArc
 50
278.525378285
 51
304.9520761061
  0
ARC
  5
43C
330
1F
100
AcDbEntity
  8
0
  6
Continuous
 62
     7
370
    25
100
AcDbCircle
 10
10720.7135209937
 20
3466.4485440203
 30
0.0
 40
10.21520299713821
100
AcDbArc
 50
304.9520785645
 51
334.5964046323
  0
MTEXT
  5
43E
330
1F
100
AcDbEntity
  8
0
  6
Continuous
 62
     7
100
AcDbMText
 10
10513.5823099561
 20
3015.8422700165
 30
0.0
 40
4.83362
 41
0.0
 71
     1
 72
     1
  1
SOLIDWORKS Educational Product.
  7
SLDTEXTSTYLE0
 73
     1
 44
1.0
  0
MTEXT
  5
43F
330
1F
100
AcDbEntity
  8
0
  6
Continuous
 62
     7
100
AcDbMText
 10
10513.5823099561
 20
3008.5918400165
 30
0.0
 40
4.83362
 41
0.0
 71
     1
 72
     1
  1
For Instructional Use Only.
  7
SLDTEXTSTYLE0
 73
     1
 44
1.0
  0
ENDSEC
  0
SECTION
  2
OBJECTS
  0
DICTIONARY
  5
C
330
0
100
AcDbDictionary
281
     1
  3
ACAD_GROUP
350
D
  3
ACAD_LAYOUT
350
1A
  3
ACAD_MLINESTYLE
350
17
  3
ACAD_PLOTSETTINGS
350
19
  3
ACAD_PLOTSTYLENAME
350
E
  3
ACAD_SCALELIST
350
47
  3
DWGPROPS
350
440
  0
DICTIONARY
  5
D
102
{ACAD_REACTORS
330
C
102
}
330
C
100
AcDbDictionary
281
     1
  0
DICTIONARY
  5
1A
102
{ACAD_REACTORS
330
C
102
}
330
C
100
AcDbDictionary
281
     1
  3
Layout1
350
1E
  3
Layout2
350
26
  3
Model
350
22
  0
DICTIONARY
  5
17
102
{ACAD_REACTORS
330
C
102
}
330
C
100
AcDbDictionary
281
     1
  3
Standard
350
18
  0
DICTIONARY
  5
19
102
{ACAD_REACTORS
330
C
102
}
330
C
100
AcDbDictionary
281
     1
  0
ACDBDICTIONARYWDFLT
  5
E
102
{ACAD_REACTORS
330
C
102
}
330
C
100
AcDbDictionary
281
     1
  3
Normal
350
F
100
AcDbDictionaryWithDefault
340
F
  0
DICTIONARY
  5
47
102
{ACAD_REACTORS
330
C
102
}
330
C
100
AcDbDictionary
281
     1
  3
A0
350
48
  3
A1
350
49
  3
A2
350
4A
  3
A3
350
4B
  3
A4
350
4C
  3
A5
350
4D
  3
A6
350
4E
  3
A7
350
4F
  3
A8
350
50
  3
A9
350
51
  3
B0
350
52
  3
B1
350
53
  3
B2
350
54
  3
B3
350
55
  3
B4
350
56
  3
B5
350
57
  3
B6
350
58
  0
XRECORD
  5
440
102
{ACAD_REACTORS
330
C
102
}
330
C
100
AcDbXrecord
280
     1
  1
DWGPROPS COOKIE
  2

  3

  4

  6

  7

  8
anast
  9

300
=
301
=
302
=
303
=
304
=
305
=
306
=
307
=
308
=
309
=
 40
0.0
 41
2460804.595271169
 42
2460804.59530147
  1

 90
        0
  0
LAYOUT
  5
1E
102
{ACAD_REACTORS
330
1A
102
}
330
1A
100
AcDbPlotSettings
  1

  2
none_device
  4

  6

 40
0.0
 41
0.0
 42
0.0
 43
0.0
 44
0.0
 45
0.0
 46
0.0
 47
0.0
 48
0.0
 49
0.0
140
0.0
141
0.0
142
1.0
143
1.0
 70
   688
 72
     1
 73
     0
 74
     5
  7

 75
    16
147
1.0
148
0.0
149
0.0
100
AcDbLayout
  1
Layout1
 70
     1
 71
     1
 10
0.0
 20
0.0
 11
420.0
 21
297.0
 12
0.0
 22
0.0
 32
0.0
 14
1.0000000000E+20
 24
1.0000000000E+20
 34
1.0000000000E+20
 15
-1.0000000000E+20
 25
-1.0000000000E+20
 35
-1.0000000000E+20
146
0.0
 13
0.0
 23
0.0
 33
0.0
 16
1.0
 26
0.0
 36
0.0
 17
0.0
 27
1.0
 37
0.0
 76
     0
330
1B
  0
LAYOUT
  5
26
102
{ACAD_REACTORS
330
1A
102
}
330
1A
100
AcDbPlotSettings
  1

  2
none_device
  4

  6

 40
0.0
 41
0.0
 42
0.0
 43
0.0
 44
0.0
 45
0.0
 46
0.0
 47
0.0
 48
0.0
 49
0.0
140
0.0
141
0.0
142
1.0
143
1.0
 70
   688
 72
     1
 73
     0
 74
     5
  7

 75
    16
147
1.0
148
0.0
149
0.0
100
AcDbLayout
  1
Layout2
 70
     1
 71
     2
 10
0.0
 20
0.0
 11
0.0
 21
0.0
 12
0.0
 22
0.0
 32
0.0
 14
0.0
 24
0.0
 34
0.0
 15
0.0
 25
0.0
 35
0.0
146
0.0
 13
0.0
 23
0.0
 33
0.0
 16
1.0
 26
0.0
 36
0.0
 17
0.0
 27
1.0
 37
0.0
 76
     0
330
23
  0
LAYOUT
  5
22
102
{ACAD_REACTORS
330
1A
102
}
330
1A
100
AcDbPlotSettings
  1

  2
none_device
  4
ANSI_A_(11.00_x_8.50_Inches)
  6

 40
6.35
 41
19.05
 42
6.35000508
 43
19.05000254
 44
279.4
 45
215.9
 46
-4849.5159431167
 47
-1417.1598949276
 48
0.0
 49
0.0
140
0.0
141
0.0
142
0.0182594363
143
1.0
 70
  1696
 72
     0
 73
     0
 74
     0
  7

 75
     0
147
0.0179189148
148
-1300.4909072572
149
0.0
100
AcDbLayout
  1
Model
 70
     1
 71
     0
 10
0.0
 20
0.0
 11
420.0
 21
297.0
 12
0.0
 22
0.0
 32
0.0
 14
10513.5823099561
 24
3016.8618364082
 34
0.0
 15
10974.0278166013
 25
3477.7194363148
 35
0.0
146
0.0
 13
0.0
 23
0.0
 33
0.0
 16
1.0
 26
0.0
 36
0.0
 17
0.0
 27
1.0
 37
0.0
 76
     0
330
1F
331
29
  0
MLINESTYLE
  5
18
102
{ACAD_REACTORS
330
17
102
}
330
17
100
AcDbMlineStyle
  2
Standard
 70
     0
  3

 62
   256
 51
90.0
 52
90.0
 71
     2
 49
0.5
 62
   256
  6
BYLAYER
 49
-0.5
 62
   256
  6
BYLAYER
  0
ACDBPLACEHOLDER
  5
F
102
{ACAD_REACTORS
330
E
102
}
330
E
  0
SCALE
  5
48
102
{ACAD_REACTORS
330
47
102
}
330
47
100
AcDbScale
 70
     0
300
1:1
140
1.0
141
1.0
290
     1
  0
SCALE
  5
49
102
{ACAD_REACTORS
330
47
102
}
330
47
100
AcDbScale
 70
     0
300
1:2
140
1.0
141
2.0
290
     0
  0
SCALE
  5
4A
102
{ACAD_REACTORS
330
47
102
}
330
47
100
AcDbScale
 70
     0
300
1:4
140
1.0
141
4.0
290
     0
  0
SCALE
  5
4B
102
{ACAD_REACTORS
330
47
102
}
330
47
100
AcDbScale
 70
     0
300
1:5
140
1.0
141
5.0
290
     0
  0
SCALE
  5
4C
102
{ACAD_REACTORS
330
47
102
}
330
47
100
AcDbScale
 70
     0
300
1:8
140
1.0
141
8.0
290
     0
  0
SCALE
  5
4D
102
{ACAD_REACTORS
330
47
102
}
330
47
100
AcDbScale
 70
     0
300
1:10
140
1.0
141
10.0
290
     0
  0
SCALE
  5
4E
102
{ACAD_REACTORS
330
47
102
}
330
47
100
AcDbScale
 70
     0
300
1:16
140
1.0
141
16.0
290
     0
  0
SCALE
  5
4F
102
{ACAD_REACTORS
330
47
102
}
330
47
100
AcDbScale
 70
     0
300
1:20
140
1.0
141
20.0
290
     0
  0
SCALE
  5
50
102
{ACAD_REACTORS
330
47
102
}
330
47
100
AcDbScale
 70
     0
300
1:30
140
1.0
141
30.0
290
     0
  0
SCALE
  5
51
102
{ACAD_REACTORS
330
47
102
}
330
47
100
AcDbScale
 70
     0
300
1:40
140
1.0
141
40.0
290
     0
  0
SCALE
  5
52
102
{ACAD_REACTORS
330
47
102
}
330
47
100
AcDbScale
 70
     0
300
1:50
140
1.0
141
50.0
290
     0
  0
SCALE
  5
53
102
{ACAD_REACTORS
330
47
102
}
330
47
100
AcDbScale
 70
     0
300
1:100
140
1.0
141
100.0
290
     0
  0
SCALE
  5
54
102
{ACAD_REACTORS
330
47
102
}
330
47
100
AcDbScale
 70
     0
300
2:1
140
2.0
141
1.0
290
     0
  0
SCALE
  5
55
102
{ACAD_REACTORS
330
47
102
}
330
47
100
AcDbScale
 70
     0
300
4:1
140
4.0
141
1.0
290
     0
  0
SCALE
  5
56
102
{ACAD_REACTORS
330
47
102
}
330
47
100
AcDbScale
 70
     0
300
8:1
140
8.0
141
1.0
290
     0
  0
SCALE
  5
57
102
{ACAD_REACTORS
330
47
102
}
330
47
100
AcDbScale
 70
     0
300
10:1
140
10.0
141
1.0
290
     0
  0
SCALE
  5
58
102
{ACAD_REACTORS
330
47
102
}
330
47
100
AcDbScale
 70
     0
300
100:1
140
100.0
141
1.0
290
     0
  0
ENDSEC
  0
EOF
