  0
SECTION
  2
HEADER
  9
$ACADVER
  1
AC1015
  9
$ACADMAINTVER
 70
     6
  9
$DWGCODEPAGE
  3
ANSI_1252
  9
$INSBASE
 10
0.0
 20
0.0
 30
0.0
  9
$EXTMIN
 10
10914.4604044379
 20
9074.4220451426
 30
0.0
  9
$EXTMAX
 10
11162.962974113
 20
9323.5046051426
 30
0.0
  9
$LIMMIN
 10
0.0
 20
0.0
  9
$LIMMAX
 10
420.0
 20
297.0
  9
$ORTHOMODE
 70
     0
  9
$REGENMODE
 70
     1
  9
$FILLMODE
 70
     1
  9
$QTEXTMODE
 70
     0
  9
$MIRRTEXT
 70
     1
  9
$LTSCALE
 40
1.0
  9
$ATTMODE
 70
     1
  9
$TEXTSIZE
 40
3.5
  9
$TRACEWID
 40
1.0
  9
$TEXTSTYLE
  7
Standard
  9
$CLAYER
  8
0
  9
$CELTYPE
  6
ByLayer
  9
$CECOLOR
 62
   256
  9
$CELTSCALE
 40
1.0
  9
$DISPSILH
 70
     0
  9
$DIMSCALE
 40
1.0
  9
$DIMASZ
 40
3.302
  9
$DIMEXO
 40
0.0
  9
$DIMDLI
 40
3.75
  9
$DIMRND
 40
0.0
  9
$DIMDLE
 40
0.0
  9
$DIMEXE
 40
1.0
  9
$DIMTP
 40
0.0
  9
$DIMTM
 40
0.0
  9
$DIMTXT
 40
3.5
  9
$DIMCEN
 40
2.5
  9
$DIMTSZ
 40
0.0
  9
$DIMTOL
 70
     0
  9
$DIMLIM
 70
     0
  9
$DIMTIH
 70
     1
  9
$DIMTOH
 70
     1
  9
$DIMSE1
 70
     0
  9
$DIMSE2
 70
     0
  9
$DIMTAD
 70
     1
  9
$DIMZIN
 70
     1
  9
$DIMBLK
  1

  9
$DIMASO
 70
     1
  9
$DIMSHO
 70
     1
  9
$DIMPOST
  1

  9
$DIMAPOST
  1

  9
$DIMALT
 70
     0
  9
$DIMALTD
 70
     3
  9
$DIMALTF
 40
0.0393700787
  9
$DIMLFAC
 40
1.0
  9
$DIMTOFL
 70
     1
  9
$DIMTVP
 40
0.0
  9
$DIMTIX
 70
     0
  9
$DIMSOXD
 70
     0
  9
$DIMSAH
 70
     0
  9
$DIMBLK1
  1

  9
$DIMBLK2
  1

  9
$DIMSTYLE
  2
ISO-25
  9
$DIMCLRD
 70
     0
  9
$DIMCLRE
 70
     0
  9
$DIMCLRT
 70
     0
  9
$DIMTFAC
 40
1.0
  9
$DIMGAP
 40
1.524
  9
$DIMJUST
 70
     0
  9
$DIMSD1
 70
     0
  9
$DIMSD2
 70
     0
  9
$DIMTOLJ
 70
     0
  9
$DIMTZIN
 70
     1
  9
$DIMALTZ
 70
     0
  9
$DIMALTTZ
 70
     0
  9
$DIMUPT
 70
     0
  9
$DIMDEC
 70
     2
  9
$DIMTDEC
 70
     2
  9
$DIMALTU
 70
     2
  9
$DIMALTTD
 70
     3
  9
$DIMTXSTY
  7
Standard
  9
$DIMAUNIT
 70
     0
  9
$DIMADEC
 70
     2
  9
$DIMALTRND
 40
0.0
  9
$DIMAZIN
 70
     0
  9
$DIMDSEP
 70
    44
  9
$DIMATFIT
 70
     3
  9
$DIMFRAC
 70
     0
  9
$DIMLDRBLK
  1

  9
$DIMLUNIT
 70
     2
  9
$DIMLWD
 70
    -2
  9
$DIMLWE
 70
    -2
  9
$DIMTMOVE
 70
     0
  9
$LUNITS
 70
     2
  9
$LUPREC
 70
     6
  9
$SKETCHINC
 40
1.0
  9
$FILLETRAD
 40
0.0
  9
$AUNITS
 70
     0
  9
$AUPREC
 70
     2
  9
$MENU
  1
.
  9
$ELEVATION
 40
0.0
  9
$PELEVATION
 40
0.0
  9
$THICKNESS
 40
0.0
  9
$LIMCHECK
 70
     0
  9
$CHAMFERA
 40
0.0
  9
$CHAMFERB
 40
0.0
  9
$CHAMFERC
 40
0.0
  9
$CHAMFERD
 40
0.0
  9
$SKPOLY
 70
     0
  9
$TDCREATE
 40
2460804.677479167
  9
$TDUCREATE
 40
2460804.594145834
  9
$TDUPDATE
 40
2460804.67751015
  9
$TDUUPDATE
 40
2460804.594176817
  9
$TDINDWG
 40
0.0000000116
  9
$TDUSRTIMER
 40
0.0000000116
  9
$USRTIMER
 70
     1
  9
$ANGBASE
 50
0.0
  9
$ANGDIR
 70
     0
  9
$PDMODE
 70
     0
  9
$PDSIZE
 40
-1.0
  9
$PLINEWID
 40
0.0
  9
$SPLFRAME
 70
     0
  9
$SPLINETYPE
 70
     6
  9
$SPLINESEGS
 70
     8
  9
$HANDSEED
  5
3FF
  9
$SURFTAB1
 70
     6
  9
$SURFTAB2
 70
     6
  9
$SURFTYPE
 70
     6
  9
$SURFU
 70
     6
  9
$SURFV
 70
     6
  9
$UCSBASE
  2

  9
$UCSNAME
  2

  9
$UCSORG
 10
0.0
 20
0.0
 30
0.0
  9
$UCSXDIR
 10
1.0
 20
0.0
 30
0.0
  9
$UCSYDIR
 10
0.0
 20
1.0
 30
0.0
  9
$UCSORTHOREF
  2

  9
$UCSORTHOVIEW
 70
     0
  9
$UCSORGTOP
 10
0.0
 20
0.0
 30
0.0
  9
$UCSORGBOTTOM
 10
0.0
 20
0.0
 30
0.0
  9
$UCSORGLEFT
 10
0.0
 20
0.0
 30
0.0
  9
$UCSORGRIGHT
 10
0.0
 20
0.0
 30
0.0
  9
$UCSORGFRONT
 10
0.0
 20
0.0
 30
0.0
  9
$UCSORGBACK
 10
0.0
 20
0.0
 30
0.0
  9
$PUCSBASE
  2

  9
$PUCSNAME
  2

  9
$PUCSORG
 10
0.0
 20
0.0
 30
0.0
  9
$PUCSXDIR
 10
1.0
 20
0.0
 30
0.0
  9
$PUCSYDIR
 10
0.0
 20
1.0
 30
0.0
  9
$PUCSORTHOREF
  2

  9
$PUCSORTHOVIEW
 70
     0
  9
$PUCSORGTOP
 10
0.0
 20
0.0
 30
0.0
  9
$PUCSORGBOTTOM
 10
0.0
 20
0.0
 30
0.0
  9
$PUCSORGLEFT
 10
0.0
 20
0.0
 30
0.0
  9
$PUCSORGRIGHT
 10
0.0
 20
0.0
 30
0.0
  9
$PUCSORGFRONT
 10
0.0
 20
0.0
 30
0.0
  9
$PUCSORGBACK
 10
0.0
 20
0.0
 30
0.0
  9
$USERI1
 70
     0
  9
$USERI2
 70
     0
  9
$USERI3
 70
     0
  9
$USERI4
 70
     0
  9
$USERI5
 70
     0
  9
$USERR1
 40
0.0
  9
$USERR2
 40
0.0
  9
$USERR3
 40
0.0
  9
$USERR4
 40
0.0
  9
$USERR5
 40
0.0
  9
$WORLDVIEW
 70
     1
  9
$SHADEDGE
 70
     3
  9
$SHADEDIF
 70
    70
  9
$TILEMODE
 70
     1
  9
$MAXACTVP
 70
    64
  9
$PINSBASE
 10
0.0
 20
0.0
 30
0.0
  9
$PLIMCHECK
 70
     0
  9
$PEXTMIN
 10
1.0000000000E+20
 20
1.0000000000E+20
 30
1.0000000000E+20
  9
$PEXTMAX
 10
-1.0000000000E+20
 20
-1.0000000000E+20
 30
-1.0000000000E+20
  9
$PLIMMIN
 10
0.0
 20
0.0
  9
$PLIMMAX
 10
420.0
 20
297.0
  9
$UNITMODE
 70
     0
  9
$VISRETAIN
 70
     1
  9
$PLINEGEN
 70
     0
  9
$PSLTSCALE
 70
     1
  9
$TREEDEPTH
 70
  3020
  9
$CMLSTYLE
  2
Standard
  9
$CMLJUST
 70
     0
  9
$CMLSCALE
 40
20.0
  9
$PROXYGRAPHICS
 70
     1
  9
$MEASUREMENT
 70
     1
  9
$CELWEIGHT
370
    -1
  9
$ENDCAPS
280
     0
  9
$JOINSTYLE
280
     0
  9
$LWDISPLAY
290
     1
  9
$INSUNITS
 70
     4
  9
$HYPERLINKBASE
  1

  9
$STYLESHEET
  1

  9
$XEDIT
290
     1
  9
$CEPSNTYPE
380
     0
  9
$PSTYLEMODE
290
     1
  9
$FINGERPRINTGUID
  2
{f52fbd3a-7141-4421-be36-411436d5e622}
  9
$VERSIONGUID
  2
{FAEB1C32-E019-11D5-929B-00C0DF256EC4}
  9
$EXTNAMES
290
     1
  9
$PSVPSCALE
 40
0.0
  9
$OLESTARTUP
290
     0
  0
ENDSEC
  0
SECTION
  2
CLASSES
  0
CLASS
  1
ACDBDICTIONARYWDFLT
  2
AcDbDictionaryWithDefault
  3
ObjectDBX Classes
 90
        0
280
     0
281
     0
  0
CLASS
  1
VISUALSTYLE
  2
AcDbVisualStyle
  3
ObjectDBX Classes
 90
     4095
280
     0
281
     0
  0
CLASS
  1
MATERIAL
  2
AcDbMaterial
  3
ObjectDBX Classes
 90
     1153
280
     0
281
     0
  0
CLASS
  1
SCALE
  2
AcDbScale
  3
ObjectDBX Classes
 90
     1153
280
     0
281
     0
  0
CLASS
  1
TABLESTYLE
  2
AcDbTableStyle
  3
ObjectDBX Classes
 90
     4095
280
     0
281
     0
  0
CLASS
  1
MLEADERSTYLE
  2
AcDbMLeaderStyle
  3
ACDB_MLEADERSTYLE_CLASS
 90
     4095
280
     0
281
     0
  0
CLASS
  1
SUN
  2
AcDbSun
  3
SCENEOE
 90
     1153
280
     0
281
     0
  0
CLASS
  1
ACDBPLACEHOLDER
  2
AcDbPlaceHolder
  3
ObjectDBX Classes
 90
        0
280
     0
281
     0
  0
CLASS
  1
LAYOUT
  2
AcDbLayout
  3
ObjectDBX Classes
 90
        0
280
     0
281
     0
  0
ENDSEC
  0
SECTION
  2
TABLES
  0
TABLE
  2
VPORT
  5
8
330
0
100
AcDbSymbolTable
 70
     1
  0
VPORT
  5
29
330
8
100
AcDbSymbolTableRecord
100
AcDbViewportTableRecord
  2
*Active
 70
     0
 10
0.0
 20
0.0
 11
1.0
 21
1.0
 12
11038.7116892754
 22
9198.9633251426
 13
0.0
 23
0.0
 14
10.0
 24
10.0
 15
10.0
 25
10.0
 16
0.0
 26
0.0
 36
1.0
 17
0.0
 27
0.0
 37
0.0
 40
254.0642111999
 41
0.9976714936
 42
50.0
 43
0.0
 44
0.0
 50
0.0
 51
0.0
 71
     0
 72
   100
 73
     1
 74
     3
 75
     0
 76
     0
 77
     0
 78
     0
281
     0
 65
     1
110
0.0
120
0.0
130
0.0
111
1.0
121
0.0
131
0.0
112
0.0
122
1.0
132
0.0
 79
     0
146
0.0
  0
ENDTAB
  0
TABLE
  2
LTYPE
  5
5
330
0
100
AcDbSymbolTable
 70
     6
  0
LTYPE
  5
14
330
5
100
AcDbSymbolTableRecord
100
AcDbLinetypeTableRecord
  2
ByBlock
 70
     0
  3

 72
    65
 73
     0
 40
0.0
  0
LTYPE
  5
15
330
5
100
AcDbSymbolTableRecord
100
AcDbLinetypeTableRecord
  2
ByLayer
 70
     0
  3

 72
    65
 73
     0
 40
0.0
  0
LTYPE
  5
16
330
5
100
AcDbSymbolTableRecord
100
AcDbLinetypeTableRecord
  2
Continuous
 70
     0
  3
Solid line
 72
    65
 73
     0
 40
0.0
  0
LTYPE
  5
5E
330
5
100
AcDbSymbolTableRecord
100
AcDbLinetypeTableRecord
  2
HIDDEN
 70
     0
  3
Hidden __ __ __ __ __ __ __ __ __ __ __ __ __ __
 72
    65
 73
     2
 40
1.905
 49
1.27
 74
     0
 49
-0.635
 74
     0
  0
LTYPE
  5
5F
330
5
100
AcDbSymbolTableRecord
100
AcDbLinetypeTableRecord
  2
PHANTOM
 70
     0
  3
Phantom ______  __  __  ______  __  __  ______
 72
    65
 73
     6
 40
12.7
 49
6.35
 74
     0
 49
-1.27
 74
     0
 49
1.27
 74
     0
 49
-1.27
 74
     0
 49
1.27
 74
     0
 49
-1.27
 74
     0
  0
LTYPE
  5
60
330
5
100
AcDbSymbolTableRecord
100
AcDbLinetypeTableRecord
  2
CENTER
 70
     0
  3
Center ____ _ ____ _ ____ _ ____ _ ____ _ ____
 72
    65
 73
     4
 40
10.16
 49
6.35
 74
     0
 49
-1.27
 74
     0
 49
1.27
 74
     0
 49
-1.27
 74
     0
  0
LTYPE
  5
61
330
5
100
AcDbSymbolTableRecord
100
AcDbLinetypeTableRecord
  2
CENTERX2
 70
     0
  3
Center (2x) ________  __  ________  __  _____
 72
    65
 73
     4
 40
20.32
 49
12.7
 74
     0
 49
-2.54
 74
     0
 49
2.54
 74
     0
 49
-2.54
 74
     0
  0
LTYPE
  5
62
330
5
100
AcDbSymbolTableRecord
100
AcDbLinetypeTableRecord
  2
DOT2
 70
     0
  3
Dot (.5x) ........................................
 72
    65
 73
     2
 40
0.635
 49
0.0
 74
     0
 49
-0.635
 74
     0
  0
ENDTAB
  0
TABLE
  2
LAYER
  5
2
330
0
100
AcDbSymbolTable
 70
     1
  0
LAYER
  5
10
330
2
100
AcDbSymbolTableRecord
100
AcDbLayerTableRecord
  2
0
 70
     0
 62
     7
  6
Continuous
370
    -3
390
F
  0
ENDTAB
  0
TABLE
  2
STYLE
  5
3
330
0
100
AcDbSymbolTable
 70
     2
  0
STYLE
  5
11
330
3
100
AcDbSymbolTableRecord
100
AcDbTextStyleTableRecord
  2
Standard
 70
     0
 40
0.0
 41
1.0
 50
0.0
 71
     0
 42
3.5
  3
txt
  4

  0
STYLE
  5
3FB
330
3
100
AcDbSymbolTableRecord
100
AcDbTextStyleTableRecord
  2
SLDTEXTSTYLE0
 70
     0
 40
0.0
 41
0.7
 50
0.0
 71
     0
 42
3.5
  3
TXT
  4

  0
ENDTAB
  0
TABLE
  2
VIEW
  5
6
330
0
100
AcDbSymbolTable
 70
     0
  0
ENDTAB
  0
TABLE
  2
UCS
  5
7
330
0
100
AcDbSymbolTable
 70
     0
  0
ENDTAB
  0
TABLE
  2
APPID
  5
9
330
0
100
AcDbSymbolTable
 70
     1
  0
APPID
  5
12
330
9
100
AcDbSymbolTableRecord
100
AcDbRegAppTableRecord
  2
ACAD
 70
     0
  0
ENDTAB
  0
TABLE
  2
DIMSTYLE
  5
A
330
0
100
AcDbSymbolTable
 70
     1
100
AcDbDimStyleTable
  0
DIMSTYLE
105
27
330
A
100
AcDbSymbolTableRecord
100
AcDbDimStyleTableRecord
  2
ISO-25
 70
     0
 41
2.5
 42
0.625
 43
3.75
 44
1.25
 73
     0
 74
     0
 77
     1
 78
     8
140
2.5
141
2.5
143
0.0393700787
147
0.625
171
     3
172
     1
178
     0
271
     2
272
     2
274
     3
278
    44
283
     0
284
     8
340
11
  0
ENDTAB
  0
TABLE
  2
BLOCK_RECORD
  5
1
330
0
100
AcDbSymbolTable
 70
     1
  0
BLOCK_RECORD
  5
1F
330
1
100
AcDbSymbolTableRecord
100
AcDbBlockTableRecord
  2
*Model_Space
340
22
  0
BLOCK_RECORD
  5
1B
330
1
100
AcDbSymbolTableRecord
100
AcDbBlockTableRecord
  2
*Paper_Space
340
1E
  0
BLOCK_RECORD
  5
23
330
1
100
AcDbSymbolTableRecord
100
AcDbBlockTableRecord
  2
*Paper_Space0
340
26
  0
ENDTAB
  0
ENDSEC
  0
SECTION
  2
BLOCKS
  0
BLOCK
  5
20
330
1F
100
AcDbEntity
  8
0
100
AcDbBlockBegin
  2
*Model_Space
 70
     0
 10
0.0
 20
0.0
 30
0.0
  3
*Model_Space
  1

  0
ENDBLK
  5
21
330
1F
100
AcDbEntity
  8
0
100
AcDbBlockEnd
  0
BLOCK
  5
1C
330
1B
100
AcDbEntity
 67
     1
  8
0
100
AcDbBlockBegin
  2
*Paper_Space
 70
     0
 10
0.0
 20
0.0
 30
0.0
  3
*Paper_Space
  1

  0
ENDBLK
  5
1D
330
1B
100
AcDbEntity
 67
     1
  8
0
100
AcDbBlockEnd
  0
BLOCK
  5
24
330
23
100
AcDbEntity
  8
0
100
AcDbBlockBegin
  2
*Paper_Space0
 70
     0
 10
0.0
 20
0.0
 30
0.0
  3
*Paper_Space0
  1

  0
ENDBLK
  5
25
330
23
100
AcDbEntity
  8
0
100
AcDbBlockEnd
  0
ENDSEC
  0
SECTION
  2
ENTITIES
  0
LINE
  5
22F
330
1F
100
AcDbEntity
  8
0
  6
Continuous
 62
     7
370
    25
100
AcDbLine
 10
11073.6455364107
 20
9296.0276264315
 30
0.0
 11
11074.5932211721
 21
9306.4788573505
 31
0.0
  0
LINE
  5
230
330
1F
100
AcDbEntity
  8
0
  6
Continuous
 62
     7
370
    25
100
AcDbLine
 10
11078.7870190456
 20
9294.8983674028
 30
0.0
 11
11073.6455364107
 21
9296.0276264315
 31
0.0
  0
LINE
  5
231
330
1F
100
AcDbEntity
  8
0
  6
Continuous
 62
     7
370
    25
100
AcDbLine
 10
11123.4055049401
 20
9257.9822839986
 30
0.0
 11
11120.6966663699
 21
9262.116495788
 31
0.0
  0
LINE
  5
232
330
1F
100
AcDbEntity
  8
0
  6
Continuous
 62
     7
370
    25
100
AcDbLine
 10
11134.0042601926
 20
9261.5615398442
 30
0.0
 11
11123.4055049401
 21
9257.9822839986
 31
0.0
  0
LINE
  5
233
330
1F
100
AcDbEntity
  8
0
  6
Continuous
 62
     7
370
    25
100
AcDbLine
 10
11136.0091603139
 20
9233.2694090503
 30
0.0
 11
11134.1612738823
 21
9238.5702612802
 31
0.0
  0
LINE
  5
234
330
1F
100
AcDbEntity
  8
0
  6
Continuous
 62
     7
370
    25
100
AcDbLine
 10
11146.3783652323
 20
9234.4728825741
 30
0.0
 11
11136.0091603139
 21
9233.2694090503
 31
0.0
  0
LINE
  5
235
330
1F
100
AcDbEntity
  8
0
  6
Continuous
 62
     7
370
    25
100
AcDbLine
 10
11134.2463528742
 20
9136.8505585126
 30
0.0
 11
11130.5282698244
 21
9138.1159826744
 31
0.0
  0
LINE
  5
236
330
1F
100
AcDbEntity
  8
0
  6
Continuous
 62
     7
370
    25
100
AcDbLine
 10
11127.3061793426
 20
9139.1823189514
 30
0.0
 11
11124.508065432
 21
9140.0874901642
 31
0.0
  0
LINE
  5
237
330
1F
100
AcDbEntity
  8
0
  6
Continuous
 62
     7
370
    25
100
AcDbLine
 10
10953.9819398592
 20
9257.9489311517
 30
0.0
 11
10944.180302418
 21
9261.3211872814
 31
0.0
  0
LINE
  5
238
330
1F
100
AcDbEntity
  8
0
  6
Continuous
 62
     7
370
    25
100
AcDbLine
 10
10956.7017069255
 20
9262.099819365
 30
0.0
 11
10953.9819398592
 21
9257.9489311517
 31
0.0
  0
LINE
  5
239
330
1F
100
AcDbEntity
  8
0
  6
Continuous
 62
     7
370
    25
100
AcDbLine
 10
10979.828334185
 20
9284.7683301745
 30
0.0
 11
10978.8723034275
 21
9287.7140739349
 31
0.0
  0
LINE
  5
23A
330
1F
100
AcDbEntity
  8
0
  6
Continuous
 62
     7
370
    25
100
AcDbLine
 10
10978.8723034275
 20
9287.7140739349
 30
0.0
 11
10977.7495499506
 21
9291.1001593375
 31
0.0
  0
LINE
  5
23B
330
1F
100
AcDbEntity
  8
0
  6
Continuous
 62
     7
370
    25
100
AcDbLine
 10
10977.7495499506
 20
9291.1001593375
 30
0.0
 11
10976.4171122017
 21
9295.0130111104
 31
0.0
  0
ARC
  5
23C
330
1F
100
AcDbEntity
  8
0
  6
Continuous
 62
     7
370
    25
100
AcDbCircle
 10
11083.4750722433
 20
9141.0170532932
 30
0.0
 40
18.36508778865581
100
AcDbArc
 50
359.9999433727
 51
8.0080077903
  0
ARC
  5
23D
330
1F
100
AcDbEntity
  8
0
  6
Continuous
 62
     7
370
    25
100
AcDbCircle
 10
11097.5898515972
 20
9143.0027678378
 30
0.0
 40
4.11131430714597
100
AcDbArc
 50
8.0080084198
 51
32.330244876
  0
ARC
  5
23E
330
1F
100
AcDbEntity
  8
0
  6
Continuous
 62
     7
370
    25
100
AcDbCircle
 10
11098.7668960105
 20
9143.7477360943
 30
0.0
 40
2.718327855656003
100
AcDbArc
 50
32.3302139518
 51
63.9579903466
  0
ARC
  5
23F
330
1F
100
AcDbEntity
  8
0
  6
Continuous
 62
     7
370
    25
100
AcDbCircle
 10
11097.4065931263
 20
9140.9638808367
 30
0.0
 40
5.816758753969555
100
AcDbArc
 50
63.9580049111
 51
81.8687822902
  0
ARC
  5
240
330
1F
100
AcDbEntity
  8
0
  6
Continuous
 62
     7
370
    25
100
AcDbCircle
 10
11097.3610843427
 20
9140.6453752451
 30
0.0
 40
6.138499117174697
100
AcDbArc
 50
81.8687669698
 51
110.3672527522
  0
ARC
  5
241
330
1F
100
AcDbEntity
  8
0
  6
Continuous
 62
     7
370
    25
100
AcDbCircle
 10
11097.5910666043
 20
9140.0258648776
 30
0.0
 40
6.799320527276666
100
AcDbArc
 50
110.3671847092
 51
136.7635780331
  0
ARC
  5
242
330
1F
100
AcDbEntity
  8
0
  6
Continuous
 62
     7
370
    25
100
AcDbCircle
 10
11097.6432918812
 20
9139.9767559987
 30
0.0
 40
6.871008472716285
100
AcDbArc
 50
136.7635563602
 51
163.0002705303
  0
ARC
  5
243
330
1F
100
AcDbEntity
  8
0
  6
Continuous
 62
     7
370
    25
100
AcDbCircle
 10
11097.1257474274
 20
9140.1349697058
 30
0.0
 40
6.329821038795711
100
AcDbArc
 50
163.0001593897
 51
190.9006846186
  0
ARC
  5
244
330
1F
100
AcDbEntity
  8
0
  6
Continuous
 62
     7
370
    25
100
AcDbCircle
 10
11094.4463278623
 20
9139.6189698379
 30
0.0
 40
3.60116842820601
100
AcDbArc
 50
190.9008129811
 51
215.162768956
  0
ARC
  5
245
330
1F
100
AcDbEntity
  8
0
  6
Continuous
 62
     7
370
    25
100
AcDbCircle
 10
11094.1208648541
 20
9139.3896917559
 30
0.0
 40
3.203054614620643
100
AcDbArc
 50
215.1626846066
 51
241.6515715346
  0
ARC
  5
246
330
1F
100
AcDbEntity
  8
0
  6
Continuous
 62
     7
370
    25
100
AcDbCircle
 10
11095.0652893499
 20
9141.140154659
 30
0.0
 40
5.192038778306279
100
AcDbArc
 50
241.6516885455
 51
261.4500083899
  0
ARC
  5
247
330
1F
100
AcDbEntity
  8
0
  6
Continuous
 62
     7
370
    25
100
AcDbCircle
 10
11096.6746201339
 20
9151.8444667778
 30
0.0
 40
16.01665163549896
100
AcDbArc
 50
261.4499692779
 51
270.0000310769
  0
ARC
  5
248
330
1F
100
AcDbEntity
  8
0
  6
Continuous
 62
     7
370
    25
100
AcDbCircle
 10
11096.6746499567
 20
9159.2618066288
 30
0.0
 40
23.43399148651268
100
AcDbArc
 50
269.9999483239
 51
277.1163171267
  0
ARC
  5
249
330
1F
100
AcDbEntity
  8
0
  6
Continuous
 62
     7
370
    25
100
AcDbCircle
 10
11099.2812959074
 20
9138.3828922846
 30
0.0
 40
2.392991811990886
100
AcDbArc
 50
277.1162891964
 51
315.1310902354
  0
ARC
  5
24A
330
1F
100
AcDbEntity
  8
0
  6
Continuous
 62
     7
370
    25
100
AcDbCircle
 10
11099.2698172223
 20
9138.3943163062
 30
0.0
 40
2.409186517272012
100
AcDbArc
 50
315.1311282921
 51
352.9675579855
  0
ARC
  5
24B
330
1F
100
AcDbEntity
  8
0
  6
Continuous
 62
     7
370
    25
100
AcDbCircle
 10
11078.0086652716
 20
9141.0170454551
 30
0.0
 40
23.83149476031085
100
AcDbArc
 50
352.9676364654
 51
359.9999752061
  0
ARC
  5
24C
330
1F
100
AcDbEntity
  8
0
  6
Continuous
 62
     7
370
    25
100
AcDbCircle
 10
10981.2688433183
 20
9139.4817823333
 30
0.0
 40
7.236000194057916
100
AcDbArc
 50
32.074014761
 51
70.6347881399
  0
ARC
  5
24D
330
1F
100
AcDbEntity
  8
0
  6
Continuous
 62
     7
370
    25
100
AcDbCircle
 10
10981.4921286789
 20
9140.1170859679
 30
0.0
 40
6.562600565105321
100
AcDbArc
 50
70.6347314202
 51
112.1162481206
  0
ARC
  5
24E
330
1F
100
AcDbEntity
  8
0
  6
Continuous
 62
     7
370
    25
100
AcDbCircle
 10
10981.2809889131
 20
9140.6366176108
 30
0.0
 40
6.0018036957351
100
AcDbArc
 50
112.1161756056
 51
156.0034686666
  0
ARC
  5
24F
330
1F
100
AcDbEntity
  8
0
  6
Continuous
 62
     7
370
    25
100
AcDbCircle
 10
10981.6874398375
 20
9140.4556714587
 30
0.0
 40
6.446712522199786
100
AcDbArc
 50
156.0033710326
 51
197.6088374722
  0
ARC
  5
250
330
1F
100
AcDbEntity
  8
0
  6
Continuous
 62
     7
370
    25
100
AcDbCircle
 10
10979.8943836898
 20
9139.886575098
 30
0.0
 40
4.565510508429775
100
AcDbArc
 50
197.6088250934
 51
236.2985619202
  0
ARC
  5
251
330
1F
100
AcDbEntity
  8
0
  6
Continuous
 62
     7
370
    25
100
AcDbCircle
 10
10980.9732332294
 20
9141.5041498977
 30
0.0
 40
6.509852186704892
100
AcDbArc
 50
236.2985429401
 51
265.9678846896
  0
ARC
  5
252
330
1F
100
AcDbEntity
  8
0
  6
Continuous
 62
     7
370
    25
100
AcDbCircle
 10
10981.0663056708
 20
9142.8244094677
 30
0.0
 40
7.83338828797014
100
AcDbArc
 50
265.967831998
 51
292.579728845
  0
ARC
  5
253
330
1F
100
AcDbEntity
  8
0
  6
Continuous
 62
     7
370
    25
100
AcDbCircle
 10
10981.2270242662
 20
9142.4379136125
 30
0.0
 40
7.414807933674081
100
AcDbArc
 50
292.5797551717
 51
320.3097834391
  0
ARC
  5
254
330
1F
100
AcDbEntity
  8
0
  6
Continuous
 62
     7
370
    25
100
AcDbCircle
 10
10980.6980848844
 20
9142.876879868
 30
0.0
 40
8.102171187639263
100
AcDbArc
 50
320.3098657767
 51
332.5226907226
  0
ARC
  5
255
330
1F
100
AcDbEntity
  8
0
  6
Continuous
 62
     7
370
    25
100
AcDbCircle
 10
10984.7543072407
 20
9140.7673789004
 30
0.0
 40
3.530198513169806
100
AcDbArc
 50
332.5227847139
 51
355.245340412
  0
ARC
  5
256
330
1F
100
AcDbEntity
  8
0
  6
Continuous
 62
     7
370
    25
100
AcDbCircle
 10
10984.9107188537
 20
9140.7543678984
 30
0.0
 40
3.373246677159906
100
AcDbArc
 50
355.2453639589
 51
18.6081582497
  0
ARC
  5
257
330
1F
100
AcDbEntity
  8
0
  6
Continuous
 62
     7
370
    25
100
AcDbCircle
 10
10981.4288400472
 20
9139.5820414311
 30
0.0
 40
7.047185893968519
100
AcDbArc
 50
18.6081030186
 51
32.0740531555
  0
ARC
  5
258
330
1F
100
AcDbEntity
  8
0
  6
Continuous
 62
     7
370
    25
100
AcDbCircle
 10
11043.3743551917
 20
9210.9748697216
 30
0.0
 40
48.89201533218525
100
AcDbArc
 50
65.4010363993
 51
76.9800478049
  0
ARC
  5
259
330
1F
100
AcDbEntity
  8
0
  6
Continuous
 62
     7
370
    25
100
AcDbCircle
 10
11036.4575998501
 20
9181.062529974
 30
0.0
 40
79.59363700979398
100
AcDbArc
 50
76.9800652868
 51
85.0178869819
  0
ARC
  5
25A
330
1F
100
AcDbEntity
  8
0
  6
Continuous
 62
     7
370
    25
100
AcDbCircle
 10
11036.5868599331
 20
9182.5459060057
 30
0.0
 40
78.10463982448813
100
AcDbArc
 50
85.0178490668
 51
93.1119800087
  0
ARC
  5
25B
330
1F
100
AcDbEntity
  8
0
  6
Continuous
 62
     7
370
    25
100
AcDbCircle
 10
11034.6654935484
 20
9217.8862869694
 30
0.0
 40
42.7120675042032
100
AcDbArc
 50
93.1119951867
 51
105.8293609152
  0
ARC
  5
25C
330
1F
100
AcDbEntity
  8
0
  6
Continuous
 62
     7
370
    25
100
AcDbCircle
 10
11040.6398021813
 20
9196.8149105826
 30
0.0
 40
64.6140141408786
100
AcDbArc
 50
105.829400076
 51
127.2452030744
  0
ARC
  5
25D
330
1F
100
AcDbEntity
  8
0
  6
Continuous
 62
     7
370
    25
100
AcDbCircle
 10
11039.4399746757
 20
9198.3931619158
 30
0.0
 40
62.6314745301495
100
AcDbArc
 50
127.2452716522
 51
149.1673704942
  0
ARC
  5
25E
330
1F
100
AcDbEntity
  8
0
  6
Continuous
 62
     7
370
    25
100
AcDbCircle
 10
11037.9790875513
 20
9199.2652412949
 30
0.0
 40
60.93008873381235
100
AcDbArc
 50
149.1674414523
 51
171.4317195428
  0
ARC
  5
25F
330
1F
100
AcDbEntity
  8
0
  6
Continuous
 62
     7
370
    25
100
AcDbCircle
 10
11035.857819593
 20
9199.5848551132
 30
0.0
 40
58.78487761511928
100
AcDbArc
 50
171.4317227405
 51
194.3024591834
  0
ARC
  5
260
330
1F
100
AcDbEntity
  8
0
  6
Continuous
 62
     7
370
    25
100
AcDbCircle
 10
11042.4513760131
 20
9201.265790042
 30
0.0
 40
65.58932678453921
100
AcDbArc
 50
194.3024228529
 51
223.5022076373
  0
ARC
  5
261
330
1F
100
AcDbEntity
  8
0
  6
Continuous
 62
     7
370
    25
100
AcDbCircle
 10
11038.1614927413
 20
9197.1945367078
 30
0.0
 40
59.67508953897276
100
AcDbArc
 50
223.5022132363
 51
254.8441609662
  0
ARC
  5
262
330
1F
100
AcDbEntity
  8
0
  6
Continuous
 62
     7
370
    25
100
AcDbCircle
 10
11038.1255081038
 20
9197.061947108
 30
0.0
 40
59.53770361733315
100
AcDbArc
 50
254.8442265031
 51
286.2295833577
  0
ARC
  5
263
330
1F
100
AcDbEntity
  8
0
  6
Continuous
 62
     7
370
    25
100
AcDbCircle
 10
11036.5357111956
 20
9202.5232294098
 30
0.0
 40
65.22567852790017
100
AcDbArc
 50
286.2296588036
 51
315.5412761162
  0
ARC
  5
264
330
1F
100
AcDbEntity
  8
0
  6
Continuous
 62
     7
370
    25
100
AcDbCircle
 10
11033.4359451491
 20
9205.5648427343
 30
0.0
 40
69.56848420515215
100
AcDbArc
 50
315.5413536114
 51
325.5340467543
  0
ARC
  5
265
330
1F
100
AcDbEntity
  8
0
  6
Continuous
 62
     7
370
    25
100
AcDbCircle
 10
11051.0417002915
 20
9193.4800493954
 30
0.0
 40
48.21421427684833
100
AcDbArc
 50
325.5341352392
 51
338.6871622913
  0
ARC
  5
266
330
1F
100
AcDbEntity
  8
0
  6
Continuous
 62
     7
370
    25
100
AcDbCircle
 10
11048.2795052318
 20
9194.5576739478
 30
0.0
 40
51.17917569709968
100
AcDbArc
 50
338.687186632
 51
351.3976979999
  0
ARC
  5
267
330
1F
100
AcDbEntity
  8
0
  6
Continuous
 62
     7
370
    25
100
AcDbCircle
 10
11012.7787490671
 20
9199.9281766674
 30
0.0
 40
87.0838548868656
100
AcDbArc
 50
351.3976595051
 51
359.9342183385
  0
ARC
  5
268
330
1F
100
AcDbEntity
  8
0
  6
Continuous
 62
     7
370
    25
100
AcDbCircle
 10
10955.9998847662
 20
9199.9933577262
 30
0.0
 40
143.862756601103
100
AcDbArc
 50
359.9342211892
 51
3.1015593955
  0
ARC
  5
269
330
1F
100
AcDbEntity
  8
0
  6
Continuous
 62
     7
370
    25
100
AcDbCircle
 10
11064.9040784146
 20
9205.8943421565
 30
0.0
 40
34.79880741781393
100
AcDbArc
 50
3.1016063618
 51
12.1937988513
  0
ARC
  5
26A
330
1F
100
AcDbEntity
  8
0
  6
Continuous
 62
     7
370
    25
100
AcDbCircle
 10
11067.5474280757
 20
9206.4655482589
 30
0.0
 40
32.09444541504278
100
AcDbArc
 50
12.1938108326
 51
21.7703794065
  0
ARC
  5
26B
330
1F
100
AcDbEntity
  8
0
  6
Continuous
 62
     7
370
    25
100
AcDbCircle
 10
10995.3472793113
 20
9177.6310023485
 30
0.0
 40
109.8394936139336
100
AcDbArc
 50
21.7702993987
 51
25.6016549861
  0
ARC
  5
26C
330
1F
100
AcDbEntity
  8
0
  6
Continuous
 62
     7
370
    25
100
AcDbCircle
 10
11036.1361076865
 20
9197.1752079553
 30
0.0
 40
64.61002873735852
100
AcDbArc
 50
25.6016351072
 51
35.419101704
  0
ARC
  5
26D
330
1F
100
AcDbEntity
  8
0
  6
Continuous
 62
     7
370
    25
100
AcDbCircle
 10
11036.7271736971
 20
9197.5956566035
 30
0.0
 40
63.88467634885497
100
AcDbArc
 50
35.4190262377
 51
45.3199899589
  0
ARC
  5
26E
330
1F
100
AcDbEntity
  8
0
  6
Continuous
 62
     7
370
    25
100
AcDbCircle
 10
11037.1597413353
 20
9198.033223191
 30
0.0
 40
63.26938839165285
100
AcDbArc
 50
45.3199007571
 51
55.2702752357
  0
ARC
  5
26F
330
1F
100
AcDbEntity
  8
0
  6
Continuous
 62
     7
370
    25
100
AcDbCircle
 10
11038.0132585813
 20
9199.2646884705
 30
0.0
 40
61.77105651549574
100
AcDbArc
 50
55.2701721136
 51
65.4010252157
  0
ARC
  5
270
330
1F
100
AcDbEntity
  8
0
  6
Continuous
 62
     7
370
    25
100
AcDbCircle
 10
11096.8500478219
 20
9257.082809841
 30
0.0
 40
5.642201475473809
100
AcDbArc
 50
8.0343186592
 51
53.0410719032
  0
ARC
  5
271
330
1F
100
AcDbEntity
  8
0
  6
Continuous
 62
     7
370
    25
100
AcDbCircle
 10
11097.0481735257
 20
9257.3461097926
 30
0.0
 40
5.312685680741879
100
AcDbArc
 50
53.0411642858
 51
100.1127092303
  0
ARC
  5
272
330
1F
100
AcDbEntity
  8
0
  6
Continuous
 62
     7
370
    25
100
AcDbCircle
 10
11097.261643449
 20
9256.1492489217
 30
0.0
 40
6.528434566188966
100
AcDbArc
 50
100.1127317942
 51
141.420145343
  0
ARC
  5
273
330
1F
100
AcDbEntity
  8
0
  6
Continuous
 62
     7
370
    25
100
AcDbCircle
 10
11097.7500151283
 20
9255.7596576764
 30
0.0
 40
7.15316509643357
100
AcDbArc
 50
141.4200807465
 51
180.000010911
  0
ARC
  5
274
330
1F
100
AcDbEntity
  8
0
  6
Continuous
 62
     7
370
    25
100
AcDbCircle
 10
11094.245296777
 20
9255.7596525572
 30
0.0
 40
3.648446745153821
100
AcDbArc
 50
179.9999409983
 51
200.7960474672
  0
ARC
  5
275
330
1F
100
AcDbEntity
  8
0
  6
Continuous
 62
     7
370
    25
100
AcDbCircle
 10
11097.0978062622
 20
9256.842990895
 30
0.0
 40
6.69974684792154
100
AcDbArc
 50
200.7960218884
 51
213.9910793234
  0
ARC
  5
276
330
1F
100
AcDbEntity
  8
0
  6
Continuous
 62
     7
370
    25
100
AcDbCircle
 10
11097.5815686607
 20
9257.1691702911
 30
0.0
 40
7.283201264761796
100
AcDbArc
 50
213.9909952705
 51
226.6900825664
  0
ARC
  5
277
330
1F
100
AcDbEntity
  8
0
  6
Continuous
 62
     7
370
    25
100
AcDbCircle
 10
11096.5320629326
 20
9256.0558358206
 30
0.0
 40
5.753176455729192
100
AcDbArc
 50
226.689999212
 51
241.8450645092
  0
ARC
  5
278
330
1F
100
AcDbEntity
  8
0
  6
Continuous
 62
     7
370
    25
100
AcDbCircle
 10
11096.6660279272
 20
9256.3061369472
 30
0.0
 40
6.037073045465519
100
AcDbArc
 50
241.8449969848
 51
274.0122265586
  0
ARC
  5
279
330
1F
100
AcDbEntity
  8
0
  6
Continuous
 62
     7
370
    25
100
AcDbCircle
 10
11096.7054735872
 20
9255.7438583174
 30
0.0
 40
5.473412493744117
100
AcDbArc
 50
274.0121562527
 51
308.6290627379
  0
ARC
  5
27A
330
1F
100
AcDbEntity
  8
0
  6
Continuous
 62
     7
370
    25
100
AcDbCircle
 10
11096.2990748498
 20
9256.2524159426
 30
0.0
 40
6.124404653446481
100
AcDbArc
 50
308.6290627148
 51
340.9605297149
  0
ARC
  5
27B
330
1F
100
AcDbEntity
  8
0
  6
Continuous
 62
     7
370
    25
100
AcDbCircle
 10
11094.7512452017
 20
9256.7865644364
 30
0.0
 40
7.761808462164667
100
AcDbArc
 50
340.9605644394
 51
8.0342884465
  0
ARC
  5
27C
330
1F
100
AcDbEntity
  8
0
  6
Continuous
 62
     7
370
    25
100
AcDbCircle
 10
10980.6495970154
 20
9256.0637296611
 30
0.0
 40
7.057055996027769
100
AcDbArc
 50
28.1549592241
 51
54.3826255935
  0
ARC
  5
27D
330
1F
100
AcDbEntity
  8
0
  6
Continuous
 62
     7
370
    25
100
AcDbCircle
 10
10981.4884623934
 20
9257.234687678
 30
0.0
 40
5.616626268467801
100
AcDbArc
 50
54.3826635597
 51
85.5025821323
  0
ARC
  5
27E
330
1F
100
AcDbEntity
  8
0
  6
Continuous
 62
     7
370
    25
100
AcDbCircle
 10
10981.4703146664
 20
9257.0040142186
 30
0.0
 40
5.848012492966013
100
AcDbArc
 50
85.5025450938
 51
115.876089562
  0
ARC
  5
27F
330
1F
100
AcDbEntity
  8
0
  6
Continuous
 62
     7
370
    25
100
AcDbCircle
 10
10982.330555739
 20
9255.2305354785
 30
0.0
 40
7.819114099817832
100
AcDbArc
 50
115.8760927512
 51
140.3098163088
  0
ARC
  5
280
330
1F
100
AcDbEntity
  8
0
  6
Continuous
 62
     7
370
    25
100
AcDbCircle
 10
10982.5483750402
 20
9255.0497705161
 30
0.0
 40
8.102171019125057
100
AcDbArc
 50
140.3098656886
 51
152.5226908928
  0
ARC
  5
281
330
1F
100
AcDbEntity
  8
0
  6
Continuous
 62
     7
370
    25
100
AcDbCircle
 10
10978.4921528251
 20
9257.1592713842
 30
0.0
 40
3.530198515832462
100
AcDbArc
 50
152.5227847299
 51
175.2453403953
  0
ARC
  5
282
330
1F
100
AcDbEntity
  8
0
  6
Continuous
 62
     7
370
    25
100
AcDbCircle
 10
10978.335741242
 20
9257.1722823875
 30
0.0
 40
3.373246709477018
100
AcDbArc
 50
175.2453640053
 51
198.6081580687
  0
ARC
  5
283
330
1F
100
AcDbEntity
  8
0
  6
Continuous
 62
     7
370
    25
100
AcDbCircle
 10
10981.817619983
 20
9258.3446088414
 30
0.0
 40
7.047185859950173
100
AcDbArc
 50
198.6081029989
 51
212.0740532112
  0
ARC
  5
284
330
1F
100
AcDbEntity
  8
0
  6
Continuous
 62
     7
370
    25
100
AcDbCircle
 10
10982.2074665714
 20
9258.5889029257
 30
0.0
 40
7.507251031506375
100
AcDbArc
 50
212.0739867697
 51
250.5394137475
  0
ARC
  5
285
330
1F
100
AcDbEntity
  8
0
  6
Continuous
 62
     7
370
    25
100
AcDbCircle
 10
10981.8644090959
 20
9257.6180098023
 30
0.0
 40
6.477531706325187
100
AcDbArc
 50
250.5393940189
 51
293.4876437869
  0
ARC
  5
286
330
1F
100
AcDbEntity
  8
0
  6
Continuous
 62
     7
370
    25
100
AcDbCircle
 10
10982.3975251157
 20
9256.3912076085
 30
0.0
 40
5.139900847930764
100
AcDbArc
 50
293.4876253589
 51
343.2477889166
  0
ARC
  5
287
330
1F
100
AcDbEntity
  8
0
  6
Continuous
 62
     7
370
    25
100
AcDbCircle
 10
10981.6704277747
 20
9256.6100656106
 30
0.0
 40
5.899222498103155
100
AcDbArc
 50
343.247826679
 51
28.1549243909
  0
ARC
  5
288
330
1F
100
AcDbEntity
  8
0
  6
Continuous
 62
     7
370
    25
100
AcDbCircle
 10
11038.444199022
 20
9315.6087083923
 30
0.0
 40
7.78838847006102
100
AcDbArc
 50
105.2310874214
 51
114.2846087003
  0
ARC
  5
289
330
1F
100
AcDbEntity
  8
0
  6
Continuous
 62
     7
370
    25
100
AcDbCircle
 10
11039.0861936459
 20
9313.2508367438
 30
0.0
 40
10.23209790614139
100
AcDbArc
 50
96.882209864
 51
105.2310934016
  0
ARC
  5
28A
330
1F
100
AcDbEntity
  8
0
  6
Continuous
 62
     7
370
    25
100
AcDbCircle
 10
11039.4465516097
 20
9310.2654811958
 30
0.0
 40
13.23912394681715
100
AcDbArc
 50
89.9999798138
 51
96.8823418905
  0
ARC
  5
28B
330
1F
100
AcDbEntity
  8
0
  6
Continuous
 62
     7
370
    25
100
AcDbCircle
 10
11039.446557596
 20
9318.0338736169
 30
0.0
 40
5.470731525649335
100
AcDbArc
 50
66.2485354851
 51
90.0000138446
  0
ARC
  5
28C
330
1F
100
AcDbEntity
  8
0
  6
Continuous
 62
     7
370
    25
100
AcDbCircle
 10
11040.3762533588
 20
9320.1466375083
 30
0.0
 40
3.162462591614234
100
AcDbArc
 50
30.458483841
 51
66.2484184349
  0
ARC
  5
28D
330
1F
100
AcDbEntity
  8
0
  6
Continuous
 62
     7
370
    25
100
AcDbCircle
 10
11034.5948792573
 20
9316.7467774265
 30
0.0
 40
9.869424279146745
100
AcDbArc
 50
13.5843198079
 51
30.458537612
  0
ARC
  5
28E
330
1F
100
AcDbEntity
  8
0
  6
Continuous
 62
     7
370
    25
100
AcDbCircle
 10
10910.0276794361
 20
9286.6468157701
 30
0.0
 40
138.0216578257894
100
AcDbArc
 50
11.1301189202
 51
13.5843471256
  0
ARC
  5
28F
330
1F
100
AcDbEntity
  8
0
  6
Continuous
 62
     7
370
    25
100
AcDbCircle
 10
11109.8481079934
 20
9325.9590598489
 30
0.0
 40
65.62916147850535
100
AcDbArc
 50
191.1300672895
 51
196.7040765275
  0
ARC
  5
290
330
1F
100
AcDbEntity
  8
0
  6
Continuous
 62
     7
370
    25
100
AcDbCircle
 10
11057.6271139134
 20
9310.2879446176
 30
0.0
 40
11.10745868699485
100
AcDbArc
 50
196.7039964355
 51
217.4432763333
  0
ARC
  5
291
330
1F
100
AcDbEntity
  8
0
  6
Continuous
 62
     7
370
    25
100
AcDbCircle
 10
11053.3431826237
 20
9307.0074949116
 30
0.0
 40
5.711773598960416
100
AcDbArc
 50
217.4432221134
 51
249.1038253947
  0
ARC
  5
292
330
1F
100
AcDbEntity
  8
0
  6
Continuous
 62
     7
370
    25
100
AcDbCircle
 10
11054.8167557028
 20
9310.8671519951
 30
0.0
 40
9.843162036534055
100
AcDbArc
 50
249.10377852
 51
270.171480646
  0
ARC
  5
293
330
1F
100
AcDbEntity
  8
0
  6
Continuous
 62
     7
370
    25
100
AcDbCircle
 10
11054.8420242617
 20
9302.4247214227
 30
0.0
 40
1.400693649240515
100
AcDbArc
 50
270.1714349457
 51
318.7430989515
  0
ARC
  5
294
330
1F
100
AcDbEntity
  8
0
  6
Continuous
 62
     7
370
    25
100
AcDbCircle
 10
11026.1707841666
 20
9327.5746877955
 30
0.0
 40
39.53939862392616
100
AcDbArc
 50
318.7432582776
 51
323.0759072388
  0
ARC
  5
295
330
1F
100
AcDbEntity
  8
0
  6
Continuous
 62
     7
370
    25
100
AcDbCircle
 10
11024.089447281
 20
9329.1387760187
 30
0.0
 40
42.14292223648464
100
AcDbArc
 50
323.0758993284
 51
328.1416253713
  0
ARC
  5
296
330
1F
100
AcDbEntity
  8
0
  6
Continuous
 62
     7
370
    25
100
AcDbCircle
 10
11001.5787482092
 20
9343.1276159911
 30
0.0
 40
68.64611480768508
100
AcDbArc
 50
328.1417361214
 51
331.6566711476
  0
ARC
  5
297
330
1F
100
AcDbEntity
  8
0
  6
Continuous
 62
     7
370
    25
100
AcDbCircle
 10
11170.8797099711
 20
9251.8033333626
 30
0.0
 40
123.7153684760766
100
AcDbArc
 50
148.3892444818
 51
151.6567159786
  0
ARC
  5
298
330
1F
100
AcDbEntity
  8
0
  6
Continuous
 62
     7
370
    25
100
AcDbCircle
 10
11072.8350649913
 20
9312.1461819761
 30
0.0
 40
8.58929936915295
100
AcDbArc
 50
125.4536538455
 51
148.3892841568
  0
ARC
  5
299
330
1F
100
AcDbEntity
  8
0
  6
Continuous
 62
     7
370
    25
100
AcDbCircle
 10
11069.588545864
 20
9316.7054214136
 30
0.0
 40
2.992286711307748
100
AcDbArc
 50
78.7896119021
 51
125.4535548751
  0
ARC
  5
29A
330
1F
100
AcDbEntity
  8
0
  6
Continuous
 62
     7
370
    25
100
AcDbCircle
 10
11068.4846756399
 20
9311.1357787568
 30
0.0
 40
8.670265999490086
100
AcDbArc
 50
57.6591779054
 51
78.7895999766
  0
ARC
  5
29B
330
1F
100
AcDbEntity
  8
0
  6
Continuous
 62
     7
370
    25
100
AcDbCircle
 10
11071.5919175954
 20
9316.0432127469
 30
0.0
 40
2.861835838227988
100
AcDbArc
 50
22.9783509207
 51
57.6590930128
  0
ARC
  5
29C
330
1F
100
AcDbEntity
  8
0
  6
Continuous
 62
     7
370
    25
100
AcDbCircle
 10
11066.7807136838
 20
9314.0031270822
 30
0.0
 40
8.087697738331073
100
AcDbArc
 50
6.9958425165
 51
22.9783240147
  0
ARC
  5
29D
330
1F
100
AcDbEntity
  8
0
  6
Continuous
 62
     7
370
    25
100
AcDbCircle
 10
11054.7562973245
 20
9312.5276167379
 30
0.0
 40
20.2023054314316
100
AcDbArc
 50
357.5203510189
 51
6.9957955643
  0
ARC
  5
29E
330
1F
100
AcDbEntity
  8
0
  6
Continuous
 62
     7
370
    25
100
AcDbCircle
 10
10965.036282021
 20
9316.4130309861
 30
0.0
 40
110.0064121857063
100
AcDbArc
 50
354.8188229299
 51
357.5203084047
  0
ARC
  5
29F
330
1F
100
AcDbEntity
  8
0
  6
Continuous
 62
     7
370
    25
100
AcDbCircle
 10
11081.6208105848
 20
9307.8005664439
 30
0.0
 40
13.20973559856017
100
AcDbArc
 50
257.6124582576
 51
270.7995209423
  0
ARC
  5
2A0
330
1F
100
AcDbEntity
  8
0
  6
Continuous
 62
     7
370
    25
100
AcDbCircle
 10
11081.7352169212
 20
9299.6023559159
 30
0.0
 40
5.010726837053675
100
AcDbArc
 50
270.7995341641
 51
297.9873812619
  0
ARC
  5
2A1
330
1F
100
AcDbEntity
  8
0
  6
Continuous
 62
     7
370
    25
100
AcDbCircle
 10
11079.6748576085
 20
9303.4794044885
 30
0.0
 40
9.401237756198535
100
AcDbArc
 50
297.9873337422
 51
315.9233950729
  0
ARC
  5
2A2
330
1F
100
AcDbEntity
  8
0
  6
Continuous
 62
     7
370
    25
100
AcDbCircle
 10
11024.4326233131
 20
9356.9693680972
 30
0.0
 40
86.29649545662433
100
AcDbArc
 50
315.9232823843
 51
319.4377591918
  0
ARC
  5
2A3
330
1F
100
AcDbEntity
  8
0
  6
Continuous
 62
     7
370
    25
100
AcDbCircle
 10
11152.0408083675
 20
9247.7416727709
 30
0.0
 40
81.67534241859367
100
AcDbArc
 50
135.1822929463
 51
139.4377343251
  0
ARC
  5
2A4
330
1F
100
AcDbEntity
  8
0
  6
Continuous
 62
     7
370
    25
100
AcDbCircle
 10
11101.0902741421
 20
9298.3690276839
 30
0.0
 40
9.848564658973116
100
AcDbArc
 50
114.9823233116
 51
135.1823061961
  0
ARC
  5
2A5
330
1F
100
AcDbEntity
  8
0
  6
Continuous
 62
     7
370
    25
100
AcDbCircle
 10
11098.7074492319
 20
9303.4831374537
 30
0.0
 40
4.206581559796409
100
AcDbArc
 50
79.9402104461
 51
114.9823609805
  0
ARC
  5
2A6
330
1F
100
AcDbEntity
  8
0
  6
Continuous
 62
     7
370
    25
100
AcDbCircle
 10
11098.1035867298
 20
9300.0793263302
 30
0.0
 40
7.66354266541485
100
AcDbArc
 50
57.56662187
 51
79.9400949216
  0
ARC
  5
2A7
330
1F
100
AcDbEntity
  8
0
  6
Continuous
 62
     7
370
    25
100
AcDbCircle
 10
11101.0835334821
 20
9304.7689333893
 30
0.0
 40
2.107240206498155
100
AcDbArc
 50
357.978865979
 51
57.5665748213
  0
ARC
  5
2A8
330
1F
100
AcDbEntity
  8
0
  6
Continuous
 62
     7
370
    25
100
AcDbCircle
 10
11074.5405956136
 20
9305.705649842
 30
0.0
 40
28.66670157916803
100
AcDbArc
 50
349.1205116368
 51
357.9788380342
  0
ARC
  5
2A9
330
1F
100
AcDbEntity
  8
0
  6
Continuous
 62
     7
370
    25
100
AcDbCircle
 10
11055.9356475512
 20
9309.2815576706
 30
0.0
 40
47.61218149394822
100
AcDbArc
 50
341.7199331317
 51
349.1204329948
  0
ARC
  5
2AA
330
1F
100
AcDbEntity
  8
0
  6
Continuous
 62
     7
370
    25
100
AcDbCircle
 10
10984.3308006856
 20
9332.9350788287
 30
0.0
 40
123.0226791571246
100
AcDbArc
 50
338.0770942636
 51
341.7198823125
  0
ARC
  5
2AB
330
1F
100
AcDbEntity
  8
0
  6
Continuous
 62
     7
370
    25
100
AcDbCircle
 10
11101.1543849076
 20
9285.9180372854
 30
0.0
 40
2.907269726990244
100
AcDbArc
 50
158.0770602734
 51
185.9805208484
  0
ARC
  5
2AC
330
1F
100
AcDbEntity
  8
0
  6
Continuous
 62
     7
370
    25
100
AcDbCircle
 10
11101.7946984826
 20
9285.9851204617
 30
0.0
 40
3.551087734582357
100
AcDbArc
 50
185.9805785442
 51
209.9993395132
  0
ARC
  5
2AD
330
1F
100
AcDbEntity
  8
0
  6
Continuous
 62
     7
370
    25
100
AcDbCircle
 10
11103.7784235131
 20
9287.1303918811
 30
0.0
 40
5.841679714953379
100
AcDbArc
 50
209.9993202253
 51
227.9520096515
  0
ARC
  5
2AE
330
1F
100
AcDbEntity
  8
0
  6
Continuous
 62
     7
370
    25
100
AcDbCircle
 10
11110.0109305441
 20
9294.040659623
 30
0.0
 40
15.14737389414558
100
AcDbArc
 50
227.9520499205
 51
236.7662096423
  0
ARC
  5
2AF
330
1F
100
AcDbEntity
  8
0
  6
Continuous
 62
     7
370
    25
100
AcDbCircle
 10
11111.1564642429
 20
9295.78894687
 30
0.0
 40
17.23753076689669
100
AcDbArc
 50
236.7661722743
 51
247.4475323331
  0
ARC
  5
2B0
330
1F
100
AcDbEntity
  8
0
  6
Continuous
 62
     7
370
    25
100
AcDbCircle
 10
11105.9789436415
 20
9283.3216004961
 30
0.0
 40
3.737847615673496
100
AcDbArc
 50
247.4474756032
 51
280.6445083099
  0
ARC
  5
2B1
330
1F
100
AcDbEntity
  8
0
  6
Continuous
 62
     7
370
    25
100
AcDbCircle
 10
11105.1309221978
 20
9287.83350908
 30
0.0
 40
8.328758139610324
100
AcDbArc
 50
280.6445927948
 51
299.5506788861
  0
ARC
  5
2B2
330
1F
100
AcDbEntity
  8
0
  6
Continuous
 62
     7
370
    25
100
AcDbCircle
 10
11022.0577103064
 20
9434.3626364352
 30
0.0
 40
176.7684912711314
100
AcDbArc
 50
299.550633966
 51
301.6042888891
  0
ARC
  5
2B3
330
1F
100
AcDbEntity
  8
0
  6
Continuous
 62
     7
370
    25
100
AcDbCircle
 10
11170.4127636862
 20
9193.255207257
 30
0.0
 40
106.3251580187678
100
AcDbArc
 50
118.6678772406
 51
121.6042398645
  0
ARC
  5
2B4
330
1F
100
AcDbEntity
  8
0
  6
Continuous
 62
     7
370
    25
100
AcDbCircle
 10
11126.0657578166
 20
9274.3645556437
 30
0.0
 40
13.88391546270784
100
AcDbArc
 50
105.5010698651
 51
118.6678025458
  0
ARC
  5
2B5
330
1F
100
AcDbEntity
  8
0
  6
Continuous
 62
     7
370
    25
100
AcDbCircle
 10
11123.9172117211
 20
9282.111401296
 30
0.0
 40
5.844645104930251
100
AcDbArc
 50
82.835705036
 51
105.5010710292
  0
ARC
  5
2B6
330
1F
100
AcDbEntity
  8
0
  6
Continuous
 62
     7
370
    25
100
AcDbCircle
 10
11123.8386344876
 20
9281.4862577806
 30
0.0
 40
6.474707638697977
100
AcDbArc
 50
61.8450525453
 51
82.8357138264
  0
ARC
  5
2B7
330
1F
100
AcDbEntity
  8
0
  6
Continuous
 62
     7
370
    25
100
AcDbCircle
 10
11123.3939655561
 20
9280.6554015861
 30
0.0
 40
7.417073000160951
100
AcDbArc
 50
41.8594741868
 51
61.8449943746
  0
ARC
  5
2B8
330
1F
100
AcDbEntity
  8
0
  6
Continuous
 62
     7
370
    25
100
AcDbCircle
 10
11127.6019186425
 20
9284.4256184493
 30
0.0
 40
1.767169959134545
100
AcDbArc
 50
344.0167394921
 51
41.8593410511
  0
ARC
  5
2B9
330
1F
100
AcDbEntity
  8
0
  6
Continuous
 62
     7
370
    25
100
AcDbCircle
 10
11120.0181957887
 20
9286.5978062612
 30
0.0
 40
9.655848696018259
100
AcDbArc
 50
326.8200850773
 51
344.0168084684
  0
ARC
  5
2BA
330
1F
100
AcDbEntity
  8
0
  6
Continuous
 62
     7
370
    25
100
AcDbCircle
 10
10655.1167227173
 20
9590.5882985846
 30
0.0
 40
565.1228585957546
100
AcDbArc
 50
325.8914233514
 51
326.8200682708
  0
ARC
  5
2BB
330
1F
100
AcDbEntity
  8
0
  6
Continuous
 62
     7
370
    25
100
AcDbCircle
 10
11226.9024134867
 20
9203.3353707098
 30
0.0
 40
125.4592917066016
100
AcDbArc
 50
145.8913957233
 51
148.4008505849
  0
ARC
  5
2BC
330
1F
100
AcDbEntity
  8
0
  6
Continuous
 62
     7
370
    25
100
AcDbCircle
 10
11126.1378102768
 20
9265.324099395
 30
0.0
 40
7.154144971377505
100
AcDbArc
 50
148.4008043886
 51
168.6230730958
  0
ARC
  5
2BD
330
1F
100
AcDbEntity
  8
0
  6
Continuous
 62
     7
370
    25
100
AcDbCircle
 10
11122.506841671
 20
9266.0547082032
 30
0.0
 40
3.450400616399977
100
AcDbArc
 50
168.6230508495
 51
202.2135962504
  0
ARC
  5
2BE
330
1F
100
AcDbEntity
  8
0
  6
Continuous
 62
     7
370
    25
100
AcDbCircle
 10
11133.655594217
 20
9270.6075043047
 30
0.0
 40
15.49293505371208
100
AcDbArc
 50
202.2135550879
 51
213.233803681
  0
ARC
  5
2BF
330
1F
100
AcDbEntity
  8
0
  6
Continuous
 62
     7
370
    25
100
AcDbCircle
 10
11192.3952790557
 20
9088.6566816957
 30
0.0
 40
182.4982220604089
100
AcDbArc
 50
106.7572735973
 51
108.6601372982
  0
ARC
  5
2C0
330
1F
100
AcDbEntity
  8
0
  6
Continuous
 62
     7
370
    25
100
AcDbCircle
 10
11144.5093273749
 20
9247.6911322142
 30
0.0
 40
16.4108329542633
100
AcDbArc
 50
95.6282013722
 51
106.7572866143
  0
ARC
  5
2C1
330
1F
100
AcDbEntity
  8
0
  6
Continuous
 62
     7
370
    25
100
AcDbCircle
 10
11143.3352063812
 20
9259.6053458492
 30
0.0
 40
4.438905513513145
100
AcDbArc
 50
70.5042731427
 51
95.6281858169
  0
ARC
  5
2C2
330
1F
100
AcDbEntity
  8
0
  6
Continuous
 62
     7
370
    25
100
AcDbCircle
 10
11143.9693195907
 20
9261.3964559155
 30
0.0
 40
2.538859505624361
100
AcDbArc
 50
32.3492219039
 51
70.5042348173
  0
ARC
  5
2C3
330
1F
100
AcDbEntity
  8
0
  6
Continuous
 62
     7
370
    25
100
AcDbCircle
 10
11138.5937438689
 20
9257.9916852149
 30
0.0
 40
8.901978070062018
100
AcDbArc
 50
11.8279830693
 51
32.3492524976
  0
ARC
  5
2C4
330
1F
100
AcDbEntity
  8
0
  6
Continuous
 62
     7
370
    25
100
AcDbCircle
 10
11143.4541085737
 20
9259.0095468367
 30
0.0
 40
3.936176287344873
100
AcDbArc
 50
334.0794056042
 51
11.8279703456
  0
ARC
  5
2C5
330
1F
100
AcDbEntity
  8
0
  6
Continuous
 62
     7
370
    25
100
AcDbCircle
 10
11138.3804436403
 20
9261.4754572031
 30
0.0
 40
9.57734547393122
100
AcDbArc
 50
313.0866075909
 51
334.0793142289
  0
ARC
  5
2C6
330
1F
100
AcDbEntity
  8
0
  6
Continuous
 62
     7
370
    25
100
AcDbCircle
 10
11076.6411919252
 20
9327.4823965283
 30
0.0
 40
99.95793653981329
100
AcDbArc
 50
309.332000304
 51
313.086600583
  0
ARC
  5
2C7
330
1F
100
AcDbEntity
  8
0
  6
Continuous
 62
     7
370
    25
100
AcDbCircle
 10
11228.6122124599
 20
9142.0217067332
 30
0.0
 40
139.8145776097733
100
AcDbArc
 50
129.332048399
 51
131.8424198335
  0
ARC
  5
2C8
330
1F
100
AcDbEntity
  8
0
  6
Continuous
 62
     7
370
    25
100
AcDbCircle
 10
11140.2353752453
 20
9240.7186593107
 30
0.0
 40
7.332300288901973
100
AcDbArc
 50
131.8424031858
 51
153.2906936151
  0
ARC
  5
2C9
330
1F
100
AcDbEntity
  8
0
  6
Continuous
 62
     7
370
    25
100
AcDbCircle
 10
11136.8912524273
 20
9242.4012560754
 30
0.0
 40
3.588733901781632
100
AcDbArc
 50
153.2906590554
 51
188.7045591896
  0
ARC
  5
2CA
330
1F
100
AcDbEntity
  8
0
  6
Continuous
 62
     7
370
    25
100
AcDbCircle
 10
11151.6191480728
 20
9244.6561229952
 30
0.0
 40
18.48824177854098
100
AcDbArc
 50
188.7045064852
 51
199.2186917042
  0
ARC
  5
2CB
330
1F
100
AcDbEntity
  8
0
  6
Continuous
 62
     7
370
    25
100
AcDbCircle
 10
11159.6606562435
 20
9120.0317246392
 30
0.0
 40
115.2093654352387
100
AcDbArc
 50
94.031052886
 51
96.6202535873
  0
ARC
  5
2CC
330
1F
100
AcDbEntity
  8
0
  6
Continuous
 62
     7
370
    25
100
AcDbCircle
 10
11152.9427008781
 20
9215.3605863193
 30
0.0
 40
19.64408516295248
100
AcDbArc
 50
84.4485606873
 51
94.0310775998
  0
ARC
  5
2CD
330
1F
100
AcDbEntity
  8
0
  6
Continuous
 62
     7
370
    25
100
AcDbCircle
 10
11154.1132864029
 20
9227.4042763083
 30
0.0
 40
7.543641409891002
100
AcDbArc
 50
67.808201366
 51
84.4485322138
  0
ARC
  5
2CE
330
1F
100
AcDbEntity
  8
0
  6
Continuous
 62
     7
370
    25
100
AcDbCircle
 10
11155.9290388318
 20
9231.8554579337
 30
0.0
 40
2.73635789985039
100
AcDbArc
 50
32.3569753084
 51
67.8082414479
  0
ARC
  5
2CF
330
1F
100
AcDbEntity
  8
0
  6
Continuous
 62
     7
370
    25
100
AcDbCircle
 10
11151.002335135
 20
9228.7340410042
 30
0.0
 40
8.568651870848115
100
AcDbArc
 50
9.6987733484
 51
32.3571038897
  0
ARC
  5
2D0
330
1F
100
AcDbEntity
  8
0
  6
Continuous
 62
     7
370
    25
100
AcDbCircle
 10
11156.050989187
 20
9229.5969112744
 30
0.0
 40
3.446791579879242
100
AcDbArc
 50
325.0124460812
 51
9.6987852462
  0
ARC
  5
2D1
330
1F
100
AcDbEntity
  8
0
  6
Continuous
 62
     7
370
    25
100
AcDbCircle
 10
11151.7884088178
 20
9232.5802113421
 30
0.0
 40
8.64964374941036
100
AcDbArc
 50
300.6705550155
 51
325.0125064831
  0
ARC
  5
2D2
330
1F
100
AcDbEntity
  8
0
  6
Continuous
 62
     7
370
    25
100
AcDbCircle
 10
11112.8568273901
 20
9298.2253665865
 30
0.0
 40
84.97103288460691
100
AcDbArc
 50
296.1255074051
 51
300.6705294547
  0
ARC
  5
2D3
330
1F
100
AcDbEntity
  8
0
  6
Continuous
 62
     7
370
    25
100
AcDbCircle
 10
11196.8171391999
 20
9127.0337888101
 30
0.0
 40
105.7011734297986
100
AcDbArc
 50
116.1254584291
 51
119.2634667544
  0
ARC
  5
2D4
330
1F
100
AcDbEntity
  8
0
  6
Continuous
 62
     7
370
    25
100
AcDbCircle
 10
11151.270366904
 20
9208.3185998217
 30
0.0
 40
12.52537738935234
100
AcDbArc
 50
119.2635045975
 51
134.3462346478
  0
ARC
  5
2D5
330
1F
100
AcDbEntity
  8
0
  6
Continuous
 62
     7
370
    25
100
AcDbCircle
 10
11146.2710357267
 20
9213.4333477028
 30
0.0
 40
5.373177860036835
100
AcDbArc
 50
134.3462831497
 51
160.2667299582
  0
ARC
  5
2D6
330
1F
100
AcDbEntity
  8
0
  6
Continuous
 62
     7
370
    25
100
AcDbCircle
 10
11148.4917324765
 20
9212.6367669117
 30
0.0
 40
7.732422444915232
100
AcDbArc
 50
160.2667221041
 51
179.999981894
  0
ARC
  5
2D7
330
1F
100
AcDbEntity
  8
0
  6
Continuous
 62
     7
370
    25
100
AcDbCircle
 10
11149.3747782519
 20
9212.6367618476
 30
0.0
 40
8.615468220301041
100
AcDbArc
 50
179.9999500719
 51
198.146239388
  0
ARC
  5
2D8
330
1F
100
AcDbEntity
  8
0
  6
Continuous
 62
     7
370
    25
100
AcDbCircle
 10
11143.928823279
 20
9210.8518805189
 30
0.0
 40
2.884479917704961
100
AcDbArc
 50
198.1461826054
 51
239.1489660972
  0
ARC
  5
2D9
330
1F
100
AcDbEntity
  8
0
  6
Continuous
 62
     7
370
    25
100
AcDbCircle
 10
11147.2124912508
 20
9216.34910845
 30
0.0
 40
9.287759567674593
100
AcDbArc
 50
239.1488470254
 51
257.4556905793
  0
ARC
  5
2DA
330
1F
100
AcDbEntity
  8
0
  6
Continuous
 62
     7
370
    25
100
AcDbCircle
 10
11192.3613467243
 20
9419.2587888293
 30
0.0
 40
217.1597334896153
100
AcDbArc
 50
257.4556384322
 51
259.3147311286
  0
ARC
  5
2DB
330
1F
100
AcDbEntity
  8
0
  6
Continuous
 62
     7
370
    25
100
AcDbCircle
 10
11107.0047372465
 20
8966.8844204268
 30
0.0
 40
243.1969977190383
100
AcDbArc
 50
77.6309437221
 51
79.3147217823
  0
ARC
  5
2DC
330
1F
100
AcDbEntity
  8
0
  6
Continuous
 62
     7
370
    25
100
AcDbCircle
 10
11157.2814896337
 20
9196.1465077606
 30
0.0
 40
8.486843445181611
100
AcDbArc
 50
58.5404977218
 51
77.6309493827
  0
ARC
  5
2DD
330
1F
100
AcDbEntity
  8
0
  6
Continuous
 62
     7
370
    25
100
AcDbCircle
 10
11160.4791157484
 20
9201.3728463739
 30
0.0
 40
2.359900645595415
100
AcDbArc
 50
11.9785732444
 51
58.5405139521
  0
ARC
  5
2DE
330
1F
100
AcDbEntity
  8
0
  6
Continuous
 62
     7
370
    25
100
AcDbCircle
 10
11154.9103378741
 20
9200.1913424503
 30
0.0
 40
8.052636238853935
100
AcDbArc
 50
353.2873844302
 51
11.9785739714
  0
ARC
  5
2DF
330
1F
100
AcDbEntity
  8
0
  6
Continuous
 62
     7
370
    25
100
AcDbCircle
 10
11153.6713840466
 20
9200.3371739987
 30
0.0
 40
9.300143123384963
100
AcDbArc
 50
338.2504520461
 51
353.2873149539
  0
ARC
  5
2E0
330
1F
100
AcDbEntity
  8
0
  6
Continuous
 62
     7
370
    25
100
AcDbCircle
 10
11158.9113659636
 20
9198.24668376
 30
0.0
 40
3.658551155867845
100
AcDbArc
 50
308.0755018647
 51
338.2504135609
  0
ARC
  5
2E1
330
1F
100
AcDbEntity
  8
0
  6
Continuous
 62
     7
370
    25
100
AcDbCircle
 10
11157.3995171654
 20
9200.1764968934
 30
0.0
 40
6.110053862073966
100
AcDbArc
 50
286.4576219062
 51
308.0756052795
  0
ARC
  5
2E2
330
1F
100
AcDbEntity
  8
0
  6
Continuous
 62
     7
370
    25
100
AcDbCircle
 10
11147.6755584437
 20
9233.09348826
 30
0.0
 40
40.43327768870296
100
AcDbArc
 50
281.1032454748
 51
286.4575930083
  0
ARC
  5
2E3
330
1F
100
AcDbEntity
  8
0
  6
Continuous
 62
     7
370
    25
100
AcDbCircle
 10
11256.9774839763
 20
8676.145478809
 30
0.0
 40
527.1387407869826
100
AcDbArc
 50
101.1032782974
 51
102.1730973316
  0
ARC
  5
2E4
330
1F
100
AcDbEntity
  8
0
  6
Continuous
 62
     7
370
    25
100
AcDbCircle
 10
11148.3542262564
 20
9179.6925564775
 30
0.0
 40
12.00897893454379
100
AcDbArc
 50
102.1731498937
 51
118.4436588537
  0
ARC
  5
2E5
330
1F
100
AcDbEntity
  8
0
  6
Continuous
 62
     7
370
    25
100
AcDbCircle
 10
11144.0331772226
 20
9187.669639282
 30
0.0
 40
2.936751268647308
100
AcDbArc
 50
118.4436985861
 51
162.7065907302
  0
ARC
  5
2E6
330
1F
100
AcDbEntity
  8
0
  6
Continuous
 62
     7
370
    25
100
AcDbCircle
 10
11151.1535947199
 20
9185.452781287
 30
0.0
 40
10.39428468833833
100
AcDbArc
 50
162.7066254866
 51
179.9999733994
  0
ARC
  5
2E7
330
1F
100
AcDbEntity
  8
0
  6
Continuous
 62
     7
370
    25
100
AcDbCircle
 10
11149.3878796212
 20
9185.4527845139
 30
0.0
 40
8.628569589662368
100
AcDbArc
 50
179.9999893838
 51
198.3683170613
  0
ARC
  5
2E8
330
1F
100
AcDbEntity
  8
0
  6
Continuous
 62
     7
370
    25
100
AcDbCircle
 10
11146.1463797315
 20
9184.3764646171
 30
0.0
 40
5.213048245079911
100
AcDbArc
 50
198.3682456345
 51
225.1562638288
  0
ARC
  5
2E9
330
1F
100
AcDbEntity
  8
0
  6
Continuous
 62
     7
370
    25
100
AcDbCircle
 10
11150.9220380244
 20
9189.1782492567
 30
0.0
 40
11.98534828692422
100
AcDbArc
 50
225.1562825776
 51
240.794113938
  0
ARC
  5
2EA
330
1F
100
AcDbEntity
  8
0
  6
Continuous
 62
     7
370
    25
100
AcDbCircle
 10
11198.3562278909
 20
9274.0310739448
 30
0.0
 40
109.1964804983897
100
AcDbArc
 50
240.7940641908
 51
243.8745581435
  0
ARC
  5
2EB
330
1F
100
AcDbEntity
  8
0
  6
Continuous
 62
     7
370
    25
100
AcDbCircle
 10
11112.7422559831
 20
9099.4673719617
 30
0.0
 40
85.23149649029172
100
AcDbArc
 50
59.3318519741
 51
63.8745830831
  0
ARC
  5
2EC
330
1F
100
AcDbEntity
  8
0
  6
Continuous
 62
     7
370
    25
100
AcDbCircle
 10
11151.8499241221
 20
9165.4156681294
 30
0.0
 40
8.559549373344062
100
AcDbArc
 50
34.7674308732
 51
59.3318876903
  0
ARC
  5
2ED
330
1F
100
AcDbEntity
  8
0
  6
Continuous
 62
     7
370
    25
100
AcDbCircle
 10
11156.0543070387
 20
9168.3342427353
 30
0.0
 40
3.441452711503786
100
AcDbArc
 50
349.8910465301
 51
34.7674945019
  0
ARC
  5
2EE
330
1F
100
AcDbEntity
  8
0
  6
Continuous
 62
     7
370
    25
100
AcDbCircle
 10
11150.7527422913
 20
9169.279451999
 30
0.0
 40
8.82661838425784
100
AcDbArc
 50
327.6560426268
 51
349.8910338955
  0
ARC
  5
2EF
330
1F
100
AcDbEntity
  8
0
  6
Continuous
 62
     7
370
    25
100
AcDbCircle
 10
11155.7911180126
 20
9166.0889073321
 30
0.0
 40
2.862994890118852
100
AcDbArc
 50
293.2587307969
 51
327.6560913274
  0
ARC
  5
2F0
330
1F
100
AcDbEntity
  8
0
  6
Continuous
 62
     7
370
    25
100
AcDbCircle
 10
11154.065783174
 20
9170.1030258461
 30
0.0
 40
7.23219707694765
100
AcDbArc
 50
276.0351799985
 51
293.2587947935
  0
ARC
  5
2F1
330
1F
100
AcDbEntity
  8
0
  6
Continuous
 62
     7
370
    25
100
AcDbCircle
 10
11152.8410219818
 20
9181.6872198517
 30
0.0
 40
18.88095626999895
100
AcDbArc
 50
266.175915145
 51
276.035244962
  0
ARC
  5
2F2
330
1F
100
AcDbEntity
  8
0
  6
Continuous
 62
     7
370
    25
100
AcDbCircle
 10
11159.0968188768
 20
9275.276659196
 30
0.0
 40
112.679240644326
100
AcDbArc
 50
263.5451984849
 51
266.1758759417
  0
ARC
  5
2F3
330
1F
100
AcDbEntity
  8
0
  6
Continuous
 62
     7
370
    25
100
AcDbCircle
 10
11124.7363252588
 20
8971.5687073692
 30
0.0
 40
192.9662460301904
100
AcDbArc
 50
83.5451939085
 51
85.4746409799
  0
ARC
  5
2F4
330
1F
100
AcDbEntity
  8
0
  6
Continuous
 62
     7
370
    25
100
AcDbCircle
 10
11139.3525257434
 20
9156.2400873462
 30
0.0
 40
7.717354267738066
100
AcDbArc
 50
85.4746653085
 51
105.3803499094
  0
ARC
  5
2F5
330
1F
100
AcDbEntity
  8
0
  6
Continuous
 62
     7
370
    25
100
AcDbCircle
 10
11138.1235439252
 20
9160.7078841574
 30
0.0
 40
3.083607980425472
100
AcDbArc
 50
105.3804589438
 51
143.4246868016
  0
ARC
  5
2F6
330
1F
100
AcDbEntity
  8
0
  6
Continuous
 62
     7
370
    25
100
AcDbCircle
 10
11147.2803524075
 20
9153.9135543577
 30
0.0
 40
14.48580333957483
100
AcDbArc
 50
143.4246768313
 51
155.5044916088
  0
ARC
  5
2F7
330
1F
100
AcDbEntity
  8
0
  6
Continuous
 62
     7
370
    25
100
AcDbCircle
 10
11145.2002200321
 20
9154.8613513194
 30
0.0
 40
12.19991843884664
100
AcDbArc
 50
155.5045896986
 51
169.4912049381
  0
ARC
  5
2F8
330
1F
100
AcDbEntity
  8
0
  6
Continuous
 62
     7
370
    25
100
AcDbCircle
 10
11136.4232763254
 20
9156.4894527867
 30
0.0
 40
3.273247434643983
100
AcDbArc
 50
169.4911618809
 51
206.6922153651
  0
ARC
  5
2F9
330
1F
100
AcDbEntity
  8
0
  6
Continuous
 62
     7
370
    25
100
AcDbCircle
 10
11140.8239566008
 20
9158.702007325
 30
0.0
 40
8.198832117806603
100
AcDbArc
 50
206.6921656923
 51
226.3887993683
  0
ARC
  5
2FA
330
1F
100
AcDbEntity
  8
0
  6
Continuous
 62
     7
370
    25
100
AcDbCircle
 10
11246.4140680042
 20
9269.5392031555
 30
0.0
 40
161.2810179062363
100
AcDbArc
 50
226.388811663
 51
228.6445882515
  0
ARC
  5
2FB
330
1F
100
AcDbEntity
  8
0
  6
Continuous
 62
     7
370
    25
100
AcDbCircle
 10
11073.4008508489
 20
9072.9859123123
 30
0.0
 40
100.5715540722032
100
AcDbArc
 50
44.6909510427
 51
48.6446550676
  0
ARC
  5
2FC
330
1F
100
AcDbEntity
  8
0
  6
Continuous
 62
     7
370
    25
100
AcDbCircle
 10
11137.1560656037
 20
9136.0570202017
 30
0.0
 40
10.89049665855895
100
AcDbArc
 50
24.4266468363
 51
44.6909843655
  0
ARC
  5
2FD
330
1F
100
AcDbEntity
  8
0
  6
Continuous
 62
     7
370
    25
100
AcDbCircle
 10
11143.6979821626
 20
9139.0282331262
 30
0.0
 40
3.705458140527172
100
AcDbArc
 50
343.7108965564
 51
24.4266658374
  0
ARC
  5
2FE
330
1F
100
AcDbEntity
  8
0
  6
Continuous
 62
     7
370
    25
100
AcDbCircle
 10
11141.5801055736
 20
9139.647115943
 30
0.0
 40
5.911907139982526
100
AcDbArc
 50
315.0000027251
 51
343.7108076384
  0
ARC
  5
2FF
330
1F
100
AcDbEntity
  8
0
  6
Continuous
 62
     7
370
    25
100
AcDbCircle
 10
11143.9694581617
 20
9137.2577611526
 30
0.0
 40
2.532850747318428
100
AcDbArc
 50
278.1171165636
 51
315.0000415876
  0
ARC
  5
300
330
1F
100
AcDbEntity
  8
0
  6
Continuous
 62
     7
370
    25
100
AcDbCircle
 10
11143.1261638467
 20
9143.1703829782
 30
0.0
 40
8.505307708618858
100
AcDbArc
 50
263.1468981839
 51
278.1171260553
  0
ARC
  5
301
330
1F
100
AcDbEntity
  8
0
  6
Continuous
 62
     7
370
    25
100
AcDbCircle
 10
11144.5255141107
 20
9154.8137631355
 30
0.0
 40
20.2324762777148
100
AcDbArc
 50
253.9013551376
 51
263.146854645
  0
ARC
  5
302
330
1F
100
AcDbEntity
  8
0
  6
Continuous
 62
     7
370
    25
100
AcDbCircle
 10
11165.8639084598
 20
9228.7487145794
 30
0.0
 40
97.1850858398158
100
AcDbArc
 50
251.0142241195
 51
253.9013202947
  0
ARC
  5
303
330
1F
100
AcDbEntity
  8
0
  6
Continuous
 62
     7
370
    25
100
AcDbCircle
 10
11024.945962278
 20
8824.4848277408
 30
0.0
 40
330.9261624770496
100
AcDbArc
 50
71.3944597342
 51
71.9820839615
  0
ARC
  5
304
330
1F
100
AcDbEntity
  8
0
  6
Continuous
 62
     7
370
    25
100
AcDbCircle
 10
11124.0958652023
 20
9138.8062668713
 30
0.0
 40
1.345898270863888
100
AcDbArc
 50
72.1657727962
 51
90.0000115357
  0
ARC
  5
305
330
1F
100
AcDbEntity
  8
0
  6
Continuous
 62
     7
370
    25
100
AcDbCircle
 10
11124.0958648149
 20
9139.7372653331
 30
0.0
 40
0.4148998090722461
100
AcDbArc
 50
89.9999839324
 51
139.8595771389
  0
ARC
  5
306
330
1F
100
AcDbEntity
  8
0
  6
Continuous
 62
     7
370
    25
100
AcDbCircle
 10
11156.5095707745
 20
9112.4032790022
 30
0.0
 40
42.81531422646682
100
AcDbArc
 50
139.8595728825
 51
141.6918528897
  0
ARC
  5
307
330
1F
100
AcDbEntity
  8
0
  6
Continuous
 62
     7
370
    25
100
AcDbCircle
 10
11147.3161250719
 20
9119.6659481092
 30
0.0
 40
31.09926512949704
100
AcDbArc
 50
141.6918533963
 51
144.7480583741
  0
ARC
  5
308
330
1F
100
AcDbEntity
  8
0
  6
Continuous
 62
     7
370
    25
100
AcDbCircle
 10
11166.1229398395
 20
9106.373629451
 30
0.0
 40
54.12928938074767
100
AcDbArc
 50
144.7480407378
 51
146.7661751992
  0
ARC
  5
309
330
1F
100
AcDbEntity
  8
0
  6
Continuous
 62
     7
370
    25
100
AcDbCircle
 10
11131.7807359296
 20
9128.875515256
 30
0.0
 40
13.07174641761499
100
AcDbArc
 50
146.766213172
 51
159.8667007704
  0
ARC
  5
30A
330
1F
100
AcDbEntity
  8
0
  6
Continuous
 62
     7
370
    25
100
AcDbCircle
 10
11123.1314742108
 20
9132.0464049563
 30
0.0
 40
3.859565906401714
100
AcDbArc
 50
159.866815153
 51
192.3528279642
  0
ARC
  5
30B
330
1F
100
AcDbEntity
  8
0
  6
Continuous
 62
     7
370
    25
100
AcDbCircle
 10
11128.6256240414
 20
9133.2496284613
 30
0.0
 40
9.483926240113306
100
AcDbArc
 50
192.3528132068
 51
209.8193404899
  0
ARC
  5
30C
330
1F
100
AcDbEntity
  8
0
  6
Continuous
 62
     7
370
    25
100
AcDbCircle
 10
11276.9745799785
 20
9218.2762010231
 30
0.0
 40
180.4720274905721
100
AcDbArc
 50
209.81928846
 51
211.866526813
  0
ARC
  5
30D
330
1F
100
AcDbEntity
  8
0
  6
Continuous
 62
     7
370
    25
100
AcDbCircle
 10
10957.1030844604
 20
9019.4329347432
 30
0.0
 40
196.1662846735371
100
AcDbArc
 50
30.0138454732
 51
31.8665214227
  0
ARC
  5
30E
330
1F
100
AcDbEntity
  8
0
  6
Continuous
 62
     7
370
    25
100
AcDbCircle
 10
11118.9019183395
 20
9112.8996674718
 30
0.0
 40
9.311012412900471
100
AcDbArc
 50
13.0448394529
 51
30.0138786689
  0
ARC
  5
30F
330
1F
100
AcDbEntity
  8
0
  6
Continuous
 62
     7
370
    25
100
AcDbCircle
 10
11125.2206675283
 20
9114.3636728042
 30
0.0
 40
2.824880828923829
100
AcDbArc
 50
334.7967126667
 51
13.0448869602
  0
ARC
  5
310
330
1F
100
AcDbEntity
  8
0
  6
Continuous
 62
     7
370
    25
100
AcDbCircle
 10
11121.6005543795
 20
9116.0674194518
 30
0.0
 40
6.825877185999783
100
AcDbArc
 50
315.0000079643
 51
334.7967354221
  0
ARC
  5
311
330
1F
100
AcDbEntity
  8
0
  6
Continuous
 62
     7
370
    25
100
AcDbCircle
 10
11121.6260997578
 20
9116.0418798898
 30
0.0
 40
6.789754678335174
100
AcDbArc
 50
295.0929238734
 51
314.9999733009
  0
ARC
  5
312
330
1F
100
AcDbEntity
  8
0
  6
Continuous
 62
     7
370
    25
100
AcDbCircle
 10
11123.3035520201
 20
9112.459762485
 30
0.0
 40
2.834326611192524
100
AcDbArc
 50
256.8771908147
 51
295.0928268949
  0
ARC
  5
313
330
1F
100
AcDbEntity
  8
0
  6
Continuous
 62
     7
370
    25
100
AcDbCircle
 10
11124.7916314639
 20
9118.8429173913
 30
0.0
 40
9.388641753861041
100
AcDbArc
 50
239.9761127235
 51
256.877227626
  0
ARC
  5
314
330
1F
100
AcDbEntity
  8
0
  6
Continuous
 62
     7
370
    25
100
AcDbCircle
 10
11219.2700284766
 20
9282.3269849599
 30
0.0
 40
198.2092122721681
100
AcDbArc
 50
238.1335384806
 51
239.9761310362
  0
ARC
  5
315
330
1F
100
AcDbEntity
  8
0
  6
Continuous
 62
     7
370
    25
100
AcDbCircle
 10
11086.5262535788
 20
9068.7868057679
 30
0.0
 40
53.22729642032974
100
AcDbArc
 50
58.1334631314
 51
68.6648008966
  0
ARC
  5
316
330
1F
100
AcDbEntity
  8
0
  6
Continuous
 62
     7
370
    25
100
AcDbCircle
 10
11104.2108817527
 20
9114.0633227813
 30
0.0
 40
4.619590585601824
100
AcDbArc
 50
68.6648101731
 51
131.6223128199
  0
ARC
  5
317
330
1F
100
AcDbEntity
  8
0
  6
Continuous
 62
     7
370
    25
100
AcDbCircle
 10
11104.7045678218
 20
9113.5077098908
 30
0.0
 40
5.362848023449016
100
AcDbArc
 50
131.622335142
 51
188.4555255796
  0
ARC
  5
318
330
1F
100
AcDbEntity
  8
0
  6
Continuous
 62
     7
370
    25
100
AcDbCircle
 10
11164.9201620868
 20
9122.4591861939
 30
0.0
 40
66.24015677385196
100
AcDbArc
 50
188.4555039757
 51
197.4959820871
  0
ARC
  5
319
330
1F
100
AcDbEntity
  8
0
  6
Continuous
 62
     7
370
    25
100
AcDbCircle
 10
10964.6815600311
 20
9059.3394896849
 30
0.0
 40
143.7112515105947
100
AcDbArc
 50
15.3511751447
 51
17.4960373356
  0
ARC
  5
31A
330
1F
100
AcDbEntity
  8
0
  6
Continuous
 62
     7
370
    25
100
AcDbCircle
 10
11089.6401514137
 20
9093.6442642134
 30
0.0
 40
14.12935803872407
100
AcDbArc
 50
3.5761121975
 51
15.351252719
  0
ARC
  5
31B
330
1F
100
AcDbEntity
  8
0
  6
Continuous
 62
     7
370
    25
100
AcDbCircle
 10
11099.6508461855
 20
9094.269894711
 30
0.0
 40
4.099132551033752
100
AcDbArc
 50
338.1325010267
 51
3.5760976226
  0
ARC
  5
31C
330
1F
100
AcDbEntity
  8
0
  6
Continuous
 62
     7
370
    25
100
AcDbCircle
 10
11101.0415592143
 20
9093.7117475614
 30
0.0
 40
2.600596275481139
100
AcDbArc
 50
302.3660543274
 51
338.1325062296
  0
ARC
  5
31D
330
1F
100
AcDbEntity
  8
0
  6
Continuous
 62
     7
370
    25
100
AcDbCircle
 10
11097.9868050977
 20
9098.5315607069
 30
0.0
 40
8.306919213251337
100
AcDbArc
 50
281.8434895249
 51
302.366123062
  0
ARC
  5
31E
330
1F
100
AcDbEntity
  8
0
  6
Continuous
 62
     7
370
    25
100
AcDbCircle
 10
11098.9666006699
 20
9093.8592506831
 30
0.0
 40
3.532981601393088
100
AcDbArc
 50
242.9894524635
 51
281.8435318016
  0
ARC
  5
31F
330
1F
100
AcDbEntity
  8
0
  6
Continuous
 62
     7
370
    25
100
AcDbCircle
 10
11102.0255577975
 20
9099.8600794178
 30
0.0
 40
10.26849674220955
100
AcDbArc
 50
224.0055671394
 51
242.9894994118
  0
ARC
  5
320
330
1F
100
AcDbEntity
  8
0
  6
Continuous
 62
     7
370
    25
100
AcDbCircle
 10
11207.1684419593
 20
9201.4150924586
 30
0.0
 40
156.4479986006255
100
AcDbArc
 50
221.4058161137
 51
224.005557877
  0
ARC
  5
321
330
1F
100
AcDbEntity
  8
0
  6
Continuous
 62
     7
370
    25
100
AcDbCircle
 10
10952.5020614327
 20
8976.8504453258
 30
0.0
 40
183.0873399319297
100
AcDbArc
 50
41.405835571
 51
43.4853861104
  0
ARC
  5
322
330
1F
100
AcDbEntity
  8
0
  6
Continuous
 62
     7
370
    25
100
AcDbCircle
 10
11079.8067836988
 20
9097.5964169246
 30
0.0
 40
7.627709336698361
100
AcDbArc
 50
43.4854015813
 51
64.3399231315
  0
ARC
  5
323
330
1F
100
AcDbEntity
  8
0
  6
Continuous
 62
     7
370
    25
100
AcDbCircle
 10
11081.7258866667
 20
9101.5911439838
 30
0.0
 40
3.195915063706324
100
AcDbArc
 50
64.339886134
 51
102.8991002525
  0
ARC
  5
324
330
1F
100
AcDbEntity
  8
0
  6
Continuous
 62
     7
370
    25
100
AcDbCircle
 10
11084.5877387341
 20
9089.094672837
 30
0.0
 40
16.01589900977632
100
AcDbArc
 50
102.8990466803
 51
114.5806964767
  0
ARC
  5
325
330
1F
100
AcDbEntity
  8
0
  6
Continuous
 62
     7
370
    25
100
AcDbCircle
 10
11085.691072451
 20
9086.6826397509
 30
0.0
 40
18.66830337176333
100
AcDbArc
 50
114.5807008757
 51
124.7927538402
  0
ARC
  5
326
330
1F
100
AcDbEntity
  8
0
  6
Continuous
 62
     7
370
    25
100
AcDbCircle
 10
11076.7945149987
 20
9099.4865709804
 30
0.0
 40
3.076979199902999
100
AcDbArc
 50
124.7928345028
 51
163.5050650879
  0
ARC
  5
327
330
1F
100
AcDbEntity
  8
0
  6
Continuous
 62
     7
370
    25
100
AcDbCircle
 10
11080.6774378831
 20
9098.3367739856
 30
0.0
 40
7.126562296373113
100
AcDbArc
 50
163.5050943421
 51
184.7141390517
  0
ARC
  5
328
330
1F
100
AcDbEntity
  8
0
  6
Continuous
 62
     7
370
    25
100
AcDbCircle
 10
11271.6494673543
 20
9114.0850196533
 30
0.0
 40
198.7468203119432
100
AcDbArc
 50
184.7141507035
 51
186.6202227481
  0
ARC
  5
329
330
1F
100
AcDbEntity
  8
0
  6
Continuous
 62
     7
370
    25
100
AcDbCircle
 10
10963.515149195
 20
9078.3224386107
 30
0.0
 40
111.4558879778095
100
AcDbArc
 50
3.9799241603
 51
6.620226036
  0
ARC
  5
32A
330
1F
100
AcDbEntity
  8
0
  6
Continuous
 62
     7
370
    25
100
AcDbCircle
 10
11055.4193992475
 20
9084.7166749511
 30
0.0
 40
19.32946703311542
100
AcDbArc
 50
354.3273294035
 51
3.9798529418
  0
ARC
  5
32B
330
1F
100
AcDbEntity
  8
0
  6
Continuous
 62
     7
370
    25
100
AcDbCircle
 10
11067.2049130243
 20
9083.5460058604
 30
0.0
 40
7.485953994156328
100
AcDbArc
 50
337.6534536955
 51
354.3272967574
  0
ARC
  5
32C
330
1F
100
AcDbEntity
  8
0
  6
Continuous
 62
     7
370
    25
100
AcDbCircle
 10
11071.59535422
 20
9081.7411875536
 30
0.0
 40
2.739024142767637
100
AcDbArc
 50
302.357016134
 51
337.6534357574
  0
ARC
  5
32D
330
1F
100
AcDbEntity
  8
0
  6
Continuous
 62
     7
370
    25
100
AcDbCircle
 10
11068.4753658985
 20
9086.6656400197
 30
0.0
 40
8.568651851107724
100
AcDbArc
 50
279.6987733325
 51
302.3571039275
  0
ARC
  5
32E
330
1F
100
AcDbEntity
  8
0
  6
Continuous
 62
     7
370
    25
100
AcDbCircle
 10
11069.3382361621
 20
9081.6169859841
 30
0.0
 40
3.446791577442686
100
AcDbArc
 50
235.0124460721
 51
279.6987852685
  0
ARC
  5
32F
330
1F
100
AcDbEntity
  8
0
  6
Continuous
 62
     7
370
    25
100
AcDbCircle
 10
11072.3215362392
 20
9085.8795663623
 30
0.0
 40
8.649643759719778
100
AcDbArc
 50
210.6705550189
 51
235.0125064626
  0
ARC
  5
330
330
1F
100
AcDbEntity
  8
0
  6
Continuous
 62
     7
370
    25
100
AcDbCircle
 10
11137.966691441
 20
9124.8111477666
 30
0.0
 40
84.97103284626536
100
AcDbArc
 50
206.1255074045
 51
210.6705294562
  0
ARC
  5
331
330
1F
100
AcDbEntity
  8
0
  6
Continuous
 62
     7
370
    25
100
AcDbCircle
 10
10965.7459441569
 20
9040.3460015148
 30
0.0
 40
106.8474926574391
100
AcDbArc
 50
26.1254980702
 51
29.2442586122
  0
ARC
  5
332
330
1F
100
AcDbEntity
  8
0
  6
Continuous
 62
     7
370
    25
100
AcDbCircle
 10
11048.2034026635
 20
9086.5135208148
 30
0.0
 40
12.34525828343976
100
AcDbArc
 50
29.2443504973
 51
44.5075709924
  0
ARC
  5
333
330
1F
100
AcDbEntity
  8
0
  6
Continuous
 62
     7
370
    25
100
AcDbCircle
 10
11053.2151994141
 20
9091.439902735
 30
0.0
 40
5.317645211219171
100
AcDbArc
 50
44.507563192
 51
70.7187172116
  0
ARC
  5
334
330
1F
100
AcDbEntity
  8
0
  6
Continuous
 62
     7
370
    25
100
AcDbCircle
 10
11052.3255648112
 20
9088.8967993071
 30
0.0
 40
8.011865835366189
100
AcDbArc
 50
70.7188184781
 51
89.99998271
  0
ARC
  5
335
330
1F
100
AcDbEntity
  8
0
  6
Continuous
 62
     7
370
    25
100
AcDbCircle
 10
11052.3255611471
 20
9086.5904210764
 30
0.0
 40
10.31824406608573
100
AcDbArc
 50
89.9999662283
 51
104.8960252647
  0
ARC
  5
336
330
1F
100
AcDbEntity
  8
0
  6
Continuous
 62
     7
370
    25
100
AcDbCircle
 10
11050.4210118448
 20
9093.7502332474
 30
0.0
 40
2.909450752127329
100
AcDbArc
 50
104.8959789863
 51
143.0955683563
  0
ARC
  5
337
330
1F
100
AcDbEntity
  8
0
  6
Continuous
 62
     7
370
    25
100
AcDbCircle
 10
11053.3971545029
 20
9091.5153149609
 30
0.0
 40
6.631316529970622
100
AcDbArc
 50
143.0955187008
 51
164.8638660499
  0
ARC
  5
338
330
1F
100
AcDbEntity
  8
0
  6
Continuous
 62
     7
370
    25
100
AcDbCircle
 10
11142.2149442016
 20
9067.4904017208
 30
0.0
 40
98.64107809448517
100
AcDbArc
 50
164.8639038127
 51
167.895590424
  0
ARC
  5
339
330
1F
100
AcDbEntity
  8
0
  6
Continuous
 62
     7
370
    25
100
AcDbCircle
 10
11209.9787059607
 20
9052.9576686489
 30
0.0
 40
167.9456792280846
100
AcDbArc
 50
167.8955949851
 51
169.1237755146
  0
ARC
  5
33A
330
1F
100
AcDbEntity
  8
0
  6
Continuous
 62
     7
370
    25
100
AcDbCircle
 10
11181.2214853001
 20
9058.4830446195
 30
0.0
 40
138.6624499023786
100
AcDbArc
 50
169.1237685287
 51
170.54170638
  0
ARC
  5
33B
330
1F
100
AcDbEntity
  8
0
  6
Continuous
 62
     7
370
    25
100
AcDbCircle
 10
11172.7239642863
 20
9059.8987025991
 30
0.0
 40
130.04781404851
100
AcDbArc
 50
170.5417144397
 51
171.8214596593
  0
ARC
  5
33C
330
1F
100
AcDbEntity
  8
0
  6
Continuous
 62
     7
370
    25
100
AcDbCircle
 10
11054.2099497023
 20
9076.9315110642
 30
0.0
 40
10.31607967112278
100
AcDbArc
 50
171.8213816963
 51
179.9999747549
  0
ARC
  5
33D
330
1F
100
AcDbEntity
  8
0
  6
Continuous
 62
     7
370
    25
100
AcDbCircle
 10
11042.0746341329
 20
9076.9315170218
 30
0.0
 40
1.819235898222161
100
AcDbArc
 50
326.0548810749
 51
359.9999555252
  0
ARC
  5
33E
330
1F
100
AcDbEntity
  8
0
  6
Continuous
 62
     7
370
    25
100
AcDbCircle
 10
11041.3769862473
 20
9077.4011160979
 30
0.0
 40
2.660209063461104
100
AcDbArc
 50
300.515058858
 51
326.0548582018
  0
ARC
  5
33F
330
1F
100
AcDbEntity
  8
0
  6
Continuous
 62
     7
370
    25
100
AcDbCircle
 10
11040.5302299316
 20
9078.8377661809
 30
0.0
 40
4.327830039318688
100
AcDbArc
 50
281.2290707337
 51
300.5150139374
  0
ARC
  5
340
330
1F
100
AcDbEntity
  8
0
  6
Continuous
 62
     7
370
    25
100
AcDbCircle
 10
11039.6361819194
 20
9083.3410545172
 30
0.0
 40
8.919009374595797
100
AcDbArc
 50
270.0000591646
 51
281.2290594645
  0
ARC
  5
341
330
1F
100
AcDbEntity
  8
0
  6
Continuous
 62
     7
370
    25
100
AcDbCircle
 10
11039.6361919907
 20
9080.3169768489
 30
0.0
 40
5.894931706214556
100
AcDbArc
 50
242.545533604
 51
269.9999916278
  0
ARC
  5
342
330
1F
100
AcDbEntity
  8
0
  6
Continuous
 62
     7
370
    25
100
AcDbCircle
 10
11038.801579959
 20
9078.7105827807
 30
0.0
 40
4.084661244185806
100
AcDbArc
 50
206.4152763335
 51
242.5455100749
  0
ARC
  5
343
330
1F
100
AcDbEntity
  8
0
  6
Continuous
 62
     7
370
    25
100
AcDbCircle
 10
11053.8272154452
 20
9086.1743431382
 30
0.0
 40
20.86195066886581
100
AcDbArc
 50
194.5056768682
 51
206.4152175635
  0
ARC
  5
344
330
1F
100
AcDbEntity
  8
0
  6
Continuous
 62
     7
370
    25
100
AcDbCircle
 10
11718.8420456535
 20
9258.2285857929
 30
0.0
 40
707.7734346407264
100
AcDbArc
 50
193.5707982754
 51
194.5056310445
  0
ARC
  5
345
330
1F
100
AcDbEntity
  8
0
  6
Continuous
 62
     7
370
    25
100
AcDbCircle
 10
11017.2059227296
 20
9088.8634116609
 30
0.0
 40
14.01449210815253
100
AcDbArc
 50
13.5708574046
 51
23.7746761846
  0
ARC
  5
346
330
1F
100
AcDbEntity
  8
0
  6
Continuous
 62
     7
370
    25
100
AcDbCircle
 10
11026.5320958276
 20
9092.9718143904
 30
0.0
 40
3.823492272957089
100
AcDbArc
 50
23.7747695667
 51
50.5930803465
  0
ARC
  5
347
330
1F
100
AcDbEntity
  8
0
  6
Continuous
 62
     7
370
    25
100
AcDbCircle
 10
11026.6763754514
 20
9093.1474181673
 30
0.0
 40
3.596218657452697
100
AcDbArc
 50
50.5930992399
 51
78.4854954635
  0
ARC
  5
348
330
1F
100
AcDbEntity
  8
0
  6
Continuous
 62
     7
370
    25
100
AcDbCircle
 10
11025.039556508
 20
9085.1126095272
 30
0.0
 40
11.796055615364
100
AcDbArc
 50
78.4854939425
 51
90.0000396064
  0
ARC
  5
349
330
1F
100
AcDbEntity
  8
0
  6
Continuous
 62
     7
370
    25
100
AcDbCircle
 10
11025.0395489305
 20
9089.1324570179
 30
0.0
 40
7.776208124614662
100
AcDbArc
 50
90.0000042485
 51
109.660693291
  0
ARC
  5
34A
330
1F
100
AcDbEntity
  8
0
  6
Continuous
 62
     7
370
    25
100
AcDbCircle
 10
11024.2280023439
 20
9091.4039384778
 30
0.0
 40
5.364106160579327
100
AcDbArc
 50
109.6607322239
 51
135.628014637
  0
ARC
  5
34B
330
1F
100
AcDbEntity
  8
0
  6
Continuous
 62
     7
370
    25
100
AcDbCircle
 10
11029.3262631504
 20
9086.4162583957
 30
0.0
 40
12.49637198938883
100
AcDbArc
 50
135.6280959233
 51
150.7395778874
  0
ARC
  5
34C
330
1F
100
AcDbEntity
  8
0
  6
Continuous
 62
     7
370
    25
100
AcDbCircle
 10
11110.7950422533
 20
9040.7720565057
 30
0.0
 40
105.8802846011882
100
AcDbArc
 50
150.7395663308
 51
153.8745958232
  0
ARC
  5
34D
330
1F
100
AcDbEntity
  8
0
  6
Continuous
 62
     7
370
    25
100
AcDbCircle
 10
10883.7907570665
 20
9152.1052152231
 30
0.0
 40
146.9556656179046
100
AcDbArc
 50
331.1641478102
 51
333.8745701706
  0
ARC
  5
34E
330
1F
100
AcDbEntity
  8
0
  6
Continuous
 62
     7
370
    25
100
AcDbCircle
 10
11005.5822883498
 20
9085.0504777737
 30
0.0
 40
7.925039830850917
100
AcDbArc
 50
308.4540726033
 51
331.1641466552
  0
ARC
  5
34F
330
1F
100
AcDbEntity
  8
0
  6
Continuous
 62
     7
370
    25
100
AcDbCircle
 10
11008.5991945657
 20
9081.2514676714
 30
0.0
 40
3.073833705231453
100
AcDbArc
 50
264.8037454327
 51
308.4539855581
  0
ARC
  5
350
330
1F
100
AcDbEntity
  8
0
  6
Continuous
 62
     7
370
    25
100
AcDbCircle
 10
11009.414519644
 20
9090.2167716229
 30
0.0
 40
12.07613507354319
100
AcDbArc
 50
249.0064228794
 51
264.8037009406
  0
ARC
  5
351
330
1F
100
AcDbEntity
  8
0
  6
Continuous
 62
     7
370
    25
100
AcDbCircle
 10
11006.1065854986
 20
9081.5964060815
 30
0.0
 40
2.842872899333998
100
AcDbArc
 50
213.7443648026
 51
249.0063200764
  0
ARC
  5
352
330
1F
100
AcDbEntity
  8
0
  6
Continuous
 62
     7
370
    25
100
AcDbCircle
 10
11007.3597881528
 20
9082.4335863531
 30
0.0
 40
4.349985270603484
100
AcDbArc
 50
188.0974566996
 51
213.7443133528
  0
ARC
  5
353
330
1F
100
AcDbEntity
  8
0
  6
Continuous
 62
     7
370
    25
100
AcDbCircle
 10
11017.9422815533
 20
9083.9392416216
 30
0.0
 40
15.03905278646306
100
AcDbArc
 50
176.2728007798
 51
188.0975422515
  0
ARC
  5
354
330
1F
100
AcDbEntity
  8
0
  6
Continuous
 62
     7
370
    25
100
AcDbCircle
 10
11158.7533063294
 20
9074.7664419739
 30
0.0
 40
156.1485313903991
100
AcDbArc
 50
174.1502288481
 51
176.2728621827
  0
ARC
  5
355
330
1F
100
AcDbEntity
  8
0
  6
Continuous
 62
     7
370
    25
100
AcDbCircle
 10
10784.3645017421
 20
9113.1236839775
 30
0.0
 40
220.2000503985307
100
AcDbArc
 50
354.1503300771
 51
355.948463918
  0
ARC
  5
356
330
1F
100
AcDbEntity
  8
0
  6
Continuous
 62
     7
370
    25
100
AcDbCircle
 10
10996.4882263417
 20
9098.0987950835
 30
0.0
 40
7.544879231081877
100
AcDbArc
 50
355.9485258522
 51
16.595741193
  0
ARC
  5
357
330
1F
100
AcDbEntity
  8
0
  6
Continuous
 62
     7
370
    25
100
AcDbCircle
 10
11000.6932237233
 20
9099.352014502
 30
0.0
 40
3.157105092580346
100
AcDbArc
 50
16.5958180191
 51
55.1643878344
  0
ARC
  5
358
330
1F
100
AcDbEntity
  8
0
  6
Continuous
 62
     7
370
    25
100
AcDbCircle
 10
10991.7977105259
 20
9086.5700024731
 30
0.0
 40
18.72983724055644
100
AcDbArc
 50
55.164397881
 51
65.5045355454
  0
ARC
  5
359
330
1F
100
AcDbEntity
  8
0
  6
Continuous
 62
     7
370
    25
100
AcDbCircle
 10
10992.5613236538
 20
9088.2458960745
 30
0.0
 40
16.88817376100692
100
AcDbArc
 50
65.5046115643
 51
76.7477869805
  0
ARC
  5
35A
330
1F
100
AcDbEntity
  8
0
  6
Continuous
 62
     7
370
    25
100
AcDbCircle
 10
10995.708369237
 20
9101.6085891129
 30
0.0
 40
3.159901432001068
100
AcDbArc
 50
76.7478627828
 51
115.6333362412
  0
ARC
  5
35B
330
1F
100
AcDbEntity
  8
0
  6
Continuous
 62
     7
370
    25
100
AcDbCircle
 10
10997.5499660705
 20
9097.7706259432
 30
0.0
 40
7.416829924355444
100
AcDbArc
 50
115.6333821162
 51
136.8669669604
  0
ARC
  5
35C
330
1F
100
AcDbEntity
  8
0
  6
Continuous
 62
     7
370
    25
100
AcDbCircle
 10
11126.0028151167
 20
8977.427731055
 30
0.0
 40
183.4354277433229
100
AcDbArc
 50
136.866998736
 51
138.9408201867
  0
ARC
  5
35D
330
1F
100
AcDbEntity
  8
0
  6
Continuous
 62
     7
370
    25
100
AcDbCircle
 10
10900.9085066506
 20
9173.5077858982
 30
0.0
 40
115.0856529380045
100
AcDbArc
 50
315.3617266208
 51
318.9408175659
  0
ARC
  5
35E
330
1F
100
AcDbEntity
  8
0
  6
Continuous
 62
     7
370
    25
100
AcDbCircle
 10
10975.8060930725
 20
9099.5499990199
 30
0.0
 40
9.826911297445264
100
AcDbArc
 50
293.6485077844
 51
315.3616632375
  0
ARC
  5
35F
330
1F
100
AcDbEntity
  8
0
  6
Continuous
 62
     7
370
    25
100
AcDbCircle
 10
10978.518700902
 20
9093.355381345
 30
0.0
 40
3.064402193901991
100
AcDbArc
 50
246.8285527307
 51
293.6485406313
  0
ARC
  5
360
330
1F
100
AcDbEntity
  8
0
  6
Continuous
 62
     7
370
    25
100
AcDbCircle
 10
10979.8170700618
 20
9096.388868489
 30
0.0
 40
6.364069863225188
100
AcDbArc
 50
219.6901624774
 51
246.8285201986
  0
ARC
  5
361
330
1F
100
AcDbEntity
  8
0
  6
Continuous
 62
     7
370
    25
100
AcDbCircle
 10
10977.5352252357
 20
9094.4951019309
 30
0.0
 40
3.398742294974994
100
AcDbArc
 50
188.9703045219
 51
219.6901077558
  0
ARC
  5
362
330
1F
100
AcDbEntity
  8
0
  6
Continuous
 62
     7
370
    25
100
AcDbCircle
 10
10982.5472068931
 20
9095.2862498597
 30
0.0
 40
8.472781630547061
100
AcDbArc
 50
173.4387165374
 51
188.9702416879
  0
ARC
  5
363
330
1F
100
AcDbEntity
  8
0
  6
Continuous
 62
     7
370
    25
100
AcDbCircle
 10
10993.8631597968
 20
9093.9846682302
 30
0.0
 40
19.86334372626192
100
AcDbArc
 50
163.891576664
 51
173.4386319724
  0
ARC
  5
364
330
1F
100
AcDbEntity
  8
0
  6
Continuous
 62
     7
370
    25
100
AcDbCircle
 10
11071.0370561585
 20
9071.6971151664
 30
0.0
 40
100.1910805375321
100
AcDbArc
 50
161.0142453407
 51
163.8914882025
  0
ARC
  5
365
330
1F
100
AcDbEntity
  8
0
  6
Continuous
 62
     7
370
    25
100
AcDbCircle
 10
10767.576901471
 20
9176.1025124338
 30
0.0
 40
220.7272150791753
100
AcDbArc
 50
341.0142273517
 51
342.6562963014
  0
ARC
  5
366
330
1F
100
AcDbEntity
  8
0
  6
Continuous
 62
     7
370
    25
100
AcDbCircle
 10
10969.1100410847
 20
9113.1632403189
 30
0.0
 40
9.59465402597668
100
AcDbArc
 50
342.6563647118
 51
358.6454602745
  0
ARC
  5
367
330
1F
100
AcDbEntity
  8
0
  6
Continuous
 62
     7
370
    25
100
AcDbCircle
 10
10975.4564469436
 20
9113.0131735486
 30
0.0
 40
3.24647417957333
100
AcDbArc
 50
358.6455008733
 51
32.4307098472
  0
ARC
  5
368
330
1F
100
AcDbEntity
  8
0
  6
Continuous
 62
     7
370
    25
100
AcDbCircle
 10
10970.3542650232
 20
9109.7713824466
 30
0.0
 40
9.291428265285578
100
AcDbArc
 50
32.4307650246
 51
47.8552928363
  0
ARC
  5
369
330
1F
100
AcDbEntity
  8
0
  6
Continuous
 62
     7
370
    25
100
AcDbCircle
 10
10964.3587128628
 20
9103.146383882
 30
0.0
 40
18.2265976362746
100
AcDbArc
 50
47.8552693528
 51
58.3367500674
  0
ARC
  5
36A
330
1F
100
AcDbEntity
  8
0
  6
Continuous
 62
     7
370
    25
100
AcDbCircle
 10
10972.5063238167
 20
9116.3574374914
 30
0.0
 40
2.705144684752952
100
AcDbArc
 50
58.3367367596
 51
101.1779024011
  0
ARC
  5
36B
330
1F
100
AcDbEntity
  8
0
  6
Continuous
 62
     7
370
    25
100
AcDbCircle
 10
10973.5193713557
 20
9111.2308629489
 30
0.0
 40
7.930853426801207
100
AcDbArc
 50
101.1779945513
 51
120.6582634586
  0
ARC
  5
36C
330
1F
100
AcDbEntity
  8
0
  6
Continuous
 62
     7
370
    25
100
AcDbCircle
 10
11162.7828366685
 20
8791.9454994912
 30
0.0
 40
379.0963187121811
100
AcDbArc
 50
120.658280272
 51
121.866522477
  0
ARC
  5
36D
330
1F
100
AcDbEntity
  8
0
  6
Continuous
 62
     7
370
    25
100
AcDbCircle
 10
10865.5407987431
 20
9270.1077186015
 30
0.0
 40
183.9240511631903
100
AcDbArc
 50
299.9354078554
 51
301.8664591207
  0
ARC
  5
36E
330
1F
100
AcDbEntity
  8
0
  6
Continuous
 62
     7
370
    25
100
AcDbCircle
 10
10952.5812026927
 20
9118.9560716207
 30
0.0
 40
9.502572254465738
100
AcDbArc
 50
283.2633238764
 51
299.9353431602
  0
ARC
  5
36F
330
1F
100
AcDbEntity
  8
0
  6
Continuous
 62
     7
370
    25
100
AcDbCircle
 10
10954.1008791312
 20
9112.5089697289
 30
0.0
 40
2.878786382260177
100
AcDbArc
 50
245.8780987195
 51
283.2632657756
  0
ARC
  5
370
330
1F
100
AcDbEntity
  8
0
  6
Continuous
 62
     7
370
    25
100
AcDbCircle
 10
10955.4904386487
 20
9115.6121483469
 30
0.0
 40
6.278873614585711
100
AcDbArc
 50
225.0000261182
 51
245.8779583404
  0
ARC
  5
371
330
1F
100
AcDbEntity
  8
0
  6
Continuous
 62
     7
370
    25
100
AcDbCircle
 10
10955.5281552605
 20
9115.6498633651
 30
0.0
 40
6.332211831745747
100
AcDbArc
 50
204.2880135515
 51
225.0000157026
  0
ARC
  5
372
330
1F
100
AcDbEntity
  8
0
  6
Continuous
 62
     7
370
    25
100
AcDbCircle
 10
10952.3870110212
 20
9114.2323745476
 30
0.0
 40
2.886045602473235
100
AcDbArc
 50
167.0356474481
 51
204.2880345107
  0
ARC
  5
373
330
1F
100
AcDbEntity
  8
0
  6
Continuous
 62
     7
370
    25
100
AcDbCircle
 10
10958.7870469126
 20
9112.7590196877
 30
0.0
 40
9.453482998762128
100
AcDbArc
 50
150.3372800534
 51
167.0357439344
  0
ARC
  5
374
330
1F
100
AcDbEntity
  8
0
  6
Continuous
 62
     7
370
    25
100
AcDbCircle
 10
11108.6963752876
 20
9027.3815635769
 30
0.0
 40
181.9704872209293
100
AcDbArc
 50
148.3957114897
 51
150.3373044148
  0
ARC
  5
375
330
1F
100
AcDbEntity
  8
0
  6
Continuous
 62
     7
370
    25
100
AcDbCircle
 10
10740.4077818154
 20
9253.9918376161
 30
0.0
 40
250.4514183087578
100
AcDbArc
 50
328.395785735
 51
330.208586389
  0
ARC
  5
376
330
1F
100
AcDbEntity
  8
0
  6
Continuous
 62
     7
370
    25
100
AcDbCircle
 10
10950.404037067
 20
9133.7676323094
 30
0.0
 40
8.475620425396633
100
AcDbArc
 50
330.2086129368
 51
351.20336501
  0
ARC
  5
377
330
1F
100
AcDbEntity
  8
0
  6
Continuous
 62
     7
370
    25
100
AcDbCircle
 10
10955.7774008441
 20
9132.9361189046
 30
0.0
 40
3.038300053786132
100
AcDbArc
 50
351.2032882901
 51
34.7070075707
  0
ARC
  5
378
330
1F
100
AcDbEntity
  8
0
  6
Continuous
 62
     7
370
    25
100
AcDbCircle
 10
10945.7114891064
 20
9125.9643200169
 30
0.0
 40
15.28283184725508
100
AcDbArc
 50
34.7070372039
 51
47.8552672182
  0
ARC
  5
379
330
1F
100
AcDbEntity
  8
0
  6
Continuous
 62
     7
370
    25
100
AcDbCircle
 10
10949.1124962631
 20
9129.7223801574
 30
0.0
 40
10.21431473673349
100
AcDbArc
 50
47.8552920477
 51
62.5395537201
  0
ARC
  5
37A
330
1F
100
AcDbEntity
  8
0
  6
Continuous
 62
     7
370
    25
100
AcDbCircle
 10
10951.9662553994
 20
9135.2136525377
 30
0.0
 40
4.025775849220602
100
AcDbArc
 50
62.5395547835
 51
91.9661465511
  0
ARC
  5
37B
330
1F
100
AcDbEntity
  8
0
  6
Continuous
 62
     7
370
    25
100
AcDbCircle
 10
10952.194550698
 20
9128.5639635337
 30
0.0
 40
10.67938258484051
100
AcDbArc
 50
91.9662363556
 51
107.1228989369
  0
ARC
  5
37C
330
1F
100
AcDbEntity
  8
0
  6
Continuous
 62
     7
370
    25
100
AcDbCircle
 10
11004.9543977007
 20
8957.3098270318
 30
0.0
 40
189.8764269934596
100
AcDbArc
 50
107.1229752844
 51
108.9857346493
  0
ARC
  5
37D
330
1F
100
AcDbEntity
  8
0
  6
Continuous
 62
     7
370
    25
100
AcDbCircle
 10
10911.4404673911
 20
9229.1134421431
 30
0.0
 40
97.56410659490194
100
AcDbArc
 50
286.1044393796
 51
288.9858068925
  0
ARC
  5
37E
330
1F
100
AcDbEntity
  8
0
  6
Continuous
 62
     7
370
    25
100
AcDbCircle
 10
10932.8728542445
 20
9154.8808227732
 30
0.0
 40
20.29943818337017
100
AcDbArc
 50
276.8733244035
 51
286.1044088865
  0
ARC
  5
37F
330
1F
100
AcDbEntity
  8
0
  6
Continuous
 62
     7
370
    25
100
AcDbCircle
 10
10934.2812507134
 20
9143.1969456887
 30
0.0
 40
8.530981855564162
100
AcDbArc
 50
261.9262999992
 51
276.8732505327
  0
ARC
  5
380
330
1F
100
AcDbEntity
  8
0
  6
Continuous
 62
     7
370
    25
100
AcDbCircle
 10
10933.4385832362
 20
9137.2565084805
 30
0.0
 40
2.531074964417763
100
AcDbArc
 50
225.0000543098
 51
261.9262978218
  0
ARC
  5
381
330
1F
100
AcDbEntity
  8
0
  6
Continuous
 62
     7
370
    25
100
AcDbCircle
 10
10935.8174416007
 20
9139.6353667101
 30
0.0
 40
5.895288631048542
100
AcDbArc
 50
196.6024110756
 51
225.0000223903
  0
ARC
  5
382
330
1F
100
AcDbEntity
  8
0
  6
Continuous
 62
     7
370
    25
100
AcDbCircle
 10
10933.6748759105
 20
9138.996540704
 30
0.0
 40
3.659514402124157
100
AcDbArc
 50
156.0387284438
 51
196.602392215
  0
ARC
  5
383
330
1F
100
AcDbEntity
  8
0
  6
Continuous
 62
     7
370
    25
100
AcDbCircle
 10
10940.468755594
 20
9135.977225996
 30
0.0
 40
11.09409996282646
100
AcDbArc
 50
136.3014423162
 51
156.0387968967
  0
ARC
  5
384
330
1F
100
AcDbEntity
  8
0
  6
Continuous
 62
     7
370
    25
100
AcDbCircle
 10
11012.8486260213
 20
9066.8131877726
 30
0.0
 40
111.2065858297444
100
AcDbArc
 50
132.6688037855
 51
136.3015102901
  0
ARC
  5
385
330
1F
100
AcDbEntity
  8
0
  6
Continuous
 62
     7
370
    25
100
AcDbCircle
 10
10832.5019459361
 20
9262.4665401765
 30
0.0
 40
154.885802871411
100
AcDbArc
 50
312.6688317493
 51
314.9970229647
  0
ARC
  5
386
330
1F
100
AcDbEntity
  8
0
  6
Continuous
 62
     7
370
    25
100
AcDbCircle
 10
10935.6244889724
 20
9159.3332890465
 30
0.0
 40
9.040931960819453
100
AcDbArc
 50
314.9969836865
 51
333.4543447546
  0
ARC
  5
387
330
1F
100
AcDbEntity
  8
0
  6
Continuous
 62
     7
370
    25
100
AcDbCircle
 10
10940.5872239645
 20
9156.8540142309
 30
0.0
 40
3.49336112186914
100
AcDbArc
 50
333.4544469212
 51
8.7649652354
  0
ARC
  5
388
330
1F
100
AcDbEntity
  8
0
  6
Continuous
 62
     7
370
    25
100
AcDbCircle
 10
10933.8238865117
 20
9155.811226065
 30
0.0
 40
10.33661624349405
100
AcDbArc
 50
8.7649790028
 51
24.4954235608
  0
ARC
  5
389
330
1F
100
AcDbEntity
  8
0
  6
Continuous
 62
     7
370
    25
100
AcDbCircle
 10
10931.7250509209
 20
9154.854934392
 30
0.0
 40
12.64304304732158
100
AcDbArc
 50
24.4954220767
 51
37.7060124865
  0
ARC
  5
38A
330
1F
100
AcDbEntity
  8
0
  6
Continuous
 62
     7
370
    25
100
AcDbCircle
 10
10939.280456301
 20
9160.6956876022
 30
0.0
 40
3.093249933298946
100
AcDbArc
 50
37.7059278839
 51
75.2961292399
  0
ARC
  5
38B
330
1F
100
AcDbEntity
  8
0
  6
Continuous
 62
     7
370
    25
100
AcDbCircle
 10
10938.0193169824
 20
9155.8898394893
 30
0.0
 40
8.061815970333297
100
AcDbArc
 50
75.2961179286
 51
94.5133349726
  0
ARC
  5
38C
330
1F
100
AcDbEntity
  8
0
  6
Continuous
 62
     7
370
    25
100
AcDbCircle
 10
10952.327512399
 20
8974.6245050415
 30
0.0
 40
189.8909828511065
100
AcDbArc
 50
94.51329123
 51
96.4548841436
  0
ARC
  5
38D
330
1F
100
AcDbEntity
  8
0
  6
Continuous
 62
     7
370
    25
100
AcDbCircle
 10
10918.3124813502
 20
9275.276657298
 30
0.0
 40
112.6792387401439
100
AcDbArc
 50
273.8241240394
 51
276.4548015401
  0
ARC
  5
38E
330
1F
100
AcDbEntity
  8
0
  6
Continuous
 62
     7
370
    25
100
AcDbCircle
 10
10924.5682780812
 20
9181.6872197563
 30
0.0
 40
18.88095617526359
100
AcDbArc
 50
263.9647550075
 51
273.8240848743
  0
ARC
  5
38F
330
1F
100
AcDbEntity
  8
0
  6
Continuous
 62
     7
370
    25
100
AcDbCircle
 10
10923.3435168961
 20
9170.1030258706
 30
0.0
 40
7.232197102243896
100
AcDbArc
 50
246.741205221
 51
263.9648199648
  0
ARC
  5
390
330
1F
100
AcDbEntity
  8
0
  6
Continuous
 62
     7
370
    25
100
AcDbCircle
 10
10921.618182059
 20
9166.0889073442
 30
0.0
 40
2.862994904571597
100
AcDbArc
 50
212.343908769
 51
246.7412691149
  0
ARC
  5
391
330
1F
100
AcDbEntity
  8
0
  6
Continuous
 62
     7
370
    25
100
AcDbCircle
 10
10926.5356143719
 20
9169.202856163
 30
0.0
 40
8.68346033254328
100
AcDbArc
 50
191.2512095452
 51
212.3439090952
  0
ARC
  5
392
330
1F
100
AcDbEntity
  8
0
  6
Continuous
 62
     7
370
    25
100
AcDbCircle
 10
10920.8810016424
 20
9168.0779580323
 30
0.0
 40
2.918042661121958
100
AcDbArc
 50
143.7499459007
 51
191.2511781453
  0
ARC
  5
393
330
1F
100
AcDbEntity
  8
0
  6
Continuous
 62
     7
370
    25
100
AcDbCircle
 10
10925.2164667079
 20
9164.8990406166
 30
0.0
 40
8.294079609503536
100
AcDbArc
 50
120.2471263904
 51
143.7498533488
  0
ARC
  5
394
330
1F
100
AcDbEntity
  8
0
  6
Continuous
 62
     7
370
    25
100
AcDbCircle
 10
10980.1180026036
 20
9070.7468082003
 30
0.0
 40
117.2840860902274
100
AcDbArc
 50
116.8551944993
 51
120.2470861871
  0
ARC
  5
395
330
1F
100
AcDbEntity
  8
0
  6
Continuous
 62
     7
370
    25
100
AcDbCircle
 10
10885.2875750503
 20
9258.0305838481
 30
0.0
 40
92.63976346195516
100
AcDbArc
 50
296.8552078584
 51
300.2496200063
  0
ARC
  5
396
330
1F
100
AcDbEntity
  8
0
  6
Continuous
 62
     7
370
    25
100
AcDbCircle
 10
10924.2590893988
 20
9191.2039822818
 30
0.0
 40
15.27973756026587
100
AcDbArc
 50
300.2496649852
 51
313.1171353992
  0
ARC
  5
397
330
1F
100
AcDbEntity
  8
0
  6
Continuous
 62
     7
370
    25
100
AcDbCircle
 10
10930.2455998602
 20
9184.8105011445
 30
0.0
 40
6.521032829712182
100
AcDbArc
 50
313.1170768325
 51
334.7423288671
  0
ARC
  5
398
330
1F
100
AcDbEntity
  8
0
  6
Continuous
 62
     7
370
    25
100
AcDbCircle
 10
10931.3490519467
 20
9184.2899008366
 30
0.0
 40
5.300938084248134
100
AcDbArc
 50
334.7423084054
 51
0.000038501
  0
ARC
  5
399
330
1F
100
AcDbEntity
  8
0
  6
Continuous
 62
     7
370
    25
100
AcDbCircle
 10
10927.9897093241
 20
9184.2898975175
 30
0.0
 40
8.660280706878444
100
AcDbArc
 50
0.0000455248
 51
21.8571941363
  0
ARC
  5
39A
330
1F
100
AcDbEntity
  8
0
  6
Continuous
 62
     7
370
    25
100
AcDbCircle
 10
10931.6535255206
 20
9185.7595637654
 30
0.0
 40
4.712690555650678
100
AcDbArc
 50
21.8571916533
 51
56.3134773121
  0
ARC
  5
39B
330
1F
100
AcDbEntity
  8
0
  6
Continuous
 62
     7
370
    25
100
AcDbCircle
 10
10927.6346998417
 20
9179.7305382041
 30
0.0
 40
11.95838645439654
100
AcDbArc
 50
56.3134211982
 51
75.0692652446
  0
ARC
  5
39C
330
1F
100
AcDbEntity
  8
0
  6
Continuous
 62
     7
370
    25
100
AcDbCircle
 10
10899.6941040704
 20
9074.9485496618
 30
0.0
 40
120.4016527964058
100
AcDbArc
 50
75.0692335588
 51
78.5103886297
  0
ARC
  5
39D
330
1F
100
AcDbEntity
  8
0
  6
Continuous
 62
     7
370
    25
100
AcDbCircle
 10
10939.46919765
 20
9270.6316333077
 30
0.0
 40
79.2829166987599
100
AcDbArc
 50
254.9662186472
 51
258.5104821393
  0
ARC
  5
39E
330
1F
100
AcDbEntity
  8
0
  6
Continuous
 62
     7
370
    25
100
AcDbCircle
 10
10921.0111942006
 20
9201.9075402666
 30
0.0
 40
8.123245144814423
100
AcDbArc
 50
236.0710774567
 51
254.9662373651
  0
ARC
  5
39F
330
1F
100
AcDbEntity
  8
0
  6
Continuous
 62
     7
370
    25
100
AcDbCircle
 10
10918.5338028217
 20
9198.224807097
 30
0.0
 40
3.684777882075907
100
AcDbArc
 50
204.2980377451
 51
236.0710519042
  0
ARC
  5
3A0
330
1F
100
AcDbEntity
  8
0
  6
Continuous
 62
     7
370
    25
100
AcDbCircle
 10
10922.5693654102
 20
9200.0467710268
 30
0.0
 40
8.112567168727479
100
AcDbArc
 50
186.6818428517
 51
204.2980630811
  0
ARC
  5
3A1
330
1F
100
AcDbEntity
  8
0
  6
Continuous
 62
     7
370
    25
100
AcDbCircle
 10
10922.0420331768
 20
9199.9849945593
 30
0.0
 40
7.58162873888961
100
AcDbArc
 50
167.2707559615
 51
186.6818535114
  0
ARC
  5
3A2
330
1F
100
AcDbEntity
  8
0
  6
Continuous
 62
     7
370
    25
100
AcDbCircle
 10
10917.1352046876
 20
9201.0934254509
 30
0.0
 40
2.55116306819508
100
AcDbArc
 50
123.582010743
 51
167.2706982898
  0
ARC
  5
3A3
330
1F
100
AcDbEntity
  8
0
  6
Continuous
 62
     7
370
    25
100
AcDbCircle
 10
10920.5095334414
 20
9196.0112110905
 30
0.0
 40
8.651572672836087
100
AcDbArc
 50
104.7397343387
 51
123.5820833927
  0
ARC
  5
3A4
330
1F
100
AcDbEntity
  8
0
  6
Continuous
 62
     7
370
    25
100
AcDbCircle
 10
10970.331781406
 20
9006.6349294581
 30
0.0
 40
204.4719813057409
100
AcDbArc
 50
102.8405141437
 51
104.7397111864
  0
ARC
  5
3A5
330
1F
100
AcDbEntity
  8
0
  6
Continuous
 62
     7
370
    25
100
AcDbCircle
 10
10891.4871796306
 20
9352.5389849013
 30
0.0
 40
150.3041266852098
100
AcDbArc
 50
282.8404663785
 51
285.2678832073
  0
ARC
  5
3A6
330
1F
100
AcDbEntity
  8
0
  6
Continuous
 62
     7
370
    25
100
AcDbCircle
 10
10927.9791869451
 20
9218.8523182575
 30
0.0
 40
11.72638158825107
100
AcDbArc
 50
285.2678500244
 51
300.9638503567
  0
ARC
  5
3A7
330
1F
100
AcDbEntity
  8
0
  6
Continuous
 62
     7
370
    25
100
AcDbCircle
 10
10931.8856951491
 20
9212.3414902264
 30
0.0
 40
4.133510721507817
100
AcDbArc
 50
300.9638873779
 51
332.1166528297
  0
ARC
  5
3A8
330
1F
100
AcDbEntity
  8
0
  6
Continuous
 62
     7
370
    25
100
AcDbCircle
 10
10929.4386071711
 20
9213.636247118
 30
0.0
 40
6.902018438778184
100
AcDbArc
 50
332.1166455681
 51
353.3404599155
  0
ARC
  5
3A9
330
1F
100
AcDbEntity
  8
0
  6
Continuous
 62
     7
370
    25
100
AcDbCircle
 10
10929.6106504981
 20
9213.6161655093
 30
0.0
 40
6.72880707269236
100
AcDbArc
 50
353.3404118678
 51
14.7884751514
  0
ARC
  5
3AA
330
1F
100
AcDbEntity
  8
0
  6
Continuous
 62
     7
370
    25
100
AcDbCircle
 10
10932.0101051038
 20
9214.2496109371
 30
0.0
 40
4.247147242157927
100
AcDbArc
 50
14.7884949566
 51
45.0593506818
  0
ARC
  5
3AB
330
1F
100
AcDbEntity
  8
0
  6
Continuous
 62
     7
370
    25
100
AcDbCircle
 10
10927.0400129529
 20
9209.2692272074
 30
0.0
 40
11.28319997669698
100
AcDbArc
 50
45.0592940474
 51
61.0853364629
  0
ARC
  5
3AC
330
1F
100
AcDbEntity
  8
0
  6
Continuous
 62
     7
370
    25
100
AcDbCircle
 10
10873.3287589199
 20
9112.0303412777
 30
0.0
 40
122.3701017546903
100
AcDbArc
 50
61.0853238529
 51
63.8745738561
  0
ARC
  5
3AD
330
1F
100
AcDbEntity
  8
0
  6
Continuous
 62
     7
370
    25
100
AcDbCircle
 10
10965.3547552738
 20
9299.6680402049
 30
0.0
 40
86.61958713834395
100
AcDbArc
 50
239.3811207395
 51
243.8745966257
  0
ARC
  5
3AE
330
1F
100
AcDbEntity
  8
0
  6
Continuous
 62
     7
370
    25
100
AcDbCircle
 10
10925.6867187536
 20
9232.6434744206
 30
0.0
 40
8.736048826696578
100
AcDbArc
 50
215.1563531391
 51
239.381142186
  0
ARC
  5
3AF
330
1F
100
AcDbEntity
  8
0
  6
Continuous
 62
     7
370
    25
100
AcDbCircle
 10
10921.3649454473
 20
9229.5997254746
 30
0.0
 40
3.450017029837586
100
AcDbArc
 50
170.4164000612
 51
215.1563377508
  0
ARC
  5
3B0
330
1F
100
AcDbEntity
  8
0
  6
Continuous
 62
     7
370
    25
100
AcDbCircle
 10
10926.3760764674
 20
9228.7536319738
 30
0.0
 40
8.532074517960833
100
AcDbArc
 50
147.6430151273
 51
170.4164036741
  0
ARC
  5
3B1
330
1F
100
AcDbEntity
  8
0
  6
Continuous
 62
     7
370
    25
100
AcDbCircle
 10
10921.4841741941
 20
9231.8529777798
 30
0.0
 40
2.740990657685482
100
AcDbArc
 50
112.4620715351
 51
147.6430064857
  0
ARC
  5
3B2
330
1F
100
AcDbEntity
  8
0
  6
Continuous
 62
     7
370
    25
100
AcDbCircle
 10
10923.2809579485
 20
9227.5070644078
 30
0.0
 40
7.443691466412163
100
AcDbArc
 50
95.7644129288
 51
112.4621928949
  0
ARC
  5
3B3
330
1F
100
AcDbEntity
  8
0
  6
Continuous
 62
     7
370
    25
100
AcDbCircle
 10
10924.4514287981
 20
9215.9124206959
 30
0.0
 40
19.09726451575823
100
AcDbArc
 50
86.0592870801
 51
95.7644287591
  0
ARC
  5
3B4
330
1F
100
AcDbEntity
  8
0
  6
Continuous
 62
     7
370
    25
100
AcDbCircle
 10
10918.2928444926
 20
9126.5117241703
 30
0.0
 40
108.7098345040771
100
AcDbArc
 50
83.3797833036
 51
86.0592702251
  0
ARC
  5
3B5
330
1F
100
AcDbEntity
  8
0
  6
Continuous
 62
     7
370
    25
100
AcDbCircle
 10
10955.3118779555
 20
9445.4703638988
 30
0.0
 40
212.3898738358974
100
AcDbArc
 50
263.3797285099
 51
265.1904666337
  0
ARC
  5
3B6
330
1F
100
AcDbEntity
  8
0
  6
Continuous
 62
     7
370
    25
100
AcDbCircle
 10
10938.0147259345
 20
9239.8943189161
 30
0.0
 40
6.087421744885093
100
AcDbArc
 50
265.1904855238
 51
288.7072727934
  0
ARC
  5
3B7
330
1F
100
AcDbEntity
  8
0
  6
Continuous
 62
     7
370
    25
100
AcDbCircle
 10
10939.0837539151
 20
9236.7373261376
 30
0.0
 40
2.754341453752717
100
AcDbArc
 50
288.7073078948
 51
330.6897935291
  0
ARC
  5
3B8
330
1F
100
AcDbEntity
  8
0
  6
Continuous
 62
     7
370
    25
100
AcDbCircle
 10
10920.8573561833
 20
9246.9697679067
 30
0.0
 40
23.65660063403082
100
AcDbArc
 50
330.6898047078
 51
339.3206545871
  0
ARC
  5
3B9
330
1F
100
AcDbEntity
  8
0
  6
Continuous
 62
     7
370
    25
100
AcDbCircle
 10
10925.4461890503
 20
9245.2377046398
 30
0.0
 40
18.75176320131568
100
AcDbArc
 50
339.3205916768
 51
349.8574181868
  0
ARC
  5
3BA
330
1F
100
AcDbEntity
  8
0
  6
Continuous
 62
     7
370
    25
100
AcDbCircle
 10
10940.3337615032
 20
9242.5744112844
 30
0.0
 40
3.627843569245911
100
AcDbArc
 50
349.8573542126
 51
25.4327871141
  0
ARC
  5
3BB
330
1F
100
AcDbEntity
  8
0
  6
Continuous
 62
     7
370
    25
100
AcDbCircle
 10
10936.6417969852
 20
9240.8187559827
 30
0.0
 40
7.715988324575304
100
AcDbArc
 50
25.432732838
 51
46.33884833
  0
ARC
  5
3BC
330
1F
100
AcDbEntity
  8
0
  6
Continuous
 62
     7
370
    25
100
AcDbCircle
 10
10831.3556605905
 20
9130.4934566688
 30
0.0
 40
160.2179299044015
100
AcDbArc
 50
46.3388448192
 51
48.6445783834
  0
ARC
  5
3BD
330
1F
100
AcDbEntity
  8
0
  6
Continuous
 62
     7
370
    25
100
AcDbCircle
 10
10996.0377018973
 20
9317.5819860862
 30
0.0
 40
89.02551046772584
100
AcDbArc
 50
225.2607842454
 51
228.6446562432
  0
ARC
  5
3BE
330
1F
100
AcDbEntity
  8
0
  6
Continuous
 62
     7
370
    25
100
AcDbCircle
 10
10943.9149193116
 20
9264.9825730426
 30
0.0
 40
14.97496882887982
100
AcDbArc
 50
212.6140748187
 51
225.2608396673
  0
ARC
  5
3BF
330
1F
100
AcDbEntity
  8
0
  6
Continuous
 62
     7
370
    25
100
AcDbCircle
 10
10936.4629107389
 20
9260.2142430134
 30
0.0
 40
6.127969166074077
100
AcDbArc
 50
190.9134746133
 51
212.6141377273
  0
ARC
  5
3C0
330
1F
100
AcDbEntity
  8
0
  6
Continuous
 62
     7
370
    25
100
AcDbCircle
 10
10934.6233562085
 20
9259.8595465668
 30
0.0
 40
4.254531032677711
100
AcDbArc
 50
162.3912237984
 51
190.9134032533
  0
ARC
  5
3C1
330
1F
100
AcDbEntity
  8
0
  6
Continuous
 62
     7
370
    25
100
AcDbCircle
 10
10939.1940251721
 20
9258.4088772518
 30
0.0
 40
9.049888812519935
100
AcDbArc
 50
145.0185928575
 51
162.3912411733
  0
ARC
  5
3C2
330
1F
100
AcDbEntity
  8
0
  6
Continuous
 62
     7
370
    25
100
AcDbCircle
 10
10933.3711192178
 20
9262.4833069041
 30
0.0
 40
1.943046282677933
100
AcDbArc
 50
90.7348143467
 51
145.0186503447
  0
ARC
  5
3C3
330
1F
100
AcDbEntity
  8
0
  6
Continuous
 62
     7
370
    25
100
AcDbCircle
 10
10933.4572903299
 20
9255.7650845259
 30
0.0
 40
8.661821273913253
100
AcDbArc
 50
72.1224355771
 51
90.7348517699
  0
ARC
  5
3C4
330
1F
100
AcDbEntity
  8
0
  6
Continuous
 62
     7
370
    25
100
AcDbCircle
 10
10801.2206429544
 20
8845.8026822295
 30
0.0
 40
439.4235909398492
100
AcDbArc
 50
71.0141574846
 51
72.1224783918
  0
ARC
  5
3C5
330
1F
100
AcDbEntity
  8
0
  6
Continuous
 62
     7
370
    25
100
AcDbCircle
 10
10944.1265661857
 20
9270.3393565911
 30
0.0
 40
15.03409918574417
100
AcDbArc
 50
326.7662107616
 51
338.205772808
  0
ARC
  5
3C6
330
1F
100
AcDbEntity
  8
0
  6
Continuous
 62
     7
370
    25
100
AcDbCircle
 10
10954.8901789238
 20
9266.03547255
 30
0.0
 40
3.441913153125642
100
AcDbArc
 50
338.2058349399
 51
12.3791029456
  0
ARC
  5
3C7
330
1F
100
AcDbEntity
  8
0
  6
Continuous
 62
     7
370
    25
100
AcDbCircle
 10
10950.9015505086
 20
9265.1600280198
 30
0.0
 40
7.525485089521462
100
AcDbArc
 50
12.3791969453
 51
32.1891179781
  0
ARC
  5
3C8
330
1F
100
AcDbEntity
  8
0
  6
Continuous
 62
     7
370
    25
100
AcDbCircle
 10
10837.3892622575
 20
9193.7077938625
 30
0.0
 40
141.6540105793338
100
AcDbArc
 50
32.1890619339
 51
34.5287111411
  0
ARC
  5
3C9
330
1F
100
AcDbEntity
  8
0
  6
Continuous
 62
     7
370
    25
100
AcDbCircle
 10
11082.9563786162
 20
9362.6625652826
 30
0.0
 40
156.4213547603464
100
AcDbArc
 50
211.9800483321
 51
214.5286887225
  0
ARC
  5
3CA
330
1F
100
AcDbEntity
  8
0
  6
Continuous
 62
     7
370
    25
100
AcDbCircle
 10
10957.910938877
 20
9284.5860328818
 30
0.0
 40
9.002540115417426
100
AcDbArc
 50
191.5744944408
 51
211.9800371838
  0
ARC
  5
3CB
330
1F
100
AcDbEntity
  8
0
  6
Continuous
 62
     7
370
    25
100
AcDbCircle
 10
10952.0898367845
 20
9283.3938268871
 30
0.0
 40
3.060605690933264
100
AcDbArc
 50
149.097320787
 51
191.5743921349
  0
ARC
  5
3CC
330
1F
100
AcDbEntity
  8
0
  6
Continuous
 62
     7
370
    25
100
AcDbCircle
 10
10956.9773536558
 20
9280.4684082291
 30
0.0
 40
8.756735560475688
100
AcDbArc
 50
129.6901490695
 51
149.0973784041
  0
ARC
  5
3CD
330
1F
100
AcDbEntity
  8
0
  6
Continuous
 62
     7
370
    25
100
AcDbCircle
 10
10953.8530670545
 20
9284.2329467797
 30
0.0
 40
3.864607468782248
100
AcDbArc
 50
100.3433651693
 51
129.6901526826
  0
ARC
  5
3CE
330
1F
100
AcDbEntity
  8
0
  6
Continuous
 62
     7
370
    25
100
AcDbCircle
 10
10953.9562747585
 20
9283.6674788115
 30
0.0
 40
4.439416874749338
100
AcDbArc
 50
73.8929545832
 51
100.3433979179
  0
ARC
  5
3CF
330
1F
100
AcDbEntity
  8
0
  6
Continuous
 62
     7
370
    25
100
AcDbCircle
 10
10951.4741651816
 20
9275.0720242913
 30
0.0
 40
13.38607582438676
100
AcDbArc
 50
60.6800221496
 51
73.8928967261
  0
ARC
  5
3D0
330
1F
100
AcDbEntity
  8
0
  6
Continuous
 62
     7
370
    25
100
AcDbCircle
 10
10896.4486614944
 20
9177.0976289999
 30
0.0
 40
125.7550581493656
100
AcDbArc
 50
58.1334803895
 51
60.680058391
  0
ARC
  5
3D1
330
1F
100
AcDbEntity
  8
0
  6
Continuous
 62
     7
370
    25
100
AcDbCircle
 10
11055.5257465406
 20
9432.9988511873
 30
0.0
 40
175.5603156765123
100
AcDbArc
 50
238.1334813106
 51
240.2128026831
  0
ARC
  5
3D2
330
1F
100
AcDbEntity
  8
0
  6
Continuous
 62
     7
370
    25
100
AcDbCircle
 10
10972.9439106196
 20
9288.7280818582
 30
0.0
 40
9.32609986369817
100
AcDbArc
 50
240.2127624943
 51
257.8196416086
  0
ARC
  5
3D3
330
1F
100
AcDbEntity
  8
0
  6
Continuous
 62
     7
370
    25
100
AcDbCircle
 10
10971.7871892761
 20
9283.3691533666
 30
0.0
 40
3.843753756046646
100
AcDbArc
 50
257.8196827612
 51
290.2854805756
  0
ARC
  5
3D4
330
1F
100
AcDbEntity
  8
0
  6
Continuous
 62
     7
370
    25
100
AcDbCircle
 10
10968.5379760772
 20
9292.1597459917
 30
0.0
 40
13.21562150540779
100
AcDbArc
 50
290.2855068781
 51
303.2338510038
  0
ARC
  5
3D5
330
1F
100
AcDbEntity
  8
0
  6
Continuous
 62
     7
370
    25
100
AcDbCircle
 10
10946.1149529606
 20
9326.3816170074
 30
0.0
 40
54.12929185535545
100
AcDbArc
 50
303.2338248295
 51
305.2519591978
  0
ARC
  5
3D6
330
1F
100
AcDbEntity
  8
0
  6
Continuous
 62
     7
370
    25
100
AcDbCircle
 10
10959.4072729123
 20
9307.5748003274
 30
0.0
 40
31.09926529584901
100
AcDbArc
 50
305.2519416012
 51
308.3081465626
  0
ARC
  5
3D7
330
1F
100
AcDbEntity
  8
0
  6
Continuous
 62
     7
370
    25
100
AcDbCircle
 10
10952.1446046705
 20
9316.7682449502
 30
0.0
 40
42.81531300926589
100
AcDbArc
 50
308.3081470678
 51
310.140427126
  0
ARC
  5
3D8
330
1F
100
AcDbEntity
  8
0
  6
Continuous
 62
     7
370
    25
100
AcDbCircle
 10
10979.4785902222
 20
9284.3545399256
 30
0.0
 40
0.4148998088203533
100
AcDbArc
 50
310.1404227551
 51
0.0000160063
  0
ARC
  5
3D9
330
1F
100
AcDbEntity
  8
0
  6
Continuous
 62
     7
370
    25
100
AcDbCircle
 10
10978.5469766799
 20
9284.354541401
 30
0.0
 40
1.346513351155713
100
AcDbArc
 50
359.99994215
 51
17.8968244994
  0
ARC
  5
3DA
330
1F
100
AcDbEntity
  8
0
  6
Continuous
 62
     7
370
    25
100
AcDbCircle
 10
11106.8864077064
 20
9339.9008963334
 30
0.0
 40
137.9752126625891
100
AcDbArc
 50
196.7194308597
 51
198.9857488711
  0
ARC
  5
3DB
330
1F
100
AcDbEntity
  8
0
  6
Continuous
 62
     7
370
    25
100
AcDbCircle
 10
10991.7328174103
 20
9305.3105900929
 30
0.0
 40
17.73861821690952
100
AcDbArc
 50
186.4431004804
 51
196.7194253132
  0
ARC
  5
3DC
330
1F
100
AcDbEntity
  8
0
  6
Continuous
 62
     7
370
    25
100
AcDbCircle
 10
10979.5634237856
 20
9303.9363051038
 30
0.0
 40
5.491871692861913
100
AcDbArc
 50
165.7833981153
 51
186.4431165009
  0
ARC
  5
3DD
330
1F
100
AcDbEntity
  8
0
  6
Continuous
 62
     7
370
    25
100
AcDbCircle
 10
10976.2080719331
 20
9304.7863727508
 30
0.0
 40
2.030513425033033
100
AcDbArc
 50
122.4087307417
 51
165.7833580807
  0
ARC
  5
3DE
330
1F
100
AcDbEntity
  8
0
  6
Continuous
 62
     7
370
    25
100
AcDbCircle
 10
10979.4285958172
 20
9299.7133425791
 30
0.0
 40
8.039457526248363
100
AcDbArc
 50
101.0242594891
 51
122.4087101332
  0
ARC
  5
3DF
330
1F
100
AcDbEntity
  8
0
  6
Continuous
 62
     7
370
    25
100
AcDbCircle
 10
10978.6879760907
 20
9303.5149186356
 30
0.0
 40
4.16640987713326
100
AcDbArc
 50
66.0647524762
 51
101.0242915471
  0
ARC
  5
3E0
330
1F
100
AcDbEntity
  8
0
  6
Continuous
 62
     7
370
    25
100
AcDbCircle
 10
10976.3907138395
 20
9298.3394632299
 30
0.0
 40
9.828808000438196
100
AcDbArc
 50
46.0757888246
 51
66.0647206483
  0
ARC
  5
3E1
330
1F
100
AcDbEntity
  8
0
  6
Continuous
 62
     7
370
    25
100
AcDbCircle
 10
10922.0099886568
 20
9241.8773644133
 30
0.0
 40
88.22033735260493
100
AcDbArc
 50
42.0959371264
 51
46.0757602856
  0
ARC
  5
3E2
330
1F
100
AcDbEntity
  8
0
  6
Continuous
 62
     7
370
    25
100
AcDbCircle
 10
11038.0506844337
 20
9346.7132209934
 30
0.0
 40
68.16380475037266
100
AcDbArc
 50
222.0959293934
 51
227.1343959329
  0
ARC
  5
3E3
330
1F
100
AcDbEntity
  8
0
  6
Continuous
 62
     7
370
    25
100
AcDbCircle
 10
10998.9284879759
 20
9304.5619931258
 30
0.0
 40
10.65491616405553
100
AcDbArc
 50
227.1343454033
 51
246.9877135251
  0
ARC
  5
3E4
330
1F
100
AcDbEntity
  8
0
  6
Continuous
 62
     7
370
    25
100
AcDbCircle
 10
10997.1657428229
 20
9300.4116876578
 30
0.0
 40
6.145780332012595
100
AcDbArc
 50
246.987666847
 51
275.2936465227
  0
ARC
  5
3E5
330
1F
100
AcDbEntity
  8
0
  6
Continuous
 62
     7
370
    25
100
AcDbCircle
 10
10996.485189999
 20
9307.7565880588
 30
0.0
 40
13.52214217555158
100
AcDbArc
 50
275.2936823208
 51
290.9935605365
  0
ARC
  5
3E6
330
1F
100
AcDbEntity
  8
0
  6
Continuous
 62
     7
370
    25
100
AcDbCircle
 10
11000.3688149012
 20
9297.6359868191
 30
0.0
 40
2.681980191723315
100
AcDbArc
 50
290.9936587602
 51
327.2130772204
  0
ARC
  5
3E7
330
1F
100
AcDbEntity
  8
0
  6
Continuous
 62
     7
370
    25
100
AcDbCircle
 10
10998.8766896828
 20
9298.597106365
 30
0.0
 40
4.456857215306496
100
AcDbArc
 50
327.2131593728
 51
351.9819539437
  0
ARC
  5
3E8
330
1F
100
AcDbEntity
  8
0
  6
Continuous
 62
     7
370
    25
100
AcDbCircle
 10
10988.5183478185
 20
9300.0562237335
 30
0.0
 40
14.91746282270599
100
AcDbArc
 50
351.9818768353
 51
3.7147298454
  0
ARC
  5
3E9
330
1F
100
AcDbEntity
  8
0
  6
Continuous
 62
     7
370
    25
100
AcDbCircle
 10
10862.7718816126
 20
9291.8923254242
 30
0.0
 40
140.9286647012604
100
AcDbArc
 50
3.7146389424
 51
5.9669780989
  0
ARC
  5
3EA
330
1F
100
AcDbEntity
  8
0
  6
Continuous
 62
     7
370
    25
100
AcDbCircle
 10
11116.1259809753
 20
9318.3732235098
 30
0.0
 40
113.8055843256821
100
AcDbArc
 50
183.3380996695
 51
185.9669438864
  0
ARC
  5
3EB
330
1F
100
AcDbEntity
  8
0
  6
Continuous
 62
     7
370
    25
100
AcDbCircle
 10
11021.7944256267
 20
9312.8711845762
 30
0.0
 40
19.31370760120241
100
AcDbArc
 50
173.5758319544
 51
183.3381661416
  0
ARC
  5
3EC
330
1F
100
AcDbEntity
  8
0
  6
Continuous
 62
     7
370
    25
100
AcDbCircle
 10
11010.0095119422
 20
9314.1981035872
 30
0.0
 40
7.454327153155637
100
AcDbArc
 50
156.6222564099
 51
173.5757963784
  0
ARC
  5
3ED
330
1F
100
AcDbEntity
  8
0
  6
Continuous
 62
     7
370
    25
100
AcDbCircle
 10
11005.8305299037
 20
9316.0045859305
 30
0.0
 40
2.901606061930569
100
AcDbArc
 50
122.3387685345
 51
156.6222982482
  0
ARC
  5
3EE
330
1F
100
AcDbEntity
  8
0
  6
Continuous
 62
     7
370
    25
100
AcDbCircle
 10
11008.9686874259
 20
9311.0479502025
 30
0.0
 40
8.76814425524398
100
AcDbArc
 50
101.0647736138
 51
122.3388032208
  0
ARC
  5
3EF
330
1F
100
AcDbEntity
  8
0
  6
Continuous
 62
     7
370
    25
100
AcDbCircle
 10
11007.8755008788
 20
9316.6381488061
 30
0.0
 40
3.072059876076879
100
AcDbArc
 50
54.6030583418
 51
101.0647371206
  0
ARC
  5
3F0
330
1F
100
AcDbEntity
  8
0
  6
Continuous
 62
     7
370
    25
100
AcDbCircle
 10
11004.7244994322
 20
9312.2037528121
 30
0.0
 40
8.511975128014129
100
AcDbArc
 50
31.1575010818
 51
54.6030776872
  0
ARC
  5
3F1
330
1F
100
AcDbEntity
  8
0
  6
Continuous
 62
     7
370
    25
100
AcDbCircle
 10
10915.3967732494
 20
9258.1956758355
 30
0.0
 40
112.8973909852701
100
AcDbArc
 50
27.6177345887
 51
31.157415527
  0
ARC
  5
3F2
330
1F
100
AcDbEntity
  8
0
  6
Continuous
 62
     7
370
    25
100
AcDbCircle
 10
11048.1348836297
 20
9327.6417585839
 30
0.0
 40
36.90969948923683
100
AcDbArc
 50
207.6176686361
 51
221.9679789676
  0
ARC
  5
3F3
330
1F
100
AcDbEntity
  8
0
  6
Continuous
 62
     7
370
    25
100
AcDbCircle
 10
11024.8314707118
 20
9306.682841827
 30
0.0
 40
5.56763119046554
100
AcDbArc
 50
221.967979616
 51
279.8359376398
  0
ARC
  5
3F4
330
1F
100
AcDbEntity
  8
0
  6
Continuous
 62
     7
370
    25
100
AcDbCircle
 10
11024.8047118892
 20
9306.8371789339
 30
0.0
 40
5.72427083153728
100
AcDbArc
 50
279.8359422879
 51
336.6396252772
  0
ARC
  5
3F5
330
1F
100
AcDbEntity
  8
0
  6
Continuous
 62
     7
370
    25
100
AcDbCircle
 10
10994.8064467867
 20
9319.7939548229
 30
0.0
 40
38.40108142559904
100
AcDbArc
 50
336.6396367624
 51
350.6034188441
  0
ARC
  5
3F6
330
1F
100
AcDbEntity
  8
0
  6
Continuous
 62
     7
370
    25
100
AcDbCircle
 10
11141.8617621973
 20
9295.4582715586
 30
0.0
 40
110.6542481351647
100
AcDbArc
 50
169.0657004437
 51
170.6034960497
  0
ARC
  5
3F7
330
1F
100
AcDbEntity
  8
0
  6
Continuous
 62
     7
370
    25
100
AcDbCircle
 10
11111.1805337491
 20
9301.3857821563
 30
0.0
 40
79.4056775930422
100
AcDbArc
 50
167.0937608068
 51
169.0658328799
  0
ARC
  5
3F8
330
1F
100
AcDbEntity
  8
0
  6
Continuous
 62
     7
370
    25
100
AcDbCircle
 10
11114.584652716
 20
9300.6058487926
 30
0.0
 40
82.89800088598759
100
AcDbArc
 50
165.5173051251
 51
167.0938309401
  0
ARC
  5
3F9
330
1F
100
AcDbEntity
  8
0
  6
Continuous
 62
     7
370
    25
100
AcDbCircle
 10
11037.5714001321
 20
9320.4980172463
 30
0.0
 40
3.357197273379174
100
AcDbArc
 50
149.3934478464
 51
165.5173269194
  0
ARC
  5
3FA
330
1F
100
AcDbEntity
  8
0
  6
Continuous
 62
     7
370
    25
100
AcDbCircle
 10
11035.7527721417
 20
9321.5738339245
 30
0.0
 40
1.244192471529953
100
AcDbArc
 50
114.2846809993
 51
149.393541108
  0
MTEXT
  5
3FC
330
1F
100
AcDbEntity
  8
0
  6
Continuous
 62
     7
100
AcDbMText
 10
10914.4604044379
 20
9073.402478751
 30
0.0
 40
4.83362
 41
0.0
 71
     1
 72
     1
  1
SOLIDWORKS Educational Product.
  7
SLDTEXTSTYLE0
 73
     1
 44
1.0
  0
MTEXT
  5
3FD
330
1F
100
AcDbEntity
  8
0
  6
Continuous
 62
     7
100
AcDbMText
 10
10914.4604044379
 20
9066.152048751
 30
0.0
 40
4.83362
 41
0.0
 71
     1
 72
     1
  1
For Instructional Use Only.
  7
SLDTEXTSTYLE0
 73
     1
 44
1.0
  0
ENDSEC
  0
SECTION
  2
OBJECTS
  0
DICTIONARY
  5
C
330
0
100
AcDbDictionary
281
     1
  3
ACAD_GROUP
350
D
  3
ACAD_LAYOUT
350
1A
  3
ACAD_MLINESTYLE
350
17
  3
ACAD_PLOTSETTINGS
350
19
  3
ACAD_PLOTSTYLENAME
350
E
  3
ACAD_SCALELIST
350
47
  3
DWGPROPS
350
3FE
  0
DICTIONARY
  5
D
102
{ACAD_REACTORS
330
C
102
}
330
C
100
AcDbDictionary
281
     1
  0
DICTIONARY
  5
1A
102
{ACAD_REACTORS
330
C
102
}
330
C
100
AcDbDictionary
281
     1
  3
Layout1
350
1E
  3
Layout2
350
26
  3
Model
350
22
  0
DICTIONARY
  5
17
102
{ACAD_REACTORS
330
C
102
}
330
C
100
AcDbDictionary
281
     1
  3
Standard
350
18
  0
DICTIONARY
  5
19
102
{ACAD_REACTORS
330
C
102
}
330
C
100
AcDbDictionary
281
     1
  0
ACDBDICTIONARYWDFLT
  5
E
102
{ACAD_REACTORS
330
C
102
}
330
C
100
AcDbDictionary
281
     1
  3
Normal
350
F
100
AcDbDictionaryWithDefault
340
F
  0
DICTIONARY
  5
47
102
{ACAD_REACTORS
330
C
102
}
330
C
100
AcDbDictionary
281
     1
  3
A0
350
48
  3
A1
350
49
  3
A2
350
4A
  3
A3
350
4B
  3
A4
350
4C
  3
A5
350
4D
  3
A6
350
4E
  3
A7
350
4F
  3
A8
350
50
  3
A9
350
51
  3
B0
350
52
  3
B1
350
53
  3
B2
350
54
  3
B3
350
55
  3
B4
350
56
  3
B5
350
57
  3
B6
350
58
  0
XRECORD
  5
3FE
102
{ACAD_REACTORS
330
C
102
}
330
C
100
AcDbXrecord
280
     1
  1
DWGPROPS COOKIE
  2

  3

  4

  6

  7

  8
anast
  9

300
=
301
=
302
=
303
=
304
=
305
=
306
=
307
=
308
=
309
=
 40
0.0
 41
2460804.594145834
 42
2460804.594176817
  1

 90
        0
  0
LAYOUT
  5
1E
102
{ACAD_REACTORS
330
1A
102
}
330
1A
100
AcDbPlotSettings
  1

  2
none_device
  4

  6

 40
0.0
 41
0.0
 42
0.0
 43
0.0
 44
0.0
 45
0.0
 46
0.0
 47
0.0
 48
0.0
 49
0.0
140
0.0
141
0.0
142
1.0
143
1.0
 70
   688
 72
     1
 73
     0
 74
     5
  7

 75
    16
147
1.0
148
0.0
149
0.0
100
AcDbLayout
  1
Layout1
 70
     1
 71
     1
 10
0.0
 20
0.0
 11
420.0
 21
297.0
 12
0.0
 22
0.0
 32
0.0
 14
1.0000000000E+20
 24
1.0000000000E+20
 34
1.0000000000E+20
 15
-1.0000000000E+20
 25
-1.0000000000E+20
 35
-1.0000000000E+20
146
0.0
 13
0.0
 23
0.0
 33
0.0
 16
1.0
 26
0.0
 36
0.0
 17
0.0
 27
1.0
 37
0.0
 76
     0
330
1B
  0
LAYOUT
  5
26
102
{ACAD_REACTORS
330
1A
102
}
330
1A
100
AcDbPlotSettings
  1

  2
none_device
  4

  6

 40
0.0
 41
0.0
 42
0.0
 43
0.0
 44
0.0
 45
0.0
 46
0.0
 47
0.0
 48
0.0
 49
0.0
140
0.0
141
0.0
142
1.0
143
1.0
 70
   688
 72
     1
 73
     0
 74
     5
  7

 75
    16
147
1.0
148
0.0
149
0.0
100
AcDbLayout
  1
Layout2
 70
     1
 71
     2
 10
0.0
 20
0.0
 11
0.0
 21
0.0
 12
0.0
 22
0.0
 32
0.0
 14
0.0
 24
0.0
 34
0.0
 15
0.0
 25
0.0
 35
0.0
146
0.0
 13
0.0
 23
0.0
 33
0.0
 16
1.0
 26
0.0
 36
0.0
 17
0.0
 27
1.0
 37
0.0
 76
     0
330
23
  0
LAYOUT
  5
22
102
{ACAD_REACTORS
330
1A
102
}
330
1A
100
AcDbPlotSettings
  1

  2
none_device
  4
ANSI_A_(11.00_x_8.50_Inches)
  6

 40
6.35
 41
19.05
 42
6.35000508
 43
19.05000254
 44
279.4
 45
215.9
 46
-9339.1127682106
 47
-7804.8506519768
 48
0.0
 49
0.0
140
0.0
141
0.0
142
0.0337839791
143
1.0
 70
  1696
 72
     0
 73
     0
 74
     0
  7

 75
     0
147
0.0179189148
148
-1300.4909072572
149
0.0
100
AcDbLayout
  1
Model
 70
     1
 71
     0
 10
0.0
 20
0.0
 11
420.0
 21
297.0
 12
0.0
 22
0.0
 32
0.0
 14
10914.4604044379
 24
9074.4220451426
 34
0.0
 15
11162.962974113
 25
9323.5046051426
 35
0.0
146
0.0
 13
0.0
 23
0.0
 33
0.0
 16
1.0
 26
0.0
 36
0.0
 17
0.0
 27
1.0
 37
0.0
 76
     0
330
1F
331
29
  0
MLINESTYLE
  5
18
102
{ACAD_REACTORS
330
17
102
}
330
17
100
AcDbMlineStyle
  2
Standard
 70
     0
  3

 62
   256
 51
90.0
 52
90.0
 71
     2
 49
0.5
 62
   256
  6
BYLAYER
 49
-0.5
 62
   256
  6
BYLAYER
  0
ACDBPLACEHOLDER
  5
F
102
{ACAD_REACTORS
330
E
102
}
330
E
  0
SCALE
  5
48
102
{ACAD_REACTORS
330
47
102
}
330
47
100
AcDbScale
 70
     0
300
1:1
140
1.0
141
1.0
290
     1
  0
SCALE
  5
49
102
{ACAD_REACTORS
330
47
102
}
330
47
100
AcDbScale
 70
     0
300
1:2
140
1.0
141
2.0
290
     0
  0
SCALE
  5
4A
102
{ACAD_REACTORS
330
47
102
}
330
47
100
AcDbScale
 70
     0
300
1:4
140
1.0
141
4.0
290
     0
  0
SCALE
  5
4B
102
{ACAD_REACTORS
330
47
102
}
330
47
100
AcDbScale
 70
     0
300
1:5
140
1.0
141
5.0
290
     0
  0
SCALE
  5
4C
102
{ACAD_REACTORS
330
47
102
}
330
47
100
AcDbScale
 70
     0
300
1:8
140
1.0
141
8.0
290
     0
  0
SCALE
  5
4D
102
{ACAD_REACTORS
330
47
102
}
330
47
100
AcDbScale
 70
     0
300
1:10
140
1.0
141
10.0
290
     0
  0
SCALE
  5
4E
102
{ACAD_REACTORS
330
47
102
}
330
47
100
AcDbScale
 70
     0
300
1:16
140
1.0
141
16.0
290
     0
  0
SCALE
  5
4F
102
{ACAD_REACTORS
330
47
102
}
330
47
100
AcDbScale
 70
     0
300
1:20
140
1.0
141
20.0
290
     0
  0
SCALE
  5
50
102
{ACAD_REACTORS
330
47
102
}
330
47
100
AcDbScale
 70
     0
300
1:30
140
1.0
141
30.0
290
     0
  0
SCALE
  5
51
102
{ACAD_REACTORS
330
47
102
}
330
47
100
AcDbScale
 70
     0
300
1:40
140
1.0
141
40.0
290
     0
  0
SCALE
  5
52
102
{ACAD_REACTORS
330
47
102
}
330
47
100
AcDbScale
 70
     0
300
1:50
140
1.0
141
50.0
290
     0
  0
SCALE
  5
53
102
{ACAD_REACTORS
330
47
102
}
330
47
100
AcDbScale
 70
     0
300
1:100
140
1.0
141
100.0
290
     0
  0
SCALE
  5
54
102
{ACAD_REACTORS
330
47
102
}
330
47
100
AcDbScale
 70
     0
300
2:1
140
2.0
141
1.0
290
     0
  0
SCALE
  5
55
102
{ACAD_REACTORS
330
47
102
}
330
47
100
AcDbScale
 70
     0
300
4:1
140
4.0
141
1.0
290
     0
  0
SCALE
  5
56
102
{ACAD_REACTORS
330
47
102
}
330
47
100
AcDbScale
 70
     0
300
8:1
140
8.0
141
1.0
290
     0
  0
SCALE
  5
57
102
{ACAD_REACTORS
330
47
102
}
330
47
100
AcDbScale
 70
     0
300
10:1
140
10.0
141
1.0
290
     0
  0
SCALE
  5
58
102
{ACAD_REACTORS
330
47
102
}
330
47
100
AcDbScale
 70
     0
300
100:1
140
100.0
141
1.0
290
     0
  0
ENDSEC
  0
EOF
