  0
SECTION
  2
HEADER
  9
$ACADVER
  1
AC1015
  9
$ACADMAINTVER
 70
     6
  9
$DWGCODEPAGE
  3
ANSI_1252
  9
$INSBASE
 10
0.0
 20
0.0
 30
0.0
  9
$EXTMIN
 10
0.0
 20
0.0
 30
0.0
  9
$EXTMAX
 10
900.0
 20
705.0
 30
0.0
  9
$LIMMIN
 10
0.0
 20
0.0
  9
$LIMMAX
 10
420.0
 20
297.0
  9
$ORTHOMODE
 70
     0
  9
$REGENMODE
 70
     1
  9
$FILLMODE
 70
     1
  9
$QTEXTMODE
 70
     0
  9
$MIRRTEXT
 70
     1
  9
$LTSCALE
 40
1.0
  9
$ATTMODE
 70
     1
  9
$TEXTSIZE
 40
3.5
  9
$TRACEWID
 40
1.0
  9
$TEXTSTYLE
  7
Standard
  9
$CLAYER
  8
0
  9
$CELTYPE
  6
ByLayer
  9
$CECOLOR
 62
   256
  9
$CELTSCALE
 40
1.0
  9
$DISPSILH
 70
     0
  9
$DIMSCALE
 40
1.0
  9
$DIMASZ
 40
3.302
  9
$DIMEXO
 40
0.0
  9
$DIMDLI
 40
3.75
  9
$DIMRND
 40
0.0
  9
$DIMDLE
 40
0.0
  9
$DIMEXE
 40
1.0
  9
$DIMTP
 40
0.0
  9
$DIMTM
 40
0.0
  9
$DIMTXT
 40
3.5
  9
$DIMCEN
 40
2.5
  9
$DIMTSZ
 40
0.0
  9
$DIMTOL
 70
     0
  9
$DIMLIM
 70
     0
  9
$DIMTIH
 70
     1
  9
$DIMTOH
 70
     1
  9
$DIMSE1
 70
     0
  9
$DIMSE2
 70
     0
  9
$DIMTAD
 70
     1
  9
$DIMZIN
 70
     1
  9
$DIMBLK
  1

  9
$DIMASO
 70
     1
  9
$DIMSHO
 70
     1
  9
$DIMPOST
  1

  9
$DIMAPOST
  1

  9
$DIMALT
 70
     0
  9
$DIMALTD
 70
     3
  9
$DIMALTF
 40
0.0393700787
  9
$DIMLFAC
 40
1.0
  9
$DIMTOFL
 70
     1
  9
$DIMTVP
 40
0.0
  9
$DIMTIX
 70
     0
  9
$DIMSOXD
 70
     0
  9
$DIMSAH
 70
     0
  9
$DIMBLK1
  1

  9
$DIMBLK2
  1

  9
$DIMSTYLE
  2
ISO-25
  9
$DIMCLRD
 70
     0
  9
$DIMCLRE
 70
     0
  9
$DIMCLRT
 70
     0
  9
$DIMTFAC
 40
1.0
  9
$DIMGAP
 40
1.524
  9
$DIMJUST
 70
     0
  9
$DIMSD1
 70
     0
  9
$DIMSD2
 70
     0
  9
$DIMTOLJ
 70
     0
  9
$DIMTZIN
 70
     1
  9
$DIMALTZ
 70
     0
  9
$DIMALTTZ
 70
     0
  9
$DIMUPT
 70
     0
  9
$DIMDEC
 70
     2
  9
$DIMTDEC
 70
     2
  9
$DIMALTU
 70
     2
  9
$DIMALTTD
 70
     3
  9
$DIMTXSTY
  7
Standard
  9
$DIMAUNIT
 70
     0
  9
$DIMADEC
 70
     2
  9
$DIMALTRND
 40
0.0
  9
$DIMAZIN
 70
     0
  9
$DIMDSEP
 70
    44
  9
$DIMATFIT
 70
     3
  9
$DIMFRAC
 70
     0
  9
$DIMLDRBLK
  1

  9
$DIMLUNIT
 70
     2
  9
$DIMLWD
 70
    -2
  9
$DIMLWE
 70
    -2
  9
$DIMTMOVE
 70
     0
  9
$LUNITS
 70
     2
  9
$LUPREC
 70
     6
  9
$SKETCHINC
 40
1.0
  9
$FILLETRAD
 40
0.0
  9
$AUNITS
 70
     0
  9
$AUPREC
 70
     2
  9
$MENU
  1
.
  9
$ELEVATION
 40
0.0
  9
$PELEVATION
 40
0.0
  9
$THICKNESS
 40
0.0
  9
$LIMCHECK
 70
     0
  9
$CHAMFERA
 40
0.0
  9
$CHAMFERB
 40
0.0
  9
$CHAMFERC
 40
0.0
  9
$CHAMFERD
 40
0.0
  9
$SKPOLY
 70
     0
  9
$TDCREATE
 40
2460812.828641262
  9
$TDUCREATE
 40
2460812.745307929
  9
$TDUPDATE
 40
2460812.828682373
  9
$TDUUPDATE
 40
2460812.74534904
  9
$TDINDWG
 40
0.0000000116
  9
$TDUSRTIMER
 40
0.0000000116
  9
$USRTIMER
 70
     1
  9
$ANGBASE
 50
0.0
  9
$ANGDIR
 70
     0
  9
$PDMODE
 70
     0
  9
$PDSIZE
 40
-1.0
  9
$PLINEWID
 40
0.0
  9
$SPLFRAME
 70
     0
  9
$SPLINETYPE
 70
     6
  9
$SPLINESEGS
 70
     8
  9
$HANDSEED
  5
18C
  9
$SURFTAB1
 70
     6
  9
$SURFTAB2
 70
     6
  9
$SURFTYPE
 70
     6
  9
$SURFU
 70
     6
  9
$SURFV
 70
     6
  9
$UCSBASE
  2

  9
$UCSNAME
  2

  9
$UCSORG
 10
0.0
 20
0.0
 30
0.0
  9
$UCSXDIR
 10
1.0
 20
0.0
 30
0.0
  9
$UCSYDIR
 10
0.0
 20
1.0
 30
0.0
  9
$UCSORTHOREF
  2

  9
$UCSORTHOVIEW
 70
     0
  9
$UCSORGTOP
 10
0.0
 20
0.0
 30
0.0
  9
$UCSORGBOTTOM
 10
0.0
 20
0.0
 30
0.0
  9
$UCSORGLEFT
 10
0.0
 20
0.0
 30
0.0
  9
$UCSORGRIGHT
 10
0.0
 20
0.0
 30
0.0
  9
$UCSORGFRONT
 10
0.0
 20
0.0
 30
0.0
  9
$UCSORGBACK
 10
0.0
 20
0.0
 30
0.0
  9
$PUCSBASE
  2

  9
$PUCSNAME
  2

  9
$PUCSORG
 10
0.0
 20
0.0
 30
0.0
  9
$PUCSXDIR
 10
1.0
 20
0.0
 30
0.0
  9
$PUCSYDIR
 10
0.0
 20
1.0
 30
0.0
  9
$PUCSORTHOREF
  2

  9
$PUCSORTHOVIEW
 70
     0
  9
$PUCSORGTOP
 10
0.0
 20
0.0
 30
0.0
  9
$PUCSORGBOTTOM
 10
0.0
 20
0.0
 30
0.0
  9
$PUCSORGLEFT
 10
0.0
 20
0.0
 30
0.0
  9
$PUCSORGRIGHT
 10
0.0
 20
0.0
 30
0.0
  9
$PUCSORGFRONT
 10
0.0
 20
0.0
 30
0.0
  9
$PUCSORGBACK
 10
0.0
 20
0.0
 30
0.0
  9
$USERI1
 70
     0
  9
$USERI2
 70
     0
  9
$USERI3
 70
     0
  9
$USERI4
 70
     0
  9
$USERI5
 70
     0
  9
$USERR1
 40
0.0
  9
$USERR2
 40
0.0
  9
$USERR3
 40
0.0
  9
$USERR4
 40
0.0
  9
$USERR5
 40
0.0
  9
$WORLDVIEW
 70
     1
  9
$SHADEDGE
 70
     3
  9
$SHADEDIF
 70
    70
  9
$TILEMODE
 70
     1
  9
$MAXACTVP
 70
    64
  9
$PINSBASE
 10
0.0
 20
0.0
 30
0.0
  9
$PLIMCHECK
 70
     0
  9
$PEXTMIN
 10
1.0000000000E+20
 20
1.0000000000E+20
 30
1.0000000000E+20
  9
$PEXTMAX
 10
-1.0000000000E+20
 20
-1.0000000000E+20
 30
-1.0000000000E+20
  9
$PLIMMIN
 10
0.0
 20
0.0
  9
$PLIMMAX
 10
420.0
 20
297.0
  9
$UNITMODE
 70
     0
  9
$VISRETAIN
 70
     1
  9
$PLINEGEN
 70
     0
  9
$PSLTSCALE
 70
     1
  9
$TREEDEPTH
 70
  3020
  9
$CMLSTYLE
  2
Standard
  9
$CMLJUST
 70
     0
  9
$CMLSCALE
 40
20.0
  9
$PROXYGRAPHICS
 70
     1
  9
$MEASUREMENT
 70
     1
  9
$CELWEIGHT
370
    -1
  9
$ENDCAPS
280
     0
  9
$JOINSTYLE
280
     0
  9
$LWDISPLAY
290
     1
  9
$INSUNITS
 70
     4
  9
$HYPERLINKBASE
  1

  9
$STYLESHEET
  1

  9
$XEDIT
290
     1
  9
$CEPSNTYPE
380
     0
  9
$PSTYLEMODE
290
     1
  9
$FINGERPRINTGUID
  2
{bc3272b1-98ad-475c-a439-4a6b9d60cdb0}
  9
$VERSIONGUID
  2
{FAEB1C32-E019-11D5-929B-00C0DF256EC4}
  9
$EXTNAMES
290
     1
  9
$PSVPSCALE
 40
0.0
  9
$OLESTARTUP
290
     0
  0
ENDSEC
  0
SECTION
  2
CLASSES
  0
CLASS
  1
ACDBDICTIONARYWDFLT
  2
AcDbDictionaryWithDefault
  3
ObjectDBX Classes
 90
        0
280
     0
281
     0
  0
CLASS
  1
VISUALSTYLE
  2
AcDbVisualStyle
  3
ObjectDBX Classes
 90
     4095
280
     0
281
     0
  0
CLASS
  1
MATERIAL
  2
AcDbMaterial
  3
ObjectDBX Classes
 90
     1153
280
     0
281
     0
  0
CLASS
  1
SCALE
  2
AcDbScale
  3
ObjectDBX Classes
 90
     1153
280
     0
281
     0
  0
CLASS
  1
TABLESTYLE
  2
AcDbTableStyle
  3
ObjectDBX Classes
 90
     4095
280
     0
281
     0
  0
CLASS
  1
MLEADERSTYLE
  2
AcDbMLeaderStyle
  3
ACDB_MLEADERSTYLE_CLASS
 90
     4095
280
     0
281
     0
  0
CLASS
  1
SUN
  2
AcDbSun
  3
SCENEOE
 90
     1153
280
     0
281
     0
  0
CLASS
  1
ACDBPLACEHOLDER
  2
AcDbPlaceHolder
  3
ObjectDBX Classes
 90
        0
280
     0
281
     0
  0
CLASS
  1
LAYOUT
  2
AcDbLayout
  3
ObjectDBX Classes
 90
        0
280
     0
281
     0
  0
ENDSEC
  0
SECTION
  2
TABLES
  0
TABLE
  2
VPORT
  5
8
330
0
100
AcDbSymbolTable
 70
     1
  0
VPORT
  5
29
330
8
100
AcDbSymbolTableRecord
100
AcDbViewportTableRecord
  2
*Active
 70
     0
 10
0.0
 20
0.0
 11
1.0
 21
1.0
 12
450.0
 22
352.5
 13
0.0
 23
0.0
 14
10.0
 24
10.0
 15
10.0
 25
10.0
 16
0.0
 26
0.0
 36
1.0
 17
0.0
 27
0.0
 37
0.0
 40
719.1
 41
1.2765957447
 42
50.0
 43
0.0
 44
0.0
 50
0.0
 51
0.0
 71
     0
 72
   100
 73
     1
 74
     3
 75
     0
 76
     0
 77
     0
 78
     0
281
     0
 65
     1
110
0.0
120
0.0
130
0.0
111
1.0
121
0.0
131
0.0
112
0.0
122
1.0
132
0.0
 79
     0
146
0.0
  0
ENDTAB
  0
TABLE
  2
LTYPE
  5
5
330
0
100
AcDbSymbolTable
 70
     6
  0
LTYPE
  5
14
330
5
100
AcDbSymbolTableRecord
100
AcDbLinetypeTableRecord
  2
ByBlock
 70
     0
  3

 72
    65
 73
     0
 40
0.0
  0
LTYPE
  5
15
330
5
100
AcDbSymbolTableRecord
100
AcDbLinetypeTableRecord
  2
ByLayer
 70
     0
  3

 72
    65
 73
     0
 40
0.0
  0
LTYPE
  5
16
330
5
100
AcDbSymbolTableRecord
100
AcDbLinetypeTableRecord
  2
Continuous
 70
     0
  3
Solid line
 72
    65
 73
     0
 40
0.0
  0
LTYPE
  5
5E
330
5
100
AcDbSymbolTableRecord
100
AcDbLinetypeTableRecord
  2
HIDDEN
 70
     0
  3
Hidden __ __ __ __ __ __ __ __ __ __ __ __ __ __
 72
    65
 73
     2
 40
1.905
 49
1.27
 74
     0
 49
-0.635
 74
     0
  0
LTYPE
  5
5F
330
5
100
AcDbSymbolTableRecord
100
AcDbLinetypeTableRecord
  2
PHANTOM
 70
     0
  3
Phantom ______  __  __  ______  __  __  ______
 72
    65
 73
     6
 40
12.7
 49
6.35
 74
     0
 49
-1.27
 74
     0
 49
1.27
 74
     0
 49
-1.27
 74
     0
 49
1.27
 74
     0
 49
-1.27
 74
     0
  0
LTYPE
  5
60
330
5
100
AcDbSymbolTableRecord
100
AcDbLinetypeTableRecord
  2
CENTER
 70
     0
  3
Center ____ _ ____ _ ____ _ ____ _ ____ _ ____
 72
    65
 73
     4
 40
10.16
 49
6.35
 74
     0
 49
-1.27
 74
     0
 49
1.27
 74
     0
 49
-1.27
 74
     0
  0
LTYPE
  5
61
330
5
100
AcDbSymbolTableRecord
100
AcDbLinetypeTableRecord
  2
CENTERX2
 70
     0
  3
Center (2x) ________  __  ________  __  _____
 72
    65
 73
     4
 40
20.32
 49
12.7
 74
     0
 49
-2.54
 74
     0
 49
2.54
 74
     0
 49
-2.54
 74
     0
  0
LTYPE
  5
62
330
5
100
AcDbSymbolTableRecord
100
AcDbLinetypeTableRecord
  2
DOT2
 70
     0
  3
Dot (.5x) ........................................
 72
    65
 73
     2
 40
0.635
 49
0.0
 74
     0
 49
-0.635
 74
     0
  0
ENDTAB
  0
TABLE
  2
LAYER
  5
2
330
0
100
AcDbSymbolTable
 70
     1
  0
LAYER
  5
10
330
2
100
AcDbSymbolTableRecord
100
AcDbLayerTableRecord
  2
0
 70
     0
 62
     7
  6
Continuous
370
    -3
390
F
  0
ENDTAB
  0
TABLE
  2
STYLE
  5
3
330
0
100
AcDbSymbolTable
 70
     2
  0
STYLE
  5
11
330
3
100
AcDbSymbolTableRecord
100
AcDbTextStyleTableRecord
  2
Standard
 70
     0
 40
0.0
 41
1.0
 50
0.0
 71
     0
 42
3.5
  3
txt
  4

  0
STYLE
  5
188
330
3
100
AcDbSymbolTableRecord
100
AcDbTextStyleTableRecord
  2
SLDTEXTSTYLE0
 70
     0
 40
0.0
 41
0.7
 50
0.0
 71
     0
 42
3.5
  3
TXT
  4

  0
ENDTAB
  0
TABLE
  2
VIEW
  5
6
330
0
100
AcDbSymbolTable
 70
     0
  0
ENDTAB
  0
TABLE
  2
UCS
  5
7
330
0
100
AcDbSymbolTable
 70
     0
  0
ENDTAB
  0
TABLE
  2
APPID
  5
9
330
0
100
AcDbSymbolTable
 70
     1
  0
APPID
  5
12
330
9
100
AcDbSymbolTableRecord
100
AcDbRegAppTableRecord
  2
ACAD
 70
     0
  0
ENDTAB
  0
TABLE
  2
DIMSTYLE
  5
A
330
0
100
AcDbSymbolTable
 70
     1
100
AcDbDimStyleTable
  0
DIMSTYLE
105
27
330
A
100
AcDbSymbolTableRecord
100
AcDbDimStyleTableRecord
  2
ISO-25
 70
     0
 41
2.5
 42
0.625
 43
3.75
 44
1.25
 73
     0
 74
     0
 77
     1
 78
     8
140
2.5
141
2.5
143
0.0393700787
147
0.625
171
     3
172
     1
178
     0
271
     2
272
     2
274
     3
278
    44
283
     0
284
     8
340
11
  0
ENDTAB
  0
TABLE
  2
BLOCK_RECORD
  5
1
330
0
100
AcDbSymbolTable
 70
     1
  0
BLOCK_RECORD
  5
1F
330
1
100
AcDbSymbolTableRecord
100
AcDbBlockTableRecord
  2
*Model_Space
340
22
  0
BLOCK_RECORD
  5
1B
330
1
100
AcDbSymbolTableRecord
100
AcDbBlockTableRecord
  2
*Paper_Space
340
1E
  0
BLOCK_RECORD
  5
23
330
1
100
AcDbSymbolTableRecord
100
AcDbBlockTableRecord
  2
*Paper_Space0
340
26
  0
ENDTAB
  0
ENDSEC
  0
SECTION
  2
BLOCKS
  0
BLOCK
  5
20
330
1F
100
AcDbEntity
  8
0
100
AcDbBlockBegin
  2
*Model_Space
 70
     0
 10
0.0
 20
0.0
 30
0.0
  3
*Model_Space
  1

  0
ENDBLK
  5
21
330
1F
100
AcDbEntity
  8
0
100
AcDbBlockEnd
  0
BLOCK
  5
1C
330
1B
100
AcDbEntity
 67
     1
  8
0
100
AcDbBlockBegin
  2
*Paper_Space
 70
     0
 10
0.0
 20
0.0
 30
0.0
  3
*Paper_Space
  1

  0
ENDBLK
  5
1D
330
1B
100
AcDbEntity
 67
     1
  8
0
100
AcDbBlockEnd
  0
BLOCK
  5
24
330
23
100
AcDbEntity
  8
0
100
AcDbBlockBegin
  2
*Paper_Space0
 70
     0
 10
0.0
 20
0.0
 30
0.0
  3
*Paper_Space0
  1

  0
ENDBLK
  5
25
330
23
100
AcDbEntity
  8
0
100
AcDbBlockEnd
  0
ENDSEC
  0
SECTION
  2
ENTITIES
  0
SPLINE
  5
66
330
1F
100
AcDbEntity
  8
0
  6
Continuous
 62
     7
370
    25
100
AcDbSpline
210
0.0
220
0.0
230
1.0
 70
     8
 71
     3
 72
    13
 73
     9
 74
     0
 42
0.00000001
 43
0.00000001
 40
0.0
 40
0.0
 40
0.0
 40
0.0
 40
0.343762191421775
 40
0.4918338323010911
 40
0.6241090704107948
 40
0.7413996050399048
 40
0.8430618504426423
 40
1.0
 40
1.0
 40
1.0
 40
1.0
 10
781.334945931329
 20
26.44173395961635
 30
0.0
 10
781.3343994741513
 20
26.5427146210756
 30
0.0
 10
781.3366225455605
 20
26.68716123118564
 30
0.0
 10
781.3418968244501
 20
26.87041680860636
 30
0.0
 10
781.3484499755924
 20
26.98703254444923
 30
0.0
 10
781.3555981418181
 20
27.08996916847306
 30
0.0
 10
781.3678219019891
 20
27.1997085507536
 30
0.0
 10
781.379285855704
 20
27.27488061324096
 30
0.0
 10
781.3910356749187
 20
27.31953844679585
 30
0.0
  0
SPLINE
  5
67
330
1F
100
AcDbEntity
  8
0
  6
Continuous
 62
     7
370
    25
100
AcDbSpline
210
0.0
220
0.0
230
1.0
 70
     8
 71
     3
 72
    17
 73
    13
 74
     0
 42
0.00000001
 43
0.00000001
 40
0.0
 40
0.0
 40
0.0
 40
0.0
 40
0.1717166158284539
 40
0.2506679767741051
 40
0.3258823275093822
 40
0.396881271696415
 40
0.4635748406535746
 40
0.5280697489487671
 40
0.5896876632767214
 40
0.7048093833748892
 40
0.8086618718637332
 40
1.0
 40
1.0
 40
1.0
 40
1.0
 10
781.3910356749187
 20
27.31953844679585
 30
0.0
 10
781.4029588222777
 20
27.36400986100113
 30
0.0
 10
781.4224802096203
 20
27.42848774080176
 30
0.0
 10
781.455331649445
 20
27.50954258596944
 30
0.0
 10
781.4809905820089
 20
27.56427403129291
 30
0.0
 10
781.5091626212339
 20
27.61400310675
 30
0.0
 10
781.5386448979349
 20
27.6595826253167
 30
0.0
 10
781.5707853247264
 20
27.7002282129481
 30
0.0
 10
781.6158271336698
 20
27.7467887458604
 30
0.0
 10
781.6740015887672
 20
27.79497370477624
 30
0.0
 10
781.7689447007882
 20
27.8518090180539
 30
0.0
 10
781.8478239513115
 20
27.87068670043829
 30
0.0
 10
781.8993489762007
 20
27.87062017756509
 30
0.0
  0
SPLINE
  5
68
330
1F
100
AcDbEntity
  8
0
  6
Continuous
 62
     7
370
    25
100
AcDbSpline
210
0.0
220
0.0
230
1.0
 70
     8
 71
     3
 72
     9
 73
     5
 74
     0
 42
0.00000001
 43
0.00000001
 40
0.0
 40
0.0
 40
0.0
 40
0.0
 40
0.4397700551121884
 40
1.0
 40
1.0
 40
1.0
 40
1.0
 10
781.8993489762007
 20
27.87062017756509
 30
0.0
 10
781.9240330160256
 20
27.87029778886097
 30
0.0
 10
781.9798201712358
 20
27.86097323337727
 30
0.0
 10
782.0312928294543
 20
27.83771759475867
 30
0.0
 10
782.0599058672263
 20
27.8250472608984
 30
0.0
  0
SPLINE
  5
6A
330
1F
100
AcDbEntity
  8
0
  6
Continuous
 62
     7
370
    25
100
AcDbSpline
210
0.0
220
0.0
230
1.0
 70
     8
 71
     3
 72
     9
 73
     5
 74
     0
 42
0.00000001
 43
0.00000001
 40
0.0
 40
0.0
 40
0.0
 40
0.0
 40
0.5364768048236987
 40
1.0
 40
1.0
 40
1.0
 40
1.0
 10
782.2323818287649
 20
28.09708251730864
 30
0.0
 10
782.1880407237055
 20
28.12394240808486
 30
0.0
 10
782.1003876119896
 20
28.16748031956434
 30
0.0
 10
782.0039207816849
 20
28.18437332078044
 30
0.0
 10
781.9589443287649
 20
28.18472274166761
 30
0.0
  0
SPLINE
  5
6B
330
1F
100
AcDbEntity
  8
0
  6
Continuous
 62
     7
370
    25
100
AcDbSpline
210
0.0
220
0.0
230
1.0
 70
     8
 71
     3
 72
    13
 73
     9
 74
     0
 42
0.00000001
 43
0.00000001
 40
0.0
 40
0.0
 40
0.0
 40
0.0
 40
0.2138863655718647
 40
0.3246827750473095
 40
0.439458544744861
 40
0.561633485869794
 40
0.6938876172598769
 40
1.0
 40
1.0
 40
1.0
 40
1.0
 10
781.958944328765
 20
28.18472274166761
 30
0.0
 10
781.9028639359948
 20
28.18433372509516
 30
0.0
 10
781.817305341101
 20
28.17248707460385
 30
0.0
 10
781.7097320487467
 20
28.12980986586694
 30
0.0
 10
781.6293510181395
 20
28.0860495265674
 30
0.0
 10
781.5517151551902
 20
28.02752124720209
 30
0.0
 10
781.4459182617687
 20
27.92483018621156
 30
0.0
 10
781.3779660594352
 20
27.83106250166262
 30
0.0
 10
781.334945931329
 20
27.76334854294965
 30
0.0
  0
SPLINE
  5
71
330
1F
100
AcDbEntity
  8
0
  6
Continuous
 62
     7
370
    25
100
AcDbSpline
210
0.0
220
0.0
230
1.0
 70
     8
 71
     3
 72
    13
 73
     9
 74
     0
 42
0.00000001
 43
0.00000001
 40
0.0
 40
0.0
 40
0.0
 40
0.0
 40
0.2703816178319616
 40
0.3984601291783004
 40
0.5227503451014437
 40
0.6438255660090793
 40
0.7637452368382587
 40
1.0
 40
1.0
 40
1.0
 40
1.0
 10
780.482381828765
 20
26.793697100642
 30
0.0
 10
780.4807923641107
 20
26.87895674212537
 30
0.0
 10
780.473431330609
 20
27.00493908148455
 30
0.0
 10
780.4428298471839
 20
27.16729519993449
 30
0.0
 10
780.4118197141237
 20
27.28112155056956
 30
0.0
 10
780.3734429364542
 20
27.39000328436248
 30
0.0
 10
780.3098321684603
 20
27.52678930625313
 30
0.0
 10
780.2499231280741
 20
27.62242846960039
 30
0.0
 10
780.204036476201
 20
27.6813172929497
 30
0.0
  0
SPLINE
  5
72
330
1F
100
AcDbEntity
  8
0
  6
Continuous
 62
     7
370
    25
100
AcDbSpline
210
0.0
220
0.0
230
1.0
 70
     8
 71
     3
 72
    13
 73
     9
 74
     0
 42
0.00000001
 43
0.00000001
 40
0.0
 40
0.0
 40
0.0
 40
0.0
 40
0.255257368140996
 40
0.3772478104725325
 40
0.4977415562850401
 40
0.6181201760750441
 40
0.7409671592206357
 40
1.0
 40
1.0
 40
1.0
 40
1.0
 10
780.2040364762012
 20
27.6813172929497
 30
0.0
 10
780.1426493325077
 20
27.76197740554892
 30
0.0
 10
780.0392064183696
 20
27.8716170959708
 30
0.0
 10
779.8809312425772
 20
27.99068788127212
 30
0.0
 10
779.7552617310016
 20
28.06189962797978
 30
0.0
 10
779.621417385495
 20
28.11698525946915
 30
0.0
 10
779.4288243223425
 20
28.17027450962845
 30
0.0
 10
779.2769160616149
 20
28.18515471524913
 30
0.0
 10
779.1740885595344
 20
28.18472274166761
 30
0.0
  0
SPLINE
  5
73
330
1F
100
AcDbEntity
  8
0
  6
Continuous
 62
     7
370
    25
100
AcDbSpline
210
0.0
220
0.0
230
1.0
 70
     8
 71
     3
 72
    13
 73
     9
 74
     0
 42
0.00000001
 43
0.00000001
 40
0.0
 40
0.0
 40
0.0
 40
0.0
 40
0.2602406645595056
 40
0.3836752253642184
 40
0.5046599577622765
 40
0.6253567426858504
 40
0.7464106650135791
 40
1.0
 40
1.0
 40
1.0
 40
1.0
 10
779.1740885595344
 20
28.18472274166761
 30
0.0
 10
779.0746323484178
 20
28.18352416148118
 30
0.0
 10
778.9267565514419
 20
28.17249531062194
 30
0.0
 10
778.7402105254712
 20
28.12000090773359
 30
0.0
 10
778.6098690907475
 20
28.0683683780174
 30
0.0
 10
778.4882920677159
 20
28.00032883265274
 30
0.0
 10
778.3336299157364
 20
27.88956630567752
 30
0.0
 10
778.2348619403306
 20
27.78368447030749
 30
0.0
 10
778.1742888800472
 20
27.70795992115482
 30
0.0
  0
SPLINE
  5
74
330
1F
100
AcDbEntity
  8
0
  6
Continuous
 62
     7
370
    25
100
AcDbSpline
210
0.0
220
0.0
230
1.0
 70
     8
 71
     3
 72
    13
 73
     9
 74
     0
 42
0.00000001
 43
0.00000001
 40
0.0
 40
0.0
 40
0.0
 40
0.0
 40
0.2534216680665267
 40
0.3767041167575467
 40
0.4994491585174913
 40
0.6225715734186964
 40
0.7462320999755214
 40
1.0
 40
1.0
 40
1.0
 40
1.0
 10
778.1742888800472
 20
27.70795992115482
 30
0.0
 10
778.1267376175525
 20
27.64646809732951
 30
0.0
 10
778.0615737848241
 20
27.55039882604904
 30
0.0
 10
777.9934010084673
 20
27.41288778981738
 30
0.0
 10
777.9518219067465
 20
27.30734754009939
 30
0.0
 10
777.9196744740198
 20
27.19845984828395
 30
0.0
 10
777.8880470944621
 20
27.04791613732477
 30
0.0
 10
777.8807710144063
 20
26.93178727716006
 30
0.0
 10
777.879817726201
 20
26.85399357500096
 30
0.0
  0
SPLINE
  5
75
330
1F
100
AcDbEntity
  8
0
  6
Continuous
 62
     7
370
    25
100
AcDbSpline
210
0.0
220
0.0
230
1.0
 70
     8
 71
     3
 72
    21
 73
    17
 74
     0
 42
0.00000001
 43
0.00000001
 40
0.0
 40
0.0
 40
0.0
 40
0.0
 40
0.1210804245006118
 40
0.1800682782218559
 40
0.2391896643238556
 40
0.2987059533012314
 40
0.3588810785072301
 40
0.4203687292950606
 40
0.4834483096802261
 40
0.5465664849029384
 40
0.6086986022254206
 40
0.670186253013248
 40
0.7318650366033053
 40
0.7952033026033165
 40
0.8603707753071415
 40
1.0
 40
1.0
 40
1.0
 40
1.0
 10
777.879817726201
 20
26.85399357500096
 30
0.0
 10
777.8807324534384
 20
26.77097093465097
 30
0.0
 10
777.8895120777374
 20
26.6471191276631
 30
0.0
 10
777.9255933620107
 20
26.48667198343352
 30
0.0
 10
777.9639687589244
 20
26.37080960794946
 30
0.0
 10
778.0115293387713
 20
26.2575386742378
 30
0.0
 10
778.0699845974707
 20
26.14757555803737
 30
0.0
 10
778.1399110166581
 20
26.04161965675783
 30
0.0
 10
778.2191547356731
 20
25.93993765378521
 30
0.0
 10
778.3071789811969
 20
25.84492141046246
 30
0.0
 10
778.4059985260038
 20
25.76278841480223
 30
0.0
 10
778.5124992707
 20
25.69283166635294
 30
0.0
 10
778.6272419492027
 20
25.63539403926468
 30
0.0
 10
778.7504520014265
 20
25.59146836547804
 30
0.0
 10
778.9296838444579
 20
25.54832201017448
 30
0.0
 10
779.0706055397966
 20
25.53732572713313
 30
0.0
 10
779.1663762197908
 20
25.53728684423173
 30
0.0
  0
SPLINE
  5
76
330
1F
100
AcDbEntity
  8
0
  6
Continuous
 62
     7
370
    25
100
AcDbSpline
210
0.0
220
0.0
230
1.0
 70
     8
 71
     3
 72
    17
 73
    13
 74
     0
 42
0.00000001
 43
0.00000001
 40
0.0
 40
0.0
 40
0.0
 40
0.0
 40
0.1781058515637827
 40
0.2613277635121511
 40
0.3415565694705521
 40
0.4200079090126525
 40
0.4980968161626226
 40
0.5754001382821239
 40
0.6536452159657116
 40
0.7341257729573898
 40
0.8183392339289949
 40
1.0
 40
1.0
 40
1.0
 40
1.0
 10
779.1663762197908
 20
25.53728684423173
 30
0.0
 10
779.2526700115484
 20
25.53729800440613
 30
0.0
 10
779.3795464933189
 20
25.54595222543787
 30
0.0
 10
779.5419297658946
 20
25.57927792356524
 30
0.0
 10
779.6542284154364
 20
25.61365615834244
 30
0.0
 10
779.7600782318632
 20
25.65841685003989
 30
0.0
 10
779.8603675473785
 20
25.71153293206568
 30
0.0
 10
779.9550981343903
 20
25.77387244904078
 30
0.0
 10
780.0447757404188
 20
25.84511939851603
 30
0.0
 10
780.1298487331604
 20
25.92686581669767
 30
0.0
 10
780.2367946172686
 20
26.0566279714185
 30
0.0
 10
780.3062656080285
 20
26.1656238571415
 30
0.0
 10
780.3477664441497
 20
26.24331649166761
 30
0.0
  0
SPLINE
  5
78
330
1F
100
AcDbEntity
  8
0
  6
Continuous
 62
     7
370
    25
100
AcDbSpline
210
0.0
220
0.0
230
1.0
 70
     8
 71
     3
 72
    17
 73
    13
 74
     0
 42
0.00000001
 43
0.00000001
 40
0.0
 40
0.0
 40
0.0
 40
0.0
 40
0.207935033903354
 40
0.294693971567899
 40
0.3697315241424306
 40
0.4408309438027249
 40
0.5142509140460771
 40
0.5913900390896498
 40
0.6722743046458497
 40
0.7543412603705406
 40
0.8361211059014765
 40
1.0
 40
1.0
 40
1.0
 40
1.0
 10
780.0687199697908
 20
26.38985094679586
 30
0.0
 10
780.0261952437883
 20
26.32330346289286
 30
0.0
 10
779.9590794741177
 20
26.23367299744134
 30
0.0
 10
779.8655816851171
 20
26.12885406581222
 30
0.0
 10
779.7995298452836
 20
26.06983274067903
 30
0.0
 10
779.7314082263953
 20
26.02162638291028
 30
0.0
 10
779.6585292824099
 20
25.97947524084754
 30
0.0
 10
779.5792833840793
 20
25.94137472836222
 30
0.0
 10
779.4937125723277
 20
25.9097894976757
 30
0.0
 10
779.4044518290643
 20
25.88393122088511
 30
0.0
 10
779.282603535592
 20
25.85841163885894
 30
0.0
 10
779.189307303218
 20
25.85108857758511
 30
0.0
 10
779.127113399278
 20
25.85138940833431
 30
0.0
  0
SPLINE
  5
79
330
1F
100
AcDbEntity
  8
0
  6
Continuous
 62
     7
370
    25
100
AcDbSpline
210
0.0
220
0.0
230
1.0
 70
     8
 71
     3
 72
    21
 73
    17
 74
     0
 42
0.00000001
 43
0.00000001
 40
0.0
 40
0.0
 40
0.0
 40
0.0
 40
0.1276691474530424
 40
0.1889505232706536
 40
0.2490548673082992
 40
0.3090713134763196
 40
0.3692223593686933
 40
0.4301747620269846
 40
0.4926019887960209
 40
0.555346876893578
 40
0.6169627615204942
 40
0.678170777192346
 40
0.73924652255152
 40
0.8016089422160485
 40
0.8655244124565523
 40
1.0
 40
1.0
 40
1.0
 40
1.0
 10
779.1271133992781
 20
25.85138940833431
 30
0.0
 10
779.0641022448941
 20
25.8510397240313
 30
0.0
 10
778.970973994001
 20
25.85975868869267
 30
0.0
 10
778.8509919289289
 20
25.88682514867347
 30
0.0
 10
778.7662196538686
 20
25.91589621975054
 30
0.0
 10
778.6853217011958
 20
25.95308548194181
 30
0.0
 10
778.6084280989729
 20
25.99888855668153
 30
0.0
 10
778.536145369659
 20
26.05354102119728
 30
0.0
 10
778.4674382396864
 20
26.11460159316825
 30
0.0
 10
778.4057126608805
 20
26.18316877971172
 30
0.0
 10
778.3503726677625
 20
26.25620670495748
 30
0.0
 10
778.3039885713256
 20
26.334368713336
 30
0.0
 10
778.2661156568173
 20
26.41729896037565
 30
0.0
 10
778.234869891866
 20
26.50438154012341
 30
0.0
 10
778.2045893611927
 20
26.62959483137167
 30
0.0
 10
778.1957090147735
 20
26.72745108963309
 30
0.0
 10
778.1939202903037
 20
26.793697100642
 30
0.0
  0
SPLINE
  5
81
330
1F
100
AcDbEntity
  8
0
  6
Continuous
 62
     7
370
    25
100
AcDbSpline
210
0.0
220
0.0
230
1.0
 70
     8
 71
     3
 72
    21
 73
    17
 74
     0
 42
0.00000001
 43
0.00000001
 40
0.0
 40
0.0
 40
0.0
 40
0.0
 40
0.1231816483428002
 40
0.1830343363247268
 40
0.2428661924761439
 40
0.3025168847059427
 40
0.3633154622039138
 40
0.4250692989986412
 40
0.4890423674851742
 40
0.553087142275227
 40
0.6154454653923731
 40
0.6772864118409536
 40
0.739174987439565
 40
0.8016758129328341
 40
0.8653648077757379
 40
1.0
 40
1.0
 40
1.0
 40
1.0
 10
772.0464843928677
 20
26.85399357500096
 30
0.0
 10
772.045977485482
 20
26.76842615787395
 30
0.0
 10
772.0576868325041
 20
26.64130526494107
 30
0.0
 10
772.0963184302032
 20
26.47691647479466
 30
0.0
 10
772.1371010597745
 20
26.35905765259655
 30
0.0
 10
772.1894724528355
 20
26.24517499275419
 30
0.0
 10
772.2533591723187
 20
26.13576488919217
 30
0.0
 10
772.3292331748647
 20
26.03061486604524
 30
0.0
 10
772.4152315051422
 20
25.93060485680227
 30
0.0
 10
772.5103035559484
 20
25.83846911535043
 30
0.0
 10
772.6135034826282
 20
25.75790825114843
 30
0.0
 10
772.723289871752
 20
25.68929917185797
 30
0.0
 10
772.8404351399945
 20
25.63399486177276
 30
0.0
 10
772.9636621358438
 20
25.5901644098912
 30
0.0
 10
773.140180613849
 20
25.54820502950361
 30
0.0
 10
773.2781989688407
 20
25.53770893683105
 30
0.0
 10
773.3716045851754
 20
25.53728684423173
 30
0.0
  0
SPLINE
  5
82
330
1F
100
AcDbEntity
  8
0
  6
Continuous
 62
     7
370
    25
100
AcDbSpline
210
0.0
220
0.0
230
1.0
 70
     8
 71
     3
 72
    21
 73
    17
 74
     0
 42
0.00000001
 43
0.00000001
 40
0.0
 40
0.0
 40
0.0
 40
0.0
 40
0.1341341587220424
 40
0.1979034644236247
 40
0.2604831025120542
 40
0.322145528691671
 40
0.3837784671889386
 40
0.446215423207863
 40
0.5103409574898141
 40
0.5743946950476086
 40
0.6362264024960824
 40
0.6971016460802506
 40
0.7568275569302938
 40
0.8167348601469018
 40
0.8766630214626719
 40
1.0
 40
1.0
 40
1.0
 40
1.0
 10
773.3716045851754
 20
25.53728684423173
 30
0.0
 10
773.4645546345621
 20
25.53765080978582
 30
0.0
 10
773.6020819313795
 20
25.54832769399384
 30
0.0
 10
773.7781370930802
 20
25.59017953306347
 30
0.0
 10
773.9012031195475
 20
25.63385100554277
 30
0.0
 10
774.0178468547664
 20
25.68929745254695
 30
0.0
 10
774.1270007912216
 20
25.75811629684283
 30
0.0
 10
774.2301169479823
 20
25.83844529765078
 30
0.0
 10
774.3251688912709
 20
25.93061131039365
 30
0.0
 10
774.4111726127801
 20
26.03061320329175
 30
0.0
 10
774.4870452241794
 20
26.13576532077078
 30
0.0
 10
774.55093230503
 20
26.24517488030414
 30
0.0
 10
774.6033036034848
 20
26.35905768257346
 30
0.0
 10
774.644086258283
 20
26.47691646679295
 30
0.0
 10
774.6827178470134
 20
26.64130527044223
 30
0.0
 10
774.6944271995762
 20
26.76842615503266
 30
0.0
 10
774.6939202903036
 20
26.85399357500096
 30
0.0
  0
SPLINE
  5
83
330
1F
100
AcDbEntity
  8
0
  6
Continuous
 62
     7
370
    25
100
AcDbSpline
210
0.0
220
0.0
230
1.0
 70
     8
 71
     3
 72
    13
 73
     9
 74
     0
 42
0.00000001
 43
0.00000001
 40
0.0
 40
0.0
 40
0.0
 40
0.0
 40
0.2554352550956477
 40
0.3786322712675499
 40
0.5014663143321101
 40
0.6234943774777817
 40
0.746165637203275
 40
1.0
 40
1.0
 40
1.0
 40
1.0
 10
774.6939202903036
 20
26.85399357500096
 30
0.0
 10
774.6934459015093
 20
26.93893042158585
 30
0.0
 10
774.6839620927848
 20
27.06517238451467
 30
0.0
 10
774.6467701102035
 20
27.22811168423395
 30
0.0
 10
774.608127940754
 20
27.34449288565721
 30
0.0
 10
774.5590238659111
 20
27.45671139163514
 30
0.0
 10
774.476784465923
 20
27.601072182381
 30
0.0
 10
774.4003904026036
 20
27.70101062257257
 30
0.0
 10
774.3433593928677
 20
27.76334854294965
 30
0.0
  0
SPLINE
  5
84
330
1F
100
AcDbEntity
  8
0
  6
Continuous
 62
     7
370
    25
100
AcDbSpline
210
0.0
220
0.0
230
1.0
 70
     8
 71
     3
 72
    13
 73
     9
 74
     0
 42
0.00000001
 43
0.00000001
 40
0.0
 40
0.0
 40
0.0
 40
0.0
 40
0.2531294102724398
 40
0.3753070134590596
 40
0.4961956083998793
 40
0.617866023907437
 40
0.7416676494858144
 40
1.0
 40
1.0
 40
1.0
 40
1.0
 10
774.3433593928677
 20
27.76334854294965
 30
0.0
 10
774.281200908877
 20
27.83128514810107
 30
0.0
 10
774.1795856029366
 20
27.9240072731825
 30
0.0
 10
774.0272216052824
 20
28.02155360419112
 30
0.0
 10
773.908841961153
 20
28.0822818170825
 30
0.0
 10
773.78304604756
 20
28.12748772928148
 30
0.0
 10
773.6049209191056
 20
28.1721317004156
 30
0.0
 10
773.4656947464842
 20
28.18569738226518
 30
0.0
 10
773.3716045851754
 20
28.18472274166761
 30
0.0
  0
SPLINE
  5
85
330
1F
100
AcDbEntity
  8
0
  6
Continuous
 62
     7
370
    25
100
AcDbSpline
210
0.0
220
0.0
230
1.0
 70
     8
 71
     3
 72
    13
 73
     9
 74
     0
 42
0.00000001
 43
0.00000001
 40
0.0
 40
0.0
 40
0.0
 40
0.0
 40
0.2587123826906848
 40
0.3820894432542115
 40
0.5035635736272535
 40
0.6251808674329538
 40
0.7472870144846054
 40
1.0
 40
1.0
 40
1.0
 40
1.0
 10
773.3716045851754
 20
28.18472274166761
 30
0.0
 10
773.2770372779518
 20
28.18558609738725
 30
0.0
 10
773.1374113141885
 20
28.17210067600323
 30
0.0
 10
772.9585626932775
 20
28.12775454706318
 30
0.0
 10
772.8328680121937
 20
28.08098289662692
 30
0.0
 10
772.7131866740606
 20
28.0214515220299
 30
0.0
 10
772.5611844474223
 20
27.92193110966207
 30
0.0
 10
772.4586639792319
 20
27.83008999524972
 30
0.0
 10
772.3970452903036
 20
27.76124517756507
 30
0.0
  0
SPLINE
  5
86
330
1F
100
AcDbEntity
  8
0
  6
Continuous
 62
     7
370
    25
100
AcDbSpline
210
0.0
220
0.0
230
1.0
 70
     8
 71
     3
 72
    13
 73
     9
 74
     0
 42
0.00000001
 43
0.00000001
 40
0.0
 40
0.0
 40
0.0
 40
0.0
 40
0.2537592050616079
 40
0.3772863205702288
 40
0.4989121128148862
 40
0.6213214040214711
 40
0.7447622750750945
 40
1.0
 40
1.0
 40
1.0
 40
1.0
 10
772.3970452903036
 20
27.76124517756507
 30
0.0
 10
772.3406319904183
 20
27.69873427937031
 30
0.0
 10
772.2629335024769
 20
27.59961894312296
 30
0.0
 10
772.1817782279475
 20
27.45486599617408
 30
0.0
 10
772.1322298767122
 20
27.34313427101859
 30
0.0
 10
772.0935391608848
 20
27.22720357475794
 30
0.0
 10
772.0565262752605
 20
27.06469268619571
 30
0.0
 10
772.0469786596173
 20
26.93870037233426
 30
0.0
 10
772.0464843928677
 20
26.85399357500096
 30
0.0
  0
SPLINE
  5
87
330
1F
100
AcDbEntity
  8
0
  6
Continuous
 62
     7
370
    25
100
AcDbSpline
210
0.0
220
0.0
230
1.0
 70
     8
 71
     3
 72
    21
 73
    17
 74
     0
 42
0.00000001
 43
0.00000001
 40
0.0
 40
0.0
 40
0.0
 40
0.0
 40
0.1230160125186728
 40
0.1821795987088894
 40
0.2413150145739386
 40
0.3002601565752412
 40
0.3598329711995818
 40
0.4210267535367634
 40
0.484330017115196
 40
0.548023509696945
 40
0.610608612559629
 40
0.6729950088427237
 40
0.7355500452204884
 40
0.7989042338824472
 40
0.8636647494423918
 40
1.0
 40
1.0
 40
1.0
 40
1.0
 10
768.9054587518422
 20
26.83997113910353
 30
0.0
 10
768.9051715668301
 20
26.75222453015208
 30
0.0
 10
768.9177799779912
 20
26.62234647845224
 30
0.0
 10
768.959174452938
 20
26.45503783338388
 30
0.0
 10
769.0037705278066
 20
26.33657218895363
 30
0.0
 10
769.0598716785778
 20
26.22276273680307
 30
0.0
 10
769.1297132495052
 20
26.11512166454161
 30
0.0
 10
769.2102404682428
 20
26.01127177020973
 30
0.0
 10
769.3040216264214
 20
25.91503105733534
 30
0.0
 10
769.4061324886835
 20
25.82626855279607
 30
0.0
 10
769.5161684811951
 20
25.74851579263715
 30
0.0
 10
769.6330416237631
 20
25.68316247720204
 30
0.0
 10
769.7563647857424
 20
25.62964418423563
 30
0.0
 10
769.8860234137442
 20
25.58813193365966
 30
0.0
 10
770.0705802011673
 20
25.54856926995996
 30
0.0
 10
770.2139559545294
 20
25.53630260119666
 30
0.0
 10
770.3112079505601
 20
25.53728684423173
 30
0.0
  0
SPLINE
  5
88
330
1F
100
AcDbEntity
  8
0
  6
Continuous
 62
     7
370
    25
100
AcDbSpline
210
0.0
220
0.0
230
1.0
 70
     8
 71
     3
 72
    21
 73
    17
 74
     0
 42
0.00000001
 43
0.00000001
 40
0.0
 40
0.0
 40
0.0
 40
0.0
 40
0.138173460029835
 40
0.2051712291583753
 40
0.2702347439553352
 40
0.334577614923188
 40
0.3974624848755721
 40
0.4600970095463408
 40
0.522258400268212
 40
0.5835266948828642
 40
0.6441442312570528
 40
0.7040680119241989
 40
0.7630433524477821
 40
0.8218034537843255
 40
0.8809311384949984
 40
1.0
 40
1.0
 40
1.0
 40
1.0
 10
770.3112079505601
 20
25.53728684423173
 30
0.0
 10
770.3754171186479
 20
25.53630032689197
 30
0.0
 10
770.470571807888
 20
25.54242798969081
 30
0.0
 10
770.5951279000748
 20
25.55790081906906
 30
0.0
 10
770.6847525147275
 20
25.57498278249476
 30
0.0
 10
770.7714687033141
 20
25.59642767288078
 30
0.0
 10
770.8554485666186
 20
25.62339580976575
 30
0.0
 10
770.9367905367493
 20
25.65478750508171
 30
0.0
 10
771.0151412624059
 20
25.6912936736115
 30
0.0
 10
771.0903903305309
 20
25.7319066375612
 30
0.0
 10
771.1617602676458
 20
25.77704124715163
 30
0.0
 10
771.2300869849869
 20
25.82489357000883
 30
0.0
 10
771.2931743606571
 20
25.87814885731154
 30
0.0
 10
771.3531512406114
 20
25.93427739288995
 30
0.0
 10
771.4282254980883
 20
26.01483415685862
 30
0.0
 10
771.4776805702277
 20
26.08143708760946
 30
0.0
 10
771.5080228544062
 20
26.12763139551377
 30
0.0
  0
SPLINE
  5
8A
330
1F
100
AcDbEntity
  8
0
  6
Continuous
 62
     7
370
    25
100
AcDbSpline
210
0.0
220
0.0
230
1.0
 70
     8
 71
     3
 72
    13
 73
     9
 74
     0
 42
0.00000001
 43
0.00000001
 40
0.0
 40
0.0
 40
0.0
 40
0.0
 40
0.2581434980421687
 40
0.3806278746633599
 40
0.5015582214580118
 40
0.6227016552819186
 40
0.744552687973184
 40
1.0
 40
1.0
 40
1.0
 40
1.0
 10
771.2451021813292
 20
26.30010735705224
 30
0.0
 10
771.1878677816543
 20
26.22798329671322
 30
0.0
 10
771.0920960148271
 20
26.13072295549435
 30
0.0
 10
770.9476486271615
 20
26.024720509916
 30
0.0
 10
770.8339151764601
 20
25.96114553754186
 30
0.0
 10
770.7135173833104
 20
25.91205559748183
 30
0.0
 10
770.542008642647
 20
25.86412702621049
 30
0.0
 10
770.407123538743
 20
25.85144297773451
 30
0.0
 10
770.3161158031241
 20
25.85138940833431
 30
0.0
  0
SPLINE
  5
8B
330
1F
100
AcDbEntity
  8
0
  6
Continuous
 62
     7
370
    25
100
AcDbSpline
210
0.0
220
0.0
230
1.0
 70
     8
 71
     3
 72
    17
 73
    13
 74
     0
 42
0.00000001
 43
0.00000001
 40
0.0
 40
0.0
 40
0.0
 40
0.0
 40
0.17847093099052
 40
0.263762432705972
 40
0.3486672266155145
 40
0.4321345263706822
 40
0.5134033636004061
 40
0.5949764167925377
 40
0.677471472370611
 40
0.75967863870542
 40
0.8400345230550291
 40
1.0
 40
1.0
 40
1.0
 40
1.0
 10
770.3161158031241
 20
25.85138940833431
 30
0.0
 10
770.2170397108836
 20
25.85176726100408
 30
0.0
 10
770.0699571113462
 20
25.86631477145479
 30
0.0
 10
769.8840356855421
 20
25.92275684422141
 30
0.0
 10
769.7552803735721
 20
25.98096429924257
 30
0.0
 10
769.6365477579932
 20
26.05345092562378
 30
0.0
 10
769.5306274726754
 20
26.14086331940157
 30
0.0
 10
769.4384600025401
 20
26.24184763763004
 30
0.0
 10
769.3599634936386
 20
26.354441962744
 30
0.0
 10
769.2979773745348
 20
26.47610856006549
 30
0.0
 10
769.2371974320853
 20
26.64527317610493
 30
0.0
 10
769.2198050144095
 20
26.77915470267539
 30
0.0
 10
769.2195613159447
 20
26.86801601089839
 30
0.0
  0
SPLINE
  5
8C
330
1F
100
AcDbEntity
  8
0
  6
Continuous
 62
     7
370
    25
100
AcDbSpline
210
0.0
220
0.0
230
1.0
 70
     8
 71
     3
 72
    21
 73
    17
 74
     0
 42
0.00000001
 43
0.00000001
 40
0.0
 40
0.0
 40
0.0
 40
0.0
 40
0.1222819204638085
 40
0.1812434869852987
 40
0.2396871197545077
 40
0.2984032755910574
 40
0.3580784908258444
 40
0.419261628082501
 40
0.4824580183676552
 40
0.5464498243205897
 40
0.6091832833298887
 40
0.6717521154871762
 40
0.7345384496150802
 40
0.7980307571346639
 40
0.8630790177387537
 40
1.0
 40
1.0
 40
1.0
 40
1.0
 10
769.2195613159447
 20
26.86801601089839
 30
0.0
 10
769.219222742324
 20
26.93558050787348
 30
0.0
 10
769.2294305790559
 20
27.03548855965499
 30
0.0
 10
769.2609305513458
 20
27.16425705620723
 30
0.0
 10
769.2961641788761
 20
27.25503401925628
 30
0.0
 10
769.3392813193093
 20
27.342785516139
 30
0.0
 10
769.3942151886638
 20
27.42550547611317
 30
0.0
 10
769.4573149531606
 20
27.505259146345
 30
0.0
 10
769.5301437256306
 20
27.57965784442545
 30
0.0
 10
769.6097605193495
 20
27.64806829314598
 30
0.0
 10
769.6961460383237
 20
27.70711868308678
 30
0.0
 10
769.7867967902329
 20
27.75792714309566
 30
0.0
 10
769.8825178503612
 20
27.79968230246876
 30
0.0
 10
769.9835561126943
 20
27.83081472377102
 30
0.0
 10
770.1266943870916
 20
27.86294250961802
 30
0.0
 10
770.2385953206285
 20
27.86952203778437
 30
0.0
 10
770.3140124377395
 20
27.87062017756509
 30
0.0
  0
SPLINE
  5
8D
330
1F
100
AcDbEntity
  8
0
  6
Continuous
 62
     7
370
    25
100
AcDbSpline
210
0.0
220
0.0
230
1.0
 70
     8
 71
     3
 72
    13
 73
     9
 74
     0
 42
0.00000001
 43
0.00000001
 40
0.0
 40
0.0
 40
0.0
 40
0.0
 40
0.2615297557643174
 40
0.3853914026565602
 40
0.5066355486143843
 40
0.6264935166891237
 40
0.7474155249378515
 40
1.0
 40
1.0
 40
1.0
 40
1.0
 10
770.3140124377395
 20
27.87062017756509
 30
0.0
 10
770.4076011376595
 20
27.87076107516984
 30
0.0
 10
770.5458956508156
 20
27.85792996606046
 30
0.0
 10
770.7213094492121
 20
27.8103140614907
 30
0.0
 10
770.8427068214144
 20
27.76115128174472
 30
0.0
 10
770.9559373100609
 20
27.69739857978293
 30
0.0
 10
771.0981093049355
 20
27.59194262460962
 30
0.0
 10
771.1908147380609
 20
27.4942747380107
 30
0.0
 10
771.2451021813292
 20
27.42190222884711
 30
0.0
  0
SPLINE
  5
8F
330
1F
100
AcDbEntity
  8
0
  6
Continuous
 62
     7
370
    25
100
AcDbSpline
210
0.0
220
0.0
230
1.0
 70
     8
 71
     3
 72
    17
 73
    13
 74
     0
 42
0.00000001
 43
0.00000001
 40
0.0
 40
0.0
 40
0.0
 40
0.0
 40
0.1585634493071253
 40
0.2345871230995784
 40
0.3098023857351404
 40
0.3863975462586809
 40
0.4660235260292688
 40
0.549933651574882
 40
0.6379505414946585
 40
0.7280903454728215
 40
0.8179185954471941
 40
1.0
 40
1.0
 40
1.0
 40
1.0
 10
771.5080228544061
 20
27.58526360705221
 30
0.0
 10
771.4713543658735
 20
27.64811612737189
 30
0.0
 10
771.4080354187878
 20
27.73579426707823
 30
0.0
 10
771.3089851390084
 20
27.83800568581829
 30
0.0
 10
771.228840577567
 20
27.90538709979057
 30
0.0
 10
771.1409034122831
 20
27.96510143268432
 30
0.0
 10
771.0450660297973
 20
28.01969832557199
 30
0.0
 10
770.9395297455186
 20
28.06670774993858
 30
0.0
 10
770.8267836675026
 20
28.1085828163195
 30
0.0
 10
770.708635683546
 20
28.14311218314452
 30
0.0
 10
770.5453647027865
 20
28.17453207179538
 30
0.0
 10
770.4207399017342
 20
28.18498362922644
 30
0.0
 10
770.3371494569703
 20
28.18472274166761
 30
0.0
  0
SPLINE
  5
90
330
1F
100
AcDbEntity
  8
0
  6
Continuous
 62
     7
370
    25
100
AcDbSpline
210
0.0
220
0.0
230
1.0
 70
     8
 71
     3
 72
    29
 73
    25
 74
     0
 42
0.00000001
 43
0.00000001
 40
0.0
 40
0.0
 40
0.0
 40
0.0
 40
0.0904049698337528
 40
0.1340218577669683
 40
0.1771929296099348
 40
0.2199566394228996
 40
0.2622486054529787
 40
0.3045538809267218
 40
0.3467622647176366
 40
0.3886297618353274
 40
0.4301572713045011
 40
0.4709850348103287
 40
0.5113171489159214
 40
0.5518126259433953
 40
0.5924494048341331
 40
0.6331453339012545
 40
0.6745901892035351
 40
0.7158270637532164
 40
0.7564739168378305
 40
0.796993399422944
 40
0.8371691302448725
 40
0.8773639647740381
 40
0.9178644967855356
 40
1.0
 40
1.0
 40
1.0
 40
1.0
 10
770.3371494569703
 20
28.18472274166761
 30
0.0
 10
770.2710589766189
 20
28.18506931823017
 30
0.0
 10
770.1732575065072
 20
28.17878708937677
 30
0.0
 10
770.0448787593642
 20
28.16150544838919
 30
0.0
 10
769.9523519093881
 20
28.14131429454797
 30
0.0
 10
769.8617919438686
 20
28.11719844068988
 30
0.0
 10
769.7737988674078
 20
28.08674769740077
 30
0.0
 10
769.6882322096669
 20
28.0511139703658
 30
0.0
 10
769.6056074949695
 20
28.00975466586902
 30
0.0
 10
769.5264241732885
 20
27.96330361579058
 30
0.0
 10
769.4507283213729
 20
27.91316263397287
 30
0.0
 10
769.3796567458122
 20
27.85840450723975
 30
0.0
 10
769.3136170916946
 20
27.79886831660466
 30
0.0
 10
769.2507409806175
 20
27.73614455571544
 30
0.0
 10
769.1936966408149
 20
27.66772479045015
 30
0.0
 10
769.1398154210445
 20
27.59597112513967
 30
0.0
 10
769.0911266248039
 20
27.52002158804046
 30
0.0
 10
769.0478748672133
 20
27.44092384959823
 30
0.0
 10
769.0097787756542
 20
27.35997920922523
 30
0.0
 10
768.9773058208161
 20
27.27739598786289
 30
0.0
 10
768.9518556542286
 20
27.19279114202033
 30
0.0
 10
768.9298655461816
 20
27.10718176273397
 30
0.0
 10
768.9122710140155
 20
26.98941581203268
 30
0.0
 10
768.9045941880972
 20
26.90008217680839
 30
0.0
 10
768.9054587518422
 20
26.83997113910353
 30
0.0
  0
SPLINE
  5
9C
330
1F
100
AcDbEntity
  8
0
  6
Continuous
 62
     7
370
    25
100
AcDbSpline
210
0.0
220
0.0
230
1.0
 70
     8
 71
     3
 72
    21
 73
    17
 74
     0
 42
0.00000001
 43
0.00000001
 40
0.0
 40
0.0
 40
0.0
 40
0.0
 40
0.1230160125186728
 40
0.1821795987088894
 40
0.2413150145739386
 40
0.3002601565752412
 40
0.3598329711995818
 40
0.4210267535367634
 40
0.484330017115196
 40
0.548023509696945
 40
0.610608612559629
 40
0.6729950088427237
 40
0.7355500452204884
 40
0.7989042338824472
 40
0.8636647494423918
 40
1.0
 40
1.0
 40
1.0
 40
1.0
 10
761.9952023415856
 20
26.83997113910353
 30
0.0
 10
761.994915156573
 20
26.75222453015208
 30
0.0
 10
762.0075235677346
 20
26.62234647845224
 30
0.0
 10
762.0489180426815
 20
26.45503783338388
 30
0.0
 10
762.09351411755
 20
26.33657218895363
 30
0.0
 10
762.1496152683214
 20
26.22276273680302
 30
0.0
 10
762.2194568392488
 20
26.11512166454161
 30
0.0
 10
762.2999840579862
 20
26.01127177020973
 30
0.0
 10
762.3937652161651
 20
25.91503105733539
 30
0.0
 10
762.4958760784268
 20
25.82626855279607
 30
0.0
 10
762.6059120709386
 20
25.74851579263715
 30
0.0
 10
762.7227852135065
 20
25.68316247720204
 30
0.0
 10
762.846108375486
 20
25.62964418423563
 30
0.0
 10
762.9757670034878
 20
25.58813193365966
 30
0.0
 10
763.1603237909105
 20
25.54856926995996
 30
0.0
 10
763.3036995442734
 20
25.53630260119666
 30
0.0
 10
763.4009515403035
 20
25.53728684423173
 30
0.0
  0
SPLINE
  5
9D
330
1F
100
AcDbEntity
  8
0
  6
Continuous
 62
     7
370
    25
100
AcDbSpline
210
0.0
220
0.0
230
1.0
 70
     8
 71
     3
 72
    21
 73
    17
 74
     0
 42
0.00000001
 43
0.00000001
 40
0.0
 40
0.0
 40
0.0
 40
0.0
 40
0.138173460029835
 40
0.2051712291583753
 40
0.2702347439553352
 40
0.334577614923188
 40
0.3974624848755721
 40
0.4600970095463408
 40
0.522258400268212
 40
0.5835266948828642
 40
0.6441442312570528
 40
0.7040680119241989
 40
0.7630433524477821
 40
0.8218034537843255
 40
0.8809311384949984
 40
1.0
 40
1.0
 40
1.0
 40
1.0
 10
763.4009515403035
 20
25.53728684423173
 30
0.0
 10
763.4651607083913
 20
25.53630032689203
 30
0.0
 10
763.5603153976315
 20
25.54242798969081
 30
0.0
 10
763.6848714898182
 20
25.55790081906906
 30
0.0
 10
763.7744961044708
 20
25.57498278249476
 30
0.0
 10
763.8612122930576
 20
25.59642767288078
 30
0.0
 10
763.945192156362
 20
25.62339580976575
 30
0.0
 10
764.026534126493
 20
25.65478750508171
 30
0.0
 10
764.1048848521492
 20
25.6912936736115
 30
0.0
 10
764.1801339202744
 20
25.7319066375612
 30
0.0
 10
764.2515038573893
 20
25.77704124715163
 30
0.0
 10
764.3198305747304
 20
25.82489357000883
 30
0.0
 10
764.3829179504005
 20
25.87814885731154
 30
0.0
 10
764.4428948303549
 20
25.93427739288995
 30
0.0
 10
764.5179690878314
 20
26.01483415685862
 30
0.0
 10
764.5674241599712
 20
26.08143708760946
 30
0.0
 10
764.5977664441497
 20
26.12763139551377
 30
0.0
  0
SPLINE
  5
9F
330
1F
100
AcDbEntity
  8
0
  6
Continuous
 62
     7
370
    25
100
AcDbSpline
210
0.0
220
0.0
230
1.0
 70
     8
 71
     3
 72
    13
 73
     9
 74
     0
 42
0.00000001
 43
0.00000001
 40
0.0
 40
0.0
 40
0.0
 40
0.0
 40
0.2581434980421687
 40
0.3806278746633599
 40
0.5015582214580118
 40
0.6227016552819186
 40
0.744552687973184
 40
1.0
 40
1.0
 40
1.0
 40
1.0
 10
764.3348457710727
 20
26.30010735705224
 30
0.0
 10
764.2776113713976
 20
26.22798329671322
 30
0.0
 10
764.1818396045708
 20
26.13072295549435
 30
0.0
 10
764.0373922169049
 20
26.024720509916
 30
0.0
 10
763.9236587662034
 20
25.96114553754186
 30
0.0
 10
763.803260973054
 20
25.91205559748183
 30
0.0
 10
763.6317522323903
 20
25.86412702621049
 30
0.0
 10
763.4968671284865
 20
25.85144297773451
 30
0.0
 10
763.4058593928677
 20
25.85138940833431
 30
0.0
  0
SPLINE
  5
A0
330
1F
100
AcDbEntity
  8
0
  6
Continuous
 62
     7
370
    25
100
AcDbSpline
210
0.0
220
0.0
230
1.0
 70
     8
 71
     3
 72
    17
 73
    13
 74
     0
 42
0.00000001
 43
0.00000001
 40
0.0
 40
0.0
 40
0.0
 40
0.0
 40
0.17847093099052
 40
0.263762432705972
 40
0.3486672266155145
 40
0.4321345263706822
 40
0.5134033636004061
 40
0.5949764167925377
 40
0.677471472370611
 40
0.75967863870542
 40
0.8400345230550291
 40
1.0
 40
1.0
 40
1.0
 40
1.0
 10
763.4058593928677
 20
25.85138940833431
 30
0.0
 10
763.3067833006271
 20
25.85176726100402
 30
0.0
 10
763.1597007010894
 20
25.86631477145479
 30
0.0
 10
762.9737792752858
 20
25.92275684422141
 30
0.0
 10
762.8450239633157
 20
25.98096429924257
 30
0.0
 10
762.7262913477365
 20
26.05345092562378
 30
0.0
 10
762.6203710624189
 20
26.14086331940157
 30
0.0
 10
762.5282035922834
 20
26.24184763763004
 30
0.0
 10
762.4497070833819
 20
26.354441962744
 30
0.0
 10
762.3877209642782
 20
26.47610856006549
 30
0.0
 10
762.3269410218288
 20
26.64527317610493
 30
0.0
 10
762.3095486041528
 20
26.77915470267533
 30
0.0
 10
762.3093049056881
 20
26.86801601089839
 30
0.0
  0
SPLINE
  5
A1
330
1F
100
AcDbEntity
  8
0
  6
Continuous
 62
     7
370
    25
100
AcDbSpline
210
0.0
220
0.0
230
1.0
 70
     8
 71
     3
 72
    21
 73
    17
 74
     0
 42
0.00000001
 43
0.00000001
 40
0.0
 40
0.0
 40
0.0
 40
0.0
 40
0.1222819204638085
 40
0.1812434869852987
 40
0.2396871197545077
 40
0.2984032755910574
 40
0.3580784908258444
 40
0.419261628082501
 40
0.4824580183676552
 40
0.5464498243205897
 40
0.6091832833298887
 40
0.6717521154871762
 40
0.7345384496150802
 40
0.7980307571346639
 40
0.8630790177387537
 40
1.0
 40
1.0
 40
1.0
 40
1.0
 10
762.3093049056881
 20
26.86801601089839
 30
0.0
 10
762.3089663320673
 20
26.93558050787348
 30
0.0
 10
762.3191741687992
 20
27.03548855965499
 30
0.0
 10
762.3506741410894
 20
27.16425705620723
 30
0.0
 10
762.3859077686196
 20
27.25503401925628
 30
0.0
 10
762.4290249090526
 20
27.342785516139
 30
0.0
 10
762.4839587784073
 20
27.42550547611317
 30
0.0
 10
762.5470585429041
 20
27.505259146345
 30
0.0
 10
762.6198873153741
 20
27.57965784442545
 30
0.0
 10
762.6995041090929
 20
27.64806829314598
 30
0.0
 10
762.7858896280671
 20
27.70711868308678
 30
0.0
 10
762.8765403799764
 20
27.75792714309566
 30
0.0
 10
762.9722614401046
 20
27.79968230246876
 30
0.0
 10
763.0732997024378
 20
27.83081472377102
 30
0.0
 10
763.2164379768349
 20
27.86294250961802
 30
0.0
 10
763.3283389103719
 20
27.86952203778437
 30
0.0
 10
763.403756027483
 20
27.87062017756509
 30
0.0
  0
SPLINE
  5
A2
330
1F
100
AcDbEntity
  8
0
  6
Continuous
 62
     7
370
    25
100
AcDbSpline
210
0.0
220
0.0
230
1.0
 70
     8
 71
     3
 72
    13
 73
     9
 74
     0
 42
0.00000001
 43
0.00000001
 40
0.0
 40
0.0
 40
0.0
 40
0.0
 40
0.2615297557643174
 40
0.3853914026565602
 40
0.5066355486143843
 40
0.6264935166891237
 40
0.7474155249378515
 40
1.0
 40
1.0
 40
1.0
 40
1.0
 10
763.403756027483
 20
27.87062017756509
 30
0.0
 10
763.497344727403
 20
27.87076107516984
 30
0.0
 10
763.635639240559
 20
27.85792996606046
 30
0.0
 10
763.8110530389556
 20
27.8103140614907
 30
0.0
 10
763.9324504111578
 20
27.76115128174472
 30
0.0
 10
764.0456808998044
 20
27.69739857978293
 30
0.0
 10
764.187852894679
 20
27.59194262460962
 30
0.0
 10
764.2805583278044
 20
27.4942747380107
 30
0.0
 10
764.3348457710727
 20
27.42190222884711
 30
0.0
  0
SPLINE
  5
A4
330
1F
100
AcDbEntity
  8
0
  6
Continuous
 62
     7
370
    25
100
AcDbSpline
210
0.0
220
0.0
230
1.0
 70
     8
 71
     3
 72
    17
 73
    13
 74
     0
 42
0.00000001
 43
0.00000001
 40
0.0
 40
0.0
 40
0.0
 40
0.0
 40
0.1585634493071253
 40
0.2345871230995784
 40
0.3098023857351404
 40
0.3863975462586809
 40
0.4660235260292688
 40
0.549933651574882
 40
0.6379505414946585
 40
0.7280903454728215
 40
0.8179185954471941
 40
1.0
 40
1.0
 40
1.0
 40
1.0
 10
764.5977664441496
 20
27.58526360705221
 30
0.0
 10
764.561097955617
 20
27.64811612737189
 30
0.0
 10
764.4977790085313
 20
27.73579426707823
 30
0.0
 10
764.3987287287518
 20
27.83800568581823
 30
0.0
 10
764.3185841673106
 20
27.90538709979057
 30
0.0
 10
764.2306470020267
 20
27.96510143268427
 30
0.0
 10
764.1348096195409
 20
28.01969832557199
 30
0.0
 10
764.0292733352619
 20
28.06670774993858
 30
0.0
 10
763.916527257246
 20
28.1085828163195
 30
0.0
 10
763.7983792732896
 20
28.14311218314452
 30
0.0
 10
763.6351082925298
 20
28.17453207179538
 30
0.0
 10
763.5104834914779
 20
28.18498362922644
 30
0.0
 10
763.4268930467138
 20
28.18472274166761
 30
0.0
  0
SPLINE
  5
A5
330
1F
100
AcDbEntity
  8
0
  6
Continuous
 62
     7
370
    25
100
AcDbSpline
210
0.0
220
0.0
230
1.0
 70
     8
 71
     3
 72
    29
 73
    25
 74
     0
 42
0.00000001
 43
0.00000001
 40
0.0
 40
0.0
 40
0.0
 40
0.0
 40
0.0904049698337528
 40
0.1340218577669683
 40
0.1771929296099348
 40
0.2199566394228996
 40
0.2622486054529787
 40
0.3045538809267218
 40
0.3467622647176366
 40
0.3886297618353274
 40
0.4301572713045011
 40
0.4709850348103287
 40
0.5113171489159214
 40
0.5518126259433953
 40
0.5924494048341331
 40
0.6331453339012545
 40
0.6745901892035351
 40
0.7158270637532164
 40
0.7564739168378305
 40
0.796993399422944
 40
0.8371691302448725
 40
0.8773639647740381
 40
0.9178644967855356
 40
1.0
 40
1.0
 40
1.0
 40
1.0
 10
763.4268930467138
 20
28.18472274166761
 30
0.0
 10
763.3608025663624
 20
28.18506931823017
 30
0.0
 10
763.2630010962506
 20
28.17878708937677
 30
0.0
 10
763.1346223491075
 20
28.16150544838919
 30
0.0
 10
763.0420954991315
 20
28.14131429454797
 30
0.0
 10
762.9515355336121
 20
28.11719844068988
 30
0.0
 10
762.8635424571513
 20
28.08674769740077
 30
0.0
 10
762.7779757994102
 20
28.0511139703658
 30
0.0
 10
762.6953510847131
 20
28.00975466586902
 30
0.0
 10
762.6161677630317
 20
27.96330361579058
 30
0.0
 10
762.5404719111164
 20
27.91316263397287
 30
0.0
 10
762.4694003355557
 20
27.85840450723975
 30
0.0
 10
762.4033606814379
 20
27.79886831660466
 30
0.0
 10
762.3404845703608
 20
27.73614455571544
 30
0.0
 10
762.2834402305585
 20
27.66772479045015
 30
0.0
 10
762.2295590107881
 20
27.59597112513967
 30
0.0
 10
762.1808702145473
 20
27.52002158804046
 30
0.0
 10
762.1376184569566
 20
27.44092384959823
 30
0.0
 10
762.0995223653974
 20
27.35997920922523
 30
0.0
 10
762.0670494105598
 20
27.27739598786289
 30
0.0
 10
762.041599243972
 20
27.19279114202033
 30
0.0
 10
762.0196091359253
 20
27.10718176273397
 30
0.0
 10
762.0020146037589
 20
26.98941581203268
 30
0.0
 10
761.9943377778409
 20
26.90008217680839
 30
0.0
 10
761.9952023415856
 20
26.83997113910353
 30
0.0
  0
SPLINE
  5
A6
330
1F
100
AcDbEntity
  8
0
  6
Continuous
 62
     7
370
    25
100
AcDbSpline
210
0.0
220
0.0
230
1.0
 70
     8
 71
     3
 72
    13
 73
     9
 74
     0
 42
0.00000001
 43
0.00000001
 40
0.0
 40
0.0
 40
0.0
 40
0.0
 40
0.2618944458316544
 40
0.3852022807004848
 40
0.5047447481824054
 40
0.6239854458062233
 40
0.745346469102679
 40
1.0
 40
1.0
 40
1.0
 40
1.0
 10
761.0528946492778
 20
27.66659373525737
 30
0.0
 10
760.9909646947647
 20
27.75155160692505
 30
0.0
 10
760.8876952965126
 20
27.8686181823577
 30
0.0
 10
760.7257722956614
 20
27.99177232283062
 30
0.0
 10
760.598635745994
 20
28.06346313915637
 30
0.0
 10
760.4639726707662
 20
28.1173247724148
 30
0.0
 10
760.2719748945938
 20
28.17130370677407
 30
0.0
 10
760.1202315634746
 20
28.18442377185287
 30
0.0
 10
760.018038880047
 20
28.18472274166761
 30
0.0
  0
SPLINE
  5
A7
330
1F
100
AcDbEntity
  8
0
  6
Continuous
 62
     7
370
    25
100
AcDbSpline
210
0.0
220
0.0
230
1.0
 70
     8
 71
     3
 72
    21
 73
    17
 74
     0
 42
0.00000001
 43
0.00000001
 40
0.0
 40
0.0
 40
0.0
 40
0.0
 40
0.1283692574311769
 40
0.190417708860092
 40
0.2519211667422389
 40
0.3132736507580476
 40
0.3750861342515197
 40
0.438389176770406
 40
0.5032092055629105
 40
0.5679667722557898
 40
0.630868101539027
 40
0.6919966438355534
 40
0.7524260650823844
 40
0.8130959072527861
 40
0.8739211900104884
 40
1.0
 40
1.0
 40
1.0
 40
1.0
 10
760.018038880047
 20
28.18472274166761
 30
0.0
 10
759.9286256477565
 20
28.18392512000872
 30
0.0
 10
759.7956015268222
 20
28.17378171616652
 30
0.0
 10
759.6243888925497
 20
28.13310223174231
 30
0.0
 10
759.5028233123924
 20
28.08972796724646
 30
0.0
 10
759.3855598959454
 20
28.03606519281993
 30
0.0
 10
759.2743367209175
 20
27.96835086344335
 30
0.0
 10
759.1674279749203
 20
27.88994112260396
 30
0.0
 10
759.0674931541619
 20
27.79972069811743
 30
0.0
 10
758.9752409638461
 20
27.70204942915494
 30
0.0
 10
758.8952210528876
 20
27.59728001108724
 30
0.0
 10
758.8272957939176
 20
27.48787610471509
 30
0.0
 10
758.7714434475923
 20
27.37353560691519
 30
0.0
 10
758.7279344805063
 20
27.25418034176652
 30
0.0
 10
758.685938649497
 20
27.08644832543094
 30
0.0
 10
758.675207174604
 20
26.95583377473282
 30
0.0
 10
758.6746895210728
 20
26.86801601089839
 30
0.0
  0
SPLINE
  5
A8
330
1F
100
AcDbEntity
  8
0
  6
Continuous
 62
     7
370
    25
100
AcDbSpline
210
0.0
220
0.0
230
1.0
 70
     8
 71
     3
 72
    21
 73
    17
 74
     0
 42
0.00000001
 43
0.00000001
 40
0.0
 40
0.0
 40
0.0
 40
0.0
 40
0.1280988297755863
 40
0.1896694721890465
 40
0.2507063934632511
 40
0.311890666438603
 40
0.3732647830705283
 40
0.4358087922280679
 40
0.500424455805957
 40
0.5650608900029817
 40
0.6276710388631751
 40
0.6893315462593366
 40
0.7500699293139468
 40
0.8109958734420368
 40
0.8725665158555028
 40
1.0
 40
1.0
 40
1.0
 40
1.0
 10
758.6746895210728
 20
26.86801601089839
 30
0.0
 10
758.6748975133348
 20
26.77850965486994
 30
0.0
 10
758.6864044472701
 20
26.64581399936161
 30
0.0
 10
758.7270810233151
 20
26.47510681847259
 30
0.0
 10
758.7700340684229
 20
26.35379254861042
 30
0.0
 10
758.8258657497742
 20
26.23805922173533
 30
0.0
 10
758.8926156979401
 20
26.12701696050068
 30
0.0
 10
758.9726778317001
 20
26.02207141743818
 30
0.0
 10
759.0639095936067
 20
25.9236763690992
 30
0.0
 10
759.1629811923203
 20
25.83308858056077
 30
0.0
 10
759.268853884874
 20
25.75384688383953
 30
0.0
 10
759.3799139231958
 20
25.68730878621794
 30
0.0
 10
759.4955862976727
 20
25.63171639901762
 30
0.0
 10
759.6168600085618
 20
25.58985882407894
 30
0.0
 10
759.7869266524416
 20
25.54899935199023
 30
0.0
 10
759.919193763287
 20
25.53750494389928
 30
0.0
 10
760.0082231749188
 20
25.53728684423173
 30
0.0
  0
SPLINE
  5
A9
330
1F
100
AcDbEntity
  8
0
  6
Continuous
 62
     7
370
    25
100
AcDbSpline
210
0.0
220
0.0
230
1.0
 70
     8
 71
     3
 72
    13
 73
     9
 74
     0
 42
0.00000001
 43
0.00000001
 40
0.0
 40
0.0
 40
0.0
 40
0.0
 40
0.251855058396986
 40
0.3726997642744657
 40
0.4928354033771652
 40
0.613730087865482
 40
0.7379150246176975
 40
1.0
 40
1.0
 40
1.0
 40
1.0
 10
760.0082231749188
 20
25.53728684423173
 30
0.0
 10
760.1084593544069
 20
25.53647949378063
 30
0.0
 10
760.25687221127
 20
25.55121704600172
 30
0.0
 10
760.4469250669033
 20
25.60063665172152
 30
0.0
 10
760.5818522736423
 20
25.6517605397058
 30
0.0
 10
760.7105185525814
 20
25.71995165304364
 30
0.0
 10
760.8771461430707
 20
25.83458582048204
 30
0.0
 10
760.9856570940248
 20
25.94511529463256
 30
0.0
 10
761.0528946492778
 20
26.02456649166762
 30
0.0
  0
SPLINE
  5
AF
330
1F
100
AcDbEntity
  8
0
  6
Continuous
 62
     7
370
    25
100
AcDbSpline
210
0.0
220
0.0
230
1.0
 70
     8
 71
     3
 72
    13
 73
     9
 74
     0
 42
0.00000001
 43
0.00000001
 40
0.0
 40
0.0
 40
0.0
 40
0.0
 40
0.2630297194660287
 40
0.3857072861004971
 40
0.5057171440485901
 40
0.6251374504644821
 40
0.7461202383411369
 40
1.0
 40
1.0
 40
1.0
 40
1.0
 10
755.7580228544059
 20
26.05541585064197
 30
0.0
 10
755.8212128486647
 20
25.97117236582752
 30
0.0
 10
755.9239501235858
 20
25.85351398806041
 30
0.0
 10
756.0863664233718
 20
25.7309431287755
 30
0.0
 10
756.2127579926196
 20
25.65838000087056
 30
0.0
 10
756.3474817765643
 20
25.60487161679703
 30
0.0
 10
756.5386505234102
 20
25.55061435793776
 30
0.0
 10
756.6897702131381
 20
25.53763187790248
 30
0.0
 10
756.7914763800469
 20
25.53728684423173
 30
0.0
  0
SPLINE
  5
B0
330
1F
100
AcDbEntity
  8
0
  6
Continuous
 62
     7
370
    25
100
AcDbSpline
210
0.0
220
0.0
230
1.0
 70
     8
 71
     3
 72
    21
 73
    17
 74
     0
 42
0.00000001
 43
0.00000001
 40
0.0
 40
0.0
 40
0.0
 40
0.0
 40
0.1285125148987316
 40
0.1904698083481413
 40
0.2518829089235328
 40
0.313145257434717
 40
0.3748669296190126
 40
0.4380769709860093
 40
0.5028017699584952
 40
0.5674641985971176
 40
0.6302731169021776
 40
0.6914887942121866
 40
0.7521305273840488
 40
0.8127112369475127
 40
0.8737720037474402
 40
1.0
 40
1.0
 40
1.0
 40
1.0
 10
756.7914763800469
 20
25.53728684423173
 30
0.0
 10
756.8811091116869
 20
25.53818496600852
 30
0.0
 10
757.0143927274845
 20
25.54814470612576
 30
0.0
 10
757.1858268260233
 20
25.58891272457453
 30
0.0
 10
757.3073931718038
 20
25.63228023426489
 30
0.0
 10
757.4246567355314
 20
25.68594459882539
 30
0.0
 10
757.5358785386862
 20
25.75365930266693
 30
0.0
 10
757.6427927993
 20
25.83206583485054
 30
0.0
 10
757.7427064047375
 20
25.92229905224225
 30
0.0
 10
757.8350373261429
 20
26.01992272653098
 30
0.0
 10
757.9148491508964
 20
26.12496171343731
 30
0.0
 10
757.9839574476897
 20
26.23404203406843
 30
0.0
 10
758.0392333426646
 20
26.34906226570244
 30
0.0
 10
758.0831536392557
 20
26.46870933208151
 30
0.0
 10
758.1248138713744
 20
26.63702105036408
 30
0.0
 10
758.1358551962524
 20
26.76801571372533
 30
0.0
 10
758.136227982611
 20
26.8560969403856
 30
0.0
  0
SPLINE
  5
B1
330
1F
100
AcDbEntity
  8
0
  6
Continuous
 62
     7
370
    25
100
AcDbSpline
210
0.0
220
0.0
230
1.0
 70
     8
 71
     3
 72
    21
 73
    17
 74
     0
 42
0.00000001
 43
0.00000001
 40
0.0
 40
0.0
 40
0.0
 40
0.0
 40
0.1278241778864172
 40
0.1894220954825254
 40
0.2501708003723235
 40
0.3110805535947505
 40
0.3726557472008634
 40
0.4352274627328444
 40
0.4998717504074945
 40
0.5645368179024571
 40
0.627174702436323
 40
0.6888625248244258
 40
0.7496278143790596
 40
0.8105807480949155
 40
0.8721786656910291
 40
1.0
 40
1.0
 40
1.0
 40
1.0
 10
758.136227982611
 20
26.8560969403856
 30
0.0
 10
758.1361518069093
 20
26.94539450307903
 30
0.0
 10
758.1243767369825
 20
27.07780131706067
 30
0.0
 10
758.0839664240431
 20
27.24811676238931
 30
0.0
 10
758.040840375132
 20
27.36891281601228
 30
0.0
 10
757.9849970232826
 20
27.48431295713105
 30
0.0
 10
757.9175006054212
 20
27.5947880301069
 30
0.0
 10
757.8375871940685
 20
27.69996833513355
 30
0.0
 10
757.7462935569093
 20
27.79832501865986
 30
0.0
 10
757.6472386098393
 20
27.88892309751473
 30
0.0
 10
757.5413616217546
 20
27.9681622632259
 30
0.0
 10
757.430302636637
 20
28.03470053047297
 30
0.0
 10
757.3146302246057
 20
28.09029466957985
 30
0.0
 10
757.1933556275894
 20
28.13214504660605
 30
0.0
 10
757.023068504059
 20
28.1730958332927
 30
0.0
 10
756.8905396953421
 20
28.18440002449529
 30
0.0
 10
756.8012920851752
 20
28.18472274166761
 30
0.0
  0
SPLINE
  5
B2
330
1F
100
AcDbEntity
  8
0
  6
Continuous
 62
     7
370
    25
100
AcDbSpline
210
0.0
220
0.0
230
1.0
 70
     8
 71
     3
 72
    13
 73
     9
 74
     0
 42
0.00000001
 43
0.00000001
 40
0.0
 40
0.0
 40
0.0
 40
0.0
 40
0.2502768116197088
 40
0.3710338071318869
 40
0.4916103072441731
 40
0.6128103459541487
 40
0.7373191738145329
 40
1.0
 40
1.0
 40
1.0
 40
1.0
 10
756.8012920851752
 20
28.18472274166761
 30
0.0
 10
756.7010946621191
 20
28.18480541786828
 30
0.0
 10
756.5519346395082
 20
28.17045554476877
 30
0.0
 10
756.3623038502111
 20
28.11570012561165
 30
0.0
 10
756.2276026545067
 20
28.06049136404704
 30
0.0
 10
756.099684176516
 20
27.98785898049355
 30
0.0
 10
755.9343323100668
 20
27.86825624907158
 30
0.0
 10
755.8249111112591
 20
27.75688527601583
 30
0.0
 10
755.7580228544059
 20
27.67570831859073
 30
0.0
  0
SPLINE
  5
B9
330
1F
100
AcDbEntity
  8
0
  6
Continuous
 62
     7
370
    25
100
AcDbSpline
210
0.0
220
0.0
230
1.0
 70
     8
 71
     3
 72
    13
 73
     9
 74
     0
 42
0.00000001
 43
0.00000001
 40
0.0
 40
0.0
 40
0.0
 40
0.0
 40
0.3437621914217763
 40
0.491833832301093
 40
0.6241090704107972
 40
0.7413996050399076
 40
0.8430618504426455
 40
1.0
 40
1.0
 40
1.0
 40
1.0
 10
752.8862279826113
 20
26.44173395961635
 30
0.0
 10
752.8856815254333
 20
26.5427146210756
 30
0.0
 10
752.8879045968432
 20
26.6871612311857
 30
0.0
 10
752.8931788757321
 20
26.87041680860641
 30
0.0
 10
752.8997320268749
 20
26.98703254444923
 30
0.0
 10
752.9068801931003
 20
27.08996916847306
 30
0.0
 10
752.9191039532715
 20
27.1997085507536
 30
0.0
 10
752.9305679069861
 20
27.27488061324096
 30
0.0
 10
752.942317726201
 20
27.31953844679585
 30
0.0
  0
SPLINE
  5
BA
330
1F
100
AcDbEntity
  8
0
  6
Continuous
 62
     7
370
    25
100
AcDbSpline
210
0.0
220
0.0
230
1.0
 70
     8
 71
     3
 72
    17
 73
    13
 74
     0
 42
0.00000001
 43
0.00000001
 40
0.0
 40
0.0
 40
0.0
 40
0.0
 40
0.1717166158284572
 40
0.250667976774108
 40
0.3258823275093847
 40
0.3968812716964172
 40
0.4635748406535765
 40
0.528069748948772
 40
0.5896876632767198
 40
0.7048093833748899
 40
0.8086618718637333
 40
1.0
 40
1.0
 40
1.0
 40
1.0
 10
752.942317726201
 20
27.31953844679585
 30
0.0
 10
752.95424087356
 20
27.36400986100113
 30
0.0
 10
752.9737622609026
 20
27.42848774080181
 30
0.0
 10
753.0066137007271
 20
27.50954258596944
 30
0.0
 10
753.0322726332911
 20
27.56427403129291
 30
0.0
 10
753.060444672516
 20
27.61400310675
 30
0.0
 10
753.0899269492174
 20
27.6595826253167
 30
0.0
 10
753.1220673760088
 20
27.70022821294815
 30
0.0
 10
753.1671091849519
 20
27.74678874586045
 30
0.0
 10
753.2252836400495
 20
27.79497370477624
 30
0.0
 10
753.3202267520704
 20
27.85180901805395
 30
0.0
 10
753.3991060025937
 20
27.87068670043829
 30
0.0
 10
753.450631027483
 20
27.87062017756509
 30
0.0
  0
SPLINE
  5
BB
330
1F
100
AcDbEntity
  8
0
  6
Continuous
 62
     7
370
    25
100
AcDbSpline
210
0.0
220
0.0
230
1.0
 70
     8
 71
     3
 72
     9
 73
     5
 74
     0
 42
0.00000001
 43
0.00000001
 40
0.0
 40
0.0
 40
0.0
 40
0.0
 40
0.4397700551121884
 40
1.0
 40
1.0
 40
1.0
 40
1.0
 10
753.450631027483
 20
27.87062017756509
 30
0.0
 10
753.4753150673079
 20
27.87029778886102
 30
0.0
 10
753.531102222518
 20
27.86097323337727
 30
0.0
 10
753.5825748807365
 20
27.83771759475867
 30
0.0
 10
753.6111879185087
 20
27.8250472608984
 30
0.0
  0
SPLINE
  5
BD
330
1F
100
AcDbEntity
  8
0
  6
Continuous
 62
     7
370
    25
100
AcDbSpline
210
0.0
220
0.0
230
1.0
 70
     8
 71
     3
 72
     9
 73
     5
 74
     0
 42
0.00000001
 43
0.00000001
 40
0.0
 40
0.0
 40
0.0
 40
0.0
 40
0.5364768048237025
 40
1.0
 40
1.0
 40
1.0
 40
1.0
 10
753.7836638800472
 20
28.09708251730869
 30
0.0
 10
753.7393227749882
 20
28.12394240808491
 30
0.0
 10
753.6516696632712
 20
28.16748031956434
 30
0.0
 10
753.5552028329677
 20
28.18437332078044
 30
0.0
 10
753.5102263800471
 20
28.18472274166761
 30
0.0
  0
SPLINE
  5
BE
330
1F
100
AcDbEntity
  8
0
  6
Continuous
 62
     7
370
    25
100
AcDbSpline
210
0.0
220
0.0
230
1.0
 70
     8
 71
     3
 72
    13
 73
     9
 74
     0
 42
0.00000001
 43
0.00000001
 40
0.0
 40
0.0
 40
0.0
 40
0.0
 40
0.2138863655718647
 40
0.3246827750473095
 40
0.439458544744861
 40
0.561633485869794
 40
0.6938876172598769
 40
1.0
 40
1.0
 40
1.0
 40
1.0
 10
753.5102263800472
 20
28.18472274166767
 30
0.0
 10
753.4541459872771
 20
28.18433372509521
 30
0.0
 10
753.3685873923836
 20
28.17248707460385
 30
0.0
 10
753.2610141000288
 20
28.12980986586694
 30
0.0
 10
753.1806330694219
 20
28.0860495265674
 30
0.0
 10
753.1029972064723
 20
28.02752124720209
 30
0.0
 10
752.9972003130509
 20
27.92483018621156
 30
0.0
 10
752.9292481107176
 20
27.83106250166262
 30
0.0
 10
752.8862279826113
 20
27.76334854294971
 30
0.0
  0
SPLINE
  5
C3
330
1F
100
AcDbEntity
  8
0
  6
Continuous
 62
     7
370
    25
100
AcDbSpline
210
0.0
220
0.0
230
1.0
 70
     8
 71
     3
 72
    21
 73
    17
 74
     0
 42
0.00000001
 43
0.00000001
 40
0.0
 40
0.0
 40
0.0
 40
0.0
 40
0.1231816483428002
 40
0.1830343363247268
 40
0.2428661924761439
 40
0.3025168847059427
 40
0.3633154622039138
 40
0.4250692989986412
 40
0.4890423674851742
 40
0.553087142275227
 40
0.6154454653923731
 40
0.6772864118409536
 40
0.739174987439565
 40
0.8016758129328341
 40
0.8653648077757379
 40
1.0
 40
1.0
 40
1.0
 40
1.0
 10
749.3862279826112
 20
26.85399357500096
 30
0.0
 10
749.3857210752258
 20
26.76842615787395
 30
0.0
 10
749.3974304222476
 20
26.64130526494107
 30
0.0
 10
749.4360620199466
 20
26.47691647479466
 30
0.0
 10
749.4768446495182
 20
26.35905765259661
 30
0.0
 10
749.529216042579
 20
26.24517499275425
 30
0.0
 10
749.5931027620621
 20
26.13576488919217
 30
0.0
 10
749.6689767646081
 20
26.03061486604524
 30
0.0
 10
749.7549750948855
 20
25.93060485680227
 30
0.0
 10
749.850047145692
 20
25.83846911535043
 30
0.0
 10
749.9532470723717
 20
25.75790825114843
 30
0.0
 10
750.0630334614955
 20
25.68929917185797
 30
0.0
 10
750.180178729738
 20
25.63399486177276
 30
0.0
 10
750.3034057255871
 20
25.5901644098912
 30
0.0
 10
750.4799242035928
 20
25.54820502950361
 30
0.0
 10
750.6179425585842
 20
25.53770893683105
 30
0.0
 10
750.711348174919
 20
25.53728684423173
 30
0.0
  0
SPLINE
  5
C4
330
1F
100
AcDbEntity
  8
0
  6
Continuous
 62
     7
370
    25
100
AcDbSpline
210
0.0
220
0.0
230
1.0
 70
     8
 71
     3
 72
    21
 73
    17
 74
     0
 42
0.00000001
 43
0.00000001
 40
0.0
 40
0.0
 40
0.0
 40
0.0
 40
0.1341341587220424
 40
0.1979034644236247
 40
0.2604831025120542
 40
0.322145528691671
 40
0.3837784671889386
 40
0.446215423207863
 40
0.5103409574898141
 40
0.5743946950476086
 40
0.6362264024960824
 40
0.6971016460802506
 40
0.7568275569302938
 40
0.8167348601469018
 40
0.8766630214626719
 40
1.0
 40
1.0
 40
1.0
 40
1.0
 10
750.711348174919
 20
25.53728684423173
 30
0.0
 10
750.8042982243057
 20
25.53765080978582
 30
0.0
 10
750.9418255211231
 20
25.54832769399384
 30
0.0
 10
751.1178806828236
 20
25.59017953306347
 30
0.0
 10
751.2409467092909
 20
25.63385100554277
 30
0.0
 10
751.3575904445099
 20
25.68929745254695
 30
0.0
 10
751.4667443809651
 20
25.75811629684283
 30
0.0
 10
751.5698605377257
 20
25.83844529765078
 30
0.0
 10
751.6649124810144
 20
25.93061131039365
 30
0.0
 10
751.7509162025237
 20
26.03061320329175
 30
0.0
 10
751.8267888139227
 20
26.13576532077078
 30
0.0
 10
751.8906758947734
 20
26.2451748803042
 30
0.0
 10
751.9430471932285
 20
26.35905768257346
 30
0.0
 10
751.9838298480265
 20
26.47691646679295
 30
0.0
 10
752.0224614367569
 20
26.64130527044223
 30
0.0
 10
752.0341707893199
 20
26.76842615503266
 30
0.0
 10
752.0336638800471
 20
26.85399357500096
 30
0.0
  0
SPLINE
  5
C5
330
1F
100
AcDbEntity
  8
0
  6
Continuous
 62
     7
370
    25
100
AcDbSpline
210
0.0
220
0.0
230
1.0
 70
     8
 71
     3
 72
    13
 73
     9
 74
     0
 42
0.00000001
 43
0.00000001
 40
0.0
 40
0.0
 40
0.0
 40
0.0
 40
0.2554352550956477
 40
0.3786322712675498
 40
0.50146631433211
 40
0.6234943774777815
 40
0.7461656372032779
 40
1.0
 40
1.0
 40
1.0
 40
1.0
 10
752.0336638800471
 20
26.85399357500096
 30
0.0
 10
752.0331894912532
 20
26.93893042158585
 30
0.0
 10
752.0237056825279
 20
27.06517238451467
 30
0.0
 10
751.9865136999473
 20
27.22811168423395
 30
0.0
 10
751.9478715304973
 20
27.34449288565721
 30
0.0
 10
751.8987674556547
 20
27.45671139163514
 30
0.0
 10
751.8165280556665
 20
27.601072182381
 30
0.0
 10
751.7401339923471
 20
27.70101062257257
 30
0.0
 10
751.6831029826112
 20
27.76334854294971
 30
0.0
  0
SPLINE
  5
C6
330
1F
100
AcDbEntity
  8
0
  6
Continuous
 62
     7
370
    25
100
AcDbSpline
210
0.0
220
0.0
230
1.0
 70
     8
 71
     3
 72
    13
 73
     9
 74
     0
 42
0.00000001
 43
0.00000001
 40
0.0
 40
0.0
 40
0.0
 40
0.0
 40
0.2531294102724402
 40
0.3753070134590598
 40
0.4961956083998795
 40
0.6178660239074372
 40
0.7416676494858145
 40
1.0
 40
1.0
 40
1.0
 40
1.0
 10
751.6831029826112
 20
27.76334854294971
 30
0.0
 10
751.6209444986206
 20
27.83128514810113
 30
0.0
 10
751.5193291926802
 20
27.9240072731825
 30
0.0
 10
751.3669651950261
 20
28.02155360419112
 30
0.0
 10
751.2485855508963
 20
28.0822818170825
 30
0.0
 10
751.1227896373035
 20
28.12748772928148
 30
0.0
 10
750.944664508849
 20
28.1721317004156
 30
0.0
 10
750.805438336228
 20
28.18569738226518
 30
0.0
 10
750.711348174919
 20
28.18472274166761
 30
0.0
  0
SPLINE
  5
C7
330
1F
100
AcDbEntity
  8
0
  6
Continuous
 62
     7
370
    25
100
AcDbSpline
210
0.0
220
0.0
230
1.0
 70
     8
 71
     3
 72
    13
 73
     9
 74
     0
 42
0.00000001
 43
0.00000001
 40
0.0
 40
0.0
 40
0.0
 40
0.0
 40
0.2587123826906848
 40
0.3820894432542115
 40
0.5035635736272535
 40
0.6251808674329538
 40
0.7472870144846054
 40
1.0
 40
1.0
 40
1.0
 40
1.0
 10
750.711348174919
 20
28.18472274166761
 30
0.0
 10
750.6167808676953
 20
28.18558609738725
 30
0.0
 10
750.4771549039322
 20
28.17210067600323
 30
0.0
 10
750.298306283021
 20
28.12775454706318
 30
0.0
 10
750.1726116019372
 20
28.08098289662692
 30
0.0
 10
750.0529302638039
 20
28.02145152202995
 30
0.0
 10
749.900928037166
 20
27.92193110966213
 30
0.0
 10
749.7984075689753
 20
27.83008999524972
 30
0.0
 10
749.7367888800471
 20
27.76124517756507
 30
0.0
  0
SPLINE
  5
C8
330
1F
100
AcDbEntity
  8
0
  6
Continuous
 62
     7
370
    25
100
AcDbSpline
210
0.0
220
0.0
230
1.0
 70
     8
 71
     3
 72
    13
 73
     9
 74
     0
 42
0.00000001
 43
0.00000001
 40
0.0
 40
0.0
 40
0.0
 40
0.0
 40
0.253759205061608
 40
0.3772863205702288
 40
0.4989121128148896
 40
0.6213214040214744
 40
0.7447622750750944
 40
1.0
 40
1.0
 40
1.0
 40
1.0
 10
749.7367888800471
 20
27.76124517756507
 30
0.0
 10
749.6803755801619
 20
27.69873427937031
 30
0.0
 10
749.6026770922202
 20
27.59961894312302
 30
0.0
 10
749.521521817691
 20
27.45486599617408
 30
0.0
 10
749.4719734664559
 20
27.34313427101859
 30
0.0
 10
749.4332827506281
 20
27.22720357475794
 30
0.0
 10
749.3962698650039
 20
27.06469268619571
 30
0.0
 10
749.3867222493607
 20
26.93870037233426
 30
0.0
 10
749.3862279826112
 20
26.85399357500096
 30
0.0
  0
SPLINE
  5
C9
330
1F
100
AcDbEntity
  8
0
  6
Continuous
 62
     7
370
    25
100
AcDbSpline
210
0.0
220
0.0
230
1.0
 70
     8
 71
     3
 72
     9
 73
     5
 74
     0
 42
0.00000001
 43
0.00000001
 40
0.0
 40
0.0
 40
0.0
 40
0.0
 40
0.5074092035235833
 40
1.0
 40
1.0
 40
1.0
 40
1.0
 10
747.5016125979957
 20
27.51374918397531
 30
0.0
 10
747.5003408245849
 20
27.4430301090508
 30
0.0
 10
747.521057303531
 20
27.30401201690647
 30
0.0
 10
747.5794311670932
 20
27.17611352891414
 30
0.0
 10
747.6186999377393
 20
27.11971873525737
 30
0.0
  0
SPLINE
  5
CA
330
1F
100
AcDbEntity
  8
0
  6
Continuous
 62
     7
370
    25
100
AcDbSpline
210
0.0
220
0.0
230
1.0
 70
     8
 71
     3
 72
    13
 73
     9
 74
     0
 42
0.00000001
 43
0.00000001
 40
0.0
 40
0.0
 40
0.0
 40
0.0
 40
0.197704293009079
 40
0.3078458435568135
 40
0.4271756375984298
 40
0.5562245009992259
 40
0.6940497867915496
 40
1.0
 40
1.0
 40
1.0
 40
1.0
 10
747.6186999377393
 20
27.11971873525737
 30
0.0
 10
747.6396390173983
 20
27.0886514760959
 30
0.0
 10
747.6778981296328
 20
27.04459461605413
 30
0.0
 10
747.7358118565807
 20
26.98822923217875
 30
0.0
 10
747.787944093666
 20
26.94478567221903
 30
0.0
 10
747.8470545411374
 20
26.90188308421643
 30
0.0
 10
747.936124689992
 20
26.84021420935995
 30
0.0
 10
748.0091113301379
 20
26.79852716224335
 30
0.0
 10
748.0597055467136
 20
26.77056008141121
 30
0.0
  0
SPLINE
  5
CB
330
1F
100
AcDbEntity
  8
0
  6
Continuous
 62
     7
370
    25
100
AcDbSpline
210
0.0
220
0.0
230
1.0
 70
     8
 71
     3
 72
    13
 73
     9
 74
     0
 42
0.00000001
 43
0.00000001
 40
0.0
 40
0.0
 40
0.0
 40
0.0
 40
0.3337367066248621
 40
0.4791986316519813
 40
0.6104491594873718
 40
0.7277299767534031
 40
0.8325383242741483
 40
1.0
 40
1.0
 40
1.0
 40
1.0
 10
748.0597055467136
 20
26.77056008141121
 30
0.0
 10
748.1060754391943
 20
26.74610307885761
 30
0.0
 10
748.1717008576661
 20
26.70924829327065
 30
0.0
 10
748.2543570377607
 20
26.66064340320323
 30
0.0
 10
748.3063564864988
 20
26.62705668663351
 30
0.0
 10
748.3514736199071
 20
26.59470308103356
 30
0.0
 10
748.3993794575453
 20
26.55661366534351
 30
0.0
 10
748.4305789019658
 20
26.52720551585153
 30
0.0
 10
748.4474258992778
 20
26.50693828653944
 30
0.0
  0
SPLINE
  5
CC
330
1F
100
AcDbEntity
  8
0
  6
Continuous
 62
     7
370
    25
100
AcDbSpline
210
0.0
220
0.0
230
1.0
 70
     8
 71
     3
 72
     9
 73
     5
 74
     0
 42
0.00000001
 43
0.00000001
 40
0.0
 40
0.0
 40
0.0
 40
0.0
 40
0.4995466848970542
 40
1.0
 40
1.0
 40
1.0
 40
1.0
 10
748.4474258992778
 20
26.50693828653944
 30
0.0
 10
748.475315421126
 20
26.47298757732769
 30
0.0
 10
748.5195049948304
 20
26.39520775932169
 30
0.0
 10
748.5334965291593
 20
26.3069175203095
 30
0.0
 10
748.533663880047
 20
26.26294790192402
 30
0.0
  0
SPLINE
  5
CD
330
1F
100
AcDbEntity
  8
0
  6
Continuous
 62
     7
370
    25
100
AcDbSpline
210
0.0
220
0.0
230
1.0
 70
     8
 71
     3
 72
    13
 73
     9
 74
     0
 42
0.00000001
 43
0.00000001
 40
0.0
 40
0.0
 40
0.0
 40
0.0
 40
0.2352817369432337
 40
0.3554913463217564
 40
0.4823137941791729
 40
0.612163955308882
 40
0.7381043263491952
 40
1.0
 40
1.0
 40
1.0
 40
1.0
 10
748.533663880047
 20
26.26294790192402
 30
0.0
 10
748.5339951350298
 20
26.20972934088589
 30
0.0
 10
748.5168783610234
 20
26.12925037228769
 30
0.0
 10
748.4607416706433
 20
26.03492906535143
 30
0.0
 10
748.402918511929
 20
25.97195680763925
 30
0.0
 10
748.33487379915
 20
25.91793696083805
 30
0.0
 10
748.2291692997361
 20
25.86616420572402
 30
0.0
 10
748.1413496519331
 20
25.85087697840449
 30
0.0
 10
748.0821414441496
 20
25.85138940833431
 30
0.0
  0
SPLINE
  5
CE
330
1F
100
AcDbEntity
  8
0
  6
Continuous
 62
     7
370
    25
100
AcDbSpline
210
0.0
220
0.0
230
1.0
 70
     8
 71
     3
 72
    13
 73
     9
 74
     0
 42
0.00000001
 43
0.00000001
 40
0.0
 40
0.0
 40
0.0
 40
0.0
 40
0.2249939016839898
 40
0.3407622816196355
 40
0.459499256413394
 40
0.5828283517555495
 40
0.7140958284555524
 40
1.0
 40
1.0
 40
1.0
 40
1.0
 10
748.0821414441496
 20
25.85138940833431
 30
0.0
 10
748.0376852618632
 20
25.85117422134942
 30
0.0
 10
747.9705329453501
 20
25.8602366640982
 30
0.0
 10
747.8840712101385
 20
25.8881539409278
 30
0.0
 10
747.8198474351562
 20
25.91788625671804
 30
0.0
 10
747.7570245087305
 20
25.95654969509947
 30
0.0
 10
747.6711736513728
 20
26.02003559156973
 30
0.0
 10
747.6128803072444
 20
26.07872508290721
 30
0.0
 10
747.5752303864572
 20
26.12062017756506
 30
0.0
  0
SPLINE
  5
D0
330
1F
100
AcDbEntity
  8
0
  6
Continuous
 62
     7
370
    25
100
AcDbSpline
210
0.0
220
0.0
230
1.0
 70
     8
 71
     3
 72
    13
 73
     9
 74
     0
 42
0.00000001
 43
0.00000001
 40
0.0
 40
0.0
 40
0.0
 40
0.0
 40
0.2445989327970473
 40
0.3685417614065689
 40
0.4953064507483649
 40
0.6227813119738068
 40
0.7482760387504068
 40
1.0
 40
1.0
 40
1.0
 40
1.0
 10
747.3669972133803
 20
25.8836410108984
 30
0.0
 10
747.4092650044486
 20
25.8300421087797
 30
0.0
 10
747.4826083877941
 20
25.7570397330168
 30
0.0
 10
747.5958492495932
 20
25.67744807540229
 30
0.0
 10
747.6888542737734
 20
25.62725019155521
 30
0.0
 10
747.7872492695185
 20
25.58759660326143
 30
0.0
 10
747.9228084067499
 20
25.54887956559304
 30
0.0
 10
748.0280072358191
 20
25.53675382487203
 30
0.0
 10
748.0982672454317
 20
25.53728684423173
 30
0.0
  0
SPLINE
  5
D1
330
1F
100
AcDbEntity
  8
0
  6
Continuous
 62
     7
370
    25
100
AcDbSpline
210
0.0
220
0.0
230
1.0
 70
     8
 71
     3
 72
    21
 73
    17
 74
     0
 42
0.00000001
 43
0.00000001
 40
0.0
 40
0.0
 40
0.0
 40
0.0
 40
0.1313602991794603
 40
0.194501516428776
 40
0.2564315180678534
 40
0.3176028927083406
 40
0.3786284196027307
 40
0.4404806721564614
 40
0.5042957142746892
 40
0.5681107563928984
 40
0.6299630089466474
 40
0.6904753005359335
 40
0.7513604849059731
 40
0.8114026619125837
 40
0.8728008672444953
 40
1.0
 40
1.0
 40
1.0
 40
1.0
 10
748.0982672454318
 20
25.53728684423173
 30
0.0
 10
748.1496567316137
 20
25.53763694278499
 30
0.0
 10
748.2259512300282
 20
25.54337635237025
 30
0.0
 10
748.3239434325516
 20
25.56602784764878
 30
0.0
 10
748.3929063101705
 20
25.59007618378462
 30
0.0
 10
748.4584333152444
 20
25.62034676603886
 30
0.0
 10
748.5206720932237
 20
25.65691970555461
 30
0.0
 10
748.5791782393555
 20
25.70094404059991
 30
0.0
 10
748.6340237565986
 20
25.75102968408338
 30
0.0
 10
748.6841150315049
 20
25.8058686654683
 30
0.0
 10
748.7279903089449
 20
25.86424461506509
 30
0.0
 10
748.7645367750711
 20
25.92608077075304
 30
0.0
 10
748.7957261006878
 20
25.99004006413708
 30
0.0
 10
748.8188014537017
 20
26.05773403272227
 30
0.0
 10
748.8417965204748
 20
26.15246673810967
 30
0.0
 10
748.8472945418812
 20
26.22654127323237
 30
0.0
 10
748.8477664441496
 20
26.27626921602661
 30
0.0
  0
SPLINE
  5
D2
330
1F
100
AcDbEntity
  8
0
  6
Continuous
 62
     7
370
    25
100
AcDbSpline
210
0.0
220
0.0
230
1.0
 70
     8
 71
     3
 72
     9
 73
     5
 74
     0
 42
0.00000001
 43
0.00000001
 40
0.0
 40
0.0
 40
0.0
 40
0.0
 40
0.5047649745423515
 40
1.0
 40
1.0
 40
1.0
 40
1.0
 10
748.8477664441496
 20
26.27626921602661
 30
0.0
 10
748.8467654392975
 20
26.34651314200281
 30
0.0
 10
748.8307068209944
 20
26.48751653005027
 30
0.0
 10
748.7666299686957
 20
26.61416767678226
 30
0.0
 10
748.7285757390214
 20
26.67170190833429
 30
0.0
  0
SPLINE
  5
D3
330
1F
100
AcDbEntity
  8
0
  6
Continuous
 62
     7
370
    25
100
AcDbSpline
210
0.0
220
0.0
230
1.0
 70
     8
 71
     3
 72
    13
 73
     9
 74
     0
 42
0.00000001
 43
0.00000001
 40
0.0
 40
0.0
 40
0.0
 40
0.0
 40
0.1954188198467802
 40
0.3058478904170387
 40
0.4251239275883484
 40
0.5537868414038682
 40
0.6928854083944351
 40
1.0
 40
1.0
 40
1.0
 40
1.0
 10
748.7285757390214
 20
26.67170190833429
 30
0.0
 10
748.7064111064414
 20
26.70299825211114
 30
0.0
 10
748.667275240399
 20
26.74880701383425
 30
0.0
 10
748.6055797233397
 20
26.80500929928387
 30
0.0
 10
748.5516611430171
 20
26.85017954959801
 30
0.0
 10
748.4901962174939
 20
26.89483683653415
 30
0.0
 10
748.3965119314983
 20
26.95766784912718
 30
0.0
 10
748.3206586485152
 20
27.00154611829086
 30
0.0
 10
748.2679387197905
 20
27.03067626730865
 30
0.0
  0
SPLINE
  5
D4
330
1F
100
AcDbEntity
  8
0
  6
Continuous
 62
     7
370
    25
100
AcDbSpline
210
0.0
220
0.0
230
1.0
 70
     8
 71
     3
 72
    13
 73
     9
 74
     0
 42
0.00000001
 43
0.00000001
 40
0.0
 40
0.0
 40
0.0
 40
0.0
 40
0.3238790058012838
 40
0.4664315196199198
 40
0.5977832531928434
 40
0.716017640049543
 40
0.8224401785340065
 40
1.0
 40
1.0
 40
1.0
 40
1.0
 10
748.2679387197905
 20
27.03067626730865
 30
0.0
 10
748.2245166322633
 20
27.05328739879931
 30
0.0
 10
748.164324085225
 20
27.08987480607622
 30
0.0
 10
748.0874773672737
 20
27.13728603365839
 30
0.0
 10
748.0387090548531
 20
27.17089593676014
 30
0.0
 10
747.9954225055941
 20
27.20286484941198
 30
0.0
 10
747.9498458224227
 20
27.24304855313536
 30
0.0
 10
747.9186367748229
 20
27.27258357361589
 30
0.0
 10
747.9026542646624
 20
27.29429806218042
 30
0.0
  0
SPLINE
  5
D5
330
1F
100
AcDbEntity
  8
0
  6
Continuous
 62
     7
370
    25
100
AcDbSpline
210
0.0
220
0.0
230
1.0
 70
     8
 71
     3
 72
     9
 73
     5
 74
     0
 42
0.00000001
 43
0.00000001
 40
0.0
 40
0.0
 40
0.0
 40
0.0
 40
0.5205968063940213
 40
1.0
 40
1.0
 40
1.0
 40
1.0
 10
747.9026542646624
 20
27.29429806218042
 30
0.0
 10
747.8759640758019
 20
27.32882711413503
 30
0.0
 10
747.8314768217581
 20
27.4018600027871
 30
0.0
 10
747.8157906779425
 20
27.48600384313549
 30
0.0
 10
747.8157151620983
 20
27.526369376283
 30
0.0
  0
SPLINE
  5
D6
330
1F
100
AcDbEntity
  8
0
  6
Continuous
 62
     7
370
    25
100
AcDbSpline
210
0.0
220
0.0
230
1.0
 70
     8
 71
     3
 72
    13
 73
     9
 74
     0
 42
0.00000001
 43
0.00000001
 40
0.0
 40
0.0
 40
0.0
 40
0.0
 40
0.2489716711489731
 40
0.371496133633368
 40
0.5014891588227015
 40
0.630833970413922
 40
0.7540993713936528
 40
1.0
 40
1.0
 40
1.0
 40
1.0
 10
747.8157151620983
 20
27.526369376283
 30
0.0
 10
747.8158386542832
 20
27.57031402843069
 30
0.0
 10
747.8276710692256
 20
27.6363190484048
 30
0.0
 10
747.8693586346562
 20
27.71517290813197
 30
0.0
 10
747.9117957393808
 20
27.76795345209465
 30
0.0
 10
747.9619680466634
 20
27.81385540033266
 30
0.0
 10
748.0392906947999
 20
27.85742191863622
 30
0.0
 10
748.1043971149721
 20
27.87151492074524
 30
0.0
 10
748.1480468928676
 20
27.87062017756509
 30
0.0
  0
SPLINE
  5
D7
330
1F
100
AcDbEntity
  8
0
  6
Continuous
 62
     7
370
    25
100
AcDbSpline
210
0.0
220
0.0
230
1.0
 70
     8
 71
     3
 72
    13
 73
     9
 74
     0
 42
0.00000001
 43
0.00000001
 40
0.0
 40
0.0
 40
0.0
 40
0.0
 40
0.2066658703703788
 40
0.3164748855849829
 40
0.4340367728953333
 40
0.5586910361120339
 40
0.6949644946417399
 40
1.0
 40
1.0
 40
1.0
 40
1.0
 10
748.1480468928675
 20
27.87062017756503
 30
0.0
 10
748.184861766567
 20
27.87058741175258
 30
0.0
 10
748.2410822783023
 20
27.86147930934474
 30
0.0
 10
748.313145186332
 20
27.83323368245238
 30
0.0
 10
748.3686066066485
 20
27.80382913194757
 30
0.0
 10
748.423645230245
 20
27.76485731307116
 30
0.0
 10
748.5014673051531
 20
27.70086266247518
 30
0.0
 10
748.5549363027966
 20
27.64291843474836
 30
0.0
 10
748.5897536236367
 20
27.60138940833429
 30
0.0
  0
SPLINE
  5
D9
330
1F
100
AcDbEntity
  8
0
  6
Continuous
 62
     7
370
    25
100
AcDbSpline
210
0.0
220
0.0
230
1.0
 70
     8
 71
     3
 72
    13
 73
     9
 74
     0
 42
0.00000001
 43
0.00000001
 40
0.0
 40
0.0
 40
0.0
 40
0.0
 40
0.2972877955187747
 40
0.4309389201448538
 40
0.5555483284431699
 40
0.6738732699265098
 40
0.7865883873610602
 40
1.0
 40
1.0
 40
1.0
 40
1.0
 10
748.8028946492777
 20
27.82084053012917
 30
0.0
 10
748.7522865924694
 20
27.8781350982914
 30
0.0
 10
748.6723439477846
 20
27.95535031582103
 30
0.0
 10
748.558837260521
 20
28.04222801923634
 30
0.0
 10
748.4770488098848
 20
28.09432979576631
 30
0.0
 10
748.3947200543824
 20
28.13450771882503
 30
0.0
 10
748.2868249446166
 20
28.17297828487714
 30
0.0
 10
748.2029421849201
 20
28.18466955314242
 30
0.0
 10
748.1480468928676
 20
28.18472274166761
 30
0.0
  0
SPLINE
  5
DA
330
1F
100
AcDbEntity
  8
0
  6
Continuous
 62
     7
370
    25
100
AcDbSpline
210
0.0
220
0.0
230
1.0
 70
     8
 71
     3
 72
    21
 73
    17
 74
     0
 42
0.00000001
 43
0.00000001
 40
0.0
 40
0.0
 40
0.0
 40
0.0
 40
0.1291156642467618
 40
0.1906142170369299
 40
0.2512349941101595
 40
0.3110899094595514
 40
0.3711861458444907
 40
0.43211947994139
 40
0.4949206964951557
 40
0.5573643976838026
 40
0.6191271459504197
 40
0.6802716623934746
 40
0.7413865832314339
 40
0.8034925619466107
 40
0.8669564647560922
 40
1.0
 40
1.0
 40
1.0
 40
1.0
 10
748.1480468928675
 20
28.18472274166761
 30
0.0
 10
748.1031338312536
 20
28.18525730500426
 30
0.0
 10
748.0368883487808
 20
28.17902813376821
 30
0.0
 10
747.9517113444914
 20
28.15928501187592
 30
0.0
 10
747.8918906436619
 20
28.13831030096531
 30
0.0
 10
747.8354822844847
 20
28.11053811041181
 30
0.0
 10
747.7819440104778
 20
28.07743364344656
 30
0.0
 10
747.7310492501384
 20
28.03863449940619
 30
0.0
 10
747.6839425845059
 20
27.99412531361145
 30
0.0
 10
747.6410993653021
 20
27.945122152499
 30
0.0
 10
747.6039116782033
 20
27.89238621013473
 30
0.0
 10
747.5722667393833
 20
27.83672886364225
 30
0.0
 10
747.5457801181391
 20
27.77822629415305
 30
0.0
 10
747.5267390060937
 20
27.71610124917773
 30
0.0
 10
747.5060578372583
 20
27.62852636400659
 30
0.0
 10
747.5019293868639
 20
27.55989149697324
 30
0.0
 10
747.5016125979957
 20
27.51374918397531
 30
0.0
  0
SPLINE
  5
DB
330
1F
100
AcDbEntity
  8
0
  6
Continuous
 62
     7
370
    25
100
AcDbSpline
210
0.0
220
0.0
230
1.0
 70
     8
 71
     3
 72
     9
 73
     5
 74
     0
 42
0.00000001
 43
0.00000001
 40
0.0
 40
0.0
 40
0.0
 40
0.0
 40
0.5074092035235833
 40
1.0
 40
1.0
 40
1.0
 40
1.0
 10
745.6169972133806
 20
27.51374918397531
 30
0.0
 10
745.6157254399699
 20
27.4430301090508
 30
0.0
 10
745.6364419189158
 20
27.30401201690647
 30
0.0
 10
745.6948157824781
 20
27.17611352891408
 30
0.0
 10
745.7340845531241
 20
27.11971873525737
 30
0.0
  0
SPLINE
  5
DC
330
1F
100
AcDbEntity
  8
0
  6
Continuous
 62
     7
370
    25
100
AcDbSpline
210
0.0
220
0.0
230
1.0
 70
     8
 71
     3
 72
    13
 73
     9
 74
     0
 42
0.00000001
 43
0.00000001
 40
0.0
 40
0.0
 40
0.0
 40
0.0
 40
0.197704293009079
 40
0.3078458435568135
 40
0.4271756375984298
 40
0.5562245009992259
 40
0.6940497867915496
 40
1.0
 40
1.0
 40
1.0
 40
1.0
 10
745.7340845531241
 20
27.11971873525737
 30
0.0
 10
745.7550236327833
 20
27.0886514760959
 30
0.0
 10
745.7932827450179
 20
27.04459461605413
 30
0.0
 10
745.8511964719653
 20
26.9882292321787
 30
0.0
 10
745.9033287090509
 20
26.94478567221897
 30
0.0
 10
745.9624391565221
 20
26.90188308421643
 30
0.0
 10
746.0515093053768
 20
26.84021420935995
 30
0.0
 10
746.1244959455228
 20
26.79852716224335
 30
0.0
 10
746.1750901620985
 20
26.77056008141121
 30
0.0
  0
SPLINE
  5
DD
330
1F
100
AcDbEntity
  8
0
  6
Continuous
 62
     7
370
    25
100
AcDbSpline
210
0.0
220
0.0
230
1.0
 70
     8
 71
     3
 72
    13
 73
     9
 74
     0
 42
0.00000001
 43
0.00000001
 40
0.0
 40
0.0
 40
0.0
 40
0.0
 40
0.3337367066248621
 40
0.4791986316519813
 40
0.6104491594873718
 40
0.7277299767534031
 40
0.8325383242741483
 40
1.0
 40
1.0
 40
1.0
 40
1.0
 10
746.1750901620985
 20
26.77056008141121
 30
0.0
 10
746.2214600545789
 20
26.74610307885755
 30
0.0
 10
746.2870854730511
 20
26.70924829327065
 30
0.0
 10
746.3697416531456
 20
26.66064340320323
 30
0.0
 10
746.4217411018835
 20
26.62705668663351
 30
0.0
 10
746.4668582352919
 20
26.59470308103356
 30
0.0
 10
746.5147640729299
 20
26.55661366534351
 30
0.0
 10
746.5459635173506
 20
26.52720551585153
 30
0.0
 10
746.5628105146627
 20
26.50693828653944
 30
0.0
  0
SPLINE
  5
DE
330
1F
100
AcDbEntity
  8
0
  6
Continuous
 62
     7
370
    25
100
AcDbSpline
210
0.0
220
0.0
230
1.0
 70
     8
 71
     3
 72
     9
 73
     5
 74
     0
 42
0.00000001
 43
0.00000001
 40
0.0
 40
0.0
 40
0.0
 40
0.0
 40
0.4995466848970542
 40
1.0
 40
1.0
 40
1.0
 40
1.0
 10
746.5628105146627
 20
26.50693828653944
 30
0.0
 10
746.5907000365111
 20
26.47298757732769
 30
0.0
 10
746.6348896102152
 20
26.39520775932169
 30
0.0
 10
746.6488811445439
 20
26.3069175203095
 30
0.0
 10
746.6490484954319
 20
26.26294790192402
 30
0.0
  0
SPLINE
  5
DF
330
1F
100
AcDbEntity
  8
0
  6
Continuous
 62
     7
370
    25
100
AcDbSpline
210
0.0
220
0.0
230
1.0
 70
     8
 71
     3
 72
    13
 73
     9
 74
     0
 42
0.00000001
 43
0.00000001
 40
0.0
 40
0.0
 40
0.0
 40
0.0
 40
0.2352817369432602
 40
0.3554913463217786
 40
0.4823137941791906
 40
0.6121639553088953
 40
0.7381043263492042
 40
1.0
 40
1.0
 40
1.0
 40
1.0
 10
746.6490484954319
 20
26.26294790192402
 30
0.0
 10
746.6493797504148
 20
26.20972934088584
 30
0.0
 10
746.6322629764079
 20
26.12925037228769
 30
0.0
 10
746.576126286028
 20
26.03492906535143
 30
0.0
 10
746.5183031273139
 20
25.97195680763925
 30
0.0
 10
746.4502584145349
 20
25.91793696083805
 30
0.0
 10
746.3445539151209
 20
25.86616420572408
 30
0.0
 10
746.2567342673177
 20
25.85087697840449
 30
0.0
 10
746.1975260595344
 20
25.85138940833426
 30
0.0
  0
SPLINE
  5
E0
330
1F
100
AcDbEntity
  8
0
  6
Continuous
 62
     7
370
    25
100
AcDbSpline
210
0.0
220
0.0
230
1.0
 70
     8
 71
     3
 72
    13
 73
     9
 74
     0
 42
0.00000001
 43
0.00000001
 40
0.0
 40
0.0
 40
0.0
 40
0.0
 40
0.2249939016839898
 40
0.3407622816196355
 40
0.459499256413394
 40
0.5828283517555495
 40
0.7140958284555524
 40
1.0
 40
1.0
 40
1.0
 40
1.0
 10
746.1975260595344
 20
25.85138940833426
 30
0.0
 10
746.1530698772481
 20
25.85117422134942
 30
0.0
 10
746.0859175607349
 20
25.8602366640982
 30
0.0
 10
745.9994558255233
 20
25.8881539409278
 30
0.0
 10
745.9352320505412
 20
25.91788625671804
 30
0.0
 10
745.8724091241154
 20
25.95654969509947
 30
0.0
 10
745.7865582667577
 20
26.02003559156973
 30
0.0
 10
745.7282649226293
 20
26.07872508290721
 30
0.0
 10
745.690615001842
 20
26.12062017756506
 30
0.0
  0
SPLINE
  5
E2
330
1F
100
AcDbEntity
  8
0
  6
Continuous
 62
     7
370
    25
100
AcDbSpline
210
0.0
220
0.0
230
1.0
 70
     8
 71
     3
 72
    13
 73
     9
 74
     0
 42
0.00000001
 43
0.00000001
 40
0.0
 40
0.0
 40
0.0
 40
0.0
 40
0.2445989327970473
 40
0.3685417614065689
 40
0.4953064507483649
 40
0.6227813119738068
 40
0.7482760387504068
 40
1.0
 40
1.0
 40
1.0
 40
1.0
 10
745.4823818287651
 20
25.8836410108984
 30
0.0
 10
745.5246496198336
 20
25.83004210877965
 30
0.0
 10
745.5979930031788
 20
25.7570397330168
 30
0.0
 10
745.7112338649783
 20
25.67744807540229
 30
0.0
 10
745.8042388891581
 20
25.62725019155521
 30
0.0
 10
745.9026338849035
 20
25.58759660326143
 30
0.0
 10
746.0381930221345
 20
25.54887956559304
 30
0.0
 10
746.143391851204
 20
25.53675382487197
 30
0.0
 10
746.2136518608164
 20
25.53728684423173
 30
0.0
  0
SPLINE
  5
E3
330
1F
100
AcDbEntity
  8
0
  6
Continuous
 62
     7
370
    25
100
AcDbSpline
210
0.0
220
0.0
230
1.0
 70
     8
 71
     3
 72
    21
 73
    17
 74
     0
 42
0.00000001
 43
0.00000001
 40
0.0
 40
0.0
 40
0.0
 40
0.0
 40
0.1313602991794603
 40
0.194501516428776
 40
0.2564315180678534
 40
0.3176028927083406
 40
0.3786284196027307
 40
0.4404806721564614
 40
0.5042957142746892
 40
0.5681107563928984
 40
0.6299630089466474
 40
0.6904753005359335
 40
0.7513604849059731
 40
0.8114026619125837
 40
0.8728008672444953
 40
1.0
 40
1.0
 40
1.0
 40
1.0
 10
746.2136518608165
 20
25.53728684423173
 30
0.0
 10
746.2650413469985
 20
25.53763694278499
 30
0.0
 10
746.341335845413
 20
25.54337635237025
 30
0.0
 10
746.4393280479363
 20
25.56602784764872
 30
0.0
 10
746.5082909255553
 20
25.59007618378462
 30
0.0
 10
746.5738179306293
 20
25.6203467660388
 30
0.0
 10
746.6360567086087
 20
25.65691970555461
 30
0.0
 10
746.6945628547402
 20
25.70094404059991
 30
0.0
 10
746.7494083719836
 20
25.75102968408333
 30
0.0
 10
746.7994996468897
 20
25.8058686654683
 30
0.0
 10
746.8433749243299
 20
25.86424461506504
 30
0.0
 10
746.8799213904559
 20
25.92608077075304
 30
0.0
 10
746.9111107160726
 20
25.99004006413708
 30
0.0
 10
746.9341860690865
 20
26.05773403272227
 30
0.0
 10
746.9571811358594
 20
26.15246673810967
 30
0.0
 10
746.9626791572663
 20
26.22654127323237
 30
0.0
 10
746.9631510595344
 20
26.27626921602661
 30
0.0
  0
SPLINE
  5
E4
330
1F
100
AcDbEntity
  8
0
  6
Continuous
 62
     7
370
    25
100
AcDbSpline
210
0.0
220
0.0
230
1.0
 70
     8
 71
     3
 72
     9
 73
     5
 74
     0
 42
0.00000001
 43
0.00000001
 40
0.0
 40
0.0
 40
0.0
 40
0.0
 40
0.5047649745423515
 40
1.0
 40
1.0
 40
1.0
 40
1.0
 10
746.9631510595344
 20
26.27626921602661
 30
0.0
 10
746.9621500546826
 20
26.34651314200281
 30
0.0
 10
746.9460914363791
 20
26.48751653005027
 30
0.0
 10
746.8820145840804
 20
26.61416767678221
 30
0.0
 10
746.8439603544062
 20
26.67170190833429
 30
0.0
  0
SPLINE
  5
E5
330
1F
100
AcDbEntity
  8
0
  6
Continuous
 62
     7
370
    25
100
AcDbSpline
210
0.0
220
0.0
230
1.0
 70
     8
 71
     3
 72
    13
 73
     9
 74
     0
 42
0.00000001
 43
0.00000001
 40
0.0
 40
0.0
 40
0.0
 40
0.0
 40
0.1954188198467802
 40
0.3058478904170387
 40
0.4251239275883484
 40
0.5537868414038682
 40
0.6928854083944351
 40
1.0
 40
1.0
 40
1.0
 40
1.0
 10
746.8439603544062
 20
26.67170190833429
 30
0.0
 10
746.8217957218262
 20
26.70299825211109
 30
0.0
 10
746.7826598557839
 20
26.74880701383425
 30
0.0
 10
746.7209643387246
 20
26.80500929928387
 30
0.0
 10
746.6670457584021
 20
26.85017954959801
 30
0.0
 10
746.6055808328787
 20
26.89483683653415
 30
0.0
 10
746.5118965468832
 20
26.95766784912712
 30
0.0
 10
746.4360432638999
 20
27.00154611829086
 30
0.0
 10
746.3833233351754
 20
27.03067626730865
 30
0.0
  0
SPLINE
  5
E6
330
1F
100
AcDbEntity
  8
0
  6
Continuous
 62
     7
370
    25
100
AcDbSpline
210
0.0
220
0.0
230
1.0
 70
     8
 71
     3
 72
    13
 73
     9
 74
     0
 42
0.00000001
 43
0.00000001
 40
0.0
 40
0.0
 40
0.0
 40
0.0
 40
0.3238790058012838
 40
0.4664315196199198
 40
0.5977832531928434
 40
0.716017640049543
 40
0.8224401785340065
 40
1.0
 40
1.0
 40
1.0
 40
1.0
 10
746.3833233351754
 20
27.03067626730865
 30
0.0
 10
746.3399012476484
 20
27.05328739879931
 30
0.0
 10
746.2797087006098
 20
27.08987480607622
 30
0.0
 10
746.2028619826584
 20
27.13728603365839
 30
0.0
 10
746.154093670238
 20
27.17089593676014
 30
0.0
 10
746.110807120979
 20
27.20286484941198
 30
0.0
 10
746.0652304378075
 20
27.24304855313536
 30
0.0
 10
746.0340213902075
 20
27.27258357361589
 30
0.0
 10
746.0180388800472
 20
27.29429806218042
 30
0.0
  0
SPLINE
  5
E7
330
1F
100
AcDbEntity
  8
0
  6
Continuous
 62
     7
370
    25
100
AcDbSpline
210
0.0
220
0.0
230
1.0
 70
     8
 71
     3
 72
     9
 73
     5
 74
     0
 42
0.00000001
 43
0.00000001
 40
0.0
 40
0.0
 40
0.0
 40
0.0
 40
0.5205968063940213
 40
1.0
 40
1.0
 40
1.0
 40
1.0
 10
746.0180388800472
 20
27.29429806218042
 30
0.0
 10
745.9913486911868
 20
27.32882711413503
 30
0.0
 10
745.9468614371428
 20
27.40186000278705
 30
0.0
 10
745.9311752933274
 20
27.48600384313549
 30
0.0
 10
745.9310997774832
 20
27.526369376283
 30
0.0
  0
SPLINE
  5
E8
330
1F
100
AcDbEntity
  8
0
  6
Continuous
 62
     7
370
    25
100
AcDbSpline
210
0.0
220
0.0
230
1.0
 70
     8
 71
     3
 72
    13
 73
     9
 74
     0
 42
0.00000001
 43
0.00000001
 40
0.0
 40
0.0
 40
0.0
 40
0.0
 40
0.2489716711489731
 40
0.371496133633368
 40
0.5014891588227015
 40
0.630833970413922
 40
0.7540993713936528
 40
1.0
 40
1.0
 40
1.0
 40
1.0
 10
745.9310997774832
 20
27.526369376283
 30
0.0
 10
745.9312232696682
 20
27.57031402843069
 30
0.0
 10
745.9430556846106
 20
27.6363190484048
 30
0.0
 10
745.9847432500409
 20
27.71517290813197
 30
0.0
 10
746.0271803547657
 20
27.76795345209465
 30
0.0
 10
746.077352662048
 20
27.81385540033266
 30
0.0
 10
746.154675310185
 20
27.85742191863622
 30
0.0
 10
746.2197817303569
 20
27.87151492074524
 30
0.0
 10
746.2634315082523
 20
27.87062017756503
 30
0.0
  0
SPLINE
  5
E9
330
1F
100
AcDbEntity
  8
0
  6
Continuous
 62
     7
370
    25
100
AcDbSpline
210
0.0
220
0.0
230
1.0
 70
     8
 71
     3
 72
    13
 73
     9
 74
     0
 42
0.00000001
 43
0.00000001
 40
0.0
 40
0.0
 40
0.0
 40
0.0
 40
0.2066658703703788
 40
0.3164748855849829
 40
0.4340367728953333
 40
0.5586910361120339
 40
0.6949644946417399
 40
1.0
 40
1.0
 40
1.0
 40
1.0
 10
746.2634315082522
 20
27.87062017756503
 30
0.0
 10
746.300246381952
 20
27.87058741175258
 30
0.0
 10
746.356466893687
 20
27.86147930934474
 30
0.0
 10
746.4285298017168
 20
27.83323368245238
 30
0.0
 10
746.4839912220332
 20
27.80382913194751
 30
0.0
 10
746.5390298456298
 20
27.76485731307116
 30
0.0
 10
746.6168519205381
 20
27.70086266247518
 30
0.0
 10
746.6703209181815
 20
27.64291843474836
 30
0.0
 10
746.7051382390216
 20
27.60138940833429
 30
0.0
  0
SPLINE
  5
EB
330
1F
100
AcDbEntity
  8
0
  6
Continuous
 62
     7
370
    25
100
AcDbSpline
210
0.0
220
0.0
230
1.0
 70
     8
 71
     3
 72
    13
 73
     9
 74
     0
 42
0.00000001
 43
0.00000001
 40
0.0
 40
0.0
 40
0.0
 40
0.0
 40
0.2972877955187747
 40
0.4309389201448538
 40
0.5555483284431699
 40
0.6738732699265098
 40
0.7865883873610602
 40
1.0
 40
1.0
 40
1.0
 40
1.0
 10
746.9182792646626
 20
27.82084053012917
 30
0.0
 10
746.8676712078542
 20
27.8781350982914
 30
0.0
 10
746.7877285631693
 20
27.95535031582103
 30
0.0
 10
746.674221875906
 20
28.04222801923634
 30
0.0
 10
746.5924334252695
 20
28.09432979576631
 30
0.0
 10
746.5101046697671
 20
28.13450771882503
 30
0.0
 10
746.4022095600016
 20
28.17297828487714
 30
0.0
 10
746.3183268003047
 20
28.18466955314242
 30
0.0
 10
746.2634315082523
 20
28.18472274166761
 30
0.0
  0
SPLINE
  5
EC
330
1F
100
AcDbEntity
  8
0
  6
Continuous
 62
     7
370
    25
100
AcDbSpline
210
0.0
220
0.0
230
1.0
 70
     8
 71
     3
 72
    21
 73
    17
 74
     0
 42
0.00000001
 43
0.00000001
 40
0.0
 40
0.0
 40
0.0
 40
0.0
 40
0.1291156642467618
 40
0.1906142170369299
 40
0.2512349941101595
 40
0.3110899094595514
 40
0.3711861458444907
 40
0.43211947994139
 40
0.4949206964951557
 40
0.5573643976838026
 40
0.6191271459504197
 40
0.6802716623934746
 40
0.7413865832314339
 40
0.8034925619466107
 40
0.8669564647560922
 40
1.0
 40
1.0
 40
1.0
 40
1.0
 10
746.2634315082522
 20
28.18472274166761
 30
0.0
 10
746.2185184466382
 20
28.18525730500426
 30
0.0
 10
746.1522729641657
 20
28.17902813376821
 30
0.0
 10
746.0670959598763
 20
28.15928501187592
 30
0.0
 10
746.0072752590468
 20
28.13831030096531
 30
0.0
 10
745.9508668998694
 20
28.11053811041181
 30
0.0
 10
745.8973286258629
 20
28.0774336434465
 30
0.0
 10
745.8464338655233
 20
28.03863449940619
 30
0.0
 10
745.7993271998907
 20
27.99412531361145
 30
0.0
 10
745.7564839806871
 20
27.945122152499
 30
0.0
 10
745.7192962935882
 20
27.89238621013473
 30
0.0
 10
745.6876513547681
 20
27.83672886364225
 30
0.0
 10
745.6611647335241
 20
27.77822629415305
 30
0.0
 10
745.6421236214788
 20
27.71610124917773
 30
0.0
 10
745.6214424526429
 20
27.62852636400659
 30
0.0
 10
745.6173140022488
 20
27.55989149697324
 30
0.0
 10
745.6169972133806
 20
27.51374918397531
 30
0.0
  0
SPLINE
  5
EE
330
1F
100
AcDbEntity
  8
0
  6
Continuous
 62
     7
370
    25
100
AcDbSpline
210
0.0
220
0.0
230
1.0
 70
     8
 71
     3
 72
    13
 73
     9
 74
     0
 42
0.00000001
 43
0.00000001
 40
0.0
 40
0.0
 40
0.0
 40
0.0
 40
0.2703816178319617
 40
0.3984601291783004
 40
0.5227503451014437
 40
0.6438255660090793
 40
0.7637452368382556
 40
1.0
 40
1.0
 40
1.0
 40
1.0
 10
745.0785356749188
 20
26.793697100642
 30
0.0
 10
745.0769462102644
 20
26.87895674212537
 30
0.0
 10
745.0695851767625
 20
27.00493908148455
 30
0.0
 10
745.0389836933376
 20
27.16729519993449
 30
0.0
 10
745.0079735602773
 20
27.28112155056956
 30
0.0
 10
744.969596782608
 20
27.39000328436248
 30
0.0
 10
744.9059860146141
 20
27.52678930625313
 30
0.0
 10
744.8460769742276
 20
27.62242846960034
 30
0.0
 10
744.8001903223548
 20
27.6813172929497
 30
0.0
  0
SPLINE
  5
EF
330
1F
100
AcDbEntity
  8
0
  6
Continuous
 62
     7
370
    25
100
AcDbSpline
210
0.0
220
0.0
230
1.0
 70
     8
 71
     3
 72
    13
 73
     9
 74
     0
 42
0.00000001
 43
0.00000001
 40
0.0
 40
0.0
 40
0.0
 40
0.0
 40
0.255257368140996
 40
0.3772478104725325
 40
0.4977415562850415
 40
0.6181201760750441
 40
0.7409671592206359
 40
1.0
 40
1.0
 40
1.0
 40
1.0
 10
744.8001903223549
 20
27.6813172929497
 30
0.0
 10
744.7388031786614
 20
27.76197740554892
 30
0.0
 10
744.6353602645233
 20
27.8716170959708
 30
0.0
 10
744.477085088731
 20
27.99068788127212
 30
0.0
 10
744.3514155771554
 20
28.06189962797978
 30
0.0
 10
744.2175712316487
 20
28.1169852594691
 30
0.0
 10
744.0249781684963
 20
28.17027450962845
 30
0.0
 10
743.8730699077685
 20
28.18515471524913
 30
0.0
 10
743.7702424056881
 20
28.18472274166761
 30
0.0
  0
SPLINE
  5
F0
330
1F
100
AcDbEntity
  8
0
  6
Continuous
 62
     7
370
    25
100
AcDbSpline
210
0.0
220
0.0
230
1.0
 70
     8
 71
     3
 72
    13
 73
     9
 74
     0
 42
0.00000001
 43
0.00000001
 40
0.0
 40
0.0
 40
0.0
 40
0.0
 40
0.2602406645595056
 40
0.3836752253642184
 40
0.5046599577622765
 40
0.6253567426858504
 40
0.7464106650135791
 40
1.0
 40
1.0
 40
1.0
 40
1.0
 10
743.7702424056881
 20
28.18472274166761
 30
0.0
 10
743.6707861945716
 20
28.18352416148118
 30
0.0
 10
743.5229103975955
 20
28.17249531062194
 30
0.0
 10
743.3363643716249
 20
28.12000090773359
 30
0.0
 10
743.2060229369013
 20
28.0683683780174
 30
0.0
 10
743.0844459138696
 20
28.00032883265274
 30
0.0
 10
742.9297837618902
 20
27.88956630567746
 30
0.0
 10
742.8310157864839
 20
27.78368447030749
 30
0.0
 10
742.7704427262009
 20
27.70795992115482
 30
0.0
  0
SPLINE
  5
F1
330
1F
100
AcDbEntity
  8
0
  6
Continuous
 62
     7
370
    25
100
AcDbSpline
210
0.0
220
0.0
230
1.0
 70
     8
 71
     3
 72
    13
 73
     9
 74
     0
 42
0.00000001
 43
0.00000001
 40
0.0
 40
0.0
 40
0.0
 40
0.0
 40
0.2534216680665266
 40
0.3767041167575432
 40
0.4994491585174913
 40
0.6225715734186964
 40
0.7462320999755214
 40
1.0
 40
1.0
 40
1.0
 40
1.0
 10
742.7704427262009
 20
27.70795992115482
 30
0.0
 10
742.7228914637064
 20
27.64646809732951
 30
0.0
 10
742.6577276309774
 20
27.55039882604904
 30
0.0
 10
742.5895548546213
 20
27.41288778981738
 30
0.0
 10
742.5479757529002
 20
27.30734754009939
 30
0.0
 10
742.5158283201735
 20
27.19845984828395
 30
0.0
 10
742.4842009406158
 20
27.04791613732477
 30
0.0
 10
742.4769248605601
 20
26.93178727716006
 30
0.0
 10
742.4759715723548
 20
26.85399357500096
 30
0.0
  0
SPLINE
  5
F2
330
1F
100
AcDbEntity
  8
0
  6
Continuous
 62
     7
370
    25
100
AcDbSpline
210
0.0
220
0.0
230
1.0
 70
     8
 71
     3
 72
    21
 73
    17
 74
     0
 42
0.00000001
 43
0.00000001
 40
0.0
 40
0.0
 40
0.0
 40
0.0
 40
0.1210804245006118
 40
0.1800682782218559
 40
0.2391896643238556
 40
0.2987059533012314
 40
0.3588810785072301
 40
0.4203687292950606
 40
0.4834483096802261
 40
0.5465664849029384
 40
0.6086986022254206
 40
0.670186253013248
 40
0.7318650366033053
 40
0.7952033026033165
 40
0.8603707753071415
 40
1.0
 40
1.0
 40
1.0
 40
1.0
 10
742.4759715723548
 20
26.85399357500096
 30
0.0
 10
742.476886299592
 20
26.77097093465097
 30
0.0
 10
742.4856659238914
 20
26.64711912766304
 30
0.0
 10
742.5217472081645
 20
26.48667198343352
 30
0.0
 10
742.560122605078
 20
26.37080960794946
 30
0.0
 10
742.6076831849251
 20
26.2575386742378
 30
0.0
 10
742.6661384436244
 20
26.14757555803737
 30
0.0
 10
742.7360648628119
 20
26.04161965675783
 30
0.0
 10
742.8153085818268
 20
25.93993765378521
 30
0.0
 10
742.9033328273506
 20
25.84492141046246
 30
0.0
 10
743.0021523721575
 20
25.76278841480223
 30
0.0
 10
743.1086531168537
 20
25.69283166635294
 30
0.0
 10
743.2233957953564
 20
25.63539403926468
 30
0.0
 10
743.3466058475802
 20
25.59146836547804
 30
0.0
 10
743.5258376906118
 20
25.54832201017454
 30
0.0
 10
743.6667593859501
 20
25.53732572713313
 30
0.0
 10
743.7625300659445
 20
25.53728684423173
 30
0.0
  0
SPLINE
  5
F3
330
1F
100
AcDbEntity
  8
0
  6
Continuous
 62
     7
370
    25
100
AcDbSpline
210
0.0
220
0.0
230
1.0
 70
     8
 71
     3
 72
    17
 73
    13
 74
     0
 42
0.00000001
 43
0.00000001
 40
0.0
 40
0.0
 40
0.0
 40
0.0
 40
0.1781058515637827
 40
0.2613277635121511
 40
0.3415565694705521
 40
0.4200079090126525
 40
0.4980968161626226
 40
0.5754001382821239
 40
0.6536452159657116
 40
0.7341257729573898
 40
0.8183392339289949
 40
1.0
 40
1.0
 40
1.0
 40
1.0
 10
743.7625300659445
 20
25.53728684423173
 30
0.0
 10
743.8488238577021
 20
25.53729800440613
 30
0.0
 10
743.9757003394726
 20
25.54595222543787
 30
0.0
 10
744.1380836120483
 20
25.57927792356524
 30
0.0
 10
744.2503822615904
 20
25.61365615834244
 30
0.0
 10
744.3562320780169
 20
25.65841685003989
 30
0.0
 10
744.4565213935325
 20
25.71153293206563
 30
0.0
 10
744.5512519805437
 20
25.77387244904078
 30
0.0
 10
744.6409295865724
 20
25.84511939851603
 30
0.0
 10
744.7260025793141
 20
25.92686581669767
 30
0.0
 10
744.8329484634223
 20
26.0566279714185
 30
0.0
 10
744.9024194541823
 20
26.1656238571415
 30
0.0
 10
744.9439202903035
 20
26.24331649166761
 30
0.0
  0
SPLINE
  5
F5
330
1F
100
AcDbEntity
  8
0
  6
Continuous
 62
     7
370
    25
100
AcDbSpline
210
0.0
220
0.0
230
1.0
 70
     8
 71
     3
 72
    17
 73
    13
 74
     0
 42
0.00000001
 43
0.00000001
 40
0.0
 40
0.0
 40
0.0
 40
0.0
 40
0.2079350339033564
 40
0.2946939715678991
 40
0.3697315241424307
 40
0.440830943802725
 40
0.5142509140460771
 40
0.5913900390896499
 40
0.6722743046458497
 40
0.7543412603705406
 40
0.8361211059014766
 40
1.0
 40
1.0
 40
1.0
 40
1.0
 10
744.6648738159445
 20
26.38985094679586
 30
0.0
 10
744.6223490899416
 20
26.32330346289286
 30
0.0
 10
744.5552333202713
 20
26.23367299744128
 30
0.0
 10
744.4617355312711
 20
26.12885406581222
 30
0.0
 10
744.3956836914372
 20
26.06983274067903
 30
0.0
 10
744.327562072549
 20
26.02162638291022
 30
0.0
 10
744.2546831285637
 20
25.97947524084754
 30
0.0
 10
744.1754372302328
 20
25.94137472836222
 30
0.0
 10
744.0898664184817
 20
25.9097894976757
 30
0.0
 10
744.0006056752179
 20
25.88393122088511
 30
0.0
 10
743.8787573817457
 20
25.85841163885888
 30
0.0
 10
743.7854611493717
 20
25.85108857758511
 30
0.0
 10
743.7232672454317
 20
25.85138940833431
 30
0.0
  0
SPLINE
  5
F6
330
1F
100
AcDbEntity
  8
0
  6
Continuous
 62
     7
370
    25
100
AcDbSpline
210
0.0
220
0.0
230
1.0
 70
     8
 71
     3
 72
    21
 73
    17
 74
     0
 42
0.00000001
 43
0.00000001
 40
0.0
 40
0.0
 40
0.0
 40
0.0
 40
0.1276691474530424
 40
0.1889505232706536
 40
0.2490548673082992
 40
0.3090713134763196
 40
0.3692223593686933
 40
0.4301747620269846
 40
0.4926019887960209
 40
0.555346876893578
 40
0.6169627615204942
 40
0.678170777192346
 40
0.73924652255152
 40
0.8016089422160485
 40
0.8655244124565523
 40
1.0
 40
1.0
 40
1.0
 40
1.0
 10
743.7232672454318
 20
25.85138940833431
 30
0.0
 10
743.6602560910477
 20
25.8510397240313
 30
0.0
 10
743.5671278401547
 20
25.85975868869267
 30
0.0
 10
743.4471457750825
 20
25.88682514867347
 30
0.0
 10
743.3623735000227
 20
25.91589621975054
 30
0.0
 10
743.2814755473493
 20
25.95308548194181
 30
0.0
 10
743.2045819451267
 20
25.99888855668153
 30
0.0
 10
743.1322992158127
 20
26.05354102119722
 30
0.0
 10
743.0635920858401
 20
26.11460159316825
 30
0.0
 10
743.0018665070338
 20
26.18316877971172
 30
0.0
 10
742.9465265139163
 20
26.25620670495748
 30
0.0
 10
742.9001424174793
 20
26.334368713336
 30
0.0
 10
742.8622695029712
 20
26.41729896037565
 30
0.0
 10
742.8310237380197
 20
26.50438154012341
 30
0.0
 10
742.8007432073467
 20
26.62959483137162
 30
0.0
 10
742.7918628609268
 20
26.72745108963309
 30
0.0
 10
742.7900741364574
 20
26.793697100642
 30
0.0
  0
SPLINE
  5
F8
330
1F
100
AcDbEntity
  8
0
  6
Continuous
 62
     7
370
    25
100
AcDbSpline
210
0.0
220
0.0
230
1.0
 70
     8
 71
     3
 72
    13
 73
     9
 74
     0
 42
0.00000001
 43
0.00000001
 40
0.0
 40
0.0
 40
0.0
 40
0.0
 40
0.343762191421775
 40
0.4918338323010911
 40
0.6241090704107948
 40
0.7413996050399048
 40
0.8430618504426423
 40
1.0
 40
1.0
 40
1.0
 40
1.0
 10
741.3541767005601
 20
26.44173395961635
 30
0.0
 10
741.3536302433822
 20
26.5427146210756
 30
0.0
 10
741.3558533147916
 20
26.68716123118564
 30
0.0
 10
741.3611275936809
 20
26.87041680860641
 30
0.0
 10
741.3676807448235
 20
26.98703254444923
 30
0.0
 10
741.374828911049
 20
27.08996916847306
 30
0.0
 10
741.38705267122
 20
27.1997085507536
 30
0.0
 10
741.398516624935
 20
27.27488061324096
 30
0.0
 10
741.4102664441498
 20
27.31953844679585
 30
0.0
  0
SPLINE
  5
F9
330
1F
100
AcDbEntity
  8
0
  6
Continuous
 62
     7
370
    25
100
AcDbSpline
210
0.0
220
0.0
230
1.0
 70
     8
 71
     3
 72
    17
 73
    13
 74
     0
 42
0.00000001
 43
0.00000001
 40
0.0
 40
0.0
 40
0.0
 40
0.0
 40
0.1717166158284539
 40
0.2506679767741051
 40
0.3258823275093822
 40
0.396881271696415
 40
0.4635748406535746
 40
0.5280697489487671
 40
0.5896876632767214
 40
0.7048093833748892
 40
0.8086618718637332
 40
1.0
 40
1.0
 40
1.0
 40
1.0
 10
741.4102664441498
 20
27.31953844679585
 30
0.0
 10
741.422189591509
 20
27.36400986100113
 30
0.0
 10
741.4417109788511
 20
27.42848774080176
 30
0.0
 10
741.474562418676
 20
27.50954258596944
 30
0.0
 10
741.5002213512398
 20
27.56427403129291
 30
0.0
 10
741.528393390465
 20
27.61400310675
 30
0.0
 10
741.557875667166
 20
27.6595826253167
 30
0.0
 10
741.5900160939575
 20
27.7002282129481
 30
0.0
 10
741.6350579029007
 20
27.7467887458604
 30
0.0
 10
741.6932323579982
 20
27.79497370477624
 30
0.0
 10
741.7881754700192
 20
27.85180901805395
 30
0.0
 10
741.8670547205425
 20
27.87068670043829
 30
0.0
 10
741.9185797454318
 20
27.87062017756509
 30
0.0
  0
SPLINE
  5
FA
330
1F
100
AcDbEntity
  8
0
  6
Continuous
 62
     7
370
    25
100
AcDbSpline
210
0.0
220
0.0
230
1.0
 70
     8
 71
     3
 72
     9
 73
     5
 74
     0
 42
0.00000001
 43
0.00000001
 40
0.0
 40
0.0
 40
0.0
 40
0.0
 40
0.4397700551121884
 40
1.0
 40
1.0
 40
1.0
 40
1.0
 10
741.9185797454318
 20
27.87062017756509
 30
0.0
 10
741.943263785257
 20
27.87029778886097
 30
0.0
 10
741.9990509404664
 20
27.86097323337727
 30
0.0
 10
742.0505235986852
 20
27.83771759475867
 30
0.0
 10
742.0791366364574
 20
27.8250472608984
 30
0.0
  0
SPLINE
  5
FC
330
1F
100
AcDbEntity
  8
0
  6
Continuous
 62
     7
370
    25
100
AcDbSpline
210
0.0
220
0.0
230
1.0
 70
     8
 71
     3
 72
     9
 73
     5
 74
     0
 42
0.00000001
 43
0.00000001
 40
0.0
 40
0.0
 40
0.0
 40
0.0
 40
0.5364768048236987
 40
1.0
 40
1.0
 40
1.0
 40
1.0
 10
742.2516125979959
 20
28.09708251730864
 30
0.0
 10
742.2072714929366
 20
28.12394240808491
 30
0.0
 10
742.1196183812204
 20
28.16748031956429
 30
0.0
 10
742.023151550916
 20
28.18437332078044
 30
0.0
 10
741.9781750979959
 20
28.18472274166761
 30
0.0
  0
SPLINE
  5
FD
330
1F
100
AcDbEntity
  8
0
  6
Continuous
 62
     7
370
    25
100
AcDbSpline
210
0.0
220
0.0
230
1.0
 70
     8
 71
     3
 72
    13
 73
     9
 74
     0
 42
0.00000001
 43
0.00000001
 40
0.0
 40
0.0
 40
0.0
 40
0.0
 40
0.2138863655718647
 40
0.3246827750473095
 40
0.439458544744861
 40
0.561633485869794
 40
0.6938876172598769
 40
1.0
 40
1.0
 40
1.0
 40
1.0
 10
741.978175097996
 20
28.18472274166761
 30
0.0
 10
741.9220947052258
 20
28.18433372509521
 30
0.0
 10
741.8365361103321
 20
28.17248707460385
 30
0.0
 10
741.7289628179778
 20
28.12980986586694
 30
0.0
 10
741.6485817873704
 20
28.0860495265674
 30
0.0
 10
741.5709459244212
 20
28.02752124720209
 30
0.0
 10
741.4651490309997
 20
27.92483018621156
 30
0.0
 10
741.3971968286664
 20
27.83106250166262
 30
0.0
 10
741.3541767005601
 20
27.76334854294965
 30
0.0
  0
SPLINE
  5
103
330
1F
100
AcDbEntity
  8
0
  6
Continuous
 62
     7
370
    25
100
AcDbSpline
210
0.0
220
0.0
230
1.0
 70
     8
 71
     3
 72
    13
 73
     9
 74
     0
 42
0.00000001
 43
0.00000001
 40
0.0
 40
0.0
 40
0.0
 40
0.0
 40
0.2620026798763646
 40
0.3865990120013839
 40
0.5078842295733161
 40
0.6287697964346921
 40
0.7494522178423595
 40
1.0
 40
1.0
 40
1.0
 40
1.0
 10
738.1234074697909
 20
26.04560014551377
 30
0.0
 10
738.1909487990986
 20
25.96546086939156
 30
0.0
 10
738.2999814067908
 20
25.85427550289371
 30
0.0
 10
738.4650444657821
 20
25.73477539617291
 30
0.0
 10
738.593176797295
 20
25.66247340606071
 30
0.0
 10
738.7273783185285
 20
25.60585543738642
 30
0.0
 10
738.9177026979728
 20
25.55329012459934
 30
0.0
 10
739.0662064924416
 20
25.5361269313521
 30
0.0
 10
739.1666767005602
 20
25.53728684423173
 30
0.0
  0
SPLINE
  5
104
330
1F
100
AcDbEntity
  8
0
  6
Continuous
 62
     7
370
    25
100
AcDbSpline
210
0.0
220
0.0
230
1.0
 70
     8
 71
     3
 72
    21
 73
    17
 74
     0
 42
0.00000001
 43
0.00000001
 40
0.0
 40
0.0
 40
0.0
 40
0.0
 40
0.1277002390698747
 40
0.1892398000966456
 40
0.2501349882872971
 40
0.310842710086852
 40
0.372472090731707
 40
0.4350506334534636
 40
0.4996544386258899
 40
0.5642374836643663
 40
0.6267499200713567
 40
0.6882667786363572
 40
0.7494201652676098
 40
0.8104262745821135
 40
0.8719658356088787
 40
1.0
 40
1.0
 40
1.0
 40
1.0
 10
739.1666767005602
 20
25.53728684423173
 30
0.0
 10
739.2559243114366
 20
25.53760956103957
 30
0.0
 10
739.3884531180742
 20
25.54891375331009
 30
0.0
 10
739.5587402449424
 20
25.58986453828266
 30
0.0
 10
739.6800148326992
 20
25.63171492006394
 30
0.0
 10
739.7956872793349
 20
25.68730904139976
 30
0.0
 10
739.9067461327901
 20
25.75384737626268
 30
0.0
 10
740.0126236265728
 20
25.83308628227005
 30
0.0
 10
740.11167662145
 20
25.92368536368389
 30
0.0
 10
740.2029775105249
 20
26.02203832294991
 30
0.0
 10
740.2828648411115
 20
26.12723202189404
 30
0.0
 10
740.3505662553836
 20
26.23783837858862
 30
0.0
 10
740.4062193729495
 20
26.35382218980914
 30
0.0
 10
740.4492341769674
 20
26.47509885295884
 30
0.0
 10
740.4898885459003
 20
26.64581955637419
 30
0.0
 10
740.5014093586709
 20
26.77850676067478
 30
0.0
 10
740.501612597996
 20
26.86801601089839
 30
0.0
  0
SPLINE
  5
105
330
1F
100
AcDbEntity
  8
0
  6
Continuous
 62
     7
370
    25
100
AcDbSpline
210
0.0
220
0.0
230
1.0
 70
     8
 71
     3
 72
    21
 73
    17
 74
     0
 42
0.00000001
 43
0.00000001
 40
0.0
 40
0.0
 40
0.0
 40
0.0
 40
0.1260146004816713
 40
0.1868089060952329
 40
0.2474478502843892
 40
0.307846495991717
 40
0.3691210183050324
 40
0.4319903131536156
 40
0.4967149000659745
 40
0.5615019172671396
 40
0.6247727207665961
 40
0.6865537243536204
 40
0.7478749627318974
 40
0.8093470980883342
 40
0.8713639494369316
 40
1.0
 40
1.0
 40
1.0
 40
1.0
 10
740.501612597996
 20
26.86801601089839
 30
0.0
 10
740.5010995232825
 20
26.95583662895473
 30
0.0
 10
740.490354629243
 20
27.08644281478145
 30
0.0
 10
740.4483803951815
 20
27.25418829364884
 30
0.0
 10
740.404811006188
 20
27.37350589459364
 30
0.0
 10
740.3491302909256
 20
27.48809842163652
 30
0.0
 10
740.2802612282882
 20
27.59706089250546
 30
0.0
 10
740.2004142586322
 20
27.70208321682188
 30
0.0
 10
740.1080931080003
 20
27.79971152354327
 30
0.0
 10
740.0081768691243
 20
27.88994349239243
 30
0.0
 10
739.9012632950303
 20
27.96835035006273
 30
0.0
 10
739.7900413138422
 20
28.03606496949673
 30
0.0
 10
739.6727777971115
 20
28.08972935633897
 30
0.0
 10
739.5512114387354
 20
28.13309686005777
 30
0.0
 10
739.3797773447278
 20
28.17386488065454
 30
0.0
 10
739.2464937261091
 20
28.18382461943425
 30
0.0
 10
739.1568609954319
 20
28.18472274166761
 30
0.0
  0
SPLINE
  5
106
330
1F
100
AcDbEntity
  8
0
  6
Continuous
 62
     7
370
    25
100
AcDbSpline
210
0.0
220
0.0
230
1.0
 70
     8
 71
     3
 72
    13
 73
     9
 74
     0
 42
0.00000001
 43
0.00000001
 40
0.0
 40
0.0
 40
0.0
 40
0.0
 40
0.2538522779533839
 40
0.3748219688612686
 40
0.4942293474545227
 40
0.6139389177356217
 40
0.736955317238862
 40
1.0
 40
1.0
 40
1.0
 40
1.0
 10
739.1568609954319
 20
28.18472274166761
 30
0.0
 10
739.0551403318858
 20
28.18440129468952
 30
0.0
 10
738.9040626132453
 20
28.17135052577297
 30
0.0
 10
738.7128274531752
 20
28.11720132427076
 30
0.0
 10
738.5783942462155
 20
28.06343756714713
 30
0.0
 10
738.4512784758699
 20
27.99200800264712
 30
0.0
 10
738.2900003972474
 20
27.8678367618671
 30
0.0
 10
738.185572705134
 20
27.75190318301407
 30
0.0
 10
738.1234074697909
 20
27.66659373525737
 30
0.0
  0
SPLINE
  5
10C
330
1F
100
AcDbEntity
  8
0
  6
Continuous
 62
     7
370
    25
100
AcDbSpline
210
0.0
220
0.0
230
1.0
 70
     8
 71
     3
 72
    21
 73
    17
 74
     0
 42
0.00000001
 43
0.00000001
 40
0.0
 40
0.0
 40
0.0
 40
0.0
 40
0.1345149942976666
 40
0.1951193525406955
 40
0.2509143402908683
 40
0.3026968495153108
 40
0.3502960464810085
 40
0.3933858467586796
 40
0.4329734110072734
 40
0.5070892430766238
 40
0.578749163844447
 40
0.650228022445109
 40
0.7224618180302929
 40
0.7938856428546777
 40
0.8631290414909256
 40
1.0
 40
1.0
 40
1.0
 40
1.0
 10
733.5913561877395
 20
26.65838059423176
 30
0.0
 10
733.5903603324516
 20
26.73279437523768
 30
0.0
 10
733.5950950218544
 20
26.84053361868616
 30
0.0
 10
733.6032880612335
 20
26.97906066665429
 30
0.0
 10
733.6153482794709
 20
27.07128241785867
 30
0.0
 10
733.6278671143385
 20
27.15616937117543
 30
0.0
 10
733.6447056044
 20
27.23316966057332
 30
0.0
 10
733.6643012015082
 20
27.30252058612498
 30
0.0
 10
733.6937996008564
 20
27.38409392213115
 30
0.0
 10
733.7395314539599
 20
27.47625803103687
 30
0.0
 10
733.8084739502999
 20
27.57510868469715
 30
0.0
 10
733.8904822900405
 20
27.66201760416998
 30
0.0
 10
733.9841561758923
 20
27.73593911619088
 30
0.0
 10
734.0861118333702
 20
27.79551677775538
 30
0.0
 10
734.2289360496003
 20
27.85305380557329
 30
0.0
 10
734.3428719824973
 20
27.8712526907341
 30
0.0
 10
734.4186799056882
 20
27.87062017756509
 30
0.0
  0
SPLINE
  5
10D
330
1F
100
AcDbEntity
  8
0
  6
Continuous
 62
     7
370
    25
100
AcDbSpline
210
0.0
220
0.0
230
1.0
 70
     8
 71
     3
 72
    21
 73
    17
 74
     0
 42
0.00000001
 43
0.00000001
 40
0.0
 40
0.0
 40
0.0
 40
0.0
 40
0.1413526962021416
 40
0.2082288969497913
 40
0.2736894576468312
 40
0.3380517659755164
 40
0.4009220982745113
 40
0.4636163844951631
 40
0.5278777255384897
 40
0.5636262148099236
 40
0.6061036626598839
 40
0.6545011613018641
 40
0.7100543472033243
 40
0.772261937884825
 40
0.8412211450824307
 40
1.0
 40
1.0
 40
1.0
 40
1.0
 10
734.4186799056882
 20
27.87062017756509
 30
0.0
 10
734.4813490232543
 20
27.87009301078286
 30
0.0
 10
734.5747071732625
 20
27.86024175885893
 30
0.0
 10
734.689085672689
 20
27.81695288469671
 30
0.0
 10
734.765087460232
 20
27.77304541046
 30
0.0
 10
734.8326593503742
 20
27.71987780497281
 30
0.0
 10
734.8902666669923
 20
27.65761201304812
 30
0.0
 10
734.936454998627
 20
27.5864703743961
 30
0.0
 10
734.9651694527776
 20
27.51974960521314
 30
0.0
 10
734.9839593318911
 20
27.45918619740034
 30
0.0
 10
734.9953079744317
 20
27.40396945023138
 30
0.0
 10
735.00491758554
 20
27.3395747003603
 30
0.0
 10
735.0133784527413
 20
27.26616332605081
 30
0.0
 10
735.019255948326
 20
27.18334206680612
 30
0.0
 10
735.026385136932
 20
27.05462116477736
 30
0.0
 10
735.0273098396506
 20
26.95331980274995
 30
0.0
 10
735.027253623637
 20
26.88273956859072
 30
0.0
  0
SPLINE
  5
111
330
1F
100
AcDbEntity
  8
0
  6
Continuous
 62
     7
370
    25
100
AcDbSpline
210
0.0
220
0.0
230
1.0
 70
     8
 71
     3
 72
    21
 73
    17
 74
     0
 42
0.00000001
 43
0.00000001
 40
0.0
 40
0.0
 40
0.0
 40
0.0
 40
0.1456749912579827
 40
0.2101933844674901
 40
0.2691971886348877
 40
0.322846796636203
 40
0.371135046822222
 40
0.414360204576092
 40
0.4526539356928966
 40
0.5231868047418403
 40
0.5919172609462644
 40
0.659975705639505
 40
0.729211733722494
 40
0.7981350023963548
 40
0.8652933977975921
 40
1.0
 40
1.0
 40
1.0
 40
1.0
 10
735.3413561877395
 20
26.5770504660266
 30
0.0
 10
735.3418360119791
 20
26.66164122893505
 30
0.0
 10
735.3427929035681
 20
26.78387058795012
 30
0.0
 10
735.3541580538838
 20
26.93985837713114
 30
0.0
 10
735.3631449439021
 20
27.04242800696582
 30
0.0
 10
735.3769156676527
 20
27.13493562417541
 30
0.0
 10
735.3915990144244
 20
27.21801716765282
 30
0.0
 10
735.4104759407037
 20
27.2911145306618
 30
0.0
 10
735.4390652371716
 20
27.37478403693217
 30
0.0
 10
735.4843192284094
 20
27.46793030464362
 30
0.0
 10
735.5511513573257
 20
27.56856197172564
 30
0.0
 10
735.6320511425866
 20
27.65750516576021
 30
0.0
 10
735.7260781491655
 20
27.73233773212441
 30
0.0
 10
735.8282961809924
 20
27.79468070001328
 30
0.0
 10
735.9752438795829
 20
27.85268527177592
 30
0.0
 10
736.0922460898279
 20
27.87196624499538
 30
0.0
 10
736.1707832710729
 20
27.87062017756509
 30
0.0
  0
SPLINE
  5
112
330
1F
100
AcDbEntity
  8
0
  6
Continuous
 62
     7
370
    25
100
AcDbSpline
210
0.0
220
0.0
230
1.0
 70
     8
 71
     3
 72
    21
 73
    17
 74
     0
 42
0.00000001
 43
0.00000001
 40
0.0
 40
0.0
 40
0.0
 40
0.0
 40
0.1497817737882763
 40
0.2198699552839229
 40
0.2879755066202122
 40
0.3546781060271811
 40
0.4187834319376702
 40
0.4827347082469489
 40
0.5473072519463968
 40
0.5826981022599489
 40
0.6240955651677691
 40
0.6712929496345208
 40
0.72432020754856
 40
0.7838489433400093
 40
0.849436697120573
 40
1.0
 40
1.0
 40
1.0
 40
1.0
 10
736.170783271073
 20
27.87062017756509
 30
0.0
 10
736.2332893059304
 20
27.87102068877278
 30
0.0
 10
736.3256217593253
 20
27.86069183670126
 30
0.0
 10
736.439476670185
 20
27.82045076279532
 30
0.0
 10
736.5150229942356
 20
27.77949720025719
 30
0.0
 10
736.5813836977865
 20
27.72906854411528
 30
0.0
 10
736.6388536643765
 20
27.67099039006177
 30
0.0
 10
736.6844711803424
 20
27.60426611139988
 30
0.0
 10
736.714419066856
 20
27.54239607335718
 30
0.0
 10
736.7331550500681
 20
27.48631000065632
 30
0.0
 10
736.7444327657678
 20
27.43571619348412
 30
0.0
 10
736.7550785321562
 20
27.37752378351954
 30
0.0
 10
736.7633230800436
 20
27.31127494777524
 30
0.0
 10
736.7692544567165
 20
27.23710307112148
 30
0.0
 10
736.77636443148
 20
27.12217278044765
 30
0.0
 10
736.7773249600137
 20
27.03184717261592
 30
0.0
 10
736.7772536236369
 20
26.96897754935995
 30
0.0
  0
SPLINE
  5
116
330
1F
100
AcDbEntity
  8
0
  6
Continuous
 62
     7
370
    25
100
AcDbSpline
210
0.0
220
0.0
230
1.0
 70
     8
 71
     3
 72
    21
 73
    17
 74
     0
 42
0.00000001
 43
0.00000001
 40
0.0
 40
0.0
 40
0.0
 40
0.0
 40
0.1311670463014498
 40
0.1902933887105134
 40
0.2450610151832019
 40
0.2960272302790643
 40
0.3428447301738899
 40
0.3860527037713298
 40
0.4255709801320446
 40
0.4995034801514109
 40
0.5702922612469618
 40
0.6402757819124865
 40
0.7105295546786085
 40
0.7812030014762972
 40
0.8520349845172274
 40
1.0
 40
1.0
 40
1.0
 40
1.0
 10
737.0913561877395
 20
26.96757530577021
 30
0.0
 10
737.0917461022021
 20
27.04193830302221
 30
0.0
 10
737.0886282822916
 20
27.14983426703904
 30
0.0
 10
737.078102918759
 20
27.28837905848652
 30
0.0
 10
737.0678964752608
 20
27.3813096267137
 30
0.0
 10
737.0539123313347
 20
27.46669989710565
 30
0.0
 10
737.0370733226385
 20
27.54485145024987
 30
0.0
 10
737.018011927703
 20
27.61585773381636
 30
0.0
 10
736.9870967055452
 20
27.69919310224472
 30
0.0
 10
736.9415180702995
 20
27.79358484488464
 30
0.0
 10
736.8717476147527
 20
27.8939284370428
 30
0.0
 10
736.7890316625135
 20
27.98099374514712
 30
0.0
 10
736.6938705068545
 20
28.05418614466076
 30
0.0
 10
736.5883984788971
 20
28.1123700904064
 30
0.0
 10
736.4341510574559
 20
28.17038848672848
 30
0.0
 10
736.3091354471013
 20
28.18410222541085
 30
0.0
 10
736.2254707710728
 20
28.18472274166761
 30
0.0
  0
SPLINE
  5
117
330
1F
100
AcDbEntity
  8
0
  6
Continuous
 62
     7
370
    25
100
AcDbSpline
210
0.0
220
0.0
230
1.0
 70
     8
 71
     3
 72
    17
 73
    13
 74
     0
 42
0.00000001
 43
0.00000001
 40
0.0
 40
0.0
 40
0.0
 40
0.0
 40
0.2344384882140303
 40
0.3525851839391706
 40
0.4731673593536239
 40
0.5350581108286296
 40
0.5975237332645826
 40
0.6605170696247862
 40
0.7251603465314875
 40
0.7908841475024989
 40
0.8587744642336419
 40
1.0
 40
1.0
 40
1.0
 40
1.0
 10
736.2254707710728
 20
28.18472274166761
 30
0.0
 10
736.1331080597766
 20
28.18494496081225
 30
0.0
 10
735.9939145677369
 20
28.16537910927252
 30
0.0
 10
735.8193454663998
 20
28.09824709589648
 30
0.0
 10
735.7155339044623
 20
28.0406222565327
 30
0.0
 10
735.6357416081183
 20
27.98628865403363
 30
0.0
 10
735.5783565702731
 20
27.939790733502
 30
0.0
 10
735.5232962592019
 20
27.8889936630255
 30
0.0
 10
735.4708674421893
 20
27.83368635300709
 30
0.0
 10
735.4208492627986
 20
27.77367117554569
 30
0.0
 10
735.3565204085232
 20
27.6865489771756
 30
0.0
 10
735.313492213911
 20
27.61614737843698
 30
0.0
 10
735.2873698095343
 20
27.56703444038561
 30
0.0
  0
SPLINE
  5
118
330
1F
100
AcDbEntity
  8
0
  6
Continuous
 62
     7
370
    25
100
AcDbSpline
210
0.0
220
0.0
230
1.0
 70
     8
 71
     3
 72
    17
 73
    13
 74
     0
 42
0.00000001
 43
0.00000001
 40
0.0
 40
0.0
 40
0.0
 40
0.0
 40
0.19785609528989
 40
0.2832345117281732
 40
0.3600126653135354
 40
0.4338442080180517
 40
0.5095057223304571
 40
0.5870428909784137
 40
0.6687538545127745
 40
0.751163668853462
 40
0.8334676797015865
 40
1.0
 40
1.0
 40
1.0
 40
1.0
 10
735.2873698095343
 20
27.56703444038561
 30
0.0
 10
735.2638212520467
 20
27.63564773266636
 30
0.0
 10
735.225017724285
 20
27.73269731775851
 30
0.0
 10
735.1572693871657
 20
27.84646346254982
 30
0.0
 10
735.1050159029261
 20
27.91580366950208
 30
0.0
 10
735.0468859765836
 20
27.9754815918325
 30
0.0
 10
734.9812627980848
 20
28.02717936061638
 30
0.0
 10
734.9081734085195
 20
28.07322723843547
 30
0.0
 10
734.8284524033083
 20
28.11248091852569
 30
0.0
 10
734.7438399091583
 20
28.14486173178604
 30
0.0
 10
734.6260517936374
 20
28.17618424463453
 30
0.0
 10
734.5344276016789
 20
28.18393638821681
 30
0.0
 10
734.4733674056882
 20
28.18472274166761
 30
0.0
  0
SPLINE
  5
119
330
1F
100
AcDbEntity
  8
0
  6
Continuous
 62
     7
370
    25
100
AcDbSpline
210
0.0
220
0.0
230
1.0
 70
     8
 71
     3
 72
     9
 73
     5
 74
     0
 42
0.00000001
 43
0.00000001
 40
0.0
 40
0.0
 40
0.0
 40
0.0
 40
0.4969648798680931
 40
1.0
 40
1.0
 40
1.0
 40
1.0
 10
734.4733674056882
 20
28.18472274166761
 30
0.0
 10
734.3826621227421
 20
28.18402710508
 30
0.0
 10
734.19952861351
 20
28.16382976394155
 30
0.0
 10
734.0277130394126
 20
28.09714484401821
 30
0.0
 10
733.9461238159446
 20
28.05501520961634
 30
0.0
  0
SPLINE
  5
11A
330
1F
100
AcDbEntity
  8
0
  6
Continuous
 62
     7
370
    25
100
AcDbSpline
210
0.0
220
0.0
230
1.0
 70
     8
 71
     3
 72
     9
 73
     5
 74
     0
 42
0.00000001
 43
0.00000001
 40
0.0
 40
0.0
 40
0.0
 40
0.0
 40
0.4566051594239804
 40
1.0
 40
1.0
 40
1.0
 40
1.0
 10
733.9461238159446
 20
28.05501520961634
 30
0.0
 10
733.8804373991929
 20
28.01379488983247
 30
0.0
 10
733.7504280789154
 20
27.90366534235683
 30
0.0
 10
733.64404162265
 20
27.77078777101
 30
0.0
 10
733.5913561877395
 20
27.69533972884713
 30
0.0
  0
SPLINE
  5
11F
330
1F
100
AcDbEntity
  8
0
  6
Continuous
 62
     7
370
    25
100
AcDbSpline
210
0.0
220
0.0
230
1.0
 70
     8
 71
     3
 72
    21
 73
    17
 74
     0
 42
0.00000001
 43
0.00000001
 40
0.0
 40
0.0
 40
0.0
 40
0.0
 40
0.1231816483428002
 40
0.1830343363247268
 40
0.2428661924761439
 40
0.3025168847059427
 40
0.3633154622039138
 40
0.4250692989986412
 40
0.4890423674851742
 40
0.553087142275227
 40
0.6154454653923731
 40
0.6772864118409536
 40
0.739174987439565
 40
0.8016758129328341
 40
0.8653648077757379
 40
1.0
 40
1.0
 40
1.0
 40
1.0
 10
730.001612597996
 20
26.85399357500096
 30
0.0
 10
730.0011056906102
 20
26.76842615787395
 30
0.0
 10
730.0128150376324
 20
26.64130526494107
 30
0.0
 10
730.0514466353316
 20
26.47691647479466
 30
0.0
 10
730.0922292649028
 20
26.35905765259655
 30
0.0
 10
730.1446006579637
 20
26.24517499275425
 30
0.0
 10
730.2084873774472
 20
26.13576488919217
 30
0.0
 10
730.2843613799929
 20
26.03061486604524
 30
0.0
 10
730.3703597102705
 20
25.93060485680227
 30
0.0
 10
730.4654317610766
 20
25.83846911535043
 30
0.0
 10
730.5686316877566
 20
25.75790825114843
 30
0.0
 10
730.6784180768802
 20
25.68929917185797
 30
0.0
 10
730.7955633451227
 20
25.63399486177276
 30
0.0
 10
730.9187903409722
 20
25.5901644098912
 30
0.0
 10
731.0953088189772
 20
25.54820502950367
 30
0.0
 10
731.2333271739692
 20
25.53770893683105
 30
0.0
 10
731.3267327903037
 20
25.53728684423173
 30
0.0
  0
SPLINE
  5
120
330
1F
100
AcDbEntity
  8
0
  6
Continuous
 62
     7
370
    25
100
AcDbSpline
210
0.0
220
0.0
230
1.0
 70
     8
 71
     3
 72
    21
 73
    17
 74
     0
 42
0.00000001
 43
0.00000001
 40
0.0
 40
0.0
 40
0.0
 40
0.0
 40
0.1341341587220424
 40
0.1979034644236247
 40
0.2604831025120542
 40
0.322145528691671
 40
0.3837784671889386
 40
0.446215423207863
 40
0.5103409574898141
 40
0.5743946950476086
 40
0.6362264024960824
 40
0.6971016460802506
 40
0.7568275569302938
 40
0.8167348601469018
 40
0.8766630214626719
 40
1.0
 40
1.0
 40
1.0
 40
1.0
 10
731.3267327903037
 20
25.53728684423173
 30
0.0
 10
731.4196828396905
 20
25.53765080978582
 30
0.0
 10
731.5572101365079
 20
25.54832769399384
 30
0.0
 10
731.7332652982084
 20
25.59017953306347
 30
0.0
 10
731.8563313246758
 20
25.63385100554277
 30
0.0
 10
731.9729750598947
 20
25.68929745254695
 30
0.0
 10
732.0821289963499
 20
25.75811629684283
 30
0.0
 10
732.1852451531105
 20
25.83844529765078
 30
0.0
 10
732.2802970963994
 20
25.93061131039365
 30
0.0
 10
732.3663008179084
 20
26.03061320329175
 30
0.0
 10
732.4421734293077
 20
26.13576532077078
 30
0.0
 10
732.5060605101584
 20
26.24517488030414
 30
0.0
 10
732.5584318086132
 20
26.35905768257346
 30
0.0
 10
732.5992144634114
 20
26.47691646679295
 30
0.0
 10
732.6378460521415
 20
26.64130527044223
 30
0.0
 10
732.6495554047046
 20
26.76842615503266
 30
0.0
 10
732.6490484954319
 20
26.85399357500096
 30
0.0
  0
SPLINE
  5
121
330
1F
100
AcDbEntity
  8
0
  6
Continuous
 62
     7
370
    25
100
AcDbSpline
210
0.0
220
0.0
230
1.0
 70
     8
 71
     3
 72
    13
 73
     9
 74
     0
 42
0.00000001
 43
0.00000001
 40
0.0
 40
0.0
 40
0.0
 40
0.0
 40
0.2554352550956477
 40
0.3786322712675499
 40
0.5014663143321101
 40
0.6234943774777817
 40
0.746165637203275
 40
1.0
 40
1.0
 40
1.0
 40
1.0
 10
732.6490484954319
 20
26.85399357500096
 30
0.0
 10
732.648574106638
 20
26.93893042158585
 30
0.0
 10
732.6390902979127
 20
27.06517238451467
 30
0.0
 10
732.6018983153319
 20
27.22811168423395
 30
0.0
 10
732.5632561458824
 20
27.34449288565721
 30
0.0
 10
732.5141520710395
 20
27.45671139163514
 30
0.0
 10
732.4319126710511
 20
27.601072182381
 30
0.0
 10
732.3555186077319
 20
27.70101062257252
 30
0.0
 10
732.298487597996
 20
27.76334854294965
 30
0.0
  0
SPLINE
  5
122
330
1F
100
AcDbEntity
  8
0
  6
Continuous
 62
     7
370
    25
100
AcDbSpline
210
0.0
220
0.0
230
1.0
 70
     8
 71
     3
 72
    13
 73
     9
 74
     0
 42
0.00000001
 43
0.00000001
 40
0.0
 40
0.0
 40
0.0
 40
0.0
 40
0.2531294102724398
 40
0.3753070134590596
 40
0.4961956083998793
 40
0.617866023907437
 40
0.7416676494858144
 40
1.0
 40
1.0
 40
1.0
 40
1.0
 10
732.298487597996
 20
27.76334854294965
 30
0.0
 10
732.2363291140052
 20
27.83128514810107
 30
0.0
 10
732.1347138080652
 20
27.9240072731825
 30
0.0
 10
731.9823498104107
 20
28.02155360419112
 30
0.0
 10
731.8639701662812
 20
28.0822818170825
 30
0.0
 10
731.7381742526882
 20
28.12748772928148
 30
0.0
 10
731.5600491242337
 20
28.1721317004156
 30
0.0
 10
731.4208229516128
 20
28.18569738226518
 30
0.0
 10
731.3267327903037
 20
28.18472274166761
 30
0.0
  0
SPLINE
  5
123
330
1F
100
AcDbEntity
  8
0
  6
Continuous
 62
     7
370
    25
100
AcDbSpline
210
0.0
220
0.0
230
1.0
 70
     8
 71
     3
 72
    13
 73
     9
 74
     0
 42
0.00000001
 43
0.00000001
 40
0.0
 40
0.0
 40
0.0
 40
0.0
 40
0.2587123826906848
 40
0.3820894432542115
 40
0.5035635736272535
 40
0.6251808674329538
 40
0.7472870144846054
 40
1.0
 40
1.0
 40
1.0
 40
1.0
 10
731.3267327903037
 20
28.18472274166761
 30
0.0
 10
731.2321654830802
 20
28.18558609738725
 30
0.0
 10
731.0925395193168
 20
28.17210067600323
 30
0.0
 10
730.9136908984059
 20
28.12775454706318
 30
0.0
 10
730.7879962173218
 20
28.08098289662692
 30
0.0
 10
730.6683148791889
 20
28.0214515220299
 30
0.0
 10
730.5163126525507
 20
27.92193110966207
 30
0.0
 10
730.4137921843601
 20
27.83008999524978
 30
0.0
 10
730.3521734954319
 20
27.76124517756507
 30
0.0
  0
SPLINE
  5
124
330
1F
100
AcDbEntity
  8
0
  6
Continuous
 62
     7
370
    25
100
AcDbSpline
210
0.0
220
0.0
230
1.0
 70
     8
 71
     3
 72
    13
 73
     9
 74
     0
 42
0.00000001
 43
0.00000001
 40
0.0
 40
0.0
 40
0.0
 40
0.0
 40
0.2537592050616079
 40
0.3772863205702288
 40
0.4989121128148862
 40
0.6213214040214711
 40
0.7447622750750945
 40
1.0
 40
1.0
 40
1.0
 40
1.0
 10
730.3521734954319
 20
27.76124517756507
 30
0.0
 10
730.2957601955467
 20
27.69873427937031
 30
0.0
 10
730.2180617076051
 20
27.59961894312296
 30
0.0
 10
730.1369064330758
 20
27.45486599617408
 30
0.0
 10
730.0873580818406
 20
27.34313427101859
 30
0.0
 10
730.0486673660131
 20
27.22720357475794
 30
0.0
 10
730.0116544803888
 20
27.06469268619571
 30
0.0
 10
730.0021068647454
 20
26.93870037233426
 30
0.0
 10
730.001612597996
 20
26.85399357500096
 30
0.0
  0
SPLINE
  5
125
330
1F
100
AcDbEntity
  8
0
  6
Continuous
 62
     7
370
    25
100
AcDbSpline
210
0.0
220
0.0
230
1.0
 70
     8
 71
     3
 72
    13
 73
     9
 74
     0
 42
0.00000001
 43
0.00000001
 40
0.0
 40
0.0
 40
0.0
 40
0.0
 40
0.2610424242777889
 40
0.3863862281521577
 40
0.5092661375983676
 40
0.6312202507086663
 40
0.7528439836388015
 40
1.0
 40
1.0
 40
1.0
 40
1.0
 10
726.052894649278
 20
27.35249117115479
 30
0.0
 10
726.0525464285378
 20
27.23464904302281
 30
0.0
 10
726.0664852790333
 20
27.06025061404799
 30
0.0
 10
726.1124598246731
 20
26.8347960593886
 30
0.0
 10
726.1611557934237
 20
26.67475837705901
 30
0.0
 10
726.2235894471329
 20
26.52137604954102
 30
0.0
 10
726.3266937162068
 20
26.32502062701958
 30
0.0
 10
726.4241708841744
 20
26.18923278113916
 30
0.0
 10
726.4967047454317
 20
26.10449437628298
 30
0.0
  0
SPLINE
  5
126
330
1F
100
AcDbEntity
  8
0
  6
Continuous
 62
     7
370
    25
100
AcDbSpline
210
0.0
220
0.0
230
1.0
 70
     8
 71
     3
 72
    21
 73
    17
 74
     0
 42
0.00000001
 43
0.00000001
 40
0.0
 40
0.0
 40
0.0
 40
0.0
 40
0.1230520034021457
 40
0.1834460947273844
 40
0.2432438057744605
 40
0.3030008157385239
 40
0.3628016564907177
 40
0.4226040620340563
 40
0.4830043508032882
 40
0.543819968340838
 40
0.6052464595528653
 40
0.667586293522779
 40
0.7312201376706462
 40
0.79608325648218
 40
0.8622504377417369
 40
1.0
 40
1.0
 40
1.0
 40
1.0
 10
726.4967047454317
 20
26.10449437628298
 30
0.0
 10
726.5397852446848
 20
26.05384362911989
 30
0.0
 10
726.6087499206659
 20
25.98242447063126
 30
0.0
 10
726.7076218952791
 20
25.89578153215333
 30
0.0
 10
726.7842007984964
 20
25.83578810791276
 30
0.0
 10
726.864411205633
 20
25.78133740154831
 30
0.0
 10
726.9470383013893
 20
25.73065438090044
 30
0.0
 10
727.0329024719038
 20
25.68486314093132
 30
0.0
 10
727.1219620737533
 20
25.64434683998201
 30
0.0
 10
727.2139304434759
 20
25.60844200625667
 30
0.0
 10
727.3088856365804
 20
25.57789233949759
 30
0.0
 10
727.4064462615494
 20
25.55062297142685
 30
0.0
 10
727.5075720880392
 20
25.53027137949565
 30
0.0
 10
727.6113472829071
 20
25.51305911718377
 30
0.0
 10
727.7557651192591
 20
25.49745852751145
 30
0.0
 10
727.8658493106418
 20
25.49148687597663
 30
0.0
 10
727.9403145210728
 20
25.49241504935995
 30
0.0
  0
SPLINE
  5
127
330
1F
100
AcDbEntity
  8
0
  6
Continuous
 62
     7
370
    25
100
AcDbSpline
210
0.0
220
0.0
230
1.0
 70
     8
 71
     3
 72
    21
 73
    17
 74
     0
 42
0.00000001
 43
0.00000001
 40
0.0
 40
0.0
 40
0.0
 40
0.0
 40
0.133987404358362
 40
0.1992147171271493
 40
0.2630385433427138
 40
0.3264714696898183
 40
0.3888564113073959
 40
0.4507796159244916
 40
0.5126087700345887
 40
0.5740537960313626
 40
0.6351370790393001
 40
0.6957210834877562
 40
0.7562734994894003
 40
0.8165249992682884
 40
0.8769469383651866
 40
1.0
 40
1.0
 40
1.0
 40
1.0
 10
727.9403145210728
 20
25.49241504935995
 30
0.0
 10
728.0187763258608
 20
25.49184491105616
 30
0.0
 10
728.1353308567799
 20
25.49842170889238
 30
0.0
 10
728.2881468292053
 20
25.51773718388295
 30
0.0
 10
728.3988629867138
 20
25.53897961612489
 30
0.0
 10
728.5065243890866
 20
25.56623910365818
 30
0.0
 10
728.6113549940903
 20
25.59936200827584
 30
0.0
 10
728.7133594151709
 20
25.63781630547201
 30
0.0
 10
728.8120980541646
 20
25.68273339488508
 30
0.0
 10
728.9074524428308
 20
25.73336042234964
 30
0.0
 10
728.9993218070723
 20
25.78865105368494
 30
0.0
 10
729.0873928932822
 20
25.84895378636959
 30
0.0
 10
729.1705152432612
 20
25.91510490975751
 30
0.0
 10
729.2501540074998
 20
25.98524495325888
 30
0.0
 10
729.3510184174759
 20
26.08626515481227
 30
0.0
 10
729.4198478134148
 20
26.16894310889156
 30
0.0
 10
729.4631510595343
 20
26.22648956859069
 30
0.0
  0
SPLINE
  5
129
330
1F
100
AcDbEntity
  8
0
  6
Continuous
 62
     7
370
    25
100
AcDbSpline
210
0.0
220
0.0
230
1.0
 70
     8
 71
     3
 72
    13
 73
     9
 74
     0
 42
0.00000001
 43
0.00000001
 40
0.0
 40
0.0
 40
0.0
 40
0.0
 40
0.2590905307218836
 40
0.3828193585701202
 40
0.504060246132918
 40
0.6252452659939871
 40
0.7470513636473192
 40
1.0
 40
1.0
 40
1.0
 40
1.0
 10
729.1883113159445
 20
26.43472274166764
 30
0.0
 10
729.1076009166734
 20
26.34189142395255
 30
0.0
 10
728.9769717516104
 20
26.21352529876636
 30
0.0
 10
728.7793955873672
 20
26.07721267371416
 30
0.0
 10
728.6261036063519
 20
25.9940962466198
 30
0.0
 10
728.464781315548
 20
25.93027336725806
 30
0.0
 10
728.236886461911
 20
25.86830492208481
 30
0.0
 10
728.058385361496
 20
25.85135608140799
 30
0.0
 10
727.9382111556881
 20
25.85138940833431
 30
0.0
  0
SPLINE
  5
12A
330
1F
100
AcDbEntity
  8
0
  6
Continuous
 62
     7
370
    25
100
AcDbSpline
210
0.0
220
0.0
230
1.0
 70
     8
 71
     3
 72
    21
 73
    17
 74
     0
 42
0.00000001
 43
0.00000001
 40
0.0
 40
0.0
 40
0.0
 40
0.0
 40
0.135497701876684
 40
0.1997709556054622
 40
0.2626661029007081
 40
0.3245162342315934
 40
0.3860814035338469
 40
0.4482750281859555
 40
0.5111600935993517
 40
0.573673691051748
 40
0.6345706143819425
 40
0.694424357353864
 40
0.7538535676646498
 40
0.8132735307838683
 40
0.8737098962964416
 40
1.0
 40
1.0
 40
1.0
 40
1.0
 10
727.9382111556881
 20
25.85138940833431
 30
0.0
 10
727.8292462170474
 20
25.85051277522049
 30
0.0
 10
727.6685713783654
 20
25.86386353371711
 30
0.0
 10
727.4618967608343
 20
25.90830786766024
 30
0.0
 10
727.3168707304548
 20
25.9545098139346
 30
0.0
 10
727.179494079905
 20
26.01470008226742
 30
0.0
 10
727.0487097920452
 20
26.08701115795498
 30
0.0
 10
726.9259619012142
 20
26.17376277068206
 30
0.0
 10
726.8115560013545
 20
26.27227621513228
 30
0.0
 10
726.7072818925905
 20
26.38011924092643
 30
0.0
 10
726.6166642321633
 20
26.49653577309224
 30
0.0
 10
726.538427710338
 20
26.6187746788985
 30
0.0
 10
726.4764935539579
 20
26.7486828607067
 30
0.0
 10
726.4263345907544
 20
26.88406335892585
 30
0.0
 10
726.3806832203111
 20
27.07699987586409
 30
0.0
 10
726.3665313315562
 20
27.22705136381243
 30
0.0
 10
726.3669972133805
 20
27.32865303012916
 30
0.0
  0
SPLINE
  5
12B
330
1F
100
AcDbEntity
  8
0
  6
Continuous
 62
     7
370
    25
100
AcDbSpline
210
0.0
220
0.0
230
1.0
 70
     8
 71
     3
 72
    29
 73
    25
 74
     0
 42
0.00000001
 43
0.00000001
 40
0.0
 40
0.0
 40
0.0
 40
0.0
 40
0.0854570443736504
 40
0.1266809549827147
 40
0.1675410811962538
 40
0.2082244231348174
 40
0.2483727419364188
 40
0.2886160561618215
 40
0.329131373917363
 40
0.3695947699931637
 40
0.4100199770331279
 40
0.450116968926654
 40
0.4905081998450262
 40
0.5311820495134254
 40
0.5723142725972155
 40
0.6140748367935567
 40
0.6568785104979149
 40
0.6998472510427085
 40
0.7423501702567845
 40
0.7845969326204102
 40
0.8272479794334848
 40
0.8695373732685343
 40
0.9124981252023969
 40
1.0
 40
1.0
 40
1.0
 40
1.0
 10
726.3669972133805
 20
27.32865303012916
 30
0.0
 10
726.3661438925412
 20
27.39689201702033
 30
0.0
 10
726.3733124179548
 20
27.49789768758115
 30
0.0
 10
726.3938426422872
 20
27.63006870334434
 30
0.0
 10
726.4157345384103
 20
27.72561205461083
 30
0.0
 10
726.4434424353616
 20
27.81876306012609
 30
0.0
 10
726.4784452705424
 20
27.9088672042011
 30
0.0
 10
726.5179757623001
 20
27.99694226364952
 30
0.0
 10
726.5651883304123
 20
28.08148005825106
 30
0.0
 10
726.6179053997911
 20
28.16279346500972
 30
0.0
 10
726.6750907982189
 20
28.24064563875584
 30
0.0
 10
726.7378781121757
 20
28.31400998022737
 30
0.0
 10
726.8060500596571
 20
28.38265194094775
 30
0.0
 10
726.8791126720407
 20
28.44730304645377
 30
0.0
 10
726.9571406398219
 20
28.5076721461896
 30
0.0
 10
727.0401956879122
 20
28.56398548545913
 30
0.0
 10
727.1279748977666
 20
28.6156129786182
 30
0.0
 10
727.2195931402437
 20
28.66132105697178
 30
0.0
 10
727.3128037243256
 20
28.70267656652853
 30
0.0
 10
727.4088961847466
 20
28.73609949360528
 30
0.0
 10
727.5064789243622
 20
28.76408144225695
 30
0.0
 10
727.606191206866
 20
28.78617197892946
 30
0.0
 10
727.742611962397
 20
28.80634926310555
 30
0.0
 10
727.846594929897
 20
28.81384782218099
 30
0.0
 10
727.9164763800471
 20
28.81292786987277
 30
0.0
  0
SPLINE
  5
12C
330
1F
100
AcDbEntity
  8
0
  6
Continuous
 62
     7
370
    25
100
AcDbSpline
210
0.0
220
0.0
230
1.0
 70
     8
 71
     3
 72
    17
 73
    13
 74
     0
 42
0.00000001
 43
0.00000001
 40
0.0
 40
0.0
 40
0.0
 40
0.0
 40
0.2591563015326337
 40
0.3838520337081605
 40
0.507544010327201
 40
0.5690266244526543
 40
0.6301499339328953
 40
0.6907051437449019
 40
0.751705653885743
 40
0.8128787801839827
 40
0.8745250589693498
 40
1.0
 40
1.0
 40
1.0
 40
1.0
 10
727.9164763800471
 20
28.81292786987277
 30
0.0
 10
728.0416441805157
 20
28.81353580986262
 30
0.0
 10
728.2271884505217
 20
28.79535763402474
 30
0.0
 10
728.464660928913
 20
28.73296904656891
 30
0.0
 10
728.6043082908849
 20
28.67829007483397
 30
0.0
 10
728.7110600052611
 20
28.62581829915495
 30
0.0
 10
728.7882583059138
 20
28.58255250761543
 30
0.0
 10
728.8621181055812
 20
28.53428014890014
 30
0.0
 10
728.9338809906191
 20
28.48286649675402
 30
0.0
 10
729.0017859571419
 20
28.42561334777682
 30
0.0
 10
729.089438974063
 20
28.34377067068106
 30
0.0
 10
729.1500603874098
 20
28.27656433619086
 30
0.0
 10
729.1883113159445
 20
28.22959453653945
 30
0.0
  0
SPLINE
  5
12E
330
1F
100
AcDbEntity
  8
0
  6
Continuous
 62
     7
370
    25
100
AcDbSpline
210
0.0
220
0.0
230
1.0
 70
     8
 71
     3
 72
    21
 73
    17
 74
     0
 42
0.00000001
 43
0.00000001
 40
0.0
 40
0.0
 40
0.0
 40
0.0
 40
0.1206452089537077
 40
0.1803716807249874
 40
0.2401937574033136
 40
0.2998084963336883
 40
0.3602601366564799
 40
0.4212099647133678
 40
0.4828731499354839
 40
0.5449302383478583
 40
0.6076045721556698
 40
0.6707331651827362
 40
0.7343177652452945
 40
0.7987850104736578
 40
0.8643170543769325
 40
1.0
 40
1.0
 40
1.0
 40
1.0
 10
729.4631510595343
 20
28.43993107500098
 30
0.0
 10
729.4209581098041
 20
28.49665838685073
 30
0.0
 10
729.3549823438675
 20
28.5798033046139
 30
0.0
 10
729.2547307580736
 20
28.67894211131805
 30
0.0
 10
729.1766262054318
 20
28.74934737928159
 30
0.0
 10
729.0931342330704
 20
28.81400875659629
 30
0.0
 10
729.0056702231252
 20
28.8743050524583
 30
0.0
 10
728.9136136738991
 20
28.92972053582194
 30
0.0
 10
728.817697186024
 20
28.9801873411829
 30
0.0
 10
728.7179502628569
 20
29.02514569228287
 30
0.0
 10
728.614851572896
 20
29.06418262347865
 30
0.0
 10
728.5090513599067
 20
29.09832142165031
 30
0.0
 10
728.3999286338583
 20
29.12453441247315
 30
0.0
 10
728.2883180713778
 20
29.14562889094696
 30
0.0
 10
728.133810228163
 20
29.16664842770717
 30
0.0
 10
728.0156868063424
 20
29.17205311955617
 30
0.0
 10
727.9361077903035
 20
29.17190222884713
 30
0.0
  0
SPLINE
  5
12F
330
1F
100
AcDbEntity
  8
0
  6
Continuous
 62
     7
370
    25
100
AcDbSpline
210
0.0
220
0.0
230
1.0
 70
     8
 71
     3
 72
    21
 73
    17
 74
     0
 42
0.00000001
 43
0.00000001
 40
0.0
 40
0.0
 40
0.0
 40
0.0
 40
0.1331845384559983
 40
0.1965847352942949
 40
0.2587544543793642
 40
0.3203445244124417
 40
0.3817832144568565
 40
0.4437422312938976
 40
0.5072565632534005
 40
0.5705301560573334
 40
0.6317654853025179
 40
0.6922523181511615
 40
0.7519860872103655
 40
0.8120451897979085
 40
0.8729864684502401
 40
1.0
 40
1.0
 40
1.0
 40
1.0
 10
727.9361077903035
 20
29.17190222884713
 30
0.0
 10
727.8063045092921
 20
29.171650039228
 30
0.0
 10
727.6144122842106
 20
29.15653355874293
 30
0.0
 10
727.3678384836396
 20
29.10159938303703
 30
0.0
 10
727.1943539259765
 20
29.04401048724575
 30
0.0
 10
727.0298357795556
 20
28.96899967590705
 30
0.0
 10
726.8730539054931
 20
28.87928606942847
 30
0.0
 10
726.7257350936443
 20
28.77147880520159
 30
0.0
 10
726.5881676743403
 20
28.64893974270438
 30
0.0
 10
726.4627204374832
 20
28.51492491963026
 30
0.0
 10
726.3530520997231
 20
28.37140811765421
 30
0.0
 10
726.2600298476536
 20
28.22056698959458
 30
0.0
 10
726.1847084214506
 20
28.06143640834574
 30
0.0
 10
726.1253719862173
 20
27.89523380065501
 30
0.0
 10
726.068524921665
 20
27.65979297589782
 30
0.0
 10
726.0528317246888
 20
27.47629335087048
 30
0.0
 10
726.052894649278
 20
27.35249117115479
 30
0.0
  0
CIRCLE
  5
130
330
1F
100
AcDbEntity
  8
0
  6
Continuous
 62
     7
370
    25
100
AcDbCircle
 10
870.0
 20
352.0393920142
 30
0.0
 40
3.0
  0
CIRCLE
  5
131
330
1F
100
AcDbEntity
  8
0
  6
Continuous
 62
     7
370
    25
100
AcDbCircle
 10
890.0
 20
352.0393920142
 30
0.0
 40
2.999999999999886
  0
LINE
  5
136
330
1F
100
AcDbEntity
  8
0
  6
Continuous
 62
     7
370
    25
100
AcDbLine
 10
800.0
 20
705.0
 30
0.0
 11
800.0
 21
605.0
 31
0.0
  0
LINE
  5
137
330
1F
100
AcDbEntity
  8
0
  6
Continuous
 62
     7
370
    25
100
AcDbLine
 10
800.0
 20
605.0
 30
0.0
 11
900.0
 21
605.0
 31
0.0
  0
LINE
  5
138
330
1F
100
AcDbEntity
  8
0
  6
Continuous
 62
     7
370
    25
100
AcDbLine
 10
781.3349459313
 20
25.5821586391
 30
0.0
 11
781.3349459313
 21
26.4417339596
 31
0.0
  0
LINE
  5
139
330
1F
100
AcDbEntity
  8
0
  6
Continuous
 62
     7
370
    25
100
AcDbLine
 10
782.0599058672
 20
27.8250472609
 30
0.0
 11
782.2323818288
 21
28.0970825173
 31
0.0
  0
LINE
  5
13A
330
1F
100
AcDbEntity
  8
0
  6
Continuous
 62
     7
370
    25
100
AcDbLine
 10
781.3349459313
 20
27.7633485429
 30
0.0
 11
781.3349459313
 21
28.1398509468
 31
0.0
  0
LINE
  5
13B
330
1F
100
AcDbEntity
  8
0
  6
Continuous
 62
     7
370
    25
100
AcDbLine
 10
781.3349459313
 20
28.1398509468
 30
0.0
 11
781.0208433672
 21
28.1398509468
 31
0.0
  0
LINE
  5
13C
330
1F
100
AcDbEntity
  8
0
  6
Continuous
 62
     7
370
    25
100
AcDbLine
 10
781.0208433672
 20
28.1398509468
 30
0.0
 11
781.0208433672
 21
25.5821586391
 31
0.0
  0
LINE
  5
13D
330
1F
100
AcDbEntity
  8
0
  6
Continuous
 62
     7
370
    25
100
AcDbLine
 10
781.0208433672
 20
25.5821586391
 30
0.0
 11
781.3349459313
 21
25.5821586391
 31
0.0
  0
LINE
  5
13E
330
1F
100
AcDbEntity
  8
0
  6
Continuous
 62
     7
370
    25
100
AcDbLine
 10
778.1939202903
 20
26.7936971006
 30
0.0
 11
780.4823818288
 21
26.7936971006
 31
0.0
  0
LINE
  5
13F
330
1F
100
AcDbEntity
  8
0
  6
Continuous
 62
     7
370
    25
100
AcDbLine
 10
780.3477664441
 20
26.2433164917
 30
0.0
 11
780.0687199698
 21
26.3898509468
 31
0.0
  0
LINE
  5
140
330
1F
100
AcDbEntity
  8
0
  6
Continuous
 62
     7
370
    25
100
AcDbLine
 10
776.2644331108
 20
25.5821586391
 30
0.0
 11
777.4310997775
 21
28.1398509468
 31
0.0
  0
LINE
  5
141
330
1F
100
AcDbEntity
  8
0
  6
Continuous
 62
     7
370
    25
100
AcDbLine
 10
777.4310997775
 20
28.1398509468
 30
0.0
 11
777.091055707
 21
28.1398509468
 31
0.0
  0
LINE
  5
142
330
1F
100
AcDbEntity
  8
0
  6
Continuous
 62
     7
370
    25
100
AcDbLine
 10
777.091055707
 20
28.1398509468
 30
0.0
 11
776.2419972134
 21
26.2776714596
 31
0.0
  0
LINE
  5
143
330
1F
100
AcDbEntity
  8
0
  6
Continuous
 62
     7
370
    25
100
AcDbLine
 10
776.2419972134
 20
26.2776714596
 30
0.0
 11
775.3929387198
 21
28.1398509468
 31
0.0
  0
LINE
  5
144
330
1F
100
AcDbEntity
  8
0
  6
Continuous
 62
     7
370
    25
100
AcDbLine
 10
775.3929387198
 20
28.1398509468
 30
0.0
 11
775.0528946493
 21
28.1398509468
 31
0.0
  0
LINE
  5
145
330
1F
100
AcDbEntity
  8
0
  6
Continuous
 62
     7
370
    25
100
AcDbLine
 10
775.0528946493
 20
28.1398509468
 30
0.0
 11
776.2195613159
 21
25.5821586391
 31
0.0
  0
LINE
  5
146
330
1F
100
AcDbEntity
  8
0
  6
Continuous
 62
     7
370
    25
100
AcDbLine
 10
776.2195613159
 20
25.5821586391
 30
0.0
 11
776.2644331108
 21
25.5821586391
 31
0.0
  0
LINE
  5
147
330
1F
100
AcDbEntity
  8
0
  6
Continuous
 62
     7
370
    25
100
AcDbLine
 10
771.5080228544
 20
26.1276313955
 30
0.0
 11
771.2451021813
 21
26.3001073571
 31
0.0
  0
LINE
  5
148
330
1F
100
AcDbEntity
  8
0
  6
Continuous
 62
     7
370
    25
100
AcDbLine
 10
771.2451021813
 20
27.4219022288
 30
0.0
 11
771.5080228544
 21
27.5852636071
 31
0.0
  0
LINE
  5
149
330
1F
100
AcDbEntity
  8
0
  6
Continuous
 62
     7
370
    25
100
AcDbLine
 10
765.5400741365
 20
25.5821586391
 30
0.0
 11
765.5400741365
 21
26.7607443763
 31
0.0
  0
LINE
  5
14A
330
1F
100
AcDbEntity
  8
0
  6
Continuous
 62
     7
370
    25
100
AcDbLine
 10
765.5400741365
 20
26.7607443763
 30
0.0
 11
766.8392528224
 21
25.5821586391
 31
0.0
  0
LINE
  5
14B
330
1F
100
AcDbEntity
  8
0
  6
Continuous
 62
     7
370
    25
100
AcDbLine
 10
766.8392528224
 20
25.5821586391
 30
0.0
 11
767.2900741365
 21
25.5821586391
 31
0.0
  0
LINE
  5
14C
330
1F
100
AcDbEntity
  8
0
  6
Continuous
 62
     7
370
    25
100
AcDbLine
 10
767.2900741365
 20
25.5821586391
 30
0.0
 11
765.8050981749
 21
26.9283124853
 31
0.0
  0
LINE
  5
14D
330
1F
100
AcDbEntity
  8
0
  6
Continuous
 62
     7
370
    25
100
AcDbLine
 10
765.8050981749
 20
26.9283124853
 30
0.0
 11
767.1554587518
 21
28.1398509468
 31
0.0
  0
LINE
  5
14E
330
1F
100
AcDbEntity
  8
0
  6
Continuous
 62
     7
370
    25
100
AcDbLine
 10
767.1554587518
 20
28.1398509468
 30
0.0
 11
766.7039363159
 21
28.1398509468
 31
0.0
  0
LINE
  5
14F
330
1F
100
AcDbEntity
  8
0
  6
Continuous
 62
     7
370
    25
100
AcDbLine
 10
766.7039363159
 20
28.1398509468
 30
0.0
 11
765.5400741365
 21
27.096581716
 31
0.0
  0
LINE
  5
150
330
1F
100
AcDbEntity
  8
0
  6
Continuous
 62
     7
370
    25
100
AcDbLine
 10
765.5400741365
 20
27.096581716
 30
0.0
 11
765.5400741365
 21
29.1719022288
 31
0.0
  0
LINE
  5
151
330
1F
100
AcDbEntity
  8
0
  6
Continuous
 62
     7
370
    25
100
AcDbLine
 10
765.5400741365
 20
29.1719022288
 30
0.0
 11
765.2259715724
 21
29.1719022288
 31
0.0
  0
LINE
  5
152
330
1F
100
AcDbEntity
  8
0
  6
Continuous
 62
     7
370
    25
100
AcDbLine
 10
765.2259715724
 20
29.1719022288
 30
0.0
 11
765.2259715724
 21
25.5821586391
 31
0.0
  0
LINE
  5
153
330
1F
100
AcDbEntity
  8
0
  6
Continuous
 62
     7
370
    25
100
AcDbLine
 10
765.2259715724
 20
25.5821586391
 30
0.0
 11
765.5400741365
 21
25.5821586391
 31
0.0
  0
LINE
  5
154
330
1F
100
AcDbEntity
  8
0
  6
Continuous
 62
     7
370
    25
100
AcDbLine
 10
764.5977664441
 20
26.1276313955
 30
0.0
 11
764.3348457711
 21
26.3001073571
 31
0.0
  0
LINE
  5
155
330
1F
100
AcDbEntity
  8
0
  6
Continuous
 62
     7
370
    25
100
AcDbLine
 10
764.3348457711
 20
27.4219022288
 30
0.0
 11
764.5977664441
 21
27.5852636071
 31
0.0
  0
LINE
  5
156
330
1F
100
AcDbEntity
  8
0
  6
Continuous
 62
     7
370
    25
100
AcDbLine
 10
761.0528946493
 20
26.0245664917
 30
0.0
 11
761.0528946493
 21
25.5821586391
 31
0.0
  0
LINE
  5
157
330
1F
100
AcDbEntity
  8
0
  6
Continuous
 62
     7
370
    25
100
AcDbLine
 10
761.0528946493
 20
25.5821586391
 30
0.0
 11
761.3669972134
 21
25.5821586391
 31
0.0
  0
LINE
  5
158
330
1F
100
AcDbEntity
  8
0
  6
Continuous
 62
     7
370
    25
100
AcDbLine
 10
761.3669972134
 20
25.5821586391
 30
0.0
 11
761.3669972134
 21
28.1398509468
 31
0.0
  0
LINE
  5
159
330
1F
100
AcDbEntity
  8
0
  6
Continuous
 62
     7
370
    25
100
AcDbLine
 10
761.3669972134
 20
28.1398509468
 30
0.0
 11
761.0528946493
 21
28.1398509468
 31
0.0
  0
LINE
  5
15A
330
1F
100
AcDbEntity
  8
0
  6
Continuous
 62
     7
370
    25
100
AcDbLine
 10
761.0528946493
 20
28.1398509468
 30
0.0
 11
761.0528946493
 21
27.6665937353
 31
0.0
  0
LINE
  5
15B
330
1F
100
AcDbEntity
  8
0
  6
Continuous
 62
     7
370
    25
100
AcDbLine
 10
755.7580228544
 20
27.6757083186
 30
0.0
 11
755.7580228544
 21
29.1719022288
 31
0.0
  0
LINE
  5
15C
330
1F
100
AcDbEntity
  8
0
  6
Continuous
 62
     7
370
    25
100
AcDbLine
 10
755.7580228544
 20
29.1719022288
 30
0.0
 11
755.4439202903
 21
29.1719022288
 31
0.0
  0
LINE
  5
15D
330
1F
100
AcDbEntity
  8
0
  6
Continuous
 62
     7
370
    25
100
AcDbLine
 10
755.4439202903
 20
29.1719022288
 30
0.0
 11
755.4439202903
 21
25.5821586391
 31
0.0
  0
LINE
  5
15E
330
1F
100
AcDbEntity
  8
0
  6
Continuous
 62
     7
370
    25
100
AcDbLine
 10
755.4439202903
 20
25.5821586391
 30
0.0
 11
755.7580228544
 21
25.5821586391
 31
0.0
  0
LINE
  5
15F
330
1F
100
AcDbEntity
  8
0
  6
Continuous
 62
     7
370
    25
100
AcDbLine
 10
755.7580228544
 20
25.5821586391
 30
0.0
 11
755.7580228544
 21
26.0554158506
 31
0.0
  0
LINE
  5
160
330
1F
100
AcDbEntity
  8
0
  6
Continuous
 62
     7
370
    25
100
AcDbLine
 10
752.8862279826
 20
25.5821586391
 30
0.0
 11
752.8862279826
 21
26.4417339596
 31
0.0
  0
LINE
  5
161
330
1F
100
AcDbEntity
  8
0
  6
Continuous
 62
     7
370
    25
100
AcDbLine
 10
753.6111879185
 20
27.8250472609
 30
0.0
 11
753.78366388
 21
28.0970825173
 31
0.0
  0
LINE
  5
162
330
1F
100
AcDbEntity
  8
0
  6
Continuous
 62
     7
370
    25
100
AcDbLine
 10
752.8862279826
 20
27.7633485429
 30
0.0
 11
752.8862279826
 21
28.1398509468
 31
0.0
  0
LINE
  5
163
330
1F
100
AcDbEntity
  8
0
  6
Continuous
 62
     7
370
    25
100
AcDbLine
 10
752.8862279826
 20
28.1398509468
 30
0.0
 11
752.5721254185
 21
28.1398509468
 31
0.0
  0
LINE
  5
164
330
1F
100
AcDbEntity
  8
0
  6
Continuous
 62
     7
370
    25
100
AcDbLine
 10
752.5721254185
 20
28.1398509468
 30
0.0
 11
752.5721254185
 21
25.5821586391
 31
0.0
  0
LINE
  5
165
330
1F
100
AcDbEntity
  8
0
  6
Continuous
 62
     7
370
    25
100
AcDbLine
 10
752.5721254185
 20
25.5821586391
 30
0.0
 11
752.8862279826
 21
25.5821586391
 31
0.0
  0
LINE
  5
166
330
1F
100
AcDbEntity
  8
0
  6
Continuous
 62
     7
370
    25
100
AcDbLine
 10
747.5752303865
 20
26.1206201776
 30
0.0
 11
747.3669972134
 21
25.8836410109
 31
0.0
  0
LINE
  5
167
330
1F
100
AcDbEntity
  8
0
  6
Continuous
 62
     7
370
    25
100
AcDbLine
 10
748.5897536236
 20
27.6013894083
 30
0.0
 11
748.8028946493
 21
27.8208405301
 31
0.0
  0
LINE
  5
168
330
1F
100
AcDbEntity
  8
0
  6
Continuous
 62
     7
370
    25
100
AcDbLine
 10
745.6906150018
 20
26.1206201776
 30
0.0
 11
745.4823818288
 21
25.8836410109
 31
0.0
  0
LINE
  5
169
330
1F
100
AcDbEntity
  8
0
  6
Continuous
 62
     7
370
    25
100
AcDbLine
 10
746.705138239
 20
27.6013894083
 30
0.0
 11
746.9182792647
 21
27.8208405301
 31
0.0
  0
LINE
  5
16A
330
1F
100
AcDbEntity
  8
0
  6
Continuous
 62
     7
370
    25
100
AcDbLine
 10
742.7900741365
 20
26.7936971006
 30
0.0
 11
745.0785356749
 21
26.7936971006
 31
0.0
  0
LINE
  5
16B
330
1F
100
AcDbEntity
  8
0
  6
Continuous
 62
     7
370
    25
100
AcDbLine
 10
744.9439202903
 20
26.2433164917
 30
0.0
 11
744.6648738159
 21
26.3898509468
 31
0.0
  0
LINE
  5
16C
330
1F
100
AcDbEntity
  8
0
  6
Continuous
 62
     7
370
    25
100
AcDbLine
 10
741.3541767006
 20
25.5821586391
 30
0.0
 11
741.3541767006
 21
26.4417339596
 31
0.0
  0
LINE
  5
16D
330
1F
100
AcDbEntity
  8
0
  6
Continuous
 62
     7
370
    25
100
AcDbLine
 10
742.0791366365
 20
27.8250472609
 30
0.0
 11
742.251612598
 21
28.0970825173
 31
0.0
  0
LINE
  5
16E
330
1F
100
AcDbEntity
  8
0
  6
Continuous
 62
     7
370
    25
100
AcDbLine
 10
741.3541767006
 20
27.7633485429
 30
0.0
 11
741.3541767006
 21
28.1398509468
 31
0.0
  0
LINE
  5
16F
330
1F
100
AcDbEntity
  8
0
  6
Continuous
 62
     7
370
    25
100
AcDbLine
 10
741.3541767006
 20
28.1398509468
 30
0.0
 11
741.0400741365
 21
28.1398509468
 31
0.0
  0
LINE
  5
170
330
1F
100
AcDbEntity
  8
0
  6
Continuous
 62
     7
370
    25
100
AcDbLine
 10
741.0400741365
 20
28.1398509468
 30
0.0
 11
741.0400741365
 21
25.5821586391
 31
0.0
  0
LINE
  5
171
330
1F
100
AcDbEntity
  8
0
  6
Continuous
 62
     7
370
    25
100
AcDbLine
 10
741.0400741365
 20
25.5821586391
 30
0.0
 11
741.3541767006
 21
25.5821586391
 31
0.0
  0
LINE
  5
172
330
1F
100
AcDbEntity
  8
0
  6
Continuous
 62
     7
370
    25
100
AcDbLine
 10
738.1234074698
 20
24.6398509468
 30
0.0
 11
738.1234074698
 21
26.0456001455
 31
0.0
  0
LINE
  5
173
330
1F
100
AcDbEntity
  8
0
  6
Continuous
 62
     7
370
    25
100
AcDbLine
 10
738.1234074698
 20
27.6665937353
 30
0.0
 11
738.1234074698
 21
28.1398509468
 31
0.0
  0
LINE
  5
174
330
1F
100
AcDbEntity
  8
0
  6
Continuous
 62
     7
370
    25
100
AcDbLine
 10
738.1234074698
 20
28.1398509468
 30
0.0
 11
737.8093049057
 21
28.1398509468
 31
0.0
  0
LINE
  5
175
330
1F
100
AcDbEntity
  8
0
  6
Continuous
 62
     7
370
    25
100
AcDbLine
 10
737.8093049057
 20
28.1398509468
 30
0.0
 11
737.8093049057
 21
24.6398509468
 31
0.0
  0
LINE
  5
176
330
1F
100
AcDbEntity
  8
0
  6
Continuous
 62
     7
370
    25
100
AcDbLine
 10
737.8093049057
 20
24.6398509468
 30
0.0
 11
738.1234074698
 21
24.6398509468
 31
0.0
  0
LINE
  5
177
330
1F
100
AcDbEntity
  8
0
  6
Continuous
 62
     7
370
    25
100
AcDbLine
 10
733.5913561877
 20
25.5821586391
 30
0.0
 11
733.5913561877
 21
26.6583805942
 31
0.0
  0
LINE
  5
178
330
1F
100
AcDbEntity
  8
0
  6
Continuous
 62
     7
370
    25
100
AcDbLine
 10
735.0272536236
 20
26.8827395686
 30
0.0
 11
735.0272536236
 21
25.5821586391
 31
0.0
  0
LINE
  5
179
330
1F
100
AcDbEntity
  8
0
  6
Continuous
 62
     7
370
    25
100
AcDbLine
 10
735.0272536236
 20
25.5821586391
 30
0.0
 11
735.3413561877
 21
25.5821586391
 31
0.0
  0
LINE
  5
17A
330
1F
100
AcDbEntity
  8
0
  6
Continuous
 62
     7
370
    25
100
AcDbLine
 10
735.3413561877
 20
25.5821586391
 30
0.0
 11
735.3413561877
 21
26.577050466
 31
0.0
  0
LINE
  5
17B
330
1F
100
AcDbEntity
  8
0
  6
Continuous
 62
     7
370
    25
100
AcDbLine
 10
736.7772536236
 20
26.9689775494
 30
0.0
 11
736.7772536236
 21
25.5821586391
 31
0.0
  0
LINE
  5
17C
330
1F
100
AcDbEntity
  8
0
  6
Continuous
 62
     7
370
    25
100
AcDbLine
 10
736.7772536236
 20
25.5821586391
 30
0.0
 11
737.0913561877
 21
25.5821586391
 31
0.0
  0
LINE
  5
17D
330
1F
100
AcDbEntity
  8
0
  6
Continuous
 62
     7
370
    25
100
AcDbLine
 10
737.0913561877
 20
25.5821586391
 30
0.0
 11
737.0913561877
 21
26.9675753058
 31
0.0
  0
LINE
  5
17E
330
1F
100
AcDbEntity
  8
0
  6
Continuous
 62
     7
370
    25
100
AcDbLine
 10
733.5913561877
 20
27.6953397288
 30
0.0
 11
733.5913561877
 21
28.1398509468
 31
0.0
  0
LINE
  5
17F
330
1F
100
AcDbEntity
  8
0
  6
Continuous
 62
     7
370
    25
100
AcDbLine
 10
733.5913561877
 20
28.1398509468
 30
0.0
 11
733.2772536236
 21
28.1398509468
 31
0.0
  0
LINE
  5
180
330
1F
100
AcDbEntity
  8
0
  6
Continuous
 62
     7
370
    25
100
AcDbLine
 10
733.2772536236
 20
28.1398509468
 30
0.0
 11
733.2772536236
 21
25.5821586391
 31
0.0
  0
LINE
  5
181
330
1F
100
AcDbEntity
  8
0
  6
Continuous
 62
     7
370
    25
100
AcDbLine
 10
733.2772536236
 20
25.5821586391
 30
0.0
 11
733.5913561877
 21
25.5821586391
 31
0.0
  0
LINE
  5
182
330
1F
100
AcDbEntity
  8
0
  6
Continuous
 62
     7
370
    25
100
AcDbLine
 10
729.4631510595
 20
26.2264895686
 30
0.0
 11
729.1883113159
 21
26.4347227417
 31
0.0
  0
LINE
  5
183
330
1F
100
AcDbEntity
  8
0
  6
Continuous
 62
     7
370
    25
100
AcDbLine
 10
729.1883113159
 20
28.2295945365
 30
0.0
 11
729.4631510595
 21
28.439931075
 31
0.0
  0
LINE
  5
184
330
1F
100
AcDbEntity
  8
0
  6
Continuous
 62
     7
370
    25
100
AcDbLine
 10
800.0
 20
705.0
 30
0.0
 11
0.0
 21
705.0
 31
0.0
  0
LINE
  5
185
330
1F
100
AcDbEntity
  8
0
  6
Continuous
 62
     7
370
    25
100
AcDbLine
 10
900.0
 20
0.0
 30
0.0
 11
900.0
 21
605.0
 31
0.0
  0
LINE
  5
186
330
1F
100
AcDbEntity
  8
0
  6
Continuous
 62
     7
370
    25
100
AcDbLine
 10
0.0
 20
0.0
 30
0.0
 11
900.0
 21
0.0
 31
0.0
  0
LINE
  5
187
330
1F
100
AcDbEntity
  8
0
  6
Continuous
 62
     7
370
    25
100
AcDbLine
 10
0.0
 20
705.0
 30
0.0
 11
0.0
 21
0.0
 31
0.0
  0
MTEXT
  5
189
330
1F
100
AcDbEntity
  8
0
  6
Continuous
 62
     7
100
AcDbMText
 10
0.0
 20
-1.0195663917
 30
0.0
 40
4.83362
 41
0.0
 71
     1
 72
     1
  1
SOLIDWORKS Educational Product.
  7
SLDTEXTSTYLE0
 73
     1
 44
1.0
  0
MTEXT
  5
18A
330
1F
100
AcDbEntity
  8
0
  6
Continuous
 62
     7
100
AcDbMText
 10
0.0
 20
-8.2699963917
 30
0.0
 40
4.83362
 41
0.0
 71
     1
 72
     1
  1
For Instructional Use Only.
  7
SLDTEXTSTYLE0
 73
     1
 44
1.0
  0
ENDSEC
  0
SECTION
  2
OBJECTS
  0
DICTIONARY
  5
C
330
0
100
AcDbDictionary
281
     1
  3
ACAD_GROUP
350
D
  3
ACAD_LAYOUT
350
1A
  3
ACAD_MLINESTYLE
350
17
  3
ACAD_PLOTSETTINGS
350
19
  3
ACAD_PLOTSTYLENAME
350
E
  3
ACAD_SCALELIST
350
47
  3
DWGPROPS
350
18B
  0
DICTIONARY
  5
D
102
{ACAD_REACTORS
330
C
102
}
330
C
100
AcDbDictionary
281
     1
  0
DICTIONARY
  5
1A
102
{ACAD_REACTORS
330
C
102
}
330
C
100
AcDbDictionary
281
     1
  3
Layout1
350
1E
  3
Layout2
350
26
  3
Model
350
22
  0
DICTIONARY
  5
17
102
{ACAD_REACTORS
330
C
102
}
330
C
100
AcDbDictionary
281
     1
  3
Standard
350
18
  0
DICTIONARY
  5
19
102
{ACAD_REACTORS
330
C
102
}
330
C
100
AcDbDictionary
281
     1
  0
ACDBDICTIONARYWDFLT
  5
E
102
{ACAD_REACTORS
330
C
102
}
330
C
100
AcDbDictionary
281
     1
  3
Normal
350
F
100
AcDbDictionaryWithDefault
340
F
  0
DICTIONARY
  5
47
102
{ACAD_REACTORS
330
C
102
}
330
C
100
AcDbDictionary
281
     1
  3
A0
350
48
  3
A1
350
49
  3
A2
350
4A
  3
A3
350
4B
  3
A4
350
4C
  3
A5
350
4D
  3
A6
350
4E
  3
A7
350
4F
  3
A8
350
50
  3
A9
350
51
  3
B0
350
52
  3
B1
350
53
  3
B2
350
54
  3
B3
350
55
  3
B4
350
56
  3
B5
350
57
  3
B6
350
58
  0
XRECORD
  5
18B
102
{ACAD_REACTORS
330
C
102
}
330
C
100
AcDbXrecord
280
     1
  1
DWGPROPS COOKIE
  2

  3

  4

  6

  7

  8
anast
  9

300
=
301
=
302
=
303
=
304
=
305
=
306
=
307
=
308
=
309
=
 40
0.0
 41
2460812.745307929
 42
2460812.74534904
  1

 90
        0
  0
LAYOUT
  5
1E
102
{ACAD_REACTORS
330
1A
102
}
330
1A
100
AcDbPlotSettings
  1

  2
none_device
  4

  6

 40
0.0
 41
0.0
 42
0.0
 43
0.0
 44
0.0
 45
0.0
 46
0.0
 47
0.0
 48
0.0
 49
0.0
140
0.0
141
0.0
142
1.0
143
1.0
 70
   688
 72
     1
 73
     0
 74
     5
  7

 75
    16
147
1.0
148
0.0
149
0.0
100
AcDbLayout
  1
Layout1
 70
     1
 71
     1
 10
0.0
 20
0.0
 11
420.0
 21
297.0
 12
0.0
 22
0.0
 32
0.0
 14
1.0000000000E+20
 24
1.0000000000E+20
 34
1.0000000000E+20
 15
-1.0000000000E+20
 25
-1.0000000000E+20
 35
-1.0000000000E+20
146
0.0
 13
0.0
 23
0.0
 33
0.0
 16
1.0
 26
0.0
 36
0.0
 17
0.0
 27
1.0
 37
0.0
 76
     0
330
1B
  0
LAYOUT
  5
26
102
{ACAD_REACTORS
330
1A
102
}
330
1A
100
AcDbPlotSettings
  1

  2
none_device
  4

  6

 40
0.0
 41
0.0
 42
0.0
 43
0.0
 44
0.0
 45
0.0
 46
0.0
 47
0.0
 48
0.0
 49
0.0
140
0.0
141
0.0
142
1.0
143
1.0
 70
   688
 72
     1
 73
     0
 74
     5
  7

 75
    16
147
1.0
148
0.0
149
0.0
100
AcDbLayout
  1
Layout2
 70
     1
 71
     2
 10
0.0
 20
0.0
 11
0.0
 21
0.0
 12
0.0
 22
0.0
 32
0.0
 14
0.0
 24
0.0
 34
0.0
 15
0.0
 25
0.0
 35
0.0
146
0.0
 13
0.0
 23
0.0
 33
0.0
 16
1.0
 26
0.0
 36
0.0
 17
0.0
 27
1.0
 37
0.0
 76
     0
330
23
  0
LAYOUT
  5
22
102
{ACAD_REACTORS
330
1A
102
}
330
1A
100
AcDbPlotSettings
  1

  2
none_device
  4
ANSI_A_(11.00_x_8.50_Inches)
  6

 40
6.35
 41
19.05
 42
6.35000508
 43
19.05000254
 44
279.4
 45
215.9
 46
-3.0804280719
 47
-17.97050127
 48
0.0
 49
0.0
140
0.0
141
0.0
142
0.0119361702
143
1.0
 70
  1696
 72
     0
 73
     0
 74
     0
  7

 75
     0
147
0.0179189148
148
-1300.4909072572
149
0.0
100
AcDbLayout
  1
Model
 70
     1
 71
     0
 10
0.0
 20
0.0
 11
420.0
 21
297.0
 12
0.0
 22
0.0
 32
0.0
 14
0.0
 24
0.0
 34
0.0
 15
900.0
 25
705.0
 35
0.0
146
0.0
 13
0.0
 23
0.0
 33
0.0
 16
1.0
 26
0.0
 36
0.0
 17
0.0
 27
1.0
 37
0.0
 76
     0
330
1F
331
29
  0
MLINESTYLE
  5
18
102
{ACAD_REACTORS
330
17
102
}
330
17
100
AcDbMlineStyle
  2
Standard
 70
     0
  3

 62
   256
 51
90.0
 52
90.0
 71
     2
 49
0.5
 62
   256
  6
BYLAYER
 49
-0.5
 62
   256
  6
BYLAYER
  0
ACDBPLACEHOLDER
  5
F
102
{ACAD_REACTORS
330
E
102
}
330
E
  0
SCALE
  5
48
102
{ACAD_REACTORS
330
47
102
}
330
47
100
AcDbScale
 70
     0
300
1:1
140
1.0
141
1.0
290
     1
  0
SCALE
  5
49
102
{ACAD_REACTORS
330
47
102
}
330
47
100
AcDbScale
 70
     0
300
1:2
140
1.0
141
2.0
290
     0
  0
SCALE
  5
4A
102
{ACAD_REACTORS
330
47
102
}
330
47
100
AcDbScale
 70
     0
300
1:4
140
1.0
141
4.0
290
     0
  0
SCALE
  5
4B
102
{ACAD_REACTORS
330
47
102
}
330
47
100
AcDbScale
 70
     0
300
1:5
140
1.0
141
5.0
290
     0
  0
SCALE
  5
4C
102
{ACAD_REACTORS
330
47
102
}
330
47
100
AcDbScale
 70
     0
300
1:8
140
1.0
141
8.0
290
     0
  0
SCALE
  5
4D
102
{ACAD_REACTORS
330
47
102
}
330
47
100
AcDbScale
 70
     0
300
1:10
140
1.0
141
10.0
290
     0
  0
SCALE
  5
4E
102
{ACAD_REACTORS
330
47
102
}
330
47
100
AcDbScale
 70
     0
300
1:16
140
1.0
141
16.0
290
     0
  0
SCALE
  5
4F
102
{ACAD_REACTORS
330
47
102
}
330
47
100
AcDbScale
 70
     0
300
1:20
140
1.0
141
20.0
290
     0
  0
SCALE
  5
50
102
{ACAD_REACTORS
330
47
102
}
330
47
100
AcDbScale
 70
     0
300
1:30
140
1.0
141
30.0
290
     0
  0
SCALE
  5
51
102
{ACAD_REACTORS
330
47
102
}
330
47
100
AcDbScale
 70
     0
300
1:40
140
1.0
141
40.0
290
     0
  0
SCALE
  5
52
102
{ACAD_REACTORS
330
47
102
}
330
47
100
AcDbScale
 70
     0
300
1:50
140
1.0
141
50.0
290
     0
  0
SCALE
  5
53
102
{ACAD_REACTORS
330
47
102
}
330
47
100
AcDbScale
 70
     0
300
1:100
140
1.0
141
100.0
290
     0
  0
SCALE
  5
54
102
{ACAD_REACTORS
330
47
102
}
330
47
100
AcDbScale
 70
     0
300
2:1
140
2.0
141
1.0
290
     0
  0
SCALE
  5
55
102
{ACAD_REACTORS
330
47
102
}
330
47
100
AcDbScale
 70
     0
300
4:1
140
4.0
141
1.0
290
     0
  0
SCALE
  5
56
102
{ACAD_REACTORS
330
47
102
}
330
47
100
AcDbScale
 70
     0
300
8:1
140
8.0
141
1.0
290
     0
  0
SCALE
  5
57
102
{ACAD_REACTORS
330
47
102
}
330
47
100
AcDbScale
 70
     0
300
10:1
140
10.0
141
1.0
290
     0
  0
SCALE
  5
58
102
{ACAD_REACTORS
330
47
102
}
330
47
100
AcDbScale
 70
     0
300
100:1
140
100.0
141
1.0
290
     0
  0
ENDSEC
  0
EOF
