  0
SECTION
  2
HEADER
  9
$ACADVER
  1
AC1015
  9
$ACADMAINTVER
 70
     6
  9
$DWGCODEPAGE
  3
ANSI_1252
  9
$INSBASE
 10
0.0
 20
0.0
 30
0.0
  9
$EXTMIN
 10
0.0
 20
0.0
 30
0.0
  9
$EXTMAX
 10
1000.0
 20
705.0
 30
0.0
  9
$LIMMIN
 10
0.0
 20
0.0
  9
$LIMMAX
 10
420.0
 20
297.0
  9
$ORTHOMODE
 70
     0
  9
$REGENMODE
 70
     1
  9
$FILLMODE
 70
     1
  9
$QTEXTMODE
 70
     0
  9
$MIRRTEXT
 70
     1
  9
$LTSCALE
 40
1.0
  9
$ATTMODE
 70
     1
  9
$TEXTSIZE
 40
3.5
  9
$TRACEWID
 40
1.0
  9
$TEXTSTYLE
  7
Standard
  9
$CLAYER
  8
0
  9
$CELTYPE
  6
ByLayer
  9
$CECOLOR
 62
   256
  9
$CELTSCALE
 40
1.0
  9
$DISPSILH
 70
     0
  9
$DIMSCALE
 40
1.0
  9
$DIMASZ
 40
3.302
  9
$DIMEXO
 40
0.0
  9
$DIMDLI
 40
3.75
  9
$DIMRND
 40
0.0
  9
$DIMDLE
 40
0.0
  9
$DIMEXE
 40
1.0
  9
$DIMTP
 40
0.0
  9
$DIMTM
 40
0.0
  9
$DIMTXT
 40
3.5
  9
$DIMCEN
 40
2.5
  9
$DIMTSZ
 40
0.0
  9
$DIMTOL
 70
     0
  9
$DIMLIM
 70
     0
  9
$DIMTIH
 70
     1
  9
$DIMTOH
 70
     1
  9
$DIMSE1
 70
     0
  9
$DIMSE2
 70
     0
  9
$DIMTAD
 70
     1
  9
$DIMZIN
 70
     1
  9
$DIMBLK
  1

  9
$DIMASO
 70
     1
  9
$DIMSHO
 70
     1
  9
$DIMPOST
  1

  9
$DIMAPOST
  1

  9
$DIMALT
 70
     0
  9
$DIMALTD
 70
     3
  9
$DIMALTF
 40
0.0393700787
  9
$DIMLFAC
 40
1.0
  9
$DIMTOFL
 70
     1
  9
$DIMTVP
 40
0.0
  9
$DIMTIX
 70
     0
  9
$DIMSOXD
 70
     0
  9
$DIMSAH
 70
     0
  9
$DIMBLK1
  1

  9
$DIMBLK2
  1

  9
$DIMSTYLE
  2
ISO-25
  9
$DIMCLRD
 70
     0
  9
$DIMCLRE
 70
     0
  9
$DIMCLRT
 70
     0
  9
$DIMTFAC
 40
1.0
  9
$DIMGAP
 40
1.524
  9
$DIMJUST
 70
     0
  9
$DIMSD1
 70
     0
  9
$DIMSD2
 70
     0
  9
$DIMTOLJ
 70
     0
  9
$DIMTZIN
 70
     1
  9
$DIMALTZ
 70
     0
  9
$DIMALTTZ
 70
     0
  9
$DIMUPT
 70
     0
  9
$DIMDEC
 70
     2
  9
$DIMTDEC
 70
     2
  9
$DIMALTU
 70
     2
  9
$DIMALTTD
 70
     3
  9
$DIMTXSTY
  7
Standard
  9
$DIMAUNIT
 70
     0
  9
$DIMADEC
 70
     2
  9
$DIMALTRND
 40
0.0
  9
$DIMAZIN
 70
     0
  9
$DIMDSEP
 70
    44
  9
$DIMATFIT
 70
     3
  9
$DIMFRAC
 70
     0
  9
$DIMLDRBLK
  1

  9
$DIMLUNIT
 70
     2
  9
$DIMLWD
 70
    -2
  9
$DIMLWE
 70
    -2
  9
$DIMTMOVE
 70
     0
  9
$LUNITS
 70
     2
  9
$LUPREC
 70
     6
  9
$SKETCHINC
 40
1.0
  9
$FILLETRAD
 40
0.0
  9
$AUNITS
 70
     0
  9
$AUPREC
 70
     2
  9
$MENU
  1
.
  9
$ELEVATION
 40
0.0
  9
$PELEVATION
 40
0.0
  9
$THICKNESS
 40
0.0
  9
$LIMCHECK
 70
     0
  9
$CHAMFERA
 40
0.0
  9
$CHAMFERB
 40
0.0
  9
$CHAMFERC
 40
0.0
  9
$CHAMFERD
 40
0.0
  9
$SKPOLY
 70
     0
  9
$TDCREATE
 40
2460808.472685012
  9
$TDUCREATE
 40
2460808.389351678
  9
$TDUPDATE
 40
2460808.472761678
  9
$TDUUPDATE
 40
2460808.389428345
  9
$TDINDWG
 40
0.0000000116
  9
$TDUSRTIMER
 40
0.0000000116
  9
$USRTIMER
 70
     1
  9
$ANGBASE
 50
0.0
  9
$ANGDIR
 70
     0
  9
$PDMODE
 70
     0
  9
$PDSIZE
 40
-1.0
  9
$PLINEWID
 40
0.0
  9
$SPLFRAME
 70
     0
  9
$SPLINETYPE
 70
     6
  9
$SPLINESEGS
 70
     8
  9
$HANDSEED
  5
1AD
  9
$SURFTAB1
 70
     6
  9
$SURFTAB2
 70
     6
  9
$SURFTYPE
 70
     6
  9
$SURFU
 70
     6
  9
$SURFV
 70
     6
  9
$UCSBASE
  2

  9
$UCSNAME
  2

  9
$UCSORG
 10
0.0
 20
0.0
 30
0.0
  9
$UCSXDIR
 10
1.0
 20
0.0
 30
0.0
  9
$UCSYDIR
 10
0.0
 20
1.0
 30
0.0
  9
$UCSORTHOREF
  2

  9
$UCSORTHOVIEW
 70
     0
  9
$UCSORGTOP
 10
0.0
 20
0.0
 30
0.0
  9
$UCSORGBOTTOM
 10
0.0
 20
0.0
 30
0.0
  9
$UCSORGLEFT
 10
0.0
 20
0.0
 30
0.0
  9
$UCSORGRIGHT
 10
0.0
 20
0.0
 30
0.0
  9
$UCSORGFRONT
 10
0.0
 20
0.0
 30
0.0
  9
$UCSORGBACK
 10
0.0
 20
0.0
 30
0.0
  9
$PUCSBASE
  2

  9
$PUCSNAME
  2

  9
$PUCSORG
 10
0.0
 20
0.0
 30
0.0
  9
$PUCSXDIR
 10
1.0
 20
0.0
 30
0.0
  9
$PUCSYDIR
 10
0.0
 20
1.0
 30
0.0
  9
$PUCSORTHOREF
  2

  9
$PUCSORTHOVIEW
 70
     0
  9
$PUCSORGTOP
 10
0.0
 20
0.0
 30
0.0
  9
$PUCSORGBOTTOM
 10
0.0
 20
0.0
 30
0.0
  9
$PUCSORGLEFT
 10
0.0
 20
0.0
 30
0.0
  9
$PUCSORGRIGHT
 10
0.0
 20
0.0
 30
0.0
  9
$PUCSORGFRONT
 10
0.0
 20
0.0
 30
0.0
  9
$PUCSORGBACK
 10
0.0
 20
0.0
 30
0.0
  9
$USERI1
 70
     0
  9
$USERI2
 70
     0
  9
$USERI3
 70
     0
  9
$USERI4
 70
     0
  9
$USERI5
 70
     0
  9
$USERR1
 40
0.0
  9
$USERR2
 40
0.0
  9
$USERR3
 40
0.0
  9
$USERR4
 40
0.0
  9
$USERR5
 40
0.0
  9
$WORLDVIEW
 70
     1
  9
$SHADEDGE
 70
     3
  9
$SHADEDIF
 70
    70
  9
$TILEMODE
 70
     1
  9
$MAXACTVP
 70
    64
  9
$PINSBASE
 10
0.0
 20
0.0
 30
0.0
  9
$PLIMCHECK
 70
     0
  9
$PEXTMIN
 10
1.0000000000E+20
 20
1.0000000000E+20
 30
1.0000000000E+20
  9
$PEXTMAX
 10
-1.0000000000E+20
 20
-1.0000000000E+20
 30
-1.0000000000E+20
  9
$PLIMMIN
 10
0.0
 20
0.0
  9
$PLIMMAX
 10
420.0
 20
297.0
  9
$UNITMODE
 70
     0
  9
$VISRETAIN
 70
     1
  9
$PLINEGEN
 70
     0
  9
$PSLTSCALE
 70
     1
  9
$TREEDEPTH
 70
  3020
  9
$CMLSTYLE
  2
Standard
  9
$CMLJUST
 70
     0
  9
$CMLSCALE
 40
20.0
  9
$PROXYGRAPHICS
 70
     1
  9
$MEASUREMENT
 70
     1
  9
$CELWEIGHT
370
    -1
  9
$ENDCAPS
280
     0
  9
$JOINSTYLE
280
     0
  9
$LWDISPLAY
290
     1
  9
$INSUNITS
 70
     4
  9
$HYPERLINKBASE
  1

  9
$STYLESHEET
  1

  9
$XEDIT
290
     1
  9
$CEPSNTYPE
380
     0
  9
$PSTYLEMODE
290
     1
  9
$FINGERPRINTGUID
  2
{34defcc7-63ab-470f-b852-0a2c8c0968ec}
  9
$VERSIONGUID
  2
{FAEB1C32-E019-11D5-929B-00C0DF256EC4}
  9
$EXTNAMES
290
     1
  9
$PSVPSCALE
 40
0.0
  9
$OLESTARTUP
290
     0
  0
ENDSEC
  0
SECTION
  2
CLASSES
  0
CLASS
  1
ACDBDICTIONARYWDFLT
  2
AcDbDictionaryWithDefault
  3
ObjectDBX Classes
 90
        0
280
     0
281
     0
  0
CLASS
  1
VISUALSTYLE
  2
AcDbVisualStyle
  3
ObjectDBX Classes
 90
     4095
280
     0
281
     0
  0
CLASS
  1
MATERIAL
  2
AcDbMaterial
  3
ObjectDBX Classes
 90
     1153
280
     0
281
     0
  0
CLASS
  1
SCALE
  2
AcDbScale
  3
ObjectDBX Classes
 90
     1153
280
     0
281
     0
  0
CLASS
  1
TABLESTYLE
  2
AcDbTableStyle
  3
ObjectDBX Classes
 90
     4095
280
     0
281
     0
  0
CLASS
  1
MLEADERSTYLE
  2
AcDbMLeaderStyle
  3
ACDB_MLEADERSTYLE_CLASS
 90
     4095
280
     0
281
     0
  0
CLASS
  1
SUN
  2
AcDbSun
  3
SCENEOE
 90
     1153
280
     0
281
     0
  0
CLASS
  1
ACDBPLACEHOLDER
  2
AcDbPlaceHolder
  3
ObjectDBX Classes
 90
        0
280
     0
281
     0
  0
CLASS
  1
LAYOUT
  2
AcDbLayout
  3
ObjectDBX Classes
 90
        0
280
     0
281
     0
  0
ENDSEC
  0
SECTION
  2
TABLES
  0
TABLE
  2
VPORT
  5
8
330
0
100
AcDbSymbolTable
 70
     1
  0
VPORT
  5
29
330
8
100
AcDbSymbolTableRecord
100
AcDbViewportTableRecord
  2
*Active
 70
     0
 10
0.0
 20
0.0
 11
1.0
 21
1.0
 12
500.0
 22
352.5
 13
0.0
 23
0.0
 14
10.0
 24
10.0
 15
10.0
 25
10.0
 16
0.0
 26
0.0
 36
1.0
 17
0.0
 27
0.0
 37
0.0
 40
719.1
 41
1.4184397163
 42
50.0
 43
0.0
 44
0.0
 50
0.0
 51
0.0
 71
     0
 72
   100
 73
     1
 74
     3
 75
     0
 76
     0
 77
     0
 78
     0
281
     0
 65
     1
110
0.0
120
0.0
130
0.0
111
1.0
121
0.0
131
0.0
112
0.0
122
1.0
132
0.0
 79
     0
146
0.0
  0
ENDTAB
  0
TABLE
  2
LTYPE
  5
5
330
0
100
AcDbSymbolTable
 70
     6
  0
LTYPE
  5
14
330
5
100
AcDbSymbolTableRecord
100
AcDbLinetypeTableRecord
  2
ByBlock
 70
     0
  3

 72
    65
 73
     0
 40
0.0
  0
LTYPE
  5
15
330
5
100
AcDbSymbolTableRecord
100
AcDbLinetypeTableRecord
  2
ByLayer
 70
     0
  3

 72
    65
 73
     0
 40
0.0
  0
LTYPE
  5
16
330
5
100
AcDbSymbolTableRecord
100
AcDbLinetypeTableRecord
  2
Continuous
 70
     0
  3
Solid line
 72
    65
 73
     0
 40
0.0
  0
LTYPE
  5
5E
330
5
100
AcDbSymbolTableRecord
100
AcDbLinetypeTableRecord
  2
HIDDEN
 70
     0
  3
Hidden __ __ __ __ __ __ __ __ __ __ __ __ __ __
 72
    65
 73
     2
 40
1.905
 49
1.27
 74
     0
 49
-0.635
 74
     0
  0
LTYPE
  5
5F
330
5
100
AcDbSymbolTableRecord
100
AcDbLinetypeTableRecord
  2
PHANTOM
 70
     0
  3
Phantom ______  __  __  ______  __  __  ______
 72
    65
 73
     6
 40
12.7
 49
6.35
 74
     0
 49
-1.27
 74
     0
 49
1.27
 74
     0
 49
-1.27
 74
     0
 49
1.27
 74
     0
 49
-1.27
 74
     0
  0
LTYPE
  5
60
330
5
100
AcDbSymbolTableRecord
100
AcDbLinetypeTableRecord
  2
CENTER
 70
     0
  3
Center ____ _ ____ _ ____ _ ____ _ ____ _ ____
 72
    65
 73
     4
 40
10.16
 49
6.35
 74
     0
 49
-1.27
 74
     0
 49
1.27
 74
     0
 49
-1.27
 74
     0
  0
LTYPE
  5
61
330
5
100
AcDbSymbolTableRecord
100
AcDbLinetypeTableRecord
  2
CENTERX2
 70
     0
  3
Center (2x) ________  __  ________  __  _____
 72
    65
 73
     4
 40
20.32
 49
12.7
 74
     0
 49
-2.54
 74
     0
 49
2.54
 74
     0
 49
-2.54
 74
     0
  0
LTYPE
  5
62
330
5
100
AcDbSymbolTableRecord
100
AcDbLinetypeTableRecord
  2
DOT2
 70
     0
  3
Dot (.5x) ........................................
 72
    65
 73
     2
 40
0.635
 49
0.0
 74
     0
 49
-0.635
 74
     0
  0
ENDTAB
  0
TABLE
  2
LAYER
  5
2
330
0
100
AcDbSymbolTable
 70
     1
  0
LAYER
  5
10
330
2
100
AcDbSymbolTableRecord
100
AcDbLayerTableRecord
  2
0
 70
     0
 62
     7
  6
Continuous
370
    -3
390
F
  0
ENDTAB
  0
TABLE
  2
STYLE
  5
3
330
0
100
AcDbSymbolTable
 70
     2
  0
STYLE
  5
11
330
3
100
AcDbSymbolTableRecord
100
AcDbTextStyleTableRecord
  2
Standard
 70
     0
 40
0.0
 41
1.0
 50
0.0
 71
     0
 42
3.5
  3
txt
  4

  0
STYLE
  5
1A9
330
3
100
AcDbSymbolTableRecord
100
AcDbTextStyleTableRecord
  2
SLDTEXTSTYLE0
 70
     0
 40
0.0
 41
0.7
 50
0.0
 71
     0
 42
3.5
  3
TXT
  4

  0
ENDTAB
  0
TABLE
  2
VIEW
  5
6
330
0
100
AcDbSymbolTable
 70
     0
  0
ENDTAB
  0
TABLE
  2
UCS
  5
7
330
0
100
AcDbSymbolTable
 70
     0
  0
ENDTAB
  0
TABLE
  2
APPID
  5
9
330
0
100
AcDbSymbolTable
 70
     1
  0
APPID
  5
12
330
9
100
AcDbSymbolTableRecord
100
AcDbRegAppTableRecord
  2
ACAD
 70
     0
  0
ENDTAB
  0
TABLE
  2
DIMSTYLE
  5
A
330
0
100
AcDbSymbolTable
 70
     1
100
AcDbDimStyleTable
  0
DIMSTYLE
105
27
330
A
100
AcDbSymbolTableRecord
100
AcDbDimStyleTableRecord
  2
ISO-25
 70
     0
 41
2.5
 42
0.625
 43
3.75
 44
1.25
 73
     0
 74
     0
 77
     1
 78
     8
140
2.5
141
2.5
143
0.0393700787
147
0.625
171
     3
172
     1
178
     0
271
     2
272
     2
274
     3
278
    44
283
     0
284
     8
340
11
  0
ENDTAB
  0
TABLE
  2
BLOCK_RECORD
  5
1
330
0
100
AcDbSymbolTable
 70
     1
  0
BLOCK_RECORD
  5
1F
330
1
100
AcDbSymbolTableRecord
100
AcDbBlockTableRecord
  2
*Model_Space
340
22
  0
BLOCK_RECORD
  5
1B
330
1
100
AcDbSymbolTableRecord
100
AcDbBlockTableRecord
  2
*Paper_Space
340
1E
  0
BLOCK_RECORD
  5
23
330
1
100
AcDbSymbolTableRecord
100
AcDbBlockTableRecord
  2
*Paper_Space0
340
26
  0
ENDTAB
  0
ENDSEC
  0
SECTION
  2
BLOCKS
  0
BLOCK
  5
20
330
1F
100
AcDbEntity
  8
0
100
AcDbBlockBegin
  2
*Model_Space
 70
     0
 10
0.0
 20
0.0
 30
0.0
  3
*Model_Space
  1

  0
ENDBLK
  5
21
330
1F
100
AcDbEntity
  8
0
100
AcDbBlockEnd
  0
BLOCK
  5
1C
330
1B
100
AcDbEntity
 67
     1
  8
0
100
AcDbBlockBegin
  2
*Paper_Space
 70
     0
 10
0.0
 20
0.0
 30
0.0
  3
*Paper_Space
  1

  0
ENDBLK
  5
1D
330
1B
100
AcDbEntity
 67
     1
  8
0
100
AcDbBlockEnd
  0
BLOCK
  5
24
330
23
100
AcDbEntity
  8
0
100
AcDbBlockBegin
  2
*Paper_Space0
 70
     0
 10
0.0
 20
0.0
 30
0.0
  3
*Paper_Space0
  1

  0
ENDBLK
  5
25
330
23
100
AcDbEntity
  8
0
100
AcDbBlockEnd
  0
ENDSEC
  0
SECTION
  2
ENTITIES
  0
CIRCLE
  5
63
330
1F
100
AcDbEntity
  8
0
  6
Continuous
 62
     7
370
    25
100
AcDbCircle
 10
978.0
 20
655.0
 30
0.0
 40
3.100000000000023
  0
CIRCLE
  5
64
330
1F
100
AcDbEntity
  8
0
  6
Continuous
 62
     7
370
    25
100
AcDbCircle
 10
978.0
 20
50.0
 30
0.0
 40
3.100000000000136
  0
CIRCLE
  5
65
330
1F
100
AcDbEntity
  8
0
  6
Continuous
 62
     7
370
    25
100
AcDbCircle
 10
22.0
 20
50.0
 30
0.0
 40
3.100000000000009
  0
CIRCLE
  5
66
330
1F
100
AcDbEntity
  8
0
  6
Continuous
 62
     7
370
    25
100
AcDbCircle
 10
22.0
 20
655.0
 30
0.0
 40
3.100000000000051
  0
SPLINE
  5
6C
330
1F
100
AcDbEntity
  8
0
  6
Continuous
 62
     7
370
    25
100
AcDbSpline
210
0.0
220
0.0
230
1.0
 70
     8
 71
     3
 72
    13
 73
     9
 74
     0
 42
0.00000001
 43
0.00000001
 40
0.0
 40
0.0
 40
0.0
 40
0.0
 40
0.3437621914217763
 40
0.491833832301093
 40
0.6241090704107972
 40
0.7413996050399076
 40
0.8430618504426455
 40
1.0
 40
1.0
 40
1.0
 40
1.0
 10
951.939115633154
 20
16.01244268679774
 30
0.0
 10
951.938569175976
 20
16.11342334825699
 30
0.0
 10
951.9407922473858
 20
16.25786995836703
 30
0.0
 10
951.9460665262748
 20
16.44112553578775
 30
0.0
 10
951.9526196774175
 20
16.55774127163062
 30
0.0
 10
951.9597678436428
 20
16.66067789565445
 30
0.0
 10
951.9719916038142
 20
16.77041727793499
 30
0.0
 10
951.9834555575288
 20
16.8455893404223
 30
0.0
 10
951.9952053767437
 20
16.89024717397719
 30
0.0
  0
SPLINE
  5
6D
330
1F
100
AcDbEntity
  8
0
  6
Continuous
 62
     7
370
    25
100
AcDbSpline
210
0.0
220
0.0
230
1.0
 70
     8
 71
     3
 72
    17
 73
    13
 74
     0
 42
0.00000001
 43
0.00000001
 40
0.0
 40
0.0
 40
0.0
 40
0.0
 40
0.1717166158284572
 40
0.250667976774108
 40
0.3258823275093847
 40
0.3968812716964172
 40
0.4635748406535765
 40
0.528069748948772
 40
0.5896876632767198
 40
0.7048093833748899
 40
0.8086618718637333
 40
1.0
 40
1.0
 40
1.0
 40
1.0
 10
951.9952053767437
 20
16.89024717397719
 30
0.0
 10
952.0071285241024
 20
16.93471858818252
 30
0.0
 10
952.0266499114454
 20
16.99919646798315
 30
0.0
 10
952.0595013512698
 20
17.08025131315078
 30
0.0
 10
952.0851602838335
 20
17.1349827584743
 30
0.0
 10
952.1133323230589
 20
17.18471183393139
 30
0.0
 10
952.14281459976
 20
17.2302913524981
 30
0.0
 10
952.1749550265514
 20
17.27093694012949
 30
0.0
 10
952.2199968354945
 20
17.31749747304179
 30
0.0
 10
952.2781712905921
 20
17.36568243195763
 30
0.0
 10
952.373114402613
 20
17.42251774523534
 30
0.0
 10
952.4519936531365
 20
17.44139542761969
 30
0.0
 10
952.5035186780257
 20
17.44132890474642
 30
0.0
  0
SPLINE
  5
6E
330
1F
100
AcDbEntity
  8
0
  6
Continuous
 62
     7
370
    25
100
AcDbSpline
210
0.0
220
0.0
230
1.0
 70
     8
 71
     3
 72
     9
 73
     5
 74
     0
 42
0.00000001
 43
0.00000001
 40
0.0
 40
0.0
 40
0.0
 40
0.0
 40
0.4397700551121884
 40
1.0
 40
1.0
 40
1.0
 40
1.0
 10
952.5035186780257
 20
17.44132890474642
 30
0.0
 10
952.5282027178506
 20
17.44100651604236
 30
0.0
 10
952.5839898730604
 20
17.43168196055866
 30
0.0
 10
952.6354625312791
 20
17.40842632194006
 30
0.0
 10
952.6640755690513
 20
17.3957559880798
 30
0.0
  0
SPLINE
  5
70
330
1F
100
AcDbEntity
  8
0
  6
Continuous
 62
     7
370
    25
100
AcDbSpline
210
0.0
220
0.0
230
1.0
 70
     8
 71
     3
 72
     9
 73
     5
 74
     0
 42
0.00000001
 43
0.00000001
 40
0.0
 40
0.0
 40
0.0
 40
0.0
 40
0.5364768048237025
 40
1.0
 40
1.0
 40
1.0
 40
1.0
 10
952.8365515305899
 20
17.66779124449003
 30
0.0
 10
952.7922104255308
 20
17.69465113526631
 30
0.0
 10
952.7045573138141
 20
17.73818904674568
 30
0.0
 10
952.6080904835101
 20
17.75508204796178
 30
0.0
 10
952.5631140305898
 20
17.755431468849
 30
0.0
  0
SPLINE
  5
71
330
1F
100
AcDbEntity
  8
0
  6
Continuous
 62
     7
370
    25
100
AcDbSpline
210
0.0
220
0.0
230
1.0
 70
     8
 71
     3
 72
    13
 73
     9
 74
     0
 42
0.00000001
 43
0.00000001
 40
0.0
 40
0.0
 40
0.0
 40
0.0
 40
0.2138863655718647
 40
0.3246827750473095
 40
0.439458544744861
 40
0.561633485869794
 40
0.6938876172598769
 40
1.0
 40
1.0
 40
1.0
 40
1.0
 10
952.5631140305899
 20
17.755431468849
 30
0.0
 10
952.5070336378197
 20
17.75504245227661
 30
0.0
 10
952.4214750429262
 20
17.74319580178524
 30
0.0
 10
952.3139017505713
 20
17.70051859304833
 30
0.0
 10
952.2335207199646
 20
17.65675825374879
 30
0.0
 10
952.1558848570149
 20
17.59822997438348
 30
0.0
 10
952.0500879635933
 20
17.49553891339295
 30
0.0
 10
951.9821357612603
 20
17.40177122884401
 30
0.0
 10
951.939115633154
 20
17.33405727013104
 30
0.0
  0
SPLINE
  5
77
330
1F
100
AcDbEntity
  8
0
  6
Continuous
 62
     7
370
    25
100
AcDbSpline
210
0.0
220
0.0
230
1.0
 70
     8
 71
     3
 72
    13
 73
     9
 74
     0
 42
0.00000001
 43
0.00000001
 40
0.0
 40
0.0
 40
0.0
 40
0.0
 40
0.2703816178319616
 40
0.3984601291783004
 40
0.5227503451014437
 40
0.6438255660090793
 40
0.7637452368382587
 40
1.0
 40
1.0
 40
1.0
 40
1.0
 10
951.0865515305896
 20
16.36440582782339
 30
0.0
 10
951.0849620659355
 20
16.44966546930676
 30
0.0
 10
951.0776010324332
 20
16.57564780866594
 30
0.0
 10
951.0469995490085
 20
16.73800392711588
 30
0.0
 10
951.0159894159482
 20
16.85183027775095
 30
0.0
 10
950.9776126382789
 20
16.96071201154387
 30
0.0
 10
950.9140018702846
 20
17.09749803343452
 30
0.0
 10
950.854092829899
 20
17.19313719678178
 30
0.0
 10
950.8082061780257
 20
17.25202602013104
 30
0.0
  0
SPLINE
  5
78
330
1F
100
AcDbEntity
  8
0
  6
Continuous
 62
     7
370
    25
100
AcDbSpline
210
0.0
220
0.0
230
1.0
 70
     8
 71
     3
 72
    13
 73
     9
 74
     0
 42
0.00000001
 43
0.00000001
 40
0.0
 40
0.0
 40
0.0
 40
0.0
 40
0.255257368140996
 40
0.3772478104725325
 40
0.4977415562850401
 40
0.6181201760750441
 40
0.7409671592206357
 40
1.0
 40
1.0
 40
1.0
 40
1.0
 10
950.8082061780258
 20
17.25202602013109
 30
0.0
 10
950.746819034332
 20
17.33268613273026
 30
0.0
 10
950.6433761201945
 20
17.4423258231522
 30
0.0
 10
950.4851009444018
 20
17.56139660845352
 30
0.0
 10
950.3594314328263
 20
17.63260835516117
 30
0.0
 10
950.2255870873195
 20
17.68769398665054
 30
0.0
 10
950.0329940241672
 20
17.74098323680984
 30
0.0
 10
949.8810857634392
 20
17.75586344243052
 30
0.0
 10
949.7782582613589
 20
17.755431468849
 30
0.0
  0
SPLINE
  5
79
330
1F
100
AcDbEntity
  8
0
  6
Continuous
 62
     7
370
    25
100
AcDbSpline
210
0.0
220
0.0
230
1.0
 70
     8
 71
     3
 72
    13
 73
     9
 74
     0
 42
0.00000001
 43
0.00000001
 40
0.0
 40
0.0
 40
0.0
 40
0.0
 40
0.2602406645595056
 40
0.3836752253642184
 40
0.5046599577622765
 40
0.6253567426858504
 40
0.7464106650135791
 40
1.0
 40
1.0
 40
1.0
 40
1.0
 10
949.7782582613589
 20
17.755431468849
 30
0.0
 10
949.6788020502424
 20
17.75423288866257
 30
0.0
 10
949.5309262532664
 20
17.74320403780333
 30
0.0
 10
949.3443802272956
 20
17.69070963491498
 30
0.0
 10
949.2140387925721
 20
17.6390771051988
 30
0.0
 10
949.0924617695404
 20
17.57103755983414
 30
0.0
 10
948.9377996175612
 20
17.46027503285885
 30
0.0
 10
948.8390316421549
 20
17.35439319748894
 30
0.0
 10
948.7784585818719
 20
17.27866864833621
 30
0.0
  0
SPLINE
  5
7A
330
1F
100
AcDbEntity
  8
0
  6
Continuous
 62
     7
370
    25
100
AcDbSpline
210
0.0
220
0.0
230
1.0
 70
     8
 71
     3
 72
    13
 73
     9
 74
     0
 42
0.00000001
 43
0.00000001
 40
0.0
 40
0.0
 40
0.0
 40
0.0
 40
0.2534216680665267
 40
0.3767041167575467
 40
0.4994491585174913
 40
0.6225715734186964
 40
0.7462320999755214
 40
1.0
 40
1.0
 40
1.0
 40
1.0
 10
948.7784585818719
 20
17.27866864833621
 30
0.0
 10
948.7309073193771
 20
17.2171768245109
 30
0.0
 10
948.6657434866486
 20
17.12110755323043
 30
0.0
 10
948.597570710292
 20
16.98359651699877
 30
0.0
 10
948.555991608571
 20
16.87805626728078
 30
0.0
 10
948.5238441758445
 20
16.76916857546534
 30
0.0
 10
948.4922167962868
 20
16.61862486450616
 30
0.0
 10
948.4849407162307
 20
16.50249600434145
 30
0.0
 10
948.4839874280257
 20
16.42470230218235
 30
0.0
  0
SPLINE
  5
7B
330
1F
100
AcDbEntity
  8
0
  6
Continuous
 62
     7
370
    25
100
AcDbSpline
210
0.0
220
0.0
230
1.0
 70
     8
 71
     3
 72
    21
 73
    17
 74
     0
 42
0.00000001
 43
0.00000001
 40
0.0
 40
0.0
 40
0.0
 40
0.0
 40
0.1210804245006118
 40
0.1800682782218559
 40
0.2391896643238557
 40
0.2987059533012315
 40
0.3588810785072302
 40
0.4203687292950608
 40
0.4834483096802262
 40
0.5465664849029384
 40
0.6086986022254208
 40
0.6701862530132481
 40
0.7318650366033053
 40
0.7952033026033165
 40
0.8603707753071413
 40
1.0
 40
1.0
 40
1.0
 40
1.0
 10
948.4839874280257
 20
16.42470230218235
 30
0.0
 10
948.4849021552632
 20
16.34167966183237
 30
0.0
 10
948.4936817795619
 20
16.21782785484444
 30
0.0
 10
948.5297630638353
 20
16.05738071061491
 30
0.0
 10
948.5681384607487
 20
15.94151833513085
 30
0.0
 10
948.615699040596
 20
15.82824740141919
 30
0.0
 10
948.6741542992951
 20
15.71828428521871
 30
0.0
 10
948.7440807184827
 20
15.61232838393922
 30
0.0
 10
948.8233244374976
 20
15.51064638096661
 30
0.0
 10
948.9113486830214
 20
15.41563013764385
 30
0.0
 10
949.0101682278283
 20
15.33349714198362
 30
0.0
 10
949.1166689725243
 20
15.26354039353434
 30
0.0
 10
949.2314116510273
 20
15.20610276644607
 30
0.0
 10
949.3546217032513
 20
15.16217709265943
 30
0.0
 10
949.5338535462824
 20
15.11903073735588
 30
0.0
 10
949.6747752416213
 20
15.10803445431452
 30
0.0
 10
949.7705459216154
 20
15.10799557141312
 30
0.0
  0
SPLINE
  5
7C
330
1F
100
AcDbEntity
  8
0
  6
Continuous
 62
     7
370
    25
100
AcDbSpline
210
0.0
220
0.0
230
1.0
 70
     8
 71
     3
 72
    17
 73
    13
 74
     0
 42
0.00000001
 43
0.00000001
 40
0.0
 40
0.0
 40
0.0
 40
0.0
 40
0.1781058515637828
 40
0.2613277635121513
 40
0.3415565694705521
 40
0.4200079090126521
 40
0.4980968161626232
 40
0.5754001382821232
 40
0.6536452159657117
 40
0.7341257729573898
 40
0.8183392339289949
 40
1.0
 40
1.0
 40
1.0
 40
1.0
 10
949.7705459216154
 20
15.10799557141312
 30
0.0
 10
949.8568397133733
 20
15.10800673158752
 30
0.0
 10
949.9837161951432
 20
15.11666095261926
 30
0.0
 10
950.1460994677192
 20
15.14998665074663
 30
0.0
 10
950.2583981172611
 20
15.18436488552383
 30
0.0
 10
950.3642479336879
 20
15.22912557722128
 30
0.0
 10
950.4645372492033
 20
15.28224165924702
 30
0.0
 10
950.5592678362148
 20
15.34458117622217
 30
0.0
 10
950.6489454422432
 20
15.41582812569742
 30
0.0
 10
950.7340184349853
 20
15.49757454387907
 30
0.0
 10
950.8409643190928
 20
15.62733669859989
 30
0.0
 10
950.9104353098533
 20
15.73633258432289
 30
0.0
 10
950.9519361459743
 20
15.814025218849
 30
0.0
  0
SPLINE
  5
7E
330
1F
100
AcDbEntity
  8
0
  6
Continuous
 62
     7
370
    25
100
AcDbSpline
210
0.0
220
0.0
230
1.0
 70
     8
 71
     3
 72
    17
 73
    13
 74
     0
 42
0.00000001
 43
0.00000001
 40
0.0
 40
0.0
 40
0.0
 40
0.0
 40
0.207935033903354
 40
0.294693971567899
 40
0.3697315241424306
 40
0.4408309438027249
 40
0.5142509140460778
 40
0.5913900390896493
 40
0.672274304645849
 40
0.7543412603705404
 40
0.8361211059014766
 40
1.0
 40
1.0
 40
1.0
 40
1.0
 10
950.6728896716154
 20
15.96055967397719
 30
0.0
 10
950.6303649456128
 20
15.89401219007425
 30
0.0
 10
950.5632491759422
 20
15.80438172462267
 30
0.0
 10
950.4697513869417
 20
15.69956279299362
 30
0.0
 10
950.4036995471081
 20
15.64054146786042
 30
0.0
 10
950.3355779282198
 20
15.59233511009167
 30
0.0
 10
950.2626989842347
 20
15.55018396802893
 30
0.0
 10
950.1834530859038
 20
15.51208345554361
 30
0.0
 10
950.0978822741524
 20
15.48049822485709
 30
0.0
 10
950.0086215308887
 20
15.45463994806651
 30
0.0
 10
949.8867732374164
 20
15.42912036604033
 30
0.0
 10
949.7934770050426
 20
15.42179730476645
 30
0.0
 10
949.7312831011026
 20
15.42209813551571
 30
0.0
  0
SPLINE
  5
7F
330
1F
100
AcDbEntity
  8
0
  6
Continuous
 62
     7
370
    25
100
AcDbSpline
210
0.0
220
0.0
230
1.0
 70
     8
 71
     3
 72
    21
 73
    17
 74
     0
 42
0.00000001
 43
0.00000001
 40
0.0
 40
0.0
 40
0.0
 40
0.0
 40
0.1276691474530425
 40
0.1889505232706534
 40
0.2490548673082994
 40
0.3090713134763198
 40
0.3692223593686935
 40
0.4301747620269848
 40
0.492601988796021
 40
0.5553468768935781
 40
0.6169627615204943
 40
0.678170777192346
 40
0.7392465225515201
 40
0.8016089422160486
 40
0.8655244124565524
 40
1.0
 40
1.0
 40
1.0
 40
1.0
 10
949.7312831011026
 20
15.42209813551571
 30
0.0
 10
949.6682719467186
 20
15.42174845121269
 30
0.0
 10
949.5751436958257
 20
15.43046741587406
 30
0.0
 10
949.4551616307534
 20
15.45753387585486
 30
0.0
 10
949.3703893556935
 20
15.48660494693194
 30
0.0
 10
949.2894914030201
 20
15.5237942091232
 30
0.0
 10
949.2125978007975
 20
15.56959728386292
 30
0.0
 10
949.1403150714837
 20
15.62424974837862
 30
0.0
 10
949.0716079415109
 20
15.68531032034964
 30
0.0
 10
949.0098823627046
 20
15.75387750689311
 30
0.0
 10
948.9545423695873
 20
15.82691543213888
 30
0.0
 10
948.90815827315
 20
15.90507744051733
 30
0.0
 10
948.870285358642
 20
15.98800768755704
 30
0.0
 10
948.8390395936906
 20
16.07509026730475
 30
0.0
 10
948.8087590630174
 20
16.20030355855301
 30
0.0
 10
948.7998787165978
 20
16.29815981681448
 30
0.0
 10
948.7980899921282
 20
16.36440582782339
 30
0.0
  0
SPLINE
  5
87
330
1F
100
AcDbEntity
  8
0
  6
Continuous
 62
     7
370
    25
100
AcDbSpline
210
0.0
220
0.0
230
1.0
 70
     8
 71
     3
 72
    21
 73
    17
 74
     0
 42
0.00000001
 43
0.00000001
 40
0.0
 40
0.0
 40
0.0
 40
0.0
 40
0.1231816483428002
 40
0.1830343363247269
 40
0.242866192476144
 40
0.3025168847059428
 40
0.3633154622039138
 40
0.4250692989986412
 40
0.4890423674851736
 40
0.5530871422752265
 40
0.6154454653923724
 40
0.677286411840953
 40
0.739174987439565
 40
0.801675812932834
 40
0.8653648077757378
 40
1.0
 40
1.0
 40
1.0
 40
1.0
 10
942.6506540946923
 20
16.42470230218235
 30
0.0
 10
942.6501471873071
 20
16.33913488505534
 30
0.0
 10
942.6618565343283
 20
16.21201399212246
 30
0.0
 10
942.7004881320279
 20
16.04762520197606
 30
0.0
 10
942.741270761599
 20
15.92976637977794
 30
0.0
 10
942.79364215466
 20
15.81588371993564
 30
0.0
 10
942.8575288741434
 20
15.70647361637356
 30
0.0
 10
942.9334028766892
 20
15.60132359322663
 30
0.0
 10
943.0194012069668
 20
15.5013135839836
 30
0.0
 10
943.114473257773
 20
15.40917784253182
 30
0.0
 10
943.2176731844528
 20
15.32861697832982
 30
0.0
 10
943.3274595735766
 20
15.26000789903936
 30
0.0
 10
943.4446048418192
 20
15.20470358895415
 30
0.0
 10
943.5678318376682
 20
15.1608731370726
 30
0.0
 10
943.7443503156737
 20
15.118913756685
 30
0.0
 10
943.882368670665
 20
15.10841766401239
 30
0.0
 10
943.9757742869999
 20
15.10799557141312
 30
0.0
  0
SPLINE
  5
88
330
1F
100
AcDbEntity
  8
0
  6
Continuous
 62
     7
370
    25
100
AcDbSpline
210
0.0
220
0.0
230
1.0
 70
     8
 71
     3
 72
    21
 73
    17
 74
     0
 42
0.00000001
 43
0.00000001
 40
0.0
 40
0.0
 40
0.0
 40
0.0
 40
0.1341341587220425
 40
0.1979034644236247
 40
0.260483102512054
 40
0.3221455286916713
 40
0.383778467188939
 40
0.4462154232078633
 40
0.5103409574898146
 40
0.5743946950476084
 40
0.6362264024960822
 40
0.6971016460802506
 40
0.7568275569302938
 40
0.8167348601469017
 40
0.8766630214626718
 40
1.0
 40
1.0
 40
1.0
 40
1.0
 10
943.9757742869999
 20
15.10799557141312
 30
0.0
 10
944.0687243363869
 20
15.10835953696715
 30
0.0
 10
944.2062516332041
 20
15.11903642117524
 30
0.0
 10
944.3823067949047
 20
15.16088826024486
 30
0.0
 10
944.5053728213719
 20
15.20455973272417
 30
0.0
 10
944.6220165565911
 20
15.26000617972834
 30
0.0
 10
944.731170493046
 20
15.32882502402422
 30
0.0
 10
944.8342866498067
 20
15.40915402483217
 30
0.0
 10
944.9293385930956
 20
15.50132003757504
 30
0.0
 10
945.0153423146046
 20
15.60132193047314
 30
0.0
 10
945.0912149260038
 20
15.70647404795217
 30
0.0
 10
945.1551020068547
 20
15.81588360748559
 30
0.0
 10
945.2074733053093
 20
15.92976640975485
 30
0.0
 10
945.2482559601075
 20
16.04762519397435
 30
0.0
 10
945.2868875488381
 20
16.21201399762362
 30
0.0
 10
945.2985969014007
 20
16.33913488221411
 30
0.0
 10
945.2980899921282
 20
16.42470230218235
 30
0.0
  0
SPLINE
  5
89
330
1F
100
AcDbEntity
  8
0
  6
Continuous
 62
     7
370
    25
100
AcDbSpline
210
0.0
220
0.0
230
1.0
 70
     8
 71
     3
 72
    13
 73
     9
 74
     0
 42
0.00000001
 43
0.00000001
 40
0.0
 40
0.0
 40
0.0
 40
0.0
 40
0.2554352550956477
 40
0.3786322712675498
 40
0.50146631433211
 40
0.6234943774777815
 40
0.7461656372032779
 40
1.0
 40
1.0
 40
1.0
 40
1.0
 10
945.2980899921282
 20
16.42470230218235
 30
0.0
 10
945.2976156033344
 20
16.50963914876724
 30
0.0
 10
945.2881317946088
 20
16.63588111169606
 30
0.0
 10
945.2509398120283
 20
16.79882041141534
 30
0.0
 10
945.2122976425787
 20
16.9152016128386
 30
0.0
 10
945.1631935677354
 20
17.02742011881653
 30
0.0
 10
945.0809541677478
 20
17.17178090956239
 30
0.0
 10
945.0045601044277
 20
17.27171934975391
 30
0.0
 10
944.9475290946923
 20
17.33405727013104
 30
0.0
  0
SPLINE
  5
8A
330
1F
100
AcDbEntity
  8
0
  6
Continuous
 62
     7
370
    25
100
AcDbSpline
210
0.0
220
0.0
230
1.0
 70
     8
 71
     3
 72
    13
 73
     9
 74
     0
 42
0.00000001
 43
0.00000001
 40
0.0
 40
0.0
 40
0.0
 40
0.0
 40
0.2531294102724402
 40
0.3753070134590598
 40
0.4961956083998795
 40
0.6178660239074372
 40
0.7416676494858145
 40
1.0
 40
1.0
 40
1.0
 40
1.0
 10
944.9475290946923
 20
17.33405727013104
 30
0.0
 10
944.8853706107016
 20
17.40199387528246
 30
0.0
 10
944.7837553047613
 20
17.4947160003639
 30
0.0
 10
944.631391307107
 20
17.59226233137251
 30
0.0
 10
944.5130116629774
 20
17.65299054426389
 30
0.0
 10
944.3872157493846
 20
17.69819645646287
 30
0.0
 10
944.2090906209299
 20
17.742840427597
 30
0.0
 10
944.0698644483093
 20
17.75640610944657
 30
0.0
 10
943.9757742869999
 20
17.755431468849
 30
0.0
  0
SPLINE
  5
8B
330
1F
100
AcDbEntity
  8
0
  6
Continuous
 62
     7
370
    25
100
AcDbSpline
210
0.0
220
0.0
230
1.0
 70
     8
 71
     3
 72
    13
 73
     9
 74
     0
 42
0.00000001
 43
0.00000001
 40
0.0
 40
0.0
 40
0.0
 40
0.0
 40
0.2587123826906848
 40
0.3820894432542115
 40
0.5035635736272535
 40
0.6251808674329538
 40
0.7472870144846054
 40
1.0
 40
1.0
 40
1.0
 40
1.0
 10
943.9757742869999
 20
17.755431468849
 30
0.0
 10
943.8812069797763
 20
17.75629482456864
 30
0.0
 10
943.7415810160132
 20
17.74280940318462
 30
0.0
 10
943.562732395102
 20
17.69846327424457
 30
0.0
 10
943.4370377140182
 20
17.65169162380831
 30
0.0
 10
943.3173563758851
 20
17.59216024921134
 30
0.0
 10
943.1653541492472
 20
17.49263983684346
 30
0.0
 10
943.0628336810561
 20
17.40079872243111
 30
0.0
 10
943.0012149921282
 20
17.33195390474646
 30
0.0
  0
SPLINE
  5
8C
330
1F
100
AcDbEntity
  8
0
  6
Continuous
 62
     7
370
    25
100
AcDbSpline
210
0.0
220
0.0
230
1.0
 70
     8
 71
     3
 72
    13
 73
     9
 74
     0
 42
0.00000001
 43
0.00000001
 40
0.0
 40
0.0
 40
0.0
 40
0.0
 40
0.253759205061608
 40
0.3772863205702288
 40
0.4989121128148896
 40
0.6213214040214744
 40
0.7447622750750944
 40
1.0
 40
1.0
 40
1.0
 40
1.0
 10
943.0012149921282
 20
17.33195390474646
 30
0.0
 10
942.9448016922425
 20
17.2694430065517
 30
0.0
 10
942.8671032043015
 20
17.17032767030435
 30
0.0
 10
942.785947929772
 20
17.02557472335548
 30
0.0
 10
942.7363995785371
 20
16.91384299819998
 30
0.0
 10
942.6977088627091
 20
16.79791230193933
 30
0.0
 10
942.660695977085
 20
16.6354014133771
 30
0.0
 10
942.6511483614418
 20
16.50940909951565
 30
0.0
 10
942.6506540946923
 20
16.42470230218235
 30
0.0
  0
SPLINE
  5
8D
330
1F
100
AcDbEntity
  8
0
  6
Continuous
 62
     7
370
    25
100
AcDbSpline
210
0.0
220
0.0
230
1.0
 70
     8
 71
     3
 72
    21
 73
    17
 74
     0
 42
0.00000001
 43
0.00000001
 40
0.0
 40
0.0
 40
0.0
 40
0.0
 40
0.1230160125186727
 40
0.1821795987088893
 40
0.2413150145739386
 40
0.3002601565752412
 40
0.3598329711995817
 40
0.4210267535367628
 40
0.4843300171151959
 40
0.548023509696945
 40
0.6106086125596293
 40
0.6729950088427236
 40
0.735550045220488
 40
0.7989042338824474
 40
0.8636647494423917
 40
1.0
 40
1.0
 40
1.0
 40
1.0
 10
939.5096284536667
 20
16.41067986628492
 30
0.0
 10
939.5093412686546
 20
16.32293325733347
 30
0.0
 10
939.5219496798159
 20
16.19305520563363
 30
0.0
 10
939.5633441547624
 20
16.02574656056527
 30
0.0
 10
939.6079402296313
 20
15.90728091613503
 30
0.0
 10
939.6640413804024
 20
15.79347146398441
 30
0.0
 10
939.73388295133
 20
15.685830391723
 30
0.0
 10
939.8144101700675
 20
15.58198049739112
 30
0.0
 10
939.9081913282461
 20
15.48573978451673
 30
0.0
 10
940.010302190508
 20
15.39697727997746
 30
0.0
 10
940.1203381830196
 20
15.31922451981854
 30
0.0
 10
940.2372113255877
 20
15.25387120438343
 30
0.0
 10
940.3605344875671
 20
15.20035291141703
 30
0.0
 10
940.4901931155689
 20
15.15884066084105
 30
0.0
 10
940.6747499029915
 20
15.11927799714136
 30
0.0
 10
940.8181256563543
 20
15.10701132837805
 30
0.0
 10
940.9153776523847
 20
15.10799557141312
 30
0.0
  0
SPLINE
  5
8E
330
1F
100
AcDbEntity
  8
0
  6
Continuous
 62
     7
370
    25
100
AcDbSpline
210
0.0
220
0.0
230
1.0
 70
     8
 71
     3
 72
    21
 73
    17
 74
     0
 42
0.00000001
 43
0.00000001
 40
0.0
 40
0.0
 40
0.0
 40
0.0
 40
0.1381734600298349
 40
0.2051712291583752
 40
0.2702347439553353
 40
0.334577614923188
 40
0.3974624848755713
 40
0.460097009546341
 40
0.5222584002682111
 40
0.5835266948828639
 40
0.6441442312570524
 40
0.7040680119241987
 40
0.7630433524477811
 40
0.8218034537843245
 40
0.8809311384949983
 40
1.0
 40
1.0
 40
1.0
 40
1.0
 10
940.9153776523847
 20
15.10799557141312
 30
0.0
 10
940.9795868204725
 20
15.10700905407342
 30
0.0
 10
941.0747415097125
 20
15.1131367168722
 30
0.0
 10
941.1992976018994
 20
15.12860954625045
 30
0.0
 10
941.2889222165521
 20
15.14569150967615
 30
0.0
 10
941.3756384051385
 20
15.16713640006218
 30
0.0
 10
941.4596182684431
 20
15.19410453694714
 30
0.0
 10
941.5409602385739
 20
15.2254962322631
 30
0.0
 10
941.6193109642304
 20
15.26200240079289
 30
0.0
 10
941.6945600323554
 20
15.30261536474259
 30
0.0
 10
941.7659299694706
 20
15.34774997433303
 30
0.0
 10
941.8342566868112
 20
15.39560229719022
 30
0.0
 10
941.8973440624817
 20
15.44885758449294
 30
0.0
 10
941.9573209424359
 20
15.50498612007134
 30
0.0
 10
942.0323951999128
 20
15.58554288404002
 30
0.0
 10
942.0818502720523
 20
15.65214581479085
 30
0.0
 10
942.1121925562308
 20
15.69834012269516
 30
0.0
  0
SPLINE
  5
90
330
1F
100
AcDbEntity
  8
0
  6
Continuous
 62
     7
370
    25
100
AcDbSpline
210
0.0
220
0.0
230
1.0
 70
     8
 71
     3
 72
    13
 73
     9
 74
     0
 42
0.00000001
 43
0.00000001
 40
0.0
 40
0.0
 40
0.0
 40
0.0
 40
0.2581434980421687
 40
0.3806278746633607
 40
0.5015582214580119
 40
0.6227016552819188
 40
0.7445526879731841
 40
1.0
 40
1.0
 40
1.0
 40
1.0
 10
941.8492718831538
 20
15.87081608423363
 30
0.0
 10
941.7920374834786
 20
15.79869202389456
 30
0.0
 10
941.6962657166517
 20
15.70143168267574
 30
0.0
 10
941.551818328986
 20
15.59542923709739
 30
0.0
 10
941.4380848782847
 20
15.53185426472325
 30
0.0
 10
941.3176870851349
 20
15.48276432466322
 30
0.0
 10
941.1461783444713
 20
15.43483575339188
 30
0.0
 10
941.0112932405676
 20
15.4221517049159
 30
0.0
 10
940.9202855049488
 20
15.42209813551571
 30
0.0
  0
SPLINE
  5
91
330
1F
100
AcDbEntity
  8
0
  6
Continuous
 62
     7
370
    25
100
AcDbSpline
210
0.0
220
0.0
230
1.0
 70
     8
 71
     3
 72
    17
 73
    13
 74
     0
 42
0.00000001
 43
0.00000001
 40
0.0
 40
0.0
 40
0.0
 40
0.0
 40
0.17847093099052
 40
0.263762432705972
 40
0.3486672266155145
 40
0.4321345263706822
 40
0.5134033636004061
 40
0.5949764167925377
 40
0.677471472370611
 40
0.75967863870542
 40
0.8400345230550291
 40
1.0
 40
1.0
 40
1.0
 40
1.0
 10
940.9202855049488
 20
15.42209813551571
 30
0.0
 10
940.8212094127083
 20
15.42247598818547
 30
0.0
 10
940.6741268131708
 20
15.43702349863618
 30
0.0
 10
940.4882053873665
 20
15.4934655714028
 30
0.0
 10
940.3594500753969
 20
15.55167302642396
 30
0.0
 10
940.2407174598177
 20
15.62415965280517
 30
0.0
 10
940.1347971745001
 20
15.71157204658297
 30
0.0
 10
940.0426297043646
 20
15.81255636481144
 30
0.0
 10
939.9641331954631
 20
15.92515068992539
 30
0.0
 10
939.9021470763595
 20
16.04681728724688
 30
0.0
 10
939.8413671339097
 20
16.21598190328633
 30
0.0
 10
939.8239747162343
 20
16.34986342985673
 30
0.0
 10
939.8237310177693
 20
16.43872473807978
 30
0.0
  0
SPLINE
  5
92
330
1F
100
AcDbEntity
  8
0
  6
Continuous
 62
     7
370
    25
100
AcDbSpline
210
0.0
220
0.0
230
1.0
 70
     8
 71
     3
 72
    21
 73
    17
 74
     0
 42
0.00000001
 43
0.00000001
 40
0.0
 40
0.0
 40
0.0
 40
0.0
 40
0.1222819204638085
 40
0.1812434869852987
 40
0.2396871197545077
 40
0.2984032755910574
 40
0.3580784908258444
 40
0.419261628082501
 40
0.4824580183676552
 40
0.5464498243205897
 40
0.6091832833298887
 40
0.6717521154871762
 40
0.7345384496150802
 40
0.7980307571346639
 40
0.8630790177387537
 40
1.0
 40
1.0
 40
1.0
 40
1.0
 10
939.8237310177693
 20
16.43872473807978
 30
0.0
 10
939.8233924441482
 20
16.50628923505487
 30
0.0
 10
939.8336002808805
 20
16.60619728683638
 30
0.0
 10
939.8651002531703
 20
16.73496578338862
 30
0.0
 10
939.9003338807006
 20
16.82574274643767
 30
0.0
 10
939.9434510211339
 20
16.91349424332039
 30
0.0
 10
939.9983848904885
 20
16.99621420329456
 30
0.0
 10
940.0614846549852
 20
17.07596787352639
 30
0.0
 10
940.1343134274553
 20
17.15036657160685
 30
0.0
 10
940.2139302211741
 20
17.21877702032737
 30
0.0
 10
940.3003157401482
 20
17.27782741026818
 30
0.0
 10
940.3909664920576
 20
17.32863587027705
 30
0.0
 10
940.4866875521858
 20
17.37039102965016
 30
0.0
 10
940.5877258145189
 20
17.40152345095242
 30
0.0
 10
940.7308640889161
 20
17.43365123679941
 30
0.0
 10
940.8427650224531
 20
17.44023076496576
 30
0.0
 10
940.9181821395641
 20
17.44132890474642
 30
0.0
  0
SPLINE
  5
93
330
1F
100
AcDbEntity
  8
0
  6
Continuous
 62
     7
370
    25
100
AcDbSpline
210
0.0
220
0.0
230
1.0
 70
     8
 71
     3
 72
    13
 73
     9
 74
     0
 42
0.00000001
 43
0.00000001
 40
0.0
 40
0.0
 40
0.0
 40
0.0
 40
0.2615297557643175
 40
0.3853914026565604
 40
0.5066355486143859
 40
0.6264935166891236
 40
0.7474155249378513
 40
1.0
 40
1.0
 40
1.0
 40
1.0
 10
940.918182139564
 20
17.44132890474642
 30
0.0
 10
941.0117708394844
 20
17.44146980235123
 30
0.0
 10
941.1500653526402
 20
17.42863869324185
 30
0.0
 10
941.3254791510366
 20
17.38102278867209
 30
0.0
 10
941.4468765232389
 20
17.33186000892611
 30
0.0
 10
941.5601070118853
 20
17.26810730696432
 30
0.0
 10
941.7022790067603
 20
17.16265135179101
 30
0.0
 10
941.7949844398855
 20
17.06498346519209
 30
0.0
 10
941.8492718831538
 20
16.9926109560285
 30
0.0
  0
SPLINE
  5
95
330
1F
100
AcDbEntity
  8
0
  6
Continuous
 62
     7
370
    25
100
AcDbSpline
210
0.0
220
0.0
230
1.0
 70
     8
 71
     3
 72
    17
 73
    13
 74
     0
 42
0.00000001
 43
0.00000001
 40
0.0
 40
0.0
 40
0.0
 40
0.0
 40
0.1585634493071236
 40
0.2345871230995769
 40
0.3098023857351391
 40
0.3863975462586797
 40
0.4660235260292677
 40
0.5499336515748812
 40
0.6379505414946577
 40
0.7280903454728209
 40
0.8179185954471937
 40
1.0
 40
1.0
 40
1.0
 40
1.0
 10
942.1121925562308
 20
17.15597233423366
 30
0.0
 10
942.0755240676979
 20
17.21882485455328
 30
0.0
 10
942.0122051206125
 20
17.30650299425962
 30
0.0
 10
941.913154840833
 20
17.40871441299963
 30
0.0
 10
941.8330102793917
 20
17.47609582697196
 30
0.0
 10
941.7450731141076
 20
17.53581015986566
 30
0.0
 10
941.6492357316221
 20
17.59040705275339
 30
0.0
 10
941.5436994473432
 20
17.63741647711997
 30
0.0
 10
941.430953369327
 20
17.6792915435009
 30
0.0
 10
941.3128053853708
 20
17.71382091032592
 30
0.0
 10
941.1495344046109
 20
17.74524079897677
 30
0.0
 10
941.0249096035586
 20
17.75569235640784
 30
0.0
 10
940.9413191587948
 20
17.755431468849
 30
0.0
  0
SPLINE
  5
96
330
1F
100
AcDbEntity
  8
0
  6
Continuous
 62
     7
370
    25
100
AcDbSpline
210
0.0
220
0.0
230
1.0
 70
     8
 71
     3
 72
    29
 73
    25
 74
     0
 42
0.00000001
 43
0.00000001
 40
0.0
 40
0.0
 40
0.0
 40
0.0
 40
0.090404969833753
 40
0.1340218577669683
 40
0.1771929296099348
 40
0.2199566394228992
 40
0.2622486054529787
 40
0.3045538809267219
 40
0.3467622647176367
 40
0.3886297618353274
 40
0.4301572713045012
 40
0.4709850348103288
 40
0.5113171489159216
 40
0.5518126259433965
 40
0.5924494048341331
 40
0.6331453339012545
 40
0.6745901892035351
 40
0.7158270637532164
 40
0.7564739168378305
 40
0.796993399422944
 40
0.8371691302448709
 40
0.8773639647740381
 40
0.9178644967855372
 40
1.0
 40
1.0
 40
1.0
 40
1.0
 10
940.9413191587947
 20
17.755431468849
 30
0.0
 10
940.8752286784437
 20
17.75577804541156
 30
0.0
 10
940.7774272083316
 20
17.74949581655816
 30
0.0
 10
940.6490484611888
 20
17.73221417557058
 30
0.0
 10
940.5565216112126
 20
17.71202302172936
 30
0.0
 10
940.4659616456934
 20
17.68790716787127
 30
0.0
 10
940.3779685692323
 20
17.65745642458216
 30
0.0
 10
940.2924019114917
 20
17.62182269754719
 30
0.0
 10
940.2097771967941
 20
17.58046339305042
 30
0.0
 10
940.130593875113
 20
17.53401234297197
 30
0.0
 10
940.0548980231977
 20
17.48387136115426
 30
0.0
 10
939.9838264476367
 20
17.42911323442114
 30
0.0
 10
939.9177867935192
 20
17.36957704378606
 30
0.0
 10
939.8549106824421
 20
17.30685328289683
 30
0.0
 10
939.7978663426394
 20
17.23843351763155
 30
0.0
 10
939.7439851228694
 20
17.16667985232106
 30
0.0
 10
939.6952963266283
 20
17.09073031522185
 30
0.0
 10
939.6520445690378
 20
17.01163257677962
 30
0.0
 10
939.6139484774786
 20
16.93068793640662
 30
0.0
 10
939.5814755226409
 20
16.84810471504422
 30
0.0
 10
939.5560253560528
 20
16.76349986920173
 30
0.0
 10
939.5340352480063
 20
16.67789048991536
 30
0.0
 10
939.51644071584
 20
16.56012453921407
 30
0.0
 10
939.5087638899221
 20
16.47079090398978
 30
0.0
 10
939.5096284536667
 20
16.41067986628492
 30
0.0
  0
SPLINE
  5
A4
330
1F
100
AcDbEntity
  8
0
  6
Continuous
 62
     7
370
    25
100
AcDbSpline
210
0.0
220
0.0
230
1.0
 70
     8
 71
     3
 72
    13
 73
     9
 74
     0
 42
0.00000001
 43
0.00000001
 40
0.0
 40
0.0
 40
0.0
 40
0.0
 40
0.3336012413919295
 40
0.4791571975344256
 40
0.6105404974279318
 40
0.7289476063657787
 40
0.8323849228168392
 40
1.0
 40
1.0
 40
1.0
 40
1.0
 10
933.9903976844364
 20
16.07764701372083
 30
0.0
 10
933.99086610037
 20
16.15429053212625
 30
0.0
 10
933.9906936710086
 20
16.26446212105831
 30
0.0
 10
933.9972458815384
 20
16.40462155949585
 30
0.0
 10
934.001545112064
 20
16.49538103671577
 30
0.0
 10
934.0086092980873
 20
16.57626748955759
 30
0.0
 10
934.0189819748015
 20
16.66517195905132
 30
0.0
 10
934.0294197741424
 20
16.72664748193536
 30
0.0
 10
934.0387750882825
 20
16.76404525090031
 30
0.0
  0
SPLINE
  5
A5
330
1F
100
AcDbEntity
  8
0
  6
Continuous
 62
     7
370
    25
100
AcDbSpline
210
0.0
220
0.0
230
1.0
 70
     8
 71
     3
 72
    21
 73
    17
 74
     0
 42
0.00000001
 43
0.00000001
 40
0.0
 40
0.0
 40
0.0
 40
0.0
 40
0.1238830745189171
 40
0.1847816479826848
 40
0.2456024656876798
 40
0.3070653910745305
 40
0.3692286662507878
 40
0.4320259048597126
 40
0.4970795873926179
 40
0.5618524691217699
 40
0.6254263815420402
 40
0.6876488370376828
 40
0.7497698060395667
 40
0.8110156280184817
 40
0.8733731419104944
 40
1.0
 40
1.0
 40
1.0
 40
1.0
 10
934.0387750882825
 20
16.76404525090031
 30
0.0
 10
934.0513643902045
 20
16.81130209906323
 30
0.0
 10
934.0757889420544
 20
16.88033428901614
 30
0.0
 10
934.1193104752618
 20
16.96706636132472
 30
0.0
 10
934.1564662175297
 20
17.02920400359564
 30
0.0
 10
934.1995410001635
 20
17.08800237651181
 30
0.0
 10
934.2470773572007
 20
17.1442784113624
 30
0.0
 10
934.3004061505828
 20
17.19712279503399
 30
0.0
 10
934.3577188325886
 20
17.24720207026731
 30
0.0
 10
934.419322260515
 20
17.29239255113152
 30
0.0
 10
934.4828290274867
 20
17.33294124453133
 30
0.0
 10
934.5495932782501
 20
17.36546887061241
 30
0.0
 10
934.6171012291801
 20
17.39413757802588
 30
0.0
 10
934.6875208539818
 20
17.41498237596428
 30
0.0
 10
934.7841583091082
 20
17.43587321454187
 30
0.0
 10
934.858892095167
 20
17.44156805494212
 30
0.0
 10
934.9088672357184
 20
17.44132890474642
 30
0.0
  0
SPLINE
  5
A6
330
1F
100
AcDbEntity
  8
0
  6
Continuous
 62
     7
370
    25
100
AcDbSpline
210
0.0
220
0.0
230
1.0
 70
     8
 71
     3
 72
    13
 73
     9
 74
     0
 42
0.00000001
 43
0.00000001
 40
0.0
 40
0.0
 40
0.0
 40
0.0
 40
0.2700189621433423
 40
0.3907190350710789
 40
0.5068223535253189
 40
0.6215239708754536
 40
0.7391668368063032
 40
1.0
 40
1.0
 40
1.0
 40
1.0
 10
934.9088672357184
 20
17.44132890474642
 30
0.0
 10
934.9905186021006
 20
17.44179304230859
 30
0.0
 10
935.1096503567985
 20
17.42847169450895
 30
0.0
 10
935.254071046881
 20
17.37424777741975
 30
0.0
 10
935.3453104576691
 20
17.31812697329488
 30
0.0
 10
935.4231585350045
 20
17.2459310885088
 30
0.0
 10
935.5114245529317
 20
17.12435363030501
 30
0.0
 10
935.5511005436288
 20
17.01473009758181
 30
0.0
 10
935.5686228446928
 20
16.93792345602851
 30
0.0
  0
SPLINE
  5
A7
330
1F
100
AcDbEntity
  8
0
  6
Continuous
 62
     7
370
    25
100
AcDbSpline
210
0.0
220
0.0
230
1.0
 70
     8
 71
     3
 72
    13
 73
     9
 74
     0
 42
0.00000001
 43
0.00000001
 40
0.0
 40
0.0
 40
0.0
 40
0.0
 40
0.1585173269300211
 40
0.2599203239142082
 40
0.3767455717754368
 40
0.5101743366316052
 40
0.6578903510576951
 40
1.0
 40
1.0
 40
1.0
 40
1.0
 10
935.5686228446928
 20
16.93792345602851
 30
0.0
 10
935.5756854795735
 20
16.90786753073453
 30
0.0
 10
935.5841505596766
 20
16.85790439364909
 30
0.0
 10
935.591502289982
 20
16.78490786338477
 30
0.0
 10
935.5973001757789
 20
16.71667821227124
 30
0.0
 10
935.6012440388854
 20
16.63927957103778
 30
0.0
 10
935.6051763593688
 20
16.51798661384296
 30
0.0
 10
935.6052877279376
 20
16.42259541461494
 30
0.0
 10
935.6057822998209
 20
16.35599236628493
 30
0.0
  0
SPLINE
  5
AB
330
1F
100
AcDbEntity
  8
0
  6
Continuous
 62
     7
370
    25
100
AcDbSpline
210
0.0
220
0.0
230
1.0
 70
     8
 71
     3
 72
    21
 73
    17
 74
     0
 42
0.00000001
 43
0.00000001
 40
0.0
 40
0.0
 40
0.0
 40
0.0
 40
0.1317255445271741
 40
0.1906683746814265
 40
0.2451968850948476
 40
0.2955087738855862
 40
0.3412437630224658
 40
0.3833864553034272
 40
0.4214402664762985
 40
0.492956384356707
 40
0.5628694745136158
 40
0.6330237453801784
 40
0.7044573558011064
 40
0.7765120161995835
 40
0.8488218595336068
 40
1.0
 40
1.0
 40
1.0
 40
1.0
 10
935.9198848639235
 20
16.45905727013108
 30
0.0
 10
935.9206648164586
 20
16.53974397332114
 30
0.0
 10
935.9168240715419
 20
16.65653494076275
 30
0.0
 10
935.905191303692
 20
16.80626151781528
 30
0.0
 10
935.8946303389463
 20
16.90605970951109
 30
0.0
 10
935.8789947668865
 20
16.99699929748766
 30
0.0
 10
935.8609646787875
 20
17.07971745131087
 30
0.0
 10
935.8397321335678
 20
17.15396419292381
 30
0.0
 10
935.8060065407701
 20
17.24065302334804
 30
0.0
 10
935.7548091749338
 20
17.33837592787318
 30
0.0
 10
935.6784458409195
 20
17.44371302671804
 30
0.0
 10
935.5861213408942
 20
17.53528702109985
 30
0.0
 10
935.4809927803553
 20
17.61390792855383
 30
0.0
 10
935.3643783214652
 20
17.67706541183056
 30
0.0
 10
935.1938065212388
 20
17.73981721979034
 30
0.0
 10
935.0559303812256
 20
17.75481969368104
 30
0.0
 10
934.9635547357184
 20
17.755431468849
 30
0.0
  0
SPLINE
  5
AC
330
1F
100
AcDbEntity
  8
0
  6
Continuous
 62
     7
370
    25
100
AcDbSpline
210
0.0
220
0.0
230
1.0
 70
     8
 71
     3
 72
    13
 73
     9
 74
     0
 42
0.00000001
 43
0.00000001
 40
0.0
 40
0.0
 40
0.0
 40
0.0
 40
0.2434110992594182
 40
0.3618899784752182
 40
0.4800702186075755
 40
0.6010116861957749
 40
0.7264312190368025
 40
1.0
 40
1.0
 40
1.0
 40
1.0
 10
934.9635547357184
 20
17.755431468849
 30
0.0
 10
934.8711050576047
 20
17.75495522838272
 30
0.0
 10
934.7330712636435
 20
17.74142749904906
 30
0.0
 10
934.5575693347581
 20
17.68983689976866
 30
0.0
 10
934.431940851809
 20
17.63704565663149
 30
0.0
 10
934.3119683056849
 20
17.56691021725154
 30
0.0
 10
934.1546492666486
 20
17.44634939793277
 30
0.0
 10
934.0537544886579
 20
17.33142879484861
 30
0.0
 10
933.9903976844364
 20
17.24922153295155
 30
0.0
  0
SPLINE
  5
B1
330
1F
100
AcDbEntity
  8
0
  6
Continuous
 62
     7
370
    25
100
AcDbSpline
210
0.0
220
0.0
230
1.0
 70
     8
 71
     3
 72
    21
 73
    17
 74
     0
 42
0.00000001
 43
0.00000001
 40
0.0
 40
0.0
 40
0.0
 40
0.0
 40
0.1231816483428002
 40
0.1830343363247269
 40
0.242866192476144
 40
0.3025168847059428
 40
0.3633154622039138
 40
0.4250692989986412
 40
0.4890423674851736
 40
0.5530871422752265
 40
0.6154454653923724
 40
0.677286411840953
 40
0.739174987439565
 40
0.801675812932834
 40
0.8653648077757378
 40
1.0
 40
1.0
 40
1.0
 40
1.0
 10
930.4006540946926
 20
16.42470230218235
 30
0.0
 10
930.4001471873073
 20
16.33913488505534
 30
0.0
 10
930.4118565343288
 20
16.21201399212246
 30
0.0
 10
930.450488132028
 20
16.04762520197606
 30
0.0
 10
930.4912707615997
 20
15.92976637977794
 30
0.0
 10
930.5436421546603
 20
15.81588371993564
 30
0.0
 10
930.6075288741437
 20
15.70647361637356
 30
0.0
 10
930.6834028766897
 20
15.60132359322663
 30
0.0
 10
930.7694012069671
 20
15.50131358398366
 30
0.0
 10
930.8644732577733
 20
15.40917784253182
 30
0.0
 10
930.967673184453
 20
15.32861697832982
 30
0.0
 10
931.0774595735769
 20
15.26000789903936
 30
0.0
 10
931.1946048418195
 20
15.20470358895415
 30
0.0
 10
931.3178318376687
 20
15.1608731370726
 30
0.0
 10
931.494350315674
 20
15.11891375668506
 30
0.0
 10
931.6323686706654
 20
15.10841766401239
 30
0.0
 10
931.7257742870003
 20
15.10799557141312
 30
0.0
  0
SPLINE
  5
B2
330
1F
100
AcDbEntity
  8
0
  6
Continuous
 62
     7
370
    25
100
AcDbSpline
210
0.0
220
0.0
230
1.0
 70
     8
 71
     3
 72
    21
 73
    17
 74
     0
 42
0.00000001
 43
0.00000001
 40
0.0
 40
0.0
 40
0.0
 40
0.0
 40
0.1341341587220425
 40
0.1979034644236247
 40
0.260483102512054
 40
0.3221455286916713
 40
0.383778467188939
 40
0.4462154232078633
 40
0.5103409574898146
 40
0.5743946950476084
 40
0.6362264024960822
 40
0.6971016460802506
 40
0.7568275569302938
 40
0.8167348601469017
 40
0.8766630214626718
 40
1.0
 40
1.0
 40
1.0
 40
1.0
 10
931.7257742870003
 20
15.10799557141312
 30
0.0
 10
931.8187243363869
 20
15.10835953696715
 30
0.0
 10
931.9562516332046
 20
15.11903642117524
 30
0.0
 10
932.1323067949049
 20
15.16088826024486
 30
0.0
 10
932.2553728213722
 20
15.20455973272417
 30
0.0
 10
932.3720165565915
 20
15.26000617972834
 30
0.0
 10
932.4811704930463
 20
15.32882502402422
 30
0.0
 10
932.5842866498072
 20
15.40915402483217
 30
0.0
 10
932.679338593096
 20
15.50132003757504
 30
0.0
 10
932.765342314605
 20
15.60132193047314
 30
0.0
 10
932.8412149260042
 20
15.70647404795217
 30
0.0
 10
932.905102006855
 20
15.81588360748554
 30
0.0
 10
932.9574733053098
 20
15.92976640975485
 30
0.0
 10
932.9982559601079
 20
16.04762519397435
 30
0.0
 10
933.036887548838
 20
16.21201399762362
 30
0.0
 10
933.0485969014015
 20
16.33913488221411
 30
0.0
 10
933.0480899921286
 20
16.42470230218235
 30
0.0
  0
SPLINE
  5
B3
330
1F
100
AcDbEntity
  8
0
  6
Continuous
 62
     7
370
    25
100
AcDbSpline
210
0.0
220
0.0
230
1.0
 70
     8
 71
     3
 72
    13
 73
     9
 74
     0
 42
0.00000001
 43
0.00000001
 40
0.0
 40
0.0
 40
0.0
 40
0.0
 40
0.2554352550956477
 40
0.3786322712675498
 40
0.50146631433211
 40
0.6234943774777815
 40
0.7461656372032779
 40
1.0
 40
1.0
 40
1.0
 40
1.0
 10
933.0480899921286
 20
16.42470230218235
 30
0.0
 10
933.0476156033344
 20
16.50963914876724
 30
0.0
 10
933.0381317946094
 20
16.63588111169606
 30
0.0
 10
933.0009398120286
 20
16.79882041141534
 30
0.0
 10
932.962297642579
 20
16.9152016128386
 30
0.0
 10
932.9131935677359
 20
17.02742011881653
 30
0.0
 10
932.8309541677481
 20
17.17178090956239
 30
0.0
 10
932.7545601044282
 20
17.27171934975391
 30
0.0
 10
932.6975290946926
 20
17.33405727013104
 30
0.0
  0
SPLINE
  5
B4
330
1F
100
AcDbEntity
  8
0
  6
Continuous
 62
     7
370
    25
100
AcDbSpline
210
0.0
220
0.0
230
1.0
 70
     8
 71
     3
 72
    13
 73
     9
 74
     0
 42
0.00000001
 43
0.00000001
 40
0.0
 40
0.0
 40
0.0
 40
0.0
 40
0.2531294102724402
 40
0.3753070134590598
 40
0.4961956083998795
 40
0.6178660239074372
 40
0.7416676494858145
 40
1.0
 40
1.0
 40
1.0
 40
1.0
 10
932.6975290946926
 20
17.33405727013104
 30
0.0
 10
932.6353706107022
 20
17.40199387528246
 30
0.0
 10
932.5337553047615
 20
17.4947160003639
 30
0.0
 10
932.3813913071075
 20
17.59226233137251
 30
0.0
 10
932.2630116629776
 20
17.65299054426389
 30
0.0
 10
932.137215749385
 20
17.69819645646287
 30
0.0
 10
931.9590906209304
 20
17.742840427597
 30
0.0
 10
931.8198644483094
 20
17.75640610944657
 30
0.0
 10
931.7257742870003
 20
17.755431468849
 30
0.0
  0
SPLINE
  5
B5
330
1F
100
AcDbEntity
  8
0
  6
Continuous
 62
     7
370
    25
100
AcDbSpline
210
0.0
220
0.0
230
1.0
 70
     8
 71
     3
 72
    13
 73
     9
 74
     0
 42
0.00000001
 43
0.00000001
 40
0.0
 40
0.0
 40
0.0
 40
0.0
 40
0.2587123826906848
 40
0.3820894432542115
 40
0.5035635736272535
 40
0.6251808674329538
 40
0.7472870144846054
 40
1.0
 40
1.0
 40
1.0
 40
1.0
 10
931.7257742870003
 20
17.755431468849
 30
0.0
 10
931.6312069797765
 20
17.75629482456858
 30
0.0
 10
931.4915810160137
 20
17.74280940318462
 30
0.0
 10
931.3127323951022
 20
17.69846327424457
 30
0.0
 10
931.1870377140184
 20
17.65169162380831
 30
0.0
 10
931.0673563758855
 20
17.59216024921129
 30
0.0
 10
930.9153541492472
 20
17.49263983684346
 30
0.0
 10
930.8128336810569
 20
17.40079872243111
 30
0.0
 10
930.7512149921286
 20
17.33195390474646
 30
0.0
  0
SPLINE
  5
B6
330
1F
100
AcDbEntity
  8
0
  6
Continuous
 62
     7
370
    25
100
AcDbSpline
210
0.0
220
0.0
230
1.0
 70
     8
 71
     3
 72
    13
 73
     9
 74
     0
 42
0.00000001
 43
0.00000001
 40
0.0
 40
0.0
 40
0.0
 40
0.0
 40
0.253759205061608
 40
0.3772863205702288
 40
0.4989121128148896
 40
0.6213214040214744
 40
0.7447622750750944
 40
1.0
 40
1.0
 40
1.0
 40
1.0
 10
930.7512149921286
 20
17.33195390474646
 30
0.0
 10
930.6948016922429
 20
17.2694430065517
 30
0.0
 10
930.6171032043018
 20
17.17032767030435
 30
0.0
 10
930.5359479297724
 20
17.02557472335548
 30
0.0
 10
930.4863995785374
 20
16.91384299819998
 30
0.0
 10
930.4477088627094
 20
16.79791230193933
 30
0.0
 10
930.4106959770854
 20
16.6354014133771
 30
0.0
 10
930.4011483614418
 20
16.50940909951565
 30
0.0
 10
930.4006540946926
 20
16.42470230218235
 30
0.0
  0
SPLINE
  5
B8
330
1F
100
AcDbEntity
  8
0
  6
Continuous
 62
     7
370
    25
100
AcDbSpline
210
0.0
220
0.0
230
1.0
 70
     8
 71
     3
 72
    13
 73
     9
 74
     0
 42
0.00000001
 43
0.00000001
 40
0.0
 40
0.0
 40
0.0
 40
0.0
 40
0.3437621914217763
 40
0.491833832301093
 40
0.6241090704107972
 40
0.7413996050399076
 40
0.8430618504426455
 40
1.0
 40
1.0
 40
1.0
 40
1.0
 10
929.2788592228977
 20
16.01244268679774
 30
0.0
 10
929.2783127657198
 20
16.11342334825699
 30
0.0
 10
929.2805358371297
 20
16.25786995836703
 30
0.0
 10
929.2858101160186
 20
16.44112553578775
 30
0.0
 10
929.2923632671614
 20
16.55774127163062
 30
0.0
 10
929.2995114333868
 20
16.66067789565445
 30
0.0
 10
929.3117351935579
 20
16.77041727793499
 30
0.0
 10
929.3231991472725
 20
16.84558934042235
 30
0.0
 10
929.3349489664874
 20
16.89024717397719
 30
0.0
  0
SPLINE
  5
B9
330
1F
100
AcDbEntity
  8
0
  6
Continuous
 62
     7
370
    25
100
AcDbSpline
210
0.0
220
0.0
230
1.0
 70
     8
 71
     3
 72
    17
 73
    13
 74
     0
 42
0.00000001
 43
0.00000001
 40
0.0
 40
0.0
 40
0.0
 40
0.0
 40
0.1717166158284572
 40
0.250667976774108
 40
0.3258823275093847
 40
0.3968812716964172
 40
0.4635748406535765
 40
0.528069748948772
 40
0.5896876632767198
 40
0.7048093833748899
 40
0.8086618718637333
 40
1.0
 40
1.0
 40
1.0
 40
1.0
 10
929.3349489664874
 20
16.89024717397719
 30
0.0
 10
929.3468721138463
 20
16.93471858818252
 30
0.0
 10
929.3663935011891
 20
16.99919646798315
 30
0.0
 10
929.3992449410138
 20
17.08025131315078
 30
0.0
 10
929.4249038735775
 20
17.1349827584743
 30
0.0
 10
929.4530759128025
 20
17.18471183393139
 30
0.0
 10
929.4825581895038
 20
17.2302913524981
 30
0.0
 10
929.514698616295
 20
17.27093694012949
 30
0.0
 10
929.5597404252385
 20
17.31749747304179
 30
0.0
 10
929.617914880336
 20
17.36568243195763
 30
0.0
 10
929.7128579923569
 20
17.42251774523534
 30
0.0
 10
929.79173724288
 20
17.44139542761969
 30
0.0
 10
929.8432622677694
 20
17.44132890474642
 30
0.0
  0
SPLINE
  5
BA
330
1F
100
AcDbEntity
  8
0
  6
Continuous
 62
     7
370
    25
100
AcDbSpline
210
0.0
220
0.0
230
1.0
 70
     8
 71
     3
 72
     9
 73
     5
 74
     0
 42
0.00000001
 43
0.00000001
 40
0.0
 40
0.0
 40
0.0
 40
0.0
 40
0.4397700551121884
 40
1.0
 40
1.0
 40
1.0
 40
1.0
 10
929.8432622677694
 20
17.44132890474642
 30
0.0
 10
929.8679463075943
 20
17.44100651604236
 30
0.0
 10
929.9237334628046
 20
17.43168196055866
 30
0.0
 10
929.9752061210228
 20
17.40842632194006
 30
0.0
 10
930.0038191587952
 20
17.3957559880798
 30
0.0
  0
SPLINE
  5
BC
330
1F
100
AcDbEntity
  8
0
  6
Continuous
 62
     7
370
    25
100
AcDbSpline
210
0.0
220
0.0
230
1.0
 70
     8
 71
     3
 72
     9
 73
     5
 74
     0
 42
0.00000001
 43
0.00000001
 40
0.0
 40
0.0
 40
0.0
 40
0.0
 40
0.5364768048237025
 40
1.0
 40
1.0
 40
1.0
 40
1.0
 10
930.1762951203337
 20
17.66779124449003
 30
0.0
 10
930.1319540152743
 20
17.69465113526625
 30
0.0
 10
930.044300903558
 20
17.73818904674573
 30
0.0
 10
929.9478340732537
 20
17.75508204796178
 30
0.0
 10
929.9028576203336
 20
17.755431468849
 30
0.0
  0
SPLINE
  5
BD
330
1F
100
AcDbEntity
  8
0
  6
Continuous
 62
     7
370
    25
100
AcDbSpline
210
0.0
220
0.0
230
1.0
 70
     8
 71
     3
 72
    13
 73
     9
 74
     0
 42
0.00000001
 43
0.00000001
 40
0.0
 40
0.0
 40
0.0
 40
0.0
 40
0.2138863655718647
 40
0.3246827750473095
 40
0.439458544744861
 40
0.561633485869794
 40
0.6938876172598769
 40
1.0
 40
1.0
 40
1.0
 40
1.0
 10
929.9028576203337
 20
17.755431468849
 30
0.0
 10
929.8467772275634
 20
17.75504245227661
 30
0.0
 10
929.7612186326702
 20
17.74319580178524
 30
0.0
 10
929.6536453403152
 20
17.70051859304833
 30
0.0
 10
929.5732643097083
 20
17.65675825374879
 30
0.0
 10
929.4956284467588
 20
17.59822997438348
 30
0.0
 10
929.3898315533374
 20
17.49553891339295
 30
0.0
 10
929.3218793510039
 20
17.40177122884401
 30
0.0
 10
929.2788592228977
 20
17.33405727013104
 30
0.0
  0
SPLINE
  5
CD
330
1F
100
AcDbEntity
  8
0
  6
Continuous
 62
     7
370
    25
100
AcDbSpline
210
0.0
220
0.0
230
1.0
 70
     8
 71
     3
 72
    21
 73
    17
 74
     0
 42
0.00000001
 43
0.00000001
 40
0.0
 40
0.0
 40
0.0
 40
0.0
 40
0.1771818144779311
 40
0.250493957497017
 40
0.3165674539520693
 40
0.3716659606200233
 40
0.4184906873983337
 40
0.4554660201383264
 40
0.4833250523741682
 40
0.5314544263190344
 40
0.5830124561895582
 40
0.6392239055171622
 40
0.7022806382731925
 40
0.7705757099079518
 40
0.8412761191749952
 40
1.0
 40
1.0
 40
1.0
 40
1.0
 10
928.0245523318716
 20
18.06532730218235
 30
0.0
 10
928.0230745700131
 20
18.09925304304233
 30
0.0
 10
928.0263338143395
 20
18.14709754191485
 30
0.0
 10
928.0260810539976
 20
18.20769662553706
 30
0.0
 10
928.0288532566822
 20
18.24479967239012
 30
0.0
 10
928.0300792480091
 20
18.27696331972567
 30
0.0
 10
928.0344635084157
 20
18.30318742043763
 30
0.0
 10
928.0362537602268
 20
18.32454168373582
 30
0.0
 10
928.0422037364369
 20
18.34539267859264
 30
0.0
 10
928.0519586854554
 20
18.3679130833036
 30
0.0
 10
928.0699252531587
 20
18.39209828738958
 30
0.0
 10
928.0947113005327
 20
18.41355345053675
 30
0.0
 10
928.123662536502
 20
18.43490807329512
 30
0.0
 10
928.1585649204753
 20
18.45193552014118
 30
0.0
 10
928.2128067814531
 20
18.47002914570561
 30
0.0
 10
928.2573291646532
 20
18.47222984058872
 30
0.0
 10
928.2874730049487
 20
18.47338018679773
 30
0.0
  0
SPLINE
  5
CE
330
1F
100
AcDbEntity
  8
0
  6
Continuous
 62
     7
370
    25
100
AcDbSpline
210
0.0
220
0.0
230
1.0
 70
     8
 71
     3
 72
     9
 73
     5
 74
     0
 42
0.00000001
 43
0.00000001
 40
0.0
 40
0.0
 40
0.0
 40
0.0
 40
0.4469718272067376
 40
1.0
 40
1.0
 40
1.0
 40
1.0
 10
928.2874730049487
 20
18.47338018679773
 30
0.0
 10
928.3367458500408
 20
18.47319219086319
 30
0.0
 10
928.4459915644896
 20
18.45606058701676
 30
0.0
 10
928.5497362078629
 20
18.41826301587185
 30
0.0
 10
928.6057822998204
 20
18.39485454577211
 30
0.0
  0
SPLINE
  5
D0
330
1F
100
AcDbEntity
  8
0
  6
Continuous
 62
     7
370
    25
100
AcDbSpline
210
0.0
220
0.0
230
1.0
 70
     8
 71
     3
 72
     9
 73
     5
 74
     0
 42
0.00000001
 43
0.00000001
 40
0.0
 40
0.0
 40
0.0
 40
0.0
 40
0.5461371453787065
 40
1.0
 40
1.0
 40
1.0
 40
1.0
 10
928.6057822998204
 20
18.72157730218233
 30
0.0
 10
928.5376224589261
 20
18.74088144227337
 30
0.0
 10
928.4117407632549
 20
18.77472925794016
 30
0.0
 10
928.2819238232249
 20
18.78679921001081
 30
0.0
 10
928.2229697998204
 20
18.78748275090031
 30
0.0
  0
SPLINE
  5
D1
330
1F
100
AcDbEntity
  8
0
  6
Continuous
 62
     7
370
    25
100
AcDbSpline
210
0.0
220
0.0
230
1.0
 70
     8
 71
     3
 72
    21
 73
    17
 74
     0
 42
0.00000001
 43
0.00000001
 40
0.0
 40
0.0
 40
0.0
 40
0.0
 40
0.1646104484879523
 40
0.2403548858244436
 40
0.31369786958082
 40
0.3839383823375309
 40
0.4510833284886482
 40
0.5168266720448289
 40
0.5830951868686794
 40
0.6183697864378584
 40
0.6584956457605888
 40
0.7033577203112109
 40
0.7520840367088757
 40
0.8070521683517489
 40
0.8661435665398586
 40
1.0
 40
1.0
 40
1.0
 40
1.0
 10
928.2229697998204
 20
18.78748275090031
 30
0.0
 10
928.1696586770643
 20
18.78657289379354
 30
0.0
 10
928.0909490025748
 20
18.78010525289253
 30
0.0
 10
927.9936958249214
 20
18.74812219863081
 30
0.0
 10
927.9299833864345
 20
18.7157250610363
 30
0.0
 10
927.8733742832811
 20
18.67671308837382
 30
0.0
 10
927.8259814702893
 20
18.63040930387105
 30
0.0
 10
927.786451229151
 20
18.578785101657
 30
0.0
 10
927.7620290021594
 20
18.52993515151485
 30
0.0
 10
927.7456804529605
 20
18.48683248259392
 30
0.0
 10
927.7366689152219
 20
18.44875073095531
 30
0.0
 10
927.7271334933512
 20
18.40635782661837
 30
0.0
 10
927.720468608337
 20
18.35851178136461
 30
0.0
 10
927.7147148830693
 20
18.30592272057041
 30
0.0
 10
927.7106034512038
 20
18.22545326333347
 30
0.0
 10
927.7074959275363
 20
18.16284225881309
 30
0.0
 10
927.7083464023844
 20
18.1193136803875
 30
0.0
  0
SPLINE
  5
D3
330
1F
100
AcDbEntity
  8
0
  6
Continuous
 62
     7
370
    25
100
AcDbSpline
210
0.0
220
0.0
230
1.0
 70
     8
 71
     3
 72
    13
 73
     9
 74
     0
 42
0.00000001
 43
0.00000001
 40
0.0
 40
0.0
 40
0.0
 40
0.0
 40
0.3437621914217763
 40
0.491833832301093
 40
0.6241090704107972
 40
0.7413996050399076
 40
0.8430618504426455
 40
1.0
 40
1.0
 40
1.0
 40
1.0
 10
924.9711669152053
 20
16.01244268679774
 30
0.0
 10
924.9706204580272
 20
16.11342334825699
 30
0.0
 10
924.9728435294373
 20
16.25786995836703
 30
0.0
 10
924.978117808326
 20
16.44112553578775
 30
0.0
 10
924.9846709594689
 20
16.55774127163062
 30
0.0
 10
924.9918191256942
 20
16.66067789565445
 30
0.0
 10
925.0040428858655
 20
16.77041727793499
 30
0.0
 10
925.0155068395801
 20
16.84558934042235
 30
0.0
 10
925.0272566587951
 20
16.89024717397719
 30
0.0
  0
SPLINE
  5
D4
330
1F
100
AcDbEntity
  8
0
  6
Continuous
 62
     7
370
    25
100
AcDbSpline
210
0.0
220
0.0
230
1.0
 70
     8
 71
     3
 72
    17
 73
    13
 74
     0
 42
0.00000001
 43
0.00000001
 40
0.0
 40
0.0
 40
0.0
 40
0.0
 40
0.1717166158284572
 40
0.250667976774108
 40
0.3258823275093847
 40
0.3968812716964172
 40
0.4635748406535765
 40
0.528069748948772
 40
0.5896876632767198
 40
0.7048093833748899
 40
0.8086618718637333
 40
1.0
 40
1.0
 40
1.0
 40
1.0
 10
925.0272566587951
 20
16.89024717397719
 30
0.0
 10
925.0391798061538
 20
16.93471858818252
 30
0.0
 10
925.0587011934967
 20
16.99919646798315
 30
0.0
 10
925.0915526333213
 20
17.08025131315078
 30
0.0
 10
925.1172115658849
 20
17.1349827584743
 30
0.0
 10
925.1453836051104
 20
17.18471183393139
 30
0.0
 10
925.1748658818113
 20
17.2302913524981
 30
0.0
 10
925.2070063086028
 20
17.27093694012949
 30
0.0
 10
925.2520481175459
 20
17.31749747304179
 30
0.0
 10
925.3102225726435
 20
17.36568243195763
 30
0.0
 10
925.4051656846642
 20
17.42251774523534
 30
0.0
 10
925.4840449351881
 20
17.44139542761969
 30
0.0
 10
925.535569960077
 20
17.44132890474642
 30
0.0
  0
SPLINE
  5
D5
330
1F
100
AcDbEntity
  8
0
  6
Continuous
 62
     7
370
    25
100
AcDbSpline
210
0.0
220
0.0
230
1.0
 70
     8
 71
     3
 72
     9
 73
     5
 74
     0
 42
0.00000001
 43
0.00000001
 40
0.0
 40
0.0
 40
0.0
 40
0.0
 40
0.4397700551121884
 40
1.0
 40
1.0
 40
1.0
 40
1.0
 10
925.535569960077
 20
17.44132890474642
 30
0.0
 10
925.560253999902
 20
17.44100651604236
 30
0.0
 10
925.6160411551119
 20
17.43168196055866
 30
0.0
 10
925.6675138133306
 20
17.40842632194006
 30
0.0
 10
925.6961268511027
 20
17.3957559880798
 30
0.0
  0
SPLINE
  5
D7
330
1F
100
AcDbEntity
  8
0
  6
Continuous
 62
     7
370
    25
100
AcDbSpline
210
0.0
220
0.0
230
1.0
 70
     8
 71
     3
 72
     9
 73
     5
 74
     0
 42
0.00000001
 43
0.00000001
 40
0.0
 40
0.0
 40
0.0
 40
0.0
 40
0.5364768048237025
 40
1.0
 40
1.0
 40
1.0
 40
1.0
 10
925.8686028126413
 20
17.66779124449003
 30
0.0
 10
925.824261707582
 20
17.69465113526625
 30
0.0
 10
925.7366085958655
 20
17.73818904674573
 30
0.0
 10
925.6401417655615
 20
17.75508204796178
 30
0.0
 10
925.5951653126411
 20
17.755431468849
 30
0.0
  0
SPLINE
  5
D8
330
1F
100
AcDbEntity
  8
0
  6
Continuous
 62
     7
370
    25
100
AcDbSpline
210
0.0
220
0.0
230
1.0
 70
     8
 71
     3
 72
    13
 73
     9
 74
     0
 42
0.00000001
 43
0.00000001
 40
0.0
 40
0.0
 40
0.0
 40
0.0
 40
0.2138863655718647
 40
0.3246827750473095
 40
0.439458544744861
 40
0.561633485869794
 40
0.6938876172598769
 40
1.0
 40
1.0
 40
1.0
 40
1.0
 10
925.5951653126413
 20
17.755431468849
 30
0.0
 10
925.5390849198711
 20
17.75504245227661
 30
0.0
 10
925.4535263249775
 20
17.74319580178524
 30
0.0
 10
925.3459530326228
 20
17.70051859304833
 30
0.0
 10
925.2655720020159
 20
17.65675825374879
 30
0.0
 10
925.1879361390664
 20
17.59822997438348
 30
0.0
 10
925.0821392456448
 20
17.49553891339295
 30
0.0
 10
925.0141870433114
 20
17.40177122884401
 30
0.0
 10
924.9711669152053
 20
17.33405727013104
 30
0.0
  0
SPLINE
  5
DD
330
1F
100
AcDbEntity
  8
0
  6
Continuous
 62
     7
370
    25
100
AcDbSpline
210
0.0
220
0.0
230
1.0
 70
     8
 71
     3
 72
    21
 73
    17
 74
     0
 42
0.00000001
 43
0.00000001
 40
0.0
 40
0.0
 40
0.0
 40
0.0
 40
0.1231816483428002
 40
0.1830343363247269
 40
0.242866192476144
 40
0.3025168847059428
 40
0.3633154622039138
 40
0.4250692989986412
 40
0.4890423674851736
 40
0.5530871422752265
 40
0.6154454653923724
 40
0.677286411840953
 40
0.739174987439565
 40
0.801675812932834
 40
0.8653648077757378
 40
1.0
 40
1.0
 40
1.0
 40
1.0
 10
921.4711669152052
 20
16.42470230218235
 30
0.0
 10
921.4706600078197
 20
16.33913488505534
 30
0.0
 10
921.4823693548417
 20
16.21201399212246
 30
0.0
 10
921.5210009525406
 20
16.04762520197606
 30
0.0
 10
921.5617835821124
 20
15.92976637977794
 30
0.0
 10
921.6141549751729
 20
15.81588371993564
 30
0.0
 10
921.6780416946561
 20
15.70647361637356
 30
0.0
 10
921.7539156972023
 20
15.60132359322663
 30
0.0
 10
921.8399140274798
 20
15.50131358398366
 30
0.0
 10
921.9349860782858
 20
15.40917784253182
 30
0.0
 10
922.0381860049658
 20
15.32861697832982
 30
0.0
 10
922.1479723940895
 20
15.26000789903936
 30
0.0
 10
922.265117662332
 20
15.20470358895415
 30
0.0
 10
922.3883446581813
 20
15.1608731370726
 30
0.0
 10
922.5648631361867
 20
15.118913756685
 30
0.0
 10
922.7028814911779
 20
15.10841766401244
 30
0.0
 10
922.796287107513
 20
15.10799557141312
 30
0.0
  0
SPLINE
  5
DE
330
1F
100
AcDbEntity
  8
0
  6
Continuous
 62
     7
370
    25
100
AcDbSpline
210
0.0
220
0.0
230
1.0
 70
     8
 71
     3
 72
    21
 73
    17
 74
     0
 42
0.00000001
 43
0.00000001
 40
0.0
 40
0.0
 40
0.0
 40
0.0
 40
0.1341341587220425
 40
0.1979034644236247
 40
0.260483102512054
 40
0.3221455286916713
 40
0.383778467188939
 40
0.4462154232078633
 40
0.5103409574898146
 40
0.5743946950476084
 40
0.6362264024960822
 40
0.6971016460802506
 40
0.7568275569302938
 40
0.8167348601469017
 40
0.8766630214626718
 40
1.0
 40
1.0
 40
1.0
 40
1.0
 10
922.796287107513
 20
15.10799557141312
 30
0.0
 10
922.8892371568996
 20
15.10835953696715
 30
0.0
 10
923.026764453717
 20
15.11903642117524
 30
0.0
 10
923.2028196154178
 20
15.16088826024486
 30
0.0
 10
923.3258856418847
 20
15.20455973272417
 30
0.0
 10
923.4425293771042
 20
15.26000617972834
 30
0.0
 10
923.5516833135589
 20
15.32882502402422
 30
0.0
 10
923.6547994703199
 20
15.40915402483217
 30
0.0
 10
923.7498514136088
 20
15.50132003757504
 30
0.0
 10
923.8358551351176
 20
15.60132193047314
 30
0.0
 10
923.9117277465167
 20
15.70647404795217
 30
0.0
 10
923.9756148273675
 20
15.81588360748559
 30
0.0
 10
924.0279861258226
 20
15.92976640975485
 30
0.0
 10
924.0687687806205
 20
16.04762519397435
 30
0.0
 10
924.1074003693507
 20
16.21201399762362
 30
0.0
 10
924.1191097219142
 20
16.33913488221411
 30
0.0
 10
924.1186028126411
 20
16.42470230218235
 30
0.0
  0
SPLINE
  5
DF
330
1F
100
AcDbEntity
  8
0
  6
Continuous
 62
     7
370
    25
100
AcDbSpline
210
0.0
220
0.0
230
1.0
 70
     8
 71
     3
 72
    13
 73
     9
 74
     0
 42
0.00000001
 43
0.00000001
 40
0.0
 40
0.0
 40
0.0
 40
0.0
 40
0.2554352550956477
 40
0.3786322712675498
 40
0.50146631433211
 40
0.6234943774777815
 40
0.7461656372032779
 40
1.0
 40
1.0
 40
1.0
 40
1.0
 10
924.1186028126411
 20
16.42470230218235
 30
0.0
 10
924.1181284238475
 20
16.50963914876724
 30
0.0
 10
924.1086446151216
 20
16.63588111169606
 30
0.0
 10
924.0714526325411
 20
16.79882041141534
 30
0.0
 10
924.0328104630916
 20
16.9152016128386
 30
0.0
 10
923.9837063882486
 20
17.02742011881653
 30
0.0
 10
923.9014669882605
 20
17.17178090956239
 30
0.0
 10
923.8250729249409
 20
17.27171934975397
 30
0.0
 10
923.7680419152052
 20
17.33405727013104
 30
0.0
  0
SPLINE
  5
E0
330
1F
100
AcDbEntity
  8
0
  6
Continuous
 62
     7
370
    25
100
AcDbSpline
210
0.0
220
0.0
230
1.0
 70
     8
 71
     3
 72
    13
 73
     9
 74
     0
 42
0.00000001
 43
0.00000001
 40
0.0
 40
0.0
 40
0.0
 40
0.0
 40
0.2531294102724402
 40
0.3753070134590598
 40
0.4961956083998795
 40
0.6178660239074372
 40
0.7416676494858145
 40
1.0
 40
1.0
 40
1.0
 40
1.0
 10
923.7680419152052
 20
17.33405727013104
 30
0.0
 10
923.7058834312145
 20
17.40199387528246
 30
0.0
 10
923.6042681252741
 20
17.4947160003639
 30
0.0
 10
923.4519041276201
 20
17.59226233137251
 30
0.0
 10
923.3335244834905
 20
17.65299054426389
 30
0.0
 10
923.2077285698974
 20
17.69819645646287
 30
0.0
 10
923.0296034414431
 20
17.742840427597
 30
0.0
 10
922.8903772688218
 20
17.75640610944657
 30
0.0
 10
922.796287107513
 20
17.755431468849
 30
0.0
  0
SPLINE
  5
E1
330
1F
100
AcDbEntity
  8
0
  6
Continuous
 62
     7
370
    25
100
AcDbSpline
210
0.0
220
0.0
230
1.0
 70
     8
 71
     3
 72
    13
 73
     9
 74
     0
 42
0.00000001
 43
0.00000001
 40
0.0
 40
0.0
 40
0.0
 40
0.0
 40
0.2587123826906848
 40
0.3820894432542115
 40
0.5035635736272535
 40
0.6251808674329538
 40
0.7472870144846054
 40
1.0
 40
1.0
 40
1.0
 40
1.0
 10
922.796287107513
 20
17.755431468849
 30
0.0
 10
922.7017198002892
 20
17.75629482456864
 30
0.0
 10
922.5620938365263
 20
17.74280940318462
 30
0.0
 10
922.383245215615
 20
17.69846327424457
 30
0.0
 10
922.2575505345312
 20
17.65169162380831
 30
0.0
 10
922.1378691963979
 20
17.59216024921129
 30
0.0
 10
921.9858669697601
 20
17.49263983684346
 30
0.0
 10
921.8833465015692
 20
17.40079872243117
 30
0.0
 10
921.8217278126411
 20
17.33195390474646
 30
0.0
  0
SPLINE
  5
E2
330
1F
100
AcDbEntity
  8
0
  6
Continuous
 62
     7
370
    25
100
AcDbSpline
210
0.0
220
0.0
230
1.0
 70
     8
 71
     3
 72
    13
 73
     9
 74
     0
 42
0.00000001
 43
0.00000001
 40
0.0
 40
0.0
 40
0.0
 40
0.0
 40
0.253759205061608
 40
0.3772863205702288
 40
0.4989121128148896
 40
0.6213214040214744
 40
0.7447622750750944
 40
1.0
 40
1.0
 40
1.0
 40
1.0
 10
921.8217278126411
 20
17.33195390474646
 30
0.0
 10
921.7653145127559
 20
17.2694430065517
 30
0.0
 10
921.6876160248144
 20
17.17032767030435
 30
0.0
 10
921.606460750285
 20
17.02557472335548
 30
0.0
 10
921.55691239905
 20
16.91384299819998
 30
0.0
 10
921.5182216832222
 20
16.79791230193933
 30
0.0
 10
921.4812087975977
 20
16.6354014133771
 30
0.0
 10
921.4716611819548
 20
16.50940909951565
 30
0.0
 10
921.4711669152052
 20
16.42470230218235
 30
0.0
  0
SPLINE
  5
E3
330
1F
100
AcDbEntity
  8
0
  6
Continuous
 62
     7
370
    25
100
AcDbSpline
210
0.0
220
0.0
230
1.0
 70
     8
 71
     3
 72
     9
 73
     5
 74
     0
 42
0.00000001
 43
0.00000001
 40
0.0
 40
0.0
 40
0.0
 40
0.0
 40
0.5074092035235833
 40
1.0
 40
1.0
 40
1.0
 40
1.0
 10
919.5865515305899
 20
17.0844579111567
 30
0.0
 10
919.5852797571793
 20
17.0137388362322
 30
0.0
 10
919.605996236125
 20
16.87472074408791
 30
0.0
 10
919.6643700996874
 20
16.74682225609553
 30
0.0
 10
919.7036388703334
 20
16.69042746243876
 30
0.0
  0
SPLINE
  5
E4
330
1F
100
AcDbEntity
  8
0
  6
Continuous
 62
     7
370
    25
100
AcDbSpline
210
0.0
220
0.0
230
1.0
 70
     8
 71
     3
 72
    13
 73
     9
 74
     0
 42
0.00000001
 43
0.00000001
 40
0.0
 40
0.0
 40
0.0
 40
0.0
 40
0.197704293009079
 40
0.3078458435568135
 40
0.4271756375984298
 40
0.5562245009992259
 40
0.6940497867915496
 40
1.0
 40
1.0
 40
1.0
 40
1.0
 10
919.7036388703334
 20
16.69042746243876
 30
0.0
 10
919.7245779499927
 20
16.65936020327729
 30
0.0
 10
919.7628370622269
 20
16.61530334323552
 30
0.0
 10
919.8207507891748
 20
16.55893795936009
 30
0.0
 10
919.8728830262603
 20
16.51549439940042
 30
0.0
 10
919.9319934737317
 20
16.47259181139782
 30
0.0
 10
920.0210636225858
 20
16.41092293654139
 30
0.0
 10
920.0940502627323
 20
16.36923588942474
 30
0.0
 10
920.1446444793078
 20
16.3412688085926
 30
0.0
  0
SPLINE
  5
E5
330
1F
100
AcDbEntity
  8
0
  6
Continuous
 62
     7
370
    25
100
AcDbSpline
210
0.0
220
0.0
230
1.0
 70
     8
 71
     3
 72
    13
 73
     9
 74
     0
 42
0.00000001
 43
0.00000001
 40
0.0
 40
0.0
 40
0.0
 40
0.0
 40
0.3337367066248621
 40
0.4791986316519813
 40
0.6104491594873718
 40
0.7277299767534031
 40
0.8325383242741483
 40
1.0
 40
1.0
 40
1.0
 40
1.0
 10
920.1446444793078
 20
16.3412688085926
 30
0.0
 10
920.1910143717882
 20
16.316811806039
 30
0.0
 10
920.2566397902605
 20
16.27995702045204
 30
0.0
 10
920.3392959703547
 20
16.23135213038463
 30
0.0
 10
920.391295419093
 20
16.1977654138149
 30
0.0
 10
920.4364125525012
 20
16.16541180821496
 30
0.0
 10
920.4843183901393
 20
16.1273223925249
 30
0.0
 10
920.51551783456
 20
16.09791424303292
 30
0.0
 10
920.532364831872
 20
16.07764701372083
 30
0.0
  0
SPLINE
  5
E6
330
1F
100
AcDbEntity
  8
0
  6
Continuous
 62
     7
370
    25
100
AcDbSpline
210
0.0
220
0.0
230
1.0
 70
     8
 71
     3
 72
     9
 73
     5
 74
     0
 42
0.00000001
 43
0.00000001
 40
0.0
 40
0.0
 40
0.0
 40
0.0
 40
0.4995466848970542
 40
1.0
 40
1.0
 40
1.0
 40
1.0
 10
920.532364831872
 20
16.07764701372083
 30
0.0
 10
920.5602543537201
 20
16.04369630450908
 30
0.0
 10
920.6044439274247
 20
15.96591648650308
 30
0.0
 10
920.6184354617532
 20
15.87762624749095
 30
0.0
 10
920.6186028126411
 20
15.83365662910541
 30
0.0
  0
SPLINE
  5
E7
330
1F
100
AcDbEntity
  8
0
  6
Continuous
 62
     7
370
    25
100
AcDbSpline
210
0.0
220
0.0
230
1.0
 70
     8
 71
     3
 72
    13
 73
     9
 74
     0
 42
0.00000001
 43
0.00000001
 40
0.0
 40
0.0
 40
0.0
 40
0.0
 40
0.2352817369432603
 40
0.3554913463217767
 40
0.4823137941791908
 40
0.6121639553088942
 40
0.7381043263492042
 40
1.0
 40
1.0
 40
1.0
 40
1.0
 10
920.6186028126411
 20
15.83365662910541
 30
0.0
 10
920.6189340676242
 20
15.78043806806723
 30
0.0
 10
920.6018172936174
 20
15.69995909946909
 30
0.0
 10
920.5456806032375
 20
15.60563779253282
 30
0.0
 10
920.4878574445231
 20
15.54266553482064
 30
0.0
 10
920.4198127317441
 20
15.48864568801944
 30
0.0
 10
920.3141082323303
 20
15.43687293290541
 30
0.0
 10
920.2262885845269
 20
15.42158570558588
 30
0.0
 10
920.1670803767437
 20
15.42209813551571
 30
0.0
  0
SPLINE
  5
E8
330
1F
100
AcDbEntity
  8
0
  6
Continuous
 62
     7
370
    25
100
AcDbSpline
210
0.0
220
0.0
230
1.0
 70
     8
 71
     3
 72
    13
 73
     9
 74
     0
 42
0.00000001
 43
0.00000001
 40
0.0
 40
0.0
 40
0.0
 40
0.0
 40
0.22499390168399
 40
0.3407622816196348
 40
0.4594992564133945
 40
0.5828283517555515
 40
0.7140958284555545
 40
1.0
 40
1.0
 40
1.0
 40
1.0
 10
920.1670803767438
 20
15.42209813551571
 30
0.0
 10
920.122624194457
 20
15.42188294853081
 30
0.0
 10
920.0554718779443
 20
15.43094539127959
 30
0.0
 10
919.9690101427325
 20
15.4588626681092
 30
0.0
 10
919.9047863677506
 20
15.48859498389943
 30
0.0
 10
919.8419634413249
 20
15.52725842228087
 30
0.0
 10
919.7561125839669
 20
15.59074431875113
 30
0.0
 10
919.6978192398385
 20
15.6494338100886
 30
0.0
 10
919.6601693190514
 20
15.69132890474645
 30
0.0
  0
SPLINE
  5
EA
330
1F
100
AcDbEntity
  8
0
  6
Continuous
 62
     7
370
    25
100
AcDbSpline
210
0.0
220
0.0
230
1.0
 70
     8
 71
     3
 72
    13
 73
     9
 74
     0
 42
0.00000001
 43
0.00000001
 40
0.0
 40
0.0
 40
0.0
 40
0.0
 40
0.2445989327970484
 40
0.3685417614065677
 40
0.4953064507483645
 40
0.6227813119738073
 40
0.7482760387504066
 40
1.0
 40
1.0
 40
1.0
 40
1.0
 10
919.4519361459743
 20
15.4543497380798
 30
0.0
 10
919.4942039370427
 20
15.4007508359611
 30
0.0
 10
919.5675473203883
 20
15.32774846019819
 30
0.0
 10
919.6807881821874
 20
15.24815680258368
 30
0.0
 10
919.7737932063676
 20
15.1979589187366
 30
0.0
 10
919.8721882021126
 20
15.15830533044282
 30
0.0
 10
920.0077473393437
 20
15.11958829277443
 30
0.0
 10
920.112946168413
 20
15.10746255205336
 30
0.0
 10
920.1832061780258
 20
15.10799557141312
 30
0.0
  0
SPLINE
  5
EB
330
1F
100
AcDbEntity
  8
0
  6
Continuous
 62
     7
370
    25
100
AcDbSpline
210
0.0
220
0.0
230
1.0
 70
     8
 71
     3
 72
    21
 73
    17
 74
     0
 42
0.00000001
 43
0.00000001
 40
0.0
 40
0.0
 40
0.0
 40
0.0
 40
0.1313602991794606
 40
0.1945015164287754
 40
0.2564315180678532
 40
0.3176028927083412
 40
0.3786284196027297
 40
0.4404806721564622
 40
0.5042957142746882
 40
0.5681107563928997
 40
0.6299630089466461
 40
0.6904753005359336
 40
0.7513604849059745
 40
0.8114026619125837
 40
0.8728008672444953
 40
1.0
 40
1.0
 40
1.0
 40
1.0
 10
920.1832061780258
 20
15.10799557141312
 30
0.0
 10
920.234595664208
 20
15.10834566996638
 30
0.0
 10
920.3108901626222
 20
15.11408507955164
 30
0.0
 10
920.4088823651458
 20
15.13673657483017
 30
0.0
 10
920.4778452427647
 20
15.16078491096601
 30
0.0
 10
920.5433722478386
 20
15.19105549322025
 30
0.0
 10
920.6056110258179
 20
15.22762843273601
 30
0.0
 10
920.6641171719496
 20
15.27165276778131
 30
0.0
 10
920.7189626891927
 20
15.32173841126477
 30
0.0
 10
920.7690539640989
 20
15.37657739264969
 30
0.0
 10
920.8129292415391
 20
15.43495334224648
 30
0.0
 10
920.8494757076652
 20
15.49678949793443
 30
0.0
 10
920.8806650332818
 20
15.56074879131847
 30
0.0
 10
920.903740386296
 20
15.62844275990366
 30
0.0
 10
920.9267354530685
 20
15.72317546529106
 30
0.0
 10
920.9322334744755
 20
15.79725000041377
 30
0.0
 10
920.9327053767437
 20
15.846977943208
 30
0.0
  0
SPLINE
  5
EC
330
1F
100
AcDbEntity
  8
0
  6
Continuous
 62
     7
370
    25
100
AcDbSpline
210
0.0
220
0.0
230
1.0
 70
     8
 71
     3
 72
     9
 73
     5
 74
     0
 42
0.00000001
 43
0.00000001
 40
0.0
 40
0.0
 40
0.0
 40
0.0
 40
0.5047649745423515
 40
1.0
 40
1.0
 40
1.0
 40
1.0
 10
920.9327053767437
 20
15.846977943208
 30
0.0
 10
920.9317043718918
 20
15.91722186918426
 30
0.0
 10
920.9156457535885
 20
16.05822525723166
 30
0.0
 10
920.8515689012897
 20
16.18487640396366
 30
0.0
 10
920.8135146716155
 20
16.24241063551568
 30
0.0
  0
SPLINE
  5
ED
330
1F
100
AcDbEntity
  8
0
  6
Continuous
 62
     7
370
    25
100
AcDbSpline
210
0.0
220
0.0
230
1.0
 70
     8
 71
     3
 72
    13
 73
     9
 74
     0
 42
0.00000001
 43
0.00000001
 40
0.0
 40
0.0
 40
0.0
 40
0.0
 40
0.1954188198467802
 40
0.3058478904170387
 40
0.4251239275883484
 40
0.5537868414038682
 40
0.6928854083944351
 40
1.0
 40
1.0
 40
1.0
 40
1.0
 10
920.8135146716155
 20
16.24241063551568
 30
0.0
 10
920.7913500390354
 20
16.27370697929253
 30
0.0
 10
920.7522141729931
 20
16.31951574101564
 30
0.0
 10
920.6905186559339
 20
16.37571802646526
 30
0.0
 10
920.6366000756115
 20
16.4208882767794
 30
0.0
 10
920.5751351500879
 20
16.46554556371554
 30
0.0
 10
920.4814508640925
 20
16.52837657630857
 30
0.0
 10
920.4055975811093
 20
16.57225484547225
 30
0.0
 10
920.3528776523847
 20
16.60138499449004
 30
0.0
  0
SPLINE
  5
EE
330
1F
100
AcDbEntity
  8
0
  6
Continuous
 62
     7
370
    25
100
AcDbSpline
210
0.0
220
0.0
230
1.0
 70
     8
 71
     3
 72
    13
 73
     9
 74
     0
 42
0.00000001
 43
0.00000001
 40
0.0
 40
0.0
 40
0.0
 40
0.0
 40
0.3238790058012838
 40
0.4664315196199198
 40
0.5977832531928434
 40
0.716017640049543
 40
0.8224401785340065
 40
1.0
 40
1.0
 40
1.0
 40
1.0
 10
920.3528776523847
 20
16.60138499449004
 30
0.0
 10
920.3094555648573
 20
16.6239961259807
 30
0.0
 10
920.2492630178194
 20
16.66058353325761
 30
0.0
 10
920.1724162998676
 20
16.70799476083979
 30
0.0
 10
920.1236479874476
 20
16.74160466394153
 30
0.0
 10
920.0803614381882
 20
16.77357357659337
 30
0.0
 10
920.0347847550169
 20
16.81375728031675
 30
0.0
 10
920.0035757074168
 20
16.84329230079729
 30
0.0
 10
919.9875931972565
 20
16.86500678936181
 30
0.0
  0
SPLINE
  5
EF
330
1F
100
AcDbEntity
  8
0
  6
Continuous
 62
     7
370
    25
100
AcDbSpline
210
0.0
220
0.0
230
1.0
 70
     8
 71
     3
 72
     9
 73
     5
 74
     0
 42
0.00000001
 43
0.00000001
 40
0.0
 40
0.0
 40
0.0
 40
0.0
 40
0.5205968063940213
 40
1.0
 40
1.0
 40
1.0
 40
1.0
 10
919.9875931972565
 20
16.86500678936181
 30
0.0
 10
919.960903008396
 20
16.89953584131643
 30
0.0
 10
919.9164157543523
 20
16.9725687299685
 30
0.0
 10
919.9007296105366
 20
17.05671257031688
 30
0.0
 10
919.9006540946924
 20
17.09707810346439
 30
0.0
  0
SPLINE
  5
F0
330
1F
100
AcDbEntity
  8
0
  6
Continuous
 62
     7
370
    25
100
AcDbSpline
210
0.0
220
0.0
230
1.0
 70
     8
 71
     3
 72
    13
 73
     9
 74
     0
 42
0.00000001
 43
0.00000001
 40
0.0
 40
0.0
 40
0.0
 40
0.0
 40
0.2489716711489731
 40
0.371496133633368
 40
0.5014891588227015
 40
0.630833970413922
 40
0.7540993713936528
 40
1.0
 40
1.0
 40
1.0
 40
1.0
 10
919.9006540946924
 20
17.09707810346439
 30
0.0
 10
919.9007775868776
 20
17.14102275561208
 30
0.0
 10
919.9126100018196
 20
17.20702777558619
 30
0.0
 10
919.9542975672503
 20
17.28588163531336
 30
0.0
 10
919.996734671975
 20
17.33866217927604
 30
0.0
 10
920.0469069792573
 20
17.38456412751405
 30
0.0
 10
920.1242296273942
 20
17.42813064581761
 30
0.0
 10
920.1893360475663
 20
17.44222364792664
 30
0.0
 10
920.2329858254617
 20
17.44132890474642
 30
0.0
  0
SPLINE
  5
F1
330
1F
100
AcDbEntity
  8
0
  6
Continuous
 62
     7
370
    25
100
AcDbSpline
210
0.0
220
0.0
230
1.0
 70
     8
 71
     3
 72
    13
 73
     9
 74
     0
 42
0.00000001
 43
0.00000001
 40
0.0
 40
0.0
 40
0.0
 40
0.0
 40
0.2066658703703788
 40
0.3164748855849829
 40
0.4340367728953333
 40
0.5586910361120339
 40
0.6949644946417399
 40
1.0
 40
1.0
 40
1.0
 40
1.0
 10
920.2329858254616
 20
17.44132890474642
 30
0.0
 10
920.2698006991614
 20
17.44129613893397
 30
0.0
 10
920.3260212108963
 20
17.43218803652613
 30
0.0
 10
920.3980841189261
 20
17.40394240963378
 30
0.0
 10
920.4535455392427
 20
17.37453785912896
 30
0.0
 10
920.5085841628392
 20
17.33556604025255
 30
0.0
 10
920.5864062377474
 20
17.27157138965657
 30
0.0
 10
920.6398752353904
 20
17.21362716192976
 30
0.0
 10
920.6746925562309
 20
17.17209813551568
 30
0.0
  0
SPLINE
  5
F3
330
1F
100
AcDbEntity
  8
0
  6
Continuous
 62
     7
370
    25
100
AcDbSpline
210
0.0
220
0.0
230
1.0
 70
     8
 71
     3
 72
    13
 73
     9
 74
     0
 42
0.00000001
 43
0.00000001
 40
0.0
 40
0.0
 40
0.0
 40
0.0
 40
0.2972877955187747
 40
0.4309389201448538
 40
0.5555483284431699
 40
0.6738732699265098
 40
0.7865883873610602
 40
1.0
 40
1.0
 40
1.0
 40
1.0
 10
920.8878335818719
 20
17.39154925731057
 30
0.0
 10
920.8372255250636
 20
17.44884382547279
 30
0.0
 10
920.7572828803785
 20
17.52605904300242
 30
0.0
 10
920.6437761931152
 20
17.61293674641773
 30
0.0
 10
920.5619877424791
 20
17.66503852294771
 30
0.0
 10
920.4796589869765
 20
17.70521644600642
 30
0.0
 10
920.3717638772109
 20
17.74368701205853
 30
0.0
 10
920.2878811175141
 20
17.75537828032381
 30
0.0
 10
920.2329858254617
 20
17.755431468849
 30
0.0
  0
SPLINE
  5
F4
330
1F
100
AcDbEntity
  8
0
  6
Continuous
 62
     7
370
    25
100
AcDbSpline
210
0.0
220
0.0
230
1.0
 70
     8
 71
     3
 72
    21
 73
    17
 74
     0
 42
0.00000001
 43
0.00000001
 40
0.0
 40
0.0
 40
0.0
 40
0.0
 40
0.1291156642467618
 40
0.1906142170369299
 40
0.2512349941101595
 40
0.3110899094595514
 40
0.3711861458444907
 40
0.43211947994139
 40
0.4949206964951557
 40
0.5573643976838026
 40
0.6191271459504197
 40
0.6802716623934746
 40
0.7413865832314339
 40
0.8034925619466107
 40
0.8669564647560922
 40
1.0
 40
1.0
 40
1.0
 40
1.0
 10
920.2329858254616
 20
17.755431468849
 30
0.0
 10
920.1880727638475
 20
17.75596603218565
 30
0.0
 10
920.121827281375
 20
17.7497368609496
 30
0.0
 10
920.0366502770856
 20
17.72999373905731
 30
0.0
 10
919.9768295762559
 20
17.7090190281467
 30
0.0
 10
919.9204212170789
 20
17.6812468375932
 30
0.0
 10
919.866882943072
 20
17.64814237062795
 30
0.0
 10
919.8159881827324
 20
17.60934322658758
 30
0.0
 10
919.7688815171001
 20
17.56483404079284
 30
0.0
 10
919.7260382978961
 20
17.51583087968039
 30
0.0
 10
919.6888506107974
 20
17.46309493731613
 30
0.0
 10
919.6572056719775
 20
17.40743759082364
 30
0.0
 10
919.6307190507332
 20
17.34893502133444
 30
0.0
 10
919.611677938688
 20
17.28680997635912
 30
0.0
 10
919.5909967698524
 20
17.19923509118798
 30
0.0
 10
919.5868683194582
 20
17.13060022415463
 30
0.0
 10
919.5865515305899
 20
17.0844579111567
 30
0.0
  0
SPLINE
  5
F5
330
1F
100
AcDbEntity
  8
0
  6
Continuous
 62
     7
370
    25
100
AcDbSpline
210
0.0
220
0.0
230
1.0
 70
     8
 71
     3
 72
     9
 73
     5
 74
     0
 42
0.00000001
 43
0.00000001
 40
0.0
 40
0.0
 40
0.0
 40
0.0
 40
0.5074092035235833
 40
1.0
 40
1.0
 40
1.0
 40
1.0
 10
917.7019361459745
 20
17.0844579111567
 30
0.0
 10
917.7006643725637
 20
17.01373883623225
 30
0.0
 10
917.7213808515096
 20
16.87472074408786
 30
0.0
 10
917.779754715072
 20
16.74682225609553
 30
0.0
 10
917.819023485718
 20
16.69042746243876
 30
0.0
  0
SPLINE
  5
F6
330
1F
100
AcDbEntity
  8
0
  6
Continuous
 62
     7
370
    25
100
AcDbSpline
210
0.0
220
0.0
230
1.0
 70
     8
 71
     3
 72
    13
 73
     9
 74
     0
 42
0.00000001
 43
0.00000001
 40
0.0
 40
0.0
 40
0.0
 40
0.0
 40
0.197704293009079
 40
0.3078458435568135
 40
0.4271756375984298
 40
0.5562245009992259
 40
0.6940497867915496
 40
1.0
 40
1.0
 40
1.0
 40
1.0
 10
917.819023485718
 20
16.69042746243876
 30
0.0
 10
917.8399625653772
 20
16.65936020327729
 30
0.0
 10
917.8782216776116
 20
16.61530334323552
 30
0.0
 10
917.9361354045594
 20
16.55893795936009
 30
0.0
 10
917.9882676416446
 20
16.51549439940042
 30
0.0
 10
918.0473780891163
 20
16.47259181139776
 30
0.0
 10
918.1364482379705
 20
16.41092293654139
 30
0.0
 10
918.2094348781169
 20
16.36923588942474
 30
0.0
 10
918.2600290946924
 20
16.3412688085926
 30
0.0
  0
SPLINE
  5
F7
330
1F
100
AcDbEntity
  8
0
  6
Continuous
 62
     7
370
    25
100
AcDbSpline
210
0.0
220
0.0
230
1.0
 70
     8
 71
     3
 72
    13
 73
     9
 74
     0
 42
0.00000001
 43
0.00000001
 40
0.0
 40
0.0
 40
0.0
 40
0.0
 40
0.3337367066248621
 40
0.4791986316519813
 40
0.6104491594873718
 40
0.7277299767534031
 40
0.8325383242741483
 40
1.0
 40
1.0
 40
1.0
 40
1.0
 10
918.2600290946924
 20
16.3412688085926
 30
0.0
 10
918.3063989871727
 20
16.316811806039
 30
0.0
 10
918.3720244056451
 20
16.27995702045204
 30
0.0
 10
918.4546805857395
 20
16.23135213038463
 30
0.0
 10
918.5066800344774
 20
16.1977654138149
 30
0.0
 10
918.5517971678859
 20
16.16541180821496
 30
0.0
 10
918.5997030055238
 20
16.1273223925249
 30
0.0
 10
918.6309024499445
 20
16.09791424303292
 30
0.0
 10
918.6477494472566
 20
16.07764701372083
 30
0.0
  0
SPLINE
  5
F8
330
1F
100
AcDbEntity
  8
0
  6
Continuous
 62
     7
370
    25
100
AcDbSpline
210
0.0
220
0.0
230
1.0
 70
     8
 71
     3
 72
     9
 73
     5
 74
     0
 42
0.00000001
 43
0.00000001
 40
0.0
 40
0.0
 40
0.0
 40
0.0
 40
0.4995466848970542
 40
1.0
 40
1.0
 40
1.0
 40
1.0
 10
918.6477494472566
 20
16.07764701372083
 30
0.0
 10
918.6756389691049
 20
16.04369630450914
 30
0.0
 10
918.7198285428092
 20
15.96591648650308
 30
0.0
 10
918.7338200771379
 20
15.87762624749095
 30
0.0
 10
918.7339874280258
 20
15.83365662910541
 30
0.0
  0
SPLINE
  5
F9
330
1F
100
AcDbEntity
  8
0
  6
Continuous
 62
     7
370
    25
100
AcDbSpline
210
0.0
220
0.0
230
1.0
 70
     8
 71
     3
 72
    13
 73
     9
 74
     0
 42
0.00000001
 43
0.00000001
 40
0.0
 40
0.0
 40
0.0
 40
0.0
 40
0.235281736943234
 40
0.3554913463217546
 40
0.4823137941791731
 40
0.6121639553088808
 40
0.7381043263491953
 40
1.0
 40
1.0
 40
1.0
 40
1.0
 10
918.7339874280258
 20
15.83365662910541
 30
0.0
 10
918.7343186830084
 20
15.78043806806728
 30
0.0
 10
918.7172019090021
 20
15.69995909946909
 30
0.0
 10
918.661065218622
 20
15.60563779253282
 30
0.0
 10
918.6032420599076
 20
15.54266553482064
 30
0.0
 10
918.5351973471288
 20
15.48864568801944
 30
0.0
 10
918.4294928477149
 20
15.43687293290547
 30
0.0
 10
918.3416731999116
 20
15.42158570558588
 30
0.0
 10
918.2824649921283
 20
15.42209813551571
 30
0.0
  0
SPLINE
  5
FA
330
1F
100
AcDbEntity
  8
0
  6
Continuous
 62
     7
370
    25
100
AcDbSpline
210
0.0
220
0.0
230
1.0
 70
     8
 71
     3
 72
    13
 73
     9
 74
     0
 42
0.00000001
 43
0.00000001
 40
0.0
 40
0.0
 40
0.0
 40
0.0
 40
0.22499390168399
 40
0.3407622816196348
 40
0.4594992564133945
 40
0.5828283517555515
 40
0.7140958284555545
 40
1.0
 40
1.0
 40
1.0
 40
1.0
 10
918.2824649921284
 20
15.42209813551571
 30
0.0
 10
918.2380088098415
 20
15.42188294853081
 30
0.0
 10
918.1708564933289
 20
15.43094539127959
 30
0.0
 10
918.0843947581174
 20
15.4588626681092
 30
0.0
 10
918.0201709831351
 20
15.48859498389943
 30
0.0
 10
917.9573480567095
 20
15.52725842228087
 30
0.0
 10
917.8714971993514
 20
15.59074431875113
 30
0.0
 10
917.8132038552232
 20
15.6494338100886
 30
0.0
 10
917.775553934436
 20
15.69132890474645
 30
0.0
  0
SPLINE
  5
FC
330
1F
100
AcDbEntity
  8
0
  6
Continuous
 62
     7
370
    25
100
AcDbSpline
210
0.0
220
0.0
230
1.0
 70
     8
 71
     3
 72
    13
 73
     9
 74
     0
 42
0.00000001
 43
0.00000001
 40
0.0
 40
0.0
 40
0.0
 40
0.0
 40
0.2445989327970484
 40
0.3685417614065677
 40
0.4953064507483645
 40
0.6227813119738073
 40
0.7482760387504066
 40
1.0
 40
1.0
 40
1.0
 40
1.0
 10
917.5673207613589
 20
15.4543497380798
 30
0.0
 10
917.6095885524275
 20
15.4007508359611
 30
0.0
 10
917.6829319357728
 20
15.32774846019819
 30
0.0
 10
917.7961727975721
 20
15.24815680258368
 30
0.0
 10
917.8891778217521
 20
15.1979589187366
 30
0.0
 10
917.9875728174973
 20
15.15830533044282
 30
0.0
 10
918.1231319547286
 20
15.11958829277443
 30
0.0
 10
918.2283307837977
 20
15.10746255205336
 30
0.0
 10
918.2985907934103
 20
15.10799557141312
 30
0.0
  0
SPLINE
  5
FD
330
1F
100
AcDbEntity
  8
0
  6
Continuous
 62
     7
370
    25
100
AcDbSpline
210
0.0
220
0.0
230
1.0
 70
     8
 71
     3
 72
    21
 73
    17
 74
     0
 42
0.00000001
 43
0.00000001
 40
0.0
 40
0.0
 40
0.0
 40
0.0
 40
0.1313602991794606
 40
0.1945015164287754
 40
0.2564315180678532
 40
0.3176028927083412
 40
0.3786284196027297
 40
0.4404806721564622
 40
0.5042957142746882
 40
0.5681107563928997
 40
0.6299630089466461
 40
0.6904753005359336
 40
0.7513604849059745
 40
0.8114026619125837
 40
0.8728008672444953
 40
1.0
 40
1.0
 40
1.0
 40
1.0
 10
918.2985907934103
 20
15.10799557141312
 30
0.0
 10
918.3499802795925
 20
15.10834566996638
 30
0.0
 10
918.4262747780069
 20
15.11408507955164
 30
0.0
 10
918.5242669805302
 20
15.13673657483017
 30
0.0
 10
918.5932298581491
 20
15.16078491096601
 30
0.0
 10
918.6587568632231
 20
15.19105549322025
 30
0.0
 10
918.7209956412025
 20
15.22762843273601
 30
0.0
 10
918.7795017873342
 20
15.27165276778131
 30
0.0
 10
918.8343473045774
 20
15.32173841126477
 30
0.0
 10
918.8844385794837
 20
15.37657739264969
 30
0.0
 10
918.9283138569236
 20
15.43495334224648
 30
0.0
 10
918.96486032305
 20
15.49678949793443
 30
0.0
 10
918.9960496486665
 20
15.56074879131847
 30
0.0
 10
919.0191250016804
 20
15.62844275990366
 30
0.0
 10
919.0421200684538
 20
15.72317546529106
 30
0.0
 10
919.04761808986
 20
15.79725000041377
 30
0.0
 10
919.0480899921283
 20
15.846977943208
 30
0.0
  0
SPLINE
  5
FE
330
1F
100
AcDbEntity
  8
0
  6
Continuous
 62
     7
370
    25
100
AcDbSpline
210
0.0
220
0.0
230
1.0
 70
     8
 71
     3
 72
     9
 73
     5
 74
     0
 42
0.00000001
 43
0.00000001
 40
0.0
 40
0.0
 40
0.0
 40
0.0
 40
0.5047649745423515
 40
1.0
 40
1.0
 40
1.0
 40
1.0
 10
919.0480899921283
 20
15.846977943208
 30
0.0
 10
919.0470889872764
 20
15.91722186918421
 30
0.0
 10
919.0310303689733
 20
16.05822525723166
 30
0.0
 10
918.9669535166743
 20
16.18487640396366
 30
0.0
 10
918.9288992870001
 20
16.24241063551568
 30
0.0
  0
SPLINE
  5
FF
330
1F
100
AcDbEntity
  8
0
  6
Continuous
 62
     7
370
    25
100
AcDbSpline
210
0.0
220
0.0
230
1.0
 70
     8
 71
     3
 72
    13
 73
     9
 74
     0
 42
0.00000001
 43
0.00000001
 40
0.0
 40
0.0
 40
0.0
 40
0.0
 40
0.1954188198467802
 40
0.3058478904170387
 40
0.4251239275883484
 40
0.5537868414038682
 40
0.6928854083944351
 40
1.0
 40
1.0
 40
1.0
 40
1.0
 10
918.9288992870001
 20
16.24241063551568
 30
0.0
 10
918.9067346544202
 20
16.27370697929253
 30
0.0
 10
918.8675987883779
 20
16.31951574101564
 30
0.0
 10
918.8059032713185
 20
16.37571802646526
 30
0.0
 10
918.751984690996
 20
16.4208882767794
 30
0.0
 10
918.6905197654726
 20
16.46554556371554
 30
0.0
 10
918.596835479477
 20
16.52837657630857
 30
0.0
 10
918.5209821964941
 20
16.57225484547225
 30
0.0
 10
918.4682622677693
 20
16.60138499449004
 30
0.0
  0
SPLINE
  5
100
330
1F
100
AcDbEntity
  8
0
  6
Continuous
 62
     7
370
    25
100
AcDbSpline
210
0.0
220
0.0
230
1.0
 70
     8
 71
     3
 72
    13
 73
     9
 74
     0
 42
0.00000001
 43
0.00000001
 40
0.0
 40
0.0
 40
0.0
 40
0.0
 40
0.3238790058012838
 40
0.4664315196199198
 40
0.5977832531928434
 40
0.716017640049543
 40
0.8224401785340065
 40
1.0
 40
1.0
 40
1.0
 40
1.0
 10
918.4682622677693
 20
16.60138499449004
 30
0.0
 10
918.424840180242
 20
16.6239961259807
 30
0.0
 10
918.3646476332038
 20
16.66058353325761
 30
0.0
 10
918.2878009152524
 20
16.70799476083979
 30
0.0
 10
918.2390326028318
 20
16.74160466394153
 30
0.0
 10
918.1957460535731
 20
16.77357357659337
 30
0.0
 10
918.1501693704014
 20
16.81375728031675
 30
0.0
 10
918.1189603228014
 20
16.84329230079729
 30
0.0
 10
918.1029778126411
 20
16.86500678936181
 30
0.0
  0
SPLINE
  5
101
330
1F
100
AcDbEntity
  8
0
  6
Continuous
 62
     7
370
    25
100
AcDbSpline
210
0.0
220
0.0
230
1.0
 70
     8
 71
     3
 72
     9
 73
     5
 74
     0
 42
0.00000001
 43
0.00000001
 40
0.0
 40
0.0
 40
0.0
 40
0.0
 40
0.5205968063940213
 40
1.0
 40
1.0
 40
1.0
 40
1.0
 10
918.1029778126411
 20
16.86500678936181
 30
0.0
 10
918.0762876237806
 20
16.89953584131643
 30
0.0
 10
918.0318003697371
 20
16.9725687299685
 30
0.0
 10
918.0161142259211
 20
17.05671257031688
 30
0.0
 10
918.016038710077
 20
17.09707810346439
 30
0.0
  0
SPLINE
  5
102
330
1F
100
AcDbEntity
  8
0
  6
Continuous
 62
     7
370
    25
100
AcDbSpline
210
0.0
220
0.0
230
1.0
 70
     8
 71
     3
 72
    13
 73
     9
 74
     0
 42
0.00000001
 43
0.00000001
 40
0.0
 40
0.0
 40
0.0
 40
0.0
 40
0.2489716711489731
 40
0.371496133633368
 40
0.5014891588227015
 40
0.630833970413922
 40
0.7540993713936528
 40
1.0
 40
1.0
 40
1.0
 40
1.0
 10
918.016038710077
 20
17.09707810346439
 30
0.0
 10
918.0161622022619
 20
17.14102275561208
 30
0.0
 10
918.0279946172045
 20
17.20702777558619
 30
0.0
 10
918.0696821826348
 20
17.28588163531336
 30
0.0
 10
918.1121192873597
 20
17.33866217927604
 30
0.0
 10
918.1622915946418
 20
17.38456412751405
 30
0.0
 10
918.2396142427791
 20
17.42813064581766
 30
0.0
 10
918.3047206629504
 20
17.44222364792664
 30
0.0
 10
918.3483704408462
 20
17.44132890474642
 30
0.0
  0
SPLINE
  5
103
330
1F
100
AcDbEntity
  8
0
  6
Continuous
 62
     7
370
    25
100
AcDbSpline
210
0.0
220
0.0
230
1.0
 70
     8
 71
     3
 72
    13
 73
     9
 74
     0
 42
0.00000001
 43
0.00000001
 40
0.0
 40
0.0
 40
0.0
 40
0.0
 40
0.2066658703703788
 40
0.3164748855849829
 40
0.4340367728953333
 40
0.5586910361120339
 40
0.6949644946417399
 40
1.0
 40
1.0
 40
1.0
 40
1.0
 10
918.3483704408461
 20
17.44132890474642
 30
0.0
 10
918.3851853145459
 20
17.44129613893397
 30
0.0
 10
918.441405826281
 20
17.43218803652613
 30
0.0
 10
918.5134687343107
 20
17.40394240963378
 30
0.0
 10
918.5689301546274
 20
17.37453785912896
 30
0.0
 10
918.6239687782239
 20
17.33556604025255
 30
0.0
 10
918.7017908531318
 20
17.27157138965657
 30
0.0
 10
918.7552598507754
 20
17.21362716192976
 30
0.0
 10
918.7900771716155
 20
17.17209813551568
 30
0.0
  0
SPLINE
  5
105
330
1F
100
AcDbEntity
  8
0
  6
Continuous
 62
     7
370
    25
100
AcDbSpline
210
0.0
220
0.0
230
1.0
 70
     8
 71
     3
 72
    13
 73
     9
 74
     0
 42
0.00000001
 43
0.00000001
 40
0.0
 40
0.0
 40
0.0
 40
0.0
 40
0.2972877955187747
 40
0.4309389201448538
 40
0.5555483284431699
 40
0.6738732699265098
 40
0.7865883873610602
 40
1.0
 40
1.0
 40
1.0
 40
1.0
 10
919.0032181972565
 20
17.39154925731057
 30
0.0
 10
918.9526101404482
 20
17.44884382547279
 30
0.0
 10
918.8726674957633
 20
17.52605904300242
 30
0.0
 10
918.7591608084998
 20
17.61293674641773
 30
0.0
 10
918.6773723578634
 20
17.66503852294771
 30
0.0
 10
918.5950436023612
 20
17.70521644600642
 30
0.0
 10
918.4871484925953
 20
17.74368701205853
 30
0.0
 10
918.4032657328988
 20
17.75537828032381
 30
0.0
 10
918.3483704408462
 20
17.755431468849
 30
0.0
  0
SPLINE
  5
106
330
1F
100
AcDbEntity
  8
0
  6
Continuous
 62
     7
370
    25
100
AcDbSpline
210
0.0
220
0.0
230
1.0
 70
     8
 71
     3
 72
    21
 73
    17
 74
     0
 42
0.00000001
 43
0.00000001
 40
0.0
 40
0.0
 40
0.0
 40
0.0
 40
0.1291156642467618
 40
0.1906142170369299
 40
0.2512349941101595
 40
0.3110899094595514
 40
0.3711861458444907
 40
0.43211947994139
 40
0.4949206964951557
 40
0.5573643976838026
 40
0.6191271459504197
 40
0.6802716623934746
 40
0.7413865832314339
 40
0.8034925619466107
 40
0.8669564647560922
 40
1.0
 40
1.0
 40
1.0
 40
1.0
 10
918.3483704408461
 20
17.755431468849
 30
0.0
 10
918.3034573792321
 20
17.75596603218565
 30
0.0
 10
918.2372118967596
 20
17.7497368609496
 30
0.0
 10
918.1520348924702
 20
17.72999373905731
 30
0.0
 10
918.0922141916407
 20
17.7090190281467
 30
0.0
 10
918.0358058324636
 20
17.6812468375932
 30
0.0
 10
917.9822675584567
 20
17.64814237062795
 30
0.0
 10
917.9313727981171
 20
17.60934322658758
 30
0.0
 10
917.8842661324846
 20
17.56483404079284
 30
0.0
 10
917.8414229132809
 20
17.51583087968039
 30
0.0
 10
917.8042352261821
 20
17.46309493731613
 30
0.0
 10
917.7725902873623
 20
17.40743759082364
 30
0.0
 10
917.7461036661181
 20
17.34893502133444
 30
0.0
 10
917.7270625540725
 20
17.28680997635912
 30
0.0
 10
917.7063813852368
 20
17.19923509118798
 30
0.0
 10
917.7022529348429
 20
17.13060022415463
 30
0.0
 10
917.7019361459745
 20
17.0844579111567
 30
0.0
  0
SPLINE
  5
108
330
1F
100
AcDbEntity
  8
0
  6
Continuous
 62
     7
370
    25
100
AcDbSpline
210
0.0
220
0.0
230
1.0
 70
     8
 71
     3
 72
    13
 73
     9
 74
     0
 42
0.00000001
 43
0.00000001
 40
0.0
 40
0.0
 40
0.0
 40
0.0
 40
0.2703816178319616
 40
0.3984601291783004
 40
0.5227503451014437
 40
0.6438255660090793
 40
0.7637452368382587
 40
1.0
 40
1.0
 40
1.0
 40
1.0
 10
917.163474607513
 20
16.36440582782339
 30
0.0
 10
917.1618851428586
 20
16.44966546930676
 30
0.0
 10
917.1545241093569
 20
16.57564780866594
 30
0.0
 10
917.1239226259319
 20
16.73800392711588
 30
0.0
 10
917.0929124928717
 20
16.85183027775089
 30
0.0
 10
917.0545357152023
 20
16.96071201154387
 30
0.0
 10
916.9909249472083
 20
17.09749803343452
 30
0.0
 10
916.9310159068218
 20
17.19313719678178
 30
0.0
 10
916.885129254949
 20
17.25202602013104
 30
0.0
  0
SPLINE
  5
109
330
1F
100
AcDbEntity
  8
0
  6
Continuous
 62
     7
370
    25
100
AcDbSpline
210
0.0
220
0.0
230
1.0
 70
     8
 71
     3
 72
    13
 73
     9
 74
     0
 42
0.00000001
 43
0.00000001
 40
0.0
 40
0.0
 40
0.0
 40
0.0
 40
0.255257368140996
 40
0.3772478104725325
 40
0.4977415562850401
 40
0.6181201760750441
 40
0.7409671592206357
 40
1.0
 40
1.0
 40
1.0
 40
1.0
 10
916.8851292549491
 20
17.25202602013109
 30
0.0
 10
916.8237421112559
 20
17.33268613273031
 30
0.0
 10
916.7202991971172
 20
17.4423258231522
 30
0.0
 10
916.5620240213252
 20
17.56139660845352
 30
0.0
 10
916.4363545097497
 20
17.63260835516117
 30
0.0
 10
916.302510164243
 20
17.68769398665049
 30
0.0
 10
916.1099171010906
 20
17.74098323680984
 30
0.0
 10
915.9580088403625
 20
17.75586344243052
 30
0.0
 10
915.8551813382824
 20
17.755431468849
 30
0.0
  0
SPLINE
  5
10A
330
1F
100
AcDbEntity
  8
0
  6
Continuous
 62
     7
370
    25
100
AcDbSpline
210
0.0
220
0.0
230
1.0
 70
     8
 71
     3
 72
    13
 73
     9
 74
     0
 42
0.00000001
 43
0.00000001
 40
0.0
 40
0.0
 40
0.0
 40
0.0
 40
0.2602406645595056
 40
0.3836752253642184
 40
0.5046599577622765
 40
0.6253567426858504
 40
0.7464106650135791
 40
1.0
 40
1.0
 40
1.0
 40
1.0
 10
915.8551813382824
 20
17.755431468849
 30
0.0
 10
915.7557251271656
 20
17.75423288866257
 30
0.0
 10
915.6078493301899
 20
17.74320403780333
 30
0.0
 10
915.421303304219
 20
17.69070963491498
 30
0.0
 10
915.2909618694954
 20
17.6390771051988
 30
0.0
 10
915.1693848464637
 20
17.57103755983414
 30
0.0
 10
915.0147226944846
 20
17.46027503285885
 30
0.0
 10
914.9159547190784
 20
17.35439319748894
 30
0.0
 10
914.8553816587952
 20
17.27866864833621
 30
0.0
  0
SPLINE
  5
10B
330
1F
100
AcDbEntity
  8
0
  6
Continuous
 62
     7
370
    25
100
AcDbSpline
210
0.0
220
0.0
230
1.0
 70
     8
 71
     3
 72
    13
 73
     9
 74
     0
 42
0.00000001
 43
0.00000001
 40
0.0
 40
0.0
 40
0.0
 40
0.0
 40
0.2534216680665267
 40
0.3767041167575467
 40
0.4994491585174913
 40
0.6225715734186964
 40
0.7462320999755214
 40
1.0
 40
1.0
 40
1.0
 40
1.0
 10
914.8553816587952
 20
17.27866864833621
 30
0.0
 10
914.8078303963005
 20
17.2171768245109
 30
0.0
 10
914.7426665635721
 20
17.12110755323043
 30
0.0
 10
914.6744937872152
 20
16.98359651699877
 30
0.0
 10
914.6329146854945
 20
16.87805626728078
 30
0.0
 10
914.6007672527677
 20
16.76916857546534
 30
0.0
 10
914.5691398732101
 20
16.61862486450616
 30
0.0
 10
914.5618637931541
 20
16.50249600434145
 30
0.0
 10
914.560910504949
 20
16.42470230218235
 30
0.0
  0
SPLINE
  5
10C
330
1F
100
AcDbEntity
  8
0
  6
Continuous
 62
     7
370
    25
100
AcDbSpline
210
0.0
220
0.0
230
1.0
 70
     8
 71
     3
 72
    21
 73
    17
 74
     0
 42
0.00000001
 43
0.00000001
 40
0.0
 40
0.0
 40
0.0
 40
0.0
 40
0.1210804245006118
 40
0.1800682782218559
 40
0.2391896643238557
 40
0.2987059533012315
 40
0.3588810785072302
 40
0.4203687292950608
 40
0.4834483096802262
 40
0.5465664849029384
 40
0.6086986022254208
 40
0.6701862530132481
 40
0.7318650366033053
 40
0.7952033026033165
 40
0.8603707753071413
 40
1.0
 40
1.0
 40
1.0
 40
1.0
 10
914.560910504949
 20
16.42470230218235
 30
0.0
 10
914.5618252321864
 20
16.34167966183237
 30
0.0
 10
914.5706048564857
 20
16.21782785484444
 30
0.0
 10
914.6066861407585
 20
16.05738071061491
 30
0.0
 10
914.6450615376723
 20
15.94151833513085
 30
0.0
 10
914.6926221175194
 20
15.82824740141919
 30
0.0
 10
914.7510773762186
 20
15.71828428521876
 30
0.0
 10
914.8210037954059
 20
15.61232838393922
 30
0.0
 10
914.900247514421
 20
15.51064638096661
 30
0.0
 10
914.9882717599448
 20
15.41563013764385
 30
0.0
 10
915.0870913047517
 20
15.33349714198362
 30
0.0
 10
915.193592049448
 20
15.26354039353434
 30
0.0
 10
915.3083347279506
 20
15.20610276644607
 30
0.0
 10
915.4315447801745
 20
15.16217709265943
 30
0.0
 10
915.6107766232058
 20
15.11903073735588
 30
0.0
 10
915.7516983185449
 20
15.10803445431452
 30
0.0
 10
915.8474689985387
 20
15.10799557141312
 30
0.0
  0
SPLINE
  5
10D
330
1F
100
AcDbEntity
  8
0
  6
Continuous
 62
     7
370
    25
100
AcDbSpline
210
0.0
220
0.0
230
1.0
 70
     8
 71
     3
 72
    17
 73
    13
 74
     0
 42
0.00000001
 43
0.00000001
 40
0.0
 40
0.0
 40
0.0
 40
0.0
 40
0.1781058515637828
 40
0.2613277635121513
 40
0.3415565694705521
 40
0.4200079090126521
 40
0.4980968161626232
 40
0.5754001382821232
 40
0.6536452159657117
 40
0.7341257729573898
 40
0.8183392339289949
 40
1.0
 40
1.0
 40
1.0
 40
1.0
 10
915.8474689985387
 20
15.10799557141312
 30
0.0
 10
915.9337627902966
 20
15.10800673158752
 30
0.0
 10
916.0606392720665
 20
15.11666095261926
 30
0.0
 10
916.2230225446426
 20
15.14998665074663
 30
0.0
 10
916.3353211941844
 20
15.18436488552383
 30
0.0
 10
916.4411710106114
 20
15.22912557722128
 30
0.0
 10
916.5414603261265
 20
15.28224165924702
 30
0.0
 10
916.6361909131382
 20
15.34458117622217
 30
0.0
 10
916.7258685191665
 20
15.41582812569742
 30
0.0
 10
916.8109415119086
 20
15.49757454387907
 30
0.0
 10
916.9178873960162
 20
15.62733669859989
 30
0.0
 10
916.9873583867768
 20
15.73633258432289
 30
0.0
 10
917.0288592228977
 20
15.814025218849
 30
0.0
  0
SPLINE
  5
10F
330
1F
100
AcDbEntity
  8
0
  6
Continuous
 62
     7
370
    25
100
AcDbSpline
210
0.0
220
0.0
230
1.0
 70
     8
 71
     3
 72
    17
 73
    13
 74
     0
 42
0.00000001
 43
0.00000001
 40
0.0
 40
0.0
 40
0.0
 40
0.0
 40
0.207935033903354
 40
0.294693971567899
 40
0.3697315241424306
 40
0.4408309438027249
 40
0.5142509140460778
 40
0.5913900390896493
 40
0.672274304645849
 40
0.7543412603705404
 40
0.8361211059014766
 40
1.0
 40
1.0
 40
1.0
 40
1.0
 10
916.7498127485387
 20
15.96055967397719
 30
0.0
 10
916.7072880225361
 20
15.89401219007425
 30
0.0
 10
916.6401722528659
 20
15.80438172462273
 30
0.0
 10
916.546674463865
 20
15.69956279299362
 30
0.0
 10
916.4806226240315
 20
15.64054146786042
 30
0.0
 10
916.4125010051432
 20
15.59233511009167
 30
0.0
 10
916.3396220611578
 20
15.55018396802893
 30
0.0
 10
916.2603761628271
 20
15.51208345554361
 30
0.0
 10
916.1748053510757
 20
15.48049822485709
 30
0.0
 10
916.0855446078123
 20
15.45463994806651
 30
0.0
 10
915.9636963143396
 20
15.42912036604027
 30
0.0
 10
915.870400081966
 20
15.42179730476651
 30
0.0
 10
915.8082061780259
 20
15.42209813551571
 30
0.0
  0
SPLINE
  5
110
330
1F
100
AcDbEntity
  8
0
  6
Continuous
 62
     7
370
    25
100
AcDbSpline
210
0.0
220
0.0
230
1.0
 70
     8
 71
     3
 72
    21
 73
    17
 74
     0
 42
0.00000001
 43
0.00000001
 40
0.0
 40
0.0
 40
0.0
 40
0.0
 40
0.1276691474530425
 40
0.1889505232706534
 40
0.2490548673082994
 40
0.3090713134763198
 40
0.3692223593686935
 40
0.4301747620269848
 40
0.492601988796021
 40
0.5553468768935781
 40
0.6169627615204943
 40
0.678170777192346
 40
0.7392465225515201
 40
0.8016089422160486
 40
0.8655244124565524
 40
1.0
 40
1.0
 40
1.0
 40
1.0
 10
915.8082061780259
 20
15.42209813551571
 30
0.0
 10
915.7451950236422
 20
15.42174845121269
 30
0.0
 10
915.652066772749
 20
15.43046741587406
 30
0.0
 10
915.5320847076766
 20
15.45753387585486
 30
0.0
 10
915.447312432617
 20
15.48660494693194
 30
0.0
 10
915.3664144799436
 20
15.5237942091232
 30
0.0
 10
915.289520877721
 20
15.56959728386292
 30
0.0
 10
915.2172381484071
 20
15.62424974837862
 30
0.0
 10
915.1485310184343
 20
15.68531032034964
 30
0.0
 10
915.086805439628
 20
15.75387750689311
 30
0.0
 10
915.0314654465105
 20
15.82691543213888
 30
0.0
 10
914.9850813500733
 20
15.90507744051733
 30
0.0
 10
914.9472084355656
 20
15.98800768755704
 30
0.0
 10
914.9159626706138
 20
16.0750902673048
 30
0.0
 10
914.8856821399411
 20
16.20030355855301
 30
0.0
 10
914.8768017935212
 20
16.29815981681448
 30
0.0
 10
914.8750130690516
 20
16.36440582782339
 30
0.0
  0
SPLINE
  5
112
330
1F
100
AcDbEntity
  8
0
  6
Continuous
 62
     7
370
    25
100
AcDbSpline
210
0.0
220
0.0
230
1.0
 70
     8
 71
     3
 72
    13
 73
     9
 74
     0
 42
0.00000001
 43
0.00000001
 40
0.0
 40
0.0
 40
0.0
 40
0.0
 40
0.3437621914217724
 40
0.4918338323010891
 40
0.6241090704107972
 40
0.7413996050399076
 40
0.8430618504426417
 40
1.0
 40
1.0
 40
1.0
 40
1.0
 10
913.4391156331541
 20
16.01244268679774
 30
0.0
 10
913.4385691759765
 20
16.11342334825699
 30
0.0
 10
913.4407922473856
 20
16.25786995836703
 30
0.0
 10
913.4460665262751
 20
16.44112553578775
 30
0.0
 10
913.4526196774173
 20
16.55774127163062
 30
0.0
 10
913.4597678436431
 20
16.66067789565445
 30
0.0
 10
913.4719916038142
 20
16.77041727793499
 30
0.0
 10
913.483455557529
 20
16.84558934042235
 30
0.0
 10
913.4952053767438
 20
16.89024717397725
 30
0.0
  0
SPLINE
  5
113
330
1F
100
AcDbEntity
  8
0
  6
Continuous
 62
     7
370
    25
100
AcDbSpline
210
0.0
220
0.0
230
1.0
 70
     8
 71
     3
 72
    17
 73
    13
 74
     0
 42
0.00000001
 43
0.00000001
 40
0.0
 40
0.0
 40
0.0
 40
0.0
 40
0.1717166158284534
 40
0.2506679767741083
 40
0.3258823275093814
 40
0.3968812716964141
 40
0.4635748406535735
 40
0.5280697489487693
 40
0.5896876632767203
 40
0.7048093833748879
 40
0.8086618718637336
 40
1.0
 40
1.0
 40
1.0
 40
1.0
 10
913.4952053767438
 20
16.89024717397725
 30
0.0
 10
913.5071285241029
 20
16.93471858818252
 30
0.0
 10
913.5266499114451
 20
16.99919646798315
 30
0.0
 10
913.5595013512701
 20
17.08025131315083
 30
0.0
 10
913.5851602838337
 20
17.1349827584743
 30
0.0
 10
913.613332323059
 20
17.18471183393139
 30
0.0
 10
913.6428145997602
 20
17.2302913524981
 30
0.0
 10
913.6749550265514
 20
17.27093694012949
 30
0.0
 10
913.7199968354952
 20
17.31749747304179
 30
0.0
 10
913.778171290592
 20
17.36568243195763
 30
0.0
 10
913.8731144026135
 20
17.42251774523534
 30
0.0
 10
913.9519936531364
 20
17.44139542761969
 30
0.0
 10
914.0035186780258
 20
17.44132890474648
 30
0.0
  0
SPLINE
  5
114
330
1F
100
AcDbEntity
  8
0
  6
Continuous
 62
     7
370
    25
100
AcDbSpline
210
0.0
220
0.0
230
1.0
 70
     8
 71
     3
 72
     9
 73
     5
 74
     0
 42
0.00000001
 43
0.00000001
 40
0.0
 40
0.0
 40
0.0
 40
0.0
 40
0.4397700551121874
 40
1.0
 40
1.0
 40
1.0
 40
1.0
 10
914.0035186780258
 20
17.44132890474648
 30
0.0
 10
914.0282027178505
 20
17.44100651604236
 30
0.0
 10
914.0839898730609
 20
17.43168196055866
 30
0.0
 10
914.1354625312792
 20
17.40842632194006
 30
0.0
 10
914.1640755690514
 20
17.3957559880798
 30
0.0
  0
SPLINE
  5
116
330
1F
100
AcDbEntity
  8
0
  6
Continuous
 62
     7
370
    25
100
AcDbSpline
210
0.0
220
0.0
230
1.0
 70
     8
 71
     3
 72
     9
 73
     5
 74
     0
 42
0.00000001
 43
0.00000001
 40
0.0
 40
0.0
 40
0.0
 40
0.0
 40
0.5364768048237014
 40
1.0
 40
1.0
 40
1.0
 40
1.0
 10
914.3365515305899
 20
17.66779124449003
 30
0.0
 10
914.2922104255309
 20
17.69465113526631
 30
0.0
 10
914.2045573138143
 20
17.73818904674568
 30
0.0
 10
914.10809048351
 20
17.75508204796178
 30
0.0
 10
914.06311403059
 20
17.755431468849
 30
0.0
  0
SPLINE
  5
117
330
1F
100
AcDbEntity
  8
0
  6
Continuous
 62
     7
370
    25
100
AcDbSpline
210
0.0
220
0.0
230
1.0
 70
     8
 71
     3
 72
    13
 73
     9
 74
     0
 42
0.00000001
 43
0.00000001
 40
0.0
 40
0.0
 40
0.0
 40
0.0
 40
0.2138863655718638
 40
0.32468277504731
 40
0.4394585447448615
 40
0.5616334858697944
 40
0.6938876172598771
 40
1.0
 40
1.0
 40
1.0
 40
1.0
 10
914.06311403059
 20
17.755431468849
 30
0.0
 10
914.0070336378202
 20
17.75504245227661
 30
0.0
 10
913.921475042926
 20
17.74319580178524
 30
0.0
 10
913.8139017505716
 20
17.70051859304833
 30
0.0
 10
913.7335207199648
 20
17.65675825374879
 30
0.0
 10
913.6558848570149
 20
17.59822997438348
 30
0.0
 10
913.5500879635939
 20
17.49553891339295
 30
0.0
 10
913.4821357612601
 20
17.40177122884401
 30
0.0
 10
913.4391156331541
 20
17.33405727013104
 30
0.0
  0
SPLINE
  5
11D
330
1F
100
AcDbEntity
  8
0
  6
Continuous
 62
     7
370
    25
100
AcDbSpline
210
0.0
220
0.0
230
1.0
 70
     8
 71
     3
 72
    13
 73
     9
 74
     0
 42
0.00000001
 43
0.00000001
 40
0.0
 40
0.0
 40
0.0
 40
0.0
 40
0.2620026798763647
 40
0.3865990120013832
 40
0.5078842295733162
 40
0.6287697964346917
 40
0.7494522178423594
 40
1.0
 40
1.0
 40
1.0
 40
1.0
 10
910.2083464023847
 20
15.61630887269516
 30
0.0
 10
910.2758877316923
 20
15.53616959657295
 30
0.0
 10
910.3849203393847
 20
15.4249842300751
 30
0.0
 10
910.549983398376
 20
15.30548412335431
 30
0.0
 10
910.678115729889
 20
15.2331821332421
 30
0.0
 10
910.8123172511225
 20
15.17656416456781
 30
0.0
 10
911.0026416305662
 20
15.12399885178073
 30
0.0
 10
911.1511454250353
 20
15.10683565853349
 30
0.0
 10
911.251615633154
 20
15.10799557141312
 30
0.0
  0
SPLINE
  5
11E
330
1F
100
AcDbEntity
  8
0
  6
Continuous
 62
     7
370
    25
100
AcDbSpline
210
0.0
220
0.0
230
1.0
 70
     8
 71
     3
 72
    21
 73
    17
 74
     0
 42
0.00000001
 43
0.00000001
 40
0.0
 40
0.0
 40
0.0
 40
0.0
 40
0.1277002390698746
 40
0.1892398000966455
 40
0.2501349882872974
 40
0.3108427100868519
 40
0.3724720907317068
 40
0.4350506334534635
 40
0.4996544386258892
 40
0.5642374836643669
 40
0.6267499200713567
 40
0.6882667786363572
 40
0.7494201652676098
 40
0.8104262745821135
 40
0.8719658356088787
 40
1.0
 40
1.0
 40
1.0
 40
1.0
 10
911.251615633154
 20
15.10799557141312
 30
0.0
 10
911.3408632440305
 20
15.10831828822096
 30
0.0
 10
911.4733920506678
 20
15.11962248049148
 30
0.0
 10
911.6436791775362
 20
15.16057326546405
 30
0.0
 10
911.764953765293
 20
15.20242364724533
 30
0.0
 10
911.8806262119284
 20
15.25801776858115
 30
0.0
 10
911.9916850653841
 20
15.32455610344408
 30
0.0
 10
912.0975625591665
 20
15.40379500945144
 30
0.0
 10
912.1966155540439
 20
15.49439409086523
 30
0.0
 10
912.2879164431187
 20
15.59274705013131
 30
0.0
 10
912.3678037737055
 20
15.69794074907543
 30
0.0
 10
912.4355051879774
 20
15.80854710577001
 30
0.0
 10
912.4911583055432
 20
15.92453091699053
 30
0.0
 10
912.5341731095614
 20
16.04580758014024
 30
0.0
 10
912.5748274784938
 20
16.21652828355558
 30
0.0
 10
912.5863482912649
 20
16.34921548785617
 30
0.0
 10
912.5865515305898
 20
16.43872473807978
 30
0.0
  0
SPLINE
  5
11F
330
1F
100
AcDbEntity
  8
0
  6
Continuous
 62
     7
370
    25
100
AcDbSpline
210
0.0
220
0.0
230
1.0
 70
     8
 71
     3
 72
    21
 73
    17
 74
     0
 42
0.00000001
 43
0.00000001
 40
0.0
 40
0.0
 40
0.0
 40
0.0
 40
0.1260146004816713
 40
0.1868089060952329
 40
0.2474478502843892
 40
0.307846495991717
 40
0.3691210183050324
 40
0.4319903131536156
 40
0.4967149000659745
 40
0.5615019172671396
 40
0.6247727207665961
 40
0.6865537243536204
 40
0.7478749627318974
 40
0.8093470980883342
 40
0.8713639494369316
 40
1.0
 40
1.0
 40
1.0
 40
1.0
 10
912.5865515305899
 20
16.43872473807978
 30
0.0
 10
912.5860384558762
 20
16.52654535613613
 30
0.0
 10
912.5752935618369
 20
16.65715154196284
 30
0.0
 10
912.5333193277752
 20
16.82489702083023
 30
0.0
 10
912.489749938782
 20
16.94421462177503
 30
0.0
 10
912.4340692235194
 20
17.05880714881786
 30
0.0
 10
912.3652001608818
 20
17.16776961968686
 30
0.0
 10
912.2853531912262
 20
17.27279194400327
 30
0.0
 10
912.193032040594
 20
17.37042025072466
 30
0.0
 10
912.093115801718
 20
17.46065221957382
 30
0.0
 10
911.9862022276243
 20
17.53905907724412
 30
0.0
 10
911.8749802464357
 20
17.60677369667813
 30
0.0
 10
911.7577167297054
 20
17.6604380835203
 30
0.0
 10
911.6361503713292
 20
17.70380558723916
 30
0.0
 10
911.4647162773216
 20
17.74457360783594
 30
0.0
 10
911.3314326587026
 20
17.75453334661564
 30
0.0
 10
911.2417999280257
 20
17.755431468849
 30
0.0
  0
SPLINE
  5
120
330
1F
100
AcDbEntity
  8
0
  6
Continuous
 62
     7
370
    25
100
AcDbSpline
210
0.0
220
0.0
230
1.0
 70
     8
 71
     3
 72
    13
 73
     9
 74
     0
 42
0.00000001
 43
0.00000001
 40
0.0
 40
0.0
 40
0.0
 40
0.0
 40
0.2538522779533833
 40
0.3748219688612677
 40
0.4942293474545216
 40
0.6139389177356218
 40
0.7369553172388601
 40
1.0
 40
1.0
 40
1.0
 40
1.0
 10
911.2417999280258
 20
17.755431468849
 30
0.0
 10
911.1400792644796
 20
17.75511002187091
 30
0.0
 10
910.989001545839
 20
17.74205925295436
 30
0.0
 10
910.7977663857693
 20
17.68791005145215
 30
0.0
 10
910.6633331788089
 20
17.63414629432852
 30
0.0
 10
910.536217408464
 20
17.56271672982851
 30
0.0
 10
910.3749393298408
 20
17.43854548904844
 30
0.0
 10
910.270511637728
 20
17.32261191019552
 30
0.0
 10
910.2083464023847
 20
17.23730246243876
 30
0.0
  0
SPLINE
  5
126
330
1F
100
AcDbEntity
  8
0
  6
Continuous
 62
     7
370
    25
100
AcDbSpline
210
0.0
220
0.0
230
1.0
 70
     8
 71
     3
 72
    21
 73
    17
 74
     0
 42
0.00000001
 43
0.00000001
 40
0.0
 40
0.0
 40
0.0
 40
0.0
 40
0.1345149942976666
 40
0.1951193525406955
 40
0.2509143402908683
 40
0.3026968495153108
 40
0.3502960464810085
 40
0.3933858467586796
 40
0.4329734110072734
 40
0.5070892430766238
 40
0.578749163844447
 40
0.650228022445109
 40
0.7224618180302929
 40
0.7938856428546777
 40
0.8631290414909256
 40
1.0
 40
1.0
 40
1.0
 40
1.0
 10
905.6762951203335
 20
16.22908932141309
 30
0.0
 10
905.6752992650453
 20
16.30350310241907
 30
0.0
 10
905.6800339544487
 20
16.41124234586749
 30
0.0
 10
905.6882269938274
 20
16.54976939383568
 30
0.0
 10
905.700287212065
 20
16.64199114504006
 30
0.0
 10
905.7128060469325
 20
16.72687809835682
 30
0.0
 10
905.7296445369941
 20
16.80387838775471
 30
0.0
 10
905.7492401341024
 20
16.87322931330637
 30
0.0
 10
905.7787385334503
 20
16.95480264931248
 30
0.0
 10
905.8244703865539
 20
17.04696675821826
 30
0.0
 10
905.893412882894
 20
17.14581741187854
 30
0.0
 10
905.9754212226345
 20
17.23272633135131
 30
0.0
 10
906.0690951084862
 20
17.30664784337227
 30
0.0
 10
906.1710507659641
 20
17.36622550493671
 30
0.0
 10
906.3138749821942
 20
17.42376253275468
 30
0.0
 10
906.4278109150914
 20
17.44196141791543
 30
0.0
 10
906.5036188382823
 20
17.44132890474642
 30
0.0
  0
SPLINE
  5
127
330
1F
100
AcDbEntity
  8
0
  6
Continuous
 62
     7
370
    25
100
AcDbSpline
210
0.0
220
0.0
230
1.0
 70
     8
 71
     3
 72
    21
 73
    17
 74
     0
 42
0.00000001
 43
0.00000001
 40
0.0
 40
0.0
 40
0.0
 40
0.0
 40
0.1413526962021416
 40
0.2082288969497913
 40
0.2736894576468312
 40
0.3380517659755164
 40
0.4009220982745113
 40
0.4636163844951631
 40
0.5278777255384897
 40
0.5636262148099236
 40
0.6061036626598839
 40
0.6545011613018641
 40
0.7100543472033243
 40
0.772261937884825
 40
0.8412211450824307
 40
1.0
 40
1.0
 40
1.0
 40
1.0
 10
906.5036188382823
 20
17.44132890474642
 30
0.0
 10
906.5662879558488
 20
17.44080173796425
 30
0.0
 10
906.6596461058562
 20
17.43095048604026
 30
0.0
 10
906.7740246052831
 20
17.3876616118781
 30
0.0
 10
906.850026392826
 20
17.34375413764133
 30
0.0
 10
906.9175982829684
 20
17.29058653215421
 30
0.0
 10
906.9752055995862
 20
17.22832074022951
 30
0.0
 10
907.0213939312213
 20
17.15717910157749
 30
0.0
 10
907.0501083853716
 20
17.09045833239453
 30
0.0
 10
907.068898264485
 20
17.02989492458173
 30
0.0
 10
907.0802469070256
 20
16.97467817741272
 30
0.0
 10
907.0898565181342
 20
16.9102834275417
 30
0.0
 10
907.0983173853352
 20
16.8368720532322
 30
0.0
 10
907.1041948809199
 20
16.75405079398751
 30
0.0
 10
907.1113240695263
 20
16.62532989195875
 30
0.0
 10
907.1122487722444
 20
16.52402852993135
 30
0.0
 10
907.112192556231
 20
16.45344829577211
 30
0.0
  0
SPLINE
  5
12B
330
1F
100
AcDbEntity
  8
0
  6
Continuous
 62
     7
370
    25
100
AcDbSpline
210
0.0
220
0.0
230
1.0
 70
     8
 71
     3
 72
    21
 73
    17
 74
     0
 42
0.00000001
 43
0.00000001
 40
0.0
 40
0.0
 40
0.0
 40
0.0
 40
0.1456749912579827
 40
0.2101933844674901
 40
0.2691971886348877
 40
0.322846796636203
 40
0.371135046822222
 40
0.414360204576092
 40
0.4526539356928966
 40
0.5231868047418403
 40
0.5919172609462644
 40
0.659975705639505
 40
0.729211733722494
 40
0.7981350023963548
 40
0.8652933977975921
 40
1.0
 40
1.0
 40
1.0
 40
1.0
 10
907.4262951203334
 20
16.14775919320799
 30
0.0
 10
907.4267749445731
 20
16.23234995611644
 30
0.0
 10
907.4277318361624
 20
16.35457931513151
 30
0.0
 10
907.4390969864776
 20
16.51056710431248
 30
0.0
 10
907.4480838764962
 20
16.61313673414721
 30
0.0
 10
907.4618546002467
 20
16.7056443513568
 30
0.0
 10
907.4765379470183
 20
16.78872589483421
 30
0.0
 10
907.4954148732979
 20
16.86182325784319
 30
0.0
 10
907.5240041697655
 20
16.94549276411356
 30
0.0
 10
907.5692581610032
 20
17.03863903182501
 30
0.0
 10
907.6360902899198
 20
17.13927069890703
 30
0.0
 10
907.7169900751807
 20
17.2282138929416
 30
0.0
 10
907.8110170817595
 20
17.30304645930575
 30
0.0
 10
907.9132351135866
 20
17.36538942719468
 30
0.0
 10
908.0601828121768
 20
17.42339399895732
 30
0.0
 10
908.1771850224222
 20
17.44267497217672
 30
0.0
 10
908.2557222036669
 20
17.44132890474642
 30
0.0
  0
SPLINE
  5
12C
330
1F
100
AcDbEntity
  8
0
  6
Continuous
 62
     7
370
    25
100
AcDbSpline
210
0.0
220
0.0
230
1.0
 70
     8
 71
     3
 72
    21
 73
    17
 74
     0
 42
0.00000001
 43
0.00000001
 40
0.0
 40
0.0
 40
0.0
 40
0.0
 40
0.1497817737882763
 40
0.2198699552839229
 40
0.2879755066202122
 40
0.3546781060271811
 40
0.4187834319376702
 40
0.4827347082469489
 40
0.5473072519463968
 40
0.5826981022599489
 40
0.6240955651677691
 40
0.6712929496345208
 40
0.72432020754856
 40
0.7838489433400093
 40
0.849436697120573
 40
1.0
 40
1.0
 40
1.0
 40
1.0
 10
908.2557222036669
 20
17.44132890474648
 30
0.0
 10
908.3182282385244
 20
17.44172941595418
 30
0.0
 10
908.4105606919192
 20
17.43140056388259
 30
0.0
 10
908.5244156027791
 20
17.39115948997666
 30
0.0
 10
908.5999619268296
 20
17.35020592743858
 30
0.0
 10
908.6663226303806
 20
17.29977727129667
 30
0.0
 10
908.7237925969704
 20
17.24169911724316
 30
0.0
 10
908.7694101129365
 20
17.17497483858121
 30
0.0
 10
908.7993579994497
 20
17.11310480053857
 30
0.0
 10
908.8180939826623
 20
17.05701872783771
 30
0.0
 10
908.8293716983617
 20
17.00642492066551
 30
0.0
 10
908.8400174647504
 20
16.94823251070093
 30
0.0
 10
908.8482620126375
 20
16.88198367495664
 30
0.0
 10
908.8541933893105
 20
16.80781179830282
 30
0.0
 10
908.8613033640738
 20
16.69288150762904
 30
0.0
 10
908.8622638926081
 20
16.60255589979726
 30
0.0
 10
908.8621925562309
 20
16.53968627654134
 30
0.0
  0
SPLINE
  5
130
330
1F
100
AcDbEntity
  8
0
  6
Continuous
 62
     7
370
    25
100
AcDbSpline
210
0.0
220
0.0
230
1.0
 70
     8
 71
     3
 72
    21
 73
    17
 74
     0
 42
0.00000001
 43
0.00000001
 40
0.0
 40
0.0
 40
0.0
 40
0.0
 40
0.1311670463014498
 40
0.1902933887105134
 40
0.2450610151832019
 40
0.2960272302790643
 40
0.3428447301738899
 40
0.3860527037713298
 40
0.4255709801320446
 40
0.4995034801514109
 40
0.5702922612469618
 40
0.6402757819124865
 40
0.7105295546786085
 40
0.7812030014762972
 40
0.8520349845172274
 40
1.0
 40
1.0
 40
1.0
 40
1.0
 10
909.1762951203335
 20
16.5382840329516
 30
0.0
 10
909.1766850347962
 20
16.6126470302036
 30
0.0
 10
909.1735672148856
 20
16.72054299422043
 30
0.0
 10
909.1630418513531
 20
16.85908778566791
 30
0.0
 10
909.1528354078548
 20
16.95201835389509
 30
0.0
 10
909.1388512639287
 20
17.03740862428704
 30
0.0
 10
909.1220122552326
 20
17.11556017743127
 30
0.0
 10
909.102950860297
 20
17.1865664609977
 30
0.0
 10
909.0720356381397
 20
17.26990182942611
 30
0.0
 10
909.0264570028934
 20
17.36429357206598
 30
0.0
 10
908.9566865473466
 20
17.46463716422419
 30
0.0
 10
908.8739705951075
 20
17.55170247232846
 30
0.0
 10
908.7788094394484
 20
17.6248948718421
 30
0.0
 10
908.6733374114912
 20
17.68307881758779
 30
0.0
 10
908.5190899900496
 20
17.74109721390982
 30
0.0
 10
908.3940743796958
 20
17.75481095259224
 30
0.0
 10
908.3104097036668
 20
17.755431468849
 30
0.0
  0
SPLINE
  5
131
330
1F
100
AcDbEntity
  8
0
  6
Continuous
 62
     7
370
    25
100
AcDbSpline
210
0.0
220
0.0
230
1.0
 70
     8
 71
     3
 72
    17
 73
    13
 74
     0
 42
0.00000001
 43
0.00000001
 40
0.0
 40
0.0
 40
0.0
 40
0.0
 40
0.2344384882140303
 40
0.3525851839391706
 40
0.4731673593536239
 40
0.5350581108286296
 40
0.5975237332645826
 40
0.6605170696247862
 40
0.7251603465314875
 40
0.7908841475024989
 40
0.8587744642336419
 40
1.0
 40
1.0
 40
1.0
 40
1.0
 10
908.3104097036668
 20
17.755431468849
 30
0.0
 10
908.2180469923705
 20
17.75565368799364
 30
0.0
 10
908.0788535003311
 20
17.73608783645392
 30
0.0
 10
907.9042843989938
 20
17.66895582307787
 30
0.0
 10
907.8004728370563
 20
17.61133098371409
 30
0.0
 10
907.7206805407124
 20
17.55699738121502
 30
0.0
 10
907.6632955028672
 20
17.51049946068334
 30
0.0
 10
907.6082351917956
 20
17.45970239020689
 30
0.0
 10
907.5558063747833
 20
17.40439508018848
 30
0.0
 10
907.5057881953925
 20
17.34437990272708
 30
0.0
 10
907.4414593411174
 20
17.25725770435699
 30
0.0
 10
907.3984311465048
 20
17.18685610561838
 30
0.0
 10
907.3723087421283
 20
17.13774316756694
 30
0.0
  0
SPLINE
  5
132
330
1F
100
AcDbEntity
  8
0
  6
Continuous
 62
     7
370
    25
100
AcDbSpline
210
0.0
220
0.0
230
1.0
 70
     8
 71
     3
 72
    17
 73
    13
 74
     0
 42
0.00000001
 43
0.00000001
 40
0.0
 40
0.0
 40
0.0
 40
0.0
 40
0.19785609528989
 40
0.2832345117281732
 40
0.3600126653135354
 40
0.4338442080180517
 40
0.5095057223304571
 40
0.5870428909784137
 40
0.6687538545127745
 40
0.751163668853462
 40
0.8334676797015865
 40
1.0
 40
1.0
 40
1.0
 40
1.0
 10
907.3723087421283
 20
17.13774316756694
 30
0.0
 10
907.3487601846405
 20
17.20635645984769
 30
0.0
 10
907.3099566568791
 20
17.3034060449399
 30
0.0
 10
907.2422083197596
 20
17.41717218973121
 30
0.0
 10
907.1899548355202
 20
17.48651239668347
 30
0.0
 10
907.1318249091775
 20
17.54619031901389
 30
0.0
 10
907.0662017306788
 20
17.59788808779777
 30
0.0
 10
906.9931123411137
 20
17.64393596561681
 30
0.0
 10
906.913391335902
 20
17.68318964570709
 30
0.0
 10
906.8287788417523
 20
17.71557045896743
 30
0.0
 10
906.7109907262316
 20
17.74689297181592
 30
0.0
 10
906.619366534273
 20
17.75464511539815
 30
0.0
 10
906.5583063382823
 20
17.755431468849
 30
0.0
  0
SPLINE
  5
133
330
1F
100
AcDbEntity
  8
0
  6
Continuous
 62
     7
370
    25
100
AcDbSpline
210
0.0
220
0.0
230
1.0
 70
     8
 71
     3
 72
     9
 73
     5
 74
     0
 42
0.00000001
 43
0.00000001
 40
0.0
 40
0.0
 40
0.0
 40
0.0
 40
0.4969648798680931
 40
1.0
 40
1.0
 40
1.0
 40
1.0
 10
906.5583063382823
 20
17.755431468849
 30
0.0
 10
906.4676010553362
 20
17.75473583226139
 30
0.0
 10
906.2844675461038
 20
17.73453849112294
 30
0.0
 10
906.1126519720067
 20
17.66785357119954
 30
0.0
 10
906.0310627485386
 20
17.62572393679773
 30
0.0
  0
SPLINE
  5
134
330
1F
100
AcDbEntity
  8
0
  6
Continuous
 62
     7
370
    25
100
AcDbSpline
210
0.0
220
0.0
230
1.0
 70
     8
 71
     3
 72
     9
 73
     5
 74
     0
 42
0.00000001
 43
0.00000001
 40
0.0
 40
0.0
 40
0.0
 40
0.0
 40
0.4566051594239804
 40
1.0
 40
1.0
 40
1.0
 40
1.0
 10
906.0310627485386
 20
17.62572393679773
 30
0.0
 10
905.965376331787
 20
17.58450361701386
 30
0.0
 10
905.8353670115093
 20
17.47437406953822
 30
0.0
 10
905.7289805552441
 20
17.34149649819139
 30
0.0
 10
905.6762951203335
 20
17.26604845602853
 30
0.0
  0
SPLINE
  5
139
330
1F
100
AcDbEntity
  8
0
  6
Continuous
 62
     7
370
    25
100
AcDbSpline
210
0.0
220
0.0
230
1.0
 70
     8
 71
     3
 72
    21
 73
    17
 74
     0
 42
0.00000001
 43
0.00000001
 40
0.0
 40
0.0
 40
0.0
 40
0.0
 40
0.1231816483428002
 40
0.1830343363247269
 40
0.242866192476144
 40
0.3025168847059428
 40
0.3633154622039138
 40
0.4250692989986412
 40
0.4890423674851736
 40
0.5530871422752265
 40
0.6154454653923724
 40
0.677286411840953
 40
0.739174987439565
 40
0.801675812932834
 40
0.8653648077757378
 40
1.0
 40
1.0
 40
1.0
 40
1.0
 10
902.0865515305899
 20
16.42470230218235
 30
0.0
 10
902.0860446232043
 20
16.33913488505534
 30
0.0
 10
902.0977539702266
 20
16.21201399212246
 30
0.0
 10
902.1363855679251
 20
16.04762520197606
 30
0.0
 10
902.1771681974969
 20
15.92976637977794
 30
0.0
 10
902.2295395905576
 20
15.81588371993559
 30
0.0
 10
902.293426310041
 20
15.70647361637356
 30
0.0
 10
902.3693003125867
 20
15.60132359322663
 30
0.0
 10
902.4552986428644
 20
15.50131358398366
 30
0.0
 10
902.5503706936705
 20
15.40917784253182
 30
0.0
 10
902.6535706203505
 20
15.32861697832982
 30
0.0
 10
902.7633570094741
 20
15.26000789903936
 30
0.0
 10
902.8805022777168
 20
15.20470358895415
 30
0.0
 10
903.003729273566
 20
15.1608731370726
 30
0.0
 10
903.1802477515714
 20
15.118913756685
 30
0.0
 10
903.3182661065625
 20
15.10841766401239
 30
0.0
 10
903.4116717228976
 20
15.10799557141312
 30
0.0
  0
SPLINE
  5
13A
330
1F
100
AcDbEntity
  8
0
  6
Continuous
 62
     7
370
    25
100
AcDbSpline
210
0.0
220
0.0
230
1.0
 70
     8
 71
     3
 72
    21
 73
    17
 74
     0
 42
0.00000001
 43
0.00000001
 40
0.0
 40
0.0
 40
0.0
 40
0.0
 40
0.1341341587220425
 40
0.1979034644236247
 40
0.260483102512054
 40
0.3221455286916713
 40
0.383778467188939
 40
0.4462154232078633
 40
0.5103409574898146
 40
0.5743946950476084
 40
0.6362264024960822
 40
0.6971016460802506
 40
0.7568275569302938
 40
0.8167348601469017
 40
0.8766630214626718
 40
1.0
 40
1.0
 40
1.0
 40
1.0
 10
903.4116717228976
 20
15.10799557141312
 30
0.0
 10
903.5046217722844
 20
15.10835953696715
 30
0.0
 10
903.6421490691017
 20
15.11903642117524
 30
0.0
 10
903.8182042308025
 20
15.16088826024486
 30
0.0
 10
903.9412702572694
 20
15.20455973272417
 30
0.0
 10
904.0579139924887
 20
15.26000617972834
 30
0.0
 10
904.1670679289437
 20
15.32882502402422
 30
0.0
 10
904.2701840857044
 20
15.40915402483217
 30
0.0
 10
904.3652360289934
 20
15.50132003757504
 30
0.0
 10
904.4512397505023
 20
15.60132193047314
 30
0.0
 10
904.5271123619013
 20
15.70647404795217
 30
0.0
 10
904.5909994427523
 20
15.81588360748554
 30
0.0
 10
904.6433707412069
 20
15.92976640975485
 30
0.0
 10
904.6841533960052
 20
16.04762519397435
 30
0.0
 10
904.7227849847354
 20
16.21201399762362
 30
0.0
 10
904.7344943372983
 20
16.33913488221406
 30
0.0
 10
904.7339874280258
 20
16.42470230218235
 30
0.0
  0
SPLINE
  5
13B
330
1F
100
AcDbEntity
  8
0
  6
Continuous
 62
     7
370
    25
100
AcDbSpline
210
0.0
220
0.0
230
1.0
 70
     8
 71
     3
 72
    13
 73
     9
 74
     0
 42
0.00000001
 43
0.00000001
 40
0.0
 40
0.0
 40
0.0
 40
0.0
 40
0.2554352550956477
 40
0.3786322712675498
 40
0.50146631433211
 40
0.6234943774777815
 40
0.7461656372032779
 40
1.0
 40
1.0
 40
1.0
 40
1.0
 10
904.7339874280258
 20
16.42470230218235
 30
0.0
 10
904.7335130392318
 20
16.50963914876724
 30
0.0
 10
904.7240292305065
 20
16.63588111169606
 30
0.0
 10
904.6868372479258
 20
16.79882041141534
 30
0.0
 10
904.6481950784763
 20
16.9152016128386
 30
0.0
 10
904.5990910036334
 20
17.02742011881653
 30
0.0
 10
904.516851603645
 20
17.17178090956239
 30
0.0
 10
904.4404575403258
 20
17.27171934975391
 30
0.0
 10
904.3834265305899
 20
17.33405727013104
 30
0.0
  0
SPLINE
  5
13C
330
1F
100
AcDbEntity
  8
0
  6
Continuous
 62
     7
370
    25
100
AcDbSpline
210
0.0
220
0.0
230
1.0
 70
     8
 71
     3
 72
    13
 73
     9
 74
     0
 42
0.00000001
 43
0.00000001
 40
0.0
 40
0.0
 40
0.0
 40
0.0
 40
0.2531294102724402
 40
0.3753070134590598
 40
0.4961956083998795
 40
0.6178660239074372
 40
0.7416676494858145
 40
1.0
 40
1.0
 40
1.0
 40
1.0
 10
904.3834265305899
 20
17.33405727013104
 30
0.0
 10
904.3212680465992
 20
17.40199387528246
 30
0.0
 10
904.2196527406588
 20
17.4947160003639
 30
0.0
 10
904.0672887430047
 20
17.59226233137251
 30
0.0
 10
903.9489090988751
 20
17.65299054426389
 30
0.0
 10
903.8231131852822
 20
17.69819645646287
 30
0.0
 10
903.6449880568277
 20
17.742840427597
 30
0.0
 10
903.5057618842065
 20
17.75640610944657
 30
0.0
 10
903.4116717228976
 20
17.755431468849
 30
0.0
  0
SPLINE
  5
13D
330
1F
100
AcDbEntity
  8
0
  6
Continuous
 62
     7
370
    25
100
AcDbSpline
210
0.0
220
0.0
230
1.0
 70
     8
 71
     3
 72
    13
 73
     9
 74
     0
 42
0.00000001
 43
0.00000001
 40
0.0
 40
0.0
 40
0.0
 40
0.0
 40
0.2587123826906848
 40
0.3820894432542115
 40
0.5035635736272535
 40
0.6251808674329538
 40
0.7472870144846054
 40
1.0
 40
1.0
 40
1.0
 40
1.0
 10
903.4116717228976
 20
17.755431468849
 30
0.0
 10
903.317104415674
 20
17.75629482456858
 30
0.0
 10
903.1774784519108
 20
17.74280940318462
 30
0.0
 10
902.9986298309997
 20
17.69846327424457
 30
0.0
 10
902.8729351499159
 20
17.65169162380831
 30
0.0
 10
902.7532538117828
 20
17.59216024921134
 30
0.0
 10
902.6012515851446
 20
17.49263983684346
 30
0.0
 10
902.4987311169539
 20
17.40079872243117
 30
0.0
 10
902.4371124280258
 20
17.33195390474646
 30
0.0
  0
SPLINE
  5
13E
330
1F
100
AcDbEntity
  8
0
  6
Continuous
 62
     7
370
    25
100
AcDbSpline
210
0.0
220
0.0
230
1.0
 70
     8
 71
     3
 72
    13
 73
     9
 74
     0
 42
0.00000001
 43
0.00000001
 40
0.0
 40
0.0
 40
0.0
 40
0.0
 40
0.253759205061608
 40
0.3772863205702288
 40
0.4989121128148896
 40
0.6213214040214744
 40
0.7447622750750944
 40
1.0
 40
1.0
 40
1.0
 40
1.0
 10
902.4371124280258
 20
17.33195390474646
 30
0.0
 10
902.3806991281402
 20
17.2694430065517
 30
0.0
 10
902.3030006401993
 20
17.17032767030435
 30
0.0
 10
902.2218453656695
 20
17.02557472335548
 30
0.0
 10
902.1722970144345
 20
16.91384299819998
 30
0.0
 10
902.1336062986068
 20
16.79791230193933
 30
0.0
 10
902.0965934129828
 20
16.6354014133771
 30
0.0
 10
902.087045797339
 20
16.50940909951565
 30
0.0
 10
902.0865515305899
 20
16.42470230218235
 30
0.0
  0
SPLINE
  5
13F
330
1F
100
AcDbEntity
  8
0
  6
Continuous
 62
     7
370
    25
100
AcDbSpline
210
0.0
220
0.0
230
1.0
 70
     8
 71
     3
 72
    13
 73
     9
 74
     0
 42
0.00000001
 43
0.00000001
 40
0.0
 40
0.0
 40
0.0
 40
0.0
 40
0.2610424242777889
 40
0.3863862281521577
 40
0.5092661375983676
 40
0.6312202507086663
 40
0.7528439836388015
 40
1.0
 40
1.0
 40
1.0
 40
1.0
 10
898.137833581872
 20
16.92319989833618
 30
0.0
 10
898.137485361132
 20
16.8053577702042
 30
0.0
 10
898.1514242116269
 20
16.63095934122938
 30
0.0
 10
898.1973987572673
 20
16.40550478656999
 30
0.0
 10
898.2460947260178
 20
16.24546710424041
 30
0.0
 10
898.308528379727
 20
16.09208477672242
 30
0.0
 10
898.4116326488008
 20
15.89572935420097
 30
0.0
 10
898.5091098167685
 20
15.75994150832055
 30
0.0
 10
898.5816436780258
 20
15.67520310346437
 30
0.0
  0
SPLINE
  5
140
330
1F
100
AcDbEntity
  8
0
  6
Continuous
 62
     7
370
    25
100
AcDbSpline
210
0.0
220
0.0
230
1.0
 70
     8
 71
     3
 72
    21
 73
    17
 74
     0
 42
0.00000001
 43
0.00000001
 40
0.0
 40
0.0
 40
0.0
 40
0.0
 40
0.1230520034021457
 40
0.1834460947273845
 40
0.2432438057744606
 40
0.3030008157385234
 40
0.3628016564907178
 40
0.4226040620340565
 40
0.483004350803288
 40
0.5438199683408378
 40
0.6052464595528656
 40
0.6675862935227788
 40
0.7312201376706463
 40
0.79608325648218
 40
0.8622504377417369
 40
1.0
 40
1.0
 40
1.0
 40
1.0
 10
898.5816436780258
 20
15.67520310346437
 30
0.0
 10
898.6247241772788
 20
15.62455235630128
 30
0.0
 10
898.6936888532598
 20
15.55313319781265
 30
0.0
 10
898.7925608278731
 20
15.46649025933472
 30
0.0
 10
898.8691397310901
 20
15.40649683509415
 30
0.0
 10
898.9493501382271
 20
15.3520461287297
 30
0.0
 10
899.0319772339832
 20
15.30136310808183
 30
0.0
 10
899.1178414044978
 20
15.25557186811272
 30
0.0
 10
899.2069010063473
 20
15.2150555671634
 30
0.0
 10
899.29886937607
 20
15.17915073343806
 30
0.0
 10
899.3938245691744
 20
15.14860106667898
 30
0.0
 10
899.4913851941434
 20
15.12133169860824
 30
0.0
 10
899.5925110206332
 20
15.10098010667704
 30
0.0
 10
899.696286215501
 20
15.08376784436516
 30
0.0
 10
899.8407040518531
 20
15.06816725469284
 30
0.0
 10
899.9507882432359
 20
15.06219560315802
 30
0.0
 10
900.0252534536668
 20
15.06312377654134
 30
0.0
  0
SPLINE
  5
141
330
1F
100
AcDbEntity
  8
0
  6
Continuous
 62
     7
370
    25
100
AcDbSpline
210
0.0
220
0.0
230
1.0
 70
     8
 71
     3
 72
    21
 73
    17
 74
     0
 42
0.00000001
 43
0.00000001
 40
0.0
 40
0.0
 40
0.0
 40
0.0
 40
0.133987404358362
 40
0.1992147171271491
 40
0.2630385433427139
 40
0.3264714696898179
 40
0.3888564113073955
 40
0.4507796159244916
 40
0.5126087700345887
 40
0.5740537960313626
 40
0.6351370790393001
 40
0.6957210834877562
 40
0.7562734994894003
 40
0.8165249992682884
 40
0.8769469383651866
 40
1.0
 40
1.0
 40
1.0
 40
1.0
 10
900.0252534536668
 20
15.06312377654134
 30
0.0
 10
900.1037152584552
 20
15.06255363823755
 30
0.0
 10
900.2202697893736
 20
15.06913043607377
 30
0.0
 10
900.3730857617994
 20
15.08844591106434
 30
0.0
 10
900.4838019193078
 20
15.10968834330628
 30
0.0
 10
900.5914633216806
 20
15.13694783083958
 30
0.0
 10
900.6962939266843
 20
15.17007073545723
 30
0.0
 10
900.7982983477651
 20
15.20852503265341
 30
0.0
 10
900.8970369867585
 20
15.25344212206642
 30
0.0
 10
900.9923913754249
 20
15.30406914953103
 30
0.0
 10
901.0842607396663
 20
15.35935978086633
 30
0.0
 10
901.1723318258761
 20
15.41966251355098
 30
0.0
 10
901.2554541758552
 20
15.48581363693891
 30
0.0
 10
901.3350929400938
 20
15.55595368044027
 30
0.0
 10
901.4359573500697
 20
15.65697388199366
 30
0.0
 10
901.5047867460088
 20
15.73965183607296
 30
0.0
 10
901.5480899921283
 20
15.79719829577209
 30
0.0
  0
SPLINE
  5
143
330
1F
100
AcDbEntity
  8
0
  6
Continuous
 62
     7
370
    25
100
AcDbSpline
210
0.0
220
0.0
230
1.0
 70
     8
 71
     3
 72
    13
 73
     9
 74
     0
 42
0.00000001
 43
0.00000001
 40
0.0
 40
0.0
 40
0.0
 40
0.0
 40
0.2590905307218836
 40
0.3828193585701204
 40
0.504060246132918
 40
0.6252452659939869
 40
0.7470513636473191
 40
1.0
 40
1.0
 40
1.0
 40
1.0
 10
901.2732502485386
 20
16.00543146884903
 30
0.0
 10
901.1925398492675
 20
15.91260015113394
 30
0.0
 10
901.0619106842046
 20
15.78423402594775
 30
0.0
 10
900.8643345199612
 20
15.64792140089555
 30
0.0
 10
900.7110425389459
 20
15.56480497380119
 30
0.0
 10
900.549720248142
 20
15.50098209443945
 30
0.0
 10
900.3218253945053
 20
15.4390136492662
 30
0.0
 10
900.14332429409
 20
15.42206480858938
 30
0.0
 10
900.0231500882821
 20
15.42209813551571
 30
0.0
  0
SPLINE
  5
144
330
1F
100
AcDbEntity
  8
0
  6
Continuous
 62
     7
370
    25
100
AcDbSpline
210
0.0
220
0.0
230
1.0
 70
     8
 71
     3
 72
    21
 73
    17
 74
     0
 42
0.00000001
 43
0.00000001
 40
0.0
 40
0.0
 40
0.0
 40
0.0
 40
0.1354977018766839
 40
0.1997709556054623
 40
0.2626661029007082
 40
0.3245162342315929
 40
0.3860814035338469
 40
0.4482750281859555
 40
0.5111600935993517
 40
0.573673691051748
 40
0.6345706143819425
 40
0.694424357353864
 40
0.7538535676646498
 40
0.8132735307838683
 40
0.8737098962964416
 40
1.0
 40
1.0
 40
1.0
 40
1.0
 10
900.023150088282
 20
15.42209813551571
 30
0.0
 10
899.9141851496414
 20
15.42122150240188
 30
0.0
 10
899.7535103109594
 20
15.43457226089856
 30
0.0
 10
899.5468356934283
 20
15.47901659484163
 30
0.0
 10
899.4018096630489
 20
15.52521854111605
 30
0.0
 10
899.264433012499
 20
15.58540880944881
 30
0.0
 10
899.1336487246392
 20
15.65771988513637
 30
0.0
 10
899.0109008338083
 20
15.74447149786345
 30
0.0
 10
898.8964949339486
 20
15.84298494231368
 30
0.0
 10
898.7922208251845
 20
15.95082796810782
 30
0.0
 10
898.7016031647571
 20
16.06724450027364
 30
0.0
 10
898.6233666429322
 20
16.1894834060799
 30
0.0
 10
898.5614324865518
 20
16.31939158788809
 30
0.0
 10
898.5112735233484
 20
16.45477208610724
 30
0.0
 10
898.4656221529053
 20
16.64770860304549
 30
0.0
 10
898.4514702641501
 20
16.79776009099382
 30
0.0
 10
898.4519361459745
 20
16.89936175731055
 30
0.0
  0
SPLINE
  5
145
330
1F
100
AcDbEntity
  8
0
  6
Continuous
 62
     7
370
    25
100
AcDbSpline
210
0.0
220
0.0
230
1.0
 70
     8
 71
     3
 72
    29
 73
    25
 74
     0
 42
0.00000001
 43
0.00000001
 40
0.0
 40
0.0
 40
0.0
 40
0.0
 40
0.0854570443736504
 40
0.1266809549827147
 40
0.1675410811962538
 40
0.2082244231348174
 40
0.2483727419364201
 40
0.2886160561618215
 40
0.3291313739173617
 40
0.3695947699931648
 40
0.4100199770331279
 40
0.4501169689266529
 40
0.4905081998450251
 40
0.5311820495134254
 40
0.5723142725972153
 40
0.6140748367935566
 40
0.6568785104979149
 40
0.6998472510427085
 40
0.7423501702567843
 40
0.7845969326204101
 40
0.827247979433485
 40
0.8695373732685343
 40
0.9124981252023969
 40
1.0
 40
1.0
 40
1.0
 40
1.0
 10
898.4519361459745
 20
16.89936175731055
 30
0.0
 10
898.4510828251355
 20
16.96760074420173
 30
0.0
 10
898.4582513505486
 20
17.06860641476249
 30
0.0
 10
898.4787815748813
 20
17.20077743052573
 30
0.0
 10
898.5006734710042
 20
17.29632078179222
 30
0.0
 10
898.5283813679557
 20
17.38947178730749
 30
0.0
 10
898.5633842031361
 20
17.4795759313825
 30
0.0
 10
898.6029146948944
 20
17.56765099083091
 30
0.0
 10
898.6501272630063
 20
17.65218878543245
 30
0.0
 10
898.7028443323851
 20
17.73350219219111
 30
0.0
 10
898.7600297308129
 20
17.81135436593723
 30
0.0
 10
898.8228170447697
 20
17.88471870740877
 30
0.0
 10
898.890988992251
 20
17.95336066812914
 30
0.0
 10
898.9640516046345
 20
18.01801177363516
 30
0.0
 10
899.042079572416
 20
18.07838087337099
 30
0.0
 10
899.1251346205062
 20
18.13469421264052
 30
0.0
 10
899.2129138303609
 20
18.18632170579954
 30
0.0
 10
899.3045320728376
 20
18.23202978415317
 30
0.0
 10
899.3977426569196
 20
18.27338529370986
 30
0.0
 10
899.4938351173407
 20
18.30680822078667
 30
0.0
 10
899.5914178569561
 20
18.33479016943834
 30
0.0
 10
899.6911301394599
 20
18.35688070611086
 30
0.0
 10
899.8275508949914
 20
18.37705799028694
 30
0.0
 10
899.9315338624907
 20
18.38455654936239
 30
0.0
 10
900.0014153126411
 20
18.38363659705416
 30
0.0
  0
SPLINE
  5
146
330
1F
100
AcDbEntity
  8
0
  6
Continuous
 62
     7
370
    25
100
AcDbSpline
210
0.0
220
0.0
230
1.0
 70
     8
 71
     3
 72
    17
 73
    13
 74
     0
 42
0.00000001
 43
0.00000001
 40
0.0
 40
0.0
 40
0.0
 40
0.0
 40
0.2591563015326337
 40
0.3838520337081605
 40
0.507544010327201
 40
0.5690266244526543
 40
0.6301499339328953
 40
0.6907051437449019
 40
0.751705653885743
 40
0.8128787801839827
 40
0.8745250589693498
 40
1.0
 40
1.0
 40
1.0
 40
1.0
 10
900.0014153126411
 20
18.38363659705416
 30
0.0
 10
900.1265831131097
 20
18.38424453704402
 30
0.0
 10
900.3121273831157
 20
18.36606636120613
 30
0.0
 10
900.5495998615071
 20
18.30367777375025
 30
0.0
 10
900.6892472234788
 20
18.2489988020153
 30
0.0
 10
900.7959989378552
 20
18.19652702633639
 30
0.0
 10
900.8731972385078
 20
18.15326123479683
 30
0.0
 10
900.9470570381753
 20
18.10498887608153
 30
0.0
 10
901.0188199232131
 20
18.05357522393541
 30
0.0
 10
901.0867248897362
 20
17.99632207495821
 30
0.0
 10
901.1743779066567
 20
17.91447939786245
 30
0.0
 10
901.234999320004
 20
17.84727306337225
 30
0.0
 10
901.2732502485386
 20
17.80030326372079
 30
0.0
  0
SPLINE
  5
148
330
1F
100
AcDbEntity
  8
0
  6
Continuous
 62
     7
370
    25
100
AcDbSpline
210
0.0
220
0.0
230
1.0
 70
     8
 71
     3
 72
    21
 73
    17
 74
     0
 42
0.00000001
 43
0.00000001
 40
0.0
 40
0.0
 40
0.0
 40
0.0
 40
0.1206452089537063
 40
0.1803716807249861
 40
0.2401937574033124
 40
0.2998084963336872
 40
0.3602601366564789
 40
0.4212099647133669
 40
0.4828731499354831
 40
0.5449302383478575
 40
0.6076045721556698
 40
0.6707331651827352
 40
0.7343177652452941
 40
0.7987850104736574
 40
0.8643170543769323
 40
1.0
 40
1.0
 40
1.0
 40
1.0
 10
901.5480899921282
 20
18.01063980218237
 30
0.0
 10
901.5058970423979
 20
18.06736711403212
 30
0.0
 10
901.4399212764619
 20
18.15051203179524
 30
0.0
 10
901.3396696906675
 20
18.24965083849944
 30
0.0
 10
901.2615651380258
 20
18.32005610646298
 30
0.0
 10
901.1780731656643
 20
18.38471748377768
 30
0.0
 10
901.0906091557193
 20
18.44501377963964
 30
0.0
 10
900.9985526064929
 20
18.50042926300333
 30
0.0
 10
900.9026361186183
 20
18.5508960683643
 30
0.0
 10
900.8028891954508
 20
18.59585441946426
 30
0.0
 10
900.6997905054901
 20
18.63489135066004
 30
0.0
 10
900.5939902925005
 20
18.6690301488317
 30
0.0
 10
900.4848675664525
 20
18.69524313965454
 30
0.0
 10
900.3732570039715
 20
18.71633761812835
 30
0.0
 10
900.2187491607574
 20
18.73735715488856
 30
0.0
 10
900.1006257389364
 20
18.74276184673757
 30
0.0
 10
900.0210467228975
 20
18.74261095602853
 30
0.0
  0
SPLINE
  5
149
330
1F
100
AcDbEntity
  8
0
  6
Continuous
 62
     7
370
    25
100
AcDbSpline
210
0.0
220
0.0
230
1.0
 70
     8
 71
     3
 72
    21
 73
    17
 74
     0
 42
0.00000001
 43
0.00000001
 40
0.0
 40
0.0
 40
0.0
 40
0.0
 40
0.1331845384559983
 40
0.1965847352942951
 40
0.2587544543793638
 40
0.3203445244124414
 40
0.3817832144568563
 40
0.4437422312938974
 40
0.5072565632533994
 40
0.5705301560573333
 40
0.6317654853025177
 40
0.6922523181511615
 40
0.7519860872103654
 40
0.8120451897979085
 40
0.8729864684502401
 40
1.0
 40
1.0
 40
1.0
 40
1.0
 10
900.0210467228975
 20
18.74261095602853
 30
0.0
 10
899.8912434418861
 20
18.74235876640934
 30
0.0
 10
899.6993512168043
 20
18.72724228592432
 30
0.0
 10
899.4527774162337
 20
18.67230811021842
 30
0.0
 10
899.2792928585706
 20
18.61471921442714
 30
0.0
 10
899.1147747121498
 20
18.53970840308844
 30
0.0
 10
898.957992838087
 20
18.44999479660986
 30
0.0
 10
898.8106740262383
 20
18.34218753238293
 30
0.0
 10
898.6731066069342
 20
18.21964846988578
 30
0.0
 10
898.5476593700773
 20
18.08563364681165
 30
0.0
 10
898.437991032317
 20
17.9421168448356
 30
0.0
 10
898.3449687802478
 20
17.79127571677597
 30
0.0
 10
898.2696473540445
 20
17.63214513552713
 30
0.0
 10
898.2103109188113
 20
17.4659425278364
 30
0.0
 10
898.1534638542589
 20
17.23050170307922
 30
0.0
 10
898.1377706572829
 20
17.04700207805188
 30
0.0
 10
898.137833581872
 20
16.92319989833618
 30
0.0
  0
LINE
  5
14A
330
1F
100
AcDbEntity
  8
0
  6
Continuous
 62
     7
370
    25
100
AcDbLine
 10
1000.0
 20
705.0
 30
0.0
 11
0.0
 21
705.0
 31
0.0
  0
LINE
  5
14B
330
1F
100
AcDbEntity
  8
0
  6
Continuous
 62
     7
370
    25
100
AcDbLine
 10
1000.0
 20
0.0
 30
0.0
 11
1000.0
 21
705.0
 31
0.0
  0
LINE
  5
14C
330
1F
100
AcDbEntity
  8
0
  6
Continuous
 62
     7
370
    25
100
AcDbLine
 10
0.0
 20
0.0
 30
0.0
 11
1000.0
 21
0.0
 31
0.0
  0
LINE
  5
14D
330
1F
100
AcDbEntity
  8
0
  6
Continuous
 62
     7
370
    25
100
AcDbLine
 10
0.0
 20
705.0
 30
0.0
 11
0.0
 21
0.0
 31
0.0
  0
LINE
  5
14E
330
1F
100
AcDbEntity
  8
0
  6
Continuous
 62
     7
370
    25
100
AcDbLine
 10
951.9391156332
 20
15.1528673663
 30
0.0
 11
951.9391156332
 21
16.0124426868
 31
0.0
  0
LINE
  5
14F
330
1F
100
AcDbEntity
  8
0
  6
Continuous
 62
     7
370
    25
100
AcDbLine
 10
952.6640755691
 20
17.3957559881
 30
0.0
 11
952.8365515306
 21
17.6677912445
 31
0.0
  0
LINE
  5
150
330
1F
100
AcDbEntity
  8
0
  6
Continuous
 62
     7
370
    25
100
AcDbLine
 10
951.9391156332
 20
17.3340572701
 30
0.0
 11
951.9391156332
 21
17.710559674
 31
0.0
  0
LINE
  5
151
330
1F
100
AcDbEntity
  8
0
  6
Continuous
 62
     7
370
    25
100
AcDbLine
 10
951.9391156332
 20
17.710559674
 30
0.0
 11
951.6250130691
 21
17.710559674
 31
0.0
  0
LINE
  5
152
330
1F
100
AcDbEntity
  8
0
  6
Continuous
 62
     7
370
    25
100
AcDbLine
 10
951.6250130691
 20
17.710559674
 30
0.0
 11
951.6250130691
 21
15.1528673663
 31
0.0
  0
LINE
  5
153
330
1F
100
AcDbEntity
  8
0
  6
Continuous
 62
     7
370
    25
100
AcDbLine
 10
951.6250130691
 20
15.1528673663
 30
0.0
 11
951.9391156332
 21
15.1528673663
 31
0.0
  0
LINE
  5
154
330
1F
100
AcDbEntity
  8
0
  6
Continuous
 62
     7
370
    25
100
AcDbLine
 10
948.7980899921
 20
16.3644058278
 30
0.0
 11
951.0865515306
 21
16.3644058278
 31
0.0
  0
LINE
  5
155
330
1F
100
AcDbEntity
  8
0
  6
Continuous
 62
     7
370
    25
100
AcDbLine
 10
950.951936146
 20
15.8140252188
 30
0.0
 11
950.6728896716
 21
15.960559674
 31
0.0
  0
LINE
  5
156
330
1F
100
AcDbEntity
  8
0
  6
Continuous
 62
     7
370
    25
100
AcDbLine
 10
946.8686028126
 20
15.1528673663
 30
0.0
 11
948.0352694793
 21
17.710559674
 31
0.0
  0
LINE
  5
157
330
1F
100
AcDbEntity
  8
0
  6
Continuous
 62
     7
370
    25
100
AcDbLine
 10
948.0352694793
 20
17.710559674
 30
0.0
 11
947.6952254088
 21
17.710559674
 31
0.0
  0
LINE
  5
158
330
1F
100
AcDbEntity
  8
0
  6
Continuous
 62
     7
370
    25
100
AcDbLine
 10
947.6952254088
 20
17.710559674
 30
0.0
 11
946.8461669152
 21
15.8483801868
 31
0.0
  0
LINE
  5
159
330
1F
100
AcDbEntity
  8
0
  6
Continuous
 62
     7
370
    25
100
AcDbLine
 10
946.8461669152
 20
15.8483801868
 30
0.0
 11
945.9971084216
 21
17.710559674
 31
0.0
  0
LINE
  5
15A
330
1F
100
AcDbEntity
  8
0
  6
Continuous
 62
     7
370
    25
100
AcDbLine
 10
945.9971084216
 20
17.710559674
 30
0.0
 11
945.6570643511
 21
17.710559674
 31
0.0
  0
LINE
  5
15B
330
1F
100
AcDbEntity
  8
0
  6
Continuous
 62
     7
370
    25
100
AcDbLine
 10
945.6570643511
 20
17.710559674
 30
0.0
 11
946.8237310178
 21
15.1528673663
 31
0.0
  0
LINE
  5
15C
330
1F
100
AcDbEntity
  8
0
  6
Continuous
 62
     7
370
    25
100
AcDbLine
 10
946.8237310178
 20
15.1528673663
 30
0.0
 11
946.8686028126
 21
15.1528673663
 31
0.0
  0
LINE
  5
15D
330
1F
100
AcDbEntity
  8
0
  6
Continuous
 62
     7
370
    25
100
AcDbLine
 10
942.1121925562
 20
15.6983401227
 30
0.0
 11
941.8492718832
 21
15.8708160842
 31
0.0
  0
LINE
  5
15E
330
1F
100
AcDbEntity
  8
0
  6
Continuous
 62
     7
370
    25
100
AcDbLine
 10
941.8492718832
 20
16.992610956
 30
0.0
 11
942.1121925562
 21
17.1559723342
 31
0.0
  0
LINE
  5
15F
330
1F
100
AcDbEntity
  8
0
  6
Continuous
 62
     7
370
    25
100
AcDbLine
 10
936.5032181973
 20
17.710559674
 30
0.0
 11
936.5032181973
 21
17.3964571099
 31
0.0
  0
LINE
  5
160
330
1F
100
AcDbEntity
  8
0
  6
Continuous
 62
     7
370
    25
100
AcDbLine
 10
936.5032181973
 20
17.3964571099
 30
0.0
 11
936.951936146
 21
17.3964571099
 31
0.0
  0
LINE
  5
161
330
1F
100
AcDbEntity
  8
0
  6
Continuous
 62
     7
370
    25
100
AcDbLine
 10
936.951936146
 20
17.3964571099
 30
0.0
 11
936.951936146
 21
15.1528673663
 31
0.0
  0
LINE
  5
162
330
1F
100
AcDbEntity
  8
0
  6
Continuous
 62
     7
370
    25
100
AcDbLine
 10
936.951936146
 20
15.1528673663
 30
0.0
 11
937.2660387101
 21
15.1528673663
 31
0.0
  0
LINE
  5
163
330
1F
100
AcDbEntity
  8
0
  6
Continuous
 62
     7
370
    25
100
AcDbLine
 10
937.2660387101
 20
15.1528673663
 30
0.0
 11
937.2660387101
 21
17.3964571099
 31
0.0
  0
LINE
  5
164
330
1F
100
AcDbEntity
  8
0
  6
Continuous
 62
     7
370
    25
100
AcDbLine
 10
937.2660387101
 20
17.3964571099
 30
0.0
 11
937.7147566588
 21
17.3964571099
 31
0.0
  0
LINE
  5
165
330
1F
100
AcDbEntity
  8
0
  6
Continuous
 62
     7
370
    25
100
AcDbLine
 10
937.7147566588
 20
17.3964571099
 30
0.0
 11
937.7147566588
 21
17.710559674
 31
0.0
  0
LINE
  5
166
330
1F
100
AcDbEntity
  8
0
  6
Continuous
 62
     7
370
    25
100
AcDbLine
 10
937.7147566588
 20
17.710559674
 30
0.0
 11
937.2660387101
 21
17.710559674
 31
0.0
  0
LINE
  5
167
330
1F
100
AcDbEntity
  8
0
  6
Continuous
 62
     7
370
    25
100
AcDbLine
 10
937.2660387101
 20
17.710559674
 30
0.0
 11
937.2660387101
 21
18.742610956
 31
0.0
  0
LINE
  5
168
330
1F
100
AcDbEntity
  8
0
  6
Continuous
 62
     7
370
    25
100
AcDbLine
 10
937.2660387101
 20
18.742610956
 30
0.0
 11
936.951936146
 21
18.742610956
 31
0.0
  0
LINE
  5
169
330
1F
100
AcDbEntity
  8
0
  6
Continuous
 62
     7
370
    25
100
AcDbLine
 10
936.951936146
 20
18.742610956
 30
0.0
 11
936.951936146
 21
17.710559674
 31
0.0
  0
LINE
  5
16A
330
1F
100
AcDbEntity
  8
0
  6
Continuous
 62
     7
370
    25
100
AcDbLine
 10
936.951936146
 20
17.710559674
 30
0.0
 11
936.5032181973
 21
17.710559674
 31
0.0
  0
LINE
  5
16B
330
1F
100
AcDbEntity
  8
0
  6
Continuous
 62
     7
370
    25
100
AcDbLine
 10
933.9903976844
 20
15.1528673663
 30
0.0
 11
933.9903976844
 21
16.0776470137
 31
0.0
  0
LINE
  5
16C
330
1F
100
AcDbEntity
  8
0
  6
Continuous
 62
     7
370
    25
100
AcDbLine
 10
935.6057822998
 20
16.3559923663
 30
0.0
 11
935.6057822998
 21
15.1528673663
 31
0.0
  0
LINE
  5
16D
330
1F
100
AcDbEntity
  8
0
  6
Continuous
 62
     7
370
    25
100
AcDbLine
 10
935.6057822998
 20
15.1528673663
 30
0.0
 11
935.9198848639
 21
15.1528673663
 31
0.0
  0
LINE
  5
16E
330
1F
100
AcDbEntity
  8
0
  6
Continuous
 62
     7
370
    25
100
AcDbLine
 10
935.9198848639
 20
15.1528673663
 30
0.0
 11
935.9198848639
 21
16.4590572701
 31
0.0
  0
LINE
  5
16F
330
1F
100
AcDbEntity
  8
0
  6
Continuous
 62
     7
370
    25
100
AcDbLine
 10
933.9903976844
 20
17.249221533
 30
0.0
 11
933.9903976844
 21
17.710559674
 31
0.0
  0
LINE
  5
170
330
1F
100
AcDbEntity
  8
0
  6
Continuous
 62
     7
370
    25
100
AcDbLine
 10
933.9903976844
 20
17.710559674
 30
0.0
 11
933.6762951203
 21
17.710559674
 31
0.0
  0
LINE
  5
171
330
1F
100
AcDbEntity
  8
0
  6
Continuous
 62
     7
370
    25
100
AcDbLine
 10
933.6762951203
 20
17.710559674
 30
0.0
 11
933.6762951203
 21
15.1528673663
 31
0.0
  0
LINE
  5
172
330
1F
100
AcDbEntity
  8
0
  6
Continuous
 62
     7
370
    25
100
AcDbLine
 10
933.6762951203
 20
15.1528673663
 30
0.0
 11
933.9903976844
 21
15.1528673663
 31
0.0
  0
LINE
  5
173
330
1F
100
AcDbEntity
  8
0
  6
Continuous
 62
     7
370
    25
100
AcDbLine
 10
929.2788592229
 20
15.1528673663
 30
0.0
 11
929.2788592229
 21
16.0124426868
 31
0.0
  0
LINE
  5
174
330
1F
100
AcDbEntity
  8
0
  6
Continuous
 62
     7
370
    25
100
AcDbLine
 10
930.0038191588
 20
17.3957559881
 30
0.0
 11
930.1762951203
 21
17.6677912445
 31
0.0
  0
LINE
  5
175
330
1F
100
AcDbEntity
  8
0
  6
Continuous
 62
     7
370
    25
100
AcDbLine
 10
929.2788592229
 20
17.3340572701
 30
0.0
 11
929.2788592229
 21
17.710559674
 31
0.0
  0
LINE
  5
176
330
1F
100
AcDbEntity
  8
0
  6
Continuous
 62
     7
370
    25
100
AcDbLine
 10
929.2788592229
 20
17.710559674
 30
0.0
 11
928.9647566588
 21
17.710559674
 31
0.0
  0
LINE
  5
177
330
1F
100
AcDbEntity
  8
0
  6
Continuous
 62
     7
370
    25
100
AcDbLine
 10
928.9647566588
 20
17.710559674
 30
0.0
 11
928.9647566588
 21
15.1528673663
 31
0.0
  0
LINE
  5
178
330
1F
100
AcDbEntity
  8
0
  6
Continuous
 62
     7
370
    25
100
AcDbLine
 10
928.9647566588
 20
15.1528673663
 30
0.0
 11
929.2788592229
 21
15.1528673663
 31
0.0
  0
LINE
  5
179
330
1F
100
AcDbEntity
  8
0
  6
Continuous
 62
     7
370
    25
100
AcDbLine
 10
927.7083464024
 20
18.1193136804
 30
0.0
 11
927.7083464024
 21
17.710559674
 31
0.0
  0
LINE
  5
17A
330
1F
100
AcDbEntity
  8
0
  6
Continuous
 62
     7
370
    25
100
AcDbLine
 10
927.7083464024
 20
17.710559674
 30
0.0
 11
927.3493720434
 21
17.710559674
 31
0.0
  0
LINE
  5
17B
330
1F
100
AcDbEntity
  8
0
  6
Continuous
 62
     7
370
    25
100
AcDbLine
 10
927.3493720434
 20
17.710559674
 30
0.0
 11
927.3493720434
 21
17.3964571099
 31
0.0
  0
LINE
  5
17C
330
1F
100
AcDbEntity
  8
0
  6
Continuous
 62
     7
370
    25
100
AcDbLine
 10
927.3493720434
 20
17.3964571099
 30
0.0
 11
927.7083464024
 21
17.3964571099
 31
0.0
  0
LINE
  5
17D
330
1F
100
AcDbEntity
  8
0
  6
Continuous
 62
     7
370
    25
100
AcDbLine
 10
927.7083464024
 20
17.3964571099
 30
0.0
 11
927.7083464024
 21
15.1528673663
 31
0.0
  0
LINE
  5
17E
330
1F
100
AcDbEntity
  8
0
  6
Continuous
 62
     7
370
    25
100
AcDbLine
 10
927.7083464024
 20
15.1528673663
 30
0.0
 11
928.0224489665
 21
15.1528673663
 31
0.0
  0
LINE
  5
17F
330
1F
100
AcDbEntity
  8
0
  6
Continuous
 62
     7
370
    25
100
AcDbLine
 10
928.0224489665
 20
15.1528673663
 30
0.0
 11
928.0238512101
 21
17.3964571099
 31
0.0
  0
LINE
  5
180
330
1F
100
AcDbEntity
  8
0
  6
Continuous
 62
     7
370
    25
100
AcDbLine
 10
928.0238512101
 20
17.3964571099
 30
0.0
 11
928.5609105049
 21
17.3964571099
 31
0.0
  0
LINE
  5
181
330
1F
100
AcDbEntity
  8
0
  6
Continuous
 62
     7
370
    25
100
AcDbLine
 10
928.5609105049
 20
17.3964571099
 30
0.0
 11
928.5609105049
 21
17.710559674
 31
0.0
  0
LINE
  5
182
330
1F
100
AcDbEntity
  8
0
  6
Continuous
 62
     7
370
    25
100
AcDbLine
 10
928.5609105049
 20
17.710559674
 30
0.0
 11
928.0245523319
 21
17.710559674
 31
0.0
  0
LINE
  5
183
330
1F
100
AcDbEntity
  8
0
  6
Continuous
 62
     7
370
    25
100
AcDbLine
 10
928.0245523319
 20
17.710559674
 30
0.0
 11
928.0245523319
 21
18.0653273022
 31
0.0
  0
LINE
  5
184
330
1F
100
AcDbEntity
  8
0
  6
Continuous
 62
     7
370
    25
100
AcDbLine
 10
928.6057822998
 20
18.3948545458
 30
0.0
 11
928.6057822998
 21
18.7215773022
 31
0.0
  0
LINE
  5
185
330
1F
100
AcDbEntity
  8
0
  6
Continuous
 62
     7
370
    25
100
AcDbLine
 10
924.9711669152
 20
15.1528673663
 30
0.0
 11
924.9711669152
 21
16.0124426868
 31
0.0
  0
LINE
  5
186
330
1F
100
AcDbEntity
  8
0
  6
Continuous
 62
     7
370
    25
100
AcDbLine
 10
925.6961268511
 20
17.3957559881
 30
0.0
 11
925.8686028126
 21
17.6677912445
 31
0.0
  0
LINE
  5
187
330
1F
100
AcDbEntity
  8
0
  6
Continuous
 62
     7
370
    25
100
AcDbLine
 10
924.9711669152
 20
17.3340572701
 30
0.0
 11
924.9711669152
 21
17.710559674
 31
0.0
  0
LINE
  5
188
330
1F
100
AcDbEntity
  8
0
  6
Continuous
 62
     7
370
    25
100
AcDbLine
 10
924.9711669152
 20
17.710559674
 30
0.0
 11
924.6570643511
 21
17.710559674
 31
0.0
  0
LINE
  5
189
330
1F
100
AcDbEntity
  8
0
  6
Continuous
 62
     7
370
    25
100
AcDbLine
 10
924.6570643511
 20
17.710559674
 30
0.0
 11
924.6570643511
 21
15.1528673663
 31
0.0
  0
LINE
  5
18A
330
1F
100
AcDbEntity
  8
0
  6
Continuous
 62
     7
370
    25
100
AcDbLine
 10
924.6570643511
 20
15.1528673663
 30
0.0
 11
924.9711669152
 21
15.1528673663
 31
0.0
  0
LINE
  5
18B
330
1F
100
AcDbEntity
  8
0
  6
Continuous
 62
     7
370
    25
100
AcDbLine
 10
919.6601693191
 20
15.6913289047
 30
0.0
 11
919.451936146
 21
15.4543497381
 31
0.0
  0
LINE
  5
18C
330
1F
100
AcDbEntity
  8
0
  6
Continuous
 62
     7
370
    25
100
AcDbLine
 10
920.6746925562
 20
17.1720981355
 30
0.0
 11
920.8878335819
 21
17.3915492573
 31
0.0
  0
LINE
  5
18D
330
1F
100
AcDbEntity
  8
0
  6
Continuous
 62
     7
370
    25
100
AcDbLine
 10
917.7755539344
 20
15.6913289047
 30
0.0
 11
917.5673207614
 21
15.4543497381
 31
0.0
  0
LINE
  5
18E
330
1F
100
AcDbEntity
  8
0
  6
Continuous
 62
     7
370
    25
100
AcDbLine
 10
918.7900771716
 20
17.1720981355
 30
0.0
 11
919.0032181973
 21
17.3915492573
 31
0.0
  0
LINE
  5
18F
330
1F
100
AcDbEntity
  8
0
  6
Continuous
 62
     7
370
    25
100
AcDbLine
 10
914.8750130691
 20
16.3644058278
 30
0.0
 11
917.1634746075
 21
16.3644058278
 31
0.0
  0
LINE
  5
190
330
1F
100
AcDbEntity
  8
0
  6
Continuous
 62
     7
370
    25
100
AcDbLine
 10
917.0288592229
 20
15.8140252188
 30
0.0
 11
916.7498127485
 21
15.960559674
 31
0.0
  0
LINE
  5
191
330
1F
100
AcDbEntity
  8
0
  6
Continuous
 62
     7
370
    25
100
AcDbLine
 10
913.4391156332
 20
15.1528673663
 30
0.0
 11
913.4391156332
 21
16.0124426868
 31
0.0
  0
LINE
  5
192
330
1F
100
AcDbEntity
  8
0
  6
Continuous
 62
     7
370
    25
100
AcDbLine
 10
914.1640755691
 20
17.3957559881
 30
0.0
 11
914.3365515306
 21
17.6677912445
 31
0.0
  0
LINE
  5
193
330
1F
100
AcDbEntity
  8
0
  6
Continuous
 62
     7
370
    25
100
AcDbLine
 10
913.4391156332
 20
17.3340572701
 30
0.0
 11
913.4391156332
 21
17.710559674
 31
0.0
  0
LINE
  5
194
330
1F
100
AcDbEntity
  8
0
  6
Continuous
 62
     7
370
    25
100
AcDbLine
 10
913.4391156332
 20
17.710559674
 30
0.0
 11
913.1250130691
 21
17.710559674
 31
0.0
  0
LINE
  5
195
330
1F
100
AcDbEntity
  8
0
  6
Continuous
 62
     7
370
    25
100
AcDbLine
 10
913.1250130691
 20
17.710559674
 30
0.0
 11
913.1250130691
 21
15.1528673663
 31
0.0
  0
LINE
  5
196
330
1F
100
AcDbEntity
  8
0
  6
Continuous
 62
     7
370
    25
100
AcDbLine
 10
913.1250130691
 20
15.1528673663
 30
0.0
 11
913.4391156332
 21
15.1528673663
 31
0.0
  0
LINE
  5
197
330
1F
100
AcDbEntity
  8
0
  6
Continuous
 62
     7
370
    25
100
AcDbLine
 10
910.2083464024
 20
14.210559674
 30
0.0
 11
910.2083464024
 21
15.6163088727
 31
0.0
  0
LINE
  5
198
330
1F
100
AcDbEntity
  8
0
  6
Continuous
 62
     7
370
    25
100
AcDbLine
 10
910.2083464024
 20
17.2373024624
 30
0.0
 11
910.2083464024
 21
17.710559674
 31
0.0
  0
LINE
  5
199
330
1F
100
AcDbEntity
  8
0
  6
Continuous
 62
     7
370
    25
100
AcDbLine
 10
910.2083464024
 20
17.710559674
 30
0.0
 11
909.8942438383
 21
17.710559674
 31
0.0
  0
LINE
  5
19A
330
1F
100
AcDbEntity
  8
0
  6
Continuous
 62
     7
370
    25
100
AcDbLine
 10
909.8942438383
 20
17.710559674
 30
0.0
 11
909.8942438383
 21
14.210559674
 31
0.0
  0
LINE
  5
19B
330
1F
100
AcDbEntity
  8
0
  6
Continuous
 62
     7
370
    25
100
AcDbLine
 10
909.8942438383
 20
14.210559674
 30
0.0
 11
910.2083464024
 21
14.210559674
 31
0.0
  0
LINE
  5
19C
330
1F
100
AcDbEntity
  8
0
  6
Continuous
 62
     7
370
    25
100
AcDbLine
 10
905.6762951203
 20
15.1528673663
 30
0.0
 11
905.6762951203
 21
16.2290893214
 31
0.0
  0
LINE
  5
19D
330
1F
100
AcDbEntity
  8
0
  6
Continuous
 62
     7
370
    25
100
AcDbLine
 10
907.1121925562
 20
16.4534482958
 30
0.0
 11
907.1121925562
 21
15.1528673663
 31
0.0
  0
LINE
  5
19E
330
1F
100
AcDbEntity
  8
0
  6
Continuous
 62
     7
370
    25
100
AcDbLine
 10
907.1121925562
 20
15.1528673663
 30
0.0
 11
907.4262951203
 21
15.1528673663
 31
0.0
  0
LINE
  5
19F
330
1F
100
AcDbEntity
  8
0
  6
Continuous
 62
     7
370
    25
100
AcDbLine
 10
907.4262951203
 20
15.1528673663
 30
0.0
 11
907.4262951203
 21
16.1477591932
 31
0.0
  0
LINE
  5
1A0
330
1F
100
AcDbEntity
  8
0
  6
Continuous
 62
     7
370
    25
100
AcDbLine
 10
908.8621925562
 20
16.5396862765
 30
0.0
 11
908.8621925562
 21
15.1528673663
 31
0.0
  0
LINE
  5
1A1
330
1F
100
AcDbEntity
  8
0
  6
Continuous
 62
     7
370
    25
100
AcDbLine
 10
908.8621925562
 20
15.1528673663
 30
0.0
 11
909.1762951203
 21
15.1528673663
 31
0.0
  0
LINE
  5
1A2
330
1F
100
AcDbEntity
  8
0
  6
Continuous
 62
     7
370
    25
100
AcDbLine
 10
909.1762951203
 20
15.1528673663
 30
0.0
 11
909.1762951203
 21
16.538284033
 31
0.0
  0
LINE
  5
1A3
330
1F
100
AcDbEntity
  8
0
  6
Continuous
 62
     7
370
    25
100
AcDbLine
 10
905.6762951203
 20
17.266048456
 30
0.0
 11
905.6762951203
 21
17.710559674
 31
0.0
  0
LINE
  5
1A4
330
1F
100
AcDbEntity
  8
0
  6
Continuous
 62
     7
370
    25
100
AcDbLine
 10
905.6762951203
 20
17.710559674
 30
0.0
 11
905.3621925562
 21
17.710559674
 31
0.0
  0
LINE
  5
1A5
330
1F
100
AcDbEntity
  8
0
  6
Continuous
 62
     7
370
    25
100
AcDbLine
 10
905.3621925562
 20
17.710559674
 30
0.0
 11
905.3621925562
 21
15.1528673663
 31
0.0
  0
LINE
  5
1A6
330
1F
100
AcDbEntity
  8
0
  6
Continuous
 62
     7
370
    25
100
AcDbLine
 10
905.3621925562
 20
15.1528673663
 30
0.0
 11
905.6762951203
 21
15.1528673663
 31
0.0
  0
LINE
  5
1A7
330
1F
100
AcDbEntity
  8
0
  6
Continuous
 62
     7
370
    25
100
AcDbLine
 10
901.5480899921
 20
15.7971982958
 30
0.0
 11
901.2732502485
 21
16.0054314688
 31
0.0
  0
LINE
  5
1A8
330
1F
100
AcDbEntity
  8
0
  6
Continuous
 62
     7
370
    25
100
AcDbLine
 10
901.2732502485
 20
17.8003032637
 30
0.0
 11
901.5480899921
 21
18.0106398022
 31
0.0
  0
MTEXT
  5
1AA
330
1F
100
AcDbEntity
  8
0
  6
Continuous
 62
     7
100
AcDbMText
 10
0.0
 20
-1.0195663917
 30
0.0
 40
4.83362
 41
0.0
 71
     1
 72
     1
  1
SOLIDWORKS Educational Product.
  7
SLDTEXTSTYLE0
 73
     1
 44
1.0
  0
MTEXT
  5
1AB
330
1F
100
AcDbEntity
  8
0
  6
Continuous
 62
     7
100
AcDbMText
 10
0.0
 20
-8.2699963917
 30
0.0
 40
4.83362
 41
0.0
 71
     1
 72
     1
  1
For Instructional Use Only.
  7
SLDTEXTSTYLE0
 73
     1
 44
1.0
  0
ENDSEC
  0
SECTION
  2
OBJECTS
  0
DICTIONARY
  5
C
330
0
100
AcDbDictionary
281
     1
  3
ACAD_GROUP
350
D
  3
ACAD_LAYOUT
350
1A
  3
ACAD_MLINESTYLE
350
17
  3
ACAD_PLOTSETTINGS
350
19
  3
ACAD_PLOTSTYLENAME
350
E
  3
ACAD_SCALELIST
350
47
  3
DWGPROPS
350
1AC
  0
DICTIONARY
  5
D
102
{ACAD_REACTORS
330
C
102
}
330
C
100
AcDbDictionary
281
     1
  0
DICTIONARY
  5
1A
102
{ACAD_REACTORS
330
C
102
}
330
C
100
AcDbDictionary
281
     1
  3
Layout1
350
1E
  3
Layout2
350
26
  3
Model
350
22
  0
DICTIONARY
  5
17
102
{ACAD_REACTORS
330
C
102
}
330
C
100
AcDbDictionary
281
     1
  3
Standard
350
18
  0
DICTIONARY
  5
19
102
{ACAD_REACTORS
330
C
102
}
330
C
100
AcDbDictionary
281
     1
  0
ACDBDICTIONARYWDFLT
  5
E
102
{ACAD_REACTORS
330
C
102
}
330
C
100
AcDbDictionary
281
     1
  3
Normal
350
F
100
AcDbDictionaryWithDefault
340
F
  0
DICTIONARY
  5
47
102
{ACAD_REACTORS
330
C
102
}
330
C
100
AcDbDictionary
281
     1
  3
A0
350
48
  3
A1
350
49
  3
A2
350
4A
  3
A3
350
4B
  3
A4
350
4C
  3
A5
350
4D
  3
A6
350
4E
  3
A7
350
4F
  3
A8
350
50
  3
A9
350
51
  3
B0
350
52
  3
B1
350
53
  3
B2
350
54
  3
B3
350
55
  3
B4
350
56
  3
B5
350
57
  3
B6
350
58
  0
XRECORD
  5
1AC
102
{ACAD_REACTORS
330
C
102
}
330
C
100
AcDbXrecord
280
     1
  1
DWGPROPS COOKIE
  2

  3

  4

  6

  7

  8
anast
  9

300
=
301
=
302
=
303
=
304
=
305
=
306
=
307
=
308
=
309
=
 40
0.0
 41
2460808.389351678
 42
2460808.389428345
  1

 90
        0
  0
LAYOUT
  5
1E
102
{ACAD_REACTORS
330
1A
102
}
330
1A
100
AcDbPlotSettings
  1

  2
none_device
  4

  6

 40
0.0
 41
0.0
 42
0.0
 43
0.0
 44
0.0
 45
0.0
 46
0.0
 47
0.0
 48
0.0
 49
0.0
140
0.0
141
0.0
142
1.0
143
1.0
 70
   688
 72
     1
 73
     0
 74
     5
  7

 75
    16
147
1.0
148
0.0
149
0.0
100
AcDbLayout
  1
Layout1
 70
     1
 71
     1
 10
0.0
 20
0.0
 11
420.0
 21
297.0
 12
0.0
 22
0.0
 32
0.0
 14
1.0000000000E+20
 24
1.0000000000E+20
 34
1.0000000000E+20
 15
-1.0000000000E+20
 25
-1.0000000000E+20
 35
-1.0000000000E+20
146
0.0
 13
0.0
 23
0.0
 33
0.0
 16
1.0
 26
0.0
 36
0.0
 17
0.0
 27
1.0
 37
0.0
 76
     0
330
1B
  0
LAYOUT
  5
26
102
{ACAD_REACTORS
330
1A
102
}
330
1A
100
AcDbPlotSettings
  1

  2
none_device
  4

  6

 40
0.0
 41
0.0
 42
0.0
 43
0.0
 44
0.0
 45
0.0
 46
0.0
 47
0.0
 48
0.0
 49
0.0
140
0.0
141
0.0
142
1.0
143
1.0
 70
   688
 72
     1
 73
     0
 74
     5
  7

 75
    16
147
1.0
148
0.0
149
0.0
100
AcDbLayout
  1
Layout2
 70
     1
 71
     2
 10
0.0
 20
0.0
 11
0.0
 21
0.0
 12
0.0
 22
0.0
 32
0.0
 14
0.0
 24
0.0
 34
0.0
 15
0.0
 25
0.0
 35
0.0
146
0.0
 13
0.0
 23
0.0
 33
0.0
 16
1.0
 26
0.0
 36
0.0
 17
0.0
 27
1.0
 37
0.0
 76
     0
330
23
  0
LAYOUT
  5
22
102
{ACAD_REACTORS
330
1A
102
}
330
1A
100
AcDbPlotSettings
  1

  2
none_device
  4
ANSI_A_(11.00_x_8.50_Inches)
  6

 40
6.35
 41
19.05
 42
6.35000508
 43
19.05000254
 44
279.4
 45
215.9
 46
-4.95300254
 47
-8.60361627
 48
0.0
 49
0.0
140
0.0
141
0.0
142
0.01089
143
1.0
 70
  1696
 72
     0
 73
     0
 74
     0
  7

 75
     0
147
0.0179189148
148
-1300.4909072572
149
0.0
100
AcDbLayout
  1
Model
 70
     1
 71
     0
 10
0.0
 20
0.0
 11
420.0
 21
297.0
 12
0.0
 22
0.0
 32
0.0
 14
0.0
 24
0.0
 34
0.0
 15
1000.0
 25
705.0
 35
0.0
146
0.0
 13
0.0
 23
0.0
 33
0.0
 16
1.0
 26
0.0
 36
0.0
 17
0.0
 27
1.0
 37
0.0
 76
     0
330
1F
331
29
  0
MLINESTYLE
  5
18
102
{ACAD_REACTORS
330
17
102
}
330
17
100
AcDbMlineStyle
  2
Standard
 70
     0
  3

 62
   256
 51
90.0
 52
90.0
 71
     2
 49
0.5
 62
   256
  6
BYLAYER
 49
-0.5
 62
   256
  6
BYLAYER
  0
ACDBPLACEHOLDER
  5
F
102
{ACAD_REACTORS
330
E
102
}
330
E
  0
SCALE
  5
48
102
{ACAD_REACTORS
330
47
102
}
330
47
100
AcDbScale
 70
     0
300
1:1
140
1.0
141
1.0
290
     1
  0
SCALE
  5
49
102
{ACAD_REACTORS
330
47
102
}
330
47
100
AcDbScale
 70
     0
300
1:2
140
1.0
141
2.0
290
     0
  0
SCALE
  5
4A
102
{ACAD_REACTORS
330
47
102
}
330
47
100
AcDbScale
 70
     0
300
1:4
140
1.0
141
4.0
290
     0
  0
SCALE
  5
4B
102
{ACAD_REACTORS
330
47
102
}
330
47
100
AcDbScale
 70
     0
300
1:5
140
1.0
141
5.0
290
     0
  0
SCALE
  5
4C
102
{ACAD_REACTORS
330
47
102
}
330
47
100
AcDbScale
 70
     0
300
1:8
140
1.0
141
8.0
290
     0
  0
SCALE
  5
4D
102
{ACAD_REACTORS
330
47
102
}
330
47
100
AcDbScale
 70
     0
300
1:10
140
1.0
141
10.0
290
     0
  0
SCALE
  5
4E
102
{ACAD_REACTORS
330
47
102
}
330
47
100
AcDbScale
 70
     0
300
1:16
140
1.0
141
16.0
290
     0
  0
SCALE
  5
4F
102
{ACAD_REACTORS
330
47
102
}
330
47
100
AcDbScale
 70
     0
300
1:20
140
1.0
141
20.0
290
     0
  0
SCALE
  5
50
102
{ACAD_REACTORS
330
47
102
}
330
47
100
AcDbScale
 70
     0
300
1:30
140
1.0
141
30.0
290
     0
  0
SCALE
  5
51
102
{ACAD_REACTORS
330
47
102
}
330
47
100
AcDbScale
 70
     0
300
1:40
140
1.0
141
40.0
290
     0
  0
SCALE
  5
52
102
{ACAD_REACTORS
330
47
102
}
330
47
100
AcDbScale
 70
     0
300
1:50
140
1.0
141
50.0
290
     0
  0
SCALE
  5
53
102
{ACAD_REACTORS
330
47
102
}
330
47
100
AcDbScale
 70
     0
300
1:100
140
1.0
141
100.0
290
     0
  0
SCALE
  5
54
102
{ACAD_REACTORS
330
47
102
}
330
47
100
AcDbScale
 70
     0
300
2:1
140
2.0
141
1.0
290
     0
  0
SCALE
  5
55
102
{ACAD_REACTORS
330
47
102
}
330
47
100
AcDbScale
 70
     0
300
4:1
140
4.0
141
1.0
290
     0
  0
SCALE
  5
56
102
{ACAD_REACTORS
330
47
102
}
330
47
100
AcDbScale
 70
     0
300
8:1
140
8.0
141
1.0
290
     0
  0
SCALE
  5
57
102
{ACAD_REACTORS
330
47
102
}
330
47
100
AcDbScale
 70
     0
300
10:1
140
10.0
141
1.0
290
     0
  0
SCALE
  5
58
102
{ACAD_REACTORS
330
47
102
}
330
47
100
AcDbScale
 70
     0
300
100:1
140
100.0
141
1.0
290
     0
  0
ENDSEC
  0
EOF
