  0
SECTION
  2
HEADER
  9
$ACADVER
  1
AC1015
  9
$ACADMAINTVER
 70
     6
  9
$DWGCODEPAGE
  3
ANSI_1252
  9
$INSBASE
 10
0.0
 20
0.0
 30
0.0
  9
$EXTMIN
 10
0.0
 20
-710.0
 30
0.0
  9
$EXTMAX
 10
405.0
 20
0.0000000095
 30
0.0
  9
$LIMMIN
 10
0.0
 20
0.0
  9
$LIMMAX
 10
420.0
 20
297.0
  9
$ORTHOMODE
 70
     0
  9
$REGENMODE
 70
     1
  9
$FILLMODE
 70
     1
  9
$QTEXTMODE
 70
     0
  9
$MIRRTEXT
 70
     1
  9
$LTSCALE
 40
1.0
  9
$ATTMODE
 70
     1
  9
$TEXTSIZE
 40
3.5
  9
$TRACEWID
 40
1.0
  9
$TEXTSTYLE
  7
Standard
  9
$CLAYER
  8
0
  9
$CELTYPE
  6
ByLayer
  9
$CECOLOR
 62
   256
  9
$CELTSCALE
 40
1.0
  9
$DISPSILH
 70
     0
  9
$DIMSCALE
 40
1.0
  9
$DIMASZ
 40
3.302
  9
$DIMEXO
 40
0.0
  9
$DIMDLI
 40
3.75
  9
$DIMRND
 40
0.0
  9
$DIMDLE
 40
0.0
  9
$DIMEXE
 40
1.0
  9
$DIMTP
 40
0.0
  9
$DIMTM
 40
0.0
  9
$DIMTXT
 40
3.5
  9
$DIMCEN
 40
2.5
  9
$DIMTSZ
 40
0.0
  9
$DIMTOL
 70
     0
  9
$DIMLIM
 70
     0
  9
$DIMTIH
 70
     1
  9
$DIMTOH
 70
     1
  9
$DIMSE1
 70
     0
  9
$DIMSE2
 70
     0
  9
$DIMTAD
 70
     1
  9
$DIMZIN
 70
     1
  9
$DIMBLK
  1

  9
$DIMASO
 70
     1
  9
$DIMSHO
 70
     1
  9
$DIMPOST
  1

  9
$DIMAPOST
  1

  9
$DIMALT
 70
     0
  9
$DIMALTD
 70
     3
  9
$DIMALTF
 40
0.0393700787
  9
$DIMLFAC
 40
1.0
  9
$DIMTOFL
 70
     1
  9
$DIMTVP
 40
0.0
  9
$DIMTIX
 70
     0
  9
$DIMSOXD
 70
     0
  9
$DIMSAH
 70
     0
  9
$DIMBLK1
  1

  9
$DIMBLK2
  1

  9
$DIMSTYLE
  2
ISO-25
  9
$DIMCLRD
 70
     0
  9
$DIMCLRE
 70
     0
  9
$DIMCLRT
 70
     0
  9
$DIMTFAC
 40
1.0
  9
$DIMGAP
 40
1.524
  9
$DIMJUST
 70
     0
  9
$DIMSD1
 70
     0
  9
$DIMSD2
 70
     0
  9
$DIMTOLJ
 70
     0
  9
$DIMTZIN
 70
     1
  9
$DIMALTZ
 70
     0
  9
$DIMALTTZ
 70
     0
  9
$DIMUPT
 70
     0
  9
$DIMDEC
 70
     2
  9
$DIMTDEC
 70
     2
  9
$DIMALTU
 70
     2
  9
$DIMALTTD
 70
     3
  9
$DIMTXSTY
  7
Standard
  9
$DIMAUNIT
 70
     0
  9
$DIMADEC
 70
     2
  9
$DIMALTRND
 40
0.0
  9
$DIMAZIN
 70
     0
  9
$DIMDSEP
 70
    44
  9
$DIMATFIT
 70
     3
  9
$DIMFRAC
 70
     0
  9
$DIMLDRBLK
  1

  9
$DIMLUNIT
 70
     2
  9
$DIMLWD
 70
    -2
  9
$DIMLWE
 70
    -2
  9
$DIMTMOVE
 70
     0
  9
$LUNITS
 70
     2
  9
$LUPREC
 70
     6
  9
$SKETCHINC
 40
1.0
  9
$FILLETRAD
 40
0.0
  9
$AUNITS
 70
     0
  9
$AUPREC
 70
     2
  9
$MENU
  1
.
  9
$ELEVATION
 40
0.0
  9
$PELEVATION
 40
0.0
  9
$THICKNESS
 40
0.0
  9
$LIMCHECK
 70
     0
  9
$CHAMFERA
 40
0.0
  9
$CHAMFERB
 40
0.0
  9
$CHAMFERC
 40
0.0
  9
$CHAMFERD
 40
0.0
  9
$SKPOLY
 70
     0
  9
$TDCREATE
 40
2460875.541389121
  9
$TDUCREATE
 40
2460875.458055788
  9
$TDUPDATE
 40
2460875.541903009
  9
$TDUUPDATE
 40
2460875.458569676
  9
$TDINDWG
 40
0.0000000116
  9
$TDUSRTIMER
 40
0.0000000116
  9
$USRTIMER
 70
     1
  9
$ANGBASE
 50
0.0
  9
$ANGDIR
 70
     0
  9
$PDMODE
 70
     0
  9
$PDSIZE
 40
-1.0
  9
$PLINEWID
 40
0.0
  9
$SPLFRAME
 70
     0
  9
$SPLINETYPE
 70
     6
  9
$SPLINESEGS
 70
     8
  9
$HANDSEED
  5
135
  9
$SURFTAB1
 70
     6
  9
$SURFTAB2
 70
     6
  9
$SURFTYPE
 70
     6
  9
$SURFU
 70
     6
  9
$SURFV
 70
     6
  9
$UCSBASE
  2

  9
$UCSNAME
  2

  9
$UCSORG
 10
0.0
 20
0.0
 30
0.0
  9
$UCSXDIR
 10
1.0
 20
0.0
 30
0.0
  9
$UCSYDIR
 10
0.0
 20
1.0
 30
0.0
  9
$UCSORTHOREF
  2

  9
$UCSORTHOVIEW
 70
     0
  9
$UCSORGTOP
 10
0.0
 20
0.0
 30
0.0
  9
$UCSORGBOTTOM
 10
0.0
 20
0.0
 30
0.0
  9
$UCSORGLEFT
 10
0.0
 20
0.0
 30
0.0
  9
$UCSORGRIGHT
 10
0.0
 20
0.0
 30
0.0
  9
$UCSORGFRONT
 10
0.0
 20
0.0
 30
0.0
  9
$UCSORGBACK
 10
0.0
 20
0.0
 30
0.0
  9
$PUCSBASE
  2

  9
$PUCSNAME
  2

  9
$PUCSORG
 10
0.0
 20
0.0
 30
0.0
  9
$PUCSXDIR
 10
1.0
 20
0.0
 30
0.0
  9
$PUCSYDIR
 10
0.0
 20
1.0
 30
0.0
  9
$PUCSORTHOREF
  2

  9
$PUCSORTHOVIEW
 70
     0
  9
$PUCSORGTOP
 10
0.0
 20
0.0
 30
0.0
  9
$PUCSORGBOTTOM
 10
0.0
 20
0.0
 30
0.0
  9
$PUCSORGLEFT
 10
0.0
 20
0.0
 30
0.0
  9
$PUCSORGRIGHT
 10
0.0
 20
0.0
 30
0.0
  9
$PUCSORGFRONT
 10
0.0
 20
0.0
 30
0.0
  9
$PUCSORGBACK
 10
0.0
 20
0.0
 30
0.0
  9
$USERI1
 70
     0
  9
$USERI2
 70
     0
  9
$USERI3
 70
     0
  9
$USERI4
 70
     0
  9
$USERI5
 70
     0
  9
$USERR1
 40
0.0
  9
$USERR2
 40
0.0
  9
$USERR3
 40
0.0
  9
$USERR4
 40
0.0
  9
$USERR5
 40
0.0
  9
$WORLDVIEW
 70
     1
  9
$SHADEDGE
 70
     3
  9
$SHADEDIF
 70
    70
  9
$TILEMODE
 70
     1
  9
$MAXACTVP
 70
    64
  9
$PINSBASE
 10
0.0
 20
0.0
 30
0.0
  9
$PLIMCHECK
 70
     0
  9
$PEXTMIN
 10
1.0000000000E+20
 20
1.0000000000E+20
 30
1.0000000000E+20
  9
$PEXTMAX
 10
-1.0000000000E+20
 20
-1.0000000000E+20
 30
-1.0000000000E+20
  9
$PLIMMIN
 10
0.0
 20
0.0
  9
$PLIMMAX
 10
420.0
 20
297.0
  9
$UNITMODE
 70
     0
  9
$VISRETAIN
 70
     1
  9
$PLINEGEN
 70
     0
  9
$PSLTSCALE
 70
     1
  9
$TREEDEPTH
 70
  3020
  9
$CMLSTYLE
  2
Standard
  9
$CMLJUST
 70
     0
  9
$CMLSCALE
 40
20.0
  9
$PROXYGRAPHICS
 70
     1
  9
$MEASUREMENT
 70
     1
  9
$CELWEIGHT
370
    -1
  9
$ENDCAPS
280
     0
  9
$JOINSTYLE
280
     0
  9
$LWDISPLAY
290
     1
  9
$INSUNITS
 70
     4
  9
$HYPERLINKBASE
  1

  9
$STYLESHEET
  1

  9
$XEDIT
290
     1
  9
$CEPSNTYPE
380
     0
  9
$PSTYLEMODE
290
     1
  9
$FINGERPRINTGUID
  2
{fbc07399-3f01-4d83-8803-e5200fbb3019}
  9
$VERSIONGUID
  2
{FAEB1C32-E019-11D5-929B-00C0DF256EC4}
  9
$EXTNAMES
290
     1
  9
$PSVPSCALE
 40
0.0
  9
$OLESTARTUP
290
     0
  0
ENDSEC
  0
SECTION
  2
CLASSES
  0
CLASS
  1
ACDBDICTIONARYWDFLT
  2
AcDbDictionaryWithDefault
  3
ObjectDBX Classes
 90
        0
280
     0
281
     0
  0
CLASS
  1
VISUALSTYLE
  2
AcDbVisualStyle
  3
ObjectDBX Classes
 90
     4095
280
     0
281
     0
  0
CLASS
  1
MATERIAL
  2
AcDbMaterial
  3
ObjectDBX Classes
 90
     1153
280
     0
281
     0
  0
CLASS
  1
SCALE
  2
AcDbScale
  3
ObjectDBX Classes
 90
     1153
280
     0
281
     0
  0
CLASS
  1
TABLESTYLE
  2
AcDbTableStyle
  3
ObjectDBX Classes
 90
     4095
280
     0
281
     0
  0
CLASS
  1
MLEADERSTYLE
  2
AcDbMLeaderStyle
  3
ACDB_MLEADERSTYLE_CLASS
 90
     4095
280
     0
281
     0
  0
CLASS
  1
SUN
  2
AcDbSun
  3
SCENEOE
 90
     1153
280
     0
281
     0
  0
CLASS
  1
ACDBPLACEHOLDER
  2
AcDbPlaceHolder
  3
ObjectDBX Classes
 90
        0
280
     0
281
     0
  0
CLASS
  1
LAYOUT
  2
AcDbLayout
  3
ObjectDBX Classes
 90
        0
280
     0
281
     0
  0
ENDSEC
  0
SECTION
  2
TABLES
  0
TABLE
  2
VPORT
  5
8
330
0
100
AcDbSymbolTable
 70
     1
  0
VPORT
  5
29
330
8
100
AcDbSymbolTableRecord
100
AcDbViewportTableRecord
  2
*Active
 70
     0
 10
0.0
 20
0.0
 11
1.0
 21
1.0
 12
202.5
 22
-354.9999999952
 13
0.0
 23
0.0
 14
10.0
 24
10.0
 15
10.0
 25
10.0
 16
0.0
 26
0.0
 36
1.0
 17
0.0
 27
0.0
 37
0.0
 40
724.2000000097
 41
0.5704225352
 42
50.0
 43
0.0
 44
0.0
 50
0.0
 51
0.0
 71
     0
 72
   100
 73
     1
 74
     3
 75
     0
 76
     0
 77
     0
 78
     0
281
     0
 65
     1
110
0.0
120
0.0
130
0.0
111
1.0
121
0.0
131
0.0
112
0.0
122
1.0
132
0.0
 79
     0
146
0.0
  0
ENDTAB
  0
TABLE
  2
LTYPE
  5
5
330
0
100
AcDbSymbolTable
 70
     6
  0
LTYPE
  5
14
330
5
100
AcDbSymbolTableRecord
100
AcDbLinetypeTableRecord
  2
ByBlock
 70
     0
  3

 72
    65
 73
     0
 40
0.0
  0
LTYPE
  5
15
330
5
100
AcDbSymbolTableRecord
100
AcDbLinetypeTableRecord
  2
ByLayer
 70
     0
  3

 72
    65
 73
     0
 40
0.0
  0
LTYPE
  5
16
330
5
100
AcDbSymbolTableRecord
100
AcDbLinetypeTableRecord
  2
Continuous
 70
     0
  3
Solid line
 72
    65
 73
     0
 40
0.0
  0
LTYPE
  5
5E
330
5
100
AcDbSymbolTableRecord
100
AcDbLinetypeTableRecord
  2
HIDDEN
 70
     0
  3
Hidden __ __ __ __ __ __ __ __ __ __ __ __ __ __
 72
    65
 73
     2
 40
1.905
 49
1.27
 74
     0
 49
-0.635
 74
     0
  0
LTYPE
  5
5F
330
5
100
AcDbSymbolTableRecord
100
AcDbLinetypeTableRecord
  2
PHANTOM
 70
     0
  3
Phantom ______  __  __  ______  __  __  ______
 72
    65
 73
     6
 40
12.7
 49
6.35
 74
     0
 49
-1.27
 74
     0
 49
1.27
 74
     0
 49
-1.27
 74
     0
 49
1.27
 74
     0
 49
-1.27
 74
     0
  0
LTYPE
  5
60
330
5
100
AcDbSymbolTableRecord
100
AcDbLinetypeTableRecord
  2
CENTER
 70
     0
  3
Center ____ _ ____ _ ____ _ ____ _ ____ _ ____
 72
    65
 73
     4
 40
10.16
 49
6.35
 74
     0
 49
-1.27
 74
     0
 49
1.27
 74
     0
 49
-1.27
 74
     0
  0
LTYPE
  5
61
330
5
100
AcDbSymbolTableRecord
100
AcDbLinetypeTableRecord
  2
CENTERX2
 70
     0
  3
Center (2x) ________  __  ________  __  _____
 72
    65
 73
     4
 40
20.32
 49
12.7
 74
     0
 49
-2.54
 74
     0
 49
2.54
 74
     0
 49
-2.54
 74
     0
  0
LTYPE
  5
62
330
5
100
AcDbSymbolTableRecord
100
AcDbLinetypeTableRecord
  2
DOT2
 70
     0
  3
Dot (.5x) ........................................
 72
    65
 73
     2
 40
0.635
 49
0.0
 74
     0
 49
-0.635
 74
     0
  0
ENDTAB
  0
TABLE
  2
LAYER
  5
2
330
0
100
AcDbSymbolTable
 70
     1
  0
LAYER
  5
10
330
2
100
AcDbSymbolTableRecord
100
AcDbLayerTableRecord
  2
0
 70
     0
 62
     7
  6
Continuous
370
    -3
390
F
  0
ENDTAB
  0
TABLE
  2
STYLE
  5
3
330
0
100
AcDbSymbolTable
 70
     2
  0
STYLE
  5
11
330
3
100
AcDbSymbolTableRecord
100
AcDbTextStyleTableRecord
  2
Standard
 70
     0
 40
0.0
 41
1.0
 50
0.0
 71
     0
 42
3.5
  3
txt
  4

  0
STYLE
  5
131
330
3
100
AcDbSymbolTableRecord
100
AcDbTextStyleTableRecord
  2
SLDTEXTSTYLE0
 70
     0
 40
0.0
 41
0.7
 50
0.0
 71
     0
 42
3.5
  3
TXT
  4

  0
ENDTAB
  0
TABLE
  2
VIEW
  5
6
330
0
100
AcDbSymbolTable
 70
     0
  0
ENDTAB
  0
TABLE
  2
UCS
  5
7
330
0
100
AcDbSymbolTable
 70
     0
  0
ENDTAB
  0
TABLE
  2
APPID
  5
9
330
0
100
AcDbSymbolTable
 70
     1
  0
APPID
  5
12
330
9
100
AcDbSymbolTableRecord
100
AcDbRegAppTableRecord
  2
ACAD
 70
     0
  0
ENDTAB
  0
TABLE
  2
DIMSTYLE
  5
A
330
0
100
AcDbSymbolTable
 70
     1
100
AcDbDimStyleTable
  0
DIMSTYLE
105
27
330
A
100
AcDbSymbolTableRecord
100
AcDbDimStyleTableRecord
  2
ISO-25
 70
     0
 41
2.5
 42
0.625
 43
3.75
 44
1.25
 73
     0
 74
     0
 77
     1
 78
     8
140
2.5
141
2.5
143
0.0393700787
147
0.625
171
     3
172
     1
178
     0
271
     2
272
     2
274
     3
278
    44
283
     0
284
     8
340
11
  0
ENDTAB
  0
TABLE
  2
BLOCK_RECORD
  5
1
330
0
100
AcDbSymbolTable
 70
     1
  0
BLOCK_RECORD
  5
1F
330
1
100
AcDbSymbolTableRecord
100
AcDbBlockTableRecord
  2
*Model_Space
340
22
  0
BLOCK_RECORD
  5
1B
330
1
100
AcDbSymbolTableRecord
100
AcDbBlockTableRecord
  2
*Paper_Space
340
1E
  0
BLOCK_RECORD
  5
23
330
1
100
AcDbSymbolTableRecord
100
AcDbBlockTableRecord
  2
*Paper_Space0
340
26
  0
ENDTAB
  0
ENDSEC
  0
SECTION
  2
BLOCKS
  0
BLOCK
  5
20
330
1F
100
AcDbEntity
  8
0
100
AcDbBlockBegin
  2
*Model_Space
 70
     0
 10
0.0
 20
0.0
 30
0.0
  3
*Model_Space
  1

  0
ENDBLK
  5
21
330
1F
100
AcDbEntity
  8
0
100
AcDbBlockEnd
  0
BLOCK
  5
1C
330
1B
100
AcDbEntity
 67
     1
  8
0
100
AcDbBlockBegin
  2
*Paper_Space
 70
     0
 10
0.0
 20
0.0
 30
0.0
  3
*Paper_Space
  1

  0
ENDBLK
  5
1D
330
1B
100
AcDbEntity
 67
     1
  8
0
100
AcDbBlockEnd
  0
BLOCK
  5
24
330
23
100
AcDbEntity
  8
0
100
AcDbBlockBegin
  2
*Paper_Space0
 70
     0
 10
0.0
 20
0.0
 30
0.0
  3
*Paper_Space0
  1

  0
ENDBLK
  5
25
330
23
100
AcDbEntity
  8
0
100
AcDbBlockEnd
  0
ENDSEC
  0
SECTION
  2
ENTITIES
  0
SPLINE
  5
63
330
1F
100
AcDbEntity
  8
0
  6
Continuous
 62
     7
370
    25
100
AcDbSpline
210
0.0
220
0.0
230
1.0
 70
     8
 71
     3
 72
    10
 73
     6
 74
     0
 42
0.00000001
 43
0.00000001
 40
0.0
 40
0.0
 40
0.0
 40
0.0
 40
0.0687422616054891
 40
0.1346351922242768
 40
0.1795010329040216
 40
0.1795010329040216
 40
0.1795010329040216
 40
0.1795010329040216
 10
5.543068910256411
 20
-0.0448717948717814
 30
0.0
 10
5.495334190747464
 20
-0.0436505986540769
 30
0.0
 10
5.401843331023615
 20
-0.0412588241667233
 30
0.0
 10
5.278094153765012
 20
-0.0245352394932508
 30
0.0
 10
5.202935700759859
 20
-0.0078769092986541
 30
0.0
 10
5.172790941845112
 20
-0.000000003001821
 30
0.0
  0
SPLINE
  5
64
330
1F
100
AcDbEntity
  8
0
  6
Continuous
 62
     7
370
    25
100
AcDbSpline
210
0.0
220
0.0
230
1.0
 70
     8
 71
     3
 72
    10
 73
     6
 74
     0
 42
0.00000001
 43
0.00000001
 40
0.8209625013384573
 40
0.8209625013384573
 40
0.8209625013384573
 40
0.8209625013384573
 40
0.8658658412779715
 40
0.9315077951965114
 40
1.0
 40
1.0
 40
1.0
 40
1.0
 10
5.911903283785519
 20
0.0000000090594754
 30
0.0
 10
5.881770043409867
 20
-0.0078677511931025
 30
0.0
 10
5.806855067689049
 20
-0.0244788958555509
 30
0.0
 10
5.683598121859978
 20
-0.0412711104029184
 30
0.0
 10
5.59057090049378
 20
-0.0436546836638518
 30
0.0
 10
5.543068910256411
 20
-0.0448717948717814
 30
0.0
  0
SPLINE
  5
6A
330
1F
100
AcDbEntity
  8
0
  6
Continuous
 62
     7
370
    25
100
AcDbSpline
210
0.0
220
0.0
230
1.0
 70
     8
 71
     3
 72
    10
 73
     6
 74
     0
 42
0.00000001
 43
0.00000001
 40
0.0
 40
0.0
 40
0.0
 40
0.0
 40
0.1268408077971993
 40
0.2505477821575811
 40
0.2948093075879978
 40
0.2948093075879978
 40
0.2948093075879978
 40
0.2948093075879978
 10
13.38301282051282
 20
-0.0448717948717814
 30
0.0
 10
13.33218524856292
 20
-0.0435769871581226
 30
0.0
 10
13.23178589250657
 20
-0.0410193623162636
 30
0.0
 10
13.11520777156105
 20
-0.0204356833535813
 30
0.0
 10
13.04978761093573
 20
-0.0045257009330113
 30
0.0
 10
13.03264309135124
 20
-0.0000000016310286
 30
0.0
  0
SPLINE
  5
6B
330
1F
100
AcDbEntity
  8
0
  6
Continuous
 62
     7
370
    25
100
AcDbSpline
210
0.0
220
0.0
230
1.0
 70
     8
 71
     3
 72
    10
 73
     6
 74
     0
 42
0.00000001
 43
0.00000001
 40
0.8282971549181223
 40
0.8282971549181223
 40
0.8282971549181223
 40
0.8282971549181223
 40
0.8722997609300892
 40
0.9354126293833375
 40
1.0
 40
1.0
 40
1.0
 40
1.0
 10
13.73947979080337
 20
0.0000000091456842
 30
0.0
 10
13.70971166044241
 20
-0.0077975476361347
 30
0.0
 10
13.63659626905381
 20
-0.024271797375186
 30
0.0
 10
13.51748011034662
 20
-0.0411794242733965
 30
0.0
 10
13.4281789583543
 20
-0.0436315667121101
 30
0.0
 10
13.38301282051282
 20
-0.0448717948717814
 30
0.0
  0
SPLINE
  5
6D
330
1F
100
AcDbEntity
  8
0
  6
Continuous
 62
     7
370
    25
100
AcDbSpline
210
0.0
220
0.0
230
1.0
 70
     8
 71
     3
 72
    10
 73
     6
 74
     0
 42
0.00000001
 43
0.00000001
 40
0.0
 40
0.0
 40
0.0
 40
0.0
 40
0.0715786576891406
 40
0.1396292246928467
 40
0.1832480650020131
 40
0.1832480650020131
 40
0.1832480650020131
 40
0.1832480650020131
 10
17.97886618589745
 20
-0.0448717948717814
 30
0.0
 10
17.929724208362
 20
-0.0437246195422181
 30
0.0
 10
17.83386244670468
 20
-0.041486812812852
 30
0.0
 10
17.70900501992806
 20
-0.0242242943168103
 30
0.0
 10
17.63413057416285
 20
-0.0075345630926038
 30
0.0
 10
17.60514893624907
 20
-0.0000000099183994
 30
0.0
  0
SPLINE
  5
6E
330
1F
100
AcDbEntity
  8
0
  6
Continuous
 62
     7
370
    25
100
AcDbSpline
210
0.0
220
0.0
230
1.0
 70
     8
 71
     3
 72
    11
 73
     7
 74
     0
 42
0.00000001
 43
0.00000001
 40
0.7367345500067347
 40
0.7367345500067347
 40
0.7367345500067347
 40
0.7367345500067347
 40
0.7386722364878334
 40
0.8218941484362425
 40
0.9088007920466139
 40
0.9999999999999999
 40
0.9999999999999999
 40
0.9999999999999999
 40
0.9999999999999999
 10
18.35809831948046
 20
-0.0000000021120883
 30
0.0
 10
18.35718866858693
 20
-0.000234747327077
 30
0.0
 10
18.31719888375341
 20
-0.0105059185023793
 30
0.0
 10
18.2353974742544
 20
-0.0272097850643194
 30
0.0
 10
18.1094259788756
 20
-0.0422330537147575
 30
0.0
 10
18.02307979900786
 20
-0.0439781944918116
 30
0.0
 10
17.97886618589745
 20
-0.0448717948717814
 30
0.0
  0
SPLINE
  5
70
330
1F
100
AcDbEntity
  8
0
  6
Continuous
 62
     7
370
    25
100
AcDbSpline
210
0.0
220
0.0
230
1.0
 70
     8
 71
     3
 72
    10
 73
     6
 74
     0
 42
0.00000001
 43
0.00000001
 40
0.0
 40
0.0
 40
0.0
 40
0.0
 40
0.1267425189618491
 40
0.2517239612496056
 40
0.3504414944093571
 40
0.3504414944093571
 40
0.3504414944093571
 40
0.3504414944093571
 10
20.42998798076923
 20
-0.0448717948717814
 30
0.0
 10
20.39462080533128
 20
-0.0438790945462286
 30
0.0
 10
20.32437787839261
 20
-0.0419074873829195
 30
0.0
 10
20.2278628604789
 20
-0.0247150949174713
 30
0.0
 10
20.16761281752025
 20
-0.0083206579891137
 30
0.0
 10
20.14136973753333
 20
-0.00000000998851
 30
0.0
  0
SPLINE
  5
71
330
1F
100
AcDbEntity
  8
0
  6
Continuous
 62
     7
370
    25
100
AcDbSpline
210
0.0
220
0.0
230
1.0
 70
     8
 71
     3
 72
    11
 73
     7
 74
     0
 42
0.00000001
 43
0.00000001
 40
0.7651726516502194
 40
0.7651726516502194
 40
0.7651726516502194
 40
0.7651726516502194
 40
0.8054984835712155
 40
0.8686397008205248
 40
0.933066225081167
 40
0.9999999999999999
 40
0.9999999999999999
 40
0.9999999999999999
 40
0.9999999999999999
 10
20.70076937148488
 20
-0.0000000002258749
 30
0.0
 10
20.68593234975346
 20
-0.0054132538359619
 30
0.0
 10
20.64740812035579
 20
-0.0180462296606176
 30
0.0
 10
20.5832522633359
 20
-0.0328091068754754
 30
0.0
 10
20.50762350876428
 20
-0.0427818679696323
 30
0.0
 10
20.45619370063331
 20
-0.0441663441542173
 30
0.0
 10
20.42998798076923
 20
-0.0448717948717814
 30
0.0
  0
SPLINE
  5
73
330
1F
100
AcDbEntity
  8
0
  6
Continuous
 62
     7
370
    25
100
AcDbSpline
210
0.0
220
0.0
230
1.0
 70
     8
 71
     3
 72
    10
 73
     6
 74
     0
 42
0.00000001
 43
0.00000001
 40
0.0
 40
0.0
 40
0.0
 40
0.0
 40
0.1267425189618453
 40
0.2517239612496063
 40
0.3504414944093596
 40
0.3504414944093596
 40
0.3504414944093596
 40
0.3504414944093596
 10
22.31460336538463
 20
-0.0448717948717814
 30
0.0
 10
22.27923618994665
 20
-0.0438790945462286
 30
0.0
 10
22.20899326300801
 20
-0.0419074873829195
 30
0.0
 10
22.11247824509427
 20
-0.0247150949174713
 30
0.0
 10
22.05222820213562
 20
-0.0083206579891137
 30
0.0
 10
22.0259851221487
 20
-0.00000000998851
 30
0.0
  0
SPLINE
  5
74
330
1F
100
AcDbEntity
  8
0
  6
Continuous
 62
     7
370
    25
100
AcDbSpline
210
0.0
220
0.0
230
1.0
 70
     8
 71
     3
 72
    11
 73
     7
 74
     0
 42
0.00000001
 43
0.00000001
 40
0.7651726516502214
 40
0.7651726516502214
 40
0.7651726516502214
 40
0.7651726516502214
 40
0.8054984835712156
 40
0.8686397008205249
 40
0.9330662250811641
 40
1.0
 40
1.0
 40
1.0
 40
1.0
 10
22.58538475610025
 20
-0.0000000002258749
 30
0.0
 10
22.57054773436884
 20
-0.0054132538359619
 30
0.0
 10
22.53202350497119
 20
-0.0180462296606176
 30
0.0
 10
22.46786764795131
 20
-0.0328091068754754
 30
0.0
 10
22.39223889337966
 20
-0.0427818679696323
 30
0.0
 10
22.34080908524869
 20
-0.0441663441542173
 30
0.0
 10
22.31460336538463
 20
-0.0448717948717814
 30
0.0
  0
SPLINE
  5
76
330
1F
100
AcDbEntity
  8
0
  6
Continuous
 62
     7
370
    25
100
AcDbSpline
210
0.0
220
0.0
230
1.0
 70
     8
 71
     3
 72
    10
 73
     6
 74
     0
 42
0.00000001
 43
0.00000001
 40
0.0
 40
0.0
 40
0.0
 40
0.0
 40
0.0687422616054883
 40
0.1346351922242764
 40
0.1795010329040195
 40
0.1795010329040195
 40
0.1795010329040195
 40
0.1795010329040195
 10
24.9276842948718
 20
-0.0448717948717814
 30
0.0
 10
24.87994957536285
 20
-0.0436505986540769
 30
0.0
 10
24.786458715639
 20
-0.0412588241667233
 30
0.0
 10
24.66270953838037
 20
-0.0245352394932508
 30
0.0
 10
24.58755108537522
 20
-0.0078769092986541
 30
0.0
 10
24.55740632646047
 20
-0.000000003001821
 30
0.0
  0
SPLINE
  5
77
330
1F
100
AcDbEntity
  8
0
  6
Continuous
 62
     7
370
    25
100
AcDbSpline
210
0.0
220
0.0
230
1.0
 70
     8
 71
     3
 72
    10
 73
     6
 74
     0
 42
0.00000001
 43
0.00000001
 40
0.8209625013384589
 40
0.8209625013384589
 40
0.8209625013384589
 40
0.8209625013384589
 40
0.8658658412779715
 40
0.9315077951965102
 40
1.0
 40
1.0
 40
1.0
 40
1.0
 10
25.29651866840088
 20
0.0000000090594754
 30
0.0
 10
25.26638542802526
 20
-0.0078677511931025
 30
0.0
 10
25.19147045230441
 20
-0.0244788958555509
 30
0.0
 10
25.06821350647537
 20
-0.0412711104029184
 30
0.0
 10
24.97518628510917
 20
-0.0436546836638518
 30
0.0
 10
24.9276842948718
 20
-0.0448717948717814
 30
0.0
  0
SPLINE
  5
79
330
1F
100
AcDbEntity
  8
0
  6
Continuous
 62
     7
370
    25
100
AcDbSpline
210
0.0
220
0.0
230
1.0
 70
     8
 71
     3
 72
    10
 73
     6
 74
     0
 42
0.00000001
 43
0.00000001
 40
0.0
 40
0.0
 40
0.0
 40
0.0
 40
0.1267425189618454
 40
0.2517239612496065
 40
0.3504414944093556
 40
0.3504414944093556
 40
0.3504414944093556
 40
0.3504414944093556
 10
30.16716746794873
 20
-0.0448717948717814
 30
0.0
 10
30.13180029251075
 20
-0.0438790945462286
 30
0.0
 10
30.06155736557212
 20
-0.0419074873829195
 30
0.0
 10
29.96504234765837
 20
-0.0247150949174713
 30
0.0
 10
29.90479230469972
 20
-0.0083206579891137
 30
0.0
 10
29.87854922471281
 20
-0.00000000998851
 30
0.0
  0
SPLINE
  5
7A
330
1F
100
AcDbEntity
  8
0
  6
Continuous
 62
     7
370
    25
100
AcDbSpline
210
0.0
220
0.0
230
1.0
 70
     8
 71
     3
 72
    11
 73
     7
 74
     0
 42
0.00000001
 43
0.00000001
 40
0.7651726516502203
 40
0.7651726516502203
 40
0.7651726516502203
 40
0.7651726516502203
 40
0.805498483571213
 40
0.8686397008205251
 40
0.9330662250811642
 40
1.0
 40
1.0
 40
1.0
 40
1.0
 10
30.43794885866436
 20
-0.0000000002259304
 30
0.0
 10
30.42311183693297
 20
-0.0054132538359619
 30
0.0
 10
30.38458760753529
 20
-0.0180462296606176
 30
0.0
 10
30.32043175051541
 20
-0.0328091068754754
 30
0.0
 10
30.24480299594379
 20
-0.0427818679696323
 30
0.0
 10
30.19337318781279
 20
-0.0441663441542173
 30
0.0
 10
30.16716746794873
 20
-0.0448717948717814
 30
0.0
  0
SPLINE
  5
7C
330
1F
100
AcDbEntity
  8
0
  6
Continuous
 62
     7
370
    25
100
AcDbSpline
210
0.0
220
0.0
230
1.0
 70
     8
 71
     3
 72
    10
 73
     6
 74
     0
 42
0.00000001
 43
0.00000001
 40
0.0
 40
0.0
 40
0.0
 40
0.0
 40
0.0646199913407682
 40
0.127433484144471
 40
0.1714500204398364
 40
0.1714500204398364
 40
0.1714500204398364
 40
0.1714500204398364
 10
33.82071314102564
 20
-0.0448717948717814
 30
0.0
 10
33.77554518719311
 20
-0.0436454226026561
 30
0.0
 10
33.68647198230512
 20
-0.0412269621870021
 30
0.0
 10
33.56761247186582
 20
-0.0242072420494899
 30
0.0
 10
33.49472782691512
 20
-0.0077918940486477
 30
0.0
 10
33.46496469971741
 20
-0.0000000094887431
 30
0.0
  0
SPLINE
  5
7D
330
1F
100
AcDbEntity
  8
0
  6
Continuous
 62
     7
370
    25
100
AcDbSpline
210
0.0
220
0.0
230
1.0
 70
     8
 71
     3
 72
    10
 73
     6
 74
     0
 42
0.00000001
 43
0.00000001
 40
0.6911640420884083
 40
0.6911640420884083
 40
0.6911640420884083
 40
0.6911640420884083
 40
0.7481449416029932
 40
0.8723701771613553
 40
1.0
 40
1.0
 40
1.0
 40
1.0
 10
34.18565166336504
 20
0.0000000089938612
 30
0.0
 10
34.163694211642
 20
-0.0056535871306718
 30
0.0
 10
34.09342386139713
 20
-0.0219667781484745
 30
0.0
 10
33.97176928098655
 20
-0.04135197284727
 30
0.0
 10
33.87151692619656
 20
-0.0436879947163238
 30
0.0
 10
33.82071314102564
 20
-0.0448717948717814
 30
0.0
  0
SPLINE
  5
7F
330
1F
100
AcDbEntity
  8
0
  6
Continuous
 62
     7
370
    25
100
AcDbSpline
210
0.0
220
0.0
230
1.0
 70
     8
 71
     3
 72
    10
 73
     6
 74
     0
 42
0.00000001
 43
0.00000001
 40
0.0
 40
0.0
 40
0.0
 40
0.0
 40
0.0715786576891439
 40
0.1396292246928498
 40
0.1832480650020136
 40
0.1832480650020136
 40
0.1832480650020136
 40
0.1832480650020136
 10
37.09425080128207
 20
-0.0448717948717814
 30
0.0
 10
37.04510882374662
 20
-0.0437246195422181
 30
0.0
 10
36.9492470620893
 20
-0.041486812812852
 30
0.0
 10
36.82438963531268
 20
-0.0242242943168103
 30
0.0
 10
36.74951518954745
 20
-0.0075345630926038
 30
0.0
 10
36.72053355163369
 20
-0.0000000099183994
 30
0.0
  0
SPLINE
  5
80
330
1F
100
AcDbEntity
  8
0
  6
Continuous
 62
     7
370
    25
100
AcDbSpline
210
0.0
220
0.0
230
1.0
 70
     8
 71
     3
 72
    11
 73
     7
 74
     0
 42
0.00000001
 43
0.00000001
 40
0.7367345500067296
 40
0.7367345500067296
 40
0.7367345500067296
 40
0.7367345500067296
 40
0.7386722364878353
 40
0.8218941484362445
 40
0.9088007920466186
 40
1.0
 40
1.0
 40
1.0
 40
1.0
 10
37.4734829348651
 20
-0.0000000021120883
 30
0.0
 10
37.47257328397158
 20
-0.000234747327077
 30
0.0
 10
37.43258349913805
 20
-0.0105059185023793
 30
0.0
 10
37.35078208963899
 20
-0.0272097850643194
 30
0.0
 10
37.22481059426022
 20
-0.0422330537147575
 30
0.0
 10
37.13846441439247
 20
-0.0439781944918116
 30
0.0
 10
37.09425080128207
 20
-0.0448717948717814
 30
0.0
  0
SPLINE
  5
82
330
1F
100
AcDbEntity
  8
0
  6
Continuous
 62
     7
370
    25
100
AcDbSpline
210
0.0
220
0.0
230
1.0
 70
     8
 71
     3
 72
    10
 73
     6
 74
     0
 42
0.00000001
 43
0.00000001
 40
0.0
 40
0.0
 40
0.0
 40
0.0
 40
0.0695585437274116
 40
0.1363352505575734
 40
0.1850862273074201
 40
0.1850862273074201
 40
0.1850862273074201
 40
0.1850862273074201
 10
41.70062099358973
 20
-0.0448717948717814
 30
0.0
 10
41.65101010990641
 20
-0.043980515071762
 30
0.0
 10
41.55377241781419
 20
-0.0422336001947854
 30
0.0
 10
41.422780420798
 20
-0.0245543406422466
 30
0.0
 10
41.34201590671252
 20
-0.0081349889018978
 30
0.0
 10
41.30822811142687
 20
-0.0000000058633653
 30
0.0
  0
SPLINE
  5
83
330
1F
100
AcDbEntity
  8
0
  6
Continuous
 62
     7
370
    25
100
AcDbSpline
210
0.0
220
0.0
230
1.0
 70
     8
 71
     3
 72
    12
 73
     8
 74
     0
 42
0.00000001
 43
0.00000001
 40
0.7094063943502651
 40
0.7094063943502651
 40
0.7094063943502651
 40
0.7094063943502651
 40
0.7297652560446469
 40
0.7948287708416065
 40
0.8618265399701661
 40
0.9300109324340671
 40
1.0
 40
1.0
 40
1.0
 40
1.0
 10
42.10197002802324
 20
0.0000000035265679
 30
0.0
 10
42.09277247580467
 20
-0.0021859425706761
 30
0.0
 10
42.05409445711311
 20
-0.0110017810052709
 30
0.0
 10
41.98454151084888
 20
-0.0242807082982965
 30
0.0
 10
41.89224187642434
 20
-0.0356344098624284
 30
0.0
 10
41.79729829482221
 20
-0.0441096909817307
 30
0.0
 10
41.73312614351371
 20
-0.0446155578762708
 30
0.0
 10
41.70062099358973
 20
-0.0448717948717814
 30
0.0
  0
SPLINE
  5
85
330
1F
100
AcDbEntity
  8
0
  6
Continuous
 62
     7
370
    25
100
AcDbSpline
210
0.0
220
0.0
230
1.0
 70
     8
 71
     3
 72
    10
 73
     6
 74
     0
 42
0.00000001
 43
0.00000001
 40
0.0
 40
0.0
 40
0.0
 40
0.0
 40
0.0687422616054915
 40
0.1346351922242794
 40
0.1795010329040225
 40
0.1795010329040225
 40
0.1795010329040225
 40
0.1795010329040225
 10
44.76101762820514
 20
-0.0448717948717814
 30
0.0
 10
44.71328290869619
 20
-0.0436505986540769
 30
0.0
 10
44.61979204897234
 20
-0.0412588241667233
 30
0.0
 10
44.49604287171371
 20
-0.0245352394932508
 30
0.0
 10
44.42088441870856
 20
-0.0078769092986541
 30
0.0
 10
44.39073965979382
 20
-0.000000003001821
 30
0.0
  0
SPLINE
  5
86
330
1F
100
AcDbEntity
  8
0
  6
Continuous
 62
     7
370
    25
100
AcDbSpline
210
0.0
220
0.0
230
1.0
 70
     8
 71
     3
 72
    10
 73
     6
 74
     0
 42
0.00000001
 43
0.00000001
 40
0.8209625013384645
 40
0.8209625013384645
 40
0.8209625013384645
 40
0.8209625013384645
 40
0.8658658412779713
 40
0.9315077951965116
 40
1.0
 40
1.0
 40
1.0
 40
1.0
 10
45.12985200173422
 20
0.0000000090594754
 30
0.0
 10
45.09971876135857
 20
-0.0078677511931025
 30
0.0
 10
45.02480378563775
 20
-0.0244788958555509
 30
0.0
 10
44.90154683980868
 20
-0.0412711104029184
 30
0.0
 10
44.80851961844251
 20
-0.0436546836638518
 30
0.0
 10
44.76101762820514
 20
-0.0448717948717814
 30
0.0
  0
SPLINE
  5
88
330
1F
100
AcDbEntity
  8
0
  6
Continuous
 62
     7
370
    25
100
AcDbSpline
210
0.0
220
0.0
230
1.0
 70
     8
 71
     3
 72
    10
 73
     6
 74
     0
 42
0.00000001
 43
0.00000001
 40
0.0
 40
0.0
 40
0.0
 40
0.0
 40
0.0715786576891439
 40
0.1396292246928498
 40
0.1832480650020144
 40
0.1832480650020144
 40
0.1832480650020144
 40
0.1832480650020144
 10
50.5557892628205
 20
-0.0448717948717814
 30
0.0
 10
50.50664728528509
 20
-0.0437246195422181
 30
0.0
 10
50.41078552362777
 20
-0.041486812812852
 30
0.0
 10
50.28592809685112
 20
-0.0242242943168103
 30
0.0
 10
50.21105365108591
 20
-0.0075345630926038
 30
0.0
 10
50.18207201317212
 20
-0.0000000099183994
 30
0.0
  0
SPLINE
  5
89
330
1F
100
AcDbEntity
  8
0
  6
Continuous
 62
     7
370
    25
100
AcDbSpline
210
0.0
220
0.0
230
1.0
 70
     8
 71
     3
 72
    11
 73
     7
 74
     0
 42
0.00000001
 43
0.00000001
 40
0.7367345500067457
 40
0.7367345500067457
 40
0.7367345500067457
 40
0.7367345500067457
 40
0.7386722364878353
 40
0.8218941484362445
 40
0.9088007920466186
 40
1.0
 40
1.0
 40
1.0
 40
1.0
 10
50.93502139640355
 20
-0.0000000021120883
 30
0.0
 10
50.93411174551002
 20
-0.000234747327077
 30
0.0
 10
50.8941219606765
 20
-0.0105059185023793
 30
0.0
 10
50.81232055117746
 20
-0.0272097850643194
 30
0.0
 10
50.68634905579869
 20
-0.0422330537147575
 30
0.0
 10
50.60000287593092
 20
-0.0439781944918116
 30
0.0
 10
50.5557892628205
 20
-0.0448717948717814
 30
0.0
  0
SPLINE
  5
8F
330
1F
100
AcDbEntity
  8
0
  6
Continuous
 62
     7
370
    25
100
AcDbSpline
210
0.0
220
0.0
230
1.0
 70
     8
 71
     3
 72
    14
 73
    10
 74
     0
 42
0.00000001
 43
0.00000001
 40
0.0
 40
0.0
 40
0.0
 40
0.0
 40
0.0696628008990773
 40
0.1377495622582727
 40
0.2039167435177825
 40
0.2687798623293366
 40
0.3324137064772238
 40
0.3947535404471393
 40
0.4022050553739213
 40
0.4022050553739213
 40
0.4022050553739213
 40
0.4022050553739213
 10
2.156650641025632
 20
-0.0897435897435628
 30
0.0
 10
2.119006973967941
 20
-0.0894815971878016
 30
0.0
 10
2.044571283871199
 20
-0.0889635393519494
 30
0.0
 10
1.934672532259069
 20
-0.0805713719409518
 30
0.0
 10
1.82768295145741
 20
-0.0691216350309776
 30
0.0
 10
1.723908325590717
 20
-0.0518815039670106
 30
0.0
 10
1.62278235054425
 20
-0.0315371639131312
 30
0.0
 10
1.553321154933923
 20
-0.0121205716400175
 30
0.0
 10
1.517230436483358
 20
-0.0011779106097731
 30
0.0
 10
1.513380116925062
 20
0.0000000095059516
 30
0.0
  0
SPLINE
  5
90
330
1F
100
AcDbEntity
  8
0
  6
Continuous
 62
     7
370
    25
100
AcDbSpline
210
0.0
220
0.0
230
1.0
 70
     8
 71
     3
 72
    13
 73
     9
 74
     0
 42
0.00000001
 43
0.00000001
 40
0.6442697080615447
 40
0.6442697080615447
 40
0.6442697080615447
 40
0.6442697080615447
 40
0.6735285303101516
 40
0.736961456657304
 40
0.8007852828728401
 40
0.8660125956416148
 40
0.9321007477905786
 40
1.0
 40
1.0
 40
1.0
 40
1.0
 10
2.772381476754987
 20
0.0000000010260681
 30
0.0
 10
2.756039309845248
 20
-0.0051258710586644
 30
0.0
 10
2.704054498254449
 20
-0.0206814028234081
 30
0.0
 10
2.615199022948739
 20
-0.0431730419088727
 30
0.0
 10
2.504483266121821
 20
-0.0644441257823258
 30
0.0
 10
2.39111279202861
 20
-0.078663800627099
 30
0.0
 10
2.274842916809599
 20
-0.0884057150619122
 30
0.0
 10
2.196401495683842
 20
-0.0892936308806158
 30
0.0
 10
2.156650641025632
 20
-0.0897435897435628
 30
0.0
  0
CIRCLE
  5
92
330
1F
100
AcDbEntity
  8
0
  6
Continuous
 62
     7
370
    25
100
AcDbCircle
 10
24.0
 20
-610.0
 30
0.0
 40
3.100000000000037
  0
CIRCLE
  5
93
330
1F
100
AcDbEntity
  8
0
  6
Continuous
 62
     7
370
    25
100
AcDbCircle
 10
381.0
 20
-100.0
 30
0.0
 40
3.10000000000008
  0
CIRCLE
  5
94
330
1F
100
AcDbEntity
  8
0
  6
Continuous
 62
     7
370
    25
100
AcDbCircle
 10
24.0
 20
-100.0
 30
0.0
 40
3.100000000000012
  0
CIRCLE
  5
95
330
1F
100
AcDbEntity
  8
0
  6
Continuous
 62
     7
370
    25
100
AcDbCircle
 10
381.0
 20
-610.0
 30
0.0
 40
3.100000000000023
  0
CIRCLE
  5
96
330
1F
100
AcDbEntity
  8
0
  6
Continuous
 62
     7
370
    25
100
AcDbCircle
 10
50.0
 20
-24.0
 30
0.0
 40
3.10000000000003
  0
CIRCLE
  5
97
330
1F
100
AcDbEntity
  8
0
  6
Continuous
 62
     7
370
    25
100
AcDbCircle
 10
350.0
 20
-686.0
 30
0.0
 40
3.100000000000136
  0
CIRCLE
  5
98
330
1F
100
AcDbEntity
  8
0
  6
Continuous
 62
     7
370
    25
100
AcDbCircle
 10
50.0
 20
-686.0
 30
0.0
 40
3.100000000000094
  0
CIRCLE
  5
99
330
1F
100
AcDbEntity
  8
0
  6
Continuous
 62
     7
370
    25
100
AcDbCircle
 10
100.0
 20
-686.0
 30
0.0
 40
3.100000000000094
  0
CIRCLE
  5
9A
330
1F
100
AcDbEntity
  8
0
  6
Continuous
 62
     7
370
    25
100
AcDbCircle
 10
150.0
 20
-686.0
 30
0.0
 40
3.100000000000108
  0
CIRCLE
  5
9B
330
1F
100
AcDbEntity
  8
0
  6
Continuous
 62
     7
370
    25
100
AcDbCircle
 10
200.0
 20
-686.0
 30
0.0
 40
3.100000000000136
  0
CIRCLE
  5
9C
330
1F
100
AcDbEntity
  8
0
  6
Continuous
 62
     7
370
    25
100
AcDbCircle
 10
100.0
 20
-24.0
 30
0.0
 40
3.100000000000023
  0
CIRCLE
  5
9D
330
1F
100
AcDbEntity
  8
0
  6
Continuous
 62
     7
370
    25
100
AcDbCircle
 10
150.0
 20
-24.0
 30
0.0
 40
3.099999999999994
  0
CIRCLE
  5
9E
330
1F
100
AcDbEntity
  8
0
  6
Continuous
 62
     7
370
    25
100
AcDbCircle
 10
200.0
 20
-24.0
 30
0.0
 40
3.099999999999994
  0
CIRCLE
  5
9F
330
1F
100
AcDbEntity
  8
0
  6
Continuous
 62
     7
370
    25
100
AcDbCircle
 10
250.0
 20
-24.0
 30
0.0
 40
3.099999999999994
  0
CIRCLE
  5
A0
330
1F
100
AcDbEntity
  8
0
  6
Continuous
 62
     7
370
    25
100
AcDbCircle
 10
300.0
 20
-24.0
 30
0.0
 40
3.099999999999966
  0
CIRCLE
  5
A1
330
1F
100
AcDbEntity
  8
0
  6
Continuous
 62
     7
370
    25
100
AcDbCircle
 10
350.0
 20
-24.0
 30
0.0
 40
3.100000000000023
  0
CIRCLE
  5
A2
330
1F
100
AcDbEntity
  8
0
  6
Continuous
 62
     7
370
    25
100
AcDbCircle
 10
300.0
 20
-686.0
 30
0.0
 40
3.100000000000193
  0
CIRCLE
  5
A3
330
1F
100
AcDbEntity
  8
0
  6
Continuous
 62
     7
370
    25
100
AcDbCircle
 10
250.0
 20
-686.0
 30
0.0
 40
3.100000000000108
  0
LINE
  5
E0
330
1F
100
AcDbEntity
  8
0
  6
Continuous
 62
     7
370
    25
100
AcDbLine
 10
12.0256410256
 20
0.0
 30
0.0
 11
5.9119032838
 21
0.0000000091
 31
0.0
  0
LINE
  5
E1
330
1F
100
AcDbEntity
  8
0
  6
Continuous
 62
     7
370
    25
100
AcDbLine
 10
12.0256410256
 20
-0.9423076923
 30
0.0
 11
12.0256410256
 21
0.0
 31
0.0
  0
LINE
  5
E2
330
1F
100
AcDbEntity
  8
0
  6
Continuous
 62
     7
370
    25
100
AcDbLine
 10
12.3397435897
 20
-0.9423076923
 30
0.0
 11
12.0256410256
 21
-0.9423076923
 31
0.0
  0
LINE
  5
E3
330
1F
100
AcDbEntity
  8
0
  6
Continuous
 62
     7
370
    25
100
AcDbLine
 10
12.3397435897
 20
0.0
 30
0.0
 11
12.3397435897
 21
-0.9423076923
 31
0.0
  0
LINE
  5
E4
330
1F
100
AcDbEntity
  8
0
  6
Continuous
 62
     7
370
    25
100
AcDbLine
 10
13.0326430914
 20
-0.0000000016
 30
0.0
 11
12.3397435897
 21
0.0
 31
0.0
  0
LINE
  5
E5
330
1F
100
AcDbEntity
  8
0
  6
Continuous
 62
     7
370
    25
100
AcDbLine
 10
17.6051489362
 20
-0.0000000099
 30
0.0
 11
13.7394797908
 21
0.0000000091
 31
0.0
  0
LINE
  5
E6
330
1F
100
AcDbEntity
  8
0
  6
Continuous
 62
     7
370
    25
100
AcDbLine
 10
20.1413697375
 20
-0.00000001
 30
0.0
 11
18.3580983195
 21
-0.0000000021
 31
0.0
  0
LINE
  5
E7
330
1F
100
AcDbEntity
  8
0
  6
Continuous
 62
     7
370
    25
100
AcDbLine
 10
22.0259851221
 20
-0.00000001
 30
0.0
 11
20.7007693715
 21
-0.0000000002
 31
0.0
  0
LINE
  5
E8
330
1F
100
AcDbEntity
  8
0
  6
Continuous
 62
     7
370
    25
100
AcDbLine
 10
24.5574063265
 20
-0.000000003
 30
0.0
 11
22.5853847561
 21
-0.0000000002
 31
0.0
  0
LINE
  5
E9
330
1F
100
AcDbEntity
  8
0
  6
Continuous
 62
     7
370
    25
100
AcDbLine
 10
29.8785492247
 20
-0.00000001
 30
0.0
 11
25.2965186684
 21
0.0000000091
 31
0.0
  0
LINE
  5
EA
330
1F
100
AcDbEntity
  8
0
  6
Continuous
 62
     7
370
    25
100
AcDbLine
 10
33.4649646997
 20
-0.0000000095
 30
0.0
 11
30.4379488587
 21
-0.0000000002
 31
0.0
  0
LINE
  5
EB
330
1F
100
AcDbEntity
  8
0
  6
Continuous
 62
     7
370
    25
100
AcDbLine
 10
36.7205335516
 20
-0.0000000099
 30
0.0
 11
34.1856516634
 21
0.000000009
 31
0.0
  0
LINE
  5
EC
330
1F
100
AcDbEntity
  8
0
  6
Continuous
 62
     7
370
    25
100
AcDbLine
 10
41.3082281114
 20
-0.0000000059
 30
0.0
 11
37.4734829349
 21
-0.0000000021
 31
0.0
  0
LINE
  5
ED
330
1F
100
AcDbEntity
  8
0
  6
Continuous
 62
     7
370
    25
100
AcDbLine
 10
44.3907396598
 20
-0.000000003
 30
0.0
 11
42.101970028
 21
0.0000000035
 31
0.0
  0
LINE
  5
EE
330
1F
100
AcDbEntity
  8
0
  6
Continuous
 62
     7
370
    25
100
AcDbLine
 10
50.1820720132
 20
-0.0000000099
 30
0.0
 11
45.1298520017
 21
0.0000000091
 31
0.0
  0
LINE
  5
EF
330
1F
100
AcDbEntity
  8
0
  6
Continuous
 62
     7
370
    25
100
AcDbLine
 10
405.0
 20
0.0
 30
0.0
 11
50.9350213964
 21
-0.0000000021
 31
0.0
  0
LINE
  5
F0
330
1F
100
AcDbEntity
  8
0
  6
Continuous
 62
     7
370
    25
100
AcDbLine
 10
405.0
 20
-710.0
 30
0.0
 11
405.0
 21
0.0
 31
0.0
  0
LINE
  5
F1
330
1F
100
AcDbEntity
  8
0
  6
Continuous
 62
     7
370
    25
100
AcDbLine
 10
0.0
 20
-710.0
 30
0.0
 11
405.0
 21
-710.0
 31
0.0
  0
LINE
  5
F2
330
1F
100
AcDbEntity
  8
0
  6
Continuous
 62
     7
370
    25
100
AcDbLine
 10
0.0
 20
0.0
 30
0.0
 11
0.0
 21
-710.0
 31
0.0
  0
LINE
  5
F3
330
1F
100
AcDbEntity
  8
0
  6
Continuous
 62
     7
370
    25
100
AcDbLine
 10
1.5133801169
 20
0.0000000095
 30
0.0
 11
0.0
 21
0.0
 31
0.0
  0
LINE
  5
F4
330
1F
100
AcDbEntity
  8
0
  6
Continuous
 62
     7
370
    25
100
AcDbLine
 10
5.1727909418
 20
-0.000000003
 30
0.0
 11
2.7723814768
 21
0.000000001
 31
0.0
  0
LINE
  5
F5
330
1F
100
AcDbEntity
  8
0
  6
Continuous
 62
     7
370
    25
100
AcDbLine
 10
55.0
 20
-515.7928620284
 30
0.0
 11
55.0
 21
-520.7928620284
 31
0.0
  0
LINE
  5
F6
330
1F
100
AcDbEntity
  8
0
  6
Continuous
 62
     7
370
    25
100
AcDbLine
 10
55.0
 20
-520.7928620284
 30
0.0
 11
350.0
 21
-520.7928620284
 31
0.0
  0
LINE
  5
F7
330
1F
100
AcDbEntity
  8
0
  6
Continuous
 62
     7
370
    25
100
AcDbLine
 10
350.0
 20
-520.7928620284
 30
0.0
 11
350.0
 21
-515.7928620284
 31
0.0
  0
LINE
  5
F8
330
1F
100
AcDbEntity
  8
0
  6
Continuous
 62
     7
370
    25
100
AcDbLine
 10
350.0
 20
-515.7928620284
 30
0.0
 11
55.0
 21
-515.7928620284
 31
0.0
  0
LINE
  5
F9
330
1F
100
AcDbEntity
  8
0
  6
Continuous
 62
     7
370
    25
100
AcDbLine
 10
55.0
 20
-525.7928620284
 30
0.0
 11
55.0
 21
-530.7928620284
 31
0.0
  0
LINE
  5
FA
330
1F
100
AcDbEntity
  8
0
  6
Continuous
 62
     7
370
    25
100
AcDbLine
 10
55.0
 20
-530.7928620284
 30
0.0
 11
350.0
 21
-530.7928620284
 31
0.0
  0
LINE
  5
FB
330
1F
100
AcDbEntity
  8
0
  6
Continuous
 62
     7
370
    25
100
AcDbLine
 10
350.0
 20
-530.7928620284
 30
0.0
 11
350.0
 21
-525.7928620284
 31
0.0
  0
LINE
  5
FC
330
1F
100
AcDbEntity
  8
0
  6
Continuous
 62
     7
370
    25
100
AcDbLine
 10
350.0
 20
-525.7928620284
 30
0.0
 11
55.0
 21
-525.7928620284
 31
0.0
  0
LINE
  5
FD
330
1F
100
AcDbEntity
  8
0
  6
Continuous
 62
     7
370
    25
100
AcDbLine
 10
55.0
 20
-535.7928620284
 30
0.0
 11
55.0
 21
-540.7928620284
 31
0.0
  0
LINE
  5
FE
330
1F
100
AcDbEntity
  8
0
  6
Continuous
 62
     7
370
    25
100
AcDbLine
 10
55.0
 20
-540.7928620284
 30
0.0
 11
350.0
 21
-540.7928620284
 31
0.0
  0
LINE
  5
FF
330
1F
100
AcDbEntity
  8
0
  6
Continuous
 62
     7
370
    25
100
AcDbLine
 10
350.0
 20
-540.7928620284
 30
0.0
 11
350.0
 21
-535.7928620284
 31
0.0
  0
LINE
  5
100
330
1F
100
AcDbEntity
  8
0
  6
Continuous
 62
     7
370
    25
100
AcDbLine
 10
350.0
 20
-535.7928620284
 30
0.0
 11
55.0
 21
-535.7928620284
 31
0.0
  0
LINE
  5
101
330
1F
100
AcDbEntity
  8
0
  6
Continuous
 62
     7
370
    25
100
AcDbLine
 10
55.0
 20
-545.7928620284
 30
0.0
 11
55.0
 21
-550.7928620284
 31
0.0
  0
LINE
  5
102
330
1F
100
AcDbEntity
  8
0
  6
Continuous
 62
     7
370
    25
100
AcDbLine
 10
55.0
 20
-550.7928620284
 30
0.0
 11
350.0
 21
-550.7928620284
 31
0.0
  0
LINE
  5
103
330
1F
100
AcDbEntity
  8
0
  6
Continuous
 62
     7
370
    25
100
AcDbLine
 10
350.0
 20
-550.7928620284
 30
0.0
 11
350.0
 21
-545.7928620284
 31
0.0
  0
LINE
  5
104
330
1F
100
AcDbEntity
  8
0
  6
Continuous
 62
     7
370
    25
100
AcDbLine
 10
350.0
 20
-545.7928620284
 30
0.0
 11
55.0
 21
-545.7928620284
 31
0.0
  0
LINE
  5
105
330
1F
100
AcDbEntity
  8
0
  6
Continuous
 62
     7
370
    25
100
AcDbLine
 10
55.0
 20
-555.7928620284
 30
0.0
 11
55.0
 21
-560.7928620284
 31
0.0
  0
LINE
  5
106
330
1F
100
AcDbEntity
  8
0
  6
Continuous
 62
     7
370
    25
100
AcDbLine
 10
55.0
 20
-560.7928620284
 30
0.0
 11
350.0
 21
-560.7928620284
 31
0.0
  0
LINE
  5
107
330
1F
100
AcDbEntity
  8
0
  6
Continuous
 62
     7
370
    25
100
AcDbLine
 10
350.0
 20
-560.7928620284
 30
0.0
 11
350.0
 21
-555.7928620284
 31
0.0
  0
LINE
  5
108
330
1F
100
AcDbEntity
  8
0
  6
Continuous
 62
     7
370
    25
100
AcDbLine
 10
350.0
 20
-555.7928620284
 30
0.0
 11
55.0
 21
-555.7928620284
 31
0.0
  0
LINE
  5
109
330
1F
100
AcDbEntity
  8
0
  6
Continuous
 62
     7
370
    25
100
AcDbLine
 10
55.0
 20
-565.7928620284
 30
0.0
 11
55.0
 21
-570.7928620284
 31
0.0
  0
LINE
  5
10A
330
1F
100
AcDbEntity
  8
0
  6
Continuous
 62
     7
370
    25
100
AcDbLine
 10
55.0
 20
-570.7928620284
 30
0.0
 11
350.0
 21
-570.7928620284
 31
0.0
  0
LINE
  5
10B
330
1F
100
AcDbEntity
  8
0
  6
Continuous
 62
     7
370
    25
100
AcDbLine
 10
350.0
 20
-570.7928620284
 30
0.0
 11
350.0
 21
-565.7928620284
 31
0.0
  0
LINE
  5
10C
330
1F
100
AcDbEntity
  8
0
  6
Continuous
 62
     7
370
    25
100
AcDbLine
 10
350.0
 20
-565.7928620284
 30
0.0
 11
55.0
 21
-565.7928620284
 31
0.0
  0
LINE
  5
10D
330
1F
100
AcDbEntity
  8
0
  6
Continuous
 62
     7
370
    25
100
AcDbLine
 10
55.0
 20
-575.7928620284
 30
0.0
 11
55.0
 21
-580.7928620284
 31
0.0
  0
LINE
  5
10E
330
1F
100
AcDbEntity
  8
0
  6
Continuous
 62
     7
370
    25
100
AcDbLine
 10
55.0
 20
-580.7928620284
 30
0.0
 11
350.0
 21
-580.7928620284
 31
0.0
  0
LINE
  5
10F
330
1F
100
AcDbEntity
  8
0
  6
Continuous
 62
     7
370
    25
100
AcDbLine
 10
350.0
 20
-580.7928620284
 30
0.0
 11
350.0
 21
-575.7928620284
 31
0.0
  0
LINE
  5
110
330
1F
100
AcDbEntity
  8
0
  6
Continuous
 62
     7
370
    25
100
AcDbLine
 10
350.0
 20
-575.7928620284
 30
0.0
 11
55.0
 21
-575.7928620284
 31
0.0
  0
LINE
  5
111
330
1F
100
AcDbEntity
  8
0
  6
Continuous
 62
     7
370
    25
100
AcDbLine
 10
55.0
 20
-585.7928620284
 30
0.0
 11
55.0
 21
-590.7928620284
 31
0.0
  0
LINE
  5
112
330
1F
100
AcDbEntity
  8
0
  6
Continuous
 62
     7
370
    25
100
AcDbLine
 10
55.0
 20
-590.7928620284
 30
0.0
 11
350.0
 21
-590.7928620284
 31
0.0
  0
LINE
  5
113
330
1F
100
AcDbEntity
  8
0
  6
Continuous
 62
     7
370
    25
100
AcDbLine
 10
350.0
 20
-590.7928620284
 30
0.0
 11
350.0
 21
-585.7928620284
 31
0.0
  0
LINE
  5
114
330
1F
100
AcDbEntity
  8
0
  6
Continuous
 62
     7
370
    25
100
AcDbLine
 10
350.0
 20
-585.7928620284
 30
0.0
 11
55.0
 21
-585.7928620284
 31
0.0
  0
LINE
  5
115
330
1F
100
AcDbEntity
  8
0
  6
Continuous
 62
     7
370
    25
100
AcDbLine
 10
55.0
 20
-595.7928620284
 30
0.0
 11
55.0
 21
-600.7928620284
 31
0.0
  0
LINE
  5
116
330
1F
100
AcDbEntity
  8
0
  6
Continuous
 62
     7
370
    25
100
AcDbLine
 10
55.0
 20
-600.7928620284
 30
0.0
 11
350.0
 21
-600.7928620284
 31
0.0
  0
LINE
  5
117
330
1F
100
AcDbEntity
  8
0
  6
Continuous
 62
     7
370
    25
100
AcDbLine
 10
350.0
 20
-600.7928620284
 30
0.0
 11
350.0
 21
-595.7928620284
 31
0.0
  0
LINE
  5
118
330
1F
100
AcDbEntity
  8
0
  6
Continuous
 62
     7
370
    25
100
AcDbLine
 10
350.0
 20
-595.7928620284
 30
0.0
 11
55.0
 21
-595.7928620284
 31
0.0
  0
LINE
  5
119
330
1F
100
AcDbEntity
  8
0
  6
Continuous
 62
     7
370
    25
100
AcDbLine
 10
55.0
 20
-605.7928620284
 30
0.0
 11
55.0
 21
-610.7928620284
 31
0.0
  0
LINE
  5
11A
330
1F
100
AcDbEntity
  8
0
  6
Continuous
 62
     7
370
    25
100
AcDbLine
 10
55.0
 20
-610.7928620284
 30
0.0
 11
350.0
 21
-610.7928620284
 31
0.0
  0
LINE
  5
11B
330
1F
100
AcDbEntity
  8
0
  6
Continuous
 62
     7
370
    25
100
AcDbLine
 10
350.0
 20
-610.7928620284
 30
0.0
 11
350.0
 21
-605.7928620284
 31
0.0
  0
LINE
  5
11C
330
1F
100
AcDbEntity
  8
0
  6
Continuous
 62
     7
370
    25
100
AcDbLine
 10
350.0
 20
-605.7928620284
 30
0.0
 11
55.0
 21
-605.7928620284
 31
0.0
  0
LINE
  5
11D
330
1F
100
AcDbEntity
  8
0
  6
Continuous
 62
     7
370
    25
100
AcDbLine
 10
55.0
 20
-615.7928620284
 30
0.0
 11
55.0
 21
-620.7928620284
 31
0.0
  0
LINE
  5
11E
330
1F
100
AcDbEntity
  8
0
  6
Continuous
 62
     7
370
    25
100
AcDbLine
 10
55.0
 20
-620.7928620284
 30
0.0
 11
350.0
 21
-620.7928620284
 31
0.0
  0
LINE
  5
11F
330
1F
100
AcDbEntity
  8
0
  6
Continuous
 62
     7
370
    25
100
AcDbLine
 10
350.0
 20
-620.7928620284
 30
0.0
 11
350.0
 21
-615.7928620284
 31
0.0
  0
LINE
  5
120
330
1F
100
AcDbEntity
  8
0
  6
Continuous
 62
     7
370
    25
100
AcDbLine
 10
350.0
 20
-615.7928620284
 30
0.0
 11
55.0
 21
-615.7928620284
 31
0.0
  0
LINE
  5
121
330
1F
100
AcDbEntity
  8
0
  6
Continuous
 62
     7
370
    25
100
AcDbLine
 10
55.0
 20
-625.7928620284
 30
0.0
 11
55.0
 21
-630.7928620284
 31
0.0
  0
LINE
  5
122
330
1F
100
AcDbEntity
  8
0
  6
Continuous
 62
     7
370
    25
100
AcDbLine
 10
55.0
 20
-630.7928620284
 30
0.0
 11
350.0
 21
-630.7928620284
 31
0.0
  0
LINE
  5
123
330
1F
100
AcDbEntity
  8
0
  6
Continuous
 62
     7
370
    25
100
AcDbLine
 10
350.0
 20
-630.7928620284
 30
0.0
 11
350.0
 21
-625.7928620284
 31
0.0
  0
LINE
  5
124
330
1F
100
AcDbEntity
  8
0
  6
Continuous
 62
     7
370
    25
100
AcDbLine
 10
350.0
 20
-625.7928620284
 30
0.0
 11
55.0
 21
-625.7928620284
 31
0.0
  0
LINE
  5
125
330
1F
100
AcDbEntity
  8
0
  6
Continuous
 62
     7
370
    25
100
AcDbLine
 10
55.0
 20
-635.7928620284
 30
0.0
 11
55.0
 21
-640.7928620284
 31
0.0
  0
LINE
  5
126
330
1F
100
AcDbEntity
  8
0
  6
Continuous
 62
     7
370
    25
100
AcDbLine
 10
55.0
 20
-640.7928620284
 30
0.0
 11
350.0
 21
-640.7928620284
 31
0.0
  0
LINE
  5
127
330
1F
100
AcDbEntity
  8
0
  6
Continuous
 62
     7
370
    25
100
AcDbLine
 10
350.0
 20
-640.7928620284
 30
0.0
 11
350.0
 21
-635.7928620284
 31
0.0
  0
LINE
  5
128
330
1F
100
AcDbEntity
  8
0
  6
Continuous
 62
     7
370
    25
100
AcDbLine
 10
350.0
 20
-635.7928620284
 30
0.0
 11
55.0
 21
-635.7928620284
 31
0.0
  0
LINE
  5
129
330
1F
100
AcDbEntity
  8
0
  6
Continuous
 62
     7
370
    25
100
AcDbLine
 10
55.0
 20
-645.7928620284
 30
0.0
 11
55.0
 21
-650.7928620284
 31
0.0
  0
LINE
  5
12A
330
1F
100
AcDbEntity
  8
0
  6
Continuous
 62
     7
370
    25
100
AcDbLine
 10
55.0
 20
-650.7928620284
 30
0.0
 11
350.0
 21
-650.7928620284
 31
0.0
  0
LINE
  5
12B
330
1F
100
AcDbEntity
  8
0
  6
Continuous
 62
     7
370
    25
100
AcDbLine
 10
350.0
 20
-650.7928620284
 30
0.0
 11
350.0
 21
-645.7928620284
 31
0.0
  0
LINE
  5
12C
330
1F
100
AcDbEntity
  8
0
  6
Continuous
 62
     7
370
    25
100
AcDbLine
 10
350.0
 20
-645.7928620284
 30
0.0
 11
55.0
 21
-645.7928620284
 31
0.0
  0
LINE
  5
12D
330
1F
100
AcDbEntity
  8
0
  6
Continuous
 62
     7
370
    25
100
AcDbLine
 10
55.0
 20
-655.7928620284
 30
0.0
 11
55.0
 21
-660.7928620284
 31
0.0
  0
LINE
  5
12E
330
1F
100
AcDbEntity
  8
0
  6
Continuous
 62
     7
370
    25
100
AcDbLine
 10
55.0
 20
-660.7928620284
 30
0.0
 11
350.0
 21
-660.7928620284
 31
0.0
  0
LINE
  5
12F
330
1F
100
AcDbEntity
  8
0
  6
Continuous
 62
     7
370
    25
100
AcDbLine
 10
350.0
 20
-660.7928620284
 30
0.0
 11
350.0
 21
-655.7928620284
 31
0.0
  0
LINE
  5
130
330
1F
100
AcDbEntity
  8
0
  6
Continuous
 62
     7
370
    25
100
AcDbLine
 10
350.0
 20
-655.7928620284
 30
0.0
 11
55.0
 21
-655.7928620284
 31
0.0
  0
MTEXT
  5
132
330
1F
100
AcDbEntity
  8
0
  6
Continuous
 62
     7
100
AcDbMText
 10
0.0
 20
-711.0195663917
 30
0.0
 40
4.83362
 41
0.0
 71
     1
 72
     1
  1
SOLIDWORKS Educational Product.
  7
SLDTEXTSTYLE0
 73
     1
 44
1.0
  0
MTEXT
  5
133
330
1F
100
AcDbEntity
  8
0
  6
Continuous
 62
     7
100
AcDbMText
 10
0.0
 20
-718.2699963917
 30
0.0
 40
4.83362
 41
0.0
 71
     1
 72
     1
  1
For Instructional Use Only.
  7
SLDTEXTSTYLE0
 73
     1
 44
1.0
  0
ENDSEC
  0
SECTION
  2
OBJECTS
  0
DICTIONARY
  5
C
330
0
100
AcDbDictionary
281
     1
  3
ACAD_GROUP
350
D
  3
ACAD_LAYOUT
350
1A
  3
ACAD_MLINESTYLE
350
17
  3
ACAD_PLOTSETTINGS
350
19
  3
ACAD_PLOTSTYLENAME
350
E
  3
ACAD_SCALELIST
350
47
  3
DWGPROPS
350
134
  0
DICTIONARY
  5
D
102
{ACAD_REACTORS
330
C
102
}
330
C
100
AcDbDictionary
281
     1
  0
DICTIONARY
  5
1A
102
{ACAD_REACTORS
330
C
102
}
330
C
100
AcDbDictionary
281
     1
  3
Layout1
350
1E
  3
Layout2
350
26
  3
Model
350
22
  0
DICTIONARY
  5
17
102
{ACAD_REACTORS
330
C
102
}
330
C
100
AcDbDictionary
281
     1
  3
Standard
350
18
  0
DICTIONARY
  5
19
102
{ACAD_REACTORS
330
C
102
}
330
C
100
AcDbDictionary
281
     1
  0
ACDBDICTIONARYWDFLT
  5
E
102
{ACAD_REACTORS
330
C
102
}
330
C
100
AcDbDictionary
281
     1
  3
Normal
350
F
100
AcDbDictionaryWithDefault
340
F
  0
DICTIONARY
  5
47
102
{ACAD_REACTORS
330
C
102
}
330
C
100
AcDbDictionary
281
     1
  3
A0
350
48
  3
A1
350
49
  3
A2
350
4A
  3
A3
350
4B
  3
A4
350
4C
  3
A5
350
4D
  3
A6
350
4E
  3
A7
350
4F
  3
A8
350
50
  3
A9
350
51
  3
B0
350
52
  3
B1
350
53
  3
B2
350
54
  3
B3
350
55
  3
B4
350
56
  3
B5
350
57
  3
B6
350
58
  0
XRECORD
  5
134
102
{ACAD_REACTORS
330
C
102
}
330
C
100
AcDbXrecord
280
     1
  1
DWGPROPS COOKIE
  2

  3

  4

  6

  7

  8
nastia.polimasheva
  9

300
=
301
=
302
=
303
=
304
=
305
=
306
=
307
=
308
=
309
=
 40
0.0
 41
2460875.458055788
 42
2460875.458569676
  1

 90
        0
  0
LAYOUT
  5
1E
102
{ACAD_REACTORS
330
1A
102
}
330
1A
100
AcDbPlotSettings
  1

  2
none_device
  4

  6

 40
0.0
 41
0.0
 42
0.0
 43
0.0
 44
0.0
 45
0.0
 46
0.0
 47
0.0
 48
0.0
 49
0.0
140
0.0
141
0.0
142
1.0
143
1.0
 70
   688
 72
     1
 73
     0
 74
     5
  7

 75
    16
147
1.0
148
0.0
149
0.0
100
AcDbLayout
  1
Layout1
 70
     1
 71
     1
 10
0.0
 20
0.0
 11
420.0
 21
297.0
 12
0.0
 22
0.0
 32
0.0
 14
1.0000000000E+20
 24
1.0000000000E+20
 34
1.0000000000E+20
 15
-1.0000000000E+20
 25
-1.0000000000E+20
 35
-1.0000000000E+20
146
0.0
 13
0.0
 23
0.0
 33
0.0
 16
1.0
 26
0.0
 36
0.0
 17
0.0
 27
1.0
 37
0.0
 76
     0
330
1B
  0
LAYOUT
  5
26
102
{ACAD_REACTORS
330
1A
102
}
330
1A
100
AcDbPlotSettings
  1

  2
none_device
  4

  6

 40
0.0
 41
0.0
 42
0.0
 43
0.0
 44
0.0
 45
0.0
 46
0.0
 47
0.0
 48
0.0
 49
0.0
140
0.0
141
0.0
142
1.0
143
1.0
 70
   688
 72
     1
 73
     0
 74
     5
  7

 75
    16
147
1.0
148
0.0
149
0.0
100
AcDbLayout
  1
Layout2
 70
     1
 71
     2
 10
0.0
 20
0.0
 11
0.0
 21
0.0
 12
0.0
 22
0.0
 32
0.0
 14
0.0
 24
0.0
 34
0.0
 15
0.0
 25
0.0
 35
0.0
146
0.0
 13
0.0
 23
0.0
 33
0.0
 16
1.0
 26
0.0
 36
0.0
 17
0.0
 27
1.0
 37
0.0
 76
     0
330
23
  0
LAYOUT
  5
22
102
{ACAD_REACTORS
330
1A
102
}
330
1A
100
AcDbPlotSettings
  1

  2
none_device
  4
ANSI_A_(11.00_x_8.50_Inches)
  6

 40
6.35
 41
19.05
 42
6.35000508
 43
19.05000254
 44
279.4
 45
215.9
 46
72.3886559115
 47
195.7704987271
 48
0.0
 49
0.0
140
0.0
141
0.0
142
0.0118521127
143
1.0
 70
  1696
 72
     0
 73
     0
 74
     0
  7

 75
     0
147
0.0179189148
148
-1300.4909072572
149
0.0
100
AcDbLayout
  1
Model
 70
     1
 71
     0
 10
0.0
 20
0.0
 11
420.0
 21
297.0
 12
0.0
 22
0.0
 32
0.0
 14
0.0
 24
-710.0
 34
0.0
 15
405.0
 25
0.0000000095
 35
0.0
146
0.0
 13
0.0
 23
0.0
 33
0.0
 16
1.0
 26
0.0
 36
0.0
 17
0.0
 27
1.0
 37
0.0
 76
     0
330
1F
331
29
  0
MLINESTYLE
  5
18
102
{ACAD_REACTORS
330
17
102
}
330
17
100
AcDbMlineStyle
  2
Standard
 70
     0
  3

 62
   256
 51
90.0
 52
90.0
 71
     2
 49
0.5
 62
   256
  6
BYLAYER
 49
-0.5
 62
   256
  6
BYLAYER
  0
ACDBPLACEHOLDER
  5
F
102
{ACAD_REACTORS
330
E
102
}
330
E
  0
SCALE
  5
48
102
{ACAD_REACTORS
330
47
102
}
330
47
100
AcDbScale
 70
     0
300
1:1
140
1.0
141
1.0
290
     1
  0
SCALE
  5
49
102
{ACAD_REACTORS
330
47
102
}
330
47
100
AcDbScale
 70
     0
300
1:2
140
1.0
141
2.0
290
     0
  0
SCALE
  5
4A
102
{ACAD_REACTORS
330
47
102
}
330
47
100
AcDbScale
 70
     0
300
1:4
140
1.0
141
4.0
290
     0
  0
SCALE
  5
4B
102
{ACAD_REACTORS
330
47
102
}
330
47
100
AcDbScale
 70
     0
300
1:5
140
1.0
141
5.0
290
     0
  0
SCALE
  5
4C
102
{ACAD_REACTORS
330
47
102
}
330
47
100
AcDbScale
 70
     0
300
1:8
140
1.0
141
8.0
290
     0
  0
SCALE
  5
4D
102
{ACAD_REACTORS
330
47
102
}
330
47
100
AcDbScale
 70
     0
300
1:10
140
1.0
141
10.0
290
     0
  0
SCALE
  5
4E
102
{ACAD_REACTORS
330
47
102
}
330
47
100
AcDbScale
 70
     0
300
1:16
140
1.0
141
16.0
290
     0
  0
SCALE
  5
4F
102
{ACAD_REACTORS
330
47
102
}
330
47
100
AcDbScale
 70
     0
300
1:20
140
1.0
141
20.0
290
     0
  0
SCALE
  5
50
102
{ACAD_REACTORS
330
47
102
}
330
47
100
AcDbScale
 70
     0
300
1:30
140
1.0
141
30.0
290
     0
  0
SCALE
  5
51
102
{ACAD_REACTORS
330
47
102
}
330
47
100
AcDbScale
 70
     0
300
1:40
140
1.0
141
40.0
290
     0
  0
SCALE
  5
52
102
{ACAD_REACTORS
330
47
102
}
330
47
100
AcDbScale
 70
     0
300
1:50
140
1.0
141
50.0
290
     0
  0
SCALE
  5
53
102
{ACAD_REACTORS
330
47
102
}
330
47
100
AcDbScale
 70
     0
300
1:100
140
1.0
141
100.0
290
     0
  0
SCALE
  5
54
102
{ACAD_REACTORS
330
47
102
}
330
47
100
AcDbScale
 70
     0
300
2:1
140
2.0
141
1.0
290
     0
  0
SCALE
  5
55
102
{ACAD_REACTORS
330
47
102
}
330
47
100
AcDbScale
 70
     0
300
4:1
140
4.0
141
1.0
290
     0
  0
SCALE
  5
56
102
{ACAD_REACTORS
330
47
102
}
330
47
100
AcDbScale
 70
     0
300
8:1
140
8.0
141
1.0
290
     0
  0
SCALE
  5
57
102
{ACAD_REACTORS
330
47
102
}
330
47
100
AcDbScale
 70
     0
300
10:1
140
10.0
141
1.0
290
     0
  0
SCALE
  5
58
102
{ACAD_REACTORS
330
47
102
}
330
47
100
AcDbScale
 70
     0
300
100:1
140
100.0
141
1.0
290
     0
  0
ENDSEC
  0
EOF
