999
DXF data, created by potrace 1.16, written by Peter Selinger 2001-2019
  0
SECTION
  2
HEADER
  9
$ACADVER
  1
AC1006
  9
$EXTMIN
 10
0.000000
 20
0.000000
 30
0.000000
  9
$EXTMAX
 10
225.000000
 20
225.000000
 30
0.000000
  0
ENDSEC
  0
SECTION
  2
ENTITIES
  0
POLYLINE
  8
0
 66
1
 70
1
  0
VERTEX
  8
0
 10
27.000000
 20
146.000000
 42
0.072254
  0
VERTEX
  8
0
 10
27.126841
 20
145.126841
 42
0.124864
  0
VERTEX
  8
0
 10
27.500000
 20
144.500000
 42
0.124864
  0
VERTEX
  8
0
 10
28.126841
 20
144.126841
 42
0.072254
  0
VERTEX
  8
0
 10
29.000000
 20
144.000000
 42
-0.193568
  0
VERTEX
  8
0
 10
30.093207
 20
143.560306
 42
-0.155680
  0
VERTEX
  8
0
 10
30.702381
 20
142.437500
 42
-0.043488
  0
VERTEX
  8
0
 10
30.953506
 20
139.966968
 42
-0.003595
  0
VERTEX
  8
0
 10
31.000000
 20
133.500000
 42
0.004841
  0
VERTEX
  8
0
 10
31.054606
 20
127.860051
 42
0.030643
  0
VERTEX
  8
0
 10
31.285714
 20
125.000000
 42
0.072528
  0
VERTEX
  8
0
 10
31.729954
 20
123.493192
 42
0.292784
  0
VERTEX
  8
0
 10
32.500000
 20
123.000000
 42
0.292784
  0
VERTEX
  8
0
 10
33.270046
 20
123.493192
 42
0.072528
  0
VERTEX
  8
0
 10
33.714286
 20
125.000000
 42
0.030643
  0
VERTEX
  8
0
 10
33.945394
 20
127.860051
 42
0.004841
  0
VERTEX
  8
0
 10
34.000000
 20
133.500000
 42
-0.003595
  0
VERTEX
  8
0
 10
34.046494
 20
139.966968
 42
-0.043488
  0
VERTEX
  8
0
 10
34.297619
 20
142.437500
 42
-0.155680
  0
VERTEX
  8
0
 10
34.906793
 20
143.560306
 42
-0.193568
  0
VERTEX
  8
0
 10
36.000000
 20
144.000000
 42
0.072254
  0
VERTEX
  8
0
 10
36.873159
 20
144.126841
 42
0.124864
  0
VERTEX
  8
0
 10
37.500000
 20
144.500000
 42
0.124864
  0
VERTEX
  8
0
 10
37.873159
 20
145.126841
 42
0.072254
  0
VERTEX
  8
0
 10
38.000000
 20
146.000000
 42
0.118451
  0
VERTEX
  8
0
 10
37.746716
 20
147.054152
 42
0.189837
  0
VERTEX
  8
0
 10
37.062500
 20
147.659091
 42
0.077556
  0
VERTEX
  8
0
 10
35.640147
 20
147.938496
 42
0.009792
  0
VERTEX
  8
0
 10
32.500000
 20
148.000000
 42
0.009792
  0
VERTEX
  8
0
 10
29.359853
 20
147.938496
 42
0.077556
  0
VERTEX
  8
0
 10
27.937500
 20
147.659091
 42
0.189837
  0
VERTEX
  8
0
 10
27.253284
 20
147.054152
 42
0.118451
  0
SEQEND
  0
POLYLINE
  8
0
 66
1
 70
1
  0
VERTEX
  8
0
 10
41.000000
 20
135.500000
 42
0.003867
  0
VERTEX
  8
0
 10
41.052594
 20
128.699767
 42
0.025996
  0
VERTEX
  8
0
 10
41.280000
 20
125.333333
 42
0.059500
  0
VERTEX
  8
0
 10
41.714283
 20
123.545446
 42
0.313079
  0
VERTEX
  8
0
 10
42.500000
 20
123.000000
 42
0.241448
  0
VERTEX
  8
0
 10
43.235889
 20
123.377357
 42
0.103378
  0
VERTEX
  8
0
 10
43.696429
 20
124.416667
 42
0.044348
  0
VERTEX
  8
0
 10
43.938899
 20
126.386832
 42
0.008455
  0
VERTEX
  8
0
 10
44.000000
 20
130.000000
 42
-0.005599
  0
VERTEX
  8
0
 10
44.050231
 20
134.485599
 42
-0.080329
  0
VERTEX
  8
0
 10
44.339286
 20
136.050000
 42
-0.227859
  0
VERTEX
  8
0
 10
45.055682
 20
136.758286
 42
-0.083100
  0
VERTEX
  8
0
 10
46.500000
 20
137.000000
 42
-0.083100
  0
VERTEX
  8
0
 10
47.944318
 20
136.758286
 42
-0.227859
  0
VERTEX
  8
0
 10
48.660714
 20
136.050000
 42
-0.080329
  0
VERTEX
  8
0
 10
48.949769
 20
134.485599
 42
-0.005599
  0
VERTEX
  8
0
 10
49.000000
 20
130.000000
 42
0.006583
  0
VERTEX
  8
0
 10
49.054458
 20
125.864163
 42
0.063075
  0
VERTEX
  8
0
 10
49.321429
 20
124.125000
 42
0.183695
  0
VERTEX
  8
0
 10
49.929389
 20
123.311233
 42
0.142406
  0
VERTEX
  8
0
 10
51.000000
 20
123.000000
 42
0.218517
  0
VERTEX
  8
0
 10
52.104087
 20
123.506719
 42
0.138781
  0
VERTEX
  8
0
 10
52.710000
 20
124.812500
 42
0.036854
  0
VERTEX
  8
0
 10
52.955897
 20
127.699072
 42
0.002827
  0
VERTEX
  8
0
 10
53.000000
 20
135.500000
 42
0.002827
  0
VERTEX
  8
0
 10
52.955897
 20
143.300928
 42
0.036854
  0
VERTEX
  8
0
 10
52.710000
 20
146.187500
 42
0.138781
  0
VERTEX
  8
0
 10
52.104087
 20
147.493281
 42
0.218517
  0
VERTEX
  8
0
 10
51.000000
 20
148.000000
 42
0.087745
  0
VERTEX
  8
0
 10
49.997538
 20
147.822713
 42
0.177212
  0
VERTEX
  8
0
 10
49.392857
 20
147.312500
 42
0.107690
  0
VERTEX
  8
0
 10
49.082184
 20
146.324280
 42
0.022514
  0
VERTEX
  8
0
 10
49.000000
 20
144.500000
 42
-0.021436
  0
VERTEX
  8
0
 10
48.915691
 20
142.534425
 42
-0.134430
  0
VERTEX
  8
0
 10
48.571429
 20
141.600000
 42
-0.189121
  0
VERTEX
  8
0
 10
47.862220
 20
141.138668
 42
-0.050766
  0
VERTEX
  8
0
 10
46.500000
 20
141.000000
 42
-0.050766
  0
VERTEX
  8
0
 10
45.137780
 20
141.138668
 42
-0.189121
  0
VERTEX
  8
0
 10
44.428571
 20
141.600000
 42
-0.134430
  0
VERTEX
  8
0
 10
44.084309
 20
142.534425
 42
-0.021436
  0
VERTEX
  8
0
 10
44.000000
 20
144.500000
 42
0.025511
  0
VERTEX
  8
0
 10
43.918107
 20
146.104033
 42
0.075863
  0
VERTEX
  8
0
 10
43.642857
 20
147.166667
 42
0.129352
  0
VERTEX
  8
0
 10
43.169448
 20
147.773926
 42
0.164293
  0
VERTEX
  8
0
 10
42.500000
 20
148.000000
 42
0.313079
  0
VERTEX
  8
0
 10
41.714283
 20
147.454554
 42
0.059500
  0
VERTEX
  8
0
 10
41.280000
 20
145.666667
 42
0.025996
  0
VERTEX
  8
0
 10
41.052594
 20
142.300233
 42
0.003867
  0
SEQEND
  0
POLYLINE
  8
0
 66
1
 70
1
  0
VERTEX
  8
0
 10
56.000000
 20
135.500000
 42
0.000000
  0
VERTEX
  8
0
 10
56.000000
 20
123.000000
 42
0.000000
  0
VERTEX
  8
0
 10
60.500000
 20
123.000000
 42
0.013719
  0
VERTEX
  8
0
 10
63.013202
 20
123.068973
 42
0.094417
  0
VERTEX
  8
0
 10
64.206932
 20
123.365087
 42
0.193178
  0
VERTEX
  8
0
 10
64.793203
 20
123.984750
 42
0.094293
  0
VERTEX
  8
0
 10
65.000000
 20
125.071566
 42
0.063458
  0
VERTEX
  8
0
 10
64.868329
 20
126.104848
 42
0.189877
  0
VERTEX
  8
0
 10
64.456932
 20
126.670538
 42
0.141263
  0
VERTEX
  8
0
 10
63.674377
 20
126.900709
 42
0.030458
  0
VERTEX
  8
0
 10
62.250000
 20
126.821566
 42
-0.042707
  0
VERTEX
  8
0
 10
60.638023
 20
126.771510
 42
-0.217094
  0
VERTEX
  8
0
 10
59.861925
 20
127.177406
 42
-0.134594
  0
VERTEX
  8
0
 10
59.449269
 20
128.170583
 42
-0.013496
  0
VERTEX
  8
0
 10
59.192502
 20
130.750000
 42
-0.012095
  0
VERTEX
  8
0
 10
59.062611
 20
133.451801
 42
-0.150664
  0
VERTEX
  8
0
 10
59.338181
 20
134.427637
 42
-0.222645
  0
VERTEX
  8
0
 10
60.074525
 20
134.887595
 42
-0.030060
  0
VERTEX
  8
0
 10
61.942502
 20
135.000000
 42
0.080186
  0
VERTEX
  8
0
 10
64.176979
 20
135.360667
 42
0.296901
  0
VERTEX
  8
0
 10
65.025657
 20
136.424188
 42
0.314738
  0
VERTEX
  8
0
 10
64.380044
 20
137.568819
 42
0.083402
  0
VERTEX
  8
0
 10
62.250000
 20
138.183578
 42
-0.046929
  0
VERTEX
  8
0
 10
60.866688
 20
138.476032
 42
-0.121406
  0
VERTEX
  8
0
 10
60.000000
 20
139.000000
 42
-0.121406
  0
VERTEX
  8
0
 10
59.476032
 20
139.866688
 42
-0.046929
  0
VERTEX
  8
0
 10
59.183578
 20
141.250000
 42
-0.032648
  0
VERTEX
  8
0
 10
59.106417
 20
142.814281
 42
-0.194761
  0
VERTEX
  8
0
 10
59.418750
 20
143.551595
 42
-0.173213
  0
VERTEX
  8
0
 10
60.181481
 20
143.912890
 42
-0.024843
  0
VERTEX
  8
0
 10
61.933578
 20
144.000000
 42
0.029358
  0
VERTEX
  8
0
 10
63.477207
 20
144.090715
 42
0.115646
  0
VERTEX
  8
0
 10
64.366697
 20
144.413056
 42
0.167926
  0
VERTEX
  8
0
 10
64.838221
 20
145.020469
 42
0.082024
  0
VERTEX
  8
0
 10
65.000000
 20
146.000000
 42
0.102588
  0
VERTEX
  8
0
 10
64.785276
 20
147.035525
 42
0.188085
  0
VERTEX
  8
0
 10
64.187500
 20
147.638889
 42
0.090841
  0
VERTEX
  8
0
 10
62.979415
 20
147.930739
 42
0.013964
  0
VERTEX
  8
0
 10
60.500000
 20
148.000000
 42
0.000000
  0
VERTEX
  8
0
 10
56.000000
 20
148.000000
 42
0.000000
  0
SEQEND
  0
POLYLINE
  8
0
 66
1
 70
1
  0
VERTEX
  8
0
 10
77.654988
 20
146.171259
 42
0.162928
  0
VERTEX
  8
0
 10
76.230052
 20
142.915457
 42
0.021418
  0
VERTEX
  8
0
 10
75.872887
 20
135.272529
 42
0.020794
  0
VERTEX
  8
0
 10
76.161355
 20
127.627084
 42
0.178383
  0
VERTEX
  8
0
 10
77.571429
 20
124.571429
 42
0.119927
  0
VERTEX
  8
0
 10
79.390993
 20
123.464129
 42
0.072361
  0
VERTEX
  8
0
 10
81.894883
 20
123.051056
 42
0.074475
  0
VERTEX
  8
0
 10
84.327176
 20
123.368170
 42
0.151072
  0
VERTEX
  8
0
 10
85.927297
 20
124.412399
 42
0.100435
  0
VERTEX
  8
0
 10
86.992664
 20
126.397668
 42
0.079258
  0
VERTEX
  8
0
 10
87.319490
 20
128.819498
 42
0.094764
  0
VERTEX
  8
0
 10
86.878255
 20
130.859489
 42
0.245925
  0
VERTEX
  8
0
 10
85.750000
 20
131.784136
 42
0.088026
  0
VERTEX
  8
0
 10
84.918720
 20
131.807968
 42
0.194732
  0
VERTEX
  8
0
 10
84.381248
 20
131.491907
 42
0.131378
  0
VERTEX
  8
0
 10
84.084097
 20
130.775735
 42
0.033022
  0
VERTEX
  8
0
 10
84.000000
 20
129.503773
 42
-0.033732
  0
VERTEX
  8
0
 10
83.907229
 20
128.130210
 42
-0.159967
  0
VERTEX
  8
0
 10
83.567391
 20
127.430485
 42
-0.188084
  0
VERTEX
  8
0
 10
82.915606
 20
127.131874
 42
-0.049756
  0
VERTEX
  8
0
 10
81.750000
 20
127.180449
 42
-0.118712
  0
VERTEX
  8
0
 10
80.503137
 20
127.674702
 42
-0.164564
  0
VERTEX
  8
0
 10
79.799286
 20
128.638275
 42
-0.060768
  0
VERTEX
  8
0
 10
79.441616
 20
130.567806
 42
-0.006067
  0
VERTEX
  8
0
 10
79.207663
 20
135.265139
 42
-0.007206
  0
VERTEX
  8
0
 10
79.108974
 20
139.514935
 42
-0.043300
  0
VERTEX
  8
0
 10
79.280508
 20
141.717030
 42
-0.097180
  0
VERTEX
  8
0
 10
79.749191
 20
142.969650
 42
-0.164613
  0
VERTEX
  8
0
 10
80.602271
 20
143.677619
 42
-0.089505
  0
VERTEX
  8
0
 10
81.375490
 20
143.824620
 42
-0.086661
  0
VERTEX
  8
0
 10
82.160683
 20
143.695044
 42
-0.081915
  0
VERTEX
  8
0
 10
82.891275
 20
143.296009
 42
-0.069123
  0
VERTEX
  8
0
 10
83.504850
 20
142.662480
 42
0.105822
  0
VERTEX
  8
0
 10
84.600781
 20
141.684539
 42
0.069713
  0
VERTEX
  8
0
 10
86.176386
 20
141.057948
 42
0.095643
  0
VERTEX
  8
0
 10
87.503705
 20
140.993388
 42
0.373179
  0
VERTEX
  8
0
 10
88.000000
 20
141.565741
 42
0.116312
  0
VERTEX
  8
0
 10
87.745100
 20
142.646679
 42
0.019262
  0
VERTEX
  8
0
 10
86.708863
 20
144.535927
 42
0.020622
  0
VERTEX
  8
0
 10
85.518435
 20
146.347203
 42
0.090089
  0
VERTEX
  8
0
 10
84.600296
 20
147.234687
 42
0.106005
  0
VERTEX
  8
0
 10
82.965703
 20
147.882846
 42
0.079723
  0
VERTEX
  8
0
 10
81.026231
 20
147.896764
 42
0.077959
  0
VERTEX
  8
0
 10
79.138644
 20
147.297239
 42
0.093292
  0
SEQEND
  0
POLYLINE
  8
0
 66
1
 70
1
  0
VERTEX
  8
0
 10
90.000000
 20
135.500000
 42
0.002827
  0
VERTEX
  8
0
 10
90.044103
 20
127.699072
 42
0.036854
  0
VERTEX
  8
0
 10
90.290000
 20
124.812500
 42
0.138781
  0
VERTEX
  8
0
 10
90.895913
 20
123.506719
 42
0.218517
  0
VERTEX
  8
0
 10
92.000000
 20
123.000000
 42
0.142406
  0
VERTEX
  8
0
 10
93.070611
 20
123.311233
 42
0.183695
  0
VERTEX
  8
0
 10
93.678571
 20
124.125000
 42
0.063075
  0
VERTEX
  8
0
 10
93.945542
 20
125.864163
 42
0.006583
  0
VERTEX
  8
0
 10
94.000000
 20
130.000000
 42
-0.005485
  0
VERTEX
  8
0
 10
94.049715
 20
134.531912
 42
-0.083051
  0
VERTEX
  8
0
 10
94.342216
 20
136.072246
 42
-0.232214
  0
VERTEX
  8
0
 10
95.072945
 20
136.768264
 42
-0.076331
  0
VERTEX
  8
0
 10
96.582059
 20
137.000000
 42
-0.072276
  0
VERTEX
  8
0
 10
98.100975
 20
136.779284
 42
-0.247710
  0
VERTEX
  8
0
 10
98.791306
 20
136.104179
 42
-0.084801
  0
VERTEX
  8
0
 10
99.004739
 20
134.608127
 42
-0.004975
  0
VERTEX
  8
0
 10
98.832059
 20
129.997747
 42
0.006644
  0
VERTEX
  8
0
 10
98.695744
 20
126.001570
 42
0.055223
  0
VERTEX
  8
0
 10
98.857594
 20
124.198518
 42
0.163336
  0
VERTEX
  8
0
 10
99.356082
 20
123.335255
 42
0.183158
  0
VERTEX
  8
0
 10
100.250000
 20
122.997747
 42
0.265460
  0
VERTEX
  8
0
 10
101.193006
 20
123.537975
 42
0.098450
  0
VERTEX
  8
0
 10
101.714955
 20
125.035669
 42
0.031518
  0
VERTEX
  8
0
 10
101.952056
 20
128.147113
 42
0.003260
  0
VERTEX
  8
0
 10
102.000000
 20
135.500000
 42
0.003162
  0
VERTEX
  8
0
 10
101.952890
 20
142.949007
 42
0.032588
  0
VERTEX
  8
0
 10
101.714016
 20
146.013116
 42
0.106579
  0
VERTEX
  8
0
 10
101.174977
 20
147.465824
 42
0.256175
  0
VERTEX
  8
0
 10
100.200801
 20
148.000000
 42
0.100614
  0
VERTEX
  8
0
 10
99.319277
 20
147.820799
 42
0.200500
  0
VERTEX
  8
0
 10
98.830263
 20
147.320449
 42
0.105186
  0
VERTEX
  8
0
 10
98.664663
 20
146.347482
 42
0.018803
  0
VERTEX
  8
0
 10
98.810207
 20
144.500000
 42
-0.017415
  0
VERTEX
  8
0
 10
98.979398
 20
142.425856
 42
-0.153154
  0
VERTEX
  8
0
 10
98.747849
 20
141.546178
 42
-0.216643
  0
VERTEX
  8
0
 10
98.095545
 20
141.116216
 42
-0.039041
  0
VERTEX
  8
0
 10
96.609406
 20
141.000000
 42
-0.045588
  0
VERTEX
  8
0
 10
95.165774
 20
141.131899
 42
-0.189192
  0
VERTEX
  8
0
 10
94.436386
 20
141.585325
 42
-0.139711
  0
VERTEX
  8
0
 10
94.085004
 20
142.510371
 42
-0.021352
  0
VERTEX
  8
0
 10
94.000000
 20
144.500000
 42
0.022514
  0
VERTEX
  8
0
 10
93.917816
 20
146.324280
 42
0.107690
  0
VERTEX
  8
0
 10
93.607143
 20
147.312500
 42
0.177212
  0
VERTEX
  8
0
 10
93.002462
 20
147.822713
 42
0.087745
  0
VERTEX
  8
0
 10
92.000000
 20
148.000000
 42
0.218517
  0
VERTEX
  8
0
 10
90.895913
 20
147.493281
 42
0.138781
  0
VERTEX
  8
0
 10
90.290000
 20
146.187500
 42
0.036854
  0
VERTEX
  8
0
 10
90.044103
 20
143.300928
 42
0.002827
  0
SEQEND
  0
POLYLINE
  8
0
 66
1
 70
1
  0
VERTEX
  8
0
 10
107.072580
 20
145.365141
 42
0.056847
  0
VERTEX
  8
0
 10
106.038882
 20
143.690224
 42
0.057906
  0
VERTEX
  8
0
 10
105.416737
 20
141.835786
 42
0.040168
  0
VERTEX
  8
0
 10
105.099853
 20
139.368098
 42
0.012374
  0
VERTEX
  8
0
 10
105.014742
 20
135.615141
 42
0.015837
  0
VERTEX
  8
0
 10
105.112882
 20
132.707807
 42
0.016560
  0
VERTEX
  8
0
 10
105.394817
 20
129.855698
 42
0.016450
  0
VERTEX
  8
0
 10
105.799937
 20
127.415898
 42
0.067326
  0
VERTEX
  8
0
 10
106.287913
 20
126.000000
 42
0.119880
  0
VERTEX
  8
0
 10
107.750317
 20
124.281161
 42
0.099681
  0
VERTEX
  8
0
 10
109.939006
 20
123.281339
 42
0.092808
  0
VERTEX
  8
0
 10
112.484176
 20
123.167457
 42
0.087983
  0
VERTEX
  8
0
 10
114.950547
 20
123.973533
 42
0.123464
  0
VERTEX
  8
0
 10
116.062152
 20
124.982596
 42
0.100912
  0
VERTEX
  8
0
 10
116.669818
 20
126.474095
 42
0.041385
  0
VERTEX
  8
0
 10
116.941337
 20
129.100354
 42
0.005075
  0
VERTEX
  8
0
 10
117.000000
 20
134.880196
 42
0.006360
  0
VERTEX
  8
0
 10
116.931821
 20
140.240094
 42
0.033197
  0
VERTEX
  8
0
 10
116.661218
 20
143.179308
 42
0.063769
  0
VERTEX
  8
0
 10
116.117752
 20
145.030573
 42
0.105975
  0
VERTEX
  8
0
 10
115.171259
 20
146.345012
 42
0.089788
  0
VERTEX
  8
0
 10
113.134275
 20
147.612101
 42
0.125091
  0
VERTEX
  8
0
 10
111.014263
 20
147.885997
 42
0.119403
  0
VERTEX
  8
0
 10
108.948729
 20
147.113035
 42
0.077282
  0
SEQEND
  0
POLYLINE
  8
0
 66
1
 70
1
  0
VERTEX
  8
0
 10
113.500000
 20
135.486305
 42
-0.005365
  0
VERTEX
  8
0
 10
113.448579
 20
130.694261
 42
-0.056039
  0
VERTEX
  8
0
 10
113.187393
 20
128.748288
 42
-0.176768
  0
VERTEX
  8
0
 10
112.578107
 20
127.848661
 42
-0.157680
  0
VERTEX
  8
0
 10
111.500000
 20
127.500000
 42
-0.144729
  0
VERTEX
  8
0
 10
110.428386
 20
127.816823
 42
-0.170183
  0
VERTEX
  8
0
 10
109.783444
 20
128.649989
 42
-0.062332
  0
VERTEX
  8
0
 10
109.432612
 20
130.406858
 42
-0.007319
  0
VERTEX
  8
0
 10
109.200873
 20
134.400785
 42
-0.010821
  0
VERTEX
  8
0
 10
109.087548
 20
139.627656
 42
-0.066171
  0
VERTEX
  8
0
 10
109.442349
 20
142.297603
 42
-0.180971
  0
VERTEX
  8
0
 10
110.319928
 20
143.520826
 42
-0.197679
  0
VERTEX
  8
0
 10
111.746976
 20
143.810212
 42
-0.183371
  0
VERTEX
  8
0
 10
112.653128
 20
143.250939
 42
-0.112356
  0
VERTEX
  8
0
 10
113.184556
 20
142.096281
 42
-0.045240
  0
VERTEX
  8
0
 10
113.440742
 20
139.919479
 42
-0.006683
  0
SEQEND
  0
POLYLINE
  8
0
 66
1
 70
1
  0
VERTEX
  8
0
 10
122.000000
 20
146.000000
 42
0.079254
  0
VERTEX
  8
0
 10
120.968131
 20
144.576473
 42
0.069322
  0
VERTEX
  8
0
 10
120.370810
 20
142.836123
 42
0.039585
  0
VERTEX
  8
0
 10
120.076782
 20
140.246770
 42
0.008485
  0
VERTEX
  8
0
 10
120.000000
 20
135.722506
 42
0.022527
  0
VERTEX
  8
0
 10
120.280561
 20
129.498410
 42
0.086274
  0
VERTEX
  8
0
 10
121.282601
 20
125.764941
 42
0.153757
  0
VERTEX
  8
0
 10
123.121481
 20
123.748853
 42
0.132317
  0
VERTEX
  8
0
 10
125.901716
 20
123.000000
 42
0.099834
  0
VERTEX
  8
0
 10
128.263528
 20
123.476324
 42
0.101831
  0
VERTEX
  8
0
 10
130.237197
 20
124.829420
 42
0.099896
  0
VERTEX
  8
0
 10
131.542922
 20
126.876768
 42
0.092410
  0
VERTEX
  8
0
 10
132.000000
 20
129.328741
 42
0.039064
  0
VERTEX
  8
0
 10
131.898985
 20
130.619716
 42
0.122228
  0
VERTEX
  8
0
 10
131.562822
 20
131.416093
 42
0.155955
  0
VERTEX
  8
0
 10
130.950873
 20
131.851771
 42
0.077476
  0
VERTEX
  8
0
 10
130.000000
 20
132.000000
 42
0.075780
  0
VERTEX
  8
0
 10
129.064742
 20
131.857434
 42
0.149477
  0
VERTEX
  8
0
 10
128.450000
 20
131.437500
 42
0.124434
  0
VERTEX
  8
0
 10
128.106468
 20
130.682766
 42
0.044917
  0
VERTEX
  8
0
 10
128.000000
 20
129.500000
 42
-0.044917
  0
VERTEX
  8
0
 10
127.893532
 20
128.317234
 42
-0.124434
  0
VERTEX
  8
0
 10
127.550000
 20
127.562500
 42
-0.149477
  0
VERTEX
  8
0
 10
126.935258
 20
127.142566
 42
-0.075780
  0
VERTEX
  8
0
 10
126.000000
 20
127.000000
 42
-0.165398
  0
VERTEX
  8
0
 10
124.918496
 20
127.367819
 42
-0.172700
  0
VERTEX
  8
0
 10
124.308824
 20
128.312500
 42
-0.052938
  0
VERTEX
  8
0
 10
124.050150
 20
130.365904
 42
-0.004884
  0
VERTEX
  8
0
 10
124.000000
 20
135.500000
 42
-0.004884
  0
VERTEX
  8
0
 10
124.050150
 20
140.634096
 42
-0.052938
  0
VERTEX
  8
0
 10
124.308824
 20
142.687500
 42
-0.172700
  0
VERTEX
  8
0
 10
124.918496
 20
143.632181
 42
-0.165398
  0
VERTEX
  8
0
 10
126.000000
 20
144.000000
 42
-0.072314
  0
VERTEX
  8
0
 10
126.769411
 20
143.888136
 42
-0.088920
  0
VERTEX
  8
0
 10
127.416667
 20
143.562500
 42
-0.102140
  0
VERTEX
  8
0
 10
127.846791
 20
143.075754
 42
-0.130775
  0
VERTEX
  8
0
 10
128.000000
 20
142.500000
 42
0.130775
  0
VERTEX
  8
0
 10
128.153209
 20
141.924246
 42
0.102140
  0
VERTEX
  8
0
 10
128.583333
 20
141.437500
 42
0.088920
  0
VERTEX
  8
0
 10
129.230589
 20
141.111864
 42
0.072314
  0
VERTEX
  8
0
 10
130.000000
 20
141.000000
 42
0.196207
  0
VERTEX
  8
0
 10
131.430727
 20
141.583917
 42
0.212271
  0
VERTEX
  8
0
 10
131.983259
 20
142.977468
 42
0.140118
  0
VERTEX
  8
0
 10
131.371526
 20
144.827903
 42
0.090769
  0
VERTEX
  8
0
 10
129.777494
 20
146.443296
 42
0.059497
  0
VERTEX
  8
0
 10
127.628305
 20
147.595615
 42
0.107977
  0
VERTEX
  8
0
 10
125.667996
 20
147.908319
 42
0.113111
  0
VERTEX
  8
0
 10
123.818208
 20
147.371997
 42
0.069596
  0
SEQEND
  0
POLYLINE
  8
0
 66
1
 70
1
  0
VERTEX
  8
0
 10
137.222506
 20
146.443296
 42
0.090757
  0
VERTEX
  8
0
 10
136.005806
 20
145.210350
 42
0.099227
  0
VERTEX
  8
0
 10
135.351720
 20
143.663038
 42
0.044817
  0
VERTEX
  8
0
 10
135.063372
 20
141.112148
 42
0.005746
  0
VERTEX
  8
0
 10
135.000000
 20
135.598284
 42
0.018873
  0
VERTEX
  8
0
 10
135.249993
 20
128.977729
 42
0.096912
  0
VERTEX
  8
0
 10
136.220807
 20
125.452165
 42
0.177538
  0
VERTEX
  8
0
 10
138.129965
 20
123.646820
 42
0.101861
  0
VERTEX
  8
0
 10
141.272037
 20
123.000000
 42
0.140427
  0
VERTEX
  8
0
 10
143.941851
 20
123.764913
 42
0.148502
  0
VERTEX
  8
0
 10
145.732502
 20
125.815267
 42
0.083222
  0
VERTEX
  8
0
 10
146.720315
 20
129.574230
 42
0.022733
  0
VERTEX
  8
0
 10
147.000000
 20
135.722506
 42
0.008485
  0
VERTEX
  8
0
 10
146.923218
 20
140.246770
 42
0.039585
  0
VERTEX
  8
0
 10
146.629190
 20
142.836123
 42
0.069322
  0
VERTEX
  8
0
 10
146.031869
 20
144.576473
 42
0.079254
  0
VERTEX
  8
0
 10
145.000000
 20
146.000000
 42
0.069596
  0
VERTEX
  8
0
 10
143.181792
 20
147.371997
 42
0.113111
  0
VERTEX
  8
0
 10
141.332004
 20
147.908319
 42
0.107977
  0
VERTEX
  8
0
 10
139.371695
 20
147.595615
 42
0.059497
  0
SEQEND
  0
POLYLINE
  8
0
 66
1
 70
1
  0
VERTEX
  8
0
 10
143.000000
 20
135.430449
 42
-0.003955
  0
VERTEX
  8
0
 10
142.956423
 20
129.921624
 42
-0.062690
  0
VERTEX
  8
0
 10
142.693683
 20
128.071069
 42
-0.238885
  0
VERTEX
  8
0
 10
142.018077
 20
127.324036
 42
-0.127601
  0
VERTEX
  8
0
 10
140.750000
 20
127.180449
 42
-0.099667
  0
VERTEX
  8
0
 10
139.530280
 20
127.611576
 42
-0.162841
  0
VERTEX
  8
0
 10
138.822582
 20
128.435742
 42
-0.074171
  0
VERTEX
  8
0
 10
138.438545
 20
130.014658
 42
-0.009799
  0
VERTEX
  8
0
 10
138.193880
 20
133.458332
 42
-0.015884
  0
VERTEX
  8
0
 10
138.094238
 20
138.550356
 42
-0.062493
  0
VERTEX
  8
0
 10
138.522160
 20
141.653763
 42
-0.128508
  0
VERTEX
  8
0
 10
139.491096
 20
143.356045
 42
-0.202116
  0
VERTEX
  8
0
 10
141.019052
 20
144.000000
 42
-0.169684
  0
VERTEX
  8
0
 10
142.087796
 20
143.626550
 42
-0.169417
  0
VERTEX
  8
0
 10
142.692210
 20
142.668504
 42
-0.051973
  0
VERTEX
  8
0
 10
142.949776
 20
140.590472
 42
-0.004867
  0
SEQEND
  0
POLYLINE
  8
0
 66
1
 70
1
  0
VERTEX
  8
0
 10
150.000000
 20
135.500000
 42
0.000000
  0
VERTEX
  8
0
 10
150.000000
 20
123.000000
 42
0.000000
  0
VERTEX
  8
0
 10
154.000000
 20
123.000000
 42
0.017388
  0
VERTEX
  8
0
 10
156.150836
 20
123.074821
 42
0.098846
  0
VERTEX
  8
0
 10
157.250000
 20
123.375000
 42
0.184152
  0
VERTEX
  8
0
 10
157.804216
 20
123.978414
 42
0.094959
  0
VERTEX
  8
0
 10
158.000000
 20
125.000000
 42
0.072254
  0
VERTEX
  8
0
 10
157.873159
 20
125.873159
 42
0.124864
  0
VERTEX
  8
0
 10
157.500000
 20
126.500000
 42
0.124864
  0
VERTEX
  8
0
 10
156.873159
 20
126.873159
 42
0.072254
  0
VERTEX
  8
0
 10
156.000000
 20
127.000000
 42
-0.193568
  0
VERTEX
  8
0
 10
154.906793
 20
127.439694
 42
-0.155680
  0
VERTEX
  8
0
 10
154.297619
 20
128.562500
 42
-0.043488
  0
VERTEX
  8
0
 10
154.046494
 20
131.033032
 42
-0.003595
  0
VERTEX
  8
0
 10
154.000000
 20
137.500000
 42
0.003595
  0
VERTEX
  8
0
 10
153.953506
 20
143.966968
 42
0.043488
  0
VERTEX
  8
0
 10
153.702381
 20
146.437500
 42
0.155680
  0
VERTEX
  8
0
 10
153.093207
 20
147.560306
 42
0.193568
  0
VERTEX
  8
0
 10
152.000000
 20
148.000000
 42
0.218517
  0
VERTEX
  8
0
 10
150.895913
 20
147.493281
 42
0.138781
  0
VERTEX
  8
0
 10
150.290000
 20
146.187500
 42
0.036854
  0
VERTEX
  8
0
 10
150.044103
 20
143.300928
 42
0.002827
  0
SEQEND
  0
POLYLINE
  8
0
 66
1
 70
1
  0
VERTEX
  8
0
 10
161.000000
 20
135.500000
 42
0.002827
  0
VERTEX
  8
0
 10
161.044103
 20
127.699072
 42
0.036854
  0
VERTEX
  8
0
 10
161.290000
 20
124.812500
 42
0.138781
  0
VERTEX
  8
0
 10
161.895913
 20
123.506719
 42
0.218517
  0
VERTEX
  8
0
 10
163.000000
 20
123.000000
 42
0.075780
  0
VERTEX
  8
0
 10
163.935258
 20
123.142566
 42
0.149477
  0
VERTEX
  8
0
 10
164.550000
 20
123.562500
 42
0.124434
  0
VERTEX
  8
0
 10
164.893532
 20
124.317234
 42
0.044917
  0
VERTEX
  8
0
 10
165.000000
 20
125.500000
 42
-0.044917
  0
VERTEX
  8
0
 10
165.106468
 20
126.682766
 42
-0.124434
  0
VERTEX
  8
0
 10
165.450000
 20
127.437500
 42
-0.149477
  0
VERTEX
  8
0
 10
166.064742
 20
127.857434
 42
-0.075780
  0
VERTEX
  8
0
 10
167.000000
 20
128.000000
 42
-0.075780
  0
VERTEX
  8
0
 10
167.935258
 20
127.857434
 42
-0.149477
  0
VERTEX
  8
0
 10
168.550000
 20
127.437500
 42
-0.124434
  0
VERTEX
  8
0
 10
168.893532
 20
126.682766
 42
-0.044917
  0
VERTEX
  8
0
 10
169.000000
 20
125.500000
 42
0.044917
  0
VERTEX
  8
0
 10
169.106468
 20
124.317234
 42
0.124434
  0
VERTEX
  8
0
 10
169.450000
 20
123.562500
 42
0.149477
  0
VERTEX
  8
0
 10
170.064742
 20
123.142566
 42
0.075780
  0
VERTEX
  8
0
 10
171.000000
 20
123.000000
 42
0.172048
  0
VERTEX
  8
0
 10
172.084318
 20
123.384490
 42
0.168955
  0
VERTEX
  8
0
 10
172.694152
 20
124.369118
 42
0.050466
  0
VERTEX
  8
0
 10
172.950837
 20
126.517130
 42
0.004522
  0
VERTEX
  8
0
 10
173.000000
 20
131.952947
 42
0.011291
  0
VERTEX
  8
0
 10
172.918552
 20
135.559291
 42
0.013004
  0
VERTEX
  8
0
 10
172.673858
 20
138.991770
 42
0.012134
  0
VERTEX
  8
0
 10
172.321765
 20
141.876814
 42
0.070572
  0
VERTEX
  8
0
 10
171.889728
 20
143.342675
 42
0.091420
  0
VERTEX
  8
0
 10
170.592573
 20
145.199175
 42
0.068659
  0
VERTEX
  8
0
 10
168.591648
 20
146.693624
 42
0.064350
  0
VERTEX
  8
0
 10
166.122100
 20
147.668198
 42
0.061917
  0
VERTEX
  8
0
 10
163.452947
 20
148.000000
 42
0.000000
  0
VERTEX
  8
0
 10
161.000000
 20
148.000000
 42
0.000000
  0
SEQEND
  0
POLYLINE
  8
0
 66
1
 70
1
  0
VERTEX
  8
0
 10
167.800000
 20
142.800000
 42
-0.126610
  0
VERTEX
  8
0
 10
168.265473
 20
142.011933
 42
-0.024774
  0
VERTEX
  8
0
 10
168.647500
 20
140.395625
 42
-0.024856
  0
VERTEX
  8
0
 10
168.911925
 20
138.417070
 42
-0.020792
  0
VERTEX
  8
0
 10
169.000000
 20
136.300000
 42
-0.010437
  0
VERTEX
  8
0
 10
168.937210
 20
133.292271
 42
-0.079942
  0
VERTEX
  8
0
 10
168.655660
 20
131.912500
 42
-0.189988
  0
VERTEX
  8
0
 10
168.051125
 20
131.245536
 42
-0.115245
  0
VERTEX
  8
0
 10
167.000000
 20
131.000000
 42
-0.134481
  0
VERTEX
  8
0
 10
165.933960
 20
131.292005
 42
-0.186514
  0
VERTEX
  8
0
 10
165.326923
 20
132.062500
 42
-0.067313
  0
VERTEX
  8
0
 10
165.056399
 20
133.696451
 42
-0.007414
  0
VERTEX
  8
0
 10
165.000000
 20
137.500000
 42
-0.011154
  0
VERTEX
  8
0
 10
165.094372
 20
141.729994
 42
-0.110805
  0
VERTEX
  8
0
 10
165.556888
 20
143.432115
 42
-0.391789
  0
VERTEX
  8
0
 10
166.422783
 20
143.736418
 42
-0.094412
  0
SEQEND
  0
POLYLINE
  8
0
 66
1
 70
1
  0
VERTEX
  8
0
 10
175.000000
 20
146.000000
 42
0.072557
  0
VERTEX
  8
0
 10
175.128798
 20
145.117102
 42
0.128579
  0
VERTEX
  8
0
 10
175.508042
 20
144.492208
 42
0.125608
  0
VERTEX
  8
0
 10
176.151969
 20
144.123810
 42
0.067541
  0
VERTEX
  8
0
 10
177.064338
 20
144.000000
 42
-0.179976
  0
VERTEX
  8
0
 10
178.195474
 20
143.579215
 42
-0.175107
  0
VERTEX
  8
0
 10
178.792607
 20
142.516218
 42
-0.045527
  0
VERTEX
  8
0
 10
178.969584
 20
140.133070
 42
-0.003264
  0
VERTEX
  8
0
 10
178.814338
 20
133.497890
 42
0.003846
  0
VERTEX
  8
0
 10
178.676741
 20
127.309246
 42
0.037624
  0
VERTEX
  8
0
 10
178.835173
 20
124.701279
 42
0.123286
  0
VERTEX
  8
0
 10
179.329895
 20
123.467031
 42
0.240864
  0
VERTEX
  8
0
 10
180.250000
 20
122.997890
 42
0.241299
  0
VERTEX
  8
0
 10
181.178582
 20
123.475141
 42
0.114847
  0
VERTEX
  8
0
 10
181.708283
 20
124.749950
 42
0.037182
  0
VERTEX
  8
0
 10
181.949832
 20
127.403258
 42
0.004114
  0
VERTEX
  8
0
 10
182.000000
 20
133.500000
 42
-0.003595
  0
VERTEX
  8
0
 10
182.046494
 20
139.966968
 42
-0.043488
  0
VERTEX
  8
0
 10
182.297619
 20
142.437500
 42
-0.155680
  0
VERTEX
  8
0
 10
182.906793
 20
143.560306
 42
-0.193568
  0
VERTEX
  8
0
 10
184.000000
 20
144.000000
 42
0.072254
  0
VERTEX
  8
0
 10
184.873159
 20
144.126841
 42
0.124864
  0
VERTEX
  8
0
 10
185.500000
 20
144.500000
 42
0.124864
  0
VERTEX
  8
0
 10
185.873159
 20
145.126841
 42
0.072254
  0
VERTEX
  8
0
 10
186.000000
 20
146.000000
 42
0.118451
  0
VERTEX
  8
0
 10
185.746716
 20
147.054152
 42
0.189837
  0
VERTEX
  8
0
 10
185.062500
 20
147.659091
 42
0.077556
  0
VERTEX
  8
0
 10
183.640147
 20
147.938496
 42
0.009792
  0
VERTEX
  8
0
 10
180.500000
 20
148.000000
 42
0.009792
  0
VERTEX
  8
0
 10
177.359853
 20
147.938496
 42
0.077556
  0
VERTEX
  8
0
 10
175.937500
 20
147.659091
 42
0.189837
  0
VERTEX
  8
0
 10
175.253284
 20
147.054152
 42
0.118451
  0
SEQEND
  0
POLYLINE
  8
0
 66
1
 70
1
  0
VERTEX
  8
0
 10
188.500000
 20
135.500000
 42
0.000000
  0
VERTEX
  8
0
 10
188.500000
 20
123.000000
 42
0.000000
  0
VERTEX
  8
0
 10
193.250000
 20
123.000000
 42
0.012662
  0
VERTEX
  8
0
 10
195.894234
 20
123.066972
 42
0.087189
  0
VERTEX
  8
0
 10
197.156250
 20
123.355263
 42
0.189177
  0
VERTEX
  8
0
 10
197.775695
 20
123.958880
 42
0.106501
  0
VERTEX
  8
0
 10
198.000000
 20
125.000000
 42
0.081208
  0
VERTEX
  8
0
 10
197.840542
 20
125.975317
 42
0.166173
  0
VERTEX
  8
0
 10
197.375000
 20
126.583333
 42
0.116834
  0
VERTEX
  8
0
 10
196.500917
 20
126.907747
 42
0.030703
  0
VERTEX
  8
0
 10
195.000000
 20
127.000000
 42
-0.033956
  0
VERTEX
  8
0
 10
193.224263
 20
127.120733
 42
-0.200505
  0
VERTEX
  8
0
 10
192.437500
 20
127.583333
 42
-0.146160
  0
VERTEX
  8
0
 10
192.076799
 20
128.561635
 42
-0.015744
  0
VERTEX
  8
0
 10
192.000000
 20
131.000000
 42
-0.015744
  0
VERTEX
  8
0
 10
192.076799
 20
133.438365
 42
-0.146160
  0
VERTEX
  8
0
 10
192.437500
 20
134.416667
 42
-0.200505
  0
VERTEX
  8
0
 10
193.224263
 20
134.879267
 42
-0.033956
  0
VERTEX
  8
0
 10
195.000000
 20
135.000000
 42
0.082192
  0
VERTEX
  8
0
 10
197.196682
 20
135.363556
 42
0.299611
  0
VERTEX
  8
0
 10
198.022108
 20
136.425864
 42
0.309201
  0
VERTEX
  8
0
 10
197.364501
 20
137.570715
 42
0.083971
  0
VERTEX
  8
0
 10
195.250000
 20
138.183578
 42
-0.046929
  0
VERTEX
  8
0
 10
193.866688
 20
138.476032
 42
-0.121406
  0
VERTEX
  8
0
 10
193.000000
 20
139.000000
 42
-0.121406
  0
VERTEX
  8
0
 10
192.476032
 20
139.866688
 42
-0.046929
  0
VERTEX
  8
0
 10
192.183578
 20
141.250000
 42
-0.032648
  0
VERTEX
  8
0
 10
192.106417
 20
142.814281
 42
-0.194761
  0
VERTEX
  8
0
 10
192.418750
 20
143.551595
 42
-0.173213
  0
VERTEX
  8
0
 10
193.181481
 20
143.912890
 42
-0.024843
  0
VERTEX
  8
0
 10
194.933578
 20
144.000000
 42
0.029358
  0
VERTEX
  8
0
 10
196.477207
 20
144.090715
 42
0.115646
  0
VERTEX
  8
0
 10
197.366697
 20
144.413056
 42
0.167926
  0
VERTEX
  8
0
 10
197.838221
 20
145.020469
 42
0.082024
  0
VERTEX
  8
0
 10
198.000000
 20
146.000000
 42
0.106501
  0
VERTEX
  8
0
 10
197.775695
 20
147.041120
 42
0.189177
  0
VERTEX
  8
0
 10
197.156250
 20
147.644737
 42
0.087189
  0
VERTEX
  8
0
 10
195.894234
 20
147.933028
 42
0.012662
  0
VERTEX
  8
0
 10
193.250000
 20
148.000000
 42
0.000000
  0
VERTEX
  8
0
 10
188.500000
 20
148.000000
 42
0.000000
  0
SEQEND
  0
POLYLINE
  8
0
 66
1
 70
1
  0
VERTEX
  8
0
 10
27.000000
 20
96.000000
 42
0.000000
  0
VERTEX
  8
0
 10
27.000000
 20
75.000000
 42
0.000000
  0
VERTEX
  8
0
 10
30.500000
 20
75.000000
 42
0.000000
  0
VERTEX
  8
0
 10
34.000000
 20
75.000000
 42
0.000000
  0
VERTEX
  8
0
 10
34.000000
 20
82.000000
 42
0.000000
  0
VERTEX
  8
0
 10
34.000000
 20
89.000000
 42
0.000000
  0
VERTEX
  8
0
 10
38.500000
 20
89.000000
 42
0.012019
  0
VERTEX
  8
0
 10
41.417500
 20
89.070142
 42
0.154453
  0
VERTEX
  8
0
 10
42.428571
 20
89.444444
 42
0.206324
  0
VERTEX
  8
0
 10
42.894012
 20
90.290758
 42
0.023974
  0
VERTEX
  8
0
 10
43.000000
 20
92.500000
 42
0.023974
  0
VERTEX
  8
0
 10
42.894012
 20
94.709242
 42
0.206324
  0
VERTEX
  8
0
 10
42.428571
 20
95.555556
 42
0.154453
  0
VERTEX
  8
0
 10
41.417500
 20
95.929858
 42
0.012019
  0
VERTEX
  8
0
 10
38.500000
 20
96.000000
 42
0.000000
  0
VERTEX
  8
0
 10
34.000000
 20
96.000000
 42
0.000000
  0
VERTEX
  8
0
 10
34.000000
 20
103.000000
 42
0.000000
  0
VERTEX
  8
0
 10
34.000000
 20
110.000000
 42
0.000000
  0
VERTEX
  8
0
 10
38.500000
 20
110.000000
 42
0.012019
  0
VERTEX
  8
0
 10
41.417500
 20
110.070142
 42
0.154453
  0
VERTEX
  8
0
 10
42.428571
 20
110.444444
 42
0.206324
  0
VERTEX
  8
0
 10
42.894012
 20
111.290758
 42
0.023974
  0
VERTEX
  8
0
 10
43.000000
 20
113.500000
 42
0.000000
  0
VERTEX
  8
0
 10
43.000000
 20
117.000000
 42
0.000000
  0
VERTEX
  8
0
 10
35.000000
 20
117.000000
 42
0.000000
  0
VERTEX
  8
0
 10
27.000000
 20
117.000000
 42
0.000000
  0
SEQEND
  0
POLYLINE
  8
0
 66
1
 70
1
  0
VERTEX
  8
0
 10
48.000000
 20
95.936642
 42
0.000000
  0
VERTEX
  8
0
 10
48.000000
 20
74.873283
 42
0.000000
  0
VERTEX
  8
0
 10
51.250000
 20
75.186642
 42
0.032999
  0
VERTEX
  8
0
 10
53.119337
 20
75.492335
 42
0.157075
  0
VERTEX
  8
0
 10
54.036590
 20
76.041759
 42
0.137093
  0
VERTEX
  8
0
 10
54.528196
 20
77.067229
 42
0.022995
  0
VERTEX
  8
0
 10
54.810365
 20
79.250000
 42
-0.020394
  0
VERTEX
  8
0
 10
55.080779
 20
81.430985
 42
-0.138361
  0
VERTEX
  8
0
 10
55.538127
 20
82.404688
 42
-0.177457
  0
VERTEX
  8
0
 10
56.379190
 20
82.870131
 42
-0.038567
  0
VERTEX
  8
0
 10
58.060365
 20
83.000000
 42
-0.035802
  0
VERTEX
  8
0
 10
59.788561
 20
82.876095
 42
-0.201117
  0
VERTEX
  8
0
 10
60.566273
 20
82.409822
 42
-0.143658
  0
VERTEX
  8
0
 10
60.923490
 20
81.426364
 42
-0.015762
  0
VERTEX
  8
0
 10
61.000000
 20
79.000000
 42
0.015830
  0
VERTEX
  8
0
 10
61.079836
 20
76.478972
 42
0.165362
  0
VERTEX
  8
0
 10
61.468750
 20
75.535714
 42
0.192545
  0
VERTEX
  8
0
 10
62.324962
 20
75.099137
 42
0.022778
  0
VERTEX
  8
0
 10
64.500000
 20
75.000000
 42
0.000000
  0
VERTEX
  8
0
 10
68.000000
 20
75.000000
 42
0.000000
  0
VERTEX
  8
0
 10
67.998446
 20
90.250000
 42
0.004297
  0
VERTEX
  8
0
 10
67.927321
 20
98.428928
 42
0.018970
  0
VERTEX
  8
0
 10
67.661384
 20
103.239464
 42
0.032491
  0
VERTEX
  8
0
 10
67.144398
 20
106.481710
 42
0.060699
  0
VERTEX
  8
0
 10
66.248446
 20
108.980067
 42
0.069288
  0
VERTEX
  8
0
 10
63.929295
 20
112.341510
 42
0.072394
  0
VERTEX
  8
0
 10
60.810747
 20
114.883920
 42
0.071219
  0
VERTEX
  8
0
 10
57.049891
 20
116.461770
 42
0.063848
  0
VERTEX
  8
0
 10
52.852117
 20
117.000000
 42
0.000000
  0
VERTEX
  8
0
 10
48.000000
 20
117.000000
 42
0.000000
  0
SEQEND
  0
POLYLINE
  8
0
 66
1
 70
1
  0
VERTEX
  8
0
 10
58.927420
 20
107.365141
 42
-0.057670
  0
VERTEX
  8
0
 10
59.966782
 20
105.674848
 42
-0.057996
  0
VERTEX
  8
0
 10
60.590212
 20
103.795017
 42
-0.039456
  0
VERTEX
  8
0
 10
60.909000
 20
101.268103
 42
-0.011656
  0
VERTEX
  8
0
 10
61.000000
 20
97.365141
 42
0.000000
  0
VERTEX
  8
0
 10
61.000000
 20
90.000000
 42
0.000000
  0
VERTEX
  8
0
 10
58.000000
 20
90.000000
 42
0.000000
  0
VERTEX
  8
0
 10
55.000000
 20
90.000000
 42
0.000000
  0
VERTEX
  8
0
 10
55.000000
 20
100.000000
 42
-0.008699
  0
VERTEX
  8
0
 10
55.066714
 20
103.834200
 42
-0.014421
  0
VERTEX
  8
0
 10
55.272430
 20
107.062500
 42
-0.008068
  0
VERTEX
  8
0
 10
55.557110
 20
109.673227
 42
-0.378130
  0
VERTEX
  8
0
 10
55.927420
 20
110.000000
 42
-0.156185
  0
VERTEX
  8
0
 10
56.409413
 20
109.845675
 42
-0.025244
  0
VERTEX
  8
0
 10
57.191231
 20
109.226010
 42
-0.025784
  0
VERTEX
  8
0
 10
58.065923
 20
108.374033
 42
-0.020123
  0
SEQEND
  0
POLYLINE
  8
0
 66
1
 70
1
  0
VERTEX
  8
0
 10
90.181954
 20
114.500000
 42
-0.130750
  0
VERTEX
  8
0
 10
88.895574
 20
112.933587
 42
-0.100940
  0
VERTEX
  8
0
 10
86.871455
 20
112.024755
 42
-0.113337
  0
VERTEX
  8
0
 10
84.841047
 20
112.034677
 42
-0.199231
  0
VERTEX
  8
0
 10
83.500000
 20
113.000000
 42
0.099407
  0
VERTEX
  8
0
 10
82.839810
 20
113.706202
 42
0.189365
  0
VERTEX
  8
0
 10
82.097298
 20
113.893108
 42
0.108049
  0
VERTEX
  8
0
 10
81.117113
 20
113.543110
 42
0.022428
  0
VERTEX
  8
0
 10
79.601615
 20
112.499452
 42
0.033653
  0
VERTEX
  8
0
 10
78.675554
 20
111.695064
 42
0.140443
  0
VERTEX
  8
0
 10
78.318996
 20
111.056506
 42
0.174056
  0
VERTEX
  8
0
 10
78.393631
 20
110.407330
 42
0.058466
  0
VERTEX
  8
0
 10
78.921009
 20
109.595178
 42
-0.171028
  0
VERTEX
  8
0
 10
79.558551
 20
107.869797
 42
-0.144153
  0
VERTEX
  8
0
 10
79.034300
 20
105.984081
 42
-0.128513
  0
VERTEX
  8
0
 10
77.496480
 20
104.529251
 42
-0.126176
  0
VERTEX
  8
0
 10
75.432592
 20
104.000000
 42
0.138823
  0
VERTEX
  8
0
 10
73.299236
 20
103.396042
 42
0.160985
  0
VERTEX
  8
0
 10
71.945395
 20
101.788049
 42
0.174099
  0
VERTEX
  8
0
 10
71.873774
 20
99.789752
 42
0.161535
  0
VERTEX
  8
0
 10
73.083381
 20
98.128028
 42
-0.122733
  0
VERTEX
  8
0
 10
74.405958
 20
96.574537
 42
-0.105750
  0
VERTEX
  8
0
 10
74.938289
 20
94.492557
 42
-0.114210
  0
VERTEX
  8
0
 10
74.559931
 20
92.501933
 42
-0.162746
  0
VERTEX
  8
0
 10
73.358674
 20
91.180848
 42
0.202204
  0
VERTEX
  8
0
 10
72.265730
 20
89.777142
 42
0.129498
  0
VERTEX
  8
0
 10
72.255306
 20
87.681038
 42
0.147160
  0
VERTEX
  8
0
 10
73.258175
 20
86.026112
 42
0.252558
  0
VERTEX
  8
0
 10
74.785150
 20
85.654067
 42
-0.105136
  0
VERTEX
  8
0
 10
75.609563
 20
85.692244
 42
-0.058912
  0
VERTEX
  8
0
 10
76.577741
 20
85.412882
 42
-0.054307
  0
VERTEX
  8
0
 10
77.544694
 20
84.875670
 42
-0.054959
  0
VERTEX
  8
0
 10
78.369026
 20
84.144725
 42
-0.037711
  0
VERTEX
  8
0
 10
79.213337
 20
83.057240
 42
-0.102838
  0
VERTEX
  8
0
 10
79.572713
 20
82.157050
 42
-0.114265
  0
VERTEX
  8
0
 10
79.524728
 20
81.246718
 42
-0.052847
  0
VERTEX
  8
0
 10
79.076186
 20
80.142355
 42
0.049980
  0
VERTEX
  8
0
 10
78.615645
 20
79.026792
 42
0.149768
  0
VERTEX
  8
0
 10
78.620281
 20
78.211101
 42
0.130657
  0
VERTEX
  8
0
 10
79.087956
 20
77.469855
 42
0.034285
  0
VERTEX
  8
0
 10
80.190100
 20
76.579402
 42
0.024798
  0
VERTEX
  8
0
 10
81.477735
 20
75.769558
 42
0.124742
  0
VERTEX
  8
0
 10
82.292437
 20
75.549652
 42
0.148620
  0
VERTEX
  8
0
 10
83.037690
 20
75.763663
 42
0.040232
  0
VERTEX
  8
0
 10
84.022359
 20
76.520234
 42
-0.027902
  0
VERTEX
  8
0
 10
84.723018
 20
77.086569
 42
-0.028742
  0
VERTEX
  8
0
 10
85.475694
 20
77.565319
 42
-0.029995
  0
VERTEX
  8
0
 10
86.172887
 20
77.901307
 42
-0.097584
  0
VERTEX
  8
0
 10
86.673753
 20
78.000000
 42
-0.176039
  0
VERTEX
  8
0
 10
87.961743
 20
77.532024
 42
-0.049715
  0
VERTEX
  8
0
 10
89.478825
 20
75.981303
 42
-0.049553
  0
VERTEX
  8
0
 10
90.619097
 20
74.225829
 42
-0.263510
  0
VERTEX
  8
0
 10
90.576929
 20
73.124474
 42
0.168411
  0
VERTEX
  8
0
 10
90.474838
 20
72.667688
 42
0.100446
  0
VERTEX
  8
0
 10
90.648718
 20
72.132303
 42
0.079256
  0
VERTEX
  8
0
 10
91.073739
 20
71.598502
 42
0.057558
  0
VERTEX
  8
0
 10
91.690542
 20
71.153306
 42
-0.092362
  0
VERTEX
  8
0
 10
92.600353
 20
70.395640
 42
-0.176289
  0
VERTEX
  8
0
 10
92.916352
 20
69.511321
 42
-0.068779
  0
VERTEX
  8
0
 10
92.708158
 20
68.066783
 42
-0.006220
  0
VERTEX
  8
0
 10
91.652358
 20
64.566098
 42
0.028831
  0
VERTEX
  8
0
 10
90.607386
 20
60.434330
 42
0.081273
  0
VERTEX
  8
0
 10
90.524595
 20
57.465737
 42
0.153497
  0
VERTEX
  8
0
 10
91.354410
 20
55.698167
 42
0.209814
  0
VERTEX
  8
0
 10
92.944943
 20
55.000000
 42
0.124001
  0
VERTEX
  8
0
 10
95.084835
 20
55.538987
 42
0.202584
  0
VERTEX
  8
0
 10
96.239931
 20
56.974563
 42
0.115744
  0
VERTEX
  8
0
 10
96.360489
 20
59.519760
 42
0.030567
  0
VERTEX
  8
0
 10
95.368687
 20
63.499338
 42
-0.012119
  0
VERTEX
  8
0
 10
94.510563
 20
66.470945
 42
-0.045388
  0
VERTEX
  8
0
 10
94.189508
 20
68.385135
 42
-0.073115
  0
VERTEX
  8
0
 10
94.289571
 20
69.801974
 42
-0.085651
  0
VERTEX
  8
0
 10
94.797948
 20
71.048071
 42
0.030915
  0
VERTEX
  8
0
 10
95.258127
 20
71.897603
 42
0.025065
  0
VERTEX
  8
0
 10
95.646897
 20
72.858363
 42
0.025745
  0
VERTEX
  8
0
 10
95.915781
 20
73.783299
 42
0.057922
  0
VERTEX
  8
0
 10
96.000000
 20
74.507870
 42
-0.131584
  0
VERTEX
  8
0
 10
96.179524
 20
75.178224
 42
-0.057055
  0
VERTEX
  8
0
 10
96.733182
 20
75.926029
 42
-0.050968
  0
VERTEX
  8
0
 10
97.541139
 20
76.631310
 42
-0.047104
  0
VERTEX
  8
0
 10
98.495938
 20
77.180103
 42
-0.036153
  0
VERTEX
  8
0
 10
99.870091
 20
77.689903
 42
-0.104247
  0
VERTEX
  8
0
 10
100.877932
 20
77.765870
 42
-0.109267
  0
VERTEX
  8
0
 10
101.802688
 20
77.428117
 42
-0.041952
  0
VERTEX
  8
0
 10
102.896660
 20
76.593521
 42
0.098106
  0
VERTEX
  8
0
 10
104.636729
 20
75.550525
 42
0.489557
  0
VERTEX
  8
0
 10
105.458402
 20
76.072710
 42
0.143041
  0
VERTEX
  8
0
 10
105.071819
 20
78.082824
 42
0.035239
  0
VERTEX
  8
0
 10
103.311716
 20
80.988703
 42
0.021130
  0
VERTEX
  8
0
 10
101.976093
 20
82.719234
 42
0.052573
  0
VERTEX
  8
0
 10
100.825234
 20
83.826700
 42
0.080938
  0
VERTEX
  8
0
 10
99.835697
 20
84.366788
 42
0.185410
  0
VERTEX
  8
0
 10
99.000000
 20
84.342907
 42
-0.105764
  0
VERTEX
  8
0
 10
92.873847
 20
83.199753
 42
-0.128779
  0
VERTEX
  8
0
 10
87.286942
 20
84.820900
 42
-0.135780
  0
VERTEX
  8
0
 10
83.412847
 20
88.878015
 42
-0.123730
  0
VERTEX
  8
0
 10
82.000000
 20
94.500000
 42
-0.110354
  0
VERTEX
  8
0
 10
83.179145
 20
99.777474
 42
-0.117713
  0
VERTEX
  8
0
 10
86.479013
 20
103.908701
 42
-0.119122
  0
VERTEX
  8
0
 10
91.254076
 20
106.071752
 42
-0.114904
  0
VERTEX
  8
0
 10
96.558241
 20
105.856308
 42
0.023399
  0
VERTEX
  8
0
 10
98.936902
 20
105.317867
 42
0.128150
  0
VERTEX
  8
0
 10
100.239305
 20
105.421090
 42
0.118063
  0
VERTEX
  8
0
 10
101.378791
 20
106.149920
 42
0.018559
  0
VERTEX
  8
0
 10
103.166838
 20
108.149502
 42
0.026064
  0
VERTEX
  8
0
 10
104.867690
 20
110.432130
 42
0.063534
  0
VERTEX
  8
0
 10
105.799891
 20
112.307238
 42
0.145821
  0
VERTEX
  8
0
 10
105.852990
 20
113.490035
 42
0.344218
  0
VERTEX
  8
0
 10
105.200000
 20
114.000000
 42
0.096385
  0
VERTEX
  8
0
 10
104.817807
 20
113.925634
 42
0.034482
  0
VERTEX
  8
0
 10
104.316380
 20
113.681380
 42
0.032674
  0
VERTEX
  8
0
 10
103.789423
 20
113.330419
 42
0.033143
  0
VERTEX
  8
0
 10
103.315335
 20
112.915335
 42
-0.163033
  0
VERTEX
  8
0
 10
101.748990
 20
112.135042
 42
-0.100938
  0
VERTEX
  8
0
 10
99.677428
 20
112.264148
 42
-0.095653
  0
VERTEX
  8
0
 10
97.727157
 20
113.216270
 42
-0.128823
  0
VERTEX
  8
0
 10
96.512872
 20
114.750000
 42
0.129573
  0
VERTEX
  8
0
 10
95.202379
 20
116.400241
 42
0.172019
  0
VERTEX
  8
0
 10
93.385672
 20
116.964676
 42
0.162815
  0
VERTEX
  8
0
 10
91.543406
 20
116.266471
 42
0.115055
  0
SEQEND
  0
POLYLINE
  8
0
 66
1
 70
1
  0
VERTEX
  8
0
 10
108.000000
 20
113.500000
 42
0.021354
  0
VERTEX
  8
0
 10
108.088063
 20
111.438974
 42
0.157079
  0
VERTEX
  8
0
 10
108.464286
 20
110.541667
 42
0.185552
  0
VERTEX
  8
0
 10
109.260192
 20
110.111769
 42
0.032088
  0
VERTEX
  8
0
 10
111.000000
 20
110.000000
 42
0.000000
  0
VERTEX
  8
0
 10
114.000000
 20
110.000000
 42
0.000000
  0
VERTEX
  8
0
 10
114.000000
 20
92.500000
 42
0.000000
  0
VERTEX
  8
0
 10
114.000000
 20
75.000000
 42
0.000000
  0
VERTEX
  8
0
 10
117.500000
 20
75.000000
 42
0.000000
  0
VERTEX
  8
0
 10
121.000000
 20
75.000000
 42
0.000000
  0
VERTEX
  8
0
 10
121.000000
 20
92.500000
 42
0.000000
  0
VERTEX
  8
0
 10
121.000000
 20
110.000000
 42
0.000000
  0
VERTEX
  8
0
 10
124.000000
 20
110.000000
 42
0.032088
  0
VERTEX
  8
0
 10
125.739808
 20
110.111769
 42
0.185552
  0
VERTEX
  8
0
 10
126.535714
 20
110.541667
 42
0.157079
  0
VERTEX
  8
0
 10
126.911937
 20
111.438974
 42
0.021354
  0
VERTEX
  8
0
 10
127.000000
 20
113.500000
 42
0.000000
  0
VERTEX
  8
0
 10
127.000000
 20
117.000000
 42
0.000000
  0
VERTEX
  8
0
 10
117.500000
 20
117.000000
 42
0.000000
  0
VERTEX
  8
0
 10
108.000000
 20
117.000000
 42
0.000000
  0
SEQEND
  0
POLYLINE
  8
0
 66
1
 70
1
  0
VERTEX
  8
0
 10
131.923077
 20
114.076923
 42
0.000000
  0
VERTEX
  8
0
 10
129.000000
 20
111.153846
 42
0.000000
  0
VERTEX
  8
0
 10
129.000000
 20
97.123976
 42
0.006600
  0
VERTEX
  8
0
 10
129.077277
 20
91.270270
 42
0.010594
  0
VERTEX
  8
0
 10
129.314816
 20
86.282475
 42
0.009653
  0
VERTEX
  8
0
 10
129.664160
 20
82.326494
 42
0.080207
  0
VERTEX
  8
0
 10
130.138557
 20
80.595245
 42
0.069832
  0
VERTEX
  8
0
 10
130.824370
 20
79.518096
 42
0.033421
  0
VERTEX
  8
0
 10
131.972347
 20
78.341807
 42
0.032322
  0
VERTEX
  8
0
 10
133.356969
 20
77.253510
 42
0.039634
  0
VERTEX
  8
0
 10
134.782421
 20
76.433007
 42
0.028036
  0
VERTEX
  8
0
 10
136.760138
 20
75.626962
 42
0.064204
  0
VERTEX
  8
0
 10
138.333811
 20
75.303504
 42
0.063915
  0
VERTEX
  8
0
 10
139.942433
 20
75.389113
 42
0.027575
  0
VERTEX
  8
0
 10
142.033487
 20
75.891887
 42
0.089869
  0
VERTEX
  8
0
 10
145.801817
 20
77.807741
 42
0.150065
  0
VERTEX
  8
0
 10
147.861154
 20
80.672412
 42
0.071799
  0
VERTEX
  8
0
 10
148.790789
 20
85.723132
 42
0.009668
  0
VERTEX
  8
0
 10
149.000000
 20
96.541740
 42
0.000000
  0
VERTEX
  8
0
 10
149.000000
 20
111.153846
 42
0.000000
  0
VERTEX
  8
0
 10
146.076923
 20
114.076923
 42
0.091534
  0
VERTEX
  8
0
 10
142.755571
 20
116.363051
 42
0.105458
  0
VERTEX
  8
0
 10
139.000000
 20
117.164071
 42
0.105458
  0
VERTEX
  8
0
 10
135.244429
 20
116.363051
 42
0.091534
  0
SEQEND
  0
POLYLINE
  8
0
 66
1
 70
1
  0
VERTEX
  8
0
 10
141.778784
 20
96.896334
 42
-0.004471
  0
VERTEX
  8
0
 10
141.867431
 20
90.167558
 42
-0.023528
  0
VERTEX
  8
0
 10
141.709301
 20
86.476583
 42
-0.043647
  0
VERTEX
  8
0
 10
141.308481
 20
84.237096
 42
-0.154648
  0
VERTEX
  8
0
 10
140.528784
 20
83.023889
 42
-0.044149
  0
VERTEX
  8
0
 10
139.685565
 20
82.441444
 42
-0.127778
  0
VERTEX
  8
0
 10
139.005771
 20
82.259100
 42
-0.129745
  0
VERTEX
  8
0
 10
138.329596
 20
82.431872
 42
-0.046161
  0
VERTEX
  8
0
 10
137.500000
 20
83.000000
 42
-0.155042
  0
VERTEX
  8
0
 10
136.741345
 20
84.182467
 42
-0.037965
  0
VERTEX
  8
0
 10
136.306198
 20
86.483398
 42
-0.022673
  0
VERTEX
  8
0
 10
136.063977
 20
90.165970
 42
-0.005086
  0
VERTEX
  8
0
 10
136.000000
 20
96.455778
 42
-0.005421
  0
VERTEX
  8
0
 10
136.051294
 20
101.186859
 42
-0.008282
  0
VERTEX
  8
0
 10
136.208224
 20
105.287943
 42
-0.003765
  0
VERTEX
  8
0
 10
136.424420
 20
108.751439
 42
-0.180815
  0
VERTEX
  8
0
 10
136.708849
 20
109.375516
 42
-0.118669
  0
VERTEX
  8
0
 10
137.121725
 20
109.628178
 42
-0.040663
  0
VERTEX
  8
0
 10
137.809062
 20
109.790312
 42
-0.037695
  0
VERTEX
  8
0
 10
138.625458
 20
109.851670
 42
-0.035475
  0
VERTEX
  8
0
 10
139.458849
 20
109.792183
 42
-0.196403
  0
VERTEX
  8
0
 10
140.598800
 20
109.124189
 42
-0.119281
  0
VERTEX
  8
0
 10
141.238582
 20
107.673793
 42
-0.035922
  0
VERTEX
  8
0
 10
141.559350
 20
104.664188
 42
-0.003063
  0
SEQEND
  0
POLYLINE
  8
0
 66
1
 70
1
  0
VERTEX
  8
0
 10
154.000000
 20
96.000000
 42
0.000000
  0
VERTEX
  8
0
 10
154.000000
 20
75.000000
 42
0.000000
  0
VERTEX
  8
0
 10
157.500000
 20
75.000000
 42
0.000000
  0
VERTEX
  8
0
 10
161.000000
 20
75.000000
 42
0.000000
  0
VERTEX
  8
0
 10
161.000000
 20
83.000000
 42
-0.009117
  0
VERTEX
  8
0
 10
161.055935
 20
86.067336
 42
-0.015105
  0
VERTEX
  8
0
 10
161.228389
 20
88.650000
 42
-0.008816
  0
VERTEX
  8
0
 10
161.467447
 20
90.728438
 42
-0.376017
  0
VERTEX
  8
0
 10
161.777494
 20
91.000000
 42
-0.102129
  0
VERTEX
  8
0
 10
162.206324
 20
90.911485
 42
-0.017318
  0
VERTEX
  8
0
 10
162.965624
 20
90.552409
 42
-0.018289
  0
VERTEX
  8
0
 10
163.840512
 20
90.059646
 42
-0.015375
  0
VERTEX
  8
0
 10
164.730392
 20
89.476287
 42
-0.080327
  0
VERTEX
  8
0
 10
165.839962
 20
88.397523
 42
-0.082773
  0
VERTEX
  8
0
 10
166.539142
 20
87.034608
 42
-0.051930
  0
VERTEX
  8
0
 10
166.956529
 20
85.027757
 42
-0.013403
  0
VERTEX
  8
0
 10
167.202898
 20
81.726287
 42
0.007354
  0
VERTEX
  8
0
 10
167.458614
 20
77.632797
 42
0.105361
  0
VERTEX
  8
0
 10
167.869683
 20
76.240260
 42
0.205943
  0
VERTEX
  8
0
 10
168.747108
 20
75.548536
 42
0.041342
  0
VERTEX
  8
0
 10
170.750000
 20
75.186642
 42
0.000000
  0
VERTEX
  8
0
 10
174.000000
 20
74.873283
 42
0.000000
  0
VERTEX
  8
0
 10
173.996262
 20
81.686642
 42
0.015619
  0
VERTEX
  8
0
 10
173.891252
 20
84.989457
 42
0.030349
  0
VERTEX
  8
0
 10
173.565783
 20
87.607185
 42
0.037701
  0
VERTEX
  8
0
 10
173.001802
 20
89.729420
 42
0.052989
  0
VERTEX
  8
0
 10
172.166104
 20
91.500000
 42
-0.019190
  0
VERTEX
  8
0
 10
171.100619
 20
93.411583
 42
-0.118009
  0
VERTEX
  8
0
 10
170.839811
 20
94.500000
 42
-0.118033
  0
VERTEX
  8
0
 10
171.100094
 20
95.588447
 42
-0.019201
  0
VERTEX
  8
0
 10
172.164577
 20
97.500000
 42
0.050149
  0
VERTEX
  8
0
 10
172.937628
 20
99.115635
 42
0.032442
  0
VERTEX
  8
0
 10
173.513386
 20
101.108812
 42
0.029548
  0
VERTEX
  8
0
 10
173.873175
 20
103.377636
 42
0.024306
  0
VERTEX
  8
0
 10
173.994735
 20
105.826923
 42
0.019635
  0
VERTEX
  8
0
 10
173.880448
 20
108.811344
 42
0.065695
  0
VERTEX
  8
0
 10
173.475453
 20
110.723251
 42
0.077183
  0
VERTEX
  8
0
 10
172.628166
 20
112.296547
 42
0.034347
  0
VERTEX
  8
0
 10
171.076923
 20
114.076923
 42
0.037239
  0
VERTEX
  8
0
 10
169.174015
 20
115.715688
 42
0.088260
  0
VERTEX
  8
0
 10
167.505105
 20
116.543478
 42
0.060432
  0
VERTEX
  8
0
 10
165.288505
 20
116.909539
 42
0.010738
  0
VERTEX
  8
0
 10
161.076923
 20
117.000000
 42
0.000000
  0
VERTEX
  8
0
 10
154.000000
 20
117.000000
 42
0.000000
  0
SEQEND
  0
POLYLINE
  8
0
 66
1
 70
1
  0
VERTEX
  8
0
 10
166.947193
 20
108.098670
 42
-0.163026
  0
VERTEX
  8
0
 10
167.429876
 20
105.255873
 42
-0.083843
  0
VERTEX
  8
0
 10
166.272941
 20
101.791598
 42
-0.085893
  0
VERTEX
  8
0
 10
164.081396
 20
98.973498
 42
-0.186741
  0
VERTEX
  8
0
 10
161.565741
 20
98.000000
 42
-0.377397
  0
VERTEX
  8
0
 10
161.339948
 20
98.198733
 42
-0.008326
  0
VERTEX
  8
0
 10
161.166187
 20
99.762500
 42
-0.014660
  0
VERTEX
  8
0
 10
161.040698
 20
101.699486
 42
-0.008845
  0
VERTEX
  8
0
 10
161.000000
 20
104.000000
 42
-0.007401
  0
VERTEX
  8
0
 10
161.055435
 20
107.744663
 42
-0.090289
  0
VERTEX
  8
0
 10
161.352701
 20
109.141435
 42
-0.223398
  0
VERTEX
  8
0
 10
162.056364
 20
109.785796
 42
-0.075608
  0
VERTEX
  8
0
 10
163.464816
 20
110.000000
 42
-0.066500
  0
VERTEX
  8
0
 10
164.501453
 20
109.861515
 42
-0.058604
  0
VERTEX
  8
0
 10
165.513986
 20
109.453944
 42
-0.060606
  0
VERTEX
  8
0
 10
166.370645
 20
108.841306
 42
-0.084580
  0
SEQEND
  0
POLYLINE
  8
0
 66
1
 70
1
  0
VERTEX
  8
0
 10
178.000000
 20
110.047053
 42
0.023363
  0
VERTEX
  8
0
 10
178.242107
 20
104.868460
 42
0.059390
  0
VERTEX
  8
0
 10
179.032941
 20
101.195502
 42
0.080923
  0
VERTEX
  8
0
 10
180.465430
 20
98.524095
 42
0.084463
  0
VERTEX
  8
0
 10
182.654126
 20
96.490970
 42
-0.089230
  0
VERTEX
  8
0
 10
183.967449
 20
95.247638
 42
-0.108874
  0
VERTEX
  8
0
 10
184.652702
 20
93.704402
 42
-0.045461
  0
VERTEX
  8
0
 10
184.941036
 20
91.096861
 42
-0.004817
  0
VERTEX
  8
0
 10
185.000000
 20
84.976947
 42
0.000000
  0
VERTEX
  8
0
 10
185.000000
 20
75.000000
 42
0.000000
  0
VERTEX
  8
0
 10
188.500000
 20
75.000000
 42
0.000000
  0
VERTEX
  8
0
 10
192.000000
 20
75.000000
 42
0.000000
  0
VERTEX
  8
0
 10
192.000000
 20
84.923077
 42
-0.005331
  0
VERTEX
  8
0
 10
192.067552
 20
91.259232
 42
-0.051741
  0
VERTEX
  8
0
 10
192.401163
 20
93.920394
 42
-0.098461
  0
VERTEX
  8
0
 10
193.232848
 20
95.761013
 42
-0.041203
  0
VERTEX
  8
0
 10
195.000000
 20
97.846154
 42
0.037270
  0
VERTEX
  8
0
 10
196.726595
 20
99.851301
 42
0.093243
  0
VERTEX
  8
0
 10
197.564286
 20
101.583516
 42
0.058059
  0
VERTEX
  8
0
 10
197.919249
 20
103.956234
 42
0.008128
  0
VERTEX
  8
0
 10
198.000000
 20
108.923077
 42
0.000000
  0
VERTEX
  8
0
 10
198.000000
 20
117.000000
 42
0.000000
  0
VERTEX
  8
0
 10
194.543810
 20
117.000000
 42
0.000000
  0
VERTEX
  8
0
 10
191.087619
 20
117.000000
 42
0.000000
  0
VERTEX
  8
0
 10
190.793810
 20
109.750000
 42
-0.005697
  0
VERTEX
  8
0
 10
190.554928
 20
105.151129
 42
-0.076279
  0
VERTEX
  8
0
 10
190.194365
 20
103.504381
 42
-0.214913
  0
VERTEX
  8
0
 10
189.440612
 20
102.759327
 42
-0.089288
  0
VERTEX
  8
0
 10
188.000000
 20
102.500000
 42
-0.089288
  0
VERTEX
  8
0
 10
186.559388
 20
102.759327
 42
-0.214913
  0
VERTEX
  8
0
 10
185.805635
 20
103.504381
 42
-0.076279
  0
VERTEX
  8
0
 10
185.445072
 20
105.151129
 42
-0.005697
  0
VERTEX
  8
0
 10
185.206190
 20
109.750000
 42
0.000000
  0
VERTEX
  8
0
 10
184.912381
 20
117.000000
 42
0.000000
  0
VERTEX
  8
0
 10
181.456190
 20
117.000000
 42
0.000000
  0
VERTEX
  8
0
 10
178.000000
 20
117.000000
 42
0.000000
  0
SEQEND
  0
ENDSEC
  0
EOF
