999
DXF data, created by potrace 1.16, written by Peter Selinger 2001-2019
  0
SECTION
  2
HEADER
  9
$ACADVER
  1
AC1006
  9
$EXTMIN
 10
0.000000
 20
0.000000
 30
0.000000
  9
$EXTMAX
 10
208.000000
 20
280.000000
 30
0.000000
  0
ENDSEC
  0
SECTION
  2
ENTITIES
  0
POLYLINE
  8
0
 66
1
 70
1
  0
VERTEX
  8
0
 10
125.345232
 20
262.596843
 42
0.042639
  0
VERTEX
  8
0
 10
123.973082
 20
261.832507
 42
0.024367
  0
VERTEX
  8
0
 10
122.453187
 20
260.695724
 42
0.024195
  0
VERTEX
  8
0
 10
121.025324
 20
259.393831
 42
0.036640
  0
VERTEX
  8
0
 10
119.930071
 20
258.119287
 42
-0.043838
  0
VERTEX
  8
0
 10
118.479292
 20
256.479304
 42
-0.082634
  0
VERTEX
  8
0
 10
117.018862
 20
255.492933
 42
-0.062580
  0
VERTEX
  8
0
 10
115.053497
 20
254.876066
 42
-0.016620
  0
VERTEX
  8
0
 10
111.796025
 20
254.397413
 42
0.018757
  0
VERTEX
  8
0
 10
107.557437
 20
253.756085
 42
0.278006
  0
VERTEX
  8
0
 10
106.483145
 20
252.794690
 42
0.330731
  0
VERTEX
  8
0
 10
106.924059
 20
251.549552
 42
0.023104
  0
VERTEX
  8
0
 10
110.291124
 20
249.506197
 42
-0.042711
  0
VERTEX
  8
0
 10
112.998187
 20
247.714676
 42
-0.156606
  0
VERTEX
  8
0
 10
114.127906
 20
246.027829
 42
-0.159645
  0
VERTEX
  8
0
 10
114.053171
 20
244.019257
 42
-0.044872
  0
VERTEX
  8
0
 10
112.689301
 20
241.148278
 42
0.023638
  0
VERTEX
  8
0
 10
111.930335
 20
239.711238
 42
0.049755
  0
VERTEX
  8
0
 10
111.510873
 20
238.522469
 42
0.072990
  0
VERTEX
  8
0
 10
111.427582
 20
237.639647
 42
0.240498
  0
VERTEX
  8
0
 10
111.711330
 20
237.148278
 42
-0.136761
  0
VERTEX
  8
0
 10
112.143416
 20
236.659470
 42
-0.023757
  0
VERTEX
  8
0
 10
112.633243
 20
235.515432
 42
-0.024272
  0
VERTEX
  8
0
 10
113.091005
 20
234.078986
 42
-0.019641
  0
VERTEX
  8
0
 10
113.445244
 20
232.500000
 42
0.028030
  0
VERTEX
  8
0
 10
114.183357
 20
229.450294
 42
0.079746
  0
VERTEX
  8
0
 10
115.136504
 20
227.490468
 42
0.120600
  0
VERTEX
  8
0
 10
116.388326
 20
226.394882
 42
0.120300
  0
VERTEX
  8
0
 10
118.005813
 20
226.000000
 42
-0.204911
  0
VERTEX
  8
0
 10
119.641292
 20
225.300368
 42
-0.175877
  0
VERTEX
  8
0
 10
120.399706
 20
223.575025
 42
-0.121899
  0
VERTEX
  8
0
 10
119.978087
 20
221.213107
 42
-0.086398
  0
VERTEX
  8
0
 10
118.470223
 20
218.968920
 42
0.041181
  0
VERTEX
  8
0
 10
117.496430
 20
217.768815
 42
0.029548
  0
VERTEX
  8
0
 10
116.607658
 20
216.287042
 42
0.030031
  0
VERTEX
  8
0
 10
115.925638
 20
214.764524
 42
0.055036
  0
VERTEX
  8
0
 10
115.588146
 20
213.449092
 42
-0.041663
  0
VERTEX
  8
0
 10
115.253364
 20
211.982754
 42
-0.014229
  0
VERTEX
  8
0
 10
114.532921
 20
209.921199
 42
-0.014033
  0
VERTEX
  8
0
 10
113.604662
 20
207.680319
 42
-0.015737
  0
VERTEX
  8
0
 10
112.584494
 20
205.580522
 42
0.025785
  0
VERTEX
  8
0
 10
111.430616
 20
203.078893
 42
0.031112
  0
VERTEX
  8
0
 10
110.620710
 20
200.621834
 42
0.031994
  0
VERTEX
  8
0
 10
110.138409
 20
198.143968
 42
0.030349
  0
VERTEX
  8
0
 10
109.964871
 20
195.580522
 42
-0.030841
  0
VERTEX
  8
0
 10
109.642674
 20
190.889531
 42
-0.013910
  0
VERTEX
  8
0
 10
108.671480
 20
184.796234
 42
-0.008454
  0
VERTEX
  8
0
 10
107.457912
 20
178.893955
 42
-0.146285
  0
VERTEX
  8
0
 10
106.507716
 20
177.196029
 42
-0.656662
  0
VERTEX
  8
0
 10
106.240511
 20
177.306491
 42
-0.004222
  0
VERTEX
  8
0
 10
106.212362
 20
180.712950
 42
-0.008461
  0
VERTEX
  8
0
 10
106.285007
 20
184.960145
 42
-0.004673
  0
VERTEX
  8
0
 10
106.510055
 20
190.145929
 42
0.000000
  0
VERTEX
  8
0
 10
107.230069
 20
203.791858
 42
0.000000
  0
VERTEX
  8
0
 10
96.865035
 20
204.391723
 42
0.002475
  0
VERTEX
  8
0
 10
92.172375
 20
204.640009
 42
0.001495
  0
VERTEX
  8
0
 10
86.609977
 20
204.890050
 42
0.001497
  0
VERTEX
  8
0
 10
81.083058
 20
205.105372
 42
0.002627
  0
VERTEX
  8
0
 10
76.509355
 20
205.245794
 42
0.000000
  0
VERTEX
  8
0
 10
66.518710
 20
205.500000
 42
0.000000
  0
VERTEX
  8
0
 10
65.824351
 20
199.290115
 42
0.011169
  0
VERTEX
  8
0
 10
65.535683
 20
196.055787
 42
0.003401
  0
VERTEX
  8
0
 10
65.241430
 20
191.147288
 42
0.003403
  0
VERTEX
  8
0
 10
64.986549
 20
185.642326
 42
0.003709
  0
VERTEX
  8
0
 10
64.814996
 20
180.290115
 42
0.000000
  0
VERTEX
  8
0
 10
64.500000
 20
167.500000
 42
0.000000
  0
VERTEX
  8
0
 10
69.474609
 20
167.186036
 42
-0.014999
  0
VERTEX
  8
0
 10
71.457283
 20
167.001062
 42
-0.018188
  0
VERTEX
  8
0
 10
73.300700
 20
166.704719
 42
-0.016990
  0
VERTEX
  8
0
 10
74.815523
 20
166.350445
 42
-0.107664
  0
VERTEX
  8
0
 10
75.513979
 20
165.988399
 42
0.096809
  0
VERTEX
  8
0
 10
77.246259
 20
165.042705
 42
0.013986
  0
VERTEX
  8
0
 10
81.135319
 20
163.929766
 42
0.016551
  0
VERTEX
  8
0
 10
85.171358
 20
163.037173
 42
0.048769
  0
VERTEX
  8
0
 10
88.000000
 20
162.790193
 42
0.014546
  0
VERTEX
  8
0
 10
89.380937
 20
162.844709
 42
0.003218
  0
VERTEX
  8
0
 10
91.742410
 20
163.022114
 42
0.003342
  0
VERTEX
  8
0
 10
94.469755
 20
163.263029
 42
0.003214
  0
VERTEX
  8
0
 10
97.229479
 20
163.543318
 42
-0.006894
  0
VERTEX
  8
0
 10
101.193041
 20
163.916424
 42
-0.059297
  0
VERTEX
  8
0
 10
102.967237
 20
163.848287
 42
-0.152176
  0
VERTEX
  8
0
 10
103.940054
 20
163.367669
 42
-0.126897
  0
VERTEX
  8
0
 10
104.552477
 20
162.385263
 42
0.013288
  0
VERTEX
  8
0
 10
104.841396
 20
161.546071
 42
0.008321
  0
VERTEX
  8
0
 10
105.221652
 20
160.579435
 42
0.008350
  0
VERTEX
  8
0
 10
105.628190
 20
159.639266
 42
0.015053
  0
VERTEX
  8
0
 10
105.997067
 20
158.885153
 42
-0.092150
  0
VERTEX
  8
0
 10
106.270751
 20
158.004326
 42
-0.028007
  0
VERTEX
  8
0
 10
106.356982
 20
156.603403
 42
-0.026998
  0
VERTEX
  8
0
 10
106.278713
 20
154.991038
 42
-0.026445
  0
VERTEX
  8
0
 10
106.027188
 20
153.385153
 42
0.048718
  0
VERTEX
  8
0
 10
105.084210
 20
144.915662
 42
0.009865
  0
VERTEX
  8
0
 10
105.178220
 20
129.772240
 42
0.010522
  0
VERTEX
  8
0
 10
105.993791
 20
112.425490
 42
0.010821
  0
VERTEX
  8
0
 10
107.534385
 20
95.289874
 42
-0.002427
  0
VERTEX
  8
0
 10
108.790409
 20
83.535334
 42
-0.012480
  0
VERTEX
  8
0
 10
109.292081
 20
77.002067
 42
-0.018741
  0
VERTEX
  8
0
 10
109.350203
 20
72.909128
 42
-0.134545
  0
VERTEX
  8
0
 10
108.789011
 20
71.033761
 42
0.079613
  0
VERTEX
  8
0
 10
108.281066
 20
69.830200
 42
0.154256
  0
VERTEX
  8
0
 10
108.348873
 20
68.798523
 42
0.085667
  0
VERTEX
  8
0
 10
109.072511
 20
67.598524
 42
0.014055
  0
VERTEX
  8
0
 10
110.910291
 20
65.592557
 42
-0.022050
  0
VERTEX
  8
0
 10
112.834374
 20
63.423788
 42
-0.089594
  0
VERTEX
  8
0
 10
113.681370
 20
61.883938
 42
-0.085886
  0
VERTEX
  8
0
 10
113.954243
 20
60.112263
 42
-0.019317
  0
VERTEX
  8
0
 10
113.779266
 20
57.054579
 42
-0.048014
  0
VERTEX
  8
0
 10
112.992844
 20
53.003630
 42
-0.103793
  0
VERTEX
  8
0
 10
111.493302
 20
50.222808
 42
-0.097927
  0
VERTEX
  8
0
 10
108.938530
 20
48.181383
 42
-0.039584
  0
VERTEX
  8
0
 10
104.811078
 20
46.437250
 42
0.033578
  0
VERTEX
  8
0
 10
101.064038
 20
44.906578
 42
0.163407
  0
VERTEX
  8
0
 10
99.454075
 20
43.317418
 42
0.256147
  0
VERTEX
  8
0
 10
99.513735
 20
41.540415
 42
0.081519
  0
VERTEX
  8
0
 10
101.274770
 20
39.440076
 42
0.078678
  0
VERTEX
  8
0
 10
104.797992
 20
37.263782
 42
0.086571
  0
VERTEX
  8
0
 10
108.706499
 20
36.375029
 42
0.077483
  0
VERTEX
  8
0
 10
113.033561
 20
36.825722
 42
0.049183
  0
VERTEX
  8
0
 10
117.791946
 20
38.599034
 42
-0.020012
  0
VERTEX
  8
0
 10
120.426550
 20
39.759797
 42
-0.026364
  0
VERTEX
  8
0
 10
122.916536
 20
40.591204
 42
-0.029686
  0
VERTEX
  8
0
 10
125.150467
 20
41.067797
 42
-0.055353
  0
VERTEX
  8
0
 10
126.997199
 20
41.142157
 42
0.069291
  0
VERTEX
  8
0
 10
130.699445
 20
41.394342
 42
0.189178
  0
VERTEX
  8
0
 10
132.856001
 20
42.808205
 42
0.123680
  0
VERTEX
  8
0
 10
134.016778
 20
45.797054
 42
0.023182
  0
VERTEX
  8
0
 10
134.477776
 20
51.697316
 42
-0.007116
  0
VERTEX
  8
0
 10
134.622982
 20
54.862124
 42
-0.009787
  0
VERTEX
  8
0
 10
134.849576
 20
57.700788
 42
-0.006857
  0
VERTEX
  8
0
 10
135.116585
 20
60.054855
 42
-0.107137
  0
VERTEX
  8
0
 10
135.385457
 20
60.814665
 42
0.139106
  0
VERTEX
  8
0
 10
135.594838
 20
61.550738
 42
0.011487
  0
VERTEX
  8
0
 10
135.550027
 20
63.562348
 42
0.014669
  0
VERTEX
  8
0
 10
135.368021
 20
65.998221
 42
0.010773
  0
VERTEX
  8
0
 10
135.029102
 20
68.685399
 42
-0.011711
  0
VERTEX
  8
0
 10
134.575261
 20
72.338927
 42
-0.003094
  0
VERTEX
  8
0
 10
134.022995
 20
78.198211
 42
-0.003138
  0
VERTEX
  8
0
 10
133.477582
 20
84.874553
 42
-0.003220
  0
VERTEX
  8
0
 10
133.021065
 20
91.500000
 42
0.003045
  0
VERTEX
  8
0
 10
132.554666
 20
98.303606
 42
0.002550
  0
VERTEX
  8
0
 10
131.979045
 20
105.516539
 42
0.002573
  0
VERTEX
  8
0
 10
131.385293
 20
112.104757
 42
0.007055
  0
VERTEX
  8
0
 10
130.876550
 20
116.747793
 42
-0.009934
  0
VERTEX
  8
0
 10
130.257965
 20
122.710183
 42
-0.047706
  0
VERTEX
  8
0
 10
130.298318
 20
126.121419
 42
-0.042919
  0
VERTEX
  8
0
 10
130.981651
 20
129.618796
 42
-0.007061
  0
VERTEX
  8
0
 10
132.970944
 20
136.216083
 42
0.009325
  0
VERTEX
  8
0
 10
134.977164
 20
142.980153
 42
0.051225
  0
VERTEX
  8
0
 10
135.610394
 20
146.729217
 42
0.048460
  0
VERTEX
  8
0
 10
135.486490
 20
150.614473
 42
0.007812
  0
VERTEX
  8
0
 10
134.395789
 20
158.117912
 42
-0.037114
  0
VERTEX
  8
0
 10
134.246736
 20
159.851268
 42
-0.038609
  0
VERTEX
  8
0
 10
134.359272
 20
161.564472
 42
-0.039617
  0
VERTEX
  8
0
 10
134.727821
 20
163.197499
 42
-0.044051
  0
VERTEX
  8
0
 10
135.340855
 20
164.692247
 42
0.083623
  0
VERTEX
  8
0
 10
138.382095
 20
174.173643
 42
0.019332
  0
VERTEX
  8
0
 10
140.143440
 20
190.906959
 42
0.018259
  0
VERTEX
  8
0
 10
140.640466
 20
207.636662
 42
0.103789
  0
VERTEX
  8
0
 10
138.762543
 20
216.292126
 42
-0.031199
  0
VERTEX
  8
0
 10
138.085811
 20
218.100357
 42
-0.035342
  0
VERTEX
  8
0
 10
137.672520
 20
219.905426
 42
-0.037785
  0
VERTEX
  8
0
 10
137.536279
 20
221.628774
 42
-0.050230
  0
VERTEX
  8
0
 10
137.688439
 20
223.192193
 42
0.033263
  0
VERTEX
  8
0
 10
137.894321
 20
224.756086
 42
0.081297
  0
VERTEX
  8
0
 10
137.781212
 20
225.908418
 42
0.099996
  0
VERTEX
  8
0
 10
137.331576
 20
226.817294
 42
0.070286
  0
VERTEX
  8
0
 10
136.511405
 20
227.615319
 42
-0.155229
  0
VERTEX
  8
0
 10
135.705922
 20
228.716762
 42
-0.147728
  0
VERTEX
  8
0
 10
135.664129
 20
230.105266
 42
-0.046408
  0
VERTEX
  8
0
 10
136.539109
 20
232.458408
 42
-0.004005
  0
VERTEX
  8
0
 10
139.368066
 20
238.215251
 42
0.026546
  0
VERTEX
  8
0
 10
142.969034
 20
246.462424
 42
0.097976
  0
VERTEX
  8
0
 10
143.888617
 20
252.044482
 42
0.141553
  0
VERTEX
  8
0
 10
142.476421
 20
256.403608
 42
0.081344
  0
VERTEX
  8
0
 10
138.655071
 20
260.449519
 42
0.055631
  0
VERTEX
  8
0
 10
135.388990
 20
262.409330
 42
0.067440
  0
VERTEX
  8
0
 10
131.973787
 20
263.445722
 42
0.071445
  0
VERTEX
  8
0
 10
128.572745
 20
263.504593
 42
0.074554
  0
SEQEND
  0
POLYLINE
  8
0
 66
1
 70
1
  0
VERTEX
  8
0
 10
37.265833
 20
9.500000
 42
0.006997
  0
VERTEX
  8
0
 10
37.302959
 20
7.711878
 42
0.040728
  0
VERTEX
  8
0
 10
37.412100
 20
6.776562
 42
0.712224
  0
VERTEX
  8
0
 10
37.558525
 20
6.756606
 42
0.079703
  0
VERTEX
  8
0
 10
37.716254
 20
7.250000
 42
-0.029064
  0
VERTEX
  8
0
 10
37.939057
 20
8.303299
 42
-0.042572
  0
VERTEX
  8
0
 10
38.265198
 20
9.192187
 42
-0.050351
  0
VERTEX
  8
0
 10
38.637921
 20
9.817711
 42
-0.237524
  0
VERTEX
  8
0
 10
39.000000
 20
10.000000
 42
-0.237524
  0
VERTEX
  8
0
 10
39.362079
 20
9.817711
 42
-0.050351
  0
VERTEX
  8
0
 10
39.734802
 20
9.192187
 42
-0.042572
  0
VERTEX
  8
0
 10
40.060943
 20
8.303299
 42
-0.029064
  0
VERTEX
  8
0
 10
40.283746
 20
7.250000
 42
0.001448
  0
VERTEX
  8
0
 10
40.563194
 20
5.440710
 42
0.591928
  0
VERTEX
  8
0
 10
40.660063
 20
5.405817
 42
0.202175
  0
VERTEX
  8
0
 10
40.746481
 20
5.585343
 42
0.000897
  0
VERTEX
  8
0
 10
40.850168
 20
7.750000
 42
0.027575
  0
VERTEX
  8
0
 10
40.836914
 20
9.211936
 42
0.077693
  0
VERTEX
  8
0
 10
40.615211
 20
10.206750
 42
0.131269
  0
VERTEX
  8
0
 10
40.189564
 20
10.783968
 42
0.170205
  0
VERTEX
  8
0
 10
39.573324
 20
11.000000
 42
-0.112012
  0
VERTEX
  8
0
 10
38.993792
 20
11.131478
 42
-0.075733
  0
VERTEX
  8
0
 10
38.431396
 20
11.514062
 42
-0.070280
  0
VERTEX
  8
0
 10
37.971018
 20
12.081133
 42
-0.071619
  0
VERTEX
  8
0
 10
37.689326
 20
12.750000
 42
0.558832
  0
VERTEX
  8
0
 10
37.526438
 20
12.799672
 42
0.181456
  0
VERTEX
  8
0
 10
37.376279
 20
12.517188
 42
0.026022
  0
VERTEX
  8
0
 10
37.282840
 20
11.314592
 42
0.008069
  0
SEQEND
  0
POLYLINE
  8
0
 66
1
 70
1
  0
VERTEX
  8
0
 10
87.228779
 20
9.500000
 42
0.009753
  0
VERTEX
  8
0
 10
87.238510
 20
7.674018
 42
0.027918
  0
VERTEX
  8
0
 10
87.340732
 20
6.409375
 42
0.120665
  0
VERTEX
  8
0
 10
87.512986
 20
5.973871
 42
0.603662
  0
VERTEX
  8
0
 10
87.709435
 20
6.000000
 42
-0.036688
  0
VERTEX
  8
0
 10
88.032841
 20
6.713261
 42
-0.014598
  0
VERTEX
  8
0
 10
88.574692
 20
7.641813
 42
-0.014355
  0
VERTEX
  8
0
 10
89.219997
 20
8.613700
 42
-0.017516
  0
VERTEX
  8
0
 10
89.880488
 20
9.482767
 42
0.001182
  0
VERTEX
  8
0
 10
90.946223
 20
10.793859
 42
0.193457
  0
VERTEX
  8
0
 10
90.999773
 20
10.968222
 42
0.591162
  0
VERTEX
  8
0
 10
90.914488
 20
11.006184
 42
0.002109
  0
VERTEX
  8
0
 10
89.822437
 20
10.170439
 42
-0.038826
  0
VERTEX
  8
0
 10
88.873748
 20
9.549124
 42
-0.289677
  0
VERTEX
  8
0
 10
88.360426
 20
9.580839
 42
-0.184318
  0
VERTEX
  8
0
 10
88.013767
 20
10.109231
 42
-0.016734
  0
VERTEX
  8
0
 10
87.722269
 20
11.687672
 42
0.068660
  0
VERTEX
  8
0
 10
87.556434
 20
12.251082
 42
0.720105
  0
VERTEX
  8
0
 10
87.401618
 20
12.235432
 42
0.044931
  0
VERTEX
  8
0
 10
87.280185
 20
11.321274
 42
0.007021
  0
SEQEND
  0
POLYLINE
  8
0
 66
1
 70
1
  0
VERTEX
  8
0
 10
48.963793
 20
12.000000
 42
0.036805
  0
VERTEX
  8
0
 10
48.861291
 20
10.141926
 42
0.034535
  0
VERTEX
  8
0
 10
49.027432
 20
8.248217
 42
0.035835
  0
VERTEX
  8
0
 10
49.405003
 20
6.622406
 42
0.116270
  0
VERTEX
  8
0
 10
49.962281
 20
5.674177
 42
0.319372
  0
VERTEX
  8
0
 10
50.205934
 20
5.627394
 42
0.248466
  0
VERTEX
  8
0
 10
50.375127
 20
5.847588
 42
0.067504
  0
VERTEX
  8
0
 10
50.396396
 20
6.486257
 42
0.021846
  0
VERTEX
  8
0
 10
50.259245
 20
7.424177
 42
-0.031531
  0
VERTEX
  8
0
 10
50.104917
 20
8.644048
 42
-0.113335
  0
VERTEX
  8
0
 10
50.231355
 20
9.413318
 42
-0.183927
  0
VERTEX
  8
0
 10
50.633153
 20
9.842548
 42
-0.114144
  0
VERTEX
  8
0
 10
51.313872
 20
10.000000
 42
-0.131453
  0
VERTEX
  8
0
 10
51.928850
 20
9.835475
 42
-0.084699
  0
VERTEX
  8
0
 10
52.500327
 20
9.362071
 42
-0.074593
  0
VERTEX
  8
0
 10
52.942526
 20
8.658442
 42
-0.066616
  0
VERTEX
  8
0
 10
53.180449
 20
7.828328
 42
0.052005
  0
VERTEX
  8
0
 10
53.397357
 20
6.978897
 42
0.056995
  0
VERTEX
  8
0
 10
53.780663
 20
6.220169
 42
0.064539
  0
VERTEX
  8
0
 10
54.263390
 20
5.659189
 42
0.134605
  0
VERTEX
  8
0
 10
54.775000
 20
5.403328
 42
0.014150
  0
VERTEX
  8
0
 10
55.233161
 20
5.325702
 42
0.238062
  0
VERTEX
  8
0
 10
55.374375
 20
5.373738
 42
0.482015
  0
VERTEX
  8
0
 10
55.362259
 20
5.471882
 42
0.022320
  0
VERTEX
  8
0
 10
55.025000
 20
5.658333
 42
-0.195740
  0
VERTEX
  8
0
 10
54.302722
 20
6.475539
 42
-0.077613
  0
VERTEX
  8
0
 10
54.026024
 20
7.976444
 42
-0.080232
  0
VERTEX
  8
0
 10
54.221987
 20
9.444177
 42
-0.235139
  0
VERTEX
  8
0
 10
54.901478
 20
10.166667
 42
0.231552
  0
VERTEX
  8
0
 10
55.125026
 20
10.401144
 42
0.152502
  0
VERTEX
  8
0
 10
55.126463
 20
10.780852
 42
0.088428
  0
VERTEX
  8
0
 10
54.874203
 20
11.271029
 42
0.043861
  0
VERTEX
  8
0
 10
54.401478
 20
11.789427
 42
0.034990
  0
VERTEX
  8
0
 10
53.842789
 20
12.235544
 42
0.107246
  0
VERTEX
  8
0
 10
53.397209
 20
12.418806
 42
0.245885
  0
VERTEX
  8
0
 10
53.120558
 20
12.331504
 42
0.198267
  0
VERTEX
  8
0
 10
53.000000
 20
12.039427
 42
-0.259546
  0
VERTEX
  8
0
 10
52.580291
 20
11.285348
 42
-0.155749
  0
VERTEX
  8
0
 10
51.559154
 20
11.028944
 42
-0.121778
  0
VERTEX
  8
0
 10
50.383388
 20
11.399577
 42
-0.161261
  0
VERTEX
  8
0
 10
49.662281
 20
12.250000
 42
0.027456
  0
VERTEX
  8
0
 10
49.415296
 20
12.776779
 42
0.371041
  0
VERTEX
  8
0
 10
49.231528
 20
12.847397
 42
0.261395
  0
VERTEX
  8
0
 10
49.076211
 20
12.668779
 42
0.018928
  0
SEQEND
  0
POLYLINE
  8
0
 66
1
 70
1
  0
VERTEX
  8
0
 10
71.884846
 20
11.789427
 42
0.033747
  0
VERTEX
  8
0
 10
71.844685
 20
9.930574
 42
0.034347
  0
VERTEX
  8
0
 10
72.055921
 20
8.094330
 42
0.036396
  0
VERTEX
  8
0
 10
72.463113
 20
6.538386
 42
0.109400
  0
VERTEX
  8
0
 10
73.030509
 20
5.605950
 42
0.193385
  0
VERTEX
  8
0
 10
73.297310
 20
5.485471
 42
0.369493
  0
VERTEX
  8
0
 10
73.469812
 20
5.620952
 42
0.091143
  0
VERTEX
  8
0
 10
73.477675
 20
6.132196
 42
0.022347
  0
VERTEX
  8
0
 10
73.300652
 20
6.958307
 42
-0.046935
  0
VERTEX
  8
0
 10
73.152382
 20
7.865664
 42
-0.055266
  0
VERTEX
  8
0
 10
73.189132
 20
8.735078
 42
-0.064137
  0
VERTEX
  8
0
 10
73.392797
 20
9.441313
 42
-0.151600
  0
VERTEX
  8
0
 10
73.745937
 20
9.852358
 42
0.130498
  0
VERTEX
  8
0
 10
74.086365
 20
10.216942
 42
0.170029
  0
VERTEX
  8
0
 10
74.156263
 20
10.664922
 42
0.115524
  0
VERTEX
  8
0
 10
73.925217
 20
11.193498
 42
0.045172
  0
VERTEX
  8
0
 10
73.389335
 20
11.789427
 42
0.017325
  0
VERTEX
  8
0
 10
72.635958
 20
12.441537
 42
0.171354
  0
VERTEX
  8
0
 10
72.247044
 20
12.578853
 42
0.328812
  0
VERTEX
  8
0
 10
72.005293
 20
12.400600
 42
0.052805
  0
SEQEND
  0
POLYLINE
  8
0
 66
1
 70
1
  0
VERTEX
  8
0
 10
126.036104
 20
10.567461
 42
0.072371
  0
VERTEX
  8
0
 10
125.306771
 20
8.550091
 42
0.115392
  0
VERTEX
  8
0
 10
125.356696
 20
6.725191
 42
0.157974
  0
VERTEX
  8
0
 10
126.154983
 20
5.481057
 42
0.173449
  0
VERTEX
  8
0
 10
127.500000
 20
5.000000
 42
0.169155
  0
VERTEX
  8
0
 10
128.870825
 20
5.477425
 42
0.161210
  0
VERTEX
  8
0
 10
129.681514
 20
6.712508
 42
0.152192
  0
VERTEX
  8
0
 10
129.618832
 20
8.244728
 42
0.150233
  0
VERTEX
  8
0
 10
128.697278
 20
9.479405
 42
-0.040551
  0
VERTEX
  8
0
 10
127.956373
 20
10.119369
 42
-0.146900
  0
VERTEX
  8
0
 10
127.668823
 20
10.664234
 42
-0.179690
  0
VERTEX
  8
0
 10
127.757677
 20
11.208923
 42
-0.067128
  0
VERTEX
  8
0
 10
128.234798
 20
11.834798
 42
0.033707
  0
VERTEX
  8
0
 10
128.659793
 20
12.321312
 42
0.134799
  0
VERTEX
  8
0
 10
128.806138
 20
12.684928
 42
0.294054
  0
VERTEX
  8
0
 10
128.695710
 20
12.909315
 42
0.136202
  0
VERTEX
  8
0
 10
128.368980
 20
13.000000
 42
0.161678
  0
VERTEX
  8
0
 10
127.885245
 20
12.839383
 42
0.041310
  0
VERTEX
  8
0
 10
127.258402
 20
12.285442
 42
0.037728
  0
VERTEX
  8
0
 10
126.610223
 20
11.498595
 42
0.030572
  0
SEQEND
  0
POLYLINE
  8
0
 66
1
 70
1
  0
VERTEX
  8
0
 10
128.150000
 20
7.500000
 42
-0.102038
  0
VERTEX
  8
0
 10
128.069583
 20
7.110048
 42
-0.070382
  0
VERTEX
  8
0
 10
127.834219
 20
6.723802
 42
-0.066918
  0
VERTEX
  8
0
 10
127.485911
 20
6.399741
 42
-0.073624
  0
VERTEX
  8
0
 10
127.075000
 20
6.191667
 42
-0.159683
  0
VERTEX
  8
0
 10
126.666526
 20
6.189601
 42
-0.143818
  0
VERTEX
  8
0
 10
126.315781
 20
6.428177
 42
-0.107546
  0
VERTEX
  8
0
 10
126.079656
 20
6.888977
 42
-0.064908
  0
VERTEX
  8
0
 10
126.000000
 20
7.500000
 42
-0.064908
  0
VERTEX
  8
0
 10
126.079656
 20
8.111023
 42
-0.107546
  0
VERTEX
  8
0
 10
126.315781
 20
8.571823
 42
-0.143818
  0
VERTEX
  8
0
 10
126.666526
 20
8.810399
 42
-0.159683
  0
VERTEX
  8
0
 10
127.075000
 20
8.808333
 42
-0.073624
  0
VERTEX
  8
0
 10
127.485911
 20
8.600259
 42
-0.066918
  0
VERTEX
  8
0
 10
127.834219
 20
8.276198
 42
-0.070382
  0
VERTEX
  8
0
 10
128.069583
 20
7.889952
 42
-0.102038
  0
SEQEND
  0
POLYLINE
  8
0
 66
1
 70
1
  0
VERTEX
  8
0
 10
131.507079
 20
12.011454
 42
0.106430
  0
VERTEX
  8
0
 10
131.387979
 20
11.676374
 42
0.316285
  0
VERTEX
  8
0
 10
131.495242
 20
11.471944
 42
0.170102
  0
VERTEX
  8
0
 10
131.820692
 20
11.426762
 42
0.041869
  0
VERTEX
  8
0
 10
132.346912
 20
11.579628
 42
-0.127591
  0
VERTEX
  8
0
 10
133.673055
 20
11.729581
 42
-0.317380
  0
VERTEX
  8
0
 10
134.346844
 20
11.094459
 42
-0.190673
  0
VERTEX
  8
0
 10
134.126648
 20
9.860170
 42
-0.070584
  0
VERTEX
  8
0
 10
132.976419
 20
8.478659
 42
0.031186
  0
VERTEX
  8
0
 10
131.376403
 20
6.838081
 42
0.238538
  0
VERTEX
  8
0
 10
131.125906
 20
5.824155
 42
0.311129
  0
VERTEX
  8
0
 10
131.796826
 20
5.209808
 42
0.045105
  0
VERTEX
  8
0
 10
133.750000
 20
5.116001
 42
0.010818
  0
VERTEX
  8
0
 10
134.855934
 20
5.186647
 42
0.109907
  0
VERTEX
  8
0
 10
135.292388
 20
5.323747
 42
0.603658
  0
VERTEX
  8
0
 10
135.285852
 20
5.492509
 42
0.047646
  0
VERTEX
  8
0
 10
134.745290
 20
5.690233
 42
-0.041976
  0
VERTEX
  8
0
 10
133.812984
 20
6.019332
 42
-0.260153
  0
VERTEX
  8
0
 10
133.521345
 20
6.412237
 42
-0.169375
  0
VERTEX
  8
0
 10
133.642838
 20
6.993480
 42
-0.017349
  0
VERTEX
  8
0
 10
134.419851
 20
8.189034
 42
0.044780
  0
VERTEX
  8
0
 10
134.927317
 20
9.072240
 42
0.043960
  0
VERTEX
  8
0
 10
135.273131
 20
10.037089
 42
0.047479
  0
VERTEX
  8
0
 10
135.419820
 20
10.938032
 42
0.108655
  0
VERTEX
  8
0
 10
135.317573
 20
11.614802
 42
0.143559
  0
VERTEX
  8
0
 10
134.619288
 20
12.530350
 42
0.133365
  0
VERTEX
  8
0
 10
133.516776
 20
12.956562
 42
0.134665
  0
VERTEX
  8
0
 10
132.358383
 20
12.764865
 42
0.147430
  0
SEQEND
  0
POLYLINE
  8
0
 66
1
 70
1
  0
VERTEX
  8
0
 10
137.507079
 20
12.011454
 42
0.106430
  0
VERTEX
  8
0
 10
137.387979
 20
11.676374
 42
0.316285
  0
VERTEX
  8
0
 10
137.495242
 20
11.471944
 42
0.170102
  0
VERTEX
  8
0
 10
137.820692
 20
11.426762
 42
0.041869
  0
VERTEX
  8
0
 10
138.346912
 20
11.579628
 42
-0.127591
  0
VERTEX
  8
0
 10
139.673055
 20
11.729581
 42
-0.317380
  0
VERTEX
  8
0
 10
140.346844
 20
11.094459
 42
-0.190673
  0
VERTEX
  8
0
 10
140.126648
 20
9.860170
 42
-0.070584
  0
VERTEX
  8
0
 10
138.976419
 20
8.478659
 42
0.031381
  0
VERTEX
  8
0
 10
137.379244
 20
6.839716
 42
0.237557
  0
VERTEX
  8
0
 10
137.126823
 20
5.822709
 42
0.307328
  0
VERTEX
  8
0
 10
137.796944
 20
5.196821
 42
0.045156
  0
VERTEX
  8
0
 10
139.750000
 20
5.070285
 42
0.007485
  0
VERTEX
  8
0
 10
141.150426
 20
5.127064
 42
0.155055
  0
VERTEX
  8
0
 10
141.538981
 20
5.274717
 42
0.545496
  0
VERTEX
  8
0
 10
141.518331
 20
5.483100
 42
0.024229
  0
VERTEX
  8
0
 10
140.723356
 20
5.842717
 42
-0.040012
  0
VERTEX
  8
0
 10
139.784908
 20
6.303413
 42
-0.228445
  0
VERTEX
  8
0
 10
139.486613
 20
6.753503
 42
-0.171991
  0
VERTEX
  8
0
 10
139.611438
 20
7.355216
 42
-0.021547
  0
VERTEX
  8
0
 10
140.362112
 20
8.480540
 42
0.044140
  0
VERTEX
  8
0
 10
140.866923
 20
9.316709
 42
0.044365
  0
VERTEX
  8
0
 10
141.216114
 20
10.227105
 42
0.048192
  0
VERTEX
  8
0
 10
141.371482
 20
11.074799
 42
0.113324
  0
VERTEX
  8
0
 10
141.281768
 20
11.708108
 42
0.152356
  0
VERTEX
  8
0
 10
140.598730
 20
12.572393
 42
0.130591
  0
VERTEX
  8
0
 10
139.501381
 20
12.960447
 42
0.128991
  0
VERTEX
  8
0
 10
138.345589
 20
12.754455
 42
0.147119
  0
SEQEND
  0
POLYLINE
  8
0
 66
1
 70
1
  0
VERTEX
  8
0
 10
145.049346
 20
12.500000
 42
0.047958
  0
VERTEX
  8
0
 10
144.957525
 20
11.960386
 42
0.012958
  0
VERTEX
  8
0
 10
144.916908
 20
11.092934
 42
0.012995
  0
VERTEX
  8
0
 10
144.921983
 20
10.100979
 42
0.013138
  0
VERTEX
  8
0
 10
144.978665
 20
9.114242
 42
-0.053635
  0
VERTEX
  8
0
 10
144.955723
 20
8.138695
 42
-0.052039
  0
VERTEX
  8
0
 10
144.726512
 20
7.179927
 42
-0.056470
  0
VERTEX
  8
0
 10
144.337876
 20
6.378394
 42
-0.110846
  0
VERTEX
  8
0
 10
143.839356
 20
5.879555
 42
0.119730
  0
VERTEX
  8
0
 10
143.488286
 20
5.515720
 42
0.430905
  0
VERTEX
  8
0
 10
143.568987
 20
5.239757
 42
0.103363
  0
VERTEX
  8
0
 10
144.189397
 20
5.070338
 42
0.015147
  0
VERTEX
  8
0
 10
145.500000
 20
5.030626
 42
0.021639
  0
VERTEX
  8
0
 10
146.603567
 20
5.078407
 42
0.074909
  0
VERTEX
  8
0
 10
147.296860
 20
5.245190
 42
0.289724
  0
VERTEX
  8
0
 10
147.474885
 20
5.493941
 42
0.271756
  0
VERTEX
  8
0
 10
147.331352
 20
5.774051
 42
-0.128366
  0
VERTEX
  8
0
 10
146.852623
 20
6.289076
 42
-0.033608
  0
VERTEX
  8
0
 10
146.382234
 20
7.324654
 42
-0.031867
  0
VERTEX
  8
0
 10
145.988653
 20
8.617749
 42
-0.027921
  0
VERTEX
  8
0
 10
145.741390
 20
10.008738
 42
0.010230
  0
VERTEX
  8
0
 10
145.560782
 20
11.285223
 42
0.027493
  0
VERTEX
  8
0
 10
145.364309
 20
12.180692
 42
0.095354
  0
VERTEX
  8
0
 10
145.191812
 20
12.527904
 42
0.622077
  0
SEQEND
  0
POLYLINE
  8
0
 66
1
 70
1
  0
VERTEX
  8
0
 10
149.000000
 20
11.000000
 42
0.122458
  0
VERTEX
  8
0
 10
148.530346
 20
9.142838
 42
0.098871
  0
VERTEX
  8
0
 10
148.926383
 20
7.117538
 42
0.110356
  0
VERTEX
  8
0
 10
150.010971
 20
5.565837
 42
0.187383
  0
VERTEX
  8
0
 10
151.467796
 20
5.000000
 42
0.218549
  0
VERTEX
  8
0
 10
152.610838
 20
5.524684
 42
0.096184
  0
VERTEX
  8
0
 10
153.454189
 20
7.003272
 42
0.078716
  0
VERTEX
  8
0
 10
153.796532
 20
9.004027
 42
0.080093
  0
VERTEX
  8
0
 10
153.500000
 20
11.000000
 42
0.059306
  0
VERTEX
  8
0
 10
153.153145
 20
11.764752
 42
0.062358
  0
VERTEX
  8
0
 10
152.641195
 20
12.412500
 42
0.069604
  0
VERTEX
  8
0
 10
152.049417
 20
12.851660
 42
0.125514
  0
VERTEX
  8
0
 10
151.467796
 20
13.000000
 42
0.116200
  0
VERTEX
  8
0
 10
150.854865
 20
12.855605
 42
0.054642
  0
VERTEX
  8
0
 10
150.166442
 20
12.412500
 42
0.049938
  0
VERTEX
  8
0
 10
149.513081
 20
11.765032
 42
0.049725
  0
SEQEND
  0
POLYLINE
  8
0
 66
1
 70
1
  0
VERTEX
  8
0
 10
152.500000
 20
9.000000
 42
-0.083382
  0
VERTEX
  8
0
 10
152.219370
 20
7.328904
 42
-0.187487
  0
VERTEX
  8
0
 10
151.401326
 20
6.364420
 42
-0.291407
  0
VERTEX
  8
0
 10
150.433587
 20
6.432676
 42
-0.142672
  0
VERTEX
  8
0
 10
149.654592
 20
7.457736
 42
-0.094809
  0
VERTEX
  8
0
 10
149.379701
 20
8.991406
 42
-0.093390
  0
VERTEX
  8
0
 10
149.687693
 20
10.527027
 42
-0.126329
  0
VERTEX
  8
0
 10
150.432375
 20
11.536653
 42
-0.256864
  0
VERTEX
  8
0
 10
151.373207
 20
11.708931
 42
-0.153083
  0
VERTEX
  8
0
 10
151.805203
 20
11.396885
 42
-0.061890
  0
VERTEX
  8
0
 10
152.169005
 20
10.758248
 42
-0.053439
  0
VERTEX
  8
0
 10
152.416637
 20
9.920502
 42
-0.045189
  0
SEQEND
  0
POLYLINE
  8
0
 66
1
 70
1
  0
VERTEX
  8
0
 10
155.507079
 20
12.011454
 42
0.106430
  0
VERTEX
  8
0
 10
155.387979
 20
11.676374
 42
0.316285
  0
VERTEX
  8
0
 10
155.495242
 20
11.471944
 42
0.170102
  0
VERTEX
  8
0
 10
155.820692
 20
11.426762
 42
0.041869
  0
VERTEX
  8
0
 10
156.346912
 20
11.579628
 42
-0.127591
  0
VERTEX
  8
0
 10
157.673055
 20
11.729581
 42
-0.317380
  0
VERTEX
  8
0
 10
158.346844
 20
11.094459
 42
-0.190673
  0
VERTEX
  8
0
 10
158.126648
 20
9.860170
 42
-0.070584
  0
VERTEX
  8
0
 10
156.976419
 20
8.478659
 42
0.031381
  0
VERTEX
  8
0
 10
155.379244
 20
6.839716
 42
0.237557
  0
VERTEX
  8
0
 10
155.126823
 20
5.822709
 42
0.307328
  0
VERTEX
  8
0
 10
155.796944
 20
5.196821
 42
0.045156
  0
VERTEX
  8
0
 10
157.750000
 20
5.070285
 42
0.007485
  0
VERTEX
  8
0
 10
159.150426
 20
5.127064
 42
0.155055
  0
VERTEX
  8
0
 10
159.538981
 20
5.274717
 42
0.545496
  0
VERTEX
  8
0
 10
159.518331
 20
5.483100
 42
0.024229
  0
VERTEX
  8
0
 10
158.723356
 20
5.842717
 42
-0.040012
  0
VERTEX
  8
0
 10
157.784908
 20
6.303413
 42
-0.228445
  0
VERTEX
  8
0
 10
157.486613
 20
6.753503
 42
-0.171991
  0
VERTEX
  8
0
 10
157.611438
 20
7.355216
 42
-0.021547
  0
VERTEX
  8
0
 10
158.362112
 20
8.480540
 42
0.044140
  0
VERTEX
  8
0
 10
158.866923
 20
9.316709
 42
0.044365
  0
VERTEX
  8
0
 10
159.216114
 20
10.227105
 42
0.048192
  0
VERTEX
  8
0
 10
159.371482
 20
11.074799
 42
0.113324
  0
VERTEX
  8
0
 10
159.281768
 20
11.708108
 42
0.152356
  0
VERTEX
  8
0
 10
158.598730
 20
12.572393
 42
0.130591
  0
VERTEX
  8
0
 10
157.501381
 20
12.960447
 42
0.128991
  0
VERTEX
  8
0
 10
156.345589
 20
12.754455
 42
0.147119
  0
SEQEND
  0
POLYLINE
  8
0
 66
1
 70
1
  0
VERTEX
  8
0
 10
161.683605
 20
12.250000
 42
0.095212
  0
VERTEX
  8
0
 10
161.521743
 20
11.785284
 42
0.015774
  0
VERTEX
  8
0
 10
161.413629
 20
10.839063
 42
0.016824
  0
VERTEX
  8
0
 10
161.358429
 20
9.703566
 42
0.014178
  0
VERTEX
  8
0
 10
161.374588
 20
8.500000
 42
0.032508
  0
VERTEX
  8
0
 10
161.532705
 20
7.024766
 42
0.111616
  0
VERTEX
  8
0
 10
161.900335
 20
6.140677
 42
0.155579
  0
VERTEX
  8
0
 10
162.532070
 20
5.664677
 42
0.084460
  0
VERTEX
  8
0
 10
163.500000
 20
5.500000
 42
0.061134
  0
VERTEX
  8
0
 10
164.257437
 20
5.592958
 42
0.084619
  0
VERTEX
  8
0
 10
164.883125
 20
5.867188
 42
0.106641
  0
VERTEX
  8
0
 10
165.282409
 20
6.273713
 42
0.162345
  0
VERTEX
  8
0
 10
165.400000
 20
6.750000
 42
-0.002526
  0
VERTEX
  8
0
 10
165.351546
 20
7.396770
 42
-0.000789
  0
VERTEX
  8
0
 10
165.285313
 20
8.367188
 42
-0.000789
  0
VERTEX
  8
0
 10
165.214763
 20
9.451186
 42
-0.000871
  0
VERTEX
  8
0
 10
165.150000
 20
10.500000
 42
0.111499
  0
VERTEX
  8
0
 10
164.727173
 20
11.959382
 42
0.150928
  0
VERTEX
  8
0
 10
163.744610
 20
12.906652
 42
0.198570
  0
VERTEX
  8
0
 10
162.600423
 20
12.993176
 42
0.184351
  0
SEQEND
  0
POLYLINE
  8
0
 66
1
 70
1
  0
VERTEX
  8
0
 10
164.000000
 20
11.000000
 42
-0.099038
  0
VERTEX
  8
0
 10
163.923658
 20
10.618362
 42
-0.097945
  0
VERTEX
  8
0
 10
163.706250
 20
10.293750
 42
-0.097945
  0
VERTEX
  8
0
 10
163.381638
 20
10.076342
 42
-0.099038
  0
VERTEX
  8
0
 10
163.000000
 20
10.000000
 42
-0.099038
  0
VERTEX
  8
0
 10
162.618362
 20
10.076342
 42
-0.097945
  0
VERTEX
  8
0
 10
162.293750
 20
10.293750
 42
-0.097945
  0
VERTEX
  8
0
 10
162.076342
 20
10.618362
 42
-0.099038
  0
VERTEX
  8
0
 10
162.000000
 20
11.000000
 42
-0.099038
  0
VERTEX
  8
0
 10
162.076342
 20
11.381638
 42
-0.097945
  0
VERTEX
  8
0
 10
162.293750
 20
11.706250
 42
-0.097945
  0
VERTEX
  8
0
 10
162.618362
 20
11.923658
 42
-0.099038
  0
VERTEX
  8
0
 10
163.000000
 20
12.000000
 42
-0.099038
  0
VERTEX
  8
0
 10
163.381638
 20
11.923658
 42
-0.097945
  0
VERTEX
  8
0
 10
163.706250
 20
11.706250
 42
-0.097945
  0
VERTEX
  8
0
 10
163.923658
 20
11.381638
 42
-0.099038
  0
SEQEND
  0
POLYLINE
  8
0
 66
1
 70
1
  0
VERTEX
  8
0
 10
164.150000
 20
7.500000
 42
-0.102038
  0
VERTEX
  8
0
 10
164.069583
 20
7.110048
 42
-0.070382
  0
VERTEX
  8
0
 10
163.834219
 20
6.723802
 42
-0.066918
  0
VERTEX
  8
0
 10
163.485911
 20
6.399741
 42
-0.073624
  0
VERTEX
  8
0
 10
163.075000
 20
6.191667
 42
-0.159683
  0
VERTEX
  8
0
 10
162.666526
 20
6.189601
 42
-0.143818
  0
VERTEX
  8
0
 10
162.315781
 20
6.428177
 42
-0.107546
  0
VERTEX
  8
0
 10
162.079656
 20
6.888977
 42
-0.064908
  0
VERTEX
  8
0
 10
162.000000
 20
7.500000
 42
-0.064908
  0
VERTEX
  8
0
 10
162.079656
 20
8.111023
 42
-0.107546
  0
VERTEX
  8
0
 10
162.315781
 20
8.571823
 42
-0.143818
  0
VERTEX
  8
0
 10
162.666526
 20
8.810399
 42
-0.159683
  0
VERTEX
  8
0
 10
163.075000
 20
8.808333
 42
-0.073624
  0
VERTEX
  8
0
 10
163.485911
 20
8.600259
 42
-0.066918
  0
VERTEX
  8
0
 10
163.834219
 20
8.276198
 42
-0.070382
  0
VERTEX
  8
0
 10
164.069583
 20
7.889952
 42
-0.102038
  0
SEQEND
  0
POLYLINE
  8
0
 66
1
 70
1
  0
VERTEX
  8
0
 10
167.507079
 20
12.011454
 42
0.129903
  0
VERTEX
  8
0
 10
167.404050
 20
11.672657
 42
0.343302
  0
VERTEX
  8
0
 10
167.542983
 20
11.479904
 42
0.133905
  0
VERTEX
  8
0
 10
167.950545
 20
11.472304
 42
0.029715
  0
VERTEX
  8
0
 10
168.621671
 20
11.685063
 42
-0.031338
  0
VERTEX
  8
0
 10
169.459357
 20
11.947638
 42
-0.247518
  0
VERTEX
  8
0
 10
169.841350
 20
11.852463
 42
-0.272022
  0
VERTEX
  8
0
 10
169.955982
 20
11.494775
 42
-0.036355
  0
VERTEX
  8
0
 10
169.717283
 20
10.705634
 42
0.060653
  0
VERTEX
  8
0
 10
169.548966
 20
10.033141
 42
0.069041
  0
VERTEX
  8
0
 10
169.558104
 20
9.369685
 42
0.079485
  0
VERTEX
  8
0
 10
169.735641
 20
8.815965
 42
0.137944
  0
VERTEX
  8
0
 10
170.059986
 20
8.462927
 42
-0.204494
  0
VERTEX
  8
0
 10
170.588882
 20
7.712277
 42
-0.231050
  0
VERTEX
  8
0
 10
170.377665
 20
6.863019
 42
-0.170519
  0
VERTEX
  8
0
 10
169.470372
 20
6.325167
 42
-0.141874
  0
VERTEX
  8
0
 10
168.346912
 20
6.420372
 42
0.041869
  0
VERTEX
  8
0
 10
167.820692
 20
6.573238
 42
0.170102
  0
VERTEX
  8
0
 10
167.495242
 20
6.528056
 42
0.316285
  0
VERTEX
  8
0
 10
167.387979
 20
6.323626
 42
0.106430
  0
VERTEX
  8
0
 10
167.507079
 20
5.988546
 42
0.147185
  0
VERTEX
  8
0
 10
168.348582
 20
5.243088
 42
0.130315
  0
VERTEX
  8
0
 10
169.504960
 20
5.040407
 42
0.131278
  0
VERTEX
  8
0
 10
170.603458
 20
5.437313
 42
0.150267
  0
VERTEX
  8
0
 10
171.290014
 20
6.313381
 42
0.122881
  0
VERTEX
  8
0
 10
171.626993
 20
9.064692
 42
0.116376
  0
VERTEX
  8
0
 10
170.646668
 20
11.714277
 42
0.216251
  0
VERTEX
  8
0
 10
169.023237
 20
12.729307
 42
0.295705
  0
SEQEND
  0
POLYLINE
  8
0
 66
1
 70
1
  0
VERTEX
  8
0
 10
173.507079
 20
12.011454
 42
0.106430
  0
VERTEX
  8
0
 10
173.387979
 20
11.676374
 42
0.316285
  0
VERTEX
  8
0
 10
173.495242
 20
11.471944
 42
0.170102
  0
VERTEX
  8
0
 10
173.820692
 20
11.426762
 42
0.041869
  0
VERTEX
  8
0
 10
174.346912
 20
11.579628
 42
-0.127591
  0
VERTEX
  8
0
 10
175.673055
 20
11.729581
 42
-0.317380
  0
VERTEX
  8
0
 10
176.346844
 20
11.094459
 42
-0.190673
  0
VERTEX
  8
0
 10
176.126648
 20
9.860170
 42
-0.070584
  0
VERTEX
  8
0
 10
174.976419
 20
8.478659
 42
0.031381
  0
VERTEX
  8
0
 10
173.379244
 20
6.839716
 42
0.237557
  0
VERTEX
  8
0
 10
173.126823
 20
5.822709
 42
0.307328
  0
VERTEX
  8
0
 10
173.796944
 20
5.196821
 42
0.045156
  0
VERTEX
  8
0
 10
175.750000
 20
5.070285
 42
0.007485
  0
VERTEX
  8
0
 10
177.150426
 20
5.127064
 42
0.155055
  0
VERTEX
  8
0
 10
177.538981
 20
5.274717
 42
0.545496
  0
VERTEX
  8
0
 10
177.518331
 20
5.483100
 42
0.024229
  0
VERTEX
  8
0
 10
176.723356
 20
5.842717
 42
-0.040012
  0
VERTEX
  8
0
 10
175.784908
 20
6.303413
 42
-0.228445
  0
VERTEX
  8
0
 10
175.486613
 20
6.753503
 42
-0.171991
  0
VERTEX
  8
0
 10
175.611438
 20
7.355216
 42
-0.021547
  0
VERTEX
  8
0
 10
176.362112
 20
8.480540
 42
0.044140
  0
VERTEX
  8
0
 10
176.866923
 20
9.316709
 42
0.044365
  0
VERTEX
  8
0
 10
177.216114
 20
10.227105
 42
0.048192
  0
VERTEX
  8
0
 10
177.371482
 20
11.074799
 42
0.113324
  0
VERTEX
  8
0
 10
177.281768
 20
11.708108
 42
0.152356
  0
VERTEX
  8
0
 10
176.598730
 20
12.572393
 42
0.130591
  0
VERTEX
  8
0
 10
175.501381
 20
12.960447
 42
0.128991
  0
VERTEX
  8
0
 10
174.345589
 20
12.754455
 42
0.147119
  0
SEQEND
  0
POLYLINE
  8
0
 66
1
 70
1
  0
VERTEX
  8
0
 10
32.015313
 20
9.250000
 42
0.037587
  0
VERTEX
  8
0
 10
32.068396
 20
8.618706
 42
0.159858
  0
VERTEX
  8
0
 10
32.239691
 20
8.286490
 42
0.327207
  0
VERTEX
  8
0
 10
32.485745
 20
8.250498
 42
0.111066
  0
VERTEX
  8
0
 10
32.776946
 20
8.500000
 42
-0.017789
  0
VERTEX
  8
0
 10
33.128314
 20
8.937434
 42
-0.011028
  0
VERTEX
  8
0
 10
33.569889
 20
9.426563
 42
-0.011060
  0
VERTEX
  8
0
 10
34.027750
 20
9.890763
 42
-0.019542
  0
VERTEX
  8
0
 10
34.428300
 20
10.250000
 42
0.129577
  0
VERTEX
  8
0
 10
34.631514
 20
10.533999
 42
0.297449
  0
VERTEX
  8
0
 10
34.577897
 20
10.779687
 42
0.152297
  0
VERTEX
  8
0
 10
34.247958
 20
10.949546
 42
0.043317
  0
VERTEX
  8
0
 10
33.666667
 20
11.000000
 42
0.102919
  0
VERTEX
  8
0
 10
33.027441
 20
10.867015
 42
0.101386
  0
VERTEX
  8
0
 10
32.490372
 20
10.489797
 42
0.098893
  0
VERTEX
  8
0
 10
32.135420
 20
9.922707
 42
0.092982
  0
SEQEND
  0
POLYLINE
  8
0
 66
1
 70
1
  0
VERTEX
  8
0
 10
43.149832
 20
8.250000
 42
0.024208
  0
VERTEX
  8
0
 10
43.153792
 20
6.554943
 42
0.117229
  0
VERTEX
  8
0
 10
43.421712
 20
5.637521
 42
0.185041
  0
VERTEX
  8
0
 10
44.001127
 20
5.161907
 42
0.080519
  0
VERTEX
  8
0
 10
45.000000
 20
5.000000
 42
0.080519
  0
VERTEX
  8
0
 10
45.998873
 20
5.161907
 42
0.185041
  0
VERTEX
  8
0
 10
46.578288
 20
5.637521
 42
0.117229
  0
VERTEX
  8
0
 10
46.846208
 20
6.554943
 42
0.024208
  0
VERTEX
  8
0
 10
46.850168
 20
8.250000
 42
0.000897
  0
VERTEX
  8
0
 10
46.746481
 20
10.414657
 42
0.202175
  0
VERTEX
  8
0
 10
46.660063
 20
10.594183
 42
0.591928
  0
VERTEX
  8
0
 10
46.563194
 20
10.559290
 42
0.001448
  0
VERTEX
  8
0
 10
46.283746
 20
8.750000
 42
-0.042846
  0
VERTEX
  8
0
 10
45.779923
 20
6.654787
 42
-0.322858
  0
VERTEX
  8
0
 10
45.000000
 20
6.092575
 42
-0.322858
  0
VERTEX
  8
0
 10
44.220077
 20
6.654787
 42
-0.042846
  0
VERTEX
  8
0
 10
43.716254
 20
8.750000
 42
0.001448
  0
VERTEX
  8
0
 10
43.436806
 20
10.559290
 42
0.591928
  0
VERTEX
  8
0
 10
43.339937
 20
10.594183
 42
0.202175
  0
VERTEX
  8
0
 10
43.253519
 20
10.414657
 42
0.000897
  0
SEQEND
  0
POLYLINE
  8
0
 66
1
 70
1
  0
VERTEX
  8
0
 10
57.393537
 20
9.583158
 42
0.092459
  0
VERTEX
  8
0
 10
57.088024
 20
7.923214
 42
0.119950
  0
VERTEX
  8
0
 10
57.456282
 20
6.425780
 42
0.141099
  0
VERTEX
  8
0
 10
58.406143
 20
5.426894
 42
0.149916
  0
VERTEX
  8
0
 10
59.718615
 20
5.116001
 42
0.002269
  0
VERTEX
  8
0
 10
60.892099
 20
5.197767
 42
0.376975
  0
VERTEX
  8
0
 10
60.975405
 20
5.282707
 42
0.354061
  0
VERTEX
  8
0
 10
60.903211
 20
5.382583
 42
0.002180
  0
VERTEX
  8
0
 10
59.750000
 20
5.689326
 42
-0.084752
  0
VERTEX
  8
0
 10
58.513908
 20
6.248330
 42
-0.230186
  0
VERTEX
  8
0
 10
58.045159
 20
7.058551
 42
-0.307969
  0
VERTEX
  8
0
 10
58.440134
 20
7.739676
 42
-0.112419
  0
VERTEX
  8
0
 10
59.583333
 20
8.000000
 42
0.077096
  0
VERTEX
  8
0
 10
60.158616
 20
8.089234
 42
0.119977
  0
VERTEX
  8
0
 10
60.585286
 20
8.348828
 42
0.144529
  0
VERTEX
  8
0
 10
60.795817
 20
8.735738
 42
0.134046
  0
VERTEX
  8
0
 10
60.770833
 20
9.187500
 42
0.118283
  0
VERTEX
  8
0
 10
60.102767
 20
10.259689
 42
0.166895
  0
VERTEX
  8
0
 10
59.096012
 20
10.742736
 42
0.186698
  0
VERTEX
  8
0
 10
58.088512
 20
10.482766
 42
0.146718
  0
SEQEND
  0
POLYLINE
  8
0
 66
1
 70
1
  0
VERTEX
  8
0
 10
63.136182
 20
7.750000
 42
0.002069
  0
VERTEX
  8
0
 10
63.224431
 20
5.833521
 42
0.157598
  0
VERTEX
  8
0
 10
63.332304
 20
5.549329
 42
0.635542
  0
VERTEX
  8
0
 10
63.459978
 20
5.580153
 42
0.004464
  0
VERTEX
  8
0
 10
63.736997
 20
7.000000
 42
-0.035215
  0
VERTEX
  8
0
 10
63.999600
 20
8.010886
 42
-0.034568
  0
VERTEX
  8
0
 10
64.402717
 20
8.981439
 42
-0.036644
  0
VERTEX
  8
0
 10
64.876772
 20
9.779447
 42
-0.098488
  0
VERTEX
  8
0
 10
65.350815
 20
10.234687
 42
0.058323
  0
VERTEX
  8
0
 10
65.737930
 20
10.551165
 42
0.377644
  0
VERTEX
  8
0
 10
65.748779
 20
10.782974
 42
0.198242
  0
VERTEX
  8
0
 10
65.461362
 20
10.941481
 42
0.025962
  0
VERTEX
  8
0
 10
64.750000
 20
10.984687
 42
0.110321
  0
VERTEX
  8
0
 10
63.922020
 20
10.807340
 42
0.170953
  0
VERTEX
  8
0
 10
63.402133
 20
10.303838
 42
0.101313
  0
VERTEX
  8
0
 10
63.149877
 20
9.358777
 42
0.025200
  0
SEQEND
  0
POLYLINE
  8
0
 66
1
 70
1
  0
VERTEX
  8
0
 10
67.015313
 20
9.250000
 42
0.037587
  0
VERTEX
  8
0
 10
67.068396
 20
8.618706
 42
0.159858
  0
VERTEX
  8
0
 10
67.239691
 20
8.286490
 42
0.327207
  0
VERTEX
  8
0
 10
67.485745
 20
8.250498
 42
0.111066
  0
VERTEX
  8
0
 10
67.776946
 20
8.500000
 42
-0.017789
  0
VERTEX
  8
0
 10
68.128314
 20
8.937434
 42
-0.011028
  0
VERTEX
  8
0
 10
68.569889
 20
9.426563
 42
-0.011060
  0
VERTEX
  8
0
 10
69.027750
 20
9.890763
 42
-0.019542
  0
VERTEX
  8
0
 10
69.428300
 20
10.250000
 42
0.129577
  0
VERTEX
  8
0
 10
69.631514
 20
10.533999
 42
0.297449
  0
VERTEX
  8
0
 10
69.577897
 20
10.779687
 42
0.152297
  0
VERTEX
  8
0
 10
69.247958
 20
10.949546
 42
0.043317
  0
VERTEX
  8
0
 10
68.666667
 20
11.000000
 42
0.102919
  0
VERTEX
  8
0
 10
68.027441
 20
10.867015
 42
0.101386
  0
VERTEX
  8
0
 10
67.490372
 20
10.489797
 42
0.098893
  0
VERTEX
  8
0
 10
67.135420
 20
9.922707
 42
0.092982
  0
SEQEND
  0
POLYLINE
  8
0
 66
1
 70
1
  0
VERTEX
  8
0
 10
76.361626
 20
9.500000
 42
0.095923
  0
VERTEX
  8
0
 10
76.090365
 20
7.967104
 42
0.100868
  0
VERTEX
  8
0
 10
76.420026
 20
6.473048
 42
0.118234
  0
VERTEX
  8
0
 10
77.244769
 20
5.396219
 42
0.172126
  0
VERTEX
  8
0
 10
78.361626
 20
5.000000
 42
0.172126
  0
VERTEX
  8
0
 10
79.478484
 20
5.396219
 42
0.118234
  0
VERTEX
  8
0
 10
80.303227
 20
6.473048
 42
0.100868
  0
VERTEX
  8
0
 10
80.632888
 20
7.967104
 42
0.095923
  0
VERTEX
  8
0
 10
80.361626
 20
9.500000
 42
0.075752
  0
VERTEX
  8
0
 10
80.035112
 20
10.073424
 42
0.064704
  0
VERTEX
  8
0
 10
79.536690
 20
10.559375
 42
0.066827
  0
VERTEX
  8
0
 10
78.949174
 20
10.888042
 42
0.094426
  0
VERTEX
  8
0
 10
78.361626
 20
11.000000
 42
0.094426
  0
VERTEX
  8
0
 10
77.774079
 20
10.888042
 42
0.066827
  0
VERTEX
  8
0
 10
77.186563
 20
10.559375
 42
0.064704
  0
VERTEX
  8
0
 10
76.688140
 20
10.073424
 42
0.075752
  0
SEQEND
  0
POLYLINE
  8
0
 66
1
 70
1
  0
VERTEX
  8
0
 10
79.500000
 20
8.000000
 42
-0.085974
  0
VERTEX
  8
0
 10
79.406312
 20
7.459169
 42
-0.069410
  0
VERTEX
  8
0
 10
79.132812
 20
6.935937
 42
-0.069650
  0
VERTEX
  8
0
 10
78.727751
 20
6.509184
 42
-0.087886
  0
VERTEX
  8
0
 10
78.250000
 20
6.250000
 42
-0.162171
  0
VERTEX
  8
0
 10
77.750923
 20
6.249896
 42
-0.158614
  0
VERTEX
  8
0
 10
77.346154
 20
6.548718
 42
-0.105759
  0
VERTEX
  8
0
 10
77.084641
 20
7.151204
 42
-0.049736
  0
VERTEX
  8
0
 10
77.000000
 20
8.000000
 42
-0.049736
  0
VERTEX
  8
0
 10
77.084641
 20
8.848796
 42
-0.105759
  0
VERTEX
  8
0
 10
77.346154
 20
9.451282
 42
-0.158614
  0
VERTEX
  8
0
 10
77.750923
 20
9.750104
 42
-0.162171
  0
VERTEX
  8
0
 10
78.250000
 20
9.750000
 42
-0.087886
  0
VERTEX
  8
0
 10
78.727751
 20
9.490816
 42
-0.069650
  0
VERTEX
  8
0
 10
79.132812
 20
9.064063
 42
-0.069410
  0
VERTEX
  8
0
 10
79.406312
 20
8.540831
 42
-0.085974
  0
SEQEND
  0
POLYLINE
  8
0
 66
1
 70
1
  0
VERTEX
  8
0
 10
82.361626
 20
9.500000
 42
0.095527
  0
VERTEX
  8
0
 10
82.093560
 20
7.992050
 42
0.096072
  0
VERTEX
  8
0
 10
82.406380
 20
6.495799
 42
0.116082
  0
VERTEX
  8
0
 10
83.183390
 20
5.427388
 42
0.195540
  0
VERTEX
  8
0
 10
84.218615
 20
5.078947
 42
0.011982
  0
VERTEX
  8
0
 10
84.873211
 20
5.135049
 42
0.367180
  0
VERTEX
  8
0
 10
84.977820
 20
5.245655
 42
0.309320
  0
VERTEX
  8
0
 10
84.891230
 20
5.388093
 42
0.010270
  0
VERTEX
  8
0
 10
84.250000
 20
5.662281
 42
-0.109745
  0
VERTEX
  8
0
 10
83.771780
 20
5.990955
 42
-0.064843
  0
VERTEX
  8
0
 10
83.367188
 20
6.557045
 42
-0.060083
  0
VERTEX
  8
0
 10
83.093179
 20
7.261398
 42
-0.062829
  0
VERTEX
  8
0
 10
83.000000
 20
8.000000
 42
-0.062829
  0
VERTEX
  8
0
 10
83.093179
 20
8.738602
 42
-0.060083
  0
VERTEX
  8
0
 10
83.367188
 20
9.442955
 42
-0.064843
  0
VERTEX
  8
0
 10
83.771780
 20
10.009045
 42
-0.109745
  0
VERTEX
  8
0
 10
84.250000
 20
10.337719
 42
0.010270
  0
VERTEX
  8
0
 10
84.891230
 20
10.611907
 42
0.309320
  0
VERTEX
  8
0
 10
84.977820
 20
10.754345
 42
0.367180
  0
VERTEX
  8
0
 10
84.873211
 20
10.864951
 42
0.011982
  0
VERTEX
  8
0
 10
84.218615
 20
10.921053
 42
0.107569
  0
VERTEX
  8
0
 10
83.685734
 20
10.838999
 42
0.071645
  0
VERTEX
  8
0
 10
83.144554
 20
10.536184
 42
0.067116
  0
VERTEX
  8
0
 10
82.677538
 20
10.067466
 42
0.070903
  0
SEQEND
  0
POLYLINE
  8
0
 66
1
 70
1
  0
VERTEX
  8
0
 10
96.361626
 20
9.500000
 42
0.095527
  0
VERTEX
  8
0
 10
96.093560
 20
7.992050
 42
0.096072
  0
VERTEX
  8
0
 10
96.406380
 20
6.495799
 42
0.116082
  0
VERTEX
  8
0
 10
97.183390
 20
5.427388
 42
0.195540
  0
VERTEX
  8
0
 10
98.218615
 20
5.078947
 42
0.011982
  0
VERTEX
  8
0
 10
98.873211
 20
5.135049
 42
0.367180
  0
VERTEX
  8
0
 10
98.977820
 20
5.245655
 42
0.309320
  0
VERTEX
  8
0
 10
98.891230
 20
5.388093
 42
0.010270
  0
VERTEX
  8
0
 10
98.250000
 20
5.662281
 42
-0.109745
  0
VERTEX
  8
0
 10
97.771780
 20
5.990955
 42
-0.064843
  0
VERTEX
  8
0
 10
97.367188
 20
6.557045
 42
-0.060083
  0
VERTEX
  8
0
 10
97.093179
 20
7.261398
 42
-0.062829
  0
VERTEX
  8
0
 10
97.000000
 20
8.000000
 42
-0.062829
  0
VERTEX
  8
0
 10
97.093179
 20
8.738602
 42
-0.060083
  0
VERTEX
  8
0
 10
97.367188
 20
9.442955
 42
-0.064843
  0
VERTEX
  8
0
 10
97.771780
 20
10.009045
 42
-0.109745
  0
VERTEX
  8
0
 10
98.250000
 20
10.337719
 42
0.010270
  0
VERTEX
  8
0
 10
98.891230
 20
10.611907
 42
0.309320
  0
VERTEX
  8
0
 10
98.977820
 20
10.754345
 42
0.367180
  0
VERTEX
  8
0
 10
98.873211
 20
10.864951
 42
0.011982
  0
VERTEX
  8
0
 10
98.218615
 20
10.921053
 42
0.107569
  0
VERTEX
  8
0
 10
97.685734
 20
10.838999
 42
0.071645
  0
VERTEX
  8
0
 10
97.144554
 20
10.536184
 42
0.067116
  0
VERTEX
  8
0
 10
96.677538
 20
10.067466
 42
0.070903
  0
SEQEND
  0
POLYLINE
  8
0
 66
1
 70
1
  0
VERTEX
  8
0
 10
101.361626
 20
9.500000
 42
0.095923
  0
VERTEX
  8
0
 10
101.090365
 20
7.967104
 42
0.100868
  0
VERTEX
  8
0
 10
101.420026
 20
6.473048
 42
0.118234
  0
VERTEX
  8
0
 10
102.244769
 20
5.396219
 42
0.172126
  0
VERTEX
  8
0
 10
103.361626
 20
5.000000
 42
0.172126
  0
VERTEX
  8
0
 10
104.478484
 20
5.396219
 42
0.118234
  0
VERTEX
  8
0
 10
105.303227
 20
6.473048
 42
0.100868
  0
VERTEX
  8
0
 10
105.632888
 20
7.967104
 42
0.095923
  0
VERTEX
  8
0
 10
105.361626
 20
9.500000
 42
0.075752
  0
VERTEX
  8
0
 10
105.035112
 20
10.073424
 42
0.064704
  0
VERTEX
  8
0
 10
104.536690
 20
10.559375
 42
0.066827
  0
VERTEX
  8
0
 10
103.949174
 20
10.888042
 42
0.094426
  0
VERTEX
  8
0
 10
103.361626
 20
11.000000
 42
0.094426
  0
VERTEX
  8
0
 10
102.774079
 20
10.888042
 42
0.066827
  0
VERTEX
  8
0
 10
102.186563
 20
10.559375
 42
0.064704
  0
VERTEX
  8
0
 10
101.688140
 20
10.073424
 42
0.075752
  0
SEQEND
  0
POLYLINE
  8
0
 66
1
 70
1
  0
VERTEX
  8
0
 10
104.500000
 20
8.000000
 42
-0.085974
  0
VERTEX
  8
0
 10
104.406312
 20
7.459169
 42
-0.069410
  0
VERTEX
  8
0
 10
104.132812
 20
6.935937
 42
-0.069650
  0
VERTEX
  8
0
 10
103.727751
 20
6.509184
 42
-0.087886
  0
VERTEX
  8
0
 10
103.250000
 20
6.250000
 42
-0.162171
  0
VERTEX
  8
0
 10
102.750923
 20
6.249896
 42
-0.158614
  0
VERTEX
  8
0
 10
102.346154
 20
6.548718
 42
-0.105759
  0
VERTEX
  8
0
 10
102.084641
 20
7.151204
 42
-0.049736
  0
VERTEX
  8
0
 10
102.000000
 20
8.000000
 42
-0.049736
  0
VERTEX
  8
0
 10
102.084641
 20
8.848796
 42
-0.105759
  0
VERTEX
  8
0
 10
102.346154
 20
9.451282
 42
-0.158614
  0
VERTEX
  8
0
 10
102.750923
 20
9.750104
 42
-0.162171
  0
VERTEX
  8
0
 10
103.250000
 20
9.750000
 42
-0.087886
  0
VERTEX
  8
0
 10
103.727751
 20
9.490816
 42
-0.069650
  0
VERTEX
  8
0
 10
104.132812
 20
9.064063
 42
-0.069410
  0
VERTEX
  8
0
 10
104.406312
 20
8.540831
 42
-0.085974
  0
SEQEND
  0
POLYLINE
  8
0
 66
1
 70
1
  0
VERTEX
  8
0
 10
107.149832
 20
7.650000
 42
0.000717
  0
VERTEX
  8
0
 10
107.256513
 20
5.473002
 42
0.230331
  0
VERTEX
  8
0
 10
107.337042
 20
5.326698
 42
0.556445
  0
VERTEX
  8
0
 10
107.426588
 20
5.364630
 42
0.001051
  0
VERTEX
  8
0
 10
107.716254
 20
7.250000
 42
-0.029064
  0
VERTEX
  8
0
 10
107.939057
 20
8.303299
 42
-0.042572
  0
VERTEX
  8
0
 10
108.265198
 20
9.192187
 42
-0.050351
  0
VERTEX
  8
0
 10
108.637921
 20
9.817711
 42
-0.237524
  0
VERTEX
  8
0
 10
109.000000
 20
10.000000
 42
-0.237524
  0
VERTEX
  8
0
 10
109.362079
 20
9.817711
 42
-0.050351
  0
VERTEX
  8
0
 10
109.734802
 20
9.192187
 42
-0.042572
  0
VERTEX
  8
0
 10
110.060943
 20
8.303299
 42
-0.029064
  0
VERTEX
  8
0
 10
110.283746
 20
7.250000
 42
0.000000
  0
VERTEX
  8
0
 10
110.700336
 20
4.500000
 42
0.000000
  0
VERTEX
  8
0
 10
110.850168
 20
7.250000
 42
-0.032066
  0
VERTEX
  8
0
 10
110.975618
 20
8.303329
 42
-0.048198
  0
VERTEX
  8
0
 10
111.230225
 20
9.192187
 42
-0.060525
  0
VERTEX
  8
0
 10
111.564265
 20
9.809209
 42
-0.243047
  0
VERTEX
  8
0
 10
111.933578
 20
10.000000
 42
-0.228062
  0
VERTEX
  8
0
 10
112.321337
 20
9.813430
 42
-0.054426
  0
VERTEX
  8
0
 10
112.715290
 20
9.192187
 42
-0.045236
  0
VERTEX
  8
0
 10
113.056009
 20
8.303169
 42
-0.031318
  0
VERTEX
  8
0
 10
113.283746
 20
7.250000
 42
0.001051
  0
VERTEX
  8
0
 10
113.573412
 20
5.364630
 42
0.556445
  0
VERTEX
  8
0
 10
113.662958
 20
5.326698
 42
0.230331
  0
VERTEX
  8
0
 10
113.743487
 20
5.473002
 42
0.000717
  0
VERTEX
  8
0
 10
113.850168
 20
7.650000
 42
0.026681
  0
VERTEX
  8
0
 10
113.839228
 20
9.529627
 42
0.191545
  0
VERTEX
  8
0
 10
113.462029
 20
10.335702
 42
0.170122
  0
VERTEX
  8
0
 10
112.607026
 20
10.715061
 42
0.020148
  0
VERTEX
  8
0
 10
110.500000
 20
10.800000
 42
0.020148
  0
VERTEX
  8
0
 10
108.392974
 20
10.715061
 42
0.170122
  0
VERTEX
  8
0
 10
107.537971
 20
10.335702
 42
0.191545
  0
VERTEX
  8
0
 10
107.160772
 20
9.529627
 42
0.026681
  0
SEQEND
  0
POLYLINE
  8
0
 66
1
 70
1
  0
VERTEX
  8
0
 10
33.210573
 20
6.461963
 42
0.017756
  0
VERTEX
  8
0
 10
32.553366
 20
5.661216
 42
0.208212
  0
VERTEX
  8
0
 10
32.459106
 20
5.278020
 42
0.325335
  0
VERTEX
  8
0
 10
32.687524
 20
5.055481
 42
0.035838
  0
VERTEX
  8
0
 10
33.460573
 20
5.000000
 42
0.096419
  0
VERTEX
  8
0
 10
34.048138
 20
5.114368
 42
0.097291
  0
VERTEX
  8
0
 10
34.547793
 20
5.440625
 42
0.098537
  0
VERTEX
  8
0
 10
34.882332
 20
5.927600
 42
0.101721
  0
VERTEX
  8
0
 10
35.000000
 20
6.500000
 42
0.019434
  0
VERTEX
  8
0
 10
34.955338
 20
7.648652
 42
0.397768
  0
VERTEX
  8
0
 10
34.719977
 20
7.861798
 42
0.201684
  0
VERTEX
  8
0
 10
34.322999
 20
7.684860
 42
0.007679
  0
SEQEND
  0
POLYLINE
  8
0
 66
1
 70
1
  0
VERTEX
  8
0
 10
68.210573
 20
6.461963
 42
0.017756
  0
VERTEX
  8
0
 10
67.553366
 20
5.661216
 42
0.208212
  0
VERTEX
  8
0
 10
67.459106
 20
5.278020
 42
0.325335
  0
VERTEX
  8
0
 10
67.687524
 20
5.055481
 42
0.035838
  0
VERTEX
  8
0
 10
68.460573
 20
5.000000
 42
0.096419
  0
VERTEX
  8
0
 10
69.048138
 20
5.114368
 42
0.097291
  0
VERTEX
  8
0
 10
69.547793
 20
5.440625
 42
0.098537
  0
VERTEX
  8
0
 10
69.882332
 20
5.927600
 42
0.101721
  0
VERTEX
  8
0
 10
70.000000
 20
6.500000
 42
0.019434
  0
VERTEX
  8
0
 10
69.955338
 20
7.648652
 42
0.397768
  0
VERTEX
  8
0
 10
69.719977
 20
7.861798
 42
0.201684
  0
VERTEX
  8
0
 10
69.322999
 20
7.684860
 42
0.007679
  0
SEQEND
  0
POLYLINE
  8
0
 66
1
 70
1
  0
VERTEX
  8
0
 10
89.000000
 20
7.118034
 42
0.085235
  0
VERTEX
  8
0
 10
89.073533
 20
6.689814
 42
0.053414
  0
VERTEX
  8
0
 10
89.293750
 20
6.230237
 42
0.051777
  0
VERTEX
  8
0
 10
89.617474
 20
5.810561
 42
0.064269
  0
VERTEX
  8
0
 10
90.000000
 20
5.500000
 42
0.076764
  0
VERTEX
  8
0
 10
90.382383
 20
5.338175
 42
0.154201
  0
VERTEX
  8
0
 10
90.706250
 20
5.357263
 42
0.186277
  0
VERTEX
  8
0
 10
90.920761
 20
5.550471
 42
0.117858
  0
VERTEX
  8
0
 10
91.000000
 20
5.881966
 42
0.085235
  0
VERTEX
  8
0
 10
90.926467
 20
6.310186
 42
0.053414
  0
VERTEX
  8
0
 10
90.706250
 20
6.769763
 42
0.051777
  0
VERTEX
  8
0
 10
90.382526
 20
7.189439
 42
0.064269
  0
VERTEX
  8
0
 10
90.000000
 20
7.500000
 42
0.076764
  0
VERTEX
  8
0
 10
89.617617
 20
7.661825
 42
0.154201
  0
VERTEX
  8
0
 10
89.293750
 20
7.642737
 42
0.186277
  0
VERTEX
  8
0
 10
89.079239
 20
7.449529
 42
0.117858
  0
SEQEND
  0
ENDSEC
  0
EOF
