999
DXF data, created by potrace 1.16, written by Peter Selinger 2001-2019
  0
SECTION
  2
HEADER
  9
$ACADVER
  1
AC1006
  9
$EXTMIN
 10
0.000000
 20
0.000000
 30
0.000000
  9
$EXTMAX
 10
800.000000
 20
600.000000
 30
0.000000
  0
ENDSEC
  0
SECTION
  2
ENTITIES
  0
POLYLINE
  8
0
 66
1
 70
1
  0
VERTEX
  8
0
 10
403.625727
 20
524.546845
 42
0.043621
  0
VERTEX
  8
0
 10
398.215388
 20
522.464203
 42
0.031801
  0
VERTEX
  8
0
 10
392.614805
 20
519.270728
 42
0.031761
  0
VERTEX
  8
0
 10
387.454862
 20
515.386208
 42
0.043030
  0
VERTEX
  8
0
 10
383.369857
 20
511.223558
 42
0.005978
  0
VERTEX
  8
0
 10
381.761047
 20
509.226018
 42
0.007866
  0
VERTEX
  8
0
 10
380.344298
 20
507.363671
 42
0.005945
  0
VERTEX
  8
0
 10
379.205633
 20
505.777817
 42
0.072298
  0
VERTEX
  8
0
 10
378.869857
 20
505.110994
 42
-0.206869
  0
VERTEX
  8
0
 10
378.293969
 20
504.467638
 42
-0.000201
  0
VERTEX
  8
0
 10
360.102395
 20
496.074058
 42
-0.001917
  0
VERTEX
  8
0
 10
339.681352
 20
486.756514
 42
-0.001169
  0
VERTEX
  8
0
 10
315.500000
 20
475.903077
 42
0.000000
  0
VERTEX
  8
0
 10
252.500000
 20
447.803308
 42
0.000000
  0
VERTEX
  8
0
 10
245.688187
 20
449.540487
 42
0.098426
  0
VERTEX
  8
0
 10
230.322185
 20
450.363088
 42
0.106925
  0
VERTEX
  8
0
 10
216.304752
 20
445.154352
 42
0.107154
  0
VERTEX
  8
0
 10
205.715013
 20
434.629758
 42
0.099225
  0
VERTEX
  8
0
 10
200.068070
 20
420.375386
 42
0.054757
  0
VERTEX
  8
0
 10
199.575901
 20
413.354015
 42
0.049649
  0
VERTEX
  8
0
 10
200.581182
 20
406.149412
 42
0.049544
  0
VERTEX
  8
0
 10
202.990632
 20
399.269359
 42
0.053987
  0
VERTEX
  8
0
 10
206.654480
 20
393.208580
 42
-0.088551
  0
VERTEX
  8
0
 10
208.268073
 20
390.070663
 42
-0.039497
  0
VERTEX
  8
0
 10
209.282765
 20
385.519568
 42
-0.013795
  0
VERTEX
  8
0
 10
210.222352
 20
377.227168
 42
-0.001038
  0
VERTEX
  8
0
 10
212.103835
 20
354.654753
 42
-0.001226
  0
VERTEX
  8
0
 10
214.340616
 20
326.267524
 42
-0.018700
  0
VERTEX
  8
0
 10
214.722556
 20
316.425293
 42
-0.057377
  0
VERTEX
  8
0
 10
214.082723
 20
310.799051
 42
-0.080089
  0
VERTEX
  8
0
 10
212.171396
 20
306.118689
 42
-0.075456
  0
VERTEX
  8
0
 10
209.686459
 20
303.157464
 42
-0.057891
  0
VERTEX
  8
0
 10
206.211157
 20
300.747341
 42
-0.019963
  0
VERTEX
  8
0
 10
199.736018
 20
297.613278
 42
-0.001447
  0
VERTEX
  8
0
 10
181.500000
 20
289.731426
 42
-0.002127
  0
VERTEX
  8
0
 10
170.659282
 20
285.137586
 42
-0.003323
  0
VERTEX
  8
0
 10
161.284375
 20
281.284868
 42
-0.000954
  0
VERTEX
  8
0
 10
153.112170
 20
278.007828
 42
-0.113841
  0
VERTEX
  8
0
 10
152.000000
 20
277.836607
 42
0.022980
  0
VERTEX
  8
0
 10
146.318097
 20
277.995752
 42
0.074066
  0
VERTEX
  8
0
 10
142.599651
 20
277.373476
 42
0.098848
  0
VERTEX
  8
0
 10
139.832462
 20
275.822974
 42
0.063083
  0
VERTEX
  8
0
 10
137.345547
 20
273.082950
 42
0.103160
  0
VERTEX
  8
0
 10
136.134057
 20
270.260255
 42
0.060509
  0
VERTEX
  8
0
 10
135.842957
 20
266.581048
 42
0.059626
  0
VERTEX
  8
0
 10
136.446527
 20
262.865203
 42
0.089362
  0
VERTEX
  8
0
 10
137.897379
 20
259.924932
 42
-0.087683
  0
VERTEX
  8
0
 10
139.133030
 20
257.441675
 42
-0.031849
  0
VERTEX
  8
0
 10
140.006656
 20
253.591454
 42
-0.015723
  0
VERTEX
  8
0
 10
140.831188
 20
247.185260
 42
-0.002376
  0
VERTEX
  8
0
 10
142.016549
 20
234.310389
 42
-0.001104
  0
VERTEX
  8
0
 10
143.689876
 20
214.636527
 42
-0.029236
  0
VERTEX
  8
0
 10
143.817533
 20
209.359350
 42
-0.127618
  0
VERTEX
  8
0
 10
143.017343
 20
206.659476
 42
-0.124446
  0
VERTEX
  8
0
 10
141.000000
 20
204.659071
 42
0.000000
  0
VERTEX
  8
0
 10
138.000000
 20
202.886928
 42
0.000000
  0
VERTEX
  8
0
 10
138.000000
 20
138.443464
 42
0.000000
  0
VERTEX
  8
0
 10
138.000000
 20
74.000000
 42
0.000000
  0
VERTEX
  8
0
 10
221.354160
 20
74.000000
 42
0.000000
  0
VERTEX
  8
0
 10
304.708319
 20
74.000000
 42
0.000000
  0
VERTEX
  8
0
 10
321.354160
 20
86.132166
 42
0.000000
  0
VERTEX
  8
0
 10
338.000000
 20
98.264333
 42
0.000000
  0
VERTEX
  8
0
 10
338.000000
 20
162.132166
 42
0.000000
  0
VERTEX
  8
0
 10
338.000000
 20
226.000000
 42
0.000000
  0
VERTEX
  8
0
 10
335.500000
 20
226.000000
 42
-0.174689
  0
VERTEX
  8
0
 10
333.864514
 20
226.589390
 42
-0.203098
  0
VERTEX
  8
0
 10
333.108637
 20
228.047432
 42
-0.039821
  0
VERTEX
  8
0
 10
333.115775
 20
231.493041
 42
-0.001735
  0
VERTEX
  8
0
 10
334.140535
 20
243.500000
 42
-0.006122
  0
VERTEX
  8
0
 10
334.803071
 20
250.046915
 42
-0.020305
  0
VERTEX
  8
0
 10
335.465790
 20
254.324591
 42
-0.030826
  0
VERTEX
  8
0
 10
336.237410
 20
257.273331
 42
-0.073173
  0
VERTEX
  8
0
 10
337.249183
 20
259.296826
 42
0.039963
  0
VERTEX
  8
0
 10
338.033163
 20
260.635288
 42
0.022779
  0
VERTEX
  8
0
 10
338.771337
 20
262.359892
 42
0.022633
  0
VERTEX
  8
0
 10
339.359996
 20
264.174915
 42
0.034573
  0
VERTEX
  8
0
 10
339.687500
 20
265.796826
 42
0.135443
  0
VERTEX
  8
0
 10
338.976030
 20
270.877883
 42
0.110276
  0
VERTEX
  8
0
 10
335.735787
 20
275.340393
 42
0.111402
  0
VERTEX
  8
0
 10
330.936585
 20
277.969773
 42
0.140571
  0
VERTEX
  8
0
 10
325.894822
 20
277.969835
 42
-0.145391
  0
VERTEX
  8
0
 10
323.425544
 20
277.993193
 42
-0.014421
  0
VERTEX
  8
0
 10
317.753169
 20
279.917498
 42
-0.010436
  0
VERTEX
  8
0
 10
308.802778
 20
283.458934
 42
-0.001913
  0
VERTEX
  8
0
 10
292.429078
 20
290.410004
 42
-0.003043
  0
VERTEX
  8
0
 10
280.555037
 20
295.590346
 42
-0.004728
  0
VERTEX
  8
0
 10
270.384877
 20
300.216786
 42
-0.001562
  0
VERTEX
  8
0
 10
261.665157
 20
304.316587
 42
-0.142304
  0
VERTEX
  8
0
 10
260.616379
 20
305.246390
 42
-0.152316
  0
VERTEX
  8
0
 10
260.167930
 20
306.929178
 42
-0.002512
  0
VERTEX
  8
0
 10
260.628299
 20
316.739026
 42
-0.004879
  0
VERTEX
  8
0
 10
261.453086
 20
330.094544
 42
-0.001508
  0
VERTEX
  8
0
 10
262.951787
 20
350.187032
 42
-0.001321
  0
VERTEX
  8
0
 10
264.786682
 20
373.042474
 42
-0.006766
  0
VERTEX
  8
0
 10
266.010527
 20
385.713811
 42
-0.009421
  0
VERTEX
  8
0
 10
267.042853
 20
393.693277
 42
-0.078511
  0
VERTEX
  8
0
 10
268.130966
 20
397.159223
 42
-0.135384
  0
VERTEX
  8
0
 10
270.768233
 20
400.105979
 42
-0.055803
  0
VERTEX
  8
0
 10
275.608923
 20
402.505158
 42
-0.010198
  0
VERTEX
  8
0
 10
286.149514
 20
406.095055
 42
-0.000221
  0
VERTEX
  8
0
 10
338.000000
 20
422.556799
 42
-0.000031
  0
VERTEX
  8
0
 10
382.861721
 20
436.774831
 42
-0.000778
  0
VERTEX
  8
0
 10
395.261161
 20
440.682495
 42
-0.000847
  0
VERTEX
  8
0
 10
402.097707
 20
442.812613
 42
-0.070471
  0
VERTEX
  8
0
 10
403.181393
 20
442.987099
 42
-0.219598
  0
VERTEX
  8
0
 10
403.956913
 20
442.646892
 42
-0.000760
  0
VERTEX
  8
0
 10
410.881899
 20
434.807466
 42
-0.001972
  0
VERTEX
  8
0
 10
421.655171
 20
422.476448
 42
-0.000224
  0
VERTEX
  8
0
 10
445.881586
 20
394.500000
 42
0.000148
  0
VERTEX
  8
0
 10
452.312245
 20
387.071649
 42
0.000211
  0
VERTEX
  8
0
 10
458.027915
 20
380.478792
 42
0.000115
  0
VERTEX
  8
0
 10
462.866436
 20
374.905053
 42
0.003170
  0
VERTEX
  8
0
 10
464.147229
 20
373.449079
 42
-0.046298
  0
VERTEX
  8
0
 10
465.046084
 20
372.229864
 42
-0.099245
  0
VERTEX
  8
0
 10
465.439531
 20
371.134743
 42
-0.082922
  0
VERTEX
  8
0
 10
465.415841
 20
369.847104
 42
-0.025430
  0
VERTEX
  8
0
 10
464.961992
 20
367.949079
 42
0.068867
  0
VERTEX
  8
0
 10
463.871430
 20
360.636379
 42
0.000677
  0
VERTEX
  8
0
 10
463.383168
 20
307.396083
 42
0.000582
  0
VERTEX
  8
0
 10
463.026190
 20
253.731770
 42
0.081243
  0
VERTEX
  8
0
 10
464.019984
 20
247.439449
 42
0.070923
  0
VERTEX
  8
0
 10
465.413443
 20
244.629632
 42
0.064211
  0
VERTEX
  8
0
 10
467.577163
 20
242.212998
 42
0.068390
  0
VERTEX
  8
0
 10
470.122685
 20
240.560688
 42
0.110238
  0
VERTEX
  8
0
 10
472.634859
 20
240.000000
 42
-0.094435
  0
VERTEX
  8
0
 10
473.973905
 20
239.744818
 42
-0.219225
  0
VERTEX
  8
0
 10
474.664109
 20
239.022330
 42
-0.076907
  0
VERTEX
  8
0
 10
474.948349
 20
237.437073
 42
-0.005976
  0
VERTEX
  8
0
 10
475.000000
 20
233.115829
 42
0.000000
  0
VERTEX
  8
0
 10
475.000000
 20
226.231658
 42
0.000000
  0
VERTEX
  8
0
 10
461.750000
 20
225.811997
 42
0.006049
  0
VERTEX
  8
0
 10
454.740826
 20
225.505083
 42
0.020827
  0
VERTEX
  8
0
 10
450.212273
 20
225.062124
 42
0.031328
  0
VERTEX
  8
0
 10
446.855144
 20
224.375348
 42
0.039782
  0
VERTEX
  8
0
 10
443.877595
 20
223.308840
 42
0.045367
  0
VERTEX
  8
0
 10
439.143420
 20
220.634947
 42
0.041516
  0
VERTEX
  8
0
 10
434.815521
 20
217.078988
 42
0.041405
  0
VERTEX
  8
0
 10
431.123598
 20
212.846218
 42
0.044531
  0
VERTEX
  8
0
 10
428.279782
 20
208.160544
 42
0.000000
  0
VERTEX
  8
0
 10
425.500000
 20
202.500000
 42
0.000000
  0
VERTEX
  8
0
 10
425.199965
 20
169.250000
 42
0.000000
  0
VERTEX
  8
0
 10
424.899931
 20
136.000000
 42
0.000000
  0
VERTEX
  8
0
 10
421.084824
 20
136.000000
 42
0.039972
  0
VERTEX
  8
0
 10
419.331043
 20
135.859571
 42
0.037795
  0
VERTEX
  8
0
 10
417.587745
 20
135.441526
 42
0.038902
  0
VERTEX
  8
0
 10
415.980872
 20
134.783500
 42
0.050061
  0
VERTEX
  8
0
 10
414.634859
 20
133.927420
 42
0.000000
  0
VERTEX
  8
0
 10
412.000000
 20
131.854840
 42
0.000000
  0
VERTEX
  8
0
 10
412.000000
 20
114.423574
 42
0.000000
  0
VERTEX
  8
0
 10
412.000000
 20
96.992309
 42
0.000000
  0
VERTEX
  8
0
 10
538.250000
 20
97.246155
 42
0.000000
  0
VERTEX
  8
0
 10
664.500000
 20
97.500000
 42
0.000000
  0
VERTEX
  8
0
 10
664.500000
 20
114.338260
 42
0.000000
  0
VERTEX
  8
0
 10
664.500000
 20
131.176521
 42
0.000000
  0
VERTEX
  8
0
 10
661.694236
 20
133.588260
 42
0.042358
  0
VERTEX
  8
0
 10
660.294890
 20
134.598626
 42
0.042004
  0
VERTEX
  8
0
 10
658.741465
 20
135.361959
 42
0.043052
  0
VERTEX
  8
0
 10
657.122153
 20
135.839411
 42
0.050211
  0
VERTEX
  8
0
 10
655.527033
 20
136.000000
 42
0.000000
  0
VERTEX
  8
0
 10
652.165592
 20
136.000000
 42
0.000000
  0
VERTEX
  8
0
 10
651.832796
 20
168.853504
 42
0.000000
  0
VERTEX
  8
0
 10
651.500000
 20
201.707007
 42
0.000000
  0
VERTEX
  8
0
 10
648.000000
 20
208.565864
 42
0.069332
  0
VERTEX
  8
0
 10
642.298569
 20
216.718370
 42
0.092526
  0
VERTEX
  8
0
 10
635.055118
 20
222.083778
 42
0.077693
  0
VERTEX
  8
0
 10
625.375705
 20
225.056114
 42
0.035731
  0
VERTEX
  8
0
 10
612.184396
 20
226.000000
 42
0.000000
  0
VERTEX
  8
0
 10
601.000000
 20
226.000000
 42
0.000000
  0
VERTEX
  8
0
 10
601.000000
 20
232.461456
 42
0.000000
  0
VERTEX
  8
0
 10
601.000000
 20
238.922912
 42
0.000000
  0
VERTEX
  8
0
 10
604.949709
 20
239.986458
 42
0.040813
  0
VERTEX
  8
0
 10
606.715204
 20
240.620161
 42
0.038817
  0
VERTEX
  8
0
 10
608.385776
 20
241.541040
 42
0.040101
  0
VERTEX
  8
0
 10
609.837598
 20
242.671404
 42
0.052628
  0
VERTEX
  8
0
 10
610.949709
 20
243.929373
 42
0.126424
  0
VERTEX
  8
0
 10
612.213802
 20
247.215137
 42
0.020515
  0
VERTEX
  8
0
 10
612.728728
 20
254.093189
 42
0.007909
  0
VERTEX
  8
0
 10
612.961148
 20
267.089100
 42
0.000516
  0
VERTEX
  8
0
 10
613.000000
 20
304.744408
 42
0.001815
  0
VERTEX
  8
0
 10
612.842717
 20
348.076089
 42
0.023030
  0
VERTEX
  8
0
 10
611.974342
 20
364.349262
 42
0.055110
  0
VERTEX
  8
0
 10
609.677764
 20
375.152049
 42
0.035508
  0
VERTEX
  8
0
 10
604.799740
 20
387.000000
 42
0.019167
  0
VERTEX
  8
0
 10
602.198826
 20
391.762256
 42
0.028041
  0
VERTEX
  8
0
 10
599.524914
 20
395.719084
 42
0.023620
  0
VERTEX
  8
0
 10
596.095595
 20
399.810585
 42
0.009344
  0
VERTEX
  8
0
 10
591.019378
 20
405.114161
 42
0.008927
  0
VERTEX
  8
0
 10
585.469493
 20
410.503867
 42
0.027870
  0
VERTEX
  8
0
 10
581.478980
 20
413.845824
 42
0.032153
  0
VERTEX
  8
0
 10
577.458956
 20
416.463378
 42
0.015274
  0
VERTEX
  8
0
 10
571.983400
 20
419.330305
 42
0.019705
  0
VERTEX
  8
0
 10
564.676914
 20
422.526698
 42
0.025626
  0
VERTEX
  8
0
 10
557.748157
 20
424.836225
 42
0.026240
  0
VERTEX
  8
0
 10
550.756252
 20
426.385318
 42
0.022424
  0
VERTEX
  8
0
 10
543.263407
 20
427.294308
 42
-0.028429
  0
VERTEX
  8
0
 10
539.232680
 20
427.832460
 42
-0.080147
  0
VERTEX
  8
0
 10
536.570245
 20
428.802885
 42
-0.046321
  0
VERTEX
  8
0
 10
533.622005
 20
430.828770
 42
-0.004909
  0
VERTEX
  8
0
 10
527.263407
 20
436.233023
 42
0.000149
  0
VERTEX
  8
0
 10
521.621400
 20
441.121502
 42
0.000026
  0
VERTEX
  8
0
 10
510.968001
 20
450.345527
 42
0.000028
  0
VERTEX
  8
0
 10
498.467233
 20
461.166686
 42
0.000025
  0
VERTEX
  8
0
 10
485.500000
 20
472.389207
 42
-0.002250
  0
VERTEX
  8
0
 10
470.432402
 20
485.547215
 42
-0.006722
  0
VERTEX
  8
0
 10
460.286580
 20
494.733258
 42
-0.007460
  0
VERTEX
  8
0
 10
453.345738
 20
501.385318
 42
-0.062598
  0
VERTEX
  8
0
 10
450.666348
 20
504.790423
 42
0.055955
  0
VERTEX
  8
0
 10
444.127482
 20
513.330613
 42
0.064210
  0
VERTEX
  8
0
 10
436.126226
 20
519.765415
 42
0.065325
  0
VERTEX
  8
0
 10
426.878459
 20
523.879724
 42
0.061124
  0
VERTEX
  8
0
 10
416.669229
 20
525.590637
 42
0.014427
  0
VERTEX
  8
0
 10
412.939322
 20
525.646943
 42
0.016526
  0
VERTEX
  8
0
 10
409.378266
 20
525.480145
 42
0.017919
  0
VERTEX
  8
0
 10
406.194085
 20
525.110120
 42
0.032197
  0
SEQEND
  0
POLYLINE
  8
0
 66
1
 70
1
  0
VERTEX
  8
0
 10
225.500000
 20
268.867341
 42
0.062440
  0
VERTEX
  8
0
 10
229.390208
 20
267.651191
 42
0.033624
  0
VERTEX
  8
0
 10
234.391018
 20
267.093554
 42
0.033013
  0
VERTEX
  8
0
 10
239.616726
 20
267.209454
 42
0.045712
  0
VERTEX
  8
0
 10
244.226471
 20
268.046084
 42
0.040576
  0
VERTEX
  8
0
 10
245.983396
 20
268.691406
 42
0.017057
  0
VERTEX
  8
0
 10
248.232763
 20
269.826161
 42
0.016744
  0
VERTEX
  8
0
 10
250.567495
 20
271.209278
 42
0.020920
  0
VERTEX
  8
0
 10
252.631993
 20
272.652615
 42
0.000000
  0
VERTEX
  8
0
 10
257.311044
 20
276.224215
 42
0.000000
  0
VERTEX
  8
0
 10
287.405522
 20
268.537003
 42
-0.003090
  0
VERTEX
  8
0
 10
299.874110
 20
265.269855
 42
-0.006073
  0
VERTEX
  8
0
 10
309.742346
 20
262.489848
 42
-0.003193
  0
VERTEX
  8
0
 10
317.601625
 20
260.117728
 42
-0.123545
  0
VERTEX
  8
0
 10
319.155562
 20
259.174895
 42
-0.155111
  0
VERTEX
  8
0
 10
320.384958
 20
256.765550
 42
-0.008039
  0
VERTEX
  8
0
 10
321.685811
 20
248.038797
 42
-0.013657
  0
VERTEX
  8
0
 10
322.674369
 20
238.621069
 42
-0.019320
  0
VERTEX
  8
0
 10
323.000000
 20
230.197046
 42
0.000000
  0
VERTEX
  8
0
 10
323.000000
 20
226.000000
 42
0.000000
  0
VERTEX
  8
0
 10
246.498679
 20
226.000000
 42
0.000000
  0
VERTEX
  8
0
 10
169.997358
 20
226.000000
 42
0.000000
  0
VERTEX
  8
0
 10
160.748679
 20
219.109720
 42
-0.003984
  0
VERTEX
  8
0
 10
157.176289
 20
216.492283
 42
-0.006558
  0
VERTEX
  8
0
 10
154.109409
 20
214.343099
 42
-0.001749
  0
VERTEX
  8
0
 10
151.435755
 20
212.534956
 42
-0.347871
  0
VERTEX
  8
0
 10
151.134417
 20
212.558637
 42
-0.225180
  0
VERTEX
  8
0
 10
151.001033
 20
212.892733
 42
-0.000380
  0
VERTEX
  8
0
 10
151.407044
 20
219.239669
 42
-0.002725
  0
VERTEX
  8
0
 10
151.909379
 20
226.394507
 42
-0.001669
  0
VERTEX
  8
0
 10
152.575883
 20
234.826256
 42
-0.002931
  0
VERTEX
  8
0
 10
153.563166
 20
246.005907
 42
-0.012606
  0
VERTEX
  8
0
 10
154.357194
 20
252.638244
 42
-0.017880
  0
VERTEX
  8
0
 10
155.131390
 20
256.889909
 42
-0.116722
  0
VERTEX
  8
0
 10
156.065864
 20
258.833012
 42
-0.136486
  0
VERTEX
  8
0
 10
157.937826
 20
260.166153
 42
-0.012316
  0
VERTEX
  8
0
 10
163.443162
 20
262.008402
 42
-0.010196
  0
VERTEX
  8
0
 10
172.019912
 20
264.455151
 42
-0.002331
  0
VERTEX
  8
0
 10
186.624398
 20
268.228529
 42
0.000000
  0
VERTEX
  8
0
 10
215.500000
 20
275.545714
 42
0.000000
  0
VERTEX
  8
0
 10
218.500000
 20
273.118236
 42
0.021910
  0
VERTEX
  8
0
 10
219.935905
 20
272.056957
 42
0.011733
  0
VERTEX
  8
0
 10
221.793750
 20
270.868200
 42
0.011661
  0
VERTEX
  8
0
 10
223.749869
 20
269.741886
 42
0.017851
  0
SEQEND
  0
ENDSEC
  0
EOF
