  0
SECTION
  2
HEADER
  9
$ACADVER
  1
AC1015
  9
$ACADMAINTVER
 70
     6
  9
$DWGCODEPAGE
  3
ANSI_1252
  9
$INSBASE
 10
0.0
 20
0.0
 30
0.0
  9
$EXTMIN
 10
0.0
 20
-250.0
 30
0.0
  9
$EXTMAX
 10
360.0
 20
0.0
 30
0.0
  9
$LIMMIN
 10
0.0
 20
0.0
  9
$LIMMAX
 10
420.0
 20
297.0
  9
$ORTHOMODE
 70
     0
  9
$REGENMODE
 70
     1
  9
$FILLMODE
 70
     1
  9
$QTEXTMODE
 70
     0
  9
$MIRRTEXT
 70
     1
  9
$LTSCALE
 40
1.0
  9
$ATTMODE
 70
     1
  9
$TEXTSIZE
 40
3.5
  9
$TRACEWID
 40
1.0
  9
$TEXTSTYLE
  7
Standard
  9
$CLAYER
  8
0
  9
$CELTYPE
  6
ByLayer
  9
$CECOLOR
 62
   256
  9
$CELTSCALE
 40
1.0
  9
$DISPSILH
 70
     0
  9
$DIMSCALE
 40
1.0
  9
$DIMASZ
 40
3.302
  9
$DIMEXO
 40
0.0
  9
$DIMDLI
 40
3.75
  9
$DIMRND
 40
0.0
  9
$DIMDLE
 40
0.0
  9
$DIMEXE
 40
1.0
  9
$DIMTP
 40
0.0
  9
$DIMTM
 40
0.0
  9
$DIMTXT
 40
3.5
  9
$DIMCEN
 40
2.5
  9
$DIMTSZ
 40
0.0
  9
$DIMTOL
 70
     0
  9
$DIMLIM
 70
     0
  9
$DIMTIH
 70
     1
  9
$DIMTOH
 70
     1
  9
$DIMSE1
 70
     0
  9
$DIMSE2
 70
     0
  9
$DIMTAD
 70
     1
  9
$DIMZIN
 70
     1
  9
$DIMBLK
  1

  9
$DIMASO
 70
     1
  9
$DIMSHO
 70
     1
  9
$DIMPOST
  1

  9
$DIMAPOST
  1

  9
$DIMALT
 70
     0
  9
$DIMALTD
 70
     3
  9
$DIMALTF
 40
0.0393700787
  9
$DIMLFAC
 40
1.0
  9
$DIMTOFL
 70
     1
  9
$DIMTVP
 40
0.0
  9
$DIMTIX
 70
     0
  9
$DIMSOXD
 70
     0
  9
$DIMSAH
 70
     0
  9
$DIMBLK1
  1

  9
$DIMBLK2
  1

  9
$DIMSTYLE
  2
ISO-25
  9
$DIMCLRD
 70
     0
  9
$DIMCLRE
 70
     0
  9
$DIMCLRT
 70
     0
  9
$DIMTFAC
 40
1.0
  9
$DIMGAP
 40
1.524
  9
$DIMJUST
 70
     0
  9
$DIMSD1
 70
     0
  9
$DIMSD2
 70
     0
  9
$DIMTOLJ
 70
     0
  9
$DIMTZIN
 70
     1
  9
$DIMALTZ
 70
     0
  9
$DIMALTTZ
 70
     0
  9
$DIMUPT
 70
     0
  9
$DIMDEC
 70
     2
  9
$DIMTDEC
 70
     2
  9
$DIMALTU
 70
     2
  9
$DIMALTTD
 70
     3
  9
$DIMTXSTY
  7
Standard
  9
$DIMAUNIT
 70
     0
  9
$DIMADEC
 70
     2
  9
$DIMALTRND
 40
0.0
  9
$DIMAZIN
 70
     0
  9
$DIMDSEP
 70
    44
  9
$DIMATFIT
 70
     3
  9
$DIMFRAC
 70
     0
  9
$DIMLDRBLK
  1

  9
$DIMLUNIT
 70
     2
  9
$DIMLWD
 70
    -2
  9
$DIMLWE
 70
    -2
  9
$DIMTMOVE
 70
     0
  9
$LUNITS
 70
     2
  9
$LUPREC
 70
     2
  9
$SKETCHINC
 40
1.0
  9
$FILLETRAD
 40
0.0
  9
$AUNITS
 70
     0
  9
$AUPREC
 70
     2
  9
$MENU
  1
.
  9
$ELEVATION
 40
0.0
  9
$PELEVATION
 40
0.0
  9
$THICKNESS
 40
0.0
  9
$LIMCHECK
 70
     0
  9
$CHAMFERA
 40
0.0
  9
$CHAMFERB
 40
0.0
  9
$CHAMFERC
 40
0.0
  9
$CHAMFERD
 40
0.0
  9
$SKPOLY
 70
     0
  9
$TDCREATE
 40
2460812.798968415
  9
$TDUCREATE
 40
2460812.715635081
  9
$TDUPDATE
 40
2460812.799024433
  9
$TDUUPDATE
 40
2460812.7156911
  9
$TDINDWG
 40
0.0000000116
  9
$TDUSRTIMER
 40
0.0000000116
  9
$USRTIMER
 70
     1
  9
$ANGBASE
 50
0.0
  9
$ANGDIR
 70
     0
  9
$PDMODE
 70
     0
  9
$PDSIZE
 40
-1.0
  9
$PLINEWID
 40
0.0
  9
$SPLFRAME
 70
     0
  9
$SPLINETYPE
 70
     6
  9
$SPLINESEGS
 70
     8
  9
$HANDSEED
  5
1C1
  9
$SURFTAB1
 70
     6
  9
$SURFTAB2
 70
     6
  9
$SURFTYPE
 70
     6
  9
$SURFU
 70
     6
  9
$SURFV
 70
     6
  9
$UCSBASE
  2

  9
$UCSNAME
  2

  9
$UCSORG
 10
0.0
 20
0.0
 30
0.0
  9
$UCSXDIR
 10
1.0
 20
0.0
 30
0.0
  9
$UCSYDIR
 10
0.0
 20
1.0
 30
0.0
  9
$UCSORTHOREF
  2

  9
$UCSORTHOVIEW
 70
     0
  9
$UCSORGTOP
 10
0.0
 20
0.0
 30
0.0
  9
$UCSORGBOTTOM
 10
0.0
 20
0.0
 30
0.0
  9
$UCSORGLEFT
 10
0.0
 20
0.0
 30
0.0
  9
$UCSORGRIGHT
 10
0.0
 20
0.0
 30
0.0
  9
$UCSORGFRONT
 10
0.0
 20
0.0
 30
0.0
  9
$UCSORGBACK
 10
0.0
 20
0.0
 30
0.0
  9
$PUCSBASE
  2

  9
$PUCSNAME
  2

  9
$PUCSORG
 10
0.0
 20
0.0
 30
0.0
  9
$PUCSXDIR
 10
1.0
 20
0.0
 30
0.0
  9
$PUCSYDIR
 10
0.0
 20
1.0
 30
0.0
  9
$PUCSORTHOREF
  2

  9
$PUCSORTHOVIEW
 70
     0
  9
$PUCSORGTOP
 10
0.0
 20
0.0
 30
0.0
  9
$PUCSORGBOTTOM
 10
0.0
 20
0.0
 30
0.0
  9
$PUCSORGLEFT
 10
0.0
 20
0.0
 30
0.0
  9
$PUCSORGRIGHT
 10
0.0
 20
0.0
 30
0.0
  9
$PUCSORGFRONT
 10
0.0
 20
0.0
 30
0.0
  9
$PUCSORGBACK
 10
0.0
 20
0.0
 30
0.0
  9
$USERI1
 70
     0
  9
$USERI2
 70
     0
  9
$USERI3
 70
     0
  9
$USERI4
 70
     0
  9
$USERI5
 70
     0
  9
$USERR1
 40
0.0
  9
$USERR2
 40
0.0
  9
$USERR3
 40
0.0
  9
$USERR4
 40
0.0
  9
$USERR5
 40
0.0
  9
$WORLDVIEW
 70
     1
  9
$SHADEDGE
 70
     3
  9
$SHADEDIF
 70
    70
  9
$TILEMODE
 70
     1
  9
$MAXACTVP
 70
    64
  9
$PINSBASE
 10
0.0
 20
0.0
 30
0.0
  9
$PLIMCHECK
 70
     0
  9
$PEXTMIN
 10
1.0000000000E+20
 20
1.0000000000E+20
 30
1.0000000000E+20
  9
$PEXTMAX
 10
-1.0000000000E+20
 20
-1.0000000000E+20
 30
-1.0000000000E+20
  9
$PLIMMIN
 10
0.0
 20
0.0
  9
$PLIMMAX
 10
420.0
 20
297.0
  9
$UNITMODE
 70
     0
  9
$VISRETAIN
 70
     1
  9
$PLINEGEN
 70
     0
  9
$PSLTSCALE
 70
     1
  9
$TREEDEPTH
 70
  3020
  9
$CMLSTYLE
  2
Standard
  9
$CMLJUST
 70
     0
  9
$CMLSCALE
 40
20.0
  9
$PROXYGRAPHICS
 70
     1
  9
$MEASUREMENT
 70
     1
  9
$CELWEIGHT
370
    -1
  9
$ENDCAPS
280
     0
  9
$JOINSTYLE
280
     0
  9
$LWDISPLAY
290
     1
  9
$INSUNITS
 70
     4
  9
$HYPERLINKBASE
  1

  9
$STYLESHEET
  1

  9
$XEDIT
290
     1
  9
$CEPSNTYPE
380
     0
  9
$PSTYLEMODE
290
     1
  9
$FINGERPRINTGUID
  2
{f9cc20d2-7f4e-4fb9-9dd2-f16f99d54198}
  9
$VERSIONGUID
  2
{FAEB1C32-E019-11D5-929B-00C0DF256EC4}
  9
$EXTNAMES
290
     1
  9
$PSVPSCALE
 40
0.0
  9
$OLESTARTUP
290
     0
  0
ENDSEC
  0
SECTION
  2
CLASSES
  0
CLASS
  1
ACDBDICTIONARYWDFLT
  2
AcDbDictionaryWithDefault
  3
ObjectDBX Classes
 90
        0
280
     0
281
     0
  0
CLASS
  1
VISUALSTYLE
  2
AcDbVisualStyle
  3
ObjectDBX Classes
 90
     4095
280
     0
281
     0
  0
CLASS
  1
MATERIAL
  2
AcDbMaterial
  3
ObjectDBX Classes
 90
     1153
280
     0
281
     0
  0
CLASS
  1
SCALE
  2
AcDbScale
  3
ObjectDBX Classes
 90
     1153
280
     0
281
     0
  0
CLASS
  1
TABLESTYLE
  2
AcDbTableStyle
  3
ObjectDBX Classes
 90
     4095
280
     0
281
     0
  0
CLASS
  1
MLEADERSTYLE
  2
AcDbMLeaderStyle
  3
ACDB_MLEADERSTYLE_CLASS
 90
     4095
280
     0
281
     0
  0
CLASS
  1
SUN
  2
AcDbSun
  3
SCENEOE
 90
     1153
280
     0
281
     0
  0
CLASS
  1
ACDBPLACEHOLDER
  2
AcDbPlaceHolder
  3
ObjectDBX Classes
 90
        0
280
     0
281
     0
  0
CLASS
  1
LAYOUT
  2
AcDbLayout
  3
ObjectDBX Classes
 90
        0
280
     0
281
     0
  0
ENDSEC
  0
SECTION
  2
TABLES
  0
TABLE
  2
VPORT
  5
8
330
0
100
AcDbSymbolTable
 70
     1
  0
VPORT
  5
29
330
8
100
AcDbSymbolTableRecord
100
AcDbViewportTableRecord
  2
*Active
 70
     0
 10
0.0
 20
0.0
 11
1.0
 21
1.0
 12
180.0
 22
-125.0
 13
0.0
 23
0.0
 14
10.0
 24
10.0
 15
10.0
 25
10.0
 16
0.0
 26
0.0
 36
1.0
 17
0.0
 27
0.0
 37
0.0
 40
255.0
 41
1.44
 42
50.0
 43
0.0
 44
0.0
 50
0.0
 51
0.0
 71
     0
 72
   100
 73
     1
 74
     3
 75
     0
 76
     0
 77
     0
 78
     0
281
     0
 65
     1
110
0.0
120
0.0
130
0.0
111
1.0
121
0.0
131
0.0
112
0.0
122
1.0
132
0.0
 79
     0
146
0.0
  0
ENDTAB
  0
TABLE
  2
LTYPE
  5
5
330
0
100
AcDbSymbolTable
 70
     6
  0
LTYPE
  5
14
330
5
100
AcDbSymbolTableRecord
100
AcDbLinetypeTableRecord
  2
ByBlock
 70
     0
  3

 72
    65
 73
     0
 40
0.0
  0
LTYPE
  5
15
330
5
100
AcDbSymbolTableRecord
100
AcDbLinetypeTableRecord
  2
ByLayer
 70
     0
  3

 72
    65
 73
     0
 40
0.0
  0
LTYPE
  5
16
330
5
100
AcDbSymbolTableRecord
100
AcDbLinetypeTableRecord
  2
Continuous
 70
     0
  3
Solid line
 72
    65
 73
     0
 40
0.0
  0
LTYPE
  5
5E
330
5
100
AcDbSymbolTableRecord
100
AcDbLinetypeTableRecord
  2
HIDDEN
 70
     0
  3
Hidden __ __ __ __ __ __ __ __ __ __ __ __ __ __
 72
    65
 73
     2
 40
1.905
 49
1.27
 74
     0
 49
-0.635
 74
     0
  0
LTYPE
  5
5F
330
5
100
AcDbSymbolTableRecord
100
AcDbLinetypeTableRecord
  2
PHANTOM
 70
     0
  3
Phantom ______  __  __  ______  __  __  ______
 72
    65
 73
     6
 40
12.7
 49
6.35
 74
     0
 49
-1.27
 74
     0
 49
1.27
 74
     0
 49
-1.27
 74
     0
 49
1.27
 74
     0
 49
-1.27
 74
     0
  0
LTYPE
  5
60
330
5
100
AcDbSymbolTableRecord
100
AcDbLinetypeTableRecord
  2
CENTER
 70
     0
  3
Center ____ _ ____ _ ____ _ ____ _ ____ _ ____
 72
    65
 73
     4
 40
10.16
 49
6.35
 74
     0
 49
-1.27
 74
     0
 49
1.27
 74
     0
 49
-1.27
 74
     0
  0
LTYPE
  5
61
330
5
100
AcDbSymbolTableRecord
100
AcDbLinetypeTableRecord
  2
CENTERX2
 70
     0
  3
Center (2x) ________  __  ________  __  _____
 72
    65
 73
     4
 40
20.32
 49
12.7
 74
     0
 49
-2.54
 74
     0
 49
2.54
 74
     0
 49
-2.54
 74
     0
  0
LTYPE
  5
62
330
5
100
AcDbSymbolTableRecord
100
AcDbLinetypeTableRecord
  2
DOT2
 70
     0
  3
Dot (.5x) ........................................
 72
    65
 73
     2
 40
0.635
 49
0.0
 74
     0
 49
-0.635
 74
     0
  0
ENDTAB
  0
TABLE
  2
LAYER
  5
2
330
0
100
AcDbSymbolTable
 70
     1
  0
LAYER
  5
10
330
2
100
AcDbSymbolTableRecord
100
AcDbLayerTableRecord
  2
0
 70
     0
 62
     7
  6
Continuous
370
    -3
390
F
  0
ENDTAB
  0
TABLE
  2
STYLE
  5
3
330
0
100
AcDbSymbolTable
 70
     2
  0
STYLE
  5
11
330
3
100
AcDbSymbolTableRecord
100
AcDbTextStyleTableRecord
  2
Standard
 70
     0
 40
0.0
 41
1.0
 50
0.0
 71
     0
 42
3.5
  3
txt
  4

  0
STYLE
  5
1BD
330
3
100
AcDbSymbolTableRecord
100
AcDbTextStyleTableRecord
  2
SLDTEXTSTYLE0
 70
     0
 40
0.0
 41
0.7
 50
0.0
 71
     0
 42
3.5
  3
TXT
  4

  0
ENDTAB
  0
TABLE
  2
VIEW
  5
6
330
0
100
AcDbSymbolTable
 70
     0
  0
ENDTAB
  0
TABLE
  2
UCS
  5
7
330
0
100
AcDbSymbolTable
 70
     0
  0
ENDTAB
  0
TABLE
  2
APPID
  5
9
330
0
100
AcDbSymbolTable
 70
     1
  0
APPID
  5
12
330
9
100
AcDbSymbolTableRecord
100
AcDbRegAppTableRecord
  2
ACAD
 70
     0
  0
ENDTAB
  0
TABLE
  2
DIMSTYLE
  5
A
330
0
100
AcDbSymbolTable
 70
     1
100
AcDbDimStyleTable
  0
DIMSTYLE
105
27
330
A
100
AcDbSymbolTableRecord
100
AcDbDimStyleTableRecord
  2
ISO-25
 70
     0
 41
2.5
 42
0.625
 43
3.75
 44
1.25
 73
     0
 74
     0
 77
     1
 78
     8
140
2.5
141
2.5
143
0.0393700787
147
0.625
171
     3
172
     1
178
     0
271
     2
272
     2
274
     3
278
    44
283
     0
284
     8
340
11
  0
ENDTAB
  0
TABLE
  2
BLOCK_RECORD
  5
1
330
0
100
AcDbSymbolTable
 70
     1
  0
BLOCK_RECORD
  5
1F
330
1
100
AcDbSymbolTableRecord
100
AcDbBlockTableRecord
  2
*Model_Space
340
22
  0
BLOCK_RECORD
  5
1B
330
1
100
AcDbSymbolTableRecord
100
AcDbBlockTableRecord
  2
*Paper_Space
340
1E
  0
BLOCK_RECORD
  5
23
330
1
100
AcDbSymbolTableRecord
100
AcDbBlockTableRecord
  2
*Paper_Space0
340
26
  0
ENDTAB
  0
ENDSEC
  0
SECTION
  2
BLOCKS
  0
BLOCK
  5
20
330
1F
100
AcDbEntity
  8
0
100
AcDbBlockBegin
  2
*Model_Space
 70
     0
 10
0.0
 20
0.0
 30
0.0
  3
*Model_Space
  1

  0
ENDBLK
  5
21
330
1F
100
AcDbEntity
  8
0
100
AcDbBlockEnd
  0
BLOCK
  5
1C
330
1B
100
AcDbEntity
 67
     1
  8
0
100
AcDbBlockBegin
  2
*Paper_Space
 70
     0
 10
0.0
 20
0.0
 30
0.0
  3
*Paper_Space
  1

  0
ENDBLK
  5
1D
330
1B
100
AcDbEntity
 67
     1
  8
0
100
AcDbBlockEnd
  0
BLOCK
  5
24
330
23
100
AcDbEntity
  8
0
100
AcDbBlockBegin
  2
*Paper_Space0
 70
     0
 10
0.0
 20
0.0
 30
0.0
  3
*Paper_Space0
  1

  0
ENDBLK
  5
25
330
23
100
AcDbEntity
  8
0
100
AcDbBlockEnd
  0
ENDSEC
  0
SECTION
  2
ENTITIES
  0
SPLINE
  5
65
330
1F
100
AcDbEntity
  8
0
  6
Continuous
 62
     7
370
    25
100
AcDbSpline
210
0.0
220
0.0
230
1.0
 70
     8
 71
     3
 72
    13
 73
     9
 74
     0
 42
0.00000001
 43
0.00000001
 40
0.0
 40
0.0
 40
0.0
 40
0.0
 40
0.2620026798763709
 40
0.3865990120013588
 40
0.5078842295733399
 40
0.6287697964347251
 40
0.7494522178424403
 40
1.0
 40
1.0
 40
1.0
 40
1.0
 10
332.2200210164282
 20
-234.9705569617078
 30
0.0
 10
332.2875623457355
 20
-235.05069623783
 30
0.0
 10
332.3965949534283
 20
-235.1618816043279
 30
0.0
 10
332.5616580124195
 20
-235.2813817110487
 30
0.0
 10
332.6897903439323
 20
-235.3536837011609
 30
0.0
 10
332.8239918651659
 20
-235.4103016698351
 30
0.0
 10
333.01431624461
 20
-235.4628669826223
 30
0.0
 10
333.1628200390788
 20
-235.4800301758694
 30
0.0
 10
333.2632902471973
 20
-235.4788702629899
 30
0.0
  0
SPLINE
  5
66
330
1F
100
AcDbEntity
  8
0
  6
Continuous
 62
     7
370
    25
100
AcDbSpline
210
0.0
220
0.0
230
1.0
 70
     8
 71
     3
 72
    21
 73
    17
 74
     0
 42
0.00000001
 43
0.00000001
 40
0.0
 40
0.0
 40
0.0
 40
0.0
 40
0.1277002390699239
 40
0.1892398000966921
 40
0.2501349882873197
 40
0.3108427100868695
 40
0.3724720907317245
 40
0.4350506334534594
 40
0.499654438625884
 40
0.5642374836643588
 40
0.6267499200713622
 40
0.6882667786363722
 40
0.7494201652676089
 40
0.8104262745821115
 40
0.8719658356088827
 40
1.0
 40
1.0
 40
1.0
 40
1.0
 10
333.2632902471974
 20
-235.4788702629899
 30
0.0
 10
333.3525378580738
 20
-235.478547546182
 30
0.0
 10
333.4850666647114
 20
-235.4672433539115
 30
0.0
 10
333.6553537915797
 20
-235.4262925689389
 30
0.0
 10
333.7766283793365
 20
-235.3844421871576
 30
0.0
 10
333.8923008259721
 20
-235.3288480658218
 30
0.0
 10
334.0033596794273
 20
-235.262309730959
 30
0.0
 10
334.1092371732099
 20
-235.1830708249515
 30
0.0
 10
334.2082901680873
 20
-235.0924717435377
 30
0.0
 10
334.299591057162
 20
-234.9941187842717
 30
0.0
 10
334.3794783877489
 20
-234.8889250853275
 30
0.0
 10
334.4471798020209
 20
-234.778318728633
 30
0.0
 10
334.5028329195868
 20
-234.6623349174125
 30
0.0
 10
334.5458477236046
 20
-234.5410582542627
 30
0.0
 10
334.5865020925377
 20
-234.3703375508475
 30
0.0
 10
334.5980229053081
 20
-234.2376503465468
 30
0.0
 10
334.5982261446333
 20
-234.1481410963232
 30
0.0
  0
SPLINE
  5
67
330
1F
100
AcDbEntity
  8
0
  6
Continuous
 62
     7
370
    25
100
AcDbSpline
210
0.0
220
0.0
230
1.0
 70
     8
 71
     3
 72
    21
 73
    17
 74
     0
 42
0.00000001
 43
0.00000001
 40
0.0
 40
0.0
 40
0.0
 40
0.0
 40
0.1260146004816695
 40
0.1868089060952259
 40
0.2474478502843969
 40
0.3078464959917216
 40
0.3691210183050212
 40
0.4319903131536349
 40
0.4967149000659561
 40
0.5615019172671406
 40
0.6247727207665976
 40
0.6865537243536242
 40
0.7478749627318731
 40
0.8093470980883618
 40
0.8713639494369065
 40
1.0
 40
1.0
 40
1.0
 40
1.0
 10
334.5982261446333
 20
-234.1481410963232
 30
0.0
 10
334.5977130699199
 20
-234.0603204782668
 30
0.0
 10
334.5869681758802
 20
-233.9297142924402
 30
0.0
 10
334.5449939418188
 20
-233.7619688135727
 30
0.0
 10
334.5014245528253
 20
-233.642651212628
 30
0.0
 10
334.4457438375629
 20
-233.5280586855851
 30
0.0
 10
334.3768747749256
 20
-233.419096214716
 30
0.0
 10
334.2970278052695
 20
-233.3140738903998
 30
0.0
 10
334.2047066546376
 20
-233.2164455836782
 30
0.0
 10
334.1047904157616
 20
-233.1262136148292
 30
0.0
 10
333.9978768416677
 20
-233.0478067571589
 30
0.0
 10
333.8866548604795
 20
-232.9800921377248
 30
0.0
 10
333.7693913437489
 20
-232.9264277508827
 30
0.0
 10
333.6478249853729
 20
-232.8830602471639
 30
0.0
 10
333.4763908913652
 20
-232.8422922265671
 30
0.0
 10
333.3431072727461
 20
-232.8323324877874
 30
0.0
 10
333.2534745420692
 20
-232.831434365554
 30
0.0
  0
SPLINE
  5
68
330
1F
100
AcDbEntity
  8
0
  6
Continuous
 62
     7
370
    25
100
AcDbSpline
210
0.0
220
0.0
230
1.0
 70
     8
 71
     3
 72
    13
 73
     9
 74
     0
 42
0.00000001
 43
0.00000001
 40
0.0
 40
0.0
 40
0.0
 40
0.0
 40
0.2538522779533845
 40
0.3748219688613174
 40
0.4942293474545253
 40
0.613938917735668
 40
0.7369553172388357
 40
1.0
 40
1.0
 40
1.0
 40
1.0
 10
333.2534745420692
 20
-232.831434365554
 30
0.0
 10
333.1517538785233
 20
-232.831755812532
 30
0.0
 10
333.0006761598823
 20
-232.8448065814486
 30
0.0
 10
332.8094409998128
 20
-232.8989557829508
 30
0.0
 10
332.6750077928525
 20
-232.9527195400745
 30
0.0
 10
332.5478920225073
 20
-233.0241491045743
 30
0.0
 10
332.3866139438846
 20
-233.1483203453547
 30
0.0
 10
332.2821862517711
 20
-233.2642539242074
 30
0.0
 10
332.2200210164282
 20
-233.3495633719642
 30
0.0
  0
SPLINE
  5
6C
330
1F
100
AcDbEntity
  8
0
  6
Continuous
 62
     7
370
    25
100
AcDbSpline
210
0.0
220
0.0
230
1.0
 70
     8
 71
     3
 72
    13
 73
     9
 74
     0
 42
0.00000001
 43
0.00000001
 40
0.0
 40
0.0
 40
0.0
 40
0.0
 40
0.2537592050616272
 40
0.3772863205702205
 40
0.4989121128148777
 40
0.621321404021441
 40
0.7447622750750819
 40
1.0
 40
1.0
 40
1.0
 40
1.0
 10
328.9808383241203
 20
-233.2549119296565
 30
0.0
 10
328.9244250242352
 20
-233.3174228278513
 30
0.0
 10
328.8467265362934
 20
-233.4165381640986
 30
0.0
 10
328.7655712617644
 20
-233.5612911110475
 30
0.0
 10
328.7160229105291
 20
-233.673022836203
 30
0.0
 10
328.6773321947016
 20
-233.7889535324636
 30
0.0
 10
328.640319309077
 20
-233.9514644210259
 30
0.0
 10
328.6307716934338
 20
-234.0774567348873
 30
0.0
 10
328.6302774266844
 20
-234.1621635322206
 30
0.0
  0
SPLINE
  5
6D
330
1F
100
AcDbEntity
  8
0
  6
Continuous
 62
     7
370
    25
100
AcDbSpline
210
0.0
220
0.0
230
1.0
 70
     8
 71
     3
 72
    21
 73
    17
 74
     0
 42
0.00000001
 43
0.00000001
 40
0.0
 40
0.0
 40
0.0
 40
0.0
 40
0.1231816483428065
 40
0.1830343363247356
 40
0.2428661924761517
 40
0.3025168847059374
 40
0.3633154622039051
 40
0.4250692989986619
 40
0.4890423674851584
 40
0.5530871422752301
 40
0.6154454653923769
 40
0.6772864118409814
 40
0.7391749874395654
 40
0.8016758129328364
 40
0.8653648077757128
 40
1.0
 40
1.0
 40
1.0
 40
1.0
 10
328.6302774266845
 20
-234.1621635322207
 30
0.0
 10
328.6297705192988
 20
-234.2477309493477
 30
0.0
 10
328.6414798663208
 20
-234.3748518422805
 30
0.0
 10
328.6801114640201
 20
-234.539240632427
 30
0.0
 10
328.7208940935914
 20
-234.657099454625
 30
0.0
 10
328.7732654866522
 20
-234.7709821144674
 30
0.0
 10
328.8371522061354
 20
-234.8803922180294
 30
0.0
 10
328.9130262086816
 20
-234.9855422411763
 30
0.0
 10
328.9990245389589
 20
-235.0855522504194
 30
0.0
 10
329.0940965897651
 20
-235.1776879918711
 30
0.0
 10
329.197296516445
 20
-235.2582488560732
 30
0.0
 10
329.3070829055687
 20
-235.3268579353636
 30
0.0
 10
329.4242281738113
 20
-235.3821622454488
 30
0.0
 10
329.5474551696605
 20
-235.4259926973304
 30
0.0
 10
329.7239736476659
 20
-235.4679520777179
 30
0.0
 10
329.8619920026573
 20
-235.4784481703907
 30
0.0
 10
329.9553976189922
 20
-235.4788702629899
 30
0.0
  0
SPLINE
  5
6E
330
1F
100
AcDbEntity
  8
0
  6
Continuous
 62
     7
370
    25
100
AcDbSpline
210
0.0
220
0.0
230
1.0
 70
     8
 71
     3
 72
    21
 73
    17
 74
     0
 42
0.00000001
 43
0.00000001
 40
0.0
 40
0.0
 40
0.0
 40
0.0
 40
0.1341341587220161
 40
0.1979034644236232
 40
0.2604831025120551
 40
0.322145528691645
 40
0.3837784671889146
 40
0.4462154232078822
 40
0.5103409574898143
 40
0.5743946950476078
 40
0.6362264024960803
 40
0.6971016460802459
 40
0.7568275569302765
 40
0.8167348601469098
 40
0.8766630214626645
 40
1.0
 40
1.0
 40
1.0
 40
1.0
 10
329.9553976189922
 20
-235.4788702629899
 30
0.0
 10
330.0483476683789
 20
-235.4785062974358
 30
0.0
 10
330.1858749651963
 20
-235.4678294132278
 30
0.0
 10
330.3619301268968
 20
-235.4259775741581
 30
0.0
 10
330.4849961533641
 20
-235.3823061016788
 30
0.0
 10
330.6016398885831
 20
-235.3268596546746
 30
0.0
 10
330.7107938250382
 20
-235.2580408103788
 30
0.0
 10
330.8139099817989
 20
-235.1777118095708
 30
0.0
 10
330.9089619250879
 20
-235.0855457968279
 30
0.0
 10
330.994965646597
 20
-234.9855439039298
 30
0.0
 10
331.0708382579959
 20
-234.8803917864508
 30
0.0
 10
331.1347253388469
 20
-234.7709822269175
 30
0.0
 10
331.1870966373014
 20
-234.6570994246481
 30
0.0
 10
331.2278792921
 20
-234.5392406404287
 30
0.0
 10
331.2665108808296
 20
-234.3748518367793
 30
0.0
 10
331.2782202333934
 20
-234.2477309521889
 30
0.0
 10
331.2777133241204
 20
-234.1621635322206
 30
0.0
  0
SPLINE
  5
6F
330
1F
100
AcDbEntity
  8
0
  6
Continuous
 62
     7
370
    25
100
AcDbSpline
210
0.0
220
0.0
230
1.0
 70
     8
 71
     3
 72
    13
 73
     9
 74
     0
 42
0.00000001
 43
0.00000001
 40
0.0
 40
0.0
 40
0.0
 40
0.0
 40
0.2554352550956507
 40
0.3786322712675285
 40
0.5014663143320801
 40
0.6234943774777691
 40
0.7461656372032575
 40
1.0
 40
1.0
 40
1.0
 40
1.0
 10
331.2777133241204
 20
-234.1621635322206
 30
0.0
 10
331.2772389353262
 20
-234.0772266856358
 30
0.0
 10
331.2677551266013
 20
-233.9509847227069
 30
0.0
 10
331.2305631440204
 20
-233.7880454229876
 30
0.0
 10
331.1919209745709
 20
-233.6716642215644
 30
0.0
 10
331.1428168997278
 20
-233.5594457155864
 30
0.0
 10
331.0605774997395
 20
-233.4150849248406
 30
0.0
 10
330.9841834364206
 20
-233.315146484649
 30
0.0
 10
330.9271524266845
 20
-233.2528085642719
 30
0.0
  0
SPLINE
  5
70
330
1F
100
AcDbEntity
  8
0
  6
Continuous
 62
     7
370
    25
100
AcDbSpline
210
0.0
220
0.0
230
1.0
 70
     8
 71
     3
 72
    13
 73
     9
 74
     0
 42
0.00000001
 43
0.00000001
 40
0.0
 40
0.0
 40
0.0
 40
0.0
 40
0.2531294102724422
 40
0.3753070134590528
 40
0.4961956083999233
 40
0.6178660239074865
 40
0.7416676494858627
 40
1.0
 40
1.0
 40
1.0
 40
1.0
 10
330.9271524266845
 20
-233.2528085642719
 30
0.0
 10
330.8649939426937
 20
-233.1848719591205
 30
0.0
 10
330.7633786367536
 20
-233.092149834039
 30
0.0
 10
330.6110146390992
 20
-232.9946035030305
 30
0.0
 10
330.4926349949698
 20
-232.9338752901391
 30
0.0
 10
330.3668390813766
 20
-232.8886693779401
 30
0.0
 10
330.1887139529224
 20
-232.844025406806
 30
0.0
 10
330.0494877803012
 20
-232.8304597249564
 30
0.0
 10
329.9553976189922
 20
-232.831434365554
 30
0.0
  0
SPLINE
  5
71
330
1F
100
AcDbEntity
  8
0
  6
Continuous
 62
     7
370
    25
100
AcDbSpline
210
0.0
220
0.0
230
1.0
 70
     8
 71
     3
 72
    13
 73
     9
 74
     0
 42
0.00000001
 43
0.00000001
 40
0.0
 40
0.0
 40
0.0
 40
0.0
 40
0.2587123826907272
 40
0.3820894432541502
 40
0.5035635736272883
 40
0.6251808674329444
 40
0.7472870144845403
 40
1.0
 40
1.0
 40
1.0
 40
1.0
 10
329.9553976189922
 20
-232.831434365554
 30
0.0
 10
329.8608303117684
 20
-232.8305710098344
 30
0.0
 10
329.7212043480056
 20
-232.8440564312183
 30
0.0
 10
329.5423557270942
 20
-232.8884025601585
 30
0.0
 10
329.4166610460103
 20
-232.9351742105946
 30
0.0
 10
329.2969797078774
 20
-232.9947055851917
 30
0.0
 10
329.1449774812391
 20
-233.0942259975595
 30
0.0
 10
329.0424570130488
 20
-233.1860671119719
 30
0.0
 10
328.9808383241203
 20
-233.2549119296565
 30
0.0
  0
SPLINE
  5
8A
330
1F
100
AcDbEntity
  8
0
  6
Continuous
 62
     7
370
    25
100
AcDbSpline
210
0.0
220
0.0
230
1.0
 70
     8
 71
     3
 72
    21
 73
    17
 74
     0
 42
0.00000001
 43
0.00000001
 40
0.0
 40
0.0
 40
0.0
 40
0.0
 40
0.164610448487998
 40
0.2403548858244819
 40
0.3136978695808487
 40
0.3839383823375649
 40
0.4510833284886678
 40
0.5168266720448553
 40
0.583095186868737
 40
0.6183697864378641
 40
0.6584956457605957
 40
0.7033577203112406
 40
0.7520840367088796
 40
0.8070521683517597
 40
0.8661435665398511
 40
1.0
 40
1.0
 40
1.0
 40
1.0
 10
323.3115674907872
 20
-231.7993830835027
 30
0.0
 10
323.2582563680309
 20
-231.8002929406094
 30
0.0
 10
323.1795466935419
 20
-231.8067605815105
 30
0.0
 10
323.082293515888
 20
-231.8387436357722
 30
0.0
 10
323.0185810774015
 20
-231.8711407733667
 30
0.0
 10
322.9619719742478
 20
-231.9101527460291
 30
0.0
 10
322.9145791612559
 20
-231.9564565305319
 30
0.0
 10
322.8750489201179
 20
-232.008080732746
 30
0.0
 10
322.850626693126
 20
-232.0569306828881
 30
0.0
 10
322.8342781439275
 20
-232.1000333518091
 30
0.0
 10
322.8252666061886
 20
-232.1381151034476
 30
0.0
 10
322.8157311843179
 20
-232.1805080077847
 30
0.0
 10
322.8090662993039
 20
-232.2283540530383
 30
0.0
 10
322.8033125740361
 20
-232.2809431138326
 30
0.0
 10
322.7992011421706
 20
-232.3614125710695
 30
0.0
 10
322.796093618503
 20
-232.4240235755899
 30
0.0
 10
322.7969440933513
 20
-232.4675521540155
 30
0.0
  0
SPLINE
  5
96
330
1F
100
AcDbEntity
  8
0
  6
Continuous
 62
     7
370
    25
100
AcDbSpline
210
0.0
220
0.0
230
1.0
 70
     8
 71
     3
 72
    21
 73
    17
 74
     0
 42
0.00000001
 43
0.00000001
 40
0.0
 40
0.0
 40
0.0
 40
0.0
 40
0.177181814477942
 40
0.2504939574970135
 40
0.3165674539520499
 40
0.3716659606200531
 40
0.4184906873983315
 40
0.4554660201383164
 40
0.4833250523742276
 40
0.5314544263190881
 40
0.5830124561896655
 40
0.639223905517196
 40
0.7022806382731757
 40
0.7705757099080237
 40
0.8412761191750733
 40
1.0
 40
1.0
 40
1.0
 40
1.0
 10
323.1131500228385
 20
-232.5215385322206
 30
0.0
 10
323.1116722609804
 20
-232.4876127913607
 30
0.0
 10
323.1149315053058
 20
-232.4397682924881
 30
0.0
 10
323.1146787449648
 20
-232.379169208866
 30
0.0
 10
323.1174509476486
 20
-232.3420661620128
 30
0.0
 10
323.1186769389761
 20
-232.3099025146773
 30
0.0
 10
323.1230611993826
 20
-232.2836784139654
 30
0.0
 10
323.1248514511935
 20
-232.2623241506672
 30
0.0
 10
323.130801427404
 20
-232.2414731558103
 30
0.0
 10
323.1405563764222
 20
-232.2189527510994
 30
0.0
 10
323.1585229441256
 20
-232.1947675470134
 30
0.0
 10
323.1833089914994
 20
-232.1733123838663
 30
0.0
 10
323.2122602274688
 20
-232.1519577611078
 30
0.0
 10
323.247162611442
 20
-232.1349303142618
 30
0.0
 10
323.3014044724204
 20
-232.1168366886974
 30
0.0
 10
323.3459268556197
 20
-232.1146359938142
 30
0.0
 10
323.3760706959154
 20
-232.1134856476052
 30
0.0
  0
SPLINE
  5
97
330
1F
100
AcDbEntity
  8
0
  6
Continuous
 62
     7
370
    25
100
AcDbSpline
210
0.0
220
0.0
230
1.0
 70
     8
 71
     3
 72
     9
 73
     5
 74
     0
 42
0.00000001
 43
0.00000001
 40
0.0
 40
0.0
 40
0.0
 40
0.0
 40
0.4469718272068293
 40
1.0
 40
1.0
 40
1.0
 40
1.0
 10
323.3760706959154
 20
-232.1134856476052
 30
0.0
 10
323.4253435410074
 20
-232.1136736435398
 30
0.0
 10
323.5345892554568
 20
-232.1308052473861
 30
0.0
 10
323.6383338988294
 20
-232.1686028185313
 30
0.0
 10
323.6943799907872
 20
-232.1920112886309
 30
0.0
  0
SPLINE
  5
99
330
1F
100
AcDbEntity
  8
0
  6
Continuous
 62
     7
370
    25
100
AcDbSpline
210
0.0
220
0.0
230
1.0
 70
     8
 71
     3
 72
     9
 73
     5
 74
     0
 42
0.00000001
 43
0.00000001
 40
0.0
 40
0.0
 40
0.0
 40
0.0
 40
0.5461371453789229
 40
1.0
 40
1.0
 40
1.0
 40
1.0
 10
323.6943799907872
 20
-231.8652885322206
 30
0.0
 10
323.6262201498928
 20
-231.8459843921296
 30
0.0
 10
323.5003384542219
 20
-231.8121365764628
 30
0.0
 10
323.3705215141917
 20
-231.8000666243921
 30
0.0
 10
323.3115674907872
 20
-231.7993830835027
 30
0.0
  0
SPLINE
  5
9A
330
1F
100
AcDbEntity
  8
0
  6
Continuous
 62
     7
370
    25
100
AcDbSpline
210
0.0
220
0.0
230
1.0
 70
     8
 71
     3
 72
    21
 73
    17
 74
     0
 42
0.00000001
 43
0.00000001
 40
0.0
 40
0.0
 40
0.0
 40
0.0
 40
0.1276691474530052
 40
0.1889505232706891
 40
0.2490548673082685
 40
0.3090713134762864
 40
0.3692223593686976
 40
0.4301747620269822
 40
0.4926019887959958
 40
0.555346876893582
 40
0.6169627615204649
 40
0.6781707771923574
 40
0.7392465225515183
 40
0.8016089422160472
 40
0.8655244124565514
 40
1.0
 40
1.0
 40
1.0
 40
1.0
 10
320.6339833561718
 20
-235.1647676988873
 30
0.0
 10
320.5709722017876
 20
-235.1651173831903
 30
0.0
 10
320.477843950895
 20
-235.1563984185289
 30
0.0
 10
320.3578618858226
 20
-235.1293319585482
 30
0.0
 10
320.2730896107628
 20
-235.1002608874711
 30
0.0
 10
320.1921916580894
 20
-235.0630716252797
 30
0.0
 10
320.1152980558668
 20
-235.0172685505401
 30
0.0
 10
320.0430153265529
 20
-234.9626160860244
 30
0.0
 10
319.9743081965802
 20
-234.9015555140533
 30
0.0
 10
319.912582617774
 20
-234.83298832751
 30
0.0
 10
319.8572426246565
 20
-234.759950402264
 30
0.0
 10
319.8108585282192
 20
-234.6817883938857
 30
0.0
 10
319.7729856137112
 20
-234.5988581468459
 30
0.0
 10
319.7417398487598
 20
-234.5117755670982
 30
0.0
 10
319.7114593180868
 20
-234.3865622758499
 30
0.0
 10
319.7025789716671
 20
-234.2887060175885
 30
0.0
 10
319.7007902471974
 20
-234.2224600065796
 30
0.0
  0
SPLINE
  5
9C
330
1F
100
AcDbEntity
  8
0
  6
Continuous
 62
     7
370
    25
100
AcDbSpline
210
0.0
220
0.0
230
1.0
 70
     8
 71
     3
 72
    13
 73
     9
 74
     0
 42
0.00000001
 43
0.00000001
 40
0.0
 40
0.0
 40
0.0
 40
0.0
 40
0.2703816178319662
 40
0.3984601291782963
 40
0.5227503451014313
 40
0.6438255660090861
 40
0.7637452368382611
 40
1.0
 40
1.0
 40
1.0
 40
1.0
 10
321.989251785659
 20
-234.2224600065796
 30
0.0
 10
321.9876623210047
 20
-234.1372003650962
 30
0.0
 10
321.9803012875026
 20
-234.0112180257371
 30
0.0
 10
321.9496998040777
 20
-233.8488619072872
 30
0.0
 10
321.9186896710173
 20
-233.735035556652
 30
0.0
 10
321.8803128933481
 20
-233.6261538228591
 30
0.0
 10
321.816702125354
 20
-233.4893678009684
 30
0.0
 10
321.7567930849678
 20
-233.3937286376213
 30
0.0
 10
321.7109064330949
 20
-233.3348398142719
 30
0.0
  0
SPLINE
  5
9D
330
1F
100
AcDbEntity
  8
0
  6
Continuous
 62
     7
370
    25
100
AcDbSpline
210
0.0
220
0.0
230
1.0
 70
     8
 71
     3
 72
    13
 73
     9
 74
     0
 42
0.00000001
 43
0.00000001
 40
0.0
 40
0.0
 40
0.0
 40
0.0
 40
0.2552573681410134
 40
0.3772478104725095
 40
0.4977415562850152
 40
0.6181201760749655
 40
0.7409671592206004
 40
1.0
 40
1.0
 40
1.0
 40
1.0
 10
321.7109064330949
 20
-233.3348398142719
 30
0.0
 10
321.6495192894017
 20
-233.2541797016727
 30
0.0
 10
321.5460763752634
 20
-233.1445400112508
 30
0.0
 10
321.387801199471
 20
-233.0254692259495
 30
0.0
 10
321.2621316878955
 20
-232.9542574792418
 30
0.0
 10
321.1282873423887
 20
-232.8991718477525
 30
0.0
 10
320.9356942792365
 20
-232.8458825975932
 30
0.0
 10
320.7837860185083
 20
-232.8310023919724
 30
0.0
 10
320.6809585164281
 20
-232.831434365554
 30
0.0
  0
SPLINE
  5
9E
330
1F
100
AcDbEntity
  8
0
  6
Continuous
 62
     7
370
    25
100
AcDbSpline
210
0.0
220
0.0
230
1.0
 70
     8
 71
     3
 72
    13
 73
     9
 74
     0
 42
0.00000001
 43
0.00000001
 40
0.0
 40
0.0
 40
0.0
 40
0.0
 40
0.2602406645594619
 40
0.3836752253641815
 40
0.5046599577621917
 40
0.6253567426858135
 40
0.7464106650135074
 40
1.0
 40
1.0
 40
1.0
 40
1.0
 10
320.6809585164281
 20
-232.831434365554
 30
0.0
 10
320.5815023053114
 20
-232.8326329457404
 30
0.0
 10
320.4336265083358
 20
-232.8436617965997
 30
0.0
 10
320.2470804823649
 20
-232.896156199488
 30
0.0
 10
320.1167390476412
 20
-232.9477887292042
 30
0.0
 10
319.9951620246097
 20
-233.0158282745688
 30
0.0
 10
319.8404998726304
 20
-233.1265908015442
 30
0.0
 10
319.741731897224
 20
-233.232472636914
 30
0.0
 10
319.681158836941
 20
-233.3081971860668
 30
0.0
  0
SPLINE
  5
9F
330
1F
100
AcDbEntity
  8
0
  6
Continuous
 62
     7
370
    25
100
AcDbSpline
210
0.0
220
0.0
230
1.0
 70
     8
 71
     3
 72
    13
 73
     9
 74
     0
 42
0.00000001
 43
0.00000001
 40
0.0
 40
0.0
 40
0.0
 40
0.0
 40
0.2534216680664996
 40
0.3767041167575217
 40
0.4994491585174682
 40
0.6225715734187214
 40
0.7462320999755199
 40
1.0
 40
1.0
 40
1.0
 40
1.0
 10
319.681158836941
 20
-233.3081971860668
 30
0.0
 10
319.6336075744463
 20
-233.3696890098921
 30
0.0
 10
319.5684437417178
 20
-233.4657582811726
 30
0.0
 10
319.5002709653612
 20
-233.6032693174042
 30
0.0
 10
319.4586918636404
 20
-233.7088095671222
 30
0.0
 10
319.4265444309133
 20
-233.8176972589376
 30
0.0
 10
319.3949170513563
 20
-233.9682409698969
 30
0.0
 10
319.3876409712998
 20
-234.0843698300615
 30
0.0
 10
319.3866876830948
 20
-234.1621635322206
 30
0.0
  0
SPLINE
  5
A0
330
1F
100
AcDbEntity
  8
0
  6
Continuous
 62
     7
370
    25
100
AcDbSpline
210
0.0
220
0.0
230
1.0
 70
     8
 71
     3
 72
    21
 73
    17
 74
     0
 42
0.00000001
 43
0.00000001
 40
0.0
 40
0.0
 40
0.0
 40
0.0
 40
0.1210804245006244
 40
0.1800682782218581
 40
0.2391896643238633
 40
0.2987059533012294
 40
0.3588810785072508
 40
0.4203687292950803
 40
0.4834483096802283
 40
0.546566484902941
 40
0.6086986022254455
 40
0.6701862530132751
 40
0.7318650366033289
 40
0.7952033026033429
 40
0.8603707753071409
 40
1.0
 40
1.0
 40
1.0
 40
1.0
 10
319.3866876830949
 20
-234.1621635322207
 30
0.0
 10
319.3876024103322
 20
-234.2451861725708
 30
0.0
 10
319.3963820346315
 20
-234.3690379795585
 30
0.0
 10
319.4324633189044
 20
-234.5294851237881
 30
0.0
 10
319.4708387158181
 20
-234.6453474992721
 30
0.0
 10
319.5183992956651
 20
-234.7586184329838
 30
0.0
 10
319.5768545543644
 20
-234.8685815491843
 30
0.0
 10
319.646780973552
 20
-234.9745374504637
 30
0.0
 10
319.7260246925667
 20
-235.0762194534364
 30
0.0
 10
319.8140489380908
 20
-235.1712356967591
 30
0.0
 10
319.9128684828976
 20
-235.2533686924193
 30
0.0
 10
320.0193692275937
 20
-235.3233254408687
 30
0.0
 10
320.1341119060965
 20
-235.3807630679569
 30
0.0
 10
320.2573219583205
 20
-235.4246887417436
 30
0.0
 10
320.4365538013517
 20
-235.4678350970471
 30
0.0
 10
320.5774754966902
 20
-235.4788313800883
 30
0.0
 10
320.6732461766846
 20
-235.4788702629899
 30
0.0
  0
SPLINE
  5
A1
330
1F
100
AcDbEntity
  8
0
  6
Continuous
 62
     7
370
    25
100
AcDbSpline
210
0.0
220
0.0
230
1.0
 70
     8
 71
     3
 72
    17
 73
    13
 74
     0
 42
0.00000001
 43
0.00000001
 40
0.0
 40
0.0
 40
0.0
 40
0.0
 40
0.1781058515637411
 40
0.2613277635121448
 40
0.3415565694705787
 40
0.4200079090126463
 40
0.4980968161626106
 40
0.5754001382821131
 40
0.6536452159657025
 40
0.734125772957381
 40
0.8183392339290092
 40
1.0
 40
1.0
 40
1.0
 40
1.0
 10
320.6732461766846
 20
-235.4788702629899
 30
0.0
 10
320.7595399684424
 20
-235.4788591028154
 30
0.0
 10
320.8864164502125
 20
-235.4702048817838
 30
0.0
 10
321.0487997227884
 20
-235.4368791836564
 30
0.0
 10
321.1610983723302
 20
-235.4025009488792
 30
0.0
 10
321.2669481887572
 20
-235.3577402571817
 30
0.0
 10
321.3672375042725
 20
-235.304624175156
 30
0.0
 10
321.4619680912839
 20
-235.2422846581808
 30
0.0
 10
321.5516456973125
 20
-235.1710377087056
 30
0.0
 10
321.6367186900543
 20
-235.0892912905239
 30
0.0
 10
321.7436645741623
 20
-234.9595291358032
 30
0.0
 10
321.8131355649223
 20
-234.8505332500799
 30
0.0
 10
321.8546364010435
 20
-234.772840615554
 30
0.0
  0
SPLINE
  5
A3
330
1F
100
AcDbEntity
  8
0
  6
Continuous
 62
     7
370
    25
100
AcDbSpline
210
0.0
220
0.0
230
1.0
 70
     8
 71
     3
 72
    17
 73
    13
 74
     0
 42
0.00000001
 43
0.00000001
 40
0.0
 40
0.0
 40
0.0
 40
0.0
 40
0.207935033903388
 40
0.2946939715679356
 40
0.3697315241424738
 40
0.4408309438027217
 40
0.514250914046082
 40
0.5913900390896938
 40
0.6722743046458908
 40
0.7543412603704936
 40
0.8361211059015248
 40
1.0
 40
1.0
 40
1.0
 40
1.0
 10
321.5755899266845
 20
-234.6263061604258
 30
0.0
 10
321.5330652006818
 20
-234.6928536443288
 30
0.0
 10
321.4659494310117
 20
-234.7824841097802
 30
0.0
 10
321.3724516420108
 20
-234.8873030414094
 30
0.0
 10
321.3063998021773
 20
-234.9463243665426
 30
0.0
 10
321.2382781832891
 20
-234.9945307243113
 30
0.0
 10
321.1653992393038
 20
-235.0366818663741
 30
0.0
 10
321.0861533409728
 20
-235.0747823788594
 30
0.0
 10
321.0005825292217
 20
-235.1063676095458
 30
0.0
 10
320.911321785958
 20
-235.1322258863365
 30
0.0
 10
320.7894734924857
 20
-235.1577454683626
 30
0.0
 10
320.6961772601117
 20
-235.1650685296365
 30
0.0
 10
320.6339833561718
 20
-235.1647676988873
 30
0.0
  0
SPLINE
  5
A8
330
1F
100
AcDbEntity
  8
0
  6
Continuous
 62
     7
370
    25
100
AcDbSpline
210
0.0
220
0.0
230
1.0
 70
     8
 71
     3
 72
    21
 73
    17
 74
     0
 42
0.00000001
 43
0.00000001
 40
0.0
 40
0.0
 40
0.0
 40
0.0
 40
0.1276691474530052
 40
0.1889505232706891
 40
0.2490548673082685
 40
0.3090713134762864
 40
0.3692223593686976
 40
0.4301747620269822
 40
0.4926019887959958
 40
0.555346876893582
 40
0.6169627615204649
 40
0.6781707771923574
 40
0.7392465225515183
 40
0.8016089422160472
 40
0.8655244124565514
 40
1.0
 40
1.0
 40
1.0
 40
1.0
 10
315.1596243818128
 20
-235.1647676988873
 30
0.0
 10
315.0966132274287
 20
-235.1651173831903
 30
0.0
 10
315.0034849765359
 20
-235.1563984185289
 30
0.0
 10
314.8835029114636
 20
-235.1293319585481
 30
0.0
 10
314.7987306364038
 20
-235.1002608874711
 30
0.0
 10
314.7178326837304
 20
-235.0630716252798
 30
0.0
 10
314.6409390815078
 20
-235.0172685505401
 30
0.0
 10
314.5686563521939
 20
-234.9626160860244
 30
0.0
 10
314.4999492222211
 20
-234.9015555140533
 30
0.0
 10
314.4382236434151
 20
-234.8329883275099
 30
0.0
 10
314.3828836502975
 20
-234.7599504022641
 30
0.0
 10
314.3364995538601
 20
-234.6817883938857
 30
0.0
 10
314.2986266393523
 20
-234.598858146846
 30
0.0
 10
314.2673808744008
 20
-234.5117755670981
 30
0.0
 10
314.2371003437277
 20
-234.38656227585
 30
0.0
 10
314.2282199973082
 20
-234.2887060175885
 30
0.0
 10
314.2264312728384
 20
-234.2224600065796
 30
0.0
  0
SPLINE
  5
AA
330
1F
100
AcDbEntity
  8
0
  6
Continuous
 62
     7
370
    25
100
AcDbSpline
210
0.0
220
0.0
230
1.0
 70
     8
 71
     3
 72
    13
 73
     9
 74
     0
 42
0.00000001
 43
0.00000001
 40
0.0
 40
0.0
 40
0.0
 40
0.0
 40
0.2703816178319662
 40
0.3984601291782963
 40
0.5227503451014313
 40
0.6438255660090861
 40
0.7637452368382611
 40
1.0
 40
1.0
 40
1.0
 40
1.0
 10
316.5148928112999
 20
-234.2224600065796
 30
0.0
 10
316.5133033466456
 20
-234.1372003650962
 30
0.0
 10
316.5059423131436
 20
-234.0112180257372
 30
0.0
 10
316.4753408297187
 20
-233.8488619072871
 30
0.0
 10
316.4443306966584
 20
-233.7350355566521
 30
0.0
 10
316.405953918989
 20
-233.6261538228591
 30
0.0
 10
316.3423431509951
 20
-233.4893678009684
 30
0.0
 10
316.2824341106087
 20
-233.3937286376212
 30
0.0
 10
316.2365474587359
 20
-233.3348398142719
 30
0.0
  0
SPLINE
  5
AB
330
1F
100
AcDbEntity
  8
0
  6
Continuous
 62
     7
370
    25
100
AcDbSpline
210
0.0
220
0.0
230
1.0
 70
     8
 71
     3
 72
    13
 73
     9
 74
     0
 42
0.00000001
 43
0.00000001
 40
0.0
 40
0.0
 40
0.0
 40
0.0
 40
0.2552573681410134
 40
0.3772478104725095
 40
0.4977415562850152
 40
0.6181201760749655
 40
0.7409671592206004
 40
1.0
 40
1.0
 40
1.0
 40
1.0
 10
316.2365474587359
 20
-233.3348398142719
 30
0.0
 10
316.1751603150425
 20
-233.2541797016727
 30
0.0
 10
316.0717174009044
 20
-233.1445400112508
 30
0.0
 10
315.913442225112
 20
-233.0254692259495
 30
0.0
 10
315.7877727135365
 20
-232.9542574792418
 30
0.0
 10
315.6539283680298
 20
-232.8991718477525
 30
0.0
 10
315.4613353048774
 20
-232.8458825975931
 30
0.0
 10
315.3094270441495
 20
-232.8310023919725
 30
0.0
 10
315.2065995420692
 20
-232.831434365554
 30
0.0
  0
SPLINE
  5
AC
330
1F
100
AcDbEntity
  8
0
  6
Continuous
 62
     7
370
    25
100
AcDbSpline
210
0.0
220
0.0
230
1.0
 70
     8
 71
     3
 72
    13
 73
     9
 74
     0
 42
0.00000001
 43
0.00000001
 40
0.0
 40
0.0
 40
0.0
 40
0.0
 40
0.2602406645594619
 40
0.3836752253641815
 40
0.5046599577621917
 40
0.6253567426858135
 40
0.7464106650135074
 40
1.0
 40
1.0
 40
1.0
 40
1.0
 10
315.2065995420692
 20
-232.831434365554
 30
0.0
 10
315.1071433309524
 20
-232.8326329457403
 30
0.0
 10
314.9592675339767
 20
-232.8436617965997
 30
0.0
 10
314.7727215080059
 20
-232.896156199488
 30
0.0
 10
314.6423800732822
 20
-232.9477887292042
 30
0.0
 10
314.5208030502507
 20
-233.0158282745688
 30
0.0
 10
314.3661408982714
 20
-233.1265908015442
 30
0.0
 10
314.2673729228649
 20
-233.232472636914
 30
0.0
 10
314.206799862582
 20
-233.3081971860668
 30
0.0
  0
SPLINE
  5
AD
330
1F
100
AcDbEntity
  8
0
  6
Continuous
 62
     7
370
    25
100
AcDbSpline
210
0.0
220
0.0
230
1.0
 70
     8
 71
     3
 72
    13
 73
     9
 74
     0
 42
0.00000001
 43
0.00000001
 40
0.0
 40
0.0
 40
0.0
 40
0.0
 40
0.2534216680664996
 40
0.3767041167575217
 40
0.4994491585174682
 40
0.6225715734187214
 40
0.7462320999755199
 40
1.0
 40
1.0
 40
1.0
 40
1.0
 10
314.206799862582
 20
-233.3081971860668
 30
0.0
 10
314.1592486000874
 20
-233.3696890098922
 30
0.0
 10
314.0940847673589
 20
-233.4657582811726
 30
0.0
 10
314.0259119910021
 20
-233.6032693174042
 30
0.0
 10
313.9843328892813
 20
-233.7088095671222
 30
0.0
 10
313.9521854565544
 20
-233.8176972589377
 30
0.0
 10
313.9205580769974
 20
-233.9682409698968
 30
0.0
 10
313.9132819969408
 20
-234.0843698300616
 30
0.0
 10
313.9123287087358
 20
-234.1621635322206
 30
0.0
  0
SPLINE
  5
AE
330
1F
100
AcDbEntity
  8
0
  6
Continuous
 62
     7
370
    25
100
AcDbSpline
210
0.0
220
0.0
230
1.0
 70
     8
 71
     3
 72
    21
 73
    17
 74
     0
 42
0.00000001
 43
0.00000001
 40
0.0
 40
0.0
 40
0.0
 40
0.0
 40
0.1210804245006244
 40
0.1800682782218581
 40
0.2391896643238633
 40
0.2987059533012294
 40
0.3588810785072508
 40
0.4203687292950803
 40
0.4834483096802283
 40
0.546566484902941
 40
0.6086986022254455
 40
0.6701862530132751
 40
0.7318650366033289
 40
0.7952033026033429
 40
0.8603707753071409
 40
1.0
 40
1.0
 40
1.0
 40
1.0
 10
313.9123287087359
 20
-234.1621635322207
 30
0.0
 10
313.9132434359734
 20
-234.2451861725707
 30
0.0
 10
313.9220230602725
 20
-234.3690379795585
 30
0.0
 10
313.9581043445452
 20
-234.5294851237881
 30
0.0
 10
313.9964797414592
 20
-234.6453474992721
 30
0.0
 10
314.0440403213061
 20
-234.7586184329838
 30
0.0
 10
314.1024955800055
 20
-234.8685815491843
 30
0.0
 10
314.1724219991929
 20
-234.9745374504637
 30
0.0
 10
314.2516657182078
 20
-235.0762194534364
 30
0.0
 10
314.3396899637317
 20
-235.1712356967592
 30
0.0
 10
314.4385095085387
 20
-235.2533686924193
 30
0.0
 10
314.5450102532347
 20
-235.3233254408687
 30
0.0
 10
314.6597529317376
 20
-235.3807630679568
 30
0.0
 10
314.7829629839615
 20
-235.4246887417436
 30
0.0
 10
314.9621948269927
 20
-235.4678350970471
 30
0.0
 10
315.1031165223314
 20
-235.4788313800883
 30
0.0
 10
315.1988872023256
 20
-235.4788702629899
 30
0.0
  0
SPLINE
  5
AF
330
1F
100
AcDbEntity
  8
0
  6
Continuous
 62
     7
370
    25
100
AcDbSpline
210
0.0
220
0.0
230
1.0
 70
     8
 71
     3
 72
    17
 73
    13
 74
     0
 42
0.00000001
 43
0.00000001
 40
0.0
 40
0.0
 40
0.0
 40
0.0
 40
0.1781058515637411
 40
0.2613277635121448
 40
0.3415565694705787
 40
0.4200079090126463
 40
0.4980968161626106
 40
0.5754001382821131
 40
0.6536452159657025
 40
0.734125772957381
 40
0.8183392339290092
 40
1.0
 40
1.0
 40
1.0
 40
1.0
 10
315.1988872023256
 20
-235.4788702629899
 30
0.0
 10
315.2851809940833
 20
-235.4788591028155
 30
0.0
 10
315.4120574758534
 20
-235.4702048817837
 30
0.0
 10
315.5744407484294
 20
-235.4368791836563
 30
0.0
 10
315.6867393979712
 20
-235.4025009488792
 30
0.0
 10
315.7925892143982
 20
-235.3577402571817
 30
0.0
 10
315.8928785299135
 20
-235.3046241751559
 30
0.0
 10
315.987609116925
 20
-235.2422846581808
 30
0.0
 10
316.0772867229534
 20
-235.1710377087056
 30
0.0
 10
316.1623597156953
 20
-235.0892912905239
 30
0.0
 10
316.2693055998033
 20
-234.9595291358031
 30
0.0
 10
316.3387765905633
 20
-234.85053325008
 30
0.0
 10
316.3802774266846
 20
-234.772840615554
 30
0.0
  0
SPLINE
  5
B1
330
1F
100
AcDbEntity
  8
0
  6
Continuous
 62
     7
370
    25
100
AcDbSpline
210
0.0
220
0.0
230
1.0
 70
     8
 71
     3
 72
    17
 73
    13
 74
     0
 42
0.00000001
 43
0.00000001
 40
0.0
 40
0.0
 40
0.0
 40
0.0
 40
0.207935033903388
 40
0.2946939715679356
 40
0.3697315241424738
 40
0.4408309438027217
 40
0.514250914046082
 40
0.5913900390896938
 40
0.6722743046458908
 40
0.7543412603704936
 40
0.8361211059015248
 40
1.0
 40
1.0
 40
1.0
 40
1.0
 10
316.1012309523256
 20
-234.6263061604258
 30
0.0
 10
316.058706226323
 20
-234.6928536443289
 30
0.0
 10
315.9915904566524
 20
-234.7824841097802
 30
0.0
 10
315.898092667652
 20
-234.8873030414094
 30
0.0
 10
315.8320408278182
 20
-234.9463243665425
 30
0.0
 10
315.7639192089301
 20
-234.9945307243113
 30
0.0
 10
315.6910402649448
 20
-235.0366818663741
 30
0.0
 10
315.6117943666138
 20
-235.0747823788593
 30
0.0
 10
315.5262235548627
 20
-235.1063676095459
 30
0.0
 10
315.4369628115991
 20
-235.1322258863365
 30
0.0
 10
315.3151145181268
 20
-235.1577454683627
 30
0.0
 10
315.2218182857528
 20
-235.1650685296365
 30
0.0
 10
315.1596243818128
 20
-235.1647676988873
 30
0.0
  0
SPLINE
  5
B3
330
1F
100
AcDbEntity
  8
0
  6
Continuous
 62
     7
370
    25
100
AcDbSpline
210
0.0
220
0.0
230
1.0
 70
     8
 71
     3
 72
    13
 73
     9
 74
     0
 42
0.00000001
 43
0.00000001
 40
0.0
 40
0.0
 40
0.0
 40
0.0
 40
0.2614889296266805
 40
0.385247236760018
 40
0.5058984871003128
 40
0.625789562817413
 40
0.747015028142167
 40
1.0
 40
1.0
 40
1.0
 40
1.0
 10
312.9700210164281
 20
-233.3712981476053
 30
0.0
 10
312.9066870809058
 20
-233.2867610644934
 30
0.0
 10
312.804678383488
 20
-233.1668479302683
 30
0.0
 10
312.6424280381837
 20
-233.0408556644569
 30
0.0
 10
312.51606299304
 20
-232.9640228016573
 30
0.0
 10
312.3815648733043
 20
-232.9049910266806
 30
0.0
 10
312.1897263134032
 20
-232.8463121607824
 30
0.0
 10
312.0374832180151
 20
-232.8316822769493
 30
0.0
 10
311.9351652471974
 20
-232.831434365554
 30
0.0
  0
SPLINE
  5
B4
330
1F
100
AcDbEntity
  8
0
  6
Continuous
 62
     7
370
    25
100
AcDbSpline
210
0.0
220
0.0
230
1.0
 70
     8
 71
     3
 72
    21
 73
    17
 74
     0
 42
0.00000001
 43
0.00000001
 40
0.0
 40
0.0
 40
0.0
 40
0.0
 40
0.1283692574311726
 40
0.1904177088601108
 40
0.251921166742233
 40
0.3132736507580846
 40
0.3750861342515345
 40
0.4383891767704412
 40
0.5032092055629043
 40
0.5679667722557986
 40
0.6308681015390163
 40
0.6919966438355536
 40
0.7524260650823917
 40
0.8130959072527976
 40
0.8739211900104932
 40
1.0
 40
1.0
 40
1.0
 40
1.0
 10
311.9351652471974
 20
-232.831434365554
 30
0.0
 10
311.8457520149065
 20
-232.8322319872129
 30
0.0
 10
311.7127278939726
 20
-232.8423753910551
 30
0.0
 10
311.5415152597001
 20
-232.8830548754793
 30
0.0
 10
311.4199496795428
 20
-232.9264291399752
 30
0.0
 10
311.3026862630957
 20
-232.9800919144016
 30
0.0
 10
311.1914630880678
 20
-233.0478062437783
 30
0.0
 10
311.0845543420707
 20
-233.1262159846176
 30
0.0
 10
310.9846195213121
 20
-233.2164364091042
 30
0.0
 10
310.8923673309964
 20
-233.3141076780666
 30
0.0
 10
310.812347420038
 20
-233.4188770961344
 30
0.0
 10
310.7444221610679
 20
-233.5282810025065
 30
0.0
 10
310.6885698147426
 20
-233.6426215003064
 30
0.0
 10
310.6450608476563
 20
-233.7619767654551
 30
0.0
 10
310.6030650166472
 20
-233.9297087817907
 30
0.0
 10
310.5923335417543
 20
-234.0603233324888
 30
0.0
 10
310.591815888223
 20
-234.1481410963232
 30
0.0
  0
SPLINE
  5
B5
330
1F
100
AcDbEntity
  8
0
  6
Continuous
 62
     7
370
    25
100
AcDbSpline
210
0.0
220
0.0
230
1.0
 70
     8
 71
     3
 72
    21
 73
    17
 74
     0
 42
0.00000001
 43
0.00000001
 40
0.0
 40
0.0
 40
0.0
 40
0.0
 40
0.1280988297755846
 40
0.1896694721890519
 40
0.2507063934632476
 40
0.3118906664385961
 40
0.3732647830705181
 40
0.4358087922280719
 40
0.5004244558059605
 40
0.5650608900029848
 40
0.6276710388631787
 40
0.6893315462593187
 40
0.7500699293139487
 40
0.810995873442066
 40
0.8725665158555302
 40
1.0
 40
1.0
 40
1.0
 40
1.0
 10
310.591815888223
 20
-234.1481410963232
 30
0.0
 10
310.5920238804852
 20
-234.2376474523516
 30
0.0
 10
310.6035308144202
 20
-234.37034310786
 30
0.0
 10
310.6442073904655
 20
-234.541050288749
 30
0.0
 10
310.6871604355731
 20
-234.6623645586112
 30
0.0
 10
310.7429921169244
 20
-234.7780978854863
 30
0.0
 10
310.8097420650902
 20
-234.8891401467209
 30
0.0
 10
310.8898041988504
 20
-234.9940856897834
 30
0.0
 10
310.9810359607569
 20
-235.0924807381223
 30
0.0
 10
311.0801075594706
 20
-235.1830685266609
 30
0.0
 10
311.1859802520243
 20
-235.262310223382
 30
0.0
 10
311.2970402903461
 20
-235.3288483210037
 30
0.0
 10
311.4127126648231
 20
-235.384440708204
 30
0.0
 10
311.5339863757121
 20
-235.4262982831426
 30
0.0
 10
311.7040530195921
 20
-235.4671577552314
 30
0.0
 10
311.8363201304371
 20
-235.4786521633224
 30
0.0
 10
311.9253495420692
 20
-235.4788702629899
 30
0.0
  0
SPLINE
  5
B6
330
1F
100
AcDbEntity
  8
0
  6
Continuous
 62
     7
370
    25
100
AcDbSpline
210
0.0
220
0.0
230
1.0
 70
     8
 71
     3
 72
    13
 73
     9
 74
     0
 42
0.00000001
 43
0.00000001
 40
0.0
 40
0.0
 40
0.0
 40
0.0
 40
0.2518550583969833
 40
0.3726997642745052
 40
0.4928354033772084
 40
0.6137300878654862
 40
0.7379150246176897
 40
1.0
 40
1.0
 40
1.0
 40
1.0
 10
311.9253495420692
 20
-235.4788702629899
 30
0.0
 10
312.025585721557
 20
-235.479677613441
 30
0.0
 10
312.1739985784203
 20
-235.4649400612198
 30
0.0
 10
312.3640514340535
 20
-235.4155204555001
 30
0.0
 10
312.4989786407926
 20
-235.3643965675158
 30
0.0
 10
312.6276449197318
 20
-235.2962054541779
 30
0.0
 10
312.7942725102211
 20
-235.1815712867396
 30
0.0
 10
312.902783461175
 20
-235.071041812589
 30
0.0
 10
312.9700210164281
 20
-234.991590615554
 30
0.0
  0
SPLINE
  5
BF
330
1F
100
AcDbEntity
  8
0
  6
Continuous
 62
     7
370
    25
100
AcDbSpline
210
0.0
220
0.0
230
1.0
 70
     8
 71
     3
 72
    13
 73
     9
 74
     0
 42
0.00000001
 43
0.00000001
 40
0.0
 40
0.0
 40
0.0
 40
0.0
 40
0.238914995222121
 40
0.3595568481745748
 40
0.4866347668473452
 40
0.6157867870574896
 40
0.7433385965465285
 40
1.0
 40
1.0
 40
1.0
 40
1.0
 10
309.4700210164281
 20
-232.0700160963232
 30
0.0
 10
309.4699871644847
 20
-232.1049197601756
 30
0.0
 10
309.4811794337745
 20
-232.1574916915163
 30
0.0
 10
309.5174624084748
 20
-232.2191229578123
 30
0.0
 10
309.5546436272644
 20
-232.2600782400233
 30
0.0
 10
309.5993198269211
 20
-232.2942641306961
 30
0.0
 10
309.6663775293206
 20
-232.3286647131619
 30
0.0
 10
309.7228851881157
 20
-232.3380798077449
 30
0.0
 10
309.7602854395051
 20
-232.3378446219642
 30
0.0
  0
SPLINE
  5
C0
330
1F
100
AcDbEntity
  8
0
  6
Continuous
 62
     7
370
    25
100
AcDbSpline
210
0.0
220
0.0
230
1.0
 70
     8
 71
     3
 72
    13
 73
     9
 74
     0
 42
0.00000001
 43
0.00000001
 40
0.0
 40
0.0
 40
0.0
 40
0.0
 40
0.2598496298712551
 40
0.3866707319148489
 40
0.5150828775346824
 40
0.6425029490726124
 40
0.7624536797231306
 40
1.0
 40
1.0
 40
1.0
 40
1.0
 10
309.7602854395051
 20
-232.3378446219642
 30
0.0
 10
309.7982813674702
 20
-232.3377689826737
 30
0.0
 10
309.8556890289785
 20
-232.3290751241351
 30
0.0
 10
309.9233881228875
 20
-232.2942774191393
 30
0.0
 10
309.9680073107206
 20
-232.2598516276622
 30
0.0
 10
310.0059566169647
 20
-232.2193712329162
 30
0.0
 10
310.0421160528525
 20
-232.1574195127534
 30
0.0
 10
310.0534286445481
 20
-232.1049563041211
 30
0.0
 10
310.0533543497614
 20
-232.0700160963232
 30
0.0
  0
SPLINE
  5
C1
330
1F
100
AcDbEntity
  8
0
  6
Continuous
 62
     7
370
    25
100
AcDbSpline
210
0.0
220
0.0
230
1.0
 70
     8
 71
     3
 72
    13
 73
     9
 74
     0
 42
0.00000001
 43
0.00000001
 40
0.0
 40
0.0
 40
0.0
 40
0.0
 40
0.2407702368354516
 40
0.3613679915789214
 40
0.4880203848743633
 40
0.615658875220944
 40
0.7417159076830961
 40
1.0
 40
1.0
 40
1.0
 40
1.0
 10
310.0533543497614
 20
-232.0700160963232
 30
0.0
 10
310.0535555045763
 20
-232.0343586670171
 30
0.0
 10
310.0421885430877
 20
-231.9810581686055
 30
0.0
 10
310.0061847652117
 20
-231.9179506202467
 30
0.0
 10
309.9679827630844
 20
-231.8773910552775
 30
0.0
 10
309.9233945974486
 20
-231.8429463359448
 30
0.0
 10
309.855684614253
 20
-231.8081552749284
 30
0.0
 10
309.7982836741361
 20
-231.7994573154061
 30
0.0
 10
309.7602854395051
 20
-231.7993830835027
 30
0.0
  0
SPLINE
  5
C2
330
1F
100
AcDbEntity
  8
0
  6
Continuous
 62
     7
370
    25
100
AcDbSpline
210
0.0
220
0.0
230
1.0
 70
     8
 71
     3
 72
    13
 73
     9
 74
     0
 42
0.00000001
 43
0.00000001
 40
0.0
 40
0.0
 40
0.0
 40
0.0
 40
0.2551062187428433
 40
0.3818851554069804
 40
0.5102546066586644
 40
0.6365625239462668
 40
0.7578509186659793
 40
1.0
 40
1.0
 40
1.0
 40
1.0
 10
309.7602854395051
 20
-231.7993830835027
 30
0.0
 10
309.7228828987314
 20
-231.7991464951921
 30
0.0
 10
309.6663819103948
 20
-231.8085656762527
 30
0.0
 10
309.5993132914915
 20
-231.8429595710149
 30
0.0
 10
309.5546682995122
 20
-231.877164580235
 30
0.0
 10
309.5172367668976
 20
-231.9182008933118
 30
0.0
 10
309.481105032081
 20
-231.980984198175
 30
0.0
 10
309.4698618524717
 20
-232.034396642847
 30
0.0
 10
309.4700210164281
 20
-232.0700160963232
 30
0.0
  0
SPLINE
  5
C3
330
1F
100
AcDbEntity
  8
0
  6
Continuous
 62
     7
370
    25
100
AcDbSpline
210
0.0
220
0.0
230
1.0
 70
     8
 71
     3
 72
    21
 73
    17
 74
     0
 42
0.00000001
 43
0.00000001
 40
0.0
 40
0.0
 40
0.0
 40
0.0
 40
0.1291156642467608
 40
0.1906142170368764
 40
0.2512349941101539
 40
0.3110899094595545
 40
0.3711861458445338
 40
0.4321194799414271
 40
0.4949206964951244
 40
0.5573643976837963
 40
0.6191271459504214
 40
0.6802716623934587
 40
0.7413865832314245
 40
0.8034925619466108
 40
0.8669564647560988
 40
1.0
 40
1.0
 40
1.0
 40
1.0
 10
308.3215835164282
 20
-232.831434365554
 30
0.0
 10
308.2766704548141
 20
-232.8308998022174
 30
0.0
 10
308.2104249723416
 20
-232.8371289734534
 30
0.0
 10
308.125247968052
 20
-232.8568720953457
 30
0.0
 10
308.0654272672225
 20
-232.8778468062562
 30
0.0
 10
308.0090189080453
 20
-232.9056189968098
 30
0.0
 10
307.9554806340387
 20
-232.9387234637751
 30
0.0
 10
307.904585873699
 20
-232.9775226078154
 30
0.0
 10
307.8574792080666
 20
-233.0220317936102
 30
0.0
 10
307.814635988863
 20
-233.0710349547226
 30
0.0
 10
307.777448301764
 20
-233.1237708970868
 30
0.0
 10
307.7458033629441
 20
-233.1794282435794
 30
0.0
 10
307.7193167416999
 20
-233.2379308130685
 30
0.0
 10
307.7002756296544
 20
-233.3000558580439
 30
0.0
 10
307.6795944608189
 20
-233.387630743215
 30
0.0
 10
307.6754660104244
 20
-233.4562656102483
 30
0.0
 10
307.6751492215564
 20
-233.5024079232463
 30
0.0
  0
SPLINE
  5
C4
330
1F
100
AcDbEntity
  8
0
  6
Continuous
 62
     7
370
    25
100
AcDbSpline
210
0.0
220
0.0
230
1.0
 70
     8
 71
     3
 72
     9
 73
     5
 74
     0
 42
0.00000001
 43
0.00000001
 40
0.0
 40
0.0
 40
0.0
 40
0.0
 40
0.5074092035236273
 40
1.0
 40
1.0
 40
1.0
 40
1.0
 10
307.6751492215564
 20
-233.5024079232463
 30
0.0
 10
307.6738774481458
 20
-233.5731269981708
 30
0.0
 10
307.6945939270915
 20
-233.712145090315
 30
0.0
 10
307.752967790654
 20
-233.8400435783074
 30
0.0
 10
307.7922365613
 20
-233.8964383719642
 30
0.0
  0
SPLINE
  5
C5
330
1F
100
AcDbEntity
  8
0
  6
Continuous
 62
     7
370
    25
100
AcDbSpline
210
0.0
220
0.0
230
1.0
 70
     8
 71
     3
 72
    13
 73
     9
 74
     0
 42
0.00000001
 43
0.00000001
 40
0.0
 40
0.0
 40
0.0
 40
0.0
 40
0.1977042930091439
 40
0.3078458435567549
 40
0.4271756375985054
 40
0.5562245009993161
 40
0.6940497867914677
 40
1.0
 40
1.0
 40
1.0
 40
1.0
 10
307.7922365613
 20
-233.8964383719642
 30
0.0
 10
307.8131756409591
 20
-233.9275056311258
 30
0.0
 10
307.8514347531937
 20
-233.9715624911673
 30
0.0
 10
307.9093484801411
 20
-234.027927875043
 30
0.0
 10
307.9614807172268
 20
-234.0713714350026
 30
0.0
 10
308.0205911646981
 20
-234.1142740230052
 30
0.0
 10
308.1096613135526
 20
-234.1759428978617
 30
0.0
 10
308.1826479536987
 20
-234.2176299449781
 30
0.0
 10
308.2332421702743
 20
-234.2455970258104
 30
0.0
  0
SPLINE
  5
C6
330
1F
100
AcDbEntity
  8
0
  6
Continuous
 62
     7
370
    25
100
AcDbSpline
210
0.0
220
0.0
230
1.0
 70
     8
 71
     3
 72
    13
 73
     9
 74
     0
 42
0.00000001
 43
0.00000001
 40
0.0
 40
0.0
 40
0.0
 40
0.0
 40
0.3337367066247896
 40
0.4791986316520104
 40
0.6104491594875303
 40
0.7277299767533711
 40
0.832538324274295
 40
1.0
 40
1.0
 40
1.0
 40
1.0
 10
308.2332421702743
 20
-234.2455970258104
 30
0.0
 10
308.2796120627548
 20
-234.2700540283639
 30
0.0
 10
308.3452374812268
 20
-234.306908813951
 30
0.0
 10
308.4278936613213
 20
-234.3555137040184
 30
0.0
 10
308.4798931100595
 20
-234.3891004205881
 30
0.0
 10
308.5250102434676
 20
-234.4214540261881
 30
0.0
 10
308.5729160811059
 20
-234.459543441878
 30
0.0
 10
308.6041155255263
 20
-234.4889515913702
 30
0.0
 10
308.6209625228385
 20
-234.5092188206822
 30
0.0
  0
SPLINE
  5
C7
330
1F
100
AcDbEntity
  8
0
  6
Continuous
 62
     7
370
    25
100
AcDbSpline
210
0.0
220
0.0
230
1.0
 70
     8
 71
     3
 72
     9
 73
     5
 74
     0
 42
0.00000001
 43
0.00000001
 40
0.0
 40
0.0
 40
0.0
 40
0.0
 40
0.4995466848970244
 40
1.0
 40
1.0
 40
1.0
 40
1.0
 10
308.6209625228385
 20
-234.5092188206822
 30
0.0
 10
308.648852044687
 20
-234.5431695298938
 30
0.0
 10
308.6930416183908
 20
-234.6209493478999
 30
0.0
 10
308.70703315272
 20
-234.7092395869121
 30
0.0
 10
308.7072005036077
 20
-234.7532092052976
 30
0.0
  0
SPLINE
  5
C8
330
1F
100
AcDbEntity
  8
0
  6
Continuous
 62
     7
370
    25
100
AcDbSpline
210
0.0
220
0.0
230
1.0
 70
     8
 71
     3
 72
    13
 73
     9
 74
     0
 42
0.00000001
 43
0.00000001
 40
0.0
 40
0.0
 40
0.0
 40
0.0
 40
0.2352817369432687
 40
0.3554913463217666
 40
0.4823137941792078
 40
0.6121639553089149
 40
0.7381043263492526
 40
1.0
 40
1.0
 40
1.0
 40
1.0
 10
308.7072005036077
 20
-234.7532092052976
 30
0.0
 10
308.7075317585907
 20
-234.8064277663358
 30
0.0
 10
308.6904149845838
 20
-234.8869067349339
 30
0.0
 10
308.6342782942039
 20
-234.9812280418702
 30
0.0
 10
308.5764551354897
 20
-235.0442002995824
 30
0.0
 10
308.5084104227108
 20
-235.0982201463836
 30
0.0
 10
308.4027059232968
 20
-235.1499929014975
 30
0.0
 10
308.3148862754937
 20
-235.1652801288171
 30
0.0
 10
308.2556780677103
 20
-235.1647676988873
 30
0.0
  0
SPLINE
  5
C9
330
1F
100
AcDbEntity
  8
0
  6
Continuous
 62
     7
370
    25
100
AcDbSpline
210
0.0
220
0.0
230
1.0
 70
     8
 71
     3
 72
    13
 73
     9
 74
     0
 42
0.00000001
 43
0.00000001
 40
0.0
 40
0.0
 40
0.0
 40
0.0
 40
0.224993901684057
 40
0.3407622816197763
 40
0.4594992564135369
 40
0.5828283517555902
 40
0.7140958284555934
 40
1.0
 40
1.0
 40
1.0
 40
1.0
 10
308.2556780677102
 20
-235.1647676988873
 30
0.0
 10
308.2112218854236
 20
-235.1649828858722
 30
0.0
 10
308.1440695689108
 20
-235.1559204431233
 30
0.0
 10
308.0576078336992
 20
-235.1280031662939
 30
0.0
 10
307.9933840587171
 20
-235.0982708505036
 30
0.0
 10
307.9305611322912
 20
-235.0596074121221
 30
0.0
 10
307.8447102749337
 20
-234.9961215156519
 30
0.0
 10
307.7864169308049
 20
-234.9374320243143
 30
0.0
 10
307.7487670100179
 20
-234.8955369296565
 30
0.0
  0
SPLINE
  5
CB
330
1F
100
AcDbEntity
  8
0
  6
Continuous
 62
     7
370
    25
100
AcDbSpline
210
0.0
220
0.0
230
1.0
 70
     8
 71
     3
 72
    13
 73
     9
 74
     0
 42
0.00000001
 43
0.00000001
 40
0.0
 40
0.0
 40
0.0
 40
0.0
 40
0.2445989327970556
 40
0.3685417614064802
 40
0.4953064507483336
 40
0.6227813119737904
 40
0.7482760387503938
 40
1.0
 40
1.0
 40
1.0
 40
1.0
 10
307.540533836941
 20
-235.1325160963232
 30
0.0
 10
307.5828016280091
 20
-235.1861149984421
 30
0.0
 10
307.6561450113549
 20
-235.2591173742047
 30
0.0
 10
307.769385873154
 20
-235.3387090318194
 30
0.0
 10
307.8623908973341
 20
-235.3889069156663
 30
0.0
 10
307.9607858930791
 20
-235.4285605039603
 30
0.0
 10
308.0963450303105
 20
-235.4672775416285
 30
0.0
 10
308.2015438593796
 20
-235.4794032823496
 30
0.0
 10
308.2718038689923
 20
-235.4788702629899
 30
0.0
  0
SPLINE
  5
CC
330
1F
100
AcDbEntity
  8
0
  6
Continuous
 62
     7
370
    25
100
AcDbSpline
210
0.0
220
0.0
230
1.0
 70
     8
 71
     3
 72
    21
 73
    17
 74
     0
 42
0.00000001
 43
0.00000001
 40
0.0
 40
0.0
 40
0.0
 40
0.0
 40
0.1313602991795046
 40
0.1945015164287716
 40
0.2564315180678458
 40
0.3176028927083723
 40
0.3786284196027672
 40
0.4404806721564913
 40
0.504295714274724
 40
0.5681107563929231
 40
0.6299630089466473
 40
0.6904753005359399
 40
0.7513604849059649
 40
0.8114026619125644
 40
0.8728008672444805
 40
1.0
 40
1.0
 40
1.0
 40
1.0
 10
308.2718038689923
 20
-235.4788702629899
 30
0.0
 10
308.3231933551743
 20
-235.4785201644365
 30
0.0
 10
308.3994878535888
 20
-235.4727807548514
 30
0.0
 10
308.4974800561123
 20
-235.4501292595728
 30
0.0
 10
308.5664429337313
 20
-235.426080923437
 30
0.0
 10
308.6319699388051
 20
-235.3958103411828
 30
0.0
 10
308.6942087167844
 20
-235.3592374016669
 30
0.0
 10
308.7527148629163
 20
-235.3152130666217
 30
0.0
 10
308.8075603801593
 20
-235.2651274231382
 30
0.0
 10
308.8576516550656
 20
-235.2102884417533
 30
0.0
 10
308.9015269325056
 20
-235.1519124921566
 30
0.0
 10
308.9380733986317
 20
-235.0900763364685
 30
0.0
 10
308.9692627242485
 20
-235.0261170430846
 30
0.0
 10
308.9923380772623
 20
-234.9584230744994
 30
0.0
 10
309.0153331440353
 20
-234.8636903691119
 30
0.0
 10
309.0208311654421
 20
-234.7896158339892
 30
0.0
 10
309.0213030677103
 20
-234.739887891195
 30
0.0
  0
SPLINE
  5
CD
330
1F
100
AcDbEntity
  8
0
  6
Continuous
 62
     7
370
    25
100
AcDbSpline
210
0.0
220
0.0
230
1.0
 70
     8
 71
     3
 72
     9
 73
     5
 74
     0
 42
0.00000001
 43
0.00000001
 40
0.0
 40
0.0
 40
0.0
 40
0.0
 40
0.5047649745423062
 40
1.0
 40
1.0
 40
1.0
 40
1.0
 10
309.0213030677103
 20
-234.739887891195
 30
0.0
 10
309.0203020628583
 20
-234.6696439652188
 30
0.0
 10
309.0042434445551
 20
-234.5286405771713
 30
0.0
 10
308.9401665922562
 20
-234.4019894304393
 30
0.0
 10
308.902112362582
 20
-234.3444551988873
 30
0.0
  0
SPLINE
  5
CE
330
1F
100
AcDbEntity
  8
0
  6
Continuous
 62
     7
370
    25
100
AcDbSpline
210
0.0
220
0.0
230
1.0
 70
     8
 71
     3
 72
    13
 73
     9
 74
     0
 42
0.00000001
 43
0.00000001
 40
0.0
 40
0.0
 40
0.0
 40
0.0
 40
0.1954188198467368
 40
0.3058478904170538
 40
0.4251239275882392
 40
0.5537868414037512
 40
0.6928854083944163
 40
1.0
 40
1.0
 40
1.0
 40
1.0
 10
308.902112362582
 20
-234.3444551988873
 30
0.0
 10
308.8799477300021
 20
-234.3131588551104
 30
0.0
 10
308.8408118639597
 20
-234.2673500933873
 30
0.0
 10
308.7791163469004
 20
-234.2111478079378
 30
0.0
 10
308.7251977665778
 20
-234.1659775576235
 30
0.0
 10
308.6637328410546
 20
-234.1213202706874
 30
0.0
 10
308.570048555059
 20
-234.0584892580945
 30
0.0
 10
308.4941952720758
 20
-234.0146109889306
 30
0.0
 10
308.4414753433513
 20
-233.985480839913
 30
0.0
  0
SPLINE
  5
CF
330
1F
100
AcDbEntity
  8
0
  6
Continuous
 62
     7
370
    25
100
AcDbSpline
210
0.0
220
0.0
230
1.0
 70
     8
 71
     3
 72
    13
 73
     9
 74
     0
 42
0.00000001
 43
0.00000001
 40
0.0
 40
0.0
 40
0.0
 40
0.0
 40
0.3238790058011443
 40
0.4664315196199008
 40
0.5977832531928083
 40
0.7160176400495328
 40
0.8224401785340714
 40
1.0
 40
1.0
 40
1.0
 40
1.0
 10
308.4414753433513
 20
-233.985480839913
 30
0.0
 10
308.3980532558242
 20
-233.9628697084224
 30
0.0
 10
308.3378607087855
 20
-233.9262823011453
 30
0.0
 10
308.2610139908344
 20
-233.8788710735633
 30
0.0
 10
308.2122456784138
 20
-233.8452611704614
 30
0.0
 10
308.1689591291548
 20
-233.8132922578096
 30
0.0
 10
308.1233824459833
 20
-233.7731085540863
 30
0.0
 10
308.0921733983834
 20
-233.7435735336057
 30
0.0
 10
308.0761908882231
 20
-233.7218590450411
 30
0.0
  0
SPLINE
  5
D0
330
1F
100
AcDbEntity
  8
0
  6
Continuous
 62
     7
370
    25
100
AcDbSpline
210
0.0
220
0.0
230
1.0
 70
     8
 71
     3
 72
     9
 73
     5
 74
     0
 42
0.00000001
 43
0.00000001
 40
0.0
 40
0.0
 40
0.0
 40
0.0
 40
0.5205968063939186
 40
1.0
 40
1.0
 40
1.0
 40
1.0
 10
308.0761908882231
 20
-233.7218590450411
 30
0.0
 10
308.0495006993623
 20
-233.6873299930866
 30
0.0
 10
308.0050134453192
 20
-233.6142971044345
 30
0.0
 10
307.9893273015029
 20
-233.5301532640861
 30
0.0
 10
307.989251785659
 20
-233.4897877309386
 30
0.0
  0
SPLINE
  5
D1
330
1F
100
AcDbEntity
  8
0
  6
Continuous
 62
     7
370
    25
100
AcDbSpline
210
0.0
220
0.0
230
1.0
 70
     8
 71
     3
 72
    13
 73
     9
 74
     0
 42
0.00000001
 43
0.00000001
 40
0.0
 40
0.0
 40
0.0
 40
0.0
 40
0.2489716711489879
 40
0.3714961336333573
 40
0.5014891588226413
 40
0.6308339704139228
 40
0.7540993713937609
 40
1.0
 40
1.0
 40
1.0
 40
1.0
 10
307.9892517856589
 20
-233.4897877309386
 30
0.0
 10
307.9893752778438
 20
-233.445843078791
 30
0.0
 10
308.0012076927866
 20
-233.3798380588168
 30
0.0
 10
308.0428952582167
 20
-233.3009841990897
 30
0.0
 10
308.0853323629415
 20
-233.2482036551268
 30
0.0
 10
308.135504670224
 20
-233.2023017068889
 30
0.0
 10
308.2128273183607
 20
-233.1587351885853
 30
0.0
 10
308.2779337385325
 20
-233.1446421864763
 30
0.0
 10
308.3215835164282
 20
-233.1455369296565
 30
0.0
  0
SPLINE
  5
D2
330
1F
100
AcDbEntity
  8
0
  6
Continuous
 62
     7
370
    25
100
AcDbSpline
210
0.0
220
0.0
230
1.0
 70
     8
 71
     3
 72
    13
 73
     9
 74
     0
 42
0.00000001
 43
0.00000001
 40
0.0
 40
0.0
 40
0.0
 40
0.0
 40
0.2066658703703956
 40
0.3164748855849252
 40
0.4340367728952754
 40
0.5586910361120601
 40
0.6949644946418735
 40
1.0
 40
1.0
 40
1.0
 40
1.0
 10
308.3215835164282
 20
-233.1455369296565
 30
0.0
 10
308.3583983901278
 20
-233.145569695469
 30
0.0
 10
308.4146189018628
 20
-233.1546777978768
 30
0.0
 10
308.4866818098926
 20
-233.1829234247693
 30
0.0
 10
308.5421432302091
 20
-233.212327975274
 30
0.0
 10
308.5971818538058
 20
-233.2512997941505
 30
0.0
 10
308.6750039287139
 20
-233.3152944447463
 30
0.0
 10
308.7284729263569
 20
-233.3732386724733
 30
0.0
 10
308.7632902471974
 20
-233.4147676988873
 30
0.0
  0
SPLINE
  5
D4
330
1F
100
AcDbEntity
  8
0
  6
Continuous
 62
     7
370
    25
100
AcDbSpline
210
0.0
220
0.0
230
1.0
 70
     8
 71
     3
 72
    13
 73
     9
 74
     0
 42
0.00000001
 43
0.00000001
 40
0.0
 40
0.0
 40
0.0
 40
0.0
 40
0.2972877955188131
 40
0.4309389201449497
 40
0.5555483284431246
 40
0.673873269926532
 40
0.7865883873610032
 40
1.0
 40
1.0
 40
1.0
 40
1.0
 10
308.9764312728385
 20
-233.1953165770925
 30
0.0
 10
308.9258232160301
 20
-233.1380220089302
 30
0.0
 10
308.8458805713452
 20
-233.0608067914006
 30
0.0
 10
308.7323738840818
 20
-232.9739290879853
 30
0.0
 10
308.6505854334455
 20
-232.9218273114552
 30
0.0
 10
308.5682566779429
 20
-232.8816493883966
 30
0.0
 10
308.4603615681776
 20
-232.8431788223444
 30
0.0
 10
308.3764788084806
 20
-232.8314875540793
 30
0.0
 10
308.3215835164282
 20
-232.831434365554
 30
0.0
  0
SPLINE
  5
D7
330
1F
100
AcDbEntity
  8
0
  6
Continuous
 62
     7
370
    25
100
AcDbSpline
210
0.0
220
0.0
230
1.0
 70
     8
 71
     3
 72
    13
 73
     9
 74
     0
 42
0.00000001
 43
0.00000001
 40
0.0
 40
0.0
 40
0.0
 40
0.0
 40
0.3336012413919545
 40
0.4791571975344512
 40
0.6105404974279549
 40
0.7289476063657617
 40
0.8323849228168337
 40
1.0
 40
1.0
 40
1.0
 40
1.0
 10
305.1174569138641
 20
-234.5092188206822
 30
0.0
 10
305.1179253297979
 20
-234.4325753022767
 30
0.0
 10
305.117752900436
 20
-234.3224037133447
 30
0.0
 10
305.1243051109665
 20
-234.1822442749071
 30
0.0
 10
305.1286043414918
 20
-234.0914847976871
 30
0.0
 10
305.1356685275152
 20
-234.0105983448454
 30
0.0
 10
305.1460412042292
 20
-233.9216938753517
 30
0.0
 10
305.1564790035703
 20
-233.8602183524677
 30
0.0
 10
305.1658343177103
 20
-233.8228205835027
 30
0.0
  0
SPLINE
  5
D8
330
1F
100
AcDbEntity
  8
0
  6
Continuous
 62
     7
370
    25
100
AcDbSpline
210
0.0
220
0.0
230
1.0
 70
     8
 71
     3
 72
    21
 73
    17
 74
     0
 42
0.00000001
 43
0.00000001
 40
0.0
 40
0.0
 40
0.0
 40
0.0
 40
0.1238830745189274
 40
0.1847816479827236
 40
0.2456024656876816
 40
0.3070653910745368
 40
0.3692286662508329
 40
0.4320259048597138
 40
0.4970795873926266
 40
0.5618524691217712
 40
0.6254263815420473
 40
0.6876488370376856
 40
0.7497698060396103
 40
0.8110156280184784
 40
0.8733731419104952
 40
1.0
 40
1.0
 40
1.0
 40
1.0
 10
305.1658343177103
 20
-233.8228205835027
 30
0.0
 10
305.1784236196323
 20
-233.7755637353397
 30
0.0
 10
305.2028481714823
 20
-233.7065315453868
 30
0.0
 10
305.2463697046895
 20
-233.6197994730783
 30
0.0
 10
305.2835254469576
 20
-233.5576618308073
 30
0.0
 10
305.3266002295912
 20
-233.4988634578912
 30
0.0
 10
305.3741365866286
 20
-233.4425874230406
 30
0.0
 10
305.4274653800107
 20
-233.389743039369
 30
0.0
 10
305.4847780620164
 20
-233.3396637641357
 30
0.0
 10
305.5463814899427
 20
-233.2944732832715
 30
0.0
 10
305.6098882569145
 20
-233.2539245898716
 30
0.0
 10
305.6766525076778
 20
-233.2213969637905
 30
0.0
 10
305.7441604586078
 20
-233.1927282563771
 30
0.0
 10
305.8145800834097
 20
-233.1718834584387
 30
0.0
 10
305.911217538536
 20
-233.1509926198612
 30
0.0
 10
305.9859513245949
 20
-233.1452977794608
 30
0.0
 10
306.0359264651462
 20
-233.1455369296565
 30
0.0
  0
SPLINE
  5
D9
330
1F
100
AcDbEntity
  8
0
  6
Continuous
 62
     7
370
    25
100
AcDbSpline
210
0.0
220
0.0
230
1.0
 70
     8
 71
     3
 72
    13
 73
     9
 74
     0
 42
0.00000001
 43
0.00000001
 40
0.0
 40
0.0
 40
0.0
 40
0.0
 40
0.2700189621433422
 40
0.3907190350710145
 40
0.5068223535253108
 40
0.6215239708754733
 40
0.7391668368062883
 40
1.0
 40
1.0
 40
1.0
 40
1.0
 10
306.0359264651462
 20
-233.1455369296565
 30
0.0
 10
306.1175778315286
 20
-233.1450727920945
 30
0.0
 10
306.2367095862261
 20
-233.158394139894
 30
0.0
 10
306.3811302763089
 20
-233.2126180569833
 30
0.0
 10
306.4723696870967
 20
-233.2687388611082
 30
0.0
 10
306.5502177644323
 20
-233.3409347458941
 30
0.0
 10
306.6384837823596
 20
-233.462512204098
 30
0.0
 10
306.6781597730565
 20
-233.5721357368212
 30
0.0
 10
306.6956820741206
 20
-233.6489423783745
 30
0.0
  0
SPLINE
  5
DA
330
1F
100
AcDbEntity
  8
0
  6
Continuous
 62
     7
370
    25
100
AcDbSpline
210
0.0
220
0.0
230
1.0
 70
     8
 71
     3
 72
    13
 73
     9
 74
     0
 42
0.00000001
 43
0.00000001
 40
0.0
 40
0.0
 40
0.0
 40
0.0
 40
0.1585173269300097
 40
0.2599203239141793
 40
0.3767455717754218
 40
0.5101743366316037
 40
0.6578903510577022
 40
1.0
 40
1.0
 40
1.0
 40
1.0
 10
306.6956820741206
 20
-233.6489423783745
 30
0.0
 10
306.7027447090013
 20
-233.6789983036684
 30
0.0
 10
306.7112097891042
 20
-233.7289614407539
 30
0.0
 10
306.7185615194098
 20
-233.8019579710182
 30
0.0
 10
306.7243594052067
 20
-233.8701876221318
 30
0.0
 10
306.7283032683134
 20
-233.9475862633652
 30
0.0
 10
306.7322355887965
 20
-234.0688792205601
 30
0.0
 10
306.7323469573654
 20
-234.164270419788
 30
0.0
 10
306.7328415292487
 20
-234.2308734681181
 30
0.0
  0
SPLINE
  5
DE
330
1F
100
AcDbEntity
  8
0
  6
Continuous
 62
     7
370
    25
100
AcDbSpline
210
0.0
220
0.0
230
1.0
 70
     8
 71
     3
 72
    21
 73
    17
 74
     0
 42
0.00000001
 43
0.00000001
 40
0.0
 40
0.0
 40
0.0
 40
0.0
 40
0.1317255445271847
 40
0.1906683746814372
 40
0.2451968850948515
 40
0.2955087738855968
 40
0.3412437630224733
 40
0.3833864553034548
 40
0.4214402664763188
 40
0.4929563843567397
 40
0.5628694745136138
 40
0.6330237453802214
 40
0.7044573558011289
 40
0.776512016199604
 40
0.8488218595336323
 40
1.0
 40
1.0
 40
1.0
 40
1.0
 10
307.0469440933513
 20
-234.1278085642719
 30
0.0
 10
307.0477240458862
 20
-234.0471218610819
 30
0.0
 10
307.0438833009694
 20
-233.9303308936402
 30
0.0
 10
307.0322505331201
 20
-233.7806043165877
 30
0.0
 10
307.0216895683741
 20
-233.6808061248918
 30
0.0
 10
307.0060539963142
 20
-233.5898665369153
 30
0.0
 10
306.9880239082153
 20
-233.5071483830921
 30
0.0
 10
306.9667913629956
 20
-233.4329016414791
 30
0.0
 10
306.9330657701979
 20
-233.346212811055
 30
0.0
 10
306.8818684043612
 20
-233.2484899065298
 30
0.0
 10
306.8055050703475
 20
-233.1431528076849
 30
0.0
 10
306.7131805703219
 20
-233.0515788133032
 30
0.0
 10
306.6080520097832
 20
-232.9729579058491
 30
0.0
 10
306.4914375508928
 20
-232.9098004225725
 30
0.0
 10
306.3208657506669
 20
-232.8470486146126
 30
0.0
 10
306.1829896106534
 20
-232.8320461407219
 30
0.0
 10
306.0906139651462
 20
-232.831434365554
 30
0.0
  0
SPLINE
  5
DF
330
1F
100
AcDbEntity
  8
0
  6
Continuous
 62
     7
370
    25
100
AcDbSpline
210
0.0
220
0.0
230
1.0
 70
     8
 71
     3
 72
    13
 73
     9
 74
     0
 42
0.00000001
 43
0.00000001
 40
0.0
 40
0.0
 40
0.0
 40
0.0
 40
0.2434110992594086
 40
0.3618899784752549
 40
0.4800702186075569
 40
0.6010116861957548
 40
0.7264312190368567
 40
1.0
 40
1.0
 40
1.0
 40
1.0
 10
306.0906139651461
 20
-232.8314343655539
 30
0.0
 10
305.9981642870326
 20
-232.8319106060203
 30
0.0
 10
305.8601304930711
 20
-232.8454383353539
 30
0.0
 10
305.684628564186
 20
-232.8970289346343
 30
0.0
 10
305.5590000812368
 20
-232.9498201777715
 30
0.0
 10
305.4390275351128
 20
-233.0199556171515
 30
0.0
 10
305.2817084960762
 20
-233.1405164364701
 30
0.0
 10
305.1808137180857
 20
-233.2554370395545
 30
0.0
 10
305.1174569138641
 20
-233.3376443014514
 30
0.0
  0
SPLINE
  5
E7
330
1F
100
AcDbEntity
  8
0
  6
Continuous
 62
     7
370
    25
100
AcDbSpline
210
0.0
220
0.0
230
1.0
 70
     8
 71
     3
 72
    13
 73
     9
 74
     0
 42
0.00000001
 43
0.00000001
 40
0.0
 40
0.0
 40
0.0
 40
0.0
 40
0.238914995222121
 40
0.3595568481745748
 40
0.4866347668473452
 40
0.6157867870574896
 40
0.7433385965465285
 40
1.0
 40
1.0
 40
1.0
 40
1.0
 10
303.5918158882231
 20
-232.0700160963232
 30
0.0
 10
303.5917820362795
 20
-232.1049197601756
 30
0.0
 10
303.6029743055695
 20
-232.1574916915163
 30
0.0
 10
303.6392572802698
 20
-232.2191229578123
 30
0.0
 10
303.6764384990594
 20
-232.2600782400233
 30
0.0
 10
303.7211146987161
 20
-232.2942641306962
 30
0.0
 10
303.7881724011155
 20
-232.3286647131619
 30
0.0
 10
303.8446800599107
 20
-232.3380798077449
 30
0.0
 10
303.8820803113001
 20
-232.3378446219642
 30
0.0
  0
SPLINE
  5
E8
330
1F
100
AcDbEntity
  8
0
  6
Continuous
 62
     7
370
    25
100
AcDbSpline
210
0.0
220
0.0
230
1.0
 70
     8
 71
     3
 72
    13
 73
     9
 74
     0
 42
0.00000001
 43
0.00000001
 40
0.0
 40
0.0
 40
0.0
 40
0.0
 40
0.2598496298712551
 40
0.3866707319148489
 40
0.5150828775346824
 40
0.6425029490726124
 40
0.7624536797231306
 40
1.0
 40
1.0
 40
1.0
 40
1.0
 10
303.8820803113001
 20
-232.3378446219642
 30
0.0
 10
303.9200762392651
 20
-232.3377689826737
 30
0.0
 10
303.9774839007734
 20
-232.3290751241351
 30
0.0
 10
304.0451829946825
 20
-232.2942774191393
 30
0.0
 10
304.0898021825155
 20
-232.2598516276622
 30
0.0
 10
304.1277514887597
 20
-232.2193712329162
 30
0.0
 10
304.1639109246476
 20
-232.1574195127533
 30
0.0
 10
304.175223516343
 20
-232.1049563041212
 30
0.0
 10
304.1751492215564
 20
-232.0700160963232
 30
0.0
  0
SPLINE
  5
E9
330
1F
100
AcDbEntity
  8
0
  6
Continuous
 62
     7
370
    25
100
AcDbSpline
210
0.0
220
0.0
230
1.0
 70
     8
 71
     3
 72
    13
 73
     9
 74
     0
 42
0.00000001
 43
0.00000001
 40
0.0
 40
0.0
 40
0.0
 40
0.0
 40
0.2407702368354516
 40
0.3613679915789214
 40
0.4880203848743633
 40
0.615658875220944
 40
0.7417159076830961
 40
1.0
 40
1.0
 40
1.0
 40
1.0
 10
304.1751492215564
 20
-232.0700160963232
 30
0.0
 10
304.1753503763713
 20
-232.0343586670172
 30
0.0
 10
304.1639834148826
 20
-231.9810581686055
 30
0.0
 10
304.1279796370066
 20
-231.9179506202467
 30
0.0
 10
304.0897776348793
 20
-231.8773910552774
 30
0.0
 10
304.0451894692435
 20
-231.8429463359448
 30
0.0
 10
303.977479486048
 20
-231.8081552749284
 30
0.0
 10
303.9200785459311
 20
-231.7994573154061
 30
0.0
 10
303.8820803113001
 20
-231.7993830835027
 30
0.0
  0
SPLINE
  5
EA
330
1F
100
AcDbEntity
  8
0
  6
Continuous
 62
     7
370
    25
100
AcDbSpline
210
0.0
220
0.0
230
1.0
 70
     8
 71
     3
 72
    13
 73
     9
 74
     0
 42
0.00000001
 43
0.00000001
 40
0.0
 40
0.0
 40
0.0
 40
0.0
 40
0.2551062187428433
 40
0.3818851554069804
 40
0.5102546066586644
 40
0.6365625239462668
 40
0.7578509186659793
 40
1.0
 40
1.0
 40
1.0
 40
1.0
 10
303.8820803113001
 20
-231.7993830835027
 30
0.0
 10
303.8446777705264
 20
-231.7991464951921
 30
0.0
 10
303.7881767821897
 20
-231.8085656762527
 30
0.0
 10
303.7211081632865
 20
-231.842959571015
 30
0.0
 10
303.6764631713071
 20
-231.8771645802351
 30
0.0
 10
303.6390316386925
 20
-231.9182008933118
 30
0.0
 10
303.602899903876
 20
-231.980984198175
 30
0.0
 10
303.5916567242667
 20
-232.034396642847
 30
0.0
 10
303.5918158882231
 20
-232.0700160963232
 30
0.0
  0
SPLINE
  5
EB
330
1F
100
AcDbEntity
  8
0
  6
Continuous
 62
     7
370
    25
100
AcDbSpline
210
0.0
220
0.0
230
1.0
 70
     8
 71
     3
 72
    13
 73
     9
 74
     0
 42
0.00000001
 43
0.00000001
 40
0.0
 40
0.0
 40
0.0
 40
0.0
 40
0.2537592050616272
 40
0.3772863205702205
 40
0.4989121128148777
 40
0.621321404021441
 40
0.7447622750750819
 40
1.0
 40
1.0
 40
1.0
 40
1.0
 10
299.5000690933513
 20
-233.2549119296565
 30
0.0
 10
299.4436557934661
 20
-233.3174228278513
 30
0.0
 10
299.3659573055244
 20
-233.4165381640986
 30
0.0
 10
299.2848020309953
 20
-233.5612911110476
 30
0.0
 10
299.2352536797601
 20
-233.673022836203
 30
0.0
 10
299.1965629639324
 20
-233.7889535324637
 30
0.0
 10
299.1595500783081
 20
-233.9514644210259
 30
0.0
 10
299.1500024626648
 20
-234.0774567348874
 30
0.0
 10
299.1495081959154
 20
-234.1621635322206
 30
0.0
  0
SPLINE
  5
EC
330
1F
100
AcDbEntity
  8
0
  6
Continuous
 62
     7
370
    25
100
AcDbSpline
210
0.0
220
0.0
230
1.0
 70
     8
 71
     3
 72
    21
 73
    17
 74
     0
 42
0.00000001
 43
0.00000001
 40
0.0
 40
0.0
 40
0.0
 40
0.0
 40
0.1231816483428065
 40
0.1830343363247356
 40
0.2428661924761517
 40
0.3025168847059374
 40
0.3633154622039051
 40
0.4250692989986619
 40
0.4890423674851584
 40
0.5530871422752301
 40
0.6154454653923769
 40
0.6772864118409814
 40
0.7391749874395654
 40
0.8016758129328364
 40
0.8653648077757128
 40
1.0
 40
1.0
 40
1.0
 40
1.0
 10
299.1495081959155
 20
-234.1621635322207
 30
0.0
 10
299.1490012885299
 20
-234.2477309493477
 30
0.0
 10
299.1607106355517
 20
-234.3748518422805
 30
0.0
 10
299.1993422332511
 20
-234.539240632427
 30
0.0
 10
299.2401248628224
 20
-234.657099454625
 30
0.0
 10
299.2924962558832
 20
-234.7709821144674
 30
0.0
 10
299.3563829753663
 20
-234.8803922180295
 30
0.0
 10
299.4322569779126
 20
-234.9855422411763
 30
0.0
 10
299.5182553081898
 20
-235.0855522504194
 30
0.0
 10
299.6133273589961
 20
-235.1776879918712
 30
0.0
 10
299.716527285676
 20
-235.2582488560732
 30
0.0
 10
299.8263136747997
 20
-235.3268579353636
 30
0.0
 10
299.9434589430423
 20
-235.3821622454489
 30
0.0
 10
300.0666859388915
 20
-235.4259926973304
 30
0.0
 10
300.2432044168969
 20
-235.4679520777179
 30
0.0
 10
300.3812227718883
 20
-235.4784481703906
 30
0.0
 10
300.4746283882232
 20
-235.4788702629899
 30
0.0
  0
SPLINE
  5
ED
330
1F
100
AcDbEntity
  8
0
  6
Continuous
 62
     7
370
    25
100
AcDbSpline
210
0.0
220
0.0
230
1.0
 70
     8
 71
     3
 72
    21
 73
    17
 74
     0
 42
0.00000001
 43
0.00000001
 40
0.0
 40
0.0
 40
0.0
 40
0.0
 40
0.1341341587220161
 40
0.1979034644236232
 40
0.2604831025120551
 40
0.322145528691645
 40
0.3837784671889146
 40
0.4462154232078822
 40
0.5103409574898143
 40
0.5743946950476078
 40
0.6362264024960803
 40
0.6971016460802459
 40
0.7568275569302765
 40
0.8167348601469098
 40
0.8766630214626645
 40
1.0
 40
1.0
 40
1.0
 40
1.0
 10
300.4746283882232
 20
-235.4788702629899
 30
0.0
 10
300.5675784376098
 20
-235.4785062974359
 30
0.0
 10
300.7051057344274
 20
-235.4678294132277
 30
0.0
 10
300.8811608961278
 20
-235.4259775741581
 30
0.0
 10
301.0042269225951
 20
-235.3823061016788
 30
0.0
 10
301.1208706578141
 20
-235.3268596546747
 30
0.0
 10
301.2300245942693
 20
-235.2580408103787
 30
0.0
 10
301.3331407510299
 20
-235.1777118095709
 30
0.0
 10
301.4281926943188
 20
-235.0855457968279
 30
0.0
 10
301.5141964158279
 20
-234.9855439039299
 30
0.0
 10
301.5900690272269
 20
-234.8803917864508
 30
0.0
 10
301.6539561080778
 20
-234.7709822269175
 30
0.0
 10
301.7063274065324
 20
-234.6570994246481
 30
0.0
 10
301.7471100613309
 20
-234.5392406404287
 30
0.0
 10
301.7857416500607
 20
-234.3748518367793
 30
0.0
 10
301.7974510026243
 20
-234.2477309521889
 30
0.0
 10
301.7969440933513
 20
-234.1621635322206
 30
0.0
  0
SPLINE
  5
EE
330
1F
100
AcDbEntity
  8
0
  6
Continuous
 62
     7
370
    25
100
AcDbSpline
210
0.0
220
0.0
230
1.0
 70
     8
 71
     3
 72
    13
 73
     9
 74
     0
 42
0.00000001
 43
0.00000001
 40
0.0
 40
0.0
 40
0.0
 40
0.0
 40
0.2554352550956507
 40
0.3786322712675285
 40
0.5014663143320801
 40
0.6234943774777691
 40
0.7461656372032575
 40
1.0
 40
1.0
 40
1.0
 40
1.0
 10
301.7969440933513
 20
-234.1621635322206
 30
0.0
 10
301.7964697045572
 20
-234.0772266856358
 30
0.0
 10
301.7869858958322
 20
-233.9509847227069
 30
0.0
 10
301.7497939132514
 20
-233.7880454229876
 30
0.0
 10
301.7111517438018
 20
-233.6716642215644
 30
0.0
 10
301.6620476689588
 20
-233.5594457155865
 30
0.0
 10
301.5798082689705
 20
-233.4150849248406
 30
0.0
 10
301.5034142056514
 20
-233.3151464846491
 30
0.0
 10
301.4463831959154
 20
-233.2528085642719
 30
0.0
  0
SPLINE
  5
EF
330
1F
100
AcDbEntity
  8
0
  6
Continuous
 62
     7
370
    25
100
AcDbSpline
210
0.0
220
0.0
230
1.0
 70
     8
 71
     3
 72
    13
 73
     9
 74
     0
 42
0.00000001
 43
0.00000001
 40
0.0
 40
0.0
 40
0.0
 40
0.0
 40
0.2531294102724422
 40
0.3753070134590528
 40
0.4961956083999233
 40
0.6178660239074865
 40
0.7416676494858627
 40
1.0
 40
1.0
 40
1.0
 40
1.0
 10
301.4463831959154
 20
-233.2528085642719
 30
0.0
 10
301.3842247119248
 20
-233.1848719591206
 30
0.0
 10
301.2826094059845
 20
-233.092149834039
 30
0.0
 10
301.1302454083302
 20
-232.9946035030305
 30
0.0
 10
301.0118657642007
 20
-232.9338752901391
 30
0.0
 10
300.8860698506076
 20
-232.8886693779401
 30
0.0
 10
300.7079447221533
 20
-232.844025406806
 30
0.0
 10
300.5687185495321
 20
-232.8304597249564
 30
0.0
 10
300.4746283882232
 20
-232.831434365554
 30
0.0
  0
SPLINE
  5
F0
330
1F
100
AcDbEntity
  8
0
  6
Continuous
 62
     7
370
    25
100
AcDbSpline
210
0.0
220
0.0
230
1.0
 70
     8
 71
     3
 72
    13
 73
     9
 74
     0
 42
0.00000001
 43
0.00000001
 40
0.0
 40
0.0
 40
0.0
 40
0.0
 40
0.2587123826907272
 40
0.3820894432541502
 40
0.5035635736272883
 40
0.6251808674329444
 40
0.7472870144845403
 40
1.0
 40
1.0
 40
1.0
 40
1.0
 10
300.4746283882232
 20
-232.831434365554
 30
0.0
 10
300.3800610809995
 20
-232.8305710098344
 30
0.0
 10
300.2404351172364
 20
-232.8440564312183
 30
0.0
 10
300.0615864963252
 20
-232.8884025601585
 30
0.0
 10
299.9358918152413
 20
-232.9351742105946
 30
0.0
 10
299.8162104771083
 20
-232.9947055851917
 30
0.0
 10
299.6642082504702
 20
-233.0942259975596
 30
0.0
 10
299.5616877822795
 20
-233.1860671119719
 30
0.0
 10
299.5000690933513
 20
-233.2549119296565
 30
0.0
  0
SPLINE
  5
F3
330
1F
100
AcDbEntity
  8
0
  6
Continuous
 62
     7
370
    25
100
AcDbSpline
210
0.0
220
0.0
230
1.0
 70
     8
 71
     3
 72
    13
 73
     9
 74
     0
 42
0.00000001
 43
0.00000001
 40
0.0
 40
0.0
 40
0.0
 40
0.0
 40
0.2620026798763709
 40
0.3865990120013588
 40
0.5078842295733399
 40
0.6287697964347251
 40
0.7494522178424403
 40
1.0
 40
1.0
 40
1.0
 40
1.0
 10
296.2328415292488
 20
-234.9705569617078
 30
0.0
 10
296.3003828585561
 20
-235.05069623783
 30
0.0
 10
296.409415466249
 20
-235.1618816043279
 30
0.0
 10
296.5744785252401
 20
-235.2813817110487
 30
0.0
 10
296.7026108567529
 20
-235.3536837011609
 30
0.0
 10
296.8368123779865
 20
-235.4103016698352
 30
0.0
 10
297.0271367574305
 20
-235.4628669826222
 30
0.0
 10
297.1756405518995
 20
-235.4800301758695
 30
0.0
 10
297.276110760018
 20
-235.4788702629899
 30
0.0
  0
SPLINE
  5
F4
330
1F
100
AcDbEntity
  8
0
  6
Continuous
 62
     7
370
    25
100
AcDbSpline
210
0.0
220
0.0
230
1.0
 70
     8
 71
     3
 72
    21
 73
    17
 74
     0
 42
0.00000001
 43
0.00000001
 40
0.0
 40
0.0
 40
0.0
 40
0.0
 40
0.1277002390699239
 40
0.1892398000966921
 40
0.2501349882873197
 40
0.3108427100868695
 40
0.3724720907317245
 40
0.4350506334534594
 40
0.499654438625884
 40
0.5642374836643588
 40
0.6267499200713622
 40
0.6882667786363722
 40
0.7494201652676089
 40
0.8104262745821115
 40
0.8719658356088827
 40
1.0
 40
1.0
 40
1.0
 40
1.0
 10
297.276110760018
 20
-235.4788702629899
 30
0.0
 10
297.3653583708946
 20
-235.478547546182
 30
0.0
 10
297.4978871775319
 20
-235.4672433539115
 30
0.0
 10
297.6681743044003
 20
-235.4262925689389
 30
0.0
 10
297.7894488921571
 20
-235.3844421871576
 30
0.0
 10
297.9051213387928
 20
-235.3288480658218
 30
0.0
 10
298.016180192248
 20
-235.2623097309589
 30
0.0
 10
298.1220576860305
 20
-235.1830708249515
 30
0.0
 10
298.2211106809079
 20
-235.0924717435377
 30
0.0
 10
298.3124115699826
 20
-234.9941187842717
 30
0.0
 10
298.3922989005696
 20
-234.8889250853275
 30
0.0
 10
298.4600003148415
 20
-234.7783187286331
 30
0.0
 10
298.5156534324073
 20
-234.6623349174125
 30
0.0
 10
298.5586682364253
 20
-234.5410582542626
 30
0.0
 10
298.5993226053582
 20
-234.3703375508475
 30
0.0
 10
298.6108434181286
 20
-234.2376503465467
 30
0.0
 10
298.6110466574539
 20
-234.1481410963232
 30
0.0
  0
SPLINE
  5
F5
330
1F
100
AcDbEntity
  8
0
  6
Continuous
 62
     7
370
    25
100
AcDbSpline
210
0.0
220
0.0
230
1.0
 70
     8
 71
     3
 72
    21
 73
    17
 74
     0
 42
0.00000001
 43
0.00000001
 40
0.0
 40
0.0
 40
0.0
 40
0.0
 40
0.1260146004816695
 40
0.1868089060952259
 40
0.2474478502843969
 40
0.3078464959917216
 40
0.3691210183050212
 40
0.4319903131536349
 40
0.4967149000659561
 40
0.5615019172671406
 40
0.6247727207665976
 40
0.6865537243536242
 40
0.7478749627318731
 40
0.8093470980883618
 40
0.8713639494369065
 40
1.0
 40
1.0
 40
1.0
 40
1.0
 10
298.6110466574539
 20
-234.1481410963232
 30
0.0
 10
298.6105335827405
 20
-234.0603204782668
 30
0.0
 10
298.5997886887008
 20
-233.9297142924402
 30
0.0
 10
298.5578144546394
 20
-233.7619688135727
 30
0.0
 10
298.5142450656459
 20
-233.642651212628
 30
0.0
 10
298.4585643503835
 20
-233.5280586855852
 30
0.0
 10
298.3896952877462
 20
-233.4190962147161
 30
0.0
 10
298.30984831809
 20
-233.3140738903998
 30
0.0
 10
298.2175271674582
 20
-233.2164455836783
 30
0.0
 10
298.1176109285822
 20
-233.1262136148292
 30
0.0
 10
298.0106973544883
 20
-233.0478067571589
 30
0.0
 10
297.8994753733002
 20
-232.9800921377248
 30
0.0
 10
297.7822118565695
 20
-232.9264277508827
 30
0.0
 10
297.6606454981934
 20
-232.8830602471638
 30
0.0
 10
297.4892114041858
 20
-232.8422922265671
 30
0.0
 10
297.3559277855667
 20
-232.8323324877873
 30
0.0
 10
297.2662950548898
 20
-232.831434365554
 30
0.0
  0
SPLINE
  5
F6
330
1F
100
AcDbEntity
  8
0
  6
Continuous
 62
     7
370
    25
100
AcDbSpline
210
0.0
220
0.0
230
1.0
 70
     8
 71
     3
 72
    13
 73
     9
 74
     0
 42
0.00000001
 43
0.00000001
 40
0.0
 40
0.0
 40
0.0
 40
0.0
 40
0.2538522779533845
 40
0.3748219688613174
 40
0.4942293474545253
 40
0.613938917735668
 40
0.7369553172388357
 40
1.0
 40
1.0
 40
1.0
 40
1.0
 10
297.2662950548898
 20
-232.831434365554
 30
0.0
 10
297.1645743913438
 20
-232.831755812532
 30
0.0
 10
297.013496672703
 20
-232.8448065814486
 30
0.0
 10
296.8222615126332
 20
-232.8989557829508
 30
0.0
 10
296.6878283056731
 20
-232.9527195400746
 30
0.0
 10
296.5607125353279
 20
-233.0241491045744
 30
0.0
 10
296.3994344567052
 20
-233.1483203453546
 30
0.0
 10
296.2950067645918
 20
-233.2642539242075
 30
0.0
 10
296.2328415292488
 20
-233.3495633719642
 30
0.0
  0
SPLINE
  5
106
330
1F
100
AcDbEntity
  8
0
  6
Continuous
 62
     7
370
    25
100
AcDbSpline
210
0.0
220
0.0
230
1.0
 70
     8
 71
     3
 72
    21
 73
    17
 74
     0
 42
0.00000001
 43
0.00000001
 40
0.0
 40
0.0
 40
0.0
 40
0.0
 40
0.1276691474530052
 40
0.1889505232706891
 40
0.2490548673082685
 40
0.3090713134762864
 40
0.3692223593686976
 40
0.4301747620269822
 40
0.4926019887959958
 40
0.555346876893582
 40
0.6169627615204649
 40
0.6781707771923574
 40
0.7392465225515183
 40
0.8016089422160472
 40
0.8655244124565514
 40
1.0
 40
1.0
 40
1.0
 40
1.0
 10
291.6019320741204
 20
-235.1647676988873
 30
0.0
 10
291.5389209197364
 20
-235.1651173831903
 30
0.0
 10
291.4457926688437
 20
-235.1563984185289
 30
0.0
 10
291.3258106037711
 20
-235.1293319585481
 30
0.0
 10
291.2410383287116
 20
-235.1002608874711
 30
0.0
 10
291.160140376038
 20
-235.0630716252797
 30
0.0
 10
291.0832467738155
 20
-235.0172685505401
 30
0.0
 10
291.0109640445016
 20
-234.9626160860244
 30
0.0
 10
290.9422569145288
 20
-234.9015555140533
 30
0.0
 10
290.8805313357227
 20
-234.8329883275099
 30
0.0
 10
290.8251913426051
 20
-234.7599504022641
 30
0.0
 10
290.7788072461678
 20
-234.6817883938857
 30
0.0
 10
290.74093433166
 20
-234.598858146846
 30
0.0
 10
290.7096885667084
 20
-234.5117755670982
 30
0.0
 10
290.6794080360354
 20
-234.38656227585
 30
0.0
 10
290.6705276896158
 20
-234.2887060175885
 30
0.0
 10
290.6687389651461
 20
-234.2224600065796
 30
0.0
  0
SPLINE
  5
108
330
1F
100
AcDbEntity
  8
0
  6
Continuous
 62
     7
370
    25
100
AcDbSpline
210
0.0
220
0.0
230
1.0
 70
     8
 71
     3
 72
    13
 73
     9
 74
     0
 42
0.00000001
 43
0.00000001
 40
0.0
 40
0.0
 40
0.0
 40
0.0
 40
0.2703816178319662
 40
0.3984601291782963
 40
0.5227503451014313
 40
0.6438255660090861
 40
0.7637452368382611
 40
1.0
 40
1.0
 40
1.0
 40
1.0
 10
292.9572005036076
 20
-234.2224600065796
 30
0.0
 10
292.9556110389533
 20
-234.1372003650962
 30
0.0
 10
292.9482500054513
 20
-234.0112180257372
 30
0.0
 10
292.9176485220264
 20
-233.8488619072871
 30
0.0
 10
292.886638388966
 20
-233.7350355566521
 30
0.0
 10
292.8482616112968
 20
-233.6261538228591
 30
0.0
 10
292.7846508433026
 20
-233.4893678009685
 30
0.0
 10
292.7247418029165
 20
-233.3937286376212
 30
0.0
 10
292.6788551510435
 20
-233.3348398142719
 30
0.0
  0
SPLINE
  5
109
330
1F
100
AcDbEntity
  8
0
  6
Continuous
 62
     7
370
    25
100
AcDbSpline
210
0.0
220
0.0
230
1.0
 70
     8
 71
     3
 72
    13
 73
     9
 74
     0
 42
0.00000001
 43
0.00000001
 40
0.0
 40
0.0
 40
0.0
 40
0.0
 40
0.2552573681410134
 40
0.3772478104725095
 40
0.4977415562850152
 40
0.6181201760749655
 40
0.7409671592206004
 40
1.0
 40
1.0
 40
1.0
 40
1.0
 10
292.6788551510436
 20
-233.3348398142719
 30
0.0
 10
292.6174680073502
 20
-233.2541797016727
 30
0.0
 10
292.5140250932121
 20
-233.1445400112508
 30
0.0
 10
292.3557499174196
 20
-233.0254692259495
 30
0.0
 10
292.2300804058441
 20
-232.9542574792418
 30
0.0
 10
292.0962360603374
 20
-232.8991718477525
 30
0.0
 10
291.9036429971852
 20
-232.8458825975931
 30
0.0
 10
291.751734736457
 20
-232.8310023919724
 30
0.0
 10
291.6489072343768
 20
-232.831434365554
 30
0.0
  0
SPLINE
  5
10A
330
1F
100
AcDbEntity
  8
0
  6
Continuous
 62
     7
370
    25
100
AcDbSpline
210
0.0
220
0.0
230
1.0
 70
     8
 71
     3
 72
    13
 73
     9
 74
     0
 42
0.00000001
 43
0.00000001
 40
0.0
 40
0.0
 40
0.0
 40
0.0
 40
0.2602406645594619
 40
0.3836752253641815
 40
0.5046599577621917
 40
0.6253567426858135
 40
0.7464106650135074
 40
1.0
 40
1.0
 40
1.0
 40
1.0
 10
291.6489072343768
 20
-232.831434365554
 30
0.0
 10
291.5494510232602
 20
-232.8326329457403
 30
0.0
 10
291.4015752262844
 20
-232.8436617965997
 30
0.0
 10
291.2150292003136
 20
-232.896156199488
 30
0.0
 10
291.0846877655899
 20
-232.9477887292042
 30
0.0
 10
290.9631107425584
 20
-233.0158282745688
 30
0.0
 10
290.808448590579
 20
-233.1265908015442
 30
0.0
 10
290.7096806151726
 20
-233.232472636914
 30
0.0
 10
290.6491075548897
 20
-233.3081971860668
 30
0.0
  0
SPLINE
  5
10B
330
1F
100
AcDbEntity
  8
0
  6
Continuous
 62
     7
370
    25
100
AcDbSpline
210
0.0
220
0.0
230
1.0
 70
     8
 71
     3
 72
    13
 73
     9
 74
     0
 42
0.00000001
 43
0.00000001
 40
0.0
 40
0.0
 40
0.0
 40
0.0
 40
0.2534216680664996
 40
0.3767041167575217
 40
0.4994491585174682
 40
0.6225715734187214
 40
0.7462320999755199
 40
1.0
 40
1.0
 40
1.0
 40
1.0
 10
290.6491075548897
 20
-233.3081971860668
 30
0.0
 10
290.6015562923951
 20
-233.3696890098922
 30
0.0
 10
290.5363924596665
 20
-233.4657582811725
 30
0.0
 10
290.4682196833098
 20
-233.6032693174042
 30
0.0
 10
290.426640581589
 20
-233.7088095671222
 30
0.0
 10
290.3944931488621
 20
-233.8176972589376
 30
0.0
 10
290.3628657693048
 20
-233.9682409698969
 30
0.0
 10
290.3555896892486
 20
-234.0843698300615
 30
0.0
 10
290.3546364010435
 20
-234.1621635322206
 30
0.0
  0
SPLINE
  5
10C
330
1F
100
AcDbEntity
  8
0
  6
Continuous
 62
     7
370
    25
100
AcDbSpline
210
0.0
220
0.0
230
1.0
 70
     8
 71
     3
 72
    21
 73
    17
 74
     0
 42
0.00000001
 43
0.00000001
 40
0.0
 40
0.0
 40
0.0
 40
0.0
 40
0.1210804245006244
 40
0.1800682782218581
 40
0.2391896643238633
 40
0.2987059533012294
 40
0.3588810785072508
 40
0.4203687292950803
 40
0.4834483096802283
 40
0.546566484902941
 40
0.6086986022254455
 40
0.6701862530132751
 40
0.7318650366033289
 40
0.7952033026033429
 40
0.8603707753071409
 40
1.0
 40
1.0
 40
1.0
 40
1.0
 10
290.3546364010435
 20
-234.1621635322207
 30
0.0
 10
290.3555511282809
 20
-234.2451861725707
 30
0.0
 10
290.3643307525802
 20
-234.3690379795585
 30
0.0
 10
290.400412036853
 20
-234.5294851237881
 30
0.0
 10
290.4387874337669
 20
-234.645347499272
 30
0.0
 10
290.4863480136138
 20
-234.7586184329838
 30
0.0
 10
290.5448032723131
 20
-234.8685815491843
 30
0.0
 10
290.6147296915007
 20
-234.9745374504637
 30
0.0
 10
290.6939734105154
 20
-235.0762194534364
 30
0.0
 10
290.7819976560394
 20
-235.1712356967592
 30
0.0
 10
290.8808172008463
 20
-235.2533686924194
 30
0.0
 10
290.9873179455424
 20
-235.3233254408686
 30
0.0
 10
291.1020606240452
 20
-235.3807630679569
 30
0.0
 10
291.2252706762691
 20
-235.4246887417435
 30
0.0
 10
291.4045025193004
 20
-235.4678350970472
 30
0.0
 10
291.5454242146389
 20
-235.4788313800883
 30
0.0
 10
291.6411948946333
 20
-235.4788702629899
 30
0.0
  0
SPLINE
  5
10D
330
1F
100
AcDbEntity
  8
0
  6
Continuous
 62
     7
370
    25
100
AcDbSpline
210
0.0
220
0.0
230
1.0
 70
     8
 71
     3
 72
    17
 73
    13
 74
     0
 42
0.00000001
 43
0.00000001
 40
0.0
 40
0.0
 40
0.0
 40
0.0
 40
0.1781058515637411
 40
0.2613277635121448
 40
0.3415565694705787
 40
0.4200079090126463
 40
0.4980968161626106
 40
0.5754001382821131
 40
0.6536452159657025
 40
0.734125772957381
 40
0.8183392339290092
 40
1.0
 40
1.0
 40
1.0
 40
1.0
 10
291.6411948946333
 20
-235.4788702629899
 30
0.0
 10
291.7274886863911
 20
-235.4788591028155
 30
0.0
 10
291.854365168161
 20
-235.4702048817837
 30
0.0
 10
292.0167484407371
 20
-235.4368791836563
 30
0.0
 10
292.1290470902789
 20
-235.4025009488792
 30
0.0
 10
292.2348969067058
 20
-235.3577402571817
 30
0.0
 10
292.3351862222211
 20
-235.3046241751559
 30
0.0
 10
292.4299168092326
 20
-235.2422846581808
 30
0.0
 10
292.5195944152611
 20
-235.1710377087056
 30
0.0
 10
292.604667408003
 20
-235.0892912905239
 30
0.0
 10
292.711613292111
 20
-234.9595291358032
 30
0.0
 10
292.7810842828709
 20
-234.85053325008
 30
0.0
 10
292.8225851189922
 20
-234.772840615554
 30
0.0
  0
SPLINE
  5
10F
330
1F
100
AcDbEntity
  8
0
  6
Continuous
 62
     7
370
    25
100
AcDbSpline
210
0.0
220
0.0
230
1.0
 70
     8
 71
     3
 72
    17
 73
    13
 74
     0
 42
0.00000001
 43
0.00000001
 40
0.0
 40
0.0
 40
0.0
 40
0.0
 40
0.207935033903388
 40
0.2946939715679356
 40
0.3697315241424738
 40
0.4408309438027217
 40
0.514250914046082
 40
0.5913900390896938
 40
0.6722743046458908
 40
0.7543412603704936
 40
0.8361211059015248
 40
1.0
 40
1.0
 40
1.0
 40
1.0
 10
292.5435386446332
 20
-234.6263061604258
 30
0.0
 10
292.5010139186305
 20
-234.6928536443289
 30
0.0
 10
292.4338981489602
 20
-234.7824841097802
 30
0.0
 10
292.3404003599595
 20
-234.8873030414094
 30
0.0
 10
292.2743485201259
 20
-234.9463243665425
 30
0.0
 10
292.2062269012378
 20
-234.9945307243114
 30
0.0
 10
292.1333479572524
 20
-235.0366818663741
 30
0.0
 10
292.0541020589215
 20
-235.0747823788594
 30
0.0
 10
291.9685312471703
 20
-235.1063676095458
 30
0.0
 10
291.8792705039067
 20
-235.1322258863365
 30
0.0
 10
291.7574222104344
 20
-235.1577454683627
 30
0.0
 10
291.6641259780603
 20
-235.1650685296365
 30
0.0
 10
291.6019320741204
 20
-235.1647676988873
 30
0.0
  0
SPLINE
  5
111
330
1F
100
AcDbEntity
  8
0
  6
Continuous
 62
     7
370
    25
100
AcDbSpline
210
0.0
220
0.0
230
1.0
 70
     8
 71
     3
 72
    13
 73
     9
 74
     0
 42
0.00000001
 43
0.00000001
 40
0.0
 40
0.0
 40
0.0
 40
0.0
 40
0.2618944458316638
 40
0.3852022807005373
 40
0.504744748182387
 40
0.6239854458062921
 40
0.745346469102713
 40
1.0
 40
1.0
 40
1.0
 40
1.0
 10
284.0725851189923
 20
-233.3495633719642
 30
0.0
 10
284.010655164479
 20
-233.2646055002966
 30
0.0
 10
283.9073857662269
 20
-233.1475389248639
 30
0.0
 10
283.7454627653759
 20
-233.0243847843911
 30
0.0
 10
283.6183262157084
 20
-232.9526939680651
 30
0.0
 10
283.4836631404809
 20
-232.8988323348069
 30
0.0
 10
283.2916653643081
 20
-232.8448534004475
 30
0.0
 10
283.1399220331892
 20
-232.8317333353688
 30
0.0
 10
283.0377293497615
 20
-232.831434365554
 30
0.0
  0
SPLINE
  5
112
330
1F
100
AcDbEntity
  8
0
  6
Continuous
 62
     7
370
    25
100
AcDbSpline
210
0.0
220
0.0
230
1.0
 70
     8
 71
     3
 72
    21
 73
    17
 74
     0
 42
0.00000001
 43
0.00000001
 40
0.0
 40
0.0
 40
0.0
 40
0.0
 40
0.1283692574311726
 40
0.1904177088601108
 40
0.251921166742233
 40
0.3132736507580846
 40
0.3750861342515345
 40
0.4383891767704412
 40
0.5032092055629043
 40
0.5679667722557986
 40
0.6308681015390163
 40
0.6919966438355536
 40
0.7524260650823917
 40
0.8130959072527976
 40
0.8739211900104932
 40
1.0
 40
1.0
 40
1.0
 40
1.0
 10
283.0377293497615
 20
-232.831434365554
 30
0.0
 10
282.9483161174707
 20
-232.8322319872129
 30
0.0
 10
282.8152919965368
 20
-232.8423753910551
 30
0.0
 10
282.6440793622643
 20
-232.8830548754792
 30
0.0
 10
282.5225137821069
 20
-232.9264291399752
 30
0.0
 10
282.4052503656598
 20
-232.9800919144016
 30
0.0
 10
282.294027190632
 20
-233.0478062437783
 30
0.0
 10
282.1871184446349
 20
-233.1262159846176
 30
0.0
 10
282.0871836238762
 20
-233.2164364091042
 30
0.0
 10
281.9949314335605
 20
-233.3141076780666
 30
0.0
 10
281.9149115226022
 20
-233.4188770961344
 30
0.0
 10
281.846986263632
 20
-233.5282810025065
 30
0.0
 10
281.7911339173068
 20
-233.6426215003064
 30
0.0
 10
281.7476249502205
 20
-233.7619767654551
 30
0.0
 10
281.7056291192114
 20
-233.9297087817907
 30
0.0
 10
281.6948976443185
 20
-234.0603233324888
 30
0.0
 10
281.6943799907872
 20
-234.1481410963232
 30
0.0
  0
SPLINE
  5
113
330
1F
100
AcDbEntity
  8
0
  6
Continuous
 62
     7
370
    25
100
AcDbSpline
210
0.0
220
0.0
230
1.0
 70
     8
 71
     3
 72
    21
 73
    17
 74
     0
 42
0.00000001
 43
0.00000001
 40
0.0
 40
0.0
 40
0.0
 40
0.0
 40
0.1280988297755846
 40
0.1896694721890519
 40
0.2507063934632476
 40
0.3118906664385961
 40
0.3732647830705181
 40
0.4358087922280719
 40
0.5004244558059605
 40
0.5650608900029848
 40
0.6276710388631787
 40
0.6893315462593187
 40
0.7500699293139487
 40
0.810995873442066
 40
0.8725665158555302
 40
1.0
 40
1.0
 40
1.0
 40
1.0
 10
281.6943799907872
 20
-234.1481410963232
 30
0.0
 10
281.6945879830495
 20
-234.2376474523516
 30
0.0
 10
281.7060949169843
 20
-234.37034310786
 30
0.0
 10
281.7467714930297
 20
-234.541050288749
 30
0.0
 10
281.7897245381372
 20
-234.6623645586112
 30
0.0
 10
281.8455562194887
 20
-234.7780978854863
 30
0.0
 10
281.9123061676543
 20
-234.8891401467209
 30
0.0
 10
281.9923683014146
 20
-234.9940856897834
 30
0.0
 10
282.083600063321
 20
-235.0924807381224
 30
0.0
 10
282.1826716620348
 20
-235.1830685266608
 30
0.0
 10
282.2885443545885
 20
-235.262310223382
 30
0.0
 10
282.3996043929103
 20
-235.3288483210038
 30
0.0
 10
282.5152767673873
 20
-235.384440708204
 30
0.0
 10
282.6365504782763
 20
-235.4262982831426
 30
0.0
 10
282.8066171221562
 20
-235.4671577552314
 30
0.0
 10
282.9388842330013
 20
-235.4786521633223
 30
0.0
 10
283.0279136446334
 20
-235.4788702629899
 30
0.0
  0
SPLINE
  5
114
330
1F
100
AcDbEntity
  8
0
  6
Continuous
 62
     7
370
    25
100
AcDbSpline
210
0.0
220
0.0
230
1.0
 70
     8
 71
     3
 72
    13
 73
     9
 74
     0
 42
0.00000001
 43
0.00000001
 40
0.0
 40
0.0
 40
0.0
 40
0.0
 40
0.2518550583969833
 40
0.3726997642745052
 40
0.4928354033772084
 40
0.6137300878654862
 40
0.7379150246176897
 40
1.0
 40
1.0
 40
1.0
 40
1.0
 10
283.0279136446334
 20
-235.4788702629899
 30
0.0
 10
283.1281498241211
 20
-235.479677613441
 30
0.0
 10
283.2765626809846
 20
-235.4649400612198
 30
0.0
 10
283.4666155366177
 20
-235.4155204555001
 30
0.0
 10
283.6015427433567
 20
-235.3643965675158
 30
0.0
 10
283.730209022296
 20
-235.2962054541779
 30
0.0
 10
283.8968366127853
 20
-235.1815712867397
 30
0.0
 10
284.0053475637391
 20
-235.071041812589
 30
0.0
 10
284.0725851189923
 20
-234.991590615554
 30
0.0
  0
SPLINE
  5
119
330
1F
100
AcDbEntity
  8
0
  6
Continuous
 62
     7
370
    25
100
AcDbSpline
210
0.0
220
0.0
230
1.0
 70
     8
 71
     3
 72
    13
 73
     9
 74
     0
 42
0.00000001
 43
0.00000001
 40
0.0
 40
0.0
 40
0.0
 40
0.0
 40
0.238914995222121
 40
0.3595568481745748
 40
0.4866347668473452
 40
0.6157867870574896
 40
0.7433385965465285
 40
1.0
 40
1.0
 40
1.0
 40
1.0
 10
284.9251492215564
 20
-232.0700160963232
 30
0.0
 10
284.925115369613
 20
-232.1049197601756
 30
0.0
 10
284.9363076389026
 20
-232.1574916915163
 30
0.0
 10
284.9725906136031
 20
-232.2191229578123
 30
0.0
 10
285.0097718323927
 20
-232.2600782400233
 30
0.0
 10
285.0544480320494
 20
-232.2942641306962
 30
0.0
 10
285.1215057344488
 20
-232.3286647131619
 30
0.0
 10
285.1780133932439
 20
-232.3380798077449
 30
0.0
 10
285.2154136446333
 20
-232.3378446219642
 30
0.0
  0
SPLINE
  5
11A
330
1F
100
AcDbEntity
  8
0
  6
Continuous
 62
     7
370
    25
100
AcDbSpline
210
0.0
220
0.0
230
1.0
 70
     8
 71
     3
 72
    13
 73
     9
 74
     0
 42
0.00000001
 43
0.00000001
 40
0.0
 40
0.0
 40
0.0
 40
0.0
 40
0.2598496298712551
 40
0.3866707319148489
 40
0.5150828775346824
 40
0.6425029490726124
 40
0.7624536797231306
 40
1.0
 40
1.0
 40
1.0
 40
1.0
 10
285.2154136446333
 20
-232.3378446219642
 30
0.0
 10
285.2534095725983
 20
-232.3377689826738
 30
0.0
 10
285.3108172341068
 20
-232.329075124135
 30
0.0
 10
285.3785163280158
 20
-232.2942774191393
 30
0.0
 10
285.4231355158489
 20
-232.2598516276622
 30
0.0
 10
285.4610848220929
 20
-232.2193712329162
 30
0.0
 10
285.4972442579809
 20
-232.1574195127534
 30
0.0
 10
285.5085568496763
 20
-232.1049563041211
 30
0.0
 10
285.5084825548897
 20
-232.0700160963232
 30
0.0
  0
SPLINE
  5
11B
330
1F
100
AcDbEntity
  8
0
  6
Continuous
 62
     7
370
    25
100
AcDbSpline
210
0.0
220
0.0
230
1.0
 70
     8
 71
     3
 72
    13
 73
     9
 74
     0
 42
0.00000001
 43
0.00000001
 40
0.0
 40
0.0
 40
0.0
 40
0.0
 40
0.2407702368354516
 40
0.3613679915789214
 40
0.4880203848743633
 40
0.615658875220944
 40
0.7417159076830961
 40
1.0
 40
1.0
 40
1.0
 40
1.0
 10
285.5084825548897
 20
-232.0700160963232
 30
0.0
 10
285.5086837097047
 20
-232.0343586670172
 30
0.0
 10
285.497316748216
 20
-231.9810581686056
 30
0.0
 10
285.4613129703399
 20
-231.9179506202467
 30
0.0
 10
285.4231109682125
 20
-231.8773910552775
 30
0.0
 10
285.3785228025769
 20
-231.8429463359448
 30
0.0
 10
285.3108128193812
 20
-231.8081552749284
 30
0.0
 10
285.2534118792644
 20
-231.7994573154062
 30
0.0
 10
285.2154136446333
 20
-231.7993830835027
 30
0.0
  0
SPLINE
  5
11C
330
1F
100
AcDbEntity
  8
0
  6
Continuous
 62
     7
370
    25
100
AcDbSpline
210
0.0
220
0.0
230
1.0
 70
     8
 71
     3
 72
    13
 73
     9
 74
     0
 42
0.00000001
 43
0.00000001
 40
0.0
 40
0.0
 40
0.0
 40
0.0
 40
0.2551062187428433
 40
0.3818851554069804
 40
0.5102546066586644
 40
0.6365625239462668
 40
0.7578509186659793
 40
1.0
 40
1.0
 40
1.0
 40
1.0
 10
285.2154136446334
 20
-231.7993830835027
 30
0.0
 10
285.1780111038597
 20
-231.799146495192
 30
0.0
 10
285.121510115523
 20
-231.8085656762528
 30
0.0
 10
285.0544414966198
 20
-231.8429595710149
 30
0.0
 10
285.0097965046404
 20
-231.8771645802351
 30
0.0
 10
284.9723649720258
 20
-231.9182008933118
 30
0.0
 10
284.9362332372093
 20
-231.980984198175
 30
0.0
 10
284.9249900576002
 20
-232.034396642847
 30
0.0
 10
284.9251492215564
 20
-232.0700160963232
 30
0.0
  0
SPLINE
  5
123
330
1F
100
AcDbEntity
  8
0
  6
Continuous
 62
     7
370
    25
100
AcDbSpline
210
0.0
220
0.0
230
1.0
 70
     8
 71
     3
 72
    13
 73
     9
 74
     0
 42
0.00000001
 43
0.00000001
 40
0.0
 40
0.0
 40
0.0
 40
0.0
 40
0.3336012413919545
 40
0.4791571975344512
 40
0.6105404974279549
 40
0.7289476063657617
 40
0.8323849228168337
 40
1.0
 40
1.0
 40
1.0
 40
1.0
 10
286.4507902471976
 20
-234.5092188206822
 30
0.0
 10
286.4512586631313
 20
-234.4325753022768
 30
0.0
 10
286.4510862337694
 20
-234.3224037133446
 30
0.0
 10
286.4576384443
 20
-234.1822442749071
 30
0.0
 10
286.4619376748252
 20
-234.0914847976872
 30
0.0
 10
286.4690018608486
 20
-234.0105983448454
 30
0.0
 10
286.4793745375626
 20
-233.9216938753517
 30
0.0
 10
286.4898123369038
 20
-233.8602183524677
 30
0.0
 10
286.4991676510436
 20
-233.8228205835027
 30
0.0
  0
SPLINE
  5
124
330
1F
100
AcDbEntity
  8
0
  6
Continuous
 62
     7
370
    25
100
AcDbSpline
210
0.0
220
0.0
230
1.0
 70
     8
 71
     3
 72
    21
 73
    17
 74
     0
 42
0.00000001
 43
0.00000001
 40
0.0
 40
0.0
 40
0.0
 40
0.0
 40
0.1238830745189274
 40
0.1847816479827236
 40
0.2456024656876816
 40
0.3070653910745368
 40
0.3692286662508329
 40
0.4320259048597138
 40
0.4970795873926266
 40
0.5618524691217712
 40
0.6254263815420473
 40
0.6876488370376856
 40
0.7497698060396103
 40
0.8110156280184784
 40
0.8733731419104952
 40
1.0
 40
1.0
 40
1.0
 40
1.0
 10
286.4991676510436
 20
-233.8228205835027
 30
0.0
 10
286.5117569529656
 20
-233.7755637353397
 30
0.0
 10
286.5361815048158
 20
-233.7065315453868
 30
0.0
 10
286.579703038023
 20
-233.6197994730783
 30
0.0
 10
286.616858780291
 20
-233.5576618308073
 30
0.0
 10
286.6599335629246
 20
-233.4988634578912
 30
0.0
 10
286.707469919962
 20
-233.4425874230406
 30
0.0
 10
286.7607987133442
 20
-233.389743039369
 30
0.0
 10
286.8181113953498
 20
-233.3396637641357
 30
0.0
 10
286.8797148232761
 20
-233.2944732832715
 30
0.0
 10
286.943221590248
 20
-233.2539245898716
 30
0.0
 10
287.0099858410112
 20
-233.2213969637906
 30
0.0
 10
287.0774937919412
 20
-233.1927282563771
 30
0.0
 10
287.147913416743
 20
-233.1718834584387
 30
0.0
 10
287.2445508718695
 20
-233.1509926198612
 30
0.0
 10
287.3192846579281
 20
-233.1452977794608
 30
0.0
 10
287.3692597984796
 20
-233.1455369296565
 30
0.0
  0
SPLINE
  5
125
330
1F
100
AcDbEntity
  8
0
  6
Continuous
 62
     7
370
    25
100
AcDbSpline
210
0.0
220
0.0
230
1.0
 70
     8
 71
     3
 72
    13
 73
     9
 74
     0
 42
0.00000001
 43
0.00000001
 40
0.0
 40
0.0
 40
0.0
 40
0.0
 40
0.2700189621433422
 40
0.3907190350710145
 40
0.5068223535253108
 40
0.6215239708754733
 40
0.7391668368062883
 40
1.0
 40
1.0
 40
1.0
 40
1.0
 10
287.3692597984796
 20
-233.1455369296565
 30
0.0
 10
287.450911164862
 20
-233.1450727920943
 30
0.0
 10
287.5700429195595
 20
-233.1583941398941
 30
0.0
 10
287.7144636096423
 20
-233.2126180569832
 30
0.0
 10
287.8057030204303
 20
-233.2687388611081
 30
0.0
 10
287.8835510977657
 20
-233.3409347458941
 30
0.0
 10
287.9718171156928
 20
-233.462512204098
 30
0.0
 10
288.0114931063899
 20
-233.5721357368212
 30
0.0
 10
288.029015407454
 20
-233.6489423783745
 30
0.0
  0
SPLINE
  5
126
330
1F
100
AcDbEntity
  8
0
  6
Continuous
 62
     7
370
    25
100
AcDbSpline
210
0.0
220
0.0
230
1.0
 70
     8
 71
     3
 72
    13
 73
     9
 74
     0
 42
0.00000001
 43
0.00000001
 40
0.0
 40
0.0
 40
0.0
 40
0.0
 40
0.1585173269300097
 40
0.2599203239141793
 40
0.3767455717754218
 40
0.5101743366316037
 40
0.6578903510577022
 40
1.0
 40
1.0
 40
1.0
 40
1.0
 10
288.029015407454
 20
-233.6489423783745
 30
0.0
 10
288.0360780423347
 20
-233.6789983036684
 30
0.0
 10
288.0445431224376
 20
-233.728961440754
 30
0.0
 10
288.0518948527433
 20
-233.8019579710182
 30
0.0
 10
288.0576927385401
 20
-233.8701876221318
 30
0.0
 10
288.0616366016468
 20
-233.9475862633651
 30
0.0
 10
288.0655689221297
 20
-234.0688792205601
 30
0.0
 10
288.0656802906989
 20
-234.164270419788
 30
0.0
 10
288.0661748625821
 20
-234.2308734681181
 30
0.0
  0
SPLINE
  5
12A
330
1F
100
AcDbEntity
  8
0
  6
Continuous
 62
     7
370
    25
100
AcDbSpline
210
0.0
220
0.0
230
1.0
 70
     8
 71
     3
 72
    21
 73
    17
 74
     0
 42
0.00000001
 43
0.00000001
 40
0.0
 40
0.0
 40
0.0
 40
0.0
 40
0.1317255445271847
 40
0.1906683746814372
 40
0.2451968850948515
 40
0.2955087738855968
 40
0.3412437630224733
 40
0.3833864553034548
 40
0.4214402664763188
 40
0.4929563843567397
 40
0.5628694745136138
 40
0.6330237453802214
 40
0.7044573558011289
 40
0.776512016199604
 40
0.8488218595336323
 40
1.0
 40
1.0
 40
1.0
 40
1.0
 10
288.3802774266847
 20
-234.1278085642719
 30
0.0
 10
288.3810573792197
 20
-234.0471218610819
 30
0.0
 10
288.3772166343028
 20
-233.9303308936402
 30
0.0
 10
288.3655838664535
 20
-233.7806043165878
 30
0.0
 10
288.3550229017074
 20
-233.6808061248919
 30
0.0
 10
288.3393873296476
 20
-233.5898665369154
 30
0.0
 10
288.3213572415486
 20
-233.5071483830921
 30
0.0
 10
288.3001246963291
 20
-233.4329016414792
 30
0.0
 10
288.2663991035312
 20
-233.346212811055
 30
0.0
 10
288.2152017376947
 20
-233.2484899065298
 30
0.0
 10
288.1388384036809
 20
-233.1431528076849
 30
0.0
 10
288.0465139036552
 20
-233.0515788133032
 30
0.0
 10
287.9413853431166
 20
-232.9729579058491
 30
0.0
 10
287.8247708842262
 20
-232.9098004225725
 30
0.0
 10
287.6541990840004
 20
-232.8470486146126
 30
0.0
 10
287.5163229439867
 20
-232.832046140722
 30
0.0
 10
287.4239472984796
 20
-232.831434365554
 30
0.0
  0
SPLINE
  5
12B
330
1F
100
AcDbEntity
  8
0
  6
Continuous
 62
     7
370
    25
100
AcDbSpline
210
0.0
220
0.0
230
1.0
 70
     8
 71
     3
 72
    13
 73
     9
 74
     0
 42
0.00000001
 43
0.00000001
 40
0.0
 40
0.0
 40
0.0
 40
0.0
 40
0.2434110992594086
 40
0.3618899784752549
 40
0.4800702186075569
 40
0.6010116861957548
 40
0.7264312190368567
 40
1.0
 40
1.0
 40
1.0
 40
1.0
 10
287.4239472984795
 20
-232.8314343655539
 30
0.0
 10
287.3314976203661
 20
-232.8319106060203
 30
0.0
 10
287.1934638264045
 20
-232.8454383353539
 30
0.0
 10
287.0179618975194
 20
-232.8970289346343
 30
0.0
 10
286.8923334145702
 20
-232.9498201777716
 30
0.0
 10
286.7723608684461
 20
-233.0199556171515
 30
0.0
 10
286.6150418294096
 20
-233.1405164364701
 30
0.0
 10
286.5141470514191
 20
-233.2554370395545
 30
0.0
 10
286.4507902471976
 20
-233.3376443014514
 30
0.0
  0
LINE
  5
140
330
1F
100
AcDbEntity
  8
0
  6
Continuous
 62
     7
370
    25
100
AcDbLine
 10
331.9059184523
 20
-236.3763061604
 30
0.0
 11
332.2200210164
 21
-236.3763061604
 31
0.0
  0
LINE
  5
141
330
1F
100
AcDbEntity
  8
0
  6
Continuous
 62
     7
370
    25
100
AcDbLine
 10
332.2200210164
 20
-236.3763061604
 30
0.0
 11
332.2200210164
 21
-234.9705569617
 31
0.0
  0
LINE
  5
142
330
1F
100
AcDbEntity
  8
0
  6
Continuous
 62
     7
370
    25
100
AcDbLine
 10
332.2200210164
 20
-233.349563372
 30
0.0
 11
332.2200210164
 21
-232.8763061604
 31
0.0
  0
LINE
  5
143
330
1F
100
AcDbEntity
  8
0
  6
Continuous
 62
     7
370
    25
100
AcDbLine
 10
332.2200210164
 20
-232.8763061604
 30
0.0
 11
331.9059184523
 21
-232.8763061604
 31
0.0
  0
LINE
  5
144
330
1F
100
AcDbEntity
  8
0
  6
Continuous
 62
     7
370
    25
100
AcDbLine
 10
331.9059184523
 20
-232.8763061604
 30
0.0
 11
331.9059184523
 21
-236.3763061604
 31
0.0
  0
LINE
  5
145
330
1F
100
AcDbEntity
  8
0
  6
Continuous
 62
     7
370
    25
100
AcDbLine
 10
327.4187389651
 20
-232.8763061604
 30
0.0
 11
326.9700210164
 21
-232.8763061604
 31
0.0
  0
LINE
  5
146
330
1F
100
AcDbEntity
  8
0
  6
Continuous
 62
     7
370
    25
100
AcDbLine
 10
326.9700210164
 20
-232.8763061604
 30
0.0
 11
326.9700210164
 21
-233.1904087245
 31
0.0
  0
LINE
  5
147
330
1F
100
AcDbEntity
  8
0
  6
Continuous
 62
     7
370
    25
100
AcDbLine
 10
326.9700210164
 20
-233.1904087245
 30
0.0
 11
327.4187389651
 21
-233.1904087245
 31
0.0
  0
LINE
  5
148
330
1F
100
AcDbEntity
  8
0
  6
Continuous
 62
     7
370
    25
100
AcDbLine
 10
327.4187389651
 20
-233.1904087245
 30
0.0
 11
327.4187389651
 21
-235.4339984681
 31
0.0
  0
LINE
  5
149
330
1F
100
AcDbEntity
  8
0
  6
Continuous
 62
     7
370
    25
100
AcDbLine
 10
327.4187389651
 20
-235.4339984681
 30
0.0
 11
327.7328415292
 21
-235.4339984681
 31
0.0
  0
LINE
  5
14A
330
1F
100
AcDbEntity
  8
0
  6
Continuous
 62
     7
370
    25
100
AcDbLine
 10
327.7328415292
 20
-235.4339984681
 30
0.0
 11
327.7328415292
 21
-233.1904087245
 31
0.0
  0
LINE
  5
14B
330
1F
100
AcDbEntity
  8
0
  6
Continuous
 62
     7
370
    25
100
AcDbLine
 10
327.7328415292
 20
-233.1904087245
 30
0.0
 11
328.181559478
 21
-233.1904087245
 31
0.0
  0
LINE
  5
14C
330
1F
100
AcDbEntity
  8
0
  6
Continuous
 62
     7
370
    25
100
AcDbLine
 10
328.181559478
 20
-233.1904087245
 30
0.0
 11
328.181559478
 21
-232.8763061604
 31
0.0
  0
LINE
  5
14D
330
1F
100
AcDbEntity
  8
0
  6
Continuous
 62
     7
370
    25
100
AcDbLine
 10
328.181559478
 20
-232.8763061604
 30
0.0
 11
327.7328415292
 21
-232.8763061604
 31
0.0
  0
LINE
  5
14E
330
1F
100
AcDbEntity
  8
0
  6
Continuous
 62
     7
370
    25
100
AcDbLine
 10
327.7328415292
 20
-232.8763061604
 30
0.0
 11
327.7328415292
 21
-231.8442548784
 31
0.0
  0
LINE
  5
14F
330
1F
100
AcDbEntity
  8
0
  6
Continuous
 62
     7
370
    25
100
AcDbLine
 10
327.7328415292
 20
-231.8442548784
 30
0.0
 11
327.4187389651
 21
-231.8442548784
 31
0.0
  0
LINE
  5
150
330
1F
100
AcDbEntity
  8
0
  6
Continuous
 62
     7
370
    25
100
AcDbLine
 10
327.4187389651
 20
-231.8442548784
 30
0.0
 11
327.4187389651
 21
-232.8763061604
 31
0.0
  0
LINE
  5
151
330
1F
100
AcDbEntity
  8
0
  6
Continuous
 62
     7
370
    25
100
AcDbLine
 10
324.4572005036
 20
-232.8763061604
 30
0.0
 11
324.0084825549
 21
-232.8763061604
 31
0.0
  0
LINE
  5
152
330
1F
100
AcDbEntity
  8
0
  6
Continuous
 62
     7
370
    25
100
AcDbLine
 10
324.0084825549
 20
-232.8763061604
 30
0.0
 11
324.0084825549
 21
-233.1904087245
 31
0.0
  0
LINE
  5
153
330
1F
100
AcDbEntity
  8
0
  6
Continuous
 62
     7
370
    25
100
AcDbLine
 10
324.0084825549
 20
-233.1904087245
 30
0.0
 11
324.4572005036
 21
-233.1904087245
 31
0.0
  0
LINE
  5
154
330
1F
100
AcDbEntity
  8
0
  6
Continuous
 62
     7
370
    25
100
AcDbLine
 10
324.4572005036
 20
-233.1904087245
 30
0.0
 11
324.4572005036
 21
-235.4339984681
 31
0.0
  0
LINE
  5
155
330
1F
100
AcDbEntity
  8
0
  6
Continuous
 62
     7
370
    25
100
AcDbLine
 10
324.4572005036
 20
-235.4339984681
 30
0.0
 11
324.7713030677
 21
-235.4339984681
 31
0.0
  0
LINE
  5
156
330
1F
100
AcDbEntity
  8
0
  6
Continuous
 62
     7
370
    25
100
AcDbLine
 10
324.7713030677
 20
-235.4339984681
 30
0.0
 11
324.7713030677
 21
-233.1904087245
 31
0.0
  0
LINE
  5
157
330
1F
100
AcDbEntity
  8
0
  6
Continuous
 62
     7
370
    25
100
AcDbLine
 10
324.7713030677
 20
-233.1904087245
 30
0.0
 11
325.2200210164
 21
-233.1904087245
 31
0.0
  0
LINE
  5
158
330
1F
100
AcDbEntity
  8
0
  6
Continuous
 62
     7
370
    25
100
AcDbLine
 10
325.2200210164
 20
-233.1904087245
 30
0.0
 11
325.2200210164
 21
-232.8763061604
 31
0.0
  0
LINE
  5
159
330
1F
100
AcDbEntity
  8
0
  6
Continuous
 62
     7
370
    25
100
AcDbLine
 10
325.2200210164
 20
-232.8763061604
 30
0.0
 11
324.7713030677
 21
-232.8763061604
 31
0.0
  0
LINE
  5
15A
330
1F
100
AcDbEntity
  8
0
  6
Continuous
 62
     7
370
    25
100
AcDbLine
 10
324.7713030677
 20
-232.8763061604
 30
0.0
 11
324.7713030677
 21
-231.8442548784
 31
0.0
  0
LINE
  5
15B
330
1F
100
AcDbEntity
  8
0
  6
Continuous
 62
     7
370
    25
100
AcDbLine
 10
324.7713030677
 20
-231.8442548784
 30
0.0
 11
324.4572005036
 21
-231.8442548784
 31
0.0
  0
LINE
  5
15C
330
1F
100
AcDbEntity
  8
0
  6
Continuous
 62
     7
370
    25
100
AcDbLine
 10
324.4572005036
 20
-231.8442548784
 30
0.0
 11
324.4572005036
 21
-232.8763061604
 31
0.0
  0
LINE
  5
15D
330
1F
100
AcDbEntity
  8
0
  6
Continuous
 62
     7
370
    25
100
AcDbLine
 10
322.7969440934
 20
-232.467552154
 30
0.0
 11
322.7969440934
 21
-232.8763061604
 31
0.0
  0
LINE
  5
15E
330
1F
100
AcDbEntity
  8
0
  6
Continuous
 62
     7
370
    25
100
AcDbLine
 10
322.7969440934
 20
-232.8763061604
 30
0.0
 11
322.4379697344
 21
-232.8763061604
 31
0.0
  0
LINE
  5
15F
330
1F
100
AcDbEntity
  8
0
  6
Continuous
 62
     7
370
    25
100
AcDbLine
 10
322.4379697344
 20
-232.8763061604
 30
0.0
 11
322.4379697344
 21
-233.1904087245
 31
0.0
  0
LINE
  5
160
330
1F
100
AcDbEntity
  8
0
  6
Continuous
 62
     7
370
    25
100
AcDbLine
 10
322.4379697344
 20
-233.1904087245
 30
0.0
 11
322.7969440934
 21
-233.1904087245
 31
0.0
  0
LINE
  5
161
330
1F
100
AcDbEntity
  8
0
  6
Continuous
 62
     7
370
    25
100
AcDbLine
 10
322.7969440934
 20
-233.1904087245
 30
0.0
 11
322.7969440934
 21
-235.4339984681
 31
0.0
  0
LINE
  5
162
330
1F
100
AcDbEntity
  8
0
  6
Continuous
 62
     7
370
    25
100
AcDbLine
 10
322.7969440934
 20
-235.4339984681
 30
0.0
 11
323.1110466575
 21
-235.4339984681
 31
0.0
  0
LINE
  5
163
330
1F
100
AcDbEntity
  8
0
  6
Continuous
 62
     7
370
    25
100
AcDbLine
 10
323.1110466575
 20
-235.4339984681
 30
0.0
 11
323.112448901
 21
-233.1904087245
 31
0.0
  0
LINE
  5
164
330
1F
100
AcDbEntity
  8
0
  6
Continuous
 62
     7
370
    25
100
AcDbLine
 10
323.112448901
 20
-233.1904087245
 30
0.0
 11
323.6495081959
 21
-233.1904087245
 31
0.0
  0
LINE
  5
165
330
1F
100
AcDbEntity
  8
0
  6
Continuous
 62
     7
370
    25
100
AcDbLine
 10
323.6495081959
 20
-233.1904087245
 30
0.0
 11
323.6495081959
 21
-232.8763061604
 31
0.0
  0
LINE
  5
166
330
1F
100
AcDbEntity
  8
0
  6
Continuous
 62
     7
370
    25
100
AcDbLine
 10
323.6495081959
 20
-232.8763061604
 30
0.0
 11
323.1131500228
 21
-232.8763061604
 31
0.0
  0
LINE
  5
167
330
1F
100
AcDbEntity
  8
0
  6
Continuous
 62
     7
370
    25
100
AcDbLine
 10
323.1131500228
 20
-232.8763061604
 30
0.0
 11
323.1131500228
 21
-232.5215385322
 31
0.0
  0
LINE
  5
168
330
1F
100
AcDbEntity
  8
0
  6
Continuous
 62
     7
370
    25
100
AcDbLine
 10
323.6943799908
 20
-232.1920112886
 30
0.0
 11
323.6943799908
 21
-231.8652885322
 31
0.0
  0
LINE
  5
169
330
1F
100
AcDbEntity
  8
0
  6
Continuous
 62
     7
370
    25
100
AcDbLine
 10
319.7007902472
 20
-234.2224600066
 30
0.0
 11
321.9892517857
 21
-234.2224600066
 31
0.0
  0
LINE
  5
16A
330
1F
100
AcDbEntity
  8
0
  6
Continuous
 62
     7
370
    25
100
AcDbLine
 10
321.854636401
 20
-234.7728406156
 30
0.0
 11
321.5755899267
 21
-234.6263061604
 31
0.0
  0
LINE
  5
16B
330
1F
100
AcDbEntity
  8
0
  6
Continuous
 62
     7
370
    25
100
AcDbLine
 10
318.4443799908
 20
-235.4339984681
 30
0.0
 11
318.7584825549
 21
-235.4339984681
 31
0.0
  0
LINE
  5
16C
330
1F
100
AcDbEntity
  8
0
  6
Continuous
 62
     7
370
    25
100
AcDbLine
 10
318.7584825549
 20
-235.4339984681
 30
0.0
 11
318.7584825549
 21
-231.8442548784
 31
0.0
  0
LINE
  5
16D
330
1F
100
AcDbEntity
  8
0
  6
Continuous
 62
     7
370
    25
100
AcDbLine
 10
318.7584825549
 20
-231.8442548784
 30
0.0
 11
318.4443799908
 21
-231.8442548784
 31
0.0
  0
LINE
  5
16E
330
1F
100
AcDbEntity
  8
0
  6
Continuous
 62
     7
370
    25
100
AcDbLine
 10
318.4443799908
 20
-231.8442548784
 30
0.0
 11
318.4443799908
 21
-235.4339984681
 31
0.0
  0
LINE
  5
16F
330
1F
100
AcDbEntity
  8
0
  6
Continuous
 62
     7
370
    25
100
AcDbLine
 10
314.2264312728
 20
-234.2224600066
 30
0.0
 11
316.5148928113
 21
-234.2224600066
 31
0.0
  0
LINE
  5
170
330
1F
100
AcDbEntity
  8
0
  6
Continuous
 62
     7
370
    25
100
AcDbLine
 10
316.3802774267
 20
-234.7728406156
 30
0.0
 11
316.1012309523
 21
-234.6263061604
 31
0.0
  0
LINE
  5
171
330
1F
100
AcDbEntity
  8
0
  6
Continuous
 62
     7
370
    25
100
AcDbLine
 10
312.9700210164
 20
-231.8442548784
 30
0.0
 11
312.9700210164
 21
-233.3712981476
 31
0.0
  0
LINE
  5
172
330
1F
100
AcDbEntity
  8
0
  6
Continuous
 62
     7
370
    25
100
AcDbLine
 10
312.9700210164
 20
-234.9915906156
 30
0.0
 11
312.9700210164
 21
-235.4339984681
 31
0.0
  0
LINE
  5
173
330
1F
100
AcDbEntity
  8
0
  6
Continuous
 62
     7
370
    25
100
AcDbLine
 10
312.9700210164
 20
-235.4339984681
 30
0.0
 11
313.2841235805
 21
-235.4339984681
 31
0.0
  0
LINE
  5
174
330
1F
100
AcDbEntity
  8
0
  6
Continuous
 62
     7
370
    25
100
AcDbLine
 10
313.2841235805
 20
-235.4339984681
 30
0.0
 11
313.2841235805
 21
-231.8442548784
 31
0.0
  0
LINE
  5
175
330
1F
100
AcDbEntity
  8
0
  6
Continuous
 62
     7
370
    25
100
AcDbLine
 10
313.2841235805
 20
-231.8442548784
 30
0.0
 11
312.9700210164
 21
-231.8442548784
 31
0.0
  0
LINE
  5
176
330
1F
100
AcDbEntity
  8
0
  6
Continuous
 62
     7
370
    25
100
AcDbLine
 10
309.604636401
 20
-235.4339984681
 30
0.0
 11
309.9187389651
 21
-235.4339984681
 31
0.0
  0
LINE
  5
177
330
1F
100
AcDbEntity
  8
0
  6
Continuous
 62
     7
370
    25
100
AcDbLine
 10
309.9187389651
 20
-235.4339984681
 30
0.0
 11
309.9187389651
 21
-232.8763061604
 31
0.0
  0
LINE
  5
178
330
1F
100
AcDbEntity
  8
0
  6
Continuous
 62
     7
370
    25
100
AcDbLine
 10
309.9187389651
 20
-232.8763061604
 30
0.0
 11
309.604636401
 21
-232.8763061604
 31
0.0
  0
LINE
  5
179
330
1F
100
AcDbEntity
  8
0
  6
Continuous
 62
     7
370
    25
100
AcDbLine
 10
309.604636401
 20
-232.8763061604
 30
0.0
 11
309.604636401
 21
-235.4339984681
 31
0.0
  0
LINE
  5
17A
330
1F
100
AcDbEntity
  8
0
  6
Continuous
 62
     7
370
    25
100
AcDbLine
 10
307.74876701
 20
-234.8955369297
 30
0.0
 11
307.5405338369
 21
-235.1325160963
 31
0.0
  0
LINE
  5
17B
330
1F
100
AcDbEntity
  8
0
  6
Continuous
 62
     7
370
    25
100
AcDbLine
 10
308.7632902472
 20
-233.4147676989
 30
0.0
 11
308.9764312728
 21
-233.1953165771
 31
0.0
  0
LINE
  5
17C
330
1F
100
AcDbEntity
  8
0
  6
Continuous
 62
     7
370
    25
100
AcDbLine
 10
304.8033543498
 20
-235.4339984681
 30
0.0
 11
305.1174569139
 21
-235.4339984681
 31
0.0
  0
LINE
  5
17D
330
1F
100
AcDbEntity
  8
0
  6
Continuous
 62
     7
370
    25
100
AcDbLine
 10
305.1174569139
 20
-235.4339984681
 30
0.0
 11
305.1174569139
 21
-234.5092188207
 31
0.0
  0
LINE
  5
17E
330
1F
100
AcDbEntity
  8
0
  6
Continuous
 62
     7
370
    25
100
AcDbLine
 10
306.7328415292
 20
-234.2308734681
 30
0.0
 11
306.7328415292
 21
-235.4339984681
 31
0.0
  0
LINE
  5
17F
330
1F
100
AcDbEntity
  8
0
  6
Continuous
 62
     7
370
    25
100
AcDbLine
 10
306.7328415292
 20
-235.4339984681
 30
0.0
 11
307.0469440934
 21
-235.4339984681
 31
0.0
  0
LINE
  5
180
330
1F
100
AcDbEntity
  8
0
  6
Continuous
 62
     7
370
    25
100
AcDbLine
 10
307.0469440934
 20
-235.4339984681
 30
0.0
 11
307.0469440934
 21
-234.1278085643
 31
0.0
  0
LINE
  5
181
330
1F
100
AcDbEntity
  8
0
  6
Continuous
 62
     7
370
    25
100
AcDbLine
 10
305.1174569139
 20
-233.3376443015
 30
0.0
 11
305.1174569139
 21
-232.8763061604
 31
0.0
  0
LINE
  5
182
330
1F
100
AcDbEntity
  8
0
  6
Continuous
 62
     7
370
    25
100
AcDbLine
 10
305.1174569139
 20
-232.8763061604
 30
0.0
 11
304.8033543498
 21
-232.8763061604
 31
0.0
  0
LINE
  5
183
330
1F
100
AcDbEntity
  8
0
  6
Continuous
 62
     7
370
    25
100
AcDbLine
 10
304.8033543498
 20
-232.8763061604
 30
0.0
 11
304.8033543498
 21
-235.4339984681
 31
0.0
  0
LINE
  5
184
330
1F
100
AcDbEntity
  8
0
  6
Continuous
 62
     7
370
    25
100
AcDbLine
 10
303.7264312728
 20
-235.4339984681
 30
0.0
 11
304.0405338369
 21
-235.4339984681
 31
0.0
  0
LINE
  5
185
330
1F
100
AcDbEntity
  8
0
  6
Continuous
 62
     7
370
    25
100
AcDbLine
 10
304.0405338369
 20
-235.4339984681
 30
0.0
 11
304.0405338369
 21
-232.8763061604
 31
0.0
  0
LINE
  5
186
330
1F
100
AcDbEntity
  8
0
  6
Continuous
 62
     7
370
    25
100
AcDbLine
 10
304.0405338369
 20
-232.8763061604
 30
0.0
 11
303.7264312728
 21
-232.8763061604
 31
0.0
  0
LINE
  5
187
330
1F
100
AcDbEntity
  8
0
  6
Continuous
 62
     7
370
    25
100
AcDbLine
 10
303.7264312728
 20
-232.8763061604
 30
0.0
 11
303.7264312728
 21
-235.4339984681
 31
0.0
  0
LINE
  5
188
330
1F
100
AcDbEntity
  8
0
  6
Continuous
 62
     7
370
    25
100
AcDbLine
 10
295.9187389651
 20
-236.3763061604
 30
0.0
 11
296.2328415292
 21
-236.3763061604
 31
0.0
  0
LINE
  5
189
330
1F
100
AcDbEntity
  8
0
  6
Continuous
 62
     7
370
    25
100
AcDbLine
 10
296.2328415292
 20
-236.3763061604
 30
0.0
 11
296.2328415292
 21
-234.9705569617
 31
0.0
  0
LINE
  5
18A
330
1F
100
AcDbEntity
  8
0
  6
Continuous
 62
     7
370
    25
100
AcDbLine
 10
296.2328415292
 20
-233.349563372
 30
0.0
 11
296.2328415292
 21
-232.8763061604
 31
0.0
  0
LINE
  5
18B
330
1F
100
AcDbEntity
  8
0
  6
Continuous
 62
     7
370
    25
100
AcDbLine
 10
296.2328415292
 20
-232.8763061604
 30
0.0
 11
295.9187389651
 21
-232.8763061604
 31
0.0
  0
LINE
  5
18C
330
1F
100
AcDbEntity
  8
0
  6
Continuous
 62
     7
370
    25
100
AcDbLine
 10
295.9187389651
 20
-232.8763061604
 30
0.0
 11
295.9187389651
 21
-236.3763061604
 31
0.0
  0
LINE
  5
18D
330
1F
100
AcDbEntity
  8
0
  6
Continuous
 62
     7
370
    25
100
AcDbLine
 10
294.2065995421
 20
-234.060500872
 30
0.0
 11
293.2264312728
 21
-235.4339984681
 31
0.0
  0
LINE
  5
18E
330
1F
100
AcDbEntity
  8
0
  6
Continuous
 62
     7
370
    25
100
AcDbLine
 10
293.2264312728
 20
-235.4339984681
 30
0.0
 11
293.6001291895
 21
-235.4339984681
 31
0.0
  0
LINE
  5
18F
330
1F
100
AcDbEntity
  8
0
  6
Continuous
 62
     7
370
    25
100
AcDbLine
 10
293.6001291895
 20
-235.4339984681
 30
0.0
 11
294.3930979395
 21
-234.3227204232
 31
0.0
  0
LINE
  5
190
330
1F
100
AcDbEntity
  8
0
  6
Continuous
 62
     7
370
    25
100
AcDbLine
 10
294.3930979395
 20
-234.3227204232
 30
0.0
 11
295.1860666895
 21
-235.4339984681
 31
0.0
  0
LINE
  5
191
330
1F
100
AcDbEntity
  8
0
  6
Continuous
 62
     7
370
    25
100
AcDbLine
 10
295.1860666895
 20
-235.4339984681
 30
0.0
 11
295.5597646062
 21
-235.4339984681
 31
0.0
  0
LINE
  5
192
330
1F
100
AcDbEntity
  8
0
  6
Continuous
 62
     7
370
    25
100
AcDbLine
 10
295.5597646062
 20
-235.4339984681
 30
0.0
 11
294.5802974587
 21
-234.060500872
 31
0.0
  0
LINE
  5
193
330
1F
100
AcDbEntity
  8
0
  6
Continuous
 62
     7
370
    25
100
AcDbLine
 10
294.5802974587
 20
-234.060500872
 30
0.0
 11
295.4251492216
 21
-232.8763061604
 31
0.0
  0
LINE
  5
194
330
1F
100
AcDbEntity
  8
0
  6
Continuous
 62
     7
370
    25
100
AcDbLine
 10
295.4251492216
 20
-232.8763061604
 30
0.0
 11
295.0514513049
 21
-232.8763061604
 31
0.0
  0
LINE
  5
195
330
1F
100
AcDbEntity
  8
0
  6
Continuous
 62
     7
370
    25
100
AcDbLine
 10
295.0514513049
 20
-232.8763061604
 30
0.0
 11
294.3930979395
 21
-233.7989824425
 31
0.0
  0
LINE
  5
196
330
1F
100
AcDbEntity
  8
0
  6
Continuous
 62
     7
370
    25
100
AcDbLine
 10
294.3930979395
 20
-233.7989824425
 30
0.0
 11
293.7347445741
 21
-232.8763061604
 31
0.0
  0
LINE
  5
197
330
1F
100
AcDbEntity
  8
0
  6
Continuous
 62
     7
370
    25
100
AcDbLine
 10
293.7347445741
 20
-232.8763061604
 30
0.0
 11
293.3610466575
 21
-232.8763061604
 31
0.0
  0
LINE
  5
198
330
1F
100
AcDbEntity
  8
0
  6
Continuous
 62
     7
370
    25
100
AcDbLine
 10
293.3610466575
 20
-232.8763061604
 30
0.0
 11
294.2065995421
 21
-234.060500872
 31
0.0
  0
LINE
  5
199
330
1F
100
AcDbEntity
  8
0
  6
Continuous
 62
     7
370
    25
100
AcDbLine
 10
290.6687389651
 20
-234.2224600066
 30
0.0
 11
292.9572005036
 21
-234.2224600066
 31
0.0
  0
LINE
  5
19A
330
1F
100
AcDbEntity
  8
0
  6
Continuous
 62
     7
370
    25
100
AcDbLine
 10
292.822585119
 20
-234.7728406156
 30
0.0
 11
292.5435386446
 21
-234.6263061604
 31
0.0
  0
LINE
  5
19B
330
1F
100
AcDbEntity
  8
0
  6
Continuous
 62
     7
370
    25
100
AcDbLine
 10
284.072585119
 20
-232.8763061604
 30
0.0
 11
284.072585119
 21
-233.349563372
 31
0.0
  0
LINE
  5
19C
330
1F
100
AcDbEntity
  8
0
  6
Continuous
 62
     7
370
    25
100
AcDbLine
 10
284.072585119
 20
-234.9915906156
 30
0.0
 11
284.072585119
 21
-235.4339984681
 31
0.0
  0
LINE
  5
19D
330
1F
100
AcDbEntity
  8
0
  6
Continuous
 62
     7
370
    25
100
AcDbLine
 10
284.072585119
 20
-235.4339984681
 30
0.0
 11
284.3866876831
 21
-235.4339984681
 31
0.0
  0
LINE
  5
19E
330
1F
100
AcDbEntity
  8
0
  6
Continuous
 62
     7
370
    25
100
AcDbLine
 10
284.3866876831
 20
-235.4339984681
 30
0.0
 11
284.3866876831
 21
-232.8763061604
 31
0.0
  0
LINE
  5
19F
330
1F
100
AcDbEntity
  8
0
  6
Continuous
 62
     7
370
    25
100
AcDbLine
 10
284.3866876831
 20
-232.8763061604
 30
0.0
 11
284.072585119
 21
-232.8763061604
 31
0.0
  0
LINE
  5
1A0
330
1F
100
AcDbEntity
  8
0
  6
Continuous
 62
     7
370
    25
100
AcDbLine
 10
285.0597646062
 20
-235.4339984681
 30
0.0
 11
285.3738671703
 21
-235.4339984681
 31
0.0
  0
LINE
  5
1A1
330
1F
100
AcDbEntity
  8
0
  6
Continuous
 62
     7
370
    25
100
AcDbLine
 10
285.3738671703
 20
-235.4339984681
 30
0.0
 11
285.3738671703
 21
-232.8763061604
 31
0.0
  0
LINE
  5
1A2
330
1F
100
AcDbEntity
  8
0
  6
Continuous
 62
     7
370
    25
100
AcDbLine
 10
285.3738671703
 20
-232.8763061604
 30
0.0
 11
285.0597646062
 21
-232.8763061604
 31
0.0
  0
LINE
  5
1A3
330
1F
100
AcDbEntity
  8
0
  6
Continuous
 62
     7
370
    25
100
AcDbLine
 10
285.0597646062
 20
-232.8763061604
 30
0.0
 11
285.0597646062
 21
-235.4339984681
 31
0.0
  0
LINE
  5
1A4
330
1F
100
AcDbEntity
  8
0
  6
Continuous
 62
     7
370
    25
100
AcDbLine
 10
286.1366876831
 20
-235.4339984681
 30
0.0
 11
286.4507902472
 21
-235.4339984681
 31
0.0
  0
LINE
  5
1A5
330
1F
100
AcDbEntity
  8
0
  6
Continuous
 62
     7
370
    25
100
AcDbLine
 10
286.4507902472
 20
-235.4339984681
 30
0.0
 11
286.4507902472
 21
-234.5092188207
 31
0.0
  0
LINE
  5
1A6
330
1F
100
AcDbEntity
  8
0
  6
Continuous
 62
     7
370
    25
100
AcDbLine
 10
288.0661748626
 20
-234.2308734681
 30
0.0
 11
288.0661748626
 21
-235.4339984681
 31
0.0
  0
LINE
  5
1A7
330
1F
100
AcDbEntity
  8
0
  6
Continuous
 62
     7
370
    25
100
AcDbLine
 10
288.0661748626
 20
-235.4339984681
 30
0.0
 11
288.3802774267
 21
-235.4339984681
 31
0.0
  0
LINE
  5
1A8
330
1F
100
AcDbEntity
  8
0
  6
Continuous
 62
     7
370
    25
100
AcDbLine
 10
288.3802774267
 20
-235.4339984681
 30
0.0
 11
288.3802774267
 21
-234.1278085643
 31
0.0
  0
LINE
  5
1A9
330
1F
100
AcDbEntity
  8
0
  6
Continuous
 62
     7
370
    25
100
AcDbLine
 10
286.4507902472
 20
-233.3376443015
 30
0.0
 11
286.4507902472
 21
-232.8763061604
 31
0.0
  0
LINE
  5
1AA
330
1F
100
AcDbEntity
  8
0
  6
Continuous
 62
     7
370
    25
100
AcDbLine
 10
286.4507902472
 20
-232.8763061604
 30
0.0
 11
286.1366876831
 21
-232.8763061604
 31
0.0
  0
LINE
  5
1AB
330
1F
100
AcDbEntity
  8
0
  6
Continuous
 62
     7
370
    25
100
AcDbLine
 10
286.1366876831
 20
-232.8763061604
 30
0.0
 11
286.1366876831
 21
-235.4339984681
 31
0.0
  0
LINE
  5
1AC
330
1F
100
AcDbEntity
  8
0
  6
Continuous
 62
     7
370
    25
100
AcDbLine
 10
277.568278228
 20
-235.4339984681
 30
0.0
 11
277.9027133241
 21
-232.9099600066
 31
0.0
  0
LINE
  5
1AD
330
1F
100
AcDbEntity
  8
0
  6
Continuous
 62
     7
370
    25
100
AcDbLine
 10
277.9027133241
 20
-232.9099600066
 30
0.0
 11
279.171042651
 21
-235.4339984681
 31
0.0
  0
LINE
  5
1AE
330
1F
100
AcDbEntity
  8
0
  6
Continuous
 62
     7
370
    25
100
AcDbLine
 10
279.171042651
 20
-235.4339984681
 30
0.0
 11
279.2418559523
 21
-235.4339984681
 31
0.0
  0
LINE
  5
1AF
330
1F
100
AcDbEntity
  8
0
  6
Continuous
 62
     7
370
    25
100
AcDbLine
 10
279.2418559523
 20
-235.4339984681
 30
0.0
 11
280.5052774267
 21
-232.9155689809
 31
0.0
  0
LINE
  5
1B0
330
1F
100
AcDbEntity
  8
0
  6
Continuous
 62
     7
370
    25
100
AcDbLine
 10
280.5052774267
 20
-232.9155689809
 30
0.0
 11
280.8404136446
 21
-235.4339984681
 31
0.0
  0
LINE
  5
1B1
330
1F
100
AcDbEntity
  8
0
  6
Continuous
 62
     7
370
    25
100
AcDbLine
 10
280.8404136446
 20
-235.4339984681
 30
0.0
 11
281.1559184523
 21
-235.4339984681
 31
0.0
  0
LINE
  5
1B2
330
1F
100
AcDbEntity
  8
0
  6
Continuous
 62
     7
370
    25
100
AcDbLine
 10
281.1559184523
 20
-235.4339984681
 30
0.0
 11
280.6910747023
 21
-231.9339984681
 31
0.0
  0
LINE
  5
1B3
330
1F
100
AcDbEntity
  8
0
  6
Continuous
 62
     7
370
    25
100
AcDbLine
 10
280.6910747023
 20
-231.9339984681
 30
0.0
 11
280.6455017857
 21
-231.9339984681
 31
0.0
  0
LINE
  5
1B4
330
1F
100
AcDbEntity
  8
0
  6
Continuous
 62
     7
370
    25
100
AcDbLine
 10
280.6455017857
 20
-231.9339984681
 30
0.0
 11
279.2039953754
 21
-234.8057933399
 31
0.0
  0
LINE
  5
1B5
330
1F
100
AcDbEntity
  8
0
  6
Continuous
 62
     7
370
    25
100
AcDbLine
 10
279.2039953754
 20
-234.8057933399
 30
0.0
 11
277.7589833562
 21
-231.9339984681
 31
0.0
  0
LINE
  5
1B6
330
1F
100
AcDbEntity
  8
0
  6
Continuous
 62
     7
370
    25
100
AcDbLine
 10
277.7589833562
 20
-231.9339984681
 30
0.0
 11
277.7141115613
 21
-231.9339984681
 31
0.0
  0
LINE
  5
1B7
330
1F
100
AcDbEntity
  8
0
  6
Continuous
 62
     7
370
    25
100
AcDbLine
 10
277.7141115613
 20
-231.9339984681
 30
0.0
 11
277.2520722985
 21
-235.4339984681
 31
0.0
  0
LINE
  5
1B8
330
1F
100
AcDbEntity
  8
0
  6
Continuous
 62
     7
370
    25
100
AcDbLine
 10
277.2520722985
 20
-235.4339984681
 30
0.0
 11
277.568278228
 21
-235.4339984681
 31
0.0
  0
LINE
  5
1B9
330
1F
100
AcDbEntity
  8
0
  6
Continuous
 62
     7
370
    25
100
AcDbLine
 10
360.0
 20
0.0
 30
0.0
 11
0.0
 21
0.0
 31
0.0
  0
LINE
  5
1BA
330
1F
100
AcDbEntity
  8
0
  6
Continuous
 62
     7
370
    25
100
AcDbLine
 10
360.0
 20
-250.0
 30
0.0
 11
360.0
 21
0.0
 31
0.0
  0
LINE
  5
1BB
330
1F
100
AcDbEntity
  8
0
  6
Continuous
 62
     7
370
    25
100
AcDbLine
 10
0.0
 20
-250.0
 30
0.0
 11
360.0
 21
-250.0
 31
0.0
  0
LINE
  5
1BC
330
1F
100
AcDbEntity
  8
0
  6
Continuous
 62
     7
370
    25
100
AcDbLine
 10
0.0
 20
0.0
 30
0.0
 11
0.0
 21
-250.0
 31
0.0
  0
MTEXT
  5
1BE
330
1F
100
AcDbEntity
  8
0
  6
Continuous
 62
     7
100
AcDbMText
 10
0.0
 20
-251.0195663917
 30
0.0
 40
4.83362
 41
0.0
 71
     1
 72
     1
  1
SOLIDWORKS Educational Product.
  7
SLDTEXTSTYLE0
 73
     1
 44
1.0
  0
MTEXT
  5
1BF
330
1F
100
AcDbEntity
  8
0
  6
Continuous
 62
     7
100
AcDbMText
 10
0.0
 20
-258.2699963917
 30
0.0
 40
4.83362
 41
0.0
 71
     1
 72
     1
  1
For Instructional Use Only.
  7
SLDTEXTSTYLE0
 73
     1
 44
1.0
  0
ENDSEC
  0
SECTION
  2
OBJECTS
  0
DICTIONARY
  5
C
330
0
100
AcDbDictionary
281
     1
  3
ACAD_GROUP
350
D
  3
ACAD_LAYOUT
350
1A
  3
ACAD_MLINESTYLE
350
17
  3
ACAD_PLOTSETTINGS
350
19
  3
ACAD_PLOTSTYLENAME
350
E
  3
ACAD_SCALELIST
350
47
  3
DWGPROPS
350
1C0
  0
DICTIONARY
  5
D
102
{ACAD_REACTORS
330
C
102
}
330
C
100
AcDbDictionary
281
     1
  0
DICTIONARY
  5
1A
102
{ACAD_REACTORS
330
C
102
}
330
C
100
AcDbDictionary
281
     1
  3
Layout1
350
1E
  3
Layout2
350
26
  3
Model
350
22
  0
DICTIONARY
  5
17
102
{ACAD_REACTORS
330
C
102
}
330
C
100
AcDbDictionary
281
     1
  3
Standard
350
18
  0
DICTIONARY
  5
19
102
{ACAD_REACTORS
330
C
102
}
330
C
100
AcDbDictionary
281
     1
  0
ACDBDICTIONARYWDFLT
  5
E
102
{ACAD_REACTORS
330
C
102
}
330
C
100
AcDbDictionary
281
     1
  3
Normal
350
F
100
AcDbDictionaryWithDefault
340
F
  0
DICTIONARY
  5
47
102
{ACAD_REACTORS
330
C
102
}
330
C
100
AcDbDictionary
281
     1
  3
A0
350
48
  3
A1
350
49
  3
A2
350
4A
  3
A3
350
4B
  3
A4
350
4C
  3
A5
350
4D
  3
A6
350
4E
  3
A7
350
4F
  3
A8
350
50
  3
A9
350
51
  3
B0
350
52
  3
B1
350
53
  3
B2
350
54
  3
B3
350
55
  3
B4
350
56
  3
B5
350
57
  3
B6
350
58
  0
XRECORD
  5
1C0
102
{ACAD_REACTORS
330
C
102
}
330
C
100
AcDbXrecord
280
     1
  1
DWGPROPS COOKIE
  2

  3

  4

  6

  7

  8
anast
  9

300
=
301
=
302
=
303
=
304
=
305
=
306
=
307
=
308
=
309
=
 40
0.0
 41
2460812.715635081
 42
2460812.7156911
  1

 90
        0
  0
LAYOUT
  5
1E
102
{ACAD_REACTORS
330
1A
102
}
330
1A
100
AcDbPlotSettings
  1

  2
none_device
  4

  6

 40
0.0
 41
0.0
 42
0.0
 43
0.0
 44
0.0
 45
0.0
 46
0.0
 47
0.0
 48
0.0
 49
0.0
140
0.0
141
0.0
142
1.0
143
1.0
 70
   688
 72
     1
 73
     0
 74
     5
  7

 75
    16
147
1.0
148
0.0
149
0.0
100
AcDbLayout
  1
Layout1
 70
     1
 71
     1
 10
0.0
 20
0.0
 11
420.0
 21
297.0
 12
0.0
 22
0.0
 32
0.0
 14
1.0000000000E+20
 24
1.0000000000E+20
 34
1.0000000000E+20
 15
-1.0000000000E+20
 25
-1.0000000000E+20
 35
-1.0000000000E+20
146
0.0
 13
0.0
 23
0.0
 33
0.0
 16
1.0
 26
0.0
 36
0.0
 17
0.0
 27
1.0
 37
0.0
 76
     0
330
1B
  0
LAYOUT
  5
26
102
{ACAD_REACTORS
330
1A
102
}
330
1A
100
AcDbPlotSettings
  1

  2
none_device
  4

  6

 40
0.0
 41
0.0
 42
0.0
 43
0.0
 44
0.0
 45
0.0
 46
0.0
 47
0.0
 48
0.0
 49
0.0
140
0.0
141
0.0
142
1.0
143
1.0
 70
   688
 72
     1
 73
     0
 74
     5
  7

 75
    16
147
1.0
148
0.0
149
0.0
100
AcDbLayout
  1
Layout2
 70
     1
 71
     2
 10
0.0
 20
0.0
 11
0.0
 21
0.0
 12
0.0
 22
0.0
 32
0.0
 14
0.0
 24
0.0
 34
0.0
 15
0.0
 25
0.0
 35
0.0
146
0.0
 13
0.0
 23
0.0
 33
0.0
 16
1.0
 26
0.0
 36
0.0
 17
0.0
 27
1.0
 37
0.0
 76
     0
330
23
  0
LAYOUT
  5
22
102
{ACAD_REACTORS
330
1A
102
}
330
1A
100
AcDbPlotSettings
  1

  2
none_device
  4
ANSI_A_(11.00_x_8.50_Inches)
  6

 40
6.35
 41
19.05
 42
6.35000508
 43
19.05000254
 44
279.4
 45
215.9
 46
-4.95300254
 47
184.94374873
 48
0.0
 49
0.0
140
0.0
141
0.0
142
0.03025
143
1.0
 70
  1696
 72
     0
 73
     0
 74
     0
  7

 75
     0
147
0.0179189148
148
-1300.4909072572
149
0.0
100
AcDbLayout
  1
Model
 70
     1
 71
     0
 10
0.0
 20
0.0
 11
420.0
 21
297.0
 12
0.0
 22
0.0
 32
0.0
 14
0.0
 24
-250.0
 34
0.0
 15
360.0
 25
0.0
 35
0.0
146
0.0
 13
0.0
 23
0.0
 33
0.0
 16
1.0
 26
0.0
 36
0.0
 17
0.0
 27
1.0
 37
0.0
 76
     0
330
1F
331
29
  0
MLINESTYLE
  5
18
102
{ACAD_REACTORS
330
17
102
}
330
17
100
AcDbMlineStyle
  2
Standard
 70
     0
  3

 62
   256
 51
90.0
 52
90.0
 71
     2
 49
0.5
 62
   256
  6
BYLAYER
 49
-0.5
 62
   256
  6
BYLAYER
  0
ACDBPLACEHOLDER
  5
F
102
{ACAD_REACTORS
330
E
102
}
330
E
  0
SCALE
  5
48
102
{ACAD_REACTORS
330
47
102
}
330
47
100
AcDbScale
 70
     0
300
1:1
140
1.0
141
1.0
290
     1
  0
SCALE
  5
49
102
{ACAD_REACTORS
330
47
102
}
330
47
100
AcDbScale
 70
     0
300
1:2
140
1.0
141
2.0
290
     0
  0
SCALE
  5
4A
102
{ACAD_REACTORS
330
47
102
}
330
47
100
AcDbScale
 70
     0
300
1:4
140
1.0
141
4.0
290
     0
  0
SCALE
  5
4B
102
{ACAD_REACTORS
330
47
102
}
330
47
100
AcDbScale
 70
     0
300
1:5
140
1.0
141
5.0
290
     0
  0
SCALE
  5
4C
102
{ACAD_REACTORS
330
47
102
}
330
47
100
AcDbScale
 70
     0
300
1:8
140
1.0
141
8.0
290
     0
  0
SCALE
  5
4D
102
{ACAD_REACTORS
330
47
102
}
330
47
100
AcDbScale
 70
     0
300
1:10
140
1.0
141
10.0
290
     0
  0
SCALE
  5
4E
102
{ACAD_REACTORS
330
47
102
}
330
47
100
AcDbScale
 70
     0
300
1:16
140
1.0
141
16.0
290
     0
  0
SCALE
  5
4F
102
{ACAD_REACTORS
330
47
102
}
330
47
100
AcDbScale
 70
     0
300
1:20
140
1.0
141
20.0
290
     0
  0
SCALE
  5
50
102
{ACAD_REACTORS
330
47
102
}
330
47
100
AcDbScale
 70
     0
300
1:30
140
1.0
141
30.0
290
     0
  0
SCALE
  5
51
102
{ACAD_REACTORS
330
47
102
}
330
47
100
AcDbScale
 70
     0
300
1:40
140
1.0
141
40.0
290
     0
  0
SCALE
  5
52
102
{ACAD_REACTORS
330
47
102
}
330
47
100
AcDbScale
 70
     0
300
1:50
140
1.0
141
50.0
290
     0
  0
SCALE
  5
53
102
{ACAD_REACTORS
330
47
102
}
330
47
100
AcDbScale
 70
     0
300
1:100
140
1.0
141
100.0
290
     0
  0
SCALE
  5
54
102
{ACAD_REACTORS
330
47
102
}
330
47
100
AcDbScale
 70
     0
300
2:1
140
2.0
141
1.0
290
     0
  0
SCALE
  5
55
102
{ACAD_REACTORS
330
47
102
}
330
47
100
AcDbScale
 70
     0
300
4:1
140
4.0
141
1.0
290
     0
  0
SCALE
  5
56
102
{ACAD_REACTORS
330
47
102
}
330
47
100
AcDbScale
 70
     0
300
8:1
140
8.0
141
1.0
290
     0
  0
SCALE
  5
57
102
{ACAD_REACTORS
330
47
102
}
330
47
100
AcDbScale
 70
     0
300
10:1
140
10.0
141
1.0
290
     0
  0
SCALE
  5
58
102
{ACAD_REACTORS
330
47
102
}
330
47
100
AcDbScale
 70
     0
300
100:1
140
100.0
141
1.0
290
     0
  0
ENDSEC
  0
EOF
