  0
SECTION
  2
HEADER
  9
$ACADVER
  1
AC1015
  9
$ACADMAINTVER
 70
     6
  9
$DWGCODEPAGE
  3
ANSI_1252
  9
$INSBASE
 10
0.0
 20
0.0
 30
0.0
  9
$EXTMIN
 10
0.0
 20
-270.0
 30
0.0
  9
$EXTMAX
 10
400.0
 20
0.0
 30
0.0
  9
$LIMMIN
 10
0.0
 20
0.0
  9
$LIMMAX
 10
420.0
 20
297.0
  9
$ORTHOMODE
 70
     0
  9
$REGENMODE
 70
     1
  9
$FILLMODE
 70
     1
  9
$QTEXTMODE
 70
     0
  9
$MIRRTEXT
 70
     1
  9
$LTSCALE
 40
1.0
  9
$ATTMODE
 70
     1
  9
$TEXTSIZE
 40
3.5
  9
$TRACEWID
 40
1.0
  9
$TEXTSTYLE
  7
Standard
  9
$CLAYER
  8
0
  9
$CELTYPE
  6
ByLayer
  9
$CECOLOR
 62
   256
  9
$CELTSCALE
 40
1.0
  9
$DISPSILH
 70
     0
  9
$DIMSCALE
 40
1.0
  9
$DIMASZ
 40
3.302
  9
$DIMEXO
 40
0.0
  9
$DIMDLI
 40
3.75
  9
$DIMRND
 40
0.0
  9
$DIMDLE
 40
0.0
  9
$DIMEXE
 40
1.0
  9
$DIMTP
 40
0.0
  9
$DIMTM
 40
0.0
  9
$DIMTXT
 40
3.5
  9
$DIMCEN
 40
2.5
  9
$DIMTSZ
 40
0.0
  9
$DIMTOL
 70
     0
  9
$DIMLIM
 70
     0
  9
$DIMTIH
 70
     1
  9
$DIMTOH
 70
     1
  9
$DIMSE1
 70
     0
  9
$DIMSE2
 70
     0
  9
$DIMTAD
 70
     1
  9
$DIMZIN
 70
     1
  9
$DIMBLK
  1

  9
$DIMASO
 70
     1
  9
$DIMSHO
 70
     1
  9
$DIMPOST
  1

  9
$DIMAPOST
  1

  9
$DIMALT
 70
     0
  9
$DIMALTD
 70
     3
  9
$DIMALTF
 40
0.0393700787
  9
$DIMLFAC
 40
1.0
  9
$DIMTOFL
 70
     1
  9
$DIMTVP
 40
0.0
  9
$DIMTIX
 70
     0
  9
$DIMSOXD
 70
     0
  9
$DIMSAH
 70
     0
  9
$DIMBLK1
  1

  9
$DIMBLK2
  1

  9
$DIMSTYLE
  2
ISO-25
  9
$DIMCLRD
 70
     0
  9
$DIMCLRE
 70
     0
  9
$DIMCLRT
 70
     0
  9
$DIMTFAC
 40
1.0
  9
$DIMGAP
 40
1.524
  9
$DIMJUST
 70
     0
  9
$DIMSD1
 70
     0
  9
$DIMSD2
 70
     0
  9
$DIMTOLJ
 70
     0
  9
$DIMTZIN
 70
     1
  9
$DIMALTZ
 70
     0
  9
$DIMALTTZ
 70
     0
  9
$DIMUPT
 70
     0
  9
$DIMDEC
 70
     2
  9
$DIMTDEC
 70
     2
  9
$DIMALTU
 70
     2
  9
$DIMALTTD
 70
     3
  9
$DIMTXSTY
  7
Standard
  9
$DIMAUNIT
 70
     0
  9
$DIMADEC
 70
     2
  9
$DIMALTRND
 40
0.0
  9
$DIMAZIN
 70
     0
  9
$DIMDSEP
 70
    44
  9
$DIMATFIT
 70
     3
  9
$DIMFRAC
 70
     0
  9
$DIMLDRBLK
  1

  9
$DIMLUNIT
 70
     2
  9
$DIMLWD
 70
    -2
  9
$DIMLWE
 70
    -2
  9
$DIMTMOVE
 70
     0
  9
$LUNITS
 70
     2
  9
$LUPREC
 70
     2
  9
$SKETCHINC
 40
1.0
  9
$FILLETRAD
 40
0.0
  9
$AUNITS
 70
     0
  9
$AUPREC
 70
     2
  9
$MENU
  1
.
  9
$ELEVATION
 40
0.0
  9
$PELEVATION
 40
0.0
  9
$THICKNESS
 40
0.0
  9
$LIMCHECK
 70
     0
  9
$CHAMFERA
 40
0.0
  9
$CHAMFERB
 40
0.0
  9
$CHAMFERC
 40
0.0
  9
$CHAMFERD
 40
0.0
  9
$SKPOLY
 70
     0
  9
$TDCREATE
 40
2460812.809090185
  9
$TDUCREATE
 40
2460812.725756852
  9
$TDUPDATE
 40
2460812.809134491
  9
$TDUUPDATE
 40
2460812.725801158
  9
$TDINDWG
 40
0.0000000116
  9
$TDUSRTIMER
 40
0.0000000116
  9
$USRTIMER
 70
     1
  9
$ANGBASE
 50
0.0
  9
$ANGDIR
 70
     0
  9
$PDMODE
 70
     0
  9
$PDSIZE
 40
-1.0
  9
$PLINEWID
 40
0.0
  9
$SPLFRAME
 70
     0
  9
$SPLINETYPE
 70
     6
  9
$SPLINESEGS
 70
     8
  9
$HANDSEED
  5
157
  9
$SURFTAB1
 70
     6
  9
$SURFTAB2
 70
     6
  9
$SURFTYPE
 70
     6
  9
$SURFU
 70
     6
  9
$SURFV
 70
     6
  9
$UCSBASE
  2

  9
$UCSNAME
  2

  9
$UCSORG
 10
0.0
 20
0.0
 30
0.0
  9
$UCSXDIR
 10
1.0
 20
0.0
 30
0.0
  9
$UCSYDIR
 10
0.0
 20
1.0
 30
0.0
  9
$UCSORTHOREF
  2

  9
$UCSORTHOVIEW
 70
     0
  9
$UCSORGTOP
 10
0.0
 20
0.0
 30
0.0
  9
$UCSORGBOTTOM
 10
0.0
 20
0.0
 30
0.0
  9
$UCSORGLEFT
 10
0.0
 20
0.0
 30
0.0
  9
$UCSORGRIGHT
 10
0.0
 20
0.0
 30
0.0
  9
$UCSORGFRONT
 10
0.0
 20
0.0
 30
0.0
  9
$UCSORGBACK
 10
0.0
 20
0.0
 30
0.0
  9
$PUCSBASE
  2

  9
$PUCSNAME
  2

  9
$PUCSORG
 10
0.0
 20
0.0
 30
0.0
  9
$PUCSXDIR
 10
1.0
 20
0.0
 30
0.0
  9
$PUCSYDIR
 10
0.0
 20
1.0
 30
0.0
  9
$PUCSORTHOREF
  2

  9
$PUCSORTHOVIEW
 70
     0
  9
$PUCSORGTOP
 10
0.0
 20
0.0
 30
0.0
  9
$PUCSORGBOTTOM
 10
0.0
 20
0.0
 30
0.0
  9
$PUCSORGLEFT
 10
0.0
 20
0.0
 30
0.0
  9
$PUCSORGRIGHT
 10
0.0
 20
0.0
 30
0.0
  9
$PUCSORGFRONT
 10
0.0
 20
0.0
 30
0.0
  9
$PUCSORGBACK
 10
0.0
 20
0.0
 30
0.0
  9
$USERI1
 70
     0
  9
$USERI2
 70
     0
  9
$USERI3
 70
     0
  9
$USERI4
 70
     0
  9
$USERI5
 70
     0
  9
$USERR1
 40
0.0
  9
$USERR2
 40
0.0
  9
$USERR3
 40
0.0
  9
$USERR4
 40
0.0
  9
$USERR5
 40
0.0
  9
$WORLDVIEW
 70
     1
  9
$SHADEDGE
 70
     3
  9
$SHADEDIF
 70
    70
  9
$TILEMODE
 70
     1
  9
$MAXACTVP
 70
    64
  9
$PINSBASE
 10
0.0
 20
0.0
 30
0.0
  9
$PLIMCHECK
 70
     0
  9
$PEXTMIN
 10
1.0000000000E+20
 20
1.0000000000E+20
 30
1.0000000000E+20
  9
$PEXTMAX
 10
-1.0000000000E+20
 20
-1.0000000000E+20
 30
-1.0000000000E+20
  9
$PLIMMIN
 10
0.0
 20
0.0
  9
$PLIMMAX
 10
420.0
 20
297.0
  9
$UNITMODE
 70
     0
  9
$VISRETAIN
 70
     1
  9
$PLINEGEN
 70
     0
  9
$PSLTSCALE
 70
     1
  9
$TREEDEPTH
 70
  3020
  9
$CMLSTYLE
  2
Standard
  9
$CMLJUST
 70
     0
  9
$CMLSCALE
 40
20.0
  9
$PROXYGRAPHICS
 70
     1
  9
$MEASUREMENT
 70
     1
  9
$CELWEIGHT
370
    -1
  9
$ENDCAPS
280
     0
  9
$JOINSTYLE
280
     0
  9
$LWDISPLAY
290
     1
  9
$INSUNITS
 70
     4
  9
$HYPERLINKBASE
  1

  9
$STYLESHEET
  1

  9
$XEDIT
290
     1
  9
$CEPSNTYPE
380
     0
  9
$PSTYLEMODE
290
     1
  9
$FINGERPRINTGUID
  2
{07e2f387-4f66-4934-9dd4-59a6555b9828}
  9
$VERSIONGUID
  2
{FAEB1C32-E019-11D5-929B-00C0DF256EC4}
  9
$EXTNAMES
290
     1
  9
$PSVPSCALE
 40
0.0
  9
$OLESTARTUP
290
     0
  0
ENDSEC
  0
SECTION
  2
CLASSES
  0
CLASS
  1
ACDBDICTIONARYWDFLT
  2
AcDbDictionaryWithDefault
  3
ObjectDBX Classes
 90
        0
280
     0
281
     0
  0
CLASS
  1
VISUALSTYLE
  2
AcDbVisualStyle
  3
ObjectDBX Classes
 90
     4095
280
     0
281
     0
  0
CLASS
  1
MATERIAL
  2
AcDbMaterial
  3
ObjectDBX Classes
 90
     1153
280
     0
281
     0
  0
CLASS
  1
SCALE
  2
AcDbScale
  3
ObjectDBX Classes
 90
     1153
280
     0
281
     0
  0
CLASS
  1
TABLESTYLE
  2
AcDbTableStyle
  3
ObjectDBX Classes
 90
     4095
280
     0
281
     0
  0
CLASS
  1
MLEADERSTYLE
  2
AcDbMLeaderStyle
  3
ACDB_MLEADERSTYLE_CLASS
 90
     4095
280
     0
281
     0
  0
CLASS
  1
SUN
  2
AcDbSun
  3
SCENEOE
 90
     1153
280
     0
281
     0
  0
CLASS
  1
ACDBPLACEHOLDER
  2
AcDbPlaceHolder
  3
ObjectDBX Classes
 90
        0
280
     0
281
     0
  0
CLASS
  1
LAYOUT
  2
AcDbLayout
  3
ObjectDBX Classes
 90
        0
280
     0
281
     0
  0
ENDSEC
  0
SECTION
  2
TABLES
  0
TABLE
  2
VPORT
  5
8
330
0
100
AcDbSymbolTable
 70
     1
  0
VPORT
  5
29
330
8
100
AcDbSymbolTableRecord
100
AcDbViewportTableRecord
  2
*Active
 70
     0
 10
0.0
 20
0.0
 11
1.0
 21
1.0
 12
200.0
 22
-135.0
 13
0.0
 23
0.0
 14
10.0
 24
10.0
 15
10.0
 25
10.0
 16
0.0
 26
0.0
 36
1.0
 17
0.0
 27
0.0
 37
0.0
 40
275.4
 41
1.4814814815
 42
50.0
 43
0.0
 44
0.0
 50
0.0
 51
0.0
 71
     0
 72
   100
 73
     1
 74
     3
 75
     0
 76
     0
 77
     0
 78
     0
281
     0
 65
     1
110
0.0
120
0.0
130
0.0
111
1.0
121
0.0
131
0.0
112
0.0
122
1.0
132
0.0
 79
     0
146
0.0
  0
ENDTAB
  0
TABLE
  2
LTYPE
  5
5
330
0
100
AcDbSymbolTable
 70
     6
  0
LTYPE
  5
14
330
5
100
AcDbSymbolTableRecord
100
AcDbLinetypeTableRecord
  2
ByBlock
 70
     0
  3

 72
    65
 73
     0
 40
0.0
  0
LTYPE
  5
15
330
5
100
AcDbSymbolTableRecord
100
AcDbLinetypeTableRecord
  2
ByLayer
 70
     0
  3

 72
    65
 73
     0
 40
0.0
  0
LTYPE
  5
16
330
5
100
AcDbSymbolTableRecord
100
AcDbLinetypeTableRecord
  2
Continuous
 70
     0
  3
Solid line
 72
    65
 73
     0
 40
0.0
  0
LTYPE
  5
5E
330
5
100
AcDbSymbolTableRecord
100
AcDbLinetypeTableRecord
  2
HIDDEN
 70
     0
  3
Hidden __ __ __ __ __ __ __ __ __ __ __ __ __ __
 72
    65
 73
     2
 40
1.905
 49
1.27
 74
     0
 49
-0.635
 74
     0
  0
LTYPE
  5
5F
330
5
100
AcDbSymbolTableRecord
100
AcDbLinetypeTableRecord
  2
PHANTOM
 70
     0
  3
Phantom ______  __  __  ______  __  __  ______
 72
    65
 73
     6
 40
12.7
 49
6.35
 74
     0
 49
-1.27
 74
     0
 49
1.27
 74
     0
 49
-1.27
 74
     0
 49
1.27
 74
     0
 49
-1.27
 74
     0
  0
LTYPE
  5
60
330
5
100
AcDbSymbolTableRecord
100
AcDbLinetypeTableRecord
  2
CENTER
 70
     0
  3
Center ____ _ ____ _ ____ _ ____ _ ____ _ ____
 72
    65
 73
     4
 40
10.16
 49
6.35
 74
     0
 49
-1.27
 74
     0
 49
1.27
 74
     0
 49
-1.27
 74
     0
  0
LTYPE
  5
61
330
5
100
AcDbSymbolTableRecord
100
AcDbLinetypeTableRecord
  2
CENTERX2
 70
     0
  3
Center (2x) ________  __  ________  __  _____
 72
    65
 73
     4
 40
20.32
 49
12.7
 74
     0
 49
-2.54
 74
     0
 49
2.54
 74
     0
 49
-2.54
 74
     0
  0
LTYPE
  5
62
330
5
100
AcDbSymbolTableRecord
100
AcDbLinetypeTableRecord
  2
DOT2
 70
     0
  3
Dot (.5x) ........................................
 72
    65
 73
     2
 40
0.635
 49
0.0
 74
     0
 49
-0.635
 74
     0
  0
ENDTAB
  0
TABLE
  2
LAYER
  5
2
330
0
100
AcDbSymbolTable
 70
     1
  0
LAYER
  5
10
330
2
100
AcDbSymbolTableRecord
100
AcDbLayerTableRecord
  2
0
 70
     0
 62
     7
  6
Continuous
370
    -3
390
F
  0
ENDTAB
  0
TABLE
  2
STYLE
  5
3
330
0
100
AcDbSymbolTable
 70
     2
  0
STYLE
  5
11
330
3
100
AcDbSymbolTableRecord
100
AcDbTextStyleTableRecord
  2
Standard
 70
     0
 40
0.0
 41
1.0
 50
0.0
 71
     0
 42
3.5
  3
txt
  4

  0
STYLE
  5
153
330
3
100
AcDbSymbolTableRecord
100
AcDbTextStyleTableRecord
  2
SLDTEXTSTYLE0
 70
     0
 40
0.0
 41
0.7
 50
0.0
 71
     0
 42
3.5
  3
TXT
  4

  0
ENDTAB
  0
TABLE
  2
VIEW
  5
6
330
0
100
AcDbSymbolTable
 70
     0
  0
ENDTAB
  0
TABLE
  2
UCS
  5
7
330
0
100
AcDbSymbolTable
 70
     0
  0
ENDTAB
  0
TABLE
  2
APPID
  5
9
330
0
100
AcDbSymbolTable
 70
     1
  0
APPID
  5
12
330
9
100
AcDbSymbolTableRecord
100
AcDbRegAppTableRecord
  2
ACAD
 70
     0
  0
ENDTAB
  0
TABLE
  2
DIMSTYLE
  5
A
330
0
100
AcDbSymbolTable
 70
     1
100
AcDbDimStyleTable
  0
DIMSTYLE
105
27
330
A
100
AcDbSymbolTableRecord
100
AcDbDimStyleTableRecord
  2
ISO-25
 70
     0
 41
2.5
 42
0.625
 43
3.75
 44
1.25
 73
     0
 74
     0
 77
     1
 78
     8
140
2.5
141
2.5
143
0.0393700787
147
0.625
171
     3
172
     1
178
     0
271
     2
272
     2
274
     3
278
    44
283
     0
284
     8
340
11
  0
ENDTAB
  0
TABLE
  2
BLOCK_RECORD
  5
1
330
0
100
AcDbSymbolTable
 70
     1
  0
BLOCK_RECORD
  5
1F
330
1
100
AcDbSymbolTableRecord
100
AcDbBlockTableRecord
  2
*Model_Space
340
22
  0
BLOCK_RECORD
  5
1B
330
1
100
AcDbSymbolTableRecord
100
AcDbBlockTableRecord
  2
*Paper_Space
340
1E
  0
BLOCK_RECORD
  5
23
330
1
100
AcDbSymbolTableRecord
100
AcDbBlockTableRecord
  2
*Paper_Space0
340
26
  0
ENDTAB
  0
ENDSEC
  0
SECTION
  2
BLOCKS
  0
BLOCK
  5
20
330
1F
100
AcDbEntity
  8
0
100
AcDbBlockBegin
  2
*Model_Space
 70
     0
 10
0.0
 20
0.0
 30
0.0
  3
*Model_Space
  1

  0
ENDBLK
  5
21
330
1F
100
AcDbEntity
  8
0
100
AcDbBlockEnd
  0
BLOCK
  5
1C
330
1B
100
AcDbEntity
 67
     1
  8
0
100
AcDbBlockBegin
  2
*Paper_Space
 70
     0
 10
0.0
 20
0.0
 30
0.0
  3
*Paper_Space
  1

  0
ENDBLK
  5
1D
330
1B
100
AcDbEntity
 67
     1
  8
0
100
AcDbBlockEnd
  0
BLOCK
  5
24
330
23
100
AcDbEntity
  8
0
100
AcDbBlockBegin
  2
*Paper_Space0
 70
     0
 10
0.0
 20
0.0
 30
0.0
  3
*Paper_Space0
  1

  0
ENDBLK
  5
25
330
23
100
AcDbEntity
  8
0
100
AcDbBlockEnd
  0
ENDSEC
  0
SECTION
  2
ENTITIES
  0
SPLINE
  5
63
330
1F
100
AcDbEntity
  8
0
  6
Continuous
 62
     7
370
    25
100
AcDbSpline
210
0.0
220
0.0
230
1.0
 70
     8
 71
     3
 72
    13
 73
     9
 74
     0
 42
0.00000001
 43
0.00000001
 40
0.0
 40
0.0
 40
0.0
 40
0.0
 40
0.2375463202768689
 40
0.3574970509274399
 40
0.4849171224652751
 40
0.6133292680851451
 40
0.7401503701287371
 40
1.0
 40
1.0
 40
1.0
 40
1.0
 10
329.6882757995832
 20
-250.7702932465798
 30
0.0
 10
329.6883500943696
 20
-250.8052334543777
 30
0.0
 10
329.6770375026743
 20
-250.8576966630099
 30
0.0
 10
329.6408780667864
 20
-250.9196483831728
 30
0.0
 10
329.6029287605422
 20
-250.9601287779188
 30
0.0
 10
329.5583095727093
 20
-250.9945545693958
 30
0.0
 10
329.4906104788001
 20
-251.0293522743917
 30
0.0
 10
329.4332028172919
 20
-251.0380461329303
 30
0.0
 10
329.3952068893268
 20
-251.0381217722208
 30
0.0
  0
SPLINE
  5
6B
330
1F
100
AcDbEntity
  8
0
  6
Continuous
 62
     7
370
    25
100
AcDbSpline
210
0.0
220
0.0
230
1.0
 70
     8
 71
     3
 72
    13
 73
     9
 74
     0
 42
0.00000001
 43
0.00000001
 40
0.0
 40
0.0
 40
0.0
 40
0.0
 40
0.2538343627967036
 40
0.3765056225222187
 40
0.4985336856679102
 40
0.6213677287324908
 40
0.7445647449043713
 40
1.0
 40
1.0
 40
1.0
 40
1.0
 10
325.5236123380447
 20
-251.9530857145285
 30
0.0
 10
325.5806433477808
 20
-252.0154236349055
 30
0.0
 10
325.6570374110998
 20
-252.115362075097
 30
0.0
 10
325.7392768110882
 20
-252.259722865843
 30
0.0
 10
325.7883808859311
 20
-252.3719413718209
 30
0.0
 10
325.8270230553807
 20
-252.4883225732441
 30
0.0
 10
325.8642150379615
 20
-252.6512618729634
 30
0.0
 10
325.8736988466865
 20
-252.7775038358923
 30
0.0
 10
325.8741732354806
 20
-252.8624406824771
 30
0.0
  0
SPLINE
  5
72
330
1F
100
AcDbEntity
  8
0
  6
Continuous
 62
     7
370
    25
100
AcDbSpline
210
0.0
220
0.0
230
1.0
 70
     8
 71
     3
 72
    13
 73
     9
 74
     0
 42
0.00000001
 43
0.00000001
 40
0.0
 40
0.0
 40
0.0
 40
0.0
 40
0.2538343627967036
 40
0.3765056225222187
 40
0.4985336856679102
 40
0.6213677287324908
 40
0.7445647449043713
 40
1.0
 40
1.0
 40
1.0
 40
1.0
 10
343.3377149021471
 20
-251.9530857145285
 30
0.0
 10
343.394745911883
 20
-252.0154236349054
 30
0.0
 10
343.4711399752023
 20
-252.1153620750971
 30
0.0
 10
343.5533793751907
 20
-252.259722865843
 30
0.0
 10
343.6024834500335
 20
-252.3719413718209
 30
0.0
 10
343.6411256194832
 20
-252.4883225732441
 30
0.0
 10
343.6783176020639
 20
-252.6512618729634
 30
0.0
 10
343.6878014107889
 20
-252.7775038358924
 30
0.0
 10
343.688275799583
 20
-252.8624406824771
 30
0.0
  0
SPLINE
  5
74
330
1F
100
AcDbEntity
  8
0
  6
Continuous
 62
     7
370
    25
100
AcDbSpline
210
0.0
220
0.0
230
1.0
 70
     8
 71
     3
 72
    13
 73
     9
 74
     0
 42
0.00000001
 43
0.00000001
 40
0.0
 40
0.0
 40
0.0
 40
0.0
 40
0.2375463202768689
 40
0.3574970509274399
 40
0.4849171224652751
 40
0.6133292680851451
 40
0.7401503701287371
 40
1.0
 40
1.0
 40
1.0
 40
1.0
 10
309.585711697019
 20
-250.7702932465797
 30
0.0
 10
309.5857859918055
 20
-250.8052334543776
 30
0.0
 10
309.5744734001102
 20
-250.8576966630099
 30
0.0
 10
309.5383139642222
 20
-250.9196483831727
 30
0.0
 10
309.500364657978
 20
-250.9601287779187
 30
0.0
 10
309.4557454701451
 20
-250.9945545693958
 30
0.0
 10
309.3880463762359
 20
-251.0293522743917
 30
0.0
 10
309.3306387147277
 20
-251.0380461329302
 30
0.0
 10
309.2926427867625
 20
-251.0381217722207
 30
0.0
  0
SPLINE
  5
7F
330
1F
100
AcDbEntity
  8
0
  6
Continuous
 62
     7
370
    25
100
AcDbSpline
210
0.0
220
0.0
230
1.0
 70
     8
 71
     3
 72
    13
 73
     9
 74
     0
 42
0.00000001
 43
0.00000001
 40
0.0
 40
0.0
 40
0.0
 40
0.0
 40
0.2546535308972881
 40
0.3760145541937022
 40
0.4952552518176153
 40
0.6147977192994643
 40
0.7381055541683231
 40
1.0
 40
1.0
 40
1.0
 40
1.0
 10
307.1149584918908
 20
-251.5317115158105
 30
0.0
 10
307.2171511753184
 20
-251.5320104856252
 30
0.0
 10
307.3688945064374
 20
-251.545130550704
 30
0.0
 10
307.56089228261
 20
-251.5991094850634
 30
0.0
 10
307.6955553578376
 20
-251.6529711183217
 30
0.0
 10
307.822691907505
 20
-251.7246619346475
 30
0.0
 10
307.9846149083563
 20
-251.8478160751204
 30
0.0
 10
308.087884306608
 20
-251.9648826505531
 30
0.0
 10
308.1498142611215
 20
-252.0498405222207
 30
0.0
  0
SPLINE
  5
80
330
1F
100
AcDbEntity
  8
0
  6
Continuous
 62
     7
370
    25
100
AcDbSpline
210
0.0
220
0.0
230
1.0
 70
     8
 71
     3
 72
    21
 73
    17
 74
     0
 42
0.00000001
 43
0.00000001
 40
0.0
 40
0.0
 40
0.0
 40
0.0
 40
0.126078809989494
 40
0.1869040927472025
 40
0.2475739349176209
 40
0.3080033561644352
 40
0.3691318984609725
 40
0.4320332277441902
 40
0.4967907944371041
 40
0.5616108232295495
 40
0.6249138657484642
 40
0.6867263492419142
 40
0.7480788332577714
 40
0.8095822911398849
 40
0.8716307425688262
 40
1.0
 40
1.0
 40
1.0
 40
1.0
 10
305.7716091329164
 20
-252.8484182465797
 30
0.0
 10
305.7721267864475
 20
-252.7606004827453
 30
0.0
 10
305.7828582613407
 20
-252.6299859320471
 30
0.0
 10
305.8248540923498
 20
-252.4622539157116
 30
0.0
 10
305.8683630594359
 20
-252.3428986505629
 30
0.0
 10
305.9242154057613
 20
-252.2285581527631
 30
0.0
 10
305.9921406647314
 20
-252.1191542463909
 30
0.0
 10
306.0721605756897
 20
-252.0143848283231
 30
0.0
 10
306.1644127660055
 20
-251.9167135593607
 30
0.0
 10
306.2643475867642
 20
-251.8264931348741
 30
0.0
 10
306.3712563327612
 20
-251.7480833940348
 30
0.0
 10
306.482479507789
 20
-251.6803690646581
 30
0.0
 10
306.5997429242361
 20
-251.6267062902317
 30
0.0
 10
306.7213085043935
 20
-251.5833320257358
 30
0.0
 10
306.8925211386661
 20
-251.5426525413116
 30
0.0
 10
307.0255452595999
 20
-251.5325091374693
 30
0.0
 10
307.1149584918908
 20
-251.5317115158105
 30
0.0
  0
SPLINE
  5
81
330
1F
100
AcDbEntity
  8
0
  6
Continuous
 62
     7
370
    25
100
AcDbSpline
210
0.0
220
0.0
230
1.0
 70
     8
 71
     3
 72
    21
 73
    17
 74
     0
 42
0.00000001
 43
0.00000001
 40
0.0
 40
0.0
 40
0.0
 40
0.0
 40
0.1274334841444685
 40
0.1890041265579355
 40
0.2499300706860483
 40
0.3106684537406894
 40
0.3723289611368155
 40
0.434939109997017
 40
0.4995755441940321
 40
0.56419120777193
 40
0.6267352169294835
 40
0.6881093335614054
 40
0.7492936065367536
 40
0.8103305278109489
 40
0.871901170224416
 40
1.0
 40
1.0
 40
1.0
 40
1.0
 10
307.1051427867626
 20
-254.1791474132464
 30
0.0
 10
307.0161133751305
 20
-254.1789293135788
 30
0.0
 10
306.8838462642856
 20
-254.1674349054879
 30
0.0
 10
306.7137796204055
 20
-254.1265754333991
 30
0.0
 10
306.5925059095165
 20
-254.0847178584606
 30
0.0
 10
306.4768335350396
 20
-254.0291254712602
 30
0.0
 10
306.3657734967177
 20
-253.9625873736386
 30
0.0
 10
306.259900804164
 20
-253.8833456769173
 30
0.0
 10
306.1608292054503
 20
-253.7927578883789
 30
0.0
 10
306.0695974435438
 20
-253.6943628400399
 30
0.0
 10
305.9895353097836
 20
-253.5894172969774
 30
0.0
 10
305.9227853616179
 20
-253.4783750357428
 30
0.0
 10
305.8669536802664
 20
-253.3626417088678
 30
0.0
 10
305.8240006351589
 20
-253.2413274390055
 30
0.0
 10
305.7833240591135
 20
-253.0706202581165
 30
0.0
 10
305.7718171251787
 20
-252.9379246026082
 30
0.0
 10
305.7716091329164
 20
-252.8484182465797
 30
0.0
  0
SPLINE
  5
82
330
1F
100
AcDbEntity
  8
0
  6
Continuous
 62
     7
370
    25
100
AcDbSpline
210
0.0
220
0.0
230
1.0
 70
     8
 71
     3
 72
     9
 73
     5
 74
     0
 42
0.00000001
 43
0.00000001
 40
0.6909922536723645
 40
0.6909922536723645
 40
0.6909922536723645
 40
0.6909922536723645
 40
0.7481449416030171
 40
1.0
 40
1.0
 40
1.0
 40
1.0
 10
307.4702791104373
 20
-254.134275619346
 30
0.0
 10
307.4482563814161
 20
-254.1399568538808
 30
0.0
 10
307.328429010338
 20
-254.1677357653649
 30
0.0
 10
307.2053789662504
 20
-254.1799547636974
 30
0.0
 10
307.1051427867626
 20
-254.1791474132464
 30
0.0
  0
SPLINE
  5
86
330
1F
100
AcDbEntity
  8
0
  6
Continuous
 62
     7
370
    25
100
AcDbSpline
210
0.0
220
0.0
230
1.0
 70
     8
 71
     3
 72
    21
 73
    17
 74
     0
 42
0.00000001
 43
0.00000001
 40
0.0
 40
0.0
 40
0.0
 40
0.0
 40
0.1511781404663751
 40
0.2234879838003944
 40
0.2955426441988852
 40
0.3669762546197847
 40
0.4371305254864042
 40
0.5070436156432673
 40
0.5785597335236894
 40
0.616613544696568
 40
0.6587562369775359
 40
0.7044912261144132
 40
0.7548031149051444
 40
0.8093316253185747
 40
0.8682744554728433
 40
1.0
 40
1.0
 40
1.0
 40
1.0
 10
311.5011764406088
 20
-251.5317115158105
 30
0.0
 10
311.5935520861159
 20
-251.5323232909784
 30
0.0
 10
311.7314282261295
 20
-251.5473257648693
 30
0.0
 10
311.9020000263554
 20
-251.6100775728289
 30
0.0
 10
312.0186144852457
 20
-251.6732350561057
 30
0.0
 10
312.1237430457845
 20
-251.7518559635597
 30
0.0
 10
312.2160675458101
 20
-251.8434299579413
 30
0.0
 10
312.2924308798238
 20
-251.9487670567864
 30
0.0
 10
312.3436282456604
 20
-252.0464899613114
 30
0.0
 10
312.3773538384582
 20
-252.1331787917358
 30
0.0
 10
312.3985863836778
 20
-252.2074255333486
 30
0.0
 10
312.4166164717768
 20
-252.2901436871718
 30
0.0
 10
312.4322520438367
 20
-252.3810832751484
 30
0.0
 10
312.4428130085826
 20
-252.4808814668442
 30
0.0
 10
312.4544457764321
 20
-252.6306080438968
 30
0.0
 10
312.4582865213488
 20
-252.7473990113384
 30
0.0
 10
312.4575065688139
 20
-252.8280857145284
 30
0.0
  0
SPLINE
  5
87
330
1F
100
AcDbEntity
  8
0
  6
Continuous
 62
     7
370
    25
100
AcDbSpline
210
0.0
220
0.0
230
1.0
 70
     8
 71
     3
 72
    13
 73
     9
 74
     0
 42
0.00000001
 43
0.00000001
 40
0.0
 40
0.0
 40
0.0
 40
0.0
 40
0.2735687809631569
 40
0.3989883138042714
 40
0.5199297813924425
 40
0.6381100215247518
 40
0.7565889007405892
 40
1.0
 40
1.0
 40
1.0
 40
1.0
 10
310.5280193893267
 20
-252.0379214517079
 30
0.0
 10
310.5913761935484
 20
-251.9557141898109
 30
0.0
 10
310.6922709715387
 20
-251.8407935867266
 30
0.0
 10
310.8495900105754
 20
-251.720232767408
 30
0.0
 10
310.9695625566993
 20
-251.650097328028
 30
0.0
 10
311.0951910396486
 20
-251.5973060848908
 30
0.0
 10
311.2706929685335
 20
-251.5457154856106
 30
0.0
 10
311.4087267624953
 20
-251.5321877562766
 30
0.0
 10
311.5011764406088
 20
-251.5317115158105
 30
0.0
  0
SPLINE
  5
8C
330
1F
100
AcDbEntity
  8
0
  6
Continuous
 62
     7
370
    25
100
AcDbSpline
210
0.0
220
0.0
230
1.0
 70
     8
 71
     3
 72
    17
 73
    13
 74
     0
 42
0.00000001
 43
0.00000001
 40
0.0
 40
0.0
 40
0.0
 40
0.0
 40
0.1638788940984791
 40
0.2456587396295167
 40
0.3277256953541075
 40
0.408609960910306
 40
0.4857490859539403
 40
0.5591690561972896
 40
0.630268475857553
 40
0.7053060284320599
 40
0.7920649660966274
 40
1.0
 40
1.0
 40
1.0
 40
1.0
 10
315.6791612162498
 20
-253.8650448491439
 30
0.0
 10
315.7413551201898
 20
-253.865345679893
 30
0.0
 10
315.8346513525636
 20
-253.8580226186192
 30
0.0
 10
315.9564996460361
 20
-253.832503036593
 30
0.0
 10
316.0457603892996
 20
-253.8066447598024
 30
0.0
 10
316.1313312010509
 20
-253.7750595291159
 30
0.0
 10
316.2105770993817
 20
-253.7369590166306
 30
0.0
 10
316.2834560433672
 20
-253.6948078745679
 30
0.0
 10
316.3515776622552
 20
-253.6466015167991
 30
0.0
 10
316.4176295020889
 20
-253.5875801916659
 30
0.0
 10
316.5111272910896
 20
-253.4827612600368
 30
0.0
 10
316.5782430607598
 20
-253.3931307945854
 30
0.0
 10
316.6207677867626
 20
-253.3265833106824
 30
0.0
  0
SPLINE
  5
8D
330
1F
100
AcDbEntity
  8
0
  6
Continuous
 62
     7
370
    25
100
AcDbSpline
210
0.0
220
0.0
230
1.0
 70
     8
 71
     3
 72
    21
 73
    17
 74
     0
 42
0.00000001
 43
0.00000001
 40
0.0
 40
0.0
 40
0.0
 40
0.0
 40
0.1344755875434829
 40
0.1983910577839858
 40
0.2607534774484956
 40
0.3218292228076552
 40
0.3830372384795463
 40
0.444653123106428
 40
0.5073980112040266
 40
0.5698252379730263
 40
0.6307776406313209
 40
0.6909286865237115
 40
0.750945132691736
 40
0.8110494767293142
 40
0.8723308525469924
 40
1.0
 40
1.0
 40
1.0
 40
1.0
 10
314.7459681072754
 20
-252.9227371568361
 30
0.0
 10
314.7477568317452
 20
-252.9889831678449
 30
0.0
 10
314.7566371781647
 20
-253.0868394261065
 30
0.0
 10
314.7869177088378
 20
-253.2120527173548
 30
0.0
 10
314.8181634737893
 20
-253.2991352971025
 30
0.0
 10
314.8560363882971
 20
-253.3820655441422
 30
0.0
 10
314.9024204847345
 20
-253.4602275525205
 30
0.0
 10
314.957760477852
 20
-253.5332654777664
 30
0.0
 10
315.0194860566582
 20
-253.6018326643098
 30
0.0
 10
315.0881931866309
 20
-253.6628932362809
 30
0.0
 10
315.1604759159447
 20
-253.7175457007967
 30
0.0
 10
315.2373695181674
 20
-253.7633487755363
 30
0.0
 10
315.3182674708409
 20
-253.8005380377276
 30
0.0
 10
315.4030397459005
 20
-253.8296091088046
 30
0.0
 10
315.523021810973
 20
-253.8566755687854
 30
0.0
 10
315.6161500618657
 20
-253.865394533447
 30
0.0
 10
315.6791612162498
 20
-253.8650448491439
 30
0.0
  0
SPLINE
  5
8F
330
1F
100
AcDbEntity
  8
0
  6
Continuous
 62
     7
370
    25
100
AcDbSpline
210
0.0
220
0.0
230
1.0
 70
     8
 71
     3
 72
    13
 73
     9
 74
     0
 42
0.00000001
 43
0.00000001
 40
0.0
 40
0.0
 40
0.0
 40
0.0
 40
0.2362547631617262
 40
0.3561744339909078
 40
0.4772496548985693
 40
0.6015398708216827
 40
0.7296183821680486
 40
1.0
 40
1.0
 40
1.0
 40
1.0
 10
316.7560842931729
 20
-252.0351169645285
 30
0.0
 10
316.8019709450458
 20
-252.0940057878778
 30
0.0
 10
316.861879985432
 20
-252.1896449512249
 30
0.0
 10
316.9254907534261
 20
-252.3264309731156
 30
0.0
 10
316.9638675310954
 20
-252.4353127069086
 30
0.0
 10
316.9948776641557
 20
-252.5491390575436
 30
0.0
 10
317.0254791475807
 20
-252.7114951759935
 30
0.0
 10
317.0328401810826
 20
-252.8374775153528
 30
0.0
 10
317.034429645737
 20
-252.9227371568361
 30
0.0
  0
SPLINE
  5
90
330
1F
100
AcDbEntity
  8
0
  6
Continuous
 62
     7
370
    25
100
AcDbSpline
210
0.0
220
0.0
230
1.0
 70
     8
 71
     3
 72
    13
 73
     9
 74
     0
 42
0.00000001
 43
0.00000001
 40
0.0
 40
0.0
 40
0.0
 40
0.0
 40
0.2590328407794016
 40
0.3818798239250283
 40
0.5022584437149767
 40
0.6227521895274805
 40
0.7447426318589606
 40
1.0
 40
1.0
 40
1.0
 40
1.0
 10
315.7261363765061
 20
-251.5317115158105
 30
0.0
 10
315.8289638785864
 20
-251.5312795422289
 30
0.0
 10
315.9808721393146
 20
-251.5461597478497
 30
0.0
 10
316.1734652024667
 20
-251.599448998009
 30
0.0
 10
316.3073095479735
 20
-251.6545346294983
 30
0.0
 10
316.432979059549
 20
-251.725746376206
 30
0.0
 10
316.5912542353414
 20
-251.8448171615073
 30
0.0
 10
316.6946971494795
 20
-251.9544568519292
 30
0.0
 10
316.7560842931728
 20
-252.0351169645285
 30
0.0
  0
SPLINE
  5
91
330
1F
100
AcDbEntity
  8
0
  6
Continuous
 62
     7
370
    25
100
AcDbSpline
210
0.0
220
0.0
230
1.0
 70
     8
 71
     3
 72
    13
 73
     9
 74
     0
 42
0.00000001
 43
0.00000001
 40
0.0
 40
0.0
 40
0.0
 40
0.0
 40
0.2535893349864956
 40
0.3746432573141767
 40
0.4953400422377883
 40
0.6163247746358179
 40
0.7397593354405325
 40
1.0
 40
1.0
 40
1.0
 40
1.0
 10
314.726336697019
 20
-252.0084743363233
 30
0.0
 10
314.786909757302
 20
-251.9327497871705
 30
0.0
 10
314.8856777327083
 20
-251.8268679518006
 30
0.0
 10
315.0403398846877
 20
-251.7161054248254
 30
0.0
 10
315.1619169077193
 20
-251.6480658794607
 30
0.0
 10
315.2922583424429
 20
-251.5964333497445
 30
0.0
 10
315.4788043684138
 20
-251.5439389468562
 30
0.0
 10
315.6266801653895
 20
-251.5329100959969
 30
0.0
 10
315.7261363765061
 20
-251.5317115158105
 30
0.0
  0
SPLINE
  5
92
330
1F
100
AcDbEntity
  8
0
  6
Continuous
 62
     7
370
    25
100
AcDbSpline
210
0.0
220
0.0
230
1.0
 70
     8
 71
     3
 72
    13
 73
     9
 74
     0
 42
0.00000001
 43
0.00000001
 40
0.0
 40
0.0
 40
0.0
 40
0.0
 40
0.2537679000244742
 40
0.3774284265812699
 40
0.5005508414824912
 40
0.6232958832424628
 40
0.746578331933482
 40
1.0
 40
1.0
 40
1.0
 40
1.0
 10
314.4318655431728
 20
-252.8624406824771
 30
0.0
 10
314.4328188313779
 20
-252.7846469803181
 30
0.0
 10
314.4400949114343
 20
-252.6685181201534
 30
0.0
 10
314.4717222909914
 20
-252.5179744091942
 30
0.0
 10
314.5038697237184
 20
-252.4090867173787
 30
0.0
 10
314.5454488254392
 20
-252.3035464676607
 30
0.0
 10
314.6136216017958
 20
-252.1660354314291
 30
0.0
 10
314.6787854345244
 20
-252.0699661601487
 30
0.0
 10
314.726336697019
 20
-252.0084743363233
 30
0.0
  0
SPLINE
  5
93
330
1F
100
AcDbEntity
  8
0
  6
Continuous
 62
     7
370
    25
100
AcDbSpline
210
0.0
220
0.0
230
1.0
 70
     8
 71
     3
 72
    21
 73
    17
 74
     0
 42
0.00000001
 43
0.00000001
 40
0.0
 40
0.0
 40
0.0
 40
0.0
 40
0.1396292246928601
 40
0.2047966973966612
 40
0.2681349633966659
 40
0.3298137469867257
 40
0.3913013977745552
 40
0.4534335150970595
 40
0.5165516903197721
 40
0.5796312707049094
 40
0.6411189214927613
 40
0.7012940466987707
 40
0.7608103356761242
 40
0.8199317217781293
 40
0.8789195754993893
 40
1.0
 40
1.0
 40
1.0
 40
1.0
 10
315.7184240367626
 20
-254.1791474132464
 30
0.0
 10
315.6226533567685
 20
-254.179108530345
 30
0.0
 10
315.4817316614296
 20
-254.1681122473038
 30
0.0
 10
315.3024998183985
 20
-254.1249658919999
 30
0.0
 10
315.1792897661745
 20
-254.0810402182134
 30
0.0
 10
315.0645470876718
 20
-254.0236025911252
 30
0.0
 10
314.9580463429756
 20
-253.9536458426759
 30
0.0
 10
314.8592267981688
 20
-253.8715128470157
 30
0.0
 10
314.7712025526447
 20
-253.7764966036928
 30
0.0
 10
314.6919588336299
 20
-253.6748146007204
 30
0.0
 10
314.6220324144425
 20
-253.5688586994407
 30
0.0
 10
314.5635771557432
 20
-253.4588955832403
 30
0.0
 10
314.5160165758962
 20
-253.3456246495286
 30
0.0
 10
314.4776411789824
 20
-253.2297622740446
 30
0.0
 10
314.4415598947095
 20
-253.069315129815
 30
0.0
 10
314.4327802704101
 20
-252.9454633228272
 30
0.0
 10
314.4318655431728
 20
-252.8624406824771
 30
0.0
  0
SPLINE
  5
94
330
1F
100
AcDbEntity
  8
0
  6
Continuous
 62
     7
370
    25
100
AcDbSpline
210
0.0
220
0.0
230
1.0
 70
     8
 71
     3
 72
    17
 73
    13
 74
     0
 42
0.00000001
 43
0.00000001
 40
0.0
 40
0.0
 40
0.0
 40
0.0
 40
0.1816607660710057
 40
0.2658742270426189
 40
0.3463547840343104
 40
0.4245998617178756
 40
0.5019031838373883
 40
0.5799920909873523
 40
0.6584434305294196
 40
0.7386722364878586
 40
0.8218941484362581
 40
1.0
 40
1.0
 40
1.0
 40
1.0
 10
316.8998142611215
 20
-253.4731177658105
 30
0.0
 10
316.8583134250003
 20
-253.5508104003366
 30
0.0
 10
316.7888424342405
 20
-253.6598062860597
 30
0.0
 10
316.6818965501322
 20
-253.7895684407804
 30
0.0
 10
316.5968235573905
 20
-253.8713148589622
 30
0.0
 10
316.5071459513619
 20
-253.9425618084373
 30
0.0
 10
316.4124153643505
 20
-254.0049013254125
 30
0.0
 10
316.3121260488351
 20
-254.0580174074382
 30
0.0
 10
316.2062762324082
 20
-254.1027780991357
 30
0.0
 10
316.0939775828665
 20
-254.1371563339129
 30
0.0
 10
315.9315943102903
 20
-254.1704820320402
 30
0.0
 10
315.8047178285204
 20
-254.179136253072
 30
0.0
 10
315.7184240367626
 20
-254.1791474132464
 30
0.0
  0
SPLINE
  5
9E
330
1F
100
AcDbEntity
  8
0
  6
Continuous
 62
     7
370
    25
100
AcDbSpline
210
0.0
220
0.0
230
1.0
 70
     8
 71
     3
 72
     9
 73
     5
 74
     0
 42
0.00000001
 43
0.00000001
 40
0.0
 40
0.0
 40
0.0
 40
0.0
 40
0.2505477821575611
 40
0.2950168130379578
 40
0.2950168130379578
 40
0.2950168130379578
 40
0.2950168130379578
 10
321.3533399021472
 20
-254.1791474132464
 30
0.0
 10
321.2528696940287
 20
-254.1803073261261
 30
0.0
 10
321.1348536604531
 20
-254.1666677285804
 30
0.0
 10
321.019952151176
 20
-254.1388247649018
 30
0.0
 10
321.0027282556087
 20
-254.1342756195265
 30
0.0
  0
SPLINE
  5
9F
330
1F
100
AcDbEntity
  8
0
  6
Continuous
 62
     7
370
    25
100
AcDbSpline
210
0.0
220
0.0
230
1.0
 70
     8
 71
     3
 72
    21
 73
    17
 74
     0
 42
0.00000001
 43
0.00000001
 40
0.0
 40
0.0
 40
0.0
 40
0.0
 40
0.1280341643911167
 40
0.1895737254178876
 40
0.25057983473239
 40
0.3117332213636264
 40
0.3732500799286361
 40
0.4357625163356392
 40
0.5003455613741234
 40
0.5649493665465388
 40
0.6275279092682813
 40
0.6891572899131224
 40
0.7498650117126833
 40
0.8107601999033064
 40
0.8722997609300773
 40
1.0
 40
1.0
 40
1.0
 40
1.0
 10
322.6882757995832
 20
-252.8484182465797
 30
0.0
 10
322.688072560258
 20
-252.9379274968033
 30
0.0
 10
322.6765517474875
 20
-253.0706147011039
 30
0.0
 10
322.6358973785544
 20
-253.2413354045192
 30
0.0
 10
322.5928825745366
 20
-253.362612067669
 30
0.0
 10
322.5372294569707
 20
-253.4785958788895
 30
0.0
 10
322.4695280426988
 20
-253.5892022355841
 30
0.0
 10
322.3896407121118
 20
-253.6943959345281
 30
0.0
 10
322.2983398230372
 20
-253.7927488937943
 30
0.0
 10
322.1992868281598
 20
-253.883347975208
 30
0.0
 10
322.0934093343773
 20
-253.9625868812155
 30
0.0
 10
321.9823504809219
 20
-254.0291252160783
 30
0.0
 10
321.8666780342864
 20
-254.0847193374142
 30
0.0
 10
321.7454034465295
 20
-254.1265697191955
 30
0.0
 10
321.5751163196612
 20
-254.1675205041681
 30
0.0
 10
321.4425875130239
 20
-254.1788246964385
 30
0.0
 10
321.3533399021472
 20
-254.1791474132464
 30
0.0
  0
SPLINE
  5
A0
330
1F
100
AcDbEntity
  8
0
  6
Continuous
 62
     7
370
    25
100
AcDbSpline
210
0.0
220
0.0
230
1.0
 70
     8
 71
     3
 72
    21
 73
    17
 74
     0
 42
0.00000001
 43
0.00000001
 40
0.0
 40
0.0
 40
0.0
 40
0.0
 40
0.1286360505630947
 40
0.1906529019116426
 40
0.2521250372681225
 40
0.3134462756463771
 40
0.3752272792334037
 40
0.4384980827328687
 40
0.5032850999340355
 40
0.5680096868463761
 40
0.6308789816949899
 40
0.6921535040082895
 40
0.7525521497155905
 40
0.8131910939047738
 40
0.8739853995183432
 40
1.0
 40
1.0
 40
1.0
 40
1.0
 10
321.343524197019
 20
-251.5317115158105
 30
0.0
 10
321.433156927696
 20
-251.532609638044
 30
0.0
 10
321.5664405463149
 20
-251.5425693768234
 30
0.0
 10
321.7378746403227
 20
-251.5833373974205
 30
0.0
 10
321.8594409986987
 20
-251.626704901139
 30
0.0
 10
321.9767045154294
 20
-251.6803692879813
 30
0.0
 10
322.0879264966175
 20
-251.7480839074153
 30
0.0
 10
322.1948400707113
 20
-251.8264907650857
 30
0.0
 10
322.2947563095876
 20
-251.9167227339348
 30
0.0
 10
322.3870774602192
 20
-252.0143510406563
 30
0.0
 10
322.4669244298755
 20
-252.1193733649726
 30
0.0
 10
322.5357934925127
 20
-252.2283358358416
 30
0.0
 10
322.5914742077751
 20
-252.3429283628846
 30
0.0
 10
322.6350435967687
 20
-252.4622459638292
 30
0.0
 10
322.6770178308299
 20
-252.6299914426967
 30
0.0
 10
322.6877627248699
 20
-252.7605976285233
 30
0.0
 10
322.6882757995832
 20
-252.8484182465797
 30
0.0
  0
SPLINE
  5
A1
330
1F
100
AcDbEntity
  8
0
  6
Continuous
 62
     7
370
    25
100
AcDbSpline
210
0.0
220
0.0
230
1.0
 70
     8
 71
     3
 72
    13
 73
     9
 74
     0
 42
0.00000001
 43
0.00000001
 40
0.0
 40
0.0
 40
0.0
 40
0.0
 40
0.2630446827611773
 40
0.3860610822643303
 40
0.5057706525454725
 40
0.6251780311386883
 40
0.7461477220466144
 40
1.0
 40
1.0
 40
1.0
 40
1.0
 10
320.310070671378
 20
-252.0498405222207
 30
0.0
 10
320.372235906721
 20
-251.964531074464
 30
0.0
 10
320.4766635988344
 20
-251.848597495611
 30
0.0
 10
320.6379416774571
 20
-251.7244262548309
 30
0.0
 10
320.7650574478024
 20
-251.6529966903311
 30
0.0
 10
320.8994906547624
 20
-251.5992329332073
 30
0.0
 10
321.0907258148324
 20
-251.5450837317053
 30
0.0
 10
321.241803533473
 20
-251.5320329627885
 30
0.0
 10
321.343524197019
 20
-251.5317115158105
 30
0.0
  0
SPLINE
  5
A6
330
1F
100
AcDbEntity
  8
0
  6
Continuous
 62
     7
370
    25
100
AcDbSpline
210
0.0
220
0.0
230
1.0
 70
     8
 71
     3
 72
    13
 73
     9
 74
     0
 42
0.00000001
 43
0.00000001
 40
0.0
 40
0.0
 40
0.0
 40
0.0
 40
0.2583323505141345
 40
0.3821339760925144
 40
0.5038043916000575
 40
0.6246929865409254
 40
0.7468705897275472
 40
1.0
 40
1.0
 40
1.0
 40
1.0
 10
324.5518575303524
 20
-251.5317115158105
 30
0.0
 10
324.6459476916615
 20
-251.5307368752129
 30
0.0
 10
324.7851738642825
 20
-251.5443025570625
 30
0.0
 10
324.9632989927369
 20
-251.5889465281967
 30
0.0
 10
325.0890949063299
 20
-251.6341524403956
 30
0.0
 10
325.2074745504594
 20
-251.6948806532869
 30
0.0
 10
325.3598385481138
 20
-251.7924269842956
 30
0.0
 10
325.4614538540541
 20
-251.885149109377
 30
0.0
 10
325.5236123380447
 20
-251.9530857145285
 30
0.0
  0
SPLINE
  5
A7
330
1F
100
AcDbEntity
  8
0
  6
Continuous
 62
     7
370
    25
100
AcDbSpline
210
0.0
220
0.0
230
1.0
 70
     8
 71
     3
 72
    13
 73
     9
 74
     0
 42
0.00000001
 43
0.00000001
 40
0.0
 40
0.0
 40
0.0
 40
0.0
 40
0.2527129855154582
 40
0.3748191325670542
 40
0.4964364263727105
 40
0.6179105567458402
 40
0.7412876173092696
 40
1.0
 40
1.0
 40
1.0
 40
1.0
 10
323.5772982354806
 20
-251.9551890799131
 30
0.0
 10
323.6389169244089
 20
-251.8863442622284
 30
0.0
 10
323.7414373925994
 20
-251.794503147816
 30
0.0
 10
323.8934396192376
 20
-251.6949827354481
 30
0.0
 10
324.0131209573706
 20
-251.6354513608511
 30
0.0
 10
324.1388156384546
 20
-251.5886797104151
 30
0.0
 10
324.3176642593656
 20
-251.5443335814748
 30
0.0
 10
324.4572902231288
 20
-251.5308481600909
 30
0.0
 10
324.5518575303524
 20
-251.5317115158105
 30
0.0
  0
SPLINE
  5
A8
330
1F
100
AcDbEntity
  8
0
  6
Continuous
 62
     7
370
    25
100
AcDbSpline
210
0.0
220
0.0
230
1.0
 70
     8
 71
     3
 72
    13
 73
     9
 74
     0
 42
0.00000001
 43
0.00000001
 40
0.0
 40
0.0
 40
0.0
 40
0.0
 40
0.2552377249249179
 40
0.3786785959785586
 40
0.5010878871851218
 40
0.6227136794298043
 40
0.7462407949383975
 40
1.0
 40
1.0
 40
1.0
 40
1.0
 10
323.2267373380447
 20
-252.8624406824771
 30
0.0
 10
323.227231604794
 20
-252.7777338851438
 30
0.0
 10
323.2367792204373
 20
-252.6517415712825
 30
0.0
 10
323.2737921060618
 20
-252.4892306827202
 30
0.0
 10
323.3124828218894
 20
-252.3732999864595
 30
0.0
 10
323.3620311731246
 20
-252.2615682613041
 30
0.0
 10
323.4431864476535
 20
-252.116815314355
 30
0.0
 10
323.5208849355957
 20
-252.0176999781079
 30
0.0
 10
323.5772982354806
 20
-251.9551890799131
 30
0.0
  0
SPLINE
  5
A9
330
1F
100
AcDbEntity
  8
0
  6
Continuous
 62
     7
370
    25
100
AcDbSpline
210
0.0
220
0.0
230
1.0
 70
     8
 71
     3
 72
    21
 73
    17
 74
     0
 42
0.00000001
 43
0.00000001
 40
0.0
 40
0.0
 40
0.0
 40
0.0
 40
0.1346351922242865
 40
0.198324187067169
 40
0.2608250125604355
 40
0.3227135881590253
 40
0.3845545346076156
 40
0.4469128577247704
 40
0.5109576325148328
 40
0.5749307010013395
 40
0.6366845377960962
 40
0.6974831152940754
 40
0.7571338075238611
 40
0.8169656636752518
 40
0.8768183516572068
 40
1.0
 40
1.0
 40
1.0
 40
1.0
 10
324.5518575303524
 20
-254.1791474132464
 30
0.0
 10
324.4584519140175
 20
-254.1787253206471
 30
0.0
 10
324.3204335590262
 20
-254.1682292279746
 30
0.0
 10
324.1439150810208
 20
-254.1262698475869
 30
0.0
 10
324.0206880851715
 20
-254.0824393957054
 30
0.0
 10
323.9035428169291
 20
-254.0271350856201
 30
0.0
 10
323.7937564278052
 20
-253.9585260063297
 30
0.0
 10
323.6905565011254
 20
-253.8779651421276
 30
0.0
 10
323.5954844503191
 20
-253.785829400676
 30
0.0
 10
323.5094861200418
 20
-253.6858193914328
 30
0.0
 10
323.4336121174957
 20
-253.580669368286
 30
0.0
 10
323.3697253980124
 20
-253.4712592647239
 30
0.0
 10
323.3173540049517
 20
-253.3573766048816
 30
0.0
 10
323.2765713753802
 20
-253.2395177826834
 30
0.0
 10
323.2379397776812
 20
-253.0751289925371
 30
0.0
 10
323.226230430659
 20
-252.9480080996042
 30
0.0
 10
323.2267373380447
 20
-252.8624406824771
 30
0.0
  0
SPLINE
  5
AA
330
1F
100
AcDbEntity
  8
0
  6
Continuous
 62
     7
370
    25
100
AcDbSpline
210
0.0
220
0.0
230
1.0
 70
     8
 71
     3
 72
    21
 73
    17
 74
     0
 42
0.00000001
 43
0.00000001
 40
0.0
 40
0.0
 40
0.0
 40
0.0
 40
0.1233369785373221
 40
0.1832651398531027
 40
0.2431724430697108
 40
0.3028983539197413
 40
0.3637735975039184
 40
0.4256053049523909
 40
0.4896590425101943
 40
0.5537845767921171
 40
0.6162215328110929
 40
0.6778544713083482
 40
0.7395168974879439
 40
0.8020965355763713
 40
0.8658658412779846
 40
1.0
 40
1.0
 40
1.0
 40
1.0
 10
325.8741732354806
 20
-252.8624406824771
 30
0.0
 10
325.8746801447536
 20
-252.9480081024454
 30
0.0
 10
325.86297079219
 20
-253.0751289870358
 30
0.0
 10
325.8243392034603
 20
-253.2395177906852
 30
0.0
 10
325.7835565486617
 20
-253.3573765749046
 30
0.0
 10
325.7311852502071
 20
-253.471259377174
 30
0.0
 10
325.6672981693562
 20
-253.5806689367073
 30
0.0
 10
325.5914255579572
 20
-253.6858210541864
 30
0.0
 10
325.5054218364481
 20
-253.7858229470845
 30
0.0
 10
325.4103698931592
 20
-253.8779889598273
 30
0.0
 10
325.3072537363985
 20
-253.9583179606353
 30
0.0
 10
325.1980997999433
 20
-254.0271368049312
 30
0.0
 10
325.0814560647244
 20
-254.0825832519354
 30
0.0
 10
324.9583900382571
 20
-254.1262547244146
 30
0.0
 10
324.7823348765566
 20
-254.1681065634843
 30
0.0
 10
324.6448075797391
 20
-254.1787834476924
 30
0.0
 10
324.5518575303524
 20
-254.1791474132464
 30
0.0
  0
SPLINE
  5
AB
330
1F
100
AcDbEntity
  8
0
  6
Continuous
 62
     7
370
    25
100
AcDbSpline
210
0.0
220
0.0
230
1.0
 70
     8
 71
     3
 72
    13
 73
     9
 74
     0
 42
0.00000001
 43
0.00000001
 40
0.0
 40
0.0
 40
0.0
 40
0.0
 40
0.1569381495573085
 40
0.2586003949600458
 40
0.3758909295891689
 40
0.508166167698898
 40
0.6562378085782455
 40
1.0
 40
1.0
 40
1.0
 40
1.0
 10
328.1289809277881
 20
-252.3968958106823
 30
0.0
 10
328.1172311085734
 20
-252.4415536442372
 30
0.0
 10
328.1057671548587
 20
-252.5167257067245
 30
0.0
 10
328.0935433946875
 20
-252.6264650890051
 30
0.0
 10
328.0863952284619
 20
-252.7294017130288
 30
0.0
 10
328.0798420773196
 20
-252.8460174488717
 30
0.0
 10
328.07456779843
 20
-253.0292730262924
 30
0.0
 10
328.0723447270208
 20
-253.1737196364025
 30
0.0
 10
328.0728911841984
 20
-253.2747002978618
 30
0.0
  0
SPLINE
  5
AC
330
1F
100
AcDbEntity
  8
0
  6
Continuous
 62
     7
370
    25
100
AcDbSpline
210
0.0
220
0.0
230
1.0
 70
     8
 71
     3
 72
    17
 73
    13
 74
     0
 42
0.00000001
 43
0.00000001
 40
0.0
 40
0.0
 40
0.0
 40
0.0
 40
0.191338128136371
 40
0.2951906166251362
 40
0.4103123367232764
 40
0.4719302510512834
 40
0.5364251593464152
 40
0.6031187283035903
 40
0.6741176724905616
 40
0.749332023225902
 40
0.8282833841715495
 40
1.0
 40
1.0
 40
1.0
 40
1.0
 10
328.6372942290702
 20
-251.8458140799131
 30
0.0
 10
328.5857692041808
 20
-251.8457475570398
 30
0.0
 10
328.5068899536578
 20
-251.8646252394242
 30
0.0
 10
328.4119468416365
 20
-251.9214605527019
 30
0.0
 10
328.3537723865393
 20
-251.9696455116177
 30
0.0
 10
328.3087305775958
 20
-252.01620604453
 30
0.0
 10
328.2765901508045
 20
-252.0568516321615
 30
0.0
 10
328.2471078741033
 20
-252.102431150728
 30
0.0
 10
328.2189358348783
 20
-252.1521602261852
 30
0.0
 10
328.1932769023144
 20
-252.2068916715087
 30
0.0
 10
328.1604254624897
 20
-252.2879465166764
 30
0.0
 10
328.1409040751473
 20
-252.3524243964771
 30
0.0
 10
328.1289809277881
 20
-252.3968958106823
 30
0.0
  0
SPLINE
  5
AD
330
1F
100
AcDbEntity
  8
0
  6
Continuous
 62
     7
370
    25
100
AcDbSpline
210
0.0
220
0.0
230
1.0
 70
     8
 71
     3
 72
     9
 73
     5
 74
     0
 42
0.00000001
 43
0.00000001
 40
0.0
 40
0.0
 40
0.0
 40
0.0
 40
0.5602299448882819
 40
1.0
 40
1.0
 40
1.0
 40
1.0
 10
328.7978511200959
 20
-251.8913869965797
 30
0.0
 10
328.7692380823237
 20
-251.8787166627194
 30
0.0
 10
328.7177654241053
 20
-251.8554610241009
 30
0.0
 10
328.661978268895
 20
-251.8461364686171
 30
0.0
 10
328.6372942290702
 20
-251.8458140799131
 30
0.0
  0
SPLINE
  5
AF
330
1F
100
AcDbEntity
  8
0
  6
Continuous
 62
     7
370
    25
100
AcDbSpline
210
0.0
220
0.0
230
1.0
 70
     8
 71
     3
 72
     9
 73
     5
 74
     0
 42
0.00000001
 43
0.00000001
 40
0.0
 40
0.0
 40
0.0
 40
0.0
 40
0.4635231951764949
 40
1.0
 40
1.0
 40
1.0
 40
1.0
 10
328.6968895816344
 20
-251.5317115158105
 30
0.0
 10
328.7418660345546
 20
-251.5320609366977
 30
0.0
 10
328.8383328648586
 20
-251.5489539379138
 30
0.0
 10
328.9259859765752
 20
-251.5924918493932
 30
0.0
 10
328.9703270816343
 20
-251.6193517401695
 30
0.0
  0
SPLINE
  5
B0
330
1F
100
AcDbEntity
  8
0
  6
Continuous
 62
     7
370
    25
100
AcDbSpline
210
0.0
220
0.0
230
1.0
 70
     8
 71
     3
 72
    13
 73
     9
 74
     0
 42
0.00000001
 43
0.00000001
 40
0.0
 40
0.0
 40
0.0
 40
0.0
 40
0.3061123827400922
 40
0.4383665141301729
 40
0.5605414552552405
 40
0.6753172249527145
 40
0.7861136344281365
 40
1.0
 40
1.0
 40
1.0
 40
1.0
 10
328.0728911841984
 20
-251.9530857145285
 30
0.0
 10
328.1159113123047
 20
-251.8853717558156
 30
0.0
 10
328.1838635146381
 20
-251.7916040712666
 30
0.0
 10
328.2896604080595
 20
-251.688913010276
 30
0.0
 10
328.367296271009
 20
-251.6303847309107
 30
0.0
 10
328.447677301616
 20
-251.5866243916112
 30
0.0
 10
328.5552505939707
 20
-251.5439471828743
 30
0.0
 10
328.6408091888644
 20
-251.5321005323828
 30
0.0
 10
328.6968895816344
 20
-251.5317115158105
 30
0.0
  0
SPLINE
  5
B8
330
1F
100
AcDbEntity
  8
0
  6
Continuous
 62
     7
370
    25
100
AcDbSpline
210
0.0
220
0.0
230
1.0
 70
     8
 71
     3
 72
    19
 73
    15
 74
     0
 42
0.00000001
 43
0.00000001
 40
0.0
 40
0.0
 40
0.0
 40
0.0
 40
0.1892644356875808
 40
0.2744630560180408
 40
0.3550231712817368
 40
0.4309204620429109
 40
0.5010860453857459
 40
0.5666076270376066
 40
0.6297208634283032
 40
0.6627106951128391
 40
0.6987655616316033
 40
0.7386105373889725
 40
0.7825812280784247
 40
0.7855545402851114
 40
0.7855545402851114
 40
0.7855545402851114
 40
0.7855545402851114
 10
331.5476507995831
 20
-254.8073525414515
 30
0.0
 10
331.6530315217763
 20
-254.8068009021443
 30
0.0
 10
331.8068453504038
 20
-254.795259381753
 30
0.0
 10
331.9984315785879
 20
-254.7431205029314
 30
0.0
 10
332.1229884179893
 20
-254.690548394471
 30
0.0
 10
332.2320450072828
 20
-254.6260891231314
 30
0.0
 10
332.3260568035363
 20
-254.554091176511
 30
0.0
 10
332.402201520453
 20
-254.4729096555962
 30
0.0
 10
332.4534144976947
 20
-254.3981279682787
 30
0.0
 10
332.4852490706567
 20
-254.3315038218244
 30
0.0
 10
332.5055214700225
 20
-254.2741512313408
 30
0.0
 10
332.5219947293167
 20
-254.2092983449809
 30
0.0
 10
332.531081439975
 20
-254.1617411388347
 30
0.0
 10
332.5353768986473
 20
-254.135911990956
 30
0.0
 10
332.5356464521869
 20
-254.1342756224479
 30
0.0
  0
SPLINE
  5
B9
330
1F
100
AcDbEntity
  8
0
  6
Continuous
 62
     7
370
    25
100
AcDbSpline
210
0.0
220
0.0
230
1.0
 70
     8
 71
     3
 72
    13
 73
     9
 74
     0
 42
0.00000001
 43
0.00000001
 40
0.0
 40
0.0
 40
0.0
 40
0.0
 40
0.2438053739154973
 40
0.3600615340644613
 40
0.4751119996584063
 40
0.593525097811897
 40
0.7193501703843308
 40
1.0
 40
1.0
 40
1.0
 40
1.0
 10
330.585711697019
 20
-254.3137627978618
 30
0.0
 10
330.6317987189573
 20
-254.3940866773238
 30
0.0
 10
330.7164077581444
 20
-254.5030684779394
 30
0.0
 10
330.8539630560069
 20
-254.6205061399315
 30
0.0
 10
330.9673798758754
 20
-254.6904633032817
 30
0.0
 10
331.0936192449421
 20
-254.7431267090582
 30
0.0
 10
331.2863328535223
 20
-254.795408981152
 30
0.0
 10
331.4413521044899
 20
-254.8068519590938
 30
0.0
 10
331.5476507995831
 20
-254.8073525414515
 30
0.0
  0
SPLINE
  5
BB
330
1F
100
AcDbEntity
  8
0
  6
Continuous
 62
     7
370
    25
100
AcDbSpline
210
0.0
220
0.0
230
1.0
 70
     8
 71
     3
 72
    17
 73
    13
 74
     0
 42
0.00000001
 43
0.00000001
 40
0.0
 40
0.0
 40
0.0
 40
0.0
 40
0.1884736749922881
 40
0.276839914958814
 40
0.3621365621714219
 40
0.4434367545654682
 40
0.5201655209986261
 40
0.5927096635690077
 40
0.6629173343528272
 40
0.735418800202718
 40
0.814880969999431
 40
1.0
 40
1.0
 40
1.0
 40
1.0
 10
331.5777990367625
 20
-255.121455105554
 30
0.0
 10
331.474425992873
 20
-255.1228116594022
 30
0.0
 10
331.3229601147583
 20
-255.1096944020776
 30
0.0
 10
331.1279775848331
 20
-255.0718366424698
 30
0.0
 10
330.9944017366595
 20
-255.0301859340553
 30
0.0
 10
330.8711321102247
 20
-254.9791352260335
 30
0.0
 10
330.7590076974909
 20
-254.9205438063161
 30
0.0
 10
330.6590381792566
 20
-254.8533530967389
 30
0.0
 10
330.5689088336737
 20
-254.7768547638985
 30
0.0
 10
330.4875896304309
 20
-254.6858829057572
 30
0.0
 10
330.380036320348
 20
-254.5354593424005
 30
0.0
 10
330.3132519554566
 20
-254.4061087825605
 30
0.0
 10
330.2716091329164
 20
-254.3137627978618
 30
0.0
  0
SPLINE
  5
BC
330
1F
100
AcDbEntity
  8
0
  6
Continuous
 62
     7
370
    25
100
AcDbSpline
210
0.0
220
0.0
230
1.0
 70
     8
 71
     3
 72
    21
 73
    17
 74
     0
 42
0.00000001
 43
0.00000001
 40
0.0
 40
0.0
 40
0.0
 40
0.0
 40
0.1209064680177899
 40
0.1794236650000369
 40
0.2376066874398123
 40
0.2959384682493696
 40
0.3542182268208732
 40
0.4135370665946856
 40
0.4740867825531824
 40
0.5351211890802693
 40
0.5969876649622298
 40
0.660019833546802
 40
0.7242774964844918
 40
0.7900118502255501
 40
0.8577476843344396
 40
1.0
 40
1.0
 40
1.0
 40
1.0
 10
332.7809240367626
 20
-254.3908861952976
 30
0.0
 10
332.7602481719201
 20
-254.4479869808855
 30
0.0
 10
332.7226220723372
 20
-254.5301864133319
 30
0.0
 10
332.6601499045723
 20
-254.631989833114
 30
0.0
 10
332.6073703283161
 20
-254.7024372152608
 30
0.0
 10
332.5482222414647
 20
-254.7674094655879
 30
0.0
 10
332.4841427076531
 20
-254.8283341827065
 30
0.0
 10
332.4138719802058
 20
-254.8839181458873
 30
0.0
 10
332.3374534160695
 20
-254.9332035293215
 30
0.0
 10
332.2566477406718
 20
-254.9775904471678
 30
0.0
 10
332.1715016571272
 20
-255.0160374817872
 30
0.0
 10
332.0824951868483
 20
-255.0495225469348
 30
0.0
 10
331.9887924071996
 20
-255.0746121785857
 30
0.0
 10
331.8918617426169
 20
-255.0963204535658
 30
0.0
 10
331.7546506997596
 20
-255.1156201252903
 30
0.0
 10
331.6492673363171
 20
-255.1219748295303
 30
0.0
 10
331.5777990367625
 20
-255.121455105554
 30
0.0
  0
SPLINE
  5
BD
330
1F
100
AcDbEntity
  8
0
  6
Continuous
 62
     7
370
    25
100
AcDbSpline
210
0.0
220
0.0
230
1.0
 70
     8
 71
     3
 72
    13
 73
     9
 74
     0
 42
0.00000001
 43
0.00000001
 40
0.0
 40
0.0
 40
0.0
 40
0.0
 40
0.3154887127128781
 40
0.4562908239366967
 40
0.5858641495747728
 40
0.7054286858067866
 40
0.8133707129824508
 40
1.0
 40
1.0
 40
1.0
 40
1.0
 10
332.8741732354805
 20
-253.6063309068361
 30
0.0
 10
332.8737225160257
 20
-253.6897574295435
 30
0.0
 10
332.8726612964668
 20
-253.8105746397122
 30
0.0
 10
332.8613861456173
 20
-253.965171400877
 30
0.0
 10
332.8521898518287
 20
-254.0679368043381
 30
0.0
 10
332.8389064427683
 20
-254.161507025683
 30
0.0
 10
332.8184969995584
 20
-254.2691796985029
 30
0.0
 10
332.7981281012542
 20
-254.3445521223788
 30
0.0
 10
332.7809240367626
 20
-254.3908861952976
 30
0.0
  0
SPLINE
  5
C1
330
1F
100
AcDbEntity
  8
0
  6
Continuous
 62
     7
370
    25
100
AcDbSpline
210
0.0
220
0.0
230
1.0
 70
     8
 71
     3
 72
    13
 73
     9
 74
     0
 42
0.00000001
 43
0.00000001
 40
0.0
 40
0.0
 40
0.0
 40
0.0
 40
0.23876222863873
 40
0.3547548590848559
 40
0.4703593994501784
 40
0.5891440987928592
 40
0.7163289048363424
 40
1.0
 40
1.0
 40
1.0
 40
1.0
 10
331.5476507995831
 20
-251.5317115158105
 30
0.0
 10
331.6405313806151
 20
-251.53186390635
 30
0.0
 10
331.7786894301045
 20
-251.5449551713861
 30
0.0
 10
331.9562853287211
 20
-251.5903230447501
 30
0.0
 10
332.0841888355129
 20
-251.6382840715242
 30
0.0
 10
332.2090607180988
 20
-251.7038628894354
 30
0.0
 10
332.3775926305418
 20
-251.823461064011
 30
0.0
 10
332.488472605544
 20
-251.9402438207121
 30
0.0
 10
332.560070671378
 20
-252.0238990158105
 30
0.0
  0
SPLINE
  5
C2
330
1F
100
AcDbEntity
  8
0
  6
Continuous
 62
     7
370
    25
100
AcDbSpline
210
0.0
220
0.0
230
1.0
 70
     8
 71
     3
 72
    29
 73
    25
 74
     0
 42
0.00000001
 43
0.00000001
 40
0.0
 40
0.0
 40
0.0
 40
0.0
 40
0.0839054330862231
 40
0.1250689344486257
 40
0.1661584697031288
 40
0.2072102728707349
 40
0.248490732056241
 40
0.2898781122327861
 40
0.3321695142040968
 40
0.3744758421539182
 40
0.4162249804561921
 40
0.4576095869585138
 40
0.499073170467229
 40
0.5405533615534306
 40
0.5822488491953575
 40
0.6245497501259852
 40
0.6674328009210454
 40
0.7103225433055226
 40
0.7524671185698667
 40
0.7940647568438011
 40
0.8352157072949953
 40
0.8762283442246839
 40
0.9174461887061374
 40
1.0
 40
1.0
 40
1.0
 40
1.0
 10
330.2267373380446
 20
-252.84701600299
 30
0.0
 10
330.2264648518226
 20
-252.7890832689553
 30
0.0
 10
330.232806195311
 20
-252.702929503472
 30
0.0
 10
330.2500331297299
 20
-252.5895108553279
 30
0.0
 10
330.2702141119528
 20
-252.5068039179942
 30
0.0
 10
330.2945438093576
 20
-252.4251793793452
 30
0.0
 10
330.3246654489724
 20
-252.3452388655199
 30
0.0
 10
330.3608847308815
 20
-252.2669583719346
 30
0.0
 10
330.4018943374347
 20
-252.1902798362373
 30
0.0
 10
330.447978468621
 20
-252.1162322224504
 30
0.0
 10
330.4985109392521
 20
-252.0459055762325
 30
0.0
 10
330.5535528162039
 20
-251.9798174044276
 30
0.0
 10
330.6123447311061
 20
-251.9173009823841
 30
0.0
 10
330.6756045483277
 20
-251.8589594897486
 30
0.0
 10
330.7432995406594
 20
-251.8049345226958
 30
0.0
 10
330.8147624207726
 20
-251.7543205046775
 30
0.0
 10
330.8902146713237
 20
-251.7082091362204
 30
0.0
 10
330.968492057761
 20
-251.6674270061535
 30
0.0
 10
331.0476058831542
 20
-251.6302139837911
 30
0.0
 10
331.1286040903679
 20
-251.6006814207124
 30
0.0
 10
331.2099767321119
 20
-251.5746525945433
 30
0.0
 10
331.2931562664344
 20
-251.5562386936084
 30
0.0
 10
331.4052605379856
 20
-251.5371444697965
 30
0.0
 10
331.4907160629338
 20
-251.5317767260304
 30
0.0
 10
331.5476507995831
 20
-251.5317115158105
 30
0.0
  0
SPLINE
  5
C3
330
1F
100
AcDbEntity
  8
0
  6
Continuous
 62
     7
370
    25
100
AcDbSpline
210
0.0
220
0.0
230
1.0
 70
     8
 71
     3
 72
    29
 73
    25
 74
     0
 42
0.00000001
 43
0.00000001
 40
0.0
 40
0.0
 40
0.0
 40
0.0
 40
0.0852222575672324
 40
0.1272022841437402
 40
0.1690253126086007
 40
0.2108820330997145
 40
0.2529626777271307
 40
0.2956282851000705
 40
0.3385532936306302
 40
0.3814632477171888
 40
0.4235815621432644
 40
0.4650661653954571
 40
0.5063122188418763
 40
0.5470395054616145
 40
0.5876758328931868
 40
0.6286747862975737
 40
0.6699464646027611
 40
0.711035574456064
 40
0.7519958286352099
 40
0.7926726074834982
 40
0.8334460178854496
 40
0.874190607042237
 40
0.915493583029464
 40
1.0
 40
1.0
 40
1.0
 40
1.0
 10
331.5378350944549
 20
-254.1342756183746
 30
0.0
 10
331.4796809343865
 20
-254.1345400585767
 30
0.0
 10
331.3930223496259
 20
-254.1283065374411
 30
0.0
 10
331.2790375286389
 20
-254.1107582624758
 30
0.0
 10
331.1954292586987
 20
-254.0917032572059
 30
0.0
 10
331.1131737974539
 20
-254.0672044440919
 30
0.0
 10
331.0324061643135
 20
-254.0365896199799
 30
0.0
 10
330.9524726489195
 20
-254.0019739802082
 30
0.0
 10
330.8748261480318
 20
-253.9612013179858
 30
0.0
 10
330.8002400181085
 20
-253.9158389733641
 30
0.0
 10
330.7292768327536
 20
-253.8667000925593
 30
0.0
 10
330.6623082937483
 20
-253.814041801723
 30
0.0
 10
330.5999718041861
 20
-253.7573448626081
 30
0.0
 10
330.5423491331018
 20
-253.6966913296838
 30
0.0
 10
330.4886652637024
 20
-253.6327277766277
 30
0.0
 10
330.4398079217022
 20
-253.5645610355403
 30
0.0
 10
330.3947745134247
 20
-253.4934340769913
 30
0.0
 10
330.3557170338125
 20
-253.4188731569683
 30
0.0
 10
330.3214323995727
 20
-253.3424950474877
 30
0.0
 10
330.2916239674859
 20
-253.264463145107
 30
0.0
 10
330.267854932326
 20
-253.1845158878708
 30
0.0
 10
330.2497174394138
 20
-253.1027048484192
 30
0.0
 10
330.2315059249818
 20
-252.990517565396
 30
0.0
 10
330.2272526953128
 20
-252.9046009591672
 30
0.0
 10
330.2267373380445
 20
-252.84701600299
 30
0.0
  0
SPLINE
  5
C4
330
1F
100
AcDbEntity
  8
0
  6
Continuous
 62
     7
370
    25
100
AcDbSpline
210
0.0
220
0.0
230
1.0
 70
     8
 71
     3
 72
     8
 73
     4
 74
     0
 42
0.00000001
 43
0.00000001
 40
0.9851014240116018
 40
0.9851014240116018
 40
0.9851014240116018
 40
0.9851014240116018
 40
1.0
 40
1.0
 40
1.0
 40
1.0
 10
331.5553376618947
 20
-254.1342756204455
 30
0.0
 10
331.5495041548795
 20
-254.1343165423075
 30
0.0
 10
331.5436698151996
 20
-254.1343166374402
 30
0.0
 10
331.5378350944549
 20
-254.1342756183746
 30
0.0
  0
SPLINE
  5
C5
330
1F
100
AcDbEntity
  8
0
  6
Continuous
 62
     7
370
    25
100
AcDbSpline
210
0.0
220
0.0
230
1.0
 70
     8
 71
     3
 72
    21
 73
    17
 74
     0
 42
0.00000001
 43
0.00000001
 40
0.0
 40
0.0
 40
0.0
 40
0.0
 40
0.1511549072635762
 40
0.2234536379509565
 40
0.2954972249195686
 40
0.3669198573541505
 40
0.4367940850066846
 40
0.5066964308522788
 40
0.5778638467408647
 40
0.6159118097672486
 40
0.6580480255185194
 40
0.7037759860580456
 40
0.7540801428690616
 40
0.8089794210802428
 40
0.8679131928433522
 40
1.0
 40
1.0
 40
1.0
 40
1.0
 10
334.8793815688139
 20
-251.5317115158105
 30
0.0
 10
334.9717535953678
 20
-251.5323268130138
 30
0.0
 10
335.1096402064857
 20
-251.5473190962227
 30
0.0
 10
335.2801953719917
 20
-251.6100870934149
 30
0.0
 10
335.3968560564414
 20
-251.6731995890795
 30
0.0
 10
335.5016821158704
 20
-251.7518868233411
 30
0.0
 10
335.5945315256806
 20
-251.8427145766717
 30
0.0
 10
335.67037241214
 20
-251.9479895069724
 30
0.0
 10
335.721971531338
 20
-252.0452455107575
 30
0.0
 10
335.7555448851236
 20
-252.1317843006787
 30
0.0
 10
335.7767969166786
 20
-252.2060208047758
 30
0.0
 10
335.7948152324097
 20
-252.288742719278
 30
0.0
 10
335.8105187556525
 20
-252.3799074565462
 30
0.0
 10
335.8209662750938
 20
-252.4799526038932
 30
0.0
 10
335.8326955093652
 20
-252.6301369677546
 30
0.0
 10
335.8364906452952
 20
-252.7471669882701
 30
0.0
 10
335.835711697019
 20
-252.8280857145284
 30
0.0
  0
SPLINE
  5
C6
330
1F
100
AcDbEntity
  8
0
  6
Continuous
 62
     7
370
    25
100
AcDbSpline
210
0.0
220
0.0
230
1.0
 70
     8
 71
     3
 72
    13
 73
     9
 74
     0
 42
0.00000001
 43
0.00000001
 40
0.0
 40
0.0
 40
0.0
 40
0.0
 40
0.2739958912186083
 40
0.4006841600587308
 40
0.5225546790047434
 40
0.6415337705509936
 40
0.759969142862235
 40
1.0
 40
1.0
 40
1.0
 40
1.0
 10
333.9062245175318
 20
-252.0596562273489
 30
0.0
 10
333.9693890201746
 20
-251.9756597676713
 30
0.0
 10
334.074064724623
 20
-251.862434000115
 30
0.0
 10
334.229592953302
 20
-251.7356270108015
 30
0.0
 10
334.3499142665123
 20
-251.6617049808025
 30
0.0
 10
334.4749747464205
 20
-251.6034198388307
 30
0.0
 10
334.6497528126969
 20
-251.5475763010072
 30
0.0
 10
334.7874220875747
 20
-251.5319014323904
 30
0.0
 10
334.8793815688139
 20
-251.5317115158105
 30
0.0
  0
SPLINE
  5
E1
330
1F
100
AcDbEntity
  8
0
  6
Continuous
 62
     7
370
    25
100
AcDbSpline
210
0.0
220
0.0
230
1.0
 70
     8
 71
     3
 72
    13
 73
     9
 74
     0
 42
0.00000001
 43
0.00000001
 40
0.0
 40
0.0
 40
0.0
 40
0.0
 40
0.2583323505141345
 40
0.3821339760925144
 40
0.5038043916000575
 40
0.6246929865409254
 40
0.7468705897275472
 40
1.0
 40
1.0
 40
1.0
 40
1.0
 10
342.3659600944549
 20
-251.5317115158105
 30
0.0
 10
342.4600502557639
 20
-251.5307368752129
 30
0.0
 10
342.5992764283849
 20
-251.5443025570625
 30
0.0
 10
342.7774015568393
 20
-251.5889465281967
 30
0.0
 10
342.9031974704324
 20
-251.6341524403956
 30
0.0
 10
343.0215771145619
 20
-251.6948806532869
 30
0.0
 10
343.1739411122161
 20
-251.7924269842956
 30
0.0
 10
343.2755564181566
 20
-251.885149109377
 30
0.0
 10
343.3377149021471
 20
-251.9530857145285
 30
0.0
  0
SPLINE
  5
E2
330
1F
100
AcDbEntity
  8
0
  6
Continuous
 62
     7
370
    25
100
AcDbSpline
210
0.0
220
0.0
230
1.0
 70
     8
 71
     3
 72
    13
 73
     9
 74
     0
 42
0.00000001
 43
0.00000001
 40
0.0
 40
0.0
 40
0.0
 40
0.0
 40
0.2527129855154582
 40
0.3748191325670542
 40
0.4964364263727105
 40
0.6179105567458402
 40
0.7412876173092696
 40
1.0
 40
1.0
 40
1.0
 40
1.0
 10
341.391400799583
 20
-251.9551890799131
 30
0.0
 10
341.4530194885114
 20
-251.8863442622284
 30
0.0
 10
341.5555399567019
 20
-251.794503147816
 30
0.0
 10
341.7075421833399
 20
-251.6949827354482
 30
0.0
 10
341.8272235214731
 20
-251.6354513608512
 30
0.0
 10
341.952918202557
 20
-251.5886797104151
 30
0.0
 10
342.1317668234681
 20
-251.5443335814749
 30
0.0
 10
342.2713927872313
 20
-251.5308481600908
 30
0.0
 10
342.3659600944549
 20
-251.5317115158105
 30
0.0
  0
SPLINE
  5
E3
330
1F
100
AcDbEntity
  8
0
  6
Continuous
 62
     7
370
    25
100
AcDbSpline
210
0.0
220
0.0
230
1.0
 70
     8
 71
     3
 72
    13
 73
     9
 74
     0
 42
0.00000001
 43
0.00000001
 40
0.0
 40
0.0
 40
0.0
 40
0.0
 40
0.2552377249249179
 40
0.3786785959785586
 40
0.5010878871851218
 40
0.6227136794298043
 40
0.7462407949383975
 40
1.0
 40
1.0
 40
1.0
 40
1.0
 10
341.0408399021471
 20
-252.8624406824771
 30
0.0
 10
341.0413341688965
 20
-252.777733885144
 30
0.0
 10
341.0508817845397
 20
-252.6517415712823
 30
0.0
 10
341.0878946701642
 20
-252.4892306827203
 30
0.0
 10
341.1265853859919
 20
-252.3732999864595
 30
0.0
 10
341.1761337372271
 20
-252.2615682613041
 30
0.0
 10
341.257289011756
 20
-252.116815314355
 30
0.0
 10
341.3349874996979
 20
-252.0176999781079
 30
0.0
 10
341.391400799583
 20
-251.9551890799131
 30
0.0
  0
SPLINE
  5
E4
330
1F
100
AcDbEntity
  8
0
  6
Continuous
 62
     7
370
    25
100
AcDbSpline
210
0.0
220
0.0
230
1.0
 70
     8
 71
     3
 72
    21
 73
    17
 74
     0
 42
0.00000001
 43
0.00000001
 40
0.0
 40
0.0
 40
0.0
 40
0.0
 40
0.1346351922242865
 40
0.198324187067169
 40
0.2608250125604355
 40
0.3227135881590253
 40
0.3845545346076156
 40
0.4469128577247704
 40
0.5109576325148328
 40
0.5749307010013395
 40
0.6366845377960962
 40
0.6974831152940754
 40
0.7571338075238611
 40
0.8169656636752518
 40
0.8768183516572068
 40
1.0
 40
1.0
 40
1.0
 40
1.0
 10
342.3659600944549
 20
-254.1791474132464
 30
0.0
 10
342.2725544781199
 20
-254.1787253206471
 30
0.0
 10
342.1345361231287
 20
-254.1682292279746
 30
0.0
 10
341.9580176451231
 20
-254.1262698475869
 30
0.0
 10
341.834790649274
 20
-254.0824393957054
 30
0.0
 10
341.7176453810314
 20
-254.0271350856201
 30
0.0
 10
341.6078589919077
 20
-253.9585260063297
 30
0.0
 10
341.5046590652278
 20
-253.8779651421277
 30
0.0
 10
341.4095870144216
 20
-253.785829400676
 30
0.0
 10
341.3235886841442
 20
-253.6858193914328
 30
0.0
 10
341.2477146815981
 20
-253.580669368286
 30
0.0
 10
341.1838279621149
 20
-253.4712592647239
 30
0.0
 10
341.1314565690541
 20
-253.3573766048816
 30
0.0
 10
341.0906739394826
 20
-253.2395177826834
 30
0.0
 10
341.0520423417836
 20
-253.0751289925371
 30
0.0
 10
341.0403329947613
 20
-252.9480080996042
 30
0.0
 10
341.0408399021471
 20
-252.8624406824771
 30
0.0
  0
SPLINE
  5
E5
330
1F
100
AcDbEntity
  8
0
  6
Continuous
 62
     7
370
    25
100
AcDbSpline
210
0.0
220
0.0
230
1.0
 70
     8
 71
     3
 72
    21
 73
    17
 74
     0
 42
0.00000001
 43
0.00000001
 40
0.0
 40
0.0
 40
0.0
 40
0.0
 40
0.1233369785373221
 40
0.1832651398531027
 40
0.2431724430697108
 40
0.3028983539197413
 40
0.3637735975039184
 40
0.4256053049523909
 40
0.4896590425101943
 40
0.5537845767921171
 40
0.6162215328110929
 40
0.6778544713083482
 40
0.7395168974879439
 40
0.8020965355763713
 40
0.8658658412779846
 40
1.0
 40
1.0
 40
1.0
 40
1.0
 10
343.688275799583
 20
-252.8624406824771
 30
0.0
 10
343.6887827088561
 20
-252.9480081024454
 30
0.0
 10
343.6770733562925
 20
-253.0751289870359
 30
0.0
 10
343.6384417675627
 20
-253.2395177906851
 30
0.0
 10
343.5976591127641
 20
-253.3573765749046
 30
0.0
 10
343.5452878143096
 20
-253.4712593771739
 30
0.0
 10
343.4814007334586
 20
-253.5806689367073
 30
0.0
 10
343.4055281220596
 20
-253.6858210541863
 30
0.0
 10
343.3195244005505
 20
-253.7858229470845
 30
0.0
 10
343.2244724572616
 20
-253.8779889598274
 30
0.0
 10
343.121356300501
 20
-253.9583179606353
 30
0.0
 10
343.0122023640458
 20
-254.0271368049312
 30
0.0
 10
342.8955586288268
 20
-254.0825832519353
 30
0.0
 10
342.7724926023595
 20
-254.1262547244146
 30
0.0
 10
342.596437440659
 20
-254.1681065634843
 30
0.0
 10
342.4589101438416
 20
-254.1787834476923
 30
0.0
 10
342.3659600944549
 20
-254.1791474132464
 30
0.0
  0
SPLINE
  5
E7
330
1F
100
AcDbEntity
  8
0
  6
Continuous
 62
     7
370
    25
100
AcDbSpline
210
0.0
220
0.0
230
1.0
 70
     8
 71
     3
 72
     9
 73
     5
 74
     0
 42
0.00000001
 43
0.00000001
 40
0.0
 40
0.0
 40
0.0
 40
0.0
 40
0.2505477821575611
 40
0.2950168130379008
 40
0.2950168130379008
 40
0.2950168130379008
 40
0.2950168130379008
 10
345.67385272266
 20
-254.1791474132464
 30
0.0
 10
345.5733825145415
 20
-254.1803073261261
 30
0.0
 10
345.4553664809658
 20
-254.1666677285804
 30
0.0
 10
345.3404649716888
 20
-254.1388247649018
 30
0.0
 10
345.3232410761216
 20
-254.1342756195265
 30
0.0
  0
SPLINE
  5
E8
330
1F
100
AcDbEntity
  8
0
  6
Continuous
 62
     7
370
    25
100
AcDbSpline
210
0.0
220
0.0
230
1.0
 70
     8
 71
     3
 72
    21
 73
    17
 74
     0
 42
0.00000001
 43
0.00000001
 40
0.0
 40
0.0
 40
0.0
 40
0.0
 40
0.1280341643911167
 40
0.1895737254178876
 40
0.25057983473239
 40
0.3117332213636264
 40
0.3732500799286361
 40
0.4357625163356392
 40
0.5003455613741234
 40
0.5649493665465388
 40
0.6275279092682813
 40
0.6891572899131224
 40
0.7498650117126833
 40
0.8107601999033064
 40
0.8722997609300773
 40
1.0
 40
1.0
 40
1.0
 40
1.0
 10
347.0087886200959
 20
-252.8484182465797
 30
0.0
 10
347.0085853807707
 20
-252.9379274968033
 30
0.0
 10
346.9970645680002
 20
-253.0706147011039
 30
0.0
 10
346.9564101990672
 20
-253.2413354045192
 30
0.0
 10
346.9133953950494
 20
-253.362612067669
 30
0.0
 10
346.8577422774835
 20
-253.4785958788895
 30
0.0
 10
346.7900408632116
 20
-253.5892022355841
 30
0.0
 10
346.7101535326247
 20
-253.6943959345281
 30
0.0
 10
346.61885264355
 20
-253.7927488937943
 30
0.0
 10
346.5197996486724
 20
-253.883347975208
 30
0.0
 10
346.4139221548901
 20
-253.9625868812155
 30
0.0
 10
346.3028633014347
 20
-254.0291252160783
 30
0.0
 10
346.1871908547991
 20
-254.0847193374142
 30
0.0
 10
346.0659162670423
 20
-254.1265697191955
 30
0.0
 10
345.8956291401739
 20
-254.1675205041681
 30
0.0
 10
345.7631003335366
 20
-254.1788246964386
 30
0.0
 10
345.67385272266
 20
-254.1791474132464
 30
0.0
  0
SPLINE
  5
E9
330
1F
100
AcDbEntity
  8
0
  6
Continuous
 62
     7
370
    25
100
AcDbSpline
210
0.0
220
0.0
230
1.0
 70
     8
 71
     3
 72
    21
 73
    17
 74
     0
 42
0.00000001
 43
0.00000001
 40
0.0
 40
0.0
 40
0.0
 40
0.0
 40
0.1286360505630947
 40
0.1906529019116426
 40
0.2521250372681225
 40
0.3134462756463771
 40
0.3752272792334037
 40
0.4384980827328687
 40
0.5032850999340355
 40
0.5680096868463761
 40
0.6308789816949899
 40
0.6921535040082895
 40
0.7525521497155905
 40
0.8131910939047738
 40
0.8739853995183432
 40
1.0
 40
1.0
 40
1.0
 40
1.0
 10
345.6640370175318
 20
-251.5317115158105
 30
0.0
 10
345.7536697482088
 20
-251.532609638044
 30
0.0
 10
345.8869533668278
 20
-251.5425693768235
 30
0.0
 10
346.0583874608354
 20
-251.5833373974205
 30
0.0
 10
346.1799538192114
 20
-251.6267049011391
 30
0.0
 10
346.2972173359422
 20
-251.6803692879814
 30
0.0
 10
346.4084393171303
 20
-251.7480839074154
 30
0.0
 10
346.5153528912243
 20
-251.8264907650859
 30
0.0
 10
346.6152691301003
 20
-251.9167227339347
 30
0.0
 10
346.7075902807321
 20
-252.0143510406564
 30
0.0
 10
346.7874372503882
 20
-252.1193733649726
 30
0.0
 10
346.8563063130255
 20
-252.2283358358416
 30
0.0
 10
346.911987028288
 20
-252.3429283628846
 30
0.0
 10
346.9555564172815
 20
-252.4622459638292
 30
0.0
 10
346.9975306513428
 20
-252.6299914426967
 30
0.0
 10
347.0082755453825
 20
-252.7605976285234
 30
0.0
 10
347.0087886200959
 20
-252.8484182465797
 30
0.0
  0
SPLINE
  5
EA
330
1F
100
AcDbEntity
  8
0
  6
Continuous
 62
     7
370
    25
100
AcDbSpline
210
0.0
220
0.0
230
1.0
 70
     8
 71
     3
 72
    13
 73
     9
 74
     0
 42
0.00000001
 43
0.00000001
 40
0.0
 40
0.0
 40
0.0
 40
0.0
 40
0.2630446827611773
 40
0.3860610822643303
 40
0.5057706525454725
 40
0.6251780311386883
 40
0.7461477220466144
 40
1.0
 40
1.0
 40
1.0
 40
1.0
 10
344.6305834918908
 20
-252.0498405222207
 30
0.0
 10
344.6927487272338
 20
-251.964531074464
 30
0.0
 10
344.7971764193472
 20
-251.848597495611
 30
0.0
 10
344.9584544979699
 20
-251.7244262548309
 30
0.0
 10
345.0855702683152
 20
-251.652996690331
 30
0.0
 10
345.2200034752752
 20
-251.5992329332073
 30
0.0
 10
345.4112386353451
 20
-251.5450837317053
 30
0.0
 10
345.5623163539859
 20
-251.5320329627885
 30
0.0
 10
345.6640370175318
 20
-251.5317115158105
 30
0.0
  0
SPLINE
  5
EF
330
1F
100
AcDbEntity
  8
0
  6
Continuous
 62
     7
370
    25
100
AcDbSpline
210
0.0
220
0.0
230
1.0
 70
     8
 71
     3
 72
    13
 73
     9
 74
     0
 42
0.00000001
 43
0.00000001
 40
0.0
 40
0.0
 40
0.0
 40
0.0
 40
0.2582840923168908
 40
0.3843411247790987
 40
0.5119796151256404
 40
0.6386320084210813
 40
0.7592297631645502
 40
1.0
 40
1.0
 40
1.0
 40
1.0
 10
309.2926427867625
 20
-250.4996602337592
 30
0.0
 10
309.3306410213935
 20
-250.4997344656627
 30
0.0
 10
309.3880419615106
 20
-250.5084324251848
 30
0.0
 10
309.455751944706
 20
-250.5432234862013
 30
0.0
 10
309.5003401103417
 20
-250.577668205534
 30
0.0
 10
309.5385421124692
 20
-250.6182277705032
 30
0.0
 10
309.5745458903452
 20
-250.681335318862
 30
0.0
 10
309.5859128518339
 20
-250.7346358172737
 30
0.0
 10
309.585711697019
 20
-250.7702932465797
 30
0.0
  0
SPLINE
  5
F0
330
1F
100
AcDbEntity
  8
0
  6
Continuous
 62
     7
370
    25
100
AcDbSpline
210
0.0
220
0.0
230
1.0
 70
     8
 71
     3
 72
    13
 73
     9
 74
     0
 42
0.00000001
 43
0.00000001
 40
0.0
 40
0.0
 40
0.0
 40
0.0
 40
0.242149081334019
 40
0.3634374760537307
 40
0.4897453933413322
 40
0.6181148445929769
 40
0.7448937812571701
 40
1.0
 40
1.0
 40
1.0
 40
1.0
 10
309.0023783636856
 20
-250.7702932465797
 30
0.0
 10
309.0022191997293
 20
-250.7346737931034
 30
0.0
 10
309.0134623793385
 20
-250.6812613484315
 30
0.0
 10
309.0495941141551
 20
-250.6184780435684
 30
0.0
 10
309.0870256467695
 20
-250.5774417304916
 30
0.0
 10
309.1316706387491
 20
-250.5432367212715
 30
0.0
 10
309.198739257652
 20
-250.5088428265091
 30
0.0
 10
309.2552402459891
 20
-250.4994236454488
 30
0.0
 10
309.2926427867625
 20
-250.4996602337592
 30
0.0
  0
SPLINE
  5
F1
330
1F
100
AcDbEntity
  8
0
  6
Continuous
 62
     7
370
    25
100
AcDbSpline
210
0.0
220
0.0
230
1.0
 70
     8
 71
     3
 72
    13
 73
     9
 74
     0
 42
0.00000001
 43
0.00000001
 40
0.0
 40
0.0
 40
0.0
 40
0.0
 40
0.2566614034534798
 40
0.3842132129425169
 40
0.5133652331526981
 40
0.6404431518253724
 40
0.7610850047778793
 40
1.0
 40
1.0
 40
1.0
 40
1.0
 10
309.2926427867625
 20
-251.0381217722207
 30
0.0
 10
309.2552425353733
 20
-251.0383569580014
 30
0.0
 10
309.1987348765779
 20
-251.0289418634184
 30
0.0
 10
309.1316771741786
 20
-250.9945412809527
 30
0.0
 10
309.0870009745219
 20
-250.9603553902798
 30
0.0
 10
309.0498197557322
 20
-250.9194001080689
 30
0.0
 10
309.0135367810319
 20
-250.8577688417728
 30
0.0
 10
309.0023445117423
 20
-250.8051969104321
 30
0.0
 10
309.0023783636856
 20
-250.7702932465797
 30
0.0
  0
SPLINE
  5
F5
330
1F
100
AcDbEntity
  8
0
  6
Continuous
 62
     7
370
    25
100
AcDbSpline
210
0.0
220
0.0
230
1.0
 70
     8
 71
     3
 72
    13
 73
     9
 74
     0
 42
0.00000001
 43
0.00000001
 40
0.0
 40
0.0
 40
0.0
 40
0.0
 40
0.2582840923168908
 40
0.3843411247790987
 40
0.5119796151256404
 40
0.6386320084210813
 40
0.7592297631645502
 40
1.0
 40
1.0
 40
1.0
 40
1.0
 10
329.3952068893268
 20
-250.4996602337592
 30
0.0
 10
329.4332051239576
 20
-250.4997344656628
 30
0.0
 10
329.4906060640749
 20
-250.5084324251848
 30
0.0
 10
329.5583160472701
 20
-250.5432234862014
 30
0.0
 10
329.6029042129061
 20
-250.577668205534
 30
0.0
 10
329.6411062150333
 20
-250.6182277705032
 30
0.0
 10
329.6771099929095
 20
-250.6813353188622
 30
0.0
 10
329.688476954398
 20
-250.7346358172737
 30
0.0
 10
329.6882757995832
 20
-250.7702932465798
 30
0.0
  0
SPLINE
  5
F6
330
1F
100
AcDbEntity
  8
0
  6
Continuous
 62
     7
370
    25
100
AcDbSpline
210
0.0
220
0.0
230
1.0
 70
     8
 71
     3
 72
    13
 73
     9
 74
     0
 42
0.00000001
 43
0.00000001
 40
0.0
 40
0.0
 40
0.0
 40
0.0
 40
0.242149081334019
 40
0.3634374760537307
 40
0.4897453933413322
 40
0.6181148445929769
 40
0.7448937812571701
 40
1.0
 40
1.0
 40
1.0
 40
1.0
 10
329.1049424662498
 20
-250.7702932465798
 30
0.0
 10
329.1047833022934
 20
-250.7346737931036
 30
0.0
 10
329.1160264819028
 20
-250.6812613484315
 30
0.0
 10
329.1521582167192
 20
-250.6184780435685
 30
0.0
 10
329.1895897493339
 20
-250.5774417304916
 30
0.0
 10
329.2342347413132
 20
-250.5432367212716
 30
0.0
 10
329.3013033602165
 20
-250.5088428265092
 30
0.0
 10
329.3578043485533
 20
-250.4994236454488
 30
0.0
 10
329.3952068893268
 20
-250.4996602337592
 30
0.0
  0
SPLINE
  5
F7
330
1F
100
AcDbEntity
  8
0
  6
Continuous
 62
     7
370
    25
100
AcDbSpline
210
0.0
220
0.0
230
1.0
 70
     8
 71
     3
 72
    13
 73
     9
 74
     0
 42
0.00000001
 43
0.00000001
 40
0.0
 40
0.0
 40
0.0
 40
0.0
 40
0.2566614034534798
 40
0.3842132129425169
 40
0.5133652331526981
 40
0.6404431518253724
 40
0.7610850047778793
 40
1.0
 40
1.0
 40
1.0
 40
1.0
 10
329.3952068893268
 20
-251.0381217722208
 30
0.0
 10
329.3578066379374
 20
-251.0383569580015
 30
0.0
 10
329.3012989791422
 20
-251.0289418634185
 30
0.0
 10
329.2342412767428
 20
-250.9945412809527
 30
0.0
 10
329.1895650770861
 20
-250.9603553902798
 30
0.0
 10
329.1523838582965
 20
-250.9194001080689
 30
0.0
 10
329.1161008835962
 20
-250.8577688417729
 30
0.0
 10
329.1049086143064
 20
-250.8051969104321
 30
0.0
 10
329.1049424662498
 20
-250.7702932465798
 30
0.0
  0
LINE
  5
F8
330
1F
100
AcDbEntity
  8
0
  6
Continuous
 62
     7
370
    25
100
AcDbLine
 10
304.7683038445
 20
-250.6342756184
 30
0.0
 11
305.2331475945
 21
-254.1342756184
 31
0.0
  0
LINE
  5
F9
330
1F
100
AcDbEntity
  8
0
  6
Continuous
 62
     7
370
    25
100
AcDbLine
 10
308.4639168252
 20
-254.1342756184
 30
0.0
 11
307.4702791104
 21
-254.1342756193
 31
0.0
  0
LINE
  5
FA
330
1F
100
AcDbEntity
  8
0
  6
Continuous
 62
     7
370
    25
100
AcDbLine
 10
309.4510963124
 20
-251.5765833107
 30
0.0
 11
309.4510963124
 21
-254.1342756184
 31
0.0
  0
LINE
  5
FB
330
1F
100
AcDbEntity
  8
0
  6
Continuous
 62
     7
370
    25
100
AcDbLine
 10
312.4575065688
 20
-252.8280857145
 30
0.0
 11
312.4575065688
 21
-254.1342756184
 31
0.0
  0
LINE
  5
FC
330
1F
100
AcDbEntity
  8
0
  6
Continuous
 62
     7
370
    25
100
AcDbLine
 10
316.6207677868
 20
-253.3265833107
 30
0.0
 11
316.8998142611
 21
-253.4731177658
 31
0.0
  0
LINE
  5
FD
330
1F
100
AcDbEntity
  8
0
  6
Continuous
 62
     7
370
    25
100
AcDbLine
 10
318.6575266009
 20
-252.7607780222
 30
0.0
 11
319.6369937483
 21
-254.1342756184
 31
0.0
  0
LINE
  5
FE
330
1F
100
AcDbEntity
  8
0
  6
Continuous
 62
     7
370
    25
100
AcDbLine
 10
320.3100706714
 20
-254.1342756184
 30
0.0
 11
320.3100706714
 21
-255.0765833107
 31
0.0
  0
LINE
  5
FF
330
1F
100
AcDbEntity
  8
0
  6
Continuous
 62
     7
370
    25
100
AcDbLine
 10
328.0728911842
 20
-253.2747002979
 30
0.0
 11
328.0728911842
 21
-254.1342756184
 31
0.0
  0
LINE
  5
100
330
1F
100
AcDbEntity
  8
0
  6
Continuous
 62
     7
370
    25
100
AcDbLine
 10
329.553660415
 20
-251.5765833107
 30
0.0
 11
329.553660415
 21
-254.1342756184
 31
0.0
  0
LINE
  5
101
330
1F
100
AcDbEntity
  8
0
  6
Continuous
 62
     7
370
    25
100
AcDbLine
 10
331.5553376619
 20
-254.1342756204
 30
0.0
 11
332.5356464522
 21
-254.1342756224
 31
0.0
  0
LINE
  5
102
330
1F
100
AcDbEntity
  8
0
  6
Continuous
 62
     7
370
    25
100
AcDbLine
 10
335.835711697
 20
-252.8280857145
 30
0.0
 11
335.835711697
 21
-254.1342756184
 31
0.0
  0
LINE
  5
103
330
1F
100
AcDbEntity
  8
0
  6
Continuous
 62
     7
370
    25
100
AcDbLine
 10
337.1818655432
 20
-251.8906858748
 30
0.0
 11
337.1818655432
 21
-254.1342756184
 31
0.0
  0
LINE
  5
104
330
1F
100
AcDbEntity
  8
0
  6
Continuous
 62
     7
370
    25
100
AcDbLine
 10
340.1434040047
 20
-251.8906858748
 30
0.0
 11
340.1434040047
 21
-254.1342756184
 31
0.0
  0
LINE
  5
105
330
1F
100
AcDbEntity
  8
0
  6
Continuous
 62
     7
370
    25
100
AcDbLine
 10
344.6305834919
 20
-254.1342756184
 30
0.0
 11
344.6305834919
 21
-255.0765833107
 31
0.0
  0
LINE
  5
106
330
1F
100
AcDbEntity
  8
0
  6
Continuous
 62
     7
370
    25
100
AcDbLine
 10
0.0
 20
-270.0
 30
0.0
 11
400.0
 21
-270.0
 31
0.0
  0
LINE
  5
107
330
1F
100
AcDbEntity
  8
0
  6
Continuous
 62
     7
370
    25
100
AcDbLine
 10
304.7227309278
 20
-250.6342756184
 30
0.0
 11
304.7683038445
 21
-250.6342756184
 31
0.0
  0
LINE
  5
108
330
1F
100
AcDbEntity
  8
0
  6
Continuous
 62
     7
370
    25
100
AcDbLine
 10
303.2812245175
 20
-253.5060704902
 30
0.0
 11
304.7227309278
 21
-250.6342756184
 31
0.0
  0
LINE
  5
109
330
1F
100
AcDbEntity
  8
0
  6
Continuous
 62
     7
370
    25
100
AcDbLine
 10
301.8362124983
 20
-250.6342756184
 30
0.0
 11
303.2812245175
 21
-253.5060704902
 31
0.0
  0
LINE
  5
10A
330
1F
100
AcDbEntity
  8
0
  6
Continuous
 62
     7
370
    25
100
AcDbLine
 10
301.7913407034
 20
-250.6342756184
 30
0.0
 11
301.8362124983
 21
-250.6342756184
 31
0.0
  0
LINE
  5
10B
330
1F
100
AcDbEntity
  8
0
  6
Continuous
 62
     7
370
    25
100
AcDbLine
 10
301.3293014406
 20
-254.1342756184
 30
0.0
 11
301.7913407034
 21
-250.6342756184
 31
0.0
  0
LINE
  5
10C
330
1F
100
AcDbEntity
  8
0
  6
Continuous
 62
     7
370
    25
100
AcDbLine
 10
301.3293014406
 20
-254.1342756184
 30
0.0
 11
305.2331475945
 21
-254.1342756184
 31
0.0
  0
LINE
  5
10D
330
1F
100
AcDbEntity
  8
0
  6
Continuous
 62
     7
370
    25
100
AcDbLine
 10
308.4639168252
 20
-251.5765833107
 30
0.0
 11
308.4639168252
 21
-254.1342756184
 31
0.0
  0
LINE
  5
10E
330
1F
100
AcDbEntity
  8
0
  6
Continuous
 62
     7
370
    25
100
AcDbLine
 10
308.1498142611
 20
-251.5765833107
 30
0.0
 11
308.4639168252
 21
-251.5765833107
 31
0.0
  0
LINE
  5
10F
330
1F
100
AcDbEntity
  8
0
  6
Continuous
 62
     7
370
    25
100
AcDbLine
 10
308.1498142611
 20
-252.0498405222
 30
0.0
 11
308.1498142611
 21
-251.5765833107
 31
0.0
  0
LINE
  5
110
330
1F
100
AcDbEntity
  8
0
  6
Continuous
 62
     7
370
    25
100
AcDbLine
 10
309.1369937483
 20
-251.5765833107
 30
0.0
 11
309.4510963124
 21
-251.5765833107
 31
0.0
  0
LINE
  5
111
330
1F
100
AcDbEntity
  8
0
  6
Continuous
 62
     7
370
    25
100
AcDbLine
 10
309.1369937483
 20
-254.1342756184
 30
0.0
 11
309.1369937483
 21
-251.5765833107
 31
0.0
  0
LINE
  5
112
330
1F
100
AcDbEntity
  8
0
  6
Continuous
 62
     7
370
    25
100
AcDbLine
 10
309.4510963124
 20
-254.1342756184
 30
0.0
 11
309.1369937483
 21
-254.1342756184
 31
0.0
  0
LINE
  5
113
330
1F
100
AcDbEntity
  8
0
  6
Continuous
 62
     7
370
    25
100
AcDbLine
 10
310.5280193893
 20
-251.5765833107
 30
0.0
 11
310.5280193893
 21
-252.0379214517
 31
0.0
  0
LINE
  5
114
330
1F
100
AcDbEntity
  8
0
  6
Continuous
 62
     7
370
    25
100
AcDbLine
 10
310.2139168252
 20
-251.5765833107
 30
0.0
 11
310.5280193893
 21
-251.5765833107
 31
0.0
  0
LINE
  5
115
330
1F
100
AcDbEntity
  8
0
  6
Continuous
 62
     7
370
    25
100
AcDbLine
 10
310.2139168252
 20
-254.1342756184
 30
0.0
 11
310.2139168252
 21
-251.5765833107
 31
0.0
  0
LINE
  5
116
330
1F
100
AcDbEntity
  8
0
  6
Continuous
 62
     7
370
    25
100
AcDbLine
 10
312.4575065688
 20
-254.1342756184
 30
0.0
 11
310.2139168252
 21
-254.1342756184
 31
0.0
  0
LINE
  5
117
330
1F
100
AcDbEntity
  8
0
  6
Continuous
 62
     7
370
    25
100
AcDbLine
 10
317.0344296457
 20
-252.9227371568
 30
0.0
 11
314.7459681073
 21
-252.9227371568
 31
0.0
  0
LINE
  5
118
330
1F
100
AcDbEntity
  8
0
  6
Continuous
 62
     7
370
    25
100
AcDbLine
 10
319.5023783637
 20
-251.5765833107
 30
0.0
 11
318.6575266009
 21
-252.7607780222
 31
0.0
  0
LINE
  5
119
330
1F
100
AcDbEntity
  8
0
  6
Continuous
 62
     7
370
    25
100
AcDbLine
 10
319.128680447
 20
-251.5765833107
 30
0.0
 11
319.5023783637
 21
-251.5765833107
 31
0.0
  0
LINE
  5
11A
330
1F
100
AcDbEntity
  8
0
  6
Continuous
 62
     7
370
    25
100
AcDbLine
 10
318.4703270816
 20
-252.4992595927
 30
0.0
 11
319.128680447
 21
-251.5765833107
 31
0.0
  0
LINE
  5
11B
330
1F
100
AcDbEntity
  8
0
  6
Continuous
 62
     7
370
    25
100
AcDbLine
 10
317.8119737162
 20
-251.5765833107
 30
0.0
 11
318.4703270816
 21
-252.4992595927
 31
0.0
  0
LINE
  5
11C
330
1F
100
AcDbEntity
  8
0
  6
Continuous
 62
     7
370
    25
100
AcDbLine
 10
317.4382757996
 20
-251.5765833107
 30
0.0
 11
317.8119737162
 21
-251.5765833107
 31
0.0
  0
LINE
  5
11D
330
1F
100
AcDbEntity
  8
0
  6
Continuous
 62
     7
370
    25
100
AcDbLine
 10
318.2838286842
 20
-252.7607780222
 30
0.0
 11
317.4382757996
 21
-251.5765833107
 31
0.0
  0
LINE
  5
11E
330
1F
100
AcDbEntity
  8
0
  6
Continuous
 62
     7
370
    25
100
AcDbLine
 10
317.303660415
 20
-254.1342756184
 30
0.0
 11
318.2838286842
 21
-252.7607780222
 31
0.0
  0
LINE
  5
11F
330
1F
100
AcDbEntity
  8
0
  6
Continuous
 62
     7
370
    25
100
AcDbLine
 10
319.6369937483
 20
-254.1342756184
 30
0.0
 11
317.303660415
 21
-254.1342756184
 31
0.0
  0
LINE
  5
120
330
1F
100
AcDbEntity
  8
0
  6
Continuous
 62
     7
370
    25
100
AcDbLine
 10
320.3100706714
 20
-254.1342756184
 30
0.0
 11
321.0027282556
 21
-254.1342756195
 31
0.0
  0
LINE
  5
121
330
1F
100
AcDbEntity
  8
0
  6
Continuous
 62
     7
370
    25
100
AcDbLine
 10
320.3100706714
 20
-251.5765833107
 30
0.0
 11
320.3100706714
 21
-252.0498405222
 31
0.0
  0
LINE
  5
122
330
1F
100
AcDbEntity
  8
0
  6
Continuous
 62
     7
370
    25
100
AcDbLine
 10
319.9959681073
 20
-251.5765833107
 30
0.0
 11
320.3100706714
 21
-251.5765833107
 31
0.0
  0
LINE
  5
123
330
1F
100
AcDbEntity
  8
0
  6
Continuous
 62
     7
370
    25
100
AcDbLine
 10
319.9959681073
 20
-255.0765833107
 30
0.0
 11
319.9959681073
 21
-251.5765833107
 31
0.0
  0
LINE
  5
124
330
1F
100
AcDbEntity
  8
0
  6
Continuous
 62
     7
370
    25
100
AcDbLine
 10
320.3100706714
 20
-255.0765833107
 30
0.0
 11
319.9959681073
 21
-255.0765833107
 31
0.0
  0
LINE
  5
125
330
1F
100
AcDbEntity
  8
0
  6
Continuous
 62
     7
370
    25
100
AcDbLine
 10
328.9703270816
 20
-251.6193517402
 30
0.0
 11
328.7978511201
 21
-251.8913869966
 31
0.0
  0
LINE
  5
126
330
1F
100
AcDbEntity
  8
0
  6
Continuous
 62
     7
370
    25
100
AcDbLine
 10
328.0728911842
 20
-251.5765833107
 30
0.0
 11
328.0728911842
 21
-251.9530857145
 31
0.0
  0
LINE
  5
127
330
1F
100
AcDbEntity
  8
0
  6
Continuous
 62
     7
370
    25
100
AcDbLine
 10
327.7587886201
 20
-251.5765833107
 30
0.0
 11
328.0728911842
 21
-251.5765833107
 31
0.0
  0
LINE
  5
128
330
1F
100
AcDbEntity
  8
0
  6
Continuous
 62
     7
370
    25
100
AcDbLine
 10
327.7587886201
 20
-254.1342756184
 30
0.0
 11
327.7587886201
 21
-251.5765833107
 31
0.0
  0
LINE
  5
129
330
1F
100
AcDbEntity
  8
0
  6
Continuous
 62
     7
370
    25
100
AcDbLine
 10
328.0728911842
 20
-254.1342756184
 30
0.0
 11
327.7587886201
 21
-254.1342756184
 31
0.0
  0
LINE
  5
12A
330
1F
100
AcDbEntity
  8
0
  6
Continuous
 62
     7
370
    25
100
AcDbLine
 10
329.2395578509
 20
-251.5765833107
 30
0.0
 11
329.553660415
 21
-251.5765833107
 31
0.0
  0
LINE
  5
12B
330
1F
100
AcDbEntity
  8
0
  6
Continuous
 62
     7
370
    25
100
AcDbLine
 10
329.2395578509
 20
-254.1342756184
 30
0.0
 11
329.2395578509
 21
-251.5765833107
 31
0.0
  0
LINE
  5
12C
330
1F
100
AcDbEntity
  8
0
  6
Continuous
 62
     7
370
    25
100
AcDbLine
 10
329.553660415
 20
-254.1342756184
 30
0.0
 11
329.2395578509
 21
-254.1342756184
 31
0.0
  0
LINE
  5
12D
330
1F
100
AcDbEntity
  8
0
  6
Continuous
 62
     7
370
    25
100
AcDbLine
 10
330.2716091329
 20
-254.3137627979
 30
0.0
 11
330.585711697
 21
-254.3137627979
 31
0.0
  0
LINE
  5
12E
330
1F
100
AcDbEntity
  8
0
  6
Continuous
 62
     7
370
    25
100
AcDbLine
 10
332.8741732355
 20
-251.5765833107
 30
0.0
 11
332.8741732355
 21
-253.6063309068
 31
0.0
  0
LINE
  5
12F
330
1F
100
AcDbEntity
  8
0
  6
Continuous
 62
     7
370
    25
100
AcDbLine
 10
332.5600706714
 20
-251.5765833107
 30
0.0
 11
332.8741732355
 21
-251.5765833107
 31
0.0
  0
LINE
  5
130
330
1F
100
AcDbEntity
  8
0
  6
Continuous
 62
     7
370
    25
100
AcDbLine
 10
332.5600706714
 20
-252.0238990158
 30
0.0
 11
332.5600706714
 21
-251.5765833107
 31
0.0
  0
LINE
  5
131
330
1F
100
AcDbEntity
  8
0
  6
Continuous
 62
     7
370
    25
100
AcDbLine
 10
333.9062245175
 20
-250.5445320286
 30
0.0
 11
333.9062245175
 21
-252.0596562273
 31
0.0
  0
LINE
  5
132
330
1F
100
AcDbEntity
  8
0
  6
Continuous
 62
     7
370
    25
100
AcDbLine
 10
333.5921219534
 20
-250.5445320286
 30
0.0
 11
333.9062245175
 21
-250.5445320286
 31
0.0
  0
LINE
  5
133
330
1F
100
AcDbEntity
  8
0
  6
Continuous
 62
     7
370
    25
100
AcDbLine
 10
333.5921219534
 20
-254.1342756184
 30
0.0
 11
333.5921219534
 21
-250.5445320286
 31
0.0
  0
LINE
  5
134
330
1F
100
AcDbEntity
  8
0
  6
Continuous
 62
     7
370
    25
100
AcDbLine
 10
335.835711697
 20
-254.1342756184
 30
0.0
 11
333.5921219534
 21
-254.1342756184
 31
0.0
  0
LINE
  5
135
330
1F
100
AcDbEntity
  8
0
  6
Continuous
 62
     7
370
    25
100
AcDbLine
 10
337.6305834919
 20
-251.8906858748
 30
0.0
 11
337.1818655432
 21
-251.8906858748
 31
0.0
  0
LINE
  5
136
330
1F
100
AcDbEntity
  8
0
  6
Continuous
 62
     7
370
    25
100
AcDbLine
 10
337.6305834919
 20
-251.5765833107
 30
0.0
 11
337.6305834919
 21
-251.8906858748
 31
0.0
  0
LINE
  5
137
330
1F
100
AcDbEntity
  8
0
  6
Continuous
 62
     7
370
    25
100
AcDbLine
 10
337.1818655432
 20
-251.5765833107
 30
0.0
 11
337.6305834919
 21
-251.5765833107
 31
0.0
  0
LINE
  5
138
330
1F
100
AcDbEntity
  8
0
  6
Continuous
 62
     7
370
    25
100
AcDbLine
 10
337.1818655432
 20
-250.5445320286
 30
0.0
 11
337.1818655432
 21
-251.5765833107
 31
0.0
  0
LINE
  5
139
330
1F
100
AcDbEntity
  8
0
  6
Continuous
 62
     7
370
    25
100
AcDbLine
 10
336.8677629791
 20
-250.5445320286
 30
0.0
 11
337.1818655432
 21
-250.5445320286
 31
0.0
  0
LINE
  5
13A
330
1F
100
AcDbEntity
  8
0
  6
Continuous
 62
     7
370
    25
100
AcDbLine
 10
336.8677629791
 20
-251.5765833107
 30
0.0
 11
336.8677629791
 21
-250.5445320286
 31
0.0
  0
LINE
  5
13B
330
1F
100
AcDbEntity
  8
0
  6
Continuous
 62
     7
370
    25
100
AcDbLine
 10
336.4190450304
 20
-251.5765833107
 30
0.0
 11
336.8677629791
 21
-251.5765833107
 31
0.0
  0
LINE
  5
13C
330
1F
100
AcDbEntity
  8
0
  6
Continuous
 62
     7
370
    25
100
AcDbLine
 10
336.4190450304
 20
-251.8906858748
 30
0.0
 11
336.4190450304
 21
-251.5765833107
 31
0.0
  0
LINE
  5
13D
330
1F
100
AcDbEntity
  8
0
  6
Continuous
 62
     7
370
    25
100
AcDbLine
 10
336.8677629791
 20
-251.8906858748
 30
0.0
 11
336.4190450304
 21
-251.8906858748
 31
0.0
  0
LINE
  5
13E
330
1F
100
AcDbEntity
  8
0
  6
Continuous
 62
     7
370
    25
100
AcDbLine
 10
336.8677629791
 20
-254.1342756184
 30
0.0
 11
336.8677629791
 21
-251.8906858748
 31
0.0
  0
LINE
  5
13F
330
1F
100
AcDbEntity
  8
0
  6
Continuous
 62
     7
370
    25
100
AcDbLine
 10
337.1818655432
 20
-254.1342756184
 30
0.0
 11
336.8677629791
 21
-254.1342756184
 31
0.0
  0
LINE
  5
140
330
1F
100
AcDbEntity
  8
0
  6
Continuous
 62
     7
370
    25
100
AcDbLine
 10
340.5921219534
 20
-251.8906858748
 30
0.0
 11
340.1434040047
 21
-251.8906858748
 31
0.0
  0
LINE
  5
141
330
1F
100
AcDbEntity
  8
0
  6
Continuous
 62
     7
370
    25
100
AcDbLine
 10
340.5921219534
 20
-251.5765833107
 30
0.0
 11
340.5921219534
 21
-251.8906858748
 31
0.0
  0
LINE
  5
142
330
1F
100
AcDbEntity
  8
0
  6
Continuous
 62
     7
370
    25
100
AcDbLine
 10
340.1434040047
 20
-251.5765833107
 30
0.0
 11
340.5921219534
 21
-251.5765833107
 31
0.0
  0
LINE
  5
143
330
1F
100
AcDbEntity
  8
0
  6
Continuous
 62
     7
370
    25
100
AcDbLine
 10
340.1434040047
 20
-250.5445320286
 30
0.0
 11
340.1434040047
 21
-251.5765833107
 31
0.0
  0
LINE
  5
144
330
1F
100
AcDbEntity
  8
0
  6
Continuous
 62
     7
370
    25
100
AcDbLine
 10
339.8293014406
 20
-250.5445320286
 30
0.0
 11
340.1434040047
 21
-250.5445320286
 31
0.0
  0
LINE
  5
145
330
1F
100
AcDbEntity
  8
0
  6
Continuous
 62
     7
370
    25
100
AcDbLine
 10
339.8293014406
 20
-251.5765833107
 30
0.0
 11
339.8293014406
 21
-250.5445320286
 31
0.0
  0
LINE
  5
146
330
1F
100
AcDbEntity
  8
0
  6
Continuous
 62
     7
370
    25
100
AcDbLine
 10
339.3805834919
 20
-251.5765833107
 30
0.0
 11
339.8293014406
 21
-251.5765833107
 31
0.0
  0
LINE
  5
147
330
1F
100
AcDbEntity
  8
0
  6
Continuous
 62
     7
370
    25
100
AcDbLine
 10
339.3805834919
 20
-251.8906858748
 30
0.0
 11
339.3805834919
 21
-251.5765833107
 31
0.0
  0
LINE
  5
148
330
1F
100
AcDbEntity
  8
0
  6
Continuous
 62
     7
370
    25
100
AcDbLine
 10
339.8293014406
 20
-251.8906858748
 30
0.0
 11
339.3805834919
 21
-251.8906858748
 31
0.0
  0
LINE
  5
149
330
1F
100
AcDbEntity
  8
0
  6
Continuous
 62
     7
370
    25
100
AcDbLine
 10
339.8293014406
 20
-254.1342756184
 30
0.0
 11
339.8293014406
 21
-251.8906858748
 31
0.0
  0
LINE
  5
14A
330
1F
100
AcDbEntity
  8
0
  6
Continuous
 62
     7
370
    25
100
AcDbLine
 10
340.1434040047
 20
-254.1342756184
 30
0.0
 11
339.8293014406
 21
-254.1342756184
 31
0.0
  0
LINE
  5
14B
330
1F
100
AcDbEntity
  8
0
  6
Continuous
 62
     7
370
    25
100
AcDbLine
 10
344.6305834919
 20
-254.1342756184
 30
0.0
 11
345.3232410761
 21
-254.1342756195
 31
0.0
  0
LINE
  5
14C
330
1F
100
AcDbEntity
  8
0
  6
Continuous
 62
     7
370
    25
100
AcDbLine
 10
344.6305834919
 20
-251.5765833107
 30
0.0
 11
344.6305834919
 21
-252.0498405222
 31
0.0
  0
LINE
  5
14D
330
1F
100
AcDbEntity
  8
0
  6
Continuous
 62
     7
370
    25
100
AcDbLine
 10
344.3164809278
 20
-251.5765833107
 30
0.0
 11
344.6305834919
 21
-251.5765833107
 31
0.0
  0
LINE
  5
14E
330
1F
100
AcDbEntity
  8
0
  6
Continuous
 62
     7
370
    25
100
AcDbLine
 10
344.3164809278
 20
-255.0765833107
 30
0.0
 11
344.3164809278
 21
-251.5765833107
 31
0.0
  0
LINE
  5
14F
330
1F
100
AcDbEntity
  8
0
  6
Continuous
 62
     7
370
    25
100
AcDbLine
 10
344.6305834919
 20
-255.0765833107
 30
0.0
 11
344.3164809278
 21
-255.0765833107
 31
0.0
  0
LINE
  5
150
330
1F
100
AcDbEntity
  8
0
  6
Continuous
 62
     7
370
    25
100
AcDbLine
 10
0.0
 20
0.0
 30
0.0
 11
0.0
 21
-270.0
 31
0.0
  0
LINE
  5
151
330
1F
100
AcDbEntity
  8
0
  6
Continuous
 62
     7
370
    25
100
AcDbLine
 10
0.0
 20
0.0
 30
0.0
 11
400.0
 21
0.0
 31
0.0
  0
LINE
  5
152
330
1F
100
AcDbEntity
  8
0
  6
Continuous
 62
     7
370
    25
100
AcDbLine
 10
400.0
 20
0.0
 30
0.0
 11
400.0
 21
-270.0
 31
0.0
  0
MTEXT
  5
154
330
1F
100
AcDbEntity
  8
0
  6
Continuous
 62
     7
100
AcDbMText
 10
0.0
 20
-271.0195663917
 30
0.0
 40
4.83362
 41
0.0
 71
     1
 72
     1
  1
SOLIDWORKS Educational Product.
  7
SLDTEXTSTYLE0
 73
     1
 44
1.0
  0
MTEXT
  5
155
330
1F
100
AcDbEntity
  8
0
  6
Continuous
 62
     7
100
AcDbMText
 10
0.0
 20
-278.2699963917
 30
0.0
 40
4.83362
 41
0.0
 71
     1
 72
     1
  1
For Instructional Use Only.
  7
SLDTEXTSTYLE0
 73
     1
 44
1.0
  0
ENDSEC
  0
SECTION
  2
OBJECTS
  0
DICTIONARY
  5
C
330
0
100
AcDbDictionary
281
     1
  3
ACAD_GROUP
350
D
  3
ACAD_LAYOUT
350
1A
  3
ACAD_MLINESTYLE
350
17
  3
ACAD_PLOTSETTINGS
350
19
  3
ACAD_PLOTSTYLENAME
350
E
  3
ACAD_SCALELIST
350
47
  3
DWGPROPS
350
156
  0
DICTIONARY
  5
D
102
{ACAD_REACTORS
330
C
102
}
330
C
100
AcDbDictionary
281
     1
  0
DICTIONARY
  5
1A
102
{ACAD_REACTORS
330
C
102
}
330
C
100
AcDbDictionary
281
     1
  3
Layout1
350
1E
  3
Layout2
350
26
  3
Model
350
22
  0
DICTIONARY
  5
17
102
{ACAD_REACTORS
330
C
102
}
330
C
100
AcDbDictionary
281
     1
  3
Standard
350
18
  0
DICTIONARY
  5
19
102
{ACAD_REACTORS
330
C
102
}
330
C
100
AcDbDictionary
281
     1
  0
ACDBDICTIONARYWDFLT
  5
E
102
{ACAD_REACTORS
330
C
102
}
330
C
100
AcDbDictionary
281
     1
  3
Normal
350
F
100
AcDbDictionaryWithDefault
340
F
  0
DICTIONARY
  5
47
102
{ACAD_REACTORS
330
C
102
}
330
C
100
AcDbDictionary
281
     1
  3
A0
350
48
  3
A1
350
49
  3
A2
350
4A
  3
A3
350
4B
  3
A4
350
4C
  3
A5
350
4D
  3
A6
350
4E
  3
A7
350
4F
  3
A8
350
50
  3
A9
350
51
  3
B0
350
52
  3
B1
350
53
  3
B2
350
54
  3
B3
350
55
  3
B4
350
56
  3
B5
350
57
  3
B6
350
58
  0
XRECORD
  5
156
102
{ACAD_REACTORS
330
C
102
}
330
C
100
AcDbXrecord
280
     1
  1
DWGPROPS COOKIE
  2

  3

  4

  6

  7

  8
anast
  9

300
=
301
=
302
=
303
=
304
=
305
=
306
=
307
=
308
=
309
=
 40
0.0
 41
2460812.725756852
 42
2460812.725801158
  1

 90
        0
  0
LAYOUT
  5
1E
102
{ACAD_REACTORS
330
1A
102
}
330
1A
100
AcDbPlotSettings
  1

  2
none_device
  4

  6

 40
0.0
 41
0.0
 42
0.0
 43
0.0
 44
0.0
 45
0.0
 46
0.0
 47
0.0
 48
0.0
 49
0.0
140
0.0
141
0.0
142
1.0
143
1.0
 70
   688
 72
     1
 73
     0
 74
     5
  7

 75
    16
147
1.0
148
0.0
149
0.0
100
AcDbLayout
  1
Layout1
 70
     1
 71
     1
 10
0.0
 20
0.0
 11
420.0
 21
297.0
 12
0.0
 22
0.0
 32
0.0
 14
1.0000000000E+20
 24
1.0000000000E+20
 34
1.0000000000E+20
 15
-1.0000000000E+20
 25
-1.0000000000E+20
 35
-1.0000000000E+20
146
0.0
 13
0.0
 23
0.0
 33
0.0
 16
1.0
 26
0.0
 36
0.0
 17
0.0
 27
1.0
 37
0.0
 76
     0
330
1B
  0
LAYOUT
  5
26
102
{ACAD_REACTORS
330
1A
102
}
330
1A
100
AcDbPlotSettings
  1

  2
none_device
  4

  6

 40
0.0
 41
0.0
 42
0.0
 43
0.0
 44
0.0
 45
0.0
 46
0.0
 47
0.0
 48
0.0
 49
0.0
140
0.0
141
0.0
142
1.0
143
1.0
 70
   688
 72
     1
 73
     0
 74
     5
  7

 75
    16
147
1.0
148
0.0
149
0.0
100
AcDbLayout
  1
Layout2
 70
     1
 71
     2
 10
0.0
 20
0.0
 11
0.0
 21
0.0
 12
0.0
 22
0.0
 32
0.0
 14
0.0
 24
0.0
 34
0.0
 15
0.0
 25
0.0
 35
0.0
146
0.0
 13
0.0
 23
0.0
 33
0.0
 16
1.0
 26
0.0
 36
0.0
 17
0.0
 27
1.0
 37
0.0
 76
     0
330
23
  0
LAYOUT
  5
22
102
{ACAD_REACTORS
330
1A
102
}
330
1A
100
AcDbPlotSettings
  1

  2
none_device
  4
ANSI_A_(11.00_x_8.50_Inches)
  6

 40
6.35
 41
19.05
 42
6.35000508
 43
19.05000254
 44
279.4
 45
215.9
 46
-4.95300254
 47
182.25452373
 48
0.0
 49
0.0
140
0.0
141
0.0
142
0.027225
143
1.0
 70
  1696
 72
     0
 73
     0
 74
     0
  7

 75
     0
147
0.0179189148
148
-1300.4909072572
149
0.0
100
AcDbLayout
  1
Model
 70
     1
 71
     0
 10
0.0
 20
0.0
 11
420.0
 21
297.0
 12
0.0
 22
0.0
 32
0.0
 14
0.0
 24
-270.0
 34
0.0
 15
400.0
 25
0.0
 35
0.0
146
0.0
 13
0.0
 23
0.0
 33
0.0
 16
1.0
 26
0.0
 36
0.0
 17
0.0
 27
1.0
 37
0.0
 76
     0
330
1F
331
29
  0
MLINESTYLE
  5
18
102
{ACAD_REACTORS
330
17
102
}
330
17
100
AcDbMlineStyle
  2
Standard
 70
     0
  3

 62
   256
 51
90.0
 52
90.0
 71
     2
 49
0.5
 62
   256
  6
BYLAYER
 49
-0.5
 62
   256
  6
BYLAYER
  0
ACDBPLACEHOLDER
  5
F
102
{ACAD_REACTORS
330
E
102
}
330
E
  0
SCALE
  5
48
102
{ACAD_REACTORS
330
47
102
}
330
47
100
AcDbScale
 70
     0
300
1:1
140
1.0
141
1.0
290
     1
  0
SCALE
  5
49
102
{ACAD_REACTORS
330
47
102
}
330
47
100
AcDbScale
 70
     0
300
1:2
140
1.0
141
2.0
290
     0
  0
SCALE
  5
4A
102
{ACAD_REACTORS
330
47
102
}
330
47
100
AcDbScale
 70
     0
300
1:4
140
1.0
141
4.0
290
     0
  0
SCALE
  5
4B
102
{ACAD_REACTORS
330
47
102
}
330
47
100
AcDbScale
 70
     0
300
1:5
140
1.0
141
5.0
290
     0
  0
SCALE
  5
4C
102
{ACAD_REACTORS
330
47
102
}
330
47
100
AcDbScale
 70
     0
300
1:8
140
1.0
141
8.0
290
     0
  0
SCALE
  5
4D
102
{ACAD_REACTORS
330
47
102
}
330
47
100
AcDbScale
 70
     0
300
1:10
140
1.0
141
10.0
290
     0
  0
SCALE
  5
4E
102
{ACAD_REACTORS
330
47
102
}
330
47
100
AcDbScale
 70
     0
300
1:16
140
1.0
141
16.0
290
     0
  0
SCALE
  5
4F
102
{ACAD_REACTORS
330
47
102
}
330
47
100
AcDbScale
 70
     0
300
1:20
140
1.0
141
20.0
290
     0
  0
SCALE
  5
50
102
{ACAD_REACTORS
330
47
102
}
330
47
100
AcDbScale
 70
     0
300
1:30
140
1.0
141
30.0
290
     0
  0
SCALE
  5
51
102
{ACAD_REACTORS
330
47
102
}
330
47
100
AcDbScale
 70
     0
300
1:40
140
1.0
141
40.0
290
     0
  0
SCALE
  5
52
102
{ACAD_REACTORS
330
47
102
}
330
47
100
AcDbScale
 70
     0
300
1:50
140
1.0
141
50.0
290
     0
  0
SCALE
  5
53
102
{ACAD_REACTORS
330
47
102
}
330
47
100
AcDbScale
 70
     0
300
1:100
140
1.0
141
100.0
290
     0
  0
SCALE
  5
54
102
{ACAD_REACTORS
330
47
102
}
330
47
100
AcDbScale
 70
     0
300
2:1
140
2.0
141
1.0
290
     0
  0
SCALE
  5
55
102
{ACAD_REACTORS
330
47
102
}
330
47
100
AcDbScale
 70
     0
300
4:1
140
4.0
141
1.0
290
     0
  0
SCALE
  5
56
102
{ACAD_REACTORS
330
47
102
}
330
47
100
AcDbScale
 70
     0
300
8:1
140
8.0
141
1.0
290
     0
  0
SCALE
  5
57
102
{ACAD_REACTORS
330
47
102
}
330
47
100
AcDbScale
 70
     0
300
10:1
140
10.0
141
1.0
290
     0
  0
SCALE
  5
58
102
{ACAD_REACTORS
330
47
102
}
330
47
100
AcDbScale
 70
     0
300
100:1
140
100.0
141
1.0
290
     0
  0
ENDSEC
  0
EOF
