  0
SECTION
  2
HEADER
  9
$ACADVER
  1
AC1015
  9
$ACADMAINTVER
 70
     6
  9
$DWGCODEPAGE
  3
ANSI_1252
  9
$INSBASE
 10
0.0
 20
0.0
 30
0.0
  9
$EXTMIN
 10
-666.8196898987
 20
0.0
 30
0.0
  9
$EXTMAX
 10
390.8196898987
 20
870.0
 30
0.0
  9
$LIMMIN
 10
0.0
 20
0.0
  9
$LIMMAX
 10
420.0
 20
297.0
  9
$ORTHOMODE
 70
     0
  9
$REGENMODE
 70
     1
  9
$FILLMODE
 70
     1
  9
$QTEXTMODE
 70
     0
  9
$MIRRTEXT
 70
     1
  9
$LTSCALE
 40
1.0
  9
$ATTMODE
 70
     1
  9
$TEXTSIZE
 40
3.5
  9
$TRACEWID
 40
1.0
  9
$TEXTSTYLE
  7
Standard
  9
$CLAYER
  8
0
  9
$CELTYPE
  6
ByLayer
  9
$CECOLOR
 62
   256
  9
$CELTSCALE
 40
1.0
  9
$DISPSILH
 70
     0
  9
$DIMSCALE
 40
1.0
  9
$DIMASZ
 40
3.302
  9
$DIMEXO
 40
0.0
  9
$DIMDLI
 40
3.75
  9
$DIMRND
 40
0.0
  9
$DIMDLE
 40
0.0
  9
$DIMEXE
 40
1.0
  9
$DIMTP
 40
0.0
  9
$DIMTM
 40
0.0
  9
$DIMTXT
 40
3.5
  9
$DIMCEN
 40
2.5
  9
$DIMTSZ
 40
0.0
  9
$DIMTOL
 70
     0
  9
$DIMLIM
 70
     0
  9
$DIMTIH
 70
     1
  9
$DIMTOH
 70
     1
  9
$DIMSE1
 70
     0
  9
$DIMSE2
 70
     0
  9
$DIMTAD
 70
     1
  9
$DIMZIN
 70
     1
  9
$DIMBLK
  1

  9
$DIMASO
 70
     1
  9
$DIMSHO
 70
     1
  9
$DIMPOST
  1

  9
$DIMAPOST
  1

  9
$DIMALT
 70
     0
  9
$DIMALTD
 70
     3
  9
$DIMALTF
 40
0.0393700787
  9
$DIMLFAC
 40
1.0
  9
$DIMTOFL
 70
     1
  9
$DIMTVP
 40
0.0
  9
$DIMTIX
 70
     0
  9
$DIMSOXD
 70
     0
  9
$DIMSAH
 70
     0
  9
$DIMBLK1
  1

  9
$DIMBLK2
  1

  9
$DIMSTYLE
  2
ISO-25
  9
$DIMCLRD
 70
     0
  9
$DIMCLRE
 70
     0
  9
$DIMCLRT
 70
     0
  9
$DIMTFAC
 40
1.0
  9
$DIMGAP
 40
1.524
  9
$DIMJUST
 70
     0
  9
$DIMSD1
 70
     0
  9
$DIMSD2
 70
     0
  9
$DIMTOLJ
 70
     0
  9
$DIMTZIN
 70
     1
  9
$DIMALTZ
 70
     0
  9
$DIMALTTZ
 70
     0
  9
$DIMUPT
 70
     0
  9
$DIMDEC
 70
     2
  9
$DIMTDEC
 70
     2
  9
$DIMALTU
 70
     2
  9
$DIMALTTD
 70
     3
  9
$DIMTXSTY
  7
Standard
  9
$DIMAUNIT
 70
     0
  9
$DIMADEC
 70
     2
  9
$DIMALTRND
 40
0.0
  9
$DIMAZIN
 70
     0
  9
$DIMDSEP
 70
    44
  9
$DIMATFIT
 70
     3
  9
$DIMFRAC
 70
     0
  9
$DIMLDRBLK
  1

  9
$DIMLUNIT
 70
     2
  9
$DIMLWD
 70
    -2
  9
$DIMLWE
 70
    -2
  9
$DIMTMOVE
 70
     0
  9
$LUNITS
 70
     2
  9
$LUPREC
 70
     2
  9
$SKETCHINC
 40
1.0
  9
$FILLETRAD
 40
0.0
  9
$AUNITS
 70
     0
  9
$AUPREC
 70
     2
  9
$MENU
  1
.
  9
$ELEVATION
 40
0.0
  9
$PELEVATION
 40
0.0
  9
$THICKNESS
 40
0.0
  9
$LIMCHECK
 70
     0
  9
$CHAMFERA
 40
0.0
  9
$CHAMFERB
 40
0.0
  9
$CHAMFERC
 40
0.0
  9
$CHAMFERD
 40
0.0
  9
$SKPOLY
 70
     0
  9
$TDCREATE
 40
2460812.809969908
  9
$TDUCREATE
 40
2460812.726636574
  9
$TDUPDATE
 40
2460812.810041273
  9
$TDUUPDATE
 40
2460812.72670794
  9
$TDINDWG
 40
0.0000000116
  9
$TDUSRTIMER
 40
0.0000000116
  9
$USRTIMER
 70
     1
  9
$ANGBASE
 50
0.0
  9
$ANGDIR
 70
     0
  9
$PDMODE
 70
     0
  9
$PDSIZE
 40
-1.0
  9
$PLINEWID
 40
0.0
  9
$SPLFRAME
 70
     0
  9
$SPLINETYPE
 70
     6
  9
$SPLINESEGS
 70
     8
  9
$HANDSEED
  5
1AB
  9
$SURFTAB1
 70
     6
  9
$SURFTAB2
 70
     6
  9
$SURFTYPE
 70
     6
  9
$SURFU
 70
     6
  9
$SURFV
 70
     6
  9
$UCSBASE
  2

  9
$UCSNAME
  2

  9
$UCSORG
 10
0.0
 20
0.0
 30
0.0
  9
$UCSXDIR
 10
1.0
 20
0.0
 30
0.0
  9
$UCSYDIR
 10
0.0
 20
1.0
 30
0.0
  9
$UCSORTHOREF
  2

  9
$UCSORTHOVIEW
 70
     0
  9
$UCSORGTOP
 10
0.0
 20
0.0
 30
0.0
  9
$UCSORGBOTTOM
 10
0.0
 20
0.0
 30
0.0
  9
$UCSORGLEFT
 10
0.0
 20
0.0
 30
0.0
  9
$UCSORGRIGHT
 10
0.0
 20
0.0
 30
0.0
  9
$UCSORGFRONT
 10
0.0
 20
0.0
 30
0.0
  9
$UCSORGBACK
 10
0.0
 20
0.0
 30
0.0
  9
$PUCSBASE
  2

  9
$PUCSNAME
  2

  9
$PUCSORG
 10
0.0
 20
0.0
 30
0.0
  9
$PUCSXDIR
 10
1.0
 20
0.0
 30
0.0
  9
$PUCSYDIR
 10
0.0
 20
1.0
 30
0.0
  9
$PUCSORTHOREF
  2

  9
$PUCSORTHOVIEW
 70
     0
  9
$PUCSORGTOP
 10
0.0
 20
0.0
 30
0.0
  9
$PUCSORGBOTTOM
 10
0.0
 20
0.0
 30
0.0
  9
$PUCSORGLEFT
 10
0.0
 20
0.0
 30
0.0
  9
$PUCSORGRIGHT
 10
0.0
 20
0.0
 30
0.0
  9
$PUCSORGFRONT
 10
0.0
 20
0.0
 30
0.0
  9
$PUCSORGBACK
 10
0.0
 20
0.0
 30
0.0
  9
$USERI1
 70
     0
  9
$USERI2
 70
     0
  9
$USERI3
 70
     0
  9
$USERI4
 70
     0
  9
$USERI5
 70
     0
  9
$USERR1
 40
0.0
  9
$USERR2
 40
0.0
  9
$USERR3
 40
0.0
  9
$USERR4
 40
0.0
  9
$USERR5
 40
0.0
  9
$WORLDVIEW
 70
     1
  9
$SHADEDGE
 70
     3
  9
$SHADEDIF
 70
    70
  9
$TILEMODE
 70
     1
  9
$MAXACTVP
 70
    64
  9
$PINSBASE
 10
0.0
 20
0.0
 30
0.0
  9
$PLIMCHECK
 70
     0
  9
$PEXTMIN
 10
1.0000000000E+20
 20
1.0000000000E+20
 30
1.0000000000E+20
  9
$PEXTMAX
 10
-1.0000000000E+20
 20
-1.0000000000E+20
 30
-1.0000000000E+20
  9
$PLIMMIN
 10
0.0
 20
0.0
  9
$PLIMMAX
 10
420.0
 20
297.0
  9
$UNITMODE
 70
     0
  9
$VISRETAIN
 70
     1
  9
$PLINEGEN
 70
     0
  9
$PSLTSCALE
 70
     1
  9
$TREEDEPTH
 70
  3020
  9
$CMLSTYLE
  2
Standard
  9
$CMLJUST
 70
     0
  9
$CMLSCALE
 40
20.0
  9
$PROXYGRAPHICS
 70
     1
  9
$MEASUREMENT
 70
     1
  9
$CELWEIGHT
370
    -1
  9
$ENDCAPS
280
     0
  9
$JOINSTYLE
280
     0
  9
$LWDISPLAY
290
     1
  9
$INSUNITS
 70
     4
  9
$HYPERLINKBASE
  1

  9
$STYLESHEET
  1

  9
$XEDIT
290
     1
  9
$CEPSNTYPE
380
     0
  9
$PSTYLEMODE
290
     1
  9
$FINGERPRINTGUID
  2
{2119f6f0-539c-4901-a58a-766ae336e6d0}
  9
$VERSIONGUID
  2
{FAEB1C32-E019-11D5-929B-00C0DF256EC4}
  9
$EXTNAMES
290
     1
  9
$PSVPSCALE
 40
0.0
  9
$OLESTARTUP
290
     0
  0
ENDSEC
  0
SECTION
  2
CLASSES
  0
CLASS
  1
ACDBDICTIONARYWDFLT
  2
AcDbDictionaryWithDefault
  3
ObjectDBX Classes
 90
        0
280
     0
281
     0
  0
CLASS
  1
VISUALSTYLE
  2
AcDbVisualStyle
  3
ObjectDBX Classes
 90
     4095
280
     0
281
     0
  0
CLASS
  1
MATERIAL
  2
AcDbMaterial
  3
ObjectDBX Classes
 90
     1153
280
     0
281
     0
  0
CLASS
  1
SCALE
  2
AcDbScale
  3
ObjectDBX Classes
 90
     1153
280
     0
281
     0
  0
CLASS
  1
TABLESTYLE
  2
AcDbTableStyle
  3
ObjectDBX Classes
 90
     4095
280
     0
281
     0
  0
CLASS
  1
MLEADERSTYLE
  2
AcDbMLeaderStyle
  3
ACDB_MLEADERSTYLE_CLASS
 90
     4095
280
     0
281
     0
  0
CLASS
  1
SUN
  2
AcDbSun
  3
SCENEOE
 90
     1153
280
     0
281
     0
  0
CLASS
  1
ACDBPLACEHOLDER
  2
AcDbPlaceHolder
  3
ObjectDBX Classes
 90
        0
280
     0
281
     0
  0
CLASS
  1
LAYOUT
  2
AcDbLayout
  3
ObjectDBX Classes
 90
        0
280
     0
281
     0
  0
ENDSEC
  0
SECTION
  2
TABLES
  0
TABLE
  2
VPORT
  5
8
330
0
100
AcDbSymbolTable
 70
     1
  0
VPORT
  5
29
330
8
100
AcDbSymbolTableRecord
100
AcDbViewportTableRecord
  2
*Active
 70
     0
 10
0.0
 20
0.0
 11
1.0
 21
1.0
 12
-138.0
 22
435.0
 13
0.0
 23
0.0
 14
10.0
 24
10.0
 15
10.0
 25
10.0
 16
0.0
 26
0.0
 36
1.0
 17
0.0
 27
0.0
 37
0.0
 40
887.4
 41
1.215677448
 42
50.0
 43
0.0
 44
0.0
 50
0.0
 51
0.0
 71
     0
 72
   100
 73
     1
 74
     3
 75
     0
 76
     0
 77
     0
 78
     0
281
     0
 65
     1
110
0.0
120
0.0
130
0.0
111
1.0
121
0.0
131
0.0
112
0.0
122
1.0
132
0.0
 79
     0
146
0.0
  0
ENDTAB
  0
TABLE
  2
LTYPE
  5
5
330
0
100
AcDbSymbolTable
 70
     6
  0
LTYPE
  5
14
330
5
100
AcDbSymbolTableRecord
100
AcDbLinetypeTableRecord
  2
ByBlock
 70
     0
  3

 72
    65
 73
     0
 40
0.0
  0
LTYPE
  5
15
330
5
100
AcDbSymbolTableRecord
100
AcDbLinetypeTableRecord
  2
ByLayer
 70
     0
  3

 72
    65
 73
     0
 40
0.0
  0
LTYPE
  5
16
330
5
100
AcDbSymbolTableRecord
100
AcDbLinetypeTableRecord
  2
Continuous
 70
     0
  3
Solid line
 72
    65
 73
     0
 40
0.0
  0
LTYPE
  5
5E
330
5
100
AcDbSymbolTableRecord
100
AcDbLinetypeTableRecord
  2
HIDDEN
 70
     0
  3
Hidden __ __ __ __ __ __ __ __ __ __ __ __ __ __
 72
    65
 73
     2
 40
1.905
 49
1.27
 74
     0
 49
-0.635
 74
     0
  0
LTYPE
  5
5F
330
5
100
AcDbSymbolTableRecord
100
AcDbLinetypeTableRecord
  2
PHANTOM
 70
     0
  3
Phantom ______  __  __  ______  __  __  ______
 72
    65
 73
     6
 40
12.7
 49
6.35
 74
     0
 49
-1.27
 74
     0
 49
1.27
 74
     0
 49
-1.27
 74
     0
 49
1.27
 74
     0
 49
-1.27
 74
     0
  0
LTYPE
  5
60
330
5
100
AcDbSymbolTableRecord
100
AcDbLinetypeTableRecord
  2
CENTER
 70
     0
  3
Center ____ _ ____ _ ____ _ ____ _ ____ _ ____
 72
    65
 73
     4
 40
10.16
 49
6.35
 74
     0
 49
-1.27
 74
     0
 49
1.27
 74
     0
 49
-1.27
 74
     0
  0
LTYPE
  5
61
330
5
100
AcDbSymbolTableRecord
100
AcDbLinetypeTableRecord
  2
CENTERX2
 70
     0
  3
Center (2x) ________  __  ________  __  _____
 72
    65
 73
     4
 40
20.32
 49
12.7
 74
     0
 49
-2.54
 74
     0
 49
2.54
 74
     0
 49
-2.54
 74
     0
  0
LTYPE
  5
62
330
5
100
AcDbSymbolTableRecord
100
AcDbLinetypeTableRecord
  2
DOT2
 70
     0
  3
Dot (.5x) ........................................
 72
    65
 73
     2
 40
0.635
 49
0.0
 74
     0
 49
-0.635
 74
     0
  0
ENDTAB
  0
TABLE
  2
LAYER
  5
2
330
0
100
AcDbSymbolTable
 70
     1
  0
LAYER
  5
10
330
2
100
AcDbSymbolTableRecord
100
AcDbLayerTableRecord
  2
0
 70
     0
 62
     7
  6
Continuous
370
    -3
390
F
  0
ENDTAB
  0
TABLE
  2
STYLE
  5
3
330
0
100
AcDbSymbolTable
 70
     2
  0
STYLE
  5
11
330
3
100
AcDbSymbolTableRecord
100
AcDbTextStyleTableRecord
  2
Standard
 70
     0
 40
0.0
 41
1.0
 50
0.0
 71
     0
 42
3.5
  3
txt
  4

  0
STYLE
  5
1A7
330
3
100
AcDbSymbolTableRecord
100
AcDbTextStyleTableRecord
  2
SLDTEXTSTYLE0
 70
     0
 40
0.0
 41
0.7
 50
0.0
 71
     0
 42
3.5
  3
TXT
  4

  0
ENDTAB
  0
TABLE
  2
VIEW
  5
6
330
0
100
AcDbSymbolTable
 70
     0
  0
ENDTAB
  0
TABLE
  2
UCS
  5
7
330
0
100
AcDbSymbolTable
 70
     0
  0
ENDTAB
  0
TABLE
  2
APPID
  5
9
330
0
100
AcDbSymbolTable
 70
     1
  0
APPID
  5
12
330
9
100
AcDbSymbolTableRecord
100
AcDbRegAppTableRecord
  2
ACAD
 70
     0
  0
ENDTAB
  0
TABLE
  2
DIMSTYLE
  5
A
330
0
100
AcDbSymbolTable
 70
     1
100
AcDbDimStyleTable
  0
DIMSTYLE
105
27
330
A
100
AcDbSymbolTableRecord
100
AcDbDimStyleTableRecord
  2
ISO-25
 70
     0
 41
2.5
 42
0.625
 43
3.75
 44
1.25
 73
     0
 74
     0
 77
     1
 78
     8
140
2.5
141
2.5
143
0.0393700787
147
0.625
171
     3
172
     1
178
     0
271
     2
272
     2
274
     3
278
    44
283
     0
284
     8
340
11
  0
ENDTAB
  0
TABLE
  2
BLOCK_RECORD
  5
1
330
0
100
AcDbSymbolTable
 70
     1
  0
BLOCK_RECORD
  5
1F
330
1
100
AcDbSymbolTableRecord
100
AcDbBlockTableRecord
  2
*Model_Space
340
22
  0
BLOCK_RECORD
  5
1B
330
1
100
AcDbSymbolTableRecord
100
AcDbBlockTableRecord
  2
*Paper_Space
340
1E
  0
BLOCK_RECORD
  5
23
330
1
100
AcDbSymbolTableRecord
100
AcDbBlockTableRecord
  2
*Paper_Space0
340
26
  0
ENDTAB
  0
ENDSEC
  0
SECTION
  2
BLOCKS
  0
BLOCK
  5
20
330
1F
100
AcDbEntity
  8
0
100
AcDbBlockBegin
  2
*Model_Space
 70
     0
 10
0.0
 20
0.0
 30
0.0
  3
*Model_Space
  1

  0
ENDBLK
  5
21
330
1F
100
AcDbEntity
  8
0
100
AcDbBlockEnd
  0
BLOCK
  5
1C
330
1B
100
AcDbEntity
 67
     1
  8
0
100
AcDbBlockBegin
  2
*Paper_Space
 70
     0
 10
0.0
 20
0.0
 30
0.0
  3
*Paper_Space
  1

  0
ENDBLK
  5
1D
330
1B
100
AcDbEntity
 67
     1
  8
0
100
AcDbBlockEnd
  0
BLOCK
  5
24
330
23
100
AcDbEntity
  8
0
100
AcDbBlockBegin
  2
*Paper_Space0
 70
     0
 10
0.0
 20
0.0
 30
0.0
  3
*Paper_Space0
  1

  0
ENDBLK
  5
25
330
23
100
AcDbEntity
  8
0
100
AcDbBlockEnd
  0
ENDSEC
  0
SECTION
  2
ENTITIES
  0
LINE
  5
63
330
1F
100
AcDbEntity
  8
0
  6
HIDDEN
 62
     7
100
AcDbLine
 10
0.6598449493
 20
0.0
 30
0.0
 11
0.6598449493
 21
350.0
 31
0.0
  0
LINE
  5
64
330
1F
100
AcDbEntity
  8
0
  6
Continuous
 62
     7
100
AcDbLine
 10
-398.1598449493
 20
0.0
 30
0.0
 11
-398.1598449493
 21
350.0
 31
0.0
  0
SPLINE
  5
73
330
1F
100
AcDbEntity
  8
0
  6
Continuous
 62
     7
370
    25
100
AcDbSpline
210
0.0
220
0.0
230
1.0
 70
     8
 71
     3
 72
    13
 73
     9
 74
     0
 42
0.00000001
 43
0.00000001
 40
0.0
 40
0.0
 40
0.0
 40
0.0
 40
0.3336012413919295
 40
0.4791571975344256
 40
0.6105404974279318
 40
0.7289476063657787
 40
0.8323849228168392
 40
1.0
 40
1.0
 40
1.0
 40
1.0
 10
250.7586462873429
 20
24.92204189852743
 30
0.0
 10
250.7591147032765
 20
24.99868541693284
 30
0.0
 10
250.7589422739148
 20
25.10885700586496
 30
0.0
 10
250.7654944844452
 20
25.24901644430244
 30
0.0
 10
250.7697937149705
 20
25.33977592152248
 30
0.0
 10
250.776857900994
 20
25.42066237436424
 30
0.0
 10
250.7872305777079
 20
25.50956684385797
 30
0.0
 10
250.7976683770491
 20
25.57104236674201
 30
0.0
 10
250.807023691189
 20
25.60844013570696
 30
0.0
  0
SPLINE
  5
74
330
1F
100
AcDbEntity
  8
0
  6
Continuous
 62
     7
370
    25
100
AcDbSpline
210
0.0
220
0.0
230
1.0
 70
     8
 71
     3
 72
    21
 73
    17
 74
     0
 42
0.00000001
 43
0.00000001
 40
0.0
 40
0.0
 40
0.0
 40
0.0
 40
0.1238830745189146
 40
0.1847816479826848
 40
0.2456024656876798
 40
0.3070653910745305
 40
0.3692286662507878
 40
0.4320259048597126
 40
0.4970795873926179
 40
0.5618524691217699
 40
0.6254263815420402
 40
0.6876488370376828
 40
0.7497698060395667
 40
0.8110156280184817
 40
0.8733731419104944
 40
1.0
 40
1.0
 40
1.0
 40
1.0
 10
250.807023691189
 20
25.60844013570696
 30
0.0
 10
250.8196129931111
 20
25.65569698386994
 30
0.0
 10
250.8440375449612
 20
25.72472917382285
 30
0.0
 10
250.8875590781682
 20
25.81146124613132
 30
0.0
 10
250.9247148204363
 20
25.87359888840224
 30
0.0
 10
250.9677896030701
 20
25.93239726131846
 30
0.0
 10
251.0153259601072
 20
25.98867329616905
 30
0.0
 10
251.0686547534895
 20
26.04151767984064
 30
0.0
 10
251.1259674354951
 20
26.09159695507401
 30
0.0
 10
251.1875708634215
 20
26.13678743593817
 30
0.0
 10
251.2510776303933
 20
26.17733612933804
 30
0.0
 10
251.3178418811566
 20
26.20986375541911
 30
0.0
 10
251.3853498320865
 20
26.23853246283259
 30
0.0
 10
251.4557694568884
 20
26.25937726077099
 30
0.0
 10
251.5524069120148
 20
26.28026809934858
 30
0.0
 10
251.6271406980734
 20
26.28596293974872
 30
0.0
 10
251.677115838625
 20
26.28572378955307
 30
0.0
  0
SPLINE
  5
75
330
1F
100
AcDbEntity
  8
0
  6
Continuous
 62
     7
370
    25
100
AcDbSpline
210
0.0
220
0.0
230
1.0
 70
     8
 71
     3
 72
    13
 73
     9
 74
     0
 42
0.00000001
 43
0.00000001
 40
0.0
 40
0.0
 40
0.0
 40
0.0
 40
0.2700189621433429
 40
0.3907190350710782
 40
0.5068223535253182
 40
0.6215239708754532
 40
0.7391668368063029
 40
1.0
 40
1.0
 40
1.0
 40
1.0
 10
251.677115838625
 20
26.28572378955307
 30
0.0
 10
251.7587672050074
 20
26.28618792711524
 30
0.0
 10
251.8778989597049
 20
26.2728665793156
 30
0.0
 10
252.0223196497876
 20
26.2186426622264
 30
0.0
 10
252.1135590605757
 20
26.16252185810153
 30
0.0
 10
252.1914071379109
 20
26.0903259733154
 30
0.0
 10
252.2796731558384
 20
25.96874851511166
 30
0.0
 10
252.3193491465351
 20
25.85912498238851
 30
0.0
 10
252.3368714475993
 20
25.78231834083511
 30
0.0
  0
SPLINE
  5
76
330
1F
100
AcDbEntity
  8
0
  6
Continuous
 62
     7
370
    25
100
AcDbSpline
210
0.0
220
0.0
230
1.0
 70
     8
 71
     3
 72
    13
 73
     9
 74
     0
 42
0.00000001
 43
0.00000001
 40
0.0
 40
0.0
 40
0.0
 40
0.0
 40
0.1585173269300211
 40
0.2599203239142082
 40
0.3767455717754368
 40
0.5101743366316052
 40
0.657890351057701
 40
1.0
 40
1.0
 40
1.0
 40
1.0
 10
252.3368714475993
 20
25.78231834083511
 30
0.0
 10
252.3439340824799
 20
25.75226241554118
 30
0.0
 10
252.3523991625831
 20
25.7022992784558
 30
0.0
 10
252.3597508928887
 20
25.62930274819142
 30
0.0
 10
252.3655487786853
 20
25.56107309707789
 30
0.0
 10
252.3694926417921
 20
25.48367445584443
 30
0.0
 10
252.3734249622751
 20
25.36238149864967
 30
0.0
 10
252.3735363308441
 20
25.26699029942159
 30
0.0
 10
252.3740309027275
 20
25.20038725109153
 30
0.0
  0
SPLINE
  5
7A
330
1F
100
AcDbEntity
  8
0
  6
Continuous
 62
     7
370
    25
100
AcDbSpline
210
0.0
220
0.0
230
1.0
 70
     8
 71
     3
 72
    21
 73
    17
 74
     0
 42
0.00000001
 43
0.00000001
 40
0.0
 40
0.0
 40
0.0
 40
0.0
 40
0.1317255445271741
 40
0.1906683746814265
 40
0.2451968850948476
 40
0.2955087738855862
 40
0.3412437630224658
 40
0.3833864553034254
 40
0.4214402664762985
 40
0.492956384356707
 40
0.5628694745136158
 40
0.6330237453801784
 40
0.7044573558011064
 40
0.7765120161995835
 40
0.8488218595336068
 40
1.0
 40
1.0
 40
1.0
 40
1.0
 10
252.6881334668301
 20
25.30345215493768
 30
0.0
 10
252.6889134193651
 20
25.38413885812785
 30
0.0
 10
252.6850726744483
 20
25.5009298255694
 30
0.0
 10
252.6734399065988
 20
25.65065640262198
 30
0.0
 10
252.6628789418528
 20
25.75045459431779
 30
0.0
 10
252.647243369793
 20
25.84139418229425
 30
0.0
 10
252.6292132816939
 20
25.92411233611747
 30
0.0
 10
252.6079807364744
 20
25.99835907773041
 30
0.0
 10
252.5742551436767
 20
26.08504790815469
 30
0.0
 10
252.5230577778401
 20
26.18277081267983
 30
0.0
 10
252.4466944438262
 20
26.28810791152469
 30
0.0
 10
252.3543699438008
 20
26.37968190590656
 30
0.0
 10
252.249241383262
 20
26.45830281336048
 30
0.0
 10
252.1326269243717
 20
26.52146029663727
 30
0.0
 10
251.9620551241456
 20
26.58421210459694
 30
0.0
 10
251.8241789841321
 20
26.59921457848768
 30
0.0
 10
251.7318033386249
 20
26.59982635365565
 30
0.0
  0
SPLINE
  5
7B
330
1F
100
AcDbEntity
  8
0
  6
Continuous
 62
     7
370
    25
100
AcDbSpline
210
0.0
220
0.0
230
1.0
 70
     8
 71
     3
 72
    13
 73
     9
 74
     0
 42
0.00000001
 43
0.00000001
 40
0.0
 40
0.0
 40
0.0
 40
0.0
 40
0.2434110992594185
 40
0.3618899784752194
 40
0.4800702186075756
 40
0.601011686195775
 40
0.7264312190368046
 40
1.0
 40
1.0
 40
1.0
 40
1.0
 10
251.7318033386249
 20
26.59982635365565
 30
0.0
 10
251.6393536605115
 20
26.59935011318937
 30
0.0
 10
251.5013198665498
 20
26.58582238385565
 30
0.0
 10
251.3258179376646
 20
26.53423178457526
 30
0.0
 10
251.2001894547156
 20
26.48144054143808
 30
0.0
 10
251.0802169085914
 20
26.41130510205825
 30
0.0
 10
250.9228978695552
 20
26.29074428273947
 30
0.0
 10
250.8220030915643
 20
26.17582367965532
 30
0.0
 10
250.7586462873429
 20
26.0936164177582
 30
0.0
  0
SPLINE
  5
84
330
1F
100
AcDbEntity
  8
0
  6
Continuous
 62
     7
370
    25
100
AcDbSpline
210
0.0
220
0.0
230
1.0
 70
     8
 71
     3
 72
    13
 73
     9
 74
     0
 42
0.00000001
 43
0.00000001
 40
0.0
 40
0.0
 40
0.0
 40
0.0
 40
0.2598496298712539
 40
0.3866707319148509
 40
0.5150828775346947
 40
0.6425029490726826
 40
0.7624536797230972
 40
1.0
 40
1.0
 40
1.0
 40
1.0
 10
249.5232696847788
 20
27.09341609724536
 30
0.0
 10
249.5612656127438
 20
27.09349173653586
 30
0.0
 10
249.6186732742521
 20
27.1021855950746
 30
0.0
 10
249.6863723681613
 20
27.13698330007031
 30
0.0
 10
249.7309915559942
 20
27.17140909154747
 30
0.0
 10
249.7689408622386
 20
27.21188948629338
 30
0.0
 10
249.805100298126
 20
27.27384120645637
 30
0.0
 10
249.8164128898221
 20
27.32630441508843
 30
0.0
 10
249.8163385950351
 20
27.36124462288647
 30
0.0
  0
SPLINE
  5
85
330
1F
100
AcDbEntity
  8
0
  6
Continuous
 62
     7
370
    25
100
AcDbSpline
210
0.0
220
0.0
230
1.0
 70
     8
 71
     3
 72
    13
 73
     9
 74
     0
 42
0.00000001
 43
0.00000001
 40
0.0
 40
0.0
 40
0.0
 40
0.0
 40
0.2407702368354425
 40
0.3613679915788172
 40
0.4880203848743234
 40
0.6156588752209213
 40
0.7417159076830835
 40
1.0
 40
1.0
 40
1.0
 40
1.0
 10
249.8163385950351
 20
27.36124462288647
 30
0.0
 10
249.8165397498503
 20
27.39690205219258
 30
0.0
 10
249.8051727883612
 20
27.45020255060404
 30
0.0
 10
249.7691690104855
 20
27.51331009896307
 30
0.0
 10
249.730967008358
 20
27.55386966393214
 30
0.0
 10
249.6863788427224
 20
27.58831438326481
 30
0.0
 10
249.6186688595267
 20
27.62310544428126
 30
0.0
 10
249.5612679194099
 20
27.63180340380356
 30
0.0
 10
249.5232696847788
 20
27.63187763570696
 30
0.0
  0
SPLINE
  5
86
330
1F
100
AcDbEntity
  8
0
  6
Continuous
 62
     7
370
    25
100
AcDbSpline
210
0.0
220
0.0
230
1.0
 70
     8
 71
     3
 72
    13
 73
     9
 74
     0
 42
0.00000001
 43
0.00000001
 40
0.0
 40
0.0
 40
0.0
 40
0.0
 40
0.2551062187428466
 40
0.3818851554071034
 40
0.5102546066587019
 40
0.6365625239462811
 40
0.757850918666084
 40
1.0
 40
1.0
 40
1.0
 40
1.0
 10
249.5232696847788
 20
27.63187763570696
 30
0.0
 10
249.4858671440053
 20
27.63211422401768
 30
0.0
 10
249.4293661556684
 20
27.62269504295689
 30
0.0
 10
249.3622975367653
 20
27.58830114819477
 30
0.0
 10
249.3176525447858
 20
27.55409613897453
 30
0.0
 10
249.2802210121713
 20
27.5130598258978
 30
0.0
 10
249.2440892773545
 20
27.45027652103471
 30
0.0
 10
249.2328460977459
 20
27.39686407636255
 30
0.0
 10
249.2330052617018
 20
27.36124462288647
 30
0.0
  0
SPLINE
  5
87
330
1F
100
AcDbEntity
  8
0
  6
Continuous
 62
     7
370
    25
100
AcDbSpline
210
0.0
220
0.0
230
1.0
 70
     8
 71
     3
 72
    13
 73
     9
 74
     0
 42
0.00000001
 43
0.00000001
 40
0.0
 40
0.0
 40
0.0
 40
0.0
 40
0.2389149952220574
 40
0.3595568481745961
 40
0.486634766847336
 40
0.6157867870573872
 40
0.7433385965465394
 40
1.0
 40
1.0
 40
1.0
 40
1.0
 10
249.2330052617018
 20
27.36124462288647
 30
0.0
 10
249.2329714097586
 20
27.32634095903419
 30
0.0
 10
249.2441636790481
 20
27.27376902769329
 30
0.0
 10
249.2804466537484
 20
27.21213776139741
 30
0.0
 10
249.3176278725382
 20
27.17118247918637
 30
0.0
 10
249.3623040721947
 20
27.13699658851343
 30
0.0
 10
249.4293617745942
 20
27.10259600604781
 30
0.0
 10
249.4858694333895
 20
27.09318091146473
 30
0.0
 10
249.5232696847788
 20
27.09341609724536
 30
0.0
  0
SPLINE
  5
88
330
1F
100
AcDbEntity
  8
0
  6
Continuous
 62
     7
370
    25
100
AcDbSpline
210
0.0
220
0.0
230
1.0
 70
     8
 71
     3
 72
    13
 73
     9
 74
     0
 42
0.00000001
 43
0.00000001
 40
0.0
 40
0.0
 40
0.0
 40
0.0
 40
0.2618944458316544
 40
0.3852022807004848
 40
0.5047447481824054
 40
0.6239854458062233
 40
0.745346469102679
 40
1.0
 40
1.0
 40
1.0
 40
1.0
 10
248.3804411591377
 20
26.08169734724541
 30
0.0
 10
248.3185112046245
 20
26.16665521891304
 30
0.0
 10
248.2152418063722
 20
26.28372179434568
 30
0.0
 10
248.0533188055215
 20
26.40687593481861
 30
0.0
 10
247.9261822558537
 20
26.47856675114435
 30
0.0
 10
247.7915191806262
 20
26.53242838440284
 30
0.0
 10
247.5995214044534
 20
26.58640731876205
 30
0.0
 10
247.4477780733345
 20
26.59952738384086
 30
0.0
 10
247.3455853899069
 20
26.59982635365565
 30
0.0
  0
SPLINE
  5
89
330
1F
100
AcDbEntity
  8
0
  6
Continuous
 62
     7
370
    25
100
AcDbSpline
210
0.0
220
0.0
230
1.0
 70
     8
 71
     3
 72
    21
 73
    17
 74
     0
 42
0.00000001
 43
0.00000001
 40
0.0
 40
0.0
 40
0.0
 40
0.0
 40
0.1283692574311769
 40
0.190417708860092
 40
0.2519211667422389
 40
0.3132736507580476
 40
0.3750861342515197
 40
0.438389176770406
 40
0.5032092055629105
 40
0.5679667722557898
 40
0.630868101539027
 40
0.6919966438355534
 40
0.7524260650823844
 40
0.8130959072527861
 40
0.8739211900104884
 40
1.0
 40
1.0
 40
1.0
 40
1.0
 10
247.3455853899069
 20
26.59982635365565
 30
0.0
 10
247.2561721576161
 20
26.59902873199682
 30
0.0
 10
247.1231480366821
 20
26.58888532815462
 30
0.0
 10
246.9519354024097
 20
26.5482058437303
 30
0.0
 10
246.8303698222524
 20
26.50483157923444
 30
0.0
 10
246.7131064058052
 20
26.45116880480791
 30
0.0
 10
246.6018832307774
 20
26.38345447543134
 30
0.0
 10
246.4949744847804
 20
26.30504473459194
 30
0.0
 10
246.3950396640217
 20
26.21482431010547
 30
0.0
 10
246.302787473706
 20
26.11715304114304
 30
0.0
 10
246.2227675627476
 20
26.01238362307534
 30
0.0
 10
246.1548423037774
 20
25.90297971670319
 30
0.0
 10
246.0989899574523
 20
25.78863921890328
 30
0.0
 10
246.0554809903661
 20
25.66928395375456
 30
0.0
 10
246.0134851593567
 20
25.50155193741899
 30
0.0
 10
246.002753684464
 20
25.3709373867208
 30
0.0
 10
246.0022360309326
 20
25.28311962288643
 30
0.0
  0
SPLINE
  5
8A
330
1F
100
AcDbEntity
  8
0
  6
Continuous
 62
     7
370
    25
100
AcDbSpline
210
0.0
220
0.0
230
1.0
 70
     8
 71
     3
 72
    21
 73
    17
 74
     0
 42
0.00000001
 43
0.00000001
 40
0.0
 40
0.0
 40
0.0
 40
0.0
 40
0.1280988297755863
 40
0.1896694721890465
 40
0.2507063934632511
 40
0.311890666438603
 40
0.3732647830705283
 40
0.4358087922280679
 40
0.500424455805957
 40
0.5650608900029817
 40
0.6276710388631751
 40
0.6893315462593366
 40
0.7500699293139468
 40
0.8109958734420368
 40
0.8725665158555028
 40
1.0
 40
1.0
 40
1.0
 40
1.0
 10
246.0022360309326
 20
25.28311962288643
 30
0.0
 10
246.0024440231947
 20
25.19361326685798
 30
0.0
 10
246.01395095713
 20
25.06091761134965
 30
0.0
 10
246.0546275331749
 20
24.89021043046058
 30
0.0
 10
246.0975805782828
 20
24.76889616059841
 30
0.0
 10
246.1534122596341
 20
24.65316283372343
 30
0.0
 10
246.2201622077999
 20
24.54212057248872
 30
0.0
 10
246.30022434156
 20
24.43717502942622
 30
0.0
 10
246.3914561034665
 20
24.33877998108724
 30
0.0
 10
246.4905277021803
 20
24.24819219254881
 30
0.0
 10
246.5964003947338
 20
24.16895049582757
 30
0.0
 10
246.7074604330558
 20
24.10241239820598
 30
0.0
 10
246.8231328075325
 20
24.04682001100566
 30
0.0
 10
246.9444065184217
 20
24.00496243606698
 30
0.0
 10
247.1144731623015
 20
23.96410296397822
 30
0.0
 10
247.2467402731469
 20
23.95260855588732
 30
0.0
 10
247.3357696847788
 20
23.95239045621977
 30
0.0
  0
SPLINE
  5
8B
330
1F
100
AcDbEntity
  8
0
  6
Continuous
 62
     7
370
    25
100
AcDbSpline
210
0.0
220
0.0
230
1.0
 70
     8
 71
     3
 72
    13
 73
     9
 74
     0
 42
0.00000001
 43
0.00000001
 40
0.0
 40
0.0
 40
0.0
 40
0.0
 40
0.2518550583969853
 40
0.3726997642744652
 40
0.4928354033771648
 40
0.6137300878654817
 40
0.7379150246176973
 40
1.0
 40
1.0
 40
1.0
 40
1.0
 10
247.3357696847788
 20
23.95239045621977
 30
0.0
 10
247.4360058642666
 20
23.95158310576873
 30
0.0
 10
247.5844187211298
 20
23.96632065798976
 30
0.0
 10
247.7744715767631
 20
24.01574026370956
 30
0.0
 10
247.909398783502
 20
24.06686415169379
 30
0.0
 10
248.0380650624413
 20
24.13505526503168
 30
0.0
 10
248.2046926529308
 20
24.24968943247008
 30
0.0
 10
248.3132036038844
 20
24.36021890662066
 30
0.0
 10
248.3804411591377
 20
24.43967010365566
 30
0.0
  0
SPLINE
  5
92
330
1F
100
AcDbEntity
  8
0
  6
Continuous
 62
     7
370
    25
100
AcDbSpline
210
0.0
220
0.0
230
1.0
 70
     8
 71
     3
 72
    13
 73
     9
 74
     0
 42
0.00000001
 43
0.00000001
 40
0.0
 40
0.0
 40
0.0
 40
0.0
 40
0.2703816178319617
 40
0.3984601291783004
 40
0.5227503451014437
 40
0.6438255660090793
 40
0.7637452368382556
 40
1.0
 40
1.0
 40
1.0
 40
1.0
 10
257.2650565437531
 20
25.20880071262999
 30
0.0
 10
257.2634670790985
 20
25.29406035411341
 30
0.0
 10
257.256106045597
 20
25.42004269347253
 30
0.0
 10
257.2255045621717
 20
25.58239881192259
 30
0.0
 10
257.1944944291114
 20
25.69622516255754
 30
0.0
 10
257.1561176514423
 20
25.80510689635052
 30
0.0
 10
257.0925068834481
 20
25.94189291824112
 30
0.0
 10
257.032597843062
 20
26.03753208158843
 30
0.0
 10
256.986711191189
 20
26.09642090493769
 30
0.0
  0
SPLINE
  5
93
330
1F
100
AcDbEntity
  8
0
  6
Continuous
 62
     7
370
    25
100
AcDbSpline
210
0.0
220
0.0
230
1.0
 70
     8
 71
     3
 72
    13
 73
     9
 74
     0
 42
0.00000001
 43
0.00000001
 40
0.0
 40
0.0
 40
0.0
 40
0.0
 40
0.255257368140996
 40
0.3772478104725325
 40
0.4977415562850415
 40
0.6181201760750441
 40
0.7409671592206359
 40
1.0
 40
1.0
 40
1.0
 40
1.0
 10
256.9867111911891
 20
26.09642090493769
 30
0.0
 10
256.9253240474957
 20
26.17708101753691
 30
0.0
 10
256.8218811333575
 20
26.2867207079589
 30
0.0
 10
256.6636059575652
 20
26.40579149326017
 30
0.0
 10
256.5379364459895
 20
26.47700323996782
 30
0.0
 10
256.4040921004829
 20
26.53208887145719
 30
0.0
 10
256.2114990373308
 20
26.58537812161654
 30
0.0
 10
256.0595907766025
 20
26.60025832723722
 30
0.0
 10
255.9567632745223
 20
26.59982635365565
 30
0.0
  0
SPLINE
  5
94
330
1F
100
AcDbEntity
  8
0
  6
Continuous
 62
     7
370
    25
100
AcDbSpline
210
0.0
220
0.0
230
1.0
 70
     8
 71
     3
 72
    13
 73
     9
 74
     0
 42
0.00000001
 43
0.00000001
 40
0.0
 40
0.0
 40
0.0
 40
0.0
 40
0.2602406645595056
 40
0.3836752253642184
 40
0.5046599577622765
 40
0.6253567426858504
 40
0.7464106650135791
 40
1.0
 40
1.0
 40
1.0
 40
1.0
 10
255.9567632745223
 20
26.59982635365565
 30
0.0
 10
255.8573070634058
 20
26.59862777346922
 30
0.0
 10
255.7094312664299
 20
26.58759892260998
 30
0.0
 10
255.522885240459
 20
26.53510451972163
 30
0.0
 10
255.3925438057353
 20
26.48347199000545
 30
0.0
 10
255.2709667827038
 20
26.41543244464073
 30
0.0
 10
255.1163046307246
 20
26.30466991766556
 30
0.0
 10
255.0175366553182
 20
26.19878808229559
 30
0.0
 10
254.9569635950352
 20
26.12306353314287
 30
0.0
  0
SPLINE
  5
95
330
1F
100
AcDbEntity
  8
0
  6
Continuous
 62
     7
370
    25
100
AcDbSpline
210
0.0
220
0.0
230
1.0
 70
     8
 71
     3
 72
    13
 73
     9
 74
     0
 42
0.00000001
 43
0.00000001
 40
0.0
 40
0.0
 40
0.0
 40
0.0
 40
0.2534216680665266
 40
0.3767041167575432
 40
0.4994491585174913
 40
0.6225715734186964
 40
0.7462320999755214
 40
1.0
 40
1.0
 40
1.0
 40
1.0
 10
254.9569635950352
 20
26.12306353314287
 30
0.0
 10
254.9094123325405
 20
26.06157170931755
 30
0.0
 10
254.8442484998119
 20
25.96550243803708
 30
0.0
 10
254.7760757234554
 20
25.82799140180547
 30
0.0
 10
254.7344966217344
 20
25.72245115208738
 30
0.0
 10
254.7023491890077
 20
25.61356346027199
 30
0.0
 10
254.6707218094502
 20
25.46301974931275
 30
0.0
 10
254.6634457293941
 20
25.3468908891481
 30
0.0
 10
254.662492441189
 20
25.269097186989
 30
0.0
  0
SPLINE
  5
96
330
1F
100
AcDbEntity
  8
0
  6
Continuous
 62
     7
370
    25
100
AcDbSpline
210
0.0
220
0.0
230
1.0
 70
     8
 71
     3
 72
    21
 73
    17
 74
     0
 42
0.00000001
 43
0.00000001
 40
0.0
 40
0.0
 40
0.0
 40
0.0
 40
0.1210804245006118
 40
0.1800682782218559
 40
0.2391896643238556
 40
0.2987059533012314
 40
0.3588810785072301
 40
0.4203687292950606
 40
0.4834483096802261
 40
0.5465664849029384
 40
0.6086986022254206
 40
0.670186253013248
 40
0.7318650366033053
 40
0.7952033026033165
 40
0.8603707753071415
 40
1.0
 40
1.0
 40
1.0
 40
1.0
 10
254.662492441189
 20
25.269097186989
 30
0.0
 10
254.6634071684263
 20
25.18607454663901
 30
0.0
 10
254.6721867927255
 20
25.06222273965108
 30
0.0
 10
254.7082680769985
 20
24.90177559542161
 30
0.0
 10
254.7466434739123
 20
24.78591321993751
 30
0.0
 10
254.7942040537594
 20
24.6726422862259
 30
0.0
 10
254.8526593124586
 20
24.56267917002542
 30
0.0
 10
254.9225857316459
 20
24.45672326874593
 30
0.0
 10
255.001829450661
 20
24.35504126577326
 30
0.0
 10
255.0898536961847
 20
24.26002502245051
 30
0.0
 10
255.1886732409916
 20
24.17789202679021
 30
0.0
 10
255.2951739856879
 20
24.10793527834099
 30
0.0
 10
255.4099166641905
 20
24.05049765125278
 30
0.0
 10
255.5331267164146
 20
24.00657197746614
 30
0.0
 10
255.712358559446
 20
23.96342562216258
 30
0.0
 10
255.8532802547843
 20
23.95242933912123
 30
0.0
 10
255.9490509347787
 20
23.95239045621977
 30
0.0
  0
SPLINE
  5
97
330
1F
100
AcDbEntity
  8
0
  6
Continuous
 62
     7
370
    25
100
AcDbSpline
210
0.0
220
0.0
230
1.0
 70
     8
 71
     3
 72
    17
 73
    13
 74
     0
 42
0.00000001
 43
0.00000001
 40
0.0
 40
0.0
 40
0.0
 40
0.0
 40
0.1781058515637827
 40
0.2613277635121511
 40
0.3415565694705521
 40
0.4200079090126525
 40
0.4980968161626226
 40
0.5754001382821239
 40
0.6536452159657116
 40
0.7341257729573898
 40
0.8183392339289949
 40
1.0
 40
1.0
 40
1.0
 40
1.0
 10
255.9490509347787
 20
23.95239045621977
 30
0.0
 10
256.0353447265364
 20
23.95240161639423
 30
0.0
 10
256.1622212083067
 20
23.96105583742592
 30
0.0
 10
256.3246044808826
 20
23.99438153555322
 30
0.0
 10
256.4369031304245
 20
24.02875977033048
 30
0.0
 10
256.5427529468511
 20
24.07352046202793
 30
0.0
 10
256.6430422623666
 20
24.12663654405367
 30
0.0
 10
256.737772849378
 20
24.18897606102888
 30
0.0
 10
256.8274504554066
 20
24.26022301050401
 30
0.0
 10
256.9125234481482
 20
24.34196942868572
 30
0.0
 10
257.0194693322565
 20
24.47173158340654
 30
0.0
 10
257.0889403230165
 20
24.58072746912954
 30
0.0
 10
257.1304411591377
 20
24.65842010365571
 30
0.0
  0
SPLINE
  5
99
330
1F
100
AcDbEntity
  8
0
  6
Continuous
 62
     7
370
    25
100
AcDbSpline
210
0.0
220
0.0
230
1.0
 70
     8
 71
     3
 72
    17
 73
    13
 74
     0
 42
0.00000001
 43
0.00000001
 40
0.0
 40
0.0
 40
0.0
 40
0.0
 40
0.2079350339033564
 40
0.2946939715678991
 40
0.3697315241424307
 40
0.440830943802725
 40
0.5142509140460771
 40
0.5913900390896499
 40
0.6722743046458497
 40
0.7543412603705406
 40
0.8361211059014766
 40
1.0
 40
1.0
 40
1.0
 40
1.0
 10
256.8513946847787
 20
24.80495455878384
 30
0.0
 10
256.808869958776
 20
24.73840707488084
 30
0.0
 10
256.7417541891055
 20
24.64877660942932
 30
0.0
 10
256.6482564001051
 20
24.54395767780026
 30
0.0
 10
256.5822045602712
 20
24.48493635266713
 30
0.0
 10
256.5140829413833
 20
24.43672999489832
 30
0.0
 10
256.4412039973978
 20
24.39457885283558
 30
0.0
 10
256.3619580990671
 20
24.35647834035026
 30
0.0
 10
256.2763872873156
 20
24.32489310966379
 30
0.0
 10
256.1871265440522
 20
24.29903483287321
 30
0.0
 10
256.0652782505799
 20
24.27351525084698
 30
0.0
 10
255.9719820182058
 20
24.26619218957315
 30
0.0
 10
255.9097881142659
 20
24.26649302032235
 30
0.0
  0
SPLINE
  5
9A
330
1F
100
AcDbEntity
  8
0
  6
Continuous
 62
     7
370
    25
100
AcDbSpline
210
0.0
220
0.0
230
1.0
 70
     8
 71
     3
 72
    21
 73
    17
 74
     0
 42
0.00000001
 43
0.00000001
 40
0.0
 40
0.0
 40
0.0
 40
0.0
 40
0.1276691474530424
 40
0.1889505232706536
 40
0.2490548673082992
 40
0.3090713134763196
 40
0.3692223593686933
 40
0.4301747620269846
 40
0.4926019887960209
 40
0.555346876893578
 40
0.6169627615204942
 40
0.678170777192346
 40
0.73924652255152
 40
0.8016089422160485
 40
0.8655244124565523
 40
1.0
 40
1.0
 40
1.0
 40
1.0
 10
255.9097881142659
 20
24.26649302032235
 30
0.0
 10
255.8467769598818
 20
24.26614333601929
 30
0.0
 10
255.7536487089891
 20
24.27486230068077
 30
0.0
 10
255.6336666439167
 20
24.30192876066151
 30
0.0
 10
255.5488943688568
 20
24.33099983173859
 30
0.0
 10
255.4679964161836
 20
24.3681890939299
 30
0.0
 10
255.3911028139609
 20
24.41399216866957
 30
0.0
 10
255.318820084647
 20
24.46864463318532
 30
0.0
 10
255.2501129546743
 20
24.52970520515629
 30
0.0
 10
255.1883873758684
 20
24.59827239169976
 30
0.0
 10
255.1330473827504
 20
24.67131031694558
 30
0.0
 10
255.0866632863132
 20
24.74947232532399
 30
0.0
 10
255.0487903718055
 20
24.83240257236363
 30
0.0
 10
255.0175446068539
 20
24.9194851521114
 30
0.0
 10
254.9872640761809
 20
25.04469844335966
 30
0.0
 10
254.9783837297612
 20
25.14255470162119
 30
0.0
 10
254.9765950052916
 20
25.20880071262999
 30
0.0
  0
SPLINE
  5
A8
330
1F
100
AcDbEntity
  8
0
  6
Continuous
 62
     7
370
    25
100
AcDbSpline
210
0.0
220
0.0
230
1.0
 70
     8
 71
     3
 72
    13
 73
     9
 74
     0
 42
0.00000001
 43
0.00000001
 40
0.0
 40
0.0
 40
0.0
 40
0.0
 40
0.2620026798763646
 40
0.3865990120013839
 40
0.5078842295733161
 40
0.6287697964346921
 40
0.7494522178423595
 40
1.0
 40
1.0
 40
1.0
 40
1.0
 10
260.5406975693942
 20
24.46070375750187
 30
0.0
 10
260.6082388987015
 20
24.3805644813796
 30
0.0
 10
260.7172715063945
 20
24.26937911488169
 30
0.0
 10
260.8823345653855
 20
24.14987900816101
 30
0.0
 10
261.0104668968983
 20
24.07757701804869
 30
0.0
 10
261.1446684181319
 20
24.02095904937451
 30
0.0
 10
261.3349927975762
 20
23.96839373658732
 30
0.0
 10
261.483496592045
 20
23.95123054334014
 30
0.0
 10
261.5839668001635
 20
23.95239045621977
 30
0.0
  0
SPLINE
  5
A9
330
1F
100
AcDbEntity
  8
0
  6
Continuous
 62
     7
370
    25
100
AcDbSpline
210
0.0
220
0.0
230
1.0
 70
     8
 71
     3
 72
    21
 73
    17
 74
     0
 42
0.00000001
 43
0.00000001
 40
0.0
 40
0.0
 40
0.0
 40
0.0
 40
0.1277002390698747
 40
0.1892398000966456
 40
0.2501349882872971
 40
0.310842710086852
 40
0.372472090731707
 40
0.4350506334534636
 40
0.4996544386258899
 40
0.5642374836643663
 40
0.6267499200713567
 40
0.6882667786363572
 40
0.7494201652676098
 40
0.8104262745821135
 40
0.8719658356088787
 40
1.0
 40
1.0
 40
1.0
 40
1.0
 10
261.5839668001635
 20
23.95239045621977
 30
0.0
 10
261.67321441104
 20
23.95271317302761
 30
0.0
 10
261.8057432176773
 20
23.96401736529818
 30
0.0
 10
261.9760303445457
 20
24.00496815027076
 30
0.0
 10
262.0973049323026
 20
24.04681853205204
 30
0.0
 10
262.2129773789382
 20
24.10241265338786
 30
0.0
 10
262.3240362323934
 20
24.16895098825067
 30
0.0
 10
262.4299137261761
 20
24.24818989425814
 30
0.0
 10
262.5289667210534
 20
24.33878897567187
 30
0.0
 10
262.6202676101282
 20
24.43714193493796
 30
0.0
 10
262.7001549407151
 20
24.54233563388208
 30
0.0
 10
262.7678563549869
 20
24.65294199057666
 30
0.0
 10
262.8235094725528
 20
24.76892580179724
 30
0.0
 10
262.8665242765708
 20
24.89020246494689
 30
0.0
 10
262.9071786455035
 20
25.06092316836228
 30
0.0
 10
262.9186994582745
 20
25.19361037266288
 30
0.0
 10
262.9189026975993
 20
25.28311962288643
 30
0.0
  0
SPLINE
  5
AA
330
1F
100
AcDbEntity
  8
0
  6
Continuous
 62
     7
370
    25
100
AcDbSpline
210
0.0
220
0.0
230
1.0
 70
     8
 71
     3
 72
    21
 73
    17
 74
     0
 42
0.00000001
 43
0.00000001
 40
0.0
 40
0.0
 40
0.0
 40
0.0
 40
0.1260146004816713
 40
0.1868089060952329
 40
0.2474478502843892
 40
0.307846495991717
 40
0.3691210183050324
 40
0.4319903131536156
 40
0.4967149000659745
 40
0.5615019172671396
 40
0.6247727207665961
 40
0.6865537243536204
 40
0.7478749627318974
 40
0.8093470980883342
 40
0.8713639494369316
 40
1.0
 40
1.0
 40
1.0
 40
1.0
 10
262.9189026975993
 20
25.28311962288643
 30
0.0
 10
262.9183896228861
 20
25.37094024094277
 30
0.0
 10
262.9076447288461
 20
25.50154642676949
 30
0.0
 10
262.8656704947848
 20
25.66929190563694
 30
0.0
 10
262.8221011057915
 20
25.78860950658168
 30
0.0
 10
262.7664203905289
 20
25.90320203362451
 30
0.0
 10
262.6975513278916
 20
26.01216450449351
 30
0.0
 10
262.6177043582355
 20
26.11718682880992
 30
0.0
 10
262.5253832076038
 20
26.21481513553137
 30
0.0
 10
262.4254669687276
 20
26.30504710438042
 30
0.0
 10
262.3185533946337
 20
26.38345396205077
 30
0.0
 10
262.2073314134454
 20
26.45116858148477
 30
0.0
 10
262.0900678967151
 20
26.50483296832695
 30
0.0
 10
261.9685015383388
 20
26.54820047204587
 30
0.0
 10
261.7970674443314
 20
26.58896849264259
 30
0.0
 10
261.6637838257118
 20
26.59892823142229
 30
0.0
 10
261.5741510950352
 20
26.59982635365565
 30
0.0
  0
SPLINE
  5
AB
330
1F
100
AcDbEntity
  8
0
  6
Continuous
 62
     7
370
    25
100
AcDbSpline
210
0.0
220
0.0
230
1.0
 70
     8
 71
     3
 72
    13
 73
     9
 74
     0
 42
0.00000001
 43
0.00000001
 40
0.0
 40
0.0
 40
0.0
 40
0.0
 40
0.2538522779533839
 40
0.3748219688612686
 40
0.4942293474545227
 40
0.6139389177356217
 40
0.736955317238862
 40
1.0
 40
1.0
 40
1.0
 40
1.0
 10
261.5741510950352
 20
26.59982635365565
 30
0.0
 10
261.4724304314892
 20
26.59950490667762
 30
0.0
 10
261.3213527128486
 20
26.58645413776106
 30
0.0
 10
261.1301175527787
 20
26.5323049362588
 30
0.0
 10
260.9956843458186
 20
26.47854117913517
 30
0.0
 10
260.8685685754734
 20
26.40711161463516
 30
0.0
 10
260.7072904968507
 20
26.28294037385515
 30
0.0
 10
260.6028628047372
 20
26.16700679500217
 30
0.0
 10
260.5406975693942
 20
26.08169734724541
 30
0.0
  0
SPLINE
  5
B0
330
1F
100
AcDbEntity
  8
0
  6
Continuous
 62
     7
370
    25
100
AcDbSpline
210
0.0
220
0.0
230
1.0
 70
     8
 71
     3
 72
    21
 73
    17
 74
     0
 42
0.00000001
 43
0.00000001
 40
0.0
 40
0.0
 40
0.0
 40
0.0
 40
0.1231816483428002
 40
0.1830343363247268
 40
0.2428661924761439
 40
0.3025168847059427
 40
0.3633154622039138
 40
0.4250692989986412
 40
0.4890423674851742
 40
0.553087142275227
 40
0.6154454653923731
 40
0.6772864118409536
 40
0.739174987439565
 40
0.8016758129328341
 40
0.8653648077757379
 40
1.0
 40
1.0
 40
1.0
 40
1.0
 10
263.4573642360607
 20
25.269097186989
 30
0.0
 10
263.4568573286751
 20
25.18352976986193
 30
0.0
 10
263.468566675697
 20
25.05640887692906
 30
0.0
 10
263.5071982733961
 20
24.89202008678271
 30
0.0
 10
263.5479809029675
 20
24.77416126458465
 30
0.0
 10
263.6003522960285
 20
24.66027860474229
 30
0.0
 10
263.6642390155116
 20
24.55086850118015
 30
0.0
 10
263.7401130180577
 20
24.44571847803323
 30
0.0
 10
263.8261113483352
 20
24.34570846879025
 30
0.0
 10
263.9211833991413
 20
24.25357272733841
 30
0.0
 10
264.0243833258212
 20
24.17301186313647
 30
0.0
 10
264.134169714945
 20
24.10440278384607
 30
0.0
 10
264.2513149831875
 20
24.0490984737608
 30
0.0
 10
264.3745419790366
 20
24.0052680218793
 30
0.0
 10
264.5510604570422
 20
23.96330864149165
 30
0.0
 10
264.6890788120334
 20
23.95281254881909
 30
0.0
 10
264.7824844283684
 20
23.95239045621977
 30
0.0
  0
SPLINE
  5
B1
330
1F
100
AcDbEntity
  8
0
  6
Continuous
 62
     7
370
    25
100
AcDbSpline
210
0.0
220
0.0
230
1.0
 70
     8
 71
     3
 72
    21
 73
    17
 74
     0
 42
0.00000001
 43
0.00000001
 40
0.0
 40
0.0
 40
0.0
 40
0.0
 40
0.1341341587220424
 40
0.1979034644236247
 40
0.2604831025120542
 40
0.322145528691671
 40
0.3837784671889386
 40
0.446215423207863
 40
0.5103409574898141
 40
0.5743946950476086
 40
0.6362264024960824
 40
0.6971016460802506
 40
0.7568275569302938
 40
0.8167348601469018
 40
0.8766630214626719
 40
1.0
 40
1.0
 40
1.0
 40
1.0
 10
264.7824844283684
 20
23.95239045621977
 30
0.0
 10
264.8754344777549
 20
23.9527544217738
 30
0.0
 10
265.0129617745728
 20
23.96343130598189
 30
0.0
 10
265.1890169362729
 20
24.00528314505146
 30
0.0
 10
265.3120829627404
 20
24.04895461753087
 30
0.0
 10
265.4287266979595
 20
24.10440106453493
 30
0.0
 10
265.5378806344144
 20
24.17321990883081
 30
0.0
 10
265.6409967911752
 20
24.25354890963882
 30
0.0
 10
265.736048734464
 20
24.34571492238169
 30
0.0
 10
265.8220524559731
 20
24.44571681527985
 30
0.0
 10
265.8979250673721
 20
24.55086893275882
 30
0.0
 10
265.9618121482231
 20
24.66027849229224
 30
0.0
 10
266.0141834466778
 20
24.77416129456145
 30
0.0
 10
266.0549661014759
 20
24.89202007878099
 30
0.0
 10
266.0935976902063
 20
25.05640888243033
 30
0.0
 10
266.1053070427694
 20
25.18352976702076
 30
0.0
 10
266.1048001334966
 20
25.269097186989
 30
0.0
  0
SPLINE
  5
B2
330
1F
100
AcDbEntity
  8
0
  6
Continuous
 62
     7
370
    25
100
AcDbSpline
210
0.0
220
0.0
230
1.0
 70
     8
 71
     3
 72
    13
 73
     9
 74
     0
 42
0.00000001
 43
0.00000001
 40
0.0
 40
0.0
 40
0.0
 40
0.0
 40
0.2554352550956477
 40
0.3786322712675499
 40
0.5014663143321101
 40
0.6234943774777817
 40
0.746165637203275
 40
1.0
 40
1.0
 40
1.0
 40
1.0
 10
266.1048001334966
 20
25.269097186989
 30
0.0
 10
266.1043257447026
 20
25.35403403357384
 30
0.0
 10
266.0948419359776
 20
25.48027599650271
 30
0.0
 10
266.0576499533967
 20
25.64321529622205
 30
0.0
 10
266.0190077839471
 20
25.75959649764525
 30
0.0
 10
265.9699037091041
 20
25.87181500362323
 30
0.0
 10
265.8876643091158
 20
26.01617579436899
 30
0.0
 10
265.8112702457965
 20
26.11611423456062
 30
0.0
 10
265.7542392360607
 20
26.17845215493775
 30
0.0
  0
SPLINE
  5
B3
330
1F
100
AcDbEntity
  8
0
  6
Continuous
 62
     7
370
    25
100
AcDbSpline
210
0.0
220
0.0
230
1.0
 70
     8
 71
     3
 72
    13
 73
     9
 74
     0
 42
0.00000001
 43
0.00000001
 40
0.0
 40
0.0
 40
0.0
 40
0.0
 40
0.2531294102724398
 40
0.3753070134590596
 40
0.4961956083998793
 40
0.617866023907437
 40
0.7416676494858144
 40
1.0
 40
1.0
 40
1.0
 40
1.0
 10
265.7542392360607
 20
26.17845215493775
 30
0.0
 10
265.6920807520702
 20
26.24638876008911
 30
0.0
 10
265.5904654461297
 20
26.3391108851706
 30
0.0
 10
265.4381014484754
 20
26.43665721617916
 30
0.0
 10
265.3197218043458
 20
26.49738542907054
 30
0.0
 10
265.1939258907528
 20
26.54259134126957
 30
0.0
 10
265.0158007622986
 20
26.5872353124037
 30
0.0
 10
264.8765745896775
 20
26.60080099425322
 30
0.0
 10
264.7824844283684
 20
26.59982635365565
 30
0.0
  0
SPLINE
  5
B4
330
1F
100
AcDbEntity
  8
0
  6
Continuous
 62
     7
370
    25
100
AcDbSpline
210
0.0
220
0.0
230
1.0
 70
     8
 71
     3
 72
    13
 73
     9
 74
     0
 42
0.00000001
 43
0.00000001
 40
0.0
 40
0.0
 40
0.0
 40
0.0
 40
0.2587123826906848
 40
0.3820894432542115
 40
0.5035635736272535
 40
0.6251808674329538
 40
0.7472870144846054
 40
1.0
 40
1.0
 40
1.0
 40
1.0
 10
264.7824844283684
 20
26.59982635365565
 30
0.0
 10
264.6879171211447
 20
26.60068970937524
 30
0.0
 10
264.5482911573815
 20
26.58720428799122
 30
0.0
 10
264.3694425364706
 20
26.54285815905122
 30
0.0
 10
264.2437478553866
 20
26.4960865086149
 30
0.0
 10
264.1240665172535
 20
26.43655513401799
 30
0.0
 10
263.9720642906154
 20
26.33703472165017
 30
0.0
 10
263.8695438224248
 20
26.24519360723776
 30
0.0
 10
263.8079251334966
 20
26.17634878955311
 30
0.0
  0
SPLINE
  5
B5
330
1F
100
AcDbEntity
  8
0
  6
Continuous
 62
     7
370
    25
100
AcDbSpline
210
0.0
220
0.0
230
1.0
 70
     8
 71
     3
 72
    13
 73
     9
 74
     0
 42
0.00000001
 43
0.00000001
 40
0.0
 40
0.0
 40
0.0
 40
0.0
 40
0.2537592050616079
 40
0.3772863205702288
 40
0.4989121128148862
 40
0.6213214040214711
 40
0.7447622750750945
 40
1.0
 40
1.0
 40
1.0
 40
1.0
 10
263.8079251334966
 20
26.17634878955311
 30
0.0
 10
263.7515118336115
 20
26.11383789135835
 30
0.0
 10
263.6738133456697
 20
26.01472255511106
 30
0.0
 10
263.5926580711406
 20
25.86996960816212
 30
0.0
 10
263.5431097199051
 20
25.75823788300657
 30
0.0
 10
263.5044190040778
 20
25.64230718674598
 30
0.0
 10
263.4674061184531
 20
25.47979629818375
 30
0.0
 10
263.4578585028103
 20
25.3538039843223
 30
0.0
 10
263.4573642360607
 20
25.269097186989
 30
0.0
  0
SPLINE
  5
BB
330
1F
100
AcDbEntity
  8
0
  6
Continuous
 62
     7
370
    25
100
AcDbSpline
210
0.0
220
0.0
230
1.0
 70
     8
 71
     3
 72
    13
 73
     9
 74
     0
 42
0.00000001
 43
0.00000001
 40
0.0
 40
0.0
 40
0.0
 40
0.0
 40
0.2703816178319617
 40
0.3984601291783004
 40
0.5227503451014437
 40
0.6438255660090793
 40
0.7637452368382556
 40
1.0
 40
1.0
 40
1.0
 40
1.0
 10
271.5791591078558
 20
25.20880071262999
 30
0.0
 10
271.5775696432011
 20
25.29406035411341
 30
0.0
 10
271.5702086096996
 20
25.42004269347253
 30
0.0
 10
271.5396071262746
 20
25.58239881192259
 30
0.0
 10
271.5085969932142
 20
25.69622516255754
 30
0.0
 10
271.470220215545
 20
25.80510689635052
 30
0.0
 10
271.4066094475508
 20
25.94189291824123
 30
0.0
 10
271.3467004071646
 20
26.03753208158843
 30
0.0
 10
271.3008137552917
 20
26.09642090493769
 30
0.0
  0
SPLINE
  5
BC
330
1F
100
AcDbEntity
  8
0
  6
Continuous
 62
     7
370
    25
100
AcDbSpline
210
0.0
220
0.0
230
1.0
 70
     8
 71
     3
 72
    13
 73
     9
 74
     0
 42
0.00000001
 43
0.00000001
 40
0.0
 40
0.0
 40
0.0
 40
0.0
 40
0.255257368140996
 40
0.3772478104725325
 40
0.4977415562850415
 40
0.6181201760750441
 40
0.7409671592206359
 40
1.0
 40
1.0
 40
1.0
 40
1.0
 10
271.3008137552918
 20
26.09642090493769
 30
0.0
 10
271.2394266115984
 20
26.17708101753691
 30
0.0
 10
271.1359836974602
 20
26.2867207079589
 30
0.0
 10
270.9777085216679
 20
26.40579149326017
 30
0.0
 10
270.8520390100923
 20
26.47700323996782
 30
0.0
 10
270.7181946645856
 20
26.53208887145719
 30
0.0
 10
270.5256016014334
 20
26.58537812161654
 30
0.0
 10
270.3736933407052
 20
26.60025832723722
 30
0.0
 10
270.270865838625
 20
26.59982635365565
 30
0.0
  0
SPLINE
  5
BD
330
1F
100
AcDbEntity
  8
0
  6
Continuous
 62
     7
370
    25
100
AcDbSpline
210
0.0
220
0.0
230
1.0
 70
     8
 71
     3
 72
    13
 73
     9
 74
     0
 42
0.00000001
 43
0.00000001
 40
0.0
 40
0.0
 40
0.0
 40
0.0
 40
0.2602406645595056
 40
0.3836752253642184
 40
0.5046599577622765
 40
0.6253567426858504
 40
0.7464106650135791
 40
1.0
 40
1.0
 40
1.0
 40
1.0
 10
270.270865838625
 20
26.59982635365565
 30
0.0
 10
270.1714096275083
 20
26.59862777346922
 30
0.0
 10
270.0235338305327
 20
26.58759892260998
 30
0.0
 10
269.8369878045617
 20
26.53510451972163
 30
0.0
 10
269.7066463698381
 20
26.48347199000545
 30
0.0
 10
269.5850693468064
 20
26.41543244464073
 30
0.0
 10
269.4304071948275
 20
26.30466991766556
 30
0.0
 10
269.3316392194206
 20
26.19878808229559
 30
0.0
 10
269.2710661591379
 20
26.12306353314287
 30
0.0
  0
SPLINE
  5
BE
330
1F
100
AcDbEntity
  8
0
  6
Continuous
 62
     7
370
    25
100
AcDbSpline
210
0.0
220
0.0
230
1.0
 70
     8
 71
     3
 72
    13
 73
     9
 74
     0
 42
0.00000001
 43
0.00000001
 40
0.0
 40
0.0
 40
0.0
 40
0.0
 40
0.2534216680665266
 40
0.3767041167575432
 40
0.4994491585174913
 40
0.6225715734186964
 40
0.7462320999755214
 40
1.0
 40
1.0
 40
1.0
 40
1.0
 10
269.2710661591379
 20
26.12306353314287
 30
0.0
 10
269.223514896643
 20
26.06157170931755
 30
0.0
 10
269.1583510639148
 20
25.96550243803708
 30
0.0
 10
269.090178287558
 20
25.82799140180547
 30
0.0
 10
269.0485991858371
 20
25.72245115208738
 30
0.0
 10
269.0164517531103
 20
25.61356346027199
 30
0.0
 10
268.9848243735528
 20
25.46301974931275
 30
0.0
 10
268.9775482934967
 20
25.3468908891481
 30
0.0
 10
268.9765950052917
 20
25.269097186989
 30
0.0
  0
SPLINE
  5
BF
330
1F
100
AcDbEntity
  8
0
  6
Continuous
 62
     7
370
    25
100
AcDbSpline
210
0.0
220
0.0
230
1.0
 70
     8
 71
     3
 72
    21
 73
    17
 74
     0
 42
0.00000001
 43
0.00000001
 40
0.0
 40
0.0
 40
0.0
 40
0.0
 40
0.1210804245006118
 40
0.1800682782218559
 40
0.2391896643238556
 40
0.2987059533012314
 40
0.3588810785072301
 40
0.4203687292950606
 40
0.4834483096802261
 40
0.5465664849029384
 40
0.6086986022254206
 40
0.670186253013248
 40
0.7318650366033053
 40
0.7952033026033165
 40
0.8603707753071415
 40
1.0
 40
1.0
 40
1.0
 40
1.0
 10
268.9765950052917
 20
25.269097186989
 30
0.0
 10
268.9775097325292
 20
25.18607454663901
 30
0.0
 10
268.9862893568283
 20
25.06222273965108
 30
0.0
 10
269.0223706411012
 20
24.90177559542161
 30
0.0
 10
269.0607460380149
 20
24.78591321993751
 30
0.0
 10
269.108306617862
 20
24.6726422862259
 30
0.0
 10
269.1667618765613
 20
24.56267917002542
 30
0.0
 10
269.2366882957488
 20
24.45672326874593
 30
0.0
 10
269.3159320147636
 20
24.35504126577326
 30
0.0
 10
269.4039562602875
 20
24.26002502245051
 30
0.0
 10
269.5027758050944
 20
24.17789202679021
 30
0.0
 10
269.6092765497906
 20
24.10793527834099
 30
0.0
 10
269.7240192282932
 20
24.05049765125278
 30
0.0
 10
269.8472292805173
 20
24.00657197746614
 30
0.0
 10
270.0264611235485
 20
23.96342562216258
 30
0.0
 10
270.1673828188871
 20
23.95242933912123
 30
0.0
 10
270.2631534988814
 20
23.95239045621977
 30
0.0
  0
SPLINE
  5
C0
330
1F
100
AcDbEntity
  8
0
  6
Continuous
 62
     7
370
    25
100
AcDbSpline
210
0.0
220
0.0
230
1.0
 70
     8
 71
     3
 72
    17
 73
    13
 74
     0
 42
0.00000001
 43
0.00000001
 40
0.0
 40
0.0
 40
0.0
 40
0.0
 40
0.1781058515637827
 40
0.2613277635121511
 40
0.3415565694705521
 40
0.4200079090126525
 40
0.4980968161626226
 40
0.5754001382821239
 40
0.6536452159657116
 40
0.7341257729573898
 40
0.8183392339289949
 40
1.0
 40
1.0
 40
1.0
 40
1.0
 10
270.2631534988814
 20
23.95239045621977
 30
0.0
 10
270.3494472906393
 20
23.95240161639423
 30
0.0
 10
270.4763237724094
 20
23.96105583742592
 30
0.0
 10
270.6387070449852
 20
23.99438153555322
 30
0.0
 10
270.7510056945271
 20
24.02875977033048
 30
0.0
 10
270.8568555109539
 20
24.07352046202793
 30
0.0
 10
270.9571448264693
 20
24.12663654405367
 30
0.0
 10
271.0518754134808
 20
24.18897606102888
 30
0.0
 10
271.1415530195094
 20
24.26022301050401
 30
0.0
 10
271.226626012251
 20
24.34196942868572
 30
0.0
 10
271.3335718963591
 20
24.47173158340654
 30
0.0
 10
271.4030428871192
 20
24.58072746912954
 30
0.0
 10
271.4445437232403
 20
24.65842010365571
 30
0.0
  0
SPLINE
  5
C2
330
1F
100
AcDbEntity
  8
0
  6
Continuous
 62
     7
370
    25
100
AcDbSpline
210
0.0
220
0.0
230
1.0
 70
     8
 71
     3
 72
    17
 73
    13
 74
     0
 42
0.00000001
 43
0.00000001
 40
0.0
 40
0.0
 40
0.0
 40
0.0
 40
0.2079350339033564
 40
0.2946939715678991
 40
0.3697315241424307
 40
0.440830943802725
 40
0.5142509140460771
 40
0.5913900390896499
 40
0.6722743046458497
 40
0.7543412603705406
 40
0.8361211059014766
 40
1.0
 40
1.0
 40
1.0
 40
1.0
 10
271.1654972488814
 20
24.80495455878384
 30
0.0
 10
271.1229725228785
 20
24.73840707488084
 30
0.0
 10
271.0558567532087
 20
24.64877660942932
 30
0.0
 10
270.9623589642077
 20
24.54395767780026
 30
0.0
 10
270.8963071243741
 20
24.48493635266713
 30
0.0
 10
270.828185505486
 20
24.43672999489832
 30
0.0
 10
270.7553065615005
 20
24.39457885283558
 30
0.0
 10
270.6760606631698
 20
24.35647834035026
 30
0.0
 10
270.5904898514184
 20
24.32489310966379
 30
0.0
 10
270.501229108155
 20
24.29903483287321
 30
0.0
 10
270.3793808146825
 20
24.27351525084698
 30
0.0
 10
270.2860845823085
 20
24.26619218957315
 30
0.0
 10
270.2238906783686
 20
24.26649302032235
 30
0.0
  0
SPLINE
  5
C3
330
1F
100
AcDbEntity
  8
0
  6
Continuous
 62
     7
370
    25
100
AcDbSpline
210
0.0
220
0.0
230
1.0
 70
     8
 71
     3
 72
    21
 73
    17
 74
     0
 42
0.00000001
 43
0.00000001
 40
0.0
 40
0.0
 40
0.0
 40
0.0
 40
0.1276691474530424
 40
0.1889505232706536
 40
0.2490548673082992
 40
0.3090713134763196
 40
0.3692223593686933
 40
0.4301747620269846
 40
0.4926019887960209
 40
0.555346876893578
 40
0.6169627615204942
 40
0.678170777192346
 40
0.73924652255152
 40
0.8016089422160485
 40
0.8655244124565523
 40
1.0
 40
1.0
 40
1.0
 40
1.0
 10
270.2238906783686
 20
24.26649302032235
 30
0.0
 10
270.1608795239844
 20
24.2661433360194
 30
0.0
 10
270.0677512730919
 20
24.27486230068077
 30
0.0
 10
269.9477692080195
 20
24.30192876066151
 30
0.0
 10
269.8629969329596
 20
24.33099983173859
 30
0.0
 10
269.7820989802863
 20
24.3681890939299
 30
0.0
 10
269.7052053780635
 20
24.41399216866957
 30
0.0
 10
269.6329226487497
 20
24.46864463318532
 30
0.0
 10
269.564215518777
 20
24.52970520515629
 30
0.0
 10
269.5024899399709
 20
24.59827239169976
 30
0.0
 10
269.4471499468532
 20
24.67131031694558
 30
0.0
 10
269.4007658504161
 20
24.74947232532399
 30
0.0
 10
269.3628929359081
 20
24.83240257236363
 30
0.0
 10
269.3316471709567
 20
24.9194851521114
 30
0.0
 10
269.3013666402834
 20
25.04469844335966
 30
0.0
 10
269.2924862938643
 20
25.14255470162119
 30
0.0
 10
269.2906975693943
 20
25.20880071262999
 30
0.0
  0
SPLINE
  5
CF
330
1F
100
AcDbEntity
  8
0
  6
Continuous
 62
     7
370
    25
100
AcDbSpline
210
0.0
220
0.0
230
1.0
 70
     8
 71
     3
 72
    21
 73
    17
 74
     0
 42
0.00000001
 43
0.00000001
 40
0.0
 40
0.0
 40
0.0
 40
0.0
 40
0.177181814477931
 40
0.2504939574970168
 40
0.3165674539520691
 40
0.371665960620023
 40
0.4184906873983334
 40
0.455466020138326
 40
0.4833250523741678
 40
0.531454426319034
 40
0.5830124561895627
 40
0.6392239055171625
 40
0.7022806382731928
 40
0.770575709907952
 40
0.8412761191749953
 40
1.0
 40
1.0
 40
1.0
 40
1.0
 10
272.7030573450351
 20
26.90972218698895
 30
0.0
 10
272.7015795831769
 20
26.94364792784898
 30
0.0
 10
272.7048388275027
 20
26.9914924267215
 30
0.0
 10
272.7045860671612
 20
27.05209151034371
 30
0.0
 10
272.7073582698455
 20
27.08919455719683
 30
0.0
 10
272.7085842611725
 20
27.12135820453232
 30
0.0
 10
272.7129685215793
 20
27.14758230524428
 30
0.0
 10
272.7147587733901
 20
27.16893656854247
 30
0.0
 10
272.7207087496005
 20
27.18978756339929
 30
0.0
 10
272.7304636986188
 20
27.21230796811025
 30
0.0
 10
272.7484302663222
 20
27.23649317219623
 30
0.0
 10
272.773216313696
 20
27.25794833534345
 30
0.0
 10
272.8021675496656
 20
27.27930295810177
 30
0.0
 10
272.8370699336386
 20
27.29633040494783
 30
0.0
 10
272.8913117946168
 20
27.31442403051232
 30
0.0
 10
272.9358341778168
 20
27.31662472539542
 30
0.0
 10
272.9659780181121
 20
27.31777507160438
 30
0.0
  0
SPLINE
  5
D0
330
1F
100
AcDbEntity
  8
0
  6
Continuous
 62
     7
370
    25
100
AcDbSpline
210
0.0
220
0.0
230
1.0
 70
     8
 71
     3
 72
     9
 73
     5
 74
     0
 42
0.00000001
 43
0.00000001
 40
0.0
 40
0.0
 40
0.0
 40
0.0
 40
0.4469718272067376
 40
1.0
 40
1.0
 40
1.0
 40
1.0
 10
272.9659780181121
 20
27.31777507160438
 30
0.0
 10
273.0152508632042
 20
27.31758707566989
 30
0.0
 10
273.1244965776531
 20
27.30045547182336
 30
0.0
 10
273.2282412210261
 20
27.2626579006785
 30
0.0
 10
273.2842873129838
 20
27.23924943057876
 30
0.0
  0
SPLINE
  5
D2
330
1F
100
AcDbEntity
  8
0
  6
Continuous
 62
     7
370
    25
100
AcDbSpline
210
0.0
220
0.0
230
1.0
 70
     8
 71
     3
 72
     9
 73
     5
 74
     0
 42
0.00000001
 43
0.00000001
 40
0.0
 40
0.0
 40
0.0
 40
0.0
 40
0.5461371453787061
 40
1.0
 40
1.0
 40
1.0
 40
1.0
 10
273.2842873129838
 20
27.56597218698897
 30
0.0
 10
273.2161274720896
 20
27.58527632707997
 30
0.0
 10
273.0902457764185
 20
27.61912414274681
 30
0.0
 10
272.9604288363882
 20
27.63119409481751
 30
0.0
 10
272.9014748129838
 20
27.63187763570696
 30
0.0
  0
SPLINE
  5
D3
330
1F
100
AcDbEntity
  8
0
  6
Continuous
 62
     7
370
    25
100
AcDbSpline
210
0.0
220
0.0
230
1.0
 70
     8
 71
     3
 72
    21
 73
    17
 74
     0
 42
0.00000001
 43
0.00000001
 40
0.0
 40
0.0
 40
0.0
 40
0.0
 40
0.1646104484879524
 40
0.2403548858244436
 40
0.3136978695808184
 40
0.3839383823375313
 40
0.4510833284886485
 40
0.5168266720448291
 40
0.5830951868686798
 40
0.6183697864378587
 40
0.658495645760589
 40
0.7033577203112111
 40
0.7520840367088759
 40
0.8070521683517491
 40
0.8661435665398587
 40
1.0
 40
1.0
 40
1.0
 40
1.0
 10
272.9014748129838
 20
27.63187763570696
 30
0.0
 10
272.8481636902274
 20
27.63096777860019
 30
0.0
 10
272.7694540157385
 20
27.62450013769924
 30
0.0
 10
272.6722008380846
 20
27.59251708343746
 30
0.0
 10
272.6084883995981
 20
27.56011994584295
 30
0.0
 10
272.5518792964443
 20
27.52110797318041
 30
0.0
 10
272.5044864834528
 20
27.47480418867776
 30
0.0
 10
272.4649562423145
 20
27.42317998646371
 30
0.0
 10
272.4405340153226
 20
27.3743300363215
 30
0.0
 10
272.4241854661241
 20
27.33122736740057
 30
0.0
 10
272.4151739283851
 20
27.29314561576201
 30
0.0
 10
272.4056385065145
 20
27.25075271142497
 30
0.0
 10
272.3989736215005
 20
27.20290666617131
 30
0.0
 10
272.3932198962326
 20
27.150317605377
 30
0.0
 10
272.3891084643675
 20
27.06984814814006
 30
0.0
 10
272.3860009406998
 20
27.00723714361974
 30
0.0
 10
272.3868514155479
 20
26.96370856519415
 30
0.0
  0
SPLINE
  5
EB
330
1F
100
AcDbEntity
  8
0
  6
Continuous
 62
     7
370
    25
100
AcDbSpline
210
0.0
220
0.0
230
1.0
 70
     8
 71
     3
 72
    13
 73
     9
 74
     0
 42
0.00000001
 43
0.00000001
 40
0.0
 40
0.0
 40
0.0
 40
0.0
 40
0.2598496298712539
 40
0.3866707319148509
 40
0.5150828775346947
 40
0.6425029490726826
 40
0.7624536797230972
 40
1.0
 40
1.0
 40
1.0
 40
1.0
 10
280.1258337873428
 20
27.09341609724536
 30
0.0
 10
280.1638297153079
 20
27.09349173653586
 30
0.0
 10
280.2212373768161
 20
27.1021855950746
 30
0.0
 10
280.2889364707253
 20
27.13698330007031
 30
0.0
 10
280.3335556585583
 20
27.17140909154747
 30
0.0
 10
280.3715049648025
 20
27.21188948629338
 30
0.0
 10
280.4076644006902
 20
27.27384120645637
 30
0.0
 10
280.4189769923858
 20
27.32630441508843
 30
0.0
 10
280.4189026975992
 20
27.36124462288647
 30
0.0
  0
SPLINE
  5
EC
330
1F
100
AcDbEntity
  8
0
  6
Continuous
 62
     7
370
    25
100
AcDbSpline
210
0.0
220
0.0
230
1.0
 70
     8
 71
     3
 72
    13
 73
     9
 74
     0
 42
0.00000001
 43
0.00000001
 40
0.0
 40
0.0
 40
0.0
 40
0.0
 40
0.2407702368354425
 40
0.3613679915788172
 40
0.4880203848743234
 40
0.6156588752209213
 40
0.7417159076830835
 40
1.0
 40
1.0
 40
1.0
 40
1.0
 10
280.4189026975992
 20
27.36124462288647
 30
0.0
 10
280.4191038524143
 20
27.39690205219258
 30
0.0
 10
280.4077368909254
 20
27.45020255060404
 30
0.0
 10
280.3717331130495
 20
27.51331009896307
 30
0.0
 10
280.333531110922
 20
27.55386966393214
 30
0.0
 10
280.2889429452864
 20
27.58831438326481
 30
0.0
 10
280.2212329620907
 20
27.62310544428126
 30
0.0
 10
280.1638320219739
 20
27.63180340380356
 30
0.0
 10
280.1258337873428
 20
27.63187763570696
 30
0.0
  0
SPLINE
  5
ED
330
1F
100
AcDbEntity
  8
0
  6
Continuous
 62
     7
370
    25
100
AcDbSpline
210
0.0
220
0.0
230
1.0
 70
     8
 71
     3
 72
    13
 73
     9
 74
     0
 42
0.00000001
 43
0.00000001
 40
0.0
 40
0.0
 40
0.0
 40
0.0
 40
0.2551062187428466
 40
0.3818851554071034
 40
0.5102546066587019
 40
0.6365625239462811
 40
0.757850918666084
 40
1.0
 40
1.0
 40
1.0
 40
1.0
 10
280.1258337873428
 20
27.63187763570696
 30
0.0
 10
280.0884312465694
 20
27.63211422401768
 30
0.0
 10
280.0319302582323
 20
27.62269504295678
 30
0.0
 10
279.9648616393293
 20
27.58830114819477
 30
0.0
 10
279.9202166473498
 20
27.55409613897453
 30
0.0
 10
279.8827851147353
 20
27.5130598258978
 30
0.0
 10
279.8466533799186
 20
27.45027652103471
 30
0.0
 10
279.8354102003098
 20
27.39686407636255
 30
0.0
 10
279.8355693642658
 20
27.36124462288647
 30
0.0
  0
SPLINE
  5
EE
330
1F
100
AcDbEntity
  8
0
  6
Continuous
 62
     7
370
    25
100
AcDbSpline
210
0.0
220
0.0
230
1.0
 70
     8
 71
     3
 72
    13
 73
     9
 74
     0
 42
0.00000001
 43
0.00000001
 40
0.0
 40
0.0
 40
0.0
 40
0.0
 40
0.2389149952220574
 40
0.3595568481745961
 40
0.486634766847336
 40
0.6157867870573872
 40
0.7433385965465394
 40
1.0
 40
1.0
 40
1.0
 40
1.0
 10
279.8355693642658
 20
27.36124462288647
 30
0.0
 10
279.8355355123226
 20
27.32634095903419
 30
0.0
 10
279.8467277816122
 20
27.27376902769329
 30
0.0
 10
279.8830107563124
 20
27.21213776139741
 30
0.0
 10
279.9201919751022
 20
27.17118247918637
 30
0.0
 10
279.9648681747587
 20
27.13699658851343
 30
0.0
 10
280.0319258771583
 20
27.10259600604781
 30
0.0
 10
280.0884335359535
 20
27.09318091146473
 30
0.0
 10
280.1258337873428
 20
27.09341609724536
 30
0.0
  0
SPLINE
  5
EF
330
1F
100
AcDbEntity
  8
0
  6
Continuous
 62
     7
370
    25
100
AcDbSpline
210
0.0
220
0.0
230
1.0
 70
     8
 71
     3
 72
    13
 73
     9
 74
     0
 42
0.00000001
 43
0.00000001
 40
0.0
 40
0.0
 40
0.0
 40
0.0
 40
0.261488929626658
 40
0.3852472367599549
 40
0.5058984871003219
 40
0.6257895628173398
 40
0.7470150281421295
 40
1.0
 40
1.0
 40
1.0
 40
1.0
 10
278.9830052617019
 20
26.05996257160437
 30
0.0
 10
278.9196713261795
 20
26.14449965471621
 30
0.0
 10
278.817662628762
 20
26.26441278894131
 30
0.0
 10
278.6554122834575
 20
26.39040505475288
 30
0.0
 10
278.529047238314
 20
26.46723791755235
 30
0.0
 10
278.3945491185781
 20
26.52626969252914
 30
0.0
 10
278.202710558677
 20
26.58494855842719
 30
0.0
 10
278.0504674632891
 20
26.59957844226046
 30
0.0
 10
277.9481494924711
 20
26.59982635365565
 30
0.0
  0
SPLINE
  5
F0
330
1F
100
AcDbEntity
  8
0
  6
Continuous
 62
     7
370
    25
100
AcDbSpline
210
0.0
220
0.0
230
1.0
 70
     8
 71
     3
 72
    21
 73
    17
 74
     0
 42
0.00000001
 43
0.00000001
 40
0.0
 40
0.0
 40
0.0
 40
0.0
 40
0.1283692574311769
 40
0.190417708860092
 40
0.2519211667422389
 40
0.3132736507580476
 40
0.3750861342515197
 40
0.438389176770406
 40
0.5032092055629105
 40
0.5679667722557898
 40
0.630868101539027
 40
0.6919966438355534
 40
0.7524260650823844
 40
0.8130959072527861
 40
0.8739211900104884
 40
1.0
 40
1.0
 40
1.0
 40
1.0
 10
277.9481494924711
 20
26.59982635365565
 30
0.0
 10
277.8587362601804
 20
26.59902873199682
 30
0.0
 10
277.7257121392462
 20
26.58888532815462
 30
0.0
 10
277.554499504974
 20
26.5482058437303
 30
0.0
 10
277.4329339248166
 20
26.50483157923444
 30
0.0
 10
277.3156705083694
 20
26.45116880480791
 30
0.0
 10
277.2044473333417
 20
26.38345447543134
 30
0.0
 10
277.0975385873446
 20
26.30504473459205
 30
0.0
 10
276.997603766586
 20
26.21482431010547
 30
0.0
 10
276.90535157627
 20
26.11715304114304
 30
0.0
 10
276.8253316653118
 20
26.01238362307534
 30
0.0
 10
276.7574064063416
 20
25.90297971670319
 30
0.0
 10
276.7015540600164
 20
25.78863921890328
 30
0.0
 10
276.6580450929305
 20
25.66928395375456
 30
0.0
 10
276.616049261921
 20
25.50155193741899
 30
0.0
 10
276.6053177870282
 20
25.3709373867208
 30
0.0
 10
276.6048001334968
 20
25.28311962288643
 30
0.0
  0
SPLINE
  5
F1
330
1F
100
AcDbEntity
  8
0
  6
Continuous
 62
     7
370
    25
100
AcDbSpline
210
0.0
220
0.0
230
1.0
 70
     8
 71
     3
 72
    21
 73
    17
 74
     0
 42
0.00000001
 43
0.00000001
 40
0.0
 40
0.0
 40
0.0
 40
0.0
 40
0.1280988297755863
 40
0.1896694721890465
 40
0.2507063934632511
 40
0.311890666438603
 40
0.3732647830705283
 40
0.4358087922280679
 40
0.500424455805957
 40
0.5650608900029817
 40
0.6276710388631751
 40
0.6893315462593366
 40
0.7500699293139468
 40
0.8109958734420368
 40
0.8725665158555028
 40
1.0
 40
1.0
 40
1.0
 40
1.0
 10
276.6048001334968
 20
25.28311962288643
 30
0.0
 10
276.6050081257591
 20
25.19361326685798
 30
0.0
 10
276.6165150596941
 20
25.06091761134965
 30
0.0
 10
276.6571916357392
 20
24.89021043046058
 30
0.0
 10
276.7001446808469
 20
24.76889616059841
 30
0.0
 10
276.7559763621983
 20
24.65316283372343
 30
0.0
 10
276.822726310364
 20
24.54212057248872
 30
0.0
 10
276.9027884441242
 20
24.43717502942622
 30
0.0
 10
276.9940202060308
 20
24.33877998108724
 30
0.0
 10
277.0930918047444
 20
24.24819219254881
 30
0.0
 10
277.1989644972982
 20
24.16895049582757
 30
0.0
 10
277.3100245356199
 20
24.10241239820598
 30
0.0
 10
277.4256969100968
 20
24.04682001100566
 30
0.0
 10
277.5469706209859
 20
24.00496243606698
 30
0.0
 10
277.7170372648658
 20
23.96410296397833
 30
0.0
 10
277.849304375711
 20
23.95260855588732
 30
0.0
 10
277.938333787343
 20
23.95239045621977
 30
0.0
  0
SPLINE
  5
F2
330
1F
100
AcDbEntity
  8
0
  6
Continuous
 62
     7
370
    25
100
AcDbSpline
210
0.0
220
0.0
230
1.0
 70
     8
 71
     3
 72
    13
 73
     9
 74
     0
 42
0.00000001
 43
0.00000001
 40
0.0
 40
0.0
 40
0.0
 40
0.0
 40
0.2518550583969853
 40
0.3726997642744652
 40
0.4928354033771648
 40
0.6137300878654817
 40
0.7379150246176973
 40
1.0
 40
1.0
 40
1.0
 40
1.0
 10
277.938333787343
 20
23.95239045621977
 30
0.0
 10
278.0385699668309
 20
23.95158310576873
 30
0.0
 10
278.1869828236939
 20
23.96632065798976
 30
0.0
 10
278.3770356793274
 20
24.01574026370956
 30
0.0
 10
278.5119628860663
 20
24.06686415169379
 30
0.0
 10
278.6406291650056
 20
24.13505526503168
 30
0.0
 10
278.8072567554948
 20
24.24968943247008
 30
0.0
 10
278.915767706449
 20
24.36021890662066
 30
0.0
 10
278.9830052617019
 20
24.43967010365566
 30
0.0
  0
SPLINE
  5
F8
330
1F
100
AcDbEntity
  8
0
  6
Continuous
 62
     7
370
    25
100
AcDbSpline
210
0.0
220
0.0
230
1.0
 70
     8
 71
     3
 72
    13
 73
     9
 74
     0
 42
0.00000001
 43
0.00000001
 40
0.0
 40
0.0
 40
0.0
 40
0.0
 40
0.2598496298712539
 40
0.3866707319148509
 40
0.5150828775346947
 40
0.6425029490726826
 40
0.7624536797230972
 40
1.0
 40
1.0
 40
1.0
 40
1.0
 10
283.8053209668301
 20
27.09341609724536
 30
0.0
 10
283.8433168947951
 20
27.09349173653586
 30
0.0
 10
283.9007245563035
 20
27.1021855950746
 30
0.0
 10
283.9684236502125
 20
27.13698330007031
 30
0.0
 10
284.0130428380456
 20
27.17140909154747
 30
0.0
 10
284.0509921442898
 20
27.21188948629338
 30
0.0
 10
284.0871515801775
 20
27.27384120645637
 30
0.0
 10
284.0984641718731
 20
27.32630441508843
 30
0.0
 10
284.0983898770864
 20
27.36124462288647
 30
0.0
  0
SPLINE
  5
F9
330
1F
100
AcDbEntity
  8
0
  6
Continuous
 62
     7
370
    25
100
AcDbSpline
210
0.0
220
0.0
230
1.0
 70
     8
 71
     3
 72
    13
 73
     9
 74
     0
 42
0.00000001
 43
0.00000001
 40
0.0
 40
0.0
 40
0.0
 40
0.0
 40
0.2407702368354425
 40
0.3613679915788172
 40
0.4880203848743234
 40
0.6156588752209213
 40
0.7417159076830835
 40
1.0
 40
1.0
 40
1.0
 40
1.0
 10
284.0983898770864
 20
27.36124462288647
 30
0.0
 10
284.0985910319017
 20
27.39690205219258
 30
0.0
 10
284.0872240704123
 20
27.45020255060404
 30
0.0
 10
284.0512202925369
 20
27.51331009896307
 30
0.0
 10
284.0130182904093
 20
27.55386966393214
 30
0.0
 10
283.9684301247736
 20
27.58831438326481
 30
0.0
 10
283.9007201415779
 20
27.62310544428126
 30
0.0
 10
283.843319201461
 20
27.63180340380356
 30
0.0
 10
283.8053209668301
 20
27.63187763570696
 30
0.0
  0
SPLINE
  5
FA
330
1F
100
AcDbEntity
  8
0
  6
Continuous
 62
     7
370
    25
100
AcDbSpline
210
0.0
220
0.0
230
1.0
 70
     8
 71
     3
 72
    13
 73
     9
 74
     0
 42
0.00000001
 43
0.00000001
 40
0.0
 40
0.0
 40
0.0
 40
0.0
 40
0.2551062187428466
 40
0.3818851554071034
 40
0.5102546066587019
 40
0.6365625239462811
 40
0.757850918666084
 40
1.0
 40
1.0
 40
1.0
 40
1.0
 10
283.8053209668301
 20
27.63187763570696
 30
0.0
 10
283.7679184260566
 20
27.63211422401768
 30
0.0
 10
283.7114174377198
 20
27.62269504295678
 30
0.0
 10
283.6443488188165
 20
27.58830114819477
 30
0.0
 10
283.5997038268372
 20
27.55409613897453
 30
0.0
 10
283.5622722942227
 20
27.5130598258978
 30
0.0
 10
283.5261405594057
 20
27.45027652103471
 30
0.0
 10
283.5148973797974
 20
27.39686407636266
 30
0.0
 10
283.5150565437531
 20
27.36124462288647
 30
0.0
  0
SPLINE
  5
FB
330
1F
100
AcDbEntity
  8
0
  6
Continuous
 62
     7
370
    25
100
AcDbSpline
210
0.0
220
0.0
230
1.0
 70
     8
 71
     3
 72
    13
 73
     9
 74
     0
 42
0.00000001
 43
0.00000001
 40
0.0
 40
0.0
 40
0.0
 40
0.0
 40
0.2389149952220574
 40
0.3595568481745961
 40
0.486634766847336
 40
0.6157867870573872
 40
0.7433385965465394
 40
1.0
 40
1.0
 40
1.0
 40
1.0
 10
283.5150565437531
 20
27.36124462288647
 30
0.0
 10
283.5150226918099
 20
27.32634095903419
 30
0.0
 10
283.5262149610994
 20
27.27376902769329
 30
0.0
 10
283.5624979357998
 20
27.21213776139741
 30
0.0
 10
283.5996791545895
 20
27.17118247918637
 30
0.0
 10
283.644355354246
 20
27.13699658851343
 30
0.0
 10
283.7114130566454
 20
27.10259600604781
 30
0.0
 10
283.767920715441
 20
27.09318091146473
 30
0.0
 10
283.8053209668301
 20
27.09341609724536
 30
0.0
  0
SPLINE
  5
100
330
1F
100
AcDbEntity
  8
0
  6
Continuous
 62
     7
370
    25
100
AcDbSpline
210
0.0
220
0.0
230
1.0
 70
     8
 71
     3
 72
    13
 73
     9
 74
     0
 42
0.00000001
 43
0.00000001
 40
0.0
 40
0.0
 40
0.0
 40
0.0
 40
0.2614889296266582
 40
0.385247236759955
 40
0.505898487100322
 40
0.62578956281734
 40
0.7470150281421291
 40
1.0
 40
1.0
 40
1.0
 40
1.0
 10
287.0150565437534
 20
26.05996257160437
 30
0.0
 10
286.9517226082309
 20
26.14449965471621
 30
0.0
 10
286.849713910813
 20
26.26441278894131
 30
0.0
 10
286.6874635655089
 20
26.39040505475288
 30
0.0
 10
286.5610985203651
 20
26.46723791755235
 30
0.0
 10
286.4266004006294
 20
26.52626969252914
 30
0.0
 10
286.2347618407285
 20
26.58494855842719
 30
0.0
 10
286.0825187453401
 20
26.59957844226046
 30
0.0
 10
285.9802007745225
 20
26.59982635365565
 30
0.0
  0
SPLINE
  5
101
330
1F
100
AcDbEntity
  8
0
  6
Continuous
 62
     7
370
    25
100
AcDbSpline
210
0.0
220
0.0
230
1.0
 70
     8
 71
     3
 72
    21
 73
    17
 74
     0
 42
0.00000001
 43
0.00000001
 40
0.0
 40
0.0
 40
0.0
 40
0.0
 40
0.1283692574311769
 40
0.190417708860092
 40
0.2519211667422389
 40
0.3132736507580476
 40
0.3750861342515197
 40
0.438389176770406
 40
0.5032092055629105
 40
0.5679667722557898
 40
0.630868101539027
 40
0.6919966438355534
 40
0.7524260650823844
 40
0.8130959072527861
 40
0.8739211900104884
 40
1.0
 40
1.0
 40
1.0
 40
1.0
 10
285.9802007745225
 20
26.59982635365565
 30
0.0
 10
285.8907875422317
 20
26.59902873199682
 30
0.0
 10
285.7577634212977
 20
26.58888532815462
 30
0.0
 10
285.5865507870252
 20
26.5482058437303
 30
0.0
 10
285.4649852068679
 20
26.50483157923444
 30
0.0
 10
285.3477217904209
 20
26.45116880480791
 30
0.0
 10
285.236498615393
 20
26.38345447543134
 30
0.0
 10
285.1295898693958
 20
26.30504473459194
 30
0.0
 10
285.0296550486372
 20
26.21482431010547
 30
0.0
 10
284.9374028583215
 20
26.11715304114304
 30
0.0
 10
284.8573829473631
 20
26.01238362307534
 30
0.0
 10
284.789457688393
 20
25.90297971670319
 30
0.0
 10
284.7336053420676
 20
25.78863921890328
 30
0.0
 10
284.6900963749816
 20
25.66928395375456
 30
0.0
 10
284.6481005439724
 20
25.50155193741899
 30
0.0
 10
284.6373690690793
 20
25.3709373867208
 30
0.0
 10
284.6368514155482
 20
25.28311962288643
 30
0.0
  0
SPLINE
  5
102
330
1F
100
AcDbEntity
  8
0
  6
Continuous
 62
     7
370
    25
100
AcDbSpline
210
0.0
220
0.0
230
1.0
 70
     8
 71
     3
 72
    21
 73
    17
 74
     0
 42
0.00000001
 43
0.00000001
 40
0.0
 40
0.0
 40
0.0
 40
0.0
 40
0.1280988297755863
 40
0.1896694721890465
 40
0.2507063934632511
 40
0.311890666438603
 40
0.3732647830705283
 40
0.4358087922280679
 40
0.500424455805957
 40
0.5650608900029817
 40
0.6276710388631751
 40
0.6893315462593366
 40
0.7500699293139468
 40
0.8109958734420368
 40
0.8725665158555028
 40
1.0
 40
1.0
 40
1.0
 40
1.0
 10
284.6368514155482
 20
25.28311962288643
 30
0.0
 10
284.6370594078103
 20
25.19361326685798
 30
0.0
 10
284.6485663417455
 20
25.06091761134965
 30
0.0
 10
284.6892429177904
 20
24.89021043046058
 30
0.0
 10
284.7321959628982
 20
24.76889616059841
 30
0.0
 10
284.7880276442497
 20
24.65316283372343
 30
0.0
 10
284.8547775924153
 20
24.54212057248872
 30
0.0
 10
284.9348397261756
 20
24.43717502942622
 30
0.0
 10
285.0260714880819
 20
24.33877998108724
 30
0.0
 10
285.1251430867957
 20
24.24819219254881
 30
0.0
 10
285.2310157793495
 20
24.16895049582757
 30
0.0
 10
285.3420758176712
 20
24.10241239820598
 30
0.0
 10
285.4577481921483
 20
24.04682001100566
 30
0.0
 10
285.5790219030372
 20
24.00496243606698
 30
0.0
 10
285.7490885469172
 20
23.96410296397822
 30
0.0
 10
285.8813556577623
 20
23.95260855588732
 30
0.0
 10
285.9703850693943
 20
23.95239045621977
 30
0.0
  0
SPLINE
  5
103
330
1F
100
AcDbEntity
  8
0
  6
Continuous
 62
     7
370
    25
100
AcDbSpline
210
0.0
220
0.0
230
1.0
 70
     8
 71
     3
 72
    13
 73
     9
 74
     0
 42
0.00000001
 43
0.00000001
 40
0.0
 40
0.0
 40
0.0
 40
0.0
 40
0.2518550583969853
 40
0.3726997642744652
 40
0.4928354033771648
 40
0.6137300878654817
 40
0.7379150246176973
 40
1.0
 40
1.0
 40
1.0
 40
1.0
 10
285.9703850693943
 20
23.95239045621977
 30
0.0
 10
286.0706212488819
 20
23.95158310576873
 30
0.0
 10
286.2190341057455
 20
23.96632065798976
 30
0.0
 10
286.4090869613786
 20
24.01574026370956
 30
0.0
 10
286.5440141681177
 20
24.06686415169379
 30
0.0
 10
286.672680447057
 20
24.13505526503168
 30
0.0
 10
286.8393080375462
 20
24.24968943247008
 30
0.0
 10
286.9478189885002
 20
24.36021890662066
 30
0.0
 10
287.0150565437532
 20
24.43967010365566
 30
0.0
  0
SPLINE
  5
10A
330
1F
100
AcDbEntity
  8
0
  6
Continuous
 62
     7
370
    25
100
AcDbSpline
210
0.0
220
0.0
230
1.0
 70
     8
 71
     3
 72
    13
 73
     9
 74
     0
 42
0.00000001
 43
0.00000001
 40
0.0
 40
0.0
 40
0.0
 40
0.0
 40
0.2703816178319617
 40
0.3984601291783004
 40
0.5227503451014437
 40
0.6438255660090793
 40
0.7637452368382556
 40
1.0
 40
1.0
 40
1.0
 40
1.0
 10
290.559928338625
 20
25.20880071262999
 30
0.0
 10
290.5583388739705
 20
25.29406035411341
 30
0.0
 10
290.5509778404688
 20
25.42004269347253
 30
0.0
 10
290.5203763570436
 20
25.58239881192259
 30
0.0
 10
290.4893662239835
 20
25.69622516255754
 30
0.0
 10
290.4509894463141
 20
25.80510689635052
 30
0.0
 10
290.3873786783201
 20
25.94189291824112
 30
0.0
 10
290.3274696379335
 20
26.03753208158843
 30
0.0
 10
290.2815829860609
 20
26.09642090493769
 30
0.0
  0
SPLINE
  5
10B
330
1F
100
AcDbEntity
  8
0
  6
Continuous
 62
     7
370
    25
100
AcDbSpline
210
0.0
220
0.0
230
1.0
 70
     8
 71
     3
 72
    13
 73
     9
 74
     0
 42
0.00000001
 43
0.00000001
 40
0.0
 40
0.0
 40
0.0
 40
0.0
 40
0.255257368140996
 40
0.3772478104725325
 40
0.4977415562850415
 40
0.6181201760750441
 40
0.7409671592206359
 40
1.0
 40
1.0
 40
1.0
 40
1.0
 10
290.281582986061
 20
26.09642090493769
 30
0.0
 10
290.2201958423676
 20
26.17708101753691
 30
0.0
 10
290.1167529282295
 20
26.2867207079589
 30
0.0
 10
289.958477752437
 20
26.40579149326017
 30
0.0
 10
289.8328082408614
 20
26.47700323996782
 30
0.0
 10
289.6989638953548
 20
26.53208887145719
 30
0.0
 10
289.5063708322025
 20
26.58537812161654
 30
0.0
 10
289.3544625714745
 20
26.60025832723722
 30
0.0
 10
289.2516350693942
 20
26.59982635365565
 30
0.0
  0
SPLINE
  5
10C
330
1F
100
AcDbEntity
  8
0
  6
Continuous
 62
     7
370
    25
100
AcDbSpline
210
0.0
220
0.0
230
1.0
 70
     8
 71
     3
 72
    13
 73
     9
 74
     0
 42
0.00000001
 43
0.00000001
 40
0.0
 40
0.0
 40
0.0
 40
0.0
 40
0.2602406645595056
 40
0.3836752253642184
 40
0.5046599577622765
 40
0.6253567426858504
 40
0.7464106650135791
 40
1.0
 40
1.0
 40
1.0
 40
1.0
 10
289.2516350693942
 20
26.59982635365565
 30
0.0
 10
289.1521788582776
 20
26.59862777346922
 30
0.0
 10
289.0043030613018
 20
26.58759892260998
 30
0.0
 10
288.8177570353309
 20
26.53510451972163
 30
0.0
 10
288.6874156006073
 20
26.48347199000545
 30
0.0
 10
288.5658385775756
 20
26.41543244464073
 30
0.0
 10
288.4111764255965
 20
26.30466991766556
 30
0.0
 10
288.3124084501899
 20
26.19878808229559
 30
0.0
 10
288.2518353899071
 20
26.12306353314287
 30
0.0
  0
SPLINE
  5
10D
330
1F
100
AcDbEntity
  8
0
  6
Continuous
 62
     7
370
    25
100
AcDbSpline
210
0.0
220
0.0
230
1.0
 70
     8
 71
     3
 72
    13
 73
     9
 74
     0
 42
0.00000001
 43
0.00000001
 40
0.0
 40
0.0
 40
0.0
 40
0.0
 40
0.2534216680665266
 40
0.3767041167575432
 40
0.4994491585174913
 40
0.6225715734186964
 40
0.7462320999755214
 40
1.0
 40
1.0
 40
1.0
 40
1.0
 10
288.2518353899071
 20
26.12306353314287
 30
0.0
 10
288.2042841274123
 20
26.06157170931755
 30
0.0
 10
288.1391202946839
 20
25.96550243803708
 30
0.0
 10
288.0709475183272
 20
25.82799140180547
 30
0.0
 10
288.0293684166063
 20
25.72245115208749
 30
0.0
 10
287.9972209838795
 20
25.61356346027199
 30
0.0
 10
287.9655936043221
 20
25.46301974931275
 30
0.0
 10
287.958317524266
 20
25.3468908891481
 30
0.0
 10
287.9573642360609
 20
25.269097186989
 30
0.0
  0
SPLINE
  5
10E
330
1F
100
AcDbEntity
  8
0
  6
Continuous
 62
     7
370
    25
100
AcDbSpline
210
0.0
220
0.0
230
1.0
 70
     8
 71
     3
 72
    21
 73
    17
 74
     0
 42
0.00000001
 43
0.00000001
 40
0.0
 40
0.0
 40
0.0
 40
0.0
 40
0.1210804245006118
 40
0.1800682782218559
 40
0.2391896643238556
 40
0.2987059533012314
 40
0.3588810785072301
 40
0.4203687292950606
 40
0.4834483096802261
 40
0.5465664849029384
 40
0.6086986022254206
 40
0.670186253013248
 40
0.7318650366033053
 40
0.7952033026033165
 40
0.8603707753071415
 40
1.0
 40
1.0
 40
1.0
 40
1.0
 10
287.9573642360609
 20
25.269097186989
 30
0.0
 10
287.9582789632984
 20
25.18607454663901
 30
0.0
 10
287.9670585875974
 20
25.06222273965108
 30
0.0
 10
288.0031398718704
 20
24.90177559542161
 30
0.0
 10
288.0415152687841
 20
24.78591321993751
 30
0.0
 10
288.0890758486313
 20
24.6726422862259
 30
0.0
 10
288.1475311073304
 20
24.56267917002542
 30
0.0
 10
288.2174575265179
 20
24.45672326874593
 30
0.0
 10
288.2967012455327
 20
24.35504126577326
 30
0.0
 10
288.3847254910568
 20
24.26002502245051
 30
0.0
 10
288.4835450358635
 20
24.17789202679021
 30
0.0
 10
288.5900457805598
 20
24.10793527834099
 30
0.0
 10
288.7047884590626
 20
24.05049765125278
 30
0.0
 10
288.8279985112864
 20
24.00657197746614
 30
0.0
 10
289.0072303543179
 20
23.96342562216258
 30
0.0
 10
289.1481520496561
 20
23.95242933912123
 30
0.0
 10
289.2439227296506
 20
23.95239045621977
 30
0.0
  0
SPLINE
  5
10F
330
1F
100
AcDbEntity
  8
0
  6
Continuous
 62
     7
370
    25
100
AcDbSpline
210
0.0
220
0.0
230
1.0
 70
     8
 71
     3
 72
    17
 73
    13
 74
     0
 42
0.00000001
 43
0.00000001
 40
0.0
 40
0.0
 40
0.0
 40
0.0
 40
0.1781058515637827
 40
0.2613277635121511
 40
0.3415565694705521
 40
0.4200079090126525
 40
0.4980968161626226
 40
0.5754001382821239
 40
0.6536452159657116
 40
0.7341257729573898
 40
0.8183392339289949
 40
1.0
 40
1.0
 40
1.0
 40
1.0
 10
289.2439227296506
 20
23.95239045621977
 30
0.0
 10
289.3302165214084
 20
23.95240161639423
 30
0.0
 10
289.4570930031784
 20
23.96105583742592
 30
0.0
 10
289.6194762757544
 20
23.99438153555322
 30
0.0
 10
289.7317749252962
 20
24.02875977033048
 30
0.0
 10
289.8376247417231
 20
24.07352046202793
 30
0.0
 10
289.9379140572385
 20
24.12663654405367
 30
0.0
 10
290.0326446442501
 20
24.18897606102888
 30
0.0
 10
290.1223222502783
 20
24.26022301050401
 30
0.0
 10
290.2073952430203
 20
24.34196942868572
 30
0.0
 10
290.3143411271283
 20
24.47173158340654
 30
0.0
 10
290.3838121178886
 20
24.58072746912954
 30
0.0
 10
290.4253129540095
 20
24.65842010365571
 30
0.0
  0
SPLINE
  5
111
330
1F
100
AcDbEntity
  8
0
  6
Continuous
 62
     7
370
    25
100
AcDbSpline
210
0.0
220
0.0
230
1.0
 70
     8
 71
     3
 72
    17
 73
    13
 74
     0
 42
0.00000001
 43
0.00000001
 40
0.0
 40
0.0
 40
0.0
 40
0.0
 40
0.2079350339033564
 40
0.2946939715678991
 40
0.3697315241424307
 40
0.440830943802725
 40
0.5142509140460771
 40
0.5913900390896499
 40
0.6722743046458497
 40
0.7543412603705406
 40
0.8361211059014766
 40
1.0
 40
1.0
 40
1.0
 40
1.0
 10
290.1462664796506
 20
24.80495455878384
 30
0.0
 10
290.1037417536477
 20
24.73840707488084
 30
0.0
 10
290.0366259839777
 20
24.64877660942932
 30
0.0
 10
289.9431281949769
 20
24.54395767780026
 30
0.0
 10
289.8770763551433
 20
24.48493635266713
 30
0.0
 10
289.8089547362551
 20
24.43672999489832
 30
0.0
 10
289.7360757922698
 20
24.39457885283558
 30
0.0
 10
289.6568298939389
 20
24.35647834035026
 30
0.0
 10
289.5712590821876
 20
24.32489310966379
 30
0.0
 10
289.4819983389241
 20
24.29903483287321
 30
0.0
 10
289.3601500454517
 20
24.27351525084698
 30
0.0
 10
289.2668538130778
 20
24.26619218957315
 30
0.0
 10
289.2046599091378
 20
24.26649302032235
 30
0.0
  0
SPLINE
  5
112
330
1F
100
AcDbEntity
  8
0
  6
Continuous
 62
     7
370
    25
100
AcDbSpline
210
0.0
220
0.0
230
1.0
 70
     8
 71
     3
 72
    21
 73
    17
 74
     0
 42
0.00000001
 43
0.00000001
 40
0.0
 40
0.0
 40
0.0
 40
0.0
 40
0.1276691474530424
 40
0.1889505232706536
 40
0.2490548673082992
 40
0.3090713134763196
 40
0.3692223593686933
 40
0.4301747620269846
 40
0.4926019887960209
 40
0.555346876893578
 40
0.6169627615204942
 40
0.678170777192346
 40
0.73924652255152
 40
0.8016089422160485
 40
0.8655244124565523
 40
1.0
 40
1.0
 40
1.0
 40
1.0
 10
289.2046599091378
 20
24.26649302032235
 30
0.0
 10
289.1416487547537
 20
24.26614333601929
 30
0.0
 10
289.048520503861
 20
24.27486230068077
 30
0.0
 10
288.9285384387886
 20
24.30192876066151
 30
0.0
 10
288.8437661637287
 20
24.33099983173859
 30
0.0
 10
288.7628682110553
 20
24.3681890939299
 30
0.0
 10
288.6859746088329
 20
24.41399216866957
 30
0.0
 10
288.6136918795189
 20
24.46864463318532
 30
0.0
 10
288.5449847495461
 20
24.52970520515629
 30
0.0
 10
288.4832591707402
 20
24.59827239169976
 30
0.0
 10
288.4279191776224
 20
24.67131031694558
 30
0.0
 10
288.3815350811853
 20
24.74947232532399
 30
0.0
 10
288.3436621666773
 20
24.83240257236363
 30
0.0
 10
288.3124164017259
 20
24.9194851521114
 30
0.0
 10
288.2821358710527
 20
25.04469844335966
 30
0.0
 10
288.2732555246332
 20
25.14255470162119
 30
0.0
 10
288.2714668001635
 20
25.20880071262999
 30
0.0
  0
SPLINE
  5
114
330
1F
100
AcDbEntity
  8
0
  6
Continuous
 62
     7
370
    25
100
AcDbSpline
210
0.0
220
0.0
230
1.0
 70
     8
 71
     3
 72
    13
 73
     9
 74
     0
 42
0.00000001
 43
0.00000001
 40
0.0
 40
0.0
 40
0.0
 40
0.0
 40
0.343762191421775
 40
0.4918338323010911
 40
0.6241090704107948
 40
0.7413996050399048
 40
0.8430618504426423
 40
1.0
 40
1.0
 40
1.0
 40
1.0
 10
291.412492441189
 20
24.85683757160439
 30
0.0
 10
291.4119459840108
 20
24.95781823306364
 30
0.0
 10
291.4141690554209
 20
25.10226484317368
 30
0.0
 10
291.4194433343098
 20
25.2855204205944
 30
0.0
 10
291.4259964854527
 20
25.40213615643727
 30
0.0
 10
291.4331446516779
 20
25.5050727804611
 30
0.0
 10
291.4453684118492
 20
25.61481216274164
 30
0.0
 10
291.456832365564
 20
25.68998422522895
 30
0.0
 10
291.4685821847787
 20
25.73464205878384
 30
0.0
  0
SPLINE
  5
115
330
1F
100
AcDbEntity
  8
0
  6
Continuous
 62
     7
370
    25
100
AcDbSpline
210
0.0
220
0.0
230
1.0
 70
     8
 71
     3
 72
    17
 73
    13
 74
     0
 42
0.00000001
 43
0.00000001
 40
0.0
 40
0.0
 40
0.0
 40
0.0
 40
0.1717166158284539
 40
0.2506679767741051
 40
0.3258823275093822
 40
0.396881271696415
 40
0.4635748406535746
 40
0.5280697489487671
 40
0.5896876632767214
 40
0.7048093833748892
 40
0.8086618718637332
 40
1.0
 40
1.0
 40
1.0
 40
1.0
 10
291.4685821847787
 20
25.73464205878384
 30
0.0
 10
291.4805053321379
 20
25.77911347298911
 30
0.0
 10
291.5000267194801
 20
25.8435913527898
 30
0.0
 10
291.532878159305
 20
25.92464619795742
 30
0.0
 10
291.558537091869
 20
25.97937764328096
 30
0.0
 10
291.5867091310938
 20
26.02910671873804
 30
0.0
 10
291.6161914077951
 20
26.07468623730469
 30
0.0
 10
291.6483318345864
 20
26.1153318249362
 30
0.0
 10
291.6933736435299
 20
26.16189235784849
 30
0.0
 10
291.7515480986273
 20
26.21007731676428
 30
0.0
 10
291.8464912106483
 20
26.26691263004199
 30
0.0
 10
291.9253704611716
 20
26.28579031242639
 30
0.0
 10
291.9768954860607
 20
26.28572378955307
 30
0.0
  0
SPLINE
  5
116
330
1F
100
AcDbEntity
  8
0
  6
Continuous
 62
     7
370
    25
100
AcDbSpline
210
0.0
220
0.0
230
1.0
 70
     8
 71
     3
 72
     9
 73
     5
 74
     0
 42
0.00000001
 43
0.00000001
 40
0.0
 40
0.0
 40
0.0
 40
0.0
 40
0.4397700551121884
 40
1.0
 40
1.0
 40
1.0
 40
1.0
 10
291.9768954860607
 20
26.28572378955307
 30
0.0
 10
292.0015795258857
 20
26.28540140084901
 30
0.0
 10
292.0573666810958
 20
26.27607684536526
 30
0.0
 10
292.1088393393144
 20
26.25282120674677
 30
0.0
 10
292.1374523770864
 20
26.24015087288645
 30
0.0
  0
SPLINE
  5
118
330
1F
100
AcDbEntity
  8
0
  6
Continuous
 62
     7
370
    25
100
AcDbSpline
210
0.0
220
0.0
230
1.0
 70
     8
 71
     3
 72
     9
 73
     5
 74
     0
 42
0.00000001
 43
0.00000001
 40
0.0
 40
0.0
 40
0.0
 40
0.0
 40
0.5364768048236987
 40
1.0
 40
1.0
 40
1.0
 40
1.0
 10
292.3099283386248
 20
26.51218612929673
 30
0.0
 10
292.2655872335658
 20
26.53904602007295
 30
0.0
 10
292.1779341218491
 20
26.58258393155233
 30
0.0
 10
292.0814672915451
 20
26.59947693276843
 30
0.0
 10
292.0364908386249
 20
26.59982635365565
 30
0.0
  0
SPLINE
  5
119
330
1F
100
AcDbEntity
  8
0
  6
Continuous
 62
     7
370
    25
100
AcDbSpline
210
0.0
220
0.0
230
1.0
 70
     8
 71
     3
 72
    13
 73
     9
 74
     0
 42
0.00000001
 43
0.00000001
 40
0.0
 40
0.0
 40
0.0
 40
0.0
 40
0.2138863655718647
 40
0.3246827750473095
 40
0.439458544744861
 40
0.561633485869794
 40
0.6938876172598769
 40
1.0
 40
1.0
 40
1.0
 40
1.0
 10
292.0364908386249
 20
26.59982635365565
 30
0.0
 10
291.9804104458548
 20
26.59943733708325
 30
0.0
 10
291.8948518509612
 20
26.58759068659189
 30
0.0
 10
291.7872785586067
 20
26.54491347785493
 30
0.0
 10
291.7068975279996
 20
26.5011531385555
 30
0.0
 10
291.6292616650503
 20
26.44262485919013
 30
0.0
 10
291.5234647716288
 20
26.33993379819955
 30
0.0
 10
291.4555125692953
 20
26.24616611365072
 30
0.0
 10
291.412492441189
 20
26.17845215493775
 30
0.0
  0
LINE
  5
12B
330
1F
100
AcDbEntity
  8
0
  6
Continuous
 62
     7
370
    25
100
AcDbLine
 10
242.2105693643
 20
26.5213007126
 30
0.0
 11
243.4788986912
 21
23.9972622511
 31
0.0
  0
LINE
  5
12C
330
1F
100
AcDbEntity
  8
0
  6
Continuous
 62
     7
370
    25
100
AcDbLine
 10
243.4788986912
 20
23.9972622511
 30
0.0
 11
243.5497119925
 21
23.9972622511
 31
0.0
  0
LINE
  5
12D
330
1F
100
AcDbEntity
  8
0
  6
Continuous
 62
     7
370
    25
100
AcDbLine
 10
243.5497119925
 20
23.9972622511
 30
0.0
 11
244.8131334668
 21
26.5156917383
 31
0.0
  0
LINE
  5
12E
330
1F
100
AcDbEntity
  8
0
  6
Continuous
 62
     7
370
    25
100
AcDbLine
 10
244.8131334668
 20
26.5156917383
 30
0.0
 11
245.1482696848
 21
23.9972622511
 31
0.0
  0
LINE
  5
12F
330
1F
100
AcDbEntity
  8
0
  6
Continuous
 62
     7
370
    25
100
AcDbLine
 10
245.1482696848
 20
23.9972622511
 30
0.0
 11
245.4637744925
 21
23.9972622511
 31
0.0
  0
LINE
  5
130
330
1F
100
AcDbEntity
  8
0
  6
Continuous
 62
     7
370
    25
100
AcDbLine
 10
245.4637744925
 20
23.9972622511
 30
0.0
 11
244.9989307425
 21
27.4972622511
 31
0.0
  0
LINE
  5
131
330
1F
100
AcDbEntity
  8
0
  6
Continuous
 62
     7
370
    25
100
AcDbLine
 10
244.9989307425
 20
27.4972622511
 30
0.0
 11
244.9533578258
 21
27.4972622511
 31
0.0
  0
LINE
  5
132
330
1F
100
AcDbEntity
  8
0
  6
Continuous
 62
     7
370
    25
100
AcDbLine
 10
244.9533578258
 20
27.4972622511
 30
0.0
 11
243.5118514155
 21
24.6254673793
 31
0.0
  0
LINE
  5
133
330
1F
100
AcDbEntity
  8
0
  6
Continuous
 62
     7
370
    25
100
AcDbLine
 10
243.5118514155
 20
24.6254673793
 30
0.0
 11
242.0668393963
 21
27.4972622511
 31
0.0
  0
LINE
  5
134
330
1F
100
AcDbEntity
  8
0
  6
Continuous
 62
     7
370
    25
100
AcDbLine
 10
242.0668393963
 20
27.4972622511
 30
0.0
 11
242.0219676014
 21
27.4972622511
 31
0.0
  0
LINE
  5
135
330
1F
100
AcDbEntity
  8
0
  6
Continuous
 62
     7
370
    25
100
AcDbLine
 10
242.0219676014
 20
27.4972622511
 30
0.0
 11
241.5599283386
 21
23.9972622511
 31
0.0
  0
LINE
  5
136
330
1F
100
AcDbEntity
  8
0
  6
Continuous
 62
     7
370
    25
100
AcDbLine
 10
241.5599283386
 20
23.9972622511
 30
0.0
 11
241.8761342681
 21
23.9972622511
 31
0.0
  0
LINE
  5
137
330
1F
100
AcDbEntity
  8
0
  6
Continuous
 62
     7
370
    25
100
AcDbLine
 10
241.8761342681
 20
23.9972622511
 30
0.0
 11
242.2105693643
 21
26.5213007126
 31
0.0
  0
LINE
  5
138
330
1F
100
AcDbEntity
  8
0
  6
Continuous
 62
     7
370
    25
100
AcDbLine
 10
250.7586462873
 20
23.9972622511
 30
0.0
 11
250.7586462873
 21
24.9220418985
 31
0.0
  0
LINE
  5
139
330
1F
100
AcDbEntity
  8
0
  6
Continuous
 62
     7
370
    25
100
AcDbLine
 10
252.3740309027
 20
25.2003872511
 30
0.0
 11
252.3740309027
 21
23.9972622511
 31
0.0
  0
LINE
  5
13A
330
1F
100
AcDbEntity
  8
0
  6
Continuous
 62
     7
370
    25
100
AcDbLine
 10
252.3740309027
 20
23.9972622511
 30
0.0
 11
252.6881334668
 21
23.9972622511
 31
0.0
  0
LINE
  5
13B
330
1F
100
AcDbEntity
  8
0
  6
Continuous
 62
     7
370
    25
100
AcDbLine
 10
252.6881334668
 20
23.9972622511
 30
0.0
 11
252.6881334668
 21
25.3034521549
 31
0.0
  0
LINE
  5
13C
330
1F
100
AcDbEntity
  8
0
  6
Continuous
 62
     7
370
    25
100
AcDbLine
 10
250.7586462873
 20
26.0936164178
 30
0.0
 11
250.7586462873
 21
26.5549545588
 31
0.0
  0
LINE
  5
13D
330
1F
100
AcDbEntity
  8
0
  6
Continuous
 62
     7
370
    25
100
AcDbLine
 10
250.7586462873
 20
26.5549545588
 30
0.0
 11
250.4445437232
 21
26.5549545588
 31
0.0
  0
LINE
  5
13E
330
1F
100
AcDbEntity
  8
0
  6
Continuous
 62
     7
370
    25
100
AcDbLine
 10
250.4445437232
 20
26.5549545588
 30
0.0
 11
250.4445437232
 21
23.9972622511
 31
0.0
  0
LINE
  5
13F
330
1F
100
AcDbEntity
  8
0
  6
Continuous
 62
     7
370
    25
100
AcDbLine
 10
250.4445437232
 20
23.9972622511
 30
0.0
 11
250.7586462873
 21
23.9972622511
 31
0.0
  0
LINE
  5
140
330
1F
100
AcDbEntity
  8
0
  6
Continuous
 62
     7
370
    25
100
AcDbLine
 10
249.6817232104
 20
23.9972622511
 30
0.0
 11
249.6817232104
 21
26.5549545588
 31
0.0
  0
LINE
  5
141
330
1F
100
AcDbEntity
  8
0
  6
Continuous
 62
     7
370
    25
100
AcDbLine
 10
249.6817232104
 20
26.5549545588
 30
0.0
 11
249.3676206463
 21
26.5549545588
 31
0.0
  0
LINE
  5
142
330
1F
100
AcDbEntity
  8
0
  6
Continuous
 62
     7
370
    25
100
AcDbLine
 10
249.3676206463
 20
26.5549545588
 30
0.0
 11
249.3676206463
 21
23.9972622511
 31
0.0
  0
LINE
  5
143
330
1F
100
AcDbEntity
  8
0
  6
Continuous
 62
     7
370
    25
100
AcDbLine
 10
249.3676206463
 20
23.9972622511
 30
0.0
 11
249.6817232104
 21
23.9972622511
 31
0.0
  0
LINE
  5
144
330
1F
100
AcDbEntity
  8
0
  6
Continuous
 62
     7
370
    25
100
AcDbLine
 10
248.3804411591
 20
24.4396701037
 30
0.0
 11
248.3804411591
 21
23.9972622511
 31
0.0
  0
LINE
  5
145
330
1F
100
AcDbEntity
  8
0
  6
Continuous
 62
     7
370
    25
100
AcDbLine
 10
248.3804411591
 20
23.9972622511
 30
0.0
 11
248.6945437232
 21
23.9972622511
 31
0.0
  0
LINE
  5
146
330
1F
100
AcDbEntity
  8
0
  6
Continuous
 62
     7
370
    25
100
AcDbLine
 10
248.6945437232
 20
23.9972622511
 30
0.0
 11
248.6945437232
 21
26.5549545588
 31
0.0
  0
LINE
  5
147
330
1F
100
AcDbEntity
  8
0
  6
Continuous
 62
     7
370
    25
100
AcDbLine
 10
248.6945437232
 20
26.5549545588
 30
0.0
 11
248.3804411591
 21
26.5549545588
 31
0.0
  0
LINE
  5
148
330
1F
100
AcDbEntity
  8
0
  6
Continuous
 62
     7
370
    25
100
AcDbLine
 10
248.3804411591
 20
26.5549545588
 30
0.0
 11
248.3804411591
 21
26.0816973472
 31
0.0
  0
LINE
  5
149
330
1F
100
AcDbEntity
  8
0
  6
Continuous
 62
     7
370
    25
100
AcDbLine
 10
254.9765950053
 20
25.2088007126
 30
0.0
 11
257.2650565438
 21
25.2088007126
 31
0.0
  0
LINE
  5
14A
330
1F
100
AcDbEntity
  8
0
  6
Continuous
 62
     7
370
    25
100
AcDbLine
 10
257.1304411591
 20
24.6584201037
 30
0.0
 11
256.8513946848
 21
24.8049545588
 31
0.0
  0
LINE
  5
14B
330
1F
100
AcDbEntity
  8
0
  6
Continuous
 62
     7
370
    25
100
AcDbLine
 10
257.534287313
 20
23.9972622511
 30
0.0
 11
257.9079852297
 21
23.9972622511
 31
0.0
  0
LINE
  5
14C
330
1F
100
AcDbEntity
  8
0
  6
Continuous
 62
     7
370
    25
100
AcDbLine
 10
257.9079852297
 20
23.9972622511
 30
0.0
 11
258.7009539797
 21
25.108540296
 31
0.0
  0
LINE
  5
14D
330
1F
100
AcDbEntity
  8
0
  6
Continuous
 62
     7
370
    25
100
AcDbLine
 10
258.7009539797
 20
25.108540296
 30
0.0
 11
259.4939227297
 21
23.9972622511
 31
0.0
  0
LINE
  5
14E
330
1F
100
AcDbEntity
  8
0
  6
Continuous
 62
     7
370
    25
100
AcDbLine
 10
259.4939227297
 20
23.9972622511
 30
0.0
 11
259.8676206463
 21
23.9972622511
 31
0.0
  0
LINE
  5
14F
330
1F
100
AcDbEntity
  8
0
  6
Continuous
 62
     7
370
    25
100
AcDbLine
 10
259.8676206463
 20
23.9972622511
 30
0.0
 11
258.8881534989
 21
25.3707598472
 31
0.0
  0
LINE
  5
150
330
1F
100
AcDbEntity
  8
0
  6
Continuous
 62
     7
370
    25
100
AcDbLine
 10
258.8881534989
 20
25.3707598472
 30
0.0
 11
259.7330052617
 21
26.5549545588
 31
0.0
  0
LINE
  5
151
330
1F
100
AcDbEntity
  8
0
  6
Continuous
 62
     7
370
    25
100
AcDbLine
 10
259.7330052617
 20
26.5549545588
 30
0.0
 11
259.359307345
 21
26.5549545588
 31
0.0
  0
LINE
  5
152
330
1F
100
AcDbEntity
  8
0
  6
Continuous
 62
     7
370
    25
100
AcDbLine
 10
259.359307345
 20
26.5549545588
 30
0.0
 11
258.7009539797
 21
25.6322782767
 31
0.0
  0
LINE
  5
153
330
1F
100
AcDbEntity
  8
0
  6
Continuous
 62
     7
370
    25
100
AcDbLine
 10
258.7009539797
 20
25.6322782767
 30
0.0
 11
258.0426006143
 21
26.5549545588
 31
0.0
  0
LINE
  5
154
330
1F
100
AcDbEntity
  8
0
  6
Continuous
 62
     7
370
    25
100
AcDbLine
 10
258.0426006143
 20
26.5549545588
 30
0.0
 11
257.6689026976
 21
26.5549545588
 31
0.0
  0
LINE
  5
155
330
1F
100
AcDbEntity
  8
0
  6
Continuous
 62
     7
370
    25
100
AcDbLine
 10
257.6689026976
 20
26.5549545588
 30
0.0
 11
258.5144555822
 21
25.3707598472
 31
0.0
  0
LINE
  5
156
330
1F
100
AcDbEntity
  8
0
  6
Continuous
 62
     7
370
    25
100
AcDbLine
 10
258.5144555822
 20
25.3707598472
 30
0.0
 11
257.534287313
 21
23.9972622511
 31
0.0
  0
LINE
  5
157
330
1F
100
AcDbEntity
  8
0
  6
Continuous
 62
     7
370
    25
100
AcDbLine
 10
260.5406975694
 20
23.0549545588
 30
0.0
 11
260.5406975694
 21
24.4607037575
 31
0.0
  0
LINE
  5
158
330
1F
100
AcDbEntity
  8
0
  6
Continuous
 62
     7
370
    25
100
AcDbLine
 10
260.5406975694
 20
26.0816973472
 30
0.0
 11
260.5406975694
 21
26.5549545588
 31
0.0
  0
LINE
  5
159
330
1F
100
AcDbEntity
  8
0
  6
Continuous
 62
     7
370
    25
100
AcDbLine
 10
260.5406975694
 20
26.5549545588
 30
0.0
 11
260.2265950053
 21
26.5549545588
 31
0.0
  0
LINE
  5
15A
330
1F
100
AcDbEntity
  8
0
  6
Continuous
 62
     7
370
    25
100
AcDbLine
 10
260.2265950053
 20
26.5549545588
 30
0.0
 11
260.2265950053
 21
23.0549545588
 31
0.0
  0
LINE
  5
15B
330
1F
100
AcDbEntity
  8
0
  6
Continuous
 62
     7
370
    25
100
AcDbLine
 10
260.2265950053
 20
23.0549545588
 30
0.0
 11
260.5406975694
 21
23.0549545588
 31
0.0
  0
LINE
  5
15C
330
1F
100
AcDbEntity
  8
0
  6
Continuous
 62
     7
370
    25
100
AcDbLine
 10
268.3483898771
 20
23.9972622511
 30
0.0
 11
268.3483898771
 21
27.5870058408
 31
0.0
  0
LINE
  5
15D
330
1F
100
AcDbEntity
  8
0
  6
Continuous
 62
     7
370
    25
100
AcDbLine
 10
268.3483898771
 20
27.5870058408
 30
0.0
 11
268.034287313
 21
27.5870058408
 31
0.0
  0
LINE
  5
15E
330
1F
100
AcDbEntity
  8
0
  6
Continuous
 62
     7
370
    25
100
AcDbLine
 10
268.034287313
 20
27.5870058408
 30
0.0
 11
268.034287313
 21
23.9972622511
 31
0.0
  0
LINE
  5
15F
330
1F
100
AcDbEntity
  8
0
  6
Continuous
 62
     7
370
    25
100
AcDbLine
 10
268.034287313
 20
23.9972622511
 30
0.0
 11
268.3483898771
 21
23.9972622511
 31
0.0
  0
LINE
  5
160
330
1F
100
AcDbEntity
  8
0
  6
Continuous
 62
     7
370
    25
100
AcDbLine
 10
269.2906975694
 20
25.2088007126
 30
0.0
 11
271.5791591079
 21
25.2088007126
 31
0.0
  0
LINE
  5
161
330
1F
100
AcDbEntity
  8
0
  6
Continuous
 62
     7
370
    25
100
AcDbLine
 10
271.4445437232
 20
24.6584201037
 30
0.0
 11
271.1654972489
 21
24.8049545588
 31
0.0
  0
LINE
  5
162
330
1F
100
AcDbEntity
  8
0
  6
Continuous
 62
     7
370
    25
100
AcDbLine
 10
272.3868514155
 20
26.9637085652
 30
0.0
 11
272.3868514155
 21
26.5549545588
 31
0.0
  0
LINE
  5
163
330
1F
100
AcDbEntity
  8
0
  6
Continuous
 62
     7
370
    25
100
AcDbLine
 10
272.3868514155
 20
26.5549545588
 30
0.0
 11
272.0278770566
 21
26.5549545588
 31
0.0
  0
LINE
  5
164
330
1F
100
AcDbEntity
  8
0
  6
Continuous
 62
     7
370
    25
100
AcDbLine
 10
272.0278770566
 20
26.5549545588
 30
0.0
 11
272.0278770566
 21
26.2408519947
 31
0.0
  0
LINE
  5
165
330
1F
100
AcDbEntity
  8
0
  6
Continuous
 62
     7
370
    25
100
AcDbLine
 10
272.0278770566
 20
26.2408519947
 30
0.0
 11
272.3868514155
 21
26.2408519947
 31
0.0
  0
LINE
  5
166
330
1F
100
AcDbEntity
  8
0
  6
Continuous
 62
     7
370
    25
100
AcDbLine
 10
272.3868514155
 20
26.2408519947
 30
0.0
 11
272.3868514155
 21
23.9972622511
 31
0.0
  0
LINE
  5
167
330
1F
100
AcDbEntity
  8
0
  6
Continuous
 62
     7
370
    25
100
AcDbLine
 10
272.3868514155
 20
23.9972622511
 30
0.0
 11
272.7009539797
 21
23.9972622511
 31
0.0
  0
LINE
  5
168
330
1F
100
AcDbEntity
  8
0
  6
Continuous
 62
     7
370
    25
100
AcDbLine
 10
272.7009539797
 20
23.9972622511
 30
0.0
 11
272.7023562232
 21
26.2408519947
 31
0.0
  0
LINE
  5
169
330
1F
100
AcDbEntity
  8
0
  6
Continuous
 62
     7
370
    25
100
AcDbLine
 10
272.7023562232
 20
26.2408519947
 30
0.0
 11
273.2394155181
 21
26.2408519947
 31
0.0
  0
LINE
  5
16A
330
1F
100
AcDbEntity
  8
0
  6
Continuous
 62
     7
370
    25
100
AcDbLine
 10
273.2394155181
 20
26.2408519947
 30
0.0
 11
273.2394155181
 21
26.5549545588
 31
0.0
  0
LINE
  5
16B
330
1F
100
AcDbEntity
  8
0
  6
Continuous
 62
     7
370
    25
100
AcDbLine
 10
273.2394155181
 20
26.5549545588
 30
0.0
 11
272.703057345
 21
26.5549545588
 31
0.0
  0
LINE
  5
16C
330
1F
100
AcDbEntity
  8
0
  6
Continuous
 62
     7
370
    25
100
AcDbLine
 10
272.703057345
 20
26.5549545588
 30
0.0
 11
272.703057345
 21
26.909722187
 31
0.0
  0
LINE
  5
16D
330
1F
100
AcDbEntity
  8
0
  6
Continuous
 62
     7
370
    25
100
AcDbLine
 10
273.284287313
 20
27.2392494306
 30
0.0
 11
273.284287313
 21
27.565972187
 31
0.0
  0
LINE
  5
16E
330
1F
100
AcDbEntity
  8
0
  6
Continuous
 62
     7
370
    25
100
AcDbLine
 10
273.5983898771
 20
26.5549545588
 30
0.0
 11
273.5983898771
 21
26.2408519947
 31
0.0
  0
LINE
  5
16F
330
1F
100
AcDbEntity
  8
0
  6
Continuous
 62
     7
370
    25
100
AcDbLine
 10
273.5983898771
 20
26.2408519947
 30
0.0
 11
274.0471078258
 21
26.2408519947
 31
0.0
  0
LINE
  5
170
330
1F
100
AcDbEntity
  8
0
  6
Continuous
 62
     7
370
    25
100
AcDbLine
 10
274.0471078258
 20
26.2408519947
 30
0.0
 11
274.0471078258
 21
23.9972622511
 31
0.0
  0
LINE
  5
171
330
1F
100
AcDbEntity
  8
0
  6
Continuous
 62
     7
370
    25
100
AcDbLine
 10
274.0471078258
 20
23.9972622511
 30
0.0
 11
274.3612103899
 21
23.9972622511
 31
0.0
  0
LINE
  5
172
330
1F
100
AcDbEntity
  8
0
  6
Continuous
 62
     7
370
    25
100
AcDbLine
 10
274.3612103899
 20
23.9972622511
 30
0.0
 11
274.3612103899
 21
26.2408519947
 31
0.0
  0
LINE
  5
173
330
1F
100
AcDbEntity
  8
0
  6
Continuous
 62
     7
370
    25
100
AcDbLine
 10
274.3612103899
 20
26.2408519947
 30
0.0
 11
274.8099283386
 21
26.2408519947
 31
0.0
  0
LINE
  5
174
330
1F
100
AcDbEntity
  8
0
  6
Continuous
 62
     7
370
    25
100
AcDbLine
 10
274.8099283386
 20
26.2408519947
 30
0.0
 11
274.8099283386
 21
26.5549545588
 31
0.0
  0
LINE
  5
175
330
1F
100
AcDbEntity
  8
0
  6
Continuous
 62
     7
370
    25
100
AcDbLine
 10
274.8099283386
 20
26.5549545588
 30
0.0
 11
274.3612103899
 21
26.5549545588
 31
0.0
  0
LINE
  5
176
330
1F
100
AcDbEntity
  8
0
  6
Continuous
 62
     7
370
    25
100
AcDbLine
 10
274.3612103899
 20
26.5549545588
 30
0.0
 11
274.3612103899
 21
27.5870058408
 31
0.0
  0
LINE
  5
177
330
1F
100
AcDbEntity
  8
0
  6
Continuous
 62
     7
370
    25
100
AcDbLine
 10
274.3612103899
 20
27.5870058408
 30
0.0
 11
274.0471078258
 21
27.5870058408
 31
0.0
  0
LINE
  5
178
330
1F
100
AcDbEntity
  8
0
  6
Continuous
 62
     7
370
    25
100
AcDbLine
 10
274.0471078258
 20
27.5870058408
 30
0.0
 11
274.0471078258
 21
26.5549545588
 31
0.0
  0
LINE
  5
179
330
1F
100
AcDbEntity
  8
0
  6
Continuous
 62
     7
370
    25
100
AcDbLine
 10
274.0471078258
 20
26.5549545588
 30
0.0
 11
273.5983898771
 21
26.5549545588
 31
0.0
  0
LINE
  5
17A
330
1F
100
AcDbEntity
  8
0
  6
Continuous
 62
     7
370
    25
100
AcDbLine
 10
281.9894155181
 20
23.9972622511
 30
0.0
 11
283.1560821848
 21
26.5549545588
 31
0.0
  0
LINE
  5
17B
330
1F
100
AcDbEntity
  8
0
  6
Continuous
 62
     7
370
    25
100
AcDbLine
 10
283.1560821848
 20
26.5549545588
 30
0.0
 11
282.8160381143
 21
26.5549545588
 31
0.0
  0
LINE
  5
17C
330
1F
100
AcDbEntity
  8
0
  6
Continuous
 62
     7
370
    25
100
AcDbLine
 10
282.8160381143
 20
26.5549545588
 30
0.0
 11
281.9669796207
 21
24.6927750716
 31
0.0
  0
LINE
  5
17D
330
1F
100
AcDbEntity
  8
0
  6
Continuous
 62
     7
370
    25
100
AcDbLine
 10
281.9669796207
 20
24.6927750716
 30
0.0
 11
281.1179211271
 21
26.5549545588
 31
0.0
  0
LINE
  5
17E
330
1F
100
AcDbEntity
  8
0
  6
Continuous
 62
     7
370
    25
100
AcDbLine
 10
281.1179211271
 20
26.5549545588
 30
0.0
 11
280.7778770566
 21
26.5549545588
 31
0.0
  0
LINE
  5
17F
330
1F
100
AcDbEntity
  8
0
  6
Continuous
 62
     7
370
    25
100
AcDbLine
 10
280.7778770566
 20
26.5549545588
 30
0.0
 11
281.9445437232
 21
23.9972622511
 31
0.0
  0
LINE
  5
180
330
1F
100
AcDbEntity
  8
0
  6
Continuous
 62
     7
370
    25
100
AcDbLine
 10
281.9445437232
 20
23.9972622511
 30
0.0
 11
281.9894155181
 21
23.9972622511
 31
0.0
  0
LINE
  5
181
330
1F
100
AcDbEntity
  8
0
  6
Continuous
 62
     7
370
    25
100
AcDbLine
 10
280.284287313
 20
23.9972622511
 30
0.0
 11
280.284287313
 21
26.5549545588
 31
0.0
  0
LINE
  5
182
330
1F
100
AcDbEntity
  8
0
  6
Continuous
 62
     7
370
    25
100
AcDbLine
 10
280.284287313
 20
26.5549545588
 30
0.0
 11
279.9701847489
 21
26.5549545588
 31
0.0
  0
LINE
  5
183
330
1F
100
AcDbEntity
  8
0
  6
Continuous
 62
     7
370
    25
100
AcDbLine
 10
279.9701847489
 20
26.5549545588
 30
0.0
 11
279.9701847489
 21
23.9972622511
 31
0.0
  0
LINE
  5
184
330
1F
100
AcDbEntity
  8
0
  6
Continuous
 62
     7
370
    25
100
AcDbLine
 10
279.9701847489
 20
23.9972622511
 30
0.0
 11
280.284287313
 21
23.9972622511
 31
0.0
  0
LINE
  5
185
330
1F
100
AcDbEntity
  8
0
  6
Continuous
 62
     7
370
    25
100
AcDbLine
 10
278.9830052617
 20
24.4396701037
 30
0.0
 11
278.9830052617
 21
23.9972622511
 31
0.0
  0
LINE
  5
186
330
1F
100
AcDbEntity
  8
0
  6
Continuous
 62
     7
370
    25
100
AcDbLine
 10
278.9830052617
 20
23.9972622511
 30
0.0
 11
279.2971078258
 21
23.9972622511
 31
0.0
  0
LINE
  5
187
330
1F
100
AcDbEntity
  8
0
  6
Continuous
 62
     7
370
    25
100
AcDbLine
 10
279.2971078258
 20
23.9972622511
 30
0.0
 11
279.2971078258
 21
27.5870058408
 31
0.0
  0
LINE
  5
188
330
1F
100
AcDbEntity
  8
0
  6
Continuous
 62
     7
370
    25
100
AcDbLine
 10
279.2971078258
 20
27.5870058408
 30
0.0
 11
278.9830052617
 21
27.5870058408
 31
0.0
  0
LINE
  5
189
330
1F
100
AcDbEntity
  8
0
  6
Continuous
 62
     7
370
    25
100
AcDbLine
 10
278.9830052617
 20
27.5870058408
 30
0.0
 11
278.9830052617
 21
26.0599625716
 31
0.0
  0
LINE
  5
18A
330
1F
100
AcDbEntity
  8
0
  6
Continuous
 62
     7
370
    25
100
AcDbLine
 10
283.9637744925
 20
23.9972622511
 30
0.0
 11
283.9637744925
 21
26.5549545588
 31
0.0
  0
LINE
  5
18B
330
1F
100
AcDbEntity
  8
0
  6
Continuous
 62
     7
370
    25
100
AcDbLine
 10
283.9637744925
 20
26.5549545588
 30
0.0
 11
283.6496719284
 21
26.5549545588
 31
0.0
  0
LINE
  5
18C
330
1F
100
AcDbEntity
  8
0
  6
Continuous
 62
     7
370
    25
100
AcDbLine
 10
283.6496719284
 20
26.5549545588
 30
0.0
 11
283.6496719284
 21
23.9972622511
 31
0.0
  0
LINE
  5
18D
330
1F
100
AcDbEntity
  8
0
  6
Continuous
 62
     7
370
    25
100
AcDbLine
 10
283.6496719284
 20
23.9972622511
 30
0.0
 11
283.9637744925
 21
23.9972622511
 31
0.0
  0
LINE
  5
18E
330
1F
100
AcDbEntity
  8
0
  6
Continuous
 62
     7
370
    25
100
AcDbLine
 10
287.0150565438
 20
24.4396701037
 30
0.0
 11
287.0150565438
 21
23.9972622511
 31
0.0
  0
LINE
  5
18F
330
1F
100
AcDbEntity
  8
0
  6
Continuous
 62
     7
370
    25
100
AcDbLine
 10
287.0150565438
 20
23.9972622511
 30
0.0
 11
287.3291591079
 21
23.9972622511
 31
0.0
  0
LINE
  5
190
330
1F
100
AcDbEntity
  8
0
  6
Continuous
 62
     7
370
    25
100
AcDbLine
 10
287.3291591079
 20
23.9972622511
 30
0.0
 11
287.3291591079
 21
27.5870058408
 31
0.0
  0
LINE
  5
191
330
1F
100
AcDbEntity
  8
0
  6
Continuous
 62
     7
370
    25
100
AcDbLine
 10
287.3291591079
 20
27.5870058408
 30
0.0
 11
287.0150565438
 21
27.5870058408
 31
0.0
  0
LINE
  5
192
330
1F
100
AcDbEntity
  8
0
  6
Continuous
 62
     7
370
    25
100
AcDbLine
 10
287.0150565438
 20
27.5870058408
 30
0.0
 11
287.0150565438
 21
26.0599625716
 31
0.0
  0
LINE
  5
193
330
1F
100
AcDbEntity
  8
0
  6
Continuous
 62
     7
370
    25
100
AcDbLine
 10
288.2714668002
 20
25.2088007126
 30
0.0
 11
290.5599283386
 21
25.2088007126
 31
0.0
  0
LINE
  5
194
330
1F
100
AcDbEntity
  8
0
  6
Continuous
 62
     7
370
    25
100
AcDbLine
 10
290.425312954
 20
24.6584201037
 30
0.0
 11
290.1462664797
 21
24.8049545588
 31
0.0
  0
LINE
  5
195
330
1F
100
AcDbEntity
  8
0
  6
Continuous
 62
     7
370
    25
100
AcDbLine
 10
291.4124924412
 20
23.9972622511
 30
0.0
 11
291.4124924412
 21
24.8568375716
 31
0.0
  0
LINE
  5
196
330
1F
100
AcDbEntity
  8
0
  6
Continuous
 62
     7
370
    25
100
AcDbLine
 10
292.1374523771
 20
26.2401508729
 30
0.0
 11
292.3099283386
 21
26.5121861293
 31
0.0
  0
LINE
  5
197
330
1F
100
AcDbEntity
  8
0
  6
Continuous
 62
     7
370
    25
100
AcDbLine
 10
291.4124924412
 20
26.1784521549
 30
0.0
 11
291.4124924412
 21
26.5549545588
 31
0.0
  0
LINE
  5
198
330
1F
100
AcDbEntity
  8
0
  6
Continuous
 62
     7
370
    25
100
AcDbLine
 10
291.4124924412
 20
26.5549545588
 30
0.0
 11
291.0983898771
 21
26.5549545588
 31
0.0
  0
LINE
  5
199
330
1F
100
AcDbEntity
  8
0
  6
Continuous
 62
     7
370
    25
100
AcDbLine
 10
291.0983898771
 20
26.5549545588
 30
0.0
 11
291.0983898771
 21
23.9972622511
 31
0.0
  0
LINE
  5
19A
330
1F
100
AcDbEntity
  8
0
  6
Continuous
 62
     7
370
    25
100
AcDbLine
 10
291.0983898771
 20
23.9972622511
 30
0.0
 11
291.4124924412
 21
23.9972622511
 31
0.0
  0
LINE
  5
19B
330
1F
100
AcDbEntity
  8
0
  6
Continuous
 62
     7
370
    25
100
AcDbLine
 10
3.5696898987
 20
350.0
 30
0.0
 11
3.5696898987
 21
350.75
 31
0.0
  0
LINE
  5
19C
330
1F
100
AcDbEntity
  8
0
  6
Continuous
 62
     7
370
    25
100
AcDbLine
 10
3.5696898987
 20
350.75
 30
0.0
 11
0.8196898987
 21
350.75
 31
0.0
  0
LINE
  5
19D
330
1F
100
AcDbEntity
  8
0
  6
Continuous
 62
     7
370
    25
100
AcDbLine
 10
0.8196898987
 20
350.75
 30
0.0
 11
0.8196898987
 21
350.0
 31
0.0
  0
LINE
  5
19E
330
1F
100
AcDbEntity
  8
0
  6
Continuous
 62
     7
370
    25
100
AcDbLine
 10
-666.8196898987
 20
350.0
 30
0.0
 11
3.5696898987
 21
350.0
 31
0.0
  0
LINE
  5
19F
330
1F
100
AcDbEntity
  8
0
  6
Continuous
 62
     7
370
    25
100
AcDbLine
 10
-269.1803101013
 20
810.0
 30
0.0
 11
-269.1803101013
 21
350.0
 31
0.0
  0
LINE
  5
1A0
330
1F
100
AcDbEntity
  8
0
  6
Continuous
 62
     7
370
    25
100
AcDbLine
 10
340.8196898987
 20
870.0
 30
0.0
 11
-209.1803101013
 21
870.0
 31
0.0
  0
LINE
  5
1A1
330
1F
100
AcDbEntity
  8
0
  6
Continuous
 62
     7
370
    25
100
AcDbLine
 10
340.8196898987
 20
860.0
 30
0.0
 11
340.8196898987
 21
870.0
 31
0.0
  0
LINE
  5
1A2
330
1F
100
AcDbEntity
  8
0
  6
Continuous
 62
     7
370
    25
100
AcDbLine
 10
390.8196898987
 20
860.0
 30
0.0
 11
340.8196898987
 21
860.0
 31
0.0
  0
LINE
  5
1A3
330
1F
100
AcDbEntity
  8
0
  6
Continuous
 62
     7
370
    25
100
AcDbLine
 10
390.8196898987
 20
0.0
 30
0.0
 11
390.8196898987
 21
860.0
 31
0.0
  0
LINE
  5
1A4
330
1F
100
AcDbEntity
  8
0
  6
Continuous
 62
     7
370
    25
100
AcDbLine
 10
-666.8196898987
 20
0.0
 30
0.0
 11
-666.8196898987
 21
350.0
 31
0.0
  0
LINE
  5
1A5
330
1F
100
AcDbEntity
  8
0
  6
Continuous
 62
     7
370
    25
100
AcDbLine
 10
390.8196898987
 20
0.0
 30
0.0
 11
-666.8196898987
 21
0.0
 31
0.0
  0
ARC
  5
1A6
330
1F
100
AcDbEntity
  8
0
  6
Continuous
 62
     7
370
    25
100
AcDbCircle
 10
-209.1803101013
 20
810.0
 30
0.0
 40
60.00000000000011
100
AcDbArc
 50
90.0
 51
180.0
  0
MTEXT
  5
1A8
330
1F
100
AcDbEntity
  8
0
  6
Continuous
 62
     7
100
AcDbMText
 10
-666.8196898987
 20
-1.0195663917
 30
0.0
 40
4.83362
 41
0.0
 71
     1
 72
     1
  1
SOLIDWORKS Educational Product.
  7
SLDTEXTSTYLE0
 73
     1
 44
1.0
  0
MTEXT
  5
1A9
330
1F
100
AcDbEntity
  8
0
  6
Continuous
 62
     7
100
AcDbMText
 10
-666.8196898987
 20
-8.2699963917
 30
0.0
 40
4.83362
 41
0.0
 71
     1
 72
     1
  1
For Instructional Use Only.
  7
SLDTEXTSTYLE0
 73
     1
 44
1.0
  0
ENDSEC
  0
SECTION
  2
OBJECTS
  0
DICTIONARY
  5
C
330
0
100
AcDbDictionary
281
     1
  3
ACAD_GROUP
350
D
  3
ACAD_LAYOUT
350
1A
  3
ACAD_MLINESTYLE
350
17
  3
ACAD_PLOTSETTINGS
350
19
  3
ACAD_PLOTSTYLENAME
350
E
  3
ACAD_SCALELIST
350
47
  3
DWGPROPS
350
1AA
  0
DICTIONARY
  5
D
102
{ACAD_REACTORS
330
C
102
}
330
C
100
AcDbDictionary
281
     1
  0
DICTIONARY
  5
1A
102
{ACAD_REACTORS
330
C
102
}
330
C
100
AcDbDictionary
281
     1
  3
Layout1
350
1E
  3
Layout2
350
26
  3
Model
350
22
  0
DICTIONARY
  5
17
102
{ACAD_REACTORS
330
C
102
}
330
C
100
AcDbDictionary
281
     1
  3
Standard
350
18
  0
DICTIONARY
  5
19
102
{ACAD_REACTORS
330
C
102
}
330
C
100
AcDbDictionary
281
     1
  0
ACDBDICTIONARYWDFLT
  5
E
102
{ACAD_REACTORS
330
C
102
}
330
C
100
AcDbDictionary
281
     1
  3
Normal
350
F
100
AcDbDictionaryWithDefault
340
F
  0
DICTIONARY
  5
47
102
{ACAD_REACTORS
330
C
102
}
330
C
100
AcDbDictionary
281
     1
  3
A0
350
48
  3
A1
350
49
  3
A2
350
4A
  3
A3
350
4B
  3
A4
350
4C
  3
A5
350
4D
  3
A6
350
4E
  3
A7
350
4F
  3
A8
350
50
  3
A9
350
51
  3
B0
350
52
  3
B1
350
53
  3
B2
350
54
  3
B3
350
55
  3
B4
350
56
  3
B5
350
57
  3
B6
350
58
  0
XRECORD
  5
1AA
102
{ACAD_REACTORS
330
C
102
}
330
C
100
AcDbXrecord
280
     1
  1
DWGPROPS COOKIE
  2

  3

  4

  6

  7

  8
anast
  9

300
=
301
=
302
=
303
=
304
=
305
=
306
=
307
=
308
=
309
=
 40
0.0
 41
2460812.726636574
 42
2460812.72670794
  1

 90
        0
  0
LAYOUT
  5
1E
102
{ACAD_REACTORS
330
1A
102
}
330
1A
100
AcDbPlotSettings
  1

  2
none_device
  4

  6

 40
0.0
 41
0.0
 42
0.0
 43
0.0
 44
0.0
 45
0.0
 46
0.0
 47
0.0
 48
0.0
 49
0.0
140
0.0
141
0.0
142
1.0
143
1.0
 70
   688
 72
     1
 73
     0
 74
     5
  7

 75
    16
147
1.0
148
0.0
149
0.0
100
AcDbLayout
  1
Layout1
 70
     1
 71
     1
 10
0.0
 20
0.0
 11
420.0
 21
297.0
 12
0.0
 22
0.0
 32
0.0
 14
1.0000000000E+20
 24
1.0000000000E+20
 34
1.0000000000E+20
 15
-1.0000000000E+20
 25
-1.0000000000E+20
 35
-1.0000000000E+20
146
0.0
 13
0.0
 23
0.0
 33
0.0
 16
1.0
 26
0.0
 36
0.0
 17
0.0
 27
1.0
 37
0.0
 76
     0
330
1B
  0
LAYOUT
  5
26
102
{ACAD_REACTORS
330
1A
102
}
330
1A
100
AcDbPlotSettings
  1

  2
none_device
  4

  6

 40
0.0
 41
0.0
 42
0.0
 43
0.0
 44
0.0
 45
0.0
 46
0.0
 47
0.0
 48
0.0
 49
0.0
140
0.0
141
0.0
142
1.0
143
1.0
 70
   688
 72
     1
 73
     0
 74
     5
  7

 75
    16
147
1.0
148
0.0
149
0.0
100
AcDbLayout
  1
Layout2
 70
     1
 71
     2
 10
0.0
 20
0.0
 11
0.0
 21
0.0
 12
0.0
 22
0.0
 32
0.0
 14
0.0
 24
0.0
 34
0.0
 15
0.0
 25
0.0
 35
0.0
146
0.0
 13
0.0
 23
0.0
 33
0.0
 16
1.0
 26
0.0
 36
0.0
 17
0.0
 27
1.0
 37
0.0
 76
     0
330
23
  0
LAYOUT
  5
22
102
{ACAD_REACTORS
330
1A
102
}
330
1A
100
AcDbPlotSettings
  1

  2
none_device
  4
ANSI_A_(11.00_x_8.50_Inches)
  6

 40
6.35
 41
19.05
 42
6.35000508
 43
19.05000254
 44
279.4
 45
215.9
 46
167.2537422876
 47
-17.97050127
 48
0.0
 49
0.0
140
0.0
141
0.0
142
0.0096724138
143
1.0
 70
  1696
 72
     0
 73
     0
 74
     0
  7

 75
     0
147
0.0179189148
148
-1300.4909072572
149
0.0
100
AcDbLayout
  1
Model
 70
     1
 71
     0
 10
0.0
 20
0.0
 11
420.0
 21
297.0
 12
0.0
 22
0.0
 32
0.0
 14
-666.8196898987
 24
0.0
 34
0.0
 15
390.8196898987
 25
870.0
 35
0.0
146
0.0
 13
0.0
 23
0.0
 33
0.0
 16
1.0
 26
0.0
 36
0.0
 17
0.0
 27
1.0
 37
0.0
 76
     0
330
1F
331
29
  0
MLINESTYLE
  5
18
102
{ACAD_REACTORS
330
17
102
}
330
17
100
AcDbMlineStyle
  2
Standard
 70
     0
  3

 62
   256
 51
90.0
 52
90.0
 71
     2
 49
0.5
 62
   256
  6
BYLAYER
 49
-0.5
 62
   256
  6
BYLAYER
  0
ACDBPLACEHOLDER
  5
F
102
{ACAD_REACTORS
330
E
102
}
330
E
  0
SCALE
  5
48
102
{ACAD_REACTORS
330
47
102
}
330
47
100
AcDbScale
 70
     0
300
1:1
140
1.0
141
1.0
290
     1
  0
SCALE
  5
49
102
{ACAD_REACTORS
330
47
102
}
330
47
100
AcDbScale
 70
     0
300
1:2
140
1.0
141
2.0
290
     0
  0
SCALE
  5
4A
102
{ACAD_REACTORS
330
47
102
}
330
47
100
AcDbScale
 70
     0
300
1:4
140
1.0
141
4.0
290
     0
  0
SCALE
  5
4B
102
{ACAD_REACTORS
330
47
102
}
330
47
100
AcDbScale
 70
     0
300
1:5
140
1.0
141
5.0
290
     0
  0
SCALE
  5
4C
102
{ACAD_REACTORS
330
47
102
}
330
47
100
AcDbScale
 70
     0
300
1:8
140
1.0
141
8.0
290
     0
  0
SCALE
  5
4D
102
{ACAD_REACTORS
330
47
102
}
330
47
100
AcDbScale
 70
     0
300
1:10
140
1.0
141
10.0
290
     0
  0
SCALE
  5
4E
102
{ACAD_REACTORS
330
47
102
}
330
47
100
AcDbScale
 70
     0
300
1:16
140
1.0
141
16.0
290
     0
  0
SCALE
  5
4F
102
{ACAD_REACTORS
330
47
102
}
330
47
100
AcDbScale
 70
     0
300
1:20
140
1.0
141
20.0
290
     0
  0
SCALE
  5
50
102
{ACAD_REACTORS
330
47
102
}
330
47
100
AcDbScale
 70
     0
300
1:30
140
1.0
141
30.0
290
     0
  0
SCALE
  5
51
102
{ACAD_REACTORS
330
47
102
}
330
47
100
AcDbScale
 70
     0
300
1:40
140
1.0
141
40.0
290
     0
  0
SCALE
  5
52
102
{ACAD_REACTORS
330
47
102
}
330
47
100
AcDbScale
 70
     0
300
1:50
140
1.0
141
50.0
290
     0
  0
SCALE
  5
53
102
{ACAD_REACTORS
330
47
102
}
330
47
100
AcDbScale
 70
     0
300
1:100
140
1.0
141
100.0
290
     0
  0
SCALE
  5
54
102
{ACAD_REACTORS
330
47
102
}
330
47
100
AcDbScale
 70
     0
300
2:1
140
2.0
141
1.0
290
     0
  0
SCALE
  5
55
102
{ACAD_REACTORS
330
47
102
}
330
47
100
AcDbScale
 70
     0
300
4:1
140
4.0
141
1.0
290
     0
  0
SCALE
  5
56
102
{ACAD_REACTORS
330
47
102
}
330
47
100
AcDbScale
 70
     0
300
8:1
140
8.0
141
1.0
290
     0
  0
SCALE
  5
57
102
{ACAD_REACTORS
330
47
102
}
330
47
100
AcDbScale
 70
     0
300
10:1
140
10.0
141
1.0
290
     0
  0
SCALE
  5
58
102
{ACAD_REACTORS
330
47
102
}
330
47
100
AcDbScale
 70
     0
300
100:1
140
100.0
141
1.0
290
     0
  0
ENDSEC
  0
EOF
