  0
SECTION
  2
HEADER
  9
$ACADVER
  1
AC1015
  9
$ACADMAINTVER
 70
     6
  9
$DWGCODEPAGE
  3
ANSI_1252
  9
$INSBASE
 10
0.0
 20
0.0
 30
0.0
  9
$EXTMIN
 10
-609.3196898987
 20
0.0
 30
0.0
  9
$EXTMAX
 10
298.3196898987
 20
840.0
 30
0.0
  9
$LIMMIN
 10
0.0
 20
0.0
  9
$LIMMAX
 10
420.0
 20
297.0
  9
$ORTHOMODE
 70
     0
  9
$REGENMODE
 70
     1
  9
$FILLMODE
 70
     1
  9
$QTEXTMODE
 70
     0
  9
$MIRRTEXT
 70
     1
  9
$LTSCALE
 40
1.0
  9
$ATTMODE
 70
     1
  9
$TEXTSIZE
 40
3.5
  9
$TRACEWID
 40
1.0
  9
$TEXTSTYLE
  7
Standard
  9
$CLAYER
  8
0
  9
$CELTYPE
  6
ByLayer
  9
$CECOLOR
 62
   256
  9
$CELTSCALE
 40
1.0
  9
$DISPSILH
 70
     0
  9
$DIMSCALE
 40
1.0
  9
$DIMASZ
 40
3.302
  9
$DIMEXO
 40
0.0
  9
$DIMDLI
 40
3.75
  9
$DIMRND
 40
0.0
  9
$DIMDLE
 40
0.0
  9
$DIMEXE
 40
1.0
  9
$DIMTP
 40
0.0
  9
$DIMTM
 40
0.0
  9
$DIMTXT
 40
3.5
  9
$DIMCEN
 40
2.5
  9
$DIMTSZ
 40
0.0
  9
$DIMTOL
 70
     0
  9
$DIMLIM
 70
     0
  9
$DIMTIH
 70
     1
  9
$DIMTOH
 70
     1
  9
$DIMSE1
 70
     0
  9
$DIMSE2
 70
     0
  9
$DIMTAD
 70
     1
  9
$DIMZIN
 70
     1
  9
$DIMBLK
  1

  9
$DIMASO
 70
     1
  9
$DIMSHO
 70
     1
  9
$DIMPOST
  1

  9
$DIMAPOST
  1

  9
$DIMALT
 70
     0
  9
$DIMALTD
 70
     3
  9
$DIMALTF
 40
0.0393700787
  9
$DIMLFAC
 40
1.0
  9
$DIMTOFL
 70
     1
  9
$DIMTVP
 40
0.0
  9
$DIMTIX
 70
     0
  9
$DIMSOXD
 70
     0
  9
$DIMSAH
 70
     0
  9
$DIMBLK1
  1

  9
$DIMBLK2
  1

  9
$DIMSTYLE
  2
ISO-25
  9
$DIMCLRD
 70
     0
  9
$DIMCLRE
 70
     0
  9
$DIMCLRT
 70
     0
  9
$DIMTFAC
 40
1.0
  9
$DIMGAP
 40
1.524
  9
$DIMJUST
 70
     0
  9
$DIMSD1
 70
     0
  9
$DIMSD2
 70
     0
  9
$DIMTOLJ
 70
     0
  9
$DIMTZIN
 70
     1
  9
$DIMALTZ
 70
     0
  9
$DIMALTTZ
 70
     0
  9
$DIMUPT
 70
     0
  9
$DIMDEC
 70
     2
  9
$DIMTDEC
 70
     2
  9
$DIMALTU
 70
     2
  9
$DIMALTTD
 70
     3
  9
$DIMTXSTY
  7
Standard
  9
$DIMAUNIT
 70
     0
  9
$DIMADEC
 70
     2
  9
$DIMALTRND
 40
0.0
  9
$DIMAZIN
 70
     0
  9
$DIMDSEP
 70
    44
  9
$DIMATFIT
 70
     3
  9
$DIMFRAC
 70
     0
  9
$DIMLDRBLK
  1

  9
$DIMLUNIT
 70
     2
  9
$DIMLWD
 70
    -2
  9
$DIMLWE
 70
    -2
  9
$DIMTMOVE
 70
     0
  9
$LUNITS
 70
     2
  9
$LUPREC
 70
     6
  9
$SKETCHINC
 40
1.0
  9
$FILLETRAD
 40
0.0
  9
$AUNITS
 70
     0
  9
$AUPREC
 70
     2
  9
$MENU
  1
.
  9
$ELEVATION
 40
0.0
  9
$PELEVATION
 40
0.0
  9
$THICKNESS
 40
0.0
  9
$LIMCHECK
 70
     0
  9
$CHAMFERA
 40
0.0
  9
$CHAMFERB
 40
0.0
  9
$CHAMFERC
 40
0.0
  9
$CHAMFERD
 40
0.0
  9
$SKPOLY
 70
     0
  9
$TDCREATE
 40
2460812.800054919
  9
$TDUCREATE
 40
2460812.716721586
  9
$TDUPDATE
 40
2460812.800156644
  9
$TDUUPDATE
 40
2460812.71682331
  9
$TDINDWG
 40
0.0000000116
  9
$TDUSRTIMER
 40
0.0000000116
  9
$USRTIMER
 70
     1
  9
$ANGBASE
 50
0.0
  9
$ANGDIR
 70
     0
  9
$PDMODE
 70
     0
  9
$PDSIZE
 40
-1.0
  9
$PLINEWID
 40
0.0
  9
$SPLFRAME
 70
     0
  9
$SPLINETYPE
 70
     6
  9
$SPLINESEGS
 70
     8
  9
$HANDSEED
  5
1ED
  9
$SURFTAB1
 70
     6
  9
$SURFTAB2
 70
     6
  9
$SURFTYPE
 70
     6
  9
$SURFU
 70
     6
  9
$SURFV
 70
     6
  9
$UCSBASE
  2

  9
$UCSNAME
  2

  9
$UCSORG
 10
0.0
 20
0.0
 30
0.0
  9
$UCSXDIR
 10
1.0
 20
0.0
 30
0.0
  9
$UCSYDIR
 10
0.0
 20
1.0
 30
0.0
  9
$UCSORTHOREF
  2

  9
$UCSORTHOVIEW
 70
     0
  9
$UCSORGTOP
 10
0.0
 20
0.0
 30
0.0
  9
$UCSORGBOTTOM
 10
0.0
 20
0.0
 30
0.0
  9
$UCSORGLEFT
 10
0.0
 20
0.0
 30
0.0
  9
$UCSORGRIGHT
 10
0.0
 20
0.0
 30
0.0
  9
$UCSORGFRONT
 10
0.0
 20
0.0
 30
0.0
  9
$UCSORGBACK
 10
0.0
 20
0.0
 30
0.0
  9
$PUCSBASE
  2

  9
$PUCSNAME
  2

  9
$PUCSORG
 10
0.0
 20
0.0
 30
0.0
  9
$PUCSXDIR
 10
1.0
 20
0.0
 30
0.0
  9
$PUCSYDIR
 10
0.0
 20
1.0
 30
0.0
  9
$PUCSORTHOREF
  2

  9
$PUCSORTHOVIEW
 70
     0
  9
$PUCSORGTOP
 10
0.0
 20
0.0
 30
0.0
  9
$PUCSORGBOTTOM
 10
0.0
 20
0.0
 30
0.0
  9
$PUCSORGLEFT
 10
0.0
 20
0.0
 30
0.0
  9
$PUCSORGRIGHT
 10
0.0
 20
0.0
 30
0.0
  9
$PUCSORGFRONT
 10
0.0
 20
0.0
 30
0.0
  9
$PUCSORGBACK
 10
0.0
 20
0.0
 30
0.0
  9
$USERI1
 70
     0
  9
$USERI2
 70
     0
  9
$USERI3
 70
     0
  9
$USERI4
 70
     0
  9
$USERI5
 70
     0
  9
$USERR1
 40
0.0
  9
$USERR2
 40
0.0
  9
$USERR3
 40
0.0
  9
$USERR4
 40
0.0
  9
$USERR5
 40
0.0
  9
$WORLDVIEW
 70
     1
  9
$SHADEDGE
 70
     3
  9
$SHADEDIF
 70
    70
  9
$TILEMODE
 70
     1
  9
$MAXACTVP
 70
    64
  9
$PINSBASE
 10
0.0
 20
0.0
 30
0.0
  9
$PLIMCHECK
 70
     0
  9
$PEXTMIN
 10
1.0000000000E+20
 20
1.0000000000E+20
 30
1.0000000000E+20
  9
$PEXTMAX
 10
-1.0000000000E+20
 20
-1.0000000000E+20
 30
-1.0000000000E+20
  9
$PLIMMIN
 10
0.0
 20
0.0
  9
$PLIMMAX
 10
420.0
 20
297.0
  9
$UNITMODE
 70
     0
  9
$VISRETAIN
 70
     1
  9
$PLINEGEN
 70
     0
  9
$PSLTSCALE
 70
     1
  9
$TREEDEPTH
 70
  3020
  9
$CMLSTYLE
  2
Standard
  9
$CMLJUST
 70
     0
  9
$CMLSCALE
 40
20.0
  9
$PROXYGRAPHICS
 70
     1
  9
$MEASUREMENT
 70
     1
  9
$CELWEIGHT
370
    -1
  9
$ENDCAPS
280
     0
  9
$JOINSTYLE
280
     0
  9
$LWDISPLAY
290
     1
  9
$INSUNITS
 70
     4
  9
$HYPERLINKBASE
  1

  9
$STYLESHEET
  1

  9
$XEDIT
290
     1
  9
$CEPSNTYPE
380
     0
  9
$PSTYLEMODE
290
     1
  9
$FINGERPRINTGUID
  2
{be910044-7ffe-4f22-924d-88c5cdf548e2}
  9
$VERSIONGUID
  2
{FAEB1C32-E019-11D5-929B-00C0DF256EC4}
  9
$EXTNAMES
290
     1
  9
$PSVPSCALE
 40
0.0
  9
$OLESTARTUP
290
     0
  0
ENDSEC
  0
SECTION
  2
CLASSES
  0
CLASS
  1
ACDBDICTIONARYWDFLT
  2
AcDbDictionaryWithDefault
  3
ObjectDBX Classes
 90
        0
280
     0
281
     0
  0
CLASS
  1
VISUALSTYLE
  2
AcDbVisualStyle
  3
ObjectDBX Classes
 90
     4095
280
     0
281
     0
  0
CLASS
  1
MATERIAL
  2
AcDbMaterial
  3
ObjectDBX Classes
 90
     1153
280
     0
281
     0
  0
CLASS
  1
SCALE
  2
AcDbScale
  3
ObjectDBX Classes
 90
     1153
280
     0
281
     0
  0
CLASS
  1
TABLESTYLE
  2
AcDbTableStyle
  3
ObjectDBX Classes
 90
     4095
280
     0
281
     0
  0
CLASS
  1
MLEADERSTYLE
  2
AcDbMLeaderStyle
  3
ACDB_MLEADERSTYLE_CLASS
 90
     4095
280
     0
281
     0
  0
CLASS
  1
SUN
  2
AcDbSun
  3
SCENEOE
 90
     1153
280
     0
281
     0
  0
CLASS
  1
ACDBPLACEHOLDER
  2
AcDbPlaceHolder
  3
ObjectDBX Classes
 90
        0
280
     0
281
     0
  0
CLASS
  1
LAYOUT
  2
AcDbLayout
  3
ObjectDBX Classes
 90
        0
280
     0
281
     0
  0
ENDSEC
  0
SECTION
  2
TABLES
  0
TABLE
  2
VPORT
  5
8
330
0
100
AcDbSymbolTable
 70
     1
  0
VPORT
  5
29
330
8
100
AcDbSymbolTableRecord
100
AcDbViewportTableRecord
  2
*Active
 70
     0
 10
0.0
 20
0.0
 11
1.0
 21
1.0
 12
-155.5
 22
420.0
 13
0.0
 23
0.0
 14
10.0
 24
10.0
 15
10.0
 25
10.0
 16
0.0
 26
0.0
 36
1.0
 17
0.0
 27
0.0
 37
0.0
 40
856.8
 41
1.0805230712
 42
50.0
 43
0.0
 44
0.0
 50
0.0
 51
0.0
 71
     0
 72
   100
 73
     1
 74
     3
 75
     0
 76
     0
 77
     0
 78
     0
281
     0
 65
     1
110
0.0
120
0.0
130
0.0
111
1.0
121
0.0
131
0.0
112
0.0
122
1.0
132
0.0
 79
     0
146
0.0
  0
ENDTAB
  0
TABLE
  2
LTYPE
  5
5
330
0
100
AcDbSymbolTable
 70
     6
  0
LTYPE
  5
14
330
5
100
AcDbSymbolTableRecord
100
AcDbLinetypeTableRecord
  2
ByBlock
 70
     0
  3

 72
    65
 73
     0
 40
0.0
  0
LTYPE
  5
15
330
5
100
AcDbSymbolTableRecord
100
AcDbLinetypeTableRecord
  2
ByLayer
 70
     0
  3

 72
    65
 73
     0
 40
0.0
  0
LTYPE
  5
16
330
5
100
AcDbSymbolTableRecord
100
AcDbLinetypeTableRecord
  2
Continuous
 70
     0
  3
Solid line
 72
    65
 73
     0
 40
0.0
  0
LTYPE
  5
5E
330
5
100
AcDbSymbolTableRecord
100
AcDbLinetypeTableRecord
  2
HIDDEN
 70
     0
  3
Hidden __ __ __ __ __ __ __ __ __ __ __ __ __ __
 72
    65
 73
     2
 40
1.905
 49
1.27
 74
     0
 49
-0.635
 74
     0
  0
LTYPE
  5
5F
330
5
100
AcDbSymbolTableRecord
100
AcDbLinetypeTableRecord
  2
PHANTOM
 70
     0
  3
Phantom ______  __  __  ______  __  __  ______
 72
    65
 73
     6
 40
12.7
 49
6.35
 74
     0
 49
-1.27
 74
     0
 49
1.27
 74
     0
 49
-1.27
 74
     0
 49
1.27
 74
     0
 49
-1.27
 74
     0
  0
LTYPE
  5
60
330
5
100
AcDbSymbolTableRecord
100
AcDbLinetypeTableRecord
  2
CENTER
 70
     0
  3
Center ____ _ ____ _ ____ _ ____ _ ____ _ ____
 72
    65
 73
     4
 40
10.16
 49
6.35
 74
     0
 49
-1.27
 74
     0
 49
1.27
 74
     0
 49
-1.27
 74
     0
  0
LTYPE
  5
61
330
5
100
AcDbSymbolTableRecord
100
AcDbLinetypeTableRecord
  2
CENTERX2
 70
     0
  3
Center (2x) ________  __  ________  __  _____
 72
    65
 73
     4
 40
20.32
 49
12.7
 74
     0
 49
-2.54
 74
     0
 49
2.54
 74
     0
 49
-2.54
 74
     0
  0
LTYPE
  5
62
330
5
100
AcDbSymbolTableRecord
100
AcDbLinetypeTableRecord
  2
DOT2
 70
     0
  3
Dot (.5x) ........................................
 72
    65
 73
     2
 40
0.635
 49
0.0
 74
     0
 49
-0.635
 74
     0
  0
ENDTAB
  0
TABLE
  2
LAYER
  5
2
330
0
100
AcDbSymbolTable
 70
     1
  0
LAYER
  5
10
330
2
100
AcDbSymbolTableRecord
100
AcDbLayerTableRecord
  2
0
 70
     0
 62
     7
  6
Continuous
370
    -3
390
F
  0
ENDTAB
  0
TABLE
  2
STYLE
  5
3
330
0
100
AcDbSymbolTable
 70
     2
  0
STYLE
  5
11
330
3
100
AcDbSymbolTableRecord
100
AcDbTextStyleTableRecord
  2
Standard
 70
     0
 40
0.0
 41
1.0
 50
0.0
 71
     0
 42
3.5
  3
txt
  4

  0
STYLE
  5
1E9
330
3
100
AcDbSymbolTableRecord
100
AcDbTextStyleTableRecord
  2
SLDTEXTSTYLE0
 70
     0
 40
0.0
 41
0.7
 50
0.0
 71
     0
 42
3.5
  3
TXT
  4

  0
ENDTAB
  0
TABLE
  2
VIEW
  5
6
330
0
100
AcDbSymbolTable
 70
     0
  0
ENDTAB
  0
TABLE
  2
UCS
  5
7
330
0
100
AcDbSymbolTable
 70
     0
  0
ENDTAB
  0
TABLE
  2
APPID
  5
9
330
0
100
AcDbSymbolTable
 70
     1
  0
APPID
  5
12
330
9
100
AcDbSymbolTableRecord
100
AcDbRegAppTableRecord
  2
ACAD
 70
     0
  0
ENDTAB
  0
TABLE
  2
DIMSTYLE
  5
A
330
0
100
AcDbSymbolTable
 70
     1
100
AcDbDimStyleTable
  0
DIMSTYLE
105
27
330
A
100
AcDbSymbolTableRecord
100
AcDbDimStyleTableRecord
  2
ISO-25
 70
     0
 41
2.5
 42
0.625
 43
3.75
 44
1.25
 73
     0
 74
     0
 77
     1
 78
     8
140
2.5
141
2.5
143
0.0393700787
147
0.625
171
     3
172
     1
178
     0
271
     2
272
     2
274
     3
278
    44
283
     0
284
     8
340
11
  0
ENDTAB
  0
TABLE
  2
BLOCK_RECORD
  5
1
330
0
100
AcDbSymbolTable
 70
     1
  0
BLOCK_RECORD
  5
1F
330
1
100
AcDbSymbolTableRecord
100
AcDbBlockTableRecord
  2
*Model_Space
340
22
  0
BLOCK_RECORD
  5
1B
330
1
100
AcDbSymbolTableRecord
100
AcDbBlockTableRecord
  2
*Paper_Space
340
1E
  0
BLOCK_RECORD
  5
23
330
1
100
AcDbSymbolTableRecord
100
AcDbBlockTableRecord
  2
*Paper_Space0
340
26
  0
ENDTAB
  0
ENDSEC
  0
SECTION
  2
BLOCKS
  0
BLOCK
  5
20
330
1F
100
AcDbEntity
  8
0
100
AcDbBlockBegin
  2
*Model_Space
 70
     0
 10
0.0
 20
0.0
 30
0.0
  3
*Model_Space
  1

  0
ENDBLK
  5
21
330
1F
100
AcDbEntity
  8
0
100
AcDbBlockEnd
  0
BLOCK
  5
1C
330
1B
100
AcDbEntity
 67
     1
  8
0
100
AcDbBlockBegin
  2
*Paper_Space
 70
     0
 10
0.0
 20
0.0
 30
0.0
  3
*Paper_Space
  1

  0
ENDBLK
  5
1D
330
1B
100
AcDbEntity
 67
     1
  8
0
100
AcDbBlockEnd
  0
BLOCK
  5
24
330
23
100
AcDbEntity
  8
0
100
AcDbBlockBegin
  2
*Paper_Space0
 70
     0
 10
0.0
 20
0.0
 30
0.0
  3
*Paper_Space0
  1

  0
ENDBLK
  5
25
330
23
100
AcDbEntity
  8
0
100
AcDbBlockEnd
  0
ENDSEC
  0
SECTION
  2
ENTITIES
  0
LINE
  5
63
330
1F
100
AcDbEntity
  8
0
  6
Continuous
 62
     7
100
AcDbLine
 10
-1.8401550507
 20
0.0
 30
0.0
 11
-1.8401550507
 21
300.0
 31
0.0
  0
LINE
  5
64
330
1F
100
AcDbEntity
  8
0
  6
HIDDEN
 62
     7
100
AcDbLine
 10
-250.6598449493
 20
300.0
 30
0.0
 11
-250.6598449493
 21
280.0
 31
0.0
  0
SPLINE
  5
73
330
1F
100
AcDbEntity
  8
0
  6
Continuous
 62
     7
370
    25
100
AcDbSpline
210
0.0
220
0.0
230
1.0
 70
     8
 71
     3
 72
    13
 73
     9
 74
     0
 42
0.00000001
 43
0.00000001
 40
0.0
 40
0.0
 40
0.0
 40
0.0
 40
0.3336012413919295
 40
0.4791571975344256
 40
0.6105404974279318
 40
0.7289476063657787
 40
0.8323849228168392
 40
1.0
 40
1.0
 40
1.0
 40
1.0
 10
158.2586462873429
 20
24.92204189852743
 30
0.0
 10
158.2591147032766
 20
24.99868541693295
 30
0.0
 10
158.2589422739148
 20
25.10885700586496
 30
0.0
 10
158.2654944844452
 20
25.24901644430255
 30
0.0
 10
158.2697937149706
 20
25.33977592152248
 30
0.0
 10
158.276857900994
 20
25.42066237436424
 30
0.0
 10
158.2872305777078
 20
25.50956684385797
 30
0.0
 10
158.297668377049
 20
25.57104236674201
 30
0.0
 10
158.307023691189
 20
25.60844013570696
 30
0.0
  0
SPLINE
  5
74
330
1F
100
AcDbEntity
  8
0
  6
Continuous
 62
     7
370
    25
100
AcDbSpline
210
0.0
220
0.0
230
1.0
 70
     8
 71
     3
 72
    21
 73
    17
 74
     0
 42
0.00000001
 43
0.00000001
 40
0.0
 40
0.0
 40
0.0
 40
0.0
 40
0.1238830745189146
 40
0.1847816479826848
 40
0.2456024656876798
 40
0.3070653910745305
 40
0.3692286662507878
 40
0.4320259048597126
 40
0.4970795873926179
 40
0.5618524691217699
 40
0.6254263815420402
 40
0.6876488370376828
 40
0.7497698060395667
 40
0.8110156280184817
 40
0.8733731419104944
 40
1.0
 40
1.0
 40
1.0
 40
1.0
 10
158.307023691189
 20
25.60844013570696
 30
0.0
 10
158.319612993111
 20
25.65569698386994
 30
0.0
 10
158.3440375449609
 20
25.72472917382285
 30
0.0
 10
158.3875590781684
 20
25.81146124613143
 30
0.0
 10
158.4247148204362
 20
25.87359888840224
 30
0.0
 10
158.46778960307
 20
25.93239726131846
 30
0.0
 10
158.5153259601072
 20
25.98867329616905
 30
0.0
 10
158.5686547534893
 20
26.04151767984064
 30
0.0
 10
158.625967435495
 20
26.09159695507401
 30
0.0
 10
158.6875708634214
 20
26.13678743593817
 30
0.0
 10
158.7510776303932
 20
26.17733612933804
 30
0.0
 10
158.8178418811565
 20
26.20986375541911
 30
0.0
 10
158.8853498320864
 20
26.23853246283259
 30
0.0
 10
158.9557694568884
 20
26.25937726077099
 30
0.0
 10
159.0524069120146
 20
26.28026809934858
 30
0.0
 10
159.1271406980736
 20
26.28596293974872
 30
0.0
 10
159.1771158386249
 20
26.28572378955307
 30
0.0
  0
SPLINE
  5
75
330
1F
100
AcDbEntity
  8
0
  6
Continuous
 62
     7
370
    25
100
AcDbSpline
210
0.0
220
0.0
230
1.0
 70
     8
 71
     3
 72
    13
 73
     9
 74
     0
 42
0.00000001
 43
0.00000001
 40
0.0
 40
0.0
 40
0.0
 40
0.0
 40
0.2700189621433429
 40
0.3907190350710782
 40
0.5068223535253182
 40
0.6215239708754532
 40
0.7391668368063029
 40
1.0
 40
1.0
 40
1.0
 40
1.0
 10
159.1771158386249
 20
26.28572378955307
 30
0.0
 10
159.2587672050074
 20
26.28618792711524
 30
0.0
 10
159.3778989597047
 20
26.2728665793156
 30
0.0
 10
159.5223196497877
 20
26.2186426622264
 30
0.0
 10
159.6135590605755
 20
26.16252185810153
 30
0.0
 10
159.6914071379108
 20
26.0903259733154
 30
0.0
 10
159.7796731558385
 20
25.96874851511166
 30
0.0
 10
159.8193491465349
 20
25.85912498238851
 30
0.0
 10
159.8368714475993
 20
25.78231834083511
 30
0.0
  0
SPLINE
  5
76
330
1F
100
AcDbEntity
  8
0
  6
Continuous
 62
     7
370
    25
100
AcDbSpline
210
0.0
220
0.0
230
1.0
 70
     8
 71
     3
 72
    13
 73
     9
 74
     0
 42
0.00000001
 43
0.00000001
 40
0.0
 40
0.0
 40
0.0
 40
0.0
 40
0.1585173269300211
 40
0.2599203239142082
 40
0.3767455717754368
 40
0.5101743366316052
 40
0.657890351057701
 40
1.0
 40
1.0
 40
1.0
 40
1.0
 10
159.8368714475993
 20
25.78231834083511
 30
0.0
 10
159.84393408248
 20
25.75226241554118
 30
0.0
 10
159.8523991625829
 20
25.7022992784558
 30
0.0
 10
159.8597508928886
 20
25.62930274819142
 30
0.0
 10
159.8655487786855
 20
25.56107309707789
 30
0.0
 10
159.8694926417919
 20
25.48367445584443
 30
0.0
 10
159.8734249622752
 20
25.36238149864967
 30
0.0
 10
159.8735363308442
 20
25.26699029942159
 30
0.0
 10
159.8740309027274
 20
25.20038725109153
 30
0.0
  0
SPLINE
  5
7A
330
1F
100
AcDbEntity
  8
0
  6
Continuous
 62
     7
370
    25
100
AcDbSpline
210
0.0
220
0.0
230
1.0
 70
     8
 71
     3
 72
    21
 73
    17
 74
     0
 42
0.00000001
 43
0.00000001
 40
0.0
 40
0.0
 40
0.0
 40
0.0
 40
0.1317255445271741
 40
0.1906683746814265
 40
0.2451968850948476
 40
0.2955087738855862
 40
0.3412437630224658
 40
0.3833864553034254
 40
0.4214402664762985
 40
0.492956384356707
 40
0.5628694745136158
 40
0.6330237453801784
 40
0.7044573558011064
 40
0.7765120161995835
 40
0.8488218595336068
 40
1.0
 40
1.0
 40
1.0
 40
1.0
 10
160.18813346683
 20
25.30345215493768
 30
0.0
 10
160.1889134193651
 20
25.38413885812785
 30
0.0
 10
160.1850726744481
 20
25.5009298255694
 30
0.0
 10
160.1734399065989
 20
25.65065640262198
 30
0.0
 10
160.1628789418526
 20
25.75045459431779
 30
0.0
 10
160.1472433697929
 20
25.84139418229425
 30
0.0
 10
160.1292132816938
 20
25.92411233611747
 30
0.0
 10
160.1079807364744
 20
25.99835907773041
 30
0.0
 10
160.0742551436765
 20
26.08504790815469
 30
0.0
 10
160.0230577778401
 20
26.18277081267983
 30
0.0
 10
159.9466944438261
 20
26.28810791152469
 30
0.0
 10
159.8543699438006
 20
26.37968190590656
 30
0.0
 10
159.7492413832618
 20
26.45830281336048
 30
0.0
 10
159.6326269243716
 20
26.52146029663727
 30
0.0
 10
159.4620551241454
 20
26.58421210459694
 30
0.0
 10
159.3241789841322
 20
26.59921457848768
 30
0.0
 10
159.2318033386248
 20
26.59982635365565
 30
0.0
  0
SPLINE
  5
7B
330
1F
100
AcDbEntity
  8
0
  6
Continuous
 62
     7
370
    25
100
AcDbSpline
210
0.0
220
0.0
230
1.0
 70
     8
 71
     3
 72
    13
 73
     9
 74
     0
 42
0.00000001
 43
0.00000001
 40
0.0
 40
0.0
 40
0.0
 40
0.0
 40
0.2434110992594185
 40
0.3618899784752194
 40
0.4800702186075756
 40
0.601011686195775
 40
0.7264312190368046
 40
1.0
 40
1.0
 40
1.0
 40
1.0
 10
159.2318033386248
 20
26.59982635365565
 30
0.0
 10
159.1393536605113
 20
26.59935011318937
 30
0.0
 10
159.0013198665498
 20
26.58582238385576
 30
0.0
 10
158.8258179376646
 20
26.53423178457526
 30
0.0
 10
158.7001894547156
 20
26.48144054143808
 30
0.0
 10
158.5802169085912
 20
26.41130510205825
 30
0.0
 10
158.4228978695553
 20
26.29074428273947
 30
0.0
 10
158.3220030915643
 20
26.17582367965532
 30
0.0
 10
158.2586462873429
 20
26.0936164177582
 30
0.0
  0
SPLINE
  5
84
330
1F
100
AcDbEntity
  8
0
  6
Continuous
 62
     7
370
    25
100
AcDbSpline
210
0.0
220
0.0
230
1.0
 70
     8
 71
     3
 72
    13
 73
     9
 74
     0
 42
0.00000001
 43
0.00000001
 40
0.0
 40
0.0
 40
0.0
 40
0.0
 40
0.2598496298712539
 40
0.3866707319148509
 40
0.5150828775346947
 40
0.6425029490726826
 40
0.7624536797230972
 40
1.0
 40
1.0
 40
1.0
 40
1.0
 10
157.0232696847787
 20
27.09341609724536
 30
0.0
 10
157.0612656127437
 20
27.09349173653586
 30
0.0
 10
157.1186732742523
 20
27.1021855950746
 30
0.0
 10
157.1863723681611
 20
27.13698330007031
 30
0.0
 10
157.2309915559943
 20
27.17140909154747
 30
0.0
 10
157.2689408622384
 20
27.21188948629338
 30
0.0
 10
157.3051002981261
 20
27.27384120645637
 30
0.0
 10
157.3164128898217
 20
27.32630441508843
 30
0.0
 10
157.3163385950351
 20
27.36124462288647
 30
0.0
  0
SPLINE
  5
85
330
1F
100
AcDbEntity
  8
0
  6
Continuous
 62
     7
370
    25
100
AcDbSpline
210
0.0
220
0.0
230
1.0
 70
     8
 71
     3
 72
    13
 73
     9
 74
     0
 42
0.00000001
 43
0.00000001
 40
0.0
 40
0.0
 40
0.0
 40
0.0
 40
0.2407702368354425
 40
0.3613679915788172
 40
0.4880203848743234
 40
0.6156588752209213
 40
0.7417159076830835
 40
1.0
 40
1.0
 40
1.0
 40
1.0
 10
157.3163385950351
 20
27.36124462288647
 30
0.0
 10
157.3165397498504
 20
27.39690205219258
 30
0.0
 10
157.3051727883612
 20
27.45020255060404
 30
0.0
 10
157.2691690104855
 20
27.51331009896307
 30
0.0
 10
157.2309670083579
 20
27.55386966393214
 30
0.0
 10
157.1863788427223
 20
27.58831438326481
 30
0.0
 10
157.1186688595266
 20
27.62310544428126
 30
0.0
 10
157.0612679194097
 20
27.63180340380356
 30
0.0
 10
157.0232696847787
 20
27.63187763570696
 30
0.0
  0
SPLINE
  5
86
330
1F
100
AcDbEntity
  8
0
  6
Continuous
 62
     7
370
    25
100
AcDbSpline
210
0.0
220
0.0
230
1.0
 70
     8
 71
     3
 72
    13
 73
     9
 74
     0
 42
0.00000001
 43
0.00000001
 40
0.0
 40
0.0
 40
0.0
 40
0.0
 40
0.2551062187428466
 40
0.3818851554071034
 40
0.5102546066587019
 40
0.6365625239462811
 40
0.757850918666084
 40
1.0
 40
1.0
 40
1.0
 40
1.0
 10
157.0232696847787
 20
27.63187763570696
 30
0.0
 10
156.9858671440052
 20
27.63211422401768
 30
0.0
 10
156.9293661556685
 20
27.62269504295678
 30
0.0
 10
156.8622975367651
 20
27.58830114819477
 30
0.0
 10
156.8176525447858
 20
27.55409613897453
 30
0.0
 10
156.7802210121712
 20
27.51305982589769
 30
0.0
 10
156.7440892773545
 20
27.45027652103471
 30
0.0
 10
156.7328460977458
 20
27.39686407636255
 30
0.0
 10
156.7330052617017
 20
27.36124462288647
 30
0.0
  0
SPLINE
  5
87
330
1F
100
AcDbEntity
  8
0
  6
Continuous
 62
     7
370
    25
100
AcDbSpline
210
0.0
220
0.0
230
1.0
 70
     8
 71
     3
 72
    13
 73
     9
 74
     0
 42
0.00000001
 43
0.00000001
 40
0.0
 40
0.0
 40
0.0
 40
0.0
 40
0.2389149952220574
 40
0.3595568481745961
 40
0.486634766847336
 40
0.6157867870573872
 40
0.7433385965465394
 40
1.0
 40
1.0
 40
1.0
 40
1.0
 10
156.7330052617017
 20
27.36124462288647
 30
0.0
 10
156.7329714097586
 20
27.32634095903419
 30
0.0
 10
156.7441636790481
 20
27.27376902769329
 30
0.0
 10
156.7804466537484
 20
27.21213776139741
 30
0.0
 10
156.8176278725381
 20
27.17118247918637
 30
0.0
 10
156.8623040721947
 20
27.13699658851343
 30
0.0
 10
156.9293617745941
 20
27.10259600604781
 30
0.0
 10
156.9858694333894
 20
27.09318091146473
 30
0.0
 10
157.0232696847787
 20
27.09341609724536
 30
0.0
  0
SPLINE
  5
88
330
1F
100
AcDbEntity
  8
0
  6
Continuous
 62
     7
370
    25
100
AcDbSpline
210
0.0
220
0.0
230
1.0
 70
     8
 71
     3
 72
    13
 73
     9
 74
     0
 42
0.00000001
 43
0.00000001
 40
0.0
 40
0.0
 40
0.0
 40
0.0
 40
0.2618944458316544
 40
0.3852022807004848
 40
0.5047447481824054
 40
0.6239854458062233
 40
0.745346469102679
 40
1.0
 40
1.0
 40
1.0
 40
1.0
 10
155.8804411591377
 20
26.08169734724541
 30
0.0
 10
155.8185112046243
 20
26.16665521891304
 30
0.0
 10
155.7152418063724
 20
26.28372179434568
 30
0.0
 10
155.5533188055212
 20
26.40687593481861
 30
0.0
 10
155.4261822558537
 20
26.47856675114446
 30
0.0
 10
155.2915191806262
 20
26.53242838440284
 30
0.0
 10
155.0995214044534
 20
26.58640731876205
 30
0.0
 10
154.9477780733346
 20
26.59952738384086
 30
0.0
 10
154.8455853899069
 20
26.59982635365565
 30
0.0
  0
SPLINE
  5
89
330
1F
100
AcDbEntity
  8
0
  6
Continuous
 62
     7
370
    25
100
AcDbSpline
210
0.0
220
0.0
230
1.0
 70
     8
 71
     3
 72
    21
 73
    17
 74
     0
 42
0.00000001
 43
0.00000001
 40
0.0
 40
0.0
 40
0.0
 40
0.0
 40
0.1283692574311769
 40
0.190417708860092
 40
0.2519211667422389
 40
0.3132736507580476
 40
0.3750861342515197
 40
0.438389176770406
 40
0.5032092055629105
 40
0.5679667722557898
 40
0.630868101539027
 40
0.6919966438355534
 40
0.7524260650823844
 40
0.8130959072527861
 40
0.8739211900104884
 40
1.0
 40
1.0
 40
1.0
 40
1.0
 10
154.8455853899069
 20
26.59982635365565
 30
0.0
 10
154.7561721576159
 20
26.59902873199682
 30
0.0
 10
154.6231480366821
 20
26.58888532815462
 30
0.0
 10
154.4519354024096
 20
26.5482058437303
 30
0.0
 10
154.3303698222524
 20
26.50483157923444
 30
0.0
 10
154.2131064058053
 20
26.45116880480791
 30
0.0
 10
154.1018832307773
 20
26.38345447543134
 30
0.0
 10
153.9949744847804
 20
26.30504473459205
 30
0.0
 10
153.8950396640217
 20
26.21482431010547
 30
0.0
 10
153.8027874737059
 20
26.11715304114304
 30
0.0
 10
153.7227675627475
 20
26.01238362307534
 30
0.0
 10
153.6548423037774
 20
25.90297971670319
 30
0.0
 10
153.5989899574521
 20
25.78863921890328
 30
0.0
 10
153.555480990366
 20
25.66928395375456
 30
0.0
 10
153.5134851593568
 20
25.50155193741899
 30
0.0
 10
153.5027536844638
 20
25.3709373867208
 30
0.0
 10
153.5022360309326
 20
25.28311962288643
 30
0.0
  0
SPLINE
  5
8A
330
1F
100
AcDbEntity
  8
0
  6
Continuous
 62
     7
370
    25
100
AcDbSpline
210
0.0
220
0.0
230
1.0
 70
     8
 71
     3
 72
    21
 73
    17
 74
     0
 42
0.00000001
 43
0.00000001
 40
0.0
 40
0.0
 40
0.0
 40
0.0
 40
0.1280988297755863
 40
0.1896694721890465
 40
0.2507063934632511
 40
0.311890666438603
 40
0.3732647830705283
 40
0.4358087922280679
 40
0.500424455805957
 40
0.5650608900029817
 40
0.6276710388631751
 40
0.6893315462593366
 40
0.7500699293139468
 40
0.8109958734420368
 40
0.8725665158555028
 40
1.0
 40
1.0
 40
1.0
 40
1.0
 10
153.5022360309326
 20
25.28311962288643
 30
0.0
 10
153.5024440231948
 20
25.19361326685798
 30
0.0
 10
153.5139509571298
 20
25.06091761134965
 30
0.0
 10
153.5546275331749
 20
24.89021043046058
 30
0.0
 10
153.5975805782827
 20
24.76889616059841
 30
0.0
 10
153.653412259634
 20
24.65316283372343
 30
0.0
 10
153.7201622077997
 20
24.54212057248872
 30
0.0
 10
153.8002243415599
 20
24.43717502942622
 30
0.0
 10
153.8914561034665
 20
24.33877998108724
 30
0.0
 10
153.9905277021802
 20
24.24819219254881
 30
0.0
 10
154.0964003947339
 20
24.16895049582757
 30
0.0
 10
154.2074604330555
 20
24.10241239820598
 30
0.0
 10
154.3231328075326
 20
24.04682001100566
 30
0.0
 10
154.4444065184216
 20
24.00496243606698
 30
0.0
 10
154.6144731623015
 20
23.96410296397822
 30
0.0
 10
154.7467402731469
 20
23.95260855588732
 30
0.0
 10
154.8357696847787
 20
23.95239045621977
 30
0.0
  0
SPLINE
  5
8B
330
1F
100
AcDbEntity
  8
0
  6
Continuous
 62
     7
370
    25
100
AcDbSpline
210
0.0
220
0.0
230
1.0
 70
     8
 71
     3
 72
    13
 73
     9
 74
     0
 42
0.00000001
 43
0.00000001
 40
0.0
 40
0.0
 40
0.0
 40
0.0
 40
0.2518550583969853
 40
0.3726997642744652
 40
0.4928354033771648
 40
0.6137300878654817
 40
0.7379150246176973
 40
1.0
 40
1.0
 40
1.0
 40
1.0
 10
154.8357696847787
 20
23.95239045621977
 30
0.0
 10
154.9360058642666
 20
23.95158310576873
 30
0.0
 10
155.08441872113
 20
23.96632065798976
 30
0.0
 10
155.274471576763
 20
24.01574026370956
 30
0.0
 10
155.4093987835021
 20
24.06686415169379
 30
0.0
 10
155.5380650624413
 20
24.13505526503168
 30
0.0
 10
155.7046926529307
 20
24.24968943247008
 30
0.0
 10
155.8132036038843
 20
24.36021890662066
 30
0.0
 10
155.8804411591377
 20
24.43967010365566
 30
0.0
  0
SPLINE
  5
92
330
1F
100
AcDbEntity
  8
0
  6
Continuous
 62
     7
370
    25
100
AcDbSpline
210
0.0
220
0.0
230
1.0
 70
     8
 71
     3
 72
    13
 73
     9
 74
     0
 42
0.00000001
 43
0.00000001
 40
0.0
 40
0.0
 40
0.0
 40
0.0
 40
0.2703816178319617
 40
0.3984601291783004
 40
0.5227503451014437
 40
0.6438255660090793
 40
0.7637452368382556
 40
1.0
 40
1.0
 40
1.0
 40
1.0
 10
164.765056543753
 20
25.20880071262999
 30
0.0
 10
164.7634670790987
 20
25.29406035411341
 30
0.0
 10
164.7561060455967
 20
25.42004269347253
 30
0.0
 10
164.7255045621718
 20
25.58239881192259
 30
0.0
 10
164.6944944291114
 20
25.69622516255754
 30
0.0
 10
164.6561176514423
 20
25.80510689635052
 30
0.0
 10
164.592506883448
 20
25.94189291824112
 30
0.0
 10
164.5325978430618
 20
26.03753208158843
 30
0.0
 10
164.4867111911889
 20
26.09642090493769
 30
0.0
  0
SPLINE
  5
93
330
1F
100
AcDbEntity
  8
0
  6
Continuous
 62
     7
370
    25
100
AcDbSpline
210
0.0
220
0.0
230
1.0
 70
     8
 71
     3
 72
    13
 73
     9
 74
     0
 42
0.00000001
 43
0.00000001
 40
0.0
 40
0.0
 40
0.0
 40
0.0
 40
0.255257368140996
 40
0.3772478104725325
 40
0.4977415562850415
 40
0.6181201760750441
 40
0.7409671592206359
 40
1.0
 40
1.0
 40
1.0
 40
1.0
 10
164.486711191189
 20
26.09642090493769
 30
0.0
 10
164.4253240474956
 20
26.17708101753691
 30
0.0
 10
164.3218811333574
 20
26.2867207079589
 30
0.0
 10
164.1636059575653
 20
26.40579149326017
 30
0.0
 10
164.0379364459895
 20
26.47700323996782
 30
0.0
 10
163.9040921004828
 20
26.53208887145719
 30
0.0
 10
163.7114990373306
 20
26.58537812161654
 30
0.0
 10
163.5595907766025
 20
26.60025832723722
 30
0.0
 10
163.4567632745223
 20
26.59982635365565
 30
0.0
  0
SPLINE
  5
94
330
1F
100
AcDbEntity
  8
0
  6
Continuous
 62
     7
370
    25
100
AcDbSpline
210
0.0
220
0.0
230
1.0
 70
     8
 71
     3
 72
    13
 73
     9
 74
     0
 42
0.00000001
 43
0.00000001
 40
0.0
 40
0.0
 40
0.0
 40
0.0
 40
0.2602406645595056
 40
0.3836752253642184
 40
0.5046599577622765
 40
0.6253567426858504
 40
0.7464106650135791
 40
1.0
 40
1.0
 40
1.0
 40
1.0
 10
163.4567632745223
 20
26.59982635365565
 30
0.0
 10
163.3573070634059
 20
26.59862777346922
 30
0.0
 10
163.2094312664297
 20
26.58759892260998
 30
0.0
 10
163.0228852404589
 20
26.53510451972163
 30
0.0
 10
162.8925438057352
 20
26.48347199000545
 30
0.0
 10
162.7709667827037
 20
26.41543244464073
 30
0.0
 10
162.6163046307244
 20
26.30466991766556
 30
0.0
 10
162.5175366553183
 20
26.19878808229559
 30
0.0
 10
162.4569635950351
 20
26.12306353314287
 30
0.0
  0
SPLINE
  5
95
330
1F
100
AcDbEntity
  8
0
  6
Continuous
 62
     7
370
    25
100
AcDbSpline
210
0.0
220
0.0
230
1.0
 70
     8
 71
     3
 72
    13
 73
     9
 74
     0
 42
0.00000001
 43
0.00000001
 40
0.0
 40
0.0
 40
0.0
 40
0.0
 40
0.2534216680665266
 40
0.3767041167575432
 40
0.4994491585174913
 40
0.6225715734186964
 40
0.7462320999755214
 40
1.0
 40
1.0
 40
1.0
 40
1.0
 10
162.4569635950351
 20
26.12306353314287
 30
0.0
 10
162.4094123325405
 20
26.06157170931755
 30
0.0
 10
162.3442484998119
 20
25.96550243803708
 30
0.0
 10
162.2760757234553
 20
25.82799140180547
 30
0.0
 10
162.2344966217344
 20
25.72245115208749
 30
0.0
 10
162.2023491890076
 20
25.61356346027199
 30
0.0
 10
162.1707218094501
 20
25.46301974931275
 30
0.0
 10
162.1634457293941
 20
25.3468908891481
 30
0.0
 10
162.1624924411889
 20
25.269097186989
 30
0.0
  0
SPLINE
  5
96
330
1F
100
AcDbEntity
  8
0
  6
Continuous
 62
     7
370
    25
100
AcDbSpline
210
0.0
220
0.0
230
1.0
 70
     8
 71
     3
 72
    21
 73
    17
 74
     0
 42
0.00000001
 43
0.00000001
 40
0.0
 40
0.0
 40
0.0
 40
0.0
 40
0.1210804245006118
 40
0.1800682782218559
 40
0.2391896643238556
 40
0.2987059533012314
 40
0.3588810785072301
 40
0.4203687292950606
 40
0.4834483096802261
 40
0.5465664849029384
 40
0.6086986022254206
 40
0.670186253013248
 40
0.7318650366033053
 40
0.7952033026033165
 40
0.8603707753071415
 40
1.0
 40
1.0
 40
1.0
 40
1.0
 10
162.1624924411889
 20
25.269097186989
 30
0.0
 10
162.1634071684262
 20
25.18607454663901
 30
0.0
 10
162.1721867927256
 20
25.06222273965108
 30
0.0
 10
162.2082680769984
 20
24.90177559542161
 30
0.0
 10
162.2466434739121
 20
24.78591321993751
 30
0.0
 10
162.2942040537592
 20
24.6726422862259
 30
0.0
 10
162.3526593124585
 20
24.56267917002542
 30
0.0
 10
162.422585731646
 20
24.45672326874593
 30
0.0
 10
162.5018294506608
 20
24.35504126577326
 30
0.0
 10
162.5898536961847
 20
24.26002502245051
 30
0.0
 10
162.6886732409916
 20
24.17789202679021
 30
0.0
 10
162.7951739856877
 20
24.10793527834099
 30
0.0
 10
162.9099166641906
 20
24.05049765125278
 30
0.0
 10
163.0331267164144
 20
24.00657197746614
 30
0.0
 10
163.2123585594458
 20
23.96342562216258
 30
0.0
 10
163.3532802547843
 20
23.95242933912123
 30
0.0
 10
163.4490509347787
 20
23.95239045621977
 30
0.0
  0
SPLINE
  5
97
330
1F
100
AcDbEntity
  8
0
  6
Continuous
 62
     7
370
    25
100
AcDbSpline
210
0.0
220
0.0
230
1.0
 70
     8
 71
     3
 72
    17
 73
    13
 74
     0
 42
0.00000001
 43
0.00000001
 40
0.0
 40
0.0
 40
0.0
 40
0.0
 40
0.1781058515637827
 40
0.2613277635121511
 40
0.3415565694705521
 40
0.4200079090126525
 40
0.4980968161626226
 40
0.5754001382821239
 40
0.6536452159657116
 40
0.7341257729573898
 40
0.8183392339289949
 40
1.0
 40
1.0
 40
1.0
 40
1.0
 10
163.4490509347787
 20
23.95239045621977
 30
0.0
 10
163.5353447265365
 20
23.95240161639423
 30
0.0
 10
163.6622212083065
 20
23.96105583742592
 30
0.0
 10
163.8246044808825
 20
23.99438153555322
 30
0.0
 10
163.9369031304243
 20
24.02875977033048
 30
0.0
 10
164.0427529468512
 20
24.07352046202793
 30
0.0
 10
164.1430422623665
 20
24.12663654405367
 30
0.0
 10
164.2377728493781
 20
24.18897606102888
 30
0.0
 10
164.3274504554065
 20
24.26022301050401
 30
0.0
 10
164.4125234481485
 20
24.34196942868572
 30
0.0
 10
164.5194693322562
 20
24.47173158340654
 30
0.0
 10
164.5889403230165
 20
24.58072746912954
 30
0.0
 10
164.6304411591376
 20
24.65842010365571
 30
0.0
  0
SPLINE
  5
99
330
1F
100
AcDbEntity
  8
0
  6
Continuous
 62
     7
370
    25
100
AcDbSpline
210
0.0
220
0.0
230
1.0
 70
     8
 71
     3
 72
    17
 73
    13
 74
     0
 42
0.00000001
 43
0.00000001
 40
0.0
 40
0.0
 40
0.0
 40
0.0
 40
0.2079350339033564
 40
0.2946939715678991
 40
0.3697315241424307
 40
0.440830943802725
 40
0.5142509140460771
 40
0.5913900390896499
 40
0.6722743046458497
 40
0.7543412603705406
 40
0.8361211059014766
 40
1.0
 40
1.0
 40
1.0
 40
1.0
 10
164.3513946847786
 20
24.80495455878384
 30
0.0
 10
164.3088699587759
 20
24.73840707488084
 30
0.0
 10
164.2417541891057
 20
24.64877660942932
 30
0.0
 10
164.1482564001051
 20
24.54395767780026
 30
0.0
 10
164.0822045602712
 20
24.48493635266713
 30
0.0
 10
164.0140829413832
 20
24.43672999489832
 30
0.0
 10
163.941203997398
 20
24.39457885283558
 30
0.0
 10
163.8619580990671
 20
24.35647834035026
 30
0.0
 10
163.7763872873157
 20
24.32489310966379
 30
0.0
 10
163.6871265440522
 20
24.29903483287321
 30
0.0
 10
163.5652782505797
 20
24.27351525084698
 30
0.0
 10
163.4719820182059
 20
24.26619218957315
 30
0.0
 10
163.4097881142658
 20
24.26649302032235
 30
0.0
  0
SPLINE
  5
9A
330
1F
100
AcDbEntity
  8
0
  6
Continuous
 62
     7
370
    25
100
AcDbSpline
210
0.0
220
0.0
230
1.0
 70
     8
 71
     3
 72
    21
 73
    17
 74
     0
 42
0.00000001
 43
0.00000001
 40
0.0
 40
0.0
 40
0.0
 40
0.0
 40
0.1276691474530424
 40
0.1889505232706536
 40
0.2490548673082992
 40
0.3090713134763196
 40
0.3692223593686933
 40
0.4301747620269846
 40
0.4926019887960209
 40
0.555346876893578
 40
0.6169627615204942
 40
0.678170777192346
 40
0.73924652255152
 40
0.8016089422160485
 40
0.8655244124565523
 40
1.0
 40
1.0
 40
1.0
 40
1.0
 10
163.4097881142658
 20
24.26649302032235
 30
0.0
 10
163.3467769598817
 20
24.2661433360194
 30
0.0
 10
163.2536487089889
 20
24.27486230068077
 30
0.0
 10
163.1336666439167
 20
24.30192876066151
 30
0.0
 10
163.0488943688569
 20
24.33099983173859
 30
0.0
 10
162.9679964161835
 20
24.3681890939299
 30
0.0
 10
162.8911028139609
 20
24.41399216866957
 30
0.0
 10
162.818820084647
 20
24.46864463318532
 30
0.0
 10
162.7501129546741
 20
24.52970520515629
 30
0.0
 10
162.6883873758683
 20
24.59827239169976
 30
0.0
 10
162.6330473827504
 20
24.67131031694558
 30
0.0
 10
162.5866632863133
 20
24.74947232532399
 30
0.0
 10
162.5487903718053
 20
24.83240257236363
 30
0.0
 10
162.5175446068539
 20
24.9194851521114
 30
0.0
 10
162.4872640761807
 20
25.04469844335966
 30
0.0
 10
162.478383729761
 20
25.14255470162119
 30
0.0
 10
162.4765950052915
 20
25.20880071262999
 30
0.0
  0
SPLINE
  5
A8
330
1F
100
AcDbEntity
  8
0
  6
Continuous
 62
     7
370
    25
100
AcDbSpline
210
0.0
220
0.0
230
1.0
 70
     8
 71
     3
 72
    13
 73
     9
 74
     0
 42
0.00000001
 43
0.00000001
 40
0.0
 40
0.0
 40
0.0
 40
0.0
 40
0.2620026798763646
 40
0.3865990120013839
 40
0.5078842295733161
 40
0.6287697964346921
 40
0.7494522178423595
 40
1.0
 40
1.0
 40
1.0
 40
1.0
 10
168.0406975693942
 20
24.46070375750187
 30
0.0
 10
168.1082388987017
 20
24.3805644813796
 30
0.0
 10
168.2172715063943
 20
24.26937911488169
 30
0.0
 10
168.3823345653855
 20
24.14987900816101
 30
0.0
 10
168.5104668968983
 20
24.07757701804869
 30
0.0
 10
168.6446684181318
 20
24.02095904937451
 30
0.0
 10
168.8349927975761
 20
23.96839373658743
 30
0.0
 10
168.9834965920449
 20
23.95123054334014
 30
0.0
 10
169.0839668001634
 20
23.95239045621977
 30
0.0
  0
SPLINE
  5
A9
330
1F
100
AcDbEntity
  8
0
  6
Continuous
 62
     7
370
    25
100
AcDbSpline
210
0.0
220
0.0
230
1.0
 70
     8
 71
     3
 72
    21
 73
    17
 74
     0
 42
0.00000001
 43
0.00000001
 40
0.0
 40
0.0
 40
0.0
 40
0.0
 40
0.1277002390698747
 40
0.1892398000966456
 40
0.2501349882872971
 40
0.310842710086852
 40
0.372472090731707
 40
0.4350506334534636
 40
0.4996544386258899
 40
0.5642374836643663
 40
0.6267499200713567
 40
0.6882667786363572
 40
0.7494201652676098
 40
0.8104262745821135
 40
0.8719658356088787
 40
1.0
 40
1.0
 40
1.0
 40
1.0
 10
169.0839668001634
 20
23.95239045621977
 30
0.0
 10
169.1732144110398
 20
23.95271317302761
 30
0.0
 10
169.3057432176774
 20
23.96401736529818
 30
0.0
 10
169.4760303445456
 20
24.00496815027076
 30
0.0
 10
169.5973049323025
 20
24.04681853205204
 30
0.0
 10
169.7129773789382
 20
24.10241265338786
 30
0.0
 10
169.8240362323934
 20
24.16895098825067
 30
0.0
 10
169.929913726176
 20
24.24818989425814
 30
0.0
 10
170.0289667210534
 20
24.33878897567187
 30
0.0
 10
170.1202676101282
 20
24.43714193493796
 30
0.0
 10
170.2001549407149
 20
24.54233563388208
 30
0.0
 10
170.2678563549868
 20
24.65294199057666
 30
0.0
 10
170.3235094725527
 20
24.76892580179724
 30
0.0
 10
170.3665242765707
 20
24.89020246494689
 30
0.0
 10
170.4071786455034
 20
25.06092316836228
 30
0.0
 10
170.4186994582743
 20
25.19361037266288
 30
0.0
 10
170.4189026975993
 20
25.28311962288643
 30
0.0
  0
SPLINE
  5
AA
330
1F
100
AcDbEntity
  8
0
  6
Continuous
 62
     7
370
    25
100
AcDbSpline
210
0.0
220
0.0
230
1.0
 70
     8
 71
     3
 72
    21
 73
    17
 74
     0
 42
0.00000001
 43
0.00000001
 40
0.0
 40
0.0
 40
0.0
 40
0.0
 40
0.1260146004816713
 40
0.1868089060952329
 40
0.2474478502843892
 40
0.307846495991717
 40
0.3691210183050324
 40
0.4319903131536156
 40
0.4967149000659745
 40
0.5615019172671396
 40
0.6247727207665961
 40
0.6865537243536204
 40
0.7478749627318974
 40
0.8093470980883342
 40
0.8713639494369316
 40
1.0
 40
1.0
 40
1.0
 40
1.0
 10
170.4189026975993
 20
25.28311962288643
 30
0.0
 10
170.4183896228859
 20
25.37094024094277
 30
0.0
 10
170.4076447288462
 20
25.50154642676949
 30
0.0
 10
170.3656704947848
 20
25.66929190563694
 30
0.0
 10
170.3221011057913
 20
25.78860950658168
 30
0.0
 10
170.2664203905289
 20
25.90320203362451
 30
0.0
 10
170.1975513278915
 20
26.01216450449351
 30
0.0
 10
170.1177043582357
 20
26.11718682880992
 30
0.0
 10
170.0253832076036
 20
26.21481513553137
 30
0.0
 10
169.9254669687276
 20
26.30504710438042
 30
0.0
 10
169.8185533946336
 20
26.38345396205077
 30
0.0
 10
169.7073314134456
 20
26.45116858148477
 30
0.0
 10
169.5900678967148
 20
26.50483296832695
 30
0.0
 10
169.4685015383389
 20
26.54820047204587
 30
0.0
 10
169.2970674443311
 20
26.58896849264259
 30
0.0
 10
169.163783825712
 20
26.59892823142229
 30
0.0
 10
169.0741510950352
 20
26.59982635365565
 30
0.0
  0
SPLINE
  5
AB
330
1F
100
AcDbEntity
  8
0
  6
Continuous
 62
     7
370
    25
100
AcDbSpline
210
0.0
220
0.0
230
1.0
 70
     8
 71
     3
 72
    13
 73
     9
 74
     0
 42
0.00000001
 43
0.00000001
 40
0.0
 40
0.0
 40
0.0
 40
0.0
 40
0.2538522779533839
 40
0.3748219688612686
 40
0.4942293474545227
 40
0.6139389177356217
 40
0.736955317238862
 40
1.0
 40
1.0
 40
1.0
 40
1.0
 10
169.0741510950352
 20
26.59982635365565
 30
0.0
 10
168.9724304314892
 20
26.59950490667762
 30
0.0
 10
168.8213527128484
 20
26.58645413776106
 30
0.0
 10
168.6301175527788
 20
26.5323049362588
 30
0.0
 10
168.4956843458186
 20
26.47854117913517
 30
0.0
 10
168.3685685754734
 20
26.40711161463516
 30
0.0
 10
168.2072904968505
 20
26.28294037385515
 30
0.0
 10
168.1028628047372
 20
26.16700679500217
 30
0.0
 10
168.0406975693942
 20
26.08169734724541
 30
0.0
  0
SPLINE
  5
B0
330
1F
100
AcDbEntity
  8
0
  6
Continuous
 62
     7
370
    25
100
AcDbSpline
210
0.0
220
0.0
230
1.0
 70
     8
 71
     3
 72
    21
 73
    17
 74
     0
 42
0.00000001
 43
0.00000001
 40
0.0
 40
0.0
 40
0.0
 40
0.0
 40
0.1231816483428002
 40
0.1830343363247268
 40
0.2428661924761439
 40
0.3025168847059427
 40
0.3633154622039138
 40
0.4250692989986412
 40
0.4890423674851742
 40
0.553087142275227
 40
0.6154454653923731
 40
0.6772864118409536
 40
0.739174987439565
 40
0.8016758129328341
 40
0.8653648077757379
 40
1.0
 40
1.0
 40
1.0
 40
1.0
 10
170.9573642360606
 20
25.269097186989
 30
0.0
 10
170.956857328675
 20
25.18352976986193
 30
0.0
 10
170.968566675697
 20
25.05640887692906
 30
0.0
 10
171.0071982733961
 20
24.89202008678271
 30
0.0
 10
171.0479809029675
 20
24.77416126458465
 30
0.0
 10
171.1003522960285
 20
24.66027860474229
 30
0.0
 10
171.1642390155117
 20
24.55086850118015
 30
0.0
 10
171.2401130180576
 20
24.44571847803323
 30
0.0
 10
171.326111348335
 20
24.34570846879025
 30
0.0
 10
171.4211833991412
 20
24.25357272733841
 30
0.0
 10
171.5243833258212
 20
24.17301186313647
 30
0.0
 10
171.6341697149447
 20
24.10440278384607
 30
0.0
 10
171.7513149831875
 20
24.0490984737608
 30
0.0
 10
171.8745419790367
 20
24.0052680218793
 30
0.0
 10
172.0510604570421
 20
23.96330864149165
 30
0.0
 10
172.1890788120335
 20
23.95281254881909
 30
0.0
 10
172.2824844283683
 20
23.95239045621977
 30
0.0
  0
SPLINE
  5
B1
330
1F
100
AcDbEntity
  8
0
  6
Continuous
 62
     7
370
    25
100
AcDbSpline
210
0.0
220
0.0
230
1.0
 70
     8
 71
     3
 72
    21
 73
    17
 74
     0
 42
0.00000001
 43
0.00000001
 40
0.0
 40
0.0
 40
0.0
 40
0.0
 40
0.1341341587220424
 40
0.1979034644236247
 40
0.2604831025120542
 40
0.322145528691671
 40
0.3837784671889386
 40
0.446215423207863
 40
0.5103409574898141
 40
0.5743946950476086
 40
0.6362264024960824
 40
0.6971016460802506
 40
0.7568275569302938
 40
0.8167348601469018
 40
0.8766630214626719
 40
1.0
 40
1.0
 40
1.0
 40
1.0
 10
172.2824844283683
 20
23.95239045621977
 30
0.0
 10
172.3754344777551
 20
23.9527544217738
 30
0.0
 10
172.5129617745725
 20
23.96343130598189
 30
0.0
 10
172.689016936273
 20
24.00528314505146
 30
0.0
 10
172.8120829627403
 20
24.04895461753087
 30
0.0
 10
172.9287266979593
 20
24.10440106453493
 30
0.0
 10
173.0378806344145
 20
24.17321990883081
 30
0.0
 10
173.1409967911751
 20
24.25354890963882
 30
0.0
 10
173.2360487344639
 20
24.34571492238169
 30
0.0
 10
173.3220524559732
 20
24.44571681527985
 30
0.0
 10
173.397925067372
 20
24.55086893275882
 30
0.0
 10
173.4618121482231
 20
24.66027849229224
 30
0.0
 10
173.5141834466777
 20
24.77416129456145
 30
0.0
 10
173.554966101476
 20
24.89202007878099
 30
0.0
 10
173.5935976902062
 20
25.05640888243033
 30
0.0
 10
173.6053070427693
 20
25.18352976702076
 30
0.0
 10
173.6048001334965
 20
25.269097186989
 30
0.0
  0
SPLINE
  5
B2
330
1F
100
AcDbEntity
  8
0
  6
Continuous
 62
     7
370
    25
100
AcDbSpline
210
0.0
220
0.0
230
1.0
 70
     8
 71
     3
 72
    13
 73
     9
 74
     0
 42
0.00000001
 43
0.00000001
 40
0.0
 40
0.0
 40
0.0
 40
0.0
 40
0.2554352550956477
 40
0.3786322712675499
 40
0.5014663143321101
 40
0.6234943774777817
 40
0.746165637203275
 40
1.0
 40
1.0
 40
1.0
 40
1.0
 10
173.6048001334965
 20
25.269097186989
 30
0.0
 10
173.6043257447026
 20
25.35403403357384
 30
0.0
 10
173.5948419359774
 20
25.48027599650271
 30
0.0
 10
173.5576499533966
 20
25.64321529622205
 30
0.0
 10
173.5190077839469
 20
25.75959649764525
 30
0.0
 10
173.4699037091041
 20
25.87181500362323
 30
0.0
 10
173.3876643091158
 20
26.01617579436899
 30
0.0
 10
173.3112702457965
 20
26.11611423456062
 30
0.0
 10
173.2542392360606
 20
26.17845215493775
 30
0.0
  0
SPLINE
  5
B3
330
1F
100
AcDbEntity
  8
0
  6
Continuous
 62
     7
370
    25
100
AcDbSpline
210
0.0
220
0.0
230
1.0
 70
     8
 71
     3
 72
    13
 73
     9
 74
     0
 42
0.00000001
 43
0.00000001
 40
0.0
 40
0.0
 40
0.0
 40
0.0
 40
0.2531294102724398
 40
0.3753070134590596
 40
0.4961956083998793
 40
0.617866023907437
 40
0.7416676494858144
 40
1.0
 40
1.0
 40
1.0
 40
1.0
 10
173.2542392360606
 20
26.17845215493775
 30
0.0
 10
173.1920807520702
 20
26.24638876008911
 30
0.0
 10
173.0904654461296
 20
26.3391108851706
 30
0.0
 10
172.9381014484755
 20
26.43665721617916
 30
0.0
 10
172.8197218043458
 20
26.49738542907054
 30
0.0
 10
172.6939258907529
 20
26.54259134126957
 30
0.0
 10
172.5158007622984
 20
26.5872353124037
 30
0.0
 10
172.3765745896776
 20
26.60080099425322
 30
0.0
 10
172.2824844283683
 20
26.59982635365565
 30
0.0
  0
SPLINE
  5
B4
330
1F
100
AcDbEntity
  8
0
  6
Continuous
 62
     7
370
    25
100
AcDbSpline
210
0.0
220
0.0
230
1.0
 70
     8
 71
     3
 72
    13
 73
     9
 74
     0
 42
0.00000001
 43
0.00000001
 40
0.0
 40
0.0
 40
0.0
 40
0.0
 40
0.2587123826906848
 40
0.3820894432542115
 40
0.5035635736272535
 40
0.6251808674329538
 40
0.7472870144846054
 40
1.0
 40
1.0
 40
1.0
 40
1.0
 10
172.2824844283683
 20
26.59982635365565
 30
0.0
 10
172.1879171211446
 20
26.60068970937524
 30
0.0
 10
172.0482911573817
 20
26.58720428799122
 30
0.0
 10
171.8694425364704
 20
26.54285815905122
 30
0.0
 10
171.7437478553865
 20
26.49608650861502
 30
0.0
 10
171.6240665172536
 20
26.43655513401799
 30
0.0
 10
171.4720642906153
 20
26.33703472165017
 30
0.0
 10
171.3695438224248
 20
26.24519360723776
 30
0.0
 10
171.3079251334966
 20
26.17634878955311
 30
0.0
  0
SPLINE
  5
B5
330
1F
100
AcDbEntity
  8
0
  6
Continuous
 62
     7
370
    25
100
AcDbSpline
210
0.0
220
0.0
230
1.0
 70
     8
 71
     3
 72
    13
 73
     9
 74
     0
 42
0.00000001
 43
0.00000001
 40
0.0
 40
0.0
 40
0.0
 40
0.0
 40
0.2537592050616079
 40
0.3772863205702288
 40
0.4989121128148862
 40
0.6213214040214711
 40
0.7447622750750945
 40
1.0
 40
1.0
 40
1.0
 40
1.0
 10
171.3079251334966
 20
26.17634878955311
 30
0.0
 10
171.2515118336113
 20
26.11383789135835
 30
0.0
 10
171.1738133456697
 20
26.01472255511106
 30
0.0
 10
171.0926580711405
 20
25.86996960816212
 30
0.0
 10
171.0431097199052
 20
25.75823788300657
 30
0.0
 10
171.0044190040778
 20
25.64230718674598
 30
0.0
 10
170.9674061184533
 20
25.47979629818375
 30
0.0
 10
170.9578585028101
 20
25.3538039843223
 30
0.0
 10
170.9573642360606
 20
25.269097186989
 30
0.0
  0
SPLINE
  5
B6
330
1F
100
AcDbEntity
  8
0
  6
Continuous
 62
     7
370
    25
100
AcDbSpline
210
0.0
220
0.0
230
1.0
 70
     8
 71
     3
 72
    13
 73
     9
 74
     0
 42
0.00000001
 43
0.00000001
 40
0.0
 40
0.0
 40
0.0
 40
0.0
 40
0.2598496298712539
 40
0.3866707319148509
 40
0.5150828775346947
 40
0.6425029490726826
 40
0.7624536797230972
 40
1.0
 40
1.0
 40
1.0
 40
1.0
 10
175.6899363514455
 20
27.09341609724536
 30
0.0
 10
175.7279322794106
 20
27.09349173653586
 30
0.0
 10
175.7853399409189
 20
27.1021855950746
 30
0.0
 10
175.8530390348279
 20
27.13698330007031
 30
0.0
 10
175.8976582226609
 20
27.17140909154747
 30
0.0
 10
175.9356075289051
 20
27.21188948629338
 30
0.0
 10
175.9717669647929
 20
27.27384120645637
 30
0.0
 10
175.9830795564885
 20
27.32630441508843
 30
0.0
 10
175.9830052617018
 20
27.36124462288647
 30
0.0
  0
SPLINE
  5
B7
330
1F
100
AcDbEntity
  8
0
  6
Continuous
 62
     7
370
    25
100
AcDbSpline
210
0.0
220
0.0
230
1.0
 70
     8
 71
     3
 72
    13
 73
     9
 74
     0
 42
0.00000001
 43
0.00000001
 40
0.0
 40
0.0
 40
0.0
 40
0.0
 40
0.2407702368354425
 40
0.3613679915788172
 40
0.4880203848743234
 40
0.6156588752209213
 40
0.7417159076830835
 40
1.0
 40
1.0
 40
1.0
 40
1.0
 10
175.9830052617018
 20
27.36124462288647
 30
0.0
 10
175.9832064165169
 20
27.39690205219258
 30
0.0
 10
175.971839455028
 20
27.45020255060404
 30
0.0
 10
175.9358356771521
 20
27.51331009896307
 30
0.0
 10
175.8976336750247
 20
27.55386966393214
 30
0.0
 10
175.8530455093888
 20
27.58831438326481
 30
0.0
 10
175.7853355261934
 20
27.62310544428126
 30
0.0
 10
175.7279345860765
 20
27.63180340380356
 30
0.0
 10
175.6899363514455
 20
27.63187763570696
 30
0.0
  0
SPLINE
  5
B8
330
1F
100
AcDbEntity
  8
0
  6
Continuous
 62
     7
370
    25
100
AcDbSpline
210
0.0
220
0.0
230
1.0
 70
     8
 71
     3
 72
    13
 73
     9
 74
     0
 42
0.00000001
 43
0.00000001
 40
0.0
 40
0.0
 40
0.0
 40
0.0
 40
0.2551062187428466
 40
0.3818851554071034
 40
0.5102546066587019
 40
0.6365625239462811
 40
0.757850918666084
 40
1.0
 40
1.0
 40
1.0
 40
1.0
 10
175.6899363514455
 20
27.63187763570696
 30
0.0
 10
175.652533810672
 20
27.63211422401768
 30
0.0
 10
175.596032822335
 20
27.62269504295689
 30
0.0
 10
175.5289642034319
 20
27.58830114819477
 30
0.0
 10
175.4843192114525
 20
27.55409613897453
 30
0.0
 10
175.4468876788378
 20
27.51305982589769
 30
0.0
 10
175.4107559440213
 20
27.45027652103471
 30
0.0
 10
175.3995127644124
 20
27.39686407636255
 30
0.0
 10
175.3996719283684
 20
27.36124462288647
 30
0.0
  0
SPLINE
  5
B9
330
1F
100
AcDbEntity
  8
0
  6
Continuous
 62
     7
370
    25
100
AcDbSpline
210
0.0
220
0.0
230
1.0
 70
     8
 71
     3
 72
    13
 73
     9
 74
     0
 42
0.00000001
 43
0.00000001
 40
0.0
 40
0.0
 40
0.0
 40
0.0
 40
0.2389149952220574
 40
0.3595568481745961
 40
0.486634766847336
 40
0.6157867870573872
 40
0.7433385965465394
 40
1.0
 40
1.0
 40
1.0
 40
1.0
 10
175.3996719283684
 20
27.36124462288647
 30
0.0
 10
175.3996380764252
 20
27.32634095903419
 30
0.0
 10
175.4108303457149
 20
27.27376902769329
 30
0.0
 10
175.4471133204152
 20
27.21213776139741
 30
0.0
 10
175.4842945392049
 20
27.17118247918637
 30
0.0
 10
175.5289707388614
 20
27.13699658851343
 30
0.0
 10
175.5960284412608
 20
27.10259600604781
 30
0.0
 10
175.6525361000561
 20
27.09318091146473
 30
0.0
 10
175.6899363514455
 20
27.09341609724536
 30
0.0
  0
SPLINE
  5
BF
330
1F
100
AcDbEntity
  8
0
  6
Continuous
 62
     7
370
    25
100
AcDbSpline
210
0.0
220
0.0
230
1.0
 70
     8
 71
     3
 72
    13
 73
     9
 74
     0
 42
0.00000001
 43
0.00000001
 40
0.0
 40
0.0
 40
0.0
 40
0.0
 40
0.3336012413919295
 40
0.4791571975344256
 40
0.6105404974279318
 40
0.7289476063657787
 40
0.8323849228168392
 40
1.0
 40
1.0
 40
1.0
 40
1.0
 10
176.9253129540095
 20
24.92204189852743
 30
0.0
 10
176.9257813699431
 20
24.99868541693284
 30
0.0
 10
176.9256089405815
 20
25.10885700586496
 30
0.0
 10
176.9321611511117
 20
25.24901644430244
 30
0.0
 10
176.9364603816371
 20
25.33977592152248
 30
0.0
 10
176.9435245676606
 20
25.42066237436424
 30
0.0
 10
176.9538972443746
 20
25.50956684385797
 30
0.0
 10
176.9643350437154
 20
25.57104236674201
 30
0.0
 10
176.9736903578556
 20
25.60844013570696
 30
0.0
  0
SPLINE
  5
C0
330
1F
100
AcDbEntity
  8
0
  6
Continuous
 62
     7
370
    25
100
AcDbSpline
210
0.0
220
0.0
230
1.0
 70
     8
 71
     3
 72
    21
 73
    17
 74
     0
 42
0.00000001
 43
0.00000001
 40
0.0
 40
0.0
 40
0.0
 40
0.0
 40
0.1238830745189171
 40
0.1847816479826848
 40
0.2456024656876798
 40
0.3070653910745305
 40
0.3692286662507878
 40
0.4320259048597126
 40
0.4970795873926179
 40
0.5618524691217699
 40
0.6254263815420402
 40
0.6876488370376828
 40
0.7497698060395667
 40
0.8110156280184817
 40
0.8733731419104944
 40
1.0
 40
1.0
 40
1.0
 40
1.0
 10
176.9736903578556
 20
25.60844013570696
 30
0.0
 10
176.9862796597776
 20
25.65569698386994
 30
0.0
 10
177.0107042116277
 20
25.72472917382285
 30
0.0
 10
177.0542257448348
 20
25.81146124613132
 30
0.0
 10
177.0913814871028
 20
25.87359888840224
 30
0.0
 10
177.1344562697366
 20
25.93239726131846
 30
0.0
 10
177.1819926267737
 20
25.98867329616905
 30
0.0
 10
177.2353214201562
 20
26.04151767984064
 30
0.0
 10
177.2926341021617
 20
26.09159695507401
 30
0.0
 10
177.3542375300879
 20
26.13678743593817
 30
0.0
 10
177.4177442970599
 20
26.17733612933804
 30
0.0
 10
177.4845085478231
 20
26.20986375541911
 30
0.0
 10
177.552016498753
 20
26.23853246283259
 30
0.0
 10
177.622436123555
 20
26.25937726077099
 30
0.0
 10
177.7190735786812
 20
26.28026809934858
 30
0.0
 10
177.79380736474
 20
26.28596293974872
 30
0.0
 10
177.8437825052915
 20
26.28572378955307
 30
0.0
  0
SPLINE
  5
C1
330
1F
100
AcDbEntity
  8
0
  6
Continuous
 62
     7
370
    25
100
AcDbSpline
210
0.0
220
0.0
230
1.0
 70
     8
 71
     3
 72
    13
 73
     9
 74
     0
 42
0.00000001
 43
0.00000001
 40
0.0
 40
0.0
 40
0.0
 40
0.0
 40
0.2700189621433423
 40
0.3907190350710789
 40
0.5068223535253189
 40
0.6215239708754536
 40
0.7391668368063032
 40
1.0
 40
1.0
 40
1.0
 40
1.0
 10
177.8437825052915
 20
26.28572378955307
 30
0.0
 10
177.925433871674
 20
26.28618792711524
 30
0.0
 10
178.0445656263714
 20
26.2728665793156
 30
0.0
 10
178.1889863164543
 20
26.2186426622264
 30
0.0
 10
178.2802257272421
 20
26.16252185810153
 30
0.0
 10
178.3580738045775
 20
26.0903259733154
 30
0.0
 10
178.4463398225049
 20
25.96874851511166
 30
0.0
 10
178.4860158132016
 20
25.85912498238851
 30
0.0
 10
178.5035381142659
 20
25.78231834083511
 30
0.0
  0
SPLINE
  5
C2
330
1F
100
AcDbEntity
  8
0
  6
Continuous
 62
     7
370
    25
100
AcDbSpline
210
0.0
220
0.0
230
1.0
 70
     8
 71
     3
 72
    13
 73
     9
 74
     0
 42
0.00000001
 43
0.00000001
 40
0.0
 40
0.0
 40
0.0
 40
0.0
 40
0.1585173269300211
 40
0.2599203239142082
 40
0.3767455717754368
 40
0.5101743366316052
 40
0.6578903510576951
 40
1.0
 40
1.0
 40
1.0
 40
1.0
 10
178.5035381142659
 20
25.78231834083511
 30
0.0
 10
178.5106007491467
 20
25.75226241554118
 30
0.0
 10
178.5190658292496
 20
25.7022992784558
 30
0.0
 10
178.5264175595552
 20
25.62930274819142
 30
0.0
 10
178.5322154453519
 20
25.56107309707789
 30
0.0
 10
178.5361593084587
 20
25.48367445584443
 30
0.0
 10
178.5400916289417
 20
25.36238149864967
 30
0.0
 10
178.5402029975108
 20
25.26699029942159
 30
0.0
 10
178.540697569394
 20
25.20038725109153
 30
0.0
  0
SPLINE
  5
C6
330
1F
100
AcDbEntity
  8
0
  6
Continuous
 62
     7
370
    25
100
AcDbSpline
210
0.0
220
0.0
230
1.0
 70
     8
 71
     3
 72
    21
 73
    17
 74
     0
 42
0.00000001
 43
0.00000001
 40
0.0
 40
0.0
 40
0.0
 40
0.0
 40
0.1317255445271741
 40
0.1906683746814265
 40
0.2451968850948476
 40
0.2955087738855862
 40
0.3412437630224658
 40
0.3833864553034272
 40
0.4214402664762985
 40
0.492956384356707
 40
0.5628694745136158
 40
0.6330237453801784
 40
0.7044573558011064
 40
0.7765120161995835
 40
0.8488218595336068
 40
1.0
 40
1.0
 40
1.0
 40
1.0
 10
178.8548001334966
 20
25.30345215493768
 30
0.0
 10
178.8555800860315
 20
25.38413885812785
 30
0.0
 10
178.8517393411148
 20
25.5009298255694
 30
0.0
 10
178.8401065732654
 20
25.65065640262198
 30
0.0
 10
178.8295456085193
 20
25.75045459431779
 30
0.0
 10
178.8139100364595
 20
25.84139418229425
 30
0.0
 10
178.7958799483604
 20
25.92411233611747
 30
0.0
 10
178.774647403141
 20
25.99835907773041
 30
0.0
 10
178.7409218103431
 20
26.08504790815469
 30
0.0
 10
178.6897244445067
 20
26.18277081267983
 30
0.0
 10
178.6133611104927
 20
26.28810791152469
 30
0.0
 10
178.5210366104672
 20
26.37968190590656
 30
0.0
 10
178.4159080499283
 20
26.45830281336048
 30
0.0
 10
178.2992935910382
 20
26.52146029663727
 30
0.0
 10
178.1287217908121
 20
26.58421210459694
 30
0.0
 10
177.9908456507986
 20
26.59921457848768
 30
0.0
 10
177.8984700052914
 20
26.59982635365565
 30
0.0
  0
SPLINE
  5
C7
330
1F
100
AcDbEntity
  8
0
  6
Continuous
 62
     7
370
    25
100
AcDbSpline
210
0.0
220
0.0
230
1.0
 70
     8
 71
     3
 72
    13
 73
     9
 74
     0
 42
0.00000001
 43
0.00000001
 40
0.0
 40
0.0
 40
0.0
 40
0.0
 40
0.2434110992594182
 40
0.3618899784752182
 40
0.4800702186075755
 40
0.6010116861957749
 40
0.7264312190368025
 40
1.0
 40
1.0
 40
1.0
 40
1.0
 10
177.8984700052914
 20
26.59982635365565
 30
0.0
 10
177.806020327178
 20
26.59935011318937
 30
0.0
 10
177.6679865332163
 20
26.58582238385565
 30
0.0
 10
177.4924846043313
 20
26.53423178457526
 30
0.0
 10
177.366856121382
 20
26.48144054143808
 30
0.0
 10
177.2468835752581
 20
26.41130510205825
 30
0.0
 10
177.0895645362216
 20
26.29074428273947
 30
0.0
 10
176.9886697582309
 20
26.17582367965532
 30
0.0
 10
176.9253129540095
 20
26.0936164177582
 30
0.0
  0
SPLINE
  5
CC
330
1F
100
AcDbEntity
  8
0
  6
Continuous
 62
     7
370
    25
100
AcDbSpline
210
0.0
220
0.0
230
1.0
 70
     8
 71
     3
 72
     9
 73
     5
 74
     0
 42
0.00000001
 43
0.00000001
 40
0.0
 40
0.0
 40
0.0
 40
0.0
 40
0.5074092035235833
 40
1.0
 40
1.0
 40
1.0
 40
1.0
 10
179.4830052617019
 20
25.92885279596335
 30
0.0
 10
179.4817334882912
 20
25.85813372103885
 30
0.0
 10
179.5024499672372
 20
25.71911562889451
 30
0.0
 10
179.5608238307992
 20
25.59121714090218
 30
0.0
 10
179.6000926014455
 20
25.53482234724547
 30
0.0
  0
SPLINE
  5
CD
330
1F
100
AcDbEntity
  8
0
  6
Continuous
 62
     7
370
    25
100
AcDbSpline
210
0.0
220
0.0
230
1.0
 70
     8
 71
     3
 72
    13
 73
     9
 74
     0
 42
0.00000001
 43
0.00000001
 40
0.0
 40
0.0
 40
0.0
 40
0.0
 40
0.1977042930090794
 40
0.3078458435568139
 40
0.4271756375984301
 40
0.5562245009992262
 40
0.6940497867915497
 40
1.0
 40
1.0
 40
1.0
 40
1.0
 10
179.6000926014455
 20
25.53482234724547
 30
0.0
 10
179.6210316811044
 20
25.50375508808389
 30
0.0
 10
179.6592907933391
 20
25.45969822804217
 30
0.0
 10
179.7172045202866
 20
25.40333284416674
 30
0.0
 10
179.7693367573723
 20
25.35988928420707
 30
0.0
 10
179.8284472048436
 20
25.31698669620441
 30
0.0
 10
179.9175173536981
 20
25.25531782134804
 30
0.0
 10
179.9905039938444
 20
25.21363077423144
 30
0.0
 10
180.0410982104198
 20
25.18566369339925
 30
0.0
  0
SPLINE
  5
CE
330
1F
100
AcDbEntity
  8
0
  6
Continuous
 62
     7
370
    25
100
AcDbSpline
210
0.0
220
0.0
230
1.0
 70
     8
 71
     3
 72
    13
 73
     9
 74
     0
 42
0.00000001
 43
0.00000001
 40
0.0
 40
0.0
 40
0.0
 40
0.0
 40
0.3337367066248621
 40
0.4791986316519813
 40
0.6104491594873718
 40
0.7277299767534031
 40
0.8325383242741483
 40
1.0
 40
1.0
 40
1.0
 40
1.0
 10
180.0410982104198
 20
25.18566369339925
 30
0.0
 10
180.0874681029005
 20
25.16120669084565
 30
0.0
 10
180.1530935213723
 20
25.12435190525864
 30
0.0
 10
180.2357497014669
 20
25.07574701519133
 30
0.0
 10
180.2877491502049
 20
25.0421602986215
 30
0.0
 10
180.3328662836132
 20
25.00980669302166
 30
0.0
 10
180.3807721212512
 20
24.9717172773315
 30
0.0
 10
180.411971565672
 20
24.94230912783957
 30
0.0
 10
180.428818562984
 20
24.92204189852743
 30
0.0
  0
SPLINE
  5
CF
330
1F
100
AcDbEntity
  8
0
  6
Continuous
 62
     7
370
    25
100
AcDbSpline
210
0.0
220
0.0
230
1.0
 70
     8
 71
     3
 72
     9
 73
     5
 74
     0
 42
0.00000001
 43
0.00000001
 40
0.0
 40
0.0
 40
0.0
 40
0.0
 40
0.4995466848970542
 40
1.0
 40
1.0
 40
1.0
 40
1.0
 10
180.428818562984
 20
24.92204189852743
 30
0.0
 10
180.4567080848325
 20
24.88809118931579
 30
0.0
 10
180.5008976585364
 20
24.81031137130973
 30
0.0
 10
180.5148891928654
 20
24.7220211322976
 30
0.0
 10
180.5150565437532
 20
24.67805151391211
 30
0.0
  0
SPLINE
  5
D0
330
1F
100
AcDbEntity
  8
0
  6
Continuous
 62
     7
370
    25
100
AcDbSpline
210
0.0
220
0.0
230
1.0
 70
     8
 71
     3
 72
    13
 73
     9
 74
     0
 42
0.00000001
 43
0.00000001
 40
0.0
 40
0.0
 40
0.0
 40
0.0
 40
0.2352817369432602
 40
0.3554913463217786
 40
0.4823137941791906
 40
0.6121639553088953
 40
0.7381043263492042
 40
1.0
 40
1.0
 40
1.0
 40
1.0
 10
180.5150565437532
 20
24.67805151391211
 30
0.0
 10
180.5153877987362
 20
24.62483295287388
 30
0.0
 10
180.4982710247293
 20
24.54435398427579
 30
0.0
 10
180.4421343343494
 20
24.45003267733947
 30
0.0
 10
180.3843111756351
 20
24.38706041962735
 30
0.0
 10
180.3162664628561
 20
24.33304057282604
 30
0.0
 10
180.2105619634424
 20
24.28126781771212
 30
0.0
 10
180.1227423156389
 20
24.26598059039253
 30
0.0
 10
180.0635341078557
 20
24.26649302032235
 30
0.0
  0
SPLINE
  5
D1
330
1F
100
AcDbEntity
  8
0
  6
Continuous
 62
     7
370
    25
100
AcDbSpline
210
0.0
220
0.0
230
1.0
 70
     8
 71
     3
 72
    13
 73
     9
 74
     0
 42
0.00000001
 43
0.00000001
 40
0.0
 40
0.0
 40
0.0
 40
0.0
 40
0.2249939016839898
 40
0.3407622816196355
 40
0.459499256413394
 40
0.5828283517555495
 40
0.7140958284555524
 40
1.0
 40
1.0
 40
1.0
 40
1.0
 10
180.0635341078557
 20
24.26649302032235
 30
0.0
 10
180.0190779255693
 20
24.26627783333746
 30
0.0
 10
179.951925609056
 20
24.27534027608624
 30
0.0
 10
179.8654638738447
 20
24.30325755291584
 30
0.0
 10
179.8012400988624
 20
24.33298986870602
 30
0.0
 10
179.7384171724368
 20
24.37165330708757
 30
0.0
 10
179.652566315079
 20
24.43513920355777
 30
0.0
 10
179.5942729709504
 20
24.49382869489525
 30
0.0
 10
179.5566230501634
 20
24.53572378955315
 30
0.0
  0
SPLINE
  5
D3
330
1F
100
AcDbEntity
  8
0
  6
Continuous
 62
     7
370
    25
100
AcDbSpline
210
0.0
220
0.0
230
1.0
 70
     8
 71
     3
 72
    13
 73
     9
 74
     0
 42
0.00000001
 43
0.00000001
 40
0.0
 40
0.0
 40
0.0
 40
0.0
 40
0.2445989327970473
 40
0.3685417614065689
 40
0.4953064507483649
 40
0.6227813119738068
 40
0.7482760387504068
 40
1.0
 40
1.0
 40
1.0
 40
1.0
 10
179.3483898770864
 20
24.29874462288639
 30
0.0
 10
179.3906576681549
 20
24.24514572076774
 30
0.0
 10
179.4640010515
 20
24.17214334500484
 30
0.0
 10
179.5772419132995
 20
24.09255168739033
 30
0.0
 10
179.6702469374796
 20
24.04235380354325
 30
0.0
 10
179.7686419332246
 20
24.00270021524953
 30
0.0
 10
179.904201070456
 20
23.96398317758108
 30
0.0
 10
180.0093998995251
 20
23.95185743686001
 30
0.0
 10
180.0796599091377
 20
23.95239045621977
 30
0.0
  0
SPLINE
  5
D4
330
1F
100
AcDbEntity
  8
0
  6
Continuous
 62
     7
370
    25
100
AcDbSpline
210
0.0
220
0.0
230
1.0
 70
     8
 71
     3
 72
    21
 73
    17
 74
     0
 42
0.00000001
 43
0.00000001
 40
0.0
 40
0.0
 40
0.0
 40
0.0
 40
0.1313602991794603
 40
0.194501516428776
 40
0.2564315180678534
 40
0.3176028927083406
 40
0.3786284196027307
 40
0.4404806721564614
 40
0.5042957142746892
 40
0.5681107563928984
 40
0.6299630089466474
 40
0.6904753005359335
 40
0.7513604849059731
 40
0.8114026619125837
 40
0.8728008672444953
 40
1.0
 40
1.0
 40
1.0
 40
1.0
 10
180.0796599091379
 20
23.95239045621977
 30
0.0
 10
180.1310493953197
 20
23.95274055477303
 30
0.0
 10
180.2073438937342
 20
23.95847996435829
 30
0.0
 10
180.3053360962576
 20
23.98113145963676
 30
0.0
 10
180.3742989738766
 20
24.00517979577266
 30
0.0
 10
180.4398259789506
 20
24.0354503780269
 30
0.0
 10
180.5020647569299
 20
24.07202331754266
 30
0.0
 10
180.5605709030616
 20
24.11604765258801
 30
0.0
 10
180.6154164203046
 20
24.16613329607142
 30
0.0
 10
180.665507695211
 20
24.22097227745634
 30
0.0
 10
180.7093829726511
 20
24.27934822705313
 30
0.0
 10
180.7459294387772
 20
24.34118438274113
 30
0.0
 10
180.7771187643939
 20
24.40514367612512
 30
0.0
 10
180.8001941174079
 20
24.47283764471031
 30
0.0
 10
180.823189184181
 20
24.56757035009771
 30
0.0
 10
180.8286872055873
 20
24.64164488522047
 30
0.0
 10
180.8291591078556
 20
24.6913728280147
 30
0.0
  0
SPLINE
  5
D5
330
1F
100
AcDbEntity
  8
0
  6
Continuous
 62
     7
370
    25
100
AcDbSpline
210
0.0
220
0.0
230
1.0
 70
     8
 71
     3
 72
     9
 73
     5
 74
     0
 42
0.00000001
 43
0.00000001
 40
0.0
 40
0.0
 40
0.0
 40
0.0
 40
0.5047649745423515
 40
1.0
 40
1.0
 40
1.0
 40
1.0
 10
180.8291591078556
 20
24.6913728280147
 30
0.0
 10
180.8281581030039
 20
24.76161675399091
 30
0.0
 10
180.8120994847003
 20
24.90262014203837
 30
0.0
 10
180.748022632402
 20
25.0292712887703
 30
0.0
 10
180.7099684027276
 20
25.08680552032239
 30
0.0
  0
SPLINE
  5
D6
330
1F
100
AcDbEntity
  8
0
  6
Continuous
 62
     7
370
    25
100
AcDbSpline
210
0.0
220
0.0
230
1.0
 70
     8
 71
     3
 72
    13
 73
     9
 74
     0
 42
0.00000001
 43
0.00000001
 40
0.0
 40
0.0
 40
0.0
 40
0.0
 40
0.1954188198467802
 40
0.3058478904170387
 40
0.4251239275883485
 40
0.5537868414038684
 40
0.6928854083944319
 40
1.0
 40
1.0
 40
1.0
 40
1.0
 10
180.7099684027276
 20
25.08680552032239
 30
0.0
 10
180.6878037701474
 20
25.11810186409913
 30
0.0
 10
180.6486679041051
 20
25.16391062582224
 30
0.0
 10
180.5869723870459
 20
25.22011291127191
 30
0.0
 10
180.5330538067233
 20
25.26528316158605
 30
0.0
 10
180.4715888812
 20
25.30994044852219
 30
0.0
 10
180.3779045952044
 20
25.37277146111516
 30
0.0
 10
180.3020513122214
 20
25.41664973027891
 30
0.0
 10
180.2493313834967
 20
25.44577987929675
 30
0.0
  0
SPLINE
  5
D7
330
1F
100
AcDbEntity
  8
0
  6
Continuous
 62
     7
370
    25
100
AcDbSpline
210
0.0
220
0.0
230
1.0
 70
     8
 71
     3
 72
    13
 73
     9
 74
     0
 42
0.00000001
 43
0.00000001
 40
0.0
 40
0.0
 40
0.0
 40
0.0
 40
0.3238790058012839
 40
0.4664315196199199
 40
0.5977832531928436
 40
0.716017640049548
 40
0.8224401785340064
 40
1.0
 40
1.0
 40
1.0
 40
1.0
 10
180.2493313834967
 20
25.44577987929675
 30
0.0
 10
180.2059092959699
 20
25.46839101078735
 30
0.0
 10
180.1457167489307
 20
25.50497841806432
 30
0.0
 10
180.06887003098
 20
25.55238964564644
 30
0.0
 10
180.0201017185591
 20
25.58599954874818
 30
0.0
 10
179.9768151693004
 20
25.61796846140007
 30
0.0
 10
179.9312384861286
 20
25.65815216512335
 30
0.0
 10
179.9000294385291
 20
25.68768718560388
 30
0.0
 10
179.8840469283685
 20
25.70940167416846
 30
0.0
  0
SPLINE
  5
D8
330
1F
100
AcDbEntity
  8
0
  6
Continuous
 62
     7
370
    25
100
AcDbSpline
210
0.0
220
0.0
230
1.0
 70
     8
 71
     3
 72
     9
 73
     5
 74
     0
 42
0.00000001
 43
0.00000001
 40
0.0
 40
0.0
 40
0.0
 40
0.0
 40
0.5205968063940213
 40
1.0
 40
1.0
 40
1.0
 40
1.0
 10
179.8840469283685
 20
25.70940167416846
 30
0.0
 10
179.857356739508
 20
25.74393072612313
 30
0.0
 10
179.8128694854646
 20
25.81696361477515
 30
0.0
 10
179.7971833416484
 20
25.90110745512353
 30
0.0
 10
179.7971078258045
 20
25.9414729882711
 30
0.0
  0
SPLINE
  5
D9
330
1F
100
AcDbEntity
  8
0
  6
Continuous
 62
     7
370
    25
100
AcDbSpline
210
0.0
220
0.0
230
1.0
 70
     8
 71
     3
 72
    13
 73
     9
 74
     0
 42
0.00000001
 43
0.00000001
 40
0.0
 40
0.0
 40
0.0
 40
0.0
 40
0.248971671148973
 40
0.3714961336333736
 40
0.5014891588227018
 40
0.6308339704139223
 40
0.754099371393653
 40
1.0
 40
1.0
 40
1.0
 40
1.0
 10
179.7971078258045
 20
25.9414729882711
 30
0.0
 10
179.7972313179893
 20
25.98541764041873
 30
0.0
 10
179.8090637329321
 20
26.05142266039284
 30
0.0
 10
179.8507512983621
 20
26.13027652012001
 30
0.0
 10
179.8931884030868
 20
26.18305706408275
 30
0.0
 10
179.9433607103695
 20
26.2289590123207
 30
0.0
 10
180.0206833585059
 20
26.27252553062431
 30
0.0
 10
180.0857897786784
 20
26.28661853273329
 30
0.0
 10
180.1294395565737
 20
26.28572378955307
 30
0.0
  0
SPLINE
  5
DA
330
1F
100
AcDbEntity
  8
0
  6
Continuous
 62
     7
370
    25
100
AcDbSpline
210
0.0
220
0.0
230
1.0
 70
     8
 71
     3
 72
    13
 73
     9
 74
     0
 42
0.00000001
 43
0.00000001
 40
0.0
 40
0.0
 40
0.0
 40
0.0
 40
0.2066658703703788
 40
0.3164748855849829
 40
0.4340367728953333
 40
0.5586910361120339
 40
0.6949644946417399
 40
1.0
 40
1.0
 40
1.0
 40
1.0
 10
180.1294395565737
 20
26.28572378955307
 30
0.0
 10
180.1662544302733
 20
26.28569102374068
 30
0.0
 10
180.2224749420082
 20
26.27658292133284
 30
0.0
 10
180.2945378500382
 20
26.24833729444043
 30
0.0
 10
180.3499992703546
 20
26.21893274393561
 30
0.0
 10
180.4050378939511
 20
26.17996092505926
 30
0.0
 10
180.4828599688592
 20
26.11596627446322
 30
0.0
 10
180.5363289665028
 20
26.05802204673635
 30
0.0
 10
180.5711462873429
 20
26.01649302032239
 30
0.0
  0
SPLINE
  5
DC
330
1F
100
AcDbEntity
  8
0
  6
Continuous
 62
     7
370
    25
100
AcDbSpline
210
0.0
220
0.0
230
1.0
 70
     8
 71
     3
 72
    13
 73
     9
 74
     0
 42
0.00000001
 43
0.00000001
 40
0.0
 40
0.0
 40
0.0
 40
0.0
 40
0.297287795518775
 40
0.4309389201448542
 40
0.5555483284431681
 40
0.67387326992651
 40
0.786588387361059
 40
1.0
 40
1.0
 40
1.0
 40
1.0
 10
180.7842873129839
 20
26.23594414211716
 30
0.0
 10
180.7336792561755
 20
26.29323871027944
 30
0.0
 10
180.6537366114906
 20
26.37045392780912
 30
0.0
 10
180.5402299242273
 20
26.45733163122443
 30
0.0
 10
180.4584414735909
 20
26.50943340775436
 30
0.0
 10
180.3761127180884
 20
26.54961133081313
 30
0.0
 10
180.2682176083229
 20
26.58808189686523
 30
0.0
 10
180.184334848626
 20
26.59977316513051
 30
0.0
 10
180.1294395565737
 20
26.59982635365565
 30
0.0
  0
SPLINE
  5
DD
330
1F
100
AcDbEntity
  8
0
  6
Continuous
 62
     7
370
    25
100
AcDbSpline
210
0.0
220
0.0
230
1.0
 70
     8
 71
     3
 72
    21
 73
    17
 74
     0
 42
0.00000001
 43
0.00000001
 40
0.0
 40
0.0
 40
0.0
 40
0.0
 40
0.1291156642467617
 40
0.1906142170369299
 40
0.2512349941101595
 40
0.3110899094595513
 40
0.3711861458444906
 40
0.43211947994139
 40
0.4949206964951557
 40
0.5573643976838026
 40
0.6191271459504197
 40
0.6802716623934746
 40
0.7413865832314339
 40
0.8034925619466107
 40
0.8669564647560922
 40
1.0
 40
1.0
 40
1.0
 40
1.0
 10
180.1294395565737
 20
26.59982635365565
 30
0.0
 10
180.0845264949595
 20
26.60036091699225
 30
0.0
 10
180.0182810124872
 20
26.59413174575631
 30
0.0
 10
179.9331040081974
 20
26.57438862386396
 30
0.0
 10
179.8732833073679
 20
26.55341391295341
 30
0.0
 10
179.8168749481908
 20
26.5256417223998
 30
0.0
 10
179.7633366741841
 20
26.49253725543455
 30
0.0
 10
179.7124419138446
 20
26.45373811139429
 30
0.0
 10
179.6653352482119
 20
26.40922892559949
 30
0.0
 10
179.6224920290085
 20
26.36022576448704
 30
0.0
 10
179.5853043419095
 20
26.30748982212283
 30
0.0
 10
179.5536594030894
 20
26.25183247563034
 30
0.0
 10
179.5271727818453
 20
26.19332990614109
 30
0.0
 10
179.5081316698
 20
26.13120486116582
 30
0.0
 10
179.4874505009642
 20
26.04362997599463
 30
0.0
 10
179.4833220505701
 20
25.97499510896128
 30
0.0
 10
179.4830052617019
 20
25.92885279596335
 30
0.0
  0
SPLINE
  5
DE
330
1F
100
AcDbEntity
  8
0
  6
Continuous
 62
     7
370
    25
100
AcDbSpline
210
0.0
220
0.0
230
1.0
 70
     8
 71
     3
 72
    13
 73
     9
 74
     0
 42
0.00000001
 43
0.00000001
 40
0.0
 40
0.0
 40
0.0
 40
0.0
 40
0.2598496298712539
 40
0.3866707319148509
 40
0.5150828775346947
 40
0.6425029490726826
 40
0.7624536797230972
 40
1.0
 40
1.0
 40
1.0
 40
1.0
 10
181.5681414796506
 20
27.09341609724536
 30
0.0
 10
181.6061374076158
 20
27.09349173653586
 30
0.0
 10
181.6635450691238
 20
27.1021855950746
 30
0.0
 10
181.7312441630332
 20
27.13698330007031
 30
0.0
 10
181.775863350866
 20
27.17140909154747
 30
0.0
 10
181.8138126571102
 20
27.21188948629338
 30
0.0
 10
181.8499720929979
 20
27.27384120645637
 30
0.0
 10
181.8612846846938
 20
27.32630441508843
 30
0.0
 10
181.861210389907
 20
27.36124462288647
 30
0.0
  0
SPLINE
  5
DF
330
1F
100
AcDbEntity
  8
0
  6
Continuous
 62
     7
370
    25
100
AcDbSpline
210
0.0
220
0.0
230
1.0
 70
     8
 71
     3
 72
    13
 73
     9
 74
     0
 42
0.00000001
 43
0.00000001
 40
0.0
 40
0.0
 40
0.0
 40
0.0
 40
0.2407702368354425
 40
0.3613679915788172
 40
0.4880203848743234
 40
0.6156588752209213
 40
0.7417159076830835
 40
1.0
 40
1.0
 40
1.0
 40
1.0
 10
181.861210389907
 20
27.36124462288647
 30
0.0
 10
181.861411544722
 20
27.39690205219258
 30
0.0
 10
181.850044583233
 20
27.45020255060404
 30
0.0
 10
181.8140408053573
 20
27.51331009896307
 30
0.0
 10
181.7758388032298
 20
27.55386966393214
 30
0.0
 10
181.7312506375942
 20
27.58831438326481
 30
0.0
 10
181.6635406543985
 20
27.62310544428126
 30
0.0
 10
181.6061397142817
 20
27.63180340380356
 30
0.0
 10
181.5681414796506
 20
27.63187763570696
 30
0.0
  0
SPLINE
  5
E0
330
1F
100
AcDbEntity
  8
0
  6
Continuous
 62
     7
370
    25
100
AcDbSpline
210
0.0
220
0.0
230
1.0
 70
     8
 71
     3
 72
    13
 73
     9
 74
     0
 42
0.00000001
 43
0.00000001
 40
0.0
 40
0.0
 40
0.0
 40
0.0
 40
0.2551062187428466
 40
0.3818851554071034
 40
0.5102546066587019
 40
0.6365625239462811
 40
0.757850918666084
 40
1.0
 40
1.0
 40
1.0
 40
1.0
 10
181.5681414796506
 20
27.63187763570696
 30
0.0
 10
181.530738938877
 20
27.63211422401768
 30
0.0
 10
181.4742379505402
 20
27.62269504295678
 30
0.0
 10
181.407169331637
 20
27.58830114819477
 30
0.0
 10
181.3625243396576
 20
27.55409613897453
 30
0.0
 10
181.3250928070431
 20
27.51305982589769
 30
0.0
 10
181.2889610722264
 20
27.45027652103471
 30
0.0
 10
181.2777178926175
 20
27.39686407636255
 30
0.0
 10
181.2778770565736
 20
27.36124462288647
 30
0.0
  0
SPLINE
  5
E1
330
1F
100
AcDbEntity
  8
0
  6
Continuous
 62
     7
370
    25
100
AcDbSpline
210
0.0
220
0.0
230
1.0
 70
     8
 71
     3
 72
    13
 73
     9
 74
     0
 42
0.00000001
 43
0.00000001
 40
0.0
 40
0.0
 40
0.0
 40
0.0
 40
0.2389149952220574
 40
0.3595568481745961
 40
0.486634766847336
 40
0.6157867870573872
 40
0.7433385965465394
 40
1.0
 40
1.0
 40
1.0
 40
1.0
 10
181.2778770565736
 20
27.36124462288647
 30
0.0
 10
181.2778432046304
 20
27.32634095903419
 30
0.0
 10
181.2890354739199
 20
27.27376902769329
 30
0.0
 10
181.3253184486203
 20
27.21213776139741
 30
0.0
 10
181.3624996674099
 20
27.17118247918637
 30
0.0
 10
181.4071758670665
 20
27.13699658851343
 30
0.0
 10
181.4742335694661
 20
27.10259600604781
 30
0.0
 10
181.5307412282611
 20
27.09318091146473
 30
0.0
 10
181.5681414796506
 20
27.09341609724536
 30
0.0
  0
SPLINE
  5
E6
330
1F
100
AcDbEntity
  8
0
  6
Continuous
 62
     7
370
    25
100
AcDbSpline
210
0.0
220
0.0
230
1.0
 70
     8
 71
     3
 72
    13
 73
     9
 74
     0
 42
0.00000001
 43
0.00000001
 40
0.0
 40
0.0
 40
0.0
 40
0.0
 40
0.261488929626658
 40
0.3852472367599549
 40
0.5058984871003219
 40
0.6257895628173398
 40
0.7470150281421295
 40
1.0
 40
1.0
 40
1.0
 40
1.0
 10
184.7778770565735
 20
26.05996257160437
 30
0.0
 10
184.714543121051
 20
26.14449965471621
 30
0.0
 10
184.6125344236335
 20
26.26441278894131
 30
0.0
 10
184.450284078329
 20
26.39040505475288
 30
0.0
 10
184.3239190331855
 20
26.46723791755235
 30
0.0
 10
184.1894209134498
 20
26.52626969252914
 30
0.0
 10
183.9975823535484
 20
26.58494855842708
 30
0.0
 10
183.8453392581606
 20
26.59957844226046
 30
0.0
 10
183.7430212873427
 20
26.59982635365565
 30
0.0
  0
SPLINE
  5
E7
330
1F
100
AcDbEntity
  8
0
  6
Continuous
 62
     7
370
    25
100
AcDbSpline
210
0.0
220
0.0
230
1.0
 70
     8
 71
     3
 72
    21
 73
    17
 74
     0
 42
0.00000001
 43
0.00000001
 40
0.0
 40
0.0
 40
0.0
 40
0.0
 40
0.1283692574311769
 40
0.190417708860092
 40
0.2519211667422389
 40
0.3132736507580476
 40
0.3750861342515197
 40
0.438389176770406
 40
0.5032092055629105
 40
0.5679667722557898
 40
0.630868101539027
 40
0.6919966438355534
 40
0.7524260650823844
 40
0.8130959072527861
 40
0.8739211900104884
 40
1.0
 40
1.0
 40
1.0
 40
1.0
 10
183.7430212873427
 20
26.59982635365565
 30
0.0
 10
183.6536080550519
 20
26.59902873199682
 30
0.0
 10
183.5205839341179
 20
26.58888532815462
 30
0.0
 10
183.3493712998455
 20
26.5482058437303
 30
0.0
 10
183.2278057196882
 20
26.50483157923444
 30
0.0
 10
183.1105423032412
 20
26.45116880480791
 30
0.0
 10
182.9993191282132
 20
26.38345447543134
 30
0.0
 10
182.8924103822161
 20
26.30504473459194
 30
0.0
 10
182.7924755614575
 20
26.21482431010547
 30
0.0
 10
182.7002233711416
 20
26.11715304114304
 30
0.0
 10
182.6202034601833
 20
26.01238362307534
 30
0.0
 10
182.5522782012132
 20
25.90297971670319
 30
0.0
 10
182.496425854888
 20
25.78863921890328
 30
0.0
 10
182.4529168878018
 20
25.66928395375456
 30
0.0
 10
182.4109210567925
 20
25.50155193741899
 30
0.0
 10
182.4001895818997
 20
25.3709373867208
 30
0.0
 10
182.3996719283685
 20
25.28311962288643
 30
0.0
  0
SPLINE
  5
E8
330
1F
100
AcDbEntity
  8
0
  6
Continuous
 62
     7
370
    25
100
AcDbSpline
210
0.0
220
0.0
230
1.0
 70
     8
 71
     3
 72
    21
 73
    17
 74
     0
 42
0.00000001
 43
0.00000001
 40
0.0
 40
0.0
 40
0.0
 40
0.0
 40
0.1280988297755863
 40
0.1896694721890465
 40
0.2507063934632511
 40
0.311890666438603
 40
0.3732647830705283
 40
0.4358087922280679
 40
0.500424455805957
 40
0.5650608900029817
 40
0.6276710388631751
 40
0.6893315462593366
 40
0.7500699293139468
 40
0.8109958734420368
 40
0.8725665158555028
 40
1.0
 40
1.0
 40
1.0
 40
1.0
 10
182.3996719283685
 20
25.28311962288643
 30
0.0
 10
182.3998799206305
 20
25.19361326685798
 30
0.0
 10
182.4113868545659
 20
25.06091761134965
 30
0.0
 10
182.4520634306106
 20
24.89021043046058
 30
0.0
 10
182.4950164757187
 20
24.76889616059841
 30
0.0
 10
182.5508481570699
 20
24.65316283372343
 30
0.0
 10
182.6175981052357
 20
24.54212057248872
 30
0.0
 10
182.6976602389958
 20
24.43717502942622
 30
0.0
 10
182.7888920009024
 20
24.33877998108724
 30
0.0
 10
182.8879635996161
 20
24.24819219254881
 30
0.0
 10
182.9938362921696
 20
24.16895049582757
 30
0.0
 10
183.1048963304916
 20
24.10241239820598
 30
0.0
 10
183.2205687049685
 20
24.04682001100566
 30
0.0
 10
183.3418424158575
 20
24.00496243606698
 30
0.0
 10
183.5119090597373
 20
23.96410296397833
 30
0.0
 10
183.6441761705827
 20
23.95260855588732
 30
0.0
 10
183.7332055822146
 20
23.95239045621977
 30
0.0
  0
SPLINE
  5
E9
330
1F
100
AcDbEntity
  8
0
  6
Continuous
 62
     7
370
    25
100
AcDbSpline
210
0.0
220
0.0
230
1.0
 70
     8
 71
     3
 72
    13
 73
     9
 74
     0
 42
0.00000001
 43
0.00000001
 40
0.0
 40
0.0
 40
0.0
 40
0.0
 40
0.2518550583969853
 40
0.3726997642744652
 40
0.4928354033771648
 40
0.6137300878654817
 40
0.7379150246176973
 40
1.0
 40
1.0
 40
1.0
 40
1.0
 10
183.7332055822146
 20
23.95239045621977
 30
0.0
 10
183.8334417617024
 20
23.95158310576873
 30
0.0
 10
183.9818546185655
 20
23.96632065798976
 30
0.0
 10
184.1719074741989
 20
24.01574026370956
 30
0.0
 10
184.3068346809379
 20
24.06686415169379
 30
0.0
 10
184.4355009598773
 20
24.13505526503168
 30
0.0
 10
184.6021285503662
 20
24.24968943247008
 30
0.0
 10
184.7106395013205
 20
24.36021890662066
 30
0.0
 10
184.7778770565735
 20
24.43967010365566
 30
0.0
  0
SPLINE
  5
F0
330
1F
100
AcDbEntity
  8
0
  6
Continuous
 62
     7
370
    25
100
AcDbSpline
210
0.0
220
0.0
230
1.0
 70
     8
 71
     3
 72
    13
 73
     9
 74
     0
 42
0.00000001
 43
0.00000001
 40
0.0
 40
0.0
 40
0.0
 40
0.0
 40
0.2703816178319617
 40
0.3984601291783004
 40
0.5227503451014437
 40
0.6438255660090793
 40
0.7637452368382556
 40
1.0
 40
1.0
 40
1.0
 40
1.0
 10
188.3227488514453
 20
25.20880071262999
 30
0.0
 10
188.3211593867909
 20
25.29406035411341
 30
0.0
 10
188.3137983532891
 20
25.42004269347253
 30
0.0
 10
188.2831968698639
 20
25.58239881192248
 30
0.0
 10
188.2521867368037
 20
25.69622516255754
 30
0.0
 10
188.2138099591344
 20
25.80510689635052
 30
0.0
 10
188.1501991911404
 20
25.94189291824123
 30
0.0
 10
188.0902901507539
 20
26.03753208158843
 30
0.0
 10
188.0444034988812
 20
26.09642090493769
 30
0.0
  0
SPLINE
  5
F1
330
1F
100
AcDbEntity
  8
0
  6
Continuous
 62
     7
370
    25
100
AcDbSpline
210
0.0
220
0.0
230
1.0
 70
     8
 71
     3
 72
    13
 73
     9
 74
     0
 42
0.00000001
 43
0.00000001
 40
0.0
 40
0.0
 40
0.0
 40
0.0
 40
0.255257368140996
 40
0.3772478104725325
 40
0.4977415562850415
 40
0.6181201760750441
 40
0.7409671592206359
 40
1.0
 40
1.0
 40
1.0
 40
1.0
 10
188.0444034988813
 20
26.09642090493769
 30
0.0
 10
187.9830163551876
 20
26.17708101753691
 30
0.0
 10
187.8795734410498
 20
26.2867207079589
 30
0.0
 10
187.7212982652574
 20
26.40579149326017
 30
0.0
 10
187.5956287536817
 20
26.47700323996782
 30
0.0
 10
187.461784408175
 20
26.53208887145719
 30
0.0
 10
187.2691913450226
 20
26.58537812161654
 30
0.0
 10
187.1172830842949
 20
26.60025832723722
 30
0.0
 10
187.0144555822145
 20
26.59982635365565
 30
0.0
  0
SPLINE
  5
F2
330
1F
100
AcDbEntity
  8
0
  6
Continuous
 62
     7
370
    25
100
AcDbSpline
210
0.0
220
0.0
230
1.0
 70
     8
 71
     3
 72
    13
 73
     9
 74
     0
 42
0.00000001
 43
0.00000001
 40
0.0
 40
0.0
 40
0.0
 40
0.0
 40
0.2602406645595056
 40
0.3836752253642184
 40
0.5046599577622765
 40
0.6253567426858504
 40
0.7464106650135791
 40
1.0
 40
1.0
 40
1.0
 40
1.0
 10
187.0144555822145
 20
26.59982635365565
 30
0.0
 10
186.9149993710982
 20
26.59862777346922
 30
0.0
 10
186.7671235741218
 20
26.58759892260998
 30
0.0
 10
186.5805775481512
 20
26.53510451972163
 30
0.0
 10
186.4502361134276
 20
26.48347199000545
 30
0.0
 10
186.3286590903958
 20
26.41543244464073
 30
0.0
 10
186.1739969384167
 20
26.30466991766556
 30
0.0
 10
186.0752289630103
 20
26.19878808229559
 30
0.0
 10
186.0146559027273
 20
26.12306353314287
 30
0.0
  0
SPLINE
  5
F3
330
1F
100
AcDbEntity
  8
0
  6
Continuous
 62
     7
370
    25
100
AcDbSpline
210
0.0
220
0.0
230
1.0
 70
     8
 71
     3
 72
    13
 73
     9
 74
     0
 42
0.00000001
 43
0.00000001
 40
0.0
 40
0.0
 40
0.0
 40
0.0
 40
0.2534216680665266
 40
0.3767041167575432
 40
0.4994491585174913
 40
0.6225715734186964
 40
0.7462320999755214
 40
1.0
 40
1.0
 40
1.0
 40
1.0
 10
186.0146559027273
 20
26.12306353314287
 30
0.0
 10
185.9671046402325
 20
26.06157170931755
 30
0.0
 10
185.901940807504
 20
25.96550243803708
 30
0.0
 10
185.8337680311476
 20
25.82799140180547
 30
0.0
 10
185.7921889294267
 20
25.72245115208749
 30
0.0
 10
185.7600414966998
 20
25.61356346027199
 30
0.0
 10
185.7284141171423
 20
25.46301974931275
 30
0.0
 10
185.7211380370863
 20
25.3468908891481
 30
0.0
 10
185.7201847488812
 20
25.269097186989
 30
0.0
  0
SPLINE
  5
F4
330
1F
100
AcDbEntity
  8
0
  6
Continuous
 62
     7
370
    25
100
AcDbSpline
210
0.0
220
0.0
230
1.0
 70
     8
 71
     3
 72
    21
 73
    17
 74
     0
 42
0.00000001
 43
0.00000001
 40
0.0
 40
0.0
 40
0.0
 40
0.0
 40
0.1210804245006118
 40
0.1800682782218559
 40
0.2391896643238556
 40
0.2987059533012314
 40
0.3588810785072301
 40
0.4203687292950606
 40
0.4834483096802261
 40
0.5465664849029384
 40
0.6086986022254206
 40
0.670186253013248
 40
0.7318650366033053
 40
0.7952033026033165
 40
0.8603707753071415
 40
1.0
 40
1.0
 40
1.0
 40
1.0
 10
185.7201847488812
 20
25.269097186989
 30
0.0
 10
185.7210994761184
 20
25.18607454663901
 30
0.0
 10
185.7298791004177
 20
25.06222273965108
 30
0.0
 10
185.7659603846907
 20
24.90177559542161
 30
0.0
 10
185.8043357816045
 20
24.78591321993751
 30
0.0
 10
185.8518963614514
 20
24.6726422862259
 30
0.0
 10
185.9103516201508
 20
24.56267917002542
 30
0.0
 10
185.9802780393382
 20
24.45672326874593
 30
0.0
 10
186.059521758353
 20
24.35504126577326
 30
0.0
 10
186.147546003877
 20
24.26002502245051
 30
0.0
 10
186.2463655486839
 20
24.17789202679021
 30
0.0
 10
186.35286629338
 20
24.10793527834099
 30
0.0
 10
186.4676089718828
 20
24.05049765125278
 30
0.0
 10
186.5908190241067
 20
24.00657197746614
 30
0.0
 10
186.7700508671381
 20
23.96342562216258
 30
0.0
 10
186.9109725624766
 20
23.95242933912123
 30
0.0
 10
187.0067432424709
 20
23.95239045621977
 30
0.0
  0
SPLINE
  5
F5
330
1F
100
AcDbEntity
  8
0
  6
Continuous
 62
     7
370
    25
100
AcDbSpline
210
0.0
220
0.0
230
1.0
 70
     8
 71
     3
 72
    17
 73
    13
 74
     0
 42
0.00000001
 43
0.00000001
 40
0.0
 40
0.0
 40
0.0
 40
0.0
 40
0.1781058515637827
 40
0.2613277635121511
 40
0.3415565694705521
 40
0.4200079090126525
 40
0.4980968161626226
 40
0.5754001382821239
 40
0.6536452159657116
 40
0.7341257729573898
 40
0.8183392339289949
 40
1.0
 40
1.0
 40
1.0
 40
1.0
 10
187.0067432424709
 20
23.95239045621977
 30
0.0
 10
187.0930370342286
 20
23.95240161639423
 30
0.0
 10
187.2199135159989
 20
23.96105583742592
 30
0.0
 10
187.3822967885746
 20
23.99438153555322
 30
0.0
 10
187.4945954381166
 20
24.02875977033048
 30
0.0
 10
187.6004452545433
 20
24.07352046202793
 30
0.0
 10
187.7007345700588
 20
24.12663654405367
 30
0.0
 10
187.7954651570702
 20
24.18897606102888
 30
0.0
 10
187.8851427630987
 20
24.26022301050401
 30
0.0
 10
187.9702157558406
 20
24.34196942868572
 30
0.0
 10
188.0771616399485
 20
24.47173158340654
 30
0.0
 10
188.1466326307088
 20
24.58072746912954
 30
0.0
 10
188.1881334668298
 20
24.65842010365571
 30
0.0
  0
SPLINE
  5
F7
330
1F
100
AcDbEntity
  8
0
  6
Continuous
 62
     7
370
    25
100
AcDbSpline
210
0.0
220
0.0
230
1.0
 70
     8
 71
     3
 72
    17
 73
    13
 74
     0
 42
0.00000001
 43
0.00000001
 40
0.0
 40
0.0
 40
0.0
 40
0.0
 40
0.2079350339033564
 40
0.2946939715678991
 40
0.3697315241424307
 40
0.440830943802725
 40
0.5142509140460771
 40
0.5913900390896499
 40
0.6722743046458497
 40
0.7543412603705406
 40
0.8361211059014766
 40
1.0
 40
1.0
 40
1.0
 40
1.0
 10
187.9090869924709
 20
24.80495455878384
 30
0.0
 10
187.8665622664681
 20
24.73840707488084
 30
0.0
 10
187.7994464967979
 20
24.64877660942932
 30
0.0
 10
187.7059487077972
 20
24.54395767780026
 30
0.0
 10
187.6398968679636
 20
24.48493635266713
 30
0.0
 10
187.5717752490754
 20
24.43672999489832
 30
0.0
 10
187.4988963050901
 20
24.39457885283558
 30
0.0
 10
187.4196504067593
 20
24.35647834035026
 30
0.0
 10
187.3340795950079
 20
24.32489310966379
 30
0.0
 10
187.2448188517444
 20
24.29903483287321
 30
0.0
 10
187.1229705582722
 20
24.27351525084698
 30
0.0
 10
187.0296743258979
 20
24.26619218957315
 30
0.0
 10
186.9674804219581
 20
24.26649302032235
 30
0.0
  0
SPLINE
  5
F8
330
1F
100
AcDbEntity
  8
0
  6
Continuous
 62
     7
370
    25
100
AcDbSpline
210
0.0
220
0.0
230
1.0
 70
     8
 71
     3
 72
    21
 73
    17
 74
     0
 42
0.00000001
 43
0.00000001
 40
0.0
 40
0.0
 40
0.0
 40
0.0
 40
0.1276691474530424
 40
0.1889505232706536
 40
0.2490548673082992
 40
0.3090713134763196
 40
0.3692223593686933
 40
0.4301747620269846
 40
0.4926019887960209
 40
0.555346876893578
 40
0.6169627615204942
 40
0.678170777192346
 40
0.73924652255152
 40
0.8016089422160485
 40
0.8655244124565523
 40
1.0
 40
1.0
 40
1.0
 40
1.0
 10
186.9674804219581
 20
24.26649302032235
 30
0.0
 10
186.9044692675738
 20
24.26614333601929
 30
0.0
 10
186.8113410166814
 20
24.27486230068077
 30
0.0
 10
186.6913589516088
 20
24.30192876066151
 30
0.0
 10
186.6065866765491
 20
24.33099983173859
 30
0.0
 10
186.5256887238756
 20
24.3681890939299
 30
0.0
 10
186.4487951216532
 20
24.41399216866957
 30
0.0
 10
186.3765123923392
 20
24.46864463318532
 30
0.0
 10
186.3078052623664
 20
24.52970520515629
 30
0.0
 10
186.2460796835604
 20
24.59827239169976
 30
0.0
 10
186.1907396904427
 20
24.67131031694558
 30
0.0
 10
186.1443555940055
 20
24.74947232532399
 30
0.0
 10
186.1064826794974
 20
24.83240257236363
 30
0.0
 10
186.0752369145462
 20
24.9194851521114
 30
0.0
 10
186.0449563838729
 20
25.04469844335966
 30
0.0
 10
186.0360760374533
 20
25.14255470162119
 30
0.0
 10
186.0342873129837
 20
25.20880071262999
 30
0.0
  0
SPLINE
  5
FE
330
1F
100
AcDbEntity
  8
0
  6
Continuous
 62
     7
370
    25
100
AcDbSpline
210
0.0
220
0.0
230
1.0
 70
     8
 71
     3
 72
    13
 73
     9
 74
     0
 42
0.00000001
 43
0.00000001
 40
0.0
 40
0.0
 40
0.0
 40
0.0
 40
0.2703816178319616
 40
0.3984601291783004
 40
0.5227503451014437
 40
0.6438255660090793
 40
0.7637452368382587
 40
1.0
 40
1.0
 40
1.0
 40
1.0
 10
193.7971078258045
 20
25.20880071262999
 30
0.0
 10
193.79551836115
 20
25.29406035411341
 30
0.0
 10
193.7881573276482
 20
25.42004269347253
 30
0.0
 10
193.7575558442232
 20
25.58239881192259
 30
0.0
 10
193.726545711163
 20
25.69622516255754
 30
0.0
 10
193.6881689334937
 20
25.80510689635052
 30
0.0
 10
193.6245581654996
 20
25.94189291824123
 30
0.0
 10
193.5646491251135
 20
26.03753208158843
 30
0.0
 10
193.5187624732404
 20
26.09642090493769
 30
0.0
  0
SPLINE
  5
FF
330
1F
100
AcDbEntity
  8
0
  6
Continuous
 62
     7
370
    25
100
AcDbSpline
210
0.0
220
0.0
230
1.0
 70
     8
 71
     3
 72
    13
 73
     9
 74
     0
 42
0.00000001
 43
0.00000001
 40
0.0
 40
0.0
 40
0.0
 40
0.0
 40
0.255257368140996
 40
0.3772478104725325
 40
0.4977415562850401
 40
0.6181201760750441
 40
0.7409671592206357
 40
1.0
 40
1.0
 40
1.0
 40
1.0
 10
193.5187624732405
 20
26.09642090493769
 30
0.0
 10
193.4573753295469
 20
26.17708101753691
 30
0.0
 10
193.3539324154091
 20
26.2867207079589
 30
0.0
 10
193.1956572396165
 20
26.40579149326017
 30
0.0
 10
193.069987728041
 20
26.47700323996782
 30
0.0
 10
192.9361433825343
 20
26.53208887145719
 30
0.0
 10
192.743550319382
 20
26.58537812161654
 30
0.0
 10
192.5916420586539
 20
26.60025832723722
 30
0.0
 10
192.4888145565737
 20
26.59982635365565
 30
0.0
  0
SPLINE
  5
100
330
1F
100
AcDbEntity
  8
0
  6
Continuous
 62
     7
370
    25
100
AcDbSpline
210
0.0
220
0.0
230
1.0
 70
     8
 71
     3
 72
    13
 73
     9
 74
     0
 42
0.00000001
 43
0.00000001
 40
0.0
 40
0.0
 40
0.0
 40
0.0
 40
0.2602406645595056
 40
0.3836752253642184
 40
0.5046599577622765
 40
0.6253567426858504
 40
0.7464106650135791
 40
1.0
 40
1.0
 40
1.0
 40
1.0
 10
192.4888145565737
 20
26.59982635365565
 30
0.0
 10
192.3893583454571
 20
26.59862777346922
 30
0.0
 10
192.2414825484814
 20
26.58759892260998
 30
0.0
 10
192.0549365225102
 20
26.53510451972163
 30
0.0
 10
191.9245950877869
 20
26.48347199000545
 30
0.0
 10
191.8030180647551
 20
26.41543244464084
 30
0.0
 10
191.6483559127759
 20
26.30466991766556
 30
0.0
 10
191.5495879373697
 20
26.19878808229559
 30
0.0
 10
191.4890148770866
 20
26.12306353314287
 30
0.0
  0
SPLINE
  5
101
330
1F
100
AcDbEntity
  8
0
  6
Continuous
 62
     7
370
    25
100
AcDbSpline
210
0.0
220
0.0
230
1.0
 70
     8
 71
     3
 72
    13
 73
     9
 74
     0
 42
0.00000001
 43
0.00000001
 40
0.0
 40
0.0
 40
0.0
 40
0.0
 40
0.2534216680665267
 40
0.3767041167575467
 40
0.4994491585174913
 40
0.6225715734186964
 40
0.7462320999755214
 40
1.0
 40
1.0
 40
1.0
 40
1.0
 10
191.4890148770866
 20
26.12306353314287
 30
0.0
 10
191.4414636145919
 20
26.06157170931755
 30
0.0
 10
191.3762997818633
 20
25.96550243803708
 30
0.0
 10
191.3081270055067
 20
25.82799140180547
 30
0.0
 10
191.2665479037859
 20
25.72245115208749
 30
0.0
 10
191.2344004710591
 20
25.61356346027199
 30
0.0
 10
191.2027730915015
 20
25.46301974931275
 30
0.0
 10
191.1954970114454
 20
25.3468908891481
 30
0.0
 10
191.1945437232404
 20
25.269097186989
 30
0.0
  0
SPLINE
  5
102
330
1F
100
AcDbEntity
  8
0
  6
Continuous
 62
     7
370
    25
100
AcDbSpline
210
0.0
220
0.0
230
1.0
 70
     8
 71
     3
 72
    21
 73
    17
 74
     0
 42
0.00000001
 43
0.00000001
 40
0.0
 40
0.0
 40
0.0
 40
0.0
 40
0.1210804245006118
 40
0.1800682782218559
 40
0.2391896643238556
 40
0.2987059533012314
 40
0.3588810785072301
 40
0.4203687292950606
 40
0.4834483096802261
 40
0.5465664849029384
 40
0.6086986022254206
 40
0.670186253013248
 40
0.7318650366033053
 40
0.7952033026033165
 40
0.8603707753071415
 40
1.0
 40
1.0
 40
1.0
 40
1.0
 10
191.1945437232404
 20
25.269097186989
 30
0.0
 10
191.1954584504778
 20
25.18607454663901
 30
0.0
 10
191.2042380747768
 20
25.06222273965108
 30
0.0
 10
191.2403193590498
 20
24.90177559542161
 30
0.0
 10
191.2786947559637
 20
24.78591321993751
 30
0.0
 10
191.3262553358107
 20
24.6726422862259
 30
0.0
 10
191.38471059451
 20
24.56267917002542
 30
0.0
 10
191.4546370136973
 20
24.45672326874593
 30
0.0
 10
191.5338807327122
 20
24.35504126577326
 30
0.0
 10
191.6219049782362
 20
24.26002502245051
 30
0.0
 10
191.720724523043
 20
24.17789202679032
 30
0.0
 10
191.8272252677392
 20
24.10793527834099
 30
0.0
 10
191.9419679462419
 20
24.05049765125278
 30
0.0
 10
192.065177998466
 20
24.00657197746614
 30
0.0
 10
192.2444098414972
 20
23.96342562216258
 30
0.0
 10
192.3853315368358
 20
23.95242933912123
 30
0.0
 10
192.4811022168301
 20
23.95239045621977
 30
0.0
  0
SPLINE
  5
103
330
1F
100
AcDbEntity
  8
0
  6
Continuous
 62
     7
370
    25
100
AcDbSpline
210
0.0
220
0.0
230
1.0
 70
     8
 71
     3
 72
    17
 73
    13
 74
     0
 42
0.00000001
 43
0.00000001
 40
0.0
 40
0.0
 40
0.0
 40
0.0
 40
0.1781058515637827
 40
0.2613277635121511
 40
0.3415565694705521
 40
0.4200079090126525
 40
0.4980968161626226
 40
0.5754001382821239
 40
0.6536452159657116
 40
0.7341257729573898
 40
0.8183392339289949
 40
1.0
 40
1.0
 40
1.0
 40
1.0
 10
192.4811022168301
 20
23.95239045621977
 30
0.0
 10
192.567396008588
 20
23.95240161639423
 30
0.0
 10
192.6942724903579
 20
23.96105583742592
 30
0.0
 10
192.8566557629339
 20
23.99438153555322
 30
0.0
 10
192.9689544124757
 20
24.02875977033048
 30
0.0
 10
193.0748042289026
 20
24.07352046202793
 30
0.0
 10
193.175093544418
 20
24.12663654405367
 30
0.0
 10
193.2698241314294
 20
24.18897606102888
 30
0.0
 10
193.3595017374579
 20
24.26022301050401
 30
0.0
 10
193.4445747301998
 20
24.34196942868572
 30
0.0
 10
193.5515206143077
 20
24.47173158340654
 30
0.0
 10
193.6209916050682
 20
24.58072746912954
 30
0.0
 10
193.662492441189
 20
24.65842010365571
 30
0.0
  0
SPLINE
  5
105
330
1F
100
AcDbEntity
  8
0
  6
Continuous
 62
     7
370
    25
100
AcDbSpline
210
0.0
220
0.0
230
1.0
 70
     8
 71
     3
 72
    17
 73
    13
 74
     0
 42
0.00000001
 43
0.00000001
 40
0.0
 40
0.0
 40
0.0
 40
0.0
 40
0.207935033903354
 40
0.294693971567899
 40
0.3697315241424306
 40
0.4408309438027249
 40
0.5142509140460771
 40
0.5913900390896498
 40
0.6722743046458497
 40
0.7543412603705406
 40
0.8361211059014765
 40
1.0
 40
1.0
 40
1.0
 40
1.0
 10
193.3834459668301
 20
24.80495455878384
 30
0.0
 10
193.3409212408272
 20
24.73840707488084
 30
0.0
 10
193.2738054711572
 20
24.64877660942932
 30
0.0
 10
193.1803076821563
 20
24.54395767780026
 30
0.0
 10
193.1142558423229
 20
24.48493635266713
 30
0.0
 10
193.0461342234346
 20
24.43672999489832
 30
0.0
 10
192.9732552794493
 20
24.39457885283558
 30
0.0
 10
192.8940093811185
 20
24.35647834035026
 30
0.0
 10
192.8084385693671
 20
24.32489310966379
 30
0.0
 10
192.7191778261036
 20
24.29903483287321
 30
0.0
 10
192.5973295326313
 20
24.27351525084698
 30
0.0
 10
192.5040333002572
 20
24.26619218957315
 30
0.0
 10
192.4418393963173
 20
24.26649302032235
 30
0.0
  0
SPLINE
  5
106
330
1F
100
AcDbEntity
  8
0
  6
Continuous
 62
     7
370
    25
100
AcDbSpline
210
0.0
220
0.0
230
1.0
 70
     8
 71
     3
 72
    21
 73
    17
 74
     0
 42
0.00000001
 43
0.00000001
 40
0.0
 40
0.0
 40
0.0
 40
0.0
 40
0.1276691474530424
 40
0.1889505232706536
 40
0.2490548673082992
 40
0.3090713134763196
 40
0.3692223593686933
 40
0.4301747620269846
 40
0.4926019887960209
 40
0.555346876893578
 40
0.6169627615204942
 40
0.678170777192346
 40
0.73924652255152
 40
0.8016089422160485
 40
0.8655244124565523
 40
1.0
 40
1.0
 40
1.0
 40
1.0
 10
192.4418393963173
 20
24.26649302032235
 30
0.0
 10
192.3788282419332
 20
24.2661433360194
 30
0.0
 10
192.2856999910405
 20
24.27486230068077
 30
0.0
 10
192.1657179259681
 20
24.30192876066151
 30
0.0
 10
192.0809456509082
 20
24.33099983173859
 30
0.0
 10
192.0000476982349
 20
24.3681890939299
 30
0.0
 10
191.9231540960122
 20
24.41399216866957
 30
0.0
 10
191.8508713666984
 20
24.46864463318532
 30
0.0
 10
191.7821642367256
 20
24.52970520515629
 30
0.0
 10
191.7204386579196
 20
24.59827239169976
 30
0.0
 10
191.6650986648018
 20
24.67131031694558
 30
0.0
 10
191.6187145683649
 20
24.74947232532399
 30
0.0
 10
191.5808416538568
 20
24.83240257236374
 30
0.0
 10
191.5495958889054
 20
24.9194851521114
 30
0.0
 10
191.5193153582321
 20
25.04469844335966
 30
0.0
 10
191.5104350118126
 20
25.14255470162119
 30
0.0
 10
191.508646287343
 20
25.20880071262999
 30
0.0
  0
SPLINE
  5
112
330
1F
100
AcDbEntity
  8
0
  6
Continuous
 62
     7
370
    25
100
AcDbSpline
210
0.0
220
0.0
230
1.0
 70
     8
 71
     3
 72
    21
 73
    17
 74
     0
 42
0.00000001
 43
0.00000001
 40
0.0
 40
0.0
 40
0.0
 40
0.0
 40
0.177181814477931
 40
0.2504939574970168
 40
0.3165674539520691
 40
0.371665960620023
 40
0.4184906873983334
 40
0.455466020138326
 40
0.4833250523741678
 40
0.531454426319034
 40
0.5830124561895627
 40
0.6392239055171625
 40
0.7022806382731928
 40
0.770575709907952
 40
0.8412761191749953
 40
1.0
 40
1.0
 40
1.0
 40
1.0
 10
194.9210060629839
 20
26.90972218698895
 30
0.0
 10
194.9195283011258
 20
26.94364792784898
 30
0.0
 10
194.9227875454513
 20
26.9914924267215
 30
0.0
 10
194.9225347851101
 20
27.05209151034371
 30
0.0
 10
194.9253069877942
 20
27.08919455719683
 30
0.0
 10
194.9265329791214
 20
27.12135820453232
 30
0.0
 10
194.9309172395281
 20
27.14758230524428
 30
0.0
 10
194.9327074913389
 20
27.16893656854247
 30
0.0
 10
194.9386574675494
 20
27.18978756339929
 30
0.0
 10
194.9484124165677
 20
27.21230796811025
 30
0.0
 10
194.966378984271
 20
27.23649317219623
 30
0.0
 10
194.9911650316448
 20
27.25794833534345
 30
0.0
 10
195.0201162676143
 20
27.27930295810177
 30
0.0
 10
195.0550186515875
 20
27.29633040494783
 30
0.0
 10
195.1092605125657
 20
27.31442403051232
 30
0.0
 10
195.1537828957653
 20
27.31662472539542
 30
0.0
 10
195.1839267360609
 20
27.31777507160438
 30
0.0
  0
SPLINE
  5
113
330
1F
100
AcDbEntity
  8
0
  6
Continuous
 62
     7
370
    25
100
AcDbSpline
210
0.0
220
0.0
230
1.0
 70
     8
 71
     3
 72
     9
 73
     5
 74
     0
 42
0.00000001
 43
0.00000001
 40
0.0
 40
0.0
 40
0.0
 40
0.0
 40
0.4469718272067376
 40
1.0
 40
1.0
 40
1.0
 40
1.0
 10
195.1839267360609
 20
27.31777507160438
 30
0.0
 10
195.2331995811529
 20
27.31758707566989
 30
0.0
 10
195.342445295602
 20
27.30045547182336
 30
0.0
 10
195.446189938975
 20
27.2626579006785
 30
0.0
 10
195.5022360309326
 20
27.23924943057876
 30
0.0
  0
SPLINE
  5
115
330
1F
100
AcDbEntity
  8
0
  6
Continuous
 62
     7
370
    25
100
AcDbSpline
210
0.0
220
0.0
230
1.0
 70
     8
 71
     3
 72
     9
 73
     5
 74
     0
 42
0.00000001
 43
0.00000001
 40
0.0
 40
0.0
 40
0.0
 40
0.0
 40
0.5461371453787061
 40
1.0
 40
1.0
 40
1.0
 40
1.0
 10
195.5022360309326
 20
27.56597218698897
 30
0.0
 10
195.4340761900384
 20
27.58527632708008
 30
0.0
 10
195.3081944943673
 20
27.61912414274681
 30
0.0
 10
195.1783775543372
 20
27.63119409481751
 30
0.0
 10
195.1194235309326
 20
27.63187763570696
 30
0.0
  0
SPLINE
  5
116
330
1F
100
AcDbEntity
  8
0
  6
Continuous
 62
     7
370
    25
100
AcDbSpline
210
0.0
220
0.0
230
1.0
 70
     8
 71
     3
 72
    21
 73
    17
 74
     0
 42
0.00000001
 43
0.00000001
 40
0.0
 40
0.0
 40
0.0
 40
0.0
 40
0.1646104484879524
 40
0.2403548858244436
 40
0.3136978695808184
 40
0.3839383823375313
 40
0.4510833284886485
 40
0.5168266720448291
 40
0.5830951868686798
 40
0.6183697864378587
 40
0.658495645760589
 40
0.7033577203112111
 40
0.7520840367088759
 40
0.8070521683517491
 40
0.8661435665398587
 40
1.0
 40
1.0
 40
1.0
 40
1.0
 10
195.1194235309326
 20
27.63187763570696
 30
0.0
 10
195.0661124081764
 20
27.63096777860019
 30
0.0
 10
194.9874027336873
 20
27.62450013769924
 30
0.0
 10
194.8901495560333
 20
27.59251708343746
 30
0.0
 10
194.8264371175468
 20
27.56011994584295
 30
0.0
 10
194.7698280143932
 20
27.52110797318041
 30
0.0
 10
194.7224352014015
 20
27.47480418867776
 30
0.0
 10
194.6829049602633
 20
27.42317998646371
 30
0.0
 10
194.6584827332713
 20
27.3743300363215
 30
0.0
 10
194.6421341840728
 20
27.33122736740057
 30
0.0
 10
194.633122646334
 20
27.29314561576201
 30
0.0
 10
194.6235872244634
 20
27.25075271142497
 30
0.0
 10
194.6169223394494
 20
27.20290666617131
 30
0.0
 10
194.6111686141815
 20
27.150317605377
 30
0.0
 10
194.6070571823162
 20
27.06984814814006
 30
0.0
 10
194.6039496586484
 20
27.00723714361974
 30
0.0
 10
194.6048001334966
 20
26.96370856519415
 30
0.0
  0
SPLINE
  5
123
330
1F
100
AcDbEntity
  8
0
  6
Continuous
 62
     7
370
    25
100
AcDbSpline
210
0.0
220
0.0
230
1.0
 70
     8
 71
     3
 72
    21
 73
    17
 74
     0
 42
0.00000001
 43
0.00000001
 40
0.0
 40
0.0
 40
0.0
 40
0.0
 40
0.1230160125186728
 40
0.1821795987088894
 40
0.2413150145739386
 40
0.3002601565752412
 40
0.3598329711995818
 40
0.4210267535367634
 40
0.484330017115196
 40
0.548023509696945
 40
0.610608612559629
 40
0.6729950088427237
 40
0.7355500452204884
 40
0.7989042338824472
 40
0.8636647494423918
 40
1.0
 40
1.0
 40
1.0
 40
1.0
 10
198.8227488514452
 20
25.25507475109157
 30
0.0
 10
198.822461666433
 20
25.16732814214018
 30
0.0
 10
198.8350700775945
 20
25.03745009044034
 30
0.0
 10
198.8764645525409
 20
24.87014144537192
 30
0.0
 10
198.9210606274098
 20
24.75167580094173
 30
0.0
 10
198.9771617781809
 20
24.63786634879106
 30
0.0
 10
199.0470033491084
 20
24.53022527652959
 30
0.0
 10
199.1275305678459
 20
24.42637538219772
 30
0.0
 10
199.2213117260246
 20
24.33013466932344
 30
0.0
 10
199.3234225882866
 20
24.24137216478406
 30
0.0
 10
199.4334585807982
 20
24.16361940462519
 30
0.0
 10
199.5503317233661
 20
24.09826608919008
 30
0.0
 10
199.6736548853455
 20
24.04474779622367
 30
0.0
 10
199.8033135133474
 20
24.00323554564776
 30
0.0
 10
199.9878703007701
 20
23.96367288194801
 30
0.0
 10
200.1312460541328
 20
23.9514062131847
 30
0.0
 10
200.2284980501632
 20
23.95239045621977
 30
0.0
  0
SPLINE
  5
124
330
1F
100
AcDbEntity
  8
0
  6
Continuous
 62
     7
370
    25
100
AcDbSpline
210
0.0
220
0.0
230
1.0
 70
     8
 71
     3
 72
    21
 73
    17
 74
     0
 42
0.00000001
 43
0.00000001
 40
0.0
 40
0.0
 40
0.0
 40
0.0
 40
0.138173460029835
 40
0.2051712291583753
 40
0.2702347439553352
 40
0.334577614923188
 40
0.3974624848755721
 40
0.4600970095463408
 40
0.522258400268212
 40
0.5835266948828642
 40
0.6441442312570528
 40
0.7040680119241989
 40
0.7630433524477821
 40
0.8218034537843255
 40
0.8809311384949984
 40
1.0
 40
1.0
 40
1.0
 40
1.0
 10
200.2284980501632
 20
23.95239045621977
 30
0.0
 10
200.2927072182506
 20
23.95140393888007
 30
0.0
 10
200.3878619074913
 20
23.95753160167891
 30
0.0
 10
200.5124179996778
 20
23.9730044310571
 30
0.0
 10
200.6020426143305
 20
23.99008639448286
 30
0.0
 10
200.6887588029172
 20
24.01153128486888
 30
0.0
 10
200.7727386662217
 20
24.03849942175373
 30
0.0
 10
200.8540806363524
 20
24.06989111706981
 30
0.0
 10
200.9324313620089
 20
24.1063972855996
 30
0.0
 10
201.0076804301339
 20
24.14701024954924
 30
0.0
 10
201.079050367249
 20
24.19214485913967
 30
0.0
 10
201.1473770845898
 20
24.23999718199688
 30
0.0
 10
201.2104644602602
 20
24.29325246929959
 30
0.0
 10
201.2704413402145
 20
24.34938100487805
 30
0.0
 10
201.3455155976913
 20
24.42993776884672
 30
0.0
 10
201.3949706698309
 20
24.4965406995975
 30
0.0
 10
201.4253129540093
 20
24.54273500750181
 30
0.0
  0
SPLINE
  5
126
330
1F
100
AcDbEntity
  8
0
  6
Continuous
 62
     7
370
    25
100
AcDbSpline
210
0.0
220
0.0
230
1.0
 70
     8
 71
     3
 72
    13
 73
     9
 74
     0
 42
0.00000001
 43
0.00000001
 40
0.0
 40
0.0
 40
0.0
 40
0.0
 40
0.2581434980421687
 40
0.3806278746633599
 40
0.5015582214580118
 40
0.6227016552819186
 40
0.744552687973184
 40
1.0
 40
1.0
 40
1.0
 40
1.0
 10
201.1623922809323
 20
24.71521096904028
 30
0.0
 10
201.1051578812572
 20
24.64308690870121
 30
0.0
 10
201.0093861144303
 20
24.54582656748239
 30
0.0
 10
200.8649387267646
 20
24.43982412190404
 30
0.0
 10
200.7512052760631
 20
24.37624914952985
 30
0.0
 10
200.6308074829135
 20
24.32715920946993
 30
0.0
 10
200.45929874225
 20
24.27923063819859
 30
0.0
 10
200.3244136383462
 20
24.26654658972249
 30
0.0
 10
200.2334059027273
 20
24.26649302032235
 30
0.0
  0
SPLINE
  5
127
330
1F
100
AcDbEntity
  8
0
  6
Continuous
 62
     7
370
    25
100
AcDbSpline
210
0.0
220
0.0
230
1.0
 70
     8
 71
     3
 72
    17
 73
    13
 74
     0
 42
0.00000001
 43
0.00000001
 40
0.0
 40
0.0
 40
0.0
 40
0.0
 40
0.17847093099052
 40
0.263762432705972
 40
0.3486672266155145
 40
0.4321345263706822
 40
0.5134033636004061
 40
0.5949764167925377
 40
0.677471472370611
 40
0.75967863870542
 40
0.8400345230550291
 40
1.0
 40
1.0
 40
1.0
 40
1.0
 10
200.2334059027273
 20
24.26649302032235
 30
0.0
 10
200.1343298104869
 20
24.26687087299207
 30
0.0
 10
199.9872472109492
 20
24.28141838344278
 30
0.0
 10
199.8013257851452
 20
24.33786045620945
 30
0.0
 10
199.6725704731752
 20
24.39606791123061
 30
0.0
 10
199.5538378575962
 20
24.46855453761177
 30
0.0
 10
199.4479175722786
 20
24.55596693138962
 30
0.0
 10
199.355750102143
 20
24.65695124961809
 30
0.0
 10
199.2772535932417
 20
24.76954557473199
 30
0.0
 10
199.215267474138
 20
24.89121217205359
 30
0.0
 10
199.1544875316883
 20
25.06037678809303
 30
0.0
 10
199.1370951140128
 20
25.19425831466338
 30
0.0
 10
199.1368514155478
 20
25.28311962288643
 30
0.0
  0
SPLINE
  5
128
330
1F
100
AcDbEntity
  8
0
  6
Continuous
 62
     7
370
    25
100
AcDbSpline
210
0.0
220
0.0
230
1.0
 70
     8
 71
     3
 72
    21
 73
    17
 74
     0
 42
0.00000001
 43
0.00000001
 40
0.0
 40
0.0
 40
0.0
 40
0.0
 40
0.1222819204638085
 40
0.1812434869852987
 40
0.2396871197545077
 40
0.2984032755910574
 40
0.3580784908258444
 40
0.419261628082501
 40
0.4824580183676552
 40
0.5464498243205897
 40
0.6091832833298887
 40
0.6717521154871762
 40
0.7345384496150802
 40
0.7980307571346639
 40
0.8630790177387537
 40
1.0
 40
1.0
 40
1.0
 40
1.0
 10
199.1368514155478
 20
25.28311962288643
 30
0.0
 10
199.1365128419271
 20
25.35068411986152
 30
0.0
 10
199.1467206786589
 20
25.45059217164303
 30
0.0
 10
199.1782206509489
 20
25.57936066819522
 30
0.0
 10
199.2134542784792
 20
25.67013763124437
 30
0.0
 10
199.2565714189124
 20
25.75788912812704
 30
0.0
 10
199.3115052882668
 20
25.84060908810115
 30
0.0
 10
199.3746050527638
 20
25.92036275833298
 30
0.0
 10
199.4474338252339
 20
25.99476145641355
 30
0.0
 10
199.5270506189526
 20
26.06317190513396
 30
0.0
 10
199.6134361379268
 20
26.12222229507488
 30
0.0
 10
199.704086889836
 20
26.1730307550837
 30
0.0
 10
199.7998079499644
 20
26.2147859144568
 30
0.0
 10
199.9008462122973
 20
26.24591833575906
 30
0.0
 10
200.0439844866947
 20
26.278046121606
 30
0.0
 10
200.1558854202315
 20
26.28462564977241
 30
0.0
 10
200.2313025373426
 20
26.28572378955307
 30
0.0
  0
SPLINE
  5
129
330
1F
100
AcDbEntity
  8
0
  6
Continuous
 62
     7
370
    25
100
AcDbSpline
210
0.0
220
0.0
230
1.0
 70
     8
 71
     3
 72
    13
 73
     9
 74
     0
 42
0.00000001
 43
0.00000001
 40
0.0
 40
0.0
 40
0.0
 40
0.0
 40
0.2615297557643174
 40
0.3853914026565602
 40
0.5066355486143843
 40
0.6264935166891237
 40
0.7474155249378515
 40
1.0
 40
1.0
 40
1.0
 40
1.0
 10
200.2313025373427
 20
26.28572378955307
 30
0.0
 10
200.3248912372627
 20
26.28586468715788
 30
0.0
 10
200.4631857504186
 20
26.27303357804855
 30
0.0
 10
200.6385995488152
 20
26.22541767347874
 30
0.0
 10
200.7599969210174
 20
26.17625489373276
 30
0.0
 10
200.8732274096639
 20
26.11250219177097
 30
0.0
 10
201.0153994045387
 20
26.00704623659766
 30
0.0
 10
201.1081048376638
 20
25.90937834999874
 30
0.0
 10
201.1623922809323
 20
25.83700584083515
 30
0.0
  0
SPLINE
  5
12B
330
1F
100
AcDbEntity
  8
0
  6
Continuous
 62
     7
370
    25
100
AcDbSpline
210
0.0
220
0.0
230
1.0
 70
     8
 71
     3
 72
    17
 73
    13
 74
     0
 42
0.00000001
 43
0.00000001
 40
0.0
 40
0.0
 40
0.0
 40
0.0
 40
0.1585634493071253
 40
0.2345871230995784
 40
0.3098023857351404
 40
0.3863975462586809
 40
0.4660235260292688
 40
0.549933651574882
 40
0.6379505414946585
 40
0.7280903454728215
 40
0.8179185954471941
 40
1.0
 40
1.0
 40
1.0
 40
1.0
 10
201.4253129540093
 20
26.00036721904031
 30
0.0
 10
201.3886444654764
 20
26.06321973935999
 30
0.0
 10
201.325325518391
 20
26.15089787906621
 30
0.0
 10
201.2262752386117
 20
26.25310929780633
 30
0.0
 10
201.1461306771701
 20
26.32049071177867
 30
0.0
 10
201.0581935118862
 20
26.38020504467231
 30
0.0
 10
200.9623561294005
 20
26.43480193755998
 30
0.0
 10
200.8568198451216
 20
26.48181136192662
 30
0.0
 10
200.7440737671056
 20
26.5236864283076
 30
0.0
 10
200.6259257831493
 20
26.55821579513251
 30
0.0
 10
200.4626548023895
 20
26.58963568378347
 30
0.0
 10
200.3380300013374
 20
26.60008724121454
 30
0.0
 10
200.2544395565734
 20
26.59982635365565
 30
0.0
  0
SPLINE
  5
12C
330
1F
100
AcDbEntity
  8
0
  6
Continuous
 62
     7
370
    25
100
AcDbSpline
210
0.0
220
0.0
230
1.0
 70
     8
 71
     3
 72
    29
 73
    25
 74
     0
 42
0.00000001
 43
0.00000001
 40
0.0
 40
0.0
 40
0.0
 40
0.0
 40
0.0904049698337528
 40
0.1340218577669683
 40
0.1771929296099348
 40
0.2199566394228996
 40
0.2622486054529787
 40
0.3045538809267218
 40
0.3467622647176366
 40
0.3886297618353274
 40
0.4301572713045011
 40
0.4709850348103287
 40
0.5113171489159214
 40
0.5518126259433953
 40
0.5924494048341331
 40
0.6331453339012545
 40
0.6745901892035351
 40
0.7158270637532164
 40
0.7564739168378305
 40
0.796993399422944
 40
0.8371691302448725
 40
0.8773639647740381
 40
0.9178644967855356
 40
1.0
 40
1.0
 40
1.0
 40
1.0
 10
200.2544395565734
 20
26.59982635365565
 30
0.0
 10
200.188349076222
 20
26.60017293021821
 30
0.0
 10
200.0905476061102
 20
26.59389070136475
 30
0.0
 10
199.9621688589673
 20
26.57660906037718
 30
0.0
 10
199.8696420089911
 20
26.55641790653607
 30
0.0
 10
199.7790820434717
 20
26.53230205267787
 30
0.0
 10
199.691088967011
 20
26.50185130938887
 30
0.0
 10
199.6055223092698
 20
26.4662175823539
 30
0.0
 10
199.5228975945728
 20
26.42485827785712
 30
0.0
 10
199.4437142728914
 20
26.37840722777862
 30
0.0
 10
199.3680184209761
 20
26.32826624596085
 30
0.0
 10
199.2969468454153
 20
26.2735081192278
 30
0.0
 10
199.2309071912977
 20
26.21397192859276
 30
0.0
 10
199.1680310802206
 20
26.15124816770354
 30
0.0
 10
199.1109867404181
 20
26.08282840243825
 30
0.0
 10
199.0571055206478
 20
26.01107473712771
 30
0.0
 10
199.008416724407
 20
25.9351252000285
 30
0.0
 10
198.9651649668164
 20
25.85602746158633
 30
0.0
 10
198.9270688752571
 20
25.77508282121332
 30
0.0
 10
198.8945959204192
 20
25.69249959985087
 30
0.0
 10
198.8691457538315
 20
25.60789475400838
 30
0.0
 10
198.8471556457849
 20
25.52228537472201
 30
0.0
 10
198.8295611136185
 20
25.40451942402078
 30
0.0
 10
198.8218842877005
 20
25.31518578879643
 30
0.0
 10
198.8227488514452
 20
25.25507475109157
 30
0.0
  0
SPLINE
  5
12D
330
1F
100
AcDbEntity
  8
0
  6
Continuous
 62
     7
370
    25
100
AcDbSpline
210
0.0
220
0.0
230
1.0
 70
     8
 71
     3
 72
    21
 73
    17
 74
     0
 42
0.00000001
 43
0.00000001
 40
0.0
 40
0.0
 40
0.0
 40
0.0
 40
0.1231816483428002
 40
0.1830343363247268
 40
0.2428661924761439
 40
0.3025168847059427
 40
0.3633154622039138
 40
0.4250692989986412
 40
0.4890423674851742
 40
0.553087142275227
 40
0.6154454653923731
 40
0.6772864118409536
 40
0.739174987439565
 40
0.8016758129328341
 40
0.8653648077757379
 40
1.0
 40
1.0
 40
1.0
 40
1.0
 10
201.9637744924711
 20
25.269097186989
 30
0.0
 10
201.9632675850856
 20
25.18352976986193
 30
0.0
 10
201.9749769321076
 20
25.05640887692906
 30
0.0
 10
202.0136085298065
 20
24.89202008678271
 30
0.0
 10
202.054391159378
 20
24.77416126458465
 30
0.0
 10
202.1067625524389
 20
24.66027860474229
 30
0.0
 10
202.1706492719222
 20
24.55086850118027
 30
0.0
 10
202.2465232744681
 20
24.44571847803323
 30
0.0
 10
202.3325216047456
 20
24.34570846879025
 30
0.0
 10
202.4275936555517
 20
24.25357272733841
 30
0.0
 10
202.5307935822317
 20
24.17301186313647
 30
0.0
 10
202.6405799713554
 20
24.10440278384607
 30
0.0
 10
202.7577252395979
 20
24.0490984737608
 30
0.0
 10
202.8809522354472
 20
24.0052680218793
 30
0.0
 10
203.0574707134527
 20
23.96330864149165
 30
0.0
 10
203.1954890684439
 20
23.95281254881909
 30
0.0
 10
203.2888946847788
 20
23.95239045621977
 30
0.0
  0
SPLINE
  5
12E
330
1F
100
AcDbEntity
  8
0
  6
Continuous
 62
     7
370
    25
100
AcDbSpline
210
0.0
220
0.0
230
1.0
 70
     8
 71
     3
 72
    21
 73
    17
 74
     0
 42
0.00000001
 43
0.00000001
 40
0.0
 40
0.0
 40
0.0
 40
0.0
 40
0.1341341587220424
 40
0.1979034644236247
 40
0.2604831025120542
 40
0.322145528691671
 40
0.3837784671889386
 40
0.446215423207863
 40
0.5103409574898141
 40
0.5743946950476086
 40
0.6362264024960824
 40
0.6971016460802506
 40
0.7568275569302938
 40
0.8167348601469018
 40
0.8766630214626719
 40
1.0
 40
1.0
 40
1.0
 40
1.0
 10
203.2888946847788
 20
23.95239045621977
 30
0.0
 10
203.3818447341658
 20
23.9527544217738
 30
0.0
 10
203.5193720309828
 20
23.96343130598189
 30
0.0
 10
203.6954271926835
 20
24.00528314505157
 30
0.0
 10
203.8184932191509
 20
24.04895461753087
 30
0.0
 10
203.9351369543698
 20
24.10440106453493
 30
0.0
 10
204.0442908908248
 20
24.17321990883081
 30
0.0
 10
204.1474070475857
 20
24.25354890963882
 30
0.0
 10
204.2424589908743
 20
24.34571492238169
 30
0.0
 10
204.3284627123834
 20
24.44571681527985
 30
0.0
 10
204.4043353237826
 20
24.55086893275882
 30
0.0
 10
204.4682224046335
 20
24.66027849229224
 30
0.0
 10
204.5205937030881
 20
24.77416129456145
 30
0.0
 10
204.5613763578866
 20
24.89202007878099
 30
0.0
 10
204.6000079466166
 20
25.05640888243033
 30
0.0
 10
204.6117172991798
 20
25.18352976702076
 30
0.0
 10
204.611210389907
 20
25.269097186989
 30
0.0
  0
SPLINE
  5
12F
330
1F
100
AcDbEntity
  8
0
  6
Continuous
 62
     7
370
    25
100
AcDbSpline
210
0.0
220
0.0
230
1.0
 70
     8
 71
     3
 72
    13
 73
     9
 74
     0
 42
0.00000001
 43
0.00000001
 40
0.0
 40
0.0
 40
0.0
 40
0.0
 40
0.2554352550956477
 40
0.3786322712675498
 40
0.50146631433211
 40
0.6234943774777815
 40
0.7461656372032779
 40
1.0
 40
1.0
 40
1.0
 40
1.0
 10
204.611210389907
 20
25.269097186989
 30
0.0
 10
204.6107360011128
 20
25.35403403357384
 30
0.0
 10
204.6012521923881
 20
25.48027599650271
 30
0.0
 10
204.564060209807
 20
25.64321529622205
 30
0.0
 10
204.5254180403575
 20
25.75959649764525
 30
0.0
 10
204.4763139655147
 20
25.87181500362323
 30
0.0
 10
204.3940745655262
 20
26.0161757943691
 30
0.0
 10
204.317680502207
 20
26.11611423456062
 30
0.0
 10
204.2606494924711
 20
26.17845215493775
 30
0.0
  0
SPLINE
  5
130
330
1F
100
AcDbEntity
  8
0
  6
Continuous
 62
     7
370
    25
100
AcDbSpline
210
0.0
220
0.0
230
1.0
 70
     8
 71
     3
 72
    13
 73
     9
 74
     0
 42
0.00000001
 43
0.00000001
 40
0.0
 40
0.0
 40
0.0
 40
0.0
 40
0.2531294102724402
 40
0.3753070134590598
 40
0.4961956083998795
 40
0.6178660239074372
 40
0.7416676494858145
 40
1.0
 40
1.0
 40
1.0
 40
1.0
 10
204.2606494924711
 20
26.17845215493775
 30
0.0
 10
204.1984910084805
 20
26.24638876008911
 30
0.0
 10
204.0968757025401
 20
26.3391108851706
 30
0.0
 10
203.9445117048859
 20
26.43665721617916
 30
0.0
 10
203.8261320607563
 20
26.49738542907054
 30
0.0
 10
203.7003361471634
 20
26.54259134126957
 30
0.0
 10
203.522211018709
 20
26.5872353124037
 30
0.0
 10
203.3829848460879
 20
26.60080099425322
 30
0.0
 10
203.2888946847788
 20
26.59982635365565
 30
0.0
  0
SPLINE
  5
131
330
1F
100
AcDbEntity
  8
0
  6
Continuous
 62
     7
370
    25
100
AcDbSpline
210
0.0
220
0.0
230
1.0
 70
     8
 71
     3
 72
    13
 73
     9
 74
     0
 42
0.00000001
 43
0.00000001
 40
0.0
 40
0.0
 40
0.0
 40
0.0
 40
0.2587123826906848
 40
0.3820894432542115
 40
0.5035635736272535
 40
0.6251808674329538
 40
0.7472870144846054
 40
1.0
 40
1.0
 40
1.0
 40
1.0
 10
203.2888946847788
 20
26.59982635365565
 30
0.0
 10
203.1943273775551
 20
26.60068970937524
 30
0.0
 10
203.0547014137921
 20
26.58720428799133
 30
0.0
 10
202.8758527928809
 20
26.54285815905122
 30
0.0
 10
202.7501581117969
 20
26.49608650861502
 30
0.0
 10
202.6304767736639
 20
26.43655513401799
 30
0.0
 10
202.4784745470257
 20
26.33703472165017
 30
0.0
 10
202.3759540788354
 20
26.24519360723776
 30
0.0
 10
202.314335389907
 20
26.17634878955311
 30
0.0
  0
SPLINE
  5
132
330
1F
100
AcDbEntity
  8
0
  6
Continuous
 62
     7
370
    25
100
AcDbSpline
210
0.0
220
0.0
230
1.0
 70
     8
 71
     3
 72
    13
 73
     9
 74
     0
 42
0.00000001
 43
0.00000001
 40
0.0
 40
0.0
 40
0.0
 40
0.0
 40
0.253759205061608
 40
0.3772863205702288
 40
0.4989121128148896
 40
0.6213214040214744
 40
0.7447622750750944
 40
1.0
 40
1.0
 40
1.0
 40
1.0
 10
202.314335389907
 20
26.17634878955311
 30
0.0
 10
202.2579220900218
 20
26.11383789135835
 30
0.0
 10
202.1802236020801
 20
26.01472255511106
 30
0.0
 10
202.099068327551
 20
25.86996960816212
 30
0.0
 10
202.0495199763158
 20
25.75823788300657
 30
0.0
 10
202.010829260488
 20
25.64230718674598
 30
0.0
 10
201.9738163748639
 20
25.47979629818375
 30
0.0
 10
201.9642687592204
 20
25.3538039843223
 30
0.0
 10
201.9637744924711
 20
25.269097186989
 30
0.0
  0
SPLINE
  5
13B
330
1F
100
AcDbEntity
  8
0
  6
Continuous
 62
     7
370
    25
100
AcDbSpline
210
0.0
220
0.0
230
1.0
 70
     8
 71
     3
 72
    13
 73
     9
 74
     0
 42
0.00000001
 43
0.00000001
 40
0.0
 40
0.0
 40
0.0
 40
0.0
 40
0.2703816178319617
 40
0.3984601291783004
 40
0.5227503451014437
 40
0.6438255660090793
 40
0.7637452368382556
 40
1.0
 40
1.0
 40
1.0
 40
1.0
 10
210.3996719283685
 20
25.20880071262999
 30
0.0
 10
210.3980824637139
 20
25.29406035411341
 30
0.0
 10
210.3907214302122
 20
25.42004269347253
 30
0.0
 10
210.3601199467873
 20
25.58239881192259
 30
0.0
 10
210.329109813727
 20
25.69622516255754
 30
0.0
 10
210.2907330360577
 20
25.80510689635052
 30
0.0
 10
210.2271222680634
 20
25.94189291824112
 30
0.0
 10
210.1672132276773
 20
26.03753208158843
 30
0.0
 10
210.1213265758044
 20
26.09642090493769
 30
0.0
  0
SPLINE
  5
13C
330
1F
100
AcDbEntity
  8
0
  6
Continuous
 62
     7
370
    25
100
AcDbSpline
210
0.0
220
0.0
230
1.0
 70
     8
 71
     3
 72
    13
 73
     9
 74
     0
 42
0.00000001
 43
0.00000001
 40
0.0
 40
0.0
 40
0.0
 40
0.0
 40
0.255257368140996
 40
0.3772478104725325
 40
0.4977415562850415
 40
0.6181201760750441
 40
0.7409671592206359
 40
1.0
 40
1.0
 40
1.0
 40
1.0
 10
210.1213265758045
 20
26.09642090493769
 30
0.0
 10
210.0599394321108
 20
26.17708101753691
 30
0.0
 10
209.9564965179731
 20
26.2867207079589
 30
0.0
 10
209.7982213421805
 20
26.40579149326017
 30
0.0
 10
209.672551830605
 20
26.47700323996782
 30
0.0
 10
209.5387074850981
 20
26.53208887145719
 30
0.0
 10
209.346114421946
 20
26.58537812161654
 30
0.0
 10
209.1942061612181
 20
26.60025832723722
 30
0.0
 10
209.0913786591377
 20
26.59982635365565
 30
0.0
  0
SPLINE
  5
13D
330
1F
100
AcDbEntity
  8
0
  6
Continuous
 62
     7
370
    25
100
AcDbSpline
210
0.0
220
0.0
230
1.0
 70
     8
 71
     3
 72
    13
 73
     9
 74
     0
 42
0.00000001
 43
0.00000001
 40
0.0
 40
0.0
 40
0.0
 40
0.0
 40
0.2602406645595056
 40
0.3836752253642184
 40
0.5046599577622765
 40
0.6253567426858504
 40
0.7464106650135791
 40
1.0
 40
1.0
 40
1.0
 40
1.0
 10
209.0913786591377
 20
26.59982635365565
 30
0.0
 10
208.9919224480211
 20
26.59862777346922
 30
0.0
 10
208.8440466510453
 20
26.58759892260998
 30
0.0
 10
208.6575006250744
 20
26.53510451972163
 30
0.0
 10
208.5271591903508
 20
26.48347199000545
 30
0.0
 10
208.405582167319
 20
26.41543244464084
 30
0.0
 10
208.2509200153399
 20
26.30466991766556
 30
0.0
 10
208.1521520399336
 20
26.19878808229559
 30
0.0
 10
208.0915789796506
 20
26.12306353314287
 30
0.0
  0
SPLINE
  5
13E
330
1F
100
AcDbEntity
  8
0
  6
Continuous
 62
     7
370
    25
100
AcDbSpline
210
0.0
220
0.0
230
1.0
 70
     8
 71
     3
 72
    13
 73
     9
 74
     0
 42
0.00000001
 43
0.00000001
 40
0.0
 40
0.0
 40
0.0
 40
0.0
 40
0.2534216680665266
 40
0.3767041167575432
 40
0.4994491585174913
 40
0.6225715734186964
 40
0.7462320999755214
 40
1.0
 40
1.0
 40
1.0
 40
1.0
 10
208.0915789796506
 20
26.12306353314287
 30
0.0
 10
208.0440277171557
 20
26.06157170931755
 30
0.0
 10
207.9788638844274
 20
25.96550243803708
 30
0.0
 10
207.9106911080707
 20
25.82799140180547
 30
0.0
 10
207.8691120063498
 20
25.72245115208749
 30
0.0
 10
207.836964573623
 20
25.61356346027199
 30
0.0
 10
207.8053371940655
 20
25.46301974931275
 30
0.0
 10
207.7980611140095
 20
25.3468908891481
 30
0.0
 10
207.7971078258044
 20
25.269097186989
 30
0.0
  0
SPLINE
  5
13F
330
1F
100
AcDbEntity
  8
0
  6
Continuous
 62
     7
370
    25
100
AcDbSpline
210
0.0
220
0.0
230
1.0
 70
     8
 71
     3
 72
    21
 73
    17
 74
     0
 42
0.00000001
 43
0.00000001
 40
0.0
 40
0.0
 40
0.0
 40
0.0
 40
0.1210804245006118
 40
0.1800682782218559
 40
0.2391896643238556
 40
0.2987059533012314
 40
0.3588810785072301
 40
0.4203687292950606
 40
0.4834483096802261
 40
0.5465664849029384
 40
0.6086986022254206
 40
0.670186253013248
 40
0.7318650366033053
 40
0.7952033026033165
 40
0.8603707753071415
 40
1.0
 40
1.0
 40
1.0
 40
1.0
 10
207.7971078258044
 20
25.269097186989
 30
0.0
 10
207.7980225530418
 20
25.18607454663901
 30
0.0
 10
207.806802177341
 20
25.06222273965108
 30
0.0
 10
207.8428834616138
 20
24.90177559542161
 30
0.0
 10
207.8812588585274
 20
24.78591321993751
 30
0.0
 10
207.9288194383749
 20
24.6726422862259
 30
0.0
 10
207.987274697074
 20
24.56267917002542
 30
0.0
 10
208.0572011162614
 20
24.45672326874593
 30
0.0
 10
208.1364448352761
 20
24.35504126577326
 30
0.0
 10
208.2244690808004
 20
24.26002502245051
 30
0.0
 10
208.323288625607
 20
24.17789202679021
 30
0.0
 10
208.4297893703032
 20
24.10793527834099
 30
0.0
 10
208.5445320488059
 20
24.05049765125278
 30
0.0
 10
208.6677421010299
 20
24.00657197746614
 30
0.0
 10
208.8469739440613
 20
23.96342562216258
 30
0.0
 10
208.9878956394
 20
23.95242933912123
 30
0.0
 10
209.0836663193941
 20
23.95239045621977
 30
0.0
  0
SPLINE
  5
140
330
1F
100
AcDbEntity
  8
0
  6
Continuous
 62
     7
370
    25
100
AcDbSpline
210
0.0
220
0.0
230
1.0
 70
     8
 71
     3
 72
    17
 73
    13
 74
     0
 42
0.00000001
 43
0.00000001
 40
0.0
 40
0.0
 40
0.0
 40
0.0
 40
0.1781058515637827
 40
0.2613277635121511
 40
0.3415565694705521
 40
0.4200079090126525
 40
0.4980968161626226
 40
0.5754001382821239
 40
0.6536452159657116
 40
0.7341257729573898
 40
0.8183392339289949
 40
1.0
 40
1.0
 40
1.0
 40
1.0
 10
209.0836663193941
 20
23.95239045621977
 30
0.0
 10
209.1699601111518
 20
23.95240161639423
 30
0.0
 10
209.2968365929221
 20
23.96105583742592
 30
0.0
 10
209.4592198654979
 20
23.99438153555322
 30
0.0
 10
209.5715185150398
 20
24.02875977033048
 30
0.0
 10
209.6773683314666
 20
24.07352046202793
 30
0.0
 10
209.7776576469819
 20
24.12663654405367
 30
0.0
 10
209.8723882339934
 20
24.18897606102888
 30
0.0
 10
209.9620658400219
 20
24.26022301050401
 30
0.0
 10
210.0471388327637
 20
24.34196942868572
 30
0.0
 10
210.1540847168718
 20
24.47173158340654
 30
0.0
 10
210.2235557076319
 20
24.58072746912954
 30
0.0
 10
210.265056543753
 20
24.65842010365571
 30
0.0
  0
SPLINE
  5
142
330
1F
100
AcDbEntity
  8
0
  6
Continuous
 62
     7
370
    25
100
AcDbSpline
210
0.0
220
0.0
230
1.0
 70
     8
 71
     3
 72
    17
 73
    13
 74
     0
 42
0.00000001
 43
0.00000001
 40
0.0
 40
0.0
 40
0.0
 40
0.0
 40
0.2079350339033564
 40
0.2946939715678991
 40
0.3697315241424307
 40
0.440830943802725
 40
0.5142509140460771
 40
0.5913900390896499
 40
0.6722743046458497
 40
0.7543412603705406
 40
0.8361211059014766
 40
1.0
 40
1.0
 40
1.0
 40
1.0
 10
209.9860100693941
 20
24.80495455878384
 30
0.0
 10
209.9434853433912
 20
24.73840707488084
 30
0.0
 10
209.8763695737211
 20
24.64877660942932
 30
0.0
 10
209.7828717847205
 20
24.54395767780026
 30
0.0
 10
209.7168199448867
 20
24.48493635266713
 30
0.0
 10
209.6486983259986
 20
24.43672999489832
 30
0.0
 10
209.5758193820133
 20
24.39457885283558
 30
0.0
 10
209.4965734836825
 20
24.35647834035026
 30
0.0
 10
209.4110026719311
 20
24.32489310966379
 30
0.0
 10
209.3217419286677
 20
24.2990348328731
 30
0.0
 10
209.1998936351952
 20
24.27351525084698
 30
0.0
 10
209.1065974028214
 20
24.26619218957315
 30
0.0
 10
209.0444034988813
 20
24.26649302032235
 30
0.0
  0
SPLINE
  5
143
330
1F
100
AcDbEntity
  8
0
  6
Continuous
 62
     7
370
    25
100
AcDbSpline
210
0.0
220
0.0
230
1.0
 70
     8
 71
     3
 72
    21
 73
    17
 74
     0
 42
0.00000001
 43
0.00000001
 40
0.0
 40
0.0
 40
0.0
 40
0.0
 40
0.1276691474530424
 40
0.1889505232706536
 40
0.2490548673082992
 40
0.3090713134763196
 40
0.3692223593686933
 40
0.4301747620269846
 40
0.4926019887960209
 40
0.555346876893578
 40
0.6169627615204942
 40
0.678170777192346
 40
0.73924652255152
 40
0.8016089422160485
 40
0.8655244124565523
 40
1.0
 40
1.0
 40
1.0
 40
1.0
 10
209.0444034988813
 20
24.26649302032235
 30
0.0
 10
208.9813923444972
 20
24.26614333601929
 30
0.0
 10
208.8882640936045
 20
24.27486230068077
 30
0.0
 10
208.7682820285322
 20
24.30192876066151
 30
0.0
 10
208.6835097534722
 20
24.33099983173859
 30
0.0
 10
208.6026118007989
 20
24.3681890939299
 30
0.0
 10
208.5257181985762
 20
24.41399216866957
 30
0.0
 10
208.4534354692625
 20
24.46864463318532
 30
0.0
 10
208.3847283392895
 20
24.52970520515629
 30
0.0
 10
208.3230027604836
 20
24.59827239169976
 30
0.0
 10
208.2676627673659
 20
24.67131031694558
 30
0.0
 10
208.2212786709289
 20
24.74947232532399
 30
0.0
 10
208.1834057564208
 20
24.83240257236374
 30
0.0
 10
208.1521599914693
 20
24.9194851521114
 30
0.0
 10
208.1218794607962
 20
25.04469844335966
 30
0.0
 10
208.1129991143766
 20
25.14255470162119
 30
0.0
 10
208.111210389907
 20
25.20880071262999
 30
0.0
  0
SPLINE
  5
145
330
1F
100
AcDbEntity
  8
0
  6
Continuous
 62
     7
370
    25
100
AcDbSpline
210
0.0
220
0.0
230
1.0
 70
     8
 71
     3
 72
    13
 73
     9
 74
     0
 42
0.00000001
 43
0.00000001
 40
0.0
 40
0.0
 40
0.0
 40
0.0
 40
0.343762191421775
 40
0.4918338323010911
 40
0.6241090704107948
 40
0.7413996050399048
 40
0.8430618504426423
 40
1.0
 40
1.0
 40
1.0
 40
1.0
 10
211.2522360309327
 20
24.85683757160439
 30
0.0
 10
211.2516895737547
 20
24.95781823306364
 30
0.0
 10
211.2539126451642
 20
25.10226484317368
 30
0.0
 10
211.2591869240538
 20
25.2855204205944
 30
0.0
 10
211.2657400751961
 20
25.40213615643727
 30
0.0
 10
211.2728882414216
 20
25.5050727804611
 30
0.0
 10
211.2851120015928
 20
25.61481216274164
 30
0.0
 10
211.2965759553074
 20
25.68998422522895
 30
0.0
 10
211.3083257745224
 20
25.73464205878384
 30
0.0
  0
SPLINE
  5
146
330
1F
100
AcDbEntity
  8
0
  6
Continuous
 62
     7
370
    25
100
AcDbSpline
210
0.0
220
0.0
230
1.0
 70
     8
 71
     3
 72
    17
 73
    13
 74
     0
 42
0.00000001
 43
0.00000001
 40
0.0
 40
0.0
 40
0.0
 40
0.0
 40
0.1717166158284539
 40
0.2506679767741051
 40
0.3258823275093822
 40
0.396881271696415
 40
0.4635748406535746
 40
0.5280697489487671
 40
0.5896876632767214
 40
0.7048093833748892
 40
0.8086618718637332
 40
1.0
 40
1.0
 40
1.0
 40
1.0
 10
211.3083257745224
 20
25.73464205878384
 30
0.0
 10
211.3202489218815
 20
25.77911347298911
 30
0.0
 10
211.339770309224
 20
25.8435913527898
 30
0.0
 10
211.3726217490484
 20
25.92464619795742
 30
0.0
 10
211.3982806816126
 20
25.97937764328096
 30
0.0
 10
211.4264527208376
 20
26.02910671873804
 30
0.0
 10
211.4559349975386
 20
26.07468623730469
 30
0.0
 10
211.4880754243301
 20
26.1153318249362
 30
0.0
 10
211.5331172332734
 20
26.16189235784849
 30
0.0
 10
211.5912916883707
 20
26.21007731676428
 30
0.0
 10
211.6862348003919
 20
26.26691263004199
 30
0.0
 10
211.7651140509151
 20
26.28579031242639
 30
0.0
 10
211.8166390758044
 20
26.28572378955307
 30
0.0
  0
SPLINE
  5
147
330
1F
100
AcDbEntity
  8
0
  6
Continuous
 62
     7
370
    25
100
AcDbSpline
210
0.0
220
0.0
230
1.0
 70
     8
 71
     3
 72
     9
 73
     5
 74
     0
 42
0.00000001
 43
0.00000001
 40
0.0
 40
0.0
 40
0.0
 40
0.0
 40
0.4397700551121884
 40
1.0
 40
1.0
 40
1.0
 40
1.0
 10
211.8166390758044
 20
26.28572378955307
 30
0.0
 10
211.8413231156294
 20
26.28540140084901
 30
0.0
 10
211.8971102708392
 20
26.27607684536526
 30
0.0
 10
211.9485829290579
 20
26.25282120674677
 30
0.0
 10
211.97719596683
 20
26.24015087288645
 30
0.0
  0
SPLINE
  5
149
330
1F
100
AcDbEntity
  8
0
  6
Continuous
 62
     7
370
    25
100
AcDbSpline
210
0.0
220
0.0
230
1.0
 70
     8
 71
     3
 72
     9
 73
     5
 74
     0
 42
0.00000001
 43
0.00000001
 40
0.0
 40
0.0
 40
0.0
 40
0.0
 40
0.5364768048236987
 40
1.0
 40
1.0
 40
1.0
 40
1.0
 10
212.1496719283685
 20
26.51218612929673
 30
0.0
 10
212.1053308233093
 20
26.53904602007295
 30
0.0
 10
212.0176777115932
 20
26.58258393155233
 30
0.0
 10
211.9212108812888
 20
26.59947693276843
 30
0.0
 10
211.8762344283685
 20
26.59982635365565
 30
0.0
  0
SPLINE
  5
14A
330
1F
100
AcDbEntity
  8
0
  6
Continuous
 62
     7
370
    25
100
AcDbSpline
210
0.0
220
0.0
230
1.0
 70
     8
 71
     3
 72
    13
 73
     9
 74
     0
 42
0.00000001
 43
0.00000001
 40
0.0
 40
0.0
 40
0.0
 40
0.0
 40
0.2138863655718647
 40
0.3246827750473095
 40
0.439458544744861
 40
0.561633485869794
 40
0.6938876172598769
 40
1.0
 40
1.0
 40
1.0
 40
1.0
 10
211.8762344283686
 20
26.59982635365565
 30
0.0
 10
211.8201540355985
 20
26.59943733708325
 30
0.0
 10
211.7345954407049
 20
26.58759068659189
 30
0.0
 10
211.6270221483501
 20
26.54491347785493
 30
0.0
 10
211.5466411177432
 20
26.5011531385555
 30
0.0
 10
211.4690052547937
 20
26.44262485919013
 30
0.0
 10
211.3632083613724
 20
26.33993379819955
 30
0.0
 10
211.2952561590388
 20
26.2461661136506
 30
0.0
 10
211.2522360309327
 20
26.17845215493775
 30
0.0
  0
LINE
  5
160
330
1F
100
AcDbEntity
  8
0
  6
Continuous
 62
     7
370
    25
100
AcDbLine
 10
149.7105693643
 20
26.5213007126
 30
0.0
 11
150.9788986912
 21
23.9972622511
 31
0.0
  0
LINE
  5
161
330
1F
100
AcDbEntity
  8
0
  6
Continuous
 62
     7
370
    25
100
AcDbLine
 10
150.9788986912
 20
23.9972622511
 30
0.0
 11
151.0497119925
 21
23.9972622511
 31
0.0
  0
LINE
  5
162
330
1F
100
AcDbEntity
  8
0
  6
Continuous
 62
     7
370
    25
100
AcDbLine
 10
151.0497119925
 20
23.9972622511
 30
0.0
 11
152.3131334668
 21
26.5156917383
 31
0.0
  0
LINE
  5
163
330
1F
100
AcDbEntity
  8
0
  6
Continuous
 62
     7
370
    25
100
AcDbLine
 10
152.3131334668
 20
26.5156917383
 30
0.0
 11
152.6482696848
 21
23.9972622511
 31
0.0
  0
LINE
  5
164
330
1F
100
AcDbEntity
  8
0
  6
Continuous
 62
     7
370
    25
100
AcDbLine
 10
152.6482696848
 20
23.9972622511
 30
0.0
 11
152.9637744925
 21
23.9972622511
 31
0.0
  0
LINE
  5
165
330
1F
100
AcDbEntity
  8
0
  6
Continuous
 62
     7
370
    25
100
AcDbLine
 10
152.9637744925
 20
23.9972622511
 30
0.0
 11
152.4989307425
 21
27.4972622511
 31
0.0
  0
LINE
  5
166
330
1F
100
AcDbEntity
  8
0
  6
Continuous
 62
     7
370
    25
100
AcDbLine
 10
152.4989307425
 20
27.4972622511
 30
0.0
 11
152.4533578258
 21
27.4972622511
 31
0.0
  0
LINE
  5
167
330
1F
100
AcDbEntity
  8
0
  6
Continuous
 62
     7
370
    25
100
AcDbLine
 10
152.4533578258
 20
27.4972622511
 30
0.0
 11
151.0118514155
 21
24.6254673793
 31
0.0
  0
LINE
  5
168
330
1F
100
AcDbEntity
  8
0
  6
Continuous
 62
     7
370
    25
100
AcDbLine
 10
151.0118514155
 20
24.6254673793
 30
0.0
 11
149.5668393963
 21
27.4972622511
 31
0.0
  0
LINE
  5
169
330
1F
100
AcDbEntity
  8
0
  6
Continuous
 62
     7
370
    25
100
AcDbLine
 10
149.5668393963
 20
27.4972622511
 30
0.0
 11
149.5219676014
 21
27.4972622511
 31
0.0
  0
LINE
  5
16A
330
1F
100
AcDbEntity
  8
0
  6
Continuous
 62
     7
370
    25
100
AcDbLine
 10
149.5219676014
 20
27.4972622511
 30
0.0
 11
149.0599283386
 21
23.9972622511
 31
0.0
  0
LINE
  5
16B
330
1F
100
AcDbEntity
  8
0
  6
Continuous
 62
     7
370
    25
100
AcDbLine
 10
149.0599283386
 20
23.9972622511
 30
0.0
 11
149.3761342681
 21
23.9972622511
 31
0.0
  0
LINE
  5
16C
330
1F
100
AcDbEntity
  8
0
  6
Continuous
 62
     7
370
    25
100
AcDbLine
 10
149.3761342681
 20
23.9972622511
 30
0.0
 11
149.7105693643
 21
26.5213007126
 31
0.0
  0
LINE
  5
16D
330
1F
100
AcDbEntity
  8
0
  6
Continuous
 62
     7
370
    25
100
AcDbLine
 10
158.2586462873
 20
23.9972622511
 30
0.0
 11
158.2586462873
 21
24.9220418985
 31
0.0
  0
LINE
  5
16E
330
1F
100
AcDbEntity
  8
0
  6
Continuous
 62
     7
370
    25
100
AcDbLine
 10
159.8740309027
 20
25.2003872511
 30
0.0
 11
159.8740309027
 21
23.9972622511
 31
0.0
  0
LINE
  5
16F
330
1F
100
AcDbEntity
  8
0
  6
Continuous
 62
     7
370
    25
100
AcDbLine
 10
159.8740309027
 20
23.9972622511
 30
0.0
 11
160.1881334668
 21
23.9972622511
 31
0.0
  0
LINE
  5
170
330
1F
100
AcDbEntity
  8
0
  6
Continuous
 62
     7
370
    25
100
AcDbLine
 10
160.1881334668
 20
23.9972622511
 30
0.0
 11
160.1881334668
 21
25.3034521549
 31
0.0
  0
LINE
  5
171
330
1F
100
AcDbEntity
  8
0
  6
Continuous
 62
     7
370
    25
100
AcDbLine
 10
158.2586462873
 20
26.0936164178
 30
0.0
 11
158.2586462873
 21
26.5549545588
 31
0.0
  0
LINE
  5
172
330
1F
100
AcDbEntity
  8
0
  6
Continuous
 62
     7
370
    25
100
AcDbLine
 10
158.2586462873
 20
26.5549545588
 30
0.0
 11
157.9445437232
 21
26.5549545588
 31
0.0
  0
LINE
  5
173
330
1F
100
AcDbEntity
  8
0
  6
Continuous
 62
     7
370
    25
100
AcDbLine
 10
157.9445437232
 20
26.5549545588
 30
0.0
 11
157.9445437232
 21
23.9972622511
 31
0.0
  0
LINE
  5
174
330
1F
100
AcDbEntity
  8
0
  6
Continuous
 62
     7
370
    25
100
AcDbLine
 10
157.9445437232
 20
23.9972622511
 30
0.0
 11
158.2586462873
 21
23.9972622511
 31
0.0
  0
LINE
  5
175
330
1F
100
AcDbEntity
  8
0
  6
Continuous
 62
     7
370
    25
100
AcDbLine
 10
157.1817232104
 20
23.9972622511
 30
0.0
 11
157.1817232104
 21
26.5549545588
 31
0.0
  0
LINE
  5
176
330
1F
100
AcDbEntity
  8
0
  6
Continuous
 62
     7
370
    25
100
AcDbLine
 10
157.1817232104
 20
26.5549545588
 30
0.0
 11
156.8676206463
 21
26.5549545588
 31
0.0
  0
LINE
  5
177
330
1F
100
AcDbEntity
  8
0
  6
Continuous
 62
     7
370
    25
100
AcDbLine
 10
156.8676206463
 20
26.5549545588
 30
0.0
 11
156.8676206463
 21
23.9972622511
 31
0.0
  0
LINE
  5
178
330
1F
100
AcDbEntity
  8
0
  6
Continuous
 62
     7
370
    25
100
AcDbLine
 10
156.8676206463
 20
23.9972622511
 30
0.0
 11
157.1817232104
 21
23.9972622511
 31
0.0
  0
LINE
  5
179
330
1F
100
AcDbEntity
  8
0
  6
Continuous
 62
     7
370
    25
100
AcDbLine
 10
155.8804411591
 20
24.4396701037
 30
0.0
 11
155.8804411591
 21
23.9972622511
 31
0.0
  0
LINE
  5
17A
330
1F
100
AcDbEntity
  8
0
  6
Continuous
 62
     7
370
    25
100
AcDbLine
 10
155.8804411591
 20
23.9972622511
 30
0.0
 11
156.1945437232
 21
23.9972622511
 31
0.0
  0
LINE
  5
17B
330
1F
100
AcDbEntity
  8
0
  6
Continuous
 62
     7
370
    25
100
AcDbLine
 10
156.1945437232
 20
23.9972622511
 30
0.0
 11
156.1945437232
 21
26.5549545588
 31
0.0
  0
LINE
  5
17C
330
1F
100
AcDbEntity
  8
0
  6
Continuous
 62
     7
370
    25
100
AcDbLine
 10
156.1945437232
 20
26.5549545588
 30
0.0
 11
155.8804411591
 21
26.5549545588
 31
0.0
  0
LINE
  5
17D
330
1F
100
AcDbEntity
  8
0
  6
Continuous
 62
     7
370
    25
100
AcDbLine
 10
155.8804411591
 20
26.5549545588
 30
0.0
 11
155.8804411591
 21
26.0816973472
 31
0.0
  0
LINE
  5
17E
330
1F
100
AcDbEntity
  8
0
  6
Continuous
 62
     7
370
    25
100
AcDbLine
 10
162.4765950053
 20
25.2088007126
 30
0.0
 11
164.7650565438
 21
25.2088007126
 31
0.0
  0
LINE
  5
17F
330
1F
100
AcDbEntity
  8
0
  6
Continuous
 62
     7
370
    25
100
AcDbLine
 10
164.6304411591
 20
24.6584201037
 30
0.0
 11
164.3513946848
 21
24.8049545588
 31
0.0
  0
LINE
  5
180
330
1F
100
AcDbEntity
  8
0
  6
Continuous
 62
     7
370
    25
100
AcDbLine
 10
165.034287313
 20
23.9972622511
 30
0.0
 11
165.4079852297
 21
23.9972622511
 31
0.0
  0
LINE
  5
181
330
1F
100
AcDbEntity
  8
0
  6
Continuous
 62
     7
370
    25
100
AcDbLine
 10
165.4079852297
 20
23.9972622511
 30
0.0
 11
166.2009539797
 21
25.108540296
 31
0.0
  0
LINE
  5
182
330
1F
100
AcDbEntity
  8
0
  6
Continuous
 62
     7
370
    25
100
AcDbLine
 10
166.2009539797
 20
25.108540296
 30
0.0
 11
166.9939227297
 21
23.9972622511
 31
0.0
  0
LINE
  5
183
330
1F
100
AcDbEntity
  8
0
  6
Continuous
 62
     7
370
    25
100
AcDbLine
 10
166.9939227297
 20
23.9972622511
 30
0.0
 11
167.3676206463
 21
23.9972622511
 31
0.0
  0
LINE
  5
184
330
1F
100
AcDbEntity
  8
0
  6
Continuous
 62
     7
370
    25
100
AcDbLine
 10
167.3676206463
 20
23.9972622511
 30
0.0
 11
166.3881534989
 21
25.3707598472
 31
0.0
  0
LINE
  5
185
330
1F
100
AcDbEntity
  8
0
  6
Continuous
 62
     7
370
    25
100
AcDbLine
 10
166.3881534989
 20
25.3707598472
 30
0.0
 11
167.2330052617
 21
26.5549545588
 31
0.0
  0
LINE
  5
186
330
1F
100
AcDbEntity
  8
0
  6
Continuous
 62
     7
370
    25
100
AcDbLine
 10
167.2330052617
 20
26.5549545588
 30
0.0
 11
166.859307345
 21
26.5549545588
 31
0.0
  0
LINE
  5
187
330
1F
100
AcDbEntity
  8
0
  6
Continuous
 62
     7
370
    25
100
AcDbLine
 10
166.859307345
 20
26.5549545588
 30
0.0
 11
166.2009539797
 21
25.6322782767
 31
0.0
  0
LINE
  5
188
330
1F
100
AcDbEntity
  8
0
  6
Continuous
 62
     7
370
    25
100
AcDbLine
 10
166.2009539797
 20
25.6322782767
 30
0.0
 11
165.5426006143
 21
26.5549545588
 31
0.0
  0
LINE
  5
189
330
1F
100
AcDbEntity
  8
0
  6
Continuous
 62
     7
370
    25
100
AcDbLine
 10
165.5426006143
 20
26.5549545588
 30
0.0
 11
165.1689026976
 21
26.5549545588
 31
0.0
  0
LINE
  5
18A
330
1F
100
AcDbEntity
  8
0
  6
Continuous
 62
     7
370
    25
100
AcDbLine
 10
165.1689026976
 20
26.5549545588
 30
0.0
 11
166.0144555822
 21
25.3707598472
 31
0.0
  0
LINE
  5
18B
330
1F
100
AcDbEntity
  8
0
  6
Continuous
 62
     7
370
    25
100
AcDbLine
 10
166.0144555822
 20
25.3707598472
 30
0.0
 11
165.034287313
 21
23.9972622511
 31
0.0
  0
LINE
  5
18C
330
1F
100
AcDbEntity
  8
0
  6
Continuous
 62
     7
370
    25
100
AcDbLine
 10
168.0406975694
 20
23.0549545588
 30
0.0
 11
168.0406975694
 21
24.4607037575
 31
0.0
  0
LINE
  5
18D
330
1F
100
AcDbEntity
  8
0
  6
Continuous
 62
     7
370
    25
100
AcDbLine
 10
168.0406975694
 20
26.0816973472
 30
0.0
 11
168.0406975694
 21
26.5549545588
 31
0.0
  0
LINE
  5
18E
330
1F
100
AcDbEntity
  8
0
  6
Continuous
 62
     7
370
    25
100
AcDbLine
 10
168.0406975694
 20
26.5549545588
 30
0.0
 11
167.7265950053
 21
26.5549545588
 31
0.0
  0
LINE
  5
18F
330
1F
100
AcDbEntity
  8
0
  6
Continuous
 62
     7
370
    25
100
AcDbLine
 10
167.7265950053
 20
26.5549545588
 30
0.0
 11
167.7265950053
 21
23.0549545588
 31
0.0
  0
LINE
  5
190
330
1F
100
AcDbEntity
  8
0
  6
Continuous
 62
     7
370
    25
100
AcDbLine
 10
167.7265950053
 20
23.0549545588
 30
0.0
 11
168.0406975694
 21
23.0549545588
 31
0.0
  0
LINE
  5
191
330
1F
100
AcDbEntity
  8
0
  6
Continuous
 62
     7
370
    25
100
AcDbLine
 10
175.8483898771
 20
23.9972622511
 30
0.0
 11
175.8483898771
 21
26.5549545588
 31
0.0
  0
LINE
  5
192
330
1F
100
AcDbEntity
  8
0
  6
Continuous
 62
     7
370
    25
100
AcDbLine
 10
175.8483898771
 20
26.5549545588
 30
0.0
 11
175.534287313
 21
26.5549545588
 31
0.0
  0
LINE
  5
193
330
1F
100
AcDbEntity
  8
0
  6
Continuous
 62
     7
370
    25
100
AcDbLine
 10
175.534287313
 20
26.5549545588
 30
0.0
 11
175.534287313
 21
23.9972622511
 31
0.0
  0
LINE
  5
194
330
1F
100
AcDbEntity
  8
0
  6
Continuous
 62
     7
370
    25
100
AcDbLine
 10
175.534287313
 20
23.9972622511
 30
0.0
 11
175.8483898771
 21
23.9972622511
 31
0.0
  0
LINE
  5
195
330
1F
100
AcDbEntity
  8
0
  6
Continuous
 62
     7
370
    25
100
AcDbLine
 10
176.925312954
 20
23.9972622511
 30
0.0
 11
176.925312954
 21
24.9220418985
 31
0.0
  0
LINE
  5
196
330
1F
100
AcDbEntity
  8
0
  6
Continuous
 62
     7
370
    25
100
AcDbLine
 10
178.5406975694
 20
25.2003872511
 30
0.0
 11
178.5406975694
 21
23.9972622511
 31
0.0
  0
LINE
  5
197
330
1F
100
AcDbEntity
  8
0
  6
Continuous
 62
     7
370
    25
100
AcDbLine
 10
178.5406975694
 20
23.9972622511
 30
0.0
 11
178.8548001335
 21
23.9972622511
 31
0.0
  0
LINE
  5
198
330
1F
100
AcDbEntity
  8
0
  6
Continuous
 62
     7
370
    25
100
AcDbLine
 10
178.8548001335
 20
23.9972622511
 30
0.0
 11
178.8548001335
 21
25.3034521549
 31
0.0
  0
LINE
  5
199
330
1F
100
AcDbEntity
  8
0
  6
Continuous
 62
     7
370
    25
100
AcDbLine
 10
176.925312954
 20
26.0936164178
 30
0.0
 11
176.925312954
 21
26.5549545588
 31
0.0
  0
LINE
  5
19A
330
1F
100
AcDbEntity
  8
0
  6
Continuous
 62
     7
370
    25
100
AcDbLine
 10
176.925312954
 20
26.5549545588
 30
0.0
 11
176.6112103899
 21
26.5549545588
 31
0.0
  0
LINE
  5
19B
330
1F
100
AcDbEntity
  8
0
  6
Continuous
 62
     7
370
    25
100
AcDbLine
 10
176.6112103899
 20
26.5549545588
 30
0.0
 11
176.6112103899
 21
23.9972622511
 31
0.0
  0
LINE
  5
19C
330
1F
100
AcDbEntity
  8
0
  6
Continuous
 62
     7
370
    25
100
AcDbLine
 10
176.6112103899
 20
23.9972622511
 30
0.0
 11
176.925312954
 21
23.9972622511
 31
0.0
  0
LINE
  5
19D
330
1F
100
AcDbEntity
  8
0
  6
Continuous
 62
     7
370
    25
100
AcDbLine
 10
179.5566230502
 20
24.5357237896
 30
0.0
 11
179.3483898771
 21
24.2987446229
 31
0.0
  0
LINE
  5
19E
330
1F
100
AcDbEntity
  8
0
  6
Continuous
 62
     7
370
    25
100
AcDbLine
 10
180.5711462873
 20
26.0164930203
 30
0.0
 11
180.784287313
 21
26.2359441421
 31
0.0
  0
LINE
  5
19F
330
1F
100
AcDbEntity
  8
0
  6
Continuous
 62
     7
370
    25
100
AcDbLine
 10
181.7265950053
 20
23.9972622511
 30
0.0
 11
181.7265950053
 21
26.5549545588
 31
0.0
  0
LINE
  5
1A0
330
1F
100
AcDbEntity
  8
0
  6
Continuous
 62
     7
370
    25
100
AcDbLine
 10
181.7265950053
 20
26.5549545588
 30
0.0
 11
181.4124924412
 21
26.5549545588
 31
0.0
  0
LINE
  5
1A1
330
1F
100
AcDbEntity
  8
0
  6
Continuous
 62
     7
370
    25
100
AcDbLine
 10
181.4124924412
 20
26.5549545588
 30
0.0
 11
181.4124924412
 21
23.9972622511
 31
0.0
  0
LINE
  5
1A2
330
1F
100
AcDbEntity
  8
0
  6
Continuous
 62
     7
370
    25
100
AcDbLine
 10
181.4124924412
 20
23.9972622511
 30
0.0
 11
181.7265950053
 21
23.9972622511
 31
0.0
  0
LINE
  5
1A3
330
1F
100
AcDbEntity
  8
0
  6
Continuous
 62
     7
370
    25
100
AcDbLine
 10
184.7778770566
 20
24.4396701037
 30
0.0
 11
184.7778770566
 21
23.9972622511
 31
0.0
  0
LINE
  5
1A4
330
1F
100
AcDbEntity
  8
0
  6
Continuous
 62
     7
370
    25
100
AcDbLine
 10
184.7778770566
 20
23.9972622511
 30
0.0
 11
185.0919796207
 21
23.9972622511
 31
0.0
  0
LINE
  5
1A5
330
1F
100
AcDbEntity
  8
0
  6
Continuous
 62
     7
370
    25
100
AcDbLine
 10
185.0919796207
 20
23.9972622511
 30
0.0
 11
185.0919796207
 21
27.5870058408
 31
0.0
  0
LINE
  5
1A6
330
1F
100
AcDbEntity
  8
0
  6
Continuous
 62
     7
370
    25
100
AcDbLine
 10
185.0919796207
 20
27.5870058408
 30
0.0
 11
184.7778770566
 21
27.5870058408
 31
0.0
  0
LINE
  5
1A7
330
1F
100
AcDbEntity
  8
0
  6
Continuous
 62
     7
370
    25
100
AcDbLine
 10
184.7778770566
 20
27.5870058408
 30
0.0
 11
184.7778770566
 21
26.0599625716
 31
0.0
  0
LINE
  5
1A8
330
1F
100
AcDbEntity
  8
0
  6
Continuous
 62
     7
370
    25
100
AcDbLine
 10
186.034287313
 20
25.2088007126
 30
0.0
 11
188.3227488514
 21
25.2088007126
 31
0.0
  0
LINE
  5
1A9
330
1F
100
AcDbEntity
  8
0
  6
Continuous
 62
     7
370
    25
100
AcDbLine
 10
188.1881334668
 20
24.6584201037
 30
0.0
 11
187.9090869925
 21
24.8049545588
 31
0.0
  0
LINE
  5
1AA
330
1F
100
AcDbEntity
  8
0
  6
Continuous
 62
     7
370
    25
100
AcDbLine
 10
190.566338595
 20
23.9972622511
 30
0.0
 11
190.566338595
 21
27.5870058408
 31
0.0
  0
LINE
  5
1AB
330
1F
100
AcDbEntity
  8
0
  6
Continuous
 62
     7
370
    25
100
AcDbLine
 10
190.566338595
 20
27.5870058408
 30
0.0
 11
190.2522360309
 21
27.5870058408
 31
0.0
  0
LINE
  5
1AC
330
1F
100
AcDbEntity
  8
0
  6
Continuous
 62
     7
370
    25
100
AcDbLine
 10
190.2522360309
 20
27.5870058408
 30
0.0
 11
190.2522360309
 21
23.9972622511
 31
0.0
  0
LINE
  5
1AD
330
1F
100
AcDbEntity
  8
0
  6
Continuous
 62
     7
370
    25
100
AcDbLine
 10
190.2522360309
 20
23.9972622511
 30
0.0
 11
190.566338595
 21
23.9972622511
 31
0.0
  0
LINE
  5
1AE
330
1F
100
AcDbEntity
  8
0
  6
Continuous
 62
     7
370
    25
100
AcDbLine
 10
191.5086462873
 20
25.2088007126
 30
0.0
 11
193.7971078258
 21
25.2088007126
 31
0.0
  0
LINE
  5
1AF
330
1F
100
AcDbEntity
  8
0
  6
Continuous
 62
     7
370
    25
100
AcDbLine
 10
193.6624924412
 20
24.6584201037
 30
0.0
 11
193.3834459668
 21
24.8049545588
 31
0.0
  0
LINE
  5
1B0
330
1F
100
AcDbEntity
  8
0
  6
Continuous
 62
     7
370
    25
100
AcDbLine
 10
194.6048001335
 20
26.9637085652
 30
0.0
 11
194.6048001335
 21
26.5549545588
 31
0.0
  0
LINE
  5
1B1
330
1F
100
AcDbEntity
  8
0
  6
Continuous
 62
     7
370
    25
100
AcDbLine
 10
194.6048001335
 20
26.5549545588
 30
0.0
 11
194.2458257745
 21
26.5549545588
 31
0.0
  0
LINE
  5
1B2
330
1F
100
AcDbEntity
  8
0
  6
Continuous
 62
     7
370
    25
100
AcDbLine
 10
194.2458257745
 20
26.5549545588
 30
0.0
 11
194.2458257745
 21
26.2408519947
 31
0.0
  0
LINE
  5
1B3
330
1F
100
AcDbEntity
  8
0
  6
Continuous
 62
     7
370
    25
100
AcDbLine
 10
194.2458257745
 20
26.2408519947
 30
0.0
 11
194.6048001335
 21
26.2408519947
 31
0.0
  0
LINE
  5
1B4
330
1F
100
AcDbEntity
  8
0
  6
Continuous
 62
     7
370
    25
100
AcDbLine
 10
194.6048001335
 20
26.2408519947
 30
0.0
 11
194.6048001335
 21
23.9972622511
 31
0.0
  0
LINE
  5
1B5
330
1F
100
AcDbEntity
  8
0
  6
Continuous
 62
     7
370
    25
100
AcDbLine
 10
194.6048001335
 20
23.9972622511
 30
0.0
 11
194.9189026976
 21
23.9972622511
 31
0.0
  0
LINE
  5
1B6
330
1F
100
AcDbEntity
  8
0
  6
Continuous
 62
     7
370
    25
100
AcDbLine
 10
194.9189026976
 20
23.9972622511
 30
0.0
 11
194.9203049412
 21
26.2408519947
 31
0.0
  0
LINE
  5
1B7
330
1F
100
AcDbEntity
  8
0
  6
Continuous
 62
     7
370
    25
100
AcDbLine
 10
194.9203049412
 20
26.2408519947
 30
0.0
 11
195.4573642361
 21
26.2408519947
 31
0.0
  0
LINE
  5
1B8
330
1F
100
AcDbEntity
  8
0
  6
Continuous
 62
     7
370
    25
100
AcDbLine
 10
195.4573642361
 20
26.2408519947
 30
0.0
 11
195.4573642361
 21
26.5549545588
 31
0.0
  0
LINE
  5
1B9
330
1F
100
AcDbEntity
  8
0
  6
Continuous
 62
     7
370
    25
100
AcDbLine
 10
195.4573642361
 20
26.5549545588
 30
0.0
 11
194.921006063
 21
26.5549545588
 31
0.0
  0
LINE
  5
1BA
330
1F
100
AcDbEntity
  8
0
  6
Continuous
 62
     7
370
    25
100
AcDbLine
 10
194.921006063
 20
26.5549545588
 30
0.0
 11
194.921006063
 21
26.909722187
 31
0.0
  0
LINE
  5
1BB
330
1F
100
AcDbEntity
  8
0
  6
Continuous
 62
     7
370
    25
100
AcDbLine
 10
195.5022360309
 20
27.2392494306
 30
0.0
 11
195.5022360309
 21
27.565972187
 31
0.0
  0
LINE
  5
1BC
330
1F
100
AcDbEntity
  8
0
  6
Continuous
 62
     7
370
    25
100
AcDbLine
 10
195.816338595
 20
26.5549545588
 30
0.0
 11
195.816338595
 21
26.2408519947
 31
0.0
  0
LINE
  5
1BD
330
1F
100
AcDbEntity
  8
0
  6
Continuous
 62
     7
370
    25
100
AcDbLine
 10
195.816338595
 20
26.2408519947
 30
0.0
 11
196.2650565438
 21
26.2408519947
 31
0.0
  0
LINE
  5
1BE
330
1F
100
AcDbEntity
  8
0
  6
Continuous
 62
     7
370
    25
100
AcDbLine
 10
196.2650565438
 20
26.2408519947
 30
0.0
 11
196.2650565438
 21
23.9972622511
 31
0.0
  0
LINE
  5
1BF
330
1F
100
AcDbEntity
  8
0
  6
Continuous
 62
     7
370
    25
100
AcDbLine
 10
196.2650565438
 20
23.9972622511
 30
0.0
 11
196.5791591079
 21
23.9972622511
 31
0.0
  0
LINE
  5
1C0
330
1F
100
AcDbEntity
  8
0
  6
Continuous
 62
     7
370
    25
100
AcDbLine
 10
196.5791591079
 20
23.9972622511
 30
0.0
 11
196.5791591079
 21
26.2408519947
 31
0.0
  0
LINE
  5
1C1
330
1F
100
AcDbEntity
  8
0
  6
Continuous
 62
     7
370
    25
100
AcDbLine
 10
196.5791591079
 20
26.2408519947
 30
0.0
 11
197.0278770566
 21
26.2408519947
 31
0.0
  0
LINE
  5
1C2
330
1F
100
AcDbEntity
  8
0
  6
Continuous
 62
     7
370
    25
100
AcDbLine
 10
197.0278770566
 20
26.2408519947
 30
0.0
 11
197.0278770566
 21
26.5549545588
 31
0.0
  0
LINE
  5
1C3
330
1F
100
AcDbEntity
  8
0
  6
Continuous
 62
     7
370
    25
100
AcDbLine
 10
197.0278770566
 20
26.5549545588
 30
0.0
 11
196.5791591079
 21
26.5549545588
 31
0.0
  0
LINE
  5
1C4
330
1F
100
AcDbEntity
  8
0
  6
Continuous
 62
     7
370
    25
100
AcDbLine
 10
196.5791591079
 20
26.5549545588
 30
0.0
 11
196.5791591079
 21
27.5870058408
 31
0.0
  0
LINE
  5
1C5
330
1F
100
AcDbEntity
  8
0
  6
Continuous
 62
     7
370
    25
100
AcDbLine
 10
196.5791591079
 20
27.5870058408
 30
0.0
 11
196.2650565438
 21
27.5870058408
 31
0.0
  0
LINE
  5
1C6
330
1F
100
AcDbEntity
  8
0
  6
Continuous
 62
     7
370
    25
100
AcDbLine
 10
196.2650565438
 20
27.5870058408
 30
0.0
 11
196.2650565438
 21
26.5549545588
 31
0.0
  0
LINE
  5
1C7
330
1F
100
AcDbEntity
  8
0
  6
Continuous
 62
     7
370
    25
100
AcDbLine
 10
196.2650565438
 20
26.5549545588
 30
0.0
 11
195.816338595
 21
26.5549545588
 31
0.0
  0
LINE
  5
1C8
330
1F
100
AcDbEntity
  8
0
  6
Continuous
 62
     7
370
    25
100
AcDbLine
 10
201.425312954
 20
24.5427350075
 30
0.0
 11
201.1623922809
 21
24.715210969
 31
0.0
  0
LINE
  5
1C9
330
1F
100
AcDbEntity
  8
0
  6
Continuous
 62
     7
370
    25
100
AcDbLine
 10
201.1623922809
 20
25.8370058408
 30
0.0
 11
201.425312954
 21
26.000367219
 31
0.0
  0
LINE
  5
1CA
330
1F
100
AcDbEntity
  8
0
  6
Continuous
 62
     7
370
    25
100
AcDbLine
 10
206.1817232104
 20
23.9972622511
 30
0.0
 11
207.3483898771
 21
26.5549545588
 31
0.0
  0
LINE
  5
1CB
330
1F
100
AcDbEntity
  8
0
  6
Continuous
 62
     7
370
    25
100
AcDbLine
 10
207.3483898771
 20
26.5549545588
 30
0.0
 11
207.0083458066
 21
26.5549545588
 31
0.0
  0
LINE
  5
1CC
330
1F
100
AcDbEntity
  8
0
  6
Continuous
 62
     7
370
    25
100
AcDbLine
 10
207.0083458066
 20
26.5549545588
 30
0.0
 11
206.159287313
 21
24.6927750716
 31
0.0
  0
LINE
  5
1CD
330
1F
100
AcDbEntity
  8
0
  6
Continuous
 62
     7
370
    25
100
AcDbLine
 10
206.159287313
 20
24.6927750716
 30
0.0
 11
205.3102288194
 21
26.5549545588
 31
0.0
  0
LINE
  5
1CE
330
1F
100
AcDbEntity
  8
0
  6
Continuous
 62
     7
370
    25
100
AcDbLine
 10
205.3102288194
 20
26.5549545588
 30
0.0
 11
204.9701847489
 21
26.5549545588
 31
0.0
  0
LINE
  5
1CF
330
1F
100
AcDbEntity
  8
0
  6
Continuous
 62
     7
370
    25
100
AcDbLine
 10
204.9701847489
 20
26.5549545588
 30
0.0
 11
206.1368514155
 21
23.9972622511
 31
0.0
  0
LINE
  5
1D0
330
1F
100
AcDbEntity
  8
0
  6
Continuous
 62
     7
370
    25
100
AcDbLine
 10
206.1368514155
 20
23.9972622511
 30
0.0
 11
206.1817232104
 21
23.9972622511
 31
0.0
  0
LINE
  5
1D1
330
1F
100
AcDbEntity
  8
0
  6
Continuous
 62
     7
370
    25
100
AcDbLine
 10
208.1112103899
 20
25.2088007126
 30
0.0
 11
210.3996719284
 21
25.2088007126
 31
0.0
  0
LINE
  5
1D2
330
1F
100
AcDbEntity
  8
0
  6
Continuous
 62
     7
370
    25
100
AcDbLine
 10
210.2650565438
 20
24.6584201037
 30
0.0
 11
209.9860100694
 21
24.8049545588
 31
0.0
  0
LINE
  5
1D3
330
1F
100
AcDbEntity
  8
0
  6
Continuous
 62
     7
370
    25
100
AcDbLine
 10
211.2522360309
 20
23.9972622511
 30
0.0
 11
211.2522360309
 21
24.8568375716
 31
0.0
  0
LINE
  5
1D4
330
1F
100
AcDbEntity
  8
0
  6
Continuous
 62
     7
370
    25
100
AcDbLine
 10
211.9771959668
 20
26.2401508729
 30
0.0
 11
212.1496719284
 21
26.5121861293
 31
0.0
  0
LINE
  5
1D5
330
1F
100
AcDbEntity
  8
0
  6
Continuous
 62
     7
370
    25
100
AcDbLine
 10
211.2522360309
 20
26.1784521549
 30
0.0
 11
211.2522360309
 21
26.5549545588
 31
0.0
  0
LINE
  5
1D6
330
1F
100
AcDbEntity
  8
0
  6
Continuous
 62
     7
370
    25
100
AcDbLine
 10
211.2522360309
 20
26.5549545588
 30
0.0
 11
210.9381334668
 21
26.5549545588
 31
0.0
  0
LINE
  5
1D7
330
1F
100
AcDbEntity
  8
0
  6
Continuous
 62
     7
370
    25
100
AcDbLine
 10
210.9381334668
 20
26.5549545588
 30
0.0
 11
210.9381334668
 21
23.9972622511
 31
0.0
  0
LINE
  5
1D8
330
1F
100
AcDbEntity
  8
0
  6
Continuous
 62
     7
370
    25
100
AcDbLine
 10
210.9381334668
 20
23.9972622511
 30
0.0
 11
211.2522360309
 21
23.9972622511
 31
0.0
  0
LINE
  5
1D9
330
1F
100
AcDbEntity
  8
0
  6
Continuous
 62
     7
370
    25
100
AcDbLine
 10
1.0696898987
 20
300.0
 30
0.0
 11
1.0696898987
 21
300.75
 31
0.0
  0
LINE
  5
1DA
330
1F
100
AcDbEntity
  8
0
  6
Continuous
 62
     7
370
    25
100
AcDbLine
 10
1.0696898987
 20
300.75
 30
0.0
 11
-1.6803101013
 21
300.75
 31
0.0
  0
LINE
  5
1DB
330
1F
100
AcDbEntity
  8
0
  6
Continuous
 62
     7
370
    25
100
AcDbLine
 10
-1.6803101013
 20
300.75
 30
0.0
 11
-1.6803101013
 21
300.0
 31
0.0
  0
LINE
  5
1DC
330
1F
100
AcDbEntity
  8
0
  6
Continuous
 62
     7
370
    25
100
AcDbLine
 10
-609.3196898987
 20
300.0
 30
0.0
 11
1.0696898987
 21
300.0
 31
0.0
  0
LINE
  5
1DD
330
1F
100
AcDbEntity
  8
0
  6
Continuous
 62
     7
370
    25
100
AcDbLine
 10
-361.6803101013
 20
780.0
 30
0.0
 11
-361.6803101013
 21
300.0
 31
0.0
  0
LINE
  5
1DE
330
1F
100
AcDbEntity
  8
0
  6
Continuous
 62
     7
370
    25
100
AcDbLine
 10
248.3196898987
 20
840.0
 30
0.0
 11
-301.6803101013
 21
840.0
 31
0.0
  0
LINE
  5
1DF
330
1F
100
AcDbEntity
  8
0
  6
Continuous
 62
     7
370
    25
100
AcDbLine
 10
248.3196898987
 20
830.0
 30
0.0
 11
248.3196898987
 21
840.0
 31
0.0
  0
LINE
  5
1E0
330
1F
100
AcDbEntity
  8
0
  6
Continuous
 62
     7
370
    25
100
AcDbLine
 10
298.3196898987
 20
830.0
 30
0.0
 11
248.3196898987
 21
830.0
 31
0.0
  0
LINE
  5
1E1
330
1F
100
AcDbEntity
  8
0
  6
Continuous
 62
     7
370
    25
100
AcDbLine
 10
298.3196898987
 20
0.0
 30
0.0
 11
298.3196898987
 21
830.0
 31
0.0
  0
LINE
  5
1E2
330
1F
100
AcDbEntity
  8
0
  6
Continuous
 62
     7
370
    25
100
AcDbLine
 10
298.3196898987
 20
0.0
 30
0.0
 11
-249.7180053712
 21
0.0
 31
0.0
  0
LINE
  5
1E3
330
1F
100
AcDbEntity
  8
0
  6
Continuous
 62
     7
370
    25
100
AcDbLine
 10
-249.7180053712
 20
280.0
 30
0.0
 11
-249.7180053712
 21
0.0
 31
0.0
  0
LINE
  5
1E4
330
1F
100
AcDbEntity
  8
0
  6
Continuous
 62
     7
370
    25
100
AcDbLine
 10
-487.3196898987
 20
280.0
 30
0.0
 11
-249.7180053712
 21
280.0
 31
0.0
  0
LINE
  5
1E5
330
1F
100
AcDbEntity
  8
0
  6
Continuous
 62
     7
370
    25
100
AcDbLine
 10
-487.3196898987
 20
0.0
 30
0.0
 11
-487.3196898987
 21
280.0
 31
0.0
  0
LINE
  5
1E6
330
1F
100
AcDbEntity
  8
0
  6
Continuous
 62
     7
370
    25
100
AcDbLine
 10
-609.3196898987
 20
0.0
 30
0.0
 11
-487.3196898987
 21
0.0
 31
0.0
  0
LINE
  5
1E7
330
1F
100
AcDbEntity
  8
0
  6
Continuous
 62
     7
370
    25
100
AcDbLine
 10
-609.3196898987
 20
300.0
 30
0.0
 11
-609.3196898987
 21
0.0
 31
0.0
  0
ARC
  5
1E8
330
1F
100
AcDbEntity
  8
0
  6
Continuous
 62
     7
370
    25
100
AcDbCircle
 10
-301.6803101013
 20
780.0
 30
0.0
 40
60.00000000000006
100
AcDbArc
 50
90.0
 51
180.0
  0
MTEXT
  5
1EA
330
1F
100
AcDbEntity
  8
0
  6
Continuous
 62
     7
100
AcDbMText
 10
-609.3196898987
 20
-1.0195663917
 30
0.0
 40
4.83362
 41
0.0
 71
     1
 72
     1
  1
SOLIDWORKS Educational Product.
  7
SLDTEXTSTYLE0
 73
     1
 44
1.0
  0
MTEXT
  5
1EB
330
1F
100
AcDbEntity
  8
0
  6
Continuous
 62
     7
100
AcDbMText
 10
-609.3196898987
 20
-8.2699963917
 30
0.0
 40
4.83362
 41
0.0
 71
     1
 72
     1
  1
For Instructional Use Only.
  7
SLDTEXTSTYLE0
 73
     1
 44
1.0
  0
ENDSEC
  0
SECTION
  2
OBJECTS
  0
DICTIONARY
  5
C
330
0
100
AcDbDictionary
281
     1
  3
ACAD_GROUP
350
D
  3
ACAD_LAYOUT
350
1A
  3
ACAD_MLINESTYLE
350
17
  3
ACAD_PLOTSETTINGS
350
19
  3
ACAD_PLOTSTYLENAME
350
E
  3
ACAD_SCALELIST
350
47
  3
DWGPROPS
350
1EC
  0
DICTIONARY
  5
D
102
{ACAD_REACTORS
330
C
102
}
330
C
100
AcDbDictionary
281
     1
  0
DICTIONARY
  5
1A
102
{ACAD_REACTORS
330
C
102
}
330
C
100
AcDbDictionary
281
     1
  3
Layout1
350
1E
  3
Layout2
350
26
  3
Model
350
22
  0
DICTIONARY
  5
17
102
{ACAD_REACTORS
330
C
102
}
330
C
100
AcDbDictionary
281
     1
  3
Standard
350
18
  0
DICTIONARY
  5
19
102
{ACAD_REACTORS
330
C
102
}
330
C
100
AcDbDictionary
281
     1
  0
ACDBDICTIONARYWDFLT
  5
E
102
{ACAD_REACTORS
330
C
102
}
330
C
100
AcDbDictionary
281
     1
  3
Normal
350
F
100
AcDbDictionaryWithDefault
340
F
  0
DICTIONARY
  5
47
102
{ACAD_REACTORS
330
C
102
}
330
C
100
AcDbDictionary
281
     1
  3
A0
350
48
  3
A1
350
49
  3
A2
350
4A
  3
A3
350
4B
  3
A4
350
4C
  3
A5
350
4D
  3
A6
350
4E
  3
A7
350
4F
  3
A8
350
50
  3
A9
350
51
  3
B0
350
52
  3
B1
350
53
  3
B2
350
54
  3
B3
350
55
  3
B4
350
56
  3
B5
350
57
  3
B6
350
58
  0
XRECORD
  5
1EC
102
{ACAD_REACTORS
330
C
102
}
330
C
100
AcDbXrecord
280
     1
  1
DWGPROPS COOKIE
  2

  3

  4

  6

  7

  8
anast
  9

300
=
301
=
302
=
303
=
304
=
305
=
306
=
307
=
308
=
309
=
 40
0.0
 41
2460812.716721586
 42
2460812.71682331
  1

 90
        0
  0
LAYOUT
  5
1E
102
{ACAD_REACTORS
330
1A
102
}
330
1A
100
AcDbPlotSettings
  1

  2
none_device
  4

  6

 40
0.0
 41
0.0
 42
0.0
 43
0.0
 44
0.0
 45
0.0
 46
0.0
 47
0.0
 48
0.0
 49
0.0
140
0.0
141
0.0
142
1.0
143
1.0
 70
   688
 72
     1
 73
     0
 74
     5
  7

 75
    16
147
1.0
148
0.0
149
0.0
100
AcDbLayout
  1
Layout1
 70
     1
 71
     1
 10
0.0
 20
0.0
 11
420.0
 21
297.0
 12
0.0
 22
0.0
 32
0.0
 14
1.0000000000E+20
 24
1.0000000000E+20
 34
1.0000000000E+20
 15
-1.0000000000E+20
 25
-1.0000000000E+20
 35
-1.0000000000E+20
146
0.0
 13
0.0
 23
0.0
 33
0.0
 16
1.0
 26
0.0
 36
0.0
 17
0.0
 27
1.0
 37
0.0
 76
     0
330
1B
  0
LAYOUT
  5
26
102
{ACAD_REACTORS
330
1A
102
}
330
1A
100
AcDbPlotSettings
  1

  2
none_device
  4

  6

 40
0.0
 41
0.0
 42
0.0
 43
0.0
 44
0.0
 45
0.0
 46
0.0
 47
0.0
 48
0.0
 49
0.0
140
0.0
141
0.0
142
1.0
143
1.0
 70
   688
 72
     1
 73
     0
 74
     5
  7

 75
    16
147
1.0
148
0.0
149
0.0
100
AcDbLayout
  1
Layout2
 70
     1
 71
     2
 10
0.0
 20
0.0
 11
0.0
 21
0.0
 12
0.0
 22
0.0
 32
0.0
 14
0.0
 24
0.0
 34
0.0
 15
0.0
 25
0.0
 35
0.0
146
0.0
 13
0.0
 23
0.0
 33
0.0
 16
1.0
 26
0.0
 36
0.0
 17
0.0
 27
1.0
 37
0.0
 76
     0
330
23
  0
LAYOUT
  5
22
102
{ACAD_REACTORS
330
1A
102
}
330
1A
100
AcDbPlotSettings
  1

  2
none_device
  4
ANSI_A_(11.00_x_8.50_Inches)
  6

 40
6.35
 41
19.05
 42
6.35000508
 43
19.05000254
 44
279.4
 45
215.9
 46
172.9175278171
 47
-17.97050127
 48
0.0
 49
0.0
140
0.0
141
0.0
142
0.0100178571
143
1.0
 70
  1696
 72
     0
 73
     0
 74
     0
  7

 75
     0
147
0.0179189148
148
-1300.4909072572
149
0.0
100
AcDbLayout
  1
Model
 70
     1
 71
     0
 10
0.0
 20
0.0
 11
420.0
 21
297.0
 12
0.0
 22
0.0
 32
0.0
 14
-609.3196898987
 24
0.0
 34
0.0
 15
298.3196898987
 25
840.0
 35
0.0
146
0.0
 13
0.0
 23
0.0
 33
0.0
 16
1.0
 26
0.0
 36
0.0
 17
0.0
 27
1.0
 37
0.0
 76
     0
330
1F
331
29
  0
MLINESTYLE
  5
18
102
{ACAD_REACTORS
330
17
102
}
330
17
100
AcDbMlineStyle
  2
Standard
 70
     0
  3

 62
   256
 51
90.0
 52
90.0
 71
     2
 49
0.5
 62
   256
  6
BYLAYER
 49
-0.5
 62
   256
  6
BYLAYER
  0
ACDBPLACEHOLDER
  5
F
102
{ACAD_REACTORS
330
E
102
}
330
E
  0
SCALE
  5
48
102
{ACAD_REACTORS
330
47
102
}
330
47
100
AcDbScale
 70
     0
300
1:1
140
1.0
141
1.0
290
     1
  0
SCALE
  5
49
102
{ACAD_REACTORS
330
47
102
}
330
47
100
AcDbScale
 70
     0
300
1:2
140
1.0
141
2.0
290
     0
  0
SCALE
  5
4A
102
{ACAD_REACTORS
330
47
102
}
330
47
100
AcDbScale
 70
     0
300
1:4
140
1.0
141
4.0
290
     0
  0
SCALE
  5
4B
102
{ACAD_REACTORS
330
47
102
}
330
47
100
AcDbScale
 70
     0
300
1:5
140
1.0
141
5.0
290
     0
  0
SCALE
  5
4C
102
{ACAD_REACTORS
330
47
102
}
330
47
100
AcDbScale
 70
     0
300
1:8
140
1.0
141
8.0
290
     0
  0
SCALE
  5
4D
102
{ACAD_REACTORS
330
47
102
}
330
47
100
AcDbScale
 70
     0
300
1:10
140
1.0
141
10.0
290
     0
  0
SCALE
  5
4E
102
{ACAD_REACTORS
330
47
102
}
330
47
100
AcDbScale
 70
     0
300
1:16
140
1.0
141
16.0
290
     0
  0
SCALE
  5
4F
102
{ACAD_REACTORS
330
47
102
}
330
47
100
AcDbScale
 70
     0
300
1:20
140
1.0
141
20.0
290
     0
  0
SCALE
  5
50
102
{ACAD_REACTORS
330
47
102
}
330
47
100
AcDbScale
 70
     0
300
1:30
140
1.0
141
30.0
290
     0
  0
SCALE
  5
51
102
{ACAD_REACTORS
330
47
102
}
330
47
100
AcDbScale
 70
     0
300
1:40
140
1.0
141
40.0
290
     0
  0
SCALE
  5
52
102
{ACAD_REACTORS
330
47
102
}
330
47
100
AcDbScale
 70
     0
300
1:50
140
1.0
141
50.0
290
     0
  0
SCALE
  5
53
102
{ACAD_REACTORS
330
47
102
}
330
47
100
AcDbScale
 70
     0
300
1:100
140
1.0
141
100.0
290
     0
  0
SCALE
  5
54
102
{ACAD_REACTORS
330
47
102
}
330
47
100
AcDbScale
 70
     0
300
2:1
140
2.0
141
1.0
290
     0
  0
SCALE
  5
55
102
{ACAD_REACTORS
330
47
102
}
330
47
100
AcDbScale
 70
     0
300
4:1
140
4.0
141
1.0
290
     0
  0
SCALE
  5
56
102
{ACAD_REACTORS
330
47
102
}
330
47
100
AcDbScale
 70
     0
300
8:1
140
8.0
141
1.0
290
     0
  0
SCALE
  5
57
102
{ACAD_REACTORS
330
47
102
}
330
47
100
AcDbScale
 70
     0
300
10:1
140
10.0
141
1.0
290
     0
  0
SCALE
  5
58
102
{ACAD_REACTORS
330
47
102
}
330
47
100
AcDbScale
 70
     0
300
100:1
140
100.0
141
1.0
290
     0
  0
ENDSEC
  0
EOF
