  0
SECTION
  2
HEADER
  9
$ACADVER
  1
AC1015
  9
$ACADMAINTVER
 70
     6
  9
$DWGCODEPAGE
  3
ANSI_1252
  9
$INSBASE
 10
0.0
 20
0.0
 30
0.0
  9
$EXTMIN
 10
-200.3196898987
 20
0.0
 30
0.0
  9
$EXTMAX
 10
557.3196898987
 20
840.0
 30
0.0
  9
$LIMMIN
 10
0.0
 20
0.0
  9
$LIMMAX
 10
420.0
 20
297.0
  9
$ORTHOMODE
 70
     0
  9
$REGENMODE
 70
     1
  9
$FILLMODE
 70
     1
  9
$QTEXTMODE
 70
     0
  9
$MIRRTEXT
 70
     1
  9
$LTSCALE
 40
1.0
  9
$ATTMODE
 70
     1
  9
$TEXTSIZE
 40
3.5
  9
$TRACEWID
 40
1.0
  9
$TEXTSTYLE
  7
Standard
  9
$CLAYER
  8
0
  9
$CELTYPE
  6
ByLayer
  9
$CECOLOR
 62
   256
  9
$CELTSCALE
 40
1.0
  9
$DISPSILH
 70
     0
  9
$DIMSCALE
 40
1.0
  9
$DIMASZ
 40
3.302
  9
$DIMEXO
 40
0.0
  9
$DIMDLI
 40
3.75
  9
$DIMRND
 40
0.0
  9
$DIMDLE
 40
0.0
  9
$DIMEXE
 40
1.0
  9
$DIMTP
 40
0.0
  9
$DIMTM
 40
0.0
  9
$DIMTXT
 40
3.5
  9
$DIMCEN
 40
2.5
  9
$DIMTSZ
 40
0.0
  9
$DIMTOL
 70
     0
  9
$DIMLIM
 70
     0
  9
$DIMTIH
 70
     1
  9
$DIMTOH
 70
     1
  9
$DIMSE1
 70
     0
  9
$DIMSE2
 70
     0
  9
$DIMTAD
 70
     1
  9
$DIMZIN
 70
     1
  9
$DIMBLK
  1

  9
$DIMASO
 70
     1
  9
$DIMSHO
 70
     1
  9
$DIMPOST
  1

  9
$DIMAPOST
  1

  9
$DIMALT
 70
     0
  9
$DIMALTD
 70
     3
  9
$DIMALTF
 40
0.0393700787
  9
$DIMLFAC
 40
1.0
  9
$DIMTOFL
 70
     1
  9
$DIMTVP
 40
0.0
  9
$DIMTIX
 70
     0
  9
$DIMSOXD
 70
     0
  9
$DIMSAH
 70
     0
  9
$DIMBLK1
  1

  9
$DIMBLK2
  1

  9
$DIMSTYLE
  2
ISO-25
  9
$DIMCLRD
 70
     0
  9
$DIMCLRE
 70
     0
  9
$DIMCLRT
 70
     0
  9
$DIMTFAC
 40
1.0
  9
$DIMGAP
 40
1.524
  9
$DIMJUST
 70
     0
  9
$DIMSD1
 70
     0
  9
$DIMSD2
 70
     0
  9
$DIMTOLJ
 70
     0
  9
$DIMTZIN
 70
     1
  9
$DIMALTZ
 70
     0
  9
$DIMALTTZ
 70
     0
  9
$DIMUPT
 70
     0
  9
$DIMDEC
 70
     2
  9
$DIMTDEC
 70
     2
  9
$DIMALTU
 70
     2
  9
$DIMALTTD
 70
     3
  9
$DIMTXSTY
  7
Standard
  9
$DIMAUNIT
 70
     0
  9
$DIMADEC
 70
     2
  9
$DIMALTRND
 40
0.0
  9
$DIMAZIN
 70
     0
  9
$DIMDSEP
 70
    44
  9
$DIMATFIT
 70
     3
  9
$DIMFRAC
 70
     0
  9
$DIMLDRBLK
  1

  9
$DIMLUNIT
 70
     2
  9
$DIMLWD
 70
    -2
  9
$DIMLWE
 70
    -2
  9
$DIMTMOVE
 70
     0
  9
$LUNITS
 70
     2
  9
$LUPREC
 70
     2
  9
$SKETCHINC
 40
1.0
  9
$FILLETRAD
 40
0.0
  9
$AUNITS
 70
     0
  9
$AUPREC
 70
     2
  9
$MENU
  1
.
  9
$ELEVATION
 40
0.0
  9
$PELEVATION
 40
0.0
  9
$THICKNESS
 40
0.0
  9
$LIMCHECK
 70
     0
  9
$CHAMFERA
 40
0.0
  9
$CHAMFERB
 40
0.0
  9
$CHAMFERC
 40
0.0
  9
$CHAMFERD
 40
0.0
  9
$SKPOLY
 70
     0
  9
$TDCREATE
 40
2460812.802797789
  9
$TDUCREATE
 40
2460812.719464456
  9
$TDUPDATE
 40
2460812.802917396
  9
$TDUUPDATE
 40
2460812.719584063
  9
$TDINDWG
 40
0.0000000116
  9
$TDUSRTIMER
 40
0.0000000116
  9
$USRTIMER
 70
     1
  9
$ANGBASE
 50
0.0
  9
$ANGDIR
 70
     0
  9
$PDMODE
 70
     0
  9
$PDSIZE
 40
-1.0
  9
$PLINEWID
 40
0.0
  9
$SPLFRAME
 70
     0
  9
$SPLINETYPE
 70
     6
  9
$SPLINESEGS
 70
     8
  9
$HANDSEED
  5
1FB
  9
$SURFTAB1
 70
     6
  9
$SURFTAB2
 70
     6
  9
$SURFTYPE
 70
     6
  9
$SURFU
 70
     6
  9
$SURFV
 70
     6
  9
$UCSBASE
  2

  9
$UCSNAME
  2

  9
$UCSORG
 10
0.0
 20
0.0
 30
0.0
  9
$UCSXDIR
 10
1.0
 20
0.0
 30
0.0
  9
$UCSYDIR
 10
0.0
 20
1.0
 30
0.0
  9
$UCSORTHOREF
  2

  9
$UCSORTHOVIEW
 70
     0
  9
$UCSORGTOP
 10
0.0
 20
0.0
 30
0.0
  9
$UCSORGBOTTOM
 10
0.0
 20
0.0
 30
0.0
  9
$UCSORGLEFT
 10
0.0
 20
0.0
 30
0.0
  9
$UCSORGRIGHT
 10
0.0
 20
0.0
 30
0.0
  9
$UCSORGFRONT
 10
0.0
 20
0.0
 30
0.0
  9
$UCSORGBACK
 10
0.0
 20
0.0
 30
0.0
  9
$PUCSBASE
  2

  9
$PUCSNAME
  2

  9
$PUCSORG
 10
0.0
 20
0.0
 30
0.0
  9
$PUCSXDIR
 10
1.0
 20
0.0
 30
0.0
  9
$PUCSYDIR
 10
0.0
 20
1.0
 30
0.0
  9
$PUCSORTHOREF
  2

  9
$PUCSORTHOVIEW
 70
     0
  9
$PUCSORGTOP
 10
0.0
 20
0.0
 30
0.0
  9
$PUCSORGBOTTOM
 10
0.0
 20
0.0
 30
0.0
  9
$PUCSORGLEFT
 10
0.0
 20
0.0
 30
0.0
  9
$PUCSORGRIGHT
 10
0.0
 20
0.0
 30
0.0
  9
$PUCSORGFRONT
 10
0.0
 20
0.0
 30
0.0
  9
$PUCSORGBACK
 10
0.0
 20
0.0
 30
0.0
  9
$USERI1
 70
     0
  9
$USERI2
 70
     0
  9
$USERI3
 70
     0
  9
$USERI4
 70
     0
  9
$USERI5
 70
     0
  9
$USERR1
 40
0.0
  9
$USERR2
 40
0.0
  9
$USERR3
 40
0.0
  9
$USERR4
 40
0.0
  9
$USERR5
 40
0.0
  9
$WORLDVIEW
 70
     1
  9
$SHADEDGE
 70
     3
  9
$SHADEDIF
 70
    70
  9
$TILEMODE
 70
     1
  9
$MAXACTVP
 70
    64
  9
$PINSBASE
 10
0.0
 20
0.0
 30
0.0
  9
$PLIMCHECK
 70
     0
  9
$PEXTMIN
 10
1.0000000000E+20
 20
1.0000000000E+20
 30
1.0000000000E+20
  9
$PEXTMAX
 10
-1.0000000000E+20
 20
-1.0000000000E+20
 30
-1.0000000000E+20
  9
$PLIMMIN
 10
0.0
 20
0.0
  9
$PLIMMAX
 10
420.0
 20
297.0
  9
$UNITMODE
 70
     0
  9
$VISRETAIN
 70
     1
  9
$PLINEGEN
 70
     0
  9
$PSLTSCALE
 70
     1
  9
$TREEDEPTH
 70
  3020
  9
$CMLSTYLE
  2
Standard
  9
$CMLJUST
 70
     0
  9
$CMLSCALE
 40
20.0
  9
$PROXYGRAPHICS
 70
     1
  9
$MEASUREMENT
 70
     1
  9
$CELWEIGHT
370
    -1
  9
$ENDCAPS
280
     0
  9
$JOINSTYLE
280
     0
  9
$LWDISPLAY
290
     1
  9
$INSUNITS
 70
     4
  9
$HYPERLINKBASE
  1

  9
$STYLESHEET
  1

  9
$XEDIT
290
     1
  9
$CEPSNTYPE
380
     0
  9
$PSTYLEMODE
290
     1
  9
$FINGERPRINTGUID
  2
{ecd2adf2-a4d1-4f9b-8ca5-251eccdc3458}
  9
$VERSIONGUID
  2
{FAEB1C32-E019-11D5-929B-00C0DF256EC4}
  9
$EXTNAMES
290
     1
  9
$PSVPSCALE
 40
0.0
  9
$OLESTARTUP
290
     0
  0
ENDSEC
  0
SECTION
  2
CLASSES
  0
CLASS
  1
ACDBDICTIONARYWDFLT
  2
AcDbDictionaryWithDefault
  3
ObjectDBX Classes
 90
        0
280
     0
281
     0
  0
CLASS
  1
VISUALSTYLE
  2
AcDbVisualStyle
  3
ObjectDBX Classes
 90
     4095
280
     0
281
     0
  0
CLASS
  1
MATERIAL
  2
AcDbMaterial
  3
ObjectDBX Classes
 90
     1153
280
     0
281
     0
  0
CLASS
  1
SCALE
  2
AcDbScale
  3
ObjectDBX Classes
 90
     1153
280
     0
281
     0
  0
CLASS
  1
TABLESTYLE
  2
AcDbTableStyle
  3
ObjectDBX Classes
 90
     4095
280
     0
281
     0
  0
CLASS
  1
MLEADERSTYLE
  2
AcDbMLeaderStyle
  3
ACDB_MLEADERSTYLE_CLASS
 90
     4095
280
     0
281
     0
  0
CLASS
  1
SUN
  2
AcDbSun
  3
SCENEOE
 90
     1153
280
     0
281
     0
  0
CLASS
  1
ACDBPLACEHOLDER
  2
AcDbPlaceHolder
  3
ObjectDBX Classes
 90
        0
280
     0
281
     0
  0
CLASS
  1
LAYOUT
  2
AcDbLayout
  3
ObjectDBX Classes
 90
        0
280
     0
281
     0
  0
ENDSEC
  0
SECTION
  2
TABLES
  0
TABLE
  2
VPORT
  5
8
330
0
100
AcDbSymbolTable
 70
     1
  0
VPORT
  5
29
330
8
100
AcDbSymbolTableRecord
100
AcDbViewportTableRecord
  2
*Active
 70
     0
 10
0.0
 20
0.0
 11
1.0
 21
1.0
 12
178.5
 22
420.0
 13
0.0
 23
0.0
 14
10.0
 24
10.0
 15
10.0
 25
10.0
 16
0.0
 26
0.0
 36
1.0
 17
0.0
 27
0.0
 37
0.0
 40
856.8
 41
0.9019516426
 42
50.0
 43
0.0
 44
0.0
 50
0.0
 51
0.0
 71
     0
 72
   100
 73
     1
 74
     3
 75
     0
 76
     0
 77
     0
 78
     0
281
     0
 65
     1
110
0.0
120
0.0
130
0.0
111
1.0
121
0.0
131
0.0
112
0.0
122
1.0
132
0.0
 79
     0
146
0.0
  0
ENDTAB
  0
TABLE
  2
LTYPE
  5
5
330
0
100
AcDbSymbolTable
 70
     6
  0
LTYPE
  5
14
330
5
100
AcDbSymbolTableRecord
100
AcDbLinetypeTableRecord
  2
ByBlock
 70
     0
  3

 72
    65
 73
     0
 40
0.0
  0
LTYPE
  5
15
330
5
100
AcDbSymbolTableRecord
100
AcDbLinetypeTableRecord
  2
ByLayer
 70
     0
  3

 72
    65
 73
     0
 40
0.0
  0
LTYPE
  5
16
330
5
100
AcDbSymbolTableRecord
100
AcDbLinetypeTableRecord
  2
Continuous
 70
     0
  3
Solid line
 72
    65
 73
     0
 40
0.0
  0
LTYPE
  5
5E
330
5
100
AcDbSymbolTableRecord
100
AcDbLinetypeTableRecord
  2
HIDDEN
 70
     0
  3
Hidden __ __ __ __ __ __ __ __ __ __ __ __ __ __
 72
    65
 73
     2
 40
1.905
 49
1.27
 74
     0
 49
-0.635
 74
     0
  0
LTYPE
  5
5F
330
5
100
AcDbSymbolTableRecord
100
AcDbLinetypeTableRecord
  2
PHANTOM
 70
     0
  3
Phantom ______  __  __  ______  __  __  ______
 72
    65
 73
     6
 40
12.7
 49
6.35
 74
     0
 49
-1.27
 74
     0
 49
1.27
 74
     0
 49
-1.27
 74
     0
 49
1.27
 74
     0
 49
-1.27
 74
     0
  0
LTYPE
  5
60
330
5
100
AcDbSymbolTableRecord
100
AcDbLinetypeTableRecord
  2
CENTER
 70
     0
  3
Center ____ _ ____ _ ____ _ ____ _ ____ _ ____
 72
    65
 73
     4
 40
10.16
 49
6.35
 74
     0
 49
-1.27
 74
     0
 49
1.27
 74
     0
 49
-1.27
 74
     0
  0
LTYPE
  5
61
330
5
100
AcDbSymbolTableRecord
100
AcDbLinetypeTableRecord
  2
CENTERX2
 70
     0
  3
Center (2x) ________  __  ________  __  _____
 72
    65
 73
     4
 40
20.32
 49
12.7
 74
     0
 49
-2.54
 74
     0
 49
2.54
 74
     0
 49
-2.54
 74
     0
  0
LTYPE
  5
62
330
5
100
AcDbSymbolTableRecord
100
AcDbLinetypeTableRecord
  2
DOT2
 70
     0
  3
Dot (.5x) ........................................
 72
    65
 73
     2
 40
0.635
 49
0.0
 74
     0
 49
-0.635
 74
     0
  0
ENDTAB
  0
TABLE
  2
LAYER
  5
2
330
0
100
AcDbSymbolTable
 70
     1
  0
LAYER
  5
10
330
2
100
AcDbSymbolTableRecord
100
AcDbLayerTableRecord
  2
0
 70
     0
 62
     7
  6
Continuous
370
    -3
390
F
  0
ENDTAB
  0
TABLE
  2
STYLE
  5
3
330
0
100
AcDbSymbolTable
 70
     2
  0
STYLE
  5
11
330
3
100
AcDbSymbolTableRecord
100
AcDbTextStyleTableRecord
  2
Standard
 70
     0
 40
0.0
 41
1.0
 50
0.0
 71
     0
 42
3.5
  3
txt
  4

  0
STYLE
  5
1F7
330
3
100
AcDbSymbolTableRecord
100
AcDbTextStyleTableRecord
  2
SLDTEXTSTYLE0
 70
     0
 40
0.0
 41
0.7
 50
0.0
 71
     0
 42
3.5
  3
TXT
  4

  0
ENDTAB
  0
TABLE
  2
VIEW
  5
6
330
0
100
AcDbSymbolTable
 70
     0
  0
ENDTAB
  0
TABLE
  2
UCS
  5
7
330
0
100
AcDbSymbolTable
 70
     0
  0
ENDTAB
  0
TABLE
  2
APPID
  5
9
330
0
100
AcDbSymbolTable
 70
     1
  0
APPID
  5
12
330
9
100
AcDbSymbolTableRecord
100
AcDbRegAppTableRecord
  2
ACAD
 70
     0
  0
ENDTAB
  0
TABLE
  2
DIMSTYLE
  5
A
330
0
100
AcDbSymbolTable
 70
     1
100
AcDbDimStyleTable
  0
DIMSTYLE
105
27
330
A
100
AcDbSymbolTableRecord
100
AcDbDimStyleTableRecord
  2
ISO-25
 70
     0
 41
2.5
 42
0.625
 43
3.75
 44
1.25
 73
     0
 74
     0
 77
     1
 78
     8
140
2.5
141
2.5
143
0.0393700787
147
0.625
171
     3
172
     1
178
     0
271
     2
272
     2
274
     3
278
    44
283
     0
284
     8
340
11
  0
ENDTAB
  0
TABLE
  2
BLOCK_RECORD
  5
1
330
0
100
AcDbSymbolTable
 70
     1
  0
BLOCK_RECORD
  5
1F
330
1
100
AcDbSymbolTableRecord
100
AcDbBlockTableRecord
  2
*Model_Space
340
22
  0
BLOCK_RECORD
  5
1B
330
1
100
AcDbSymbolTableRecord
100
AcDbBlockTableRecord
  2
*Paper_Space
340
1E
  0
BLOCK_RECORD
  5
23
330
1
100
AcDbSymbolTableRecord
100
AcDbBlockTableRecord
  2
*Paper_Space0
340
26
  0
ENDTAB
  0
ENDSEC
  0
SECTION
  2
BLOCKS
  0
BLOCK
  5
20
330
1F
100
AcDbEntity
  8
0
100
AcDbBlockBegin
  2
*Model_Space
 70
     0
 10
0.0
 20
0.0
 30
0.0
  3
*Model_Space
  1

  0
ENDBLK
  5
21
330
1F
100
AcDbEntity
  8
0
100
AcDbBlockEnd
  0
BLOCK
  5
1C
330
1B
100
AcDbEntity
 67
     1
  8
0
100
AcDbBlockBegin
  2
*Paper_Space
 70
     0
 10
0.0
 20
0.0
 30
0.0
  3
*Paper_Space
  1

  0
ENDBLK
  5
1D
330
1B
100
AcDbEntity
 67
     1
  8
0
100
AcDbBlockEnd
  0
BLOCK
  5
24
330
23
100
AcDbEntity
  8
0
100
AcDbBlockBegin
  2
*Paper_Space0
 70
     0
 10
0.0
 20
0.0
 30
0.0
  3
*Paper_Space0
  1

  0
ENDBLK
  5
25
330
23
100
AcDbEntity
  8
0
100
AcDbBlockEnd
  0
ENDSEC
  0
SECTION
  2
ENTITIES
  0
LINE
  5
63
330
1F
100
AcDbEntity
  8
0
  6
Continuous
 62
     7
100
AcDbLine
 10
-0.1598449493
 20
250.0
 30
0.0
 11
-0.1598449493
 21
0.0
 31
0.0
  0
LINE
  5
64
330
1F
100
AcDbEntity
  8
0
  6
HIDDEN
 62
     7
100
AcDbLine
 10
98.6598449493
 20
250.0
 30
0.0
 11
98.6598449493
 21
0.0
 31
0.0
  0
SPLINE
  5
67
330
1F
100
AcDbEntity
  8
0
  6
Continuous
 62
     7
370
    25
100
AcDbSpline
210
0.0
220
0.0
230
1.0
 70
     8
 71
     3
 72
    13
 73
     9
 74
     0
 42
0.00000001
 43
0.00000001
 40
0.0
 40
0.0
 40
0.0
 40
0.0
 40
0.2138863655718647
 40
0.3246827750473095
 40
0.439458544744861
 40
0.561633485869794
 40
0.6938876172598769
 40
1.0
 40
1.0
 40
1.0
 40
1.0
 10
-116.9275164796504
 20
26.59982635365565
 30
0.0
 10
-116.8714360868802
 20
26.59943733708325
 30
0.0
 10
-116.7858774919868
 20
26.58759068659189
 30
0.0
 10
-116.678304199632
 20
26.54491347785493
 30
0.0
 10
-116.5979231690249
 20
26.5011531385555
 30
0.0
 10
-116.5202873060756
 20
26.44262485919013
 30
0.0
 10
-116.4144904126541
 20
26.33993379819955
 30
0.0
 10
-116.3465382103209
 20
26.2461661136506
 30
0.0
 10
-116.3035180822146
 20
26.17845215493775
 30
0.0
  0
SPLINE
  5
68
330
1F
100
AcDbEntity
  8
0
  6
Continuous
 62
     7
370
    25
100
AcDbSpline
210
0.0
220
0.0
230
1.0
 70
     8
 71
     3
 72
     9
 73
     5
 74
     0
 42
0.00000001
 43
0.00000001
 40
0.0
 40
0.0
 40
0.0
 40
0.0
 40
0.5364768048236987
 40
1.0
 40
1.0
 40
1.0
 40
1.0
 10
-117.2009539796504
 20
26.51218612929673
 30
0.0
 10
-117.1566128745912
 20
26.53904602007295
 30
0.0
 10
-117.0689597628747
 20
26.58258393155233
 30
0.0
 10
-116.9724929325707
 20
26.59947693276843
 30
0.0
 10
-116.9275164796504
 20
26.59982635365565
 30
0.0
  0
SPLINE
  5
6A
330
1F
100
AcDbEntity
  8
0
  6
Continuous
 62
     7
370
    25
100
AcDbSpline
210
0.0
220
0.0
230
1.0
 70
     8
 71
     3
 72
     9
 73
     5
 74
     0
 42
0.00000001
 43
0.00000001
 40
0.0
 40
0.0
 40
0.0
 40
0.0
 40
0.4397700551121884
 40
1.0
 40
1.0
 40
1.0
 40
1.0
 10
-116.8679211270863
 20
26.28572378955307
 30
0.0
 10
-116.8926051669111
 20
26.28540140084901
 30
0.0
 10
-116.9483923221213
 20
26.27607684536526
 30
0.0
 10
-116.9998649803397
 20
26.25282120674677
 30
0.0
 10
-117.028478018112
 20
26.24015087288645
 30
0.0
  0
SPLINE
  5
6B
330
1F
100
AcDbEntity
  8
0
  6
Continuous
 62
     7
370
    25
100
AcDbSpline
210
0.0
220
0.0
230
1.0
 70
     8
 71
     3
 72
    17
 73
    13
 74
     0
 42
0.00000001
 43
0.00000001
 40
0.0
 40
0.0
 40
0.0
 40
0.0
 40
0.1717166158284539
 40
0.2506679767741051
 40
0.3258823275093822
 40
0.396881271696415
 40
0.4635748406535746
 40
0.5280697489487671
 40
0.5896876632767214
 40
0.7048093833748892
 40
0.8086618718637332
 40
1.0
 40
1.0
 40
1.0
 40
1.0
 10
-116.3596078258043
 20
25.73464205878384
 30
0.0
 10
-116.3715309731633
 20
25.77911347298911
 30
0.0
 10
-116.3910523605057
 20
25.8435913527898
 30
0.0
 10
-116.4239038003304
 20
25.92464619795742
 30
0.0
 10
-116.4495627328944
 20
25.97937764328096
 30
0.0
 10
-116.4777347721194
 20
26.02910671873804
 30
0.0
 10
-116.5072170488205
 20
26.07468623730469
 30
0.0
 10
-116.539357475612
 20
26.1153318249362
 30
0.0
 10
-116.5843992845553
 20
26.16189235784849
 30
0.0
 10
-116.6425737396526
 20
26.21007731676428
 30
0.0
 10
-116.7375168516738
 20
26.26691263004199
 30
0.0
 10
-116.8163961021969
 20
26.28579031242639
 30
0.0
 10
-116.8679211270863
 20
26.28572378955307
 30
0.0
  0
SPLINE
  5
6C
330
1F
100
AcDbEntity
  8
0
  6
Continuous
 62
     7
370
    25
100
AcDbSpline
210
0.0
220
0.0
230
1.0
 70
     8
 71
     3
 72
    13
 73
     9
 74
     0
 42
0.00000001
 43
0.00000001
 40
0.0
 40
0.0
 40
0.0
 40
0.0
 40
0.343762191421775
 40
0.4918338323010911
 40
0.6241090704107948
 40
0.7413996050399048
 40
0.8430618504426423
 40
1.0
 40
1.0
 40
1.0
 40
1.0
 10
-116.3035180822146
 20
24.85683757160439
 30
0.0
 10
-116.3029716250366
 20
24.95781823306364
 30
0.0
 10
-116.3051946964462
 20
25.10226484317368
 30
0.0
 10
-116.3104689753354
 20
25.2855204205944
 30
0.0
 10
-116.317022126478
 20
25.40213615643727
 30
0.0
 10
-116.3241702927034
 20
25.5050727804611
 30
0.0
 10
-116.3363940528748
 20
25.61481216274164
 30
0.0
 10
-116.3478580065891
 20
25.68998422522895
 30
0.0
 10
-116.3596078258043
 20
25.73464205878384
 30
0.0
  0
SPLINE
  5
71
330
1F
100
AcDbEntity
  8
0
  6
Continuous
 62
     7
370
    25
100
AcDbSpline
210
0.0
220
0.0
230
1.0
 70
     8
 71
     3
 72
    17
 73
    13
 74
     0
 42
0.00000001
 43
0.00000001
 40
0.0
 40
0.0
 40
0.0
 40
0.0
 40
0.1781058515637827
 40
0.2613277635121511
 40
0.3415565694705521
 40
0.4200079090126525
 40
0.4980968161626226
 40
0.5754001382821239
 40
0.6536452159657116
 40
0.7341257729573898
 40
0.8183392339289949
 40
1.0
 40
1.0
 40
1.0
 40
1.0
 10
-114.1349483706762
 20
23.95239045621977
 30
0.0
 10
-114.2212421624341
 20
23.95240161639423
 30
0.0
 10
-114.348118644204
 20
23.96105583742592
 30
0.0
 10
-114.5105019167801
 20
23.99438153555322
 30
0.0
 10
-114.622800566322
 20
24.02875977033048
 30
0.0
 10
-114.7286503827485
 20
24.07352046202793
 30
0.0
 10
-114.8289396982641
 20
24.12663654405367
 30
0.0
 10
-114.9236702852754
 20
24.18897606102888
 30
0.0
 10
-115.0133478913041
 20
24.26022301050401
 30
0.0
 10
-115.0984208840458
 20
24.34196942868572
 30
0.0
 10
-115.2053667681539
 20
24.47173158340654
 30
0.0
 10
-115.2748377589139
 20
24.58072746912954
 30
0.0
 10
-115.3163385950351
 20
24.65842010365571
 30
0.0
  0
SPLINE
  5
72
330
1F
100
AcDbEntity
  8
0
  6
Continuous
 62
     7
370
    25
100
AcDbSpline
210
0.0
220
0.0
230
1.0
 70
     8
 71
     3
 72
    21
 73
    17
 74
     0
 42
0.00000001
 43
0.00000001
 40
0.0
 40
0.0
 40
0.0
 40
0.0
 40
0.1210804245006118
 40
0.1800682782218559
 40
0.2391896643238556
 40
0.2987059533012314
 40
0.3588810785072301
 40
0.4203687292950606
 40
0.4834483096802261
 40
0.5465664849029384
 40
0.6086986022254206
 40
0.670186253013248
 40
0.7318650366033053
 40
0.7952033026033165
 40
0.8603707753071415
 40
1.0
 40
1.0
 40
1.0
 40
1.0
 10
-112.8483898770865
 20
25.269097186989
 30
0.0
 10
-112.8493046043238
 20
25.18607454663901
 30
0.0
 10
-112.8580842286229
 20
25.06222273965108
 30
0.0
 10
-112.8941655128959
 20
24.90177559542161
 30
0.0
 10
-112.9325409098097
 20
24.78591321993751
 30
0.0
 10
-112.9801014896568
 20
24.6726422862259
 30
0.0
 10
-113.0385567483559
 20
24.56267917002542
 30
0.0
 10
-113.1084831675436
 20
24.45672326874593
 30
0.0
 10
-113.1877268865583
 20
24.35504126577326
 30
0.0
 10
-113.2757511320824
 20
24.26002502245051
 30
0.0
 10
-113.374570676889
 20
24.17789202679021
 30
0.0
 10
-113.4810714215853
 20
24.10793527834099
 30
0.0
 10
-113.5958141000879
 20
24.05049765125278
 30
0.0
 10
-113.7190241523121
 20
24.00657197746614
 30
0.0
 10
-113.8982559953433
 20
23.96342562216258
 30
0.0
 10
-114.039177690682
 20
23.95242933912123
 30
0.0
 10
-114.1349483706762
 20
23.95239045621977
 30
0.0
  0
SPLINE
  5
73
330
1F
100
AcDbEntity
  8
0
  6
Continuous
 62
     7
370
    25
100
AcDbSpline
210
0.0
220
0.0
230
1.0
 70
     8
 71
     3
 72
    13
 73
     9
 74
     0
 42
0.00000001
 43
0.00000001
 40
0.0
 40
0.0
 40
0.0
 40
0.0
 40
0.2534216680665266
 40
0.3767041167575432
 40
0.4994491585174913
 40
0.6225715734186964
 40
0.7462320999755214
 40
1.0
 40
1.0
 40
1.0
 40
1.0
 10
-113.1428610309327
 20
26.12306353314287
 30
0.0
 10
-113.0953097684378
 20
26.06157170931755
 30
0.0
 10
-113.0301459357093
 20
25.96550243803708
 30
0.0
 10
-112.9619731593528
 20
25.82799140180547
 30
0.0
 10
-112.9203940576318
 20
25.72245115208738
 30
0.0
 10
-112.8882466249051
 20
25.61356346027199
 30
0.0
 10
-112.8566192453478
 20
25.46301974931275
 30
0.0
 10
-112.8493431652915
 20
25.3468908891481
 30
0.0
 10
-112.8483898770865
 20
25.269097186989
 30
0.0
  0
SPLINE
  5
74
330
1F
100
AcDbEntity
  8
0
  6
Continuous
 62
     7
370
    25
100
AcDbSpline
210
0.0
220
0.0
230
1.0
 70
     8
 71
     3
 72
    13
 73
     9
 74
     0
 42
0.00000001
 43
0.00000001
 40
0.0
 40
0.0
 40
0.0
 40
0.0
 40
0.2602406645595056
 40
0.3836752253642184
 40
0.5046599577622765
 40
0.6253567426858504
 40
0.7464106650135791
 40
1.0
 40
1.0
 40
1.0
 40
1.0
 10
-114.1426607104197
 20
26.59982635365565
 30
0.0
 10
-114.043204499303
 20
26.59862777346922
 30
0.0
 10
-113.8953287023275
 20
26.58759892260998
 30
0.0
 10
-113.7087826763564
 20
26.53510451972163
 30
0.0
 10
-113.5784412416328
 20
26.48347199000545
 30
0.0
 10
-113.4568642186012
 20
26.41543244464073
 30
0.0
 10
-113.3022020666219
 20
26.30466991766556
 30
0.0
 10
-113.2034340912156
 20
26.19878808229559
 30
0.0
 10
-113.1428610309327
 20
26.12306353314287
 30
0.0
  0
SPLINE
  5
75
330
1F
100
AcDbEntity
  8
0
  6
Continuous
 62
     7
370
    25
100
AcDbSpline
210
0.0
220
0.0
230
1.0
 70
     8
 71
     3
 72
    13
 73
     9
 74
     0
 42
0.00000001
 43
0.00000001
 40
0.0
 40
0.0
 40
0.0
 40
0.0
 40
0.255257368140996
 40
0.3772478104725325
 40
0.4977415562850415
 40
0.6181201760750441
 40
0.7409671592206359
 40
1.0
 40
1.0
 40
1.0
 40
1.0
 10
-115.1726086270866
 20
26.09642090493769
 30
0.0
 10
-115.1112214833932
 20
26.17708101753691
 30
0.0
 10
-115.007778569255
 20
26.2867207079589
 30
0.0
 10
-114.8495033934627
 20
26.40579149326017
 30
0.0
 10
-114.7238338818871
 20
26.47700323996782
 30
0.0
 10
-114.5899895363803
 20
26.53208887145719
 30
0.0
 10
-114.3973964732282
 20
26.58537812161654
 30
0.0
 10
-114.2454882125
 20
26.60025832723722
 30
0.0
 10
-114.1426607104197
 20
26.59982635365565
 30
0.0
  0
SPLINE
  5
76
330
1F
100
AcDbEntity
  8
0
  6
Continuous
 62
     7
370
    25
100
AcDbSpline
210
0.0
220
0.0
230
1.0
 70
     8
 71
     3
 72
    13
 73
     9
 74
     0
 42
0.00000001
 43
0.00000001
 40
0.0
 40
0.0
 40
0.0
 40
0.0
 40
0.2703816178319617
 40
0.3984601291783004
 40
0.5227503451014437
 40
0.6438255660090793
 40
0.7637452368382556
 40
1.0
 40
1.0
 40
1.0
 40
1.0
 10
-115.4509539796505
 20
25.20880071262999
 30
0.0
 10
-115.4493645149957
 20
25.29406035411341
 30
0.0
 10
-115.4420034814945
 20
25.42004269347253
 30
0.0
 10
-115.4114019980693
 20
25.58239881192259
 30
0.0
 10
-115.380391865009
 20
25.69622516255754
 30
0.0
 10
-115.3420150873397
 20
25.80510689635052
 30
0.0
 10
-115.2784043193456
 20
25.94189291824123
 30
0.0
 10
-115.2184952789595
 20
26.03753208158843
 30
0.0
 10
-115.1726086270864
 20
26.09642090493769
 30
0.0
  0
SPLINE
  5
78
330
1F
100
AcDbEntity
  8
0
  6
Continuous
 62
     7
370
    25
100
AcDbSpline
210
0.0
220
0.0
230
1.0
 70
     8
 71
     3
 72
    21
 73
    17
 74
     0
 42
0.00000001
 43
0.00000001
 40
0.0
 40
0.0
 40
0.0
 40
0.0
 40
0.1276691474530424
 40
0.1889505232706536
 40
0.2490548673082992
 40
0.3090713134763196
 40
0.3692223593686933
 40
0.4301747620269846
 40
0.4926019887960209
 40
0.555346876893578
 40
0.6169627615204942
 40
0.678170777192346
 40
0.73924652255152
 40
0.8016089422160485
 40
0.8655244124565523
 40
1.0
 40
1.0
 40
1.0
 40
1.0
 10
-114.0956855501634
 20
24.26649302032235
 30
0.0
 10
-114.0326743957794
 20
24.2661433360194
 30
0.0
 10
-113.9395461448865
 20
24.27486230068077
 30
0.0
 10
-113.8195640798141
 20
24.30192876066151
 30
0.0
 10
-113.7347918047545
 20
24.33099983173859
 30
0.0
 10
-113.6538938520809
 20
24.3681890939299
 30
0.0
 10
-113.5770002498585
 20
24.41399216866957
 30
0.0
 10
-113.5047175205444
 20
24.46864463318532
 30
0.0
 10
-113.4360103905717
 20
24.52970520515629
 30
0.0
 10
-113.3742848117656
 20
24.59827239169976
 30
0.0
 10
-113.3189448186481
 20
24.67131031694558
 30
0.0
 10
-113.2725607222108
 20
24.74947232532399
 30
0.0
 10
-113.2346878077029
 20
24.83240257236363
 30
0.0
 10
-113.2034420427513
 20
24.9194851521114
 30
0.0
 10
-113.1731615120782
 20
25.04469844335966
 30
0.0
 10
-113.1642811656588
 20
25.14255470162119
 30
0.0
 10
-113.162492441189
 20
25.20880071262999
 30
0.0
  0
SPLINE
  5
79
330
1F
100
AcDbEntity
  8
0
  6
Continuous
 62
     7
370
    25
100
AcDbSpline
210
0.0
220
0.0
230
1.0
 70
     8
 71
     3
 72
    17
 73
    13
 74
     0
 42
0.00000001
 43
0.00000001
 40
0.0
 40
0.0
 40
0.0
 40
0.0
 40
0.2079350339033564
 40
0.2946939715678991
 40
0.3697315241424307
 40
0.440830943802725
 40
0.5142509140460771
 40
0.5913900390896499
 40
0.6722743046458497
 40
0.7543412603705406
 40
0.8361211059014766
 40
1.0
 40
1.0
 40
1.0
 40
1.0
 10
-115.0372921206762
 20
24.80495455878384
 30
0.0
 10
-114.9947673946732
 20
24.73840707488084
 30
0.0
 10
-114.9276516250033
 20
24.64877660942932
 30
0.0
 10
-114.8341538360025
 20
24.54395767780026
 30
0.0
 10
-114.7681019961689
 20
24.48493635266713
 30
0.0
 10
-114.6999803772806
 20
24.43672999489832
 30
0.0
 10
-114.6271014332954
 20
24.39457885283558
 30
0.0
 10
-114.5478555349647
 20
24.35647834035026
 30
0.0
 10
-114.4622847232131
 20
24.32489310966379
 30
0.0
 10
-114.3730239799497
 20
24.29903483287321
 30
0.0
 10
-114.2511756864775
 20
24.27351525084698
 30
0.0
 10
-114.1578794541032
 20
24.26619218957315
 30
0.0
 10
-114.0956855501634
 20
24.26649302032235
 30
0.0
  0
SPLINE
  5
81
330
1F
100
AcDbEntity
  8
0
  6
Continuous
 62
     7
370
    25
100
AcDbSpline
210
0.0
220
0.0
230
1.0
 70
     8
 71
     3
 72
    13
 73
     9
 74
     0
 42
0.00000001
 43
0.00000001
 40
0.0
 40
0.0
 40
0.0
 40
0.0
 40
0.2531294102724402
 40
0.3753070134590598
 40
0.4961956083998795
 40
0.6178660239074372
 40
0.7416676494858145
 40
1.0
 40
1.0
 40
1.0
 40
1.0
 10
-109.311931543753
 20
26.17845215493775
 30
0.0
 10
-109.2497730597624
 20
26.24638876008911
 30
0.0
 10
-109.1481577538221
 20
26.3391108851706
 30
0.0
 10
-108.9957937561679
 20
26.43665721617916
 30
0.0
 10
-108.8774141120384
 20
26.49738542907054
 30
0.0
 10
-108.7516181984452
 20
26.54259134126957
 30
0.0
 10
-108.5734930699907
 20
26.5872353124037
 30
0.0
 10
-108.43426689737
 20
26.60080099425322
 30
0.0
 10
-108.3401767360608
 20
26.59982635365565
 30
0.0
  0
SPLINE
  5
82
330
1F
100
AcDbEntity
  8
0
  6
Continuous
 62
     7
370
    25
100
AcDbSpline
210
0.0
220
0.0
230
1.0
 70
     8
 71
     3
 72
    13
 73
     9
 74
     0
 42
0.00000001
 43
0.00000001
 40
0.0
 40
0.0
 40
0.0
 40
0.0
 40
0.2554352550956477
 40
0.3786322712675498
 40
0.50146631433211
 40
0.6234943774777815
 40
0.7461656372032779
 40
1.0
 40
1.0
 40
1.0
 40
1.0
 10
-109.6624924411889
 20
25.269097186989
 30
0.0
 10
-109.6620180523949
 20
25.35403403357395
 30
0.0
 10
-109.6525342436699
 20
25.48027599650271
 30
0.0
 10
-109.6153422610891
 20
25.64321529622205
 30
0.0
 10
-109.5767000916395
 20
25.75959649764525
 30
0.0
 10
-109.5275960167964
 20
25.87181500362323
 30
0.0
 10
-109.4453566168084
 20
26.0161757943691
 30
0.0
 10
-109.3689625534889
 20
26.11611423456062
 30
0.0
 10
-109.311931543753
 20
26.17845215493775
 30
0.0
  0
SPLINE
  5
83
330
1F
100
AcDbEntity
  8
0
  6
Continuous
 62
     7
370
    25
100
AcDbSpline
210
0.0
220
0.0
230
1.0
 70
     8
 71
     3
 72
    21
 73
    17
 74
     0
 42
0.00000001
 43
0.00000001
 40
0.0
 40
0.0
 40
0.0
 40
0.0
 40
0.1341341587220424
 40
0.1979034644236247
 40
0.2604831025120542
 40
0.322145528691671
 40
0.3837784671889386
 40
0.446215423207863
 40
0.5103409574898141
 40
0.5743946950476086
 40
0.6362264024960824
 40
0.6971016460802506
 40
0.7568275569302938
 40
0.8167348601469018
 40
0.8766630214626719
 40
1.0
 40
1.0
 40
1.0
 40
1.0
 10
-108.3401767360608
 20
23.95239045621977
 30
0.0
 10
-108.4331267854473
 20
23.9527544217738
 30
0.0
 10
-108.5706540822651
 20
23.96343130598189
 30
0.0
 10
-108.7467092439654
 20
24.00528314505157
 30
0.0
 10
-108.8697752704327
 20
24.04895461753087
 30
0.0
 10
-108.9864190056518
 20
24.10440106453493
 30
0.0
 10
-109.0955729421069
 20
24.17321990883081
 30
0.0
 10
-109.1986890988675
 20
24.25354890963882
 30
0.0
 10
-109.2937410421564
 20
24.34571492238169
 30
0.0
 10
-109.3797447636656
 20
24.44571681527985
 30
0.0
 10
-109.4556173750645
 20
24.55086893275882
 30
0.0
 10
-109.5195044559155
 20
24.66027849229224
 30
0.0
 10
-109.5718757543703
 20
24.77416129456145
 30
0.0
 10
-109.6126584091684
 20
24.89202007878099
 30
0.0
 10
-109.6512899978986
 20
25.05640888243033
 30
0.0
 10
-109.6629993504617
 20
25.18352976702076
 30
0.0
 10
-109.6624924411889
 20
25.269097186989
 30
0.0
  0
SPLINE
  5
84
330
1F
100
AcDbEntity
  8
0
  6
Continuous
 62
     7
370
    25
100
AcDbSpline
210
0.0
220
0.0
230
1.0
 70
     8
 71
     3
 72
    21
 73
    17
 74
     0
 42
0.00000001
 43
0.00000001
 40
0.0
 40
0.0
 40
0.0
 40
0.0
 40
0.1231816483428002
 40
0.1830343363247268
 40
0.2428661924761439
 40
0.3025168847059427
 40
0.3633154622039138
 40
0.4250692989986412
 40
0.4890423674851742
 40
0.553087142275227
 40
0.6154454653923731
 40
0.6772864118409536
 40
0.739174987439565
 40
0.8016758129328341
 40
0.8653648077757379
 40
1.0
 40
1.0
 40
1.0
 40
1.0
 10
-107.0150565437531
 20
25.269097186989
 30
0.0
 10
-107.0145496363675
 20
25.18352976986193
 30
0.0
 10
-107.0262589833895
 20
25.05640887692906
 30
0.0
 10
-107.0648905810885
 20
24.89202008678271
 30
0.0
 10
-107.1056732106599
 20
24.77416126458465
 30
0.0
 10
-107.1580446037209
 20
24.66027860474229
 30
0.0
 10
-107.221931323204
 20
24.55086850118027
 30
0.0
 10
-107.2978053257501
 20
24.44571847803323
 30
0.0
 10
-107.3838036560273
 20
24.34570846879025
 30
0.0
 10
-107.4788757068337
 20
24.25357272733841
 30
0.0
 10
-107.5820756335136
 20
24.17301186313647
 30
0.0
 10
-107.6918620226373
 20
24.10440278384607
 30
0.0
 10
-107.8090072908798
 20
24.0490984737608
 30
0.0
 10
-107.9322342867291
 20
24.0052680218793
 30
0.0
 10
-108.1087527647347
 20
23.96330864149165
 30
0.0
 10
-108.2467711197258
 20
23.95281254881909
 30
0.0
 10
-108.3401767360608
 20
23.95239045621977
 30
0.0
  0
SPLINE
  5
85
330
1F
100
AcDbEntity
  8
0
  6
Continuous
 62
     7
370
    25
100
AcDbSpline
210
0.0
220
0.0
230
1.0
 70
     8
 71
     3
 72
    13
 73
     9
 74
     0
 42
0.00000001
 43
0.00000001
 40
0.0
 40
0.0
 40
0.0
 40
0.0
 40
0.253759205061608
 40
0.3772863205702288
 40
0.4989121128148896
 40
0.6213214040214744
 40
0.7447622750750944
 40
1.0
 40
1.0
 40
1.0
 40
1.0
 10
-107.3656174411891
 20
26.17634878955311
 30
0.0
 10
-107.3092041413036
 20
26.11383789135835
 30
0.0
 10
-107.2315056533624
 20
26.01472255511106
 30
0.0
 10
-107.1503503788328
 20
25.86996960816212
 30
0.0
 10
-107.1008020275979
 20
25.75823788300657
 30
0.0
 10
-107.0621113117701
 20
25.64230718674598
 30
0.0
 10
-107.0250984261457
 20
25.47979629818375
 30
0.0
 10
-107.0155508105027
 20
25.3538039843223
 30
0.0
 10
-107.0150565437531
 20
25.269097186989
 30
0.0
  0
SPLINE
  5
86
330
1F
100
AcDbEntity
  8
0
  6
Continuous
 62
     7
370
    25
100
AcDbSpline
210
0.0
220
0.0
230
1.0
 70
     8
 71
     3
 72
    13
 73
     9
 74
     0
 42
0.00000001
 43
0.00000001
 40
0.0
 40
0.0
 40
0.0
 40
0.0
 40
0.2587123826906848
 40
0.3820894432542115
 40
0.5035635736272535
 40
0.6251808674329538
 40
0.7472870144846054
 40
1.0
 40
1.0
 40
1.0
 40
1.0
 10
-108.3401767360608
 20
26.59982635365565
 30
0.0
 10
-108.2456094288372
 20
26.60068970937524
 30
0.0
 10
-108.1059834650742
 20
26.58720428799122
 30
0.0
 10
-107.9271348441629
 20
26.54285815905122
 30
0.0
 10
-107.801440163079
 20
26.49608650861502
 30
0.0
 10
-107.681758824946
 20
26.43655513401799
 30
0.0
 10
-107.5297565983078
 20
26.33703472165017
 30
0.0
 10
-107.4272361301172
 20
26.24519360723776
 30
0.0
 10
-107.3656174411891
 20
26.17634878955311
 30
0.0
  0
SPLINE
  5
88
330
1F
100
AcDbEntity
  8
0
  6
Continuous
 62
     7
370
    25
100
AcDbSpline
210
0.0
220
0.0
230
1.0
 70
     8
 71
     3
 72
    13
 73
     9
 74
     0
 42
0.00000001
 43
0.00000001
 40
0.0
 40
0.0
 40
0.0
 40
0.0
 40
0.2615297557643175
 40
0.3853914026565604
 40
0.5066355486143859
 40
0.6264935166891236
 40
0.7474155249378513
 40
1.0
 40
1.0
 40
1.0
 40
1.0
 10
-105.2825845886248
 20
26.28572378955307
 30
0.0
 10
-105.3761732885453
 20
26.28586468715788
 30
0.0
 10
-105.5144678017011
 20
26.27303357804855
 30
0.0
 10
-105.6898816000974
 20
26.22541767347874
 30
0.0
 10
-105.8112789722996
 20
26.17625489373276
 30
0.0
 10
-105.9245094609463
 20
26.11250219177097
 30
0.0
 10
-106.0666814558212
 20
26.00704623659766
 30
0.0
 10
-106.1593868889462
 20
25.90937834999874
 30
0.0
 10
-106.2136743322147
 20
25.83700584083515
 30
0.0
  0
SPLINE
  5
89
330
1F
100
AcDbEntity
  8
0
  6
Continuous
 62
     7
370
    25
100
AcDbSpline
210
0.0
220
0.0
230
1.0
 70
     8
 71
     3
 72
    21
 73
    17
 74
     0
 42
0.00000001
 43
0.00000001
 40
0.0
 40
0.0
 40
0.0
 40
0.0
 40
0.1222819204638085
 40
0.1812434869852987
 40
0.2396871197545077
 40
0.2984032755910574
 40
0.3580784908258444
 40
0.419261628082501
 40
0.4824580183676552
 40
0.5464498243205897
 40
0.6091832833298887
 40
0.6717521154871762
 40
0.7345384496150802
 40
0.7980307571346639
 40
0.8630790177387537
 40
1.0
 40
1.0
 40
1.0
 40
1.0
 10
-104.18813346683
 20
25.28311962288643
 30
0.0
 10
-104.1877948932093
 20
25.35068411986152
 30
0.0
 10
-104.1980027299412
 20
25.45059217164303
 30
0.0
 10
-104.2295027022311
 20
25.57936066819522
 30
0.0
 10
-104.2647363297616
 20
25.67013763124437
 30
0.0
 10
-104.3078534701947
 20
25.75788912812704
 30
0.0
 10
-104.3627873395492
 20
25.84060908810115
 30
0.0
 10
-104.425887104046
 20
25.92036275833309
 30
0.0
 10
-104.4987158765161
 20
25.99476145641355
 30
0.0
 10
-104.5783326702348
 20
26.06317190513408
 30
0.0
 10
-104.6647181892091
 20
26.12222229507488
 30
0.0
 10
-104.7553689411183
 20
26.1730307550837
 30
0.0
 10
-104.8510900012465
 20
26.2147859144568
 30
0.0
 10
-104.9521282635798
 20
26.24591833575906
 30
0.0
 10
-105.0952665379768
 20
26.27804612160611
 30
0.0
 10
-105.2071674715141
 20
26.28462564977241
 30
0.0
 10
-105.282584588625
 20
26.28572378955307
 30
0.0
  0
SPLINE
  5
8A
330
1F
100
AcDbEntity
  8
0
  6
Continuous
 62
     7
370
    25
100
AcDbSpline
210
0.0
220
0.0
230
1.0
 70
     8
 71
     3
 72
    17
 73
    13
 74
     0
 42
0.00000001
 43
0.00000001
 40
0.0
 40
0.0
 40
0.0
 40
0.0
 40
0.17847093099052
 40
0.263762432705972
 40
0.3486672266155145
 40
0.4321345263706822
 40
0.5134033636004061
 40
0.5949764167925377
 40
0.677471472370611
 40
0.75967863870542
 40
0.8400345230550291
 40
1.0
 40
1.0
 40
1.0
 40
1.0
 10
-105.2846879540095
 20
24.26649302032235
 30
0.0
 10
-105.1856118617692
 20
24.26687087299207
 30
0.0
 10
-105.0385292622314
 20
24.28141838344278
 30
0.0
 10
-104.8526078364274
 20
24.33786045620945
 30
0.0
 10
-104.7238525244574
 20
24.39606791123061
 30
0.0
 10
-104.6051199088787
 20
24.46855453761177
 30
0.0
 10
-104.499199623561
 20
24.55596693138962
 30
0.0
 10
-104.4070321534252
 20
24.65695124961809
 30
0.0
 10
-104.3285356445239
 20
24.76954557473199
 30
0.0
 10
-104.2665495254201
 20
24.89121217205359
 30
0.0
 10
-104.2057695829706
 20
25.06037678809303
 30
0.0
 10
-104.188377165295
 20
25.19425831466338
 30
0.0
 10
-104.18813346683
 20
25.28311962288643
 30
0.0
  0
SPLINE
  5
8B
330
1F
100
AcDbEntity
  8
0
  6
Continuous
 62
     7
370
    25
100
AcDbSpline
210
0.0
220
0.0
230
1.0
 70
     8
 71
     3
 72
    13
 73
     9
 74
     0
 42
0.00000001
 43
0.00000001
 40
0.0
 40
0.0
 40
0.0
 40
0.0
 40
0.2581434980421686
 40
0.3806278746633617
 40
0.501558221458012
 40
0.6227016552819187
 40
0.7445526879731841
 40
1.0
 40
1.0
 40
1.0
 40
1.0
 10
-106.2136743322147
 20
24.71521096904028
 30
0.0
 10
-106.1564399325395
 20
24.64308690870121
 30
0.0
 10
-106.0606681657126
 20
24.54582656748239
 30
0.0
 10
-105.9162207780467
 20
24.43982412190404
 30
0.0
 10
-105.8024873273456
 20
24.37624914952985
 30
0.0
 10
-105.6820895341957
 20
24.32715920946993
 30
0.0
 10
-105.5105807935324
 20
24.27923063819859
 30
0.0
 10
-105.3756956896284
 20
24.26654658972249
 30
0.0
 10
-105.2846879540095
 20
24.26649302032235
 30
0.0
  0
SPLINE
  5
8D
330
1F
100
AcDbEntity
  8
0
  6
Continuous
 62
     7
370
    25
100
AcDbSpline
210
0.0
220
0.0
230
1.0
 70
     8
 71
     3
 72
    21
 73
    17
 74
     0
 42
0.00000001
 43
0.00000001
 40
0.0
 40
0.0
 40
0.0
 40
0.0
 40
0.138173460029835
 40
0.2051712291583753
 40
0.2702347439553352
 40
0.334577614923188
 40
0.3974624848755721
 40
0.4600970095463408
 40
0.522258400268212
 40
0.5835266948828642
 40
0.6441442312570528
 40
0.7040680119241989
 40
0.7630433524477821
 40
0.8218034537843255
 40
0.8809311384949984
 40
1.0
 40
1.0
 40
1.0
 40
1.0
 10
-105.2797801014454
 20
23.95239045621977
 30
0.0
 10
-105.3439892695332
 20
23.95140393888007
 30
0.0
 10
-105.4391439587735
 20
23.95753160167891
 30
0.0
 10
-105.5637000509602
 20
23.9730044310571
 30
0.0
 10
-105.6533246656129
 20
23.99008639448286
 30
0.0
 10
-105.7400408541996
 20
24.01153128486888
 30
0.0
 10
-105.8240207175041
 20
24.03849942175373
 30
0.0
 10
-105.9053626876348
 20
24.06989111706981
 30
0.0
 10
-105.9837134132913
 20
24.1063972855996
 30
0.0
 10
-106.0589624814162
 20
24.14701024954924
 30
0.0
 10
-106.1303324185313
 20
24.19214485913967
 30
0.0
 10
-106.1986591358722
 20
24.23999718199688
 30
0.0
 10
-106.2617465115424
 20
24.29325246929959
 30
0.0
 10
-106.3217233914966
 20
24.34938100487805
 30
0.0
 10
-106.3967976489737
 20
24.42993776884672
 30
0.0
 10
-106.446252721113
 20
24.4965406995975
 30
0.0
 10
-106.4765950052916
 20
24.54273500750181
 30
0.0
  0
SPLINE
  5
8E
330
1F
100
AcDbEntity
  8
0
  6
Continuous
 62
     7
370
    25
100
AcDbSpline
210
0.0
220
0.0
230
1.0
 70
     8
 71
     3
 72
    21
 73
    17
 74
     0
 42
0.00000001
 43
0.00000001
 40
0.0
 40
0.0
 40
0.0
 40
0.0
 40
0.1230160125186728
 40
0.1821795987088894
 40
0.2413150145739386
 40
0.3002601565752412
 40
0.3598329711995818
 40
0.4210267535367634
 40
0.484330017115196
 40
0.548023509696945
 40
0.610608612559629
 40
0.6729950088427237
 40
0.7355500452204884
 40
0.7989042338824472
 40
0.8636647494423918
 40
1.0
 40
1.0
 40
1.0
 40
1.0
 10
-103.8740309027276
 20
25.25507475109157
 30
0.0
 10
-103.8737437177154
 20
25.16732814214018
 30
0.0
 10
-103.8863521288765
 20
25.03745009044034
 30
0.0
 10
-103.9277466038234
 20
24.87014144537192
 30
0.0
 10
-103.9723426786921
 20
24.75167580094173
 30
0.0
 10
-104.0284438294632
 20
24.63786634879106
 30
0.0
 10
-104.0982854003905
 20
24.53022527652959
 30
0.0
 10
-104.1788126191284
 20
24.42637538219772
 30
0.0
 10
-104.2725937773069
 20
24.33013466932344
 30
0.0
 10
-104.3747046395689
 20
24.24137216478406
 30
0.0
 10
-104.4847406320804
 20
24.16361940462519
 30
0.0
 10
-104.6016137746484
 20
24.09826608919008
 30
0.0
 10
-104.7249369366279
 20
24.04474779622367
 30
0.0
 10
-104.8545955646297
 20
24.00323554564776
 30
0.0
 10
-105.0391523520522
 20
23.96367288194801
 30
0.0
 10
-105.1825281054151
 20
23.9514062131847
 30
0.0
 10
-105.2797801014454
 20
23.95239045621977
 30
0.0
  0
SPLINE
  5
8F
330
1F
100
AcDbEntity
  8
0
  6
Continuous
 62
     7
370
    25
100
AcDbSpline
210
0.0
220
0.0
230
1.0
 70
     8
 71
     3
 72
    29
 73
    25
 74
     0
 42
0.00000001
 43
0.00000001
 40
0.0
 40
0.0
 40
0.0
 40
0.0
 40
0.090404969833753
 40
0.1340218577669683
 40
0.1771929296099348
 40
0.2199566394228992
 40
0.2622486054529787
 40
0.3045538809267219
 40
0.3467622647176367
 40
0.3886297618353274
 40
0.4301572713045012
 40
0.4709850348103288
 40
0.5113171489159216
 40
0.5518126259433965
 40
0.5924494048341331
 40
0.6331453339012545
 40
0.6745901892035351
 40
0.7158270637532164
 40
0.7564739168378305
 40
0.796993399422944
 40
0.8371691302448709
 40
0.8773639647740381
 40
0.9178644967855372
 40
1.0
 40
1.0
 40
1.0
 40
1.0
 10
-105.3057216078557
 20
26.59982635365565
 30
0.0
 10
-105.2396311275044
 20
26.60017293021821
 30
0.0
 10
-105.1418296573925
 20
26.59389070136475
 30
0.0
 10
-105.0134509102497
 20
26.57660906037718
 30
0.0
 10
-104.9209240602736
 20
26.55641790653607
 30
0.0
 10
-104.8303640947539
 20
26.53230205267798
 30
0.0
 10
-104.7423710182931
 20
26.50185130938887
 30
0.0
 10
-104.6568043605521
 20
26.4662175823539
 30
0.0
 10
-104.5741796458551
 20
26.42485827785712
 30
0.0
 10
-104.4949963241738
 20
26.37840722777862
 30
0.0
 10
-104.4193004722585
 20
26.32826624596085
 30
0.0
 10
-104.3482288966975
 20
26.2735081192278
 30
0.0
 10
-104.2821892425801
 20
26.21397192859276
 30
0.0
 10
-104.2193131315028
 20
26.15124816770354
 30
0.0
 10
-104.1622687917004
 20
26.08282840243825
 30
0.0
 10
-104.10838757193
 20
26.01107473712771
 30
0.0
 10
-104.0596987756893
 20
25.9351252000285
 30
0.0
 10
-104.0164470180985
 20
25.85602746158633
 30
0.0
 10
-103.9783509265396
 20
25.77508282121332
 30
0.0
 10
-103.9458779717016
 20
25.69249959985087
 30
0.0
 10
-103.9204278051138
 20
25.60789475400838
 30
0.0
 10
-103.8984376970671
 20
25.52228537472201
 30
0.0
 10
-103.8808431649008
 20
25.40451942402078
 30
0.0
 10
-103.873166338983
 20
25.31518578879643
 30
0.0
 10
-103.8740309027276
 20
25.25507475109157
 30
0.0
  0
SPLINE
  5
90
330
1F
100
AcDbEntity
  8
0
  6
Continuous
 62
     7
370
    25
100
AcDbSpline
210
0.0
220
0.0
230
1.0
 70
     8
 71
     3
 72
    17
 73
    13
 74
     0
 42
0.00000001
 43
0.00000001
 40
0.0
 40
0.0
 40
0.0
 40
0.0
 40
0.1585634493071236
 40
0.2345871230995769
 40
0.3098023857351391
 40
0.3863975462586797
 40
0.4660235260292677
 40
0.5499336515748812
 40
0.6379505414946577
 40
0.7280903454728209
 40
0.8179185954471937
 40
1.0
 40
1.0
 40
1.0
 40
1.0
 10
-106.4765950052916
 20
26.00036721904031
 30
0.0
 10
-106.4399265167587
 20
26.06321973935999
 30
0.0
 10
-106.3766075696733
 20
26.15089787906633
 30
0.0
 10
-106.2775572898938
 20
26.25310929780633
 30
0.0
 10
-106.1974127284525
 20
26.32049071177867
 30
0.0
 10
-106.1094755631685
 20
26.38020504467231
 30
0.0
 10
-106.0136381806829
 20
26.43480193755998
 30
0.0
 10
-105.9081018964039
 20
26.48181136192662
 30
0.0
 10
-105.795355818388
 20
26.5236864283076
 30
0.0
 10
-105.6772078344315
 20
26.55821579513251
 30
0.0
 10
-105.5139368536718
 20
26.58963568378347
 30
0.0
 10
-105.3893120526198
 20
26.60008724121454
 30
0.0
 10
-105.3057216078557
 20
26.59982635365565
 30
0.0
  0
SPLINE
  5
9F
330
1F
100
AcDbEntity
  8
0
  6
Continuous
 62
     7
370
    25
100
AcDbSpline
210
0.0
220
0.0
230
1.0
 70
     8
 71
     3
 72
    13
 73
     9
 74
     0
 42
0.00000001
 43
0.00000001
 40
0.0
 40
0.0
 40
0.0
 40
0.0
 40
0.2400308571377218
 40
0.358466229448932
 40
0.4774453209952157
 40
0.5993158399412291
 40
0.7260041087814084
 40
1.0
 40
1.0
 40
1.0
 40
1.0
 10
-99.3279571847785
 20
26.59982635365565
 30
0.0
 10
-99.23599770353952
 20
26.59963643707574
 30
0.0
 10
-99.0983284286615
 20
26.58396156845899
 30
0.0
 10
-98.92355036238531
 20
26.52811803063537
 30
0.0
 10
-98.79848988247709
 20
26.46983288866367
 30
0.0
 10
-98.6781685692667
 20
26.39591085866466
 30
0.0
 10
-98.52264034058756
 20
26.26910386935122
 30
0.0
 10
-98.41796463613916
 20
26.15587810179487
 30
0.0
 10
-98.35480013349651
 20
26.07188164211716
 30
0.0
  0
SPLINE
  5
A0
330
1F
100
AcDbEntity
  8
0
  6
Continuous
 62
     7
370
    25
100
AcDbSpline
210
0.0
220
0.0
230
1.0
 70
     8
 71
     3
 72
    21
 73
    17
 74
     0
 42
0.00000001
 43
0.00000001
 40
0.0
 40
0.0
 40
0.0
 40
0.0
 40
0.1320868071566502
 40
0.1910205789197735
 40
0.2459198571309305
 40
0.2962240139419539
 40
0.3419519744814824
 40
0.3840881902327469
 40
0.4221361532591236
 40
0.4933035691477091
 40
0.5632059149933246
 40
0.6330801426458124
 40
0.7045027750804227
 40
0.7765463620490213
 40
0.8488450927364056
 40
1.0
 40
1.0
 40
1.0
 40
1.0
 10
-100.2842873129837
 20
25.30345215493768
 30
0.0
 10
-100.28506626126
 20
25.38437088119605
 30
0.0
 10
-100.2812711253299
 20
25.5014009017116
 30
0.0
 10
-100.2695418910585
 20
25.65158526557298
 30
0.0
 10
-100.2590943716171
 20
25.75163041291994
 30
0.0
 10
-100.2433908483745
 20
25.84279515018806
 30
0.0
 10
-100.2253725326432
 20
25.92551706469037
 30
0.0
 10
-100.2041205010884
 20
25.99975356878748
 30
0.0
 10
-100.1705471473027
 20
26.08629235870874
 30
0.0
 10
-100.1189480281047
 20
26.1835483624937
 30
0.0
 10
-100.0431071416451
 20
26.28882329279436
 30
0.0
 10
-99.9502577318352
 20
26.37965104612516
 30
0.0
 10
-99.84543167240601
 20
26.45833828038668
 30
0.0
 10
-99.72877098795641
 20
26.52145077605128
 30
0.0
 10
-99.55821582245039
 20
26.58421877324357
 30
0.0
 10
-99.4203292113327
 20
26.59921105645235
 30
0.0
 10
-99.3279571847785
 20
26.59982635365565
 30
0.0
  0
SPLINE
  5
A4
330
1F
100
AcDbEntity
  8
0
  6
Continuous
 62
     7
370
    25
100
AcDbSpline
210
0.0
220
0.0
230
1.0
 70
     8
 71
     3
 72
    13
 73
     9
 74
     0
 42
0.00000001
 43
0.00000001
 40
0.0
 40
0.0
 40
0.0
 40
0.0
 40
0.1585319958921504
 40
0.2599443765617137
 40
0.3766878967200872
 40
0.5101290088794592
 40
0.6578586927299863
 40
1.0
 40
1.0
 40
1.0
 40
1.0
 10
-99.93372641554765
 20
25.78231834083511
 30
0.0
 10
-99.94082802053083
 20
25.75226542869824
 30
0.0
 10
-99.94915062222687
 20
25.70229127522372
 30
0.0
 10
-99.95681933525003
 20
25.62933732177331
 30
0.0
 10
-99.96140488000572
 20
25.56103200876592
 30
0.0
 10
-99.96574029364469
 20
25.48368170896986
 30
0.0
 10
-99.96950283786121
 20
25.36237562454968
 30
0.0
 10
-99.96973386960761
 20
25.26699367776619
 30
0.0
 10
-99.97018474888108
 20
25.20038725109153
 30
0.0
  0
SPLINE
  5
A5
330
1F
100
AcDbEntity
  8
0
  6
Continuous
 62
     7
370
    25
100
AcDbSpline
210
0.0
220
0.0
230
1.0
 70
     8
 71
     3
 72
    13
 73
     9
 74
     0
 42
0.00000001
 43
0.00000001
 40
0.0
 40
0.0
 40
0.0
 40
0.0
 40
0.270112514225164
 40
0.3901337884828764
 40
0.505620967409038
 40
0.6203623248390202
 40
0.738045949888832
 40
1.0
 40
1.0
 40
1.0
 40
1.0
 10
-99.27256856298372
 20
26.28572378955307
 30
0.0
 10
-99.35419729609363
 20
26.28609171644802
 30
0.0
 10
-99.47317212664831
 20
26.27306153696873
 30
0.0
 10
-99.61712684069745
 20
26.21866034523446
 30
0.0
 10
-99.70769339288043
 20
26.16229693120808
 30
0.0
 10
-99.78549753341926
 20
26.09036438749013
 30
0.0
 10
-99.8737530033369
 20
25.96838813412106
 30
0.0
 10
-99.91433184472808
 20
25.85897812641391
 30
0.0
 10
-99.93372641554777
 20
25.78231834083511
 30
0.0
  0
SPLINE
  5
A6
330
1F
100
AcDbEntity
  8
0
  6
Continuous
 62
     7
370
    25
100
AcDbSpline
210
0.0
220
0.0
230
1.0
 70
     8
 71
     3
 72
    21
 73
    17
 74
     0
 42
0.00000001
 43
0.00000001
 40
0.0
 40
0.0
 40
0.0
 40
0.0
 40
0.123948641444604
 40
0.1848794463674045
 40
0.2457324543780592
 40
0.3072279099154341
 40
0.3694240859125656
 40
0.4322545608767663
 40
0.4973426740208349
 40
0.5621498377432252
 40
0.6257573975847244
 40
0.6874835206248429
 40
0.7496373680564405
 40
0.8109156052807317
 40
0.8733061227972947
 40
1.0
 40
1.0
 40
1.0
 40
1.0
 10
-98.40317753734263
 20
25.60844013570696
 30
0.0
 10
-98.41576683766506
 20
25.65569698706815
 30
0.0
 10
-98.44019139428384
 20
25.72472916748691
 30
0.0
 10
-98.4837129196512
 20
25.81146125546907
 30
0.0
 10
-98.52086868416798
 20
25.87359885326068
 30
0.0
 10
-98.56394338250118
 20
25.93239739470798
 30
0.0
 10
-98.61148005943954
 20
25.98867279002093
 30
0.0
 10
-98.66480762989649
 20
26.04151961853252
 30
0.0
 10
-98.72212503755995
 20
26.09158944635393
 30
0.0
 10
-98.78371088535154
 20
26.13681507296639
 30
0.0
 10
-98.8471050966503
 20
26.17712380891968
 30
0.0
 10
-98.91343338324265
 20
26.21005226501827
 30
0.0
 10
-98.98081673154124
 20
26.23850424076357
 30
0.0
 10
-99.05121834863317
 20
26.25938489135737
 30
0.0
 10
-99.14786225464256
 20
26.28026288647578
 30
0.0
 10
-99.2225920821509
 20
26.2859656081974
 30
0.0
 10
-99.27256856298372
 20
26.28572378955307
 30
0.0
  0
SPLINE
  5
A7
330
1F
100
AcDbEntity
  8
0
  6
Continuous
 62
     7
370
    25
100
AcDbSpline
210
0.0
220
0.0
230
1.0
 70
     8
 71
     3
 72
    13
 73
     9
 74
     0
 42
0.00000001
 43
0.00000001
 40
0.0
 40
0.0
 40
0.0
 40
0.0
 40
0.3346064446861071
 40
0.4811733415280316
 40
0.6125520246270326
 40
0.7309549727522777
 40
0.8343886544275745
 40
1.0
 40
1.0
 40
1.0
 40
1.0
 10
-98.35480013349651
 20
24.92204189852743
 30
0.0
 10
-98.35524822207553
 20
24.99891969336543
 30
0.0
 10
-98.35512001245993
 20
25.109556953957
 30
0.0
 10
-98.36162954145044
 20
25.25018565006454
 30
0.0
 10
-98.36594614555538
 20
25.34117855631724
 30
0.0
 10
-98.37302214480125
 20
25.42206312926587
 30
0.0
 10
-98.38328775224781
 20
25.51051907564894
 30
0.0
 10
-98.39382323510281
 20
25.57151680180436
 30
0.0
 10
-98.40317753734263
 20
25.60844013570696
 30
0.0
  0
SPLINE
  5
AD
330
1F
100
AcDbEntity
  8
0
  6
Continuous
 62
     7
370
    25
100
AcDbSpline
210
0.0
220
0.0
230
1.0
 70
     8
 71
     3
 72
    13
 73
     9
 74
     0
 42
0.00000001
 43
0.00000001
 40
0.0
 40
0.0
 40
0.0
 40
0.0
 40
0.2138863655718647
 40
0.3246827750473095
 40
0.439458544744861
 40
0.561633485869794
 40
0.6938876172598769
 40
1.0
 40
1.0
 40
1.0
 40
1.0
 10
-93.14546519759904
 20
26.59982635365565
 30
0.0
 10
-93.0893848048292
 20
26.59943733708325
 30
0.0
 10
-93.0038262099352
 20
26.58759068659189
 30
0.0
 10
-92.89625291758085
 20
26.54491347785493
 30
0.0
 10
-92.81587188697371
 20
26.5011531385555
 30
0.0
 10
-92.7382360240242
 20
26.44262485919013
 30
0.0
 10
-92.6324391306027
 20
26.33993379819955
 30
0.0
 10
-92.56448692826969
 20
26.24616611365072
 30
0.0
 10
-92.52146680016315
 20
26.17845215493775
 30
0.0
  0
SPLINE
  5
AE
330
1F
100
AcDbEntity
  8
0
  6
Continuous
 62
     7
370
    25
100
AcDbSpline
210
0.0
220
0.0
230
1.0
 70
     8
 71
     3
 72
     9
 73
     5
 74
     0
 42
0.00000001
 43
0.00000001
 40
0.0
 40
0.0
 40
0.0
 40
0.0
 40
0.5364768048236987
 40
1.0
 40
1.0
 40
1.0
 40
1.0
 10
-93.41890269759901
 20
26.51218612929673
 30
0.0
 10
-93.37456159253965
 20
26.53904602007295
 30
0.0
 10
-93.28690848082377
 20
26.58258393155233
 30
0.0
 10
-93.19044165051903
 20
26.59947693276843
 30
0.0
 10
-93.14546519759904
 20
26.59982635365565
 30
0.0
  0
SPLINE
  5
B0
330
1F
100
AcDbEntity
  8
0
  6
Continuous
 62
     7
370
    25
100
AcDbSpline
210
0.0
220
0.0
230
1.0
 70
     8
 71
     3
 72
     9
 73
     5
 74
     0
 42
0.00000001
 43
0.00000001
 40
0.0
 40
0.0
 40
0.0
 40
0.0
 40
0.4397700551121884
 40
1.0
 40
1.0
 40
1.0
 40
1.0
 10
-93.08586984503486
 20
26.28572378955307
 30
0.0
 10
-93.11055388485978
 20
26.28540140084901
 30
0.0
 10
-93.16634104006982
 20
26.27607684536526
 30
0.0
 10
-93.21781369828841
 20
26.25282120674677
 30
0.0
 10
-93.24642673606054
 20
26.24015087288645
 30
0.0
  0
SPLINE
  5
B1
330
1F
100
AcDbEntity
  8
0
  6
Continuous
 62
     7
370
    25
100
AcDbSpline
210
0.0
220
0.0
230
1.0
 70
     8
 71
     3
 72
    17
 73
    13
 74
     0
 42
0.00000001
 43
0.00000001
 40
0.0
 40
0.0
 40
0.0
 40
0.0
 40
0.1717166158284539
 40
0.2506679767741051
 40
0.3258823275093822
 40
0.396881271696415
 40
0.4635748406535746
 40
0.5280697489487671
 40
0.5896876632767214
 40
0.7048093833748892
 40
0.8086618718637332
 40
1.0
 40
1.0
 40
1.0
 40
1.0
 10
-92.57755654375288
 20
25.73464205878384
 30
0.0
 10
-92.58947969111186
 20
25.77911347298922
 30
0.0
 10
-92.60900107845448
 20
25.8435913527898
 30
0.0
 10
-92.64185251827894
 20
25.92464619795742
 30
0.0
 10
-92.66751145084307
 20
25.97937764328096
 30
0.0
 10
-92.69568349006796
 20
26.02910671873804
 30
0.0
 10
-92.72516576676904
 20
26.07468623730469
 30
0.0
 10
-92.75730619356071
 20
26.1153318249362
 30
0.0
 10
-92.80234800250386
 20
26.16189235784849
 30
0.0
 10
-92.86052245760146
 20
26.21007731676428
 30
0.0
 10
-92.9554655696223
 20
26.26691263004199
 30
0.0
 10
-93.0343448201456
 20
26.28579031242639
 30
0.0
 10
-93.08586984503486
 20
26.28572378955307
 30
0.0
  0
SPLINE
  5
B2
330
1F
100
AcDbEntity
  8
0
  6
Continuous
 62
     7
370
    25
100
AcDbSpline
210
0.0
220
0.0
230
1.0
 70
     8
 71
     3
 72
    13
 73
     9
 74
     0
 42
0.00000001
 43
0.00000001
 40
0.0
 40
0.0
 40
0.0
 40
0.0
 40
0.343762191421775
 40
0.4918338323010911
 40
0.6241090704107948
 40
0.7413996050399048
 40
0.8430618504426423
 40
1.0
 40
1.0
 40
1.0
 40
1.0
 10
-92.52146680016315
 20
24.85683757160439
 30
0.0
 10
-92.5209203429851
 20
24.95781823306364
 30
0.0
 10
-92.52314341439494
 20
25.10226484317368
 30
0.0
 10
-92.52841769328401
 20
25.2855204205944
 30
0.0
 10
-92.53497084442674
 20
25.40213615643727
 30
0.0
 10
-92.54211901065202
 20
25.5050727804611
 30
0.0
 10
-92.55434277082352
 20
25.61481216274164
 30
0.0
 10
-92.56580672453785
 20
25.68998422522895
 30
0.0
 10
-92.57755654375288
 20
25.73464205878384
 30
0.0
  0
SPLINE
  5
B6
330
1F
100
AcDbEntity
  8
0
  6
Continuous
 62
     7
370
    25
100
AcDbSpline
210
0.0
220
0.0
230
1.0
 70
     8
 71
     3
 72
    13
 73
     9
 74
     0
 42
0.00000001
 43
0.00000001
 40
0.0
 40
0.0
 40
0.0
 40
0.0
 40
0.2407702368354425
 40
0.3613679915788172
 40
0.4880203848743234
 40
0.6156588752209213
 40
0.7417159076830835
 40
1.0
 40
1.0
 40
1.0
 40
1.0
 10
-94.13685141554784
 20
27.36124462288647
 30
0.0
 10
-94.13705257036287
 20
27.39690205219258
 30
0.0
 10
-94.12568560887391
 20
27.45020255060404
 30
0.0
 10
-94.08968183099819
 20
27.51331009896307
 30
0.0
 10
-94.05147982887063
 20
27.55386966393214
 30
0.0
 10
-94.00689166323505
 20
27.58831438326481
 30
0.0
 10
-93.93918168003945
 20
27.62310544428126
 30
0.0
 10
-93.88178073992248
 20
27.63180340380356
 30
0.0
 10
-93.84378250529146
 20
27.63187763570696
 30
0.0
  0
SPLINE
  5
B7
330
1F
100
AcDbEntity
  8
0
  6
Continuous
 62
     7
370
    25
100
AcDbSpline
210
0.0
220
0.0
230
1.0
 70
     8
 71
     3
 72
    13
 73
     9
 74
     0
 42
0.00000001
 43
0.00000001
 40
0.0
 40
0.0
 40
0.0
 40
0.0
 40
0.2598496298712539
 40
0.3866707319148509
 40
0.5150828775346947
 40
0.6425029490726826
 40
0.7624536797230972
 40
1.0
 40
1.0
 40
1.0
 40
1.0
 10
-93.84378250529146
 20
27.09341609724536
 30
0.0
 10
-93.88177843325663
 20
27.09349173653586
 30
0.0
 10
-93.93918609476482
 20
27.1021855950746
 30
0.0
 10
-94.00688518867395
 20
27.13698330007031
 30
0.0
 10
-94.051504376507
 20
27.17140909154747
 30
0.0
 10
-94.08945368275113
 20
27.21188948629338
 30
0.0
 10
-94.12561311863887
 20
27.27384120645637
 30
0.0
 10
-94.1369257103345
 20
27.32630441508843
 30
0.0
 10
-94.13685141554784
 20
27.36124462288647
 30
0.0
  0
SPLINE
  5
B8
330
1F
100
AcDbEntity
  8
0
  6
Continuous
 62
     7
370
    25
100
AcDbSpline
210
0.0
220
0.0
230
1.0
 70
     8
 71
     3
 72
    13
 73
     9
 74
     0
 42
0.00000001
 43
0.00000001
 40
0.0
 40
0.0
 40
0.0
 40
0.0
 40
0.2389149952220574
 40
0.3595568481745961
 40
0.486634766847336
 40
0.6157867870573872
 40
0.7433385965465394
 40
1.0
 40
1.0
 40
1.0
 40
1.0
 10
-93.55351808221445
 20
27.36124462288647
 30
0.0
 10
-93.55348423027144
 20
27.32634095903419
 30
0.0
 10
-93.56467649956069
 20
27.27376902769329
 30
0.0
 10
-93.60095947426117
 20
27.21213776139741
 30
0.0
 10
-93.63814069305076
 20
27.17118247918637
 30
0.0
 10
-93.68281689270752
 20
27.13699658851343
 30
0.0
 10
-93.74987459510686
 20
27.10259600604781
 30
0.0
 10
-93.80638225390214
 20
27.09318091146473
 30
0.0
 10
-93.84378250529146
 20
27.09341609724536
 30
0.0
  0
SPLINE
  5
B9
330
1F
100
AcDbEntity
  8
0
  6
Continuous
 62
     7
370
    25
100
AcDbSpline
210
0.0
220
0.0
230
1.0
 70
     8
 71
     3
 72
    13
 73
     9
 74
     0
 42
0.00000001
 43
0.00000001
 40
0.0
 40
0.0
 40
0.0
 40
0.0
 40
0.2551062187428466
 40
0.3818851554071034
 40
0.5102546066587019
 40
0.6365625239462811
 40
0.757850918666084
 40
1.0
 40
1.0
 40
1.0
 40
1.0
 10
-93.84378250529146
 20
27.63187763570696
 30
0.0
 10
-93.80637996451813
 20
27.63211422401768
 30
0.0
 10
-93.74987897618092
 20
27.62269504295689
 30
0.0
 10
-93.68281035727799
 20
27.58830114819477
 30
0.0
 10
-93.63816536529856
 20
27.55409613897453
 30
0.0
 10
-93.60073383268397
 20
27.51305982589769
 30
0.0
 10
-93.56460209786721
 20
27.45027652103471
 30
0.0
 10
-93.55335891825844
 20
27.39686407636266
 30
0.0
 10
-93.55351808221445
 20
27.36124462288647
 30
0.0
  0
SPLINE
  5
C0
330
1F
100
AcDbEntity
  8
0
  6
Continuous
 62
     7
370
    25
100
AcDbSpline
210
0.0
220
0.0
230
1.0
 70
     8
 71
     3
 72
    13
 73
     9
 74
     0
 42
0.00000001
 43
0.00000001
 40
0.0
 40
0.0
 40
0.0
 40
0.0
 40
0.1866292870175729
 40
0.2945713141932591
 40
0.4141358504252437
 40
0.5437091760633385
 40
0.6845112872870858
 40
1.0
 40
1.0
 40
1.0
 40
1.0
 10
-97.22949965272731
 20
23.7406516741685
 30
0.0
 10
-97.24670371721888
 20
23.78698574708748
 30
0.0
 10
-97.26707261552303
 20
23.86235817096327
 30
0.0
 10
-97.28748205873305
 20
23.97003084378313
 30
0.0
 10
-97.30076546779354
 20
24.06360106512806
 30
0.0
 10
-97.3099617615818
 20
24.16636646858916
 30
0.0
 10
-97.32123691243189
 20
24.32096322975397
 30
0.0
 10
-97.32229813199001
 20
24.44178043992262
 30
0.0
 10
-97.32274885144521
 20
24.52520696263005
 30
0.0
  0
SPLINE
  5
C1
330
1F
100
AcDbEntity
  8
0
  6
Continuous
 62
     7
370
    25
100
AcDbSpline
210
0.0
220
0.0
230
1.0
 70
     8
 71
     3
 72
    21
 73
    17
 74
     0
 42
0.00000001
 43
0.00000001
 40
0.0
 40
0.0
 40
0.0
 40
0.0
 40
0.1422523156655646
 40
0.2099881497744529
 40
0.2757225035155134
 40
0.3399801664532361
 40
0.4030123350377491
 40
0.4648788109197396
 40
0.5259132174468232
 40
0.5864629334053052
 40
0.6457817731791722
 40
0.7040615317506596
 40
0.7623933125602418
 40
0.8205763349999998
 40
0.8790935319822246
 40
1.0
 40
1.0
 40
1.0
 40
1.0
 10
-96.02637465272723
 20
23.01008276391203
 30
0.0
 10
-96.09784295228185
 20
23.00956303993584
 30
0.0
 10
-96.20322631572431
 20
23.01591774417588
 30
0.0
 10
-96.34043735858167
 20
23.03521741590031
 30
0.0
 10
-96.43736802316427
 20
23.05692569088047
 30
0.0
 10
-96.5310708028132
 20
23.08201532253129
 30
0.0
 10
-96.62007727309174
 20
23.11550038767907
 30
0.0
 10
-96.70522335663645
 20
23.15394742229826
 30
0.0
 10
-96.78602903203426
 20
23.19833434014451
 30
0.0
 10
-96.86244759617047
 20
23.24761972357891
 30
0.0
 10
-96.93271832361772
 20
23.30320368675964
 30
0.0
 10
-96.99679785742966
 20
23.36412840387825
 30
0.0
 10
-97.0559459442808
 20
23.42910065420545
 30
0.0
 10
-97.10872552053695
 20
23.49954803635212
 30
0.0
 10
-97.17119768830196
 20
23.60135145613429
 30
0.0
 10
-97.20882378788498
 20
23.68355088858065
 30
0.0
 10
-97.2294996527272
 20
23.7406516741685
 30
0.0
  0
SPLINE
  5
C2
330
1F
100
AcDbEntity
  8
0
  6
Continuous
 62
     7
370
    25
100
AcDbSpline
210
0.0
220
0.0
230
1.0
 70
     8
 71
     3
 72
    17
 73
    13
 74
     0
 42
0.00000001
 43
0.00000001
 40
0.0
 40
0.0
 40
0.0
 40
0.0
 40
0.1851190300005647
 40
0.2645811997972994
 40
0.3370826656472006
 40
0.4072903364309919
 40
0.4798344790013993
 40
0.5565632454345624
 40
0.6378634378285744
 40
0.7231600850411801
 40
0.8115263250076773
 40
1.0
 40
1.0
 40
1.0
 40
1.0
 10
-94.72018474888111
 20
23.81777507160443
 30
0.0
 10
-94.76182757142149
 20
23.72542908690578
 30
0.0
 10
-94.82861193631243
 20
23.59607852706569
 30
0.0
 10
-94.9361652463957
 20
23.44565496370887
 30
0.0
 10
-95.01748444963832
 20
23.35468310556765
 30
0.0
 10
-95.10761379522125
 20
23.27818477272714
 30
0.0
 10
-95.20758331345559
 20
23.21099406315008
 30
0.0
 10
-95.31970772618948
 20
23.15240264343266
 30
0.0
 10
-95.44297735262408
 20
23.10135193541085
 30
0.0
 10
-95.57655320079783
 20
23.05970122699641
 30
0.0
 10
-95.77153573072283
 20
23.02184346738845
 30
0.0
 10
-95.92300160883782
 20
23.008726210064
 30
0.0
 10
-96.02637465272723
 20
23.01008276391203
 30
0.0
  0
SPLINE
  5
C4
330
1F
100
AcDbEntity
  8
0
  6
Continuous
 62
     7
370
    25
100
AcDbSpline
210
0.0
220
0.0
230
1.0
 70
     8
 71
     3
 72
    13
 73
     9
 74
     0
 42
0.00000001
 43
0.00000001
 40
0.0
 40
0.0
 40
0.0
 40
0.0
 40
0.2806498296156444
 40
0.4064749021880454
 40
0.5248880003415868
 40
0.6399384659355514
 40
0.7561946260844707
 40
1.0
 40
1.0
 40
1.0
 40
1.0
 10
-95.99622641554772
 20
23.32418532801461
 30
0.0
 10
-95.88992772045424
 20
23.3246859103724
 30
0.0
 10
-95.73490846948718
 20
23.33612888831416
 30
0.0
 10
-95.54219486090687
 20
23.38841116040802
 30
0.0
 10
-95.41595549184001
 20
23.44107456618449
 30
0.0
 10
-95.30253867197158
 20
23.51103172953461
 30
0.0
 10
-95.16498337410917
 20
23.62846939152685
 30
0.0
 10
-95.08037433492188
 20
23.73745119214232
 30
0.0
 10
-95.0342873129837
 20
23.81777507160443
 30
0.0
  0
SPLINE
  5
C5
330
1F
100
AcDbEntity
  8
0
  6
Continuous
 62
     7
370
    25
100
AcDbSpline
210
0.0
220
0.0
230
1.0
 70
     8
 71
     3
 72
    21
 73
    17
 74
     0
 42
0.00000001
 43
0.00000001
 40
0.0
 40
0.0
 40
0.0
 40
0.0
 40
0.1174221339297199
 40
0.169591212750871
 40
0.217418771921551
 40
0.2613894626110322
 40
0.301234438368378
 40
0.3372893048871241
 40
0.3702791365716956
 40
0.4333923729623902
 40
0.4989139546142353
 40
0.5690795379570391
 40
0.6449768287182742
 40
0.7255369439819339
 40
0.8107355643124252
 40
1.0
 40
1.0
 40
1.0
 40
1.0
 10
-97.00864628734263
 20
24.35483436647623
 30
0.0
 10
-97.0091466416938
 20
24.28933231039587
 30
0.0
 10
-97.00578516572523
 20
24.19477191205388
 30
0.0
 10
-96.99571113022421
 20
24.07389702328855
 30
0.0
 10
-96.98435324628873
 20
23.99437522783798
 30
0.0
 10
-96.97057034528144
 20
23.92223952448536
 30
0.0
 10
-96.95409708598713
 20
23.85738663812542
 30
0.0
 10
-96.93382468662148
 20
23.80003404764175
 30
0.0
 10
-96.90199011365941
 20
23.73340990118755
 30
0.0
 10
-96.85077713641765
 20
23.65862821386988
 30
0.0
 10
-96.7746324195009
 20
23.57744669295525
 30
0.0
 10
-96.68062062324756
 20
23.50544874633487
 30
0.0
 10
-96.57156403395383
 20
23.44098947499518
 30
0.0
 10
-96.44700719455257
 20
23.38841736653485
 30
0.0
 10
-96.2554209663684
 20
23.33627848771314
 30
0.0
 10
-96.10160713774107
 20
23.32473696732162
 30
0.0
 10
-95.99622641554772
 20
23.32418532801461
 30
0.0
  0
SPLINE
  5
C7
330
1F
100
AcDbEntity
  8
0
  6
Continuous
 62
     7
370
    25
100
AcDbSpline
210
0.0
220
0.0
230
1.0
 70
     8
 71
     3
 72
    13
 73
     9
 74
     0
 42
0.00000001
 43
0.00000001
 40
0.0
 40
0.0
 40
0.0
 40
0.0
 40
0.250960525261263
 40
0.3750364685671047
 40
0.5001735764065118
 40
0.6252807346849159
 40
0.7491047381120475
 40
1.0
 40
1.0
 40
1.0
 40
1.0
 10
-95.98641071041958
 20
23.99726225109156
 30
0.0
 10
-96.08469423657495
 20
23.99657130141464
 30
0.0
 10
-96.23140797283824
 20
24.01297210828224
 30
0.0
 10
-96.42032449091698
 20
24.06549845321848
 30
0.0
 10
-96.55612615979182
 20
24.12109943025131
 30
0.0
 10
-96.68516195593213
 20
24.19077240289713
 30
0.0
 10
-96.84503668502519
 20
24.30425859275731
 30
0.0
 10
-96.94772207406555
 20
24.41043970027568
 30
0.0
 10
-97.00864628734263
 20
24.48734638570693
 30
0.0
  0
SPLINE
  5
C8
330
1F
100
AcDbEntity
  8
0
  6
Continuous
 62
     7
370
    25
100
AcDbSpline
210
0.0
220
0.0
230
1.0
 70
     8
 71
     3
 72
    29
 73
    25
 74
     0
 42
0.00000001
 43
0.00000001
 40
0.0
 40
0.0
 40
0.0
 40
0.0
 40
0.0845064169705322
 40
0.1258093929577505
 40
0.1665539821145551
 40
0.2073273925164838
 40
0.2480041713647784
 40
0.2889644255439112
 40
0.3300535353972229
 40
0.371325213702449
 40
0.4123241671068169
 40
0.4529604945383676
 40
0.4936877811581306
 40
0.5349338346045258
 40
0.5764184378567152
 40
0.6185367522828167
 40
0.6614467063693947
 40
0.7043717148999564
 40
0.7470373222728484
 40
0.7891179669002614
 40
0.830974687391398
 40
0.872797715856262
 40
0.9147777424327409
 40
1.0
 40
1.0
 40
1.0
 40
1.0
 10
-94.67531295400933
 20
25.28452186647623
 30
0.0
 10
-94.67582831127741
 20
25.22693691029898
 30
0.0
 10
-94.68008154094687
 20
25.14102030407017
 30
0.0
 10
-94.69829305537836
 20
25.02883302104697
 30
0.0
 10
-94.71643054829082
 20
24.94702198159537
 30
0.0
 10
-94.74019958345036
 20
24.86707472435912
 30
0.0
 10
-94.77000801553747
 20
24.78904282197858
 30
0.0
 10
-94.80429264977718
 20
24.71266471249789
 30
0.0
 10
-94.84335012938949
 20
24.63810379247489
 30
0.0
 10
-94.88838353766671
 20
24.56697683392584
 30
0.0
 10
-94.93724087966714
 20
24.4988100928385
 30
0.0
 10
-94.99092474906634
 20
24.43484653978234
 30
0.0
 10
-95.04854742015067
 20
24.37419300685806
 30
0.0
 10
-95.11088390971301
 20
24.31749606774314
 30
0.0
 10
-95.17785244871824
 20
24.2648377769068
 30
0.0
 10
-95.24881563407305
 20
24.21569889610209
 30
0.0
 10
-95.32340176399667
 20
24.17033655148037
 30
0.0
 10
-95.40104826488405
 20
24.12956388925791
 30
0.0
 10
-95.4809817802782
 20
24.09494824948622
 30
0.0
 10
-95.56174941341855
 20
24.06433342537417
 30
0.0
 10
-95.64400487466341
 20
24.03983461226034
 30
0.0
 10
-95.72761314460342
 20
24.02077960699034
 30
0.0
 10
-95.84159796559067
 20
24.0032313320252
 30
0.0
 10
-95.92825655035087
 20
23.99699781088938
 30
0.0
 10
-95.98641071041958
 20
23.99726225109156
 30
0.0
  0
SPLINE
  5
C9
330
1F
100
AcDbEntity
  8
0
  6
Continuous
 62
     7
370
    25
100
AcDbSpline
210
0.0
220
0.0
230
1.0
 70
     8
 71
     3
 72
    29
 73
    25
 74
     0
 42
0.00000001
 43
0.00000001
 40
0.0
 40
0.0
 40
0.0
 40
0.0
 40
0.0825538112938382
 40
0.1237716557752935
 40
0.1647842927049806
 40
0.2059352431561775
 40
0.247532881430119
 40
0.2896774566944796
 40
0.3325671990789676
 40
0.3754502498739956
 40
0.4177511508046504
 40
0.4594466384465544
 40
0.5009268295327522
 40
0.5423904130415018
 40
0.5837750195437776
 40
0.625524157846061
 40
0.6678304857959078
 40
0.7101218877672049
 40
0.7515092679437496
 40
0.7927897271292774
 40
0.8338415302968548
 40
0.8749310655513706
 40
0.9160945669137637
 40
1.0
 40
1.0
 40
1.0
 40
1.0
 10
-95.99622641554772
 20
26.59982635365565
 30
0.0
 10
-95.93929167889858
 20
26.59976114343565
 30
0.0
 10
-95.85383615395027
 20
26.59439339966973
 30
0.0
 10
-95.7417318823991
 20
26.57529917585777
 30
0.0
 10
-95.65855234807663
 20
26.55688527492295
 30
0.0
 10
-95.5771797063325
 20
26.53085644875375
 30
0.0
 10
-95.49618149911909
 20
26.50132388567494
 30
0.0
 10
-95.4170676737256
 20
26.46411086331268
 30
0.0
 10
-95.3387902872883
 20
26.42332873324571
 30
0.0
 10
-95.26333803673725
 20
26.37721736478882
 30
0.0
 10
-95.19187515662408
 20
26.32660334677039
 30
0.0
 10
-95.12418016429235
 20
26.27257837971764
 30
0.0
 10
-95.0609203470708
 20
26.21423688708191
 30
0.0
 10
-95.0021284321686
 20
26.15172046503855
 30
0.0
 10
-94.94708655521688
 20
26.08563229323369
 30
0.0
 10
-94.89655408458574
 20
26.01530564701571
 30
0.0
 10
-94.85046995339941
 20
25.94125803322889
 30
0.0
 10
-94.80946034684612
 20
25.8645794975314
 30
0.0
 10
-94.77324106493712
 20
25.78629900394635
 30
0.0
 10
-94.74311942532232
 20
25.70635849012104
 30
0.0
 10
-94.71878972791758
 20
25.62473395147191
 30
0.0
 10
-94.69860874569459
 20
25.54202701413821
 30
0.0
 10
-94.68138181127573
 20
25.42860836599414
 30
0.0
 10
-94.67504046778741
 20
25.34245460051088
 30
0.0
 10
-94.67531295400933
 20
25.28452186647623
 30
0.0
  0
SPLINE
  5
CA
330
1F
100
AcDbEntity
  8
0
  6
Continuous
 62
     7
370
    25
100
AcDbSpline
210
0.0
220
0.0
230
1.0
 70
     8
 71
     3
 72
    13
 73
     9
 74
     0
 42
0.00000001
 43
0.00000001
 40
0.0
 40
0.0
 40
0.0
 40
0.0
 40
0.2836710951636385
 40
0.4108559012071413
 40
0.5296406005497847
 40
0.6452451409151079
 40
0.7612377713612324
 40
1.0
 40
1.0
 40
1.0
 40
1.0
 10
-97.00864628734263
 20
26.10763885365564
 30
0.0
 10
-96.93704822150862
 20
26.1912940487542
 30
0.0
 10
-96.8261682465067
 20
26.30807680545511
 30
0.0
 10
-96.65763633406344
 20
26.42767498003074
 30
0.0
 10
-96.53276445147773
 20
26.49325379794199
 30
0.0
 10
-96.4048609446857
 20
26.54121482471616
 30
0.0
 10
-96.22726504606915
 20
26.58658269808012
 30
0.0
 10
-96.0891069965798
 20
26.59967396311613
 30
0.0
 10
-95.99622641554772
 20
26.59982635365565
 30
0.0
  0
SPLINE
  5
CD
330
1F
100
AcDbEntity
  8
0
  6
Continuous
 62
     7
370
    25
100
AcDbSpline
210
0.0
220
0.0
230
1.0
 70
     8
 71
     3
 72
    17
 73
    13
 74
     0
 42
0.00000001
 43
0.00000001
 40
0.0
 40
0.0
 40
0.0
 40
0.0
 40
0.1781058515637827
 40
0.2613277635121511
 40
0.3415565694705521
 40
0.4200079090126525
 40
0.4980968161626226
 40
0.5754001382821239
 40
0.6536452159657116
 40
0.7341257729573898
 40
0.8183392339289949
 40
1.0
 40
1.0
 40
1.0
 40
1.0
 10
-89.00674324247082
 20
23.95239045621977
 30
0.0
 10
-89.09303703422854
 20
23.95240161639423
 30
0.0
 10
-89.21991351599878
 20
23.96105583742592
 30
0.0
 10
-89.38229678857456
 20
23.99438153555322
 30
0.0
 10
-89.49459543811655
 20
24.02875977033048
 30
0.0
 10
-89.60044525454325
 20
24.07352046202793
 30
0.0
 10
-89.70073457005878
 20
24.12663654405367
 30
0.0
 10
-89.79546515707015
 20
24.18897606102888
 30
0.0
 10
-89.88514276309867
 20
24.26022301050401
 30
0.0
 10
-89.97021575584053
 20
24.34196942868572
 30
0.0
 10
-90.07716163994839
 20
24.47173158340654
 30
0.0
 10
-90.14663263070877
 20
24.58072746912954
 30
0.0
 10
-90.18813346682974
 20
24.65842010365571
 30
0.0
  0
SPLINE
  5
CE
330
1F
100
AcDbEntity
  8
0
  6
Continuous
 62
     7
370
    25
100
AcDbSpline
210
0.0
220
0.0
230
1.0
 70
     8
 71
     3
 72
    21
 73
    17
 74
     0
 42
0.00000001
 43
0.00000001
 40
0.0
 40
0.0
 40
0.0
 40
0.0
 40
0.1210804245006118
 40
0.1800682782218559
 40
0.2391896643238556
 40
0.2987059533012314
 40
0.3588810785072301
 40
0.4203687292950606
 40
0.4834483096802261
 40
0.5465664849029384
 40
0.6086986022254206
 40
0.670186253013248
 40
0.7318650366033053
 40
0.7952033026033165
 40
0.8603707753071415
 40
1.0
 40
1.0
 40
1.0
 40
1.0
 10
-87.72018474888111
 20
25.269097186989
 30
0.0
 10
-87.7210994761184
 20
25.18607454663901
 30
0.0
 10
-87.72987910041763
 20
25.06222273965108
 30
0.0
 10
-87.76596038469064
 20
24.90177559542161
 30
0.0
 10
-87.80433578160441
 20
24.78591321993751
 30
0.0
 10
-87.8518963614513
 20
24.6726422862259
 30
0.0
 10
-87.9103516201507
 20
24.56267917002542
 30
0.0
 10
-87.98027803933817
 20
24.45672326874593
 30
0.0
 10
-88.05952175835297
 20
24.35504126577326
 30
0.0
 10
-88.14754600387698
 20
24.26002502245051
 30
0.0
 10
-88.24636554868381
 20
24.17789202679021
 30
0.0
 10
-88.3528662933799
 20
24.10793527834099
 30
0.0
 10
-88.46760897188277
 20
24.05049765125278
 30
0.0
 10
-88.5908190241066
 20
24.00657197746614
 30
0.0
 10
-88.77005086713807
 20
23.96342562216258
 30
0.0
 10
-88.9109725624766
 20
23.95242933912123
 30
0.0
 10
-89.00674324247082
 20
23.95239045621977
 30
0.0
  0
SPLINE
  5
CF
330
1F
100
AcDbEntity
  8
0
  6
Continuous
 62
     7
370
    25
100
AcDbSpline
210
0.0
220
0.0
230
1.0
 70
     8
 71
     3
 72
    13
 73
     9
 74
     0
 42
0.00000001
 43
0.00000001
 40
0.0
 40
0.0
 40
0.0
 40
0.0
 40
0.2534216680665266
 40
0.3767041167575432
 40
0.4994491585174913
 40
0.6225715734186964
 40
0.7462320999755214
 40
1.0
 40
1.0
 40
1.0
 40
1.0
 10
-88.01465590272728
 20
26.12306353314287
 30
0.0
 10
-87.96710464023249
 20
26.06157170931755
 30
0.0
 10
-87.9019408075039
 20
25.96550243803708
 30
0.0
 10
-87.83376803114751
 20
25.82799140180547
 30
0.0
 10
-87.79218892942664
 20
25.72245115208749
 30
0.0
 10
-87.7600414966997
 20
25.61356346027199
 30
0.0
 10
-87.72841411714228
 20
25.46301974931275
 30
0.0
 10
-87.72113803708625
 20
25.3468908891481
 30
0.0
 10
-87.72018474888111
 20
25.269097186989
 30
0.0
  0
SPLINE
  5
D0
330
1F
100
AcDbEntity
  8
0
  6
Continuous
 62
     7
370
    25
100
AcDbSpline
210
0.0
220
0.0
230
1.0
 70
     8
 71
     3
 72
    13
 73
     9
 74
     0
 42
0.00000001
 43
0.00000001
 40
0.0
 40
0.0
 40
0.0
 40
0.0
 40
0.2602406645595056
 40
0.3836752253642184
 40
0.5046599577622765
 40
0.6253567426858504
 40
0.7464106650135791
 40
1.0
 40
1.0
 40
1.0
 40
1.0
 10
-89.01445558221444
 20
26.59982635365565
 30
0.0
 10
-88.91499937109815
 20
26.59862777346922
 30
0.0
 10
-88.76712357412175
 20
26.58759892260998
 30
0.0
 10
-88.58057754815118
 20
26.53510451972163
 30
0.0
 10
-88.45023611342751
 20
26.48347199000545
 30
0.0
 10
-88.32865909039577
 20
26.41543244464073
 30
0.0
 10
-88.17399693841665
 20
26.30466991766556
 30
0.0
 10
-88.07522896301023
 20
26.19878808229559
 30
0.0
 10
-88.01465590272728
 20
26.12306353314287
 30
0.0
  0
SPLINE
  5
D1
330
1F
100
AcDbEntity
  8
0
  6
Continuous
 62
     7
370
    25
100
AcDbSpline
210
0.0
220
0.0
230
1.0
 70
     8
 71
     3
 72
    13
 73
     9
 74
     0
 42
0.00000001
 43
0.00000001
 40
0.0
 40
0.0
 40
0.0
 40
0.0
 40
0.255257368140996
 40
0.3772478104725325
 40
0.4977415562850415
 40
0.6181201760750441
 40
0.7409671592206359
 40
1.0
 40
1.0
 40
1.0
 40
1.0
 10
-90.04440349888121
 20
26.09642090493769
 30
0.0
 10
-89.98301635518757
 20
26.17708101753691
 30
0.0
 10
-89.87957344104969
 20
26.2867207079589
 30
0.0
 10
-89.72129826525732
 20
26.40579149326017
 30
0.0
 10
-89.59562875368165
 20
26.47700323996782
 30
0.0
 10
-89.46178440817498
 20
26.53208887145719
 30
0.0
 10
-89.26919134502253
 20
26.58537812161654
 30
0.0
 10
-89.11728308429478
 20
26.60025832723722
 30
0.0
 10
-89.01445558221444
 20
26.59982635365565
 30
0.0
  0
SPLINE
  5
D2
330
1F
100
AcDbEntity
  8
0
  6
Continuous
 62
     7
370
    25
100
AcDbSpline
210
0.0
220
0.0
230
1.0
 70
     8
 71
     3
 72
    13
 73
     9
 74
     0
 42
0.00000001
 43
0.00000001
 40
0.0
 40
0.0
 40
0.0
 40
0.0
 40
0.2703816178319617
 40
0.3984601291783004
 40
0.5227503451014437
 40
0.6438255660090793
 40
0.7637452368382556
 40
1.0
 40
1.0
 40
1.0
 40
1.0
 10
-90.3227488514452
 20
25.20880071262999
 30
0.0
 10
-90.32115938679087
 20
25.29406035411341
 30
0.0
 10
-90.31379835328902
 20
25.42004269347253
 30
0.0
 10
-90.28319686986386
 20
25.58239881192248
 30
0.0
 10
-90.25218673680368
 20
25.69622516255754
 30
0.0
 10
-90.21380995913431
 20
25.80510689635052
 30
0.0
 10
-90.15019919114032
 20
25.94189291824123
 30
0.0
 10
-90.09029015075387
 20
26.03753208158843
 30
0.0
 10
-90.0444034988811
 20
26.09642090493769
 30
0.0
  0
SPLINE
  5
D4
330
1F
100
AcDbEntity
  8
0
  6
Continuous
 62
     7
370
    25
100
AcDbSpline
210
0.0
220
0.0
230
1.0
 70
     8
 71
     3
 72
    21
 73
    17
 74
     0
 42
0.00000001
 43
0.00000001
 40
0.0
 40
0.0
 40
0.0
 40
0.0
 40
0.1276691474530424
 40
0.1889505232706536
 40
0.2490548673082992
 40
0.3090713134763196
 40
0.3692223593686933
 40
0.4301747620269846
 40
0.4926019887960209
 40
0.555346876893578
 40
0.6169627615204942
 40
0.678170777192346
 40
0.73924652255152
 40
0.8016089422160485
 40
0.8655244124565523
 40
1.0
 40
1.0
 40
1.0
 40
1.0
 10
-88.96748042195802
 20
24.26649302032235
 30
0.0
 10
-88.90446926757379
 20
24.26614333601929
 30
0.0
 10
-88.81134101668131
 20
24.27486230068077
 30
0.0
 10
-88.69135895160873
 20
24.30192876066151
 30
0.0
 10
-88.60658667654909
 20
24.33099983173859
 30
0.0
 10
-88.52568872387556
 20
24.3681890939299
 30
0.0
 10
-88.44879512165316
 20
24.41399216866957
 30
0.0
 10
-88.37651239233912
 20
24.46864463318532
 30
0.0
 10
-88.30780526236637
 20
24.52970520515629
 30
0.0
 10
-88.24607968356035
 20
24.59827239169976
 30
0.0
 10
-88.19073969044267
 20
24.67131031694558
 30
0.0
 10
-88.14435559400546
 20
24.74947232532399
 30
0.0
 10
-88.10648267949739
 20
24.83240257236363
 30
0.0
 10
-88.07523691454611
 20
24.9194851521114
 30
0.0
 10
-88.04495638387289
 20
25.04469844335966
 30
0.0
 10
-88.03607603745323
 20
25.14255470162119
 30
0.0
 10
-88.03428731298368
 20
25.20880071262999
 30
0.0
  0
SPLINE
  5
D5
330
1F
100
AcDbEntity
  8
0
  6
Continuous
 62
     7
370
    25
100
AcDbSpline
210
0.0
220
0.0
230
1.0
 70
     8
 71
     3
 72
    17
 73
    13
 74
     0
 42
0.00000001
 43
0.00000001
 40
0.0
 40
0.0
 40
0.0
 40
0.0
 40
0.2079350339033564
 40
0.2946939715678991
 40
0.3697315241424307
 40
0.440830943802725
 40
0.5142509140460771
 40
0.5913900390896499
 40
0.6722743046458497
 40
0.7543412603705406
 40
0.8361211059014766
 40
1.0
 40
1.0
 40
1.0
 40
1.0
 10
-89.9090869924708
 20
24.80495455878384
 30
0.0
 10
-89.86656226646805
 20
24.73840707488084
 30
0.0
 10
-89.79944649679783
 20
24.64877660942932
 30
0.0
 10
-89.70594870779713
 20
24.54395767780026
 30
0.0
 10
-89.63989686796359
 20
24.48493635266713
 30
0.0
 10
-89.57177524907533
 20
24.43672999489832
 30
0.0
 10
-89.49889630509
 20
24.39457885283558
 30
0.0
 10
-89.41965040675926
 20
24.35647834035026
 30
0.0
 10
-89.33407959500784
 20
24.32489310966379
 30
0.0
 10
-89.24481885174428
 20
24.29903483287321
 30
0.0
 10
-89.12297055827212
 20
24.27351525084698
 30
0.0
 10
-89.02967432589782
 20
24.26619218957315
 30
0.0
 10
-88.96748042195802
 20
24.26649302032235
 30
0.0
  0
SPLINE
  5
D9
330
1F
100
AcDbEntity
  8
0
  6
Continuous
 62
     7
370
    25
100
AcDbSpline
210
0.0
220
0.0
230
1.0
 70
     8
 71
     3
 72
    13
 73
     9
 74
     0
 42
0.00000001
 43
0.00000001
 40
0.0
 40
0.0
 40
0.0
 40
0.0
 40
0.2518550583969853
 40
0.3726997642744652
 40
0.4928354033771648
 40
0.6137300878654817
 40
0.7379150246176973
 40
1.0
 40
1.0
 40
1.0
 40
1.0
 10
-85.73320558221454
 20
23.95239045621977
 30
0.0
 10
-85.83344176170237
 20
23.95158310576873
 30
0.0
 10
-85.98185461856545
 20
23.96632065798976
 30
0.0
 10
-86.17190747419889
 20
24.01574026370956
 30
0.0
 10
-86.30683468093781
 20
24.06686415169379
 30
0.0
 10
-86.43550095987729
 20
24.13505526503168
 30
0.0
 10
-86.6021285503662
 20
24.24968943247008
 30
0.0
 10
-86.7106395013204
 20
24.36021890662066
 30
0.0
 10
-86.77787705657347
 20
24.43967010365566
 30
0.0
  0
SPLINE
  5
DA
330
1F
100
AcDbEntity
  8
0
  6
Continuous
 62
     7
370
    25
100
AcDbSpline
210
0.0
220
0.0
230
1.0
 70
     8
 71
     3
 72
    21
 73
    17
 74
     0
 42
0.00000001
 43
0.00000001
 40
0.0
 40
0.0
 40
0.0
 40
0.0
 40
0.1280988297755863
 40
0.1896694721890465
 40
0.2507063934632511
 40
0.311890666438603
 40
0.3732647830705283
 40
0.4358087922280679
 40
0.500424455805957
 40
0.5650608900029817
 40
0.6276710388631751
 40
0.6893315462593366
 40
0.7500699293139468
 40
0.8109958734420368
 40
0.8725665158555028
 40
1.0
 40
1.0
 40
1.0
 40
1.0
 10
-84.39967192836839
 20
25.28311962288643
 30
0.0
 10
-84.39987992063047
 20
25.19361326685798
 30
0.0
 10
-84.41138685456583
 20
25.06091761134965
 30
0.0
 10
-84.45206343061051
 20
24.89021043046058
 30
0.0
 10
-84.49501647571867
 20
24.76889616059841
 30
0.0
 10
-84.55084815706981
 20
24.65316283372343
 30
0.0
 10
-84.61759810523561
 20
24.54212057248872
 30
0.0
 10
-84.69766023899572
 20
24.43717502942622
 30
0.0
 10
-84.78889200090234
 20
24.33877998108724
 30
0.0
 10
-84.88796359961603
 20
24.24819219254881
 30
0.0
 10
-84.9938362921695
 20
24.16895049582757
 30
0.0
 10
-85.10489633049157
 20
24.10241239820598
 30
0.0
 10
-85.22056870496841
 20
24.04682001100566
 30
0.0
 10
-85.3418424158574
 20
24.00496243606698
 30
0.0
 10
-85.51190905973726
 20
23.96410296397833
 30
0.0
 10
-85.64417617058263
 20
23.95260855588732
 30
0.0
 10
-85.73320558221454
 20
23.95239045621977
 30
0.0
  0
SPLINE
  5
DB
330
1F
100
AcDbEntity
  8
0
  6
Continuous
 62
     7
370
    25
100
AcDbSpline
210
0.0
220
0.0
230
1.0
 70
     8
 71
     3
 72
    21
 73
    17
 74
     0
 42
0.00000001
 43
0.00000001
 40
0.0
 40
0.0
 40
0.0
 40
0.0
 40
0.1283692574311769
 40
0.190417708860092
 40
0.2519211667422389
 40
0.3132736507580476
 40
0.3750861342515197
 40
0.438389176770406
 40
0.5032092055629105
 40
0.5679667722557898
 40
0.630868101539027
 40
0.6919966438355534
 40
0.7524260650823844
 40
0.8130959072527861
 40
0.8739211900104884
 40
1.0
 40
1.0
 40
1.0
 40
1.0
 10
-85.74302128734269
 20
26.59982635365565
 30
0.0
 10
-85.65360805505185
 20
26.59902873199682
 30
0.0
 10
-85.52058393411788
 20
26.58888532815462
 30
0.0
 10
-85.34937129984543
 20
26.5482058437303
 30
0.0
 10
-85.22780571968813
 20
26.50483157923444
 30
0.0
 10
-85.1105423032411
 20
26.45116880480791
 30
0.0
 10
-84.99931912821313
 20
26.38345447543134
 30
0.0
 10
-84.89241038221607
 20
26.30504473459194
 30
0.0
 10
-84.79247556145741
 20
26.21482431010547
 30
0.0
 10
-84.70022337114158
 20
26.11715304114304
 30
0.0
 10
-84.62020346018329
 20
26.01238362307534
 30
0.0
 10
-84.55227820121314
 20
25.90297971670319
 30
0.0
 10
-84.49642585488792
 20
25.78863921890328
 30
0.0
 10
-84.45291688780176
 20
25.66928395375456
 30
0.0
 10
-84.41092105679249
 20
25.50155193741899
 30
0.0
 10
-84.40018958189965
 20
25.3709373867208
 30
0.0
 10
-84.39967192836839
 20
25.28311962288643
 30
0.0
  0
SPLINE
  5
DC
330
1F
100
AcDbEntity
  8
0
  6
Continuous
 62
     7
370
    25
100
AcDbSpline
210
0.0
220
0.0
230
1.0
 70
     8
 71
     3
 72
    13
 73
     9
 74
     0
 42
0.00000001
 43
0.00000001
 40
0.0
 40
0.0
 40
0.0
 40
0.0
 40
0.261488929626658
 40
0.3852472367599549
 40
0.5058984871003219
 40
0.6257895628173398
 40
0.7470150281421295
 40
1.0
 40
1.0
 40
1.0
 40
1.0
 10
-86.77787705657347
 20
26.05996257160437
 30
0.0
 10
-86.71454312105098
 20
26.14449965471621
 30
0.0
 10
-86.61253442363348
 20
26.26441278894131
 30
0.0
 10
-86.45028407832899
 20
26.39040505475288
 30
0.0
 10
-86.32391903318548
 20
26.46723791755235
 30
0.0
 10
-86.18942091344972
 20
26.52626969252914
 30
0.0
 10
-85.99758235354838
 20
26.58494855842708
 30
0.0
 10
-85.84533925816051
 20
26.59957844226046
 30
0.0
 10
-85.74302128734269
 20
26.59982635365565
 30
0.0
  0
SPLINE
  5
E3
330
1F
100
AcDbEntity
  8
0
  6
Continuous
 62
     7
370
    25
100
AcDbSpline
210
0.0
220
0.0
230
1.0
 70
     8
 71
     3
 72
    13
 73
     9
 74
     0
 42
0.00000001
 43
0.00000001
 40
0.0
 40
0.0
 40
0.0
 40
0.0
 40
0.2407702368354425
 40
0.3613679915788172
 40
0.4880203848743234
 40
0.6156588752209213
 40
0.7417159076830835
 40
1.0
 40
1.0
 40
1.0
 40
1.0
 10
-83.8612103899069
 20
27.36124462288647
 30
0.0
 10
-83.86141154472193
 20
27.39690205219258
 30
0.0
 10
-83.85004458323297
 20
27.45020255060404
 30
0.0
 10
-83.81404080535727
 20
27.51331009896307
 30
0.0
 10
-83.7758388032297
 20
27.55386966393214
 30
0.0
 10
-83.73125063759413
 20
27.58831438326481
 30
0.0
 10
-83.6635406543984
 20
27.62310544428126
 30
0.0
 10
-83.60613971428165
 20
27.63180340380356
 30
0.0
 10
-83.56814147965052
 20
27.63187763570696
 30
0.0
  0
SPLINE
  5
E4
330
1F
100
AcDbEntity
  8
0
  6
Continuous
 62
     7
370
    25
100
AcDbSpline
210
0.0
220
0.0
230
1.0
 70
     8
 71
     3
 72
    13
 73
     9
 74
     0
 42
0.00000001
 43
0.00000001
 40
0.0
 40
0.0
 40
0.0
 40
0.0
 40
0.2598496298712539
 40
0.3866707319148509
 40
0.5150828775346947
 40
0.6425029490726826
 40
0.7624536797230972
 40
1.0
 40
1.0
 40
1.0
 40
1.0
 10
-83.56814147965052
 20
27.09341609724536
 30
0.0
 10
-83.6061374076158
 20
27.09349173653586
 30
0.0
 10
-83.66354506912377
 20
27.1021855950746
 30
0.0
 10
-83.73124416303313
 20
27.13698330007031
 30
0.0
 10
-83.77586335086595
 20
27.17140909154747
 30
0.0
 10
-83.81381265711019
 20
27.21188948629338
 30
0.0
 10
-83.84997209299783
 20
27.27384120645637
 30
0.0
 10
-83.86128468469379
 20
27.32630441508843
 30
0.0
 10
-83.8612103899069
 20
27.36124462288647
 30
0.0
  0
SPLINE
  5
E5
330
1F
100
AcDbEntity
  8
0
  6
Continuous
 62
     7
370
    25
100
AcDbSpline
210
0.0
220
0.0
230
1.0
 70
     8
 71
     3
 72
    13
 73
     9
 74
     0
 42
0.00000001
 43
0.00000001
 40
0.0
 40
0.0
 40
0.0
 40
0.0
 40
0.2389149952220574
 40
0.3595568481745961
 40
0.486634766847336
 40
0.6157867870573872
 40
0.7433385965465394
 40
1.0
 40
1.0
 40
1.0
 40
1.0
 10
-83.27787705657353
 20
27.36124462288647
 30
0.0
 10
-83.27784320463039
 20
27.32634095903419
 30
0.0
 10
-83.28903547391985
 20
27.27376902769329
 30
0.0
 10
-83.32531844862024
 20
27.21213776139741
 30
0.0
 10
-83.36249966740982
 20
27.17118247918637
 30
0.0
 10
-83.40717586706647
 20
27.13699658851343
 30
0.0
 10
-83.47423356946604
 20
27.10259600604781
 30
0.0
 10
-83.53074122826109
 20
27.09318091146473
 30
0.0
 10
-83.56814147965052
 20
27.09341609724536
 30
0.0
  0
SPLINE
  5
E6
330
1F
100
AcDbEntity
  8
0
  6
Continuous
 62
     7
370
    25
100
AcDbSpline
210
0.0
220
0.0
230
1.0
 70
     8
 71
     3
 72
    13
 73
     9
 74
     0
 42
0.00000001
 43
0.00000001
 40
0.0
 40
0.0
 40
0.0
 40
0.0
 40
0.2551062187428466
 40
0.3818851554071034
 40
0.5102546066587019
 40
0.6365625239462811
 40
0.757850918666084
 40
1.0
 40
1.0
 40
1.0
 40
1.0
 10
-83.56814147965052
 20
27.63187763570696
 30
0.0
 10
-83.53073893887696
 20
27.63211422401768
 30
0.0
 10
-83.4742379505401
 20
27.62269504295678
 30
0.0
 10
-83.40716933163694
 20
27.58830114819477
 30
0.0
 10
-83.36252433965751
 20
27.55409613897453
 30
0.0
 10
-83.32509280704303
 20
27.51305982589769
 30
0.0
 10
-83.28896107222639
 20
27.45027652103471
 30
0.0
 10
-83.2777178926174
 20
27.39686407636255
 30
0.0
 10
-83.27787705657353
 20
27.36124462288647
 30
0.0
  0
SPLINE
  5
E8
330
1F
100
AcDbEntity
  8
0
  6
Continuous
 62
     7
370
    25
100
AcDbSpline
210
0.0
220
0.0
230
1.0
 70
     8
 71
     3
 72
    13
 73
     9
 74
     0
 42
0.00000001
 43
0.00000001
 40
0.0
 40
0.0
 40
0.0
 40
0.0
 40
0.2066658703703788
 40
0.3164748855849829
 40
0.4340367728953333
 40
0.5586910361120339
 40
0.6949644946417399
 40
1.0
 40
1.0
 40
1.0
 40
1.0
 10
-82.12943955657359
 20
26.28572378955307
 30
0.0
 10
-82.16625443027326
 20
26.28569102374068
 30
0.0
 10
-82.22247494200818
 20
26.27658292133284
 30
0.0
 10
-82.29453785003815
 20
26.24833729444043
 30
0.0
 10
-82.34999927035457
 20
26.21893274393561
 30
0.0
 10
-82.40503789395103
 20
26.17996092505926
 30
0.0
 10
-82.48285996885917
 20
26.11596627446322
 30
0.0
 10
-82.53632896650277
 20
26.05802204673635
 30
0.0
 10
-82.57114628734286
 20
26.01649302032239
 30
0.0
  0
SPLINE
  5
E9
330
1F
100
AcDbEntity
  8
0
  6
Continuous
 62
     7
370
    25
100
AcDbSpline
210
0.0
220
0.0
230
1.0
 70
     8
 71
     3
 72
    13
 73
     9
 74
     0
 42
0.00000001
 43
0.00000001
 40
0.0
 40
0.0
 40
0.0
 40
0.0
 40
0.248971671148973
 40
0.3714961336333736
 40
0.5014891588227018
 40
0.6308339704139223
 40
0.754099371393653
 40
1.0
 40
1.0
 40
1.0
 40
1.0
 10
-81.7971078258044
 20
25.9414729882711
 30
0.0
 10
-81.79723131798922
 20
25.98541764041873
 30
0.0
 10
-81.80906373293206
 20
26.05142266039284
 30
0.0
 10
-81.85075129836206
 20
26.13027652012001
 30
0.0
 10
-81.8931884030868
 20
26.18305706408275
 30
0.0
 10
-81.94336071036945
 20
26.2289590123207
 30
0.0
 10
-82.02068335850588
 20
26.27252553062431
 30
0.0
 10
-82.0857897786783
 20
26.28661853273329
 30
0.0
 10
-82.12943955657359
 20
26.28572378955307
 30
0.0
  0
SPLINE
  5
EA
330
1F
100
AcDbEntity
  8
0
  6
Continuous
 62
     7
370
    25
100
AcDbSpline
210
0.0
220
0.0
230
1.0
 70
     8
 71
     3
 72
     9
 73
     5
 74
     0
 42
0.00000001
 43
0.00000001
 40
0.0
 40
0.0
 40
0.0
 40
0.0
 40
0.5205968063940213
 40
1.0
 40
1.0
 40
1.0
 40
1.0
 10
-81.88404692836848
 20
25.70940167416846
 30
0.0
 10
-81.85735673950789
 20
25.74393072612313
 30
0.0
 10
-81.81286948546452
 20
25.81696361477515
 30
0.0
 10
-81.79718334164832
 20
25.90110745512353
 30
0.0
 10
-81.7971078258044
 20
25.9414729882711
 30
0.0
  0
SPLINE
  5
EB
330
1F
100
AcDbEntity
  8
0
  6
Continuous
 62
     7
370
    25
100
AcDbSpline
210
0.0
220
0.0
230
1.0
 70
     8
 71
     3
 72
    13
 73
     9
 74
     0
 42
0.00000001
 43
0.00000001
 40
0.0
 40
0.0
 40
0.0
 40
0.0
 40
0.3238790058012839
 40
0.4664315196199199
 40
0.5977832531928436
 40
0.716017640049548
 40
0.8224401785340064
 40
1.0
 40
1.0
 40
1.0
 40
1.0
 10
-82.24933138349667
 20
25.44577987929675
 30
0.0
 10
-82.20590929596983
 20
25.46839101078735
 30
0.0
 10
-82.14571674893068
 20
25.50497841806432
 30
0.0
 10
-82.06887003097995
 20
25.55238964564644
 30
0.0
 10
-82.020101718559
 20
25.58599954874818
 30
0.0
 10
-81.97681516930034
 20
25.61796846140007
 30
0.0
 10
-81.93123848612859
 20
25.65815216512335
 30
0.0
 10
-81.90002943852903
 20
25.68768718560388
 30
0.0
 10
-81.88404692836848
 20
25.70940167416846
 30
0.0
  0
SPLINE
  5
EC
330
1F
100
AcDbEntity
  8
0
  6
Continuous
 62
     7
370
    25
100
AcDbSpline
210
0.0
220
0.0
230
1.0
 70
     8
 71
     3
 72
    13
 73
     9
 74
     0
 42
0.00000001
 43
0.00000001
 40
0.0
 40
0.0
 40
0.0
 40
0.0
 40
0.1954188198467802
 40
0.3058478904170387
 40
0.4251239275883485
 40
0.5537868414038684
 40
0.6928854083944319
 40
1.0
 40
1.0
 40
1.0
 40
1.0
 10
-82.70996840272748
 20
25.08680552032239
 30
0.0
 10
-82.6878037701474
 20
25.11810186409913
 30
0.0
 10
-82.64866790410508
 20
25.16391062582224
 30
0.0
 10
-82.58697238704582
 20
25.22011291127191
 30
0.0
 10
-82.53305380672327
 20
25.26528316158605
 30
0.0
 10
-82.47158888119999
 20
25.30994044852219
 30
0.0
 10
-82.37790459520433
 20
25.37277146111516
 30
0.0
 10
-82.30205131222135
 20
25.41664973027891
 30
0.0
 10
-82.24933138349667
 20
25.44577987929675
 30
0.0
  0
SPLINE
  5
ED
330
1F
100
AcDbEntity
  8
0
  6
Continuous
 62
     7
370
    25
100
AcDbSpline
210
0.0
220
0.0
230
1.0
 70
     8
 71
     3
 72
     9
 73
     5
 74
     0
 42
0.00000001
 43
0.00000001
 40
0.0
 40
0.0
 40
0.0
 40
0.0
 40
0.5047649745423515
 40
1.0
 40
1.0
 40
1.0
 40
1.0
 10
-82.8291591078556
 20
24.6913728280147
 30
0.0
 10
-82.82815810300382
 20
24.76161675399091
 30
0.0
 10
-82.81209948470025
 20
24.90262014203837
 30
0.0
 10
-82.74802263240188
 20
25.0292712887703
 30
0.0
 10
-82.70996840272748
 20
25.08680552032239
 30
0.0
  0
SPLINE
  5
EE
330
1F
100
AcDbEntity
  8
0
  6
Continuous
 62
     7
370
    25
100
AcDbSpline
210
0.0
220
0.0
230
1.0
 70
     8
 71
     3
 72
    21
 73
    17
 74
     0
 42
0.00000001
 43
0.00000001
 40
0.0
 40
0.0
 40
0.0
 40
0.0
 40
0.1313602991794603
 40
0.194501516428776
 40
0.2564315180678534
 40
0.3176028927083406
 40
0.3786284196027307
 40
0.4404806721564614
 40
0.5042957142746892
 40
0.5681107563928984
 40
0.6299630089466474
 40
0.6904753005359335
 40
0.7513604849059731
 40
0.8114026619125837
 40
0.8728008672444953
 40
1.0
 40
1.0
 40
1.0
 40
1.0
 10
-82.07965990913779
 20
23.95239045621977
 30
0.0
 10
-82.13104939531968
 20
23.95274055477303
 30
0.0
 10
-82.20734389373419
 20
23.95847996435829
 30
0.0
 10
-82.30533609625756
 20
23.98113145963676
 30
0.0
 10
-82.3742989738766
 20
24.00517979577266
 30
0.0
 10
-82.4398259789505
 20
24.0354503780269
 30
0.0
 10
-82.5020647569299
 20
24.07202331754266
 30
0.0
 10
-82.56057090306157
 20
24.11604765258801
 30
0.0
 10
-82.61541642030457
 20
24.16613329607142
 30
0.0
 10
-82.66550769521098
 20
24.22097227745634
 30
0.0
 10
-82.70938297265107
 20
24.27934822705313
 30
0.0
 10
-82.74592943877713
 20
24.34118438274113
 30
0.0
 10
-82.77711876439386
 20
24.40514367612512
 30
0.0
 10
-82.8001941174078
 20
24.47283764471031
 30
0.0
 10
-82.82318918418096
 20
24.56757035009771
 30
0.0
 10
-82.82868720558723
 20
24.64164488522047
 30
0.0
 10
-82.8291591078556
 20
24.6913728280147
 30
0.0
  0
SPLINE
  5
EF
330
1F
100
AcDbEntity
  8
0
  6
Continuous
 62
     7
370
    25
100
AcDbSpline
210
0.0
220
0.0
230
1.0
 70
     8
 71
     3
 72
    13
 73
     9
 74
     0
 42
0.00000001
 43
0.00000001
 40
0.0
 40
0.0
 40
0.0
 40
0.0
 40
0.2445989327970473
 40
0.3685417614065689
 40
0.4953064507483649
 40
0.6227813119738068
 40
0.7482760387504068
 40
1.0
 40
1.0
 40
1.0
 40
1.0
 10
-81.34838987708636
 20
24.29874462288639
 30
0.0
 10
-81.39065766815479
 20
24.24514572076774
 30
0.0
 10
-81.46400105149998
 20
24.17214334500484
 30
0.0
 10
-81.5772419132994
 20
24.09255168739033
 30
0.0
 10
-81.67024693747959
 20
24.04235380354325
 30
0.0
 10
-81.76864193322453
 20
24.00270021524953
 30
0.0
 10
-81.90420107045593
 20
23.96398317758108
 30
0.0
 10
-82.00939989952505
 20
23.95185743686001
 30
0.0
 10
-82.07965990913767
 20
23.95239045621977
 30
0.0
  0
SPLINE
  5
F1
330
1F
100
AcDbEntity
  8
0
  6
Continuous
 62
     7
370
    25
100
AcDbSpline
210
0.0
220
0.0
230
1.0
 70
     8
 71
     3
 72
    13
 73
     9
 74
     0
 42
0.00000001
 43
0.00000001
 40
0.0
 40
0.0
 40
0.0
 40
0.0
 40
0.2249939016839898
 40
0.3407622816196355
 40
0.459499256413394
 40
0.5828283517555495
 40
0.7140958284555524
 40
1.0
 40
1.0
 40
1.0
 40
1.0
 10
-82.0635341078556
 20
24.26649302032235
 30
0.0
 10
-82.01907792556928
 20
24.26627783333746
 30
0.0
 10
-81.95192560905595
 20
24.27534027608624
 30
0.0
 10
-81.86546387384463
 20
24.30325755291584
 30
0.0
 10
-81.80124009886237
 20
24.33298986870602
 30
0.0
 10
-81.73841717243668
 20
24.37165330708757
 30
0.0
 10
-81.65256631507889
 20
24.43513920355777
 30
0.0
 10
-81.59427297095034
 20
24.49382869489525
 30
0.0
 10
-81.55662305016331
 20
24.53572378955315
 30
0.0
  0
SPLINE
  5
F2
330
1F
100
AcDbEntity
  8
0
  6
Continuous
 62
     7
370
    25
100
AcDbSpline
210
0.0
220
0.0
230
1.0
 70
     8
 71
     3
 72
    13
 73
     9
 74
     0
 42
0.00000001
 43
0.00000001
 40
0.0
 40
0.0
 40
0.0
 40
0.0
 40
0.2352817369432602
 40
0.3554913463217786
 40
0.4823137941791906
 40
0.6121639553088953
 40
0.7381043263492042
 40
1.0
 40
1.0
 40
1.0
 40
1.0
 10
-82.51505654375313
 20
24.67805151391211
 30
0.0
 10
-82.51538779873613
 20
24.62483295287388
 30
0.0
 10
-82.49827102472929
 20
24.54435398427579
 30
0.0
 10
-82.44213433434933
 20
24.45003267733947
 30
0.0
 10
-82.38431117563505
 20
24.38706041962735
 30
0.0
 10
-82.31626646285606
 20
24.33304057282604
 30
0.0
 10
-82.21056196344234
 20
24.28126781771212
 30
0.0
 10
-82.12274231563887
 20
24.26598059039253
 30
0.0
 10
-82.0635341078556
 20
24.26649302032235
 30
0.0
  0
SPLINE
  5
F3
330
1F
100
AcDbEntity
  8
0
  6
Continuous
 62
     7
370
    25
100
AcDbSpline
210
0.0
220
0.0
230
1.0
 70
     8
 71
     3
 72
     9
 73
     5
 74
     0
 42
0.00000001
 43
0.00000001
 40
0.0
 40
0.0
 40
0.0
 40
0.0
 40
0.4995466848970542
 40
1.0
 40
1.0
 40
1.0
 40
1.0
 10
-82.42881856298389
 20
24.92204189852743
 30
0.0
 10
-82.45670808483241
 20
24.88809118931579
 30
0.0
 10
-82.5008976585363
 20
24.81031137130973
 30
0.0
 10
-82.51488919286531
 20
24.7220211322976
 30
0.0
 10
-82.51505654375313
 20
24.67805151391211
 30
0.0
  0
SPLINE
  5
F4
330
1F
100
AcDbEntity
  8
0
  6
Continuous
 62
     7
370
    25
100
AcDbSpline
210
0.0
220
0.0
230
1.0
 70
     8
 71
     3
 72
    13
 73
     9
 74
     0
 42
0.00000001
 43
0.00000001
 40
0.0
 40
0.0
 40
0.0
 40
0.0
 40
0.3337367066248621
 40
0.4791986316519813
 40
0.6104491594873718
 40
0.7277299767534031
 40
0.8325383242741483
 40
1.0
 40
1.0
 40
1.0
 40
1.0
 10
-82.04109821041972
 20
25.18566369339925
 30
0.0
 10
-82.08746810290046
 20
25.16120669084565
 30
0.0
 10
-82.15309352137223
 20
25.12435190525864
 30
0.0
 10
-82.23574970146686
 20
25.07574701519133
 30
0.0
 10
-82.28774915020487
 20
25.0421602986215
 30
0.0
 10
-82.33286628361314
 20
25.00980669302166
 30
0.0
 10
-82.38077212125117
 20
24.9717172773315
 30
0.0
 10
-82.41197156567193
 20
24.94230912783957
 30
0.0
 10
-82.42881856298389
 20
24.92204189852743
 30
0.0
  0
SPLINE
  5
F5
330
1F
100
AcDbEntity
  8
0
  6
Continuous
 62
     7
370
    25
100
AcDbSpline
210
0.0
220
0.0
230
1.0
 70
     8
 71
     3
 72
    13
 73
     9
 74
     0
 42
0.00000001
 43
0.00000001
 40
0.0
 40
0.0
 40
0.0
 40
0.0
 40
0.1977042930090794
 40
0.3078458435568139
 40
0.4271756375984301
 40
0.5562245009992262
 40
0.6940497867915497
 40
1.0
 40
1.0
 40
1.0
 40
1.0
 10
-81.60009260144541
 20
25.53482234724547
 30
0.0
 10
-81.62103168110436
 20
25.50375508808389
 30
0.0
 10
-81.659290793339
 20
25.45969822804217
 30
0.0
 10
-81.71720452028653
 20
25.40333284416674
 30
0.0
 10
-81.76933675737219
 20
25.35988928420707
 30
0.0
 10
-81.8284472048435
 20
25.31698669620441
 30
0.0
 10
-81.91751735369802
 20
25.25531782134804
 30
0.0
 10
-81.99050399384433
 20
25.21363077423144
 30
0.0
 10
-82.04109821041972
 20
25.18566369339925
 30
0.0
  0
SPLINE
  5
F6
330
1F
100
AcDbEntity
  8
0
  6
Continuous
 62
     7
370
    25
100
AcDbSpline
210
0.0
220
0.0
230
1.0
 70
     8
 71
     3
 72
     9
 73
     5
 74
     0
 42
0.00000001
 43
0.00000001
 40
0.0
 40
0.0
 40
0.0
 40
0.0
 40
0.5074092035235833
 40
1.0
 40
1.0
 40
1.0
 40
1.0
 10
-81.48300526170182
 20
25.92885279596335
 30
0.0
 10
-81.48173348829113
 20
25.85813372103885
 30
0.0
 10
-81.5024499672371
 20
25.71911562889451
 30
0.0
 10
-81.5608238307991
 20
25.59121714090218
 30
0.0
 10
-81.60009260144541
 20
25.53482234724547
 30
0.0
  0
SPLINE
  5
F7
330
1F
100
AcDbEntity
  8
0
  6
Continuous
 62
     7
370
    25
100
AcDbSpline
210
0.0
220
0.0
230
1.0
 70
     8
 71
     3
 72
    21
 73
    17
 74
     0
 42
0.00000001
 43
0.00000001
 40
0.0
 40
0.0
 40
0.0
 40
0.0
 40
0.1291156642467617
 40
0.1906142170369299
 40
0.2512349941101595
 40
0.3110899094595513
 40
0.3711861458444906
 40
0.43211947994139
 40
0.4949206964951557
 40
0.5573643976838026
 40
0.6191271459504197
 40
0.6802716623934746
 40
0.7413865832314339
 40
0.8034925619466107
 40
0.8669564647560922
 40
1.0
 40
1.0
 40
1.0
 40
1.0
 10
-82.12943955657359
 20
26.59982635365565
 30
0.0
 10
-82.08452649495945
 20
26.60036091699225
 30
0.0
 10
-82.0182810124871
 20
26.59413174575631
 30
0.0
 10
-81.9331040081973
 20
26.57438862386396
 30
0.0
 10
-81.87328330736787
 20
26.55341391295341
 30
0.0
 10
-81.81687494819079
 20
26.5256417223998
 30
0.0
 10
-81.763336674184
 20
26.49253725543455
 30
0.0
 10
-81.71244191384453
 20
26.45373811139429
 30
0.0
 10
-81.66533524821185
 20
26.40922892559949
 30
0.0
 10
-81.6224920290084
 20
26.36022576448704
 30
0.0
 10
-81.58530434190948
 20
26.30748982212283
 30
0.0
 10
-81.55365940308934
 20
26.25183247563034
 30
0.0
 10
-81.5271727818453
 20
26.19332990614109
 30
0.0
 10
-81.50813166979998
 20
26.13120486116582
 30
0.0
 10
-81.48745050096417
 20
26.04362997599463
 30
0.0
 10
-81.48332205057007
 20
25.97499510896128
 30
0.0
 10
-81.48300526170182
 20
25.92885279596335
 30
0.0
  0
SPLINE
  5
F8
330
1F
100
AcDbEntity
  8
0
  6
Continuous
 62
     7
370
    25
100
AcDbSpline
210
0.0
220
0.0
230
1.0
 70
     8
 71
     3
 72
    13
 73
     9
 74
     0
 42
0.00000001
 43
0.00000001
 40
0.0
 40
0.0
 40
0.0
 40
0.0
 40
0.297287795518775
 40
0.4309389201448542
 40
0.5555483284431681
 40
0.67387326992651
 40
0.786588387361059
 40
1.0
 40
1.0
 40
1.0
 40
1.0
 10
-82.78428731298382
 20
26.23594414211716
 30
0.0
 10
-82.73367925617548
 20
26.29323871027944
 30
0.0
 10
-82.65373661149056
 20
26.37045392780912
 30
0.0
 10
-82.54022992422728
 20
26.45733163122443
 30
0.0
 10
-82.45844147359082
 20
26.50943340775436
 30
0.0
 10
-82.37611271808831
 20
26.54961133081313
 30
0.0
 10
-82.26821760832281
 20
26.58808189686523
 30
0.0
 10
-82.18433484862598
 20
26.59977316513051
 30
0.0
 10
-82.12943955657359
 20
26.59982635365565
 30
0.0
  0
SPLINE
  5
FB
330
1F
100
AcDbEntity
  8
0
  6
Continuous
 62
     7
370
    25
100
AcDbSpline
210
0.0
220
0.0
230
1.0
 70
     8
 71
     3
 72
    13
 73
     9
 74
     0
 42
0.00000001
 43
0.00000001
 40
0.0
 40
0.0
 40
0.0
 40
0.0
 40
0.2434110992594182
 40
0.3618899784752182
 40
0.4800702186075755
 40
0.6010116861957749
 40
0.7264312190368025
 40
1.0
 40
1.0
 40
1.0
 40
1.0
 10
-79.89847000529137
 20
26.59982635365565
 30
0.0
 10
-79.80602032717799
 20
26.59935011318937
 30
0.0
 10
-79.66798653321628
 20
26.58582238385565
 30
0.0
 10
-79.49248460433122
 20
26.53423178457526
 30
0.0
 10
-79.36685612138194
 20
26.48144054143808
 30
0.0
 10
-79.246883575258
 20
26.41130510205825
 30
0.0
 10
-79.08956453622152
 20
26.29074428273947
 30
0.0
 10
-78.98866975823083
 20
26.17582367965532
 30
0.0
 10
-78.9253129540094
 20
26.0936164177582
 30
0.0
  0
SPLINE
  5
FC
330
1F
100
AcDbEntity
  8
0
  6
Continuous
 62
     7
370
    25
100
AcDbSpline
210
0.0
220
0.0
230
1.0
 70
     8
 71
     3
 72
    21
 73
    17
 74
     0
 42
0.00000001
 43
0.00000001
 40
0.0
 40
0.0
 40
0.0
 40
0.0
 40
0.1317255445271741
 40
0.1906683746814265
 40
0.2451968850948476
 40
0.2955087738855862
 40
0.3412437630224658
 40
0.3833864553034272
 40
0.4214402664762985
 40
0.492956384356707
 40
0.5628694745136158
 40
0.6330237453801784
 40
0.7044573558011064
 40
0.7765120161995835
 40
0.8488218595336068
 40
1.0
 40
1.0
 40
1.0
 40
1.0
 10
-80.85480013349655
 20
25.30345215493768
 30
0.0
 10
-80.85558008603144
 20
25.38413885812785
 30
0.0
 10
-80.85173934111478
 20
25.5009298255694
 30
0.0
 10
-80.84010657326534
 20
25.65065640262198
 30
0.0
 10
-80.82954560851918
 20
25.75045459431779
 30
0.0
 10
-80.81391003645943
 20
25.84139418229425
 30
0.0
 10
-80.79587994836035
 20
25.92411233611747
 30
0.0
 10
-80.774647403141
 20
25.99835907773041
 30
0.0
 10
-80.74092181034298
 20
26.08504790815469
 30
0.0
 10
-80.68972444450662
 20
26.18277081267983
 30
0.0
 10
-80.61336111049266
 20
26.28810791152469
 30
0.0
 10
-80.52103661046716
 20
26.37968190590656
 30
0.0
 10
-80.41590804992826
 20
26.45830281336048
 30
0.0
 10
-80.29929359103815
 20
26.52146029663727
 30
0.0
 10
-80.12872179081198
 20
26.58421210459694
 30
0.0
 10
-79.9908456507985
 20
26.59921457848768
 30
0.0
 10
-79.89847000529137
 20
26.59982635365565
 30
0.0
  0
SPLINE
  5
100
330
1F
100
AcDbEntity
  8
0
  6
Continuous
 62
     7
370
    25
100
AcDbSpline
210
0.0
220
0.0
230
1.0
 70
     8
 71
     3
 72
    13
 73
     9
 74
     0
 42
0.00000001
 43
0.00000001
 40
0.0
 40
0.0
 40
0.0
 40
0.0
 40
0.1585173269300211
 40
0.2599203239142082
 40
0.3767455717754368
 40
0.5101743366316052
 40
0.6578903510576951
 40
1.0
 40
1.0
 40
1.0
 40
1.0
 10
-80.50353811426581
 20
25.78231834083511
 30
0.0
 10
-80.51060074914662
 20
25.75226241554118
 30
0.0
 10
-80.5190658292495
 20
25.7022992784558
 30
0.0
 10
-80.52641755955514
 20
25.62930274819142
 30
0.0
 10
-80.53221544535182
 20
25.56107309707789
 30
0.0
 10
-80.5361593084586
 20
25.48367445584443
 30
0.0
 10
-80.5400916289416
 20
25.36238149864967
 30
0.0
 10
-80.54020299751075
 20
25.26699029942159
 30
0.0
 10
-80.54069756939397
 20
25.20038725109153
 30
0.0
  0
SPLINE
  5
101
330
1F
100
AcDbEntity
  8
0
  6
Continuous
 62
     7
370
    25
100
AcDbSpline
210
0.0
220
0.0
230
1.0
 70
     8
 71
     3
 72
    13
 73
     9
 74
     0
 42
0.00000001
 43
0.00000001
 40
0.0
 40
0.0
 40
0.0
 40
0.0
 40
0.2700189621433423
 40
0.3907190350710789
 40
0.5068223535253189
 40
0.6215239708754536
 40
0.7391668368063032
 40
1.0
 40
1.0
 40
1.0
 40
1.0
 10
-79.84378250529144
 20
26.28572378955307
 30
0.0
 10
-79.92543387167395
 20
26.28618792711524
 30
0.0
 10
-80.0445656263713
 20
26.2728665793156
 30
0.0
 10
-80.18898631645422
 20
26.2186426622264
 30
0.0
 10
-80.28022572724203
 20
26.16252185810153
 30
0.0
 10
-80.35807380457749
 20
26.0903259733154
 30
0.0
 10
-80.44633982250483
 20
25.96874851511166
 30
0.0
 10
-80.48601581320159
 20
25.85912498238851
 30
0.0
 10
-80.50353811426581
 20
25.78231834083511
 30
0.0
  0
SPLINE
  5
102
330
1F
100
AcDbEntity
  8
0
  6
Continuous
 62
     7
370
    25
100
AcDbSpline
210
0.0
220
0.0
230
1.0
 70
     8
 71
     3
 72
    21
 73
    17
 74
     0
 42
0.00000001
 43
0.00000001
 40
0.0
 40
0.0
 40
0.0
 40
0.0
 40
0.1238830745189171
 40
0.1847816479826848
 40
0.2456024656876798
 40
0.3070653910745305
 40
0.3692286662507878
 40
0.4320259048597126
 40
0.4970795873926179
 40
0.5618524691217699
 40
0.6254263815420402
 40
0.6876488370376828
 40
0.7497698060395667
 40
0.8110156280184817
 40
0.8733731419104944
 40
1.0
 40
1.0
 40
1.0
 40
1.0
 10
-78.9736903578555
 20
25.60844013570696
 30
0.0
 10
-78.98627965977755
 20
25.65569698386994
 30
0.0
 10
-79.0107042116276
 20
25.72472917382285
 30
0.0
 10
-79.05422574483478
 20
25.81146124613132
 30
0.0
 10
-79.09138148710271
 20
25.87359888840224
 30
0.0
 10
-79.13445626973659
 20
25.93239726131846
 30
0.0
 10
-79.1819926267736
 20
25.98867329616905
 30
0.0
 10
-79.2353214201561
 20
26.04151767984064
 30
0.0
 10
-79.29263410216159
 20
26.09159695507401
 30
0.0
 10
-79.35423753008786
 20
26.13678743593817
 30
0.0
 10
-79.41774429705984
 20
26.17733612933804
 30
0.0
 10
-79.48450854782307
 20
26.20986375541911
 30
0.0
 10
-79.55201649875299
 20
26.23853246283259
 30
0.0
 10
-79.6224361235549
 20
26.25937726077099
 30
0.0
 10
-79.71907357868113
 20
26.28026809934858
 30
0.0
 10
-79.79380736473996
 20
26.28596293974872
 30
0.0
 10
-79.84378250529144
 20
26.28572378955307
 30
0.0
  0
SPLINE
  5
103
330
1F
100
AcDbEntity
  8
0
  6
Continuous
 62
     7
370
    25
100
AcDbSpline
210
0.0
220
0.0
230
1.0
 70
     8
 71
     3
 72
    13
 73
     9
 74
     0
 42
0.00000001
 43
0.00000001
 40
0.0
 40
0.0
 40
0.0
 40
0.0
 40
0.3336012413919295
 40
0.4791571975344256
 40
0.6105404974279318
 40
0.7289476063657787
 40
0.8323849228168392
 40
1.0
 40
1.0
 40
1.0
 40
1.0
 10
-78.9253129540094
 20
24.92204189852743
 30
0.0
 10
-78.925781369943
 20
24.99868541693284
 30
0.0
 10
-78.92560894058143
 20
25.10885700586496
 30
0.0
 10
-78.93216115111169
 20
25.24901644430244
 30
0.0
 10
-78.93646038163705
 20
25.33977592152248
 30
0.0
 10
-78.94352456766052
 20
25.42066237436424
 30
0.0
 10
-78.95389724437452
 20
25.50956684385797
 30
0.0
 10
-78.96433504371537
 20
25.57104236674201
 30
0.0
 10
-78.9736903578555
 20
25.60844013570696
 30
0.0
  0
SPLINE
  5
10B
330
1F
100
AcDbEntity
  8
0
  6
Continuous
 62
     7
370
    25
100
AcDbSpline
210
0.0
220
0.0
230
1.0
 70
     8
 71
     3
 72
    13
 73
     9
 74
     0
 42
0.00000001
 43
0.00000001
 40
0.0
 40
0.0
 40
0.0
 40
0.0
 40
0.2407702368354425
 40
0.3613679915788172
 40
0.4880203848743234
 40
0.6156588752209213
 40
0.7417159076830835
 40
1.0
 40
1.0
 40
1.0
 40
1.0
 10
-77.98300526170176
 20
27.36124462288647
 30
0.0
 10
-77.9832064165168
 20
27.39690205219258
 30
0.0
 10
-77.97183945502795
 20
27.45020255060404
 30
0.0
 10
-77.93583567715201
 20
27.51331009896307
 30
0.0
 10
-77.89763367502466
 20
27.55386966393214
 30
0.0
 10
-77.85304550938876
 20
27.58831438326481
 30
0.0
 10
-77.78533552619338
 20
27.62310544428126
 30
0.0
 10
-77.7279345860764
 20
27.63180340380356
 30
0.0
 10
-77.68993635144538
 20
27.63187763570696
 30
0.0
  0
SPLINE
  5
10C
330
1F
100
AcDbEntity
  8
0
  6
Continuous
 62
     7
370
    25
100
AcDbSpline
210
0.0
220
0.0
230
1.0
 70
     8
 71
     3
 72
    13
 73
     9
 74
     0
 42
0.00000001
 43
0.00000001
 40
0.0
 40
0.0
 40
0.0
 40
0.0
 40
0.2598496298712539
 40
0.3866707319148509
 40
0.5150828775346947
 40
0.6425029490726826
 40
0.7624536797230972
 40
1.0
 40
1.0
 40
1.0
 40
1.0
 10
-77.68993635144538
 20
27.09341609724536
 30
0.0
 10
-77.72793227941055
 20
27.09349173653586
 30
0.0
 10
-77.78533994091885
 20
27.1021855950746
 30
0.0
 10
-77.85303903482787
 20
27.13698330007031
 30
0.0
 10
-77.89765822266081
 20
27.17140909154747
 30
0.0
 10
-77.93560752890505
 20
27.21188948629338
 30
0.0
 10
-77.9717669647928
 20
27.27384120645637
 30
0.0
 10
-77.98307955648842
 20
27.32630441508843
 30
0.0
 10
-77.98300526170176
 20
27.36124462288647
 30
0.0
  0
SPLINE
  5
10D
330
1F
100
AcDbEntity
  8
0
  6
Continuous
 62
     7
370
    25
100
AcDbSpline
210
0.0
220
0.0
230
1.0
 70
     8
 71
     3
 72
    13
 73
     9
 74
     0
 42
0.00000001
 43
0.00000001
 40
0.0
 40
0.0
 40
0.0
 40
0.0
 40
0.2389149952220574
 40
0.3595568481745961
 40
0.486634766847336
 40
0.6157867870573872
 40
0.7433385965465394
 40
1.0
 40
1.0
 40
1.0
 40
1.0
 10
-77.39967192836839
 20
27.36124462288647
 30
0.0
 10
-77.39963807642513
 20
27.32634095903419
 30
0.0
 10
-77.41083034571483
 20
27.27376902769329
 30
0.0
 10
-77.4471133204151
 20
27.21213776139741
 30
0.0
 10
-77.4842945392048
 20
27.17118247918637
 30
0.0
 10
-77.52897073886133
 20
27.13699658851343
 30
0.0
 10
-77.59602844126078
 20
27.10259600604781
 30
0.0
 10
-77.65253610005607
 20
27.09318091146473
 30
0.0
 10
-77.68993635144538
 20
27.09341609724536
 30
0.0
  0
SPLINE
  5
10E
330
1F
100
AcDbEntity
  8
0
  6
Continuous
 62
     7
370
    25
100
AcDbSpline
210
0.0
220
0.0
230
1.0
 70
     8
 71
     3
 72
    13
 73
     9
 74
     0
 42
0.00000001
 43
0.00000001
 40
0.0
 40
0.0
 40
0.0
 40
0.0
 40
0.2551062187428466
 40
0.3818851554071034
 40
0.5102546066587019
 40
0.6365625239462811
 40
0.757850918666084
 40
1.0
 40
1.0
 40
1.0
 40
1.0
 10
-77.68993635144538
 20
27.63187763570696
 30
0.0
 10
-77.65253381067194
 20
27.63211422401768
 30
0.0
 10
-77.59603282233496
 20
27.62269504295689
 30
0.0
 10
-77.5289642034318
 20
27.58830114819477
 30
0.0
 10
-77.48431921145249
 20
27.55409613897453
 30
0.0
 10
-77.44688767883778
 20
27.51305982589769
 30
0.0
 10
-77.41075594402125
 20
27.45027652103471
 30
0.0
 10
-77.39951276441236
 20
27.39686407636255
 30
0.0
 10
-77.39967192836839
 20
27.36124462288647
 30
0.0
  0
SPLINE
  5
10F
330
1F
100
AcDbEntity
  8
0
  6
Continuous
 62
     7
370
    25
100
AcDbSpline
210
0.0
220
0.0
230
1.0
 70
     8
 71
     3
 72
    13
 73
     9
 74
     0
 42
0.00000001
 43
0.00000001
 40
0.0
 40
0.0
 40
0.0
 40
0.0
 40
0.2531294102724398
 40
0.3753070134590596
 40
0.4961956083998793
 40
0.617866023907437
 40
0.7416676494858144
 40
1.0
 40
1.0
 40
1.0
 40
1.0
 10
-75.25423923606056
 20
26.17845215493775
 30
0.0
 10
-75.19208075207018
 20
26.24638876008911
 30
0.0
 10
-75.09046544612951
 20
26.3391108851706
 30
0.0
 10
-74.93810144847546
 20
26.43665721617916
 30
0.0
 10
-74.8197218043457
 20
26.49738542907054
 30
0.0
 10
-74.69392589075285
 20
26.54259134126957
 30
0.0
 10
-74.51580076229835
 20
26.5872353124037
 30
0.0
 10
-74.3765745896775
 20
26.60080099425322
 30
0.0
 10
-74.28248442836826
 20
26.59982635365565
 30
0.0
  0
SPLINE
  5
110
330
1F
100
AcDbEntity
  8
0
  6
Continuous
 62
     7
370
    25
100
AcDbSpline
210
0.0
220
0.0
230
1.0
 70
     8
 71
     3
 72
    13
 73
     9
 74
     0
 42
0.00000001
 43
0.00000001
 40
0.0
 40
0.0
 40
0.0
 40
0.0
 40
0.2554352550956477
 40
0.3786322712675499
 40
0.5014663143321101
 40
0.6234943774777817
 40
0.746165637203275
 40
1.0
 40
1.0
 40
1.0
 40
1.0
 10
-75.60480013349647
 20
25.269097186989
 30
0.0
 10
-75.60432574470255
 20
25.35403403357384
 30
0.0
 10
-75.59484193597731
 20
25.48027599650271
 30
0.0
 10
-75.55764995339653
 20
25.64321529622205
 30
0.0
 10
-75.51900778394682
 20
25.75959649764525
 30
0.0
 10
-75.469903709104
 20
25.87181500362323
 30
0.0
 10
-75.38766430911569
 20
26.01617579436899
 30
0.0
 10
-75.31127024579642
 20
26.11611423456062
 30
0.0
 10
-75.25423923606056
 20
26.17845215493775
 30
0.0
  0
SPLINE
  5
111
330
1F
100
AcDbEntity
  8
0
  6
Continuous
 62
     7
370
    25
100
AcDbSpline
210
0.0
220
0.0
230
1.0
 70
     8
 71
     3
 72
    21
 73
    17
 74
     0
 42
0.00000001
 43
0.00000001
 40
0.0
 40
0.0
 40
0.0
 40
0.0
 40
0.1341341587220424
 40
0.1979034644236247
 40
0.2604831025120542
 40
0.322145528691671
 40
0.3837784671889386
 40
0.446215423207863
 40
0.5103409574898141
 40
0.5743946950476086
 40
0.6362264024960824
 40
0.6971016460802506
 40
0.7568275569302938
 40
0.8167348601469018
 40
0.8766630214626719
 40
1.0
 40
1.0
 40
1.0
 40
1.0
 10
-74.28248442836826
 20
23.95239045621977
 30
0.0
 10
-74.37543447775508
 20
23.9527544217738
 30
0.0
 10
-74.51296177457245
 20
23.96343130598189
 30
0.0
 10
-74.68901693627295
 20
24.00528314505146
 30
0.0
 10
-74.81208296274022
 20
24.04895461753087
 30
0.0
 10
-74.92872669795925
 20
24.10440106453493
 30
0.0
 10
-75.0378806344144
 20
24.17321990883081
 30
0.0
 10
-75.14099679117503
 20
24.25354890963882
 30
0.0
 10
-75.23604873446388
 20
24.34571492238169
 30
0.0
 10
-75.32205245597312
 20
24.44571681527985
 30
0.0
 10
-75.39792506737197
 20
24.55086893275882
 30
0.0
 10
-75.461812148223
 20
24.66027849229224
 30
0.0
 10
-75.51418344667759
 20
24.77416129456145
 30
0.0
 10
-75.55496610147594
 20
24.89202007878099
 30
0.0
 10
-75.59359769020612
 20
25.05640888243033
 30
0.0
 10
-75.60530704276924
 20
25.18352976702076
 30
0.0
 10
-75.60480013349647
 20
25.269097186989
 30
0.0
  0
SPLINE
  5
112
330
1F
100
AcDbEntity
  8
0
  6
Continuous
 62
     7
370
    25
100
AcDbSpline
210
0.0
220
0.0
230
1.0
 70
     8
 71
     3
 72
    21
 73
    17
 74
     0
 42
0.00000001
 43
0.00000001
 40
0.0
 40
0.0
 40
0.0
 40
0.0
 40
0.1231816483428002
 40
0.1830343363247268
 40
0.2428661924761439
 40
0.3025168847059427
 40
0.3633154622039138
 40
0.4250692989986412
 40
0.4890423674851742
 40
0.553087142275227
 40
0.6154454653923731
 40
0.6772864118409536
 40
0.739174987439565
 40
0.8016758129328341
 40
0.8653648077757379
 40
1.0
 40
1.0
 40
1.0
 40
1.0
 10
-72.95736423606058
 20
25.269097186989
 30
0.0
 10
-72.95685732867496
 20
25.18352976986193
 30
0.0
 10
-72.96856667569696
 20
25.05640887692906
 30
0.0
 10
-73.00719827339609
 20
24.89202008678271
 30
0.0
 10
-73.04798090296738
 20
24.77416126458465
 30
0.0
 10
-73.1003522960284
 20
24.66027860474229
 30
0.0
 10
-73.16423901551161
 20
24.55086850118015
 30
0.0
 10
-73.24011301805756
 20
24.44571847803323
 30
0.0
 10
-73.326111348335
 20
24.34570846879025
 30
0.0
 10
-73.42118339914117
 20
24.25357272733841
 30
0.0
 10
-73.52438332582112
 20
24.17301186313647
 30
0.0
 10
-73.63416971494463
 20
24.10440278384607
 30
0.0
 10
-73.75131498318743
 20
24.0490984737608
 30
0.0
 10
-73.87454197903665
 20
24.0052680218793
 30
0.0
 10
-74.05106045704201
 20
23.96330864149165
 30
0.0
 10
-74.1890788120334
 20
23.95281254881909
 30
0.0
 10
-74.28248442836826
 20
23.95239045621977
 30
0.0
  0
SPLINE
  5
113
330
1F
100
AcDbEntity
  8
0
  6
Continuous
 62
     7
370
    25
100
AcDbSpline
210
0.0
220
0.0
230
1.0
 70
     8
 71
     3
 72
    13
 73
     9
 74
     0
 42
0.00000001
 43
0.00000001
 40
0.0
 40
0.0
 40
0.0
 40
0.0
 40
0.2537592050616079
 40
0.3772863205702288
 40
0.4989121128148862
 40
0.6213214040214711
 40
0.7447622750750945
 40
1.0
 40
1.0
 40
1.0
 40
1.0
 10
-73.30792513349648
 20
26.17634878955311
 30
0.0
 10
-73.25151183361123
 20
26.11383789135835
 30
0.0
 10
-73.17381334566963
 20
26.01472255511106
 30
0.0
 10
-73.0926580711404
 20
25.86996960816212
 30
0.0
 10
-73.04310971990513
 20
25.75823788300657
 30
0.0
 10
-73.00441900407773
 20
25.64230718674598
 30
0.0
 10
-72.9674061184532
 20
25.47979629818375
 30
0.0
 10
-72.95785850281
 20
25.3538039843223
 30
0.0
 10
-72.95736423606058
 20
25.269097186989
 30
0.0
  0
SPLINE
  5
114
330
1F
100
AcDbEntity
  8
0
  6
Continuous
 62
     7
370
    25
100
AcDbSpline
210
0.0
220
0.0
230
1.0
 70
     8
 71
     3
 72
    13
 73
     9
 74
     0
 42
0.00000001
 43
0.00000001
 40
0.0
 40
0.0
 40
0.0
 40
0.0
 40
0.2587123826906848
 40
0.3820894432542115
 40
0.5035635736272535
 40
0.6251808674329538
 40
0.7472870144846054
 40
1.0
 40
1.0
 40
1.0
 40
1.0
 10
-74.28248442836826
 20
26.59982635365565
 30
0.0
 10
-74.18791712114458
 20
26.60068970937524
 30
0.0
 10
-74.04829115738166
 20
26.58720428799122
 30
0.0
 10
-73.86944253647032
 20
26.54285815905122
 30
0.0
 10
-73.7437478553864
 20
26.49608650861502
 30
0.0
 10
-73.62406651725351
 20
26.43655513401799
 30
0.0
 10
-73.47206429061526
 20
26.33703472165017
 30
0.0
 10
-73.36954382242477
 20
26.24519360723776
 30
0.0
 10
-73.30792513349648
 20
26.17634878955311
 30
0.0
  0
SPLINE
  5
117
330
1F
100
AcDbEntity
  8
0
  6
Continuous
 62
     7
370
    25
100
AcDbSpline
210
0.0
220
0.0
230
1.0
 70
     8
 71
     3
 72
    13
 73
     9
 74
     0
 42
0.00000001
 43
0.00000001
 40
0.0
 40
0.0
 40
0.0
 40
0.0
 40
0.2538522779533839
 40
0.3748219688612686
 40
0.4942293474545227
 40
0.6139389177356217
 40
0.736955317238862
 40
1.0
 40
1.0
 40
1.0
 40
1.0
 10
-71.07415109503512
 20
26.59982635365565
 30
0.0
 10
-70.97243043148916
 20
26.59950490667762
 30
0.0
 10
-70.82135271284828
 20
26.58645413776106
 30
0.0
 10
-70.6301175527787
 20
26.5323049362588
 30
0.0
 10
-70.49568434581855
 20
26.47854117913517
 30
0.0
 10
-70.36856857547336
 20
26.40711161463516
 30
0.0
 10
-70.20729049685048
 20
26.28294037385515
 30
0.0
 10
-70.1028628047371
 20
26.16700679500217
 30
0.0
 10
-70.04069756939413
 20
26.08169734724541
 30
0.0
  0
SPLINE
  5
118
330
1F
100
AcDbEntity
  8
0
  6
Continuous
 62
     7
370
    25
100
AcDbSpline
210
0.0
220
0.0
230
1.0
 70
     8
 71
     3
 72
    21
 73
    17
 74
     0
 42
0.00000001
 43
0.00000001
 40
0.0
 40
0.0
 40
0.0
 40
0.0
 40
0.1260146004816713
 40
0.1868089060952329
 40
0.2474478502843892
 40
0.307846495991717
 40
0.3691210183050324
 40
0.4319903131536156
 40
0.4967149000659745
 40
0.5615019172671396
 40
0.6247727207665961
 40
0.6865537243536204
 40
0.7478749627318974
 40
0.8093470980883342
 40
0.8713639494369316
 40
1.0
 40
1.0
 40
1.0
 40
1.0
 10
-72.41890269759921
 20
25.28311962288643
 30
0.0
 10
-72.41838962288583
 20
25.37094024094277
 30
0.0
 10
-72.4076447288461
 20
25.50154642676949
 30
0.0
 10
-72.36567049478471
 20
25.66929190563694
 30
0.0
 10
-72.32210110579129
 20
25.78860950658168
 30
0.0
 10
-72.26642039052888
 20
25.90320203362451
 30
0.0
 10
-72.1975513278914
 20
26.01216450449351
 30
0.0
 10
-72.11770435823561
 20
26.11718682880992
 30
0.0
 10
-72.02538320760354
 20
26.21481513553137
 30
0.0
 10
-71.92546696872759
 20
26.30504710438042
 30
0.0
 10
-71.8185533946335
 20
26.38345396205077
 30
0.0
 10
-71.70733141344554
 20
26.45116858148477
 30
0.0
 10
-71.59006789671474
 20
26.50483296832695
 30
0.0
 10
-71.46850153833884
 20
26.54820047204587
 30
0.0
 10
-71.29706744433106
 20
26.58896849264259
 30
0.0
 10
-71.16378382571197
 20
26.59892823142229
 30
0.0
 10
-71.07415109503512
 20
26.59982635365565
 30
0.0
  0
SPLINE
  5
119
330
1F
100
AcDbEntity
  8
0
  6
Continuous
 62
     7
370
    25
100
AcDbSpline
210
0.0
220
0.0
230
1.0
 70
     8
 71
     3
 72
    21
 73
    17
 74
     0
 42
0.00000001
 43
0.00000001
 40
0.0
 40
0.0
 40
0.0
 40
0.0
 40
0.1277002390698747
 40
0.1892398000966456
 40
0.2501349882872971
 40
0.310842710086852
 40
0.372472090731707
 40
0.4350506334534636
 40
0.4996544386258899
 40
0.5642374836643663
 40
0.6267499200713567
 40
0.6882667786363572
 40
0.7494201652676098
 40
0.8104262745821135
 40
0.8719658356088787
 40
1.0
 40
1.0
 40
1.0
 40
1.0
 10
-71.08396680016338
 20
23.95239045621977
 30
0.0
 10
-71.17321441103974
 20
23.95271317302761
 30
0.0
 10
-71.30574321767736
 20
23.96401736529818
 30
0.0
 10
-71.47603034454552
 20
24.00496815027076
 30
0.0
 10
-71.59730493230244
 20
24.04681853205204
 30
0.0
 10
-71.71297737893812
 20
24.10241265338786
 30
0.0
 10
-71.82403623239331
 20
24.16895098825067
 30
0.0
 10
-71.92991372617597
 20
24.24818989425814
 30
0.0
 10
-72.0289667210533
 20
24.33878897567187
 30
0.0
 10
-72.12026761012812
 20
24.43714193493796
 30
0.0
 10
-72.20015494071485
 20
24.54233563388208
 30
0.0
 10
-72.26785635498678
 20
24.65294199057666
 30
0.0
 10
-72.32350947255262
 20
24.76892580179724
 30
0.0
 10
-72.36652427657064
 20
24.89020246494689
 30
0.0
 10
-72.4071786455034
 20
25.06092316836228
 30
0.0
 10
-72.41869945827429
 20
25.19361037266288
 30
0.0
 10
-72.41890269759921
 20
25.28311962288643
 30
0.0
  0
SPLINE
  5
11A
330
1F
100
AcDbEntity
  8
0
  6
Continuous
 62
     7
370
    25
100
AcDbSpline
210
0.0
220
0.0
230
1.0
 70
     8
 71
     3
 72
    13
 73
     9
 74
     0
 42
0.00000001
 43
0.00000001
 40
0.0
 40
0.0
 40
0.0
 40
0.0
 40
0.2620026798763646
 40
0.3865990120013839
 40
0.5078842295733161
 40
0.6287697964346921
 40
0.7494522178423595
 40
1.0
 40
1.0
 40
1.0
 40
1.0
 10
-70.04069756939413
 20
24.46070375750187
 30
0.0
 10
-70.10823889870166
 20
24.3805644813796
 30
0.0
 10
-70.21727150639423
 20
24.26937911488169
 30
0.0
 10
-70.38233456538545
 20
24.14987900816101
 30
0.0
 10
-70.51046689689822
 20
24.07757701804869
 30
0.0
 10
-70.64466841813177
 20
24.02095904937451
 30
0.0
 10
-70.8349927975761
 20
23.96839373658743
 30
0.0
 10
-70.98349659204484
 20
23.95123054334014
 30
0.0
 10
-71.08396680016338
 20
23.95239045621977
 30
0.0
  0
SPLINE
  5
12B
330
1F
100
AcDbEntity
  8
0
  6
Continuous
 62
     7
370
    25
100
AcDbSpline
210
0.0
220
0.0
230
1.0
 70
     8
 71
     3
 72
    17
 73
    13
 74
     0
 42
0.00000001
 43
0.00000001
 40
0.0
 40
0.0
 40
0.0
 40
0.0
 40
0.1781058515637827
 40
0.2613277635121511
 40
0.3415565694705521
 40
0.4200079090126525
 40
0.4980968161626226
 40
0.5754001382821239
 40
0.6536452159657116
 40
0.7341257729573898
 40
0.8183392339289949
 40
1.0
 40
1.0
 40
1.0
 40
1.0
 10
-65.4490509347786
 20
23.95239045621977
 30
0.0
 10
-65.53534472653644
 20
23.95240161639423
 30
0.0
 10
-65.66222120830645
 20
23.96105583742592
 30
0.0
 10
-65.82460448088246
 20
23.99438153555322
 30
0.0
 10
-65.93690313042421
 20
24.02875977033048
 30
0.0
 10
-66.04275294685114
 20
24.07352046202793
 30
0.0
 10
-66.14304226236645
 20
24.12663654405367
 30
0.0
 10
-66.23777284937805
 20
24.18897606102888
 30
0.0
 10
-66.32745045540645
 20
24.26022301050401
 30
0.0
 10
-66.4125234481484
 20
24.34196942868572
 30
0.0
 10
-66.51946933225616
 20
24.47173158340654
 30
0.0
 10
-66.58894032301643
 20
24.58072746912954
 30
0.0
 10
-66.63044115913752
 20
24.65842010365571
 30
0.0
  0
SPLINE
  5
12C
330
1F
100
AcDbEntity
  8
0
  6
Continuous
 62
     7
370
    25
100
AcDbSpline
210
0.0
220
0.0
230
1.0
 70
     8
 71
     3
 72
    21
 73
    17
 74
     0
 42
0.00000001
 43
0.00000001
 40
0.0
 40
0.0
 40
0.0
 40
0.0
 40
0.1210804245006118
 40
0.1800682782218559
 40
0.2391896643238556
 40
0.2987059533012314
 40
0.3588810785072301
 40
0.4203687292950606
 40
0.4834483096802261
 40
0.5465664849029384
 40
0.6086986022254206
 40
0.670186253013248
 40
0.7318650366033053
 40
0.7952033026033165
 40
0.8603707753071415
 40
1.0
 40
1.0
 40
1.0
 40
1.0
 10
-64.16249244118887
 20
25.269097186989
 30
0.0
 10
-64.16340716842616
 20
25.18607454663901
 30
0.0
 10
-64.17218679272551
 20
25.06222273965108
 30
0.0
 10
-64.20826807699831
 20
24.90177559542161
 30
0.0
 10
-64.24664347391207
 20
24.78591321993751
 30
0.0
 10
-64.29420405375919
 20
24.6726422862259
 30
0.0
 10
-64.35265931245848
 20
24.56267917002542
 30
0.0
 10
-64.42258573164594
 20
24.45672326874593
 30
0.0
 10
-64.50182945066074
 20
24.35504126577326
 30
0.0
 10
-64.58985369618463
 20
24.26002502245051
 30
0.0
 10
-64.68867324099159
 20
24.17789202679021
 30
0.0
 10
-64.79517398568768
 20
24.10793527834099
 30
0.0
 10
-64.90991666419055
 20
24.05049765125278
 30
0.0
 10
-65.03312671641437
 20
24.00657197746614
 30
0.0
 10
-65.21235855944573
 20
23.96342562216258
 30
0.0
 10
-65.35328025478427
 20
23.95242933912123
 30
0.0
 10
-65.4490509347786
 20
23.95239045621977
 30
0.0
  0
SPLINE
  5
12D
330
1F
100
AcDbEntity
  8
0
  6
Continuous
 62
     7
370
    25
100
AcDbSpline
210
0.0
220
0.0
230
1.0
 70
     8
 71
     3
 72
    13
 73
     9
 74
     0
 42
0.00000001
 43
0.00000001
 40
0.0
 40
0.0
 40
0.0
 40
0.0
 40
0.2534216680665266
 40
0.3767041167575432
 40
0.4994491585174913
 40
0.6225715734186964
 40
0.7462320999755214
 40
1.0
 40
1.0
 40
1.0
 40
1.0
 10
-64.45696359503505
 20
26.12306353314287
 30
0.0
 10
-64.40941233254038
 20
26.06157170931755
 30
0.0
 10
-64.3442484998118
 20
25.96550243803708
 30
0.0
 10
-64.27607572345528
 20
25.82799140180547
 30
0.0
 10
-64.23449662173431
 20
25.72245115208749
 30
0.0
 10
-64.20234918900758
 20
25.61356346027199
 30
0.0
 10
-64.17072180945004
 20
25.46301974931275
 30
0.0
 10
-64.16344572939403
 20
25.3468908891481
 30
0.0
 10
-64.16249244118887
 20
25.269097186989
 30
0.0
  0
SPLINE
  5
12E
330
1F
100
AcDbEntity
  8
0
  6
Continuous
 62
     7
370
    25
100
AcDbSpline
210
0.0
220
0.0
230
1.0
 70
     8
 71
     3
 72
    13
 73
     9
 74
     0
 42
0.00000001
 43
0.00000001
 40
0.0
 40
0.0
 40
0.0
 40
0.0
 40
0.2602406645595056
 40
0.3836752253642184
 40
0.5046599577622765
 40
0.6253567426858504
 40
0.7464106650135791
 40
1.0
 40
1.0
 40
1.0
 40
1.0
 10
-65.45676327452222
 20
26.59982635365565
 30
0.0
 10
-65.35730706340581
 20
26.59862777346922
 30
0.0
 10
-65.20943126642965
 20
26.58759892260998
 30
0.0
 10
-65.02288524045885
 20
26.53510451972163
 30
0.0
 10
-64.89254380573517
 20
26.48347199000545
 30
0.0
 10
-64.77096678270367
 20
26.41543244464073
 30
0.0
 10
-64.61630463072431
 20
26.30466991766556
 30
0.0
 10
-64.51753665531822
 20
26.19878808229559
 30
0.0
 10
-64.45696359503505
 20
26.12306353314287
 30
0.0
  0
SPLINE
  5
12F
330
1F
100
AcDbEntity
  8
0
  6
Continuous
 62
     7
370
    25
100
AcDbSpline
210
0.0
220
0.0
230
1.0
 70
     8
 71
     3
 72
    13
 73
     9
 74
     0
 42
0.00000001
 43
0.00000001
 40
0.0
 40
0.0
 40
0.0
 40
0.0
 40
0.255257368140996
 40
0.3772478104725325
 40
0.4977415562850415
 40
0.6181201760750441
 40
0.7409671592206359
 40
1.0
 40
1.0
 40
1.0
 40
1.0
 10
-66.48671119118899
 20
26.09642090493769
 30
0.0
 10
-66.42532404749556
 20
26.17708101753691
 30
0.0
 10
-66.32188113335735
 20
26.2867207079589
 30
0.0
 10
-66.16360595756521
 20
26.40579149326017
 30
0.0
 10
-66.03793644598943
 20
26.47700323996782
 30
0.0
 10
-65.90409210048276
 20
26.53208887145719
 30
0.0
 10
-65.71149903733054
 20
26.58537812161654
 30
0.0
 10
-65.55959077660245
 20
26.60025832723722
 30
0.0
 10
-65.45676327452222
 20
26.59982635365565
 30
0.0
  0
SPLINE
  5
130
330
1F
100
AcDbEntity
  8
0
  6
Continuous
 62
     7
370
    25
100
AcDbSpline
210
0.0
220
0.0
230
1.0
 70
     8
 71
     3
 72
    13
 73
     9
 74
     0
 42
0.00000001
 43
0.00000001
 40
0.0
 40
0.0
 40
0.0
 40
0.0
 40
0.2703816178319617
 40
0.3984601291783004
 40
0.5227503451014437
 40
0.6438255660090793
 40
0.7637452368382556
 40
1.0
 40
1.0
 40
1.0
 40
1.0
 10
-66.76505654375298
 20
25.20880071262999
 30
0.0
 10
-66.76346707909863
 20
25.29406035411341
 30
0.0
 10
-66.75610604559668
 20
25.42004269347253
 30
0.0
 10
-66.72550456217175
 20
25.58239881192259
 30
0.0
 10
-66.69449442911134
 20
25.69622516255754
 30
0.0
 10
-66.65611765144219
 20
25.80510689635052
 30
0.0
 10
-66.59250688344798
 20
25.94189291824112
 30
0.0
 10
-66.53259784306175
 20
26.03753208158843
 30
0.0
 10
-66.48671119118887
 20
26.09642090493769
 30
0.0
  0
SPLINE
  5
132
330
1F
100
AcDbEntity
  8
0
  6
Continuous
 62
     7
370
    25
100
AcDbSpline
210
0.0
220
0.0
230
1.0
 70
     8
 71
     3
 72
    21
 73
    17
 74
     0
 42
0.00000001
 43
0.00000001
 40
0.0
 40
0.0
 40
0.0
 40
0.0
 40
0.1276691474530424
 40
0.1889505232706536
 40
0.2490548673082992
 40
0.3090713134763196
 40
0.3692223593686933
 40
0.4301747620269846
 40
0.4926019887960209
 40
0.555346876893578
 40
0.6169627615204942
 40
0.678170777192346
 40
0.73924652255152
 40
0.8016089422160485
 40
0.8655244124565523
 40
1.0
 40
1.0
 40
1.0
 40
1.0
 10
-65.4097881142658
 20
24.26649302032235
 30
0.0
 10
-65.34677695988167
 20
24.2661433360194
 30
0.0
 10
-65.25364870898886
 20
24.27486230068077
 30
0.0
 10
-65.13366664391663
 20
24.30192876066151
 30
0.0
 10
-65.04889436885686
 20
24.33099983173859
 30
0.0
 10
-64.96799641618345
 20
24.3681890939299
 30
0.0
 10
-64.89110281396083
 20
24.41399216866957
 30
0.0
 10
-64.8188200846469
 20
24.46864463318532
 30
0.0
 10
-64.75011295467404
 20
24.52970520515629
 30
0.0
 10
-64.68838737586825
 20
24.59827239169976
 30
0.0
 10
-64.63304738275033
 20
24.67131031694558
 30
0.0
 10
-64.58666328631324
 20
24.74947232532399
 30
0.0
 10
-64.54879037180528
 20
24.83240257236363
 30
0.0
 10
-64.51754460685389
 20
24.9194851521114
 30
0.0
 10
-64.48726407618067
 20
25.04469844335966
 30
0.0
 10
-64.478383729761
 20
25.14255470162119
 30
0.0
 10
-64.47659500529146
 20
25.20880071262999
 30
0.0
  0
SPLINE
  5
133
330
1F
100
AcDbEntity
  8
0
  6
Continuous
 62
     7
370
    25
100
AcDbSpline
210
0.0
220
0.0
230
1.0
 70
     8
 71
     3
 72
    17
 73
    13
 74
     0
 42
0.00000001
 43
0.00000001
 40
0.0
 40
0.0
 40
0.0
 40
0.0
 40
0.2079350339033564
 40
0.2946939715678991
 40
0.3697315241424307
 40
0.440830943802725
 40
0.5142509140460771
 40
0.5913900390896499
 40
0.6722743046458497
 40
0.7543412603705406
 40
0.8361211059014766
 40
1.0
 40
1.0
 40
1.0
 40
1.0
 10
-66.35139468477857
 20
24.80495455878384
 30
0.0
 10
-66.30886995877583
 20
24.73840707488084
 30
0.0
 10
-66.2417541891056
 20
24.64877660942932
 30
0.0
 10
-66.14825640010503
 20
24.54395767780026
 30
0.0
 10
-66.08220456027114
 20
24.48493635266713
 30
0.0
 10
-66.01408294138311
 20
24.43672999489832
 30
0.0
 10
-65.94120399739789
 20
24.39457885283558
 30
0.0
 10
-65.86195809906702
 20
24.35647834035026
 30
0.0
 10
-65.7763872873156
 20
24.32489310966379
 30
0.0
 10
-65.68712654405218
 20
24.29903483287321
 30
0.0
 10
-65.56527825057967
 20
24.27351525084698
 30
0.0
 10
-65.47198201820581
 20
24.26619218957315
 30
0.0
 10
-65.4097881142658
 20
24.26649302032235
 30
0.0
  0
SPLINE
  5
137
330
1F
100
AcDbEntity
  8
0
  6
Continuous
 62
     7
370
    25
100
AcDbSpline
210
0.0
220
0.0
230
1.0
 70
     8
 71
     3
 72
    13
 73
     9
 74
     0
 42
0.00000001
 43
0.00000001
 40
0.0
 40
0.0
 40
0.0
 40
0.0
 40
0.2518550583969853
 40
0.3726997642744652
 40
0.4928354033771648
 40
0.6137300878654817
 40
0.7379150246176973
 40
1.0
 40
1.0
 40
1.0
 40
1.0
 10
-56.83576968477866
 20
23.95239045621977
 30
0.0
 10
-56.93600586426651
 20
23.95158310576873
 30
0.0
 10
-57.08441872112991
 20
23.96632065798976
 30
0.0
 10
-57.27447157676291
 20
24.01574026370956
 30
0.0
 10
-57.40939878350204
 20
24.06686415169379
 30
0.0
 10
-57.53806506244131
 20
24.13505526503168
 30
0.0
 10
-57.70469265293065
 20
24.24968943247008
 30
0.0
 10
-57.8132036038842
 20
24.36021890662066
 30
0.0
 10
-57.8804411591376
 20
24.43967010365566
 30
0.0
  0
SPLINE
  5
138
330
1F
100
AcDbEntity
  8
0
  6
Continuous
 62
     7
370
    25
100
AcDbSpline
210
0.0
220
0.0
230
1.0
 70
     8
 71
     3
 72
    21
 73
    17
 74
     0
 42
0.00000001
 43
0.00000001
 40
0.0
 40
0.0
 40
0.0
 40
0.0
 40
0.1280988297755863
 40
0.1896694721890465
 40
0.2507063934632511
 40
0.311890666438603
 40
0.3732647830705283
 40
0.4358087922280679
 40
0.500424455805957
 40
0.5650608900029817
 40
0.6276710388631751
 40
0.6893315462593366
 40
0.7500699293139468
 40
0.8109958734420368
 40
0.8725665158555028
 40
1.0
 40
1.0
 40
1.0
 40
1.0
 10
-55.50223603093252
 20
25.28311962288643
 30
0.0
 10
-55.50244402319471
 20
25.19361326685798
 30
0.0
 10
-55.51395095712974
 20
25.06091761134965
 30
0.0
 10
-55.55462753317486
 20
24.89021043046058
 30
0.0
 10
-55.59758057828268
 20
24.76889616059841
 30
0.0
 10
-55.65341225963394
 20
24.65316283372343
 30
0.0
 10
-55.72016220779963
 20
24.54212057248872
 30
0.0
 10
-55.80022434155985
 20
24.43717502942622
 30
0.0
 10
-55.89145610346647
 20
24.33877998108724
 30
0.0
 10
-55.99052770218016
 20
24.24819219254881
 30
0.0
 10
-56.09640039473385
 20
24.16895049582757
 30
0.0
 10
-56.20746043305547
 20
24.10241239820598
 30
0.0
 10
-56.32313280753254
 20
24.04682001100566
 30
0.0
 10
-56.44440651842153
 20
24.00496243606698
 30
0.0
 10
-56.61447316230139
 20
23.96410296397822
 30
0.0
 10
-56.74674027314686
 20
23.95260855588732
 30
0.0
 10
-56.83576968477866
 20
23.95239045621977
 30
0.0
  0
SPLINE
  5
139
330
1F
100
AcDbEntity
  8
0
  6
Continuous
 62
     7
370
    25
100
AcDbSpline
210
0.0
220
0.0
230
1.0
 70
     8
 71
     3
 72
    21
 73
    17
 74
     0
 42
0.00000001
 43
0.00000001
 40
0.0
 40
0.0
 40
0.0
 40
0.0
 40
0.1283692574311769
 40
0.190417708860092
 40
0.2519211667422389
 40
0.3132736507580476
 40
0.3750861342515197
 40
0.438389176770406
 40
0.5032092055629105
 40
0.5679667722557898
 40
0.630868101539027
 40
0.6919966438355534
 40
0.7524260650823844
 40
0.8130959072527861
 40
0.8739211900104884
 40
1.0
 40
1.0
 40
1.0
 40
1.0
 10
-56.8455853899068
 20
26.59982635365565
 30
0.0
 10
-56.75617215761586
 20
26.59902873199682
 30
0.0
 10
-56.623148036682
 20
26.58888532815462
 30
0.0
 10
-56.45193540240956
 20
26.5482058437303
 30
0.0
 10
-56.33036982225236
 20
26.50483157923444
 30
0.0
 10
-56.21310640580523
 20
26.45116880480791
 30
0.0
 10
-56.10188323077725
 20
26.38345447543134
 30
0.0
 10
-55.9949744847803
 20
26.30504473459205
 30
0.0
 10
-55.89503966402165
 20
26.21482431010547
 30
0.0
 10
-55.80278747370582
 20
26.11715304114304
 30
0.0
 10
-55.72276756274741
 20
26.01238362307534
 30
0.0
 10
-55.65484230377737
 20
25.90297971670319
 30
0.0
 10
-55.59898995745205
 20
25.78863921890328
 30
0.0
 10
-55.555480990366
 20
25.66928395375456
 30
0.0
 10
-55.51348515935673
 20
25.50155193741899
 30
0.0
 10
-55.50275368446378
 20
25.3709373867208
 30
0.0
 10
-55.50223603093252
 20
25.28311962288643
 30
0.0
  0
SPLINE
  5
13A
330
1F
100
AcDbEntity
  8
0
  6
Continuous
 62
     7
370
    25
100
AcDbSpline
210
0.0
220
0.0
230
1.0
 70
     8
 71
     3
 72
    13
 73
     9
 74
     0
 42
0.00000001
 43
0.00000001
 40
0.0
 40
0.0
 40
0.0
 40
0.0
 40
0.2618944458316544
 40
0.3852022807004848
 40
0.5047447481824054
 40
0.6239854458062233
 40
0.745346469102679
 40
1.0
 40
1.0
 40
1.0
 40
1.0
 10
-57.8804411591376
 20
26.08169734724541
 30
0.0
 10
-57.81851120462422
 20
26.16665521891304
 30
0.0
 10
-57.71524180637233
 20
26.28372179434568
 30
0.0
 10
-57.55331880552117
 20
26.40687593481861
 30
0.0
 10
-57.42618225585361
 20
26.47856675114446
 30
0.0
 10
-57.29151918062614
 20
26.53242838440284
 30
0.0
 10
-57.09952140445329
 20
26.58640731876205
 30
0.0
 10
-56.94777807333451
 20
26.59952738384086
 30
0.0
 10
-56.8455853899068
 20
26.59982635365565
 30
0.0
  0
SPLINE
  5
13D
330
1F
100
AcDbEntity
  8
0
  6
Continuous
 62
     7
370
    25
100
AcDbSpline
210
0.0
220
0.0
230
1.0
 70
     8
 71
     3
 72
    13
 73
     9
 74
     0
 42
0.00000001
 43
0.00000001
 40
0.0
 40
0.0
 40
0.0
 40
0.0
 40
0.2407702368354425
 40
0.3613679915788172
 40
0.4880203848743234
 40
0.6156588752209213
 40
0.7417159076830835
 40
1.0
 40
1.0
 40
1.0
 40
1.0
 10
-59.31633859503505
 20
27.36124462288647
 30
0.0
 10
-59.31653974985029
 20
27.39690205219258
 30
0.0
 10
-59.30517278836112
 20
27.45020255060404
 30
0.0
 10
-59.2691690104854
 20
27.51331009896307
 30
0.0
 10
-59.23096700835784
 20
27.55386966393214
 30
0.0
 10
-59.18637884272226
 20
27.58831438326481
 30
0.0
 10
-59.11866885952654
 20
27.62310544428126
 30
0.0
 10
-59.06126791940969
 20
27.63180340380356
 30
0.0
 10
-59.02326968477867
 20
27.63187763570696
 30
0.0
  0
SPLINE
  5
13E
330
1F
100
AcDbEntity
  8
0
  6
Continuous
 62
     7
370
    25
100
AcDbSpline
210
0.0
220
0.0
230
1.0
 70
     8
 71
     3
 72
    13
 73
     9
 74
     0
 42
0.00000001
 43
0.00000001
 40
0.0
 40
0.0
 40
0.0
 40
0.0
 40
0.2598496298712539
 40
0.3866707319148509
 40
0.5150828775346947
 40
0.6425029490726826
 40
0.7624536797230972
 40
1.0
 40
1.0
 40
1.0
 40
1.0
 10
-59.02326968477867
 20
27.09341609724536
 30
0.0
 10
-59.06126561274361
 20
27.09349173653586
 30
0.0
 10
-59.11867327425225
 20
27.1021855950746
 30
0.0
 10
-59.18637236816105
 20
27.13698330007031
 30
0.0
 10
-59.23099155599421
 20
27.17140909154747
 30
0.0
 10
-59.26894086223833
 20
27.21188948629338
 30
0.0
 10
-59.30510029812608
 20
27.27384120645637
 30
0.0
 10
-59.3164128898217
 20
27.32630441508843
 30
0.0
 10
-59.31633859503505
 20
27.36124462288647
 30
0.0
  0
SPLINE
  5
13F
330
1F
100
AcDbEntity
  8
0
  6
Continuous
 62
     7
370
    25
100
AcDbSpline
210
0.0
220
0.0
230
1.0
 70
     8
 71
     3
 72
    13
 73
     9
 74
     0
 42
0.00000001
 43
0.00000001
 40
0.0
 40
0.0
 40
0.0
 40
0.0
 40
0.2389149952220574
 40
0.3595568481745961
 40
0.486634766847336
 40
0.6157867870573872
 40
0.7433385965465394
 40
1.0
 40
1.0
 40
1.0
 40
1.0
 10
-58.73300526170166
 20
27.36124462288647
 30
0.0
 10
-58.73297140975853
 20
27.32634095903419
 30
0.0
 10
-58.744163679048
 20
27.27376902769329
 30
0.0
 10
-58.78044665374838
 20
27.21213776139741
 30
0.0
 10
-58.81762787253808
 20
27.17118247918637
 30
0.0
 10
-58.86230407219462
 20
27.13699658851343
 30
0.0
 10
-58.92936177459407
 20
27.10259600604781
 30
0.0
 10
-58.98586943338935
 20
27.09318091146473
 30
0.0
 10
-59.02326968477867
 20
27.09341609724536
 30
0.0
  0
SPLINE
  5
140
330
1F
100
AcDbEntity
  8
0
  6
Continuous
 62
     7
370
    25
100
AcDbSpline
210
0.0
220
0.0
230
1.0
 70
     8
 71
     3
 72
    13
 73
     9
 74
     0
 42
0.00000001
 43
0.00000001
 40
0.0
 40
0.0
 40
0.0
 40
0.0
 40
0.2551062187428466
 40
0.3818851554071034
 40
0.5102546066587019
 40
0.6365625239462811
 40
0.757850918666084
 40
1.0
 40
1.0
 40
1.0
 40
1.0
 10
-59.02326968477867
 20
27.63187763570696
 30
0.0
 10
-58.98586714400511
 20
27.63211422401768
 30
0.0
 10
-58.92936615566846
 20
27.62269504295678
 30
0.0
 10
-58.86229753676508
 20
27.58830114819477
 30
0.0
 10
-58.81765254478577
 20
27.55409613897453
 30
0.0
 10
-58.78022101217118
 20
27.51305982589769
 30
0.0
 10
-58.74408927735442
 20
27.45027652103471
 30
0.0
 10
-58.73284609774576
 20
27.39686407636255
 30
0.0
 10
-58.73300526170166
 20
27.36124462288647
 30
0.0
  0
SPLINE
  5
147
330
1F
100
AcDbEntity
  8
0
  6
Continuous
 62
     7
370
    25
100
AcDbSpline
210
0.0
220
0.0
230
1.0
 70
     8
 71
     3
 72
    13
 73
     9
 74
     0
 42
0.00000001
 43
0.00000001
 40
0.0
 40
0.0
 40
0.0
 40
0.0
 40
0.2434110992594185
 40
0.3618899784752194
 40
0.4800702186075756
 40
0.601011686195775
 40
0.7264312190368046
 40
1.0
 40
1.0
 40
1.0
 40
1.0
 10
-61.23180333862477
 20
26.59982635365565
 30
0.0
 10
-61.13935366051126
 20
26.59935011318937
 30
0.0
 10
-61.00131986654978
 20
26.58582238385576
 30
0.0
 10
-60.8258179376645
 20
26.53423178457526
 30
0.0
 10
-60.70018945471556
 20
26.48144054143808
 30
0.0
 10
-60.58021690859117
 20
26.41130510205825
 30
0.0
 10
-60.42289786955524
 20
26.29074428273947
 30
0.0
 10
-60.32200309156421
 20
26.17582367965532
 30
0.0
 10
-60.25864628734278
 20
26.0936164177582
 30
0.0
  0
SPLINE
  5
148
330
1F
100
AcDbEntity
  8
0
  6
Continuous
 62
     7
370
    25
100
AcDbSpline
210
0.0
220
0.0
230
1.0
 70
     8
 71
     3
 72
    21
 73
    17
 74
     0
 42
0.00000001
 43
0.00000001
 40
0.0
 40
0.0
 40
0.0
 40
0.0
 40
0.1317255445271741
 40
0.1906683746814265
 40
0.2451968850948476
 40
0.2955087738855862
 40
0.3412437630224658
 40
0.3833864553034254
 40
0.4214402664762985
 40
0.492956384356707
 40
0.5628694745136158
 40
0.6330237453801784
 40
0.7044573558011064
 40
0.7765120161995835
 40
0.8488218595336068
 40
1.0
 40
1.0
 40
1.0
 40
1.0
 10
-62.18813346682994
 20
25.30345215493768
 30
0.0
 10
-62.18891341936506
 20
25.38413885812785
 30
0.0
 10
-62.18507267444806
 20
25.5009298255694
 30
0.0
 10
-62.17343990659885
 20
25.65065640262198
 30
0.0
 10
-62.16287894185258
 20
25.75045459431779
 30
0.0
 10
-62.14724336979283
 20
25.84139418229425
 30
0.0
 10
-62.12921328169374
 20
25.92411233611747
 30
0.0
 10
-62.10798073647439
 20
25.99835907773041
 30
0.0
 10
-62.07425514367648
 20
26.08504790815469
 30
0.0
 10
-62.02305777784001
 20
26.18277081267983
 30
0.0
 10
-61.94669444382605
 20
26.28810791152469
 30
0.0
 10
-61.85436994380056
 20
26.37968190590656
 30
0.0
 10
-61.74924138326177
 20
26.45830281336048
 30
0.0
 10
-61.63262692437155
 20
26.52146029663727
 30
0.0
 10
-61.46205512414538
 20
26.58421210459694
 30
0.0
 10
-61.32417898413212
 20
26.59921457848768
 30
0.0
 10
-61.23180333862477
 20
26.59982635365565
 30
0.0
  0
SPLINE
  5
14C
330
1F
100
AcDbEntity
  8
0
  6
Continuous
 62
     7
370
    25
100
AcDbSpline
210
0.0
220
0.0
230
1.0
 70
     8
 71
     3
 72
    13
 73
     9
 74
     0
 42
0.00000001
 43
0.00000001
 40
0.0
 40
0.0
 40
0.0
 40
0.0
 40
0.1585173269300211
 40
0.2599203239142082
 40
0.3767455717754368
 40
0.5101743366316052
 40
0.657890351057701
 40
1.0
 40
1.0
 40
1.0
 40
1.0
 10
-61.83687144759919
 20
25.78231834083511
 30
0.0
 10
-61.8439340824799
 20
25.75226241554118
 30
0.0
 10
-61.85239916258289
 20
25.7022992784558
 30
0.0
 10
-61.85975089288853
 20
25.62930274819142
 30
0.0
 10
-61.86554877868544
 20
25.56107309707789
 30
0.0
 10
-61.86949264179187
 20
25.48367445584443
 30
0.0
 10
-61.8734249622751
 20
25.36238149864967
 30
0.0
 10
-61.87353633084414
 20
25.26699029942159
 30
0.0
 10
-61.87403090272736
 20
25.20038725109153
 30
0.0
  0
SPLINE
  5
14D
330
1F
100
AcDbEntity
  8
0
  6
Continuous
 62
     7
370
    25
100
AcDbSpline
210
0.0
220
0.0
230
1.0
 70
     8
 71
     3
 72
    13
 73
     9
 74
     0
 42
0.00000001
 43
0.00000001
 40
0.0
 40
0.0
 40
0.0
 40
0.0
 40
0.2700189621433429
 40
0.3907190350710782
 40
0.5068223535253182
 40
0.6215239708754532
 40
0.7391668368063029
 40
1.0
 40
1.0
 40
1.0
 40
1.0
 10
-61.17711583862484
 20
26.28572378955307
 30
0.0
 10
-61.25876720500734
 20
26.28618792711524
 30
0.0
 10
-61.37789895970469
 20
26.2728665793156
 30
0.0
 10
-61.5223196497876
 20
26.2186426622264
 30
0.0
 10
-61.61355906057542
 20
26.16252185810153
 30
0.0
 10
-61.69140713791077
 20
26.0903259733154
 30
0.0
 10
-61.77967315583843
 20
25.96874851511166
 30
0.0
 10
-61.81934914653486
 20
25.85912498238851
 30
0.0
 10
-61.83687144759919
 20
25.78231834083511
 30
0.0
  0
SPLINE
  5
14E
330
1F
100
AcDbEntity
  8
0
  6
Continuous
 62
     7
370
    25
100
AcDbSpline
210
0.0
220
0.0
230
1.0
 70
     8
 71
     3
 72
    21
 73
    17
 74
     0
 42
0.00000001
 43
0.00000001
 40
0.0
 40
0.0
 40
0.0
 40
0.0
 40
0.1238830745189146
 40
0.1847816479826848
 40
0.2456024656876798
 40
0.3070653910745305
 40
0.3692286662507878
 40
0.4320259048597126
 40
0.4970795873926179
 40
0.5618524691217699
 40
0.6254263815420402
 40
0.6876488370376828
 40
0.7497698060395667
 40
0.8110156280184817
 40
0.8733731419104944
 40
1.0
 40
1.0
 40
1.0
 40
1.0
 10
-60.3070236911889
 20
25.60844013570696
 30
0.0
 10
-60.31961299311095
 20
25.65569698386994
 30
0.0
 10
-60.34403754496087
 20
25.72472917382285
 30
0.0
 10
-60.38755907816829
 20
25.81146124613143
 30
0.0
 10
-60.4247148204361
 20
25.87359888840224
 30
0.0
 10
-60.46778960306997
 20
25.93239726131846
 30
0.0
 10
-60.51532596010711
 20
25.98867329616905
 30
0.0
 10
-60.56865475348927
 20
26.04151767984064
 30
0.0
 10
-60.62596743549498
 20
26.09159695507401
 30
0.0
 10
-60.68757086342136
 20
26.13678743593817
 30
0.0
 10
-60.75107763039311
 20
26.17733612933804
 30
0.0
 10
-60.81784188115647
 20
26.20986375541911
 30
0.0
 10
-60.88534983208638
 20
26.23853246283259
 30
0.0
 10
-60.9557694568883
 20
26.25937726077099
 30
0.0
 10
-61.05240691201453
 20
26.28026809934858
 30
0.0
 10
-61.12714069807357
 20
26.28596293974872
 30
0.0
 10
-61.17711583862484
 20
26.28572378955307
 30
0.0
  0
SPLINE
  5
14F
330
1F
100
AcDbEntity
  8
0
  6
Continuous
 62
     7
370
    25
100
AcDbSpline
210
0.0
220
0.0
230
1.0
 70
     8
 71
     3
 72
    13
 73
     9
 74
     0
 42
0.00000001
 43
0.00000001
 40
0.0
 40
0.0
 40
0.0
 40
0.0
 40
0.3336012413919295
 40
0.4791571975344256
 40
0.6105404974279318
 40
0.7289476063657787
 40
0.8323849228168392
 40
1.0
 40
1.0
 40
1.0
 40
1.0
 10
-60.25864628734278
 20
24.92204189852743
 30
0.0
 10
-60.2591147032765
 20
24.99868541693295
 30
0.0
 10
-60.25894227391471
 20
25.10885700586496
 30
0.0
 10
-60.26549448444518
 20
25.24901644430255
 30
0.0
 10
-60.26979371497055
 20
25.33977592152248
 30
0.0
 10
-60.27685790099391
 20
25.42066237436424
 30
0.0
 10
-60.2872305777078
 20
25.50956684385797
 30
0.0
 10
-60.29766837704897
 20
25.57104236674201
 30
0.0
 10
-60.3070236911889
 20
25.60844013570696
 30
0.0
  0
LINE
  5
16D
330
1F
100
AcDbEntity
  8
0
  6
Continuous
 62
     7
370
    25
100
AcDbLine
 10
-116.3035180822
 20
26.5549545588
 30
0.0
 11
-115.9894155181
 21
26.5549545588
 31
0.0
  0
LINE
  5
16E
330
1F
100
AcDbEntity
  8
0
  6
Continuous
 62
     7
370
    25
100
AcDbLine
 10
-116.3035180822
 20
26.1784521549
 30
0.0
 11
-116.3035180822
 21
26.5549545588
 31
0.0
  0
LINE
  5
16F
330
1F
100
AcDbEntity
  8
0
  6
Continuous
 62
     7
370
    25
100
AcDbLine
 10
-117.0284780181
 20
26.2401508729
 30
0.0
 11
-117.2009539797
 21
26.5121861293
 31
0.0
  0
LINE
  5
170
330
1F
100
AcDbEntity
  8
0
  6
Continuous
 62
     7
370
    25
100
AcDbLine
 10
-116.3035180822
 20
23.9972622511
 30
0.0
 11
-116.3035180822
 21
24.8568375716
 31
0.0
  0
LINE
  5
171
330
1F
100
AcDbEntity
  8
0
  6
Continuous
 62
     7
370
    25
100
AcDbLine
 10
-115.9894155181
 20
23.9972622511
 30
0.0
 11
-116.3035180822
 21
23.9972622511
 31
0.0
  0
LINE
  5
172
330
1F
100
AcDbEntity
  8
0
  6
Continuous
 62
     7
370
    25
100
AcDbLine
 10
-115.9894155181
 20
26.5549545588
 30
0.0
 11
-115.9894155181
 21
23.9972622511
 31
0.0
  0
LINE
  5
173
330
1F
100
AcDbEntity
  8
0
  6
Continuous
 62
     7
370
    25
100
AcDbLine
 10
-115.316338595
 20
24.6584201037
 30
0.0
 11
-115.0372921207
 21
24.8049545588
 31
0.0
  0
LINE
  5
174
330
1F
100
AcDbEntity
  8
0
  6
Continuous
 62
     7
370
    25
100
AcDbLine
 10
-113.1624924412
 20
25.2088007126
 30
0.0
 11
-115.4509539797
 21
25.2088007126
 31
0.0
  0
LINE
  5
175
330
1F
100
AcDbEntity
  8
0
  6
Continuous
 62
     7
370
    25
100
AcDbLine
 10
-110.3615108707
 20
26.5549545588
 30
0.0
 11
-110.0214668002
 21
26.5549545588
 31
0.0
  0
LINE
  5
176
330
1F
100
AcDbEntity
  8
0
  6
Continuous
 62
     7
370
    25
100
AcDbLine
 10
-111.2105693643
 20
24.6927750716
 30
0.0
 11
-110.3615108707
 21
26.5549545588
 31
0.0
  0
LINE
  5
177
330
1F
100
AcDbEntity
  8
0
  6
Continuous
 62
     7
370
    25
100
AcDbLine
 10
-112.0596278579
 20
26.5549545588
 30
0.0
 11
-111.2105693643
 21
24.6927750716
 31
0.0
  0
LINE
  5
178
330
1F
100
AcDbEntity
  8
0
  6
Continuous
 62
     7
370
    25
100
AcDbLine
 10
-112.3996719284
 20
26.5549545588
 30
0.0
 11
-112.0596278579
 21
26.5549545588
 31
0.0
  0
LINE
  5
179
330
1F
100
AcDbEntity
  8
0
  6
Continuous
 62
     7
370
    25
100
AcDbLine
 10
-111.2330052617
 20
23.9972622511
 30
0.0
 11
-112.3996719284
 21
26.5549545588
 31
0.0
  0
LINE
  5
17A
330
1F
100
AcDbEntity
  8
0
  6
Continuous
 62
     7
370
    25
100
AcDbLine
 10
-111.1881334668
 20
23.9972622511
 30
0.0
 11
-111.2330052617
 21
23.9972622511
 31
0.0
  0
LINE
  5
17B
330
1F
100
AcDbEntity
  8
0
  6
Continuous
 62
     7
370
    25
100
AcDbLine
 10
-110.0214668002
 20
26.5549545588
 30
0.0
 11
-111.1881334668
 21
23.9972622511
 31
0.0
  0
LINE
  5
17C
330
1F
100
AcDbEntity
  8
0
  6
Continuous
 62
     7
370
    25
100
AcDbLine
 10
-106.2136743322
 20
25.8370058408
 30
0.0
 11
-106.4765950053
 21
26.000367219
 31
0.0
  0
LINE
  5
17D
330
1F
100
AcDbEntity
  8
0
  6
Continuous
 62
     7
370
    25
100
AcDbLine
 10
-106.4765950053
 20
24.5427350075
 30
0.0
 11
-106.2136743322
 21
24.715210969
 31
0.0
  0
LINE
  5
17E
330
1F
100
AcDbEntity
  8
0
  6
Continuous
 62
     7
370
    25
100
AcDbLine
 10
-101.6304411591
 20
27.5870058408
 30
0.0
 11
-101.316338595
 21
27.5870058408
 31
0.0
  0
LINE
  5
17F
330
1F
100
AcDbEntity
  8
0
  6
Continuous
 62
     7
370
    25
100
AcDbLine
 10
-101.6304411591
 20
26.5549545588
 30
0.0
 11
-101.6304411591
 21
27.5870058408
 31
0.0
  0
LINE
  5
180
330
1F
100
AcDbEntity
  8
0
  6
Continuous
 62
     7
370
    25
100
AcDbLine
 10
-102.0791591079
 20
26.5549545588
 30
0.0
 11
-101.6304411591
 21
26.5549545588
 31
0.0
  0
LINE
  5
181
330
1F
100
AcDbEntity
  8
0
  6
Continuous
 62
     7
370
    25
100
AcDbLine
 10
-102.0791591079
 20
26.2408519947
 30
0.0
 11
-102.0791591079
 21
26.5549545588
 31
0.0
  0
LINE
  5
182
330
1F
100
AcDbEntity
  8
0
  6
Continuous
 62
     7
370
    25
100
AcDbLine
 10
-101.6304411591
 20
26.2408519947
 30
0.0
 11
-102.0791591079
 21
26.2408519947
 31
0.0
  0
LINE
  5
183
330
1F
100
AcDbEntity
  8
0
  6
Continuous
 62
     7
370
    25
100
AcDbLine
 10
-101.6304411591
 20
23.9972622511
 30
0.0
 11
-101.6304411591
 21
26.2408519947
 31
0.0
  0
LINE
  5
184
330
1F
100
AcDbEntity
  8
0
  6
Continuous
 62
     7
370
    25
100
AcDbLine
 10
-101.316338595
 20
23.9972622511
 30
0.0
 11
-101.6304411591
 21
23.9972622511
 31
0.0
  0
LINE
  5
185
330
1F
100
AcDbEntity
  8
0
  6
Continuous
 62
     7
370
    25
100
AcDbLine
 10
-101.316338595
 20
26.2408519947
 30
0.0
 11
-101.316338595
 21
23.9972622511
 31
0.0
  0
LINE
  5
186
330
1F
100
AcDbEntity
  8
0
  6
Continuous
 62
     7
370
    25
100
AcDbLine
 10
-100.8676206463
 20
26.2408519947
 30
0.0
 11
-101.316338595
 21
26.2408519947
 31
0.0
  0
LINE
  5
187
330
1F
100
AcDbEntity
  8
0
  6
Continuous
 62
     7
370
    25
100
AcDbLine
 10
-100.8676206463
 20
26.5549545588
 30
0.0
 11
-100.8676206463
 21
26.2408519947
 31
0.0
  0
LINE
  5
188
330
1F
100
AcDbEntity
  8
0
  6
Continuous
 62
     7
370
    25
100
AcDbLine
 10
-101.316338595
 20
26.5549545588
 30
0.0
 11
-100.8676206463
 21
26.5549545588
 31
0.0
  0
LINE
  5
189
330
1F
100
AcDbEntity
  8
0
  6
Continuous
 62
     7
370
    25
100
AcDbLine
 10
-101.316338595
 20
27.5870058408
 30
0.0
 11
-101.316338595
 21
26.5549545588
 31
0.0
  0
LINE
  5
18A
330
1F
100
AcDbEntity
  8
0
  6
Continuous
 62
     7
370
    25
100
AcDbLine
 10
-98.3548001335
 20
27.5870058408
 30
0.0
 11
-98.0406975694
 21
27.5870058408
 31
0.0
  0
LINE
  5
18B
330
1F
100
AcDbEntity
  8
0
  6
Continuous
 62
     7
370
    25
100
AcDbLine
 10
-98.3548001335
 20
26.0718816421
 30
0.0
 11
-98.3548001335
 21
27.5870058408
 31
0.0
  0
LINE
  5
18C
330
1F
100
AcDbEntity
  8
0
  6
Continuous
 62
     7
370
    25
100
AcDbLine
 10
-100.284287313
 20
23.9972622511
 30
0.0
 11
-100.284287313
 21
25.3034521549
 31
0.0
  0
LINE
  5
18D
330
1F
100
AcDbEntity
  8
0
  6
Continuous
 62
     7
370
    25
100
AcDbLine
 10
-99.9701847489
 20
23.9972622511
 30
0.0
 11
-100.284287313
 21
23.9972622511
 31
0.0
  0
LINE
  5
18E
330
1F
100
AcDbEntity
  8
0
  6
Continuous
 62
     7
370
    25
100
AcDbLine
 10
-99.9701847489
 20
25.2003872511
 30
0.0
 11
-99.9701847489
 21
23.9972622511
 31
0.0
  0
LINE
  5
18F
330
1F
100
AcDbEntity
  8
0
  6
Continuous
 62
     7
370
    25
100
AcDbLine
 10
-98.3548001335
 20
23.9972622511
 30
0.0
 11
-98.3548001335
 21
24.9220418985
 31
0.0
  0
LINE
  5
190
330
1F
100
AcDbEntity
  8
0
  6
Continuous
 62
     7
370
    25
100
AcDbLine
 10
-98.0406975694
 20
23.9972622511
 30
0.0
 11
-98.3548001335
 21
23.9972622511
 31
0.0
  0
LINE
  5
191
330
1F
100
AcDbEntity
  8
0
  6
Continuous
 62
     7
370
    25
100
AcDbLine
 10
-98.0406975694
 20
27.5870058408
 30
0.0
 11
-98.0406975694
 21
23.9972622511
 31
0.0
  0
LINE
  5
192
330
1F
100
AcDbEntity
  8
0
  6
Continuous
 62
     7
370
    25
100
AcDbLine
 10
-92.5214668002
 20
26.5549545588
 30
0.0
 11
-92.2073642361
 21
26.5549545588
 31
0.0
  0
LINE
  5
193
330
1F
100
AcDbEntity
  8
0
  6
Continuous
 62
     7
370
    25
100
AcDbLine
 10
-92.5214668002
 20
26.1784521549
 30
0.0
 11
-92.5214668002
 21
26.5549545588
 31
0.0
  0
LINE
  5
194
330
1F
100
AcDbEntity
  8
0
  6
Continuous
 62
     7
370
    25
100
AcDbLine
 10
-93.2464267361
 20
26.2401508729
 30
0.0
 11
-93.4189026976
 21
26.5121861293
 31
0.0
  0
LINE
  5
195
330
1F
100
AcDbEntity
  8
0
  6
Continuous
 62
     7
370
    25
100
AcDbLine
 10
-92.5214668002
 20
23.9972622511
 30
0.0
 11
-92.5214668002
 21
24.8568375716
 31
0.0
  0
LINE
  5
196
330
1F
100
AcDbEntity
  8
0
  6
Continuous
 62
     7
370
    25
100
AcDbLine
 10
-92.2073642361
 20
23.9972622511
 30
0.0
 11
-92.5214668002
 21
23.9972622511
 31
0.0
  0
LINE
  5
197
330
1F
100
AcDbEntity
  8
0
  6
Continuous
 62
     7
370
    25
100
AcDbLine
 10
-92.2073642361
 20
26.5549545588
 30
0.0
 11
-92.2073642361
 21
23.9972622511
 31
0.0
  0
LINE
  5
198
330
1F
100
AcDbEntity
  8
0
  6
Continuous
 62
     7
370
    25
100
AcDbLine
 10
-94.0022360309
 20
26.5549545588
 30
0.0
 11
-93.6881334668
 21
26.5549545588
 31
0.0
  0
LINE
  5
199
330
1F
100
AcDbEntity
  8
0
  6
Continuous
 62
     7
370
    25
100
AcDbLine
 10
-94.0022360309
 20
23.9972622511
 30
0.0
 11
-94.0022360309
 21
26.5549545588
 31
0.0
  0
LINE
  5
19A
330
1F
100
AcDbEntity
  8
0
  6
Continuous
 62
     7
370
    25
100
AcDbLine
 10
-93.6881334668
 20
23.9972622511
 30
0.0
 11
-94.0022360309
 21
23.9972622511
 31
0.0
  0
LINE
  5
19B
330
1F
100
AcDbEntity
  8
0
  6
Continuous
 62
     7
370
    25
100
AcDbLine
 10
-93.6881334668
 20
26.5549545588
 30
0.0
 11
-93.6881334668
 21
23.9972622511
 31
0.0
  0
LINE
  5
19C
330
1F
100
AcDbEntity
  8
0
  6
Continuous
 62
     7
370
    25
100
AcDbLine
 10
-97.3227488514
 20
26.5549545588
 30
0.0
 11
-97.0086462873
 21
26.5549545588
 31
0.0
  0
LINE
  5
19D
330
1F
100
AcDbEntity
  8
0
  6
Continuous
 62
     7
370
    25
100
AcDbLine
 10
-97.3227488514
 20
24.5252069626
 30
0.0
 11
-97.3227488514
 21
26.5549545588
 31
0.0
  0
LINE
  5
19E
330
1F
100
AcDbEntity
  8
0
  6
Continuous
 62
     7
370
    25
100
AcDbLine
 10
-95.034287313
 20
23.8177750716
 30
0.0
 11
-94.7201847489
 21
23.8177750716
 31
0.0
  0
LINE
  5
19F
330
1F
100
AcDbEntity
  8
0
  6
Continuous
 62
     7
370
    25
100
AcDbLine
 10
-97.0086462873
 20
24.4873463857
 30
0.0
 11
-97.0086462873
 21
24.3548343665
 31
0.0
  0
LINE
  5
1A0
330
1F
100
AcDbEntity
  8
0
  6
Continuous
 62
     7
370
    25
100
AcDbLine
 10
-97.0086462873
 20
26.5549545588
 30
0.0
 11
-97.0086462873
 21
26.1076388537
 31
0.0
  0
LINE
  5
1A1
330
1F
100
AcDbEntity
  8
0
  6
Continuous
 62
     7
370
    25
100
AcDbLine
 10
-90.1881334668
 20
24.6584201037
 30
0.0
 11
-89.9090869925
 21
24.8049545588
 31
0.0
  0
LINE
  5
1A2
330
1F
100
AcDbEntity
  8
0
  6
Continuous
 62
     7
370
    25
100
AcDbLine
 10
-88.034287313
 20
25.2088007126
 30
0.0
 11
-90.3227488514
 21
25.2088007126
 31
0.0
  0
LINE
  5
1A3
330
1F
100
AcDbEntity
  8
0
  6
Continuous
 62
     7
370
    25
100
AcDbLine
 10
-87.0919796207
 20
23.9972622511
 30
0.0
 11
-87.0919796207
 21
27.5870058408
 31
0.0
  0
LINE
  5
1A4
330
1F
100
AcDbEntity
  8
0
  6
Continuous
 62
     7
370
    25
100
AcDbLine
 10
-86.7778770566
 20
23.9972622511
 30
0.0
 11
-87.0919796207
 21
23.9972622511
 31
0.0
  0
LINE
  5
1A5
330
1F
100
AcDbEntity
  8
0
  6
Continuous
 62
     7
370
    25
100
AcDbLine
 10
-86.7778770566
 20
24.4396701037
 30
0.0
 11
-86.7778770566
 21
23.9972622511
 31
0.0
  0
LINE
  5
1A6
330
1F
100
AcDbEntity
  8
0
  6
Continuous
 62
     7
370
    25
100
AcDbLine
 10
-86.7778770566
 20
27.5870058408
 30
0.0
 11
-86.7778770566
 21
26.0599625716
 31
0.0
  0
LINE
  5
1A7
330
1F
100
AcDbEntity
  8
0
  6
Continuous
 62
     7
370
    25
100
AcDbLine
 10
-87.0919796207
 20
27.5870058408
 30
0.0
 11
-86.7778770566
 21
27.5870058408
 31
0.0
  0
LINE
  5
1A8
330
1F
100
AcDbEntity
  8
0
  6
Continuous
 62
     7
370
    25
100
AcDbLine
 10
-83.7265950053
 20
26.5549545588
 30
0.0
 11
-83.4124924412
 21
26.5549545588
 31
0.0
  0
LINE
  5
1A9
330
1F
100
AcDbEntity
  8
0
  6
Continuous
 62
     7
370
    25
100
AcDbLine
 10
-83.7265950053
 20
23.9972622511
 30
0.0
 11
-83.7265950053
 21
26.5549545588
 31
0.0
  0
LINE
  5
1AA
330
1F
100
AcDbEntity
  8
0
  6
Continuous
 62
     7
370
    25
100
AcDbLine
 10
-83.4124924412
 20
23.9972622511
 30
0.0
 11
-83.7265950053
 21
23.9972622511
 31
0.0
  0
LINE
  5
1AB
330
1F
100
AcDbEntity
  8
0
  6
Continuous
 62
     7
370
    25
100
AcDbLine
 10
-83.4124924412
 20
26.5549545588
 30
0.0
 11
-83.4124924412
 21
23.9972622511
 31
0.0
  0
LINE
  5
1AC
330
1F
100
AcDbEntity
  8
0
  6
Continuous
 62
     7
370
    25
100
AcDbLine
 10
-82.5711462873
 20
26.0164930203
 30
0.0
 11
-82.784287313
 21
26.2359441421
 31
0.0
  0
LINE
  5
1AD
330
1F
100
AcDbEntity
  8
0
  6
Continuous
 62
     7
370
    25
100
AcDbLine
 10
-81.5566230502
 20
24.5357237896
 30
0.0
 11
-81.3483898771
 21
24.2987446229
 31
0.0
  0
LINE
  5
1AE
330
1F
100
AcDbEntity
  8
0
  6
Continuous
 62
     7
370
    25
100
AcDbLine
 10
-78.925312954
 20
26.5549545588
 30
0.0
 11
-78.6112103899
 21
26.5549545588
 31
0.0
  0
LINE
  5
1AF
330
1F
100
AcDbEntity
  8
0
  6
Continuous
 62
     7
370
    25
100
AcDbLine
 10
-78.925312954
 20
26.0936164178
 30
0.0
 11
-78.925312954
 21
26.5549545588
 31
0.0
  0
LINE
  5
1B0
330
1F
100
AcDbEntity
  8
0
  6
Continuous
 62
     7
370
    25
100
AcDbLine
 10
-80.8548001335
 20
23.9972622511
 30
0.0
 11
-80.8548001335
 21
25.3034521549
 31
0.0
  0
LINE
  5
1B1
330
1F
100
AcDbEntity
  8
0
  6
Continuous
 62
     7
370
    25
100
AcDbLine
 10
-80.5406975694
 20
23.9972622511
 30
0.0
 11
-80.8548001335
 21
23.9972622511
 31
0.0
  0
LINE
  5
1B2
330
1F
100
AcDbEntity
  8
0
  6
Continuous
 62
     7
370
    25
100
AcDbLine
 10
-80.5406975694
 20
25.2003872511
 30
0.0
 11
-80.5406975694
 21
23.9972622511
 31
0.0
  0
LINE
  5
1B3
330
1F
100
AcDbEntity
  8
0
  6
Continuous
 62
     7
370
    25
100
AcDbLine
 10
-78.925312954
 20
23.9972622511
 30
0.0
 11
-78.925312954
 21
24.9220418985
 31
0.0
  0
LINE
  5
1B4
330
1F
100
AcDbEntity
  8
0
  6
Continuous
 62
     7
370
    25
100
AcDbLine
 10
-78.6112103899
 20
23.9972622511
 30
0.0
 11
-78.925312954
 21
23.9972622511
 31
0.0
  0
LINE
  5
1B5
330
1F
100
AcDbEntity
  8
0
  6
Continuous
 62
     7
370
    25
100
AcDbLine
 10
-78.6112103899
 20
26.5549545588
 30
0.0
 11
-78.6112103899
 21
23.9972622511
 31
0.0
  0
LINE
  5
1B6
330
1F
100
AcDbEntity
  8
0
  6
Continuous
 62
     7
370
    25
100
AcDbLine
 10
-77.8483898771
 20
26.5549545588
 30
0.0
 11
-77.534287313
 21
26.5549545588
 31
0.0
  0
LINE
  5
1B7
330
1F
100
AcDbEntity
  8
0
  6
Continuous
 62
     7
370
    25
100
AcDbLine
 10
-77.8483898771
 20
23.9972622511
 30
0.0
 11
-77.8483898771
 21
26.5549545588
 31
0.0
  0
LINE
  5
1B8
330
1F
100
AcDbEntity
  8
0
  6
Continuous
 62
     7
370
    25
100
AcDbLine
 10
-77.534287313
 20
23.9972622511
 30
0.0
 11
-77.8483898771
 21
23.9972622511
 31
0.0
  0
LINE
  5
1B9
330
1F
100
AcDbEntity
  8
0
  6
Continuous
 62
     7
370
    25
100
AcDbLine
 10
-77.534287313
 20
26.5549545588
 30
0.0
 11
-77.534287313
 21
23.9972622511
 31
0.0
  0
LINE
  5
1BA
330
1F
100
AcDbEntity
  8
0
  6
Continuous
 62
     7
370
    25
100
AcDbLine
 10
-70.0406975694
 20
26.5549545588
 30
0.0
 11
-69.7265950053
 21
26.5549545588
 31
0.0
  0
LINE
  5
1BB
330
1F
100
AcDbEntity
  8
0
  6
Continuous
 62
     7
370
    25
100
AcDbLine
 10
-70.0406975694
 20
26.0816973472
 30
0.0
 11
-70.0406975694
 21
26.5549545588
 31
0.0
  0
LINE
  5
1BC
330
1F
100
AcDbEntity
  8
0
  6
Continuous
 62
     7
370
    25
100
AcDbLine
 10
-70.0406975694
 20
23.0549545588
 30
0.0
 11
-70.0406975694
 21
24.4607037575
 31
0.0
  0
LINE
  5
1BD
330
1F
100
AcDbEntity
  8
0
  6
Continuous
 62
     7
370
    25
100
AcDbLine
 10
-69.7265950053
 20
23.0549545588
 30
0.0
 11
-70.0406975694
 21
23.0549545588
 31
0.0
  0
LINE
  5
1BE
330
1F
100
AcDbEntity
  8
0
  6
Continuous
 62
     7
370
    25
100
AcDbLine
 10
-69.7265950053
 20
26.5549545588
 30
0.0
 11
-69.7265950053
 21
23.0549545588
 31
0.0
  0
LINE
  5
1BF
330
1F
100
AcDbEntity
  8
0
  6
Continuous
 62
     7
370
    25
100
AcDbLine
 10
-67.5426006143
 20
26.5549545588
 30
0.0
 11
-67.1689026976
 21
26.5549545588
 31
0.0
  0
LINE
  5
1C0
330
1F
100
AcDbEntity
  8
0
  6
Continuous
 62
     7
370
    25
100
AcDbLine
 10
-68.2009539797
 20
25.6322782767
 30
0.0
 11
-67.5426006143
 21
26.5549545588
 31
0.0
  0
LINE
  5
1C1
330
1F
100
AcDbEntity
  8
0
  6
Continuous
 62
     7
370
    25
100
AcDbLine
 10
-68.859307345
 20
26.5549545588
 30
0.0
 11
-68.2009539797
 21
25.6322782767
 31
0.0
  0
LINE
  5
1C2
330
1F
100
AcDbEntity
  8
0
  6
Continuous
 62
     7
370
    25
100
AcDbLine
 10
-69.2330052617
 20
26.5549545588
 30
0.0
 11
-68.859307345
 21
26.5549545588
 31
0.0
  0
LINE
  5
1C3
330
1F
100
AcDbEntity
  8
0
  6
Continuous
 62
     7
370
    25
100
AcDbLine
 10
-68.3881534989
 20
25.3707598472
 30
0.0
 11
-69.2330052617
 21
26.5549545588
 31
0.0
  0
LINE
  5
1C4
330
1F
100
AcDbEntity
  8
0
  6
Continuous
 62
     7
370
    25
100
AcDbLine
 10
-69.3676206463
 20
23.9972622511
 30
0.0
 11
-68.3881534989
 21
25.3707598472
 31
0.0
  0
LINE
  5
1C5
330
1F
100
AcDbEntity
  8
0
  6
Continuous
 62
     7
370
    25
100
AcDbLine
 10
-68.9939227297
 20
23.9972622511
 30
0.0
 11
-69.3676206463
 21
23.9972622511
 31
0.0
  0
LINE
  5
1C6
330
1F
100
AcDbEntity
  8
0
  6
Continuous
 62
     7
370
    25
100
AcDbLine
 10
-68.2009539797
 20
25.108540296
 30
0.0
 11
-68.9939227297
 21
23.9972622511
 31
0.0
  0
LINE
  5
1C7
330
1F
100
AcDbEntity
  8
0
  6
Continuous
 62
     7
370
    25
100
AcDbLine
 10
-67.4079852297
 20
23.9972622511
 30
0.0
 11
-68.2009539797
 21
25.108540296
 31
0.0
  0
LINE
  5
1C8
330
1F
100
AcDbEntity
  8
0
  6
Continuous
 62
     7
370
    25
100
AcDbLine
 10
-67.034287313
 20
23.9972622511
 30
0.0
 11
-67.4079852297
 21
23.9972622511
 31
0.0
  0
LINE
  5
1C9
330
1F
100
AcDbEntity
  8
0
  6
Continuous
 62
     7
370
    25
100
AcDbLine
 10
-68.0144555822
 20
25.3707598472
 30
0.0
 11
-67.034287313
 21
23.9972622511
 31
0.0
  0
LINE
  5
1CA
330
1F
100
AcDbEntity
  8
0
  6
Continuous
 62
     7
370
    25
100
AcDbLine
 10
-67.1689026976
 20
26.5549545588
 30
0.0
 11
-68.0144555822
 21
25.3707598472
 31
0.0
  0
LINE
  5
1CB
330
1F
100
AcDbEntity
  8
0
  6
Continuous
 62
     7
370
    25
100
AcDbLine
 10
-66.6304411591
 20
24.6584201037
 30
0.0
 11
-66.3513946848
 21
24.8049545588
 31
0.0
  0
LINE
  5
1CC
330
1F
100
AcDbEntity
  8
0
  6
Continuous
 62
     7
370
    25
100
AcDbLine
 10
-64.4765950053
 20
25.2088007126
 30
0.0
 11
-66.7650565438
 21
25.2088007126
 31
0.0
  0
LINE
  5
1CD
330
1F
100
AcDbEntity
  8
0
  6
Continuous
 62
     7
370
    25
100
AcDbLine
 10
-58.1945437232
 20
23.9972622511
 30
0.0
 11
-58.1945437232
 21
26.5549545588
 31
0.0
  0
LINE
  5
1CE
330
1F
100
AcDbEntity
  8
0
  6
Continuous
 62
     7
370
    25
100
AcDbLine
 10
-57.8804411591
 20
23.9972622511
 30
0.0
 11
-58.1945437232
 21
23.9972622511
 31
0.0
  0
LINE
  5
1CF
330
1F
100
AcDbEntity
  8
0
  6
Continuous
 62
     7
370
    25
100
AcDbLine
 10
-57.8804411591
 20
24.4396701037
 30
0.0
 11
-57.8804411591
 21
23.9972622511
 31
0.0
  0
LINE
  5
1D0
330
1F
100
AcDbEntity
  8
0
  6
Continuous
 62
     7
370
    25
100
AcDbLine
 10
-57.8804411591
 20
26.5549545588
 30
0.0
 11
-57.8804411591
 21
26.0816973472
 31
0.0
  0
LINE
  5
1D1
330
1F
100
AcDbEntity
  8
0
  6
Continuous
 62
     7
370
    25
100
AcDbLine
 10
-58.1945437232
 20
26.5549545588
 30
0.0
 11
-57.8804411591
 21
26.5549545588
 31
0.0
  0
LINE
  5
1D2
330
1F
100
AcDbEntity
  8
0
  6
Continuous
 62
     7
370
    25
100
AcDbLine
 10
-59.1817232104
 20
26.5549545588
 30
0.0
 11
-58.8676206463
 21
26.5549545588
 31
0.0
  0
LINE
  5
1D3
330
1F
100
AcDbEntity
  8
0
  6
Continuous
 62
     7
370
    25
100
AcDbLine
 10
-59.1817232104
 20
23.9972622511
 30
0.0
 11
-59.1817232104
 21
26.5549545588
 31
0.0
  0
LINE
  5
1D4
330
1F
100
AcDbEntity
  8
0
  6
Continuous
 62
     7
370
    25
100
AcDbLine
 10
-58.8676206463
 20
23.9972622511
 30
0.0
 11
-59.1817232104
 21
23.9972622511
 31
0.0
  0
LINE
  5
1D5
330
1F
100
AcDbEntity
  8
0
  6
Continuous
 62
     7
370
    25
100
AcDbLine
 10
-58.8676206463
 20
26.5549545588
 30
0.0
 11
-58.8676206463
 21
23.9972622511
 31
0.0
  0
LINE
  5
1D6
330
1F
100
AcDbEntity
  8
0
  6
Continuous
 62
     7
370
    25
100
AcDbLine
 10
-60.2586462873
 20
26.5549545588
 30
0.0
 11
-59.9445437232
 21
26.5549545588
 31
0.0
  0
LINE
  5
1D7
330
1F
100
AcDbEntity
  8
0
  6
Continuous
 62
     7
370
    25
100
AcDbLine
 10
-60.2586462873
 20
26.0936164178
 30
0.0
 11
-60.2586462873
 21
26.5549545588
 31
0.0
  0
LINE
  5
1D8
330
1F
100
AcDbEntity
  8
0
  6
Continuous
 62
     7
370
    25
100
AcDbLine
 10
-62.1881334668
 20
23.9972622511
 30
0.0
 11
-62.1881334668
 21
25.3034521549
 31
0.0
  0
LINE
  5
1D9
330
1F
100
AcDbEntity
  8
0
  6
Continuous
 62
     7
370
    25
100
AcDbLine
 10
-61.8740309027
 20
23.9972622511
 30
0.0
 11
-62.1881334668
 21
23.9972622511
 31
0.0
  0
LINE
  5
1DA
330
1F
100
AcDbEntity
  8
0
  6
Continuous
 62
     7
370
    25
100
AcDbLine
 10
-61.8740309027
 20
25.2003872511
 30
0.0
 11
-61.8740309027
 21
23.9972622511
 31
0.0
  0
LINE
  5
1DB
330
1F
100
AcDbEntity
  8
0
  6
Continuous
 62
     7
370
    25
100
AcDbLine
 10
-60.2586462873
 20
23.9972622511
 30
0.0
 11
-60.2586462873
 21
24.9220418985
 31
0.0
  0
LINE
  5
1DC
330
1F
100
AcDbEntity
  8
0
  6
Continuous
 62
     7
370
    25
100
AcDbLine
 10
-59.9445437232
 20
23.9972622511
 30
0.0
 11
-60.2586462873
 21
23.9972622511
 31
0.0
  0
LINE
  5
1DD
330
1F
100
AcDbEntity
  8
0
  6
Continuous
 62
     7
370
    25
100
AcDbLine
 10
-59.9445437232
 20
26.5549545588
 30
0.0
 11
-59.9445437232
 21
23.9972622511
 31
0.0
  0
LINE
  5
1DE
330
1F
100
AcDbEntity
  8
0
  6
Continuous
 62
     7
370
    25
100
AcDbLine
 10
-51.5219676014
 20
27.4972622511
 30
0.0
 11
-51.0599283386
 21
23.9972622511
 31
0.0
  0
LINE
  5
1DF
330
1F
100
AcDbEntity
  8
0
  6
Continuous
 62
     7
370
    25
100
AcDbLine
 10
-51.5668393963
 20
27.4972622511
 30
0.0
 11
-51.5219676014
 21
27.4972622511
 31
0.0
  0
LINE
  5
1E0
330
1F
100
AcDbEntity
  8
0
  6
Continuous
 62
     7
370
    25
100
AcDbLine
 10
-53.0118514155
 20
24.6254673793
 30
0.0
 11
-51.5668393963
 21
27.4972622511
 31
0.0
  0
LINE
  5
1E1
330
1F
100
AcDbEntity
  8
0
  6
Continuous
 62
     7
370
    25
100
AcDbLine
 10
-54.4533578258
 20
27.4972622511
 30
0.0
 11
-53.0118514155
 21
24.6254673793
 31
0.0
  0
LINE
  5
1E2
330
1F
100
AcDbEntity
  8
0
  6
Continuous
 62
     7
370
    25
100
AcDbLine
 10
-54.4989307425
 20
27.4972622511
 30
0.0
 11
-54.4533578258
 21
27.4972622511
 31
0.0
  0
LINE
  5
1E3
330
1F
100
AcDbEntity
  8
0
  6
Continuous
 62
     7
370
    25
100
AcDbLine
 10
-54.9637744925
 20
23.9972622511
 30
0.0
 11
-54.4989307425
 21
27.4972622511
 31
0.0
  0
LINE
  5
1E4
330
1F
100
AcDbEntity
  8
0
  6
Continuous
 62
     7
370
    25
100
AcDbLine
 10
-54.6482696848
 20
23.9972622511
 30
0.0
 11
-54.9637744925
 21
23.9972622511
 31
0.0
  0
LINE
  5
1E5
330
1F
100
AcDbEntity
  8
0
  6
Continuous
 62
     7
370
    25
100
AcDbLine
 10
-54.3131334668
 20
26.5156917383
 30
0.0
 11
-54.6482696848
 21
23.9972622511
 31
0.0
  0
LINE
  5
1E6
330
1F
100
AcDbEntity
  8
0
  6
Continuous
 62
     7
370
    25
100
AcDbLine
 10
-53.0497119925
 20
23.9972622511
 30
0.0
 11
-54.3131334668
 21
26.5156917383
 31
0.0
  0
LINE
  5
1E7
330
1F
100
AcDbEntity
  8
0
  6
Continuous
 62
     7
370
    25
100
AcDbLine
 10
-52.9788986912
 20
23.9972622511
 30
0.0
 11
-53.0497119925
 21
23.9972622511
 31
0.0
  0
LINE
  5
1E8
330
1F
100
AcDbEntity
  8
0
  6
Continuous
 62
     7
370
    25
100
AcDbLine
 10
-51.7105693643
 20
26.5213007126
 30
0.0
 11
-52.9788986912
 21
23.9972622511
 31
0.0
  0
LINE
  5
1E9
330
1F
100
AcDbEntity
  8
0
  6
Continuous
 62
     7
370
    25
100
AcDbLine
 10
-51.3761342681
 20
23.9972622511
 30
0.0
 11
-51.7105693643
 21
26.5213007126
 31
0.0
  0
LINE
  5
1EA
330
1F
100
AcDbEntity
  8
0
  6
Continuous
 62
     7
370
    25
100
AcDbLine
 10
-51.0599283386
 20
23.9972622511
 30
0.0
 11
-51.3761342681
 21
23.9972622511
 31
0.0
  0
LINE
  5
1EB
330
1F
100
AcDbEntity
  8
0
  6
Continuous
 62
     7
370
    25
100
AcDbLine
 10
-200.3196898987
 20
0.0
 30
0.0
 11
-200.3196898987
 21
830.0
 31
0.0
  0
LINE
  5
1EC
330
1F
100
AcDbEntity
  8
0
  6
Continuous
 62
     7
370
    25
100
AcDbLine
 10
-200.3196898987
 20
830.0
 30
0.0
 11
-150.3196898987
 21
830.0
 31
0.0
  0
LINE
  5
1ED
330
1F
100
AcDbEntity
  8
0
  6
Continuous
 62
     7
370
    25
100
AcDbLine
 10
-150.3196898987
 20
830.0
 30
0.0
 11
-150.3196898987
 21
840.0
 31
0.0
  0
LINE
  5
1EE
330
1F
100
AcDbEntity
  8
0
  6
Continuous
 62
     7
370
    25
100
AcDbLine
 10
-150.3196898987
 20
840.0
 30
0.0
 11
399.6803101013
 21
840.0
 31
0.0
  0
LINE
  5
1EF
330
1F
100
AcDbEntity
  8
0
  6
Continuous
 62
     7
370
    25
100
AcDbLine
 10
459.6803101013
 20
780.0
 30
0.0
 11
459.6803101013
 21
250.0
 31
0.0
  0
LINE
  5
1F0
330
1F
100
AcDbEntity
  8
0
  6
Continuous
 62
     7
370
    25
100
AcDbLine
 10
-3.0696898987
 20
250.0
 30
0.0
 11
557.3196898987
 21
250.0
 31
0.0
  0
LINE
  5
1F1
330
1F
100
AcDbEntity
  8
0
  6
Continuous
 62
     7
370
    25
100
AcDbLine
 10
-0.3196898987
 20
250.0
 30
0.0
 11
-0.3196898987
 21
250.75
 31
0.0
  0
LINE
  5
1F2
330
1F
100
AcDbEntity
  8
0
  6
Continuous
 62
     7
370
    25
100
AcDbLine
 10
-0.3196898987
 20
250.75
 30
0.0
 11
-3.0696898987
 21
250.75
 31
0.0
  0
LINE
  5
1F3
330
1F
100
AcDbEntity
  8
0
  6
Continuous
 62
     7
370
    25
100
AcDbLine
 10
-3.0696898987
 20
250.75
 30
0.0
 11
-3.0696898987
 21
250.0
 31
0.0
  0
LINE
  5
1F4
330
1F
100
AcDbEntity
  8
0
  6
Continuous
 62
     7
370
    25
100
AcDbLine
 10
557.3196898987
 20
0.0
 30
0.0
 11
557.3196898987
 21
250.0
 31
0.0
  0
LINE
  5
1F5
330
1F
100
AcDbEntity
  8
0
  6
Continuous
 62
     7
370
    25
100
AcDbLine
 10
557.3196898987
 20
0.0
 30
0.0
 11
-200.3196898987
 21
0.0
 31
0.0
  0
ARC
  5
1F6
330
1F
100
AcDbEntity
  8
0
  6
Continuous
 62
     7
370
    25
100
AcDbCircle
 10
399.6803101013
 20
780.0
 30
0.0
 40
59.99999999999994
100
AcDbArc
 50
0.0
 51
90.0
  0
MTEXT
  5
1F8
330
1F
100
AcDbEntity
  8
0
  6
Continuous
 62
     7
100
AcDbMText
 10
-200.3196898987
 20
-1.0195663917
 30
0.0
 40
4.83362
 41
0.0
 71
     1
 72
     1
  1
SOLIDWORKS Educational Product.
  7
SLDTEXTSTYLE0
 73
     1
 44
1.0
  0
MTEXT
  5
1F9
330
1F
100
AcDbEntity
  8
0
  6
Continuous
 62
     7
100
AcDbMText
 10
-200.3196898987
 20
-8.2699963917
 30
0.0
 40
4.83362
 41
0.0
 71
     1
 72
     1
  1
For Instructional Use Only.
  7
SLDTEXTSTYLE0
 73
     1
 44
1.0
  0
ENDSEC
  0
SECTION
  2
OBJECTS
  0
DICTIONARY
  5
C
330
0
100
AcDbDictionary
281
     1
  3
ACAD_GROUP
350
D
  3
ACAD_LAYOUT
350
1A
  3
ACAD_MLINESTYLE
350
17
  3
ACAD_PLOTSETTINGS
350
19
  3
ACAD_PLOTSTYLENAME
350
E
  3
ACAD_SCALELIST
350
47
  3
DWGPROPS
350
1FA
  0
DICTIONARY
  5
D
102
{ACAD_REACTORS
330
C
102
}
330
C
100
AcDbDictionary
281
     1
  0
DICTIONARY
  5
1A
102
{ACAD_REACTORS
330
C
102
}
330
C
100
AcDbDictionary
281
     1
  3
Layout1
350
1E
  3
Layout2
350
26
  3
Model
350
22
  0
DICTIONARY
  5
17
102
{ACAD_REACTORS
330
C
102
}
330
C
100
AcDbDictionary
281
     1
  3
Standard
350
18
  0
DICTIONARY
  5
19
102
{ACAD_REACTORS
330
C
102
}
330
C
100
AcDbDictionary
281
     1
  0
ACDBDICTIONARYWDFLT
  5
E
102
{ACAD_REACTORS
330
C
102
}
330
C
100
AcDbDictionary
281
     1
  3
Normal
350
F
100
AcDbDictionaryWithDefault
340
F
  0
DICTIONARY
  5
47
102
{ACAD_REACTORS
330
C
102
}
330
C
100
AcDbDictionary
281
     1
  3
A0
350
48
  3
A1
350
49
  3
A2
350
4A
  3
A3
350
4B
  3
A4
350
4C
  3
A5
350
4D
  3
A6
350
4E
  3
A7
350
4F
  3
A8
350
50
  3
A9
350
51
  3
B0
350
52
  3
B1
350
53
  3
B2
350
54
  3
B3
350
55
  3
B4
350
56
  3
B5
350
57
  3
B6
350
58
  0
XRECORD
  5
1FA
102
{ACAD_REACTORS
330
C
102
}
330
C
100
AcDbXrecord
280
     1
  1
DWGPROPS COOKIE
  2

  3

  4

  6

  7

  8
anast
  9

300
=
301
=
302
=
303
=
304
=
305
=
306
=
307
=
308
=
309
=
 40
0.0
 41
2460812.719464456
 42
2460812.719584063
  1

 90
        0
  0
LAYOUT
  5
1E
102
{ACAD_REACTORS
330
1A
102
}
330
1A
100
AcDbPlotSettings
  1

  2
none_device
  4

  6

 40
0.0
 41
0.0
 42
0.0
 43
0.0
 44
0.0
 45
0.0
 46
0.0
 47
0.0
 48
0.0
 49
0.0
140
0.0
141
0.0
142
1.0
143
1.0
 70
   688
 72
     1
 73
     0
 74
     5
  7

 75
    16
147
1.0
148
0.0
149
0.0
100
AcDbLayout
  1
Layout1
 70
     1
 71
     1
 10
0.0
 20
0.0
 11
420.0
 21
297.0
 12
0.0
 22
0.0
 32
0.0
 14
1.0000000000E+20
 24
1.0000000000E+20
 34
1.0000000000E+20
 15
-1.0000000000E+20
 25
-1.0000000000E+20
 35
-1.0000000000E+20
146
0.0
 13
0.0
 23
0.0
 33
0.0
 16
1.0
 26
0.0
 36
0.0
 17
0.0
 27
1.0
 37
0.0
 76
     0
330
1B
  0
LAYOUT
  5
26
102
{ACAD_REACTORS
330
1A
102
}
330
1A
100
AcDbPlotSettings
  1

  2
none_device
  4

  6

 40
0.0
 41
0.0
 42
0.0
 43
0.0
 44
0.0
 45
0.0
 46
0.0
 47
0.0
 48
0.0
 49
0.0
140
0.0
141
0.0
142
1.0
143
1.0
 70
   688
 72
     1
 73
     0
 74
     5
  7

 75
    16
147
1.0
148
0.0
149
0.0
100
AcDbLayout
  1
Layout2
 70
     1
 71
     2
 10
0.0
 20
0.0
 11
0.0
 21
0.0
 12
0.0
 22
0.0
 32
0.0
 14
0.0
 24
0.0
 34
0.0
 15
0.0
 25
0.0
 35
0.0
146
0.0
 13
0.0
 23
0.0
 33
0.0
 16
1.0
 26
0.0
 36
0.0
 17
0.0
 27
1.0
 37
0.0
 76
     0
330
23
  0
LAYOUT
  5
22
102
{ACAD_REACTORS
330
1A
102
}
330
1A
100
AcDbPlotSettings
  1

  2
none_device
  4
ANSI_A_(11.00_x_8.50_Inches)
  6

 40
6.35
 41
19.05
 42
6.35000508
 43
19.05000254
 44
279.4
 45
215.9
 46
87.93003496
 47
-17.97050127
 48
0.0
 49
0.0
140
0.0
141
0.0
142
0.0100178571
143
1.0
 70
  1696
 72
     0
 73
     0
 74
     0
  7

 75
     0
147
0.0179189148
148
-1300.4909072572
149
0.0
100
AcDbLayout
  1
Model
 70
     1
 71
     0
 10
0.0
 20
0.0
 11
420.0
 21
297.0
 12
0.0
 22
0.0
 32
0.0
 14
-200.3196898987
 24
0.0
 34
0.0
 15
557.3196898987
 25
840.0
 35
0.0
146
0.0
 13
0.0
 23
0.0
 33
0.0
 16
1.0
 26
0.0
 36
0.0
 17
0.0
 27
1.0
 37
0.0
 76
     0
330
1F
331
29
  0
MLINESTYLE
  5
18
102
{ACAD_REACTORS
330
17
102
}
330
17
100
AcDbMlineStyle
  2
Standard
 70
     0
  3

 62
   256
 51
90.0
 52
90.0
 71
     2
 49
0.5
 62
   256
  6
BYLAYER
 49
-0.5
 62
   256
  6
BYLAYER
  0
ACDBPLACEHOLDER
  5
F
102
{ACAD_REACTORS
330
E
102
}
330
E
  0
SCALE
  5
48
102
{ACAD_REACTORS
330
47
102
}
330
47
100
AcDbScale
 70
     0
300
1:1
140
1.0
141
1.0
290
     1
  0
SCALE
  5
49
102
{ACAD_REACTORS
330
47
102
}
330
47
100
AcDbScale
 70
     0
300
1:2
140
1.0
141
2.0
290
     0
  0
SCALE
  5
4A
102
{ACAD_REACTORS
330
47
102
}
330
47
100
AcDbScale
 70
     0
300
1:4
140
1.0
141
4.0
290
     0
  0
SCALE
  5
4B
102
{ACAD_REACTORS
330
47
102
}
330
47
100
AcDbScale
 70
     0
300
1:5
140
1.0
141
5.0
290
     0
  0
SCALE
  5
4C
102
{ACAD_REACTORS
330
47
102
}
330
47
100
AcDbScale
 70
     0
300
1:8
140
1.0
141
8.0
290
     0
  0
SCALE
  5
4D
102
{ACAD_REACTORS
330
47
102
}
330
47
100
AcDbScale
 70
     0
300
1:10
140
1.0
141
10.0
290
     0
  0
SCALE
  5
4E
102
{ACAD_REACTORS
330
47
102
}
330
47
100
AcDbScale
 70
     0
300
1:16
140
1.0
141
16.0
290
     0
  0
SCALE
  5
4F
102
{ACAD_REACTORS
330
47
102
}
330
47
100
AcDbScale
 70
     0
300
1:20
140
1.0
141
20.0
290
     0
  0
SCALE
  5
50
102
{ACAD_REACTORS
330
47
102
}
330
47
100
AcDbScale
 70
     0
300
1:30
140
1.0
141
30.0
290
     0
  0
SCALE
  5
51
102
{ACAD_REACTORS
330
47
102
}
330
47
100
AcDbScale
 70
     0
300
1:40
140
1.0
141
40.0
290
     0
  0
SCALE
  5
52
102
{ACAD_REACTORS
330
47
102
}
330
47
100
AcDbScale
 70
     0
300
1:50
140
1.0
141
50.0
290
     0
  0
SCALE
  5
53
102
{ACAD_REACTORS
330
47
102
}
330
47
100
AcDbScale
 70
     0
300
1:100
140
1.0
141
100.0
290
     0
  0
SCALE
  5
54
102
{ACAD_REACTORS
330
47
102
}
330
47
100
AcDbScale
 70
     0
300
2:1
140
2.0
141
1.0
290
     0
  0
SCALE
  5
55
102
{ACAD_REACTORS
330
47
102
}
330
47
100
AcDbScale
 70
     0
300
4:1
140
4.0
141
1.0
290
     0
  0
SCALE
  5
56
102
{ACAD_REACTORS
330
47
102
}
330
47
100
AcDbScale
 70
     0
300
8:1
140
8.0
141
1.0
290
     0
  0
SCALE
  5
57
102
{ACAD_REACTORS
330
47
102
}
330
47
100
AcDbScale
 70
     0
300
10:1
140
10.0
141
1.0
290
     0
  0
SCALE
  5
58
102
{ACAD_REACTORS
330
47
102
}
330
47
100
AcDbScale
 70
     0
300
100:1
140
100.0
141
1.0
290
     0
  0
ENDSEC
  0
EOF
