  0
SECTION
  2
HEADER
  9
$ACADVER
  1
AC1015
  9
$ACADMAINTVER
 70
     6
  9
$DWGCODEPAGE
  3
ANSI_1252
  9
$INSBASE
 10
0.0
 20
0.0
 30
0.0
  9
$EXTMIN
 10
0.0
 20
-160.0
 30
0.0
  9
$EXTMAX
 10
230.0
 20
0.0
 30
0.0
  9
$LIMMIN
 10
0.0
 20
0.0
  9
$LIMMAX
 10
420.0
 20
297.0
  9
$ORTHOMODE
 70
     0
  9
$REGENMODE
 70
     1
  9
$FILLMODE
 70
     1
  9
$QTEXTMODE
 70
     0
  9
$MIRRTEXT
 70
     1
  9
$LTSCALE
 40
1.0
  9
$ATTMODE
 70
     1
  9
$TEXTSIZE
 40
3.5
  9
$TRACEWID
 40
1.0
  9
$TEXTSTYLE
  7
Standard
  9
$CLAYER
  8
0
  9
$CELTYPE
  6
ByLayer
  9
$CECOLOR
 62
   256
  9
$CELTSCALE
 40
1.0
  9
$DISPSILH
 70
     0
  9
$DIMSCALE
 40
1.0
  9
$DIMASZ
 40
3.302
  9
$DIMEXO
 40
0.0
  9
$DIMDLI
 40
3.75
  9
$DIMRND
 40
0.0
  9
$DIMDLE
 40
0.0
  9
$DIMEXE
 40
1.0
  9
$DIMTP
 40
0.0
  9
$DIMTM
 40
0.0
  9
$DIMTXT
 40
3.5
  9
$DIMCEN
 40
2.5
  9
$DIMTSZ
 40
0.0
  9
$DIMTOL
 70
     0
  9
$DIMLIM
 70
     0
  9
$DIMTIH
 70
     1
  9
$DIMTOH
 70
     1
  9
$DIMSE1
 70
     0
  9
$DIMSE2
 70
     0
  9
$DIMTAD
 70
     1
  9
$DIMZIN
 70
     1
  9
$DIMBLK
  1

  9
$DIMASO
 70
     1
  9
$DIMSHO
 70
     1
  9
$DIMPOST
  1

  9
$DIMAPOST
  1

  9
$DIMALT
 70
     0
  9
$DIMALTD
 70
     3
  9
$DIMALTF
 40
0.0393700787
  9
$DIMLFAC
 40
1.0
  9
$DIMTOFL
 70
     1
  9
$DIMTVP
 40
0.0
  9
$DIMTIX
 70
     0
  9
$DIMSOXD
 70
     0
  9
$DIMSAH
 70
     0
  9
$DIMBLK1
  1

  9
$DIMBLK2
  1

  9
$DIMSTYLE
  2
ISO-25
  9
$DIMCLRD
 70
     0
  9
$DIMCLRE
 70
     0
  9
$DIMCLRT
 70
     0
  9
$DIMTFAC
 40
1.0
  9
$DIMGAP
 40
1.524
  9
$DIMJUST
 70
     0
  9
$DIMSD1
 70
     0
  9
$DIMSD2
 70
     0
  9
$DIMTOLJ
 70
     0
  9
$DIMTZIN
 70
     1
  9
$DIMALTZ
 70
     0
  9
$DIMALTTZ
 70
     0
  9
$DIMUPT
 70
     0
  9
$DIMDEC
 70
     2
  9
$DIMTDEC
 70
     2
  9
$DIMALTU
 70
     2
  9
$DIMALTTD
 70
     3
  9
$DIMTXSTY
  7
Standard
  9
$DIMAUNIT
 70
     0
  9
$DIMADEC
 70
     2
  9
$DIMALTRND
 40
0.0
  9
$DIMAZIN
 70
     0
  9
$DIMDSEP
 70
    44
  9
$DIMATFIT
 70
     3
  9
$DIMFRAC
 70
     0
  9
$DIMLDRBLK
  1

  9
$DIMLUNIT
 70
     2
  9
$DIMLWD
 70
    -2
  9
$DIMLWE
 70
    -2
  9
$DIMTMOVE
 70
     0
  9
$LUNITS
 70
     2
  9
$LUPREC
 70
     2
  9
$SKETCHINC
 40
1.0
  9
$FILLETRAD
 40
0.0
  9
$AUNITS
 70
     0
  9
$AUPREC
 70
     2
  9
$MENU
  1
.
  9
$ELEVATION
 40
0.0
  9
$PELEVATION
 40
0.0
  9
$THICKNESS
 40
0.0
  9
$LIMCHECK
 70
     0
  9
$CHAMFERA
 40
0.0
  9
$CHAMFERB
 40
0.0
  9
$CHAMFERC
 40
0.0
  9
$CHAMFERD
 40
0.0
  9
$SKPOLY
 70
     0
  9
$TDCREATE
 40
2460812.805478635
  9
$TDUCREATE
 40
2460812.722145301
  9
$TDUPDATE
 40
2460812.805711922
  9
$TDUUPDATE
 40
2460812.722378588
  9
$TDINDWG
 40
0.0000000116
  9
$TDUSRTIMER
 40
0.0000000116
  9
$USRTIMER
 70
     1
  9
$ANGBASE
 50
0.0
  9
$ANGDIR
 70
     0
  9
$PDMODE
 70
     0
  9
$PDSIZE
 40
-1.0
  9
$PLINEWID
 40
0.0
  9
$SPLFRAME
 70
     0
  9
$SPLINETYPE
 70
     6
  9
$SPLINESEGS
 70
     8
  9
$HANDSEED
  5
14B
  9
$SURFTAB1
 70
     6
  9
$SURFTAB2
 70
     6
  9
$SURFTYPE
 70
     6
  9
$SURFU
 70
     6
  9
$SURFV
 70
     6
  9
$UCSBASE
  2

  9
$UCSNAME
  2

  9
$UCSORG
 10
0.0
 20
0.0
 30
0.0
  9
$UCSXDIR
 10
1.0
 20
0.0
 30
0.0
  9
$UCSYDIR
 10
0.0
 20
1.0
 30
0.0
  9
$UCSORTHOREF
  2

  9
$UCSORTHOVIEW
 70
     0
  9
$UCSORGTOP
 10
0.0
 20
0.0
 30
0.0
  9
$UCSORGBOTTOM
 10
0.0
 20
0.0
 30
0.0
  9
$UCSORGLEFT
 10
0.0
 20
0.0
 30
0.0
  9
$UCSORGRIGHT
 10
0.0
 20
0.0
 30
0.0
  9
$UCSORGFRONT
 10
0.0
 20
0.0
 30
0.0
  9
$UCSORGBACK
 10
0.0
 20
0.0
 30
0.0
  9
$PUCSBASE
  2

  9
$PUCSNAME
  2

  9
$PUCSORG
 10
0.0
 20
0.0
 30
0.0
  9
$PUCSXDIR
 10
1.0
 20
0.0
 30
0.0
  9
$PUCSYDIR
 10
0.0
 20
1.0
 30
0.0
  9
$PUCSORTHOREF
  2

  9
$PUCSORTHOVIEW
 70
     0
  9
$PUCSORGTOP
 10
0.0
 20
0.0
 30
0.0
  9
$PUCSORGBOTTOM
 10
0.0
 20
0.0
 30
0.0
  9
$PUCSORGLEFT
 10
0.0
 20
0.0
 30
0.0
  9
$PUCSORGRIGHT
 10
0.0
 20
0.0
 30
0.0
  9
$PUCSORGFRONT
 10
0.0
 20
0.0
 30
0.0
  9
$PUCSORGBACK
 10
0.0
 20
0.0
 30
0.0
  9
$USERI1
 70
     0
  9
$USERI2
 70
     0
  9
$USERI3
 70
     0
  9
$USERI4
 70
     0
  9
$USERI5
 70
     0
  9
$USERR1
 40
0.0
  9
$USERR2
 40
0.0
  9
$USERR3
 40
0.0
  9
$USERR4
 40
0.0
  9
$USERR5
 40
0.0
  9
$WORLDVIEW
 70
     1
  9
$SHADEDGE
 70
     3
  9
$SHADEDIF
 70
    70
  9
$TILEMODE
 70
     1
  9
$MAXACTVP
 70
    64
  9
$PINSBASE
 10
0.0
 20
0.0
 30
0.0
  9
$PLIMCHECK
 70
     0
  9
$PEXTMIN
 10
1.0000000000E+20
 20
1.0000000000E+20
 30
1.0000000000E+20
  9
$PEXTMAX
 10
-1.0000000000E+20
 20
-1.0000000000E+20
 30
-1.0000000000E+20
  9
$PLIMMIN
 10
0.0
 20
0.0
  9
$PLIMMAX
 10
420.0
 20
297.0
  9
$UNITMODE
 70
     0
  9
$VISRETAIN
 70
     1
  9
$PLINEGEN
 70
     0
  9
$PSLTSCALE
 70
     1
  9
$TREEDEPTH
 70
  3020
  9
$CMLSTYLE
  2
Standard
  9
$CMLJUST
 70
     0
  9
$CMLSCALE
 40
20.0
  9
$PROXYGRAPHICS
 70
     1
  9
$MEASUREMENT
 70
     1
  9
$CELWEIGHT
370
    -1
  9
$ENDCAPS
280
     0
  9
$JOINSTYLE
280
     0
  9
$LWDISPLAY
290
     1
  9
$INSUNITS
 70
     4
  9
$HYPERLINKBASE
  1

  9
$STYLESHEET
  1

  9
$XEDIT
290
     1
  9
$CEPSNTYPE
380
     0
  9
$PSTYLEMODE
290
     1
  9
$FINGERPRINTGUID
  2
{c87b95b6-2bf3-42f4-a1bb-b7d67e6ea619}
  9
$VERSIONGUID
  2
{FAEB1C32-E019-11D5-929B-00C0DF256EC4}
  9
$EXTNAMES
290
     1
  9
$PSVPSCALE
 40
0.0
  9
$OLESTARTUP
290
     0
  0
ENDSEC
  0
SECTION
  2
CLASSES
  0
CLASS
  1
ACDBDICTIONARYWDFLT
  2
AcDbDictionaryWithDefault
  3
ObjectDBX Classes
 90
        0
280
     0
281
     0
  0
CLASS
  1
VISUALSTYLE
  2
AcDbVisualStyle
  3
ObjectDBX Classes
 90
     4095
280
     0
281
     0
  0
CLASS
  1
MATERIAL
  2
AcDbMaterial
  3
ObjectDBX Classes
 90
     1153
280
     0
281
     0
  0
CLASS
  1
SCALE
  2
AcDbScale
  3
ObjectDBX Classes
 90
     1153
280
     0
281
     0
  0
CLASS
  1
TABLESTYLE
  2
AcDbTableStyle
  3
ObjectDBX Classes
 90
     4095
280
     0
281
     0
  0
CLASS
  1
MLEADERSTYLE
  2
AcDbMLeaderStyle
  3
ACDB_MLEADERSTYLE_CLASS
 90
     4095
280
     0
281
     0
  0
CLASS
  1
SUN
  2
AcDbSun
  3
SCENEOE
 90
     1153
280
     0
281
     0
  0
CLASS
  1
ACDBPLACEHOLDER
  2
AcDbPlaceHolder
  3
ObjectDBX Classes
 90
        0
280
     0
281
     0
  0
CLASS
  1
LAYOUT
  2
AcDbLayout
  3
ObjectDBX Classes
 90
        0
280
     0
281
     0
  0
ENDSEC
  0
SECTION
  2
TABLES
  0
TABLE
  2
VPORT
  5
8
330
0
100
AcDbSymbolTable
 70
     1
  0
VPORT
  5
29
330
8
100
AcDbSymbolTableRecord
100
AcDbViewportTableRecord
  2
*Active
 70
     0
 10
0.0
 20
0.0
 11
1.0
 21
1.0
 12
115.0
 22
-80.0
 13
0.0
 23
0.0
 14
10.0
 24
10.0
 15
10.0
 25
10.0
 16
0.0
 26
0.0
 36
1.0
 17
0.0
 27
0.0
 37
0.0
 40
163.2
 41
1.4375
 42
50.0
 43
0.0
 44
0.0
 50
0.0
 51
0.0
 71
     0
 72
   100
 73
     1
 74
     3
 75
     0
 76
     0
 77
     0
 78
     0
281
     0
 65
     1
110
0.0
120
0.0
130
0.0
111
1.0
121
0.0
131
0.0
112
0.0
122
1.0
132
0.0
 79
     0
146
0.0
  0
ENDTAB
  0
TABLE
  2
LTYPE
  5
5
330
0
100
AcDbSymbolTable
 70
     6
  0
LTYPE
  5
14
330
5
100
AcDbSymbolTableRecord
100
AcDbLinetypeTableRecord
  2
ByBlock
 70
     0
  3

 72
    65
 73
     0
 40
0.0
  0
LTYPE
  5
15
330
5
100
AcDbSymbolTableRecord
100
AcDbLinetypeTableRecord
  2
ByLayer
 70
     0
  3

 72
    65
 73
     0
 40
0.0
  0
LTYPE
  5
16
330
5
100
AcDbSymbolTableRecord
100
AcDbLinetypeTableRecord
  2
Continuous
 70
     0
  3
Solid line
 72
    65
 73
     0
 40
0.0
  0
LTYPE
  5
5E
330
5
100
AcDbSymbolTableRecord
100
AcDbLinetypeTableRecord
  2
HIDDEN
 70
     0
  3
Hidden __ __ __ __ __ __ __ __ __ __ __ __ __ __
 72
    65
 73
     2
 40
1.905
 49
1.27
 74
     0
 49
-0.635
 74
     0
  0
LTYPE
  5
5F
330
5
100
AcDbSymbolTableRecord
100
AcDbLinetypeTableRecord
  2
PHANTOM
 70
     0
  3
Phantom ______  __  __  ______  __  __  ______
 72
    65
 73
     6
 40
12.7
 49
6.35
 74
     0
 49
-1.27
 74
     0
 49
1.27
 74
     0
 49
-1.27
 74
     0
 49
1.27
 74
     0
 49
-1.27
 74
     0
  0
LTYPE
  5
60
330
5
100
AcDbSymbolTableRecord
100
AcDbLinetypeTableRecord
  2
CENTER
 70
     0
  3
Center ____ _ ____ _ ____ _ ____ _ ____ _ ____
 72
    65
 73
     4
 40
10.16
 49
6.35
 74
     0
 49
-1.27
 74
     0
 49
1.27
 74
     0
 49
-1.27
 74
     0
  0
LTYPE
  5
61
330
5
100
AcDbSymbolTableRecord
100
AcDbLinetypeTableRecord
  2
CENTERX2
 70
     0
  3
Center (2x) ________  __  ________  __  _____
 72
    65
 73
     4
 40
20.32
 49
12.7
 74
     0
 49
-2.54
 74
     0
 49
2.54
 74
     0
 49
-2.54
 74
     0
  0
LTYPE
  5
62
330
5
100
AcDbSymbolTableRecord
100
AcDbLinetypeTableRecord
  2
DOT2
 70
     0
  3
Dot (.5x) ........................................
 72
    65
 73
     2
 40
0.635
 49
0.0
 74
     0
 49
-0.635
 74
     0
  0
ENDTAB
  0
TABLE
  2
LAYER
  5
2
330
0
100
AcDbSymbolTable
 70
     1
  0
LAYER
  5
10
330
2
100
AcDbSymbolTableRecord
100
AcDbLayerTableRecord
  2
0
 70
     0
 62
     7
  6
Continuous
370
    -3
390
F
  0
ENDTAB
  0
TABLE
  2
STYLE
  5
3
330
0
100
AcDbSymbolTable
 70
     2
  0
STYLE
  5
11
330
3
100
AcDbSymbolTableRecord
100
AcDbTextStyleTableRecord
  2
Standard
 70
     0
 40
0.0
 41
1.0
 50
0.0
 71
     0
 42
3.5
  3
txt
  4

  0
STYLE
  5
147
330
3
100
AcDbSymbolTableRecord
100
AcDbTextStyleTableRecord
  2
SLDTEXTSTYLE0
 70
     0
 40
0.0
 41
0.7
 50
0.0
 71
     0
 42
3.5
  3
TXT
  4

  0
ENDTAB
  0
TABLE
  2
VIEW
  5
6
330
0
100
AcDbSymbolTable
 70
     0
  0
ENDTAB
  0
TABLE
  2
UCS
  5
7
330
0
100
AcDbSymbolTable
 70
     0
  0
ENDTAB
  0
TABLE
  2
APPID
  5
9
330
0
100
AcDbSymbolTable
 70
     1
  0
APPID
  5
12
330
9
100
AcDbSymbolTableRecord
100
AcDbRegAppTableRecord
  2
ACAD
 70
     0
  0
ENDTAB
  0
TABLE
  2
DIMSTYLE
  5
A
330
0
100
AcDbSymbolTable
 70
     1
100
AcDbDimStyleTable
  0
DIMSTYLE
105
27
330
A
100
AcDbSymbolTableRecord
100
AcDbDimStyleTableRecord
  2
ISO-25
 70
     0
 41
2.5
 42
0.625
 43
3.75
 44
1.25
 73
     0
 74
     0
 77
     1
 78
     8
140
2.5
141
2.5
143
0.0393700787
147
0.625
171
     3
172
     1
178
     0
271
     2
272
     2
274
     3
278
    44
283
     0
284
     8
340
11
  0
ENDTAB
  0
TABLE
  2
BLOCK_RECORD
  5
1
330
0
100
AcDbSymbolTable
 70
     1
  0
BLOCK_RECORD
  5
1F
330
1
100
AcDbSymbolTableRecord
100
AcDbBlockTableRecord
  2
*Model_Space
340
22
  0
BLOCK_RECORD
  5
1B
330
1
100
AcDbSymbolTableRecord
100
AcDbBlockTableRecord
  2
*Paper_Space
340
1E
  0
BLOCK_RECORD
  5
23
330
1
100
AcDbSymbolTableRecord
100
AcDbBlockTableRecord
  2
*Paper_Space0
340
26
  0
ENDTAB
  0
ENDSEC
  0
SECTION
  2
BLOCKS
  0
BLOCK
  5
20
330
1F
100
AcDbEntity
  8
0
100
AcDbBlockBegin
  2
*Model_Space
 70
     0
 10
0.0
 20
0.0
 30
0.0
  3
*Model_Space
  1

  0
ENDBLK
  5
21
330
1F
100
AcDbEntity
  8
0
100
AcDbBlockEnd
  0
BLOCK
  5
1C
330
1B
100
AcDbEntity
 67
     1
  8
0
100
AcDbBlockBegin
  2
*Paper_Space
 70
     0
 10
0.0
 20
0.0
 30
0.0
  3
*Paper_Space
  1

  0
ENDBLK
  5
1D
330
1B
100
AcDbEntity
 67
     1
  8
0
100
AcDbBlockEnd
  0
BLOCK
  5
24
330
23
100
AcDbEntity
  8
0
100
AcDbBlockBegin
  2
*Paper_Space0
 70
     0
 10
0.0
 20
0.0
 30
0.0
  3
*Paper_Space0
  1

  0
ENDBLK
  5
25
330
23
100
AcDbEntity
  8
0
100
AcDbBlockEnd
  0
ENDSEC
  0
SECTION
  2
ENTITIES
  0
SPLINE
  5
63
330
1F
100
AcDbEntity
  8
0
  6
Continuous
 62
     7
370
    25
100
AcDbSpline
210
0.0
220
0.0
230
1.0
 70
     8
 71
     3
 72
    13
 73
     9
 74
     0
 42
0.00000001
 43
0.00000001
 40
0.0
 40
0.0
 40
0.0
 40
0.0
 40
0.237546320276874
 40
0.357497050927321
 40
0.4849171224652855
 40
0.6133292680851108
 40
0.7401503701286964
 40
1.0
 40
1.0
 40
1.0
 40
1.0
 10
185.9057113644591
 20
-146.3508862786887
 30
0.0
 10
185.9057856592457
 20
-146.3858264864866
 30
0.0
 10
185.8944730675502
 20
-146.4382896951188
 30
0.0
 10
185.8583136316624
 20
-146.5002414152818
 30
0.0
 10
185.8203643254182
 20
-146.5407218100277
 30
0.0
 10
185.7757451375853
 20
-146.5751476015048
 30
0.0
 10
185.708046043676
 20
-146.6099453065006
 30
0.0
 10
185.6506383821679
 20
-146.6186391650393
 30
0.0
 10
185.6126424542027
 20
-146.6187148043297
 30
0.0
  0
SPLINE
  5
64
330
1F
100
AcDbEntity
  8
0
  6
Continuous
 62
     7
370
    25
100
AcDbSpline
210
0.0
220
0.0
230
1.0
 70
     8
 71
     3
 72
    13
 73
     9
 74
     0
 42
0.00000001
 43
0.00000001
 40
0.0
 40
0.0
 40
0.0
 40
0.0
 40
0.258284092316954
 40
0.3843411247790992
 40
0.5119796151257109
 40
0.6386320084211418
 40
0.7592297631645424
 40
1.0
 40
1.0
 40
1.0
 40
1.0
 10
185.6126424542027
 20
-146.0802532658682
 30
0.0
 10
185.6506406888338
 20
-146.0803274977716
 30
0.0
 10
185.7080416289506
 20
-146.0890254572939
 30
0.0
 10
185.7757516121463
 20
-146.1238165183103
 30
0.0
 10
185.8203397777819
 20
-146.158261237643
 30
0.0
 10
185.8585417799094
 20
-146.1988208026121
 30
0.0
 10
185.8945455577852
 20
-146.2619283509711
 30
0.0
 10
185.905912519274
 20
-146.3152288493826
 30
0.0
 10
185.9057113644591
 20
-146.3508862786888
 30
0.0
  0
SPLINE
  5
65
330
1F
100
AcDbEntity
  8
0
  6
Continuous
 62
     7
370
    25
100
AcDbSpline
210
0.0
220
0.0
230
1.0
 70
     8
 71
     3
 72
    13
 73
     9
 74
     0
 42
0.00000001
 43
0.00000001
 40
0.0
 40
0.0
 40
0.0
 40
0.0
 40
0.2421490813340146
 40
0.3634374760537338
 40
0.4897453933413804
 40
0.6181148445930097
 40
0.7448937812572662
 40
1.0
 40
1.0
 40
1.0
 40
1.0
 10
185.3223780311258
 20
-146.3508862786887
 30
0.0
 10
185.3222188671695
 20
-146.3152668252125
 30
0.0
 10
185.3334620467786
 20
-146.2618543805405
 30
0.0
 10
185.3695937815952
 20
-146.1990710756774
 30
0.0
 10
185.4070253142098
 20
-146.1580347626007
 30
0.0
 10
185.4516703061892
 20
-146.1238297533804
 30
0.0
 10
185.5187389250924
 20
-146.0894358586183
 30
0.0
 10
185.5752399134292
 20
-146.0800166775575
 30
0.0
 10
185.6126424542027
 20
-146.0802532658682
 30
0.0
  0
SPLINE
  5
66
330
1F
100
AcDbEntity
  8
0
  6
Continuous
 62
     7
370
    25
100
AcDbSpline
210
0.0
220
0.0
230
1.0
 70
     8
 71
     3
 72
    13
 73
     9
 74
     0
 42
0.00000001
 43
0.00000001
 40
0.0
 40
0.0
 40
0.0
 40
0.0
 40
0.2566614034533593
 40
0.3842132129425173
 40
0.513365233152567
 40
0.6404431518254281
 40
0.7610850047778875
 40
1.0
 40
1.0
 40
1.0
 40
1.0
 10
185.6126424542027
 20
-146.6187148043297
 30
0.0
 10
185.5752422028135
 20
-146.6189499901105
 30
0.0
 10
185.5187345440181
 20
-146.6095348955274
 30
0.0
 10
185.4516768416188
 20
-146.5751343130617
 30
0.0
 10
185.4070006419621
 20
-146.5409484223887
 30
0.0
 10
185.3698194231724
 20
-146.4999931401778
 30
0.0
 10
185.3335364484721
 20
-146.4383618738818
 30
0.0
 10
185.3223441791824
 20
-146.3857899425411
 30
0.0
 10
185.3223780311258
 20
-146.3508862786887
 30
0.0
  0
SPLINE
  5
6D
330
1F
100
AcDbEntity
  8
0
  6
Continuous
 62
     7
370
    25
100
AcDbSpline
210
0.0
220
0.0
230
1.0
 70
     8
 71
     3
 72
     9
 73
     5
 74
     0
 42
0.00000001
 43
0.00000001
 40
0.0
 40
0.0
 40
0.0
 40
0.0
 40
0.2505477821575955
 40
0.2950168130379232
 40
0.2950168130379232
 40
0.2950168130379232
 40
0.2950168130379232
 10
218.9425703388182
 20
-149.7597404453554
 30
0.0
 10
218.8421001306998
 20
-149.760900358235
 30
0.0
 10
218.724084097124
 20
-149.7472607606895
 30
0.0
 10
218.6091825878469
 20
-149.7194177970108
 30
0.0
 10
218.5919586922797
 20
-149.7148686516355
 30
0.0
  0
SPLINE
  5
6E
330
1F
100
AcDbEntity
  8
0
  6
Continuous
 62
     7
370
    25
100
AcDbSpline
210
0.0
220
0.0
230
1.0
 70
     8
 71
     3
 72
    21
 73
    17
 74
     0
 42
0.00000001
 43
0.00000001
 40
0.0
 40
0.0
 40
0.0
 40
0.0
 40
0.128034164391118
 40
0.1895737254178899
 40
0.2505798347323888
 40
0.3117332213636375
 40
0.3732500799286344
 40
0.4357625163356385
 40
0.500345561374114
 40
0.5649493665465393
 40
0.6275279092682854
 40
0.6891572899131411
 40
0.7498650117127035
 40
0.8107601999033194
 40
0.8722997609301011
 40
1.0
 40
1.0
 40
1.0
 40
1.0
 10
220.2775062362541
 20
-148.4290112786887
 30
0.0
 10
220.277302996929
 20
-148.5185205289123
 30
0.0
 10
220.2657821841584
 20
-148.6512077332129
 30
0.0
 10
220.2251278152255
 20
-148.8219284366282
 30
0.0
 10
220.1821130112076
 20
-148.943205099778
 30
0.0
 10
220.1264598936417
 20
-149.0591889109985
 30
0.0
 10
220.0587584793698
 20
-149.169795267693
 30
0.0
 10
219.9788711487829
 20
-149.2749889666371
 30
0.0
 10
219.8875702597082
 20
-149.3733419259033
 30
0.0
 10
219.7885172648307
 20
-149.463941007317
 30
0.0
 10
219.6826397710483
 20
-149.5431799133245
 30
0.0
 10
219.5715809175929
 20
-149.6097182481874
 30
0.0
 10
219.4559084709573
 20
-149.6653123695231
 30
0.0
 10
219.3346338832005
 20
-149.7071627513045
 30
0.0
 10
219.1643467563321
 20
-149.7481135362769
 30
0.0
 10
219.0318179496949
 20
-149.7594177285476
 30
0.0
 10
218.9425703388182
 20
-149.7597404453554
 30
0.0
  0
SPLINE
  5
6F
330
1F
100
AcDbEntity
  8
0
  6
Continuous
 62
     7
370
    25
100
AcDbSpline
210
0.0
220
0.0
230
1.0
 70
     8
 71
     3
 72
    21
 73
    17
 74
     0
 42
0.00000001
 43
0.00000001
 40
0.0
 40
0.0
 40
0.0
 40
0.0
 40
0.1286360505630803
 40
0.1906529019116509
 40
0.2521250372681146
 40
0.3134462756463756
 40
0.3752272792334022
 40
0.4384980827328699
 40
0.5032850999340445
 40
0.5680096868463748
 40
0.6308789816949804
 40
0.692153504008273
 40
0.7525521497156094
 40
0.8131910939047712
 40
0.8739853995183309
 40
1.0
 40
1.0
 40
1.0
 40
1.0
 10
218.93275463369
 20
-147.1123045479195
 30
0.0
 10
219.0223873643669
 20
-147.1132026701529
 30
0.0
 10
219.155670982986
 20
-147.1231624089326
 30
0.0
 10
219.3271050769936
 20
-147.1639304295293
 30
0.0
 10
219.4486714353697
 20
-147.2072979332482
 30
0.0
 10
219.5659349521003
 20
-147.2609623200904
 30
0.0
 10
219.6771569332885
 20
-147.3286769395243
 30
0.0
 10
219.7840705073824
 20
-147.4070837971947
 30
0.0
 10
219.8839867462585
 20
-147.4973157660438
 30
0.0
 10
219.9763078968903
 20
-147.5949440727653
 30
0.0
 10
220.0561548665465
 20
-147.6999663970816
 30
0.0
 10
220.1250239291837
 20
-147.8089288679506
 30
0.0
 10
220.1807046444462
 20
-147.9235213949935
 30
0.0
 10
220.2242740334397
 20
-148.0428389959382
 30
0.0
 10
220.266248267501
 20
-148.2105844748057
 30
0.0
 10
220.2769931615408
 20
-148.3411906606323
 30
0.0
 10
220.2775062362541
 20
-148.4290112786887
 30
0.0
  0
SPLINE
  5
70
330
1F
100
AcDbEntity
  8
0
  6
Continuous
 62
     7
370
    25
100
AcDbSpline
210
0.0
220
0.0
230
1.0
 70
     8
 71
     3
 72
    13
 73
     9
 74
     0
 42
0.00000001
 43
0.00000001
 40
0.0
 40
0.0
 40
0.0
 40
0.0
 40
0.2630446827611768
 40
0.386061082264361
 40
0.5057706525454617
 40
0.6251780311387105
 40
0.7461477220466194
 40
1.0
 40
1.0
 40
1.0
 40
1.0
 10
217.899301108049
 20
-147.6304335543297
 30
0.0
 10
217.961466343392
 20
-147.5451241065729
 30
0.0
 10
218.0658940355054
 20
-147.4291905277201
 30
0.0
 10
218.2271721141281
 20
-147.3050192869399
 30
0.0
 10
218.3542878844734
 20
-147.23358972244
 30
0.0
 10
218.4887210914335
 20
-147.1798259653164
 30
0.0
 10
218.6799562515033
 20
-147.1256767638141
 30
0.0
 10
218.831033970144
 20
-147.1126259948976
 30
0.0
 10
218.93275463369
 20
-147.1123045479195
 30
0.0
  0
SPLINE
  5
75
330
1F
100
AcDbEntity
  8
0
  6
Continuous
 62
     7
370
    25
100
AcDbSpline
210
0.0
220
0.0
230
1.0
 70
     8
 71
     3
 72
    13
 73
     9
 74
     0
 42
0.00000001
 43
0.00000001
 40
0.0
 40
0.0
 40
0.0
 40
0.0
 40
0.2538343627967438
 40
0.376505622522219
 40
0.4985336856679198
 40
0.6213677287324634
 40
0.7445647449043481
 40
1.0
 40
1.0
 40
1.0
 40
1.0
 10
216.6064325183053
 20
-147.5336787466374
 30
0.0
 10
216.6634635280413
 20
-147.5960166670145
 30
0.0
 10
216.7398575913604
 20
-147.6959551072061
 30
0.0
 10
216.8220969913488
 20
-147.840315897952
 30
0.0
 10
216.8712010661917
 20
-147.9525344039299
 30
0.0
 10
216.9098432356413
 20
-148.0689156053531
 30
0.0
 10
216.9470352182221
 20
-148.2318549050725
 30
0.0
 10
216.9565190269471
 20
-148.3580968680012
 30
0.0
 10
216.9569934157412
 20
-148.4430337145861
 30
0.0
  0
SPLINE
  5
76
330
1F
100
AcDbEntity
  8
0
  6
Continuous
 62
     7
370
    25
100
AcDbSpline
210
0.0
220
0.0
230
1.0
 70
     8
 71
     3
 72
    13
 73
     9
 74
     0
 42
0.00000001
 43
0.00000001
 40
0.0
 40
0.0
 40
0.0
 40
0.0
 40
0.2583323505141554
 40
0.3821339760925529
 40
0.5038043916000887
 40
0.6246929865409331
 40
0.746870589727583
 40
1.0
 40
1.0
 40
1.0
 40
1.0
 10
215.634677710613
 20
-147.1123045479195
 30
0.0
 10
215.728767871922
 20
-147.1113299073219
 30
0.0
 10
215.8679940445432
 20
-147.1248955891715
 30
0.0
 10
216.0461191729975
 20
-147.1695395603056
 30
0.0
 10
216.1719150865906
 20
-147.2147454725046
 30
0.0
 10
216.29029473072
 20
-147.275473685396
 30
0.0
 10
216.4426587283745
 20
-147.3730200164046
 30
0.0
 10
216.5442740343146
 20
-147.465742141486
 30
0.0
 10
216.6064325183053
 20
-147.5336787466374
 30
0.0
  0
SPLINE
  5
77
330
1F
100
AcDbEntity
  8
0
  6
Continuous
 62
     7
370
    25
100
AcDbSpline
210
0.0
220
0.0
230
1.0
 70
     8
 71
     3
 72
    13
 73
     9
 74
     0
 42
0.00000001
 43
0.00000001
 40
0.0
 40
0.0
 40
0.0
 40
0.0
 40
0.2527129855154525
 40
0.3748191325670321
 40
0.496436426372716
 40
0.6179105567458593
 40
0.7412876173092874
 40
1.0
 40
1.0
 40
1.0
 40
1.0
 10
214.6601184157412
 20
-147.535782112022
 30
0.0
 10
214.7217371046695
 20
-147.4669372943373
 30
0.0
 10
214.82425757286
 20
-147.3750961799251
 30
0.0
 10
214.9762597994982
 20
-147.2755757675571
 30
0.0
 10
215.0959411376312
 20
-147.2160443929601
 30
0.0
 10
215.2216358187152
 20
-147.169272742524
 30
0.0
 10
215.4004844396263
 20
-147.1249266135839
 30
0.0
 10
215.5401104033893
 20
-147.1114411921999
 30
0.0
 10
215.634677710613
 20
-147.1123045479195
 30
0.0
  0
SPLINE
  5
78
330
1F
100
AcDbEntity
  8
0
  6
Continuous
 62
     7
370
    25
100
AcDbSpline
210
0.0
220
0.0
230
1.0
 70
     8
 71
     3
 72
    13
 73
     9
 74
     0
 42
0.00000001
 43
0.00000001
 40
0.0
 40
0.0
 40
0.0
 40
0.0
 40
0.2552377249249108
 40
0.3786785959785437
 40
0.5010878871851229
 40
0.6227136794297555
 40
0.7462407949383606
 40
1.0
 40
1.0
 40
1.0
 40
1.0
 10
214.3095575183053
 20
-148.4430337145861
 30
0.0
 10
214.3100517850547
 20
-148.3583269172529
 30
0.0
 10
214.3195994006979
 20
-148.2323346033913
 30
0.0
 10
214.3566122863223
 20
-148.0698237148292
 30
0.0
 10
214.3953030021501
 20
-147.9538930185686
 30
0.0
 10
214.4448513533851
 20
-147.842161293413
 30
0.0
 10
214.5260066279143
 20
-147.6974083464642
 30
0.0
 10
214.6037051158561
 20
-147.5982930102168
 30
0.0
 10
214.6601184157412
 20
-147.535782112022
 30
0.0
  0
SPLINE
  5
79
330
1F
100
AcDbEntity
  8
0
  6
Continuous
 62
     7
370
    25
100
AcDbSpline
210
0.0
220
0.0
230
1.0
 70
     8
 71
     3
 72
    21
 73
    17
 74
     0
 42
0.00000001
 43
0.00000001
 40
0.0
 40
0.0
 40
0.0
 40
0.0
 40
0.1346351922242761
 40
0.1983241870671404
 40
0.2608250125604125
 40
0.3227135881590216
 40
0.3845545346076157
 40
0.4469128577247529
 40
0.5109576325148256
 40
0.5749307010013318
 40
0.6366845377960897
 40
0.6974831152940583
 40
0.757133807523845
 40
0.8169656636752662
 40
0.8768183516571935
 40
1.0
 40
1.0
 40
1.0
 40
1.0
 10
215.634677710613
 20
-149.7597404453554
 30
0.0
 10
215.541272094278
 20
-149.7593183527561
 30
0.0
 10
215.4032537392869
 20
-149.7488222600835
 30
0.0
 10
215.2267352612814
 20
-149.7068628796959
 30
0.0
 10
215.1035082654322
 20
-149.6630324278143
 30
0.0
 10
214.9863629971896
 20
-149.6077281177291
 30
0.0
 10
214.8765766080658
 20
-149.5391190384387
 30
0.0
 10
214.773376681386
 20
-149.4585581742366
 30
0.0
 10
214.6783046305798
 20
-149.366422432785
 30
0.0
 10
214.5923063003024
 20
-149.2664124235418
 30
0.0
 10
214.5164322977563
 20
-149.161262400395
 30
0.0
 10
214.4525455782731
 20
-149.0518522968329
 30
0.0
 10
214.4001741852123
 20
-148.9379696369905
 30
0.0
 10
214.3593915556408
 20
-148.8201108147925
 30
0.0
 10
214.3207599579417
 20
-148.655722024646
 30
0.0
 10
214.3090506109198
 20
-148.5286011317133
 30
0.0
 10
214.3095575183053
 20
-148.4430337145861
 30
0.0
  0
SPLINE
  5
7A
330
1F
100
AcDbEntity
  8
0
  6
Continuous
 62
     7
370
    25
100
AcDbSpline
210
0.0
220
0.0
230
1.0
 70
     8
 71
     3
 72
    21
 73
    17
 74
     0
 42
0.00000001
 43
0.00000001
 40
0.0
 40
0.0
 40
0.0
 40
0.0
 40
0.1233369785373337
 40
0.1832651398530907
 40
0.2431724430697145
 40
0.3028983539197498
 40
0.3637735975039145
 40
0.4256053049523784
 40
0.4896590425101796
 40
0.5537845767921109
 40
0.6162215328110776
 40
0.6778544713083462
 40
0.7395168974879353
 40
0.8020965355763663
 40
0.8658658412779725
 40
1.0
 40
1.0
 40
1.0
 40
1.0
 10
216.9569934157412
 20
-148.4430337145861
 30
0.0
 10
216.9575003250142
 20
-148.5286011345545
 30
0.0
 10
216.9457909724507
 20
-148.6557220191448
 30
0.0
 10
216.9071593837208
 20
-148.8201108227941
 30
0.0
 10
216.8663767289223
 20
-148.9379696070136
 30
0.0
 10
216.8140054304677
 20
-149.051852409283
 30
0.0
 10
216.7501183496168
 20
-149.1612619688163
 30
0.0
 10
216.6742457382179
 20
-149.2664140862954
 30
0.0
 10
216.5882420167086
 20
-149.3664159791934
 30
0.0
 10
216.4931900734199
 20
-149.4585819919364
 30
0.0
 10
216.3900739166591
 20
-149.5389109927442
 30
0.0
 10
216.280919980204
 20
-149.6077298370402
 30
0.0
 10
216.164276244985
 20
-149.6631762840443
 30
0.0
 10
216.0412102185176
 20
-149.7068477565237
 30
0.0
 10
215.8651550568173
 20
-149.7486995955932
 30
0.0
 10
215.7276277599997
 20
-149.7593764798013
 30
0.0
 10
215.634677710613
 20
-149.7597404453554
 30
0.0
  0
SPLINE
  5
98
330
1F
100
AcDbEntity
  8
0
  6
Continuous
 62
     7
370
    25
100
AcDbSpline
210
0.0
220
0.0
230
1.0
 70
     8
 71
     3
 72
    21
 73
    17
 74
     0
 42
0.00000001
 43
0.00000001
 40
0.0
 40
0.0
 40
0.0
 40
0.0
 40
0.1587238808249274
 40
0.2294242900919314
 40
0.2977193617268233
 40
0.3607760944828035
 40
0.4169875438103345
 40
0.4685455736808834
 40
0.5166749476257639
 40
0.5445339798616754
 40
0.5815093126016606
 40
0.6283340393799456
 40
0.6834325460478977
 40
0.7495060425029855
 40
0.8228181855220567
 40
1.0
 40
1.0
 40
1.0
 40
1.0
 10
209.0553507875361
 20
-146.3943558299707
 30
0.0
 10
209.0252069472405
 20
-146.3955061761798
 30
0.0
 10
208.980684564041
 20
-146.3977068710628
 30
0.0
 10
208.9264427030628
 20
-146.4158004966273
 30
0.0
 10
208.8915403190896
 20
-146.4328279434733
 30
0.0
 10
208.8625890831201
 20
-146.4541825662318
 30
0.0
 10
208.8378030357463
 20
-146.4756377293789
 30
0.0
 10
208.819836468043
 20
-146.4998229334649
 30
0.0
 10
208.8100815190246
 20
-146.5223433381758
 30
0.0
 10
208.8041315428142
 20
-146.5431943330327
 30
0.0
 10
208.8023412910033
 20
-146.5645485963309
 30
0.0
 10
208.7979570305968
 20
-146.5907726970428
 30
0.0
 10
208.7967310392694
 20
-146.6229363443783
 30
0.0
 10
208.7939588365853
 20
-146.6600393912314
 30
0.0
 10
208.7942115969267
 20
-146.7206384748536
 30
0.0
 10
208.7909523526011
 20
-146.7684829737262
 30
0.0
 10
208.7924301144592
 20
-146.8024087145862
 30
0.0
  0
SPLINE
  5
99
330
1F
100
AcDbEntity
  8
0
  6
Continuous
 62
     7
370
    25
100
AcDbSpline
210
0.0
220
0.0
230
1.0
 70
     8
 71
     3
 72
     9
 73
     5
 74
     0
 42
0.00000001
 43
0.00000001
 40
0.0
 40
0.0
 40
0.0
 40
0.0
 40
0.5530281727931717
 40
1.0
 40
1.0
 40
1.0
 40
1.0
 10
209.3736600824079
 20
-146.4728814709964
 30
0.0
 10
209.3176139904502
 20
-146.4494730008966
 30
0.0
 10
209.2138693470773
 20
-146.4116754297518
 30
0.0
 10
209.1046236326282
 20
-146.3945438259053
 30
0.0
 10
209.0553507875361
 20
-146.3943558299707
 30
0.0
  0
SPLINE
  5
9B
330
1F
100
AcDbEntity
  8
0
  6
Continuous
 62
     7
370
    25
100
AcDbSpline
210
0.0
220
0.0
230
1.0
 70
     8
 71
     3
 72
     9
 73
     5
 74
     0
 42
0.00000001
 43
0.00000001
 40
0.0
 40
0.0
 40
0.0
 40
0.0
 40
0.4538628546211163
 40
1.0
 40
1.0
 40
1.0
 40
1.0
 10
208.9908475824079
 20
-146.0802532658682
 30
0.0
 10
209.0498016058124
 20
-146.0809368067576
 30
0.0
 10
209.1796185458425
 20
-146.0930067588284
 30
0.0
 10
209.3055002415136
 20
-146.1268545744951
 30
0.0
 10
209.3736600824079
 20
-146.1461587145861
 30
0.0
  0
SPLINE
  5
9C
330
1F
100
AcDbEntity
  8
0
  6
Continuous
 62
     7
370
    25
100
AcDbSpline
210
0.0
220
0.0
230
1.0
 70
     8
 71
     3
 72
    21
 73
    17
 74
     0
 42
0.00000001
 43
0.00000001
 40
0.0
 40
0.0
 40
0.0
 40
0.0
 40
0.1338564334601535
 40
0.192947831648245
 40
0.2479159632911268
 40
0.2966422796887674
 40
0.3415043542394076
 40
0.3816302135621406
 40
0.4169048131312786
 40
0.4831733279551753
 40
0.5489166715113478
 40
0.6160616176624528
 40
0.6863021304191713
 40
0.7596451141755403
 40
0.8353895515120536
 40
1.0
 40
1.0
 40
1.0
 40
1.0
 10
208.476224184972
 20
-146.748422336381
 30
0.0
 10
208.4753737101238
 20
-146.7048937579554
 30
0.0
 10
208.4784812337914
 20
-146.642282753435
 30
0.0
 10
208.4825926656567
 20
-146.5618132961981
 30
0.0
 10
208.4883463909247
 20
-146.5092242354038
 30
0.0
 10
208.4950112759385
 20
-146.4613781901502
 30
0.0
 10
208.5045466978092
 20
-146.4189852858132
 30
0.0
 10
208.5135582355481
 20
-146.3809035341746
 30
0.0
 10
208.5299067847467
 20
-146.3378008652536
 30
0.0
 10
208.5543290117386
 20
-146.2889509151116
 30
0.0
 10
208.5938592528767
 20
-146.2373267128974
 30
0.0
 10
208.6412520658685
 20
-146.1910229283947
 30
0.0
 10
208.6978611690221
 20
-146.1520109557322
 30
0.0
 10
208.7615736075087
 20
-146.1196138181377
 30
0.0
 10
208.8588267851625
 20
-146.087630763876
 30
0.0
 10
208.9375364596517
 20
-146.0811631229749
 30
0.0
 10
208.9908475824079
 20
-146.0802532658682
 30
0.0
  0
SPLINE
  5
A4
330
1F
100
AcDbEntity
  8
0
  6
Continuous
 62
     7
370
    25
100
AcDbSpline
210
0.0
220
0.0
230
1.0
 70
     8
 71
     3
 72
    17
 73
    13
 74
     0
 42
0.00000001
 43
0.00000001
 40
0.0
 40
0.0
 40
0.0
 40
0.0
 40
0.163878894098493
 40
0.2456587396294971
 40
0.3277256953541201
 40
0.4086099609103139
 40
0.4857490859539227
 40
0.5591690561972801
 40
0.630268475857545
 40
0.7053060284320619
 40
0.7920649660966063
 40
1.0
 40
1.0
 40
1.0
 40
1.0
 10
206.3132634477925
 20
-149.4456378812528
 30
0.0
 10
206.3754573517324
 20
-149.445938712002
 30
0.0
 10
206.4687535841065
 20
-149.4386156507282
 30
0.0
 10
206.5906018775787
 20
-149.413096068702
 30
0.0
 10
206.6798626208424
 20
-149.3872377919114
 30
0.0
 10
206.7654334325937
 20
-149.3556525612249
 30
0.0
 10
206.8446793309245
 20
-149.3175520487396
 30
0.0
 10
206.9175582749099
 20
-149.2754009066769
 30
0.0
 10
206.985679893798
 20
-149.2271945489081
 30
0.0
 10
207.0517317336317
 20
-149.1681732237749
 30
0.0
 10
207.1452295226323
 20
-149.0633542921458
 30
0.0
 10
207.2123452923027
 20
-148.9737238266944
 30
0.0
 10
207.2548700183054
 20
-148.9071763427913
 30
0.0
  0
SPLINE
  5
A5
330
1F
100
AcDbEntity
  8
0
  6
Continuous
 62
     7
370
    25
100
AcDbSpline
210
0.0
220
0.0
230
1.0
 70
     8
 71
     3
 72
    21
 73
    17
 74
     0
 42
0.00000001
 43
0.00000001
 40
0.0
 40
0.0
 40
0.0
 40
0.0
 40
0.1344755875434521
 40
0.1983910577839574
 40
0.2607534774484873
 40
0.321829222807657
 40
0.3830372384795313
 40
0.4446531231064264
 40
0.507398011204001
 40
0.5698252379730294
 40
0.6307776406313149
 40
0.6909286865237272
 40
0.7509451326917459
 40
0.8110494767293264
 40
0.8723308525469928
 40
1.0
 40
1.0
 40
1.0
 40
1.0
 10
205.3800703388182
 20
-148.5033301889451
 30
0.0
 10
205.3818590632879
 20
-148.569576199954
 30
0.0
 10
205.3907394097074
 20
-148.6674324582154
 30
0.0
 10
205.4210199403806
 20
-148.7926457494637
 30
0.0
 10
205.452265705332
 20
-148.8797283292115
 30
0.0
 10
205.49013861984
 20
-148.9626585762512
 30
0.0
 10
205.5365227162772
 20
-149.0408205846296
 30
0.0
 10
205.5918627093949
 20
-149.1138585098754
 30
0.0
 10
205.6535882882009
 20
-149.1824256964188
 30
0.0
 10
205.7222954181737
 20
-149.2434862683899
 30
0.0
 10
205.7945781474876
 20
-149.2981387329056
 30
0.0
 10
205.8714717497101
 20
-149.3439418076453
 30
0.0
 10
205.9523697023837
 20
-149.3811310698366
 30
0.0
 10
206.0371419774433
 20
-149.4102021409136
 30
0.0
 10
206.1571240425158
 20
-149.4372686008944
 30
0.0
 10
206.2502522934084
 20
-149.4459875655558
 30
0.0
 10
206.3132634477925
 20
-149.4456378812528
 30
0.0
  0
SPLINE
  5
A7
330
1F
100
AcDbEntity
  8
0
  6
Continuous
 62
     7
370
    25
100
AcDbSpline
210
0.0
220
0.0
230
1.0
 70
     8
 71
     3
 72
    13
 73
     9
 74
     0
 42
0.00000001
 43
0.00000001
 40
0.0
 40
0.0
 40
0.0
 40
0.0
 40
0.2362547631617389
 40
0.3561744339909251
 40
0.4772496548985691
 40
0.6015398708217105
 40
0.7296183821680395
 40
1.0
 40
1.0
 40
1.0
 40
1.0
 10
207.3901865247156
 20
-147.6157099966374
 30
0.0
 10
207.4360731765886
 20
-147.6745988199867
 30
0.0
 10
207.4959822169747
 20
-147.770237983334
 30
0.0
 10
207.5595929849689
 20
-147.9070240052246
 30
0.0
 10
207.5979697626381
 20
-148.0159057390176
 30
0.0
 10
207.6289798956985
 20
-148.1297320896526
 30
0.0
 10
207.6595813791234
 20
-148.2920882081026
 30
0.0
 10
207.6669424126254
 20
-148.4180705474618
 30
0.0
 10
207.6685318772797
 20
-148.5033301889451
 30
0.0
  0
SPLINE
  5
A8
330
1F
100
AcDbEntity
  8
0
  6
Continuous
 62
     7
370
    25
100
AcDbSpline
210
0.0
220
0.0
230
1.0
 70
     8
 71
     3
 72
    13
 73
     9
 74
     0
 42
0.00000001
 43
0.00000001
 40
0.0
 40
0.0
 40
0.0
 40
0.0
 40
0.2590328407793636
 40
0.3818798239250257
 40
0.5022584437149807
 40
0.622752189527491
 40
0.7447426318590106
 40
1.0
 40
1.0
 40
1.0
 40
1.0
 10
206.3602386080489
 20
-147.1123045479195
 30
0.0
 10
206.4630661101291
 20
-147.111872574338
 30
0.0
 10
206.6149743708573
 20
-147.1267527799586
 30
0.0
 10
206.8075674340095
 20
-147.180042030118
 30
0.0
 10
206.9414117795163
 20
-147.2351276616073
 30
0.0
 10
207.0670812910918
 20
-147.306339408315
 30
0.0
 10
207.2253564668842
 20
-147.4254101936163
 30
0.0
 10
207.3287993810223
 20
-147.5350498840382
 30
0.0
 10
207.3901865247156
 20
-147.6157099966374
 30
0.0
  0
SPLINE
  5
A9
330
1F
100
AcDbEntity
  8
0
  6
Continuous
 62
     7
370
    25
100
AcDbSpline
210
0.0
220
0.0
230
1.0
 70
     8
 71
     3
 72
    13
 73
     9
 74
     0
 42
0.00000001
 43
0.00000001
 40
0.0
 40
0.0
 40
0.0
 40
0.0
 40
0.253589334986468
 40
0.3746432573141782
 40
0.4953400422377968
 40
0.6163247746357813
 40
0.7397593354405207
 40
1.0
 40
1.0
 40
1.0
 40
1.0
 10
205.3604389285618
 20
-147.5890673684323
 30
0.0
 10
205.4210119888448
 20
-147.5133428192795
 30
0.0
 10
205.5197799642511
 20
-147.4074609839097
 30
0.0
 10
205.6744421162305
 20
-147.2966984569343
 30
0.0
 10
205.7960191392619
 20
-147.2286589115697
 30
0.0
 10
205.9263605739857
 20
-147.1770263818535
 30
0.0
 10
206.1129065999565
 20
-147.1245319789653
 30
0.0
 10
206.2607823969324
 20
-147.1135031281059
 30
0.0
 10
206.3602386080489
 20
-147.1123045479195
 30
0.0
  0
SPLINE
  5
AA
330
1F
100
AcDbEntity
  8
0
  6
Continuous
 62
     7
370
    25
100
AcDbSpline
210
0.0
220
0.0
230
1.0
 70
     8
 71
     3
 72
    13
 73
     9
 74
     0
 42
0.00000001
 43
0.00000001
 40
0.0
 40
0.0
 40
0.0
 40
0.0
 40
0.2537679000244755
 40
0.3774284265813099
 40
0.5005508414825428
 40
0.6232958832424783
 40
0.7465783319335141
 40
1.0
 40
1.0
 40
1.0
 40
1.0
 10
205.0659677747156
 20
-148.4430337145861
 30
0.0
 10
205.0669210629206
 20
-148.3652400124271
 30
0.0
 10
205.074197142977
 20
-148.2491111522623
 30
0.0
 10
205.1058245225341
 20
-148.0985674413031
 30
0.0
 10
205.1379719552612
 20
-147.9896797494877
 30
0.0
 10
205.1795510569819
 20
-147.8841394997697
 30
0.0
 10
205.2477238333387
 20
-147.7466284635381
 30
0.0
 10
205.312887666067
 20
-147.6505591922576
 30
0.0
 10
205.3604389285618
 20
-147.5890673684323
 30
0.0
  0
SPLINE
  5
AB
330
1F
100
AcDbEntity
  8
0
  6
Continuous
 62
     7
370
    25
100
AcDbSpline
210
0.0
220
0.0
230
1.0
 70
     8
 71
     3
 72
    21
 73
    17
 74
     0
 42
0.00000001
 43
0.00000001
 40
0.0
 40
0.0
 40
0.0
 40
0.0
 40
0.1396292246928458
 40
0.2047966973966701
 40
0.268134963396684
 40
0.3298137469867259
 40
0.3913013977745555
 40
0.4534335150970496
 40
0.5165516903197623
 40
0.5796312707049187
 40
0.6411189214927482
 40
0.7012940466987696
 40
0.7608103356761358
 40
0.8199317217781451
 40
0.8789195754993788
 40
1.0
 40
1.0
 40
1.0
 40
1.0
 10
206.3525262683054
 20
-149.7597404453554
 30
0.0
 10
206.2567555883112
 20
-149.759701562454
 30
0.0
 10
206.1158338929725
 20
-149.7487052794126
 30
0.0
 10
205.9366020499412
 20
-149.7055589241091
 30
0.0
 10
205.8133919977173
 20
-149.6616332503224
 30
0.0
 10
205.6986493192145
 20
-149.6041956232341
 30
0.0
 10
205.5921485745183
 20
-149.5342388747849
 30
0.0
 10
205.4933290297116
 20
-149.4521058791247
 30
0.0
 10
205.4053047841875
 20
-149.3570896358019
 30
0.0
 10
205.3260610651728
 20
-149.2554076328292
 30
0.0
 10
205.2561346459852
 20
-149.1494517315498
 30
0.0
 10
205.1976793872859
 20
-149.0394886153493
 30
0.0
 10
205.150118807439
 20
-148.9262176816376
 30
0.0
 10
205.111743410525
 20
-148.8103553061536
 30
0.0
 10
205.0756621262523
 20
-148.649908161924
 30
0.0
 10
205.066882501953
 20
-148.5260563549362
 30
0.0
 10
205.0659677747156
 20
-148.4430337145861
 30
0.0
  0
SPLINE
  5
AC
330
1F
100
AcDbEntity
  8
0
  6
Continuous
 62
     7
370
    25
100
AcDbSpline
210
0.0
220
0.0
230
1.0
 70
     8
 71
     3
 72
    17
 73
    13
 74
     0
 42
0.00000001
 43
0.00000001
 40
0.0
 40
0.0
 40
0.0
 40
0.0
 40
0.1816607660710035
 40
0.2658742270426195
 40
0.3463547840343119
 40
0.4245998617179015
 40
0.5019031838373882
 40
0.5799920909873527
 40
0.6584434305294381
 40
0.7386722364878358
 40
0.8218941484362395
 40
1.0
 40
1.0
 40
1.0
 40
1.0
 10
207.5339164926643
 20
-149.0537107979195
 30
0.0
 10
207.4924156565432
 20
-149.1314034324456
 30
0.0
 10
207.422944665783
 20
-149.2403993181686
 30
0.0
 10
207.3159987816751
 20
-149.3701614728895
 30
0.0
 10
207.2309257889331
 20
-149.4519078910711
 30
0.0
 10
207.1412481829048
 20
-149.5231548405463
 30
0.0
 10
207.0465175958932
 20
-149.5854943575214
 30
0.0
 10
206.9462282803779
 20
-149.6386104395472
 30
0.0
 10
206.840378463951
 20
-149.6833711312447
 30
0.0
 10
206.7280798144092
 20
-149.7177493660218
 30
0.0
 10
206.5656965418332
 20
-149.7510750641493
 30
0.0
 10
206.4388200600631
 20
-149.7597292851809
 30
0.0
 10
206.3525262683054
 20
-149.7597404453554
 30
0.0
  0
SPLINE
  5
B1
330
1F
100
AcDbEntity
  8
0
  6
Continuous
 62
     7
370
    25
100
AcDbSpline
210
0.0
220
0.0
230
1.0
 70
     8
 71
     3
 72
    13
 73
     9
 74
     0
 42
0.00000001
 43
0.00000001
 40
0.0
 40
0.0
 40
0.0
 40
0.0
 40
0.2538343627967438
 40
0.376505622522219
 40
0.4985336856679198
 40
0.6213677287324634
 40
0.7445647449043481
 40
1.0
 40
1.0
 40
1.0
 40
1.0
 10
201.8436120054848
 20
-147.5336787466374
 30
0.0
 10
201.9006430152209
 20
-147.5960166670145
 30
0.0
 10
201.9770370785399
 20
-147.6959551072061
 30
0.0
 10
202.0592764785282
 20
-147.840315897952
 30
0.0
 10
202.1083805533712
 20
-147.9525344039299
 30
0.0
 10
202.1470227228208
 20
-148.0689156053531
 30
0.0
 10
202.1842147054016
 20
-148.2318549050724
 30
0.0
 10
202.1936985141265
 20
-148.3580968680012
 30
0.0
 10
202.1941729029207
 20
-148.4430337145861
 30
0.0
  0
SPLINE
  5
B2
330
1F
100
AcDbEntity
  8
0
  6
Continuous
 62
     7
370
    25
100
AcDbSpline
210
0.0
220
0.0
230
1.0
 70
     8
 71
     3
 72
    13
 73
     9
 74
     0
 42
0.00000001
 43
0.00000001
 40
0.0
 40
0.0
 40
0.0
 40
0.0
 40
0.2583323505141554
 40
0.3821339760925529
 40
0.5038043916000887
 40
0.6246929865409331
 40
0.746870589727583
 40
1.0
 40
1.0
 40
1.0
 40
1.0
 10
200.8718571977925
 20
-147.1123045479195
 30
0.0
 10
200.9659473591014
 20
-147.1113299073219
 30
0.0
 10
201.1051735317226
 20
-147.1248955891715
 30
0.0
 10
201.2832986601769
 20
-147.1695395603056
 30
0.0
 10
201.4090945737701
 20
-147.2147454725046
 30
0.0
 10
201.5274742178995
 20
-147.275473685396
 30
0.0
 10
201.679838215554
 20
-147.3730200164045
 30
0.0
 10
201.7814535214941
 20
-147.465742141486
 30
0.0
 10
201.8436120054848
 20
-147.5336787466374
 30
0.0
  0
SPLINE
  5
B3
330
1F
100
AcDbEntity
  8
0
  6
Continuous
 62
     7
370
    25
100
AcDbSpline
210
0.0
220
0.0
230
1.0
 70
     8
 71
     3
 72
    13
 73
     9
 74
     0
 42
0.00000001
 43
0.00000001
 40
0.0
 40
0.0
 40
0.0
 40
0.0
 40
0.2527129855154525
 40
0.3748191325670321
 40
0.496436426372716
 40
0.6179105567458593
 40
0.7412876173092874
 40
1.0
 40
1.0
 40
1.0
 40
1.0
 10
199.8972979029207
 20
-147.535782112022
 30
0.0
 10
199.958916591849
 20
-147.4669372943374
 30
0.0
 10
200.0614370600395
 20
-147.3750961799251
 30
0.0
 10
200.2134392866776
 20
-147.2755757675572
 30
0.0
 10
200.3331206248107
 20
-147.2160443929601
 30
0.0
 10
200.4588153058946
 20
-147.169272742524
 30
0.0
 10
200.6376639268058
 20
-147.1249266135838
 30
0.0
 10
200.7772898905689
 20
-147.1114411921999
 30
0.0
 10
200.8718571977925
 20
-147.1123045479195
 30
0.0
  0
SPLINE
  5
B4
330
1F
100
AcDbEntity
  8
0
  6
Continuous
 62
     7
370
    25
100
AcDbSpline
210
0.0
220
0.0
230
1.0
 70
     8
 71
     3
 72
    13
 73
     9
 74
     0
 42
0.00000001
 43
0.00000001
 40
0.0
 40
0.0
 40
0.0
 40
0.0
 40
0.2552377249249108
 40
0.3786785959785437
 40
0.5010878871851229
 40
0.6227136794297555
 40
0.7462407949383606
 40
1.0
 40
1.0
 40
1.0
 40
1.0
 10
199.5467370054848
 20
-148.4430337145861
 30
0.0
 10
199.5472312722342
 20
-148.3583269172529
 30
0.0
 10
199.5567788878774
 20
-148.2323346033914
 30
0.0
 10
199.5937917735018
 20
-148.0698237148292
 30
0.0
 10
199.6324824893296
 20
-147.9538930185686
 30
0.0
 10
199.6820308405646
 20
-147.842161293413
 30
0.0
 10
199.7631861150938
 20
-147.6974083464641
 30
0.0
 10
199.8408846030356
 20
-147.5982930102168
 30
0.0
 10
199.8972979029207
 20
-147.535782112022
 30
0.0
  0
SPLINE
  5
B5
330
1F
100
AcDbEntity
  8
0
  6
Continuous
 62
     7
370
    25
100
AcDbSpline
210
0.0
220
0.0
230
1.0
 70
     8
 71
     3
 72
    21
 73
    17
 74
     0
 42
0.00000001
 43
0.00000001
 40
0.0
 40
0.0
 40
0.0
 40
0.0
 40
0.1346351922242761
 40
0.1983241870671404
 40
0.2608250125604125
 40
0.3227135881590216
 40
0.3845545346076157
 40
0.4469128577247529
 40
0.5109576325148256
 40
0.5749307010013318
 40
0.6366845377960897
 40
0.6974831152940583
 40
0.757133807523845
 40
0.8169656636752662
 40
0.8768183516571935
 40
1.0
 40
1.0
 40
1.0
 40
1.0
 10
200.8718571977925
 20
-149.7597404453554
 30
0.0
 10
200.7784515814574
 20
-149.759318352756
 30
0.0
 10
200.6404332264663
 20
-149.7488222600835
 30
0.0
 10
200.4639147484608
 20
-149.7068628796959
 30
0.0
 10
200.3406877526117
 20
-149.6630324278143
 30
0.0
 10
200.2235424843691
 20
-149.6077281177291
 30
0.0
 10
200.1137560952453
 20
-149.5391190384387
 30
0.0
 10
200.0105561685654
 20
-149.4585581742367
 30
0.0
 10
199.9154841177593
 20
-149.3664224327849
 30
0.0
 10
199.8294857874819
 20
-149.2664124235418
 30
0.0
 10
199.7536117849357
 20
-149.161262400395
 30
0.0
 10
199.6897250654525
 20
-149.0518522968329
 30
0.0
 10
199.6373536723917
 20
-148.9379696369905
 30
0.0
 10
199.5965710428203
 20
-148.8201108147925
 30
0.0
 10
199.5579394451212
 20
-148.6557220246461
 30
0.0
 10
199.5462300980992
 20
-148.5286011317131
 30
0.0
 10
199.5467370054848
 20
-148.4430337145861
 30
0.0
  0
SPLINE
  5
B6
330
1F
100
AcDbEntity
  8
0
  6
Continuous
 62
     7
370
    25
100
AcDbSpline
210
0.0
220
0.0
230
1.0
 70
     8
 71
     3
 72
    21
 73
    17
 74
     0
 42
0.00000001
 43
0.00000001
 40
0.0
 40
0.0
 40
0.0
 40
0.0
 40
0.1233369785373337
 40
0.1832651398530907
 40
0.2431724430697145
 40
0.3028983539197498
 40
0.3637735975039145
 40
0.4256053049523784
 40
0.4896590425101796
 40
0.5537845767921109
 40
0.6162215328110776
 40
0.6778544713083462
 40
0.7395168974879353
 40
0.8020965355763663
 40
0.8658658412779725
 40
1.0
 40
1.0
 40
1.0
 40
1.0
 10
202.1941729029207
 20
-148.4430337145861
 30
0.0
 10
202.1946798121936
 20
-148.5286011345545
 30
0.0
 10
202.1829704596302
 20
-148.6557220191448
 30
0.0
 10
202.1443388709003
 20
-148.8201108227942
 30
0.0
 10
202.1035562161018
 20
-148.9379696070136
 30
0.0
 10
202.0511849176472
 20
-149.051852409283
 30
0.0
 10
201.9872978367962
 20
-149.1612619688164
 30
0.0
 10
201.9114252253974
 20
-149.2664140862954
 30
0.0
 10
201.8254215038881
 20
-149.3664159791934
 30
0.0
 10
201.7303695605993
 20
-149.4585819919364
 30
0.0
 10
201.6272534038386
 20
-149.5389109927442
 30
0.0
 10
201.5180994673836
 20
-149.6077298370402
 30
0.0
 10
201.4014557321645
 20
-149.6631762840443
 30
0.0
 10
201.2783897056971
 20
-149.7068477565237
 30
0.0
 10
201.1023345439968
 20
-149.7486995955932
 30
0.0
 10
200.9648072471792
 20
-149.7593764798014
 30
0.0
 10
200.8718571977925
 20
-149.7597404453554
 30
0.0
  0
SPLINE
  5
B9
330
1F
100
AcDbEntity
  8
0
  6
Continuous
 62
     7
370
    25
100
AcDbSpline
210
0.0
220
0.0
230
1.0
 70
     8
 71
     3
 72
     9
 73
     5
 74
     0
 42
0.00000001
 43
0.00000001
 40
0.0
 40
0.0
 40
0.0
 40
0.0
 40
0.2505477821575955
 40
0.2950168130379409
 40
0.2950168130379409
 40
0.2950168130379409
 40
0.2950168130379409
 10
197.6733395695873
 20
-149.7597404453554
 30
0.0
 10
197.5728693614688
 20
-149.760900358235
 30
0.0
 10
197.4548533278931
 20
-149.7472607606895
 30
0.0
 10
197.339951818616
 20
-149.7194177970108
 30
0.0
 10
197.3227279230488
 20
-149.7148686516355
 30
0.0
  0
SPLINE
  5
BA
330
1F
100
AcDbEntity
  8
0
  6
Continuous
 62
     7
370
    25
100
AcDbSpline
210
0.0
220
0.0
230
1.0
 70
     8
 71
     3
 72
    21
 73
    17
 74
     0
 42
0.00000001
 43
0.00000001
 40
0.0
 40
0.0
 40
0.0
 40
0.0
 40
0.128034164391118
 40
0.1895737254178899
 40
0.2505798347323888
 40
0.3117332213636375
 40
0.3732500799286344
 40
0.4357625163356385
 40
0.500345561374114
 40
0.5649493665465393
 40
0.6275279092682854
 40
0.6891572899131411
 40
0.7498650117127035
 40
0.8107601999033194
 40
0.8722997609301011
 40
1.0
 40
1.0
 40
1.0
 40
1.0
 10
199.0082754670232
 20
-148.4290112786887
 30
0.0
 10
199.008072227698
 20
-148.5185205289123
 30
0.0
 10
198.9965514149275
 20
-148.6512077332129
 30
0.0
 10
198.9558970459945
 20
-148.8219284366282
 30
0.0
 10
198.9128822419767
 20
-148.943205099778
 30
0.0
 10
198.8572291244107
 20
-149.0591889109985
 30
0.0
 10
198.7895277101389
 20
-149.169795267693
 30
0.0
 10
198.7096403795519
 20
-149.2749889666372
 30
0.0
 10
198.6183394904773
 20
-149.3733419259033
 30
0.0
 10
198.5192864955998
 20
-149.463941007317
 30
0.0
 10
198.4134090018173
 20
-149.5431799133245
 30
0.0
 10
198.302350148362
 20
-149.6097182481874
 30
0.0
 10
198.1866777017264
 20
-149.6653123695231
 30
0.0
 10
198.0654031139696
 20
-149.7071627513045
 30
0.0
 10
197.8951159871011
 20
-149.7481135362769
 30
0.0
 10
197.762587180464
 20
-149.7594177285476
 30
0.0
 10
197.6733395695873
 20
-149.7597404453554
 30
0.0
  0
SPLINE
  5
BB
330
1F
100
AcDbEntity
  8
0
  6
Continuous
 62
     7
370
    25
100
AcDbSpline
210
0.0
220
0.0
230
1.0
 70
     8
 71
     3
 72
    21
 73
    17
 74
     0
 42
0.00000001
 43
0.00000001
 40
0.0
 40
0.0
 40
0.0
 40
0.0
 40
0.1286360505630803
 40
0.1906529019116509
 40
0.2521250372681146
 40
0.3134462756463756
 40
0.3752272792334022
 40
0.4384980827328699
 40
0.5032850999340445
 40
0.5680096868463748
 40
0.6308789816949804
 40
0.692153504008273
 40
0.7525521497156094
 40
0.8131910939047712
 40
0.8739853995183309
 40
1.0
 40
1.0
 40
1.0
 40
1.0
 10
197.6635238644591
 20
-147.1123045479195
 30
0.0
 10
197.7531565951359
 20
-147.1132026701529
 30
0.0
 10
197.8864402137551
 20
-147.1231624089326
 30
0.0
 10
198.0578743077627
 20
-147.1639304295293
 30
0.0
 10
198.1794406661388
 20
-147.2072979332482
 30
0.0
 10
198.2967041828694
 20
-147.2609623200904
 30
0.0
 10
198.4079261640576
 20
-147.3286769395244
 30
0.0
 10
198.5148397381515
 20
-147.4070837971947
 30
0.0
 10
198.6147559770276
 20
-147.4973157660438
 30
0.0
 10
198.7070771276593
 20
-147.5949440727653
 30
0.0
 10
198.7869240973155
 20
-147.6999663970815
 30
0.0
 10
198.8557931599527
 20
-147.8089288679507
 30
0.0
 10
198.9114738752153
 20
-147.9235213949935
 30
0.0
 10
198.9550432642087
 20
-148.0428389959383
 30
0.0
 10
198.99701749827
 20
-148.2105844748056
 30
0.0
 10
199.00776239231
 20
-148.3411906606324
 30
0.0
 10
199.0082754670232
 20
-148.4290112786887
 30
0.0
  0
SPLINE
  5
BC
330
1F
100
AcDbEntity
  8
0
  6
Continuous
 62
     7
370
    25
100
AcDbSpline
210
0.0
220
0.0
230
1.0
 70
     8
 71
     3
 72
    13
 73
     9
 74
     0
 42
0.00000001
 43
0.00000001
 40
0.0
 40
0.0
 40
0.0
 40
0.0
 40
0.2630446827611768
 40
0.386061082264361
 40
0.5057706525454617
 40
0.6251780311387105
 40
0.7461477220466194
 40
1.0
 40
1.0
 40
1.0
 40
1.0
 10
196.6300703388181
 20
-147.6304335543297
 30
0.0
 10
196.692235574161
 20
-147.545124106573
 30
0.0
 10
196.7966632662746
 20
-147.4291905277201
 30
0.0
 10
196.9579413448972
 20
-147.3050192869399
 30
0.0
 10
197.0850571152424
 20
-147.23358972244
 30
0.0
 10
197.2194903222026
 20
-147.1798259653164
 30
0.0
 10
197.4107254822723
 20
-147.1256767638141
 30
0.0
 10
197.5618032009131
 20
-147.1126259948976
 30
0.0
 10
197.6635238644591
 20
-147.1123045479195
 30
0.0
  0
SPLINE
  5
CB
330
1F
100
AcDbEntity
  8
0
  6
Continuous
 62
     7
370
    25
100
AcDbSpline
210
0.0
220
0.0
230
1.0
 70
     8
 71
     3
 72
    17
 73
    13
 74
     0
 42
0.00000001
 43
0.00000001
 40
0.0
 40
0.0
 40
0.0
 40
0.0
 40
0.163878894098493
 40
0.2456587396294971
 40
0.3277256953541201
 40
0.4086099609103139
 40
0.4857490859539227
 40
0.5591690561972801
 40
0.630268475857545
 40
0.7053060284320619
 40
0.7920649660966063
 40
1.0
 40
1.0
 40
1.0
 40
1.0
 10
191.9991608836899
 20
-149.4456378812528
 30
0.0
 10
192.0613547876297
 20
-149.4459387120019
 30
0.0
 10
192.1546510200039
 20
-149.4386156507282
 30
0.0
 10
192.2764993134761
 20
-149.413096068702
 30
0.0
 10
192.3657600567398
 20
-149.3872377919114
 30
0.0
 10
192.451330868491
 20
-149.3556525612249
 30
0.0
 10
192.5305767668218
 20
-149.3175520487396
 30
0.0
 10
192.6034557108073
 20
-149.2754009066769
 30
0.0
 10
192.6715773296953
 20
-149.2271945489081
 30
0.0
 10
192.737629169529
 20
-149.1681732237749
 30
0.0
 10
192.8311269585296
 20
-149.0633542921457
 30
0.0
 10
192.8982427282
 20
-148.9737238266944
 30
0.0
 10
192.9407674542027
 20
-148.9071763427913
 30
0.0
  0
SPLINE
  5
CC
330
1F
100
AcDbEntity
  8
0
  6
Continuous
 62
     7
370
    25
100
AcDbSpline
210
0.0
220
0.0
230
1.0
 70
     8
 71
     3
 72
    21
 73
    17
 74
     0
 42
0.00000001
 43
0.00000001
 40
0.0
 40
0.0
 40
0.0
 40
0.0
 40
0.1344755875434521
 40
0.1983910577839574
 40
0.2607534774484873
 40
0.321829222807657
 40
0.3830372384795313
 40
0.4446531231064264
 40
0.507398011204001
 40
0.5698252379730294
 40
0.6307776406313149
 40
0.6909286865237272
 40
0.7509451326917459
 40
0.8110494767293264
 40
0.8723308525469928
 40
1.0
 40
1.0
 40
1.0
 40
1.0
 10
191.0659677747155
 20
-148.5033301889451
 30
0.0
 10
191.0677564991853
 20
-148.569576199954
 30
0.0
 10
191.0766368456048
 20
-148.6674324582154
 30
0.0
 10
191.106917376278
 20
-148.7926457494637
 30
0.0
 10
191.1381631412293
 20
-148.8797283292114
 30
0.0
 10
191.1760360557373
 20
-148.9626585762512
 30
0.0
 10
191.2224201521745
 20
-149.0408205846295
 30
0.0
 10
191.2777601452922
 20
-149.1138585098754
 30
0.0
 10
191.3394857240982
 20
-149.1824256964188
 30
0.0
 10
191.408192854071
 20
-149.2434862683899
 30
0.0
 10
191.4804755833849
 20
-149.2981387329056
 30
0.0
 10
191.5573691856075
 20
-149.3439418076453
 30
0.0
 10
191.638267138281
 20
-149.3811310698365
 30
0.0
 10
191.7230394133406
 20
-149.4102021409137
 30
0.0
 10
191.8430214784131
 20
-149.4372686008944
 30
0.0
 10
191.9361497293058
 20
-149.4459875655558
 30
0.0
 10
191.9991608836899
 20
-149.4456378812528
 30
0.0
  0
SPLINE
  5
CE
330
1F
100
AcDbEntity
  8
0
  6
Continuous
 62
     7
370
    25
100
AcDbSpline
210
0.0
220
0.0
230
1.0
 70
     8
 71
     3
 72
    13
 73
     9
 74
     0
 42
0.00000001
 43
0.00000001
 40
0.0
 40
0.0
 40
0.0
 40
0.0
 40
0.2362547631617389
 40
0.3561744339909251
 40
0.4772496548985691
 40
0.6015398708217105
 40
0.7296183821680395
 40
1.0
 40
1.0
 40
1.0
 40
1.0
 10
193.0760839606129
 20
-147.6157099966374
 30
0.0
 10
193.121970612486
 20
-147.6745988199867
 30
0.0
 10
193.1818796528721
 20
-147.770237983334
 30
0.0
 10
193.2454904208662
 20
-147.9070240052246
 30
0.0
 10
193.2838671985355
 20
-148.0159057390176
 30
0.0
 10
193.3148773315958
 20
-148.1297320896526
 30
0.0
 10
193.3454788150208
 20
-148.2920882081026
 30
0.0
 10
193.3528398485228
 20
-148.4180705474618
 30
0.0
 10
193.354429313177
 20
-148.5033301889451
 30
0.0
  0
SPLINE
  5
CF
330
1F
100
AcDbEntity
  8
0
  6
Continuous
 62
     7
370
    25
100
AcDbSpline
210
0.0
220
0.0
230
1.0
 70
     8
 71
     3
 72
    13
 73
     9
 74
     0
 42
0.00000001
 43
0.00000001
 40
0.0
 40
0.0
 40
0.0
 40
0.0
 40
0.2590328407793636
 40
0.3818798239250257
 40
0.5022584437149807
 40
0.622752189527491
 40
0.7447426318590106
 40
1.0
 40
1.0
 40
1.0
 40
1.0
 10
192.0461360439463
 20
-147.1123045479195
 30
0.0
 10
192.1489635460265
 20
-147.1118725743379
 30
0.0
 10
192.3008718067546
 20
-147.1267527799587
 30
0.0
 10
192.4934648699069
 20
-147.180042030118
 30
0.0
 10
192.6273092154136
 20
-147.2351276616074
 30
0.0
 10
192.7529787269891
 20
-147.306339408315
 30
0.0
 10
192.9112539027815
 20
-147.4254101936163
 30
0.0
 10
193.0146968169197
 20
-147.5350498840382
 30
0.0
 10
193.0760839606129
 20
-147.6157099966374
 30
0.0
  0
SPLINE
  5
D0
330
1F
100
AcDbEntity
  8
0
  6
Continuous
 62
     7
370
    25
100
AcDbSpline
210
0.0
220
0.0
230
1.0
 70
     8
 71
     3
 72
    13
 73
     9
 74
     0
 42
0.00000001
 43
0.00000001
 40
0.0
 40
0.0
 40
0.0
 40
0.0
 40
0.253589334986468
 40
0.3746432573141782
 40
0.4953400422377968
 40
0.6163247746357813
 40
0.7397593354405207
 40
1.0
 40
1.0
 40
1.0
 40
1.0
 10
191.0463363644591
 20
-147.5890673684323
 30
0.0
 10
191.1069094247422
 20
-147.5133428192795
 30
0.0
 10
191.2056774001484
 20
-147.4074609839097
 30
0.0
 10
191.3603395521278
 20
-147.2966984569343
 30
0.0
 10
191.4819165751593
 20
-147.2286589115697
 30
0.0
 10
191.612258009883
 20
-147.1770263818535
 30
0.0
 10
191.7988040358538
 20
-147.1245319789652
 30
0.0
 10
191.9466798328297
 20
-147.1135031281059
 30
0.0
 10
192.0461360439463
 20
-147.1123045479195
 30
0.0
  0
SPLINE
  5
D1
330
1F
100
AcDbEntity
  8
0
  6
Continuous
 62
     7
370
    25
100
AcDbSpline
210
0.0
220
0.0
230
1.0
 70
     8
 71
     3
 72
    13
 73
     9
 74
     0
 42
0.00000001
 43
0.00000001
 40
0.0
 40
0.0
 40
0.0
 40
0.0
 40
0.2537679000244755
 40
0.3774284265813099
 40
0.5005508414825428
 40
0.6232958832424783
 40
0.7465783319335141
 40
1.0
 40
1.0
 40
1.0
 40
1.0
 10
190.751865210613
 20
-148.4430337145861
 30
0.0
 10
190.7528184988181
 20
-148.3652400124271
 30
0.0
 10
190.7600945788743
 20
-148.2491111522624
 30
0.0
 10
190.7917219584315
 20
-148.0985674413031
 30
0.0
 10
190.8238693911586
 20
-147.9896797494877
 30
0.0
 10
190.8654484928793
 20
-147.8841394997697
 30
0.0
 10
190.933621269236
 20
-147.7466284635381
 30
0.0
 10
190.9987851019644
 20
-147.6505591922576
 30
0.0
 10
191.0463363644591
 20
-147.5890673684323
 30
0.0
  0
SPLINE
  5
D2
330
1F
100
AcDbEntity
  8
0
  6
Continuous
 62
     7
370
    25
100
AcDbSpline
210
0.0
220
0.0
230
1.0
 70
     8
 71
     3
 72
    21
 73
    17
 74
     0
 42
0.00000001
 43
0.00000001
 40
0.0
 40
0.0
 40
0.0
 40
0.0
 40
0.1396292246928458
 40
0.2047966973966701
 40
0.268134963396684
 40
0.3298137469867259
 40
0.3913013977745555
 40
0.4534335150970496
 40
0.5165516903197623
 40
0.5796312707049187
 40
0.6411189214927482
 40
0.7012940466987696
 40
0.7608103356761358
 40
0.8199317217781451
 40
0.8789195754993788
 40
1.0
 40
1.0
 40
1.0
 40
1.0
 10
192.0384237042027
 20
-149.7597404453554
 30
0.0
 10
191.9426530242086
 20
-149.759701562454
 30
0.0
 10
191.8017313288699
 20
-149.7487052794126
 30
0.0
 10
191.6224994858386
 20
-149.7055589241091
 30
0.0
 10
191.4992894336147
 20
-149.6616332503224
 30
0.0
 10
191.3845467551118
 20
-149.6041956232342
 30
0.0
 10
191.2780460104157
 20
-149.5342388747848
 30
0.0
 10
191.1792264656089
 20
-149.4521058791247
 30
0.0
 10
191.0912022200849
 20
-149.3570896358019
 30
0.0
 10
191.0119585010701
 20
-149.2554076328293
 30
0.0
 10
190.9420320818826
 20
-149.1494517315498
 30
0.0
 10
190.8835768231832
 20
-149.0394886153493
 30
0.0
 10
190.8360162433363
 20
-148.9262176816376
 30
0.0
 10
190.7976408464224
 20
-148.8103553061536
 30
0.0
 10
190.7615595621497
 20
-148.6499081619241
 30
0.0
 10
190.7527799378503
 20
-148.5260563549361
 30
0.0
 10
190.751865210613
 20
-148.4430337145861
 30
0.0
  0
SPLINE
  5
D3
330
1F
100
AcDbEntity
  8
0
  6
Continuous
 62
     7
370
    25
100
AcDbSpline
210
0.0
220
0.0
230
1.0
 70
     8
 71
     3
 72
    17
 73
    13
 74
     0
 42
0.00000001
 43
0.00000001
 40
0.0
 40
0.0
 40
0.0
 40
0.0
 40
0.1816607660710035
 40
0.2658742270426195
 40
0.3463547840343119
 40
0.4245998617179015
 40
0.5019031838373882
 40
0.5799920909873527
 40
0.6584434305294381
 40
0.7386722364878358
 40
0.8218941484362395
 40
1.0
 40
1.0
 40
1.0
 40
1.0
 10
193.2198139285617
 20
-149.0537107979195
 30
0.0
 10
193.1783130924405
 20
-149.1314034324456
 30
0.0
 10
193.1088421016803
 20
-149.2403993181686
 30
0.0
 10
193.0018962175724
 20
-149.3701614728895
 30
0.0
 10
192.9168232248305
 20
-149.4519078910711
 30
0.0
 10
192.8271456188021
 20
-149.5231548405463
 30
0.0
 10
192.7324150317906
 20
-149.5854943575215
 30
0.0
 10
192.6321257162753
 20
-149.6386104395472
 30
0.0
 10
192.5262758998484
 20
-149.6833711312447
 30
0.0
 10
192.4139772503066
 20
-149.7177493660219
 30
0.0
 10
192.2515939777305
 20
-149.7510750641492
 30
0.0
 10
192.1247174959605
 20
-149.759729285181
 30
0.0
 10
192.0384237042027
 20
-149.7597404453554
 30
0.0
  0
SPLINE
  5
D5
330
1F
100
AcDbEntity
  8
0
  6
Continuous
 62
     7
370
    25
100
AcDbSpline
210
0.0
220
0.0
230
1.0
 70
     8
 71
     3
 72
    21
 73
    17
 74
     0
 42
0.00000001
 43
0.00000001
 40
0.0
 40
0.0
 40
0.0
 40
0.0
 40
0.1511781404663821
 40
0.2234879838003962
 40
0.295542644198858
 40
0.3669762546197895
 40
0.4371305254863864
 40
0.5070436156432604
 40
0.5785597335236814
 40
0.6166135446965453
 40
0.6587562369775268
 40
0.7044912261144033
 40
0.7548031149051485
 40
0.8093316253185628
 40
0.8682744554728155
 40
1.0
 40
1.0
 40
1.0
 40
1.0
 10
187.8211761080489
 20
-147.1123045479195
 30
0.0
 10
187.913551753556
 20
-147.1129163230875
 30
0.0
 10
188.0514278935696
 20
-147.1279187969782
 30
0.0
 10
188.2219996937955
 20
-147.190670604938
 30
0.0
 10
188.3386141526859
 20
-147.2538280882146
 30
0.0
 10
188.4437427132246
 20
-147.3324489956687
 30
0.0
 10
188.5360672132501
 20
-147.4240229900504
 30
0.0
 10
188.6124305472639
 20
-147.5293600888954
 30
0.0
 10
188.6636279131005
 20
-147.6270829934205
 30
0.0
 10
188.6973535058983
 20
-147.7137718238447
 30
0.0
 10
188.7185860511179
 20
-147.7880185654576
 30
0.0
 10
188.7366161392169
 20
-147.8707367192809
 30
0.0
 10
188.7522517112768
 20
-147.9616763072574
 30
0.0
 10
188.7628126760227
 20
-148.0614744989532
 30
0.0
 10
188.7744454438722
 20
-148.2112010760057
 30
0.0
 10
188.7782861887888
 20
-148.3279920434474
 30
0.0
 10
188.777506236254
 20
-148.4086787466374
 30
0.0
  0
SPLINE
  5
D6
330
1F
100
AcDbEntity
  8
0
  6
Continuous
 62
     7
370
    25
100
AcDbSpline
210
0.0
220
0.0
230
1.0
 70
     8
 71
     3
 72
    13
 73
     9
 74
     0
 42
0.00000001
 43
0.00000001
 40
0.0
 40
0.0
 40
0.0
 40
0.0
 40
0.2735687809631731
 40
0.3989883138042535
 40
0.5199297813924282
 40
0.6381100215247281
 40
0.7565889007405957
 40
1.0
 40
1.0
 40
1.0
 40
1.0
 10
186.8480190567668
 20
-147.6185144838169
 30
0.0
 10
186.9113758609884
 20
-147.5363072219199
 30
0.0
 10
187.012270638979
 20
-147.4213866188356
 30
0.0
 10
187.1695896780155
 20
-147.300825799517
 30
0.0
 10
187.2895622241394
 20
-147.230690360137
 30
0.0
 10
187.4151907070886
 20
-147.1778991169998
 30
0.0
 10
187.5906926359737
 20
-147.1263085177195
 30
0.0
 10
187.7287264299353
 20
-147.1127807883857
 30
0.0
 10
187.8211761080489
 20
-147.1123045479195
 30
0.0
  0
SPLINE
  5
E3
330
1F
100
AcDbEntity
  8
0
  6
Continuous
 62
     7
370
    25
100
AcDbSpline
210
0.0
220
0.0
230
1.0
 70
     8
 71
     3
 72
    13
 73
     9
 74
     0
 42
0.00000001
 43
0.00000001
 40
0.0
 40
0.0
 40
0.0
 40
0.0
 40
0.2546535308973005
 40
0.3760145541937168
 40
0.4952552518176174
 40
0.6147977192994625
 40
0.7381055541683315
 40
1.0
 40
1.0
 40
1.0
 40
1.0
 10
183.4349581593309
 20
-147.1123045479195
 30
0.0
 10
183.5371508427586
 20
-147.1126035177343
 30
0.0
 10
183.6888941738775
 20
-147.1257235828131
 30
0.0
 10
183.8808919500502
 20
-147.1797025171724
 30
0.0
 10
184.0155550252778
 20
-147.2335641504307
 30
0.0
 10
184.1426915749453
 20
-147.3052549667566
 30
0.0
 10
184.3046145757964
 20
-147.4284091072294
 30
0.0
 10
184.4078839740484
 20
-147.545475682662
 30
0.0
 10
184.4698139285617
 20
-147.6304335543298
 30
0.0
  0
SPLINE
  5
E4
330
1F
100
AcDbEntity
  8
0
  6
Continuous
 62
     7
370
    25
100
AcDbSpline
210
0.0
220
0.0
230
1.0
 70
     8
 71
     3
 72
    21
 73
    17
 74
     0
 42
0.00000001
 43
0.00000001
 40
0.0
 40
0.0
 40
0.0
 40
0.0
 40
0.1260788099895083
 40
0.186904092747208
 40
0.2475739349176149
 40
0.308003356164454
 40
0.3691318984609782
 40
0.4320332277442049
 40
0.4967907944370912
 40
0.5616108232295651
 40
0.6249138657484622
 40
0.6867263492419359
 40
0.7480788332577762
 40
0.8095822911398995
 40
0.8716307425688387
 40
1.0
 40
1.0
 40
1.0
 40
1.0
 10
182.0916088003566
 20
-148.4290112786887
 30
0.0
 10
182.0921264538878
 20
-148.3411935148544
 30
0.0
 10
182.1028579287808
 20
-148.2105789641562
 30
0.0
 10
182.14485375979
 20
-148.0428469478206
 30
0.0
 10
182.1883627268762
 20
-147.9234916826719
 30
0.0
 10
182.2442150732015
 20
-147.809151184872
 30
0.0
 10
182.3121403321716
 20
-147.6997472784999
 30
0.0
 10
182.39216024313
 20
-147.5949778604322
 30
0.0
 10
182.4844124334456
 20
-147.4973065914697
 30
0.0
 10
182.5843472542043
 20
-147.4070861669832
 30
0.0
 10
182.6912560002014
 20
-147.3286764261438
 30
0.0
 10
182.8024791752293
 20
-147.2609620967672
 30
0.0
 10
182.9197425916764
 20
-147.2072993223408
 30
0.0
 10
183.0413081718337
 20
-147.1639250578448
 30
0.0
 10
183.2125208061063
 20
-147.1232455734206
 30
0.0
 10
183.3455449270401
 20
-147.1131021695784
 30
0.0
 10
183.4349581593309
 20
-147.1123045479195
 30
0.0
  0
SPLINE
  5
E5
330
1F
100
AcDbEntity
  8
0
  6
Continuous
 62
     7
370
    25
100
AcDbSpline
210
0.0
220
0.0
230
1.0
 70
     8
 71
     3
 72
    21
 73
    17
 74
     0
 42
0.00000001
 43
0.00000001
 40
0.0
 40
0.0
 40
0.0
 40
0.0
 40
0.1274334841444714
 40
0.1890041265579367
 40
0.2499300706860425
 40
0.3106684537406614
 40
0.3723289611368252
 40
0.4349391099970094
 40
0.4995755441940348
 40
0.5641912077719243
 40
0.6267352169294791
 40
0.6881093335613953
 40
0.7492936065367446
 40
0.8103305278109456
 40
0.8719011702244139
 40
1.0
 40
1.0
 40
1.0
 40
1.0
 10
183.4251424542028
 20
-149.7597404453554
 30
0.0
 10
183.3361130425707
 20
-149.7595223456879
 30
0.0
 10
183.2038459317256
 20
-149.7480279375969
 30
0.0
 10
183.0337792878457
 20
-149.7071684655082
 30
0.0
 10
182.9125055769566
 20
-149.6653108905695
 30
0.0
 10
182.7968332024798
 20
-149.6097185033692
 30
0.0
 10
182.6857731641578
 20
-149.5431804057476
 30
0.0
 10
182.5799004716043
 20
-149.4639387090263
 30
0.0
 10
182.4808288728905
 20
-149.3733509204879
 30
0.0
 10
182.389597110984
 20
-149.2749558721489
 30
0.0
 10
182.3095349772237
 20
-149.1700103290865
 30
0.0
 10
182.242785029058
 20
-149.0589680678518
 30
0.0
 10
182.1869533477067
 20
-148.9432347409768
 30
0.0
 10
182.144000302599
 20
-148.8219204711145
 30
0.0
 10
182.1033237265538
 20
-148.6512132902256
 30
0.0
 10
182.0918167926189
 20
-148.5185176347172
 30
0.0
 10
182.0916088003566
 20
-148.4290112786887
 30
0.0
  0
SPLINE
  5
E6
330
1F
100
AcDbEntity
  8
0
  6
Continuous
 62
     7
370
    25
100
AcDbSpline
210
0.0
220
0.0
230
1.0
 70
     8
 71
     3
 72
     9
 73
     5
 74
     0
 42
0.00000001
 43
0.00000001
 40
0.6909922536726778
 40
0.6909922536726778
 40
0.6909922536726778
 40
0.6909922536726778
 40
0.7481449416029805
 40
1.0
 40
1.0
 40
1.0
 40
1.0
 10
183.7902787778772
 20
-149.7148686514551
 30
0.0
 10
183.768256048856
 20
-149.7205498859899
 30
0.0
 10
183.648428677778
 20
-149.7483287974739
 30
0.0
 10
183.5253786336905
 20
-149.7605477958065
 30
0.0
 10
183.4251424542028
 20
-149.7597404453554
 30
0.0
  0
LINE
  5
EE
330
1F
100
AcDbEntity
  8
0
  6
Continuous
 62
     7
370
    25
100
AcDbLine
 10
0.0
 20
-160.0
 30
0.0
 11
230.0
 21
-160.0
 31
0.0
  0
LINE
  5
EF
330
1F
100
AcDbEntity
  8
0
  6
Continuous
 62
     7
370
    25
100
AcDbLine
 10
0.0
 20
0.0
 30
0.0
 11
0.0
 21
-160.0
 31
0.0
  0
LINE
  5
F0
330
1F
100
AcDbEntity
  8
0
  6
Continuous
 62
     7
370
    25
100
AcDbLine
 10
0.0
 20
0.0
 30
0.0
 11
230.0
 21
0.0
 31
0.0
  0
LINE
  5
F1
330
1F
100
AcDbEntity
  8
0
  6
Continuous
 62
     7
370
    25
100
AcDbLine
 10
230.0
 20
0.0
 30
0.0
 11
230.0
 21
-160.0
 31
0.0
  0
LINE
  5
F2
330
1F
100
AcDbEntity
  8
0
  6
Continuous
 62
     7
370
    25
100
AcDbLine
 10
217.899301108
 20
-149.7148686505
 30
0.0
 11
217.899301108
 21
-150.6571763428
 31
0.0
  0
LINE
  5
F3
330
1F
100
AcDbEntity
  8
0
  6
Continuous
 62
     7
370
    25
100
AcDbLine
 10
217.899301108
 20
-149.7148686505
 30
0.0
 11
218.5919586923
 21
-149.7148686516
 31
0.0
  0
LINE
  5
F4
330
1F
100
AcDbEntity
  8
0
  6
Continuous
 62
     7
370
    25
100
AcDbLine
 10
217.899301108
 20
-147.1571763428
 30
0.0
 11
217.899301108
 21
-147.6304335543
 31
0.0
  0
LINE
  5
F5
330
1F
100
AcDbEntity
  8
0
  6
Continuous
 62
     7
370
    25
100
AcDbLine
 10
217.5851985439
 20
-147.1571763428
 30
0.0
 11
217.899301108
 21
-147.1571763428
 31
0.0
  0
LINE
  5
F6
330
1F
100
AcDbEntity
  8
0
  6
Continuous
 62
     7
370
    25
100
AcDbLine
 10
217.5851985439
 20
-150.6571763428
 30
0.0
 11
217.5851985439
 21
-147.1571763428
 31
0.0
  0
LINE
  5
F7
330
1F
100
AcDbEntity
  8
0
  6
Continuous
 62
     7
370
    25
100
AcDbLine
 10
217.899301108
 20
-150.6571763428
 30
0.0
 11
217.5851985439
 21
-150.6571763428
 31
0.0
  0
LINE
  5
F8
330
1F
100
AcDbEntity
  8
0
  6
Continuous
 62
     7
370
    25
100
AcDbLine
 10
213.4121216209
 20
-147.4712789069
 30
0.0
 11
213.4121216209
 21
-149.7148686505
 31
0.0
  0
LINE
  5
F9
330
1F
100
AcDbEntity
  8
0
  6
Continuous
 62
     7
370
    25
100
AcDbLine
 10
213.8608395696
 20
-147.4712789069
 30
0.0
 11
213.4121216209
 21
-147.4712789069
 31
0.0
  0
LINE
  5
FA
330
1F
100
AcDbEntity
  8
0
  6
Continuous
 62
     7
370
    25
100
AcDbLine
 10
213.8608395696
 20
-147.1571763428
 30
0.0
 11
213.8608395696
 21
-147.4712789069
 31
0.0
  0
LINE
  5
FB
330
1F
100
AcDbEntity
  8
0
  6
Continuous
 62
     7
370
    25
100
AcDbLine
 10
213.4121216209
 20
-147.1571763428
 30
0.0
 11
213.8608395696
 21
-147.1571763428
 31
0.0
  0
LINE
  5
FC
330
1F
100
AcDbEntity
  8
0
  6
Continuous
 62
     7
370
    25
100
AcDbLine
 10
213.4121216209
 20
-146.1251250607
 30
0.0
 11
213.4121216209
 21
-147.1571763428
 31
0.0
  0
LINE
  5
FD
330
1F
100
AcDbEntity
  8
0
  6
Continuous
 62
     7
370
    25
100
AcDbLine
 10
213.0980190568
 20
-146.1251250607
 30
0.0
 11
213.4121216209
 21
-146.1251250607
 31
0.0
  0
LINE
  5
FE
330
1F
100
AcDbEntity
  8
0
  6
Continuous
 62
     7
370
    25
100
AcDbLine
 10
213.0980190568
 20
-147.1571763428
 30
0.0
 11
213.0980190568
 21
-146.1251250607
 31
0.0
  0
LINE
  5
FF
330
1F
100
AcDbEntity
  8
0
  6
Continuous
 62
     7
370
    25
100
AcDbLine
 10
212.649301108
 20
-147.1571763428
 30
0.0
 11
213.0980190568
 21
-147.1571763428
 31
0.0
  0
LINE
  5
100
330
1F
100
AcDbEntity
  8
0
  6
Continuous
 62
     7
370
    25
100
AcDbLine
 10
212.649301108
 20
-147.4712789069
 30
0.0
 11
212.649301108
 21
-147.1571763428
 31
0.0
  0
LINE
  5
101
330
1F
100
AcDbEntity
  8
0
  6
Continuous
 62
     7
370
    25
100
AcDbLine
 10
213.0980190568
 20
-147.4712789069
 30
0.0
 11
212.649301108
 21
-147.4712789069
 31
0.0
  0
LINE
  5
102
330
1F
100
AcDbEntity
  8
0
  6
Continuous
 62
     7
370
    25
100
AcDbLine
 10
213.0980190568
 20
-149.7148686505
 30
0.0
 11
213.0980190568
 21
-147.4712789069
 31
0.0
  0
LINE
  5
103
330
1F
100
AcDbEntity
  8
0
  6
Continuous
 62
     7
370
    25
100
AcDbLine
 10
213.4121216209
 20
-149.7148686505
 30
0.0
 11
213.0980190568
 21
-149.7148686505
 31
0.0
  0
LINE
  5
104
330
1F
100
AcDbEntity
  8
0
  6
Continuous
 62
     7
370
    25
100
AcDbLine
 10
210.4505831593
 20
-147.4712789069
 30
0.0
 11
210.4505831593
 21
-149.7148686505
 31
0.0
  0
LINE
  5
105
330
1F
100
AcDbEntity
  8
0
  6
Continuous
 62
     7
370
    25
100
AcDbLine
 10
210.899301108
 20
-147.4712789069
 30
0.0
 11
210.4505831593
 21
-147.4712789069
 31
0.0
  0
LINE
  5
106
330
1F
100
AcDbEntity
  8
0
  6
Continuous
 62
     7
370
    25
100
AcDbLine
 10
210.899301108
 20
-147.1571763428
 30
0.0
 11
210.899301108
 21
-147.4712789069
 31
0.0
  0
LINE
  5
107
330
1F
100
AcDbEntity
  8
0
  6
Continuous
 62
     7
370
    25
100
AcDbLine
 10
210.4505831593
 20
-147.1571763428
 30
0.0
 11
210.899301108
 21
-147.1571763428
 31
0.0
  0
LINE
  5
108
330
1F
100
AcDbEntity
  8
0
  6
Continuous
 62
     7
370
    25
100
AcDbLine
 10
210.4505831593
 20
-146.1251250607
 30
0.0
 11
210.4505831593
 21
-147.1571763428
 31
0.0
  0
LINE
  5
109
330
1F
100
AcDbEntity
  8
0
  6
Continuous
 62
     7
370
    25
100
AcDbLine
 10
210.1364805952
 20
-146.1251250607
 30
0.0
 11
210.4505831593
 21
-146.1251250607
 31
0.0
  0
LINE
  5
10A
330
1F
100
AcDbEntity
  8
0
  6
Continuous
 62
     7
370
    25
100
AcDbLine
 10
210.1364805952
 20
-147.1571763428
 30
0.0
 11
210.1364805952
 21
-146.1251250607
 31
0.0
  0
LINE
  5
10B
330
1F
100
AcDbEntity
  8
0
  6
Continuous
 62
     7
370
    25
100
AcDbLine
 10
209.6877626465
 20
-147.1571763428
 30
0.0
 11
210.1364805952
 21
-147.1571763428
 31
0.0
  0
LINE
  5
10C
330
1F
100
AcDbEntity
  8
0
  6
Continuous
 62
     7
370
    25
100
AcDbLine
 10
209.6877626465
 20
-147.4712789069
 30
0.0
 11
209.6877626465
 21
-147.1571763428
 31
0.0
  0
LINE
  5
10D
330
1F
100
AcDbEntity
  8
0
  6
Continuous
 62
     7
370
    25
100
AcDbLine
 10
210.1364805952
 20
-147.4712789069
 30
0.0
 11
209.6877626465
 21
-147.4712789069
 31
0.0
  0
LINE
  5
10E
330
1F
100
AcDbEntity
  8
0
  6
Continuous
 62
     7
370
    25
100
AcDbLine
 10
210.1364805952
 20
-149.7148686505
 30
0.0
 11
210.1364805952
 21
-147.4712789069
 31
0.0
  0
LINE
  5
10F
330
1F
100
AcDbEntity
  8
0
  6
Continuous
 62
     7
370
    25
100
AcDbLine
 10
210.4505831593
 20
-149.7148686505
 30
0.0
 11
210.1364805952
 21
-149.7148686505
 31
0.0
  0
LINE
  5
110
330
1F
100
AcDbEntity
  8
0
  6
Continuous
 62
     7
370
    25
100
AcDbLine
 10
208.7917289927
 20
-147.4712789069
 30
0.0
 11
208.7903267491
 21
-149.7148686505
 31
0.0
  0
LINE
  5
111
330
1F
100
AcDbEntity
  8
0
  6
Continuous
 62
     7
370
    25
100
AcDbLine
 10
209.3287882875
 20
-147.4712789069
 30
0.0
 11
208.7917289927
 21
-147.4712789069
 31
0.0
  0
LINE
  5
112
330
1F
100
AcDbEntity
  8
0
  6
Continuous
 62
     7
370
    25
100
AcDbLine
 10
209.3287882875
 20
-147.1571763428
 30
0.0
 11
209.3287882875
 21
-147.4712789069
 31
0.0
  0
LINE
  5
113
330
1F
100
AcDbEntity
  8
0
  6
Continuous
 62
     7
370
    25
100
AcDbLine
 10
208.7924301145
 20
-147.1571763428
 30
0.0
 11
209.3287882875
 21
-147.1571763428
 31
0.0
  0
LINE
  5
114
330
1F
100
AcDbEntity
  8
0
  6
Continuous
 62
     7
370
    25
100
AcDbLine
 10
208.7924301145
 20
-146.8024087146
 30
0.0
 11
208.7924301145
 21
-147.1571763428
 31
0.0
  0
LINE
  5
115
330
1F
100
AcDbEntity
  8
0
  6
Continuous
 62
     7
370
    25
100
AcDbLine
 10
209.3736600824
 20
-146.1461587146
 30
0.0
 11
209.3736600824
 21
-146.472881471
 31
0.0
  0
LINE
  5
116
330
1F
100
AcDbEntity
  8
0
  6
Continuous
 62
     7
370
    25
100
AcDbLine
 10
208.476224185
 20
-147.1571763428
 30
0.0
 11
208.476224185
 21
-146.7484223364
 31
0.0
  0
LINE
  5
117
330
1F
100
AcDbEntity
  8
0
  6
Continuous
 62
     7
370
    25
100
AcDbLine
 10
208.117249826
 20
-147.1571763428
 30
0.0
 11
208.476224185
 21
-147.1571763428
 31
0.0
  0
LINE
  5
118
330
1F
100
AcDbEntity
  8
0
  6
Continuous
 62
     7
370
    25
100
AcDbLine
 10
208.117249826
 20
-147.4712789069
 30
0.0
 11
208.117249826
 21
-147.1571763428
 31
0.0
  0
LINE
  5
119
330
1F
100
AcDbEntity
  8
0
  6
Continuous
 62
     7
370
    25
100
AcDbLine
 10
208.476224185
 20
-147.4712789069
 30
0.0
 11
208.117249826
 21
-147.4712789069
 31
0.0
  0
LINE
  5
11A
330
1F
100
AcDbEntity
  8
0
  6
Continuous
 62
     7
370
    25
100
AcDbLine
 10
208.476224185
 20
-149.7148686505
 30
0.0
 11
208.476224185
 21
-147.4712789069
 31
0.0
  0
LINE
  5
11B
330
1F
100
AcDbEntity
  8
0
  6
Continuous
 62
     7
370
    25
100
AcDbLine
 10
208.7903267491
 20
-149.7148686505
 30
0.0
 11
208.476224185
 21
-149.7148686505
 31
0.0
  0
LINE
  5
11C
330
1F
100
AcDbEntity
  8
0
  6
Continuous
 62
     7
370
    25
100
AcDbLine
 10
207.2548700183
 20
-148.9071763428
 30
0.0
 11
207.5339164927
 21
-149.0537107979
 31
0.0
  0
LINE
  5
11D
330
1F
100
AcDbEntity
  8
0
  6
Continuous
 62
     7
370
    25
100
AcDbLine
 10
207.6685318773
 20
-148.5033301889
 30
0.0
 11
205.3800703388
 21
-148.5033301889
 31
0.0
  0
LINE
  5
11E
330
1F
100
AcDbEntity
  8
0
  6
Continuous
 62
     7
370
    25
100
AcDbLine
 10
204.4377626465
 20
-146.1251250607
 30
0.0
 11
204.4377626465
 21
-149.7148686505
 31
0.0
  0
LINE
  5
11F
330
1F
100
AcDbEntity
  8
0
  6
Continuous
 62
     7
370
    25
100
AcDbLine
 10
204.1236600824
 20
-146.1251250607
 30
0.0
 11
204.4377626465
 21
-146.1251250607
 31
0.0
  0
LINE
  5
120
330
1F
100
AcDbEntity
  8
0
  6
Continuous
 62
     7
370
    25
100
AcDbLine
 10
204.1236600824
 20
-149.7148686505
 30
0.0
 11
204.1236600824
 21
-146.1251250607
 31
0.0
  0
LINE
  5
121
330
1F
100
AcDbEntity
  8
0
  6
Continuous
 62
     7
370
    25
100
AcDbLine
 10
204.4377626465
 20
-149.7148686505
 30
0.0
 11
204.1236600824
 21
-149.7148686505
 31
0.0
  0
LINE
  5
122
330
1F
100
AcDbEntity
  8
0
  6
Continuous
 62
     7
370
    25
100
AcDbLine
 10
196.6300703388
 20
-149.7148686505
 30
0.0
 11
196.6300703388
 21
-150.6571763428
 31
0.0
  0
LINE
  5
123
330
1F
100
AcDbEntity
  8
0
  6
Continuous
 62
     7
370
    25
100
AcDbLine
 10
196.6300703388
 20
-149.7148686505
 30
0.0
 11
197.322727923
 21
-149.7148686516
 31
0.0
  0
LINE
  5
124
330
1F
100
AcDbEntity
  8
0
  6
Continuous
 62
     7
370
    25
100
AcDbLine
 10
196.6300703388
 20
-147.1571763428
 30
0.0
 11
196.6300703388
 21
-147.6304335543
 31
0.0
  0
LINE
  5
125
330
1F
100
AcDbEntity
  8
0
  6
Continuous
 62
     7
370
    25
100
AcDbLine
 10
196.3159677747
 20
-147.1571763428
 30
0.0
 11
196.6300703388
 21
-147.1571763428
 31
0.0
  0
LINE
  5
126
330
1F
100
AcDbEntity
  8
0
  6
Continuous
 62
     7
370
    25
100
AcDbLine
 10
196.3159677747
 20
-150.6571763428
 30
0.0
 11
196.3159677747
 21
-147.1571763428
 31
0.0
  0
LINE
  5
127
330
1F
100
AcDbEntity
  8
0
  6
Continuous
 62
     7
370
    25
100
AcDbLine
 10
196.6300703388
 20
-150.6571763428
 30
0.0
 11
196.3159677747
 21
-150.6571763428
 31
0.0
  0
LINE
  5
128
330
1F
100
AcDbEntity
  8
0
  6
Continuous
 62
     7
370
    25
100
AcDbLine
 10
194.9775262683
 20
-148.3413710543
 30
0.0
 11
195.9569934157
 21
-149.7148686505
 31
0.0
  0
LINE
  5
129
330
1F
100
AcDbEntity
  8
0
  6
Continuous
 62
     7
370
    25
100
AcDbLine
 10
195.8223780311
 20
-147.1571763428
 30
0.0
 11
194.9775262683
 21
-148.3413710543
 31
0.0
  0
LINE
  5
12A
330
1F
100
AcDbEntity
  8
0
  6
Continuous
 62
     7
370
    25
100
AcDbLine
 10
195.4486801145
 20
-147.1571763428
 30
0.0
 11
195.8223780311
 21
-147.1571763428
 31
0.0
  0
LINE
  5
12B
330
1F
100
AcDbEntity
  8
0
  6
Continuous
 62
     7
370
    25
100
AcDbLine
 10
194.7903267491
 20
-148.0798526248
 30
0.0
 11
195.4486801145
 21
-147.1571763428
 31
0.0
  0
LINE
  5
12C
330
1F
100
AcDbEntity
  8
0
  6
Continuous
 62
     7
370
    25
100
AcDbLine
 10
194.1319733837
 20
-147.1571763428
 30
0.0
 11
194.7903267491
 21
-148.0798526248
 31
0.0
  0
LINE
  5
12D
330
1F
100
AcDbEntity
  8
0
  6
Continuous
 62
     7
370
    25
100
AcDbLine
 10
193.758275467
 20
-147.1571763428
 30
0.0
 11
194.1319733837
 21
-147.1571763428
 31
0.0
  0
LINE
  5
12E
330
1F
100
AcDbEntity
  8
0
  6
Continuous
 62
     7
370
    25
100
AcDbLine
 10
194.6038283516
 20
-148.3413710543
 30
0.0
 11
193.758275467
 21
-147.1571763428
 31
0.0
  0
LINE
  5
12F
330
1F
100
AcDbEntity
  8
0
  6
Continuous
 62
     7
370
    25
100
AcDbLine
 10
193.6236600824
 20
-149.7148686505
 30
0.0
 11
194.6038283516
 21
-148.3413710543
 31
0.0
  0
LINE
  5
130
330
1F
100
AcDbEntity
  8
0
  6
Continuous
 62
     7
370
    25
100
AcDbLine
 10
195.9569934157
 20
-149.7148686505
 30
0.0
 11
193.6236600824
 21
-149.7148686505
 31
0.0
  0
LINE
  5
131
330
1F
100
AcDbEntity
  8
0
  6
Continuous
 62
     7
370
    25
100
AcDbLine
 10
192.9407674542
 20
-148.9071763428
 30
0.0
 11
193.2198139286
 21
-149.0537107979
 31
0.0
  0
LINE
  5
132
330
1F
100
AcDbEntity
  8
0
  6
Continuous
 62
     7
370
    25
100
AcDbLine
 10
193.3544293132
 20
-148.5033301889
 30
0.0
 11
191.0659677747
 21
-148.5033301889
 31
0.0
  0
LINE
  5
133
330
1F
100
AcDbEntity
  8
0
  6
Continuous
 62
     7
370
    25
100
AcDbLine
 10
188.7775062363
 20
-148.4086787466
 30
0.0
 11
188.7775062363
 21
-149.7148686505
 31
0.0
  0
LINE
  5
134
330
1F
100
AcDbEntity
  8
0
  6
Continuous
 62
     7
370
    25
100
AcDbLine
 10
186.8480190568
 20
-147.1571763428
 30
0.0
 11
186.8480190568
 21
-147.6185144838
 31
0.0
  0
LINE
  5
135
330
1F
100
AcDbEntity
  8
0
  6
Continuous
 62
     7
370
    25
100
AcDbLine
 10
186.5339164927
 20
-147.1571763428
 30
0.0
 11
186.8480190568
 21
-147.1571763428
 31
0.0
  0
LINE
  5
136
330
1F
100
AcDbEntity
  8
0
  6
Continuous
 62
     7
370
    25
100
AcDbLine
 10
186.5339164927
 20
-149.7148686505
 30
0.0
 11
186.5339164927
 21
-147.1571763428
 31
0.0
  0
LINE
  5
137
330
1F
100
AcDbEntity
  8
0
  6
Continuous
 62
     7
370
    25
100
AcDbLine
 10
188.7775062363
 20
-149.7148686505
 30
0.0
 11
186.5339164927
 21
-149.7148686505
 31
0.0
  0
LINE
  5
138
330
1F
100
AcDbEntity
  8
0
  6
Continuous
 62
     7
370
    25
100
AcDbLine
 10
185.7710959798
 20
-147.1571763428
 30
0.0
 11
185.7710959798
 21
-149.7148686505
 31
0.0
  0
LINE
  5
139
330
1F
100
AcDbEntity
  8
0
  6
Continuous
 62
     7
370
    25
100
AcDbLine
 10
185.4569934157
 20
-147.1571763428
 30
0.0
 11
185.7710959798
 21
-147.1571763428
 31
0.0
  0
LINE
  5
13A
330
1F
100
AcDbEntity
  8
0
  6
Continuous
 62
     7
370
    25
100
AcDbLine
 10
185.4569934157
 20
-149.7148686505
 30
0.0
 11
185.4569934157
 21
-147.1571763428
 31
0.0
  0
LINE
  5
13B
330
1F
100
AcDbEntity
  8
0
  6
Continuous
 62
     7
370
    25
100
AcDbLine
 10
185.7710959798
 20
-149.7148686505
 30
0.0
 11
185.4569934157
 21
-149.7148686505
 31
0.0
  0
LINE
  5
13C
330
1F
100
AcDbEntity
  8
0
  6
Continuous
 62
     7
370
    25
100
AcDbLine
 10
184.7839164927
 20
-149.7148686505
 30
0.0
 11
183.7902787779
 21
-149.7148686515
 31
0.0
  0
LINE
  5
13D
330
1F
100
AcDbEntity
  8
0
  6
Continuous
 62
     7
370
    25
100
AcDbLine
 10
184.7839164927
 20
-147.1571763428
 30
0.0
 11
184.7839164927
 21
-149.7148686505
 31
0.0
  0
LINE
  5
13E
330
1F
100
AcDbEntity
  8
0
  6
Continuous
 62
     7
370
    25
100
AcDbLine
 10
184.4698139286
 20
-147.1571763428
 30
0.0
 11
184.7839164927
 21
-147.1571763428
 31
0.0
  0
LINE
  5
13F
330
1F
100
AcDbEntity
  8
0
  6
Continuous
 62
     7
370
    25
100
AcDbLine
 10
184.4698139286
 20
-147.6304335543
 30
0.0
 11
184.4698139286
 21
-147.1571763428
 31
0.0
  0
LINE
  5
140
330
1F
100
AcDbEntity
  8
0
  6
Continuous
 62
     7
370
    25
100
AcDbLine
 10
181.0883035119
 20
-146.2148686505
 30
0.0
 11
181.5531472619
 21
-149.7148686505
 31
0.0
  0
LINE
  5
141
330
1F
100
AcDbEntity
  8
0
  6
Continuous
 62
     7
370
    25
100
AcDbLine
 10
181.0427305952
 20
-146.2148686505
 30
0.0
 11
181.0883035119
 21
-146.2148686505
 31
0.0
  0
LINE
  5
142
330
1F
100
AcDbEntity
  8
0
  6
Continuous
 62
     7
370
    25
100
AcDbLine
 10
179.601224185
 20
-149.0866635223
 30
0.0
 11
181.0427305952
 21
-146.2148686505
 31
0.0
  0
LINE
  5
143
330
1F
100
AcDbEntity
  8
0
  6
Continuous
 62
     7
370
    25
100
AcDbLine
 10
178.1562121657
 20
-146.2148686505
 30
0.0
 11
179.601224185
 21
-149.0866635223
 31
0.0
  0
LINE
  5
144
330
1F
100
AcDbEntity
  8
0
  6
Continuous
 62
     7
370
    25
100
AcDbLine
 10
178.1113403709
 20
-146.2148686505
 30
0.0
 11
178.1562121657
 21
-146.2148686505
 31
0.0
  0
LINE
  5
145
330
1F
100
AcDbEntity
  8
0
  6
Continuous
 62
     7
370
    25
100
AcDbLine
 10
177.649301108
 20
-149.7148686505
 30
0.0
 11
178.1113403709
 21
-146.2148686505
 31
0.0
  0
LINE
  5
146
330
1F
100
AcDbEntity
  8
0
  6
Continuous
 62
     7
370
    25
100
AcDbLine
 10
177.649301108
 20
-149.7148686505
 30
0.0
 11
181.5531472619
 21
-149.7148686505
 31
0.0
  0
MTEXT
  5
148
330
1F
100
AcDbEntity
  8
0
  6
Continuous
 62
     7
100
AcDbMText
 10
0.0
 20
-161.0195663917
 30
0.0
 40
4.83362
 41
0.0
 71
     1
 72
     1
  1
SOLIDWORKS Educational Product.
  7
SLDTEXTSTYLE0
 73
     1
 44
1.0
  0
MTEXT
  5
149
330
1F
100
AcDbEntity
  8
0
  6
Continuous
 62
     7
100
AcDbMText
 10
0.0
 20
-168.2699963917
 30
0.0
 40
4.83362
 41
0.0
 71
     1
 72
     1
  1
For Instructional Use Only.
  7
SLDTEXTSTYLE0
 73
     1
 44
1.0
  0
ENDSEC
  0
SECTION
  2
OBJECTS
  0
DICTIONARY
  5
C
330
0
100
AcDbDictionary
281
     1
  3
ACAD_GROUP
350
D
  3
ACAD_LAYOUT
350
1A
  3
ACAD_MLINESTYLE
350
17
  3
ACAD_PLOTSETTINGS
350
19
  3
ACAD_PLOTSTYLENAME
350
E
  3
ACAD_SCALELIST
350
47
  3
DWGPROPS
350
14A
  0
DICTIONARY
  5
D
102
{ACAD_REACTORS
330
C
102
}
330
C
100
AcDbDictionary
281
     1
  0
DICTIONARY
  5
1A
102
{ACAD_REACTORS
330
C
102
}
330
C
100
AcDbDictionary
281
     1
  3
Layout1
350
1E
  3
Layout2
350
26
  3
Model
350
22
  0
DICTIONARY
  5
17
102
{ACAD_REACTORS
330
C
102
}
330
C
100
AcDbDictionary
281
     1
  3
Standard
350
18
  0
DICTIONARY
  5
19
102
{ACAD_REACTORS
330
C
102
}
330
C
100
AcDbDictionary
281
     1
  0
ACDBDICTIONARYWDFLT
  5
E
102
{ACAD_REACTORS
330
C
102
}
330
C
100
AcDbDictionary
281
     1
  3
Normal
350
F
100
AcDbDictionaryWithDefault
340
F
  0
DICTIONARY
  5
47
102
{ACAD_REACTORS
330
C
102
}
330
C
100
AcDbDictionary
281
     1
  3
A0
350
48
  3
A1
350
49
  3
A2
350
4A
  3
A3
350
4B
  3
A4
350
4C
  3
A5
350
4D
  3
A6
350
4E
  3
A7
350
4F
  3
A8
350
50
  3
A9
350
51
  3
B0
350
52
  3
B1
350
53
  3
B2
350
54
  3
B3
350
55
  3
B4
350
56
  3
B5
350
57
  3
B6
350
58
  0
XRECORD
  5
14A
102
{ACAD_REACTORS
330
C
102
}
330
C
100
AcDbXrecord
280
     1
  1
DWGPROPS COOKIE
  2

  3

  4

  6

  7

  8
anast
  9

300
=
301
=
302
=
303
=
304
=
305
=
306
=
307
=
308
=
309
=
 40
0.0
 41
2460812.722145301
 42
2460812.722378588
  1

 90
        0
  0
LAYOUT
  5
1E
102
{ACAD_REACTORS
330
1A
102
}
330
1A
100
AcDbPlotSettings
  1

  2
none_device
  4

  6

 40
0.0
 41
0.0
 42
0.0
 43
0.0
 44
0.0
 45
0.0
 46
0.0
 47
0.0
 48
0.0
 49
0.0
140
0.0
141
0.0
142
1.0
143
1.0
 70
   688
 72
     1
 73
     0
 74
     5
  7

 75
    16
147
1.0
148
0.0
149
0.0
100
AcDbLayout
  1
Layout1
 70
     1
 71
     1
 10
0.0
 20
0.0
 11
420.0
 21
297.0
 12
0.0
 22
0.0
 32
0.0
 14
1.0000000000E+20
 24
1.0000000000E+20
 34
1.0000000000E+20
 15
-1.0000000000E+20
 25
-1.0000000000E+20
 35
-1.0000000000E+20
146
0.0
 13
0.0
 23
0.0
 33
0.0
 16
1.0
 26
0.0
 36
0.0
 17
0.0
 27
1.0
 37
0.0
 76
     0
330
1B
  0
LAYOUT
  5
26
102
{ACAD_REACTORS
330
1A
102
}
330
1A
100
AcDbPlotSettings
  1

  2
none_device
  4

  6

 40
0.0
 41
0.0
 42
0.0
 43
0.0
 44
0.0
 45
0.0
 46
0.0
 47
0.0
 48
0.0
 49
0.0
140
0.0
141
0.0
142
1.0
143
1.0
 70
   688
 72
     1
 73
     0
 74
     5
  7

 75
    16
147
1.0
148
0.0
149
0.0
100
AcDbLayout
  1
Layout2
 70
     1
 71
     2
 10
0.0
 20
0.0
 11
0.0
 21
0.0
 12
0.0
 22
0.0
 32
0.0
 14
0.0
 24
0.0
 34
0.0
 15
0.0
 25
0.0
 35
0.0
146
0.0
 13
0.0
 23
0.0
 33
0.0
 16
1.0
 26
0.0
 36
0.0
 17
0.0
 27
1.0
 37
0.0
 76
     0
330
23
  0
LAYOUT
  5
22
102
{ACAD_REACTORS
330
1A
102
}
330
1A
100
AcDbPlotSettings
  1

  2
none_device
  4
ANSI_A_(11.00_x_8.50_Inches)
  6

 40
6.35
 41
19.05
 42
6.35000508
 43
19.05000254
 44
279.4
 45
215.9
 46
-4.95300254
 47
185.1107813387
 48
0.0
 49
0.0
140
0.0
141
0.0
142
0.0473478261
143
1.0
 70
  1696
 72
     0
 73
     0
 74
     0
  7

 75
     0
147
0.0179189148
148
-1300.4909072572
149
0.0
100
AcDbLayout
  1
Model
 70
     1
 71
     0
 10
0.0
 20
0.0
 11
420.0
 21
297.0
 12
0.0
 22
0.0
 32
0.0
 14
0.0
 24
-160.0
 34
0.0
 15
230.0
 25
0.0
 35
0.0
146
0.0
 13
0.0
 23
0.0
 33
0.0
 16
1.0
 26
0.0
 36
0.0
 17
0.0
 27
1.0
 37
0.0
 76
     0
330
1F
331
29
  0
MLINESTYLE
  5
18
102
{ACAD_REACTORS
330
17
102
}
330
17
100
AcDbMlineStyle
  2
Standard
 70
     0
  3

 62
   256
 51
90.0
 52
90.0
 71
     2
 49
0.5
 62
   256
  6
BYLAYER
 49
-0.5
 62
   256
  6
BYLAYER
  0
ACDBPLACEHOLDER
  5
F
102
{ACAD_REACTORS
330
E
102
}
330
E
  0
SCALE
  5
48
102
{ACAD_REACTORS
330
47
102
}
330
47
100
AcDbScale
 70
     0
300
1:1
140
1.0
141
1.0
290
     1
  0
SCALE
  5
49
102
{ACAD_REACTORS
330
47
102
}
330
47
100
AcDbScale
 70
     0
300
1:2
140
1.0
141
2.0
290
     0
  0
SCALE
  5
4A
102
{ACAD_REACTORS
330
47
102
}
330
47
100
AcDbScale
 70
     0
300
1:4
140
1.0
141
4.0
290
     0
  0
SCALE
  5
4B
102
{ACAD_REACTORS
330
47
102
}
330
47
100
AcDbScale
 70
     0
300
1:5
140
1.0
141
5.0
290
     0
  0
SCALE
  5
4C
102
{ACAD_REACTORS
330
47
102
}
330
47
100
AcDbScale
 70
     0
300
1:8
140
1.0
141
8.0
290
     0
  0
SCALE
  5
4D
102
{ACAD_REACTORS
330
47
102
}
330
47
100
AcDbScale
 70
     0
300
1:10
140
1.0
141
10.0
290
     0
  0
SCALE
  5
4E
102
{ACAD_REACTORS
330
47
102
}
330
47
100
AcDbScale
 70
     0
300
1:16
140
1.0
141
16.0
290
     0
  0
SCALE
  5
4F
102
{ACAD_REACTORS
330
47
102
}
330
47
100
AcDbScale
 70
     0
300
1:20
140
1.0
141
20.0
290
     0
  0
SCALE
  5
50
102
{ACAD_REACTORS
330
47
102
}
330
47
100
AcDbScale
 70
     0
300
1:30
140
1.0
141
30.0
290
     0
  0
SCALE
  5
51
102
{ACAD_REACTORS
330
47
102
}
330
47
100
AcDbScale
 70
     0
300
1:40
140
1.0
141
40.0
290
     0
  0
SCALE
  5
52
102
{ACAD_REACTORS
330
47
102
}
330
47
100
AcDbScale
 70
     0
300
1:50
140
1.0
141
50.0
290
     0
  0
SCALE
  5
53
102
{ACAD_REACTORS
330
47
102
}
330
47
100
AcDbScale
 70
     0
300
1:100
140
1.0
141
100.0
290
     0
  0
SCALE
  5
54
102
{ACAD_REACTORS
330
47
102
}
330
47
100
AcDbScale
 70
     0
300
2:1
140
2.0
141
1.0
290
     0
  0
SCALE
  5
55
102
{ACAD_REACTORS
330
47
102
}
330
47
100
AcDbScale
 70
     0
300
4:1
140
4.0
141
1.0
290
     0
  0
SCALE
  5
56
102
{ACAD_REACTORS
330
47
102
}
330
47
100
AcDbScale
 70
     0
300
8:1
140
8.0
141
1.0
290
     0
  0
SCALE
  5
57
102
{ACAD_REACTORS
330
47
102
}
330
47
100
AcDbScale
 70
     0
300
10:1
140
10.0
141
1.0
290
     0
  0
SCALE
  5
58
102
{ACAD_REACTORS
330
47
102
}
330
47
100
AcDbScale
 70
     0
300
100:1
140
100.0
141
1.0
290
     0
  0
ENDSEC
  0
EOF
