  0
SECTION
  2
HEADER
  9
$ACADVER
  1
AC1015
  9
$ACADMAINTVER
 70
     6
  9
$DWGCODEPAGE
  3
ANSI_1252
  9
$INSBASE
 10
0.0
 20
0.0
 30
0.0
  9
$EXTMIN
 10
-660.0
 20
0.0
 30
0.0
  9
$EXTMAX
 10
97.6393797974
 20
840.0
 30
0.0
  9
$LIMMIN
 10
0.0
 20
0.0
  9
$LIMMAX
 10
420.0
 20
297.0
  9
$ORTHOMODE
 70
     0
  9
$REGENMODE
 70
     1
  9
$FILLMODE
 70
     1
  9
$QTEXTMODE
 70
     0
  9
$MIRRTEXT
 70
     1
  9
$LTSCALE
 40
1.0
  9
$ATTMODE
 70
     1
  9
$TEXTSIZE
 40
3.5
  9
$TRACEWID
 40
1.0
  9
$TEXTSTYLE
  7
Standard
  9
$CLAYER
  8
0
  9
$CELTYPE
  6
ByLayer
  9
$CECOLOR
 62
   256
  9
$CELTSCALE
 40
1.0
  9
$DISPSILH
 70
     0
  9
$DIMSCALE
 40
1.0
  9
$DIMASZ
 40
3.302
  9
$DIMEXO
 40
0.0
  9
$DIMDLI
 40
3.75
  9
$DIMRND
 40
0.0
  9
$DIMDLE
 40
0.0
  9
$DIMEXE
 40
1.0
  9
$DIMTP
 40
0.0
  9
$DIMTM
 40
0.0
  9
$DIMTXT
 40
3.5
  9
$DIMCEN
 40
2.5
  9
$DIMTSZ
 40
0.0
  9
$DIMTOL
 70
     0
  9
$DIMLIM
 70
     0
  9
$DIMTIH
 70
     1
  9
$DIMTOH
 70
     1
  9
$DIMSE1
 70
     0
  9
$DIMSE2
 70
     0
  9
$DIMTAD
 70
     1
  9
$DIMZIN
 70
     1
  9
$DIMBLK
  1

  9
$DIMASO
 70
     1
  9
$DIMSHO
 70
     1
  9
$DIMPOST
  1

  9
$DIMAPOST
  1

  9
$DIMALT
 70
     0
  9
$DIMALTD
 70
     3
  9
$DIMALTF
 40
0.0393700787
  9
$DIMLFAC
 40
1.0
  9
$DIMTOFL
 70
     1
  9
$DIMTVP
 40
0.0
  9
$DIMTIX
 70
     0
  9
$DIMSOXD
 70
     0
  9
$DIMSAH
 70
     0
  9
$DIMBLK1
  1

  9
$DIMBLK2
  1

  9
$DIMSTYLE
  2
ISO-25
  9
$DIMCLRD
 70
     0
  9
$DIMCLRE
 70
     0
  9
$DIMCLRT
 70
     0
  9
$DIMTFAC
 40
1.0
  9
$DIMGAP
 40
1.524
  9
$DIMJUST
 70
     0
  9
$DIMSD1
 70
     0
  9
$DIMSD2
 70
     0
  9
$DIMTOLJ
 70
     0
  9
$DIMTZIN
 70
     1
  9
$DIMALTZ
 70
     0
  9
$DIMALTTZ
 70
     0
  9
$DIMUPT
 70
     0
  9
$DIMDEC
 70
     2
  9
$DIMTDEC
 70
     2
  9
$DIMALTU
 70
     2
  9
$DIMALTTD
 70
     3
  9
$DIMTXSTY
  7
Standard
  9
$DIMAUNIT
 70
     0
  9
$DIMADEC
 70
     2
  9
$DIMALTRND
 40
0.0
  9
$DIMAZIN
 70
     0
  9
$DIMDSEP
 70
    44
  9
$DIMATFIT
 70
     3
  9
$DIMFRAC
 70
     0
  9
$DIMLDRBLK
  1

  9
$DIMLUNIT
 70
     2
  9
$DIMLWD
 70
    -2
  9
$DIMLWE
 70
    -2
  9
$DIMTMOVE
 70
     0
  9
$LUNITS
 70
     2
  9
$LUPREC
 70
     2
  9
$SKETCHINC
 40
1.0
  9
$FILLETRAD
 40
0.0
  9
$AUNITS
 70
     0
  9
$AUPREC
 70
     2
  9
$MENU
  1
.
  9
$ELEVATION
 40
0.0
  9
$PELEVATION
 40
0.0
  9
$THICKNESS
 40
0.0
  9
$LIMCHECK
 70
     0
  9
$CHAMFERA
 40
0.0
  9
$CHAMFERB
 40
0.0
  9
$CHAMFERC
 40
0.0
  9
$CHAMFERD
 40
0.0
  9
$SKPOLY
 70
     0
  9
$TDCREATE
 40
2460875.53758147
  9
$TDUCREATE
 40
2460875.454248137
  9
$TDUPDATE
 40
2460875.537658137
  9
$TDUUPDATE
 40
2460875.454324804
  9
$TDINDWG
 40
0.0000000116
  9
$TDUSRTIMER
 40
0.0000000116
  9
$USRTIMER
 70
     1
  9
$ANGBASE
 50
0.0
  9
$ANGDIR
 70
     0
  9
$PDMODE
 70
     0
  9
$PDSIZE
 40
-1.0
  9
$PLINEWID
 40
0.0
  9
$SPLFRAME
 70
     0
  9
$SPLINETYPE
 70
     6
  9
$SPLINESEGS
 70
     8
  9
$HANDSEED
  5
1FF
  9
$SURFTAB1
 70
     6
  9
$SURFTAB2
 70
     6
  9
$SURFTYPE
 70
     6
  9
$SURFU
 70
     6
  9
$SURFV
 70
     6
  9
$UCSBASE
  2

  9
$UCSNAME
  2

  9
$UCSORG
 10
0.0
 20
0.0
 30
0.0
  9
$UCSXDIR
 10
1.0
 20
0.0
 30
0.0
  9
$UCSYDIR
 10
0.0
 20
1.0
 30
0.0
  9
$UCSORTHOREF
  2

  9
$UCSORTHOVIEW
 70
     0
  9
$UCSORGTOP
 10
0.0
 20
0.0
 30
0.0
  9
$UCSORGBOTTOM
 10
0.0
 20
0.0
 30
0.0
  9
$UCSORGLEFT
 10
0.0
 20
0.0
 30
0.0
  9
$UCSORGRIGHT
 10
0.0
 20
0.0
 30
0.0
  9
$UCSORGFRONT
 10
0.0
 20
0.0
 30
0.0
  9
$UCSORGBACK
 10
0.0
 20
0.0
 30
0.0
  9
$PUCSBASE
  2

  9
$PUCSNAME
  2

  9
$PUCSORG
 10
0.0
 20
0.0
 30
0.0
  9
$PUCSXDIR
 10
1.0
 20
0.0
 30
0.0
  9
$PUCSYDIR
 10
0.0
 20
1.0
 30
0.0
  9
$PUCSORTHOREF
  2

  9
$PUCSORTHOVIEW
 70
     0
  9
$PUCSORGTOP
 10
0.0
 20
0.0
 30
0.0
  9
$PUCSORGBOTTOM
 10
0.0
 20
0.0
 30
0.0
  9
$PUCSORGLEFT
 10
0.0
 20
0.0
 30
0.0
  9
$PUCSORGRIGHT
 10
0.0
 20
0.0
 30
0.0
  9
$PUCSORGFRONT
 10
0.0
 20
0.0
 30
0.0
  9
$PUCSORGBACK
 10
0.0
 20
0.0
 30
0.0
  9
$USERI1
 70
     0
  9
$USERI2
 70
     0
  9
$USERI3
 70
     0
  9
$USERI4
 70
     0
  9
$USERI5
 70
     0
  9
$USERR1
 40
0.0
  9
$USERR2
 40
0.0
  9
$USERR3
 40
0.0
  9
$USERR4
 40
0.0
  9
$USERR5
 40
0.0
  9
$WORLDVIEW
 70
     1
  9
$SHADEDGE
 70
     3
  9
$SHADEDIF
 70
    70
  9
$TILEMODE
 70
     1
  9
$MAXACTVP
 70
    64
  9
$PINSBASE
 10
0.0
 20
0.0
 30
0.0
  9
$PLIMCHECK
 70
     0
  9
$PEXTMIN
 10
1.0000000000E+20
 20
1.0000000000E+20
 30
1.0000000000E+20
  9
$PEXTMAX
 10
-1.0000000000E+20
 20
-1.0000000000E+20
 30
-1.0000000000E+20
  9
$PLIMMIN
 10
0.0
 20
0.0
  9
$PLIMMAX
 10
420.0
 20
297.0
  9
$UNITMODE
 70
     0
  9
$VISRETAIN
 70
     1
  9
$PLINEGEN
 70
     0
  9
$PSLTSCALE
 70
     1
  9
$TREEDEPTH
 70
  3020
  9
$CMLSTYLE
  2
Standard
  9
$CMLJUST
 70
     0
  9
$CMLSCALE
 40
20.0
  9
$PROXYGRAPHICS
 70
     1
  9
$MEASUREMENT
 70
     1
  9
$CELWEIGHT
370
    -1
  9
$ENDCAPS
280
     0
  9
$JOINSTYLE
280
     0
  9
$LWDISPLAY
290
     1
  9
$INSUNITS
 70
     4
  9
$HYPERLINKBASE
  1

  9
$STYLESHEET
  1

  9
$XEDIT
290
     1
  9
$CEPSNTYPE
380
     0
  9
$PSTYLEMODE
290
     1
  9
$FINGERPRINTGUID
  2
{c6a80da6-bad9-48f7-bef2-28099b8ccc16}
  9
$VERSIONGUID
  2
{FAEB1C32-E019-11D5-929B-00C0DF256EC4}
  9
$EXTNAMES
290
     1
  9
$PSVPSCALE
 40
0.0
  9
$OLESTARTUP
290
     0
  0
ENDSEC
  0
SECTION
  2
CLASSES
  0
CLASS
  1
ACDBDICTIONARYWDFLT
  2
AcDbDictionaryWithDefault
  3
ObjectDBX Classes
 90
        0
280
     0
281
     0
  0
CLASS
  1
VISUALSTYLE
  2
AcDbVisualStyle
  3
ObjectDBX Classes
 90
     4095
280
     0
281
     0
  0
CLASS
  1
MATERIAL
  2
AcDbMaterial
  3
ObjectDBX Classes
 90
     1153
280
     0
281
     0
  0
CLASS
  1
SCALE
  2
AcDbScale
  3
ObjectDBX Classes
 90
     1153
280
     0
281
     0
  0
CLASS
  1
TABLESTYLE
  2
AcDbTableStyle
  3
ObjectDBX Classes
 90
     4095
280
     0
281
     0
  0
CLASS
  1
MLEADERSTYLE
  2
AcDbMLeaderStyle
  3
ACDB_MLEADERSTYLE_CLASS
 90
     4095
280
     0
281
     0
  0
CLASS
  1
SUN
  2
AcDbSun
  3
SCENEOE
 90
     1153
280
     0
281
     0
  0
CLASS
  1
ACDBPLACEHOLDER
  2
AcDbPlaceHolder
  3
ObjectDBX Classes
 90
        0
280
     0
281
     0
  0
CLASS
  1
LAYOUT
  2
AcDbLayout
  3
ObjectDBX Classes
 90
        0
280
     0
281
     0
  0
ENDSEC
  0
SECTION
  2
TABLES
  0
TABLE
  2
VPORT
  5
8
330
0
100
AcDbSymbolTable
 70
     1
  0
VPORT
  5
29
330
8
100
AcDbSymbolTableRecord
100
AcDbViewportTableRecord
  2
*Active
 70
     0
 10
0.0
 20
0.0
 11
1.0
 21
1.0
 12
-281.1803101013
 22
420.0
 13
0.0
 23
0.0
 14
10.0
 24
10.0
 15
10.0
 25
10.0
 16
0.0
 26
0.0
 36
1.0
 17
0.0
 27
0.0
 37
0.0
 40
856.8
 41
0.9019516426
 42
50.0
 43
0.0
 44
0.0
 50
0.0
 51
0.0
 71
     0
 72
   100
 73
     1
 74
     3
 75
     0
 76
     0
 77
     0
 78
     0
281
     0
 65
     1
110
0.0
120
0.0
130
0.0
111
1.0
121
0.0
131
0.0
112
0.0
122
1.0
132
0.0
 79
     0
146
0.0
  0
ENDTAB
  0
TABLE
  2
LTYPE
  5
5
330
0
100
AcDbSymbolTable
 70
     6
  0
LTYPE
  5
14
330
5
100
AcDbSymbolTableRecord
100
AcDbLinetypeTableRecord
  2
ByBlock
 70
     0
  3

 72
    65
 73
     0
 40
0.0
  0
LTYPE
  5
15
330
5
100
AcDbSymbolTableRecord
100
AcDbLinetypeTableRecord
  2
ByLayer
 70
     0
  3

 72
    65
 73
     0
 40
0.0
  0
LTYPE
  5
16
330
5
100
AcDbSymbolTableRecord
100
AcDbLinetypeTableRecord
  2
Continuous
 70
     0
  3
Solid line
 72
    65
 73
     0
 40
0.0
  0
LTYPE
  5
5E
330
5
100
AcDbSymbolTableRecord
100
AcDbLinetypeTableRecord
  2
HIDDEN
 70
     0
  3
Hidden __ __ __ __ __ __ __ __ __ __ __ __ __ __
 72
    65
 73
     2
 40
1.905
 49
1.27
 74
     0
 49
-0.635
 74
     0
  0
LTYPE
  5
5F
330
5
100
AcDbSymbolTableRecord
100
AcDbLinetypeTableRecord
  2
PHANTOM
 70
     0
  3
Phantom ______  __  __  ______  __  __  ______
 72
    65
 73
     6
 40
12.7
 49
6.35
 74
     0
 49
-1.27
 74
     0
 49
1.27
 74
     0
 49
-1.27
 74
     0
 49
1.27
 74
     0
 49
-1.27
 74
     0
  0
LTYPE
  5
60
330
5
100
AcDbSymbolTableRecord
100
AcDbLinetypeTableRecord
  2
CENTER
 70
     0
  3
Center ____ _ ____ _ ____ _ ____ _ ____ _ ____
 72
    65
 73
     4
 40
10.16
 49
6.35
 74
     0
 49
-1.27
 74
     0
 49
1.27
 74
     0
 49
-1.27
 74
     0
  0
LTYPE
  5
61
330
5
100
AcDbSymbolTableRecord
100
AcDbLinetypeTableRecord
  2
CENTERX2
 70
     0
  3
Center (2x) ________  __  ________  __  _____
 72
    65
 73
     4
 40
20.32
 49
12.7
 74
     0
 49
-2.54
 74
     0
 49
2.54
 74
     0
 49
-2.54
 74
     0
  0
LTYPE
  5
62
330
5
100
AcDbSymbolTableRecord
100
AcDbLinetypeTableRecord
  2
DOT2
 70
     0
  3
Dot (.5x) ........................................
 72
    65
 73
     2
 40
0.635
 49
0.0
 74
     0
 49
-0.635
 74
     0
  0
ENDTAB
  0
TABLE
  2
LAYER
  5
2
330
0
100
AcDbSymbolTable
 70
     1
  0
LAYER
  5
10
330
2
100
AcDbSymbolTableRecord
100
AcDbLayerTableRecord
  2
0
 70
     0
 62
     7
  6
Continuous
370
    -3
390
F
  0
ENDTAB
  0
TABLE
  2
STYLE
  5
3
330
0
100
AcDbSymbolTable
 70
     2
  0
STYLE
  5
11
330
3
100
AcDbSymbolTableRecord
100
AcDbTextStyleTableRecord
  2
Standard
 70
     0
 40
0.0
 41
1.0
 50
0.0
 71
     0
 42
3.5
  3
txt
  4

  0
STYLE
  5
1FB
330
3
100
AcDbSymbolTableRecord
100
AcDbTextStyleTableRecord
  2
SLDTEXTSTYLE0
 70
     0
 40
0.0
 41
0.7
 50
0.0
 71
     0
 42
3.5
  3
TXT
  4

  0
ENDTAB
  0
TABLE
  2
VIEW
  5
6
330
0
100
AcDbSymbolTable
 70
     0
  0
ENDTAB
  0
TABLE
  2
UCS
  5
7
330
0
100
AcDbSymbolTable
 70
     0
  0
ENDTAB
  0
TABLE
  2
APPID
  5
9
330
0
100
AcDbSymbolTable
 70
     1
  0
APPID
  5
12
330
9
100
AcDbSymbolTableRecord
100
AcDbRegAppTableRecord
  2
ACAD
 70
     0
  0
ENDTAB
  0
TABLE
  2
DIMSTYLE
  5
A
330
0
100
AcDbSymbolTable
 70
     1
100
AcDbDimStyleTable
  0
DIMSTYLE
105
27
330
A
100
AcDbSymbolTableRecord
100
AcDbDimStyleTableRecord
  2
ISO-25
 70
     0
 41
2.5
 42
0.625
 43
3.75
 44
1.25
 73
     0
 74
     0
 77
     1
 78
     8
140
2.5
141
2.5
143
0.0393700787
147
0.625
171
     3
172
     1
178
     0
271
     2
272
     2
274
     3
278
    44
283
     0
284
     8
340
11
  0
ENDTAB
  0
TABLE
  2
BLOCK_RECORD
  5
1
330
0
100
AcDbSymbolTable
 70
     1
  0
BLOCK_RECORD
  5
1F
330
1
100
AcDbSymbolTableRecord
100
AcDbBlockTableRecord
  2
*Model_Space
340
22
  0
BLOCK_RECORD
  5
1B
330
1
100
AcDbSymbolTableRecord
100
AcDbBlockTableRecord
  2
*Paper_Space
340
1E
  0
BLOCK_RECORD
  5
23
330
1
100
AcDbSymbolTableRecord
100
AcDbBlockTableRecord
  2
*Paper_Space0
340
26
  0
ENDTAB
  0
ENDSEC
  0
SECTION
  2
BLOCKS
  0
BLOCK
  5
20
330
1F
100
AcDbEntity
  8
0
100
AcDbBlockBegin
  2
*Model_Space
 70
     0
 10
0.0
 20
0.0
 30
0.0
  3
*Model_Space
  1

  0
ENDBLK
  5
21
330
1F
100
AcDbEntity
  8
0
100
AcDbBlockEnd
  0
BLOCK
  5
1C
330
1B
100
AcDbEntity
 67
     1
  8
0
100
AcDbBlockBegin
  2
*Paper_Space
 70
     0
 10
0.0
 20
0.0
 30
0.0
  3
*Paper_Space
  1

  0
ENDBLK
  5
1D
330
1B
100
AcDbEntity
 67
     1
  8
0
100
AcDbBlockEnd
  0
BLOCK
  5
24
330
23
100
AcDbEntity
  8
0
100
AcDbBlockBegin
  2
*Paper_Space0
 70
     0
 10
0.0
 20
0.0
 30
0.0
  3
*Paper_Space0
  1

  0
ENDBLK
  5
25
330
23
100
AcDbEntity
  8
0
100
AcDbBlockEnd
  0
ENDSEC
  0
SECTION
  2
ENTITIES
  0
LINE
  5
63
330
1F
100
AcDbEntity
  8
0
  6
Continuous
 62
     7
100
AcDbLine
 10
-459.8401550507
 20
250.0
 30
0.0
 11
-459.8401550507
 21
0.0
 31
0.0
  0
LINE
  5
64
330
1F
100
AcDbEntity
  8
0
  6
HIDDEN
 62
     7
100
AcDbLine
 10
-361.020465152
 20
60.0
 30
0.0
 11
-361.020465152
 21
0.0
 31
0.0
  0
SPLINE
  5
67
330
1F
100
AcDbEntity
  8
0
  6
Continuous
 62
     7
370
    25
100
AcDbSpline
210
0.0
220
0.0
230
1.0
 70
     8
 71
     3
 72
    13
 73
     9
 74
     0
 42
0.00000001
 43
0.00000001
 40
0.0
 40
0.0
 40
0.0
 40
0.0
 40
0.2138863655718647
 40
0.3246827750473095
 40
0.439458544744861
 40
0.561633485869794
 40
0.6938876172598769
 40
1.0
 40
1.0
 40
1.0
 40
1.0
 10
-576.6078265809647
 20
26.59982635365565
 30
0.0
 10
-576.5517461881943
 20
26.59943733708325
 30
0.0
 10
-576.466187593301
 20
26.58759068659189
 30
0.0
 10
-576.3586143009462
 20
26.54491347785493
 30
0.0
 10
-576.2782332703391
 20
26.5011531385555
 30
0.0
 10
-576.2005974073899
 20
26.44262485919013
 30
0.0
 10
-576.0948005139684
 20
26.33993379819955
 30
0.0
 10
-576.026848311635
 20
26.2461661136506
 30
0.0
 10
-575.9838281835288
 20
26.17845215493775
 30
0.0
  0
SPLINE
  5
68
330
1F
100
AcDbEntity
  8
0
  6
Continuous
 62
     7
370
    25
100
AcDbSpline
210
0.0
220
0.0
230
1.0
 70
     8
 71
     3
 72
     9
 73
     5
 74
     0
 42
0.00000001
 43
0.00000001
 40
0.0
 40
0.0
 40
0.0
 40
0.0
 40
0.5364768048236987
 40
1.0
 40
1.0
 40
1.0
 40
1.0
 10
-576.8812640809647
 20
26.51218612929673
 30
0.0
 10
-576.8369229759054
 20
26.53904602007295
 30
0.0
 10
-576.7492698641889
 20
26.58258393155233
 30
0.0
 10
-576.6528030338849
 20
26.59947693276843
 30
0.0
 10
-576.6078265809647
 20
26.59982635365565
 30
0.0
  0
SPLINE
  5
6A
330
1F
100
AcDbEntity
  8
0
  6
Continuous
 62
     7
370
    25
100
AcDbSpline
210
0.0
220
0.0
230
1.0
 70
     8
 71
     3
 72
     9
 73
     5
 74
     0
 42
0.00000001
 43
0.00000001
 40
0.0
 40
0.0
 40
0.0
 40
0.0
 40
0.4397700551121884
 40
1.0
 40
1.0
 40
1.0
 40
1.0
 10
-576.5482312284005
 20
26.28572378955307
 30
0.0
 10
-576.5729152682253
 20
26.28540140084901
 30
0.0
 10
-576.6287024234356
 20
26.27607684536526
 30
0.0
 10
-576.6801750816539
 20
26.25282120674677
 30
0.0
 10
-576.7087881194261
 20
26.24015087288645
 30
0.0
  0
SPLINE
  5
6B
330
1F
100
AcDbEntity
  8
0
  6
Continuous
 62
     7
370
    25
100
AcDbSpline
210
0.0
220
0.0
230
1.0
 70
     8
 71
     3
 72
    17
 73
    13
 74
     0
 42
0.00000001
 43
0.00000001
 40
0.0
 40
0.0
 40
0.0
 40
0.0
 40
0.1717166158284539
 40
0.2506679767741051
 40
0.3258823275093822
 40
0.396881271696415
 40
0.4635748406535746
 40
0.5280697489487671
 40
0.5896876632767214
 40
0.7048093833748892
 40
0.8086618718637332
 40
1.0
 40
1.0
 40
1.0
 40
1.0
 10
-576.0399179271185
 20
25.73464205878384
 30
0.0
 10
-576.0518410744775
 20
25.77911347298911
 30
0.0
 10
-576.07136246182
 20
25.8435913527898
 30
0.0
 10
-576.1042139016446
 20
25.92464619795742
 30
0.0
 10
-576.1298728342085
 20
25.97937764328096
 30
0.0
 10
-576.1580448734336
 20
26.02910671873804
 30
0.0
 10
-576.1875271501347
 20
26.07468623730469
 30
0.0
 10
-576.2196675769262
 20
26.1153318249362
 30
0.0
 10
-576.2647093858695
 20
26.16189235784849
 30
0.0
 10
-576.3228838409668
 20
26.21007731676428
 30
0.0
 10
-576.4178269529881
 20
26.26691263004199
 30
0.0
 10
-576.4967062035112
 20
26.28579031242639
 30
0.0
 10
-576.5482312284005
 20
26.28572378955307
 30
0.0
  0
SPLINE
  5
6C
330
1F
100
AcDbEntity
  8
0
  6
Continuous
 62
     7
370
    25
100
AcDbSpline
210
0.0
220
0.0
230
1.0
 70
     8
 71
     3
 72
    13
 73
     9
 74
     0
 42
0.00000001
 43
0.00000001
 40
0.0
 40
0.0
 40
0.0
 40
0.0
 40
0.343762191421775
 40
0.4918338323010911
 40
0.6241090704107948
 40
0.7413996050399048
 40
0.8430618504426423
 40
1.0
 40
1.0
 40
1.0
 40
1.0
 10
-575.9838281835288
 20
24.85683757160439
 30
0.0
 10
-575.9832817263508
 20
24.95781823306364
 30
0.0
 10
-575.9855047977604
 20
25.10226484317368
 30
0.0
 10
-575.9907790766497
 20
25.2855204205944
 30
0.0
 10
-575.9973322277923
 20
25.40213615643727
 30
0.0
 10
-576.0044803940176
 20
25.5050727804611
 30
0.0
 10
-576.016704154189
 20
25.61481216274164
 30
0.0
 10
-576.0281681079034
 20
25.68998422522895
 30
0.0
 10
-576.0399179271185
 20
25.73464205878384
 30
0.0
  0
SPLINE
  5
71
330
1F
100
AcDbEntity
  8
0
  6
Continuous
 62
     7
370
    25
100
AcDbSpline
210
0.0
220
0.0
230
1.0
 70
     8
 71
     3
 72
    17
 73
    13
 74
     0
 42
0.00000001
 43
0.00000001
 40
0.0
 40
0.0
 40
0.0
 40
0.0
 40
0.1781058515637827
 40
0.2613277635121511
 40
0.3415565694705521
 40
0.4200079090126525
 40
0.4980968161626226
 40
0.5754001382821239
 40
0.6536452159657116
 40
0.7341257729573898
 40
0.8183392339289949
 40
1.0
 40
1.0
 40
1.0
 40
1.0
 10
-573.8152584719904
 20
23.95239045621977
 30
0.0
 10
-573.9015522637483
 20
23.95240161639423
 30
0.0
 10
-574.0284287455182
 20
23.96105583742592
 30
0.0
 10
-574.1908120180943
 20
23.99438153555322
 30
0.0
 10
-574.3031106676361
 20
24.02875977033048
 30
0.0
 10
-574.4089604840627
 20
24.07352046202793
 30
0.0
 10
-574.5092497995782
 20
24.12663654405367
 30
0.0
 10
-574.6039803865897
 20
24.18897606102888
 30
0.0
 10
-574.6936579926183
 20
24.26022301050401
 30
0.0
 10
-574.7787309853601
 20
24.34196942868572
 30
0.0
 10
-574.8856768694682
 20
24.47173158340654
 30
0.0
 10
-574.9551478602282
 20
24.58072746912954
 30
0.0
 10
-574.9966486963493
 20
24.65842010365571
 30
0.0
  0
SPLINE
  5
72
330
1F
100
AcDbEntity
  8
0
  6
Continuous
 62
     7
370
    25
100
AcDbSpline
210
0.0
220
0.0
230
1.0
 70
     8
 71
     3
 72
    21
 73
    17
 74
     0
 42
0.00000001
 43
0.00000001
 40
0.0
 40
0.0
 40
0.0
 40
0.0
 40
0.1210804245006118
 40
0.1800682782218559
 40
0.2391896643238556
 40
0.2987059533012314
 40
0.3588810785072301
 40
0.4203687292950606
 40
0.4834483096802261
 40
0.5465664849029384
 40
0.6086986022254206
 40
0.670186253013248
 40
0.7318650366033053
 40
0.7952033026033165
 40
0.8603707753071415
 40
1.0
 40
1.0
 40
1.0
 40
1.0
 10
-572.5286999784007
 20
25.269097186989
 30
0.0
 10
-572.529614705638
 20
25.18607454663901
 30
0.0
 10
-572.5383943299371
 20
25.06222273965108
 30
0.0
 10
-572.5744756142102
 20
24.90177559542161
 30
0.0
 10
-572.6128510111239
 20
24.78591321993751
 30
0.0
 10
-572.6604115909711
 20
24.6726422862259
 30
0.0
 10
-572.7188668496701
 20
24.56267917002542
 30
0.0
 10
-572.7887932688578
 20
24.45672326874593
 30
0.0
 10
-572.8680369878725
 20
24.35504126577326
 30
0.0
 10
-572.9560612333966
 20
24.26002502245051
 30
0.0
 10
-573.0548807782033
 20
24.17789202679021
 30
0.0
 10
-573.1613815228995
 20
24.10793527834099
 30
0.0
 10
-573.2761242014021
 20
24.05049765125278
 30
0.0
 10
-573.3993342536263
 20
24.00657197746614
 30
0.0
 10
-573.5785660966575
 20
23.96342562216258
 30
0.0
 10
-573.7194877919962
 20
23.95242933912123
 30
0.0
 10
-573.8152584719904
 20
23.95239045621977
 30
0.0
  0
SPLINE
  5
73
330
1F
100
AcDbEntity
  8
0
  6
Continuous
 62
     7
370
    25
100
AcDbSpline
210
0.0
220
0.0
230
1.0
 70
     8
 71
     3
 72
    13
 73
     9
 74
     0
 42
0.00000001
 43
0.00000001
 40
0.0
 40
0.0
 40
0.0
 40
0.0
 40
0.2534216680665266
 40
0.3767041167575432
 40
0.4994491585174913
 40
0.6225715734186964
 40
0.7462320999755214
 40
1.0
 40
1.0
 40
1.0
 40
1.0
 10
-572.8231711322469
 20
26.12306353314287
 30
0.0
 10
-572.7756198697521
 20
26.06157170931755
 30
0.0
 10
-572.7104560370235
 20
25.96550243803708
 30
0.0
 10
-572.642283260667
 20
25.82799140180547
 30
0.0
 10
-572.6007041589461
 20
25.72245115208738
 30
0.0
 10
-572.5685567262193
 20
25.61356346027199
 30
0.0
 10
-572.536929346662
 20
25.46301974931275
 30
0.0
 10
-572.5296532666058
 20
25.3468908891481
 30
0.0
 10
-572.5286999784007
 20
25.269097186989
 30
0.0
  0
SPLINE
  5
74
330
1F
100
AcDbEntity
  8
0
  6
Continuous
 62
     7
370
    25
100
AcDbSpline
210
0.0
220
0.0
230
1.0
 70
     8
 71
     3
 72
    13
 73
     9
 74
     0
 42
0.00000001
 43
0.00000001
 40
0.0
 40
0.0
 40
0.0
 40
0.0
 40
0.2602406645595056
 40
0.3836752253642184
 40
0.5046599577622765
 40
0.6253567426858504
 40
0.7464106650135791
 40
1.0
 40
1.0
 40
1.0
 40
1.0
 10
-573.822970811734
 20
26.59982635365565
 30
0.0
 10
-573.7235146006172
 20
26.59862777346922
 30
0.0
 10
-573.5756388036417
 20
26.58759892260998
 30
0.0
 10
-573.3890927776706
 20
26.53510451972163
 30
0.0
 10
-573.258751342947
 20
26.48347199000545
 30
0.0
 10
-573.1371743199154
 20
26.41543244464073
 30
0.0
 10
-572.9825121679362
 20
26.30466991766556
 30
0.0
 10
-572.8837441925299
 20
26.19878808229559
 30
0.0
 10
-572.8231711322469
 20
26.12306353314287
 30
0.0
  0
SPLINE
  5
75
330
1F
100
AcDbEntity
  8
0
  6
Continuous
 62
     7
370
    25
100
AcDbSpline
210
0.0
220
0.0
230
1.0
 70
     8
 71
     3
 72
    13
 73
     9
 74
     0
 42
0.00000001
 43
0.00000001
 40
0.0
 40
0.0
 40
0.0
 40
0.0
 40
0.255257368140996
 40
0.3772478104725325
 40
0.4977415562850415
 40
0.6181201760750441
 40
0.7409671592206359
 40
1.0
 40
1.0
 40
1.0
 40
1.0
 10
-574.8529187284008
 20
26.09642090493769
 30
0.0
 10
-574.7915315847074
 20
26.17708101753691
 30
0.0
 10
-574.6880886705692
 20
26.2867207079589
 30
0.0
 10
-574.5298134947769
 20
26.40579149326017
 30
0.0
 10
-574.4041439832013
 20
26.47700323996782
 30
0.0
 10
-574.2702996376945
 20
26.53208887145719
 30
0.0
 10
-574.0777065745424
 20
26.58537812161654
 30
0.0
 10
-573.9257983138142
 20
26.60025832723722
 30
0.0
 10
-573.822970811734
 20
26.59982635365565
 30
0.0
  0
SPLINE
  5
76
330
1F
100
AcDbEntity
  8
0
  6
Continuous
 62
     7
370
    25
100
AcDbSpline
210
0.0
220
0.0
230
1.0
 70
     8
 71
     3
 72
    13
 73
     9
 74
     0
 42
0.00000001
 43
0.00000001
 40
0.0
 40
0.0
 40
0.0
 40
0.0
 40
0.2703816178319617
 40
0.3984601291783004
 40
0.5227503451014437
 40
0.6438255660090793
 40
0.7637452368382556
 40
1.0
 40
1.0
 40
1.0
 40
1.0
 10
-575.1312640809647
 20
25.20880071262999
 30
0.0
 10
-575.1296746163099
 20
25.29406035411341
 30
0.0
 10
-575.1223135828087
 20
25.42004269347253
 30
0.0
 10
-575.0917120993835
 20
25.58239881192259
 30
0.0
 10
-575.0607019663232
 20
25.69622516255754
 30
0.0
 10
-575.0223251886539
 20
25.80510689635052
 30
0.0
 10
-574.9587144206598
 20
25.94189291824123
 30
0.0
 10
-574.8988053802738
 20
26.03753208158843
 30
0.0
 10
-574.8529187284006
 20
26.09642090493769
 30
0.0
  0
SPLINE
  5
78
330
1F
100
AcDbEntity
  8
0
  6
Continuous
 62
     7
370
    25
100
AcDbSpline
210
0.0
220
0.0
230
1.0
 70
     8
 71
     3
 72
    21
 73
    17
 74
     0
 42
0.00000001
 43
0.00000001
 40
0.0
 40
0.0
 40
0.0
 40
0.0
 40
0.1276691474530424
 40
0.1889505232706536
 40
0.2490548673082992
 40
0.3090713134763196
 40
0.3692223593686933
 40
0.4301747620269846
 40
0.4926019887960209
 40
0.555346876893578
 40
0.6169627615204942
 40
0.678170777192346
 40
0.73924652255152
 40
0.8016089422160485
 40
0.8655244124565523
 40
1.0
 40
1.0
 40
1.0
 40
1.0
 10
-573.7759956514776
 20
24.26649302032235
 30
0.0
 10
-573.7129844970937
 20
24.2661433360194
 30
0.0
 10
-573.6198562462007
 20
24.27486230068077
 30
0.0
 10
-573.4998741811283
 20
24.30192876066151
 30
0.0
 10
-573.4151019060687
 20
24.33099983173859
 30
0.0
 10
-573.3342039533951
 20
24.3681890939299
 30
0.0
 10
-573.2573103511727
 20
24.41399216866957
 30
0.0
 10
-573.1850276218586
 20
24.46864463318532
 30
0.0
 10
-573.1163204918859
 20
24.52970520515629
 30
0.0
 10
-573.0545949130799
 20
24.59827239169976
 30
0.0
 10
-572.9992549199623
 20
24.67131031694558
 30
0.0
 10
-572.952870823525
 20
24.74947232532399
 30
0.0
 10
-572.9149979090171
 20
24.83240257236363
 30
0.0
 10
-572.8837521440655
 20
24.9194851521114
 30
0.0
 10
-572.8534716133923
 20
25.04469844335966
 30
0.0
 10
-572.8445912669731
 20
25.14255470162119
 30
0.0
 10
-572.8428025425033
 20
25.20880071262999
 30
0.0
  0
SPLINE
  5
79
330
1F
100
AcDbEntity
  8
0
  6
Continuous
 62
     7
370
    25
100
AcDbSpline
210
0.0
220
0.0
230
1.0
 70
     8
 71
     3
 72
    17
 73
    13
 74
     0
 42
0.00000001
 43
0.00000001
 40
0.0
 40
0.0
 40
0.0
 40
0.0
 40
0.2079350339033564
 40
0.2946939715678991
 40
0.3697315241424307
 40
0.440830943802725
 40
0.5142509140460771
 40
0.5913900390896499
 40
0.6722743046458497
 40
0.7543412603705406
 40
0.8361211059014766
 40
1.0
 40
1.0
 40
1.0
 40
1.0
 10
-574.7176022219904
 20
24.80495455878384
 30
0.0
 10
-574.6750774959875
 20
24.73840707488084
 30
0.0
 10
-574.6079617263175
 20
24.64877660942932
 30
0.0
 10
-574.5144639373168
 20
24.54395767780026
 30
0.0
 10
-574.4484120974831
 20
24.48493635266713
 30
0.0
 10
-574.3802904785948
 20
24.43672999489832
 30
0.0
 10
-574.3074115346096
 20
24.39457885283558
 30
0.0
 10
-574.2281656362788
 20
24.35647834035026
 30
0.0
 10
-574.1425948245274
 20
24.32489310966379
 30
0.0
 10
-574.0533340812639
 20
24.29903483287321
 30
0.0
 10
-573.9314857877918
 20
24.27351525084698
 30
0.0
 10
-573.8381895554174
 20
24.26619218957315
 30
0.0
 10
-573.7759956514776
 20
24.26649302032235
 30
0.0
  0
SPLINE
  5
81
330
1F
100
AcDbEntity
  8
0
  6
Continuous
 62
     7
370
    25
100
AcDbSpline
210
0.0
220
0.0
230
1.0
 70
     8
 71
     3
 72
    13
 73
     9
 74
     0
 42
0.00000001
 43
0.00000001
 40
0.0
 40
0.0
 40
0.0
 40
0.0
 40
0.2531294102724402
 40
0.3753070134590598
 40
0.4961956083998795
 40
0.6178660239074372
 40
0.7416676494858145
 40
1.0
 40
1.0
 40
1.0
 40
1.0
 10
-568.9922416450672
 20
26.17845215493775
 30
0.0
 10
-568.9300831610766
 20
26.24638876008911
 30
0.0
 10
-568.8284678551363
 20
26.3391108851706
 30
0.0
 10
-568.6761038574821
 20
26.43665721617916
 30
0.0
 10
-568.5577242133526
 20
26.49738542907054
 30
0.0
 10
-568.4319282997594
 20
26.54259134126957
 30
0.0
 10
-568.2538031713049
 20
26.5872353124037
 30
0.0
 10
-568.1145769986841
 20
26.60080099425322
 30
0.0
 10
-568.0204868373751
 20
26.59982635365565
 30
0.0
  0
SPLINE
  5
82
330
1F
100
AcDbEntity
  8
0
  6
Continuous
 62
     7
370
    25
100
AcDbSpline
210
0.0
220
0.0
230
1.0
 70
     8
 71
     3
 72
    13
 73
     9
 74
     0
 42
0.00000001
 43
0.00000001
 40
0.0
 40
0.0
 40
0.0
 40
0.0
 40
0.2554352550956477
 40
0.3786322712675498
 40
0.50146631433211
 40
0.6234943774777815
 40
0.7461656372032779
 40
1.0
 40
1.0
 40
1.0
 40
1.0
 10
-569.3428025425031
 20
25.269097186989
 30
0.0
 10
-569.3423281537091
 20
25.35403403357395
 30
0.0
 10
-569.3328443449841
 20
25.48027599650271
 30
0.0
 10
-569.2956523624033
 20
25.64321529622205
 30
0.0
 10
-569.2570101929538
 20
25.75959649764525
 30
0.0
 10
-569.2079061181106
 20
25.87181500362323
 30
0.0
 10
-569.1256667181226
 20
26.0161757943691
 30
0.0
 10
-569.0492726548031
 20
26.11611423456062
 30
0.0
 10
-568.9922416450672
 20
26.17845215493775
 30
0.0
  0
SPLINE
  5
83
330
1F
100
AcDbEntity
  8
0
  6
Continuous
 62
     7
370
    25
100
AcDbSpline
210
0.0
220
0.0
230
1.0
 70
     8
 71
     3
 72
    21
 73
    17
 74
     0
 42
0.00000001
 43
0.00000001
 40
0.0
 40
0.0
 40
0.0
 40
0.0
 40
0.1341341587220424
 40
0.1979034644236247
 40
0.2604831025120542
 40
0.322145528691671
 40
0.3837784671889386
 40
0.446215423207863
 40
0.5103409574898141
 40
0.5743946950476086
 40
0.6362264024960824
 40
0.6971016460802506
 40
0.7568275569302938
 40
0.8167348601469018
 40
0.8766630214626719
 40
1.0
 40
1.0
 40
1.0
 40
1.0
 10
-568.0204868373751
 20
23.95239045621977
 30
0.0
 10
-568.1134368867615
 20
23.9527544217738
 30
0.0
 10
-568.2509641835793
 20
23.96343130598189
 30
0.0
 10
-568.4270193452796
 20
24.00528314505157
 30
0.0
 10
-568.550085371747
 20
24.04895461753087
 30
0.0
 10
-568.666729106966
 20
24.10440106453493
 30
0.0
 10
-568.7758830434211
 20
24.17321990883081
 30
0.0
 10
-568.8789992001817
 20
24.25354890963882
 30
0.0
 10
-568.9740511434707
 20
24.34571492238169
 30
0.0
 10
-569.0600548649797
 20
24.44571681527985
 30
0.0
 10
-569.1359274763788
 20
24.55086893275882
 30
0.0
 10
-569.1998145572297
 20
24.66027849229224
 30
0.0
 10
-569.2521858556845
 20
24.77416129456145
 30
0.0
 10
-569.2929685104826
 20
24.89202007878099
 30
0.0
 10
-569.3316000992128
 20
25.05640888243033
 30
0.0
 10
-569.3433094517759
 20
25.18352976702076
 30
0.0
 10
-569.3428025425031
 20
25.269097186989
 30
0.0
  0
SPLINE
  5
84
330
1F
100
AcDbEntity
  8
0
  6
Continuous
 62
     7
370
    25
100
AcDbSpline
210
0.0
220
0.0
230
1.0
 70
     8
 71
     3
 72
    21
 73
    17
 74
     0
 42
0.00000001
 43
0.00000001
 40
0.0
 40
0.0
 40
0.0
 40
0.0
 40
0.1231816483428002
 40
0.1830343363247268
 40
0.2428661924761439
 40
0.3025168847059427
 40
0.3633154622039138
 40
0.4250692989986412
 40
0.4890423674851742
 40
0.553087142275227
 40
0.6154454653923731
 40
0.6772864118409536
 40
0.739174987439565
 40
0.8016758129328341
 40
0.8653648077757379
 40
1.0
 40
1.0
 40
1.0
 40
1.0
 10
-566.6953666450673
 20
25.269097186989
 30
0.0
 10
-566.6948597376818
 20
25.18352976986193
 30
0.0
 10
-566.7065690847037
 20
25.05640887692906
 30
0.0
 10
-566.7452006824027
 20
24.89202008678271
 30
0.0
 10
-566.7859833119742
 20
24.77416126458465
 30
0.0
 10
-566.838354705035
 20
24.66027860474229
 30
0.0
 10
-566.9022414245181
 20
24.55086850118027
 30
0.0
 10
-566.9781154270644
 20
24.44571847803323
 30
0.0
 10
-567.0641137573416
 20
24.34570846879025
 30
0.0
 10
-567.159185808148
 20
24.25357272733841
 30
0.0
 10
-567.2623857348278
 20
24.17301186313647
 30
0.0
 10
-567.3721721239515
 20
24.10440278384607
 30
0.0
 10
-567.489317392194
 20
24.0490984737608
 30
0.0
 10
-567.6125443880433
 20
24.0052680218793
 30
0.0
 10
-567.7890628660489
 20
23.96330864149165
 30
0.0
 10
-567.92708122104
 20
23.95281254881909
 30
0.0
 10
-568.0204868373751
 20
23.95239045621977
 30
0.0
  0
SPLINE
  5
85
330
1F
100
AcDbEntity
  8
0
  6
Continuous
 62
     7
370
    25
100
AcDbSpline
210
0.0
220
0.0
230
1.0
 70
     8
 71
     3
 72
    13
 73
     9
 74
     0
 42
0.00000001
 43
0.00000001
 40
0.0
 40
0.0
 40
0.0
 40
0.0
 40
0.253759205061608
 40
0.3772863205702288
 40
0.4989121128148896
 40
0.6213214040214744
 40
0.7447622750750944
 40
1.0
 40
1.0
 40
1.0
 40
1.0
 10
-567.0459275425033
 20
26.17634878955311
 30
0.0
 10
-566.9895142426178
 20
26.11383789135835
 30
0.0
 10
-566.9118157546767
 20
26.01472255511106
 30
0.0
 10
-566.830660480147
 20
25.86996960816212
 30
0.0
 10
-566.7811121289121
 20
25.75823788300657
 30
0.0
 10
-566.7424214130842
 20
25.64230718674598
 30
0.0
 10
-566.7054085274599
 20
25.47979629818375
 30
0.0
 10
-566.6958609118169
 20
25.3538039843223
 30
0.0
 10
-566.6953666450673
 20
25.269097186989
 30
0.0
  0
SPLINE
  5
86
330
1F
100
AcDbEntity
  8
0
  6
Continuous
 62
     7
370
    25
100
AcDbSpline
210
0.0
220
0.0
230
1.0
 70
     8
 71
     3
 72
    13
 73
     9
 74
     0
 42
0.00000001
 43
0.00000001
 40
0.0
 40
0.0
 40
0.0
 40
0.0
 40
0.2587123826906848
 40
0.3820894432542115
 40
0.5035635736272535
 40
0.6251808674329538
 40
0.7472870144846054
 40
1.0
 40
1.0
 40
1.0
 40
1.0
 10
-568.0204868373751
 20
26.59982635365565
 30
0.0
 10
-567.9259195301514
 20
26.60068970937524
 30
0.0
 10
-567.7862935663884
 20
26.58720428799122
 30
0.0
 10
-567.6074449454771
 20
26.54285815905122
 30
0.0
 10
-567.4817502643932
 20
26.49608650861502
 30
0.0
 10
-567.3620689262601
 20
26.43655513401799
 30
0.0
 10
-567.2100666996221
 20
26.33703472165017
 30
0.0
 10
-567.1075462314315
 20
26.24519360723776
 30
0.0
 10
-567.0459275425033
 20
26.17634878955311
 30
0.0
  0
SPLINE
  5
88
330
1F
100
AcDbEntity
  8
0
  6
Continuous
 62
     7
370
    25
100
AcDbSpline
210
0.0
220
0.0
230
1.0
 70
     8
 71
     3
 72
    13
 73
     9
 74
     0
 42
0.00000001
 43
0.00000001
 40
0.0
 40
0.0
 40
0.0
 40
0.0
 40
0.2615297557643175
 40
0.3853914026565604
 40
0.5066355486143859
 40
0.6264935166891236
 40
0.7474155249378513
 40
1.0
 40
1.0
 40
1.0
 40
1.0
 10
-564.9628946899389
 20
26.28572378955307
 30
0.0
 10
-565.0564833898595
 20
26.28586468715788
 30
0.0
 10
-565.1947779030153
 20
26.27303357804855
 30
0.0
 10
-565.3701917014116
 20
26.22541767347874
 30
0.0
 10
-565.4915890736139
 20
26.17625489373276
 30
0.0
 10
-565.6048195622604
 20
26.11250219177097
 30
0.0
 10
-565.7469915571354
 20
26.00704623659766
 30
0.0
 10
-565.8396969902603
 20
25.90937834999874
 30
0.0
 10
-565.8939844335289
 20
25.83700584083515
 30
0.0
  0
SPLINE
  5
89
330
1F
100
AcDbEntity
  8
0
  6
Continuous
 62
     7
370
    25
100
AcDbSpline
210
0.0
220
0.0
230
1.0
 70
     8
 71
     3
 72
    21
 73
    17
 74
     0
 42
0.00000001
 43
0.00000001
 40
0.0
 40
0.0
 40
0.0
 40
0.0
 40
0.1222819204638085
 40
0.1812434869852987
 40
0.2396871197545077
 40
0.2984032755910574
 40
0.3580784908258444
 40
0.419261628082501
 40
0.4824580183676552
 40
0.5464498243205897
 40
0.6091832833298887
 40
0.6717521154871762
 40
0.7345384496150802
 40
0.7980307571346639
 40
0.8630790177387537
 40
1.0
 40
1.0
 40
1.0
 40
1.0
 10
-563.8684435681442
 20
25.28311962288643
 30
0.0
 10
-563.8681049945236
 20
25.35068411986152
 30
0.0
 10
-563.8783128312555
 20
25.45059217164303
 30
0.0
 10
-563.9098128035454
 20
25.57936066819522
 30
0.0
 10
-563.9450464310758
 20
25.67013763124437
 30
0.0
 10
-563.988163571509
 20
25.75788912812704
 30
0.0
 10
-564.0430974408634
 20
25.84060908810115
 30
0.0
 10
-564.1061972053602
 20
25.92036275833309
 30
0.0
 10
-564.1790259778303
 20
25.99476145641355
 30
0.0
 10
-564.258642771549
 20
26.06317190513408
 30
0.0
 10
-564.3450282905234
 20
26.12222229507488
 30
0.0
 10
-564.4356790424325
 20
26.1730307550837
 30
0.0
 10
-564.5314001025607
 20
26.2147859144568
 30
0.0
 10
-564.6324383648939
 20
26.24591833575906
 30
0.0
 10
-564.775576639291
 20
26.27804612160611
 30
0.0
 10
-564.8874775728283
 20
26.28462564977241
 30
0.0
 10
-564.9628946899392
 20
26.28572378955307
 30
0.0
  0
SPLINE
  5
8A
330
1F
100
AcDbEntity
  8
0
  6
Continuous
 62
     7
370
    25
100
AcDbSpline
210
0.0
220
0.0
230
1.0
 70
     8
 71
     3
 72
    17
 73
    13
 74
     0
 42
0.00000001
 43
0.00000001
 40
0.0
 40
0.0
 40
0.0
 40
0.0
 40
0.17847093099052
 40
0.263762432705972
 40
0.3486672266155145
 40
0.4321345263706822
 40
0.5134033636004061
 40
0.5949764167925377
 40
0.677471472370611
 40
0.75967863870542
 40
0.8400345230550291
 40
1.0
 40
1.0
 40
1.0
 40
1.0
 10
-564.9649980553237
 20
24.26649302032235
 30
0.0
 10
-564.8659219630833
 20
24.26687087299207
 30
0.0
 10
-564.7188393635456
 20
24.28141838344278
 30
0.0
 10
-564.5329179377417
 20
24.33786045620945
 30
0.0
 10
-564.4041626257716
 20
24.39606791123061
 30
0.0
 10
-564.285430010193
 20
24.46855453761177
 30
0.0
 10
-564.1795097248752
 20
24.55596693138962
 30
0.0
 10
-564.0873422547395
 20
24.65695124961809
 30
0.0
 10
-564.0088457458381
 20
24.76954557473199
 30
0.0
 10
-563.9468596267343
 20
24.89121217205359
 30
0.0
 10
-563.8860796842848
 20
25.06037678809303
 30
0.0
 10
-563.8686872666092
 20
25.19425831466338
 30
0.0
 10
-563.8684435681442
 20
25.28311962288643
 30
0.0
  0
SPLINE
  5
8B
330
1F
100
AcDbEntity
  8
0
  6
Continuous
 62
     7
370
    25
100
AcDbSpline
210
0.0
220
0.0
230
1.0
 70
     8
 71
     3
 72
    13
 73
     9
 74
     0
 42
0.00000001
 43
0.00000001
 40
0.0
 40
0.0
 40
0.0
 40
0.0
 40
0.2581434980421686
 40
0.3806278746633617
 40
0.501558221458012
 40
0.6227016552819187
 40
0.7445526879731841
 40
1.0
 40
1.0
 40
1.0
 40
1.0
 10
-565.8939844335289
 20
24.71521096904028
 30
0.0
 10
-565.8367500338537
 20
24.64308690870121
 30
0.0
 10
-565.7409782670269
 20
24.54582656748239
 30
0.0
 10
-565.5965308793609
 20
24.43982412190404
 30
0.0
 10
-565.4827974286599
 20
24.37624914952985
 30
0.0
 10
-565.36239963551
 20
24.32715920946993
 30
0.0
 10
-565.1908908948467
 20
24.27923063819859
 30
0.0
 10
-565.0560057909427
 20
24.26654658972249
 30
0.0
 10
-564.9649980553237
 20
24.26649302032235
 30
0.0
  0
SPLINE
  5
8D
330
1F
100
AcDbEntity
  8
0
  6
Continuous
 62
     7
370
    25
100
AcDbSpline
210
0.0
220
0.0
230
1.0
 70
     8
 71
     3
 72
    21
 73
    17
 74
     0
 42
0.00000001
 43
0.00000001
 40
0.0
 40
0.0
 40
0.0
 40
0.0
 40
0.138173460029835
 40
0.2051712291583753
 40
0.2702347439553352
 40
0.334577614923188
 40
0.3974624848755721
 40
0.4600970095463408
 40
0.522258400268212
 40
0.5835266948828642
 40
0.6441442312570528
 40
0.7040680119241989
 40
0.7630433524477821
 40
0.8218034537843255
 40
0.8809311384949984
 40
1.0
 40
1.0
 40
1.0
 40
1.0
 10
-564.9600902027596
 20
23.95239045621977
 30
0.0
 10
-565.0242993708474
 20
23.95140393888007
 30
0.0
 10
-565.1194540600877
 20
23.95753160167891
 30
0.0
 10
-565.2440101522744
 20
23.9730044310571
 30
0.0
 10
-565.3336347669272
 20
23.99008639448286
 30
0.0
 10
-565.4203509555138
 20
24.01153128486888
 30
0.0
 10
-565.5043308188183
 20
24.03849942175373
 30
0.0
 10
-565.585672788949
 20
24.06989111706981
 30
0.0
 10
-565.6640235146056
 20
24.1063972855996
 30
0.0
 10
-565.7392725827303
 20
24.14701024954924
 30
0.0
 10
-565.8106425198455
 20
24.19214485913967
 30
0.0
 10
-565.8789692371864
 20
24.23999718199688
 30
0.0
 10
-565.9420566128566
 20
24.29325246929959
 30
0.0
 10
-566.0020334928108
 20
24.34938100487805
 30
0.0
 10
-566.077107750288
 20
24.42993776884672
 30
0.0
 10
-566.1265628224272
 20
24.4965406995975
 30
0.0
 10
-566.1569051066058
 20
24.54273500750181
 30
0.0
  0
SPLINE
  5
8E
330
1F
100
AcDbEntity
  8
0
  6
Continuous
 62
     7
370
    25
100
AcDbSpline
210
0.0
220
0.0
230
1.0
 70
     8
 71
     3
 72
    21
 73
    17
 74
     0
 42
0.00000001
 43
0.00000001
 40
0.0
 40
0.0
 40
0.0
 40
0.0
 40
0.1230160125186728
 40
0.1821795987088894
 40
0.2413150145739386
 40
0.3002601565752412
 40
0.3598329711995818
 40
0.4210267535367634
 40
0.484330017115196
 40
0.548023509696945
 40
0.610608612559629
 40
0.6729950088427237
 40
0.7355500452204884
 40
0.7989042338824472
 40
0.8636647494423918
 40
1.0
 40
1.0
 40
1.0
 40
1.0
 10
-563.5543410040418
 20
25.25507475109157
 30
0.0
 10
-563.5540538190296
 20
25.16732814214018
 30
0.0
 10
-563.5666622301907
 20
25.03745009044034
 30
0.0
 10
-563.6080567051375
 20
24.87014144537192
 30
0.0
 10
-563.6526527800063
 20
24.75167580094173
 30
0.0
 10
-563.7087539307774
 20
24.63786634879106
 30
0.0
 10
-563.7785955017047
 20
24.53022527652959
 30
0.0
 10
-563.8591227204425
 20
24.42637538219772
 30
0.0
 10
-563.9529038786211
 20
24.33013466932344
 30
0.0
 10
-564.0550147408832
 20
24.24137216478406
 30
0.0
 10
-564.1650507333947
 20
24.16361940462519
 30
0.0
 10
-564.2819238759627
 20
24.09826608919008
 30
0.0
 10
-564.4052470379421
 20
24.04474779622367
 30
0.0
 10
-564.5349056659439
 20
24.00323554564776
 30
0.0
 10
-564.7194624533664
 20
23.96367288194801
 30
0.0
 10
-564.8628382067293
 20
23.9514062131847
 30
0.0
 10
-564.9600902027596
 20
23.95239045621977
 30
0.0
  0
SPLINE
  5
8F
330
1F
100
AcDbEntity
  8
0
  6
Continuous
 62
     7
370
    25
100
AcDbSpline
210
0.0
220
0.0
230
1.0
 70
     8
 71
     3
 72
    29
 73
    25
 74
     0
 42
0.00000001
 43
0.00000001
 40
0.0
 40
0.0
 40
0.0
 40
0.0
 40
0.090404969833753
 40
0.1340218577669683
 40
0.1771929296099348
 40
0.2199566394228992
 40
0.2622486054529787
 40
0.3045538809267219
 40
0.3467622647176367
 40
0.3886297618353274
 40
0.4301572713045012
 40
0.4709850348103288
 40
0.5113171489159216
 40
0.5518126259433965
 40
0.5924494048341331
 40
0.6331453339012545
 40
0.6745901892035351
 40
0.7158270637532164
 40
0.7564739168378305
 40
0.796993399422944
 40
0.8371691302448709
 40
0.8773639647740381
 40
0.9178644967855372
 40
1.0
 40
1.0
 40
1.0
 40
1.0
 10
-564.98603170917
 20
26.59982635365565
 30
0.0
 10
-564.9199412288186
 20
26.60017293021821
 30
0.0
 10
-564.8221397587067
 20
26.59389070136475
 30
0.0
 10
-564.6937610115639
 20
26.57660906037718
 30
0.0
 10
-564.6012341615879
 20
26.55641790653607
 30
0.0
 10
-564.5106741960682
 20
26.53230205267798
 30
0.0
 10
-564.4226811196073
 20
26.50185130938887
 30
0.0
 10
-564.3371144618663
 20
26.4662175823539
 30
0.0
 10
-564.2544897471693
 20
26.42485827785712
 30
0.0
 10
-564.175306425488
 20
26.37840722777862
 30
0.0
 10
-564.0996105735727
 20
26.32826624596085
 30
0.0
 10
-564.0285389980118
 20
26.2735081192278
 30
0.0
 10
-563.9624993438943
 20
26.21397192859276
 30
0.0
 10
-563.899623232817
 20
26.15124816770354
 30
0.0
 10
-563.8425788930145
 20
26.08282840243825
 30
0.0
 10
-563.7886976732442
 20
26.01107473712771
 30
0.0
 10
-563.7400088770034
 20
25.9351252000285
 30
0.0
 10
-563.6967571194127
 20
25.85602746158633
 30
0.0
 10
-563.6586610278538
 20
25.77508282121332
 30
0.0
 10
-563.6261880730158
 20
25.69249959985087
 30
0.0
 10
-563.6007379064281
 20
25.60789475400838
 30
0.0
 10
-563.5787477983813
 20
25.52228537472201
 30
0.0
 10
-563.561153266215
 20
25.40451942402078
 30
0.0
 10
-563.5534764402972
 20
25.31518578879643
 30
0.0
 10
-563.5543410040418
 20
25.25507475109157
 30
0.0
  0
SPLINE
  5
90
330
1F
100
AcDbEntity
  8
0
  6
Continuous
 62
     7
370
    25
100
AcDbSpline
210
0.0
220
0.0
230
1.0
 70
     8
 71
     3
 72
    17
 73
    13
 74
     0
 42
0.00000001
 43
0.00000001
 40
0.0
 40
0.0
 40
0.0
 40
0.0
 40
0.1585634493071236
 40
0.2345871230995769
 40
0.3098023857351391
 40
0.3863975462586797
 40
0.4660235260292677
 40
0.5499336515748812
 40
0.6379505414946577
 40
0.7280903454728209
 40
0.8179185954471937
 40
1.0
 40
1.0
 40
1.0
 40
1.0
 10
-566.1569051066058
 20
26.00036721904031
 30
0.0
 10
-566.1202366180729
 20
26.06321973935999
 30
0.0
 10
-566.0569176709876
 20
26.15089787906633
 30
0.0
 10
-565.957867391208
 20
26.25310929780633
 30
0.0
 10
-565.8777228297666
 20
26.32049071177867
 30
0.0
 10
-565.7897856644827
 20
26.38020504467231
 30
0.0
 10
-565.6939482819971
 20
26.43480193755998
 30
0.0
 10
-565.5884119977181
 20
26.48181136192662
 30
0.0
 10
-565.4756659197022
 20
26.5236864283076
 30
0.0
 10
-565.3575179357457
 20
26.55821579513251
 30
0.0
 10
-565.1942469549859
 20
26.58963568378347
 30
0.0
 10
-565.069622153934
 20
26.60008724121454
 30
0.0
 10
-564.98603170917
 20
26.59982635365565
 30
0.0
  0
SPLINE
  5
9F
330
1F
100
AcDbEntity
  8
0
  6
Continuous
 62
     7
370
    25
100
AcDbSpline
210
0.0
220
0.0
230
1.0
 70
     8
 71
     3
 72
    13
 73
     9
 74
     0
 42
0.00000001
 43
0.00000001
 40
0.0
 40
0.0
 40
0.0
 40
0.0
 40
0.2400308571377218
 40
0.358466229448932
 40
0.4774453209952157
 40
0.5993158399412291
 40
0.7260041087814084
 40
1.0
 40
1.0
 40
1.0
 40
1.0
 10
-559.0082672860926
 20
26.59982635365565
 30
0.0
 10
-558.9163078048537
 20
26.59963643707574
 30
0.0
 10
-558.7786385299756
 20
26.58396156845899
 30
0.0
 10
-558.6038604636994
 20
26.52811803063537
 30
0.0
 10
-558.4787999837912
 20
26.46983288866367
 30
0.0
 10
-558.3584786705809
 20
26.39591085866466
 30
0.0
 10
-558.2029504419017
 20
26.26910386935122
 30
0.0
 10
-558.0982747374534
 20
26.15587810179487
 30
0.0
 10
-558.0351102348106
 20
26.07188164211716
 30
0.0
  0
SPLINE
  5
A0
330
1F
100
AcDbEntity
  8
0
  6
Continuous
 62
     7
370
    25
100
AcDbSpline
210
0.0
220
0.0
230
1.0
 70
     8
 71
     3
 72
    21
 73
    17
 74
     0
 42
0.00000001
 43
0.00000001
 40
0.0
 40
0.0
 40
0.0
 40
0.0
 40
0.1320868071566502
 40
0.1910205789197735
 40
0.2459198571309305
 40
0.2962240139419539
 40
0.3419519744814824
 40
0.3840881902327469
 40
0.4221361532591236
 40
0.4933035691477091
 40
0.5632059149933246
 40
0.6330801426458124
 40
0.7045027750804227
 40
0.7765463620490213
 40
0.8488450927364056
 40
1.0
 40
1.0
 40
1.0
 40
1.0
 10
-559.9645974142978
 20
25.30345215493768
 30
0.0
 10
-559.9653763625741
 20
25.38437088119605
 30
0.0
 10
-559.9615812266441
 20
25.5014009017116
 30
0.0
 10
-559.9498519923727
 20
25.65158526557298
 30
0.0
 10
-559.9394044729312
 20
25.75163041291994
 30
0.0
 10
-559.9237009496887
 20
25.84279515018806
 30
0.0
 10
-559.9056826339573
 20
25.92551706469037
 30
0.0
 10
-559.8844306024025
 20
25.99975356878748
 30
0.0
 10
-559.8508572486169
 20
26.08629235870874
 30
0.0
 10
-559.7992581294188
 20
26.1835483624937
 30
0.0
 10
-559.7234172429593
 20
26.28882329279436
 30
0.0
 10
-559.6305678331494
 20
26.37965104612516
 30
0.0
 10
-559.5257417737201
 20
26.45833828038668
 30
0.0
 10
-559.4090810892706
 20
26.52145077605128
 30
0.0
 10
-559.2385259237645
 20
26.58421877324357
 30
0.0
 10
-559.1006393126469
 20
26.59921105645235
 30
0.0
 10
-559.0082672860926
 20
26.59982635365565
 30
0.0
  0
SPLINE
  5
A4
330
1F
100
AcDbEntity
  8
0
  6
Continuous
 62
     7
370
    25
100
AcDbSpline
210
0.0
220
0.0
230
1.0
 70
     8
 71
     3
 72
    13
 73
     9
 74
     0
 42
0.00000001
 43
0.00000001
 40
0.0
 40
0.0
 40
0.0
 40
0.0
 40
0.1585319958921504
 40
0.2599443765617137
 40
0.3766878967200872
 40
0.5101290088794592
 40
0.6578586927299863
 40
1.0
 40
1.0
 40
1.0
 40
1.0
 10
-559.6140365168618
 20
25.78231834083511
 30
0.0
 10
-559.621138121845
 20
25.75226542869824
 30
0.0
 10
-559.629460723541
 20
25.70229127522372
 30
0.0
 10
-559.6371294365642
 20
25.62933732177331
 30
0.0
 10
-559.6417149813199
 20
25.56103200876592
 30
0.0
 10
-559.6460503949588
 20
25.48368170896986
 30
0.0
 10
-559.6498129391754
 20
25.36237562454968
 30
0.0
 10
-559.6500439709217
 20
25.26699367776619
 30
0.0
 10
-559.6504948501953
 20
25.20038725109153
 30
0.0
  0
SPLINE
  5
A5
330
1F
100
AcDbEntity
  8
0
  6
Continuous
 62
     7
370
    25
100
AcDbSpline
210
0.0
220
0.0
230
1.0
 70
     8
 71
     3
 72
    13
 73
     9
 74
     0
 42
0.00000001
 43
0.00000001
 40
0.0
 40
0.0
 40
0.0
 40
0.0
 40
0.270112514225164
 40
0.3901337884828764
 40
0.505620967409038
 40
0.6203623248390202
 40
0.738045949888832
 40
1.0
 40
1.0
 40
1.0
 40
1.0
 10
-558.9528786642978
 20
26.28572378955307
 30
0.0
 10
-559.0345073974078
 20
26.28609171644802
 30
0.0
 10
-559.1534822279625
 20
26.27306153696873
 30
0.0
 10
-559.2974369420116
 20
26.21866034523446
 30
0.0
 10
-559.3880034941945
 20
26.16229693120808
 30
0.0
 10
-559.4658076347334
 20
26.09036438749013
 30
0.0
 10
-559.554063104651
 20
25.96838813412106
 30
0.0
 10
-559.5946419460422
 20
25.85897812641391
 30
0.0
 10
-559.6140365168619
 20
25.78231834083511
 30
0.0
  0
SPLINE
  5
A6
330
1F
100
AcDbEntity
  8
0
  6
Continuous
 62
     7
370
    25
100
AcDbSpline
210
0.0
220
0.0
230
1.0
 70
     8
 71
     3
 72
    21
 73
    17
 74
     0
 42
0.00000001
 43
0.00000001
 40
0.0
 40
0.0
 40
0.0
 40
0.0
 40
0.123948641444604
 40
0.1848794463674045
 40
0.2457324543780592
 40
0.3072279099154341
 40
0.3694240859125656
 40
0.4322545608767663
 40
0.4973426740208349
 40
0.5621498377432252
 40
0.6257573975847244
 40
0.6874835206248429
 40
0.7496373680564405
 40
0.8109156052807317
 40
0.8733061227972947
 40
1.0
 40
1.0
 40
1.0
 40
1.0
 10
-558.0834876386568
 20
25.60844013570696
 30
0.0
 10
-558.0960769389792
 20
25.65569698706815
 30
0.0
 10
-558.120501495598
 20
25.72472916748691
 30
0.0
 10
-558.1640230209654
 20
25.81146125546907
 30
0.0
 10
-558.2011787854822
 20
25.87359885326068
 30
0.0
 10
-558.2442534838153
 20
25.93239739470798
 30
0.0
 10
-558.2917901607537
 20
25.98867279002093
 30
0.0
 10
-558.3451177312106
 20
26.04151961853252
 30
0.0
 10
-558.4024351388741
 20
26.09158944635393
 30
0.0
 10
-558.4640209866657
 20
26.13681507296639
 30
0.0
 10
-558.5274151979645
 20
26.17712380891968
 30
0.0
 10
-558.5937434845569
 20
26.21005226501827
 30
0.0
 10
-558.6611268328554
 20
26.23850424076357
 30
0.0
 10
-558.7315284499473
 20
26.25938489135737
 30
0.0
 10
-558.8281723559567
 20
26.28026288647578
 30
0.0
 10
-558.902902183465
 20
26.2859656081974
 30
0.0
 10
-558.9528786642978
 20
26.28572378955307
 30
0.0
  0
SPLINE
  5
A7
330
1F
100
AcDbEntity
  8
0
  6
Continuous
 62
     7
370
    25
100
AcDbSpline
210
0.0
220
0.0
230
1.0
 70
     8
 71
     3
 72
    13
 73
     9
 74
     0
 42
0.00000001
 43
0.00000001
 40
0.0
 40
0.0
 40
0.0
 40
0.0
 40
0.3346064446861071
 40
0.4811733415280316
 40
0.6125520246270326
 40
0.7309549727522777
 40
0.8343886544275745
 40
1.0
 40
1.0
 40
1.0
 40
1.0
 10
-558.0351102348106
 20
24.92204189852743
 30
0.0
 10
-558.0355583233896
 20
24.99891969336543
 30
0.0
 10
-558.035430113774
 20
25.109556953957
 30
0.0
 10
-558.0419396427646
 20
25.25018565006454
 30
0.0
 10
-558.0462562468696
 20
25.34117855631724
 30
0.0
 10
-558.0533322461155
 20
25.42206312926587
 30
0.0
 10
-558.063597853562
 20
25.51051907564894
 30
0.0
 10
-558.0741333364169
 20
25.57151680180436
 30
0.0
 10
-558.0834876386568
 20
25.60844013570696
 30
0.0
  0
SPLINE
  5
AD
330
1F
100
AcDbEntity
  8
0
  6
Continuous
 62
     7
370
    25
100
AcDbSpline
210
0.0
220
0.0
230
1.0
 70
     8
 71
     3
 72
    13
 73
     9
 74
     0
 42
0.00000001
 43
0.00000001
 40
0.0
 40
0.0
 40
0.0
 40
0.0
 40
0.2138863655718647
 40
0.3246827750473095
 40
0.439458544744861
 40
0.561633485869794
 40
0.6938876172598769
 40
1.0
 40
1.0
 40
1.0
 40
1.0
 10
-552.8257752989132
 20
26.59982635365565
 30
0.0
 10
-552.7696949061434
 20
26.59943733708325
 30
0.0
 10
-552.6841363112494
 20
26.58759068659189
 30
0.0
 10
-552.5765630188951
 20
26.54491347785493
 30
0.0
 10
-552.4961819882878
 20
26.5011531385555
 30
0.0
 10
-552.4185461253384
 20
26.44262485919013
 30
0.0
 10
-552.3127492319169
 20
26.33993379819955
 30
0.0
 10
-552.2447970295839
 20
26.24616611365072
 30
0.0
 10
-552.2017769014773
 20
26.17845215493775
 30
0.0
  0
SPLINE
  5
AE
330
1F
100
AcDbEntity
  8
0
  6
Continuous
 62
     7
370
    25
100
AcDbSpline
210
0.0
220
0.0
230
1.0
 70
     8
 71
     3
 72
     9
 73
     5
 74
     0
 42
0.00000001
 43
0.00000001
 40
0.0
 40
0.0
 40
0.0
 40
0.0
 40
0.5364768048236987
 40
1.0
 40
1.0
 40
1.0
 40
1.0
 10
-553.0992127989132
 20
26.51218612929673
 30
0.0
 10
-553.0548716938538
 20
26.53904602007295
 30
0.0
 10
-552.9672185821379
 20
26.58258393155233
 30
0.0
 10
-552.8707517518332
 20
26.59947693276843
 30
0.0
 10
-552.8257752989132
 20
26.59982635365565
 30
0.0
  0
SPLINE
  5
B0
330
1F
100
AcDbEntity
  8
0
  6
Continuous
 62
     7
370
    25
100
AcDbSpline
210
0.0
220
0.0
230
1.0
 70
     8
 71
     3
 72
     9
 73
     5
 74
     0
 42
0.00000001
 43
0.00000001
 40
0.0
 40
0.0
 40
0.0
 40
0.0
 40
0.4397700551121884
 40
1.0
 40
1.0
 40
1.0
 40
1.0
 10
-552.766179946349
 20
26.28572378955307
 30
0.0
 10
-552.7908639861739
 20
26.28540140084901
 30
0.0
 10
-552.846651141384
 20
26.27607684536526
 30
0.0
 10
-552.8981237996026
 20
26.25282120674677
 30
0.0
 10
-552.9267368373747
 20
26.24015087288645
 30
0.0
  0
SPLINE
  5
B1
330
1F
100
AcDbEntity
  8
0
  6
Continuous
 62
     7
370
    25
100
AcDbSpline
210
0.0
220
0.0
230
1.0
 70
     8
 71
     3
 72
    17
 73
    13
 74
     0
 42
0.00000001
 43
0.00000001
 40
0.0
 40
0.0
 40
0.0
 40
0.0
 40
0.1717166158284539
 40
0.2506679767741051
 40
0.3258823275093822
 40
0.396881271696415
 40
0.4635748406535746
 40
0.5280697489487671
 40
0.5896876632767214
 40
0.7048093833748892
 40
0.8086618718637332
 40
1.0
 40
1.0
 40
1.0
 40
1.0
 10
-552.257866645067
 20
25.73464205878384
 30
0.0
 10
-552.2697897924261
 20
25.77911347298922
 30
0.0
 10
-552.2893111797687
 20
25.8435913527898
 30
0.0
 10
-552.3221626195931
 20
25.92464619795742
 30
0.0
 10
-552.3478215521573
 20
25.97937764328096
 30
0.0
 10
-552.3759935913821
 20
26.02910671873804
 30
0.0
 10
-552.4054758680832
 20
26.07468623730469
 30
0.0
 10
-552.4376162948748
 20
26.1153318249362
 30
0.0
 10
-552.482658103818
 20
26.16189235784849
 30
0.0
 10
-552.5408325589157
 20
26.21007731676428
 30
0.0
 10
-552.6357756709365
 20
26.26691263004199
 30
0.0
 10
-552.7146549214598
 20
26.28579031242639
 30
0.0
 10
-552.766179946349
 20
26.28572378955307
 30
0.0
  0
SPLINE
  5
B2
330
1F
100
AcDbEntity
  8
0
  6
Continuous
 62
     7
370
    25
100
AcDbSpline
210
0.0
220
0.0
230
1.0
 70
     8
 71
     3
 72
    13
 73
     9
 74
     0
 42
0.00000001
 43
0.00000001
 40
0.0
 40
0.0
 40
0.0
 40
0.0
 40
0.343762191421775
 40
0.4918338323010911
 40
0.6241090704107948
 40
0.7413996050399048
 40
0.8430618504426423
 40
1.0
 40
1.0
 40
1.0
 40
1.0
 10
-552.2017769014773
 20
24.85683757160439
 30
0.0
 10
-552.2012304442992
 20
24.95781823306364
 30
0.0
 10
-552.203453515709
 20
25.10226484317368
 30
0.0
 10
-552.2087277945982
 20
25.2855204205944
 30
0.0
 10
-552.2152809457409
 20
25.40213615643727
 30
0.0
 10
-552.2224291119662
 20
25.5050727804611
 30
0.0
 10
-552.2346528721376
 20
25.61481216274164
 30
0.0
 10
-552.246116825852
 20
25.68998422522895
 30
0.0
 10
-552.257866645067
 20
25.73464205878384
 30
0.0
  0
SPLINE
  5
B6
330
1F
100
AcDbEntity
  8
0
  6
Continuous
 62
     7
370
    25
100
AcDbSpline
210
0.0
220
0.0
230
1.0
 70
     8
 71
     3
 72
    13
 73
     9
 74
     0
 42
0.00000001
 43
0.00000001
 40
0.0
 40
0.0
 40
0.0
 40
0.0
 40
0.2407702368354425
 40
0.3613679915788172
 40
0.4880203848743234
 40
0.6156588752209213
 40
0.7417159076830835
 40
1.0
 40
1.0
 40
1.0
 40
1.0
 10
-553.817161516862
 20
27.36124462288647
 30
0.0
 10
-553.8173626716771
 20
27.39690205219258
 30
0.0
 10
-553.8059957101881
 20
27.45020255060404
 30
0.0
 10
-553.7699919323123
 20
27.51331009896307
 30
0.0
 10
-553.7317899301848
 20
27.55386966393214
 30
0.0
 10
-553.6872017645492
 20
27.58831438326481
 30
0.0
 10
-553.6194917813536
 20
27.62310544428126
 30
0.0
 10
-553.5620908412367
 20
27.63180340380356
 30
0.0
 10
-553.5240926066057
 20
27.63187763570696
 30
0.0
  0
SPLINE
  5
B7
330
1F
100
AcDbEntity
  8
0
  6
Continuous
 62
     7
370
    25
100
AcDbSpline
210
0.0
220
0.0
230
1.0
 70
     8
 71
     3
 72
    13
 73
     9
 74
     0
 42
0.00000001
 43
0.00000001
 40
0.0
 40
0.0
 40
0.0
 40
0.0
 40
0.2598496298712539
 40
0.3866707319148509
 40
0.5150828775346947
 40
0.6425029490726826
 40
0.7624536797230972
 40
1.0
 40
1.0
 40
1.0
 40
1.0
 10
-553.5240926066057
 20
27.09341609724536
 30
0.0
 10
-553.5620885345708
 20
27.09349173653586
 30
0.0
 10
-553.619496196079
 20
27.1021855950746
 30
0.0
 10
-553.6871952899882
 20
27.13698330007031
 30
0.0
 10
-553.7318144778212
 20
27.17140909154747
 30
0.0
 10
-553.7697637840653
 20
27.21188948629338
 30
0.0
 10
-553.805923219953
 20
27.27384120645637
 30
0.0
 10
-553.8172358116486
 20
27.32630441508843
 30
0.0
 10
-553.817161516862
 20
27.36124462288647
 30
0.0
  0
SPLINE
  5
B8
330
1F
100
AcDbEntity
  8
0
  6
Continuous
 62
     7
370
    25
100
AcDbSpline
210
0.0
220
0.0
230
1.0
 70
     8
 71
     3
 72
    13
 73
     9
 74
     0
 42
0.00000001
 43
0.00000001
 40
0.0
 40
0.0
 40
0.0
 40
0.0
 40
0.2389149952220574
 40
0.3595568481745961
 40
0.486634766847336
 40
0.6157867870573872
 40
0.7433385965465394
 40
1.0
 40
1.0
 40
1.0
 40
1.0
 10
-553.2338281835287
 20
27.36124462288647
 30
0.0
 10
-553.2337943315856
 20
27.32634095903419
 30
0.0
 10
-553.2449866008749
 20
27.27376902769329
 30
0.0
 10
-553.2812695755754
 20
27.21213776139741
 30
0.0
 10
-553.3184507943649
 20
27.17118247918637
 30
0.0
 10
-553.3631269940216
 20
27.13699658851343
 30
0.0
 10
-553.4301846964211
 20
27.10259600604781
 30
0.0
 10
-553.4866923552163
 20
27.09318091146473
 30
0.0
 10
-553.5240926066057
 20
27.09341609724536
 30
0.0
  0
SPLINE
  5
B9
330
1F
100
AcDbEntity
  8
0
  6
Continuous
 62
     7
370
    25
100
AcDbSpline
210
0.0
220
0.0
230
1.0
 70
     8
 71
     3
 72
    13
 73
     9
 74
     0
 42
0.00000001
 43
0.00000001
 40
0.0
 40
0.0
 40
0.0
 40
0.0
 40
0.2551062187428466
 40
0.3818851554071034
 40
0.5102546066587019
 40
0.6365625239462811
 40
0.757850918666084
 40
1.0
 40
1.0
 40
1.0
 40
1.0
 10
-553.5240926066057
 20
27.63187763570696
 30
0.0
 10
-553.4866900658322
 20
27.63211422401768
 30
0.0
 10
-553.4301890774951
 20
27.62269504295689
 30
0.0
 10
-553.3631204585921
 20
27.58830114819477
 30
0.0
 10
-553.3184754666128
 20
27.55409613897453
 30
0.0
 10
-553.2810439339981
 20
27.51305982589769
 30
0.0
 10
-553.2449121991814
 20
27.45027652103471
 30
0.0
 10
-553.2336690195726
 20
27.39686407636266
 30
0.0
 10
-553.2338281835287
 20
27.36124462288647
 30
0.0
  0
SPLINE
  5
C0
330
1F
100
AcDbEntity
  8
0
  6
Continuous
 62
     7
370
    25
100
AcDbSpline
210
0.0
220
0.0
230
1.0
 70
     8
 71
     3
 72
    13
 73
     9
 74
     0
 42
0.00000001
 43
0.00000001
 40
0.0
 40
0.0
 40
0.0
 40
0.0
 40
0.1866292870175729
 40
0.2945713141932591
 40
0.4141358504252437
 40
0.5437091760633385
 40
0.6845112872870858
 40
1.0
 40
1.0
 40
1.0
 40
1.0
 10
-556.9098097540415
 20
23.7406516741685
 30
0.0
 10
-556.927013818533
 20
23.78698574708748
 30
0.0
 10
-556.9473827168372
 20
23.86235817096327
 30
0.0
 10
-556.9677921600472
 20
23.97003084378313
 30
0.0
 10
-556.9810755691077
 20
24.06360106512806
 30
0.0
 10
-556.990271862896
 20
24.16636646858916
 30
0.0
 10
-557.0015470137461
 20
24.32096322975397
 30
0.0
 10
-557.0026082333042
 20
24.44178043992262
 30
0.0
 10
-557.0030589527594
 20
24.52520696263005
 30
0.0
  0
SPLINE
  5
C1
330
1F
100
AcDbEntity
  8
0
  6
Continuous
 62
     7
370
    25
100
AcDbSpline
210
0.0
220
0.0
230
1.0
 70
     8
 71
     3
 72
    21
 73
    17
 74
     0
 42
0.00000001
 43
0.00000001
 40
0.0
 40
0.0
 40
0.0
 40
0.0
 40
0.1422523156655646
 40
0.2099881497744529
 40
0.2757225035155134
 40
0.3399801664532361
 40
0.4030123350377491
 40
0.4648788109197396
 40
0.5259132174468232
 40
0.5864629334053052
 40
0.6457817731791722
 40
0.7040615317506596
 40
0.7623933125602418
 40
0.8205763349999998
 40
0.8790935319822246
 40
1.0
 40
1.0
 40
1.0
 40
1.0
 10
-555.7066847540414
 20
23.01008276391203
 30
0.0
 10
-555.778153053596
 20
23.00956303993584
 30
0.0
 10
-555.8835364170385
 20
23.01591774417588
 30
0.0
 10
-556.0207474598958
 20
23.03521741590031
 30
0.0
 10
-556.1176781244784
 20
23.05692569088047
 30
0.0
 10
-556.2113809041274
 20
23.08201532253129
 30
0.0
 10
-556.3003873744059
 20
23.11550038767907
 30
0.0
 10
-556.3855334579506
 20
23.15394742229826
 30
0.0
 10
-556.4663391333485
 20
23.19833434014451
 30
0.0
 10
-556.5427576974846
 20
23.24761972357891
 30
0.0
 10
-556.6130284249318
 20
23.30320368675964
 30
0.0
 10
-556.6771079587438
 20
23.36412840387825
 30
0.0
 10
-556.7362560455949
 20
23.42910065420545
 30
0.0
 10
-556.7890356218511
 20
23.49954803635212
 30
0.0
 10
-556.8515077896161
 20
23.60135145613429
 30
0.0
 10
-556.8891338891991
 20
23.68355088858065
 30
0.0
 10
-556.9098097540414
 20
23.7406516741685
 30
0.0
  0
SPLINE
  5
C2
330
1F
100
AcDbEntity
  8
0
  6
Continuous
 62
     7
370
    25
100
AcDbSpline
210
0.0
220
0.0
230
1.0
 70
     8
 71
     3
 72
    17
 73
    13
 74
     0
 42
0.00000001
 43
0.00000001
 40
0.0
 40
0.0
 40
0.0
 40
0.0
 40
0.1851190300005647
 40
0.2645811997972994
 40
0.3370826656472006
 40
0.4072903364309919
 40
0.4798344790013993
 40
0.5565632454345624
 40
0.6378634378285744
 40
0.7231600850411801
 40
0.8115263250076773
 40
1.0
 40
1.0
 40
1.0
 40
1.0
 10
-554.4004948501953
 20
23.81777507160443
 30
0.0
 10
-554.4421376727356
 20
23.72542908690578
 30
0.0
 10
-554.5089220376266
 20
23.59607852706569
 30
0.0
 10
-554.6164753477099
 20
23.44565496370887
 30
0.0
 10
-554.6977945509525
 20
23.35468310556765
 30
0.0
 10
-554.7879238965354
 20
23.27818477272714
 30
0.0
 10
-554.8878934147698
 20
23.21099406315008
 30
0.0
 10
-555.0000178275036
 20
23.15240264343266
 30
0.0
 10
-555.1232874539382
 20
23.10135193541085
 30
0.0
 10
-555.256863302112
 20
23.05970122699641
 30
0.0
 10
-555.451845832037
 20
23.02184346738845
 30
0.0
 10
-555.603311710152
 20
23.008726210064
 30
0.0
 10
-555.7066847540414
 20
23.01008276391203
 30
0.0
  0
SPLINE
  5
C4
330
1F
100
AcDbEntity
  8
0
  6
Continuous
 62
     7
370
    25
100
AcDbSpline
210
0.0
220
0.0
230
1.0
 70
     8
 71
     3
 72
    13
 73
     9
 74
     0
 42
0.00000001
 43
0.00000001
 40
0.0
 40
0.0
 40
0.0
 40
0.0
 40
0.2806498296156444
 40
0.4064749021880454
 40
0.5248880003415868
 40
0.6399384659355514
 40
0.7561946260844707
 40
1.0
 40
1.0
 40
1.0
 40
1.0
 10
-555.6765365168619
 20
23.32418532801461
 30
0.0
 10
-555.5702378217684
 20
23.3246859103724
 30
0.0
 10
-555.4152185708014
 20
23.33612888831416
 30
0.0
 10
-555.222504962221
 20
23.38841116040802
 30
0.0
 10
-555.0962655931542
 20
23.44107456618449
 30
0.0
 10
-554.9828487732857
 20
23.51103172953461
 30
0.0
 10
-554.8452934754233
 20
23.62846939152685
 30
0.0
 10
-554.760684436236
 20
23.73745119214232
 30
0.0
 10
-554.7145974142978
 20
23.81777507160443
 30
0.0
  0
SPLINE
  5
C5
330
1F
100
AcDbEntity
  8
0
  6
Continuous
 62
     7
370
    25
100
AcDbSpline
210
0.0
220
0.0
230
1.0
 70
     8
 71
     3
 72
    21
 73
    17
 74
     0
 42
0.00000001
 43
0.00000001
 40
0.0
 40
0.0
 40
0.0
 40
0.0
 40
0.1174221339297199
 40
0.169591212750871
 40
0.217418771921551
 40
0.2613894626110322
 40
0.301234438368378
 40
0.3372893048871241
 40
0.3702791365716956
 40
0.4333923729623902
 40
0.4989139546142353
 40
0.5690795379570391
 40
0.6449768287182742
 40
0.7255369439819339
 40
0.8107355643124252
 40
1.0
 40
1.0
 40
1.0
 40
1.0
 10
-556.6889563886568
 20
24.35483436647623
 30
0.0
 10
-556.689456743008
 20
24.28933231039587
 30
0.0
 10
-556.6860952670394
 20
24.19477191205388
 30
0.0
 10
-556.6760212315384
 20
24.07389702328855
 30
0.0
 10
-556.6646633476029
 20
23.99437522783798
 30
0.0
 10
-556.6508804465956
 20
23.92223952448536
 30
0.0
 10
-556.6344071873012
 20
23.85738663812542
 30
0.0
 10
-556.6141347879357
 20
23.80003404764175
 30
0.0
 10
-556.5823002149735
 20
23.73340990118755
 30
0.0
 10
-556.5310872377319
 20
23.65862821386988
 30
0.0
 10
-556.454942520815
 20
23.57744669295525
 30
0.0
 10
-556.3609307245617
 20
23.50544874633487
 30
0.0
 10
-556.251874135268
 20
23.44098947499518
 30
0.0
 10
-556.1273172958668
 20
23.38841736653485
 30
0.0
 10
-555.9357310676826
 20
23.33627848771314
 30
0.0
 10
-555.7819172390552
 20
23.32473696732162
 30
0.0
 10
-555.6765365168619
 20
23.32418532801461
 30
0.0
  0
SPLINE
  5
C7
330
1F
100
AcDbEntity
  8
0
  6
Continuous
 62
     7
370
    25
100
AcDbSpline
210
0.0
220
0.0
230
1.0
 70
     8
 71
     3
 72
    13
 73
     9
 74
     0
 42
0.00000001
 43
0.00000001
 40
0.0
 40
0.0
 40
0.0
 40
0.0
 40
0.250960525261263
 40
0.3750364685671047
 40
0.5001735764065118
 40
0.6252807346849159
 40
0.7491047381120475
 40
1.0
 40
1.0
 40
1.0
 40
1.0
 10
-555.6667208117337
 20
23.99726225109156
 30
0.0
 10
-555.7650043378891
 20
23.99657130141464
 30
0.0
 10
-555.9117180741524
 20
24.01297210828224
 30
0.0
 10
-556.1006345922311
 20
24.06549845321848
 30
0.0
 10
-556.236436261106
 20
24.12109943025131
 30
0.0
 10
-556.3654720572463
 20
24.19077240289713
 30
0.0
 10
-556.5253467863394
 20
24.30425859275731
 30
0.0
 10
-556.6280321753798
 20
24.41043970027568
 30
0.0
 10
-556.6889563886568
 20
24.48734638570693
 30
0.0
  0
SPLINE
  5
C8
330
1F
100
AcDbEntity
  8
0
  6
Continuous
 62
     7
370
    25
100
AcDbSpline
210
0.0
220
0.0
230
1.0
 70
     8
 71
     3
 72
    29
 73
    25
 74
     0
 42
0.00000001
 43
0.00000001
 40
0.0
 40
0.0
 40
0.0
 40
0.0
 40
0.0845064169705322
 40
0.1258093929577505
 40
0.1665539821145551
 40
0.2073273925164838
 40
0.2480041713647784
 40
0.2889644255439112
 40
0.3300535353972229
 40
0.371325213702449
 40
0.4123241671068169
 40
0.4529604945383676
 40
0.4936877811581306
 40
0.5349338346045258
 40
0.5764184378567152
 40
0.6185367522828167
 40
0.6614467063693947
 40
0.7043717148999564
 40
0.7470373222728484
 40
0.7891179669002614
 40
0.830974687391398
 40
0.872797715856262
 40
0.9147777424327409
 40
1.0
 40
1.0
 40
1.0
 40
1.0
 10
-554.3556230553235
 20
25.28452186647623
 30
0.0
 10
-554.3561384125916
 20
25.22693691029898
 30
0.0
 10
-554.360391642261
 20
25.14102030407017
 30
0.0
 10
-554.3786031566925
 20
25.02883302104697
 30
0.0
 10
-554.396740649605
 20
24.94702198159537
 30
0.0
 10
-554.4205096847645
 20
24.86707472435912
 30
0.0
 10
-554.4503181168517
 20
24.78904282197858
 30
0.0
 10
-554.4846027510913
 20
24.71266471249789
 30
0.0
 10
-554.5236602307036
 20
24.63810379247489
 30
0.0
 10
-554.5686936389809
 20
24.56697683392584
 30
0.0
 10
-554.6175509809813
 20
24.4988100928385
 30
0.0
 10
-554.6712348503805
 20
24.43484653978234
 30
0.0
 10
-554.7288575214649
 20
24.37419300685806
 30
0.0
 10
-554.7911940110272
 20
24.31749606774314
 30
0.0
 10
-554.8581625500324
 20
24.2648377769068
 30
0.0
 10
-554.9291257353872
 20
24.21569889610209
 30
0.0
 10
-555.0037118653108
 20
24.17033655148037
 30
0.0
 10
-555.0813583661982
 20
24.12956388925791
 30
0.0
 10
-555.1612918815923
 20
24.09494824948622
 30
0.0
 10
-555.2420595147327
 20
24.06433342537417
 30
0.0
 10
-555.3243149759776
 20
24.03983461226034
 30
0.0
 10
-555.4079232459176
 20
24.02077960699034
 30
0.0
 10
-555.5219080669049
 20
24.0032313320252
 30
0.0
 10
-555.608566651665
 20
23.99699781088938
 30
0.0
 10
-555.6667208117337
 20
23.99726225109156
 30
0.0
  0
SPLINE
  5
C9
330
1F
100
AcDbEntity
  8
0
  6
Continuous
 62
     7
370
    25
100
AcDbSpline
210
0.0
220
0.0
230
1.0
 70
     8
 71
     3
 72
    29
 73
    25
 74
     0
 42
0.00000001
 43
0.00000001
 40
0.0
 40
0.0
 40
0.0
 40
0.0
 40
0.0825538112938382
 40
0.1237716557752935
 40
0.1647842927049806
 40
0.2059352431561775
 40
0.247532881430119
 40
0.2896774566944796
 40
0.3325671990789676
 40
0.3754502498739956
 40
0.4177511508046504
 40
0.4594466384465544
 40
0.5009268295327522
 40
0.5423904130415018
 40
0.5837750195437776
 40
0.625524157846061
 40
0.6678304857959078
 40
0.7101218877672049
 40
0.7515092679437496
 40
0.7927897271292774
 40
0.8338415302968548
 40
0.8749310655513706
 40
0.9160945669137637
 40
1.0
 40
1.0
 40
1.0
 40
1.0
 10
-555.6765365168619
 20
26.59982635365565
 30
0.0
 10
-555.6196017802127
 20
26.59976114343565
 30
0.0
 10
-555.5341462552644
 20
26.59439339966973
 30
0.0
 10
-555.4220419837133
 20
26.57529917585777
 30
0.0
 10
-555.3388624493908
 20
26.55688527492295
 30
0.0
 10
-555.2574898076467
 20
26.53085644875375
 30
0.0
 10
-555.1764916004332
 20
26.50132388567494
 30
0.0
 10
-555.0973777750397
 20
26.46411086331268
 30
0.0
 10
-555.0191003886025
 20
26.42332873324571
 30
0.0
 10
-554.9436481380515
 20
26.37721736478882
 30
0.0
 10
-554.8721852579382
 20
26.32660334677039
 30
0.0
 10
-554.8044902656065
 20
26.27257837971764
 30
0.0
 10
-554.741230448385
 20
26.21423688708191
 30
0.0
 10
-554.6824385334828
 20
26.15172046503855
 30
0.0
 10
-554.627396656531
 20
26.08563229323369
 30
0.0
 10
-554.5768641858999
 20
26.01530564701571
 30
0.0
 10
-554.5307800547135
 20
25.94125803322889
 30
0.0
 10
-554.4897704481602
 20
25.8645794975314
 30
0.0
 10
-554.4535511662513
 20
25.78629900394635
 30
0.0
 10
-554.4234295266365
 20
25.70635849012104
 30
0.0
 10
-554.3990998292318
 20
25.62473395147191
 30
0.0
 10
-554.3789188470088
 20
25.54202701413821
 30
0.0
 10
-554.3616919125899
 20
25.42860836599414
 30
0.0
 10
-554.3553505691016
 20
25.34245460051088
 30
0.0
 10
-554.3556230553235
 20
25.28452186647623
 30
0.0
  0
SPLINE
  5
CA
330
1F
100
AcDbEntity
  8
0
  6
Continuous
 62
     7
370
    25
100
AcDbSpline
210
0.0
220
0.0
230
1.0
 70
     8
 71
     3
 72
    13
 73
     9
 74
     0
 42
0.00000001
 43
0.00000001
 40
0.0
 40
0.0
 40
0.0
 40
0.0
 40
0.2836710951636385
 40
0.4108559012071413
 40
0.5296406005497847
 40
0.6452451409151079
 40
0.7612377713612324
 40
1.0
 40
1.0
 40
1.0
 40
1.0
 10
-556.6889563886568
 20
26.10763885365564
 30
0.0
 10
-556.6173583228227
 20
26.1912940487542
 30
0.0
 10
-556.5064783478208
 20
26.30807680545511
 30
0.0
 10
-556.3379464353776
 20
26.42767498003074
 30
0.0
 10
-556.2130745527919
 20
26.49325379794199
 30
0.0
 10
-556.0851710459999
 20
26.54121482471616
 30
0.0
 10
-555.9075751473833
 20
26.58658269808012
 30
0.0
 10
-555.769417097894
 20
26.59967396311613
 30
0.0
 10
-555.6765365168619
 20
26.59982635365565
 30
0.0
  0
SPLINE
  5
CD
330
1F
100
AcDbEntity
  8
0
  6
Continuous
 62
     7
370
    25
100
AcDbSpline
210
0.0
220
0.0
230
1.0
 70
     8
 71
     3
 72
    17
 73
    13
 74
     0
 42
0.00000001
 43
0.00000001
 40
0.0
 40
0.0
 40
0.0
 40
0.0
 40
0.1781058515637827
 40
0.2613277635121511
 40
0.3415565694705521
 40
0.4200079090126525
 40
0.4980968161626226
 40
0.5754001382821239
 40
0.6536452159657116
 40
0.7341257729573898
 40
0.8183392339289949
 40
1.0
 40
1.0
 40
1.0
 40
1.0
 10
-548.687053343785
 20
23.95239045621977
 30
0.0
 10
-548.7733471355427
 20
23.95240161639423
 30
0.0
 10
-548.9002236173129
 20
23.96105583742592
 30
0.0
 10
-549.0626068898887
 20
23.99438153555322
 30
0.0
 10
-549.1749055394307
 20
24.02875977033048
 30
0.0
 10
-549.2807553558574
 20
24.07352046202793
 30
0.0
 10
-549.3810446713729
 20
24.12663654405367
 30
0.0
 10
-549.4757752583843
 20
24.18897606102888
 30
0.0
 10
-549.5654528644128
 20
24.26022301050401
 30
0.0
 10
-549.6505258571547
 20
24.34196942868572
 30
0.0
 10
-549.7574717412625
 20
24.47173158340654
 30
0.0
 10
-549.8269427320229
 20
24.58072746912954
 30
0.0
 10
-549.8684435681439
 20
24.65842010365571
 30
0.0
  0
SPLINE
  5
CE
330
1F
100
AcDbEntity
  8
0
  6
Continuous
 62
     7
370
    25
100
AcDbSpline
210
0.0
220
0.0
230
1.0
 70
     8
 71
     3
 72
    21
 73
    17
 74
     0
 42
0.00000001
 43
0.00000001
 40
0.0
 40
0.0
 40
0.0
 40
0.0
 40
0.1210804245006118
 40
0.1800682782218559
 40
0.2391896643238556
 40
0.2987059533012314
 40
0.3588810785072301
 40
0.4203687292950606
 40
0.4834483096802261
 40
0.5465664849029384
 40
0.6086986022254206
 40
0.670186253013248
 40
0.7318650366033053
 40
0.7952033026033165
 40
0.8603707753071415
 40
1.0
 40
1.0
 40
1.0
 40
1.0
 10
-547.4004948501953
 20
25.269097186989
 30
0.0
 10
-547.4014095774326
 20
25.18607454663901
 30
0.0
 10
-547.4101892017318
 20
25.06222273965108
 30
0.0
 10
-547.4462704860048
 20
24.90177559542161
 30
0.0
 10
-547.4846458829186
 20
24.78591321993751
 30
0.0
 10
-547.5322064627654
 20
24.6726422862259
 30
0.0
 10
-547.5906617214648
 20
24.56267917002542
 30
0.0
 10
-547.6605881406523
 20
24.45672326874593
 30
0.0
 10
-547.7398318596671
 20
24.35504126577326
 30
0.0
 10
-547.8278561051911
 20
24.26002502245051
 30
0.0
 10
-547.926675649998
 20
24.17789202679021
 30
0.0
 10
-548.033176394694
 20
24.10793527834099
 30
0.0
 10
-548.1479190731969
 20
24.05049765125278
 30
0.0
 10
-548.2711291254208
 20
24.00657197746614
 30
0.0
 10
-548.4503609684523
 20
23.96342562216258
 30
0.0
 10
-548.5912826637907
 20
23.95242933912123
 30
0.0
 10
-548.687053343785
 20
23.95239045621977
 30
0.0
  0
SPLINE
  5
CF
330
1F
100
AcDbEntity
  8
0
  6
Continuous
 62
     7
370
    25
100
AcDbSpline
210
0.0
220
0.0
230
1.0
 70
     8
 71
     3
 72
    13
 73
     9
 74
     0
 42
0.00000001
 43
0.00000001
 40
0.0
 40
0.0
 40
0.0
 40
0.0
 40
0.2534216680665266
 40
0.3767041167575432
 40
0.4994491585174913
 40
0.6225715734186964
 40
0.7462320999755214
 40
1.0
 40
1.0
 40
1.0
 40
1.0
 10
-547.6949660040415
 20
26.12306353314287
 30
0.0
 10
-547.6474147415466
 20
26.06157170931755
 30
0.0
 10
-547.5822509088181
 20
25.96550243803708
 30
0.0
 10
-547.5140781324617
 20
25.82799140180547
 30
0.0
 10
-547.4724990307408
 20
25.72245115208749
 30
0.0
 10
-547.4403515980139
 20
25.61356346027199
 30
0.0
 10
-547.4087242184564
 20
25.46301974931275
 30
0.0
 10
-547.4014481384004
 20
25.3468908891481
 30
0.0
 10
-547.4004948501953
 20
25.269097186989
 30
0.0
  0
SPLINE
  5
D0
330
1F
100
AcDbEntity
  8
0
  6
Continuous
 62
     7
370
    25
100
AcDbSpline
210
0.0
220
0.0
230
1.0
 70
     8
 71
     3
 72
    13
 73
     9
 74
     0
 42
0.00000001
 43
0.00000001
 40
0.0
 40
0.0
 40
0.0
 40
0.0
 40
0.2602406645595056
 40
0.3836752253642184
 40
0.5046599577622765
 40
0.6253567426858504
 40
0.7464106650135791
 40
1.0
 40
1.0
 40
1.0
 40
1.0
 10
-548.6947656835285
 20
26.59982635365565
 30
0.0
 10
-548.5953094724123
 20
26.59862777346922
 30
0.0
 10
-548.447433675436
 20
26.58759892260998
 30
0.0
 10
-548.2608876494653
 20
26.53510451972163
 30
0.0
 10
-548.1305462147417
 20
26.48347199000545
 30
0.0
 10
-548.00896919171
 20
26.41543244464073
 30
0.0
 10
-547.8543070397308
 20
26.30466991766556
 30
0.0
 10
-547.7555390643244
 20
26.19878808229559
 30
0.0
 10
-547.6949660040415
 20
26.12306353314287
 30
0.0
  0
SPLINE
  5
D1
330
1F
100
AcDbEntity
  8
0
  6
Continuous
 62
     7
370
    25
100
AcDbSpline
210
0.0
220
0.0
230
1.0
 70
     8
 71
     3
 72
    13
 73
     9
 74
     0
 42
0.00000001
 43
0.00000001
 40
0.0
 40
0.0
 40
0.0
 40
0.0
 40
0.255257368140996
 40
0.3772478104725325
 40
0.4977415562850415
 40
0.6181201760750441
 40
0.7409671592206359
 40
1.0
 40
1.0
 40
1.0
 40
1.0
 10
-549.7247136001954
 20
26.09642090493769
 30
0.0
 10
-549.6633264565017
 20
26.17708101753691
 30
0.0
 10
-549.5598835423639
 20
26.2867207079589
 30
0.0
 10
-549.4016083665715
 20
26.40579149326017
 30
0.0
 10
-549.2759388549958
 20
26.47700323996782
 30
0.0
 10
-549.1420945094892
 20
26.53208887145719
 30
0.0
 10
-548.9495014463367
 20
26.58537812161654
 30
0.0
 10
-548.7975931856089
 20
26.60025832723722
 30
0.0
 10
-548.6947656835285
 20
26.59982635365565
 30
0.0
  0
SPLINE
  5
D2
330
1F
100
AcDbEntity
  8
0
  6
Continuous
 62
     7
370
    25
100
AcDbSpline
210
0.0
220
0.0
230
1.0
 70
     8
 71
     3
 72
    13
 73
     9
 74
     0
 42
0.00000001
 43
0.00000001
 40
0.0
 40
0.0
 40
0.0
 40
0.0
 40
0.2703816178319617
 40
0.3984601291783004
 40
0.5227503451014437
 40
0.6438255660090793
 40
0.7637452368382556
 40
1.0
 40
1.0
 40
1.0
 40
1.0
 10
-550.0030589527594
 20
25.20880071262999
 30
0.0
 10
-550.001469488105
 20
25.29406035411341
 30
0.0
 10
-549.9941084546032
 20
25.42004269347253
 30
0.0
 10
-549.963506971178
 20
25.58239881192248
 30
0.0
 10
-549.9324968381178
 20
25.69622516255754
 30
0.0
 10
-549.8941200604485
 20
25.80510689635052
 30
0.0
 10
-549.8305092924545
 20
25.94189291824123
 30
0.0
 10
-549.770600252068
 20
26.03753208158843
 30
0.0
 10
-549.7247136001953
 20
26.09642090493769
 30
0.0
  0
SPLINE
  5
D4
330
1F
100
AcDbEntity
  8
0
  6
Continuous
 62
     7
370
    25
100
AcDbSpline
210
0.0
220
0.0
230
1.0
 70
     8
 71
     3
 72
    21
 73
    17
 74
     0
 42
0.00000001
 43
0.00000001
 40
0.0
 40
0.0
 40
0.0
 40
0.0
 40
0.1276691474530424
 40
0.1889505232706536
 40
0.2490548673082992
 40
0.3090713134763196
 40
0.3692223593686933
 40
0.4301747620269846
 40
0.4926019887960209
 40
0.555346876893578
 40
0.6169627615204942
 40
0.678170777192346
 40
0.73924652255152
 40
0.8016089422160485
 40
0.8655244124565523
 40
1.0
 40
1.0
 40
1.0
 40
1.0
 10
-548.6477905232722
 20
24.26649302032235
 30
0.0
 10
-548.5847793688879
 20
24.26614333601929
 30
0.0
 10
-548.4916511179955
 20
24.27486230068077
 30
0.0
 10
-548.3716690529229
 20
24.30192876066151
 30
0.0
 10
-548.2868967778633
 20
24.33099983173859
 30
0.0
 10
-548.2059988251897
 20
24.3681890939299
 30
0.0
 10
-548.1291052229673
 20
24.41399216866957
 30
0.0
 10
-548.0568224936533
 20
24.46864463318532
 30
0.0
 10
-547.9881153636805
 20
24.52970520515629
 30
0.0
 10
-547.9263897848745
 20
24.59827239169976
 30
0.0
 10
-547.8710497917568
 20
24.67131031694558
 30
0.0
 10
-547.8246656953196
 20
24.74947232532399
 30
0.0
 10
-547.7867927808115
 20
24.83240257236363
 30
0.0
 10
-547.7555470158603
 20
24.9194851521114
 30
0.0
 10
-547.725266485187
 20
25.04469844335966
 30
0.0
 10
-547.7163861387673
 20
25.14255470162119
 30
0.0
 10
-547.7145974142978
 20
25.20880071262999
 30
0.0
  0
SPLINE
  5
D5
330
1F
100
AcDbEntity
  8
0
  6
Continuous
 62
     7
370
    25
100
AcDbSpline
210
0.0
220
0.0
230
1.0
 70
     8
 71
     3
 72
    17
 73
    13
 74
     0
 42
0.00000001
 43
0.00000001
 40
0.0
 40
0.0
 40
0.0
 40
0.0
 40
0.2079350339033564
 40
0.2946939715678991
 40
0.3697315241424307
 40
0.440830943802725
 40
0.5142509140460771
 40
0.5913900390896499
 40
0.6722743046458497
 40
0.7543412603705406
 40
0.8361211059014766
 40
1.0
 40
1.0
 40
1.0
 40
1.0
 10
-549.589397093785
 20
24.80495455878384
 30
0.0
 10
-549.5468723677822
 20
24.73840707488084
 30
0.0
 10
-549.479756598112
 20
24.64877660942932
 30
0.0
 10
-549.3862588091113
 20
24.54395767780026
 30
0.0
 10
-549.3202069692777
 20
24.48493635266713
 30
0.0
 10
-549.2520853503895
 20
24.43672999489832
 30
0.0
 10
-549.1792064064042
 20
24.39457885283558
 30
0.0
 10
-549.0999605080734
 20
24.35647834035026
 30
0.0
 10
-549.014389696322
 20
24.32489310966379
 30
0.0
 10
-548.9251289530584
 20
24.29903483287321
 30
0.0
 10
-548.8032806595863
 20
24.27351525084698
 30
0.0
 10
-548.709984427212
 20
24.26619218957315
 30
0.0
 10
-548.6477905232722
 20
24.26649302032235
 30
0.0
  0
SPLINE
  5
D9
330
1F
100
AcDbEntity
  8
0
  6
Continuous
 62
     7
370
    25
100
AcDbSpline
210
0.0
220
0.0
230
1.0
 70
     8
 71
     3
 72
    13
 73
     9
 74
     0
 42
0.00000001
 43
0.00000001
 40
0.0
 40
0.0
 40
0.0
 40
0.0
 40
0.2518550583969853
 40
0.3726997642744652
 40
0.4928354033771648
 40
0.6137300878654817
 40
0.7379150246176973
 40
1.0
 40
1.0
 40
1.0
 40
1.0
 10
-545.4135156835287
 20
23.95239045621977
 30
0.0
 10
-545.5137518630165
 20
23.95158310576873
 30
0.0
 10
-545.6621647198796
 20
23.96632065798976
 30
0.0
 10
-545.852217575513
 20
24.01574026370956
 30
0.0
 10
-545.987144782252
 20
24.06686415169379
 30
0.0
 10
-546.1158110611915
 20
24.13505526503168
 30
0.0
 10
-546.2824386516803
 20
24.24968943247008
 30
0.0
 10
-546.3909496026346
 20
24.36021890662066
 30
0.0
 10
-546.4581871578877
 20
24.43967010365566
 30
0.0
  0
SPLINE
  5
DA
330
1F
100
AcDbEntity
  8
0
  6
Continuous
 62
     7
370
    25
100
AcDbSpline
210
0.0
220
0.0
230
1.0
 70
     8
 71
     3
 72
    21
 73
    17
 74
     0
 42
0.00000001
 43
0.00000001
 40
0.0
 40
0.0
 40
0.0
 40
0.0
 40
0.1280988297755863
 40
0.1896694721890465
 40
0.2507063934632511
 40
0.311890666438603
 40
0.3732647830705283
 40
0.4358087922280679
 40
0.500424455805957
 40
0.5650608900029817
 40
0.6276710388631751
 40
0.6893315462593366
 40
0.7500699293139468
 40
0.8109958734420368
 40
0.8725665158555028
 40
1.0
 40
1.0
 40
1.0
 40
1.0
 10
-544.0799820296826
 20
25.28311962288643
 30
0.0
 10
-544.0801900219446
 20
25.19361326685798
 30
0.0
 10
-544.09169695588
 20
25.06091761134965
 30
0.0
 10
-544.1323735319247
 20
24.89021043046058
 30
0.0
 10
-544.1753265770328
 20
24.76889616059841
 30
0.0
 10
-544.231158258384
 20
24.65316283372343
 30
0.0
 10
-544.2979082065498
 20
24.54212057248872
 30
0.0
 10
-544.3779703403098
 20
24.43717502942622
 30
0.0
 10
-544.4692021022165
 20
24.33877998108724
 30
0.0
 10
-544.5682737009301
 20
24.24819219254881
 30
0.0
 10
-544.6741463934836
 20
24.16895049582757
 30
0.0
 10
-544.7852064318057
 20
24.10241239820598
 30
0.0
 10
-544.9008788062825
 20
24.04682001100566
 30
0.0
 10
-545.0221525171715
 20
24.00496243606698
 30
0.0
 10
-545.1922191610514
 20
23.96410296397833
 30
0.0
 10
-545.3244862718968
 20
23.95260855588732
 30
0.0
 10
-545.4135156835287
 20
23.95239045621977
 30
0.0
  0
SPLINE
  5
DB
330
1F
100
AcDbEntity
  8
0
  6
Continuous
 62
     7
370
    25
100
AcDbSpline
210
0.0
220
0.0
230
1.0
 70
     8
 71
     3
 72
    21
 73
    17
 74
     0
 42
0.00000001
 43
0.00000001
 40
0.0
 40
0.0
 40
0.0
 40
0.0
 40
0.1283692574311769
 40
0.190417708860092
 40
0.2519211667422389
 40
0.3132736507580476
 40
0.3750861342515197
 40
0.438389176770406
 40
0.5032092055629105
 40
0.5679667722557898
 40
0.630868101539027
 40
0.6919966438355534
 40
0.7524260650823844
 40
0.8130959072527861
 40
0.8739211900104884
 40
1.0
 40
1.0
 40
1.0
 40
1.0
 10
-545.4233313886568
 20
26.59982635365565
 30
0.0
 10
-545.333918156366
 20
26.59902873199682
 30
0.0
 10
-545.200894035432
 20
26.58888532815462
 30
0.0
 10
-545.0296814011596
 20
26.5482058437303
 30
0.0
 10
-544.9081158210023
 20
26.50483157923444
 30
0.0
 10
-544.7908524045553
 20
26.45116880480791
 30
0.0
 10
-544.6796292295273
 20
26.38345447543134
 30
0.0
 10
-544.5727204835302
 20
26.30504473459194
 30
0.0
 10
-544.4727856627716
 20
26.21482431010547
 30
0.0
 10
-544.3805334724558
 20
26.11715304114304
 30
0.0
 10
-544.3005135614975
 20
26.01238362307534
 30
0.0
 10
-544.2325883025273
 20
25.90297971670319
 30
0.0
 10
-544.176735956202
 20
25.78863921890328
 30
0.0
 10
-544.1332269891159
 20
25.66928395375456
 30
0.0
 10
-544.0912311581067
 20
25.50155193741899
 30
0.0
 10
-544.0804996832138
 20
25.3709373867208
 30
0.0
 10
-544.0799820296826
 20
25.28311962288643
 30
0.0
  0
SPLINE
  5
DC
330
1F
100
AcDbEntity
  8
0
  6
Continuous
 62
     7
370
    25
100
AcDbSpline
210
0.0
220
0.0
230
1.0
 70
     8
 71
     3
 72
    13
 73
     9
 74
     0
 42
0.00000001
 43
0.00000001
 40
0.0
 40
0.0
 40
0.0
 40
0.0
 40
0.261488929626658
 40
0.3852472367599549
 40
0.5058984871003219
 40
0.6257895628173398
 40
0.7470150281421295
 40
1.0
 40
1.0
 40
1.0
 40
1.0
 10
-546.4581871578877
 20
26.05996257160437
 30
0.0
 10
-546.3948532223651
 20
26.14449965471621
 30
0.0
 10
-546.2928445249477
 20
26.26441278894131
 30
0.0
 10
-546.1305941796431
 20
26.39040505475288
 30
0.0
 10
-546.0042291344996
 20
26.46723791755235
 30
0.0
 10
-545.8697310147638
 20
26.52626969252914
 30
0.0
 10
-545.6778924548626
 20
26.58494855842708
 30
0.0
 10
-545.5256493594746
 20
26.59957844226046
 30
0.0
 10
-545.4233313886568
 20
26.59982635365565
 30
0.0
  0
SPLINE
  5
E3
330
1F
100
AcDbEntity
  8
0
  6
Continuous
 62
     7
370
    25
100
AcDbSpline
210
0.0
220
0.0
230
1.0
 70
     8
 71
     3
 72
    13
 73
     9
 74
     0
 42
0.00000001
 43
0.00000001
 40
0.0
 40
0.0
 40
0.0
 40
0.0
 40
0.2407702368354425
 40
0.3613679915788172
 40
0.4880203848743234
 40
0.6156588752209213
 40
0.7417159076830835
 40
1.0
 40
1.0
 40
1.0
 40
1.0
 10
-543.541520491221
 20
27.36124462288647
 30
0.0
 10
-543.5417216460361
 20
27.39690205219258
 30
0.0
 10
-543.5303546845471
 20
27.45020255060404
 30
0.0
 10
-543.4943509066715
 20
27.51331009896307
 30
0.0
 10
-543.4561489045439
 20
27.55386966393214
 30
0.0
 10
-543.4115607389083
 20
27.58831438326481
 30
0.0
 10
-543.3438507557125
 20
27.62310544428126
 30
0.0
 10
-543.2864498155958
 20
27.63180340380356
 30
0.0
 10
-543.2484515809647
 20
27.63187763570696
 30
0.0
  0
SPLINE
  5
E4
330
1F
100
AcDbEntity
  8
0
  6
Continuous
 62
     7
370
    25
100
AcDbSpline
210
0.0
220
0.0
230
1.0
 70
     8
 71
     3
 72
    13
 73
     9
 74
     0
 42
0.00000001
 43
0.00000001
 40
0.0
 40
0.0
 40
0.0
 40
0.0
 40
0.2598496298712539
 40
0.3866707319148509
 40
0.5150828775346947
 40
0.6425029490726826
 40
0.7624536797230972
 40
1.0
 40
1.0
 40
1.0
 40
1.0
 10
-543.2484515809647
 20
27.09341609724536
 30
0.0
 10
-543.28644750893
 20
27.09349173653586
 30
0.0
 10
-543.3438551704379
 20
27.1021855950746
 30
0.0
 10
-543.4115542643473
 20
27.13698330007031
 30
0.0
 10
-543.4561734521801
 20
27.17140909154747
 30
0.0
 10
-543.4941227584244
 20
27.21188948629338
 30
0.0
 10
-543.530282194312
 20
27.27384120645637
 30
0.0
 10
-543.541594786008
 20
27.32630441508843
 30
0.0
 10
-543.541520491221
 20
27.36124462288647
 30
0.0
  0
SPLINE
  5
E5
330
1F
100
AcDbEntity
  8
0
  6
Continuous
 62
     7
370
    25
100
AcDbSpline
210
0.0
220
0.0
230
1.0
 70
     8
 71
     3
 72
    13
 73
     9
 74
     0
 42
0.00000001
 43
0.00000001
 40
0.0
 40
0.0
 40
0.0
 40
0.0
 40
0.2389149952220574
 40
0.3595568481745961
 40
0.486634766847336
 40
0.6157867870573872
 40
0.7433385965465394
 40
1.0
 40
1.0
 40
1.0
 40
1.0
 10
-542.9581871578877
 20
27.36124462288647
 30
0.0
 10
-542.9581533059445
 20
27.32634095903419
 30
0.0
 10
-542.969345575234
 20
27.27376902769329
 30
0.0
 10
-543.0056285499344
 20
27.21213776139741
 30
0.0
 10
-543.0428097687239
 20
27.17118247918637
 30
0.0
 10
-543.0874859683806
 20
27.13699658851343
 30
0.0
 10
-543.1545436707802
 20
27.10259600604781
 30
0.0
 10
-543.2110513295753
 20
27.09318091146473
 30
0.0
 10
-543.2484515809647
 20
27.09341609724536
 30
0.0
  0
SPLINE
  5
E6
330
1F
100
AcDbEntity
  8
0
  6
Continuous
 62
     7
370
    25
100
AcDbSpline
210
0.0
220
0.0
230
1.0
 70
     8
 71
     3
 72
    13
 73
     9
 74
     0
 42
0.00000001
 43
0.00000001
 40
0.0
 40
0.0
 40
0.0
 40
0.0
 40
0.2551062187428466
 40
0.3818851554071034
 40
0.5102546066587019
 40
0.6365625239462811
 40
0.757850918666084
 40
1.0
 40
1.0
 40
1.0
 40
1.0
 10
-543.2484515809647
 20
27.63187763570696
 30
0.0
 10
-543.2110490401911
 20
27.63211422401768
 30
0.0
 10
-543.1545480518542
 20
27.62269504295678
 30
0.0
 10
-543.0874794329511
 20
27.58830114819477
 30
0.0
 10
-543.0428344409717
 20
27.55409613897453
 30
0.0
 10
-543.0054029083572
 20
27.51305982589769
 30
0.0
 10
-542.9692711735405
 20
27.45027652103471
 30
0.0
 10
-542.9580279939315
 20
27.39686407636255
 30
0.0
 10
-542.9581871578877
 20
27.36124462288647
 30
0.0
  0
SPLINE
  5
E8
330
1F
100
AcDbEntity
  8
0
  6
Continuous
 62
     7
370
    25
100
AcDbSpline
210
0.0
220
0.0
230
1.0
 70
     8
 71
     3
 72
    13
 73
     9
 74
     0
 42
0.00000001
 43
0.00000001
 40
0.0
 40
0.0
 40
0.0
 40
0.0
 40
0.2066658703703788
 40
0.3164748855849829
 40
0.4340367728953333
 40
0.5586910361120339
 40
0.6949644946417399
 40
1.0
 40
1.0
 40
1.0
 40
1.0
 10
-541.8097496578878
 20
26.28572378955307
 30
0.0
 10
-541.8465645315874
 20
26.28569102374068
 30
0.0
 10
-541.9027850433223
 20
26.27658292133284
 30
0.0
 10
-541.9748479513523
 20
26.24833729444043
 30
0.0
 10
-542.0303093716687
 20
26.21893274393561
 30
0.0
 10
-542.0853479952652
 20
26.17996092505926
 30
0.0
 10
-542.1631700701734
 20
26.11596627446322
 30
0.0
 10
-542.2166390678169
 20
26.05802204673635
 30
0.0
 10
-542.2514563886571
 20
26.01649302032239
 30
0.0
  0
SPLINE
  5
E9
330
1F
100
AcDbEntity
  8
0
  6
Continuous
 62
     7
370
    25
100
AcDbSpline
210
0.0
220
0.0
230
1.0
 70
     8
 71
     3
 72
    13
 73
     9
 74
     0
 42
0.00000001
 43
0.00000001
 40
0.0
 40
0.0
 40
0.0
 40
0.0
 40
0.248971671148973
 40
0.3714961336333736
 40
0.5014891588227018
 40
0.6308339704139223
 40
0.754099371393653
 40
1.0
 40
1.0
 40
1.0
 40
1.0
 10
-541.4774179271186
 20
25.9414729882711
 30
0.0
 10
-541.4775414193034
 20
25.98541764041873
 30
0.0
 10
-541.4893738342462
 20
26.05142266039284
 30
0.0
 10
-541.5310613996762
 20
26.13027652012001
 30
0.0
 10
-541.573498504401
 20
26.18305706408275
 30
0.0
 10
-541.6236708116836
 20
26.2289590123207
 30
0.0
 10
-541.70099345982
 20
26.27252553062431
 30
0.0
 10
-541.7660998799925
 20
26.28661853273329
 30
0.0
 10
-541.8097496578878
 20
26.28572378955307
 30
0.0
  0
SPLINE
  5
EA
330
1F
100
AcDbEntity
  8
0
  6
Continuous
 62
     7
370
    25
100
AcDbSpline
210
0.0
220
0.0
230
1.0
 70
     8
 71
     3
 72
     9
 73
     5
 74
     0
 42
0.00000001
 43
0.00000001
 40
0.0
 40
0.0
 40
0.0
 40
0.0
 40
0.5205968063940213
 40
1.0
 40
1.0
 40
1.0
 40
1.0
 10
-541.5643570296827
 20
25.70940167416846
 30
0.0
 10
-541.537666840822
 20
25.74393072612313
 30
0.0
 10
-541.4931795867786
 20
25.81696361477515
 30
0.0
 10
-541.4774934429624
 20
25.90110745512353
 30
0.0
 10
-541.4774179271186
 20
25.9414729882711
 30
0.0
  0
SPLINE
  5
EB
330
1F
100
AcDbEntity
  8
0
  6
Continuous
 62
     7
370
    25
100
AcDbSpline
210
0.0
220
0.0
230
1.0
 70
     8
 71
     3
 72
    13
 73
     9
 74
     0
 42
0.00000001
 43
0.00000001
 40
0.0
 40
0.0
 40
0.0
 40
0.0
 40
0.3238790058012839
 40
0.4664315196199199
 40
0.5977832531928436
 40
0.716017640049548
 40
0.8224401785340064
 40
1.0
 40
1.0
 40
1.0
 40
1.0
 10
-541.9296414848109
 20
25.44577987929675
 30
0.0
 10
-541.886219397284
 20
25.46839101078735
 30
0.0
 10
-541.8260268502448
 20
25.50497841806432
 30
0.0
 10
-541.7491801322941
 20
25.55238964564644
 30
0.0
 10
-541.7004118198731
 20
25.58599954874818
 30
0.0
 10
-541.6571252706145
 20
25.61796846140007
 30
0.0
 10
-541.6115485874427
 20
25.65815216512335
 30
0.0
 10
-541.5803395398432
 20
25.68768718560388
 30
0.0
 10
-541.5643570296827
 20
25.70940167416846
 30
0.0
  0
SPLINE
  5
EC
330
1F
100
AcDbEntity
  8
0
  6
Continuous
 62
     7
370
    25
100
AcDbSpline
210
0.0
220
0.0
230
1.0
 70
     8
 71
     3
 72
    13
 73
     9
 74
     0
 42
0.00000001
 43
0.00000001
 40
0.0
 40
0.0
 40
0.0
 40
0.0
 40
0.1954188198467802
 40
0.3058478904170387
 40
0.4251239275883485
 40
0.5537868414038684
 40
0.6928854083944319
 40
1.0
 40
1.0
 40
1.0
 40
1.0
 10
-542.3902785040416
 20
25.08680552032239
 30
0.0
 10
-542.3681138714616
 20
25.11810186409913
 30
0.0
 10
-542.3289780054192
 20
25.16391062582224
 30
0.0
 10
-542.26728248836
 20
25.22011291127191
 30
0.0
 10
-542.2133639080374
 20
25.26528316158605
 30
0.0
 10
-542.1518989825141
 20
25.30994044852219
 30
0.0
 10
-542.0582146965185
 20
25.37277146111516
 30
0.0
 10
-541.9823614135355
 20
25.41664973027891
 30
0.0
 10
-541.9296414848109
 20
25.44577987929675
 30
0.0
  0
SPLINE
  5
ED
330
1F
100
AcDbEntity
  8
0
  6
Continuous
 62
     7
370
    25
100
AcDbSpline
210
0.0
220
0.0
230
1.0
 70
     8
 71
     3
 72
     9
 73
     5
 74
     0
 42
0.00000001
 43
0.00000001
 40
0.0
 40
0.0
 40
0.0
 40
0.0
 40
0.5047649745423515
 40
1.0
 40
1.0
 40
1.0
 40
1.0
 10
-542.5094692091698
 20
24.6913728280147
 30
0.0
 10
-542.508468204318
 20
24.76161675399091
 30
0.0
 10
-542.4924095860144
 20
24.90262014203837
 30
0.0
 10
-542.428332733716
 20
25.0292712887703
 30
0.0
 10
-542.3902785040416
 20
25.08680552032239
 30
0.0
  0
SPLINE
  5
EE
330
1F
100
AcDbEntity
  8
0
  6
Continuous
 62
     7
370
    25
100
AcDbSpline
210
0.0
220
0.0
230
1.0
 70
     8
 71
     3
 72
    21
 73
    17
 74
     0
 42
0.00000001
 43
0.00000001
 40
0.0
 40
0.0
 40
0.0
 40
0.0
 40
0.1313602991794603
 40
0.194501516428776
 40
0.2564315180678534
 40
0.3176028927083406
 40
0.3786284196027307
 40
0.4404806721564614
 40
0.5042957142746892
 40
0.5681107563928984
 40
0.6299630089466474
 40
0.6904753005359335
 40
0.7513604849059731
 40
0.8114026619125837
 40
0.8728008672444953
 40
1.0
 40
1.0
 40
1.0
 40
1.0
 10
-541.759970010452
 20
23.95239045621977
 30
0.0
 10
-541.8113594966338
 20
23.95274055477303
 30
0.0
 10
-541.8876539950484
 20
23.95847996435829
 30
0.0
 10
-541.9856461975717
 20
23.98113145963676
 30
0.0
 10
-542.0546090751908
 20
24.00517979577266
 30
0.0
 10
-542.1201360802646
 20
24.0354503780269
 30
0.0
 10
-542.1823748582441
 20
24.07202331754266
 30
0.0
 10
-542.2408810043758
 20
24.11604765258801
 30
0.0
 10
-542.2957265216187
 20
24.16613329607142
 30
0.0
 10
-542.3458177965251
 20
24.22097227745634
 30
0.0
 10
-542.3896930739652
 20
24.27934822705313
 30
0.0
 10
-542.4262395400913
 20
24.34118438274113
 30
0.0
 10
-542.457428865708
 20
24.40514367612512
 30
0.0
 10
-542.480504218722
 20
24.47283764471031
 30
0.0
 10
-542.5034992854951
 20
24.56757035009771
 30
0.0
 10
-542.5089973069014
 20
24.64164488522047
 30
0.0
 10
-542.5094692091698
 20
24.6913728280147
 30
0.0
  0
SPLINE
  5
EF
330
1F
100
AcDbEntity
  8
0
  6
Continuous
 62
     7
370
    25
100
AcDbSpline
210
0.0
220
0.0
230
1.0
 70
     8
 71
     3
 72
    13
 73
     9
 74
     0
 42
0.00000001
 43
0.00000001
 40
0.0
 40
0.0
 40
0.0
 40
0.0
 40
0.2445989327970473
 40
0.3685417614065689
 40
0.4953064507483649
 40
0.6227813119738068
 40
0.7482760387504068
 40
1.0
 40
1.0
 40
1.0
 40
1.0
 10
-541.0286999784005
 20
24.29874462288639
 30
0.0
 10
-541.0709677694689
 20
24.24514572076774
 30
0.0
 10
-541.1443111528141
 20
24.17214334500484
 30
0.0
 10
-541.2575520146136
 20
24.09255168739033
 30
0.0
 10
-541.3505570387938
 20
24.04235380354325
 30
0.0
 10
-541.4489520345387
 20
24.00270021524953
 30
0.0
 10
-541.5845111717701
 20
23.96398317758108
 30
0.0
 10
-541.6897100008392
 20
23.95185743686001
 30
0.0
 10
-541.7599700104519
 20
23.95239045621977
 30
0.0
  0
SPLINE
  5
F1
330
1F
100
AcDbEntity
  8
0
  6
Continuous
 62
     7
370
    25
100
AcDbSpline
210
0.0
220
0.0
230
1.0
 70
     8
 71
     3
 72
    13
 73
     9
 74
     0
 42
0.00000001
 43
0.00000001
 40
0.0
 40
0.0
 40
0.0
 40
0.0
 40
0.2249939016839898
 40
0.3407622816196355
 40
0.459499256413394
 40
0.5828283517555495
 40
0.7140958284555524
 40
1.0
 40
1.0
 40
1.0
 40
1.0
 10
-541.7438442091698
 20
24.26649302032235
 30
0.0
 10
-541.6993880268834
 20
24.26627783333746
 30
0.0
 10
-541.6322357103701
 20
24.27534027608624
 30
0.0
 10
-541.5457739751588
 20
24.30325755291584
 30
0.0
 10
-541.4815502001766
 20
24.33298986870602
 30
0.0
 10
-541.4187272737508
 20
24.37165330708757
 30
0.0
 10
-541.3328764163931
 20
24.43513920355777
 30
0.0
 10
-541.2745830722645
 20
24.49382869489525
 30
0.0
 10
-541.2369331514775
 20
24.53572378955315
 30
0.0
  0
SPLINE
  5
F2
330
1F
100
AcDbEntity
  8
0
  6
Continuous
 62
     7
370
    25
100
AcDbSpline
210
0.0
220
0.0
230
1.0
 70
     8
 71
     3
 72
    13
 73
     9
 74
     0
 42
0.00000001
 43
0.00000001
 40
0.0
 40
0.0
 40
0.0
 40
0.0
 40
0.2352817369432602
 40
0.3554913463217786
 40
0.4823137941791906
 40
0.6121639553088953
 40
0.7381043263492042
 40
1.0
 40
1.0
 40
1.0
 40
1.0
 10
-542.1953666450673
 20
24.67805151391211
 30
0.0
 10
-542.1956979000503
 20
24.62483295287388
 30
0.0
 10
-542.1785811260435
 20
24.54435398427579
 30
0.0
 10
-542.1224444356635
 20
24.45003267733947
 30
0.0
 10
-542.0646212769492
 20
24.38706041962735
 30
0.0
 10
-541.9965765641703
 20
24.33304057282604
 30
0.0
 10
-541.8908720647565
 20
24.28126781771212
 30
0.0
 10
-541.803052416953
 20
24.26598059039253
 30
0.0
 10
-541.7438442091698
 20
24.26649302032235
 30
0.0
  0
SPLINE
  5
F3
330
1F
100
AcDbEntity
  8
0
  6
Continuous
 62
     7
370
    25
100
AcDbSpline
210
0.0
220
0.0
230
1.0
 70
     8
 71
     3
 72
     9
 73
     5
 74
     0
 42
0.00000001
 43
0.00000001
 40
0.0
 40
0.0
 40
0.0
 40
0.0
 40
0.4995466848970542
 40
1.0
 40
1.0
 40
1.0
 40
1.0
 10
-542.109128664298
 20
24.92204189852743
 30
0.0
 10
-542.1370181861465
 20
24.88809118931579
 30
0.0
 10
-542.1812077598505
 20
24.81031137130973
 30
0.0
 10
-542.1951992941795
 20
24.7220211322976
 30
0.0
 10
-542.1953666450673
 20
24.67805151391211
 30
0.0
  0
SPLINE
  5
F4
330
1F
100
AcDbEntity
  8
0
  6
Continuous
 62
     7
370
    25
100
AcDbSpline
210
0.0
220
0.0
230
1.0
 70
     8
 71
     3
 72
    13
 73
     9
 74
     0
 42
0.00000001
 43
0.00000001
 40
0.0
 40
0.0
 40
0.0
 40
0.0
 40
0.3337367066248621
 40
0.4791986316519813
 40
0.6104491594873718
 40
0.7277299767534031
 40
0.8325383242741483
 40
1.0
 40
1.0
 40
1.0
 40
1.0
 10
-541.7214083117339
 20
25.18566369339925
 30
0.0
 10
-541.7677782042147
 20
25.16120669084565
 30
0.0
 10
-541.8334036226864
 20
25.12435190525864
 30
0.0
 10
-541.916059802781
 20
25.07574701519133
 30
0.0
 10
-541.968059251519
 20
25.0421602986215
 30
0.0
 10
-542.0131763849273
 20
25.00980669302166
 30
0.0
 10
-542.0610822225653
 20
24.9717172773315
 30
0.0
 10
-542.0922816669861
 20
24.94230912783957
 30
0.0
 10
-542.109128664298
 20
24.92204189852743
 30
0.0
  0
SPLINE
  5
F5
330
1F
100
AcDbEntity
  8
0
  6
Continuous
 62
     7
370
    25
100
AcDbSpline
210
0.0
220
0.0
230
1.0
 70
     8
 71
     3
 72
    13
 73
     9
 74
     0
 42
0.00000001
 43
0.00000001
 40
0.0
 40
0.0
 40
0.0
 40
0.0
 40
0.1977042930090794
 40
0.3078458435568139
 40
0.4271756375984301
 40
0.5562245009992262
 40
0.6940497867915497
 40
1.0
 40
1.0
 40
1.0
 40
1.0
 10
-541.2804027027596
 20
25.53482234724547
 30
0.0
 10
-541.3013417824185
 20
25.50375508808389
 30
0.0
 10
-541.3396008946531
 20
25.45969822804217
 30
0.0
 10
-541.3975146216006
 20
25.40333284416674
 30
0.0
 10
-541.4496468586864
 20
25.35988928420707
 30
0.0
 10
-541.5087573061577
 20
25.31698669620441
 30
0.0
 10
-541.5978274550122
 20
25.25531782134804
 30
0.0
 10
-541.6708140951584
 20
25.21363077423144
 30
0.0
 10
-541.7214083117339
 20
25.18566369339925
 30
0.0
  0
SPLINE
  5
F6
330
1F
100
AcDbEntity
  8
0
  6
Continuous
 62
     7
370
    25
100
AcDbSpline
210
0.0
220
0.0
230
1.0
 70
     8
 71
     3
 72
     9
 73
     5
 74
     0
 42
0.00000001
 43
0.00000001
 40
0.0
 40
0.0
 40
0.0
 40
0.0
 40
0.5074092035235833
 40
1.0
 40
1.0
 40
1.0
 40
1.0
 10
-541.163315363016
 20
25.92885279596335
 30
0.0
 10
-541.1620435896053
 20
25.85813372103885
 30
0.0
 10
-541.1827600685513
 20
25.71911562889451
 30
0.0
 10
-541.2411339321133
 20
25.59121714090218
 30
0.0
 10
-541.2804027027596
 20
25.53482234724547
 30
0.0
  0
SPLINE
  5
F7
330
1F
100
AcDbEntity
  8
0
  6
Continuous
 62
     7
370
    25
100
AcDbSpline
210
0.0
220
0.0
230
1.0
 70
     8
 71
     3
 72
    21
 73
    17
 74
     0
 42
0.00000001
 43
0.00000001
 40
0.0
 40
0.0
 40
0.0
 40
0.0
 40
0.1291156642467617
 40
0.1906142170369299
 40
0.2512349941101595
 40
0.3110899094595513
 40
0.3711861458444906
 40
0.43211947994139
 40
0.4949206964951557
 40
0.5573643976838026
 40
0.6191271459504197
 40
0.6802716623934746
 40
0.7413865832314339
 40
0.8034925619466107
 40
0.8669564647560922
 40
1.0
 40
1.0
 40
1.0
 40
1.0
 10
-541.8097496578878
 20
26.59982635365565
 30
0.0
 10
-541.7648365962737
 20
26.60036091699225
 30
0.0
 10
-541.6985911138013
 20
26.59413174575631
 30
0.0
 10
-541.6134141095115
 20
26.57438862386396
 30
0.0
 10
-541.553593408682
 20
26.55341391295341
 30
0.0
 10
-541.497185049505
 20
26.5256417223998
 30
0.0
 10
-541.4436467754981
 20
26.49253725543455
 30
0.0
 10
-541.3927520151586
 20
26.45373811139429
 30
0.0
 10
-541.345645349526
 20
26.40922892559949
 30
0.0
 10
-541.3028021303226
 20
26.36022576448704
 30
0.0
 10
-541.2656144432236
 20
26.30748982212283
 30
0.0
 10
-541.2339695044035
 20
26.25183247563034
 30
0.0
 10
-541.2074828831594
 20
26.19332990614109
 30
0.0
 10
-541.1884417711142
 20
26.13120486116582
 30
0.0
 10
-541.1677606022783
 20
26.04362997599463
 30
0.0
 10
-541.1636321518843
 20
25.97499510896128
 30
0.0
 10
-541.163315363016
 20
25.92885279596335
 30
0.0
  0
SPLINE
  5
F8
330
1F
100
AcDbEntity
  8
0
  6
Continuous
 62
     7
370
    25
100
AcDbSpline
210
0.0
220
0.0
230
1.0
 70
     8
 71
     3
 72
    13
 73
     9
 74
     0
 42
0.00000001
 43
0.00000001
 40
0.0
 40
0.0
 40
0.0
 40
0.0
 40
0.297287795518775
 40
0.4309389201448542
 40
0.5555483284431681
 40
0.67387326992651
 40
0.786588387361059
 40
1.0
 40
1.0
 40
1.0
 40
1.0
 10
-542.4645974142979
 20
26.23594414211716
 30
0.0
 10
-542.4139893574896
 20
26.29323871027944
 30
0.0
 10
-542.3340467128047
 20
26.37045392780912
 30
0.0
 10
-542.2205400255415
 20
26.45733163122443
 30
0.0
 10
-542.138751574905
 20
26.50943340775436
 30
0.0
 10
-542.0564228194024
 20
26.54961133081313
 30
0.0
 10
-541.948527709637
 20
26.58808189686523
 30
0.0
 10
-541.8646449499402
 20
26.59977316513051
 30
0.0
 10
-541.8097496578878
 20
26.59982635365565
 30
0.0
  0
SPLINE
  5
FB
330
1F
100
AcDbEntity
  8
0
  6
Continuous
 62
     7
370
    25
100
AcDbSpline
210
0.0
220
0.0
230
1.0
 70
     8
 71
     3
 72
    13
 73
     9
 74
     0
 42
0.00000001
 43
0.00000001
 40
0.0
 40
0.0
 40
0.0
 40
0.0
 40
0.2434110992594182
 40
0.3618899784752182
 40
0.4800702186075755
 40
0.6010116861957749
 40
0.7264312190368025
 40
1.0
 40
1.0
 40
1.0
 40
1.0
 10
-539.5787801066056
 20
26.59982635365565
 30
0.0
 10
-539.4863304284921
 20
26.59935011318937
 30
0.0
 10
-539.3482966345305
 20
26.58582238385565
 30
0.0
 10
-539.1727947056454
 20
26.53423178457526
 30
0.0
 10
-539.0471662226961
 20
26.48144054143808
 30
0.0
 10
-538.9271936765722
 20
26.41130510205825
 30
0.0
 10
-538.7698746375356
 20
26.29074428273947
 30
0.0
 10
-538.668979859545
 20
26.17582367965532
 30
0.0
 10
-538.6056230553236
 20
26.0936164177582
 30
0.0
  0
SPLINE
  5
FC
330
1F
100
AcDbEntity
  8
0
  6
Continuous
 62
     7
370
    25
100
AcDbSpline
210
0.0
220
0.0
230
1.0
 70
     8
 71
     3
 72
    21
 73
    17
 74
     0
 42
0.00000001
 43
0.00000001
 40
0.0
 40
0.0
 40
0.0
 40
0.0
 40
0.1317255445271741
 40
0.1906683746814265
 40
0.2451968850948476
 40
0.2955087738855862
 40
0.3412437630224658
 40
0.3833864553034272
 40
0.4214402664762985
 40
0.492956384356707
 40
0.5628694745136158
 40
0.6330237453801784
 40
0.7044573558011064
 40
0.7765120161995835
 40
0.8488218595336068
 40
1.0
 40
1.0
 40
1.0
 40
1.0
 10
-540.5351102348108
 20
25.30345215493768
 30
0.0
 10
-540.5358901873456
 20
25.38413885812785
 30
0.0
 10
-540.532049442429
 20
25.5009298255694
 30
0.0
 10
-540.5204166745795
 20
25.65065640262198
 30
0.0
 10
-540.5098557098333
 20
25.75045459431779
 30
0.0
 10
-540.4942201377736
 20
25.84139418229425
 30
0.0
 10
-540.4761900496745
 20
25.92411233611747
 30
0.0
 10
-540.4549575044551
 20
25.99835907773041
 30
0.0
 10
-540.4212319116572
 20
26.08504790815469
 30
0.0
 10
-540.3700345458208
 20
26.18277081267983
 30
0.0
 10
-540.2936712118068
 20
26.28810791152469
 30
0.0
 10
-540.2013467117813
 20
26.37968190590656
 30
0.0
 10
-540.0962181512424
 20
26.45830281336048
 30
0.0
 10
-539.9796036923523
 20
26.52146029663727
 30
0.0
 10
-539.8090318921262
 20
26.58421210459694
 30
0.0
 10
-539.6711557521127
 20
26.59921457848768
 30
0.0
 10
-539.5787801066056
 20
26.59982635365565
 30
0.0
  0
SPLINE
  5
100
330
1F
100
AcDbEntity
  8
0
  6
Continuous
 62
     7
370
    25
100
AcDbSpline
210
0.0
220
0.0
230
1.0
 70
     8
 71
     3
 72
    13
 73
     9
 74
     0
 42
0.00000001
 43
0.00000001
 40
0.0
 40
0.0
 40
0.0
 40
0.0
 40
0.1585173269300211
 40
0.2599203239142082
 40
0.3767455717754368
 40
0.5101743366316052
 40
0.6578903510576951
 40
1.0
 40
1.0
 40
1.0
 40
1.0
 10
-540.1838482155799
 20
25.78231834083511
 30
0.0
 10
-540.1909108504608
 20
25.75226241554118
 30
0.0
 10
-540.1993759305636
 20
25.7022992784558
 30
0.0
 10
-540.2067276608693
 20
25.62930274819142
 30
0.0
 10
-540.212525546666
 20
25.56107309707789
 30
0.0
 10
-540.2164694097728
 20
25.48367445584443
 30
0.0
 10
-540.2204017302557
 20
25.36238149864967
 30
0.0
 10
-540.2205130988249
 20
25.26699029942159
 30
0.0
 10
-540.2210076707081
 20
25.20038725109153
 30
0.0
  0
SPLINE
  5
101
330
1F
100
AcDbEntity
  8
0
  6
Continuous
 62
     7
370
    25
100
AcDbSpline
210
0.0
220
0.0
230
1.0
 70
     8
 71
     3
 72
    13
 73
     9
 74
     0
 42
0.00000001
 43
0.00000001
 40
0.0
 40
0.0
 40
0.0
 40
0.0
 40
0.2700189621433423
 40
0.3907190350710789
 40
0.5068223535253189
 40
0.6215239708754536
 40
0.7391668368063032
 40
1.0
 40
1.0
 40
1.0
 40
1.0
 10
-539.5240926066056
 20
26.28572378955307
 30
0.0
 10
-539.6057439729881
 20
26.28618792711524
 30
0.0
 10
-539.7248757276855
 20
26.2728665793156
 30
0.0
 10
-539.8692964177684
 20
26.2186426622264
 30
0.0
 10
-539.9605358285562
 20
26.16252185810153
 30
0.0
 10
-540.0383839058917
 20
26.0903259733154
 30
0.0
 10
-540.126649923819
 20
25.96874851511166
 30
0.0
 10
-540.1663259145157
 20
25.85912498238851
 30
0.0
 10
-540.1838482155799
 20
25.78231834083511
 30
0.0
  0
SPLINE
  5
102
330
1F
100
AcDbEntity
  8
0
  6
Continuous
 62
     7
370
    25
100
AcDbSpline
210
0.0
220
0.0
230
1.0
 70
     8
 71
     3
 72
    21
 73
    17
 74
     0
 42
0.00000001
 43
0.00000001
 40
0.0
 40
0.0
 40
0.0
 40
0.0
 40
0.1238830745189171
 40
0.1847816479826848
 40
0.2456024656876798
 40
0.3070653910745305
 40
0.3692286662507878
 40
0.4320259048597126
 40
0.4970795873926179
 40
0.5618524691217699
 40
0.6254263815420402
 40
0.6876488370376828
 40
0.7497698060395667
 40
0.8110156280184817
 40
0.8733731419104944
 40
1.0
 40
1.0
 40
1.0
 40
1.0
 10
-538.6540004591697
 20
25.60844013570696
 30
0.0
 10
-538.6665897610917
 20
25.65569698386994
 30
0.0
 10
-538.6910143129418
 20
25.72472917382285
 30
0.0
 10
-538.7345358461489
 20
25.81146124613132
 30
0.0
 10
-538.7716915884168
 20
25.87359888840224
 30
0.0
 10
-538.8147663710507
 20
25.93239726131846
 30
0.0
 10
-538.8623027280878
 20
25.98867329616905
 30
0.0
 10
-538.9156315214702
 20
26.04151767984064
 30
0.0
 10
-538.9729442034758
 20
26.09159695507401
 30
0.0
 10
-539.034547631402
 20
26.13678743593817
 30
0.0
 10
-539.098054398374
 20
26.17733612933804
 30
0.0
 10
-539.1648186491373
 20
26.20986375541911
 30
0.0
 10
-539.2323266000672
 20
26.23853246283259
 30
0.0
 10
-539.3027462248691
 20
26.25937726077099
 30
0.0
 10
-539.3993836799953
 20
26.28026809934858
 30
0.0
 10
-539.4741174660542
 20
26.28596293974872
 30
0.0
 10
-539.5240926066056
 20
26.28572378955307
 30
0.0
  0
SPLINE
  5
103
330
1F
100
AcDbEntity
  8
0
  6
Continuous
 62
     7
370
    25
100
AcDbSpline
210
0.0
220
0.0
230
1.0
 70
     8
 71
     3
 72
    13
 73
     9
 74
     0
 42
0.00000001
 43
0.00000001
 40
0.0
 40
0.0
 40
0.0
 40
0.0
 40
0.3336012413919295
 40
0.4791571975344256
 40
0.6105404974279318
 40
0.7289476063657787
 40
0.8323849228168392
 40
1.0
 40
1.0
 40
1.0
 40
1.0
 10
-538.6056230553236
 20
24.92204189852743
 30
0.0
 10
-538.6060914712572
 20
24.99868541693284
 30
0.0
 10
-538.6059190418956
 20
25.10885700586496
 30
0.0
 10
-538.6124712524258
 20
25.24901644430244
 30
0.0
 10
-538.6167704829512
 20
25.33977592152248
 30
0.0
 10
-538.6238346689747
 20
25.42066237436424
 30
0.0
 10
-538.6342073456887
 20
25.50956684385797
 30
0.0
 10
-538.6446451450295
 20
25.57104236674201
 30
0.0
 10
-538.6540004591697
 20
25.60844013570696
 30
0.0
  0
SPLINE
  5
10B
330
1F
100
AcDbEntity
  8
0
  6
Continuous
 62
     7
370
    25
100
AcDbSpline
210
0.0
220
0.0
230
1.0
 70
     8
 71
     3
 72
    13
 73
     9
 74
     0
 42
0.00000001
 43
0.00000001
 40
0.0
 40
0.0
 40
0.0
 40
0.0
 40
0.2407702368354425
 40
0.3613679915788172
 40
0.4880203848743234
 40
0.6156588752209213
 40
0.7417159076830835
 40
1.0
 40
1.0
 40
1.0
 40
1.0
 10
-537.663315363016
 20
27.36124462288647
 30
0.0
 10
-537.663516517831
 20
27.39690205219258
 30
0.0
 10
-537.6521495563421
 20
27.45020255060404
 30
0.0
 10
-537.6161457784661
 20
27.51331009896307
 30
0.0
 10
-537.5779437763389
 20
27.55386966393214
 30
0.0
 10
-537.5333556107029
 20
27.58831438326481
 30
0.0
 10
-537.4656456275076
 20
27.62310544428126
 30
0.0
 10
-537.4082446873906
 20
27.63180340380356
 30
0.0
 10
-537.3702464527596
 20
27.63187763570696
 30
0.0
  0
SPLINE
  5
10C
330
1F
100
AcDbEntity
  8
0
  6
Continuous
 62
     7
370
    25
100
AcDbSpline
210
0.0
220
0.0
230
1.0
 70
     8
 71
     3
 72
    13
 73
     9
 74
     0
 42
0.00000001
 43
0.00000001
 40
0.0
 40
0.0
 40
0.0
 40
0.0
 40
0.2598496298712539
 40
0.3866707319148509
 40
0.5150828775346947
 40
0.6425029490726826
 40
0.7624536797230972
 40
1.0
 40
1.0
 40
1.0
 40
1.0
 10
-537.3702464527596
 20
27.09341609724536
 30
0.0
 10
-537.4082423807247
 20
27.09349173653586
 30
0.0
 10
-537.465650042233
 20
27.1021855950746
 30
0.0
 10
-537.5333491361421
 20
27.13698330007031
 30
0.0
 10
-537.577968323975
 20
27.17140909154747
 30
0.0
 10
-537.6159176302192
 20
27.21188948629338
 30
0.0
 10
-537.6520770661069
 20
27.27384120645637
 30
0.0
 10
-537.6633896578026
 20
27.32630441508843
 30
0.0
 10
-537.663315363016
 20
27.36124462288647
 30
0.0
  0
SPLINE
  5
10D
330
1F
100
AcDbEntity
  8
0
  6
Continuous
 62
     7
370
    25
100
AcDbSpline
210
0.0
220
0.0
230
1.0
 70
     8
 71
     3
 72
    13
 73
     9
 74
     0
 42
0.00000001
 43
0.00000001
 40
0.0
 40
0.0
 40
0.0
 40
0.0
 40
0.2389149952220574
 40
0.3595568481745961
 40
0.486634766847336
 40
0.6157867870573872
 40
0.7433385965465394
 40
1.0
 40
1.0
 40
1.0
 40
1.0
 10
-537.0799820296826
 20
27.36124462288647
 30
0.0
 10
-537.0799481777393
 20
27.32634095903419
 30
0.0
 10
-537.091140447029
 20
27.27376902769329
 30
0.0
 10
-537.1274234217293
 20
27.21213776139741
 30
0.0
 10
-537.164604640519
 20
27.17118247918637
 30
0.0
 10
-537.2092808401756
 20
27.13699658851343
 30
0.0
 10
-537.276338542575
 20
27.10259600604781
 30
0.0
 10
-537.3328462013702
 20
27.09318091146473
 30
0.0
 10
-537.3702464527596
 20
27.09341609724536
 30
0.0
  0
SPLINE
  5
10E
330
1F
100
AcDbEntity
  8
0
  6
Continuous
 62
     7
370
    25
100
AcDbSpline
210
0.0
220
0.0
230
1.0
 70
     8
 71
     3
 72
    13
 73
     9
 74
     0
 42
0.00000001
 43
0.00000001
 40
0.0
 40
0.0
 40
0.0
 40
0.0
 40
0.2551062187428466
 40
0.3818851554071034
 40
0.5102546066587019
 40
0.6365625239462811
 40
0.757850918666084
 40
1.0
 40
1.0
 40
1.0
 40
1.0
 10
-537.3702464527596
 20
27.63187763570696
 30
0.0
 10
-537.3328439119861
 20
27.63211422401768
 30
0.0
 10
-537.2763429236492
 20
27.62269504295689
 30
0.0
 10
-537.2092743047459
 20
27.58830114819477
 30
0.0
 10
-537.1646293127667
 20
27.55409613897453
 30
0.0
 10
-537.127197780152
 20
27.51305982589769
 30
0.0
 10
-537.0910660453354
 20
27.45027652103471
 30
0.0
 10
-537.0798228657266
 20
27.39686407636255
 30
0.0
 10
-537.0799820296826
 20
27.36124462288647
 30
0.0
  0
SPLINE
  5
10F
330
1F
100
AcDbEntity
  8
0
  6
Continuous
 62
     7
370
    25
100
AcDbSpline
210
0.0
220
0.0
230
1.0
 70
     8
 71
     3
 72
    13
 73
     9
 74
     0
 42
0.00000001
 43
0.00000001
 40
0.0
 40
0.0
 40
0.0
 40
0.0
 40
0.2531294102724398
 40
0.3753070134590596
 40
0.4961956083998793
 40
0.617866023907437
 40
0.7416676494858144
 40
1.0
 40
1.0
 40
1.0
 40
1.0
 10
-534.9345493373747
 20
26.17845215493775
 30
0.0
 10
-534.8723908533843
 20
26.24638876008911
 30
0.0
 10
-534.7707755474437
 20
26.3391108851706
 30
0.0
 10
-534.6184115497896
 20
26.43665721617916
 30
0.0
 10
-534.5000319056599
 20
26.49738542907054
 30
0.0
 10
-534.374235992067
 20
26.54259134126957
 30
0.0
 10
-534.1961108636125
 20
26.5872353124037
 30
0.0
 10
-534.0568846909916
 20
26.60080099425322
 30
0.0
 10
-533.9627945296825
 20
26.59982635365565
 30
0.0
  0
SPLINE
  5
110
330
1F
100
AcDbEntity
  8
0
  6
Continuous
 62
     7
370
    25
100
AcDbSpline
210
0.0
220
0.0
230
1.0
 70
     8
 71
     3
 72
    13
 73
     9
 74
     0
 42
0.00000001
 43
0.00000001
 40
0.0
 40
0.0
 40
0.0
 40
0.0
 40
0.2554352550956477
 40
0.3786322712675499
 40
0.5014663143321101
 40
0.6234943774777817
 40
0.746165637203275
 40
1.0
 40
1.0
 40
1.0
 40
1.0
 10
-535.2851102348106
 20
25.269097186989
 30
0.0
 10
-535.2846358460167
 20
25.35403403357384
 30
0.0
 10
-535.2751520372915
 20
25.48027599650271
 30
0.0
 10
-535.2379600547107
 20
25.64321529622205
 30
0.0
 10
-535.1993178852609
 20
25.75959649764525
 30
0.0
 10
-535.1502138104181
 20
25.87181500362323
 30
0.0
 10
-535.0679744104299
 20
26.01617579436899
 30
0.0
 10
-534.9915803471106
 20
26.11611423456062
 30
0.0
 10
-534.9345493373747
 20
26.17845215493775
 30
0.0
  0
SPLINE
  5
111
330
1F
100
AcDbEntity
  8
0
  6
Continuous
 62
     7
370
    25
100
AcDbSpline
210
0.0
220
0.0
230
1.0
 70
     8
 71
     3
 72
    21
 73
    17
 74
     0
 42
0.00000001
 43
0.00000001
 40
0.0
 40
0.0
 40
0.0
 40
0.0
 40
0.1341341587220424
 40
0.1979034644236247
 40
0.2604831025120542
 40
0.322145528691671
 40
0.3837784671889386
 40
0.446215423207863
 40
0.5103409574898141
 40
0.5743946950476086
 40
0.6362264024960824
 40
0.6971016460802506
 40
0.7568275569302938
 40
0.8167348601469018
 40
0.8766630214626719
 40
1.0
 40
1.0
 40
1.0
 40
1.0
 10
-533.9627945296825
 20
23.95239045621977
 30
0.0
 10
-534.0557445790693
 20
23.9527544217738
 30
0.0
 10
-534.1932718758866
 20
23.96343130598189
 30
0.0
 10
-534.3693270375871
 20
24.00528314505146
 30
0.0
 10
-534.4923930640543
 20
24.04895461753087
 30
0.0
 10
-534.6090367992734
 20
24.10440106453493
 30
0.0
 10
-534.7181907357286
 20
24.17321990883081
 30
0.0
 10
-534.8213068924892
 20
24.25354890963882
 30
0.0
 10
-534.916358835778
 20
24.34571492238169
 30
0.0
 10
-535.0023625572873
 20
24.44571681527985
 30
0.0
 10
-535.0782351686861
 20
24.55086893275882
 30
0.0
 10
-535.1421222495371
 20
24.66027849229224
 30
0.0
 10
-535.1944935479918
 20
24.77416129456145
 30
0.0
 10
-535.2352762027901
 20
24.89202007878099
 30
0.0
 10
-535.2739077915203
 20
25.05640888243033
 30
0.0
 10
-535.2856171440834
 20
25.18352976702076
 30
0.0
 10
-535.2851102348106
 20
25.269097186989
 30
0.0
  0
SPLINE
  5
112
330
1F
100
AcDbEntity
  8
0
  6
Continuous
 62
     7
370
    25
100
AcDbSpline
210
0.0
220
0.0
230
1.0
 70
     8
 71
     3
 72
    21
 73
    17
 74
     0
 42
0.00000001
 43
0.00000001
 40
0.0
 40
0.0
 40
0.0
 40
0.0
 40
0.1231816483428002
 40
0.1830343363247268
 40
0.2428661924761439
 40
0.3025168847059427
 40
0.3633154622039138
 40
0.4250692989986412
 40
0.4890423674851742
 40
0.553087142275227
 40
0.6154454653923731
 40
0.6772864118409536
 40
0.739174987439565
 40
0.8016758129328341
 40
0.8653648077757379
 40
1.0
 40
1.0
 40
1.0
 40
1.0
 10
-532.6376743373747
 20
25.269097186989
 30
0.0
 10
-532.6371674299892
 20
25.18352976986193
 30
0.0
 10
-532.6488767770111
 20
25.05640887692906
 30
0.0
 10
-532.6875083747102
 20
24.89202008678271
 30
0.0
 10
-532.7282910042816
 20
24.77416126458465
 30
0.0
 10
-532.7806623973426
 20
24.66027860474229
 30
0.0
 10
-532.8445491168258
 20
24.55086850118015
 30
0.0
 10
-532.9204231193717
 20
24.44571847803323
 30
0.0
 10
-533.0064214496491
 20
24.34570846879025
 30
0.0
 10
-533.1014935004554
 20
24.25357272733841
 30
0.0
 10
-533.2046934271352
 20
24.17301186313647
 30
0.0
 10
-533.3144798162588
 20
24.10440278384607
 30
0.0
 10
-533.4316250845015
 20
24.0490984737608
 30
0.0
 10
-533.5548520803508
 20
24.0052680218793
 30
0.0
 10
-533.7313705583562
 20
23.96330864149165
 30
0.0
 10
-533.8693889133476
 20
23.95281254881909
 30
0.0
 10
-533.9627945296825
 20
23.95239045621977
 30
0.0
  0
SPLINE
  5
113
330
1F
100
AcDbEntity
  8
0
  6
Continuous
 62
     7
370
    25
100
AcDbSpline
210
0.0
220
0.0
230
1.0
 70
     8
 71
     3
 72
    13
 73
     9
 74
     0
 42
0.00000001
 43
0.00000001
 40
0.0
 40
0.0
 40
0.0
 40
0.0
 40
0.2537592050616079
 40
0.3772863205702288
 40
0.4989121128148862
 40
0.6213214040214711
 40
0.7447622750750945
 40
1.0
 40
1.0
 40
1.0
 40
1.0
 10
-532.9882352348106
 20
26.17634878955311
 30
0.0
 10
-532.9318219349254
 20
26.11383789135835
 30
0.0
 10
-532.8541234469837
 20
26.01472255511106
 30
0.0
 10
-532.7729681724545
 20
25.86996960816212
 30
0.0
 10
-532.7234198212193
 20
25.75823788300657
 30
0.0
 10
-532.6847291053919
 20
25.64230718674598
 30
0.0
 10
-532.6477162197674
 20
25.47979629818375
 30
0.0
 10
-532.6381686041242
 20
25.3538039843223
 30
0.0
 10
-532.6376743373747
 20
25.269097186989
 30
0.0
  0
SPLINE
  5
114
330
1F
100
AcDbEntity
  8
0
  6
Continuous
 62
     7
370
    25
100
AcDbSpline
210
0.0
220
0.0
230
1.0
 70
     8
 71
     3
 72
    13
 73
     9
 74
     0
 42
0.00000001
 43
0.00000001
 40
0.0
 40
0.0
 40
0.0
 40
0.0
 40
0.2587123826906848
 40
0.3820894432542115
 40
0.5035635736272535
 40
0.6251808674329538
 40
0.7472870144846054
 40
1.0
 40
1.0
 40
1.0
 40
1.0
 10
-533.9627945296825
 20
26.59982635365565
 30
0.0
 10
-533.8682272224587
 20
26.60068970937524
 30
0.0
 10
-533.7286012586958
 20
26.58720428799122
 30
0.0
 10
-533.5497526377845
 20
26.54285815905122
 30
0.0
 10
-533.4240579567006
 20
26.49608650861502
 30
0.0
 10
-533.3043766185676
 20
26.43655513401799
 30
0.0
 10
-533.1523743919295
 20
26.33703472165017
 30
0.0
 10
-533.049853923739
 20
26.24519360723776
 30
0.0
 10
-532.9882352348106
 20
26.17634878955311
 30
0.0
  0
SPLINE
  5
117
330
1F
100
AcDbEntity
  8
0
  6
Continuous
 62
     7
370
    25
100
AcDbSpline
210
0.0
220
0.0
230
1.0
 70
     8
 71
     3
 72
    13
 73
     9
 74
     0
 42
0.00000001
 43
0.00000001
 40
0.0
 40
0.0
 40
0.0
 40
0.0
 40
0.2538522779533839
 40
0.3748219688612686
 40
0.4942293474545227
 40
0.6139389177356217
 40
0.736955317238862
 40
1.0
 40
1.0
 40
1.0
 40
1.0
 10
-530.7544611963493
 20
26.59982635365565
 30
0.0
 10
-530.6527405328034
 20
26.59950490667762
 30
0.0
 10
-530.5016628141625
 20
26.58645413776106
 30
0.0
 10
-530.3104276540929
 20
26.5323049362588
 30
0.0
 10
-530.1759944471327
 20
26.47854117913517
 30
0.0
 10
-530.0488786767875
 20
26.40711161463516
 30
0.0
 10
-529.8876005981647
 20
26.28294037385515
 30
0.0
 10
-529.7831729060513
 20
26.16700679500217
 30
0.0
 10
-529.7210076707083
 20
26.08169734724541
 30
0.0
  0
SPLINE
  5
118
330
1F
100
AcDbEntity
  8
0
  6
Continuous
 62
     7
370
    25
100
AcDbSpline
210
0.0
220
0.0
230
1.0
 70
     8
 71
     3
 72
    21
 73
    17
 74
     0
 42
0.00000001
 43
0.00000001
 40
0.0
 40
0.0
 40
0.0
 40
0.0
 40
0.1260146004816713
 40
0.1868089060952329
 40
0.2474478502843892
 40
0.307846495991717
 40
0.3691210183050324
 40
0.4319903131536156
 40
0.4967149000659745
 40
0.5615019172671396
 40
0.6247727207665961
 40
0.6865537243536204
 40
0.7478749627318974
 40
0.8093470980883342
 40
0.8713639494369316
 40
1.0
 40
1.0
 40
1.0
 40
1.0
 10
-532.0992127989134
 20
25.28311962288643
 30
0.0
 10
-532.0986997242
 20
25.37094024094277
 30
0.0
 10
-532.0879548301602
 20
25.50154642676949
 30
0.0
 10
-532.0459805960988
 20
25.66929190563694
 30
0.0
 10
-532.0024112071054
 20
25.78860950658168
 30
0.0
 10
-531.946730491843
 20
25.90320203362451
 30
0.0
 10
-531.8778614292056
 20
26.01216450449351
 30
0.0
 10
-531.7980144595498
 20
26.11718682880992
 30
0.0
 10
-531.7056933089177
 20
26.21481513553137
 30
0.0
 10
-531.6057770700418
 20
26.30504710438042
 30
0.0
 10
-531.4988634959477
 20
26.38345396205077
 30
0.0
 10
-531.3876415147597
 20
26.45116858148477
 30
0.0
 10
-531.270377998029
 20
26.50483296832695
 30
0.0
 10
-531.148811639653
 20
26.54820047204587
 30
0.0
 10
-530.9773775456453
 20
26.58896849264259
 30
0.0
 10
-530.8440939270262
 20
26.59892823142229
 30
0.0
 10
-530.7544611963493
 20
26.59982635365565
 30
0.0
  0
SPLINE
  5
119
330
1F
100
AcDbEntity
  8
0
  6
Continuous
 62
     7
370
    25
100
AcDbSpline
210
0.0
220
0.0
230
1.0
 70
     8
 71
     3
 72
    21
 73
    17
 74
     0
 42
0.00000001
 43
0.00000001
 40
0.0
 40
0.0
 40
0.0
 40
0.0
 40
0.1277002390698747
 40
0.1892398000966456
 40
0.2501349882872971
 40
0.310842710086852
 40
0.372472090731707
 40
0.4350506334534636
 40
0.4996544386258899
 40
0.5642374836643663
 40
0.6267499200713567
 40
0.6882667786363572
 40
0.7494201652676098
 40
0.8104262745821135
 40
0.8719658356088787
 40
1.0
 40
1.0
 40
1.0
 40
1.0
 10
-530.7642769014775
 20
23.95239045621977
 30
0.0
 10
-530.8535245123539
 20
23.95271317302761
 30
0.0
 10
-530.9860533189915
 20
23.96401736529818
 30
0.0
 10
-531.1563404458597
 20
24.00496815027076
 30
0.0
 10
-531.2776150336166
 20
24.04681853205204
 30
0.0
 10
-531.3932874802523
 20
24.10241265338786
 30
0.0
 10
-531.5043463337074
 20
24.16895098825067
 30
0.0
 10
-531.6102238274901
 20
24.24818989425814
 30
0.0
 10
-531.7092768223674
 20
24.33878897567187
 30
0.0
 10
-531.8005777114423
 20
24.43714193493796
 30
0.0
 10
-531.8804650420291
 20
24.54233563388208
 30
0.0
 10
-531.9481664563009
 20
24.65294199057666
 30
0.0
 10
-532.0038195738667
 20
24.76892580179724
 30
0.0
 10
-532.0468343778848
 20
24.89020246494689
 30
0.0
 10
-532.0874887468176
 20
25.06092316836228
 30
0.0
 10
-532.0990095595885
 20
25.19361037266288
 30
0.0
 10
-532.0992127989134
 20
25.28311962288643
 30
0.0
  0
SPLINE
  5
11A
330
1F
100
AcDbEntity
  8
0
  6
Continuous
 62
     7
370
    25
100
AcDbSpline
210
0.0
220
0.0
230
1.0
 70
     8
 71
     3
 72
    13
 73
     9
 74
     0
 42
0.00000001
 43
0.00000001
 40
0.0
 40
0.0
 40
0.0
 40
0.0
 40
0.2620026798763646
 40
0.3865990120013839
 40
0.5078842295733161
 40
0.6287697964346921
 40
0.7494522178423595
 40
1.0
 40
1.0
 40
1.0
 40
1.0
 10
-529.7210076707083
 20
24.46070375750187
 30
0.0
 10
-529.7885490000158
 20
24.3805644813796
 30
0.0
 10
-529.8975816077084
 20
24.26937911488169
 30
0.0
 10
-530.0626446666996
 20
24.14987900816101
 30
0.0
 10
-530.1907769982124
 20
24.07757701804869
 30
0.0
 10
-530.324978519446
 20
24.02095904937451
 30
0.0
 10
-530.5153028988902
 20
23.96839373658743
 30
0.0
 10
-530.663806693359
 20
23.95123054334014
 30
0.0
 10
-530.7642769014775
 20
23.95239045621977
 30
0.0
  0
SPLINE
  5
12B
330
1F
100
AcDbEntity
  8
0
  6
Continuous
 62
     7
370
    25
100
AcDbSpline
210
0.0
220
0.0
230
1.0
 70
     8
 71
     3
 72
    17
 73
    13
 74
     0
 42
0.00000001
 43
0.00000001
 40
0.0
 40
0.0
 40
0.0
 40
0.0
 40
0.1781058515637827
 40
0.2613277635121511
 40
0.3415565694705521
 40
0.4200079090126525
 40
0.4980968161626226
 40
0.5754001382821239
 40
0.6536452159657116
 40
0.7341257729573898
 40
0.8183392339289949
 40
1.0
 40
1.0
 40
1.0
 40
1.0
 10
-525.1293610360927
 20
23.95239045621977
 30
0.0
 10
-525.2156548278506
 20
23.95240161639423
 30
0.0
 10
-525.3425313096207
 20
23.96105583742592
 30
0.0
 10
-525.5049145821966
 20
23.99438153555322
 30
0.0
 10
-525.6172132317383
 20
24.02875977033048
 30
0.0
 10
-525.7230630481653
 20
24.07352046202793
 30
0.0
 10
-525.8233523636806
 20
24.12663654405367
 30
0.0
 10
-525.9180829506922
 20
24.18897606102888
 30
0.0
 10
-526.0077605567207
 20
24.26022301050401
 30
0.0
 10
-526.0928335494625
 20
24.34196942868572
 30
0.0
 10
-526.1997794335704
 20
24.47173158340654
 30
0.0
 10
-526.2692504243306
 20
24.58072746912954
 30
0.0
 10
-526.3107512604516
 20
24.65842010365571
 30
0.0
  0
SPLINE
  5
12C
330
1F
100
AcDbEntity
  8
0
  6
Continuous
 62
     7
370
    25
100
AcDbSpline
210
0.0
220
0.0
230
1.0
 70
     8
 71
     3
 72
    21
 73
    17
 74
     0
 42
0.00000001
 43
0.00000001
 40
0.0
 40
0.0
 40
0.0
 40
0.0
 40
0.1210804245006118
 40
0.1800682782218559
 40
0.2391896643238556
 40
0.2987059533012314
 40
0.3588810785072301
 40
0.4203687292950606
 40
0.4834483096802261
 40
0.5465664849029384
 40
0.6086986022254206
 40
0.670186253013248
 40
0.7318650366033053
 40
0.7952033026033165
 40
0.8603707753071415
 40
1.0
 40
1.0
 40
1.0
 40
1.0
 10
-523.842802542503
 20
25.269097186989
 30
0.0
 10
-523.8437172697403
 20
25.18607454663901
 30
0.0
 10
-523.8524968940396
 20
25.06222273965108
 30
0.0
 10
-523.8885781783125
 20
24.90177559542161
 30
0.0
 10
-523.9269535752262
 20
24.78591321993751
 30
0.0
 10
-523.9745141550734
 20
24.6726422862259
 30
0.0
 10
-524.0329694137727
 20
24.56267917002542
 30
0.0
 10
-524.1028958329601
 20
24.45672326874593
 30
0.0
 10
-524.182139551975
 20
24.35504126577326
 30
0.0
 10
-524.2701637974988
 20
24.26002502245051
 30
0.0
 10
-524.3689833423058
 20
24.17789202679021
 30
0.0
 10
-524.4754840870019
 20
24.10793527834099
 30
0.0
 10
-524.5902267655047
 20
24.05049765125278
 30
0.0
 10
-524.7134368177285
 20
24.00657197746614
 30
0.0
 10
-524.8926686607599
 20
23.96342562216258
 30
0.0
 10
-525.0335903560984
 20
23.95242933912123
 30
0.0
 10
-525.1293610360927
 20
23.95239045621977
 30
0.0
  0
SPLINE
  5
12D
330
1F
100
AcDbEntity
  8
0
  6
Continuous
 62
     7
370
    25
100
AcDbSpline
210
0.0
220
0.0
230
1.0
 70
     8
 71
     3
 72
    13
 73
     9
 74
     0
 42
0.00000001
 43
0.00000001
 40
0.0
 40
0.0
 40
0.0
 40
0.0
 40
0.2534216680665266
 40
0.3767041167575432
 40
0.4994491585174913
 40
0.6225715734186964
 40
0.7462320999755214
 40
1.0
 40
1.0
 40
1.0
 40
1.0
 10
-524.1372736963492
 20
26.12306353314287
 30
0.0
 10
-524.0897224338545
 20
26.06157170931755
 30
0.0
 10
-524.0245586011259
 20
25.96550243803708
 30
0.0
 10
-523.9563858247694
 20
25.82799140180547
 30
0.0
 10
-523.9148067230485
 20
25.72245115208749
 30
0.0
 10
-523.8826592903217
 20
25.61356346027199
 30
0.0
 10
-523.8510319107642
 20
25.46301974931275
 30
0.0
 10
-523.8437558307082
 20
25.3468908891481
 30
0.0
 10
-523.842802542503
 20
25.269097186989
 30
0.0
  0
SPLINE
  5
12E
330
1F
100
AcDbEntity
  8
0
  6
Continuous
 62
     7
370
    25
100
AcDbSpline
210
0.0
220
0.0
230
1.0
 70
     8
 71
     3
 72
    13
 73
     9
 74
     0
 42
0.00000001
 43
0.00000001
 40
0.0
 40
0.0
 40
0.0
 40
0.0
 40
0.2602406645595056
 40
0.3836752253642184
 40
0.5046599577622765
 40
0.6253567426858504
 40
0.7464106650135791
 40
1.0
 40
1.0
 40
1.0
 40
1.0
 10
-525.1370733758364
 20
26.59982635365565
 30
0.0
 10
-525.03761716472
 20
26.59862777346922
 30
0.0
 10
-524.8897413677438
 20
26.58759892260998
 30
0.0
 10
-524.703195341773
 20
26.53510451972163
 30
0.0
 10
-524.5728539070493
 20
26.48347199000545
 30
0.0
 10
-524.4512768840178
 20
26.41543244464073
 30
0.0
 10
-524.2966147320385
 20
26.30466991766556
 30
0.0
 10
-524.1978467566324
 20
26.19878808229559
 30
0.0
 10
-524.1372736963492
 20
26.12306353314287
 30
0.0
  0
SPLINE
  5
12F
330
1F
100
AcDbEntity
  8
0
  6
Continuous
 62
     7
370
    25
100
AcDbSpline
210
0.0
220
0.0
230
1.0
 70
     8
 71
     3
 72
    13
 73
     9
 74
     0
 42
0.00000001
 43
0.00000001
 40
0.0
 40
0.0
 40
0.0
 40
0.0
 40
0.255257368140996
 40
0.3772478104725325
 40
0.4977415562850415
 40
0.6181201760750441
 40
0.7409671592206359
 40
1.0
 40
1.0
 40
1.0
 40
1.0
 10
-526.1670212925031
 20
26.09642090493769
 30
0.0
 10
-526.1056341488097
 20
26.17708101753691
 30
0.0
 10
-526.0021912346715
 20
26.2867207079589
 30
0.0
 10
-525.8439160588794
 20
26.40579149326017
 30
0.0
 10
-525.7182465473036
 20
26.47700323996782
 30
0.0
 10
-525.5844022017969
 20
26.53208887145719
 30
0.0
 10
-525.3918091386447
 20
26.58537812161654
 30
0.0
 10
-525.2399008779166
 20
26.60025832723722
 30
0.0
 10
-525.1370733758364
 20
26.59982635365565
 30
0.0
  0
SPLINE
  5
130
330
1F
100
AcDbEntity
  8
0
  6
Continuous
 62
     7
370
    25
100
AcDbSpline
210
0.0
220
0.0
230
1.0
 70
     8
 71
     3
 72
    13
 73
     9
 74
     0
 42
0.00000001
 43
0.00000001
 40
0.0
 40
0.0
 40
0.0
 40
0.0
 40
0.2703816178319617
 40
0.3984601291783004
 40
0.5227503451014437
 40
0.6438255660090793
 40
0.7637452368382556
 40
1.0
 40
1.0
 40
1.0
 40
1.0
 10
-526.4453666450671
 20
25.20880071262999
 30
0.0
 10
-526.4437771804128
 20
25.29406035411341
 30
0.0
 10
-526.4364161469108
 20
25.42004269347253
 30
0.0
 10
-526.4058146634859
 20
25.58239881192259
 30
0.0
 10
-526.3748045304255
 20
25.69622516255754
 30
0.0
 10
-526.3364277527563
 20
25.80510689635052
 30
0.0
 10
-526.2728169847621
 20
25.94189291824112
 30
0.0
 10
-526.212907944376
 20
26.03753208158843
 30
0.0
 10
-526.167021292503
 20
26.09642090493769
 30
0.0
  0
SPLINE
  5
132
330
1F
100
AcDbEntity
  8
0
  6
Continuous
 62
     7
370
    25
100
AcDbSpline
210
0.0
220
0.0
230
1.0
 70
     8
 71
     3
 72
    21
 73
    17
 74
     0
 42
0.00000001
 43
0.00000001
 40
0.0
 40
0.0
 40
0.0
 40
0.0
 40
0.1276691474530424
 40
0.1889505232706536
 40
0.2490548673082992
 40
0.3090713134763196
 40
0.3692223593686933
 40
0.4301747620269846
 40
0.4926019887960209
 40
0.555346876893578
 40
0.6169627615204942
 40
0.678170777192346
 40
0.73924652255152
 40
0.8016089422160485
 40
0.8655244124565523
 40
1.0
 40
1.0
 40
1.0
 40
1.0
 10
-525.0900982155799
 20
24.26649302032235
 30
0.0
 10
-525.0270870611959
 20
24.2661433360194
 30
0.0
 10
-524.933958810303
 20
24.27486230068077
 30
0.0
 10
-524.8139767452308
 20
24.30192876066151
 30
0.0
 10
-524.729204470171
 20
24.33099983173859
 30
0.0
 10
-524.6483065174976
 20
24.3681890939299
 30
0.0
 10
-524.571412915275
 20
24.41399216866957
 30
0.0
 10
-524.499130185961
 20
24.46864463318532
 30
0.0
 10
-524.4304230559882
 20
24.52970520515629
 30
0.0
 10
-524.3686974771824
 20
24.59827239169976
 30
0.0
 10
-524.3133574840645
 20
24.67131031694558
 30
0.0
 10
-524.2669733876274
 20
24.74947232532399
 30
0.0
 10
-524.2291004731194
 20
24.83240257236363
 30
0.0
 10
-524.197854708168
 20
24.9194851521114
 30
0.0
 10
-524.1675741774948
 20
25.04469844335966
 30
0.0
 10
-524.1586938310752
 20
25.14255470162119
 30
0.0
 10
-524.1569051066056
 20
25.20880071262999
 30
0.0
  0
SPLINE
  5
133
330
1F
100
AcDbEntity
  8
0
  6
Continuous
 62
     7
370
    25
100
AcDbSpline
210
0.0
220
0.0
230
1.0
 70
     8
 71
     3
 72
    17
 73
    13
 74
     0
 42
0.00000001
 43
0.00000001
 40
0.0
 40
0.0
 40
0.0
 40
0.0
 40
0.2079350339033564
 40
0.2946939715678991
 40
0.3697315241424307
 40
0.440830943802725
 40
0.5142509140460771
 40
0.5913900390896499
 40
0.6722743046458497
 40
0.7543412603705406
 40
0.8361211059014766
 40
1.0
 40
1.0
 40
1.0
 40
1.0
 10
-526.0317047860927
 20
24.80495455878384
 30
0.0
 10
-525.98918006009
 20
24.73840707488084
 30
0.0
 10
-525.9220642904197
 20
24.64877660942932
 30
0.0
 10
-525.8285665014192
 20
24.54395767780026
 30
0.0
 10
-525.7625146615853
 20
24.48493635266713
 30
0.0
 10
-525.6943930426972
 20
24.43672999489832
 30
0.0
 10
-525.621514098712
 20
24.39457885283558
 30
0.0
 10
-525.5422682003812
 20
24.35647834035026
 30
0.0
 10
-525.4566973886298
 20
24.32489310966379
 30
0.0
 10
-525.3674366453663
 20
24.29903483287321
 30
0.0
 10
-525.2455883518938
 20
24.27351525084698
 30
0.0
 10
-525.15229211952
 20
24.26619218957315
 30
0.0
 10
-525.0900982155799
 20
24.26649302032235
 30
0.0
  0
SPLINE
  5
137
330
1F
100
AcDbEntity
  8
0
  6
Continuous
 62
     7
370
    25
100
AcDbSpline
210
0.0
220
0.0
230
1.0
 70
     8
 71
     3
 72
    13
 73
     9
 74
     0
 42
0.00000001
 43
0.00000001
 40
0.0
 40
0.0
 40
0.0
 40
0.0
 40
0.2518550583969853
 40
0.3726997642744652
 40
0.4928354033771648
 40
0.6137300878654817
 40
0.7379150246176973
 40
1.0
 40
1.0
 40
1.0
 40
1.0
 10
-516.5160797860929
 20
23.95239045621977
 30
0.0
 10
-516.6163159655806
 20
23.95158310576873
 30
0.0
 10
-516.7647288224441
 20
23.96632065798976
 30
0.0
 10
-516.9547816780771
 20
24.01574026370956
 30
0.0
 10
-517.0897088848162
 20
24.06686415169379
 30
0.0
 10
-517.2183751637555
 20
24.13505526503168
 30
0.0
 10
-517.3850027542449
 20
24.24968943247008
 30
0.0
 10
-517.4935137051983
 20
24.36021890662066
 30
0.0
 10
-517.5607512604518
 20
24.43967010365566
 30
0.0
  0
SPLINE
  5
138
330
1F
100
AcDbEntity
  8
0
  6
Continuous
 62
     7
370
    25
100
AcDbSpline
210
0.0
220
0.0
230
1.0
 70
     8
 71
     3
 72
    21
 73
    17
 74
     0
 42
0.00000001
 43
0.00000001
 40
0.0
 40
0.0
 40
0.0
 40
0.0
 40
0.1280988297755863
 40
0.1896694721890465
 40
0.2507063934632511
 40
0.311890666438603
 40
0.3732647830705283
 40
0.4358087922280679
 40
0.500424455805957
 40
0.5650608900029817
 40
0.6276710388631751
 40
0.6893315462593366
 40
0.7500699293139468
 40
0.8109958734420368
 40
0.8725665158555028
 40
1.0
 40
1.0
 40
1.0
 40
1.0
 10
-515.1825461322467
 20
25.28311962288643
 30
0.0
 10
-515.1827541245088
 20
25.19361326685798
 30
0.0
 10
-515.1942610584439
 20
25.06091761134965
 30
0.0
 10
-515.234937634489
 20
24.89021043046058
 30
0.0
 10
-515.2778906795968
 20
24.76889616059841
 30
0.0
 10
-515.3337223609481
 20
24.65316283372343
 30
0.0
 10
-515.4004723091138
 20
24.54212057248872
 30
0.0
 10
-515.480534442874
 20
24.43717502942622
 30
0.0
 10
-515.5717662047806
 20
24.33877998108724
 30
0.0
 10
-515.6708378034944
 20
24.24819219254881
 30
0.0
 10
-515.776710496048
 20
24.16895049582757
 30
0.0
 10
-515.8877705343697
 20
24.10241239820598
 30
0.0
 10
-516.0034429088468
 20
24.04682001100566
 30
0.0
 10
-516.1247166197356
 20
24.00496243606698
 30
0.0
 10
-516.2947832636155
 20
23.96410296397822
 30
0.0
 10
-516.427050374461
 20
23.95260855588732
 30
0.0
 10
-516.5160797860929
 20
23.95239045621977
 30
0.0
  0
SPLINE
  5
139
330
1F
100
AcDbEntity
  8
0
  6
Continuous
 62
     7
370
    25
100
AcDbSpline
210
0.0
220
0.0
230
1.0
 70
     8
 71
     3
 72
    21
 73
    17
 74
     0
 42
0.00000001
 43
0.00000001
 40
0.0
 40
0.0
 40
0.0
 40
0.0
 40
0.1283692574311769
 40
0.190417708860092
 40
0.2519211667422389
 40
0.3132736507580476
 40
0.3750861342515197
 40
0.438389176770406
 40
0.5032092055629105
 40
0.5679667722557898
 40
0.630868101539027
 40
0.6919966438355534
 40
0.7524260650823844
 40
0.8130959072527861
 40
0.8739211900104884
 40
1.0
 40
1.0
 40
1.0
 40
1.0
 10
-516.5258954912209
 20
26.59982635365565
 30
0.0
 10
-516.43648225893
 20
26.59902873199682
 30
0.0
 10
-516.3034581379961
 20
26.58888532815462
 30
0.0
 10
-516.1322455037238
 20
26.5482058437303
 30
0.0
 10
-516.0106799235665
 20
26.50483157923444
 30
0.0
 10
-515.8934165071194
 20
26.45116880480791
 30
0.0
 10
-515.7821933320914
 20
26.38345447543134
 30
0.0
 10
-515.6752845860944
 20
26.30504473459205
 30
0.0
 10
-515.5753497653358
 20
26.21482431010547
 30
0.0
 10
-515.48309757502
 20
26.11715304114304
 30
0.0
 10
-515.4030776640616
 20
26.01238362307534
 30
0.0
 10
-515.3351524050915
 20
25.90297971670319
 30
0.0
 10
-515.2793000587662
 20
25.78863921890328
 30
0.0
 10
-515.2357910916802
 20
25.66928395375456
 30
0.0
 10
-515.1937952606709
 20
25.50155193741899
 30
0.0
 10
-515.1830637857779
 20
25.3709373867208
 30
0.0
 10
-515.1825461322467
 20
25.28311962288643
 30
0.0
  0
SPLINE
  5
13A
330
1F
100
AcDbEntity
  8
0
  6
Continuous
 62
     7
370
    25
100
AcDbSpline
210
0.0
220
0.0
230
1.0
 70
     8
 71
     3
 72
    13
 73
     9
 74
     0
 42
0.00000001
 43
0.00000001
 40
0.0
 40
0.0
 40
0.0
 40
0.0
 40
0.2618944458316544
 40
0.3852022807004848
 40
0.5047447481824054
 40
0.6239854458062233
 40
0.745346469102679
 40
1.0
 40
1.0
 40
1.0
 40
1.0
 10
-517.5607512604518
 20
26.08169734724541
 30
0.0
 10
-517.4988213059383
 20
26.16665521891304
 30
0.0
 10
-517.3955519076865
 20
26.28372179434568
 30
0.0
 10
-517.2336289068353
 20
26.40687593481861
 30
0.0
 10
-517.1064923571678
 20
26.47856675114446
 30
0.0
 10
-516.9718292819402
 20
26.53242838440284
 30
0.0
 10
-516.7798315057674
 20
26.58640731876205
 30
0.0
 10
-516.6280881746487
 20
26.59952738384086
 30
0.0
 10
-516.5258954912209
 20
26.59982635365565
 30
0.0
  0
SPLINE
  5
13D
330
1F
100
AcDbEntity
  8
0
  6
Continuous
 62
     7
370
    25
100
AcDbSpline
210
0.0
220
0.0
230
1.0
 70
     8
 71
     3
 72
    13
 73
     9
 74
     0
 42
0.00000001
 43
0.00000001
 40
0.0
 40
0.0
 40
0.0
 40
0.0
 40
0.2407702368354425
 40
0.3613679915788172
 40
0.4880203848743234
 40
0.6156588752209213
 40
0.7417159076830835
 40
1.0
 40
1.0
 40
1.0
 40
1.0
 10
-518.9966486963492
 20
27.36124462288647
 30
0.0
 10
-518.9968498511645
 20
27.39690205219258
 30
0.0
 10
-518.9854828896753
 20
27.45020255060404
 30
0.0
 10
-518.9494791117995
 20
27.51331009896307
 30
0.0
 10
-518.911277109672
 20
27.55386966393214
 30
0.0
 10
-518.8666889440365
 20
27.58831438326481
 30
0.0
 10
-518.7989789608407
 20
27.62310544428126
 30
0.0
 10
-518.7415780207239
 20
27.63180340380356
 30
0.0
 10
-518.7035797860929
 20
27.63187763570696
 30
0.0
  0
SPLINE
  5
13E
330
1F
100
AcDbEntity
  8
0
  6
Continuous
 62
     7
370
    25
100
AcDbSpline
210
0.0
220
0.0
230
1.0
 70
     8
 71
     3
 72
    13
 73
     9
 74
     0
 42
0.00000001
 43
0.00000001
 40
0.0
 40
0.0
 40
0.0
 40
0.0
 40
0.2598496298712539
 40
0.3866707319148509
 40
0.5150828775346947
 40
0.6425029490726826
 40
0.7624536797230972
 40
1.0
 40
1.0
 40
1.0
 40
1.0
 10
-518.7035797860929
 20
27.09341609724536
 30
0.0
 10
-518.7415757140577
 20
27.09349173653586
 30
0.0
 10
-518.7989833755664
 20
27.1021855950746
 30
0.0
 10
-518.8666824694752
 20
27.13698330007031
 30
0.0
 10
-518.9113016573084
 20
27.17140909154747
 30
0.0
 10
-518.9492509635525
 20
27.21188948629338
 30
0.0
 10
-518.9854103994402
 20
27.27384120645637
 30
0.0
 10
-518.9967229911358
 20
27.32630441508843
 30
0.0
 10
-518.9966486963492
 20
27.36124462288647
 30
0.0
  0
SPLINE
  5
13F
330
1F
100
AcDbEntity
  8
0
  6
Continuous
 62
     7
370
    25
100
AcDbSpline
210
0.0
220
0.0
230
1.0
 70
     8
 71
     3
 72
    13
 73
     9
 74
     0
 42
0.00000001
 43
0.00000001
 40
0.0
 40
0.0
 40
0.0
 40
0.0
 40
0.2389149952220574
 40
0.3595568481745961
 40
0.486634766847336
 40
0.6157867870573872
 40
0.7433385965465394
 40
1.0
 40
1.0
 40
1.0
 40
1.0
 10
-518.4133153630158
 20
27.36124462288647
 30
0.0
 10
-518.4132815110727
 20
27.32634095903419
 30
0.0
 10
-518.4244737803622
 20
27.27376902769329
 30
0.0
 10
-518.4607567550626
 20
27.21213776139741
 30
0.0
 10
-518.4979379738522
 20
27.17118247918637
 30
0.0
 10
-518.5426141735088
 20
27.13699658851343
 30
0.0
 10
-518.6096718759082
 20
27.10259600604781
 30
0.0
 10
-518.6661795347035
 20
27.09318091146473
 30
0.0
 10
-518.7035797860929
 20
27.09341609724536
 30
0.0
  0
SPLINE
  5
140
330
1F
100
AcDbEntity
  8
0
  6
Continuous
 62
     7
370
    25
100
AcDbSpline
210
0.0
220
0.0
230
1.0
 70
     8
 71
     3
 72
    13
 73
     9
 74
     0
 42
0.00000001
 43
0.00000001
 40
0.0
 40
0.0
 40
0.0
 40
0.0
 40
0.2551062187428466
 40
0.3818851554071034
 40
0.5102546066587019
 40
0.6365625239462811
 40
0.757850918666084
 40
1.0
 40
1.0
 40
1.0
 40
1.0
 10
-518.7035797860929
 20
27.63187763570696
 30
0.0
 10
-518.6661772453193
 20
27.63211422401768
 30
0.0
 10
-518.6096762569827
 20
27.62269504295678
 30
0.0
 10
-518.5426076380793
 20
27.58830114819477
 30
0.0
 10
-518.4979626461
 20
27.55409613897453
 30
0.0
 10
-518.4605311134853
 20
27.51305982589769
 30
0.0
 10
-518.4243993786686
 20
27.45027652103471
 30
0.0
 10
-518.4131561990599
 20
27.39686407636255
 30
0.0
 10
-518.4133153630158
 20
27.36124462288647
 30
0.0
  0
SPLINE
  5
147
330
1F
100
AcDbEntity
  8
0
  6
Continuous
 62
     7
370
    25
100
AcDbSpline
210
0.0
220
0.0
230
1.0
 70
     8
 71
     3
 72
    13
 73
     9
 74
     0
 42
0.00000001
 43
0.00000001
 40
0.0
 40
0.0
 40
0.0
 40
0.0
 40
0.2434110992594185
 40
0.3618899784752194
 40
0.4800702186075756
 40
0.601011686195775
 40
0.7264312190368046
 40
1.0
 40
1.0
 40
1.0
 40
1.0
 10
-520.9121134399389
 20
26.59982635365565
 30
0.0
 10
-520.8196637618254
 20
26.59935011318937
 30
0.0
 10
-520.681629967864
 20
26.58582238385576
 30
0.0
 10
-520.5061280389787
 20
26.53423178457526
 30
0.0
 10
-520.3804995560297
 20
26.48144054143808
 30
0.0
 10
-520.2605270099053
 20
26.41130510205825
 30
0.0
 10
-520.1032079708694
 20
26.29074428273947
 30
0.0
 10
-520.0023131928783
 20
26.17582367965532
 30
0.0
 10
-519.938956388657
 20
26.0936164177582
 30
0.0
  0
SPLINE
  5
148
330
1F
100
AcDbEntity
  8
0
  6
Continuous
 62
     7
370
    25
100
AcDbSpline
210
0.0
220
0.0
230
1.0
 70
     8
 71
     3
 72
    21
 73
    17
 74
     0
 42
0.00000001
 43
0.00000001
 40
0.0
 40
0.0
 40
0.0
 40
0.0
 40
0.1317255445271741
 40
0.1906683746814265
 40
0.2451968850948476
 40
0.2955087738855862
 40
0.3412437630224658
 40
0.3833864553034254
 40
0.4214402664762985
 40
0.492956384356707
 40
0.5628694745136158
 40
0.6330237453801784
 40
0.7044573558011064
 40
0.7765120161995835
 40
0.8488218595336068
 40
1.0
 40
1.0
 40
1.0
 40
1.0
 10
-521.8684435681441
 20
25.30345215493768
 30
0.0
 10
-521.8692235206793
 20
25.38413885812785
 30
0.0
 10
-521.8653827757622
 20
25.5009298255694
 30
0.0
 10
-521.853750007913
 20
25.65065640262198
 30
0.0
 10
-521.8431890431667
 20
25.75045459431779
 30
0.0
 10
-521.827553471107
 20
25.84139418229425
 30
0.0
 10
-521.8095233830079
 20
25.92411233611747
 30
0.0
 10
-521.7882908377885
 20
25.99835907773041
 30
0.0
 10
-521.7545652449907
 20
26.08504790815469
 30
0.0
 10
-521.7033678791541
 20
26.18277081267983
 30
0.0
 10
-521.6270045451403
 20
26.28810791152469
 30
0.0
 10
-521.5346800451147
 20
26.37968190590656
 30
0.0
 10
-521.4295514845759
 20
26.45830281336048
 30
0.0
 10
-521.3129370256858
 20
26.52146029663727
 30
0.0
 10
-521.1423652254596
 20
26.58421210459694
 30
0.0
 10
-521.0044890854463
 20
26.59921457848768
 30
0.0
 10
-520.9121134399389
 20
26.59982635365565
 30
0.0
  0
SPLINE
  5
14C
330
1F
100
AcDbEntity
  8
0
  6
Continuous
 62
     7
370
    25
100
AcDbSpline
210
0.0
220
0.0
230
1.0
 70
     8
 71
     3
 72
    13
 73
     9
 74
     0
 42
0.00000001
 43
0.00000001
 40
0.0
 40
0.0
 40
0.0
 40
0.0
 40
0.1585173269300211
 40
0.2599203239142082
 40
0.3767455717754368
 40
0.5101743366316052
 40
0.657890351057701
 40
1.0
 40
1.0
 40
1.0
 40
1.0
 10
-521.5171815489133
 20
25.78231834083511
 30
0.0
 10
-521.524244183794
 20
25.75226241554118
 30
0.0
 10
-521.532709263897
 20
25.7022992784558
 30
0.0
 10
-521.5400609942027
 20
25.62930274819142
 30
0.0
 10
-521.5458588799996
 20
25.56107309707789
 30
0.0
 10
-521.549802743106
 20
25.48367445584443
 30
0.0
 10
-521.5537350635892
 20
25.36238149864967
 30
0.0
 10
-521.5538464321583
 20
25.26699029942159
 30
0.0
 10
-521.5543410040415
 20
25.20038725109153
 30
0.0
  0
SPLINE
  5
14D
330
1F
100
AcDbEntity
  8
0
  6
Continuous
 62
     7
370
    25
100
AcDbSpline
210
0.0
220
0.0
230
1.0
 70
     8
 71
     3
 72
    13
 73
     9
 74
     0
 42
0.00000001
 43
0.00000001
 40
0.0
 40
0.0
 40
0.0
 40
0.0
 40
0.2700189621433429
 40
0.3907190350710782
 40
0.5068223535253182
 40
0.6215239708754532
 40
0.7391668368063029
 40
1.0
 40
1.0
 40
1.0
 40
1.0
 10
-520.857425939939
 20
26.28572378955307
 30
0.0
 10
-520.9390773063215
 20
26.28618792711524
 30
0.0
 10
-521.0582090610188
 20
26.2728665793156
 30
0.0
 10
-521.2026297511018
 20
26.2186426622264
 30
0.0
 10
-521.2938691618896
 20
26.16252185810153
 30
0.0
 10
-521.371717239225
 20
26.0903259733154
 30
0.0
 10
-521.4599832571525
 20
25.96874851511166
 30
0.0
 10
-521.499659247849
 20
25.85912498238851
 30
0.0
 10
-521.5171815489133
 20
25.78231834083511
 30
0.0
  0
SPLINE
  5
14E
330
1F
100
AcDbEntity
  8
0
  6
Continuous
 62
     7
370
    25
100
AcDbSpline
210
0.0
220
0.0
230
1.0
 70
     8
 71
     3
 72
    21
 73
    17
 74
     0
 42
0.00000001
 43
0.00000001
 40
0.0
 40
0.0
 40
0.0
 40
0.0
 40
0.1238830745189146
 40
0.1847816479826848
 40
0.2456024656876798
 40
0.3070653910745305
 40
0.3692286662507878
 40
0.4320259048597126
 40
0.4970795873926179
 40
0.5618524691217699
 40
0.6254263815420402
 40
0.6876488370376828
 40
0.7497698060395667
 40
0.8110156280184817
 40
0.8733731419104944
 40
1.0
 40
1.0
 40
1.0
 40
1.0
 10
-519.987333792503
 20
25.60844013570696
 30
0.0
 10
-519.9999230944251
 20
25.65569698386994
 30
0.0
 10
-520.024347646275
 20
25.72472917382285
 30
0.0
 10
-520.0678691794825
 20
25.81146124613143
 30
0.0
 10
-520.1050249217502
 20
25.87359888840224
 30
0.0
 10
-520.1480997043841
 20
25.93239726131846
 30
0.0
 10
-520.1956360614213
 20
25.98867329616905
 30
0.0
 10
-520.2489648548034
 20
26.04151767984064
 30
0.0
 10
-520.3062775368091
 20
26.09159695507401
 30
0.0
 10
-520.3678809647355
 20
26.13678743593817
 30
0.0
 10
-520.4313877317072
 20
26.17733612933804
 30
0.0
 10
-520.4981519824706
 20
26.20986375541911
 30
0.0
 10
-520.5656599334005
 20
26.23853246283259
 30
0.0
 10
-520.6360795582025
 20
26.25937726077099
 30
0.0
 10
-520.7327170133287
 20
26.28026809934858
 30
0.0
 10
-520.8074507993878
 20
26.28596293974872
 30
0.0
 10
-520.857425939939
 20
26.28572378955307
 30
0.0
  0
SPLINE
  5
14F
330
1F
100
AcDbEntity
  8
0
  6
Continuous
 62
     7
370
    25
100
AcDbSpline
210
0.0
220
0.0
230
1.0
 70
     8
 71
     3
 72
    13
 73
     9
 74
     0
 42
0.00000001
 43
0.00000001
 40
0.0
 40
0.0
 40
0.0
 40
0.0
 40
0.3336012413919295
 40
0.4791571975344256
 40
0.6105404974279318
 40
0.7289476063657787
 40
0.8323849228168392
 40
1.0
 40
1.0
 40
1.0
 40
1.0
 10
-519.938956388657
 20
24.92204189852743
 30
0.0
 10
-519.9394248045907
 20
24.99868541693295
 30
0.0
 10
-519.9392523752289
 20
25.10885700586496
 30
0.0
 10
-519.9458045857593
 20
25.24901644430255
 30
0.0
 10
-519.9501038162847
 20
25.33977592152248
 30
0.0
 10
-519.9571680023081
 20
25.42066237436424
 30
0.0
 10
-519.9675406790219
 20
25.50956684385797
 30
0.0
 10
-519.9779784783632
 20
25.57104236674201
 30
0.0
 10
-519.987333792503
 20
25.60844013570696
 30
0.0
  0
LINE
  5
16F
330
1F
100
AcDbEntity
  8
0
  6
Continuous
 62
     7
370
    25
100
AcDbLine
 10
-575.9838281835
 20
26.5549545588
 30
0.0
 11
-575.6697256194
 21
26.5549545588
 31
0.0
  0
LINE
  5
170
330
1F
100
AcDbEntity
  8
0
  6
Continuous
 62
     7
370
    25
100
AcDbLine
 10
-575.9838281835
 20
26.1784521549
 30
0.0
 11
-575.9838281835
 21
26.5549545588
 31
0.0
  0
LINE
  5
171
330
1F
100
AcDbEntity
  8
0
  6
Continuous
 62
     7
370
    25
100
AcDbLine
 10
-576.7087881194
 20
26.2401508729
 30
0.0
 11
-576.881264081
 21
26.5121861293
 31
0.0
  0
LINE
  5
172
330
1F
100
AcDbEntity
  8
0
  6
Continuous
 62
     7
370
    25
100
AcDbLine
 10
-575.9838281835
 20
23.9972622511
 30
0.0
 11
-575.9838281835
 21
24.8568375716
 31
0.0
  0
LINE
  5
173
330
1F
100
AcDbEntity
  8
0
  6
Continuous
 62
     7
370
    25
100
AcDbLine
 10
-575.6697256194
 20
23.9972622511
 30
0.0
 11
-575.9838281835
 21
23.9972622511
 31
0.0
  0
LINE
  5
174
330
1F
100
AcDbEntity
  8
0
  6
Continuous
 62
     7
370
    25
100
AcDbLine
 10
-575.6697256194
 20
26.5549545588
 30
0.0
 11
-575.6697256194
 21
23.9972622511
 31
0.0
  0
LINE
  5
175
330
1F
100
AcDbEntity
  8
0
  6
Continuous
 62
     7
370
    25
100
AcDbLine
 10
-574.9966486963
 20
24.6584201037
 30
0.0
 11
-574.717602222
 21
24.8049545588
 31
0.0
  0
LINE
  5
176
330
1F
100
AcDbEntity
  8
0
  6
Continuous
 62
     7
370
    25
100
AcDbLine
 10
-572.8428025425
 20
25.2088007126
 30
0.0
 11
-575.131264081
 21
25.2088007126
 31
0.0
  0
LINE
  5
177
330
1F
100
AcDbEntity
  8
0
  6
Continuous
 62
     7
370
    25
100
AcDbLine
 10
-570.041820972
 20
26.5549545588
 30
0.0
 11
-569.7017769015
 21
26.5549545588
 31
0.0
  0
LINE
  5
178
330
1F
100
AcDbEntity
  8
0
  6
Continuous
 62
     7
370
    25
100
AcDbLine
 10
-570.8908794656
 20
24.6927750716
 30
0.0
 11
-570.041820972
 21
26.5549545588
 31
0.0
  0
LINE
  5
179
330
1F
100
AcDbEntity
  8
0
  6
Continuous
 62
     7
370
    25
100
AcDbLine
 10
-571.7399379592
 20
26.5549545588
 30
0.0
 11
-570.8908794656
 21
24.6927750716
 31
0.0
  0
LINE
  5
17A
330
1F
100
AcDbEntity
  8
0
  6
Continuous
 62
     7
370
    25
100
AcDbLine
 10
-572.0799820297
 20
26.5549545588
 30
0.0
 11
-571.7399379592
 21
26.5549545588
 31
0.0
  0
LINE
  5
17B
330
1F
100
AcDbEntity
  8
0
  6
Continuous
 62
     7
370
    25
100
AcDbLine
 10
-570.913315363
 20
23.9972622511
 30
0.0
 11
-572.0799820297
 21
26.5549545588
 31
0.0
  0
LINE
  5
17C
330
1F
100
AcDbEntity
  8
0
  6
Continuous
 62
     7
370
    25
100
AcDbLine
 10
-570.8684435681
 20
23.9972622511
 30
0.0
 11
-570.913315363
 21
23.9972622511
 31
0.0
  0
LINE
  5
17D
330
1F
100
AcDbEntity
  8
0
  6
Continuous
 62
     7
370
    25
100
AcDbLine
 10
-569.7017769015
 20
26.5549545588
 30
0.0
 11
-570.8684435681
 21
23.9972622511
 31
0.0
  0
LINE
  5
17E
330
1F
100
AcDbEntity
  8
0
  6
Continuous
 62
     7
370
    25
100
AcDbLine
 10
-565.8939844335
 20
25.8370058408
 30
0.0
 11
-566.1569051066
 21
26.000367219
 31
0.0
  0
LINE
  5
17F
330
1F
100
AcDbEntity
  8
0
  6
Continuous
 62
     7
370
    25
100
AcDbLine
 10
-566.1569051066
 20
24.5427350075
 30
0.0
 11
-565.8939844335
 21
24.715210969
 31
0.0
  0
LINE
  5
180
330
1F
100
AcDbEntity
  8
0
  6
Continuous
 62
     7
370
    25
100
AcDbLine
 10
-561.3107512605
 20
27.5870058408
 30
0.0
 11
-560.9966486963
 21
27.5870058408
 31
0.0
  0
LINE
  5
181
330
1F
100
AcDbEntity
  8
0
  6
Continuous
 62
     7
370
    25
100
AcDbLine
 10
-561.3107512605
 20
26.5549545588
 30
0.0
 11
-561.3107512605
 21
27.5870058408
 31
0.0
  0
LINE
  5
182
330
1F
100
AcDbEntity
  8
0
  6
Continuous
 62
     7
370
    25
100
AcDbLine
 10
-561.7594692092
 20
26.5549545588
 30
0.0
 11
-561.3107512605
 21
26.5549545588
 31
0.0
  0
LINE
  5
183
330
1F
100
AcDbEntity
  8
0
  6
Continuous
 62
     7
370
    25
100
AcDbLine
 10
-561.7594692092
 20
26.2408519947
 30
0.0
 11
-561.7594692092
 21
26.5549545588
 31
0.0
  0
LINE
  5
184
330
1F
100
AcDbEntity
  8
0
  6
Continuous
 62
     7
370
    25
100
AcDbLine
 10
-561.3107512605
 20
26.2408519947
 30
0.0
 11
-561.7594692092
 21
26.2408519947
 31
0.0
  0
LINE
  5
185
330
1F
100
AcDbEntity
  8
0
  6
Continuous
 62
     7
370
    25
100
AcDbLine
 10
-561.3107512605
 20
23.9972622511
 30
0.0
 11
-561.3107512605
 21
26.2408519947
 31
0.0
  0
LINE
  5
186
330
1F
100
AcDbEntity
  8
0
  6
Continuous
 62
     7
370
    25
100
AcDbLine
 10
-560.9966486963
 20
23.9972622511
 30
0.0
 11
-561.3107512605
 21
23.9972622511
 31
0.0
  0
LINE
  5
187
330
1F
100
AcDbEntity
  8
0
  6
Continuous
 62
     7
370
    25
100
AcDbLine
 10
-560.9966486963
 20
26.2408519947
 30
0.0
 11
-560.9966486963
 21
23.9972622511
 31
0.0
  0
LINE
  5
188
330
1F
100
AcDbEntity
  8
0
  6
Continuous
 62
     7
370
    25
100
AcDbLine
 10
-560.5479307476
 20
26.2408519947
 30
0.0
 11
-560.9966486963
 21
26.2408519947
 31
0.0
  0
LINE
  5
189
330
1F
100
AcDbEntity
  8
0
  6
Continuous
 62
     7
370
    25
100
AcDbLine
 10
-560.5479307476
 20
26.5549545588
 30
0.0
 11
-560.5479307476
 21
26.2408519947
 31
0.0
  0
LINE
  5
18A
330
1F
100
AcDbEntity
  8
0
  6
Continuous
 62
     7
370
    25
100
AcDbLine
 10
-560.9966486963
 20
26.5549545588
 30
0.0
 11
-560.5479307476
 21
26.5549545588
 31
0.0
  0
LINE
  5
18B
330
1F
100
AcDbEntity
  8
0
  6
Continuous
 62
     7
370
    25
100
AcDbLine
 10
-560.9966486963
 20
27.5870058408
 30
0.0
 11
-560.9966486963
 21
26.5549545588
 31
0.0
  0
LINE
  5
18C
330
1F
100
AcDbEntity
  8
0
  6
Continuous
 62
     7
370
    25
100
AcDbLine
 10
-558.0351102348
 20
27.5870058408
 30
0.0
 11
-557.7210076707
 21
27.5870058408
 31
0.0
  0
LINE
  5
18D
330
1F
100
AcDbEntity
  8
0
  6
Continuous
 62
     7
370
    25
100
AcDbLine
 10
-558.0351102348
 20
26.0718816421
 30
0.0
 11
-558.0351102348
 21
27.5870058408
 31
0.0
  0
LINE
  5
18E
330
1F
100
AcDbEntity
  8
0
  6
Continuous
 62
     7
370
    25
100
AcDbLine
 10
-559.9645974143
 20
23.9972622511
 30
0.0
 11
-559.9645974143
 21
25.3034521549
 31
0.0
  0
LINE
  5
18F
330
1F
100
AcDbEntity
  8
0
  6
Continuous
 62
     7
370
    25
100
AcDbLine
 10
-559.6504948502
 20
23.9972622511
 30
0.0
 11
-559.9645974143
 21
23.9972622511
 31
0.0
  0
LINE
  5
190
330
1F
100
AcDbEntity
  8
0
  6
Continuous
 62
     7
370
    25
100
AcDbLine
 10
-559.6504948502
 20
25.2003872511
 30
0.0
 11
-559.6504948502
 21
23.9972622511
 31
0.0
  0
LINE
  5
191
330
1F
100
AcDbEntity
  8
0
  6
Continuous
 62
     7
370
    25
100
AcDbLine
 10
-558.0351102348
 20
23.9972622511
 30
0.0
 11
-558.0351102348
 21
24.9220418985
 31
0.0
  0
LINE
  5
192
330
1F
100
AcDbEntity
  8
0
  6
Continuous
 62
     7
370
    25
100
AcDbLine
 10
-557.7210076707
 20
23.9972622511
 30
0.0
 11
-558.0351102348
 21
23.9972622511
 31
0.0
  0
LINE
  5
193
330
1F
100
AcDbEntity
  8
0
  6
Continuous
 62
     7
370
    25
100
AcDbLine
 10
-557.7210076707
 20
27.5870058408
 30
0.0
 11
-557.7210076707
 21
23.9972622511
 31
0.0
  0
LINE
  5
194
330
1F
100
AcDbEntity
  8
0
  6
Continuous
 62
     7
370
    25
100
AcDbLine
 10
-552.2017769015
 20
26.5549545588
 30
0.0
 11
-551.8876743374
 21
26.5549545588
 31
0.0
  0
LINE
  5
195
330
1F
100
AcDbEntity
  8
0
  6
Continuous
 62
     7
370
    25
100
AcDbLine
 10
-552.2017769015
 20
26.1784521549
 30
0.0
 11
-552.2017769015
 21
26.5549545588
 31
0.0
  0
LINE
  5
196
330
1F
100
AcDbEntity
  8
0
  6
Continuous
 62
     7
370
    25
100
AcDbLine
 10
-552.9267368374
 20
26.2401508729
 30
0.0
 11
-553.0992127989
 21
26.5121861293
 31
0.0
  0
LINE
  5
197
330
1F
100
AcDbEntity
  8
0
  6
Continuous
 62
     7
370
    25
100
AcDbLine
 10
-552.2017769015
 20
23.9972622511
 30
0.0
 11
-552.2017769015
 21
24.8568375716
 31
0.0
  0
LINE
  5
198
330
1F
100
AcDbEntity
  8
0
  6
Continuous
 62
     7
370
    25
100
AcDbLine
 10
-551.8876743374
 20
23.9972622511
 30
0.0
 11
-552.2017769015
 21
23.9972622511
 31
0.0
  0
LINE
  5
199
330
1F
100
AcDbEntity
  8
0
  6
Continuous
 62
     7
370
    25
100
AcDbLine
 10
-551.8876743374
 20
26.5549545588
 30
0.0
 11
-551.8876743374
 21
23.9972622511
 31
0.0
  0
LINE
  5
19A
330
1F
100
AcDbEntity
  8
0
  6
Continuous
 62
     7
370
    25
100
AcDbLine
 10
-553.6825461322
 20
26.5549545588
 30
0.0
 11
-553.3684435681
 21
26.5549545588
 31
0.0
  0
LINE
  5
19B
330
1F
100
AcDbEntity
  8
0
  6
Continuous
 62
     7
370
    25
100
AcDbLine
 10
-553.6825461322
 20
23.9972622511
 30
0.0
 11
-553.6825461322
 21
26.5549545588
 31
0.0
  0
LINE
  5
19C
330
1F
100
AcDbEntity
  8
0
  6
Continuous
 62
     7
370
    25
100
AcDbLine
 10
-553.3684435681
 20
23.9972622511
 30
0.0
 11
-553.6825461322
 21
23.9972622511
 31
0.0
  0
LINE
  5
19D
330
1F
100
AcDbEntity
  8
0
  6
Continuous
 62
     7
370
    25
100
AcDbLine
 10
-553.3684435681
 20
26.5549545588
 30
0.0
 11
-553.3684435681
 21
23.9972622511
 31
0.0
  0
LINE
  5
19E
330
1F
100
AcDbEntity
  8
0
  6
Continuous
 62
     7
370
    25
100
AcDbLine
 10
-557.0030589528
 20
26.5549545588
 30
0.0
 11
-556.6889563887
 21
26.5549545588
 31
0.0
  0
LINE
  5
19F
330
1F
100
AcDbEntity
  8
0
  6
Continuous
 62
     7
370
    25
100
AcDbLine
 10
-557.0030589528
 20
24.5252069626
 30
0.0
 11
-557.0030589528
 21
26.5549545588
 31
0.0
  0
LINE
  5
1A0
330
1F
100
AcDbEntity
  8
0
  6
Continuous
 62
     7
370
    25
100
AcDbLine
 10
-554.7145974143
 20
23.8177750716
 30
0.0
 11
-554.4004948502
 21
23.8177750716
 31
0.0
  0
LINE
  5
1A1
330
1F
100
AcDbEntity
  8
0
  6
Continuous
 62
     7
370
    25
100
AcDbLine
 10
-556.6889563887
 20
24.4873463857
 30
0.0
 11
-556.6889563887
 21
24.3548343665
 31
0.0
  0
LINE
  5
1A2
330
1F
100
AcDbEntity
  8
0
  6
Continuous
 62
     7
370
    25
100
AcDbLine
 10
-556.6889563887
 20
26.5549545588
 30
0.0
 11
-556.6889563887
 21
26.1076388537
 31
0.0
  0
LINE
  5
1A3
330
1F
100
AcDbEntity
  8
0
  6
Continuous
 62
     7
370
    25
100
AcDbLine
 10
-549.8684435681
 20
24.6584201037
 30
0.0
 11
-549.5893970938
 21
24.8049545588
 31
0.0
  0
LINE
  5
1A4
330
1F
100
AcDbEntity
  8
0
  6
Continuous
 62
     7
370
    25
100
AcDbLine
 10
-547.7145974143
 20
25.2088007126
 30
0.0
 11
-550.0030589528
 21
25.2088007126
 31
0.0
  0
LINE
  5
1A5
330
1F
100
AcDbEntity
  8
0
  6
Continuous
 62
     7
370
    25
100
AcDbLine
 10
-546.772289722
 20
23.9972622511
 30
0.0
 11
-546.772289722
 21
27.5870058408
 31
0.0
  0
LINE
  5
1A6
330
1F
100
AcDbEntity
  8
0
  6
Continuous
 62
     7
370
    25
100
AcDbLine
 10
-546.4581871579
 20
23.9972622511
 30
0.0
 11
-546.772289722
 21
23.9972622511
 31
0.0
  0
LINE
  5
1A7
330
1F
100
AcDbEntity
  8
0
  6
Continuous
 62
     7
370
    25
100
AcDbLine
 10
-546.4581871579
 20
24.4396701037
 30
0.0
 11
-546.4581871579
 21
23.9972622511
 31
0.0
  0
LINE
  5
1A8
330
1F
100
AcDbEntity
  8
0
  6
Continuous
 62
     7
370
    25
100
AcDbLine
 10
-546.4581871579
 20
27.5870058408
 30
0.0
 11
-546.4581871579
 21
26.0599625716
 31
0.0
  0
LINE
  5
1A9
330
1F
100
AcDbEntity
  8
0
  6
Continuous
 62
     7
370
    25
100
AcDbLine
 10
-546.772289722
 20
27.5870058408
 30
0.0
 11
-546.4581871579
 21
27.5870058408
 31
0.0
  0
LINE
  5
1AA
330
1F
100
AcDbEntity
  8
0
  6
Continuous
 62
     7
370
    25
100
AcDbLine
 10
-543.4069051066
 20
26.5549545588
 30
0.0
 11
-543.0928025425
 21
26.5549545588
 31
0.0
  0
LINE
  5
1AB
330
1F
100
AcDbEntity
  8
0
  6
Continuous
 62
     7
370
    25
100
AcDbLine
 10
-543.4069051066
 20
23.9972622511
 30
0.0
 11
-543.4069051066
 21
26.5549545588
 31
0.0
  0
LINE
  5
1AC
330
1F
100
AcDbEntity
  8
0
  6
Continuous
 62
     7
370
    25
100
AcDbLine
 10
-543.0928025425
 20
23.9972622511
 30
0.0
 11
-543.4069051066
 21
23.9972622511
 31
0.0
  0
LINE
  5
1AD
330
1F
100
AcDbEntity
  8
0
  6
Continuous
 62
     7
370
    25
100
AcDbLine
 10
-543.0928025425
 20
26.5549545588
 30
0.0
 11
-543.0928025425
 21
23.9972622511
 31
0.0
  0
LINE
  5
1AE
330
1F
100
AcDbEntity
  8
0
  6
Continuous
 62
     7
370
    25
100
AcDbLine
 10
-542.2514563887
 20
26.0164930203
 30
0.0
 11
-542.4645974143
 21
26.2359441421
 31
0.0
  0
LINE
  5
1AF
330
1F
100
AcDbEntity
  8
0
  6
Continuous
 62
     7
370
    25
100
AcDbLine
 10
-541.2369331515
 20
24.5357237896
 30
0.0
 11
-541.0286999784
 21
24.2987446229
 31
0.0
  0
LINE
  5
1B0
330
1F
100
AcDbEntity
  8
0
  6
Continuous
 62
     7
370
    25
100
AcDbLine
 10
-538.6056230553
 20
26.5549545588
 30
0.0
 11
-538.2915204912
 21
26.5549545588
 31
0.0
  0
LINE
  5
1B1
330
1F
100
AcDbEntity
  8
0
  6
Continuous
 62
     7
370
    25
100
AcDbLine
 10
-538.6056230553
 20
26.0936164178
 30
0.0
 11
-538.6056230553
 21
26.5549545588
 31
0.0
  0
LINE
  5
1B2
330
1F
100
AcDbEntity
  8
0
  6
Continuous
 62
     7
370
    25
100
AcDbLine
 10
-540.5351102348
 20
23.9972622511
 30
0.0
 11
-540.5351102348
 21
25.3034521549
 31
0.0
  0
LINE
  5
1B3
330
1F
100
AcDbEntity
  8
0
  6
Continuous
 62
     7
370
    25
100
AcDbLine
 10
-540.2210076707
 20
23.9972622511
 30
0.0
 11
-540.5351102348
 21
23.9972622511
 31
0.0
  0
LINE
  5
1B4
330
1F
100
AcDbEntity
  8
0
  6
Continuous
 62
     7
370
    25
100
AcDbLine
 10
-540.2210076707
 20
25.2003872511
 30
0.0
 11
-540.2210076707
 21
23.9972622511
 31
0.0
  0
LINE
  5
1B5
330
1F
100
AcDbEntity
  8
0
  6
Continuous
 62
     7
370
    25
100
AcDbLine
 10
-538.6056230553
 20
23.9972622511
 30
0.0
 11
-538.6056230553
 21
24.9220418985
 31
0.0
  0
LINE
  5
1B6
330
1F
100
AcDbEntity
  8
0
  6
Continuous
 62
     7
370
    25
100
AcDbLine
 10
-538.2915204912
 20
23.9972622511
 30
0.0
 11
-538.6056230553
 21
23.9972622511
 31
0.0
  0
LINE
  5
1B7
330
1F
100
AcDbEntity
  8
0
  6
Continuous
 62
     7
370
    25
100
AcDbLine
 10
-538.2915204912
 20
26.5549545588
 30
0.0
 11
-538.2915204912
 21
23.9972622511
 31
0.0
  0
LINE
  5
1B8
330
1F
100
AcDbEntity
  8
0
  6
Continuous
 62
     7
370
    25
100
AcDbLine
 10
-537.5286999784
 20
26.5549545588
 30
0.0
 11
-537.2145974143
 21
26.5549545588
 31
0.0
  0
LINE
  5
1B9
330
1F
100
AcDbEntity
  8
0
  6
Continuous
 62
     7
370
    25
100
AcDbLine
 10
-537.5286999784
 20
23.9972622511
 30
0.0
 11
-537.5286999784
 21
26.5549545588
 31
0.0
  0
LINE
  5
1BA
330
1F
100
AcDbEntity
  8
0
  6
Continuous
 62
     7
370
    25
100
AcDbLine
 10
-537.2145974143
 20
23.9972622511
 30
0.0
 11
-537.5286999784
 21
23.9972622511
 31
0.0
  0
LINE
  5
1BB
330
1F
100
AcDbEntity
  8
0
  6
Continuous
 62
     7
370
    25
100
AcDbLine
 10
-537.2145974143
 20
26.5549545588
 30
0.0
 11
-537.2145974143
 21
23.9972622511
 31
0.0
  0
LINE
  5
1BC
330
1F
100
AcDbEntity
  8
0
  6
Continuous
 62
     7
370
    25
100
AcDbLine
 10
-529.7210076707
 20
26.5549545588
 30
0.0
 11
-529.4069051066
 21
26.5549545588
 31
0.0
  0
LINE
  5
1BD
330
1F
100
AcDbEntity
  8
0
  6
Continuous
 62
     7
370
    25
100
AcDbLine
 10
-529.7210076707
 20
26.0816973472
 30
0.0
 11
-529.7210076707
 21
26.5549545588
 31
0.0
  0
LINE
  5
1BE
330
1F
100
AcDbEntity
  8
0
  6
Continuous
 62
     7
370
    25
100
AcDbLine
 10
-529.7210076707
 20
23.0549545588
 30
0.0
 11
-529.7210076707
 21
24.4607037575
 31
0.0
  0
LINE
  5
1BF
330
1F
100
AcDbEntity
  8
0
  6
Continuous
 62
     7
370
    25
100
AcDbLine
 10
-529.4069051066
 20
23.0549545588
 30
0.0
 11
-529.7210076707
 21
23.0549545588
 31
0.0
  0
LINE
  5
1C0
330
1F
100
AcDbEntity
  8
0
  6
Continuous
 62
     7
370
    25
100
AcDbLine
 10
-529.4069051066
 20
26.5549545588
 30
0.0
 11
-529.4069051066
 21
23.0549545588
 31
0.0
  0
LINE
  5
1C1
330
1F
100
AcDbEntity
  8
0
  6
Continuous
 62
     7
370
    25
100
AcDbLine
 10
-527.2229107156
 20
26.5549545588
 30
0.0
 11
-526.8492127989
 21
26.5549545588
 31
0.0
  0
LINE
  5
1C2
330
1F
100
AcDbEntity
  8
0
  6
Continuous
 62
     7
370
    25
100
AcDbLine
 10
-527.881264081
 20
25.6322782767
 30
0.0
 11
-527.2229107156
 21
26.5549545588
 31
0.0
  0
LINE
  5
1C3
330
1F
100
AcDbEntity
  8
0
  6
Continuous
 62
     7
370
    25
100
AcDbLine
 10
-528.5396174463
 20
26.5549545588
 30
0.0
 11
-527.881264081
 21
25.6322782767
 31
0.0
  0
LINE
  5
1C4
330
1F
100
AcDbEntity
  8
0
  6
Continuous
 62
     7
370
    25
100
AcDbLine
 10
-528.913315363
 20
26.5549545588
 30
0.0
 11
-528.5396174463
 21
26.5549545588
 31
0.0
  0
LINE
  5
1C5
330
1F
100
AcDbEntity
  8
0
  6
Continuous
 62
     7
370
    25
100
AcDbLine
 10
-528.0684636002
 20
25.3707598472
 30
0.0
 11
-528.913315363
 21
26.5549545588
 31
0.0
  0
LINE
  5
1C6
330
1F
100
AcDbEntity
  8
0
  6
Continuous
 62
     7
370
    25
100
AcDbLine
 10
-529.0479307476
 20
23.9972622511
 30
0.0
 11
-528.0684636002
 21
25.3707598472
 31
0.0
  0
LINE
  5
1C7
330
1F
100
AcDbEntity
  8
0
  6
Continuous
 62
     7
370
    25
100
AcDbLine
 10
-528.674232831
 20
23.9972622511
 30
0.0
 11
-529.0479307476
 21
23.9972622511
 31
0.0
  0
LINE
  5
1C8
330
1F
100
AcDbEntity
  8
0
  6
Continuous
 62
     7
370
    25
100
AcDbLine
 10
-527.881264081
 20
25.108540296
 30
0.0
 11
-528.674232831
 21
23.9972622511
 31
0.0
  0
LINE
  5
1C9
330
1F
100
AcDbEntity
  8
0
  6
Continuous
 62
     7
370
    25
100
AcDbLine
 10
-527.088295331
 20
23.9972622511
 30
0.0
 11
-527.881264081
 21
25.108540296
 31
0.0
  0
LINE
  5
1CA
330
1F
100
AcDbEntity
  8
0
  6
Continuous
 62
     7
370
    25
100
AcDbLine
 10
-526.7145974143
 20
23.9972622511
 30
0.0
 11
-527.088295331
 21
23.9972622511
 31
0.0
  0
LINE
  5
1CB
330
1F
100
AcDbEntity
  8
0
  6
Continuous
 62
     7
370
    25
100
AcDbLine
 10
-527.6947656835
 20
25.3707598472
 30
0.0
 11
-526.7145974143
 21
23.9972622511
 31
0.0
  0
LINE
  5
1CC
330
1F
100
AcDbEntity
  8
0
  6
Continuous
 62
     7
370
    25
100
AcDbLine
 10
-526.8492127989
 20
26.5549545588
 30
0.0
 11
-527.6947656835
 21
25.3707598472
 31
0.0
  0
LINE
  5
1CD
330
1F
100
AcDbEntity
  8
0
  6
Continuous
 62
     7
370
    25
100
AcDbLine
 10
-526.3107512605
 20
24.6584201037
 30
0.0
 11
-526.0317047861
 21
24.8049545588
 31
0.0
  0
LINE
  5
1CE
330
1F
100
AcDbEntity
  8
0
  6
Continuous
 62
     7
370
    25
100
AcDbLine
 10
-524.1569051066
 20
25.2088007126
 30
0.0
 11
-526.4453666451
 21
25.2088007126
 31
0.0
  0
LINE
  5
1CF
330
1F
100
AcDbEntity
  8
0
  6
Continuous
 62
     7
370
    25
100
AcDbLine
 10
-517.8748538246
 20
23.9972622511
 30
0.0
 11
-517.8748538246
 21
26.5549545588
 31
0.0
  0
LINE
  5
1D0
330
1F
100
AcDbEntity
  8
0
  6
Continuous
 62
     7
370
    25
100
AcDbLine
 10
-517.5607512605
 20
23.9972622511
 30
0.0
 11
-517.8748538246
 21
23.9972622511
 31
0.0
  0
LINE
  5
1D1
330
1F
100
AcDbEntity
  8
0
  6
Continuous
 62
     7
370
    25
100
AcDbLine
 10
-517.5607512605
 20
24.4396701037
 30
0.0
 11
-517.5607512605
 21
23.9972622511
 31
0.0
  0
LINE
  5
1D2
330
1F
100
AcDbEntity
  8
0
  6
Continuous
 62
     7
370
    25
100
AcDbLine
 10
-517.5607512605
 20
26.5549545588
 30
0.0
 11
-517.5607512605
 21
26.0816973472
 31
0.0
  0
LINE
  5
1D3
330
1F
100
AcDbEntity
  8
0
  6
Continuous
 62
     7
370
    25
100
AcDbLine
 10
-517.8748538246
 20
26.5549545588
 30
0.0
 11
-517.5607512605
 21
26.5549545588
 31
0.0
  0
LINE
  5
1D4
330
1F
100
AcDbEntity
  8
0
  6
Continuous
 62
     7
370
    25
100
AcDbLine
 10
-518.8620333117
 20
26.5549545588
 30
0.0
 11
-518.5479307476
 21
26.5549545588
 31
0.0
  0
LINE
  5
1D5
330
1F
100
AcDbEntity
  8
0
  6
Continuous
 62
     7
370
    25
100
AcDbLine
 10
-518.8620333117
 20
23.9972622511
 30
0.0
 11
-518.8620333117
 21
26.5549545588
 31
0.0
  0
LINE
  5
1D6
330
1F
100
AcDbEntity
  8
0
  6
Continuous
 62
     7
370
    25
100
AcDbLine
 10
-518.5479307476
 20
23.9972622511
 30
0.0
 11
-518.8620333117
 21
23.9972622511
 31
0.0
  0
LINE
  5
1D7
330
1F
100
AcDbEntity
  8
0
  6
Continuous
 62
     7
370
    25
100
AcDbLine
 10
-518.5479307476
 20
26.5549545588
 30
0.0
 11
-518.5479307476
 21
23.9972622511
 31
0.0
  0
LINE
  5
1D8
330
1F
100
AcDbEntity
  8
0
  6
Continuous
 62
     7
370
    25
100
AcDbLine
 10
-519.9389563887
 20
26.5549545588
 30
0.0
 11
-519.6248538246
 21
26.5549545588
 31
0.0
  0
LINE
  5
1D9
330
1F
100
AcDbEntity
  8
0
  6
Continuous
 62
     7
370
    25
100
AcDbLine
 10
-519.9389563887
 20
26.0936164178
 30
0.0
 11
-519.9389563887
 21
26.5549545588
 31
0.0
  0
LINE
  5
1DA
330
1F
100
AcDbEntity
  8
0
  6
Continuous
 62
     7
370
    25
100
AcDbLine
 10
-521.8684435681
 20
23.9972622511
 30
0.0
 11
-521.8684435681
 21
25.3034521549
 31
0.0
  0
LINE
  5
1DB
330
1F
100
AcDbEntity
  8
0
  6
Continuous
 62
     7
370
    25
100
AcDbLine
 10
-521.554341004
 20
23.9972622511
 30
0.0
 11
-521.8684435681
 21
23.9972622511
 31
0.0
  0
LINE
  5
1DC
330
1F
100
AcDbEntity
  8
0
  6
Continuous
 62
     7
370
    25
100
AcDbLine
 10
-521.554341004
 20
25.2003872511
 30
0.0
 11
-521.554341004
 21
23.9972622511
 31
0.0
  0
LINE
  5
1DD
330
1F
100
AcDbEntity
  8
0
  6
Continuous
 62
     7
370
    25
100
AcDbLine
 10
-519.9389563887
 20
23.9972622511
 30
0.0
 11
-519.9389563887
 21
24.9220418985
 31
0.0
  0
LINE
  5
1DE
330
1F
100
AcDbEntity
  8
0
  6
Continuous
 62
     7
370
    25
100
AcDbLine
 10
-519.6248538246
 20
23.9972622511
 30
0.0
 11
-519.9389563887
 21
23.9972622511
 31
0.0
  0
LINE
  5
1DF
330
1F
100
AcDbEntity
  8
0
  6
Continuous
 62
     7
370
    25
100
AcDbLine
 10
-519.6248538246
 20
26.5549545588
 30
0.0
 11
-519.6248538246
 21
23.9972622511
 31
0.0
  0
LINE
  5
1E0
330
1F
100
AcDbEntity
  8
0
  6
Continuous
 62
     7
370
    25
100
AcDbLine
 10
-511.2022777028
 20
27.4972622511
 30
0.0
 11
-510.7402384399
 21
23.9972622511
 31
0.0
  0
LINE
  5
1E1
330
1F
100
AcDbEntity
  8
0
  6
Continuous
 62
     7
370
    25
100
AcDbLine
 10
-511.2471494976
 20
27.4972622511
 30
0.0
 11
-511.2022777028
 21
27.4972622511
 31
0.0
  0
LINE
  5
1E2
330
1F
100
AcDbEntity
  8
0
  6
Continuous
 62
     7
370
    25
100
AcDbLine
 10
-512.6921615169
 20
24.6254673793
 30
0.0
 11
-511.2471494976
 21
27.4972622511
 31
0.0
  0
LINE
  5
1E3
330
1F
100
AcDbEntity
  8
0
  6
Continuous
 62
     7
370
    25
100
AcDbLine
 10
-514.1336679271
 20
27.4972622511
 30
0.0
 11
-512.6921615169
 21
24.6254673793
 31
0.0
  0
LINE
  5
1E4
330
1F
100
AcDbEntity
  8
0
  6
Continuous
 62
     7
370
    25
100
AcDbLine
 10
-514.1792408438
 20
27.4972622511
 30
0.0
 11
-514.1336679271
 21
27.4972622511
 31
0.0
  0
LINE
  5
1E5
330
1F
100
AcDbEntity
  8
0
  6
Continuous
 62
     7
370
    25
100
AcDbLine
 10
-514.6440845938
 20
23.9972622511
 30
0.0
 11
-514.1792408438
 21
27.4972622511
 31
0.0
  0
LINE
  5
1E6
330
1F
100
AcDbEntity
  8
0
  6
Continuous
 62
     7
370
    25
100
AcDbLine
 10
-514.3285797861
 20
23.9972622511
 30
0.0
 11
-514.6440845938
 21
23.9972622511
 31
0.0
  0
LINE
  5
1E7
330
1F
100
AcDbEntity
  8
0
  6
Continuous
 62
     7
370
    25
100
AcDbLine
 10
-513.9934435681
 20
26.5156917383
 30
0.0
 11
-514.3285797861
 21
23.9972622511
 31
0.0
  0
LINE
  5
1E8
330
1F
100
AcDbEntity
  8
0
  6
Continuous
 62
     7
370
    25
100
AcDbLine
 10
-512.7300220938
 20
23.9972622511
 30
0.0
 11
-513.9934435681
 21
26.5156917383
 31
0.0
  0
LINE
  5
1E9
330
1F
100
AcDbEntity
  8
0
  6
Continuous
 62
     7
370
    25
100
AcDbLine
 10
-512.6592087925
 20
23.9972622511
 30
0.0
 11
-512.7300220938
 21
23.9972622511
 31
0.0
  0
LINE
  5
1EA
330
1F
100
AcDbEntity
  8
0
  6
Continuous
 62
     7
370
    25
100
AcDbLine
 10
-511.3908794656
 20
26.5213007126
 30
0.0
 11
-512.6592087925
 21
23.9972622511
 31
0.0
  0
LINE
  5
1EB
330
1F
100
AcDbEntity
  8
0
  6
Continuous
 62
     7
370
    25
100
AcDbLine
 10
-511.0564443694
 20
23.9972622511
 30
0.0
 11
-511.3908794656
 21
26.5213007126
 31
0.0
  0
LINE
  5
1EC
330
1F
100
AcDbEntity
  8
0
  6
Continuous
 62
     7
370
    25
100
AcDbLine
 10
-510.7402384399
 20
23.9972622511
 30
0.0
 11
-511.0564443694
 21
23.9972622511
 31
0.0
  0
LINE
  5
1ED
330
1F
100
AcDbEntity
  8
0
  6
Continuous
 62
     7
370
    25
100
AcDbLine
 10
97.6393797974
 20
0.0
 30
0.0
 11
97.6393797974
 21
60.0
 31
0.0
  0
LINE
  5
1EE
330
1F
100
AcDbEntity
  8
0
  6
Continuous
 62
     7
370
    25
100
AcDbLine
 10
97.6393797974
 20
0.0
 30
0.0
 11
-660.0
 21
0.0
 31
0.0
  0
LINE
  5
1EF
330
1F
100
AcDbEntity
  8
0
  6
Continuous
 62
     7
370
    25
100
AcDbLine
 10
-660.0
 20
0.0
 30
0.0
 11
-660.0
 21
830.0
 31
0.0
  0
LINE
  5
1F0
330
1F
100
AcDbEntity
  8
0
  6
Continuous
 62
     7
370
    25
100
AcDbLine
 10
-660.0
 20
830.0
 30
0.0
 11
-610.0
 21
830.0
 31
0.0
  0
LINE
  5
1F1
330
1F
100
AcDbEntity
  8
0
  6
Continuous
 62
     7
370
    25
100
AcDbLine
 10
-610.0
 20
830.0
 30
0.0
 11
-610.0
 21
840.0
 31
0.0
  0
LINE
  5
1F2
330
1F
100
AcDbEntity
  8
0
  6
Continuous
 62
     7
370
    25
100
AcDbLine
 10
-610.0
 20
840.0
 30
0.0
 11
-60.0
 21
840.0
 31
0.0
  0
LINE
  5
1F3
330
1F
100
AcDbEntity
  8
0
  6
Continuous
 62
     7
370
    25
100
AcDbLine
 10
0.0
 20
780.0
 30
0.0
 11
0.0
 21
250.0
 31
0.0
  0
LINE
  5
1F4
330
1F
100
AcDbEntity
  8
0
  6
Continuous
 62
     7
370
    25
100
AcDbLine
 10
-462.75
 20
250.0
 30
0.0
 11
0.0
 21
250.0
 31
0.0
  0
LINE
  5
1F5
330
1F
100
AcDbEntity
  8
0
  6
Continuous
 62
     7
370
    25
100
AcDbLine
 10
-460.0
 20
250.0
 30
0.0
 11
-460.0
 21
250.75
 31
0.0
  0
LINE
  5
1F6
330
1F
100
AcDbEntity
  8
0
  6
Continuous
 62
     7
370
    25
100
AcDbLine
 10
-460.0
 20
250.75
 30
0.0
 11
-462.75
 21
250.75
 31
0.0
  0
LINE
  5
1F7
330
1F
100
AcDbEntity
  8
0
  6
Continuous
 62
     7
370
    25
100
AcDbLine
 10
-462.75
 20
250.75
 30
0.0
 11
-462.75
 21
250.0
 31
0.0
  0
LINE
  5
1F8
330
1F
100
AcDbEntity
  8
0
  6
Continuous
 62
     7
370
    25
100
AcDbLine
 10
-363.6803101013
 20
250.0
 30
0.0
 11
-363.6803101013
 21
60.0
 31
0.0
  0
LINE
  5
1F9
330
1F
100
AcDbEntity
  8
0
  6
Continuous
 62
     7
370
    25
100
AcDbLine
 10
-363.6803101013
 20
60.0
 30
0.0
 11
97.6393797974
 21
60.0
 31
0.0
  0
ARC
  5
1FA
330
1F
100
AcDbEntity
  8
0
  6
Continuous
 62
     7
370
    25
100
AcDbCircle
 10
-60.0
 20
780.0
 30
0.0
 40
60.0
100
AcDbArc
 50
0.0
 51
90.0
  0
MTEXT
  5
1FC
330
1F
100
AcDbEntity
  8
0
  6
Continuous
 62
     7
100
AcDbMText
 10
-660.0
 20
-1.0195663917
 30
0.0
 40
4.83362
 41
0.0
 71
     1
 72
     1
  1
SOLIDWORKS Educational Product.
  7
SLDTEXTSTYLE0
 73
     1
 44
1.0
  0
MTEXT
  5
1FD
330
1F
100
AcDbEntity
  8
0
  6
Continuous
 62
     7
100
AcDbMText
 10
-660.0
 20
-8.2699963917
 30
0.0
 40
4.83362
 41
0.0
 71
     1
 72
     1
  1
For Instructional Use Only.
  7
SLDTEXTSTYLE0
 73
     1
 44
1.0
  0
ENDSEC
  0
SECTION
  2
OBJECTS
  0
DICTIONARY
  5
C
330
0
100
AcDbDictionary
281
     1
  3
ACAD_GROUP
350
D
  3
ACAD_LAYOUT
350
1A
  3
ACAD_MLINESTYLE
350
17
  3
ACAD_PLOTSETTINGS
350
19
  3
ACAD_PLOTSTYLENAME
350
E
  3
ACAD_SCALELIST
350
47
  3
DWGPROPS
350
1FE
  0
DICTIONARY
  5
D
102
{ACAD_REACTORS
330
C
102
}
330
C
100
AcDbDictionary
281
     1
  0
DICTIONARY
  5
1A
102
{ACAD_REACTORS
330
C
102
}
330
C
100
AcDbDictionary
281
     1
  3
Layout1
350
1E
  3
Layout2
350
26
  3
Model
350
22
  0
DICTIONARY
  5
17
102
{ACAD_REACTORS
330
C
102
}
330
C
100
AcDbDictionary
281
     1
  3
Standard
350
18
  0
DICTIONARY
  5
19
102
{ACAD_REACTORS
330
C
102
}
330
C
100
AcDbDictionary
281
     1
  0
ACDBDICTIONARYWDFLT
  5
E
102
{ACAD_REACTORS
330
C
102
}
330
C
100
AcDbDictionary
281
     1
  3
Normal
350
F
100
AcDbDictionaryWithDefault
340
F
  0
DICTIONARY
  5
47
102
{ACAD_REACTORS
330
C
102
}
330
C
100
AcDbDictionary
281
     1
  3
A0
350
48
  3
A1
350
49
  3
A2
350
4A
  3
A3
350
4B
  3
A4
350
4C
  3
A5
350
4D
  3
A6
350
4E
  3
A7
350
4F
  3
A8
350
50
  3
A9
350
51
  3
B0
350
52
  3
B1
350
53
  3
B2
350
54
  3
B3
350
55
  3
B4
350
56
  3
B5
350
57
  3
B6
350
58
  0
XRECORD
  5
1FE
102
{ACAD_REACTORS
330
C
102
}
330
C
100
AcDbXrecord
280
     1
  1
DWGPROPS COOKIE
  2

  3

  4

  6

  7

  8
nastia.polimasheva
  9

300
=
301
=
302
=
303
=
304
=
305
=
306
=
307
=
308
=
309
=
 40
0.0
 41
2460875.454248137
 42
2460875.454324804
  1

 90
        0
  0
LAYOUT
  5
1E
102
{ACAD_REACTORS
330
1A
102
}
330
1A
100
AcDbPlotSettings
  1

  2
none_device
  4

  6

 40
0.0
 41
0.0
 42
0.0
 43
0.0
 44
0.0
 45
0.0
 46
0.0
 47
0.0
 48
0.0
 49
0.0
140
0.0
141
0.0
142
1.0
143
1.0
 70
   688
 72
     1
 73
     0
 74
     5
  7

 75
    16
147
1.0
148
0.0
149
0.0
100
AcDbLayout
  1
Layout1
 70
     1
 71
     1
 10
0.0
 20
0.0
 11
420.0
 21
297.0
 12
0.0
 22
0.0
 32
0.0
 14
1.0000000000E+20
 24
1.0000000000E+20
 34
1.0000000000E+20
 15
-1.0000000000E+20
 25
-1.0000000000E+20
 35
-1.0000000000E+20
146
0.0
 13
0.0
 23
0.0
 33
0.0
 16
1.0
 26
0.0
 36
0.0
 17
0.0
 27
1.0
 37
0.0
 76
     0
330
1B
  0
LAYOUT
  5
26
102
{ACAD_REACTORS
330
1A
102
}
330
1A
100
AcDbPlotSettings
  1

  2
none_device
  4

  6

 40
0.0
 41
0.0
 42
0.0
 43
0.0
 44
0.0
 45
0.0
 46
0.0
 47
0.0
 48
0.0
 49
0.0
140
0.0
141
0.0
142
1.0
143
1.0
 70
   688
 72
     1
 73
     0
 74
     5
  7

 75
    16
147
1.0
148
0.0
149
0.0
100
AcDbLayout
  1
Layout2
 70
     1
 71
     2
 10
0.0
 20
0.0
 11
0.0
 21
0.0
 12
0.0
 22
0.0
 32
0.0
 14
0.0
 24
0.0
 34
0.0
 15
0.0
 25
0.0
 35
0.0
146
0.0
 13
0.0
 23
0.0
 33
0.0
 16
1.0
 26
0.0
 36
0.0
 17
0.0
 27
1.0
 37
0.0
 76
     0
330
23
  0
LAYOUT
  5
22
102
{ACAD_REACTORS
330
1A
102
}
330
1A
100
AcDbPlotSettings
  1

  2
none_device
  4
ANSI_A_(11.00_x_8.50_Inches)
  6

 40
6.35
 41
19.05
 42
6.35000508
 43
19.05000254
 44
279.4
 45
215.9
 46
204.8973315807
 47
-17.97050127
 48
0.0
 49
0.0
140
0.0
141
0.0
142
0.0100178571
143
1.0
 70
  1696
 72
     0
 73
     0
 74
     0
  7

 75
     0
147
0.0179189148
148
-1300.4909072572
149
0.0
100
AcDbLayout
  1
Model
 70
     1
 71
     0
 10
0.0
 20
0.0
 11
420.0
 21
297.0
 12
0.0
 22
0.0
 32
0.0
 14
-660.0
 24
0.0
 34
0.0
 15
97.6393797974
 25
840.0
 35
0.0
146
0.0
 13
0.0
 23
0.0
 33
0.0
 16
1.0
 26
0.0
 36
0.0
 17
0.0
 27
1.0
 37
0.0
 76
     0
330
1F
331
29
  0
MLINESTYLE
  5
18
102
{ACAD_REACTORS
330
17
102
}
330
17
100
AcDbMlineStyle
  2
Standard
 70
     0
  3

 62
   256
 51
90.0
 52
90.0
 71
     2
 49
0.5
 62
   256
  6
BYLAYER
 49
-0.5
 62
   256
  6
BYLAYER
  0
ACDBPLACEHOLDER
  5
F
102
{ACAD_REACTORS
330
E
102
}
330
E
  0
SCALE
  5
48
102
{ACAD_REACTORS
330
47
102
}
330
47
100
AcDbScale
 70
     0
300
1:1
140
1.0
141
1.0
290
     1
  0
SCALE
  5
49
102
{ACAD_REACTORS
330
47
102
}
330
47
100
AcDbScale
 70
     0
300
1:2
140
1.0
141
2.0
290
     0
  0
SCALE
  5
4A
102
{ACAD_REACTORS
330
47
102
}
330
47
100
AcDbScale
 70
     0
300
1:4
140
1.0
141
4.0
290
     0
  0
SCALE
  5
4B
102
{ACAD_REACTORS
330
47
102
}
330
47
100
AcDbScale
 70
     0
300
1:5
140
1.0
141
5.0
290
     0
  0
SCALE
  5
4C
102
{ACAD_REACTORS
330
47
102
}
330
47
100
AcDbScale
 70
     0
300
1:8
140
1.0
141
8.0
290
     0
  0
SCALE
  5
4D
102
{ACAD_REACTORS
330
47
102
}
330
47
100
AcDbScale
 70
     0
300
1:10
140
1.0
141
10.0
290
     0
  0
SCALE
  5
4E
102
{ACAD_REACTORS
330
47
102
}
330
47
100
AcDbScale
 70
     0
300
1:16
140
1.0
141
16.0
290
     0
  0
SCALE
  5
4F
102
{ACAD_REACTORS
330
47
102
}
330
47
100
AcDbScale
 70
     0
300
1:20
140
1.0
141
20.0
290
     0
  0
SCALE
  5
50
102
{ACAD_REACTORS
330
47
102
}
330
47
100
AcDbScale
 70
     0
300
1:30
140
1.0
141
30.0
290
     0
  0
SCALE
  5
51
102
{ACAD_REACTORS
330
47
102
}
330
47
100
AcDbScale
 70
     0
300
1:40
140
1.0
141
40.0
290
     0
  0
SCALE
  5
52
102
{ACAD_REACTORS
330
47
102
}
330
47
100
AcDbScale
 70
     0
300
1:50
140
1.0
141
50.0
290
     0
  0
SCALE
  5
53
102
{ACAD_REACTORS
330
47
102
}
330
47
100
AcDbScale
 70
     0
300
1:100
140
1.0
141
100.0
290
     0
  0
SCALE
  5
54
102
{ACAD_REACTORS
330
47
102
}
330
47
100
AcDbScale
 70
     0
300
2:1
140
2.0
141
1.0
290
     0
  0
SCALE
  5
55
102
{ACAD_REACTORS
330
47
102
}
330
47
100
AcDbScale
 70
     0
300
4:1
140
4.0
141
1.0
290
     0
  0
SCALE
  5
56
102
{ACAD_REACTORS
330
47
102
}
330
47
100
AcDbScale
 70
     0
300
8:1
140
8.0
141
1.0
290
     0
  0
SCALE
  5
57
102
{ACAD_REACTORS
330
47
102
}
330
47
100
AcDbScale
 70
     0
300
10:1
140
10.0
141
1.0
290
     0
  0
SCALE
  5
58
102
{ACAD_REACTORS
330
47
102
}
330
47
100
AcDbScale
 70
     0
300
100:1
140
100.0
141
1.0
290
     0
  0
ENDSEC
  0
EOF
