  0
SECTION
  2
HEADER
  9
$ACADVER
  1
AC1015
  9
$ACADMAINTVER
 70
     6
  9
$DWGCODEPAGE
  3
ANSI_1252
  9
$INSBASE
 10
0.0
 20
0.0
 30
0.0
  9
$EXTMIN
 10
-389.3196898987
 20
0.0
 30
0.0
  9
$EXTMAX
 10
498.3196898987
 20
870.0
 30
0.0
  9
$LIMMIN
 10
0.0
 20
0.0
  9
$LIMMAX
 10
420.0
 20
297.0
  9
$ORTHOMODE
 70
     0
  9
$REGENMODE
 70
     1
  9
$FILLMODE
 70
     1
  9
$QTEXTMODE
 70
     0
  9
$MIRRTEXT
 70
     1
  9
$LTSCALE
 40
1.0
  9
$ATTMODE
 70
     1
  9
$TEXTSIZE
 40
3.5
  9
$TRACEWID
 40
1.0
  9
$TEXTSTYLE
  7
Standard
  9
$CLAYER
  8
0
  9
$CELTYPE
  6
ByLayer
  9
$CECOLOR
 62
   256
  9
$CELTSCALE
 40
1.0
  9
$DISPSILH
 70
     0
  9
$DIMSCALE
 40
1.0
  9
$DIMASZ
 40
3.302
  9
$DIMEXO
 40
0.0
  9
$DIMDLI
 40
3.75
  9
$DIMRND
 40
0.0
  9
$DIMDLE
 40
0.0
  9
$DIMEXE
 40
1.0
  9
$DIMTP
 40
0.0
  9
$DIMTM
 40
0.0
  9
$DIMTXT
 40
3.5
  9
$DIMCEN
 40
2.5
  9
$DIMTSZ
 40
0.0
  9
$DIMTOL
 70
     0
  9
$DIMLIM
 70
     0
  9
$DIMTIH
 70
     1
  9
$DIMTOH
 70
     1
  9
$DIMSE1
 70
     0
  9
$DIMSE2
 70
     0
  9
$DIMTAD
 70
     1
  9
$DIMZIN
 70
     1
  9
$DIMBLK
  1

  9
$DIMASO
 70
     1
  9
$DIMSHO
 70
     1
  9
$DIMPOST
  1

  9
$DIMAPOST
  1

  9
$DIMALT
 70
     0
  9
$DIMALTD
 70
     3
  9
$DIMALTF
 40
0.0393700787
  9
$DIMLFAC
 40
1.0
  9
$DIMTOFL
 70
     1
  9
$DIMTVP
 40
0.0
  9
$DIMTIX
 70
     0
  9
$DIMSOXD
 70
     0
  9
$DIMSAH
 70
     0
  9
$DIMBLK1
  1

  9
$DIMBLK2
  1

  9
$DIMSTYLE
  2
ISO-25
  9
$DIMCLRD
 70
     0
  9
$DIMCLRE
 70
     0
  9
$DIMCLRT
 70
     0
  9
$DIMTFAC
 40
1.0
  9
$DIMGAP
 40
1.524
  9
$DIMJUST
 70
     0
  9
$DIMSD1
 70
     0
  9
$DIMSD2
 70
     0
  9
$DIMTOLJ
 70
     0
  9
$DIMTZIN
 70
     1
  9
$DIMALTZ
 70
     0
  9
$DIMALTTZ
 70
     0
  9
$DIMUPT
 70
     0
  9
$DIMDEC
 70
     2
  9
$DIMTDEC
 70
     2
  9
$DIMALTU
 70
     2
  9
$DIMALTTD
 70
     3
  9
$DIMTXSTY
  7
Standard
  9
$DIMAUNIT
 70
     0
  9
$DIMADEC
 70
     2
  9
$DIMALTRND
 40
0.0
  9
$DIMAZIN
 70
     0
  9
$DIMDSEP
 70
    44
  9
$DIMATFIT
 70
     3
  9
$DIMFRAC
 70
     0
  9
$DIMLDRBLK
  1

  9
$DIMLUNIT
 70
     2
  9
$DIMLWD
 70
    -2
  9
$DIMLWE
 70
    -2
  9
$DIMTMOVE
 70
     0
  9
$LUNITS
 70
     2
  9
$LUPREC
 70
     2
  9
$SKETCHINC
 40
1.0
  9
$FILLETRAD
 40
0.0
  9
$AUNITS
 70
     0
  9
$AUPREC
 70
     2
  9
$MENU
  1
.
  9
$ELEVATION
 40
0.0
  9
$PELEVATION
 40
0.0
  9
$THICKNESS
 40
0.0
  9
$LIMCHECK
 70
     0
  9
$CHAMFERA
 40
0.0
  9
$CHAMFERB
 40
0.0
  9
$CHAMFERC
 40
0.0
  9
$CHAMFERD
 40
0.0
  9
$SKPOLY
 70
     0
  9
$TDCREATE
 40
2460812.806447535
  9
$TDUCREATE
 40
2460812.723114202
  9
$TDUPDATE
 40
2460812.80650316
  9
$TDUUPDATE
 40
2460812.723169827
  9
$TDINDWG
 40
0.0000000116
  9
$TDUSRTIMER
 40
0.0000000116
  9
$USRTIMER
 70
     1
  9
$ANGBASE
 50
0.0
  9
$ANGDIR
 70
     0
  9
$PDMODE
 70
     0
  9
$PDSIZE
 40
-1.0
  9
$PLINEWID
 40
0.0
  9
$SPLFRAME
 70
     0
  9
$SPLINETYPE
 70
     6
  9
$SPLINESEGS
 70
     8
  9
$HANDSEED
  5
1AB
  9
$SURFTAB1
 70
     6
  9
$SURFTAB2
 70
     6
  9
$SURFTYPE
 70
     6
  9
$SURFU
 70
     6
  9
$SURFV
 70
     6
  9
$UCSBASE
  2

  9
$UCSNAME
  2

  9
$UCSORG
 10
0.0
 20
0.0
 30
0.0
  9
$UCSXDIR
 10
1.0
 20
0.0
 30
0.0
  9
$UCSYDIR
 10
0.0
 20
1.0
 30
0.0
  9
$UCSORTHOREF
  2

  9
$UCSORTHOVIEW
 70
     0
  9
$UCSORGTOP
 10
0.0
 20
0.0
 30
0.0
  9
$UCSORGBOTTOM
 10
0.0
 20
0.0
 30
0.0
  9
$UCSORGLEFT
 10
0.0
 20
0.0
 30
0.0
  9
$UCSORGRIGHT
 10
0.0
 20
0.0
 30
0.0
  9
$UCSORGFRONT
 10
0.0
 20
0.0
 30
0.0
  9
$UCSORGBACK
 10
0.0
 20
0.0
 30
0.0
  9
$PUCSBASE
  2

  9
$PUCSNAME
  2

  9
$PUCSORG
 10
0.0
 20
0.0
 30
0.0
  9
$PUCSXDIR
 10
1.0
 20
0.0
 30
0.0
  9
$PUCSYDIR
 10
0.0
 20
1.0
 30
0.0
  9
$PUCSORTHOREF
  2

  9
$PUCSORTHOVIEW
 70
     0
  9
$PUCSORGTOP
 10
0.0
 20
0.0
 30
0.0
  9
$PUCSORGBOTTOM
 10
0.0
 20
0.0
 30
0.0
  9
$PUCSORGLEFT
 10
0.0
 20
0.0
 30
0.0
  9
$PUCSORGRIGHT
 10
0.0
 20
0.0
 30
0.0
  9
$PUCSORGFRONT
 10
0.0
 20
0.0
 30
0.0
  9
$PUCSORGBACK
 10
0.0
 20
0.0
 30
0.0
  9
$USERI1
 70
     0
  9
$USERI2
 70
     0
  9
$USERI3
 70
     0
  9
$USERI4
 70
     0
  9
$USERI5
 70
     0
  9
$USERR1
 40
0.0
  9
$USERR2
 40
0.0
  9
$USERR3
 40
0.0
  9
$USERR4
 40
0.0
  9
$USERR5
 40
0.0
  9
$WORLDVIEW
 70
     1
  9
$SHADEDGE
 70
     3
  9
$SHADEDIF
 70
    70
  9
$TILEMODE
 70
     1
  9
$MAXACTVP
 70
    64
  9
$PINSBASE
 10
0.0
 20
0.0
 30
0.0
  9
$PLIMCHECK
 70
     0
  9
$PEXTMIN
 10
1.0000000000E+20
 20
1.0000000000E+20
 30
1.0000000000E+20
  9
$PEXTMAX
 10
-1.0000000000E+20
 20
-1.0000000000E+20
 30
-1.0000000000E+20
  9
$PLIMMIN
 10
0.0
 20
0.0
  9
$PLIMMAX
 10
420.0
 20
297.0
  9
$UNITMODE
 70
     0
  9
$VISRETAIN
 70
     1
  9
$PLINEGEN
 70
     0
  9
$PSLTSCALE
 70
     1
  9
$TREEDEPTH
 70
  3020
  9
$CMLSTYLE
  2
Standard
  9
$CMLJUST
 70
     0
  9
$CMLSCALE
 40
20.0
  9
$PROXYGRAPHICS
 70
     1
  9
$MEASUREMENT
 70
     1
  9
$CELWEIGHT
370
    -1
  9
$ENDCAPS
280
     0
  9
$JOINSTYLE
280
     0
  9
$LWDISPLAY
290
     1
  9
$INSUNITS
 70
     4
  9
$HYPERLINKBASE
  1

  9
$STYLESHEET
  1

  9
$XEDIT
290
     1
  9
$CEPSNTYPE
380
     0
  9
$PSTYLEMODE
290
     1
  9
$FINGERPRINTGUID
  2
{87d9d66a-b847-4a4b-a4a6-24b42c4f149d}
  9
$VERSIONGUID
  2
{FAEB1C32-E019-11D5-929B-00C0DF256EC4}
  9
$EXTNAMES
290
     1
  9
$PSVPSCALE
 40
0.0
  9
$OLESTARTUP
290
     0
  0
ENDSEC
  0
SECTION
  2
CLASSES
  0
CLASS
  1
ACDBDICTIONARYWDFLT
  2
AcDbDictionaryWithDefault
  3
ObjectDBX Classes
 90
        0
280
     0
281
     0
  0
CLASS
  1
VISUALSTYLE
  2
AcDbVisualStyle
  3
ObjectDBX Classes
 90
     4095
280
     0
281
     0
  0
CLASS
  1
MATERIAL
  2
AcDbMaterial
  3
ObjectDBX Classes
 90
     1153
280
     0
281
     0
  0
CLASS
  1
SCALE
  2
AcDbScale
  3
ObjectDBX Classes
 90
     1153
280
     0
281
     0
  0
CLASS
  1
TABLESTYLE
  2
AcDbTableStyle
  3
ObjectDBX Classes
 90
     4095
280
     0
281
     0
  0
CLASS
  1
MLEADERSTYLE
  2
AcDbMLeaderStyle
  3
ACDB_MLEADERSTYLE_CLASS
 90
     4095
280
     0
281
     0
  0
CLASS
  1
SUN
  2
AcDbSun
  3
SCENEOE
 90
     1153
280
     0
281
     0
  0
CLASS
  1
ACDBPLACEHOLDER
  2
AcDbPlaceHolder
  3
ObjectDBX Classes
 90
        0
280
     0
281
     0
  0
CLASS
  1
LAYOUT
  2
AcDbLayout
  3
ObjectDBX Classes
 90
        0
280
     0
281
     0
  0
ENDSEC
  0
SECTION
  2
TABLES
  0
TABLE
  2
VPORT
  5
8
330
0
100
AcDbSymbolTable
 70
     1
  0
VPORT
  5
29
330
8
100
AcDbSymbolTableRecord
100
AcDbViewportTableRecord
  2
*Active
 70
     0
 10
0.0
 20
0.0
 11
1.0
 21
1.0
 12
54.5
 22
435.0
 13
0.0
 23
0.0
 14
10.0
 24
10.0
 15
10.0
 25
10.0
 16
0.0
 26
0.0
 36
1.0
 17
0.0
 27
0.0
 37
0.0
 40
887.4
 41
1.0202751492
 42
50.0
 43
0.0
 44
0.0
 50
0.0
 51
0.0
 71
     0
 72
   100
 73
     1
 74
     3
 75
     0
 76
     0
 77
     0
 78
     0
281
     0
 65
     1
110
0.0
120
0.0
130
0.0
111
1.0
121
0.0
131
0.0
112
0.0
122
1.0
132
0.0
 79
     0
146
0.0
  0
ENDTAB
  0
TABLE
  2
LTYPE
  5
5
330
0
100
AcDbSymbolTable
 70
     6
  0
LTYPE
  5
14
330
5
100
AcDbSymbolTableRecord
100
AcDbLinetypeTableRecord
  2
ByBlock
 70
     0
  3

 72
    65
 73
     0
 40
0.0
  0
LTYPE
  5
15
330
5
100
AcDbSymbolTableRecord
100
AcDbLinetypeTableRecord
  2
ByLayer
 70
     0
  3

 72
    65
 73
     0
 40
0.0
  0
LTYPE
  5
16
330
5
100
AcDbSymbolTableRecord
100
AcDbLinetypeTableRecord
  2
Continuous
 70
     0
  3
Solid line
 72
    65
 73
     0
 40
0.0
  0
LTYPE
  5
5E
330
5
100
AcDbSymbolTableRecord
100
AcDbLinetypeTableRecord
  2
HIDDEN
 70
     0
  3
Hidden __ __ __ __ __ __ __ __ __ __ __ __ __ __
 72
    65
 73
     2
 40
1.905
 49
1.27
 74
     0
 49
-0.635
 74
     0
  0
LTYPE
  5
5F
330
5
100
AcDbSymbolTableRecord
100
AcDbLinetypeTableRecord
  2
PHANTOM
 70
     0
  3
Phantom ______  __  __  ______  __  __  ______
 72
    65
 73
     6
 40
12.7
 49
6.35
 74
     0
 49
-1.27
 74
     0
 49
1.27
 74
     0
 49
-1.27
 74
     0
 49
1.27
 74
     0
 49
-1.27
 74
     0
  0
LTYPE
  5
60
330
5
100
AcDbSymbolTableRecord
100
AcDbLinetypeTableRecord
  2
CENTER
 70
     0
  3
Center ____ _ ____ _ ____ _ ____ _ ____ _ ____
 72
    65
 73
     4
 40
10.16
 49
6.35
 74
     0
 49
-1.27
 74
     0
 49
1.27
 74
     0
 49
-1.27
 74
     0
  0
LTYPE
  5
61
330
5
100
AcDbSymbolTableRecord
100
AcDbLinetypeTableRecord
  2
CENTERX2
 70
     0
  3
Center (2x) ________  __  ________  __  _____
 72
    65
 73
     4
 40
20.32
 49
12.7
 74
     0
 49
-2.54
 74
     0
 49
2.54
 74
     0
 49
-2.54
 74
     0
  0
LTYPE
  5
62
330
5
100
AcDbSymbolTableRecord
100
AcDbLinetypeTableRecord
  2
DOT2
 70
     0
  3
Dot (.5x) ........................................
 72
    65
 73
     2
 40
0.635
 49
0.0
 74
     0
 49
-0.635
 74
     0
  0
ENDTAB
  0
TABLE
  2
LAYER
  5
2
330
0
100
AcDbSymbolTable
 70
     1
  0
LAYER
  5
10
330
2
100
AcDbSymbolTableRecord
100
AcDbLayerTableRecord
  2
0
 70
     0
 62
     7
  6
Continuous
370
    -3
390
F
  0
ENDTAB
  0
TABLE
  2
STYLE
  5
3
330
0
100
AcDbSymbolTable
 70
     2
  0
STYLE
  5
11
330
3
100
AcDbSymbolTableRecord
100
AcDbTextStyleTableRecord
  2
Standard
 70
     0
 40
0.0
 41
1.0
 50
0.0
 71
     0
 42
3.5
  3
txt
  4

  0
STYLE
  5
1A7
330
3
100
AcDbSymbolTableRecord
100
AcDbTextStyleTableRecord
  2
SLDTEXTSTYLE0
 70
     0
 40
0.0
 41
0.7
 50
0.0
 71
     0
 42
3.5
  3
TXT
  4

  0
ENDTAB
  0
TABLE
  2
VIEW
  5
6
330
0
100
AcDbSymbolTable
 70
     0
  0
ENDTAB
  0
TABLE
  2
UCS
  5
7
330
0
100
AcDbSymbolTable
 70
     0
  0
ENDTAB
  0
TABLE
  2
APPID
  5
9
330
0
100
AcDbSymbolTable
 70
     1
  0
APPID
  5
12
330
9
100
AcDbSymbolTableRecord
100
AcDbRegAppTableRecord
  2
ACAD
 70
     0
  0
ENDTAB
  0
TABLE
  2
DIMSTYLE
  5
A
330
0
100
AcDbSymbolTable
 70
     1
100
AcDbDimStyleTable
  0
DIMSTYLE
105
27
330
A
100
AcDbSymbolTableRecord
100
AcDbDimStyleTableRecord
  2
ISO-25
 70
     0
 41
2.5
 42
0.625
 43
3.75
 44
1.25
 73
     0
 74
     0
 77
     1
 78
     8
140
2.5
141
2.5
143
0.0393700787
147
0.625
171
     3
172
     1
178
     0
271
     2
272
     2
274
     3
278
    44
283
     0
284
     8
340
11
  0
ENDTAB
  0
TABLE
  2
BLOCK_RECORD
  5
1
330
0
100
AcDbSymbolTable
 70
     1
  0
BLOCK_RECORD
  5
1F
330
1
100
AcDbSymbolTableRecord
100
AcDbBlockTableRecord
  2
*Model_Space
340
22
  0
BLOCK_RECORD
  5
1B
330
1
100
AcDbSymbolTableRecord
100
AcDbBlockTableRecord
  2
*Paper_Space
340
1E
  0
BLOCK_RECORD
  5
23
330
1
100
AcDbSymbolTableRecord
100
AcDbBlockTableRecord
  2
*Paper_Space0
340
26
  0
ENDTAB
  0
ENDSEC
  0
SECTION
  2
BLOCKS
  0
BLOCK
  5
20
330
1F
100
AcDbEntity
  8
0
100
AcDbBlockBegin
  2
*Model_Space
 70
     0
 10
0.0
 20
0.0
 30
0.0
  3
*Model_Space
  1

  0
ENDBLK
  5
21
330
1F
100
AcDbEntity
  8
0
100
AcDbBlockEnd
  0
BLOCK
  5
1C
330
1B
100
AcDbEntity
 67
     1
  8
0
100
AcDbBlockBegin
  2
*Paper_Space
 70
     0
 10
0.0
 20
0.0
 30
0.0
  3
*Paper_Space
  1

  0
ENDBLK
  5
1D
330
1B
100
AcDbEntity
 67
     1
  8
0
100
AcDbBlockEnd
  0
BLOCK
  5
24
330
23
100
AcDbEntity
  8
0
100
AcDbBlockBegin
  2
*Paper_Space0
 70
     0
 10
0.0
 20
0.0
 30
0.0
  3
*Paper_Space0
  1

  0
ENDBLK
  5
25
330
23
100
AcDbEntity
  8
0
100
AcDbBlockEnd
  0
ENDSEC
  0
SECTION
  2
ENTITIES
  0
LINE
  5
63
330
1F
100
AcDbEntity
  8
0
  6
Continuous
 62
     7
100
AcDbLine
 10
-1.8401550507
 20
0.0
 30
0.0
 11
-1.8401550507
 21
300.0
 31
0.0
  0
LINE
  5
64
330
1F
100
AcDbEntity
  8
0
  6
HIDDEN
 62
     7
100
AcDbLine
 10
-230.6598449493
 20
0.0
 30
0.0
 11
-230.6598449493
 21
300.0
 31
0.0
  0
SPLINE
  5
66
330
1F
100
AcDbEntity
  8
0
  6
Continuous
 62
     7
370
    25
100
AcDbSpline
210
0.0
220
0.0
230
1.0
 70
     8
 71
     3
 72
    13
 73
     9
 74
     0
 42
0.00000001
 43
0.00000001
 40
0.0
 40
0.0
 40
0.0
 40
0.0
 40
0.343762191421775
 40
0.4918338323010911
 40
0.6241090704107948
 40
0.7413996050399048
 40
0.8430618504426423
 40
1.0
 40
1.0
 40
1.0
 40
1.0
 10
398.9124924411889
 20
24.85683757160439
 30
0.0
 10
398.9119459840107
 20
24.95781823306364
 30
0.0
 10
398.9141690554208
 20
25.10226484317368
 30
0.0
 10
398.9194433343097
 20
25.2855204205944
 30
0.0
 10
398.9259964854526
 20
25.40213615643727
 30
0.0
 10
398.9331446516777
 20
25.5050727804611
 30
0.0
 10
398.9453684118491
 20
25.61481216274164
 30
0.0
 10
398.9568323655639
 20
25.68998422522895
 30
0.0
 10
398.9685821847786
 20
25.73464205878384
 30
0.0
  0
SPLINE
  5
67
330
1F
100
AcDbEntity
  8
0
  6
Continuous
 62
     7
370
    25
100
AcDbSpline
210
0.0
220
0.0
230
1.0
 70
     8
 71
     3
 72
    17
 73
    13
 74
     0
 42
0.00000001
 43
0.00000001
 40
0.0
 40
0.0
 40
0.0
 40
0.0
 40
0.1717166158284539
 40
0.2506679767741051
 40
0.3258823275093822
 40
0.396881271696415
 40
0.4635748406535746
 40
0.5280697489487671
 40
0.5896876632767214
 40
0.7048093833748892
 40
0.8086618718637332
 40
1.0
 40
1.0
 40
1.0
 40
1.0
 10
398.9685821847786
 20
25.73464205878384
 30
0.0
 10
398.9805053321378
 20
25.77911347298911
 30
0.0
 10
399.00002671948
 20
25.8435913527898
 30
0.0
 10
399.0328781593049
 20
25.92464619795742
 30
0.0
 10
399.0585370918689
 20
25.97937764328096
 30
0.0
 10
399.0867091310937
 20
26.02910671873804
 30
0.0
 10
399.116191407795
 20
26.07468623730469
 30
0.0
 10
399.1483318345863
 20
26.1153318249362
 30
0.0
 10
399.1933736435298
 20
26.16189235784849
 30
0.0
 10
399.2515480986272
 20
26.21007731676428
 30
0.0
 10
399.3464912106481
 20
26.26691263004199
 30
0.0
 10
399.4253704611714
 20
26.28579031242639
 30
0.0
 10
399.4768954860606
 20
26.28572378955307
 30
0.0
  0
SPLINE
  5
68
330
1F
100
AcDbEntity
  8
0
  6
Continuous
 62
     7
370
    25
100
AcDbSpline
210
0.0
220
0.0
230
1.0
 70
     8
 71
     3
 72
     9
 73
     5
 74
     0
 42
0.00000001
 43
0.00000001
 40
0.0
 40
0.0
 40
0.0
 40
0.0
 40
0.4397700551121884
 40
1.0
 40
1.0
 40
1.0
 40
1.0
 10
399.4768954860606
 20
26.28572378955307
 30
0.0
 10
399.5015795258856
 20
26.28540140084901
 30
0.0
 10
399.5573666810956
 20
26.27607684536526
 30
0.0
 10
399.6088393393142
 20
26.25282120674677
 30
0.0
 10
399.6374523770863
 20
26.24015087288645
 30
0.0
  0
SPLINE
  5
6A
330
1F
100
AcDbEntity
  8
0
  6
Continuous
 62
     7
370
    25
100
AcDbSpline
210
0.0
220
0.0
230
1.0
 70
     8
 71
     3
 72
     9
 73
     5
 74
     0
 42
0.00000001
 43
0.00000001
 40
0.0
 40
0.0
 40
0.0
 40
0.0
 40
0.5364768048236987
 40
1.0
 40
1.0
 40
1.0
 40
1.0
 10
399.8099283386247
 20
26.51218612929673
 30
0.0
 10
399.7655872335657
 20
26.53904602007295
 30
0.0
 10
399.677934121849
 20
26.58258393155233
 30
0.0
 10
399.581467291545
 20
26.59947693276843
 30
0.0
 10
399.5364908386247
 20
26.59982635365565
 30
0.0
  0
SPLINE
  5
6B
330
1F
100
AcDbEntity
  8
0
  6
Continuous
 62
     7
370
    25
100
AcDbSpline
210
0.0
220
0.0
230
1.0
 70
     8
 71
     3
 72
    13
 73
     9
 74
     0
 42
0.00000001
 43
0.00000001
 40
0.0
 40
0.0
 40
0.0
 40
0.0
 40
0.2138863655718647
 40
0.3246827750473095
 40
0.439458544744861
 40
0.561633485869794
 40
0.6938876172598769
 40
1.0
 40
1.0
 40
1.0
 40
1.0
 10
399.5364908386247
 20
26.59982635365565
 30
0.0
 10
399.4804104458547
 20
26.59943733708325
 30
0.0
 10
399.3948518509611
 20
26.58759068659189
 30
0.0
 10
399.2872785586065
 20
26.54491347785493
 30
0.0
 10
399.2068975279994
 20
26.5011531385555
 30
0.0
 10
399.1292616650501
 20
26.44262485919013
 30
0.0
 10
399.0234647716287
 20
26.33993379819955
 30
0.0
 10
398.9555125692952
 20
26.24616611365072
 30
0.0
 10
398.9124924411889
 20
26.17845215493775
 30
0.0
  0
SPLINE
  5
71
330
1F
100
AcDbEntity
  8
0
  6
Continuous
 62
     7
370
    25
100
AcDbSpline
210
0.0
220
0.0
230
1.0
 70
     8
 71
     3
 72
    13
 73
     9
 74
     0
 42
0.00000001
 43
0.00000001
 40
0.0
 40
0.0
 40
0.0
 40
0.0
 40
0.2703816178319617
 40
0.3984601291783004
 40
0.5227503451014437
 40
0.6438255660090793
 40
0.7637452368382556
 40
1.0
 40
1.0
 40
1.0
 40
1.0
 10
398.0599283386248
 20
25.20880071262999
 30
0.0
 10
398.0583388739704
 20
25.29406035411341
 30
0.0
 10
398.0509778404686
 20
25.42004269347253
 30
0.0
 10
398.0203763570435
 20
25.58239881192259
 30
0.0
 10
397.9893662239833
 20
25.69622516255754
 30
0.0
 10
397.9509894463139
 20
25.80510689635052
 30
0.0
 10
397.88737867832
 20
25.94189291824112
 30
0.0
 10
397.8274696379334
 20
26.03753208158843
 30
0.0
 10
397.7815829860608
 20
26.09642090493769
 30
0.0
  0
SPLINE
  5
72
330
1F
100
AcDbEntity
  8
0
  6
Continuous
 62
     7
370
    25
100
AcDbSpline
210
0.0
220
0.0
230
1.0
 70
     8
 71
     3
 72
    13
 73
     9
 74
     0
 42
0.00000001
 43
0.00000001
 40
0.0
 40
0.0
 40
0.0
 40
0.0
 40
0.255257368140996
 40
0.3772478104725325
 40
0.4977415562850415
 40
0.6181201760750441
 40
0.7409671592206359
 40
1.0
 40
1.0
 40
1.0
 40
1.0
 10
397.7815829860609
 20
26.09642090493769
 30
0.0
 10
397.7201958423674
 20
26.17708101753691
 30
0.0
 10
397.6167529282293
 20
26.2867207079589
 30
0.0
 10
397.4584777524369
 20
26.40579149326017
 30
0.0
 10
397.3328082408613
 20
26.47700323996782
 30
0.0
 10
397.1989638953547
 20
26.53208887145719
 30
0.0
 10
397.0063708322024
 20
26.58537812161654
 30
0.0
 10
396.8544625714744
 20
26.60025832723722
 30
0.0
 10
396.7516350693941
 20
26.59982635365565
 30
0.0
  0
SPLINE
  5
73
330
1F
100
AcDbEntity
  8
0
  6
Continuous
 62
     7
370
    25
100
AcDbSpline
210
0.0
220
0.0
230
1.0
 70
     8
 71
     3
 72
    13
 73
     9
 74
     0
 42
0.00000001
 43
0.00000001
 40
0.0
 40
0.0
 40
0.0
 40
0.0
 40
0.2602406645595056
 40
0.3836752253642184
 40
0.5046599577622765
 40
0.6253567426858504
 40
0.7464106650135791
 40
1.0
 40
1.0
 40
1.0
 40
1.0
 10
396.7516350693941
 20
26.59982635365565
 30
0.0
 10
396.6521788582775
 20
26.59862777346922
 30
0.0
 10
396.5043030613016
 20
26.58759892260998
 30
0.0
 10
396.3177570353307
 20
26.53510451972163
 30
0.0
 10
396.1874156006072
 20
26.48347199000545
 30
0.0
 10
396.0658385775754
 20
26.41543244464073
 30
0.0
 10
395.9111764255963
 20
26.30466991766556
 30
0.0
 10
395.8124084501898
 20
26.19878808229559
 30
0.0
 10
395.7518353899069
 20
26.12306353314287
 30
0.0
  0
SPLINE
  5
74
330
1F
100
AcDbEntity
  8
0
  6
Continuous
 62
     7
370
    25
100
AcDbSpline
210
0.0
220
0.0
230
1.0
 70
     8
 71
     3
 72
    13
 73
     9
 74
     0
 42
0.00000001
 43
0.00000001
 40
0.0
 40
0.0
 40
0.0
 40
0.0
 40
0.2534216680665266
 40
0.3767041167575432
 40
0.4994491585174913
 40
0.6225715734186964
 40
0.7462320999755214
 40
1.0
 40
1.0
 40
1.0
 40
1.0
 10
395.7518353899069
 20
26.12306353314287
 30
0.0
 10
395.7042841274122
 20
26.06157170931755
 30
0.0
 10
395.6391202946838
 20
25.96550243803708
 30
0.0
 10
395.570947518327
 20
25.82799140180547
 30
0.0
 10
395.5293684166062
 20
25.72245115208749
 30
0.0
 10
395.4972209838793
 20
25.61356346027199
 30
0.0
 10
395.465593604322
 20
25.46301974931275
 30
0.0
 10
395.4583175242659
 20
25.3468908891481
 30
0.0
 10
395.4573642360608
 20
25.269097186989
 30
0.0
  0
SPLINE
  5
75
330
1F
100
AcDbEntity
  8
0
  6
Continuous
 62
     7
370
    25
100
AcDbSpline
210
0.0
220
0.0
230
1.0
 70
     8
 71
     3
 72
    21
 73
    17
 74
     0
 42
0.00000001
 43
0.00000001
 40
0.0
 40
0.0
 40
0.0
 40
0.0
 40
0.1210804245006118
 40
0.1800682782218559
 40
0.2391896643238556
 40
0.2987059533012314
 40
0.3588810785072301
 40
0.4203687292950606
 40
0.4834483096802261
 40
0.5465664849029384
 40
0.6086986022254206
 40
0.670186253013248
 40
0.7318650366033053
 40
0.7952033026033165
 40
0.8603707753071415
 40
1.0
 40
1.0
 40
1.0
 40
1.0
 10
395.4573642360608
 20
25.269097186989
 30
0.0
 10
395.4582789632983
 20
25.18607454663901
 30
0.0
 10
395.4670585875973
 20
25.06222273965108
 30
0.0
 10
395.5031398718703
 20
24.90177559542161
 30
0.0
 10
395.5415152687839
 20
24.78591321993751
 30
0.0
 10
395.5890758486312
 20
24.6726422862259
 30
0.0
 10
395.6475311073303
 20
24.56267917002542
 30
0.0
 10
395.7174575265178
 20
24.45672326874593
 30
0.0
 10
395.7967012455326
 20
24.35504126577326
 30
0.0
 10
395.8847254910567
 20
24.26002502245051
 30
0.0
 10
395.9835450358634
 20
24.17789202679021
 30
0.0
 10
396.0900457805596
 20
24.10793527834099
 30
0.0
 10
396.2047884590625
 20
24.05049765125278
 30
0.0
 10
396.3279985112862
 20
24.00657197746614
 30
0.0
 10
396.5072303543178
 20
23.96342562216258
 30
0.0
 10
396.6481520496559
 20
23.95242933912123
 30
0.0
 10
396.7439227296505
 20
23.95239045621977
 30
0.0
  0
SPLINE
  5
76
330
1F
100
AcDbEntity
  8
0
  6
Continuous
 62
     7
370
    25
100
AcDbSpline
210
0.0
220
0.0
230
1.0
 70
     8
 71
     3
 72
    17
 73
    13
 74
     0
 42
0.00000001
 43
0.00000001
 40
0.0
 40
0.0
 40
0.0
 40
0.0
 40
0.1781058515637827
 40
0.2613277635121511
 40
0.3415565694705521
 40
0.4200079090126525
 40
0.4980968161626226
 40
0.5754001382821239
 40
0.6536452159657116
 40
0.7341257729573898
 40
0.8183392339289949
 40
1.0
 40
1.0
 40
1.0
 40
1.0
 10
396.7439227296505
 20
23.95239045621977
 30
0.0
 10
396.8302165214083
 20
23.95240161639423
 30
0.0
 10
396.9570930031783
 20
23.96105583742592
 30
0.0
 10
397.1194762757543
 20
23.99438153555322
 30
0.0
 10
397.2317749252961
 20
24.02875977033048
 30
0.0
 10
397.337624741723
 20
24.07352046202793
 30
0.0
 10
397.4379140572383
 20
24.12663654405367
 30
0.0
 10
397.5326446442499
 20
24.18897606102888
 30
0.0
 10
397.6223222502782
 20
24.26022301050401
 30
0.0
 10
397.7073952430202
 20
24.34196942868572
 30
0.0
 10
397.8143411271282
 20
24.47173158340654
 30
0.0
 10
397.8838121178884
 20
24.58072746912954
 30
0.0
 10
397.9253129540094
 20
24.65842010365571
 30
0.0
  0
SPLINE
  5
78
330
1F
100
AcDbEntity
  8
0
  6
Continuous
 62
     7
370
    25
100
AcDbSpline
210
0.0
220
0.0
230
1.0
 70
     8
 71
     3
 72
    17
 73
    13
 74
     0
 42
0.00000001
 43
0.00000001
 40
0.0
 40
0.0
 40
0.0
 40
0.0
 40
0.2079350339033564
 40
0.2946939715678991
 40
0.3697315241424307
 40
0.440830943802725
 40
0.5142509140460771
 40
0.5913900390896499
 40
0.6722743046458497
 40
0.7543412603705406
 40
0.8361211059014766
 40
1.0
 40
1.0
 40
1.0
 40
1.0
 10
397.6462664796505
 20
24.80495455878384
 30
0.0
 10
397.6037417536476
 20
24.73840707488084
 30
0.0
 10
397.5366259839776
 20
24.64877660942932
 30
0.0
 10
397.4431281949768
 20
24.54395767780026
 30
0.0
 10
397.3770763551432
 20
24.48493635266713
 30
0.0
 10
397.308954736255
 20
24.43672999489832
 30
0.0
 10
397.2360757922697
 20
24.39457885283558
 30
0.0
 10
397.1568298939388
 20
24.35647834035026
 30
0.0
 10
397.0712590821875
 20
24.32489310966379
 30
0.0
 10
396.981998338924
 20
24.29903483287321
 30
0.0
 10
396.8601500454516
 20
24.27351525084698
 30
0.0
 10
396.7668538130777
 20
24.26619218957315
 30
0.0
 10
396.7046599091377
 20
24.26649302032235
 30
0.0
  0
SPLINE
  5
79
330
1F
100
AcDbEntity
  8
0
  6
Continuous
 62
     7
370
    25
100
AcDbSpline
210
0.0
220
0.0
230
1.0
 70
     8
 71
     3
 72
    21
 73
    17
 74
     0
 42
0.00000001
 43
0.00000001
 40
0.0
 40
0.0
 40
0.0
 40
0.0
 40
0.1276691474530424
 40
0.1889505232706536
 40
0.2490548673082992
 40
0.3090713134763196
 40
0.3692223593686933
 40
0.4301747620269846
 40
0.4926019887960209
 40
0.555346876893578
 40
0.6169627615204942
 40
0.678170777192346
 40
0.73924652255152
 40
0.8016089422160485
 40
0.8655244124565523
 40
1.0
 40
1.0
 40
1.0
 40
1.0
 10
396.7046599091377
 20
24.26649302032235
 30
0.0
 10
396.6416487547535
 20
24.26614333601929
 30
0.0
 10
396.5485205038609
 20
24.27486230068077
 30
0.0
 10
396.4285384387885
 20
24.30192876066151
 30
0.0
 10
396.3437661637286
 20
24.33099983173859
 30
0.0
 10
396.2628682110552
 20
24.3681890939299
 30
0.0
 10
396.1859746088327
 20
24.41399216866957
 30
0.0
 10
396.1136918795188
 20
24.46864463318532
 30
0.0
 10
396.044984749546
 20
24.52970520515629
 30
0.0
 10
395.98325917074
 20
24.59827239169976
 30
0.0
 10
395.9279191776222
 20
24.67131031694558
 30
0.0
 10
395.8815350811852
 20
24.74947232532399
 30
0.0
 10
395.8436621666772
 20
24.83240257236363
 30
0.0
 10
395.8124164017258
 20
24.9194851521114
 30
0.0
 10
395.7821358710526
 20
25.04469844335966
 30
0.0
 10
395.7732555246331
 20
25.14255470162119
 30
0.0
 10
395.7714668001634
 20
25.20880071262999
 30
0.0
  0
SPLINE
  5
7A
330
1F
100
AcDbEntity
  8
0
  6
Continuous
 62
     7
370
    25
100
AcDbSpline
210
0.0
220
0.0
230
1.0
 70
     8
 71
     3
 72
    13
 73
     9
 74
     0
 42
0.00000001
 43
0.00000001
 40
0.0
 40
0.0
 40
0.0
 40
0.0
 40
0.2614889296266582
 40
0.385247236759955
 40
0.505898487100322
 40
0.62578956281734
 40
0.7470150281421291
 40
1.0
 40
1.0
 40
1.0
 40
1.0
 10
394.5150565437532
 20
26.05996257160437
 30
0.0
 10
394.4517226082307
 20
26.14449965471621
 30
0.0
 10
394.3497139108129
 20
26.26441278894131
 30
0.0
 10
394.1874635655088
 20
26.39040505475288
 30
0.0
 10
394.061098520365
 20
26.46723791755235
 30
0.0
 10
393.9266004006292
 20
26.52626969252914
 30
0.0
 10
393.7347618407284
 20
26.58494855842719
 30
0.0
 10
393.5825187453399
 20
26.59957844226046
 30
0.0
 10
393.4802007745224
 20
26.59982635365565
 30
0.0
  0
SPLINE
  5
7B
330
1F
100
AcDbEntity
  8
0
  6
Continuous
 62
     7
370
    25
100
AcDbSpline
210
0.0
220
0.0
230
1.0
 70
     8
 71
     3
 72
    21
 73
    17
 74
     0
 42
0.00000001
 43
0.00000001
 40
0.0
 40
0.0
 40
0.0
 40
0.0
 40
0.1283692574311769
 40
0.190417708860092
 40
0.2519211667422389
 40
0.3132736507580476
 40
0.3750861342515197
 40
0.438389176770406
 40
0.5032092055629105
 40
0.5679667722557898
 40
0.630868101539027
 40
0.6919966438355534
 40
0.7524260650823844
 40
0.8130959072527861
 40
0.8739211900104884
 40
1.0
 40
1.0
 40
1.0
 40
1.0
 10
393.4802007745224
 20
26.59982635365565
 30
0.0
 10
393.3907875422316
 20
26.59902873199682
 30
0.0
 10
393.2577634212975
 20
26.58888532815462
 30
0.0
 10
393.0865507870251
 20
26.5482058437303
 30
0.0
 10
392.9649852068678
 20
26.50483157923444
 30
0.0
 10
392.8477217904208
 20
26.45116880480791
 30
0.0
 10
392.7364986153929
 20
26.38345447543134
 30
0.0
 10
392.6295898693957
 20
26.30504473459194
 30
0.0
 10
392.5296550486371
 20
26.21482431010547
 30
0.0
 10
392.4374028583214
 20
26.11715304114304
 30
0.0
 10
392.357382947363
 20
26.01238362307534
 30
0.0
 10
392.2894576883929
 20
25.90297971670319
 30
0.0
 10
392.2336053420674
 20
25.78863921890328
 30
0.0
 10
392.1900963749815
 20
25.66928395375456
 30
0.0
 10
392.1481005439722
 20
25.50155193741899
 30
0.0
 10
392.1373690690792
 20
25.3709373867208
 30
0.0
 10
392.1368514155481
 20
25.28311962288643
 30
0.0
  0
SPLINE
  5
7C
330
1F
100
AcDbEntity
  8
0
  6
Continuous
 62
     7
370
    25
100
AcDbSpline
210
0.0
220
0.0
230
1.0
 70
     8
 71
     3
 72
    21
 73
    17
 74
     0
 42
0.00000001
 43
0.00000001
 40
0.0
 40
0.0
 40
0.0
 40
0.0
 40
0.1280988297755863
 40
0.1896694721890465
 40
0.2507063934632511
 40
0.311890666438603
 40
0.3732647830705283
 40
0.4358087922280679
 40
0.500424455805957
 40
0.5650608900029817
 40
0.6276710388631751
 40
0.6893315462593366
 40
0.7500699293139468
 40
0.8109958734420368
 40
0.8725665158555028
 40
1.0
 40
1.0
 40
1.0
 40
1.0
 10
392.1368514155481
 20
25.28311962288643
 30
0.0
 10
392.1370594078102
 20
25.19361326685798
 30
0.0
 10
392.1485663417454
 20
25.06091761134965
 30
0.0
 10
392.1892429177903
 20
24.89021043046058
 30
0.0
 10
392.2321959628981
 20
24.76889616059841
 30
0.0
 10
392.2880276442496
 20
24.65316283372343
 30
0.0
 10
392.3547775924151
 20
24.54212057248872
 30
0.0
 10
392.4348397261755
 20
24.43717502942622
 30
0.0
 10
392.5260714880818
 20
24.33877998108724
 30
0.0
 10
392.6251430867956
 20
24.24819219254881
 30
0.0
 10
392.7310157793494
 20
24.16895049582757
 30
0.0
 10
392.8420758176711
 20
24.10241239820598
 30
0.0
 10
392.9577481921482
 20
24.04682001100566
 30
0.0
 10
393.0790219030371
 20
24.00496243606698
 30
0.0
 10
393.2490885469171
 20
23.96410296397822
 30
0.0
 10
393.3813556577622
 20
23.95260855588732
 30
0.0
 10
393.4703850693942
 20
23.95239045621977
 30
0.0
  0
SPLINE
  5
7D
330
1F
100
AcDbEntity
  8
0
  6
Continuous
 62
     7
370
    25
100
AcDbSpline
210
0.0
220
0.0
230
1.0
 70
     8
 71
     3
 72
    13
 73
     9
 74
     0
 42
0.00000001
 43
0.00000001
 40
0.0
 40
0.0
 40
0.0
 40
0.0
 40
0.2518550583969853
 40
0.3726997642744652
 40
0.4928354033771648
 40
0.6137300878654817
 40
0.7379150246176973
 40
1.0
 40
1.0
 40
1.0
 40
1.0
 10
393.4703850693942
 20
23.95239045621977
 30
0.0
 10
393.5706212488818
 20
23.95158310576873
 30
0.0
 10
393.7190341057454
 20
23.96632065798976
 30
0.0
 10
393.9090869613784
 20
24.01574026370956
 30
0.0
 10
394.0440141681176
 20
24.06686415169379
 30
0.0
 10
394.1726804470568
 20
24.13505526503168
 30
0.0
 10
394.3393080375461
 20
24.24968943247008
 30
0.0
 10
394.4478189885
 20
24.36021890662066
 30
0.0
 10
394.5150565437531
 20
24.43967010365566
 30
0.0
  0
SPLINE
  5
87
330
1F
100
AcDbEntity
  8
0
  6
Continuous
 62
     7
370
    25
100
AcDbSpline
210
0.0
220
0.0
230
1.0
 70
     8
 71
     3
 72
    13
 73
     9
 74
     0
 42
0.00000001
 43
0.00000001
 40
0.0
 40
0.0
 40
0.0
 40
0.0
 40
0.2598496298712539
 40
0.3866707319148509
 40
0.5150828775346947
 40
0.6425029490726826
 40
0.7624536797230972
 40
1.0
 40
1.0
 40
1.0
 40
1.0
 10
391.30532096683
 20
27.09341609724536
 30
0.0
 10
391.343316894795
 20
27.09349173653586
 30
0.0
 10
391.4007245563034
 20
27.1021855950746
 30
0.0
 10
391.4684236502123
 20
27.13698330007031
 30
0.0
 10
391.5130428380455
 20
27.17140909154747
 30
0.0
 10
391.5509921442896
 20
27.21188948629338
 30
0.0
 10
391.5871515801774
 20
27.27384120645637
 30
0.0
 10
391.598464171873
 20
27.32630441508843
 30
0.0
 10
391.5983898770863
 20
27.36124462288647
 30
0.0
  0
SPLINE
  5
88
330
1F
100
AcDbEntity
  8
0
  6
Continuous
 62
     7
370
    25
100
AcDbSpline
210
0.0
220
0.0
230
1.0
 70
     8
 71
     3
 72
    13
 73
     9
 74
     0
 42
0.00000001
 43
0.00000001
 40
0.0
 40
0.0
 40
0.0
 40
0.0
 40
0.2407702368354425
 40
0.3613679915788172
 40
0.4880203848743234
 40
0.6156588752209213
 40
0.7417159076830835
 40
1.0
 40
1.0
 40
1.0
 40
1.0
 10
391.5983898770863
 20
27.36124462288647
 30
0.0
 10
391.5985910319016
 20
27.39690205219258
 30
0.0
 10
391.5872240704122
 20
27.45020255060404
 30
0.0
 10
391.5512202925368
 20
27.51331009896307
 30
0.0
 10
391.5130182904091
 20
27.55386966393214
 30
0.0
 10
391.4684301247734
 20
27.58831438326481
 30
0.0
 10
391.4007201415778
 20
27.62310544428126
 30
0.0
 10
391.3433192014609
 20
27.63180340380356
 30
0.0
 10
391.30532096683
 20
27.63187763570696
 30
0.0
  0
SPLINE
  5
89
330
1F
100
AcDbEntity
  8
0
  6
Continuous
 62
     7
370
    25
100
AcDbSpline
210
0.0
220
0.0
230
1.0
 70
     8
 71
     3
 72
    13
 73
     9
 74
     0
 42
0.00000001
 43
0.00000001
 40
0.0
 40
0.0
 40
0.0
 40
0.0
 40
0.2551062187428466
 40
0.3818851554071034
 40
0.5102546066587019
 40
0.6365625239462811
 40
0.757850918666084
 40
1.0
 40
1.0
 40
1.0
 40
1.0
 10
391.30532096683
 20
27.63187763570696
 30
0.0
 10
391.2679184260564
 20
27.63211422401768
 30
0.0
 10
391.2114174377197
 20
27.62269504295678
 30
0.0
 10
391.1443488188164
 20
27.58830114819477
 30
0.0
 10
391.0997038268371
 20
27.55409613897453
 30
0.0
 10
391.0622722942226
 20
27.5130598258978
 30
0.0
 10
391.0261405594056
 20
27.45027652103471
 30
0.0
 10
391.0148973797973
 20
27.39686407636266
 30
0.0
 10
391.015056543753
 20
27.36124462288647
 30
0.0
  0
SPLINE
  5
8A
330
1F
100
AcDbEntity
  8
0
  6
Continuous
 62
     7
370
    25
100
AcDbSpline
210
0.0
220
0.0
230
1.0
 70
     8
 71
     3
 72
    13
 73
     9
 74
     0
 42
0.00000001
 43
0.00000001
 40
0.0
 40
0.0
 40
0.0
 40
0.0
 40
0.2389149952220574
 40
0.3595568481745961
 40
0.486634766847336
 40
0.6157867870573872
 40
0.7433385965465394
 40
1.0
 40
1.0
 40
1.0
 40
1.0
 10
391.015056543753
 20
27.36124462288647
 30
0.0
 10
391.0150226918097
 20
27.32634095903419
 30
0.0
 10
391.0262149610993
 20
27.27376902769329
 30
0.0
 10
391.0624979357997
 20
27.21213776139741
 30
0.0
 10
391.0996791545894
 20
27.17118247918637
 30
0.0
 10
391.1443553542459
 20
27.13699658851343
 30
0.0
 10
391.2114130566453
 20
27.10259600604781
 30
0.0
 10
391.2679207154409
 20
27.09318091146473
 30
0.0
 10
391.30532096683
 20
27.09341609724536
 30
0.0
  0
SPLINE
  5
8B
330
1F
100
AcDbEntity
  8
0
  6
Continuous
 62
     7
370
    25
100
AcDbSpline
210
0.0
220
0.0
230
1.0
 70
     8
 71
     3
 72
    13
 73
     9
 74
     0
 42
0.00000001
 43
0.00000001
 40
0.0
 40
0.0
 40
0.0
 40
0.0
 40
0.261488929626658
 40
0.3852472367599549
 40
0.5058984871003219
 40
0.6257895628173398
 40
0.7470150281421295
 40
1.0
 40
1.0
 40
1.0
 40
1.0
 10
386.4830052617018
 20
26.05996257160437
 30
0.0
 10
386.4196713261793
 20
26.14449965471621
 30
0.0
 10
386.3176626287618
 20
26.26441278894131
 30
0.0
 10
386.1554122834573
 20
26.39040505475288
 30
0.0
 10
386.0290472383138
 20
26.46723791755235
 30
0.0
 10
385.894549118578
 20
26.52626969252914
 30
0.0
 10
385.7027105586769
 20
26.58494855842719
 30
0.0
 10
385.550467463289
 20
26.59957844226046
 30
0.0
 10
385.448149492471
 20
26.59982635365565
 30
0.0
  0
SPLINE
  5
8C
330
1F
100
AcDbEntity
  8
0
  6
Continuous
 62
     7
370
    25
100
AcDbSpline
210
0.0
220
0.0
230
1.0
 70
     8
 71
     3
 72
    21
 73
    17
 74
     0
 42
0.00000001
 43
0.00000001
 40
0.0
 40
0.0
 40
0.0
 40
0.0
 40
0.1283692574311769
 40
0.190417708860092
 40
0.2519211667422389
 40
0.3132736507580476
 40
0.3750861342515197
 40
0.438389176770406
 40
0.5032092055629105
 40
0.5679667722557898
 40
0.630868101539027
 40
0.6919966438355534
 40
0.7524260650823844
 40
0.8130959072527861
 40
0.8739211900104884
 40
1.0
 40
1.0
 40
1.0
 40
1.0
 10
385.448149492471
 20
26.59982635365565
 30
0.0
 10
385.3587362601803
 20
26.59902873199682
 30
0.0
 10
385.2257121392461
 20
26.58888532815462
 30
0.0
 10
385.0544995049739
 20
26.5482058437303
 30
0.0
 10
384.9329339248165
 20
26.50483157923444
 30
0.0
 10
384.8156705083692
 20
26.45116880480791
 30
0.0
 10
384.7044473333416
 20
26.38345447543134
 30
0.0
 10
384.5975385873444
 20
26.30504473459205
 30
0.0
 10
384.4976037665859
 20
26.21482431010547
 30
0.0
 10
384.4053515762699
 20
26.11715304114304
 30
0.0
 10
384.3253316653116
 20
26.01238362307534
 30
0.0
 10
384.2574064063415
 20
25.90297971670319
 30
0.0
 10
384.2015540600163
 20
25.78863921890328
 30
0.0
 10
384.1580450929303
 20
25.66928395375456
 30
0.0
 10
384.1160492619208
 20
25.50155193741899
 30
0.0
 10
384.1053177870281
 20
25.3709373867208
 30
0.0
 10
384.1048001334967
 20
25.28311962288643
 30
0.0
  0
SPLINE
  5
8D
330
1F
100
AcDbEntity
  8
0
  6
Continuous
 62
     7
370
    25
100
AcDbSpline
210
0.0
220
0.0
230
1.0
 70
     8
 71
     3
 72
    21
 73
    17
 74
     0
 42
0.00000001
 43
0.00000001
 40
0.0
 40
0.0
 40
0.0
 40
0.0
 40
0.1280988297755863
 40
0.1896694721890465
 40
0.2507063934632511
 40
0.311890666438603
 40
0.3732647830705283
 40
0.4358087922280679
 40
0.500424455805957
 40
0.5650608900029817
 40
0.6276710388631751
 40
0.6893315462593366
 40
0.7500699293139468
 40
0.8109958734420368
 40
0.8725665158555028
 40
1.0
 40
1.0
 40
1.0
 40
1.0
 10
384.1048001334967
 20
25.28311962288643
 30
0.0
 10
384.105008125759
 20
25.19361326685798
 30
0.0
 10
384.1165150596939
 20
25.06091761134965
 30
0.0
 10
384.1571916357391
 20
24.89021043046058
 30
0.0
 10
384.2001446808468
 20
24.76889616059841
 30
0.0
 10
384.2559763621982
 20
24.65316283372343
 30
0.0
 10
384.3227263103639
 20
24.54212057248872
 30
0.0
 10
384.402788444124
 20
24.43717502942622
 30
0.0
 10
384.4940202060307
 20
24.33877998108724
 30
0.0
 10
384.5930918047443
 20
24.24819219254881
 30
0.0
 10
384.698964497298
 20
24.16895049582757
 30
0.0
 10
384.8100245356198
 20
24.10241239820598
 30
0.0
 10
384.9256969100966
 20
24.04682001100566
 30
0.0
 10
385.0469706209857
 20
24.00496243606698
 30
0.0
 10
385.2170372648657
 20
23.96410296397833
 30
0.0
 10
385.3493043757109
 20
23.95260855588732
 30
0.0
 10
385.4383337873429
 20
23.95239045621977
 30
0.0
  0
SPLINE
  5
8E
330
1F
100
AcDbEntity
  8
0
  6
Continuous
 62
     7
370
    25
100
AcDbSpline
210
0.0
220
0.0
230
1.0
 70
     8
 71
     3
 72
    13
 73
     9
 74
     0
 42
0.00000001
 43
0.00000001
 40
0.0
 40
0.0
 40
0.0
 40
0.0
 40
0.2518550583969853
 40
0.3726997642744652
 40
0.4928354033771648
 40
0.6137300878654817
 40
0.7379150246176973
 40
1.0
 40
1.0
 40
1.0
 40
1.0
 10
385.4383337873429
 20
23.95239045621977
 30
0.0
 10
385.5385699668308
 20
23.95158310576873
 30
0.0
 10
385.6869828236938
 20
23.96632065798976
 30
0.0
 10
385.8770356793273
 20
24.01574026370956
 30
0.0
 10
386.0119628860662
 20
24.06686415169379
 30
0.0
 10
386.1406291650055
 20
24.13505526503168
 30
0.0
 10
386.3072567554947
 20
24.24968943247008
 30
0.0
 10
386.4157677064489
 20
24.36021890662066
 30
0.0
 10
386.4830052617018
 20
24.43967010365566
 30
0.0
  0
SPLINE
  5
94
330
1F
100
AcDbEntity
  8
0
  6
Continuous
 62
     7
370
    25
100
AcDbSpline
210
0.0
220
0.0
230
1.0
 70
     8
 71
     3
 72
    13
 73
     9
 74
     0
 42
0.00000001
 43
0.00000001
 40
0.0
 40
0.0
 40
0.0
 40
0.0
 40
0.2598496298712539
 40
0.3866707319148509
 40
0.5150828775346947
 40
0.6425029490726826
 40
0.7624536797230972
 40
1.0
 40
1.0
 40
1.0
 40
1.0
 10
387.6258337873427
 20
27.09341609724536
 30
0.0
 10
387.6638297153078
 20
27.09349173653586
 30
0.0
 10
387.721237376816
 20
27.1021855950746
 30
0.0
 10
387.7889364707252
 20
27.13698330007031
 30
0.0
 10
387.8335556585582
 20
27.17140909154747
 30
0.0
 10
387.8715049648023
 20
27.21188948629338
 30
0.0
 10
387.9076644006901
 20
27.27384120645637
 30
0.0
 10
387.9189769923857
 20
27.32630441508843
 30
0.0
 10
387.918902697599
 20
27.36124462288647
 30
0.0
  0
SPLINE
  5
95
330
1F
100
AcDbEntity
  8
0
  6
Continuous
 62
     7
370
    25
100
AcDbSpline
210
0.0
220
0.0
230
1.0
 70
     8
 71
     3
 72
    13
 73
     9
 74
     0
 42
0.00000001
 43
0.00000001
 40
0.0
 40
0.0
 40
0.0
 40
0.0
 40
0.2407702368354425
 40
0.3613679915788172
 40
0.4880203848743234
 40
0.6156588752209213
 40
0.7417159076830835
 40
1.0
 40
1.0
 40
1.0
 40
1.0
 10
387.918902697599
 20
27.36124462288647
 30
0.0
 10
387.9191038524142
 20
27.39690205219258
 30
0.0
 10
387.9077368909252
 20
27.45020255060404
 30
0.0
 10
387.8717331130494
 20
27.51331009896307
 30
0.0
 10
387.8335311109219
 20
27.55386966393214
 30
0.0
 10
387.7889429452862
 20
27.58831438326481
 30
0.0
 10
387.7212329620905
 20
27.62310544428126
 30
0.0
 10
387.6638320219738
 20
27.63180340380356
 30
0.0
 10
387.6258337873427
 20
27.63187763570696
 30
0.0
  0
SPLINE
  5
96
330
1F
100
AcDbEntity
  8
0
  6
Continuous
 62
     7
370
    25
100
AcDbSpline
210
0.0
220
0.0
230
1.0
 70
     8
 71
     3
 72
    13
 73
     9
 74
     0
 42
0.00000001
 43
0.00000001
 40
0.0
 40
0.0
 40
0.0
 40
0.0
 40
0.2551062187428466
 40
0.3818851554071034
 40
0.5102546066587019
 40
0.6365625239462811
 40
0.757850918666084
 40
1.0
 40
1.0
 40
1.0
 40
1.0
 10
387.6258337873427
 20
27.63187763570696
 30
0.0
 10
387.5884312465692
 20
27.63211422401768
 30
0.0
 10
387.5319302582321
 20
27.62269504295678
 30
0.0
 10
387.4648616393292
 20
27.58830114819477
 30
0.0
 10
387.4202166473497
 20
27.55409613897453
 30
0.0
 10
387.3827851147352
 20
27.5130598258978
 30
0.0
 10
387.3466533799184
 20
27.45027652103471
 30
0.0
 10
387.3354102003096
 20
27.39686407636255
 30
0.0
 10
387.3355693642657
 20
27.36124462288647
 30
0.0
  0
SPLINE
  5
97
330
1F
100
AcDbEntity
  8
0
  6
Continuous
 62
     7
370
    25
100
AcDbSpline
210
0.0
220
0.0
230
1.0
 70
     8
 71
     3
 72
    13
 73
     9
 74
     0
 42
0.00000001
 43
0.00000001
 40
0.0
 40
0.0
 40
0.0
 40
0.0
 40
0.2389149952220574
 40
0.3595568481745961
 40
0.486634766847336
 40
0.6157867870573872
 40
0.7433385965465394
 40
1.0
 40
1.0
 40
1.0
 40
1.0
 10
387.3355693642657
 20
27.36124462288647
 30
0.0
 10
387.3355355123224
 20
27.32634095903419
 30
0.0
 10
387.3467277816121
 20
27.27376902769329
 30
0.0
 10
387.3830107563123
 20
27.21213776139741
 30
0.0
 10
387.4201919751021
 20
27.17118247918637
 30
0.0
 10
387.4648681747586
 20
27.13699658851343
 30
0.0
 10
387.5319258771582
 20
27.10259600604781
 30
0.0
 10
387.5884335359534
 20
27.09318091146473
 30
0.0
 10
387.6258337873427
 20
27.09341609724536
 30
0.0
  0
SPLINE
  5
BA
330
1F
100
AcDbEntity
  8
0
  6
Continuous
 62
     7
370
    25
100
AcDbSpline
210
0.0
220
0.0
230
1.0
 70
     8
 71
     3
 72
    21
 73
    17
 74
     0
 42
0.00000001
 43
0.00000001
 40
0.0
 40
0.0
 40
0.0
 40
0.0
 40
0.177181814477931
 40
0.2504939574970168
 40
0.3165674539520691
 40
0.371665960620023
 40
0.4184906873983334
 40
0.455466020138326
 40
0.4833250523741678
 40
0.531454426319034
 40
0.5830124561895627
 40
0.6392239055171625
 40
0.7022806382731928
 40
0.770575709907952
 40
0.8412761191749953
 40
1.0
 40
1.0
 40
1.0
 40
1.0
 10
380.2030573450349
 20
26.90972218698895
 30
0.0
 10
380.2015795831767
 20
26.94364792784898
 30
0.0
 10
380.2048388275026
 20
26.9914924267215
 30
0.0
 10
380.2045860671611
 20
27.05209151034371
 30
0.0
 10
380.2073582698454
 20
27.08919455719683
 30
0.0
 10
380.2085842611724
 20
27.12135820453232
 30
0.0
 10
380.2129685215792
 20
27.14758230524428
 30
0.0
 10
380.21475877339
 20
27.16893656854247
 30
0.0
 10
380.2207087496004
 20
27.18978756339929
 30
0.0
 10
380.2304636986187
 20
27.21230796811025
 30
0.0
 10
380.2484302663221
 20
27.23649317219623
 30
0.0
 10
380.2732163136959
 20
27.25794833534345
 30
0.0
 10
380.3021675496655
 20
27.27930295810177
 30
0.0
 10
380.3370699336385
 20
27.29633040494783
 30
0.0
 10
380.3913117946167
 20
27.31442403051232
 30
0.0
 10
380.4358341778167
 20
27.31662472539542
 30
0.0
 10
380.4659780181119
 20
27.31777507160438
 30
0.0
  0
SPLINE
  5
BB
330
1F
100
AcDbEntity
  8
0
  6
Continuous
 62
     7
370
    25
100
AcDbSpline
210
0.0
220
0.0
230
1.0
 70
     8
 71
     3
 72
     9
 73
     5
 74
     0
 42
0.00000001
 43
0.00000001
 40
0.0
 40
0.0
 40
0.0
 40
0.0
 40
0.4469718272067376
 40
1.0
 40
1.0
 40
1.0
 40
1.0
 10
380.4659780181119
 20
27.31777507160438
 30
0.0
 10
380.5152508632041
 20
27.31758707566989
 30
0.0
 10
380.624496577653
 20
27.30045547182336
 30
0.0
 10
380.7282412210259
 20
27.2626579006785
 30
0.0
 10
380.7842873129837
 20
27.23924943057876
 30
0.0
  0
SPLINE
  5
BD
330
1F
100
AcDbEntity
  8
0
  6
Continuous
 62
     7
370
    25
100
AcDbSpline
210
0.0
220
0.0
230
1.0
 70
     8
 71
     3
 72
     9
 73
     5
 74
     0
 42
0.00000001
 43
0.00000001
 40
0.0
 40
0.0
 40
0.0
 40
0.0
 40
0.5461371453787061
 40
1.0
 40
1.0
 40
1.0
 40
1.0
 10
380.7842873129837
 20
27.56597218698897
 30
0.0
 10
380.7161274720895
 20
27.58527632707997
 30
0.0
 10
380.5902457764184
 20
27.61912414274681
 30
0.0
 10
380.4604288363881
 20
27.63119409481751
 30
0.0
 10
380.4014748129836
 20
27.63187763570696
 30
0.0
  0
SPLINE
  5
BE
330
1F
100
AcDbEntity
  8
0
  6
Continuous
 62
     7
370
    25
100
AcDbSpline
210
0.0
220
0.0
230
1.0
 70
     8
 71
     3
 72
    21
 73
    17
 74
     0
 42
0.00000001
 43
0.00000001
 40
0.0
 40
0.0
 40
0.0
 40
0.0
 40
0.1646104484879524
 40
0.2403548858244436
 40
0.3136978695808184
 40
0.3839383823375313
 40
0.4510833284886485
 40
0.5168266720448291
 40
0.5830951868686798
 40
0.6183697864378587
 40
0.658495645760589
 40
0.7033577203112111
 40
0.7520840367088759
 40
0.8070521683517491
 40
0.8661435665398587
 40
1.0
 40
1.0
 40
1.0
 40
1.0
 10
380.4014748129836
 20
27.63187763570696
 30
0.0
 10
380.3481636902272
 20
27.63096777860019
 30
0.0
 10
380.2694540157383
 20
27.62450013769924
 30
0.0
 10
380.1722008380845
 20
27.59251708343746
 30
0.0
 10
380.1084883995979
 20
27.56011994584295
 30
0.0
 10
380.0518792964442
 20
27.52110797318041
 30
0.0
 10
380.0044864834527
 20
27.47480418867776
 30
0.0
 10
379.9649562423144
 20
27.42317998646371
 30
0.0
 10
379.9405340153224
 20
27.3743300363215
 30
0.0
 10
379.924185466124
 20
27.33122736740057
 30
0.0
 10
379.915173928385
 20
27.29314561576201
 30
0.0
 10
379.9056385065144
 20
27.25075271142497
 30
0.0
 10
379.8989736215004
 20
27.20290666617131
 30
0.0
 10
379.8932198962324
 20
27.150317605377
 30
0.0
 10
379.8891084643673
 20
27.06984814814006
 30
0.0
 10
379.8860009406996
 20
27.00723714361974
 30
0.0
 10
379.8868514155477
 20
26.96370856519415
 30
0.0
  0
SPLINE
  5
C0
330
1F
100
AcDbEntity
  8
0
  6
Continuous
 62
     7
370
    25
100
AcDbSpline
210
0.0
220
0.0
230
1.0
 70
     8
 71
     3
 72
    13
 73
     9
 74
     0
 42
0.00000001
 43
0.00000001
 40
0.0
 40
0.0
 40
0.0
 40
0.0
 40
0.2703816178319617
 40
0.3984601291783004
 40
0.5227503451014437
 40
0.6438255660090793
 40
0.7637452368382556
 40
1.0
 40
1.0
 40
1.0
 40
1.0
 10
379.0791591078557
 20
25.20880071262999
 30
0.0
 10
379.077569643201
 20
25.29406035411341
 30
0.0
 10
379.0702086096995
 20
25.42004269347253
 30
0.0
 10
379.0396071262745
 20
25.58239881192259
 30
0.0
 10
379.008596993214
 20
25.69622516255754
 30
0.0
 10
378.9702202155449
 20
25.80510689635052
 30
0.0
 10
378.9066094475507
 20
25.94189291824123
 30
0.0
 10
378.8467004071645
 20
26.03753208158843
 30
0.0
 10
378.8008137552916
 20
26.09642090493769
 30
0.0
  0
SPLINE
  5
C1
330
1F
100
AcDbEntity
  8
0
  6
Continuous
 62
     7
370
    25
100
AcDbSpline
210
0.0
220
0.0
230
1.0
 70
     8
 71
     3
 72
    13
 73
     9
 74
     0
 42
0.00000001
 43
0.00000001
 40
0.0
 40
0.0
 40
0.0
 40
0.0
 40
0.255257368140996
 40
0.3772478104725325
 40
0.4977415562850415
 40
0.6181201760750441
 40
0.7409671592206359
 40
1.0
 40
1.0
 40
1.0
 40
1.0
 10
378.8008137552917
 20
26.09642090493769
 30
0.0
 10
378.7394266115983
 20
26.17708101753691
 30
0.0
 10
378.6359836974601
 20
26.2867207079589
 30
0.0
 10
378.4777085216678
 20
26.40579149326017
 30
0.0
 10
378.3520390100921
 20
26.47700323996782
 30
0.0
 10
378.2181946645854
 20
26.53208887145719
 30
0.0
 10
378.0256016014332
 20
26.58537812161654
 30
0.0
 10
377.8736933407051
 20
26.60025832723722
 30
0.0
 10
377.7708658386249
 20
26.59982635365565
 30
0.0
  0
SPLINE
  5
C2
330
1F
100
AcDbEntity
  8
0
  6
Continuous
 62
     7
370
    25
100
AcDbSpline
210
0.0
220
0.0
230
1.0
 70
     8
 71
     3
 72
    13
 73
     9
 74
     0
 42
0.00000001
 43
0.00000001
 40
0.0
 40
0.0
 40
0.0
 40
0.0
 40
0.2602406645595056
 40
0.3836752253642184
 40
0.5046599577622765
 40
0.6253567426858504
 40
0.7464106650135791
 40
1.0
 40
1.0
 40
1.0
 40
1.0
 10
377.7708658386249
 20
26.59982635365565
 30
0.0
 10
377.6714096275082
 20
26.59862777346922
 30
0.0
 10
377.5235338305325
 20
26.58759892260998
 30
0.0
 10
377.3369878045615
 20
26.53510451972163
 30
0.0
 10
377.206646369838
 20
26.48347199000545
 30
0.0
 10
377.0850693468062
 20
26.41543244464073
 30
0.0
 10
376.9304071948274
 20
26.30466991766556
 30
0.0
 10
376.8316392194205
 20
26.19878808229559
 30
0.0
 10
376.7710661591378
 20
26.12306353314287
 30
0.0
  0
SPLINE
  5
C3
330
1F
100
AcDbEntity
  8
0
  6
Continuous
 62
     7
370
    25
100
AcDbSpline
210
0.0
220
0.0
230
1.0
 70
     8
 71
     3
 72
    13
 73
     9
 74
     0
 42
0.00000001
 43
0.00000001
 40
0.0
 40
0.0
 40
0.0
 40
0.0
 40
0.2534216680665266
 40
0.3767041167575432
 40
0.4994491585174913
 40
0.6225715734186964
 40
0.7462320999755214
 40
1.0
 40
1.0
 40
1.0
 40
1.0
 10
376.7710661591378
 20
26.12306353314287
 30
0.0
 10
376.7235148966428
 20
26.06157170931755
 30
0.0
 10
376.6583510639147
 20
25.96550243803708
 30
0.0
 10
376.5901782875579
 20
25.82799140180547
 30
0.0
 10
376.548599185837
 20
25.72245115208738
 30
0.0
 10
376.5164517531102
 20
25.61356346027199
 30
0.0
 10
376.4848243735527
 20
25.46301974931275
 30
0.0
 10
376.4775482934966
 20
25.3468908891481
 30
0.0
 10
376.4765950052916
 20
25.269097186989
 30
0.0
  0
SPLINE
  5
C4
330
1F
100
AcDbEntity
  8
0
  6
Continuous
 62
     7
370
    25
100
AcDbSpline
210
0.0
220
0.0
230
1.0
 70
     8
 71
     3
 72
    21
 73
    17
 74
     0
 42
0.00000001
 43
0.00000001
 40
0.0
 40
0.0
 40
0.0
 40
0.0
 40
0.1210804245006118
 40
0.1800682782218559
 40
0.2391896643238556
 40
0.2987059533012314
 40
0.3588810785072301
 40
0.4203687292950606
 40
0.4834483096802261
 40
0.5465664849029384
 40
0.6086986022254206
 40
0.670186253013248
 40
0.7318650366033053
 40
0.7952033026033165
 40
0.8603707753071415
 40
1.0
 40
1.0
 40
1.0
 40
1.0
 10
376.4765950052916
 20
25.269097186989
 30
0.0
 10
376.4775097325291
 20
25.18607454663901
 30
0.0
 10
376.4862893568281
 20
25.06222273965108
 30
0.0
 10
376.5223706411011
 20
24.90177559542161
 30
0.0
 10
376.5607460380148
 20
24.78591321993751
 30
0.0
 10
376.6083066178619
 20
24.6726422862259
 30
0.0
 10
376.6667618765612
 20
24.56267917002542
 30
0.0
 10
376.7366882957486
 20
24.45672326874593
 30
0.0
 10
376.8159320147634
 20
24.35504126577326
 30
0.0
 10
376.9039562602874
 20
24.26002502245051
 30
0.0
 10
377.0027758050943
 20
24.17789202679021
 30
0.0
 10
377.1092765497905
 20
24.10793527834099
 30
0.0
 10
377.2240192282931
 20
24.05049765125278
 30
0.0
 10
377.3472292805172
 20
24.00657197746614
 30
0.0
 10
377.5264611235483
 20
23.96342562216258
 30
0.0
 10
377.6673828188869
 20
23.95242933912123
 30
0.0
 10
377.7631534988813
 20
23.95239045621977
 30
0.0
  0
SPLINE
  5
C5
330
1F
100
AcDbEntity
  8
0
  6
Continuous
 62
     7
370
    25
100
AcDbSpline
210
0.0
220
0.0
230
1.0
 70
     8
 71
     3
 72
    17
 73
    13
 74
     0
 42
0.00000001
 43
0.00000001
 40
0.0
 40
0.0
 40
0.0
 40
0.0
 40
0.1781058515637827
 40
0.2613277635121511
 40
0.3415565694705521
 40
0.4200079090126525
 40
0.4980968161626226
 40
0.5754001382821239
 40
0.6536452159657116
 40
0.7341257729573898
 40
0.8183392339289949
 40
1.0
 40
1.0
 40
1.0
 40
1.0
 10
377.7631534988813
 20
23.95239045621977
 30
0.0
 10
377.8494472906391
 20
23.95240161639423
 30
0.0
 10
377.9763237724093
 20
23.96105583742592
 30
0.0
 10
378.138707044985
 20
23.99438153555322
 30
0.0
 10
378.251005694527
 20
24.02875977033048
 30
0.0
 10
378.3568555109538
 20
24.07352046202793
 30
0.0
 10
378.4571448264691
 20
24.12663654405367
 30
0.0
 10
378.5518754134807
 20
24.18897606102888
 30
0.0
 10
378.6415530195093
 20
24.26022301050401
 30
0.0
 10
378.7266260122509
 20
24.34196942868572
 30
0.0
 10
378.833571896359
 20
24.47173158340654
 30
0.0
 10
378.9030428871191
 20
24.58072746912954
 30
0.0
 10
378.9445437232402
 20
24.65842010365571
 30
0.0
  0
SPLINE
  5
C7
330
1F
100
AcDbEntity
  8
0
  6
Continuous
 62
     7
370
    25
100
AcDbSpline
210
0.0
220
0.0
230
1.0
 70
     8
 71
     3
 72
    17
 73
    13
 74
     0
 42
0.00000001
 43
0.00000001
 40
0.0
 40
0.0
 40
0.0
 40
0.0
 40
0.2079350339033564
 40
0.2946939715678991
 40
0.3697315241424307
 40
0.440830943802725
 40
0.5142509140460771
 40
0.5913900390896499
 40
0.6722743046458497
 40
0.7543412603705406
 40
0.8361211059014766
 40
1.0
 40
1.0
 40
1.0
 40
1.0
 10
378.6654972488813
 20
24.80495455878384
 30
0.0
 10
378.6229725228784
 20
24.73840707488084
 30
0.0
 10
378.5558567532085
 20
24.64877660942932
 30
0.0
 10
378.4623589642076
 20
24.54395767780026
 30
0.0
 10
378.3963071243739
 20
24.48493635266713
 30
0.0
 10
378.3281855054859
 20
24.43672999489832
 30
0.0
 10
378.2553065615003
 20
24.39457885283558
 30
0.0
 10
378.1760606631697
 20
24.35647834035026
 30
0.0
 10
378.0904898514183
 20
24.32489310966379
 30
0.0
 10
378.0012291081549
 20
24.29903483287321
 30
0.0
 10
377.8793808146823
 20
24.27351525084698
 30
0.0
 10
377.7860845823084
 20
24.26619218957315
 30
0.0
 10
377.7238906783685
 20
24.26649302032235
 30
0.0
  0
SPLINE
  5
C8
330
1F
100
AcDbEntity
  8
0
  6
Continuous
 62
     7
370
    25
100
AcDbSpline
210
0.0
220
0.0
230
1.0
 70
     8
 71
     3
 72
    21
 73
    17
 74
     0
 42
0.00000001
 43
0.00000001
 40
0.0
 40
0.0
 40
0.0
 40
0.0
 40
0.1276691474530424
 40
0.1889505232706536
 40
0.2490548673082992
 40
0.3090713134763196
 40
0.3692223593686933
 40
0.4301747620269846
 40
0.4926019887960209
 40
0.555346876893578
 40
0.6169627615204942
 40
0.678170777192346
 40
0.73924652255152
 40
0.8016089422160485
 40
0.8655244124565523
 40
1.0
 40
1.0
 40
1.0
 40
1.0
 10
377.7238906783685
 20
24.26649302032235
 30
0.0
 10
377.6608795239842
 20
24.2661433360194
 30
0.0
 10
377.5677512730918
 20
24.27486230068077
 30
0.0
 10
377.4477692080193
 20
24.30192876066151
 30
0.0
 10
377.3629969329594
 20
24.33099983173859
 30
0.0
 10
377.2820989802862
 20
24.3681890939299
 30
0.0
 10
377.2052053780634
 20
24.41399216866957
 30
0.0
 10
377.1329226487496
 20
24.46864463318532
 30
0.0
 10
377.0642155187768
 20
24.52970520515629
 30
0.0
 10
377.0024899399708
 20
24.59827239169976
 30
0.0
 10
376.9471499468531
 20
24.67131031694558
 30
0.0
 10
376.900765850416
 20
24.74947232532399
 30
0.0
 10
376.862892935908
 20
24.83240257236363
 30
0.0
 10
376.8316471709566
 20
24.9194851521114
 30
0.0
 10
376.8013666402832
 20
25.04469844335966
 30
0.0
 10
376.7924862938642
 20
25.14255470162119
 30
0.0
 10
376.7906975693941
 20
25.20880071262999
 30
0.0
  0
SPLINE
  5
CD
330
1F
100
AcDbEntity
  8
0
  6
Continuous
 62
     7
370
    25
100
AcDbSpline
210
0.0
220
0.0
230
1.0
 70
     8
 71
     3
 72
    21
 73
    17
 74
     0
 42
0.00000001
 43
0.00000001
 40
0.0
 40
0.0
 40
0.0
 40
0.0
 40
0.1231816483428002
 40
0.1830343363247268
 40
0.2428661924761439
 40
0.3025168847059427
 40
0.3633154622039138
 40
0.4250692989986412
 40
0.4890423674851742
 40
0.553087142275227
 40
0.6154454653923731
 40
0.6772864118409536
 40
0.739174987439565
 40
0.8016758129328341
 40
0.8653648077757379
 40
1.0
 40
1.0
 40
1.0
 40
1.0
 10
370.9573642360606
 20
25.269097186989
 30
0.0
 10
370.956857328675
 20
25.18352976986193
 30
0.0
 10
370.9685666756969
 20
25.05640887692906
 30
0.0
 10
371.0071982733959
 20
24.89202008678271
 30
0.0
 10
371.0479809029674
 20
24.77416126458465
 30
0.0
 10
371.1003522960284
 20
24.66027860474229
 30
0.0
 10
371.1642390155115
 20
24.55086850118015
 30
0.0
 10
371.2401130180575
 20
24.44571847803323
 30
0.0
 10
371.3261113483351
 20
24.34570846879025
 30
0.0
 10
371.4211833991412
 20
24.25357272733841
 30
0.0
 10
371.5243833258211
 20
24.17301186313647
 30
0.0
 10
371.6341697149448
 20
24.10440278384607
 30
0.0
 10
371.7513149831873
 20
24.0490984737608
 30
0.0
 10
371.8745419790365
 20
24.0052680218793
 30
0.0
 10
372.0510604570421
 20
23.96330864149165
 30
0.0
 10
372.1890788120333
 20
23.95281254881909
 30
0.0
 10
372.2824844283683
 20
23.95239045621977
 30
0.0
  0
SPLINE
  5
CE
330
1F
100
AcDbEntity
  8
0
  6
Continuous
 62
     7
370
    25
100
AcDbSpline
210
0.0
220
0.0
230
1.0
 70
     8
 71
     3
 72
    21
 73
    17
 74
     0
 42
0.00000001
 43
0.00000001
 40
0.0
 40
0.0
 40
0.0
 40
0.0
 40
0.1341341587220424
 40
0.1979034644236247
 40
0.2604831025120542
 40
0.322145528691671
 40
0.3837784671889386
 40
0.446215423207863
 40
0.5103409574898141
 40
0.5743946950476086
 40
0.6362264024960824
 40
0.6971016460802506
 40
0.7568275569302938
 40
0.8167348601469018
 40
0.8766630214626719
 40
1.0
 40
1.0
 40
1.0
 40
1.0
 10
372.2824844283683
 20
23.95239045621977
 30
0.0
 10
372.3754344777547
 20
23.9527544217738
 30
0.0
 10
372.5129617745727
 20
23.96343130598189
 30
0.0
 10
372.6890169362728
 20
24.00528314505146
 30
0.0
 10
372.8120829627402
 20
24.04895461753087
 30
0.0
 10
372.9287266979593
 20
24.10440106453493
 30
0.0
 10
373.0378806344143
 20
24.17321990883081
 30
0.0
 10
373.140996791175
 20
24.25354890963882
 30
0.0
 10
373.2360487344638
 20
24.34571492238169
 30
0.0
 10
373.322052455973
 20
24.44571681527985
 30
0.0
 10
373.3979250673719
 20
24.55086893275882
 30
0.0
 10
373.461812148223
 20
24.66027849229224
 30
0.0
 10
373.5141834466777
 20
24.77416129456145
 30
0.0
 10
373.5549661014758
 20
24.89202007878099
 30
0.0
 10
373.5935976902061
 20
25.05640888243033
 30
0.0
 10
373.6053070427693
 20
25.18352976702076
 30
0.0
 10
373.6048001334964
 20
25.269097186989
 30
0.0
  0
SPLINE
  5
CF
330
1F
100
AcDbEntity
  8
0
  6
Continuous
 62
     7
370
    25
100
AcDbSpline
210
0.0
220
0.0
230
1.0
 70
     8
 71
     3
 72
    13
 73
     9
 74
     0
 42
0.00000001
 43
0.00000001
 40
0.0
 40
0.0
 40
0.0
 40
0.0
 40
0.2554352550956477
 40
0.3786322712675499
 40
0.5014663143321101
 40
0.6234943774777817
 40
0.746165637203275
 40
1.0
 40
1.0
 40
1.0
 40
1.0
 10
373.6048001334964
 20
25.269097186989
 30
0.0
 10
373.6043257447024
 20
25.35403403357384
 30
0.0
 10
373.5948419359774
 20
25.48027599650271
 30
0.0
 10
373.5576499533965
 20
25.64321529622205
 30
0.0
 10
373.5190077839469
 20
25.75959649764525
 30
0.0
 10
373.469903709104
 20
25.87181500362323
 30
0.0
 10
373.3876643091157
 20
26.01617579436899
 30
0.0
 10
373.3112702457964
 20
26.11611423456062
 30
0.0
 10
373.2542392360605
 20
26.17845215493775
 30
0.0
  0
SPLINE
  5
D0
330
1F
100
AcDbEntity
  8
0
  6
Continuous
 62
     7
370
    25
100
AcDbSpline
210
0.0
220
0.0
230
1.0
 70
     8
 71
     3
 72
    13
 73
     9
 74
     0
 42
0.00000001
 43
0.00000001
 40
0.0
 40
0.0
 40
0.0
 40
0.0
 40
0.2531294102724398
 40
0.3753070134590596
 40
0.4961956083998793
 40
0.617866023907437
 40
0.7416676494858144
 40
1.0
 40
1.0
 40
1.0
 40
1.0
 10
373.2542392360605
 20
26.17845215493775
 30
0.0
 10
373.1920807520701
 20
26.24638876008911
 30
0.0
 10
373.0904654461295
 20
26.3391108851706
 30
0.0
 10
372.9381014484753
 20
26.43665721617916
 30
0.0
 10
372.8197218043457
 20
26.49738542907054
 30
0.0
 10
372.6939258907527
 20
26.54259134126957
 30
0.0
 10
372.5158007622985
 20
26.5872353124037
 30
0.0
 10
372.3765745896774
 20
26.60080099425322
 30
0.0
 10
372.2824844283683
 20
26.59982635365565
 30
0.0
  0
SPLINE
  5
D1
330
1F
100
AcDbEntity
  8
0
  6
Continuous
 62
     7
370
    25
100
AcDbSpline
210
0.0
220
0.0
230
1.0
 70
     8
 71
     3
 72
    13
 73
     9
 74
     0
 42
0.00000001
 43
0.00000001
 40
0.0
 40
0.0
 40
0.0
 40
0.0
 40
0.2587123826906848
 40
0.3820894432542115
 40
0.5035635736272535
 40
0.6251808674329538
 40
0.7472870144846054
 40
1.0
 40
1.0
 40
1.0
 40
1.0
 10
372.2824844283683
 20
26.59982635365565
 30
0.0
 10
372.1879171211446
 20
26.60068970937524
 30
0.0
 10
372.0482911573814
 20
26.58720428799122
 30
0.0
 10
371.8694425364704
 20
26.54285815905122
 30
0.0
 10
371.7437478553865
 20
26.4960865086149
 30
0.0
 10
371.6240665172534
 20
26.43655513401799
 30
0.0
 10
371.4720642906153
 20
26.33703472165017
 30
0.0
 10
371.3695438224246
 20
26.24519360723776
 30
0.0
 10
371.3079251334965
 20
26.17634878955311
 30
0.0
  0
SPLINE
  5
D2
330
1F
100
AcDbEntity
  8
0
  6
Continuous
 62
     7
370
    25
100
AcDbSpline
210
0.0
220
0.0
230
1.0
 70
     8
 71
     3
 72
    13
 73
     9
 74
     0
 42
0.00000001
 43
0.00000001
 40
0.0
 40
0.0
 40
0.0
 40
0.0
 40
0.2537592050616079
 40
0.3772863205702288
 40
0.4989121128148862
 40
0.6213214040214711
 40
0.7447622750750945
 40
1.0
 40
1.0
 40
1.0
 40
1.0
 10
371.3079251334965
 20
26.17634878955311
 30
0.0
 10
371.2515118336113
 20
26.11383789135835
 30
0.0
 10
371.1738133456695
 20
26.01472255511106
 30
0.0
 10
371.0926580711405
 20
25.86996960816212
 30
0.0
 10
371.043109719905
 20
25.75823788300657
 30
0.0
 10
371.0044190040777
 20
25.64230718674598
 30
0.0
 10
370.967406118453
 20
25.47979629818375
 30
0.0
 10
370.9578585028102
 20
25.3538039843223
 30
0.0
 10
370.9573642360606
 20
25.269097186989
 30
0.0
  0
SPLINE
  5
D4
330
1F
100
AcDbEntity
  8
0
  6
Continuous
 62
     7
370
    25
100
AcDbSpline
210
0.0
220
0.0
230
1.0
 70
     8
 71
     3
 72
    13
 73
     9
 74
     0
 42
0.00000001
 43
0.00000001
 40
0.0
 40
0.0
 40
0.0
 40
0.0
 40
0.2620026798763646
 40
0.3865990120013839
 40
0.5078842295733161
 40
0.6287697964346921
 40
0.7494522178423595
 40
1.0
 40
1.0
 40
1.0
 40
1.0
 10
368.0406975693941
 20
24.46070375750187
 30
0.0
 10
368.1082388987014
 20
24.3805644813796
 30
0.0
 10
368.2172715063944
 20
24.26937911488169
 30
0.0
 10
368.3823345653853
 20
24.14987900816101
 30
0.0
 10
368.5104668968982
 20
24.07757701804869
 30
0.0
 10
368.6446684181317
 20
24.02095904937451
 30
0.0
 10
368.8349927975761
 20
23.96839373658732
 30
0.0
 10
368.9834965920448
 20
23.95123054334014
 30
0.0
 10
369.0839668001634
 20
23.95239045621977
 30
0.0
  0
SPLINE
  5
D5
330
1F
100
AcDbEntity
  8
0
  6
Continuous
 62
     7
370
    25
100
AcDbSpline
210
0.0
220
0.0
230
1.0
 70
     8
 71
     3
 72
    21
 73
    17
 74
     0
 42
0.00000001
 43
0.00000001
 40
0.0
 40
0.0
 40
0.0
 40
0.0
 40
0.1277002390698747
 40
0.1892398000966456
 40
0.2501349882872971
 40
0.310842710086852
 40
0.372472090731707
 40
0.4350506334534636
 40
0.4996544386258899
 40
0.5642374836643663
 40
0.6267499200713567
 40
0.6882667786363572
 40
0.7494201652676098
 40
0.8104262745821135
 40
0.8719658356088787
 40
1.0
 40
1.0
 40
1.0
 40
1.0
 10
369.0839668001634
 20
23.95239045621977
 30
0.0
 10
369.1732144110399
 20
23.95271317302761
 30
0.0
 10
369.3057432176772
 20
23.96401736529818
 30
0.0
 10
369.4760303445456
 20
24.00496815027076
 30
0.0
 10
369.5973049323024
 20
24.04681853205204
 30
0.0
 10
369.7129773789381
 20
24.10241265338786
 30
0.0
 10
369.8240362323933
 20
24.16895098825067
 30
0.0
 10
369.9299137261759
 20
24.24818989425814
 30
0.0
 10
370.0289667210533
 20
24.33878897567187
 30
0.0
 10
370.1202676101281
 20
24.43714193493796
 30
0.0
 10
370.200154940715
 20
24.54233563388208
 30
0.0
 10
370.2678563549867
 20
24.65294199057666
 30
0.0
 10
370.3235094725527
 20
24.76892580179724
 30
0.0
 10
370.3665242765707
 20
24.89020246494689
 30
0.0
 10
370.4071786455034
 20
25.06092316836228
 30
0.0
 10
370.4186994582744
 20
25.19361037266288
 30
0.0
 10
370.4189026975992
 20
25.28311962288643
 30
0.0
  0
SPLINE
  5
D6
330
1F
100
AcDbEntity
  8
0
  6
Continuous
 62
     7
370
    25
100
AcDbSpline
210
0.0
220
0.0
230
1.0
 70
     8
 71
     3
 72
    21
 73
    17
 74
     0
 42
0.00000001
 43
0.00000001
 40
0.0
 40
0.0
 40
0.0
 40
0.0
 40
0.1260146004816713
 40
0.1868089060952329
 40
0.2474478502843892
 40
0.307846495991717
 40
0.3691210183050324
 40
0.4319903131536156
 40
0.4967149000659745
 40
0.5615019172671396
 40
0.6247727207665961
 40
0.6865537243536204
 40
0.7478749627318974
 40
0.8093470980883342
 40
0.8713639494369316
 40
1.0
 40
1.0
 40
1.0
 40
1.0
 10
370.4189026975992
 20
25.28311962288643
 30
0.0
 10
370.418389622886
 20
25.37094024094277
 30
0.0
 10
370.407644728846
 20
25.50154642676949
 30
0.0
 10
370.3656704947847
 20
25.66929190563694
 30
0.0
 10
370.3221011057914
 20
25.78860950658168
 30
0.0
 10
370.2664203905288
 20
25.90320203362451
 30
0.0
 10
370.1975513278915
 20
26.01216450449351
 30
0.0
 10
370.1177043582354
 20
26.11718682880992
 30
0.0
 10
370.0253832076036
 20
26.21481513553137
 30
0.0
 10
369.9254669687274
 20
26.30504710438042
 30
0.0
 10
369.8185533946336
 20
26.38345396205077
 30
0.0
 10
369.7073314134453
 20
26.45116858148477
 30
0.0
 10
369.590067896715
 20
26.50483296832695
 30
0.0
 10
369.4685015383387
 20
26.54820047204587
 30
0.0
 10
369.2970674443313
 20
26.58896849264259
 30
0.0
 10
369.1637838257117
 20
26.59892823142229
 30
0.0
 10
369.0741510950351
 20
26.59982635365565
 30
0.0
  0
SPLINE
  5
D7
330
1F
100
AcDbEntity
  8
0
  6
Continuous
 62
     7
370
    25
100
AcDbSpline
210
0.0
220
0.0
230
1.0
 70
     8
 71
     3
 72
    13
 73
     9
 74
     0
 42
0.00000001
 43
0.00000001
 40
0.0
 40
0.0
 40
0.0
 40
0.0
 40
0.2538522779533839
 40
0.3748219688612686
 40
0.4942293474545227
 40
0.6139389177356217
 40
0.736955317238862
 40
1.0
 40
1.0
 40
1.0
 40
1.0
 10
369.0741510950351
 20
26.59982635365565
 30
0.0
 10
368.972430431489
 20
26.59950490667762
 30
0.0
 10
368.8213527128485
 20
26.58645413776106
 30
0.0
 10
368.6301175527786
 20
26.5323049362588
 30
0.0
 10
368.4956843458185
 20
26.47854117913517
 30
0.0
 10
368.3685685754732
 20
26.40711161463516
 30
0.0
 10
368.2072904968506
 20
26.28294037385515
 30
0.0
 10
368.1028628047371
 20
26.16700679500217
 30
0.0
 10
368.0406975693941
 20
26.08169734724541
 30
0.0
  0
SPLINE
  5
E9
330
1F
100
AcDbEntity
  8
0
  6
Continuous
 62
     7
370
    25
100
AcDbSpline
210
0.0
220
0.0
230
1.0
 70
     8
 71
     3
 72
    13
 73
     9
 74
     0
 42
0.00000001
 43
0.00000001
 40
0.0
 40
0.0
 40
0.0
 40
0.0
 40
0.2703816178319617
 40
0.3984601291783004
 40
0.5227503451014437
 40
0.6438255660090793
 40
0.7637452368382556
 40
1.0
 40
1.0
 40
1.0
 40
1.0
 10
364.765056543753
 20
25.20880071262999
 30
0.0
 10
364.7634670790984
 20
25.29406035411341
 30
0.0
 10
364.7561060455969
 20
25.42004269347253
 30
0.0
 10
364.7255045621716
 20
25.58239881192259
 30
0.0
 10
364.6944944291113
 20
25.69622516255754
 30
0.0
 10
364.6561176514422
 20
25.80510689635052
 30
0.0
 10
364.592506883448
 20
25.94189291824112
 30
0.0
 10
364.5325978430619
 20
26.03753208158843
 30
0.0
 10
364.4867111911889
 20
26.09642090493769
 30
0.0
  0
SPLINE
  5
EA
330
1F
100
AcDbEntity
  8
0
  6
Continuous
 62
     7
370
    25
100
AcDbSpline
210
0.0
220
0.0
230
1.0
 70
     8
 71
     3
 72
    13
 73
     9
 74
     0
 42
0.00000001
 43
0.00000001
 40
0.0
 40
0.0
 40
0.0
 40
0.0
 40
0.255257368140996
 40
0.3772478104725325
 40
0.4977415562850415
 40
0.6181201760750441
 40
0.7409671592206359
 40
1.0
 40
1.0
 40
1.0
 40
1.0
 10
364.486711191189
 20
26.09642090493769
 30
0.0
 10
364.4253240474956
 20
26.17708101753691
 30
0.0
 10
364.3218811333574
 20
26.2867207079589
 30
0.0
 10
364.1636059575651
 20
26.40579149326017
 30
0.0
 10
364.0379364459894
 20
26.47700323996782
 30
0.0
 10
363.9040921004827
 20
26.53208887145719
 30
0.0
 10
363.7114990373306
 20
26.58537812161654
 30
0.0
 10
363.5595907766023
 20
26.60025832723722
 30
0.0
 10
363.4567632745222
 20
26.59982635365565
 30
0.0
  0
SPLINE
  5
EB
330
1F
100
AcDbEntity
  8
0
  6
Continuous
 62
     7
370
    25
100
AcDbSpline
210
0.0
220
0.0
230
1.0
 70
     8
 71
     3
 72
    13
 73
     9
 74
     0
 42
0.00000001
 43
0.00000001
 40
0.0
 40
0.0
 40
0.0
 40
0.0
 40
0.2602406645595056
 40
0.3836752253642184
 40
0.5046599577622765
 40
0.6253567426858504
 40
0.7464106650135791
 40
1.0
 40
1.0
 40
1.0
 40
1.0
 10
363.4567632745222
 20
26.59982635365565
 30
0.0
 10
363.3573070634057
 20
26.59862777346922
 30
0.0
 10
363.2094312664298
 20
26.58759892260998
 30
0.0
 10
363.0228852404588
 20
26.53510451972163
 30
0.0
 10
362.8925438057352
 20
26.48347199000545
 30
0.0
 10
362.7709667827036
 20
26.41543244464073
 30
0.0
 10
362.6163046307244
 20
26.30466991766556
 30
0.0
 10
362.5175366553181
 20
26.19878808229559
 30
0.0
 10
362.4569635950351
 20
26.12306353314287
 30
0.0
  0
SPLINE
  5
EC
330
1F
100
AcDbEntity
  8
0
  6
Continuous
 62
     7
370
    25
100
AcDbSpline
210
0.0
220
0.0
230
1.0
 70
     8
 71
     3
 72
    13
 73
     9
 74
     0
 42
0.00000001
 43
0.00000001
 40
0.0
 40
0.0
 40
0.0
 40
0.0
 40
0.2534216680665266
 40
0.3767041167575432
 40
0.4994491585174913
 40
0.6225715734186964
 40
0.7462320999755214
 40
1.0
 40
1.0
 40
1.0
 40
1.0
 10
362.4569635950351
 20
26.12306353314287
 30
0.0
 10
362.4094123325404
 20
26.06157170931755
 30
0.0
 10
362.3442484998118
 20
25.96550243803708
 30
0.0
 10
362.2760757234553
 20
25.82799140180547
 30
0.0
 10
362.2344966217343
 20
25.72245115208738
 30
0.0
 10
362.2023491890076
 20
25.61356346027199
 30
0.0
 10
362.17072180945
 20
25.46301974931275
 30
0.0
 10
362.163445729394
 20
25.3468908891481
 30
0.0
 10
362.1624924411889
 20
25.269097186989
 30
0.0
  0
SPLINE
  5
ED
330
1F
100
AcDbEntity
  8
0
  6
Continuous
 62
     7
370
    25
100
AcDbSpline
210
0.0
220
0.0
230
1.0
 70
     8
 71
     3
 72
    21
 73
    17
 74
     0
 42
0.00000001
 43
0.00000001
 40
0.0
 40
0.0
 40
0.0
 40
0.0
 40
0.1210804245006118
 40
0.1800682782218559
 40
0.2391896643238556
 40
0.2987059533012314
 40
0.3588810785072301
 40
0.4203687292950606
 40
0.4834483096802261
 40
0.5465664849029384
 40
0.6086986022254206
 40
0.670186253013248
 40
0.7318650366033053
 40
0.7952033026033165
 40
0.8603707753071415
 40
1.0
 40
1.0
 40
1.0
 40
1.0
 10
362.1624924411889
 20
25.269097186989
 30
0.0
 10
362.1634071684261
 20
25.18607454663901
 30
0.0
 10
362.1721867927254
 20
25.06222273965108
 30
0.0
 10
362.2082680769984
 20
24.90177559542161
 30
0.0
 10
362.2466434739122
 20
24.78591321993751
 30
0.0
 10
362.2942040537593
 20
24.6726422862259
 30
0.0
 10
362.3526593124585
 20
24.56267917002542
 30
0.0
 10
362.4225857316458
 20
24.45672326874593
 30
0.0
 10
362.5018294506609
 20
24.35504126577326
 30
0.0
 10
362.5898536961846
 20
24.26002502245051
 30
0.0
 10
362.6886732409915
 20
24.17789202679021
 30
0.0
 10
362.7951739856878
 20
24.10793527834099
 30
0.0
 10
362.9099166641904
 20
24.05049765125278
 30
0.0
 10
363.0331267164145
 20
24.00657197746614
 30
0.0
 10
363.2123585594458
 20
23.96342562216258
 30
0.0
 10
363.3532802547841
 20
23.95242933912123
 30
0.0
 10
363.4490509347786
 20
23.95239045621977
 30
0.0
  0
SPLINE
  5
EE
330
1F
100
AcDbEntity
  8
0
  6
Continuous
 62
     7
370
    25
100
AcDbSpline
210
0.0
220
0.0
230
1.0
 70
     8
 71
     3
 72
    17
 73
    13
 74
     0
 42
0.00000001
 43
0.00000001
 40
0.0
 40
0.0
 40
0.0
 40
0.0
 40
0.1781058515637827
 40
0.2613277635121511
 40
0.3415565694705521
 40
0.4200079090126525
 40
0.4980968161626226
 40
0.5754001382821239
 40
0.6536452159657116
 40
0.7341257729573898
 40
0.8183392339289949
 40
1.0
 40
1.0
 40
1.0
 40
1.0
 10
363.4490509347786
 20
23.95239045621977
 30
0.0
 10
363.5353447265363
 20
23.95240161639423
 30
0.0
 10
363.6622212083066
 20
23.96105583742592
 30
0.0
 10
363.8246044808824
 20
23.99438153555322
 30
0.0
 10
363.9369031304243
 20
24.02875977033048
 30
0.0
 10
364.042752946851
 20
24.07352046202793
 30
0.0
 10
364.1430422623664
 20
24.12663654405367
 30
0.0
 10
364.2377728493779
 20
24.18897606102888
 30
0.0
 10
364.3274504554064
 20
24.26022301050401
 30
0.0
 10
364.4125234481481
 20
24.34196942868572
 30
0.0
 10
364.5194693322564
 20
24.47173158340654
 30
0.0
 10
364.5889403230163
 20
24.58072746912954
 30
0.0
 10
364.6304411591375
 20
24.65842010365571
 30
0.0
  0
SPLINE
  5
F0
330
1F
100
AcDbEntity
  8
0
  6
Continuous
 62
     7
370
    25
100
AcDbSpline
210
0.0
220
0.0
230
1.0
 70
     8
 71
     3
 72
    17
 73
    13
 74
     0
 42
0.00000001
 43
0.00000001
 40
0.0
 40
0.0
 40
0.0
 40
0.0
 40
0.2079350339033564
 40
0.2946939715678991
 40
0.3697315241424307
 40
0.440830943802725
 40
0.5142509140460771
 40
0.5913900390896499
 40
0.6722743046458497
 40
0.7543412603705406
 40
0.8361211059014766
 40
1.0
 40
1.0
 40
1.0
 40
1.0
 10
364.3513946847785
 20
24.80495455878384
 30
0.0
 10
364.3088699587759
 20
24.73840707488084
 30
0.0
 10
364.2417541891054
 20
24.64877660942932
 30
0.0
 10
364.148256400105
 20
24.54395767780026
 30
0.0
 10
364.0822045602711
 20
24.48493635266713
 30
0.0
 10
364.0140829413832
 20
24.43672999489832
 30
0.0
 10
363.9412039973977
 20
24.39457885283558
 30
0.0
 10
363.861958099067
 20
24.35647834035026
 30
0.0
 10
363.7763872873155
 20
24.32489310966379
 30
0.0
 10
363.687126544052
 20
24.29903483287321
 30
0.0
 10
363.5652782505798
 20
24.27351525084698
 30
0.0
 10
363.4719820182057
 20
24.26619218957315
 30
0.0
 10
363.4097881142658
 20
24.26649302032235
 30
0.0
  0
SPLINE
  5
F1
330
1F
100
AcDbEntity
  8
0
  6
Continuous
 62
     7
370
    25
100
AcDbSpline
210
0.0
220
0.0
230
1.0
 70
     8
 71
     3
 72
    21
 73
    17
 74
     0
 42
0.00000001
 43
0.00000001
 40
0.0
 40
0.0
 40
0.0
 40
0.0
 40
0.1276691474530424
 40
0.1889505232706536
 40
0.2490548673082992
 40
0.3090713134763196
 40
0.3692223593686933
 40
0.4301747620269846
 40
0.4926019887960209
 40
0.555346876893578
 40
0.6169627615204942
 40
0.678170777192346
 40
0.73924652255152
 40
0.8016089422160485
 40
0.8655244124565523
 40
1.0
 40
1.0
 40
1.0
 40
1.0
 10
363.4097881142658
 20
24.26649302032235
 30
0.0
 10
363.3467769598817
 20
24.26614333601929
 30
0.0
 10
363.253648708989
 20
24.27486230068077
 30
0.0
 10
363.1336666439166
 20
24.30192876066151
 30
0.0
 10
363.0488943688567
 20
24.33099983173859
 30
0.0
 10
362.9679964161834
 20
24.3681890939299
 30
0.0
 10
362.8911028139608
 20
24.41399216866957
 30
0.0
 10
362.8188200846469
 20
24.46864463318532
 30
0.0
 10
362.7501129546741
 20
24.52970520515629
 30
0.0
 10
362.6883873758682
 20
24.59827239169976
 30
0.0
 10
362.6330473827503
 20
24.67131031694558
 30
0.0
 10
362.5866632863131
 20
24.74947232532399
 30
0.0
 10
362.5487903718054
 20
24.83240257236363
 30
0.0
 10
362.5175446068537
 20
24.9194851521114
 30
0.0
 10
362.4872640761807
 20
25.04469844335966
 30
0.0
 10
362.4783837297611
 20
25.14255470162119
 30
0.0
 10
362.4765950052915
 20
25.20880071262999
 30
0.0
  0
SPLINE
  5
F2
330
1F
100
AcDbEntity
  8
0
  6
Continuous
 62
     7
370
    25
100
AcDbSpline
210
0.0
220
0.0
230
1.0
 70
     8
 71
     3
 72
    13
 73
     9
 74
     0
 42
0.00000001
 43
0.00000001
 40
0.0
 40
0.0
 40
0.0
 40
0.0
 40
0.2618944458316544
 40
0.3852022807004848
 40
0.5047447481824054
 40
0.6239854458062233
 40
0.745346469102679
 40
1.0
 40
1.0
 40
1.0
 40
1.0
 10
355.8804411591376
 20
26.08169734724541
 30
0.0
 10
355.8185112046243
 20
26.16665521891304
 30
0.0
 10
355.7152418063721
 20
26.28372179434568
 30
0.0
 10
355.5533188055214
 20
26.40687593481861
 30
0.0
 10
355.4261822558536
 20
26.47856675114435
 30
0.0
 10
355.2915191806262
 20
26.53242838440284
 30
0.0
 10
355.0995214044533
 20
26.58640731876205
 30
0.0
 10
354.9477780733344
 20
26.59952738384086
 30
0.0
 10
354.8455853899068
 20
26.59982635365565
 30
0.0
  0
SPLINE
  5
F3
330
1F
100
AcDbEntity
  8
0
  6
Continuous
 62
     7
370
    25
100
AcDbSpline
210
0.0
220
0.0
230
1.0
 70
     8
 71
     3
 72
    21
 73
    17
 74
     0
 42
0.00000001
 43
0.00000001
 40
0.0
 40
0.0
 40
0.0
 40
0.0
 40
0.1283692574311769
 40
0.190417708860092
 40
0.2519211667422389
 40
0.3132736507580476
 40
0.3750861342515197
 40
0.438389176770406
 40
0.5032092055629105
 40
0.5679667722557898
 40
0.630868101539027
 40
0.6919966438355534
 40
0.7524260650823844
 40
0.8130959072527861
 40
0.8739211900104884
 40
1.0
 40
1.0
 40
1.0
 40
1.0
 10
354.8455853899068
 20
26.59982635365565
 30
0.0
 10
354.7561721576159
 20
26.59902873199682
 30
0.0
 10
354.623148036682
 20
26.58888532815462
 30
0.0
 10
354.4519354024096
 20
26.5482058437303
 30
0.0
 10
354.3303698222522
 20
26.50483157923444
 30
0.0
 10
354.2131064058051
 20
26.45116880480791
 30
0.0
 10
354.1018832307772
 20
26.38345447543134
 30
0.0
 10
353.9949744847803
 20
26.30504473459194
 30
0.0
 10
353.8950396640215
 20
26.21482431010547
 30
0.0
 10
353.8027874737059
 20
26.11715304114304
 30
0.0
 10
353.7227675627475
 20
26.01238362307534
 30
0.0
 10
353.6548423037772
 20
25.90297971670319
 30
0.0
 10
353.5989899574521
 20
25.78863921890328
 30
0.0
 10
353.555480990366
 20
25.66928395375456
 30
0.0
 10
353.5134851593566
 20
25.50155193741899
 30
0.0
 10
353.5027536844639
 20
25.3709373867208
 30
0.0
 10
353.5022360309325
 20
25.28311962288643
 30
0.0
  0
SPLINE
  5
F4
330
1F
100
AcDbEntity
  8
0
  6
Continuous
 62
     7
370
    25
100
AcDbSpline
210
0.0
220
0.0
230
1.0
 70
     8
 71
     3
 72
    21
 73
    17
 74
     0
 42
0.00000001
 43
0.00000001
 40
0.0
 40
0.0
 40
0.0
 40
0.0
 40
0.1280988297755863
 40
0.1896694721890465
 40
0.2507063934632511
 40
0.311890666438603
 40
0.3732647830705283
 40
0.4358087922280679
 40
0.500424455805957
 40
0.5650608900029817
 40
0.6276710388631751
 40
0.6893315462593366
 40
0.7500699293139468
 40
0.8109958734420368
 40
0.8725665158555028
 40
1.0
 40
1.0
 40
1.0
 40
1.0
 10
353.5022360309325
 20
25.28311962288643
 30
0.0
 10
353.5024440231946
 20
25.19361326685798
 30
0.0
 10
353.5139509571299
 20
25.06091761134965
 30
0.0
 10
353.5546275331747
 20
24.89021043046058
 30
0.0
 10
353.5975805782826
 20
24.76889616059841
 30
0.0
 10
353.6534122596339
 20
24.65316283372343
 30
0.0
 10
353.7201622077997
 20
24.54212057248872
 30
0.0
 10
353.8002243415598
 20
24.43717502942622
 30
0.0
 10
353.8914561034663
 20
24.33877998108724
 30
0.0
 10
353.9905277021801
 20
24.24819219254881
 30
0.0
 10
354.0964003947337
 20
24.16895049582757
 30
0.0
 10
354.2074604330557
 20
24.10241239820598
 30
0.0
 10
354.3231328075324
 20
24.04682001100566
 30
0.0
 10
354.4444065184216
 20
24.00496243606698
 30
0.0
 10
354.6144731623014
 20
23.96410296397822
 30
0.0
 10
354.7467402731467
 20
23.95260855588732
 30
0.0
 10
354.8357696847787
 20
23.95239045621977
 30
0.0
  0
SPLINE
  5
F5
330
1F
100
AcDbEntity
  8
0
  6
Continuous
 62
     7
370
    25
100
AcDbSpline
210
0.0
220
0.0
230
1.0
 70
     8
 71
     3
 72
    13
 73
     9
 74
     0
 42
0.00000001
 43
0.00000001
 40
0.0
 40
0.0
 40
0.0
 40
0.0
 40
0.2518550583969853
 40
0.3726997642744652
 40
0.4928354033771648
 40
0.6137300878654817
 40
0.7379150246176973
 40
1.0
 40
1.0
 40
1.0
 40
1.0
 10
354.8357696847787
 20
23.95239045621977
 30
0.0
 10
354.9360058642665
 20
23.95158310576873
 30
0.0
 10
355.0844187211297
 20
23.96632065798976
 30
0.0
 10
355.274471576763
 20
24.01574026370956
 30
0.0
 10
355.4093987835019
 20
24.06686415169379
 30
0.0
 10
355.5380650624412
 20
24.13505526503168
 30
0.0
 10
355.7046926529306
 20
24.24968943247008
 30
0.0
 10
355.8132036038843
 20
24.36021890662066
 30
0.0
 10
355.8804411591376
 20
24.43967010365566
 30
0.0
  0
SPLINE
  5
FB
330
1F
100
AcDbEntity
  8
0
  6
Continuous
 62
     7
370
    25
100
AcDbSpline
210
0.0
220
0.0
230
1.0
 70
     8
 71
     3
 72
    13
 73
     9
 74
     0
 42
0.00000001
 43
0.00000001
 40
0.0
 40
0.0
 40
0.0
 40
0.0
 40
0.2598496298712539
 40
0.3866707319148509
 40
0.5150828775346947
 40
0.6425029490726826
 40
0.7624536797230972
 40
1.0
 40
1.0
 40
1.0
 40
1.0
 10
357.0232696847787
 20
27.09341609724536
 30
0.0
 10
357.0612656127437
 20
27.09349173653586
 30
0.0
 10
357.118673274252
 20
27.1021855950746
 30
0.0
 10
357.1863723681611
 20
27.13698330007031
 30
0.0
 10
357.2309915559941
 20
27.17140909154747
 30
0.0
 10
357.2689408622384
 20
27.21188948629338
 30
0.0
 10
357.3051002981259
 20
27.27384120645637
 30
0.0
 10
357.316412889822
 20
27.32630441508843
 30
0.0
 10
357.316338595035
 20
27.36124462288647
 30
0.0
  0
SPLINE
  5
FC
330
1F
100
AcDbEntity
  8
0
  6
Continuous
 62
     7
370
    25
100
AcDbSpline
210
0.0
220
0.0
230
1.0
 70
     8
 71
     3
 72
    13
 73
     9
 74
     0
 42
0.00000001
 43
0.00000001
 40
0.0
 40
0.0
 40
0.0
 40
0.0
 40
0.2407702368354425
 40
0.3613679915788172
 40
0.4880203848743234
 40
0.6156588752209213
 40
0.7417159076830835
 40
1.0
 40
1.0
 40
1.0
 40
1.0
 10
357.316338595035
 20
27.36124462288647
 30
0.0
 10
357.3165397498502
 20
27.39690205219258
 30
0.0
 10
357.3051727883611
 20
27.45020255060404
 30
0.0
 10
357.2691690104854
 20
27.51331009896307
 30
0.0
 10
357.2309670083578
 20
27.55386966393214
 30
0.0
 10
357.1863788427223
 20
27.58831438326481
 30
0.0
 10
357.1186688595265
 20
27.62310544428126
 30
0.0
 10
357.0612679194098
 20
27.63180340380356
 30
0.0
 10
357.0232696847787
 20
27.63187763570696
 30
0.0
  0
SPLINE
  5
FD
330
1F
100
AcDbEntity
  8
0
  6
Continuous
 62
     7
370
    25
100
AcDbSpline
210
0.0
220
0.0
230
1.0
 70
     8
 71
     3
 72
    13
 73
     9
 74
     0
 42
0.00000001
 43
0.00000001
 40
0.0
 40
0.0
 40
0.0
 40
0.0
 40
0.2551062187428466
 40
0.3818851554071034
 40
0.5102546066587019
 40
0.6365625239462811
 40
0.757850918666084
 40
1.0
 40
1.0
 40
1.0
 40
1.0
 10
357.0232696847787
 20
27.63187763570696
 30
0.0
 10
356.9858671440052
 20
27.63211422401768
 30
0.0
 10
356.9293661556682
 20
27.62269504295689
 30
0.0
 10
356.8622975367652
 20
27.58830114819477
 30
0.0
 10
356.8176525447856
 20
27.55409613897453
 30
0.0
 10
356.7802210121712
 20
27.5130598258978
 30
0.0
 10
356.7440892773544
 20
27.45027652103471
 30
0.0
 10
356.7328460977457
 20
27.39686407636255
 30
0.0
 10
356.7330052617016
 20
27.36124462288647
 30
0.0
  0
SPLINE
  5
FE
330
1F
100
AcDbEntity
  8
0
  6
Continuous
 62
     7
370
    25
100
AcDbSpline
210
0.0
220
0.0
230
1.0
 70
     8
 71
     3
 72
    13
 73
     9
 74
     0
 42
0.00000001
 43
0.00000001
 40
0.0
 40
0.0
 40
0.0
 40
0.0
 40
0.2389149952220574
 40
0.3595568481745961
 40
0.486634766847336
 40
0.6157867870573872
 40
0.7433385965465394
 40
1.0
 40
1.0
 40
1.0
 40
1.0
 10
356.7330052617016
 20
27.36124462288647
 30
0.0
 10
356.7329714097585
 20
27.32634095903419
 30
0.0
 10
356.744163679048
 20
27.27376902769329
 30
0.0
 10
356.7804466537482
 20
27.21213776139741
 30
0.0
 10
356.8176278725381
 20
27.17118247918637
 30
0.0
 10
356.8623040721946
 20
27.13699658851343
 30
0.0
 10
356.929361774594
 20
27.10259600604781
 30
0.0
 10
356.9858694333893
 20
27.09318091146473
 30
0.0
 10
357.0232696847787
 20
27.09341609724536
 30
0.0
  0
SPLINE
  5
104
330
1F
100
AcDbEntity
  8
0
  6
Continuous
 62
     7
370
    25
100
AcDbSpline
210
0.0
220
0.0
230
1.0
 70
     8
 71
     3
 72
    13
 73
     9
 74
     0
 42
0.00000001
 43
0.00000001
 40
0.0
 40
0.0
 40
0.0
 40
0.0
 40
0.3336012413919295
 40
0.4791571975344256
 40
0.6105404974279318
 40
0.7289476063657787
 40
0.8323849228168392
 40
1.0
 40
1.0
 40
1.0
 40
1.0
 10
358.2586462873428
 20
24.92204189852743
 30
0.0
 10
358.2591147032764
 20
24.99868541693284
 30
0.0
 10
358.2589422739147
 20
25.10885700586496
 30
0.0
 10
358.2654944844451
 20
25.24901644430244
 30
0.0
 10
358.2697937149704
 20
25.33977592152248
 30
0.0
 10
358.2768579009939
 20
25.42066237436424
 30
0.0
 10
358.2872305777078
 20
25.50956684385797
 30
0.0
 10
358.297668377049
 20
25.57104236674201
 30
0.0
 10
358.3070236911889
 20
25.60844013570696
 30
0.0
  0
SPLINE
  5
105
330
1F
100
AcDbEntity
  8
0
  6
Continuous
 62
     7
370
    25
100
AcDbSpline
210
0.0
220
0.0
230
1.0
 70
     8
 71
     3
 72
    21
 73
    17
 74
     0
 42
0.00000001
 43
0.00000001
 40
0.0
 40
0.0
 40
0.0
 40
0.0
 40
0.1238830745189146
 40
0.1847816479826848
 40
0.2456024656876798
 40
0.3070653910745305
 40
0.3692286662507878
 40
0.4320259048597126
 40
0.4970795873926179
 40
0.5618524691217699
 40
0.6254263815420402
 40
0.6876488370376828
 40
0.7497698060395667
 40
0.8110156280184817
 40
0.8733731419104944
 40
1.0
 40
1.0
 40
1.0
 40
1.0
 10
358.3070236911889
 20
25.60844013570696
 30
0.0
 10
358.3196129931109
 20
25.65569698386994
 30
0.0
 10
358.3440375449611
 20
25.72472917382285
 30
0.0
 10
358.3875590781681
 20
25.81146124613132
 30
0.0
 10
358.4247148204362
 20
25.87359888840224
 30
0.0
 10
358.4677896030699
 20
25.93239726131846
 30
0.0
 10
358.5153259601071
 20
25.98867329616905
 30
0.0
 10
358.5686547534893
 20
26.04151767984064
 30
0.0
 10
358.6259674354949
 20
26.09159695507401
 30
0.0
 10
358.6875708634213
 20
26.13678743593817
 30
0.0
 10
358.7510776303932
 20
26.17733612933804
 30
0.0
 10
358.8178418811564
 20
26.20986375541911
 30
0.0
 10
358.8853498320864
 20
26.23853246283259
 30
0.0
 10
358.9557694568883
 20
26.25937726077099
 30
0.0
 10
359.0524069120146
 20
26.28026809934858
 30
0.0
 10
359.1271406980733
 20
26.28596293974872
 30
0.0
 10
359.1771158386248
 20
26.28572378955307
 30
0.0
  0
SPLINE
  5
106
330
1F
100
AcDbEntity
  8
0
  6
Continuous
 62
     7
370
    25
100
AcDbSpline
210
0.0
220
0.0
230
1.0
 70
     8
 71
     3
 72
    13
 73
     9
 74
     0
 42
0.00000001
 43
0.00000001
 40
0.0
 40
0.0
 40
0.0
 40
0.0
 40
0.2700189621433429
 40
0.3907190350710782
 40
0.5068223535253182
 40
0.6215239708754532
 40
0.7391668368063029
 40
1.0
 40
1.0
 40
1.0
 40
1.0
 10
359.1771158386248
 20
26.28572378955307
 30
0.0
 10
359.2587672050073
 20
26.28618792711524
 30
0.0
 10
359.3778989597048
 20
26.2728665793156
 30
0.0
 10
359.5223196497875
 20
26.2186426622264
 30
0.0
 10
359.6135590605755
 20
26.16252185810153
 30
0.0
 10
359.6914071379107
 20
26.0903259733154
 30
0.0
 10
359.7796731558383
 20
25.96874851511166
 30
0.0
 10
359.819349146535
 20
25.85912498238851
 30
0.0
 10
359.8368714475992
 20
25.78231834083511
 30
0.0
  0
SPLINE
  5
107
330
1F
100
AcDbEntity
  8
0
  6
Continuous
 62
     7
370
    25
100
AcDbSpline
210
0.0
220
0.0
230
1.0
 70
     8
 71
     3
 72
    13
 73
     9
 74
     0
 42
0.00000001
 43
0.00000001
 40
0.0
 40
0.0
 40
0.0
 40
0.0
 40
0.1585173269300211
 40
0.2599203239142082
 40
0.3767455717754368
 40
0.5101743366316052
 40
0.657890351057701
 40
1.0
 40
1.0
 40
1.0
 40
1.0
 10
359.8368714475992
 20
25.78231834083511
 30
0.0
 10
359.8439340824798
 20
25.75226241554118
 30
0.0
 10
359.852399162583
 20
25.7022992784558
 30
0.0
 10
359.8597508928885
 20
25.62930274819142
 30
0.0
 10
359.8655487786852
 20
25.56107309707789
 30
0.0
 10
359.869492641792
 20
25.48367445584443
 30
0.0
 10
359.873424962275
 20
25.36238149864967
 30
0.0
 10
359.873536330844
 20
25.26699029942159
 30
0.0
 10
359.8740309027273
 20
25.20038725109153
 30
0.0
  0
SPLINE
  5
10B
330
1F
100
AcDbEntity
  8
0
  6
Continuous
 62
     7
370
    25
100
AcDbSpline
210
0.0
220
0.0
230
1.0
 70
     8
 71
     3
 72
    21
 73
    17
 74
     0
 42
0.00000001
 43
0.00000001
 40
0.0
 40
0.0
 40
0.0
 40
0.0
 40
0.1317255445271741
 40
0.1906683746814265
 40
0.2451968850948476
 40
0.2955087738855862
 40
0.3412437630224658
 40
0.3833864553034254
 40
0.4214402664762985
 40
0.492956384356707
 40
0.5628694745136158
 40
0.6330237453801784
 40
0.7044573558011064
 40
0.7765120161995835
 40
0.8488218595336068
 40
1.0
 40
1.0
 40
1.0
 40
1.0
 10
360.1881334668299
 20
25.30345215493768
 30
0.0
 10
360.188913419365
 20
25.38413885812785
 30
0.0
 10
360.1850726744482
 20
25.5009298255694
 30
0.0
 10
360.1734399065987
 20
25.65065640262198
 30
0.0
 10
360.1628789418527
 20
25.75045459431779
 30
0.0
 10
360.1472433697929
 20
25.84139418229425
 30
0.0
 10
360.1292132816938
 20
25.92411233611747
 30
0.0
 10
360.1079807364742
 20
25.99835907773041
 30
0.0
 10
360.0742551436766
 20
26.08504790815469
 30
0.0
 10
360.02305777784
 20
26.18277081267983
 30
0.0
 10
359.9466944438261
 20
26.28810791152469
 30
0.0
 10
359.8543699438006
 20
26.37968190590656
 30
0.0
 10
359.7492413832618
 20
26.45830281336048
 30
0.0
 10
359.6326269243716
 20
26.52146029663727
 30
0.0
 10
359.4620551241455
 20
26.58421210459694
 30
0.0
 10
359.324178984132
 20
26.59921457848768
 30
0.0
 10
359.2318033386247
 20
26.59982635365565
 30
0.0
  0
SPLINE
  5
10C
330
1F
100
AcDbEntity
  8
0
  6
Continuous
 62
     7
370
    25
100
AcDbSpline
210
0.0
220
0.0
230
1.0
 70
     8
 71
     3
 72
    13
 73
     9
 74
     0
 42
0.00000001
 43
0.00000001
 40
0.0
 40
0.0
 40
0.0
 40
0.0
 40
0.2434110992594185
 40
0.3618899784752194
 40
0.4800702186075756
 40
0.601011686195775
 40
0.7264312190368046
 40
1.0
 40
1.0
 40
1.0
 40
1.0
 10
359.2318033386247
 20
26.59982635365565
 30
0.0
 10
359.1393536605113
 20
26.59935011318937
 30
0.0
 10
359.0013198665496
 20
26.58582238385565
 30
0.0
 10
358.8258179376645
 20
26.53423178457526
 30
0.0
 10
358.7001894547154
 20
26.48144054143808
 30
0.0
 10
358.5802169085912
 20
26.41130510205825
 30
0.0
 10
358.4228978695551
 20
26.29074428273947
 30
0.0
 10
358.3220030915642
 20
26.17582367965532
 30
0.0
 10
358.2586462873428
 20
26.0936164177582
 30
0.0
  0
LINE
  5
12B
330
1F
100
AcDbEntity
  8
0
  6
Continuous
 62
     7
370
    25
100
AcDbLine
 10
398.9124924412
 20
23.9972622511
 30
0.0
 11
398.9124924412
 21
24.8568375716
 31
0.0
  0
LINE
  5
12C
330
1F
100
AcDbEntity
  8
0
  6
Continuous
 62
     7
370
    25
100
AcDbLine
 10
399.6374523771
 20
26.2401508729
 30
0.0
 11
399.8099283386
 21
26.5121861293
 31
0.0
  0
LINE
  5
12D
330
1F
100
AcDbEntity
  8
0
  6
Continuous
 62
     7
370
    25
100
AcDbLine
 10
398.9124924412
 20
26.1784521549
 30
0.0
 11
398.9124924412
 21
26.5549545588
 31
0.0
  0
LINE
  5
12E
330
1F
100
AcDbEntity
  8
0
  6
Continuous
 62
     7
370
    25
100
AcDbLine
 10
398.9124924412
 20
26.5549545588
 30
0.0
 11
398.5983898771
 21
26.5549545588
 31
0.0
  0
LINE
  5
12F
330
1F
100
AcDbEntity
  8
0
  6
Continuous
 62
     7
370
    25
100
AcDbLine
 10
398.5983898771
 20
26.5549545588
 30
0.0
 11
398.5983898771
 21
23.9972622511
 31
0.0
  0
LINE
  5
130
330
1F
100
AcDbEntity
  8
0
  6
Continuous
 62
     7
370
    25
100
AcDbLine
 10
398.5983898771
 20
23.9972622511
 30
0.0
 11
398.9124924412
 21
23.9972622511
 31
0.0
  0
LINE
  5
131
330
1F
100
AcDbEntity
  8
0
  6
Continuous
 62
     7
370
    25
100
AcDbLine
 10
395.7714668002
 20
25.2088007126
 30
0.0
 11
398.0599283386
 21
25.2088007126
 31
0.0
  0
LINE
  5
132
330
1F
100
AcDbEntity
  8
0
  6
Continuous
 62
     7
370
    25
100
AcDbLine
 10
397.925312954
 20
24.6584201037
 30
0.0
 11
397.6462664797
 21
24.8049545588
 31
0.0
  0
LINE
  5
133
330
1F
100
AcDbEntity
  8
0
  6
Continuous
 62
     7
370
    25
100
AcDbLine
 10
394.5150565438
 20
24.4396701037
 30
0.0
 11
394.5150565438
 21
23.9972622511
 31
0.0
  0
LINE
  5
134
330
1F
100
AcDbEntity
  8
0
  6
Continuous
 62
     7
370
    25
100
AcDbLine
 10
394.5150565438
 20
23.9972622511
 30
0.0
 11
394.8291591079
 21
23.9972622511
 31
0.0
  0
LINE
  5
135
330
1F
100
AcDbEntity
  8
0
  6
Continuous
 62
     7
370
    25
100
AcDbLine
 10
394.8291591079
 20
23.9972622511
 30
0.0
 11
394.8291591079
 21
27.5870058408
 31
0.0
  0
LINE
  5
136
330
1F
100
AcDbEntity
  8
0
  6
Continuous
 62
     7
370
    25
100
AcDbLine
 10
394.8291591079
 20
27.5870058408
 30
0.0
 11
394.5150565438
 21
27.5870058408
 31
0.0
  0
LINE
  5
137
330
1F
100
AcDbEntity
  8
0
  6
Continuous
 62
     7
370
    25
100
AcDbLine
 10
394.5150565438
 20
27.5870058408
 30
0.0
 11
394.5150565438
 21
26.0599625716
 31
0.0
  0
LINE
  5
138
330
1F
100
AcDbEntity
  8
0
  6
Continuous
 62
     7
370
    25
100
AcDbLine
 10
391.4637744925
 20
23.9972622511
 30
0.0
 11
391.4637744925
 21
26.5549545588
 31
0.0
  0
LINE
  5
139
330
1F
100
AcDbEntity
  8
0
  6
Continuous
 62
     7
370
    25
100
AcDbLine
 10
391.4637744925
 20
26.5549545588
 30
0.0
 11
391.1496719284
 21
26.5549545588
 31
0.0
  0
LINE
  5
13A
330
1F
100
AcDbEntity
  8
0
  6
Continuous
 62
     7
370
    25
100
AcDbLine
 10
391.1496719284
 20
26.5549545588
 30
0.0
 11
391.1496719284
 21
23.9972622511
 31
0.0
  0
LINE
  5
13B
330
1F
100
AcDbEntity
  8
0
  6
Continuous
 62
     7
370
    25
100
AcDbLine
 10
391.1496719284
 20
23.9972622511
 30
0.0
 11
391.4637744925
 21
23.9972622511
 31
0.0
  0
LINE
  5
13C
330
1F
100
AcDbEntity
  8
0
  6
Continuous
 62
     7
370
    25
100
AcDbLine
 10
386.4830052617
 20
24.4396701037
 30
0.0
 11
386.4830052617
 21
23.9972622511
 31
0.0
  0
LINE
  5
13D
330
1F
100
AcDbEntity
  8
0
  6
Continuous
 62
     7
370
    25
100
AcDbLine
 10
386.4830052617
 20
23.9972622511
 30
0.0
 11
386.7971078258
 21
23.9972622511
 31
0.0
  0
LINE
  5
13E
330
1F
100
AcDbEntity
  8
0
  6
Continuous
 62
     7
370
    25
100
AcDbLine
 10
386.7971078258
 20
23.9972622511
 30
0.0
 11
386.7971078258
 21
27.5870058408
 31
0.0
  0
LINE
  5
13F
330
1F
100
AcDbEntity
  8
0
  6
Continuous
 62
     7
370
    25
100
AcDbLine
 10
386.7971078258
 20
27.5870058408
 30
0.0
 11
386.4830052617
 21
27.5870058408
 31
0.0
  0
LINE
  5
140
330
1F
100
AcDbEntity
  8
0
  6
Continuous
 62
     7
370
    25
100
AcDbLine
 10
386.4830052617
 20
27.5870058408
 30
0.0
 11
386.4830052617
 21
26.0599625716
 31
0.0
  0
LINE
  5
141
330
1F
100
AcDbEntity
  8
0
  6
Continuous
 62
     7
370
    25
100
AcDbLine
 10
387.784287313
 20
23.9972622511
 30
0.0
 11
387.784287313
 21
26.5549545588
 31
0.0
  0
LINE
  5
142
330
1F
100
AcDbEntity
  8
0
  6
Continuous
 62
     7
370
    25
100
AcDbLine
 10
387.784287313
 20
26.5549545588
 30
0.0
 11
387.4701847489
 21
26.5549545588
 31
0.0
  0
LINE
  5
143
330
1F
100
AcDbEntity
  8
0
  6
Continuous
 62
     7
370
    25
100
AcDbLine
 10
387.4701847489
 20
26.5549545588
 30
0.0
 11
387.4701847489
 21
23.9972622511
 31
0.0
  0
LINE
  5
144
330
1F
100
AcDbEntity
  8
0
  6
Continuous
 62
     7
370
    25
100
AcDbLine
 10
387.4701847489
 20
23.9972622511
 30
0.0
 11
387.784287313
 21
23.9972622511
 31
0.0
  0
LINE
  5
145
330
1F
100
AcDbEntity
  8
0
  6
Continuous
 62
     7
370
    25
100
AcDbLine
 10
389.4894155181
 20
23.9972622511
 30
0.0
 11
390.6560821848
 21
26.5549545588
 31
0.0
  0
LINE
  5
146
330
1F
100
AcDbEntity
  8
0
  6
Continuous
 62
     7
370
    25
100
AcDbLine
 10
390.6560821848
 20
26.5549545588
 30
0.0
 11
390.3160381143
 21
26.5549545588
 31
0.0
  0
LINE
  5
147
330
1F
100
AcDbEntity
  8
0
  6
Continuous
 62
     7
370
    25
100
AcDbLine
 10
390.3160381143
 20
26.5549545588
 30
0.0
 11
389.4669796207
 21
24.6927750716
 31
0.0
  0
LINE
  5
148
330
1F
100
AcDbEntity
  8
0
  6
Continuous
 62
     7
370
    25
100
AcDbLine
 10
389.4669796207
 20
24.6927750716
 30
0.0
 11
388.6179211271
 21
26.5549545588
 31
0.0
  0
LINE
  5
149
330
1F
100
AcDbEntity
  8
0
  6
Continuous
 62
     7
370
    25
100
AcDbLine
 10
388.6179211271
 20
26.5549545588
 30
0.0
 11
388.2778770566
 21
26.5549545588
 31
0.0
  0
LINE
  5
14A
330
1F
100
AcDbEntity
  8
0
  6
Continuous
 62
     7
370
    25
100
AcDbLine
 10
388.2778770566
 20
26.5549545588
 30
0.0
 11
389.4445437232
 21
23.9972622511
 31
0.0
  0
LINE
  5
14B
330
1F
100
AcDbEntity
  8
0
  6
Continuous
 62
     7
370
    25
100
AcDbLine
 10
389.4445437232
 20
23.9972622511
 30
0.0
 11
389.4894155181
 21
23.9972622511
 31
0.0
  0
LINE
  5
14C
330
1F
100
AcDbEntity
  8
0
  6
Continuous
 62
     7
370
    25
100
AcDbLine
 10
381.0983898771
 20
26.5549545588
 30
0.0
 11
381.0983898771
 21
26.2408519947
 31
0.0
  0
LINE
  5
14D
330
1F
100
AcDbEntity
  8
0
  6
Continuous
 62
     7
370
    25
100
AcDbLine
 10
381.0983898771
 20
26.2408519947
 30
0.0
 11
381.5471078258
 21
26.2408519947
 31
0.0
  0
LINE
  5
14E
330
1F
100
AcDbEntity
  8
0
  6
Continuous
 62
     7
370
    25
100
AcDbLine
 10
381.5471078258
 20
26.2408519947
 30
0.0
 11
381.5471078258
 21
23.9972622511
 31
0.0
  0
LINE
  5
14F
330
1F
100
AcDbEntity
  8
0
  6
Continuous
 62
     7
370
    25
100
AcDbLine
 10
381.5471078258
 20
23.9972622511
 30
0.0
 11
381.8612103899
 21
23.9972622511
 31
0.0
  0
LINE
  5
150
330
1F
100
AcDbEntity
  8
0
  6
Continuous
 62
     7
370
    25
100
AcDbLine
 10
381.8612103899
 20
23.9972622511
 30
0.0
 11
381.8612103899
 21
26.2408519947
 31
0.0
  0
LINE
  5
151
330
1F
100
AcDbEntity
  8
0
  6
Continuous
 62
     7
370
    25
100
AcDbLine
 10
381.8612103899
 20
26.2408519947
 30
0.0
 11
382.3099283386
 21
26.2408519947
 31
0.0
  0
LINE
  5
152
330
1F
100
AcDbEntity
  8
0
  6
Continuous
 62
     7
370
    25
100
AcDbLine
 10
382.3099283386
 20
26.2408519947
 30
0.0
 11
382.3099283386
 21
26.5549545588
 31
0.0
  0
LINE
  5
153
330
1F
100
AcDbEntity
  8
0
  6
Continuous
 62
     7
370
    25
100
AcDbLine
 10
382.3099283386
 20
26.5549545588
 30
0.0
 11
381.8612103899
 21
26.5549545588
 31
0.0
  0
LINE
  5
154
330
1F
100
AcDbEntity
  8
0
  6
Continuous
 62
     7
370
    25
100
AcDbLine
 10
381.8612103899
 20
26.5549545588
 30
0.0
 11
381.8612103899
 21
27.5870058408
 31
0.0
  0
LINE
  5
155
330
1F
100
AcDbEntity
  8
0
  6
Continuous
 62
     7
370
    25
100
AcDbLine
 10
381.8612103899
 20
27.5870058408
 30
0.0
 11
381.5471078258
 21
27.5870058408
 31
0.0
  0
LINE
  5
156
330
1F
100
AcDbEntity
  8
0
  6
Continuous
 62
     7
370
    25
100
AcDbLine
 10
381.5471078258
 20
27.5870058408
 30
0.0
 11
381.5471078258
 21
26.5549545588
 31
0.0
  0
LINE
  5
157
330
1F
100
AcDbEntity
  8
0
  6
Continuous
 62
     7
370
    25
100
AcDbLine
 10
381.5471078258
 20
26.5549545588
 30
0.0
 11
381.0983898771
 21
26.5549545588
 31
0.0
  0
LINE
  5
158
330
1F
100
AcDbEntity
  8
0
  6
Continuous
 62
     7
370
    25
100
AcDbLine
 10
379.8868514155
 20
26.9637085652
 30
0.0
 11
379.8868514155
 21
26.5549545588
 31
0.0
  0
LINE
  5
159
330
1F
100
AcDbEntity
  8
0
  6
Continuous
 62
     7
370
    25
100
AcDbLine
 10
379.8868514155
 20
26.5549545588
 30
0.0
 11
379.5278770566
 21
26.5549545588
 31
0.0
  0
LINE
  5
15A
330
1F
100
AcDbEntity
  8
0
  6
Continuous
 62
     7
370
    25
100
AcDbLine
 10
379.5278770566
 20
26.5549545588
 30
0.0
 11
379.5278770566
 21
26.2408519947
 31
0.0
  0
LINE
  5
15B
330
1F
100
AcDbEntity
  8
0
  6
Continuous
 62
     7
370
    25
100
AcDbLine
 10
379.5278770566
 20
26.2408519947
 30
0.0
 11
379.8868514155
 21
26.2408519947
 31
0.0
  0
LINE
  5
15C
330
1F
100
AcDbEntity
  8
0
  6
Continuous
 62
     7
370
    25
100
AcDbLine
 10
379.8868514155
 20
26.2408519947
 30
0.0
 11
379.8868514155
 21
23.9972622511
 31
0.0
  0
LINE
  5
15D
330
1F
100
AcDbEntity
  8
0
  6
Continuous
 62
     7
370
    25
100
AcDbLine
 10
379.8868514155
 20
23.9972622511
 30
0.0
 11
380.2009539797
 21
23.9972622511
 31
0.0
  0
LINE
  5
15E
330
1F
100
AcDbEntity
  8
0
  6
Continuous
 62
     7
370
    25
100
AcDbLine
 10
380.2009539797
 20
23.9972622511
 30
0.0
 11
380.2023562232
 21
26.2408519947
 31
0.0
  0
LINE
  5
15F
330
1F
100
AcDbEntity
  8
0
  6
Continuous
 62
     7
370
    25
100
AcDbLine
 10
380.2023562232
 20
26.2408519947
 30
0.0
 11
380.7394155181
 21
26.2408519947
 31
0.0
  0
LINE
  5
160
330
1F
100
AcDbEntity
  8
0
  6
Continuous
 62
     7
370
    25
100
AcDbLine
 10
380.7394155181
 20
26.2408519947
 30
0.0
 11
380.7394155181
 21
26.5549545588
 31
0.0
  0
LINE
  5
161
330
1F
100
AcDbEntity
  8
0
  6
Continuous
 62
     7
370
    25
100
AcDbLine
 10
380.7394155181
 20
26.5549545588
 30
0.0
 11
380.203057345
 21
26.5549545588
 31
0.0
  0
LINE
  5
162
330
1F
100
AcDbEntity
  8
0
  6
Continuous
 62
     7
370
    25
100
AcDbLine
 10
380.203057345
 20
26.5549545588
 30
0.0
 11
380.203057345
 21
26.909722187
 31
0.0
  0
LINE
  5
163
330
1F
100
AcDbEntity
  8
0
  6
Continuous
 62
     7
370
    25
100
AcDbLine
 10
380.784287313
 20
27.2392494306
 30
0.0
 11
380.784287313
 21
27.565972187
 31
0.0
  0
LINE
  5
164
330
1F
100
AcDbEntity
  8
0
  6
Continuous
 62
     7
370
    25
100
AcDbLine
 10
376.7906975694
 20
25.2088007126
 30
0.0
 11
379.0791591079
 21
25.2088007126
 31
0.0
  0
LINE
  5
165
330
1F
100
AcDbEntity
  8
0
  6
Continuous
 62
     7
370
    25
100
AcDbLine
 10
378.9445437232
 20
24.6584201037
 30
0.0
 11
378.6654972489
 21
24.8049545588
 31
0.0
  0
LINE
  5
166
330
1F
100
AcDbEntity
  8
0
  6
Continuous
 62
     7
370
    25
100
AcDbLine
 10
375.8483898771
 20
23.9972622511
 30
0.0
 11
375.8483898771
 21
27.5870058408
 31
0.0
  0
LINE
  5
167
330
1F
100
AcDbEntity
  8
0
  6
Continuous
 62
     7
370
    25
100
AcDbLine
 10
375.8483898771
 20
27.5870058408
 30
0.0
 11
375.534287313
 21
27.5870058408
 31
0.0
  0
LINE
  5
168
330
1F
100
AcDbEntity
  8
0
  6
Continuous
 62
     7
370
    25
100
AcDbLine
 10
375.534287313
 20
27.5870058408
 30
0.0
 11
375.534287313
 21
23.9972622511
 31
0.0
  0
LINE
  5
169
330
1F
100
AcDbEntity
  8
0
  6
Continuous
 62
     7
370
    25
100
AcDbLine
 10
375.534287313
 20
23.9972622511
 30
0.0
 11
375.8483898771
 21
23.9972622511
 31
0.0
  0
LINE
  5
16A
330
1F
100
AcDbEntity
  8
0
  6
Continuous
 62
     7
370
    25
100
AcDbLine
 10
368.0406975694
 20
23.0549545588
 30
0.0
 11
368.0406975694
 21
24.4607037575
 31
0.0
  0
LINE
  5
16B
330
1F
100
AcDbEntity
  8
0
  6
Continuous
 62
     7
370
    25
100
AcDbLine
 10
368.0406975694
 20
26.0816973472
 30
0.0
 11
368.0406975694
 21
26.5549545588
 31
0.0
  0
LINE
  5
16C
330
1F
100
AcDbEntity
  8
0
  6
Continuous
 62
     7
370
    25
100
AcDbLine
 10
368.0406975694
 20
26.5549545588
 30
0.0
 11
367.7265950053
 21
26.5549545588
 31
0.0
  0
LINE
  5
16D
330
1F
100
AcDbEntity
  8
0
  6
Continuous
 62
     7
370
    25
100
AcDbLine
 10
367.7265950053
 20
26.5549545588
 30
0.0
 11
367.7265950053
 21
23.0549545588
 31
0.0
  0
LINE
  5
16E
330
1F
100
AcDbEntity
  8
0
  6
Continuous
 62
     7
370
    25
100
AcDbLine
 10
367.7265950053
 20
23.0549545588
 30
0.0
 11
368.0406975694
 21
23.0549545588
 31
0.0
  0
LINE
  5
16F
330
1F
100
AcDbEntity
  8
0
  6
Continuous
 62
     7
370
    25
100
AcDbLine
 10
365.034287313
 20
23.9972622511
 30
0.0
 11
365.4079852297
 21
23.9972622511
 31
0.0
  0
LINE
  5
170
330
1F
100
AcDbEntity
  8
0
  6
Continuous
 62
     7
370
    25
100
AcDbLine
 10
365.4079852297
 20
23.9972622511
 30
0.0
 11
366.2009539797
 21
25.108540296
 31
0.0
  0
LINE
  5
171
330
1F
100
AcDbEntity
  8
0
  6
Continuous
 62
     7
370
    25
100
AcDbLine
 10
366.2009539797
 20
25.108540296
 30
0.0
 11
366.9939227297
 21
23.9972622511
 31
0.0
  0
LINE
  5
172
330
1F
100
AcDbEntity
  8
0
  6
Continuous
 62
     7
370
    25
100
AcDbLine
 10
366.9939227297
 20
23.9972622511
 30
0.0
 11
367.3676206463
 21
23.9972622511
 31
0.0
  0
LINE
  5
173
330
1F
100
AcDbEntity
  8
0
  6
Continuous
 62
     7
370
    25
100
AcDbLine
 10
367.3676206463
 20
23.9972622511
 30
0.0
 11
366.3881534989
 21
25.3707598472
 31
0.0
  0
LINE
  5
174
330
1F
100
AcDbEntity
  8
0
  6
Continuous
 62
     7
370
    25
100
AcDbLine
 10
366.3881534989
 20
25.3707598472
 30
0.0
 11
367.2330052617
 21
26.5549545588
 31
0.0
  0
LINE
  5
175
330
1F
100
AcDbEntity
  8
0
  6
Continuous
 62
     7
370
    25
100
AcDbLine
 10
367.2330052617
 20
26.5549545588
 30
0.0
 11
366.859307345
 21
26.5549545588
 31
0.0
  0
LINE
  5
176
330
1F
100
AcDbEntity
  8
0
  6
Continuous
 62
     7
370
    25
100
AcDbLine
 10
366.859307345
 20
26.5549545588
 30
0.0
 11
366.2009539797
 21
25.6322782767
 31
0.0
  0
LINE
  5
177
330
1F
100
AcDbEntity
  8
0
  6
Continuous
 62
     7
370
    25
100
AcDbLine
 10
366.2009539797
 20
25.6322782767
 30
0.0
 11
365.5426006143
 21
26.5549545588
 31
0.0
  0
LINE
  5
178
330
1F
100
AcDbEntity
  8
0
  6
Continuous
 62
     7
370
    25
100
AcDbLine
 10
365.5426006143
 20
26.5549545588
 30
0.0
 11
365.1689026976
 21
26.5549545588
 31
0.0
  0
LINE
  5
179
330
1F
100
AcDbEntity
  8
0
  6
Continuous
 62
     7
370
    25
100
AcDbLine
 10
365.1689026976
 20
26.5549545588
 30
0.0
 11
366.0144555822
 21
25.3707598472
 31
0.0
  0
LINE
  5
17A
330
1F
100
AcDbEntity
  8
0
  6
Continuous
 62
     7
370
    25
100
AcDbLine
 10
366.0144555822
 20
25.3707598472
 30
0.0
 11
365.034287313
 21
23.9972622511
 31
0.0
  0
LINE
  5
17B
330
1F
100
AcDbEntity
  8
0
  6
Continuous
 62
     7
370
    25
100
AcDbLine
 10
362.4765950053
 20
25.2088007126
 30
0.0
 11
364.7650565438
 21
25.2088007126
 31
0.0
  0
LINE
  5
17C
330
1F
100
AcDbEntity
  8
0
  6
Continuous
 62
     7
370
    25
100
AcDbLine
 10
364.6304411591
 20
24.6584201037
 30
0.0
 11
364.3513946848
 21
24.8049545588
 31
0.0
  0
LINE
  5
17D
330
1F
100
AcDbEntity
  8
0
  6
Continuous
 62
     7
370
    25
100
AcDbLine
 10
355.8804411591
 20
24.4396701037
 30
0.0
 11
355.8804411591
 21
23.9972622511
 31
0.0
  0
LINE
  5
17E
330
1F
100
AcDbEntity
  8
0
  6
Continuous
 62
     7
370
    25
100
AcDbLine
 10
355.8804411591
 20
23.9972622511
 30
0.0
 11
356.1945437232
 21
23.9972622511
 31
0.0
  0
LINE
  5
17F
330
1F
100
AcDbEntity
  8
0
  6
Continuous
 62
     7
370
    25
100
AcDbLine
 10
356.1945437232
 20
23.9972622511
 30
0.0
 11
356.1945437232
 21
26.5549545588
 31
0.0
  0
LINE
  5
180
330
1F
100
AcDbEntity
  8
0
  6
Continuous
 62
     7
370
    25
100
AcDbLine
 10
356.1945437232
 20
26.5549545588
 30
0.0
 11
355.8804411591
 21
26.5549545588
 31
0.0
  0
LINE
  5
181
330
1F
100
AcDbEntity
  8
0
  6
Continuous
 62
     7
370
    25
100
AcDbLine
 10
355.8804411591
 20
26.5549545588
 30
0.0
 11
355.8804411591
 21
26.0816973472
 31
0.0
  0
LINE
  5
182
330
1F
100
AcDbEntity
  8
0
  6
Continuous
 62
     7
370
    25
100
AcDbLine
 10
357.1817232104
 20
23.9972622511
 30
0.0
 11
357.1817232104
 21
26.5549545588
 31
0.0
  0
LINE
  5
183
330
1F
100
AcDbEntity
  8
0
  6
Continuous
 62
     7
370
    25
100
AcDbLine
 10
357.1817232104
 20
26.5549545588
 30
0.0
 11
356.8676206463
 21
26.5549545588
 31
0.0
  0
LINE
  5
184
330
1F
100
AcDbEntity
  8
0
  6
Continuous
 62
     7
370
    25
100
AcDbLine
 10
356.8676206463
 20
26.5549545588
 30
0.0
 11
356.8676206463
 21
23.9972622511
 31
0.0
  0
LINE
  5
185
330
1F
100
AcDbEntity
  8
0
  6
Continuous
 62
     7
370
    25
100
AcDbLine
 10
356.8676206463
 20
23.9972622511
 30
0.0
 11
357.1817232104
 21
23.9972622511
 31
0.0
  0
LINE
  5
186
330
1F
100
AcDbEntity
  8
0
  6
Continuous
 62
     7
370
    25
100
AcDbLine
 10
358.2586462873
 20
23.9972622511
 30
0.0
 11
358.2586462873
 21
24.9220418985
 31
0.0
  0
LINE
  5
187
330
1F
100
AcDbEntity
  8
0
  6
Continuous
 62
     7
370
    25
100
AcDbLine
 10
359.8740309027
 20
25.2003872511
 30
0.0
 11
359.8740309027
 21
23.9972622511
 31
0.0
  0
LINE
  5
188
330
1F
100
AcDbEntity
  8
0
  6
Continuous
 62
     7
370
    25
100
AcDbLine
 10
359.8740309027
 20
23.9972622511
 30
0.0
 11
360.1881334668
 21
23.9972622511
 31
0.0
  0
LINE
  5
189
330
1F
100
AcDbEntity
  8
0
  6
Continuous
 62
     7
370
    25
100
AcDbLine
 10
360.1881334668
 20
23.9972622511
 30
0.0
 11
360.1881334668
 21
25.3034521549
 31
0.0
  0
LINE
  5
18A
330
1F
100
AcDbEntity
  8
0
  6
Continuous
 62
     7
370
    25
100
AcDbLine
 10
358.2586462873
 20
26.0936164178
 30
0.0
 11
358.2586462873
 21
26.5549545588
 31
0.0
  0
LINE
  5
18B
330
1F
100
AcDbEntity
  8
0
  6
Continuous
 62
     7
370
    25
100
AcDbLine
 10
358.2586462873
 20
26.5549545588
 30
0.0
 11
357.9445437232
 21
26.5549545588
 31
0.0
  0
LINE
  5
18C
330
1F
100
AcDbEntity
  8
0
  6
Continuous
 62
     7
370
    25
100
AcDbLine
 10
357.9445437232
 20
26.5549545588
 30
0.0
 11
357.9445437232
 21
23.9972622511
 31
0.0
  0
LINE
  5
18D
330
1F
100
AcDbEntity
  8
0
  6
Continuous
 62
     7
370
    25
100
AcDbLine
 10
357.9445437232
 20
23.9972622511
 30
0.0
 11
358.2586462873
 21
23.9972622511
 31
0.0
  0
LINE
  5
18E
330
1F
100
AcDbEntity
  8
0
  6
Continuous
 62
     7
370
    25
100
AcDbLine
 10
349.7105693643
 20
26.5213007126
 30
0.0
 11
350.9788986912
 21
23.9972622511
 31
0.0
  0
LINE
  5
18F
330
1F
100
AcDbEntity
  8
0
  6
Continuous
 62
     7
370
    25
100
AcDbLine
 10
350.9788986912
 20
23.9972622511
 30
0.0
 11
351.0497119925
 21
23.9972622511
 31
0.0
  0
LINE
  5
190
330
1F
100
AcDbEntity
  8
0
  6
Continuous
 62
     7
370
    25
100
AcDbLine
 10
351.0497119925
 20
23.9972622511
 30
0.0
 11
352.3131334668
 21
26.5156917383
 31
0.0
  0
LINE
  5
191
330
1F
100
AcDbEntity
  8
0
  6
Continuous
 62
     7
370
    25
100
AcDbLine
 10
352.3131334668
 20
26.5156917383
 30
0.0
 11
352.6482696848
 21
23.9972622511
 31
0.0
  0
LINE
  5
192
330
1F
100
AcDbEntity
  8
0
  6
Continuous
 62
     7
370
    25
100
AcDbLine
 10
352.6482696848
 20
23.9972622511
 30
0.0
 11
352.9637744925
 21
23.9972622511
 31
0.0
  0
LINE
  5
193
330
1F
100
AcDbEntity
  8
0
  6
Continuous
 62
     7
370
    25
100
AcDbLine
 10
352.9637744925
 20
23.9972622511
 30
0.0
 11
352.4989307425
 21
27.4972622511
 31
0.0
  0
LINE
  5
194
330
1F
100
AcDbEntity
  8
0
  6
Continuous
 62
     7
370
    25
100
AcDbLine
 10
352.4989307425
 20
27.4972622511
 30
0.0
 11
352.4533578258
 21
27.4972622511
 31
0.0
  0
LINE
  5
195
330
1F
100
AcDbEntity
  8
0
  6
Continuous
 62
     7
370
    25
100
AcDbLine
 10
352.4533578258
 20
27.4972622511
 30
0.0
 11
351.0118514155
 21
24.6254673793
 31
0.0
  0
LINE
  5
196
330
1F
100
AcDbEntity
  8
0
  6
Continuous
 62
     7
370
    25
100
AcDbLine
 10
351.0118514155
 20
24.6254673793
 30
0.0
 11
349.5668393963
 21
27.4972622511
 31
0.0
  0
LINE
  5
197
330
1F
100
AcDbEntity
  8
0
  6
Continuous
 62
     7
370
    25
100
AcDbLine
 10
349.5668393963
 20
27.4972622511
 30
0.0
 11
349.5219676014
 21
27.4972622511
 31
0.0
  0
LINE
  5
198
330
1F
100
AcDbEntity
  8
0
  6
Continuous
 62
     7
370
    25
100
AcDbLine
 10
349.5219676014
 20
27.4972622511
 30
0.0
 11
349.0599283386
 21
23.9972622511
 31
0.0
  0
LINE
  5
199
330
1F
100
AcDbEntity
  8
0
  6
Continuous
 62
     7
370
    25
100
AcDbLine
 10
349.0599283386
 20
23.9972622511
 30
0.0
 11
349.3761342681
 21
23.9972622511
 31
0.0
  0
LINE
  5
19A
330
1F
100
AcDbEntity
  8
0
  6
Continuous
 62
     7
370
    25
100
AcDbLine
 10
349.3761342681
 20
23.9972622511
 30
0.0
 11
349.7105693643
 21
26.5213007126
 31
0.0
  0
LINE
  5
19B
330
1F
100
AcDbEntity
  8
0
  6
Continuous
 62
     7
370
    25
100
AcDbLine
 10
1.0696898987
 20
300.0
 30
0.0
 11
1.0696898987
 21
300.75
 31
0.0
  0
LINE
  5
19C
330
1F
100
AcDbEntity
  8
0
  6
Continuous
 62
     7
370
    25
100
AcDbLine
 10
1.0696898987
 20
300.75
 30
0.0
 11
-1.6803101013
 21
300.75
 31
0.0
  0
LINE
  5
19D
330
1F
100
AcDbEntity
  8
0
  6
Continuous
 62
     7
370
    25
100
AcDbLine
 10
-1.6803101013
 20
300.75
 30
0.0
 11
-1.6803101013
 21
300.0
 31
0.0
  0
LINE
  5
19E
330
1F
100
AcDbEntity
  8
0
  6
Continuous
 62
     7
370
    25
100
AcDbLine
 10
1.0696898987
 20
300.0
 30
0.0
 11
-389.3196898987
 21
300.0
 31
0.0
  0
LINE
  5
19F
330
1F
100
AcDbEntity
  8
0
  6
Continuous
 62
     7
370
    25
100
AcDbLine
 10
-161.6803101013
 20
810.0
 30
0.0
 11
-161.6803101013
 21
300.0
 31
0.0
  0
LINE
  5
1A0
330
1F
100
AcDbEntity
  8
0
  6
Continuous
 62
     7
370
    25
100
AcDbLine
 10
448.3196898987
 20
870.0
 30
0.0
 11
-101.6803101013
 21
870.0
 31
0.0
  0
LINE
  5
1A1
330
1F
100
AcDbEntity
  8
0
  6
Continuous
 62
     7
370
    25
100
AcDbLine
 10
448.3196898987
 20
860.0
 30
0.0
 11
448.3196898987
 21
870.0
 31
0.0
  0
LINE
  5
1A2
330
1F
100
AcDbEntity
  8
0
  6
Continuous
 62
     7
370
    25
100
AcDbLine
 10
498.3196898987
 20
860.0
 30
0.0
 11
448.3196898987
 21
860.0
 31
0.0
  0
LINE
  5
1A3
330
1F
100
AcDbEntity
  8
0
  6
Continuous
 62
     7
370
    25
100
AcDbLine
 10
498.3196898987
 20
0.0
 30
0.0
 11
498.3196898987
 21
860.0
 31
0.0
  0
LINE
  5
1A4
330
1F
100
AcDbEntity
  8
0
  6
Continuous
 62
     7
370
    25
100
AcDbLine
 10
-389.3196898987
 20
0.0
 30
0.0
 11
498.3196898987
 21
0.0
 31
0.0
  0
LINE
  5
1A5
330
1F
100
AcDbEntity
  8
0
  6
Continuous
 62
     7
370
    25
100
AcDbLine
 10
-389.3196898987
 20
300.0
 30
0.0
 11
-389.3196898987
 21
0.0
 31
0.0
  0
ARC
  5
1A6
330
1F
100
AcDbEntity
  8
0
  6
Continuous
 62
     7
370
    25
100
AcDbCircle
 10
-101.6803101013
 20
810.0
 30
0.0
 40
60.0
100
AcDbArc
 50
90.0
 51
180.0
  0
MTEXT
  5
1A8
330
1F
100
AcDbEntity
  8
0
  6
Continuous
 62
     7
100
AcDbMText
 10
-389.3196898987
 20
-1.0195663917
 30
0.0
 40
4.83362
 41
0.0
 71
     1
 72
     1
  1
SOLIDWORKS Educational Product.
  7
SLDTEXTSTYLE0
 73
     1
 44
1.0
  0
MTEXT
  5
1A9
330
1F
100
AcDbEntity
  8
0
  6
Continuous
 62
     7
100
AcDbMText
 10
-389.3196898987
 20
-8.2699963917
 30
0.0
 40
4.83362
 41
0.0
 71
     1
 72
     1
  1
For Instructional Use Only.
  7
SLDTEXTSTYLE0
 73
     1
 44
1.0
  0
ENDSEC
  0
SECTION
  2
OBJECTS
  0
DICTIONARY
  5
C
330
0
100
AcDbDictionary
281
     1
  3
ACAD_GROUP
350
D
  3
ACAD_LAYOUT
350
1A
  3
ACAD_MLINESTYLE
350
17
  3
ACAD_PLOTSETTINGS
350
19
  3
ACAD_PLOTSTYLENAME
350
E
  3
ACAD_SCALELIST
350
47
  3
DWGPROPS
350
1AA
  0
DICTIONARY
  5
D
102
{ACAD_REACTORS
330
C
102
}
330
C
100
AcDbDictionary
281
     1
  0
DICTIONARY
  5
1A
102
{ACAD_REACTORS
330
C
102
}
330
C
100
AcDbDictionary
281
     1
  3
Layout1
350
1E
  3
Layout2
350
26
  3
Model
350
22
  0
DICTIONARY
  5
17
102
{ACAD_REACTORS
330
C
102
}
330
C
100
AcDbDictionary
281
     1
  3
Standard
350
18
  0
DICTIONARY
  5
19
102
{ACAD_REACTORS
330
C
102
}
330
C
100
AcDbDictionary
281
     1
  0
ACDBDICTIONARYWDFLT
  5
E
102
{ACAD_REACTORS
330
C
102
}
330
C
100
AcDbDictionary
281
     1
  3
Normal
350
F
100
AcDbDictionaryWithDefault
340
F
  0
DICTIONARY
  5
47
102
{ACAD_REACTORS
330
C
102
}
330
C
100
AcDbDictionary
281
     1
  3
A0
350
48
  3
A1
350
49
  3
A2
350
4A
  3
A3
350
4B
  3
A4
350
4C
  3
A5
350
4D
  3
A6
350
4E
  3
A7
350
4F
  3
A8
350
50
  3
A9
350
51
  3
B0
350
52
  3
B1
350
53
  3
B2
350
54
  3
B3
350
55
  3
B4
350
56
  3
B5
350
57
  3
B6
350
58
  0
XRECORD
  5
1AA
102
{ACAD_REACTORS
330
C
102
}
330
C
100
AcDbXrecord
280
     1
  1
DWGPROPS COOKIE
  2

  3

  4

  6

  7

  8
anast
  9

300
=
301
=
302
=
303
=
304
=
305
=
306
=
307
=
308
=
309
=
 40
0.0
 41
2460812.723114202
 42
2460812.723169827
  1

 90
        0
  0
LAYOUT
  5
1E
102
{ACAD_REACTORS
330
1A
102
}
330
1A
100
AcDbPlotSettings
  1

  2
none_device
  4

  6

 40
0.0
 41
0.0
 42
0.0
 43
0.0
 44
0.0
 45
0.0
 46
0.0
 47
0.0
 48
0.0
 49
0.0
140
0.0
141
0.0
142
1.0
143
1.0
 70
   688
 72
     1
 73
     0
 74
     5
  7

 75
    16
147
1.0
148
0.0
149
0.0
100
AcDbLayout
  1
Layout1
 70
     1
 71
     1
 10
0.0
 20
0.0
 11
420.0
 21
297.0
 12
0.0
 22
0.0
 32
0.0
 14
1.0000000000E+20
 24
1.0000000000E+20
 34
1.0000000000E+20
 15
-1.0000000000E+20
 25
-1.0000000000E+20
 35
-1.0000000000E+20
146
0.0
 13
0.0
 23
0.0
 33
0.0
 16
1.0
 26
0.0
 36
0.0
 17
0.0
 27
1.0
 37
0.0
 76
     0
330
1B
  0
LAYOUT
  5
26
102
{ACAD_REACTORS
330
1A
102
}
330
1A
100
AcDbPlotSettings
  1

  2
none_device
  4

  6

 40
0.0
 41
0.0
 42
0.0
 43
0.0
 44
0.0
 45
0.0
 46
0.0
 47
0.0
 48
0.0
 49
0.0
140
0.0
141
0.0
142
1.0
143
1.0
 70
   688
 72
     1
 73
     0
 74
     5
  7

 75
    16
147
1.0
148
0.0
149
0.0
100
AcDbLayout
  1
Layout2
 70
     1
 71
     2
 10
0.0
 20
0.0
 11
0.0
 21
0.0
 12
0.0
 22
0.0
 32
0.0
 14
0.0
 24
0.0
 34
0.0
 15
0.0
 25
0.0
 35
0.0
146
0.0
 13
0.0
 23
0.0
 33
0.0
 16
1.0
 26
0.0
 36
0.0
 17
0.0
 27
1.0
 37
0.0
 76
     0
330
23
  0
LAYOUT
  5
22
102
{ACAD_REACTORS
330
1A
102
}
330
1A
100
AcDbPlotSettings
  1

  2
none_device
  4
ANSI_A_(11.00_x_8.50_Inches)
  6

 40
6.35
 41
19.05
 42
6.35000508
 43
19.05000254
 44
279.4
 45
215.9
 46
119.9604750462
 47
-17.97050127
 48
0.0
 49
0.0
140
0.0
141
0.0
142
0.0096724138
143
1.0
 70
  1696
 72
     0
 73
     0
 74
     0
  7

 75
     0
147
0.0179189148
148
-1300.4909072572
149
0.0
100
AcDbLayout
  1
Model
 70
     1
 71
     0
 10
0.0
 20
0.0
 11
420.0
 21
297.0
 12
0.0
 22
0.0
 32
0.0
 14
-389.3196898987
 24
0.0
 34
0.0
 15
498.3196898987
 25
870.0
 35
0.0
146
0.0
 13
0.0
 23
0.0
 33
0.0
 16
1.0
 26
0.0
 36
0.0
 17
0.0
 27
1.0
 37
0.0
 76
     0
330
1F
331
29
  0
MLINESTYLE
  5
18
102
{ACAD_REACTORS
330
17
102
}
330
17
100
AcDbMlineStyle
  2
Standard
 70
     0
  3

 62
   256
 51
90.0
 52
90.0
 71
     2
 49
0.5
 62
   256
  6
BYLAYER
 49
-0.5
 62
   256
  6
BYLAYER
  0
ACDBPLACEHOLDER
  5
F
102
{ACAD_REACTORS
330
E
102
}
330
E
  0
SCALE
  5
48
102
{ACAD_REACTORS
330
47
102
}
330
47
100
AcDbScale
 70
     0
300
1:1
140
1.0
141
1.0
290
     1
  0
SCALE
  5
49
102
{ACAD_REACTORS
330
47
102
}
330
47
100
AcDbScale
 70
     0
300
1:2
140
1.0
141
2.0
290
     0
  0
SCALE
  5
4A
102
{ACAD_REACTORS
330
47
102
}
330
47
100
AcDbScale
 70
     0
300
1:4
140
1.0
141
4.0
290
     0
  0
SCALE
  5
4B
102
{ACAD_REACTORS
330
47
102
}
330
47
100
AcDbScale
 70
     0
300
1:5
140
1.0
141
5.0
290
     0
  0
SCALE
  5
4C
102
{ACAD_REACTORS
330
47
102
}
330
47
100
AcDbScale
 70
     0
300
1:8
140
1.0
141
8.0
290
     0
  0
SCALE
  5
4D
102
{ACAD_REACTORS
330
47
102
}
330
47
100
AcDbScale
 70
     0
300
1:10
140
1.0
141
10.0
290
     0
  0
SCALE
  5
4E
102
{ACAD_REACTORS
330
47
102
}
330
47
100
AcDbScale
 70
     0
300
1:16
140
1.0
141
16.0
290
     0
  0
SCALE
  5
4F
102
{ACAD_REACTORS
330
47
102
}
330
47
100
AcDbScale
 70
     0
300
1:20
140
1.0
141
20.0
290
     0
  0
SCALE
  5
50
102
{ACAD_REACTORS
330
47
102
}
330
47
100
AcDbScale
 70
     0
300
1:30
140
1.0
141
30.0
290
     0
  0
SCALE
  5
51
102
{ACAD_REACTORS
330
47
102
}
330
47
100
AcDbScale
 70
     0
300
1:40
140
1.0
141
40.0
290
     0
  0
SCALE
  5
52
102
{ACAD_REACTORS
330
47
102
}
330
47
100
AcDbScale
 70
     0
300
1:50
140
1.0
141
50.0
290
     0
  0
SCALE
  5
53
102
{ACAD_REACTORS
330
47
102
}
330
47
100
AcDbScale
 70
     0
300
1:100
140
1.0
141
100.0
290
     0
  0
SCALE
  5
54
102
{ACAD_REACTORS
330
47
102
}
330
47
100
AcDbScale
 70
     0
300
2:1
140
2.0
141
1.0
290
     0
  0
SCALE
  5
55
102
{ACAD_REACTORS
330
47
102
}
330
47
100
AcDbScale
 70
     0
300
4:1
140
4.0
141
1.0
290
     0
  0
SCALE
  5
56
102
{ACAD_REACTORS
330
47
102
}
330
47
100
AcDbScale
 70
     0
300
8:1
140
8.0
141
1.0
290
     0
  0
SCALE
  5
57
102
{ACAD_REACTORS
330
47
102
}
330
47
100
AcDbScale
 70
     0
300
10:1
140
10.0
141
1.0
290
     0
  0
SCALE
  5
58
102
{ACAD_REACTORS
330
47
102
}
330
47
100
AcDbScale
 70
     0
300
100:1
140
100.0
141
1.0
290
     0
  0
ENDSEC
  0
EOF
